<svg xmlns="http://www.w3.org/2000/svg" viewBox="0 0 22 22">
 <path d="m 19 14.03 -14 0 0 -8 14 0 z" style="fill:#a6b44a;fill-opacity:1;stroke:none"/>
 <path d="m 6 7.03 0 2 5 0 0 -2 z" style="fill:#073642;stroke:none"/>
 <path d="m 13 7.03 0 2 5 0 0 -2 z" style="fill:#073642;stroke:none"/>
 <path d="m 6 10.03 0 1 12 0 0 -1 z" style="fill:#073642;stroke:none"/>
 <path d="m 6 12.03 0 1 12 0 0 -1 z" style="fill:#073642;stroke:none"/>
 <rect width="1" height="2" x="3" y="6.03" style="fill:#859900;fill-opacity:1;stroke:none"/>
 <rect width="1" height="2" x="3" y="9.03" style="fill:#268bd2;fill-opacity:1;stroke:none"/>
 <rect width="1" height="2" x="3" y="12.03" style="fill:#dc322f;fill-opacity:1;stroke:none"/>
 <path d="m 5 3.034 -1 0 0 14 -1 0 0 1 2 0 z" style="fill:#657b83;fill-opacity:1;stroke:none"/>
 <rect width="2" height="8" x="16" y="6.03" style="fill:#fdf6e3;fill-opacity:0.337;stroke:none"/>
</svg>
