<svg xmlns="http://www.w3.org/2000/svg" viewBox="0 0 22 22">
 <rect width="12" height="16" x="5" y="3" rx="1" style="fill:#839496;fill-opacity:1;stroke:none"/>
 <rect width="2" height="16" x="13.98" y="3" style="fill:#fdf6e3;opacity:0.464;fill-opacity:1;stroke:none"/>
 <path d="m 11.02 5.98 c -0.645 -0.007 -1.299 0.14 -1.91 0.463 -1.953 1.035 -2.678 3.453 -1.643 5.406 c 0.858 1.618 2.66 2.401 4.367 2.036 l -0.744 -2.626 c -0.024 0.001 -0.045 0.014 -0.07 0.014 -0.744 0 -1.348 -0.604 -1.348 -1.348 0 -0.744 0.604 -1.348 1.348 -1.348 0.744 0 1.348 0.604 1.348 1.348 0 0.333 -0.123 0.635 -0.323 0.871 l 1.727 2.064 c 1.252 -1.208 1.614 -3.146 0.758 -4.76 -0.711 -1.342 -2.091 -2.106 -3.51 -2.12 z" style="fill:#073642;fill-opacity:1"/>
 <path d="m 11.957 12.493 1.5 4.5 1.5 0 0 -1 z" style="fill:#073642;fill-opacity:1;stroke:none"/>
 <path d="m 7.218 11.161 c 0.358 1.124 1.217 2.056 2.364 2.505 l 0.941 -2.508 c -0.136 -0.054 -0.258 -0.13 -0.375 -0.231 -0.189 -0.163 -0.327 -0.367 -0.401 -0.588 l -2.528 0.822 z" style="fill:#93a1a1;opacity:0.495;fill-opacity:1"/>
 <path d="m 7.104 9.104 c -0.252 1.152 0.026 2.389 0.795 3.351 l 2.069 -1.701 c -0.091 -0.115 -0.159 -0.242 -0.209 -0.388 -0.082 -0.236 -0.1 -0.482 -0.054 -0.71 l -2.601 -0.552 z" style="fill:#268bd2;opacity:0.246;fill-opacity:1"/>
 <path d="m 14.773 8.648 c -0.366 -1.121 -1.232 -2.048 -2.382 -2.488 l -0.923 2.515 c 0.136 0.053 0.259 0.128 0.377 0.229 0.19 0.162 0.33 0.365 0.406 0.585 l 2.522 -0.84 z" style="fill:#93a1a1;opacity:0.495;fill-opacity:1"/>
 <path d="m 14.902 10.705 c 0.243 -1.154 -0.043 -2.389 -0.819 -3.345 l -2.057 1.716 c 0.092 0.114 0.16 0.241 0.212 0.387 0.084 0.235 0.103 0.481 0.059 0.709 l 2.605 0.533 z" style="fill:#268bd2;opacity:0.19;fill-opacity:1"/>
</svg>
