<svg xmlns="http://www.w3.org/2000/svg" viewBox="0 0 22 22">
 <defs>
  <linearGradient gradientTransform="matrix(0 -1.0833 1.0357 0 -.5893 51.542)" id="linear0" x1="19.885" gradientUnits="userSpaceOnUse" x2="18.962">
   <stop style="stop-color:#6c6cab"/>
   <stop offset="1" style="stop-color:#ababcf"/>
  </linearGradient>
  <linearGradient gradientTransform="translate(0 2)" id="linear1" y1="13.962" y2="33.04" gradientUnits="userSpaceOnUse" x2="0">
   <stop style="stop-color:#fff;stop-opacity:0.451"/>
   <stop offset="1" style="stop-color:#fff;stop-opacity:0"/>
  </linearGradient>
  <radialGradient cx="24.22" cy="45.26" gradientTransform="matrix(.51425 0 0 .03214 -1.45457 15.04525)" id="radial0" r="21.39" gradientUnits="userSpaceOnUse">
   <stop style="stop-color:#000;stop-opacity:0.302"/>
   <stop offset="1" style="stop-color:#000;stop-opacity:0"/>
  </radialGradient>
  <radialGradient cx="10.125" cy="15.833" gradientTransform="matrix(1.6034 .01259 -.00619 .788 -6.011 9.3958)" id="radial1" r="23" gradientUnits="userSpaceOnUse">
   <stop style="stop-color:#b8b2ec"/>
   <stop offset="1" style="stop-color:#8080b4"/>
  </radialGradient>
 </defs>
 <g style="fill-rule:evenodd">
  <path d="m 22 16.5 c 0 0.379 -4.926 0.688 -11 0.688 c -6.074 0 -11 -0.309 -11 -0.688 c 0 -0.379 4.926 -0.688 11 -0.688 c 6.074 0 11 0.309 11 0.688 Z" style="fill:url(#radial0)"/>
  <path d="m 6 35.497 l 39.26 0 c 0.818 0.034 1.227 -0.094 1.227 -0.886 l 0 -2.523 c 0 -0.767 -1.048 -0.784 -1.048 -0.784 l 0.034 -12.58 c 0 0 1.023 0.06 1.023 -0.767 l 0 -2.455 l -44 0 c -0.469 0 -0.997 0.528 -0.997 0.997 l 0 15.997 Z" transform="scale(.45833)" style="fill:url(#radial1);stroke:#60608f;stroke-linejoin:round"/>
 </g>
 <g style="fill:none">
  <path d="m 45 31.5 l -27.545 0 c -0.528 0 -0.955 -0.435 -0.955 -0.972 l 0 -11.06 c 0 -0.537 0.426 -0.963 0.955 -0.963 l 27.545 0" transform="scale(.45833)" style="stroke:url(#linear0)"/>
  <path d="m 2.497 16.44 l 0 15.562 c 1.295 0.852 2.523 1.705 3.818 2.557 l 39.25 0 l 0 -2.276 c -0.784 0.034 -1.21 -0.759 -1.065 -1.449 c 0.026 -4.099 0 -8.207 0.051 -12.307 c -0.043 -0.75 1.091 -0.503 1.014 -1.031 l -0.06 -0.997 c -14.1 0 -28.901 -0.06 -43.01 -0.06 Z" transform="scale(.45833)" style="stroke:url(#linear1);stroke-linejoin:round;stroke-width:0.951"/>
 </g>
 <g style="fill-rule:evenodd">
  <path d="m 4.125 10.789 c -0.969 0 -1.762 -0.012 -1.762 0.027 c 0 0.039 0.793 0.086 1.762 0.086 c 0.969 0 1.762 -0.047 1.762 -0.086 c 0 -0.039 -0.793 -0.027 -1.762 -0.027 m 0 0.262 c -0.727 0 -1.316 -0.016 -1.316 0.012 c 0 0.031 0.59 0.086 1.316 0.086 c 0.727 0 1.316 -0.055 1.316 -0.086 c 0 -0.027 -0.59 -0.012 -1.316 -0.012 m 0 0.316 c -0.535 0 -0.969 -0.012 -0.969 0.016 c 0 0.023 0.434 0.074 0.969 0.074 c 0.531 0 0.969 -0.051 0.969 -0.074 c 0 -0.027 -0.438 -0.016 -0.969 -0.016 m -1.027 -0.766 c 0.199 -0.023 0.297 -0.109 0.34 -0.227 c 0.039 -0.121 0.121 -0.199 0.262 -0.195 c 0.145 0.008 0.168 0.07 0.145 0.145 c -0.023 0.074 -0.02 0.121 -0.039 0.188 c -0.039 0.148 0.676 0.141 0.641 0 c -0.02 -0.066 -0.016 -0.113 -0.039 -0.188 c -0.023 -0.074 0 -0.137 0.145 -0.145 c 0.141 -0.004 0.223 0.074 0.262 0.195 c 0.043 0.117 0.137 0.203 0.34 0.227 c 0.199 0.02 0.43 0.016 0.625 0.02 c 0.199 0.004 0.273 -0.039 0.023 -0.063 c -0.254 -0.023 -0.59 -0.121 -0.652 -0.246 c -0.063 -0.129 -0.129 -0.191 -0.359 -0.207 c -0.484 -0.031 -0.82 -0.031 -1.328 0 c -0.23 0.016 -0.297 0.078 -0.359 0.207 c -0.063 0.125 -0.398 0.223 -0.652 0.246 c -0.25 0.023 -0.176 0.066 0.023 0.063 c 0.195 -0.004 0.426 0 0.625 -0.02 Z" style="fill:#444459"/>
  <path d="m 13.992 12.813 l -0.355 0 c -0.094 0 -0.176 0.086 -0.176 0.184 l 0 0.57 c 0 0.102 0.082 0.184 0.176 0.184 l 0.355 0 c 0.098 0 0.176 -0.082 0.176 -0.184 l 0 -0.57 c 0 -0.098 -0.078 -0.184 -0.176 -0.184 m -0.02 0.695 c 0 0.078 -0.035 0.145 -0.078 0.145 l -0.16 0 c -0.043 0 -0.074 -0.066 -0.074 -0.145 l 0 -0.449 c 0 -0.082 0.035 -0.145 0.074 -0.145 l 0.16 0 c 0.043 0 0.078 0.063 0.078 0.145 m 2.77 0.039 l -0.336 0 c -0.043 0 -0.078 -0.094 -0.078 -0.188 l 0 -0.055 c 0 -0.09 0.035 -0.164 0.078 -0.164 l 0.492 0 l 0 -0.113 l -0.586 0 c -0.094 0 -0.172 0.094 -0.172 0.211 l 0 0.191 c 0 0.117 0.078 0.23 0.172 0.23 l 0.344 0 c 0.043 0 0.074 0.074 0.074 0.164 l 0 0.098 c 0 0.09 -0.031 0.164 -0.074 0.164 l -0.512 0 l 0 0.113 l 0.598 0 c 0.094 0 0.172 -0.094 0.172 -0.211 l 0 -0.23 c 0 -0.117 -0.078 -0.211 -0.172 -0.211 m -5.062 -0.102 l 0 0.57 c 0 0.102 0.082 0.184 0.184 0.184 l 0.43 0 l 0 -0.098 l -0.324 0 c -0.047 0 -0.082 -0.066 -0.082 -0.145 l 0 -0.18 l 0.402 0 l 0 -0.09 l -0.402 0 l 0 -0.18 c 0 -0.082 0.035 -0.145 0.082 -0.145 l 0.328 0 l 0 -0.102 l -0.434 0 c -0.102 0.004 -0.184 0.086 -0.184 0.184 m 6.582 0 l 0 0.57 c 0 0.102 0.086 0.184 0.188 0.184 l 0.43 0 l 0 -0.098 l -0.328 0 c -0.043 0 -0.082 -0.066 -0.082 -0.145 l 0 -0.449 c 0 -0.082 0.039 -0.145 0.082 -0.145 l 0.328 0 l 0 -0.102 l -0.43 0 c -0.102 0 -0.188 0.086 -0.188 0.184 m -5.441 0.5 l -0.164 -0.684 l -0.199 0 l 0 0.938 l 0.133 0 l 0 -0.648 l 0.156 0.648 l 0.148 0 l 0.145 -0.613 l 0 0.613 l 0.211 0 l 0 -0.938 l -0.266 0 m -1.988 0.621 l -0.207 -0.859 l -0.246 0 l 0 1.176 l 0.168 0 l 0 -0.813 l 0.195 0.813 l 0.184 0 l 0.199 -0.828 l 0 0.828 l 0.246 0 l 0 -1.176 l -0.332 0 m 3.785 0.59 l 0 -0.168 c 0 -0.098 -0.078 -0.184 -0.176 -0.184 l -0.441 0 l 0 0.938 l 0.176 0 l 0 -0.836 l 0.207 0 c 0.043 0 0.078 0.063 0.078 0.145 l 0 0.047 c 0 0.078 -0.035 0.145 -0.078 0.145 l -0.043 0 l 0 0.008 l -0.082 0 l 0.207 0.492 l 0.152 0 l -0.168 -0.402 c 0.094 -0.004 0.168 -0.086 0.168 -0.184 m 2.813 0.586 l 0.176 0 l 0 -0.938 l -0.176 0 m -0.84 0.16 l 0.238 0 l 0 0.777 l 0.18 0 l 0 -0.777 l 0.238 0 l 0 -0.16 l -0.656 0 m 2.746 0.004 l -0.176 0 l -0.277 0.324 l 0 -0.324 l -0.176 0 l 0 0.934 l 0.176 0 l 0 -0.402 l 0.277 0.402 l 0.176 0 l -0.352 -0.516 m -3.887 -0.051 l -0.156 -0.367 l -0.18 0 l 0.227 0.531 l 0 0.402 l 0.18 0 l 0 -0.406 l 0.207 -0.531 l -0.133 0 Z" style="fill:#393959"/>
  <g style="fill:#444459">
   <path d="m 5.645 8.742 l 0 0.109 l 0.031 0 c 0.023 0 0.031 0.008 0.031 0.02 c 0 0.008 -0.004 0.016 -0.012 0.027 l -0.113 0.176 c -0.016 0.023 -0.031 0.023 -0.043 0.004 l -0.109 -0.168 c -0.004 -0.012 -0.012 -0.02 -0.012 -0.035 c 0 -0.016 0.012 -0.023 0.039 -0.023 l 0.027 0 l 0 -0.109 l -0.395 0 l 0 0.109 c 0.098 0 0.094 0.016 0.129 0.074 l 0.211 0.336 l 0 0.172 c 0 0.043 -0.012 0.059 -0.059 0.059 l -0.066 0 l 0 0.105 l 0.438 0 l 0 -0.105 l -0.07 0 c -0.043 0 -0.059 -0.016 -0.059 -0.059 l 0 -0.172 l 0.18 -0.277 c 0.066 -0.121 0.078 -0.133 0.125 -0.133 l 0.039 0 l 0 -0.109 m -3.496 0.199 c 0 -0.07 0.086 -0.117 0.191 -0.117 c 0.078 0 0.176 0.051 0.219 0.109 c 0.027 0.031 0.055 0.055 0.063 0.117 l 0.086 0 l 0 -0.309 l -0.094 0 c 0 0.07 -0.02 0.07 -0.039 0.051 c -0.074 -0.059 -0.152 -0.078 -0.242 -0.078 c -0.215 0 -0.352 0.109 -0.352 0.285 c 0 0.172 0.105 0.219 0.254 0.25 l 0.133 0.031 c 0.156 0.035 0.203 0.051 0.203 0.113 c 0 0.066 -0.047 0.109 -0.191 0.109 c -0.094 0.004 -0.195 -0.039 -0.238 -0.094 c -0.023 -0.031 -0.051 -0.051 -0.07 -0.129 l -0.09 0 l 0 0.316 l 0.098 0 c 0.004 -0.043 0.016 -0.078 0.039 -0.063 c 0.07 0.055 0.188 0.09 0.27 0.09 c 0.227 0 0.355 -0.105 0.355 -0.289 c 0 -0.359 -0.594 -0.207 -0.594 -0.395 m 2.211 -0.086 l 0.055 0 c 0.047 0 0.063 0.016 0.063 0.059 l 0 0.344 l -0.379 -0.508 l -0.313 0 l 0 0.105 l 0.059 0 c 0.047 0 0.063 0.016 0.063 0.059 l 0 0.523 c 0 0.047 -0.016 0.063 -0.063 0.063 l -0.059 0 l 0 0.105 l 0.359 0 l 0 -0.105 l -0.059 0 c -0.047 0 -0.063 -0.016 -0.063 -0.063 l 0 -0.434 l 0.441 0.598 l 0.137 0.004 l 0 -0.691 c 0 -0.043 0.016 -0.059 0.063 -0.059 l 0.047 0 l 0 -0.105 l -0.352 0 m -1.051 -0.043 c -0.281 0 -0.453 0.176 -0.453 0.461 c 0 0.277 0.172 0.449 0.445 0.449 c 0.289 0 0.457 -0.172 0.457 -0.465 c 0 -0.266 -0.184 -0.445 -0.449 -0.445 m -0.008 0.801 c -0.152 0 -0.242 -0.129 -0.242 -0.348 c 0 -0.215 0.094 -0.34 0.25 -0.34 c 0.152 0 0.238 0.129 0.238 0.348 c 0 0.219 -0.09 0.34 -0.246 0.34 Z"/>
   <path d="m 3.129 13.18 l -0.836 0.766 l 0.836 0.766 Z"/>
  </g>
 </g>
 <g style="fill:#393959">
  <path d="m 3.914 14.34 c 0.082 -0.098 0.273 -0.352 0.273 -0.582 c 0 -0.188 -0.113 -0.313 -0.25 -0.313 c -0.09 0 -0.168 0.031 -0.258 0.066 l 0.012 0.227 c 0.043 -0.039 0.117 -0.086 0.172 -0.086 c 0.07 0 0.121 0.059 0.121 0.148 c 0 0.16 -0.172 0.363 -0.258 0.488 l -0.063 0.09 l 0 0.191 l 0.535 0 l 0 -0.191 l -0.316 0 m 0.648 -0.527 c -0.023 0 -0.051 0.004 -0.074 0.008 l 0 -0.207 l 0.305 0 l 0 -0.188 l -0.48 0 l 0 0.59 c 0.051 -0.016 0.098 -0.031 0.141 -0.031 c 0.059 0 0.172 0.035 0.172 0.191 c 0 0.074 -0.043 0.184 -0.156 0.184 c -0.055 0 -0.098 -0.023 -0.164 -0.055 l -0.008 0.195 c 0.059 0.031 0.102 0.051 0.211 0.051 c 0.219 0 0.324 -0.188 0.324 -0.371 c 0 -0.238 -0.098 -0.367 -0.27 -0.367 m 0.656 0.012 c -0.023 0 -0.09 0.008 -0.148 0.094 l -0.004 0 c 0.008 -0.156 0.035 -0.324 0.188 -0.324 c 0.051 0 0.109 0.031 0.145 0.051 l 0.012 -0.191 c -0.066 -0.027 -0.117 -0.047 -0.188 -0.047 c -0.262 0 -0.344 0.301 -0.344 0.613 c 0 0.238 0.051 0.531 0.297 0.531 c 0.25 0 0.277 -0.285 0.277 -0.352 c 0 -0.242 -0.109 -0.375 -0.234 -0.375 m -0.051 0.551 c -0.09 0 -0.09 -0.137 -0.09 -0.168 c 0 -0.059 0 -0.195 0.09 -0.195 c 0.078 0 0.086 0.125 0.086 0.172 c 0 0.059 -0.008 0.191 -0.086 0.191 m 0.863 -0.129 l -0.102 -0.52 l -0.227 0 l 0 0.805 l 0.137 0 l 0 -0.637 l 0.004 0 l 0.137 0.637 l 0.098 0 l 0.145 -0.637 l 0 0.637 l 0.137 0 l 0 -0.805 l -0.215 0 l -0.109 0.52 m 0.742 -0.133 c 0.039 -0.008 0.117 -0.059 0.117 -0.184 c 0 -0.086 -0.043 -0.203 -0.176 -0.203 l -0.238 0 l 0 0.805 l 0.23 0 c 0.035 0 0.195 -0.02 0.195 -0.223 c 0 -0.125 -0.055 -0.176 -0.129 -0.195 m -0.152 -0.254 l 0.039 0 c 0.074 0 0.086 0.066 0.086 0.098 c 0 0.016 -0.004 0.098 -0.09 0.098 l -0.035 0 m 0.043 0.34 l -0.043 0 l 0 -0.207 l 0.059 0 c 0.047 0 0.078 0.035 0.078 0.105 c 0 0.102 -0.074 0.102 -0.094 0.102 Z"/>
  <path d="m 13.293 9.34 l 0.164 0 l 0 0.727 l 0.176 0 l 0 -0.727 l 0.16 0 l 0 -0.156 l -0.5 0 m 0.867 -0.016 c -0.215 0 -0.316 0.195 -0.316 0.457 c 0 0.262 0.102 0.457 0.316 0.457 c 0.215 0 0.32 -0.195 0.32 -0.457 c 0 -0.262 -0.105 -0.457 -0.32 -0.457 m 0 0.766 c -0.102 0 -0.137 -0.137 -0.137 -0.309 c 0 -0.172 0.035 -0.309 0.137 -0.309 c 0.102 0 0.141 0.137 0.141 0.309 c 0 0.172 -0.039 0.309 -0.141 0.309 m 0.871 -0.75 l -0.504 0 l 0 0.16 l 0.164 0 l 0 0.723 l 0.176 0 l 0 -0.723 l 0.164 0 m 0.215 -0.16 l -0.25 0.883 l 0.168 0 l 0.055 -0.195 l 0.234 0 l 0.047 0.195 l 0.18 0 l -0.242 -0.887 l -0.191 0 m 0.004 0.539 l 0.09 -0.367 l 0.078 0.367 m 0.516 -0.535 l -0.176 0 l 0 0.883 l 0.426 0 l 0 -0.16 l -0.25 0 l 0 -0.727 m 0.816 0.703 c 0.07 -0.078 0.234 -0.281 0.234 -0.465 c 0 -0.152 -0.098 -0.25 -0.215 -0.25 c -0.078 0 -0.145 0.02 -0.223 0.051 l 0.012 0.184 c 0.039 -0.035 0.102 -0.07 0.148 -0.07 c 0.059 0 0.102 0.047 0.102 0.117 c 0 0.133 -0.148 0.293 -0.219 0.391 l -0.055 0.074 l 0 0.152 l 0.457 0 l 0 -0.152 l -0.27 0 m 0.598 -0.422 c -0.02 0 -0.043 0 -0.063 0.004 l 0 -0.164 l 0.262 0 l 0 -0.148 l -0.41 0 l 0 0.469 c 0.043 -0.012 0.082 -0.023 0.117 -0.023 c 0.051 0 0.148 0.027 0.148 0.152 c 0 0.063 -0.039 0.148 -0.137 0.148 c -0.043 0 -0.082 -0.02 -0.137 -0.043 l -0.012 0.156 c 0.055 0.023 0.09 0.039 0.184 0.039 c 0.188 0 0.277 -0.148 0.277 -0.297 c 0 -0.191 -0.082 -0.293 -0.23 -0.293 m 0.605 0.008 c -0.02 0 -0.078 0.004 -0.129 0.078 c 0.004 -0.129 0.027 -0.262 0.16 -0.262 c 0.043 0 0.09 0.023 0.121 0.039 l 0.012 -0.152 c -0.059 -0.023 -0.102 -0.035 -0.16 -0.035 c -0.223 0 -0.297 0.238 -0.297 0.488 c 0 0.191 0.047 0.426 0.258 0.426 c 0.211 0 0.238 -0.227 0.238 -0.281 c 0 -0.195 -0.098 -0.301 -0.203 -0.301 m -0.043 0.441 c -0.078 0 -0.078 -0.109 -0.078 -0.137 c 0 -0.047 0 -0.156 0.078 -0.156 c 0.066 0 0.074 0.102 0.074 0.141 c 0 0.047 -0.008 0.152 -0.074 0.152 m 0.805 -0.086 l -0.09 -0.383 l -0.199 0 l 0 0.594 l 0.121 0 l 0 -0.469 l 0.121 0.469 l 0.086 0 l 0.129 -0.469 l 0 0.469 l 0.121 0 l 0 -0.594 l -0.188 0 m 0.559 0.285 c 0.031 -0.004 0.102 -0.043 0.102 -0.137 c 0 -0.066 -0.035 -0.148 -0.156 -0.148 l -0.207 0 l 0 0.594 l 0.199 0 c 0.035 0 0.176 -0.012 0.176 -0.164 c 0 -0.094 -0.051 -0.129 -0.113 -0.145 m -0.137 -0.191 l 0.035 0 c 0.066 0 0.074 0.051 0.074 0.074 c 0 0.012 0 0.074 -0.078 0.074 l -0.031 0 m 0.039 0.25 l -0.039 0 l 0 -0.152 l 0.051 0 c 0.043 0 0.07 0.023 0.07 0.078 c 0 0.074 -0.066 0.074 -0.082 0.074 Z"/>
 </g>
</svg>
