<svg xmlns="http://www.w3.org/2000/svg" viewBox="0 0 22 22">
 <g transform="matrix(0.5,0,0,0.5,-1,-503.1811)" style="fill:#eee8d5">
  <path d="m 24 8 c -8.837 0 -16 7.163 -16 16 0 8.837 7.163 16 16 16 8.837 0 16 -7.163 16 -16 0 -8.837 -7.163 -16 -16 -16 z m 0 11 c 2.756 0 5 2.244 5 5 0 2.756 -2.244 5 -5 5 -2.756 0 -5 -2.244 -5 -5 0 -2.756 2.244 -5 5 -5 z m 0 1 c -2.215 0 -4 1.785 -4 4 0 2.215 1.785 4 4 4 2.215 0 4 -1.785 4 -4 0 -2.215 -1.785 -4 -4 -4 z m 0 1.5 c 1.381 0 2.5 1.119 2.5 2.5 0 1.381 -1.119 2.5 -2.5 2.5 -1.381 0 -2.5 -1.119 -2.5 -2.5 0 -1.381 1.119 -2.5 2.5 -2.5 z" transform="translate(0,1004.3622)"/>
 </g>
 <path d="m 10.134 10.11 c 0.195 -0.189 0.445 -0.315 0.715 -0.349 l -0.097 -0.735 c -0.432 0.054 -0.826 0.243 -1.137 0.544 l 0.519 0.539 z m -0.866 -0.894 c 0.388 -0.373 0.889 -0.615 1.426 -0.683 l -0.696 -5.458 c -1.719 0.219 -3.327 0.987 -4.567 2.187 l 3.837 3.954 z" style="fill:#657b83;opacity:0.256"/>
 <path d="m 12.167 11.433 c -0.094 0.254 -0.266 0.476 -0.495 0.623 l 0.404 0.621 c 0.367 -0.234 0.641 -0.575 0.791 -0.981 l -0.7 -0.263 z m 1.167 0.433 c -0.189 0.504 -0.538 0.938 -0.992 1.231 l 2.98 4.626 c 1.457 -0.939 2.577 -2.324 3.178 -3.941 l -5.166 -1.915 z" style="fill:#fffefb;opacity:0.464;fill-opacity:1"/>
 <path d="m 11.896 11.863 c -0.188 0.195 -0.434 0.331 -0.703 0.373 l 0.123 0.731 c 0.43 -0.068 0.817 -0.271 1.117 -0.583 l -0.537 -0.521 z m 0.896 0.863 c -0.375 0.386 -0.868 0.645 -1.401 0.732 l 0.884 5.431 c 1.711 -0.279 3.291 -1.101 4.488 -2.344 l -3.971 -3.819 z" style="fill:#657b83;opacity:0.256"/>
 <path d="m 9.842 10.545 c 0.099 -0.252 0.275 -0.471 0.507 -0.614 l -0.392 -0.629 c -0.371 0.227 -0.652 0.563 -0.81 0.966 l 0.695 0.276 z m -1.158 -0.455 c 0.199 -0.5 0.555 -0.928 1.016 -1.212 l -2.892 -4.681 c -1.474 0.911 -2.621 2.275 -3.252 3.881 l 5.129 2.01 z" style="fill:#fffefb;opacity:0.426;fill-opacity:1"/>
 <path d="m 11 8 c -1.657 0 -3 1.343 -3 3 0 1.657 1.343 3 3 3 1.657 0 3 -1.343 3 -3 0 -1.657 -1.343 -3 -3 -3 z m 0 1 c 1.105 0 2 0.895 2 2 0 1.105 -0.895 2 -2 2 -1.105 0 -2 -0.895 -2 -2 0 -1.105 0.895 -2 2 -2 z" style="fill:#839496;fill-opacity:1;stroke:none"/>
 <path d="m 13.12 3.776 c 0.371 -0.058 0.77 -0.023 1.125 0.147 1.42 0.682 2.632 0.154 2.632 0.154 0 0 -0.954 2.309 -2.634 2.243 -1.588 -0.061 -1.824 0.374 -1.869 0.427 l 0.963 6.688 c 0.007 0.046 0.016 0.086 0.021 0.131 0.15 1.441 -0.855 3.067 -2.468 3.994 -2.047 1.177 -4.461 0.81 -5.398 -0.825 -0.937 -1.634 -0.047 -3.929 1.999 -5.106 1.584 -0.911 3.39 -0.879 4.56 -0.067 l -1.042 -6.676 -0.035 -0.049 c 0 0 1.031 -0.905 2.146 -1.063 z" style="fill:#d33682;color:#000"/>
</svg>
