<svg xmlns="http://www.w3.org/2000/svg" viewBox="0 0 22 22" style="enable-background:new">
 <rect width="1" height="7.305" x="6" y="9" style="fill:#1a1a1a;opacity:1;fill-opacity:1;stroke:none"/>
 <path d="m 2 16 18 0 0 4 -18 0 z" style="fill:#999;stroke:none"/>
 <rect y="17" x="3" height="2" width="3" style="fill:#1a1a1a;fill-opacity:1;stroke:none"/>
 <path d="M 7.319 8.469 A 0.802 0.802 0 0 1 6.517 9.272 0.802 0.802 0 0 1 5.715 8.469 0.802 0.802 0 0 1 6.517 7.667 0.802 0.802 0 0 1 7.319 8.469" style="fill:#1a1a1a;opacity:1;fill-opacity:1;stroke:none"/>
 <circle cx="12" cy="18" r="1" style="fill:#ffeb42;opacity:1;fill-opacity:1;stroke:none"/>
 <rect width="2" height="4" x="16" y="16" style="fill:#fff;opacity:0.4;fill-opacity:1;stroke:none"/>
 <circle cx="15" cy="18" r="1" style="fill:#ffeb42;opacity:1;fill-opacity:1;stroke:none"/>
 <circle cx="18" cy="18" r="1" style="fill:#ffeb42;opacity:1;fill-opacity:1;stroke:none"/>
 <path d="m 13.656 3.495 -0.747 0.523 c 0.88 1.262 1.399 2.794 1.399 4.452 0 1.658 -0.527 3.184 -1.409 4.445 l 0.749 0.525 c 0.988 -1.41 1.576 -3.119 1.576 -4.969 0 -1.85 -0.583 -3.563 -1.569 -4.974 z m -1.501 1.051 -0.747 0.522 c 0.671 0.964 1.067 2.135 1.067 3.402 0 1.267 -0.398 2.436 -1.07 3.399 l 0.748 0.524 c 0.779 -1.113 1.238 -2.464 1.238 -3.923 0 -1.459 -0.46 -2.81 -1.237 -3.924 z m -9.774 1.051 c -0.569 0.816 -0.905 1.805 -0.905 2.873 0 1.068 0.337 2.057 0.906 2.872 l 0.744 -0.52 c -0.462 -0.666 -0.733 -1.476 -0.733 -2.352 0 -0.875 0.272 -1.684 0.734 -2.351 z m 8.273 0 -0.746 0.522 c 0.462 0.667 0.734 1.476 0.734 2.351 0 0.875 -0.271 1.685 -0.733 2.352 l 0.744 0.52 c 0.569 -0.815 0.906 -1.804 0.906 -2.872 0 -1.067 -0.336 -2.056 -0.905 -2.873 z m -6.772 1.051 c -0.36 0.518 -0.573 1.146 -0.573 1.822 0 0.676 0.22 1.299 0.58 1.816 l 0.741 -0.518 c -0.255 -0.368 -0.405 -0.813 -0.405 -1.298 0 -0.484 0.15 -0.93 0.403 -1.299 z m 5.271 0 -0.747 0.523 c 0.253 0.369 0.403 0.815 0.403 1.299 0 0.485 -0.15 0.93 -0.405 1.298 l 0.741 0.518 c 0.36 -0.518 0.58 -1.14 0.58 -1.816 0 -0.676 -0.213 -1.303 -0.573 -1.822 z" mix-blend-mode="normal" isolation="auto" white-space="normal" solid-opacity="1" solid-color="#000000" style="visibility:visible;shape-rendering:auto;color-interpolation-filters:linearRGB;fill:#a6e3ff;opacity:1;image-rendering:auto;fill-opacity:0.557;stroke:none;display:inline;color:#000;fill-rule:nonzero;color-rendering:auto;color-interpolation:sRGB"/>
 <path d="m 15.16 2.442 -0.749 0.525 c 1.088 1.56 1.731 3.454 1.731 5.503 0 2.049 -0.643 3.943 -1.731 5.503 l 0.749 0.525 c 1.195 -1.709 1.899 -3.786 1.899 -6.03 0 -2.241 -0.704 -4.318 -1.899 -6.03 z" mix-blend-mode="normal" isolation="auto" white-space="normal" solid-opacity="1" solid-color="#000000" style="visibility:visible;shape-rendering:auto;color-interpolation-filters:linearRGB;fill:#a6e3ff;opacity:1;image-rendering:auto;fill-opacity:0.557;stroke:none;display:inline;color:#000;fill-rule:nonzero;color-rendering:auto;color-interpolation:sRGB"/>
</svg>
