<svg xmlns="http://www.w3.org/2000/svg" viewBox="0 0 22 22">
 <rect width="11.636" height="12.8" x="5.182" y="2.564" style="fill:#5aa9e1;opacity:1;fill-opacity:1;stroke:none;fill-rule:nonzero"/>
 <path d="m 14 2 -7.07 13.364 l 9.891 0 0 -13.364 z" style="fill:#fdf6e3;fill-opacity:0.188;stroke:none;fill-rule:evenodd"/>
 <rect width="11.636" height="4.655" x="5.182" y="14.372" rx="1" style="fill:#a9aeb7;opacity:1;fill-opacity:1;stroke:none;fill-rule:nonzero"/>
 <g transform="matrix(0.58181818,0,0,0.58181818,-2.9636362,-587.02891)" style="fill:#073642;fill-opacity:1">
  <path d="m 5.875 2 c -0.473 0 -0.875 0.398 -0.875 0.871 l 0 15.674 c 0 0.04 0.044 0.393 0.236 0.6 c 0.192 0.207 0.455 0.342 0.838 0.455 c 0.766 0.227 2.102 0.4 4.746 0.4 l 0.359 0 c 2.356 0 3.698 -0.184 4.51 -0.4 c 0.406 -0.108 0.681 -0.218 0.891 -0.363 c 0.21 -0.145 0.42 -0.301 0.42 -0.691 l 0 -15.674 c 0 -0.473 -0.402 -0.871 -0.875 -0.871 l -10.25 0 z m 0.125 1 l 10 0 l 0 11 l -10 0 l 0 -11 z m 1 12 a 0.5 0.5 0 0 1 0.5 0.5 a 0.5 0.5 0 0 1 -0.5 0.5 a 0.5 0.5 0 0 1 -0.5 -0.5 a 0.5 0.5 0 0 1 0.5 -0.5 z m 1.5 0 a 0.5 0.5 0 0 1 0.5 0.5 a 0.5 0.5 0 0 1 -0.5 0.5 a 0.5 0.5 0 0 1 -0.5 -0.5 a 0.5 0.5 0 0 1 0.5 -0.5 z m 1.5 0 a 0.5 0.5 0 0 1 0.5 0.5 a 0.5 0.5 0 0 1 -0.5 0.5 a 0.5 0.5 0 0 1 -0.5 -0.5 a 0.5 0.5 0 0 1 0.5 -0.5 z m 2 0 a 0.5 0.5 0 0 1 0.5 0.5 a 0.5 0.5 0 0 1 -0.5 0.5 a 0.5 0.5 0 0 1 -0.5 -0.5 a 0.5 0.5 0 0 1 0.5 -0.5 z m 1.5 0 a 0.5 0.5 0 0 1 0.5 0.5 a 0.5 0.5 0 0 1 -0.5 0.5 a 0.5 0.5 0 0 1 -0.5 -0.5 a 0.5 0.5 0 0 1 0.5 -0.5 z m 1.5 0 a 0.5 0.5 0 0 1 0.5 0.5 a 0.5 0.5 0 0 1 -0.5 0.5 a 0.5 0.5 0 0 1 -0.5 -0.5 a 0.5 0.5 0 0 1 0.5 -0.5 z m -4 1.5 a 1.25 1.25 0 0 1 1.25 1.25 a 1.25 1.25 0 0 1 -1.25 1.25 a 1.25 1.25 0 0 1 -1.25 -1.25 a 1.25 1.25 0 0 1 1.25 -1.25 z m -4 0.5 a 0.5 0.5 0 0 1 0.5 0.5 a 0.5 0.5 0 0 1 -0.5 0.5 a 0.5 0.5 0 0 1 -0.5 -0.5 a 0.5 0.5 0 0 1 0.5 -0.5 z m 1.5 0 a 0.5 0.5 0 0 1 0.5 0.5 a 0.5 0.5 0 0 1 -0.5 0.5 a 0.5 0.5 0 0 1 -0.5 -0.5 a 0.5 0.5 0 0 1 0.5 -0.5 z m 5 0 a 0.5 0.5 0 0 1 0.5 0.5 a 0.5 0.5 0 0 1 -0.5 0.5 a 0.5 0.5 0 0 1 -0.5 -0.5 a 0.5 0.5 0 0 1 0.5 -0.5 z m 1.5 0 a 0.5 0.5 0 0 1 0.5 0.5 a 0.5 0.5 0 0 1 -0.5 0.5 a 0.5 0.5 0 0 1 -0.5 -0.5 a 0.5 0.5 0 0 1 0.5 -0.5 z" transform="matrix(1.71875,0,0,1.71875,5.0937497,1008.9559)" style="color:#000"/>
 </g>
 <path d="m 15 19.748 c 0.264 -0.046 0.494 -0.096 0.689 -0.148 c 0.121 -0.032 0.211 -0.066 0.311 -0.1 l 0 -17.5 -1 0" style="fill:#eee8d5;fill-opacity:0.149;stroke:none"/>
</svg>
