<svg xmlns="http://www.w3.org/2000/svg" viewBox="0 0 22 22">
 <g transform="translate(0,-1030.3622)">
  <rect width="20" height="5" x="1" y="1033.36" style="fill:#1976d2;fill-opacity:1;stroke:none"/>
  <path d="m 4 1034.36 c 0 -1 0 -2 0.909 -2 l 3.182 0 c 0.909 0 0.909 1 0.909 2 z" style="fill:#1976d2;fill-opacity:1;stroke:none"/>
  <path d="m 2 1034.36 18 0 0 4 -18 0 z" style="fill:#95989f;fill-opacity:1;stroke:none"/>
  <rect y="1034.36" x="5" height="6" width="14" style="fill:#d8d8da;fill-opacity:1;stroke:none"/>
  <rect width="14" height="3" x="3" y="1035.36" style="fill:#f9f9f9;fill-opacity:1;stroke:none"/>
  <path d="m 0 1036.36 22 0 -1 14 -20 0 z" style="fill:#42a5f5;fill-opacity:1;stroke:none"/>
  <path d="M 9.5 9 A 3 2.8 0 0 0 6.719 11.813 A 3 2.8 0 0 0 7 13 L 6.719 13 L 6.719 13.03 A 2.143 2 0 0 0 5 15 A 2.143 2 0 0 0 6.719 16.969 L 6.719 17 L 6.938 17 L 7.281 17 L 15.281 17 L 15.281 16.969 A 2.143 2 0 0 0 17 15 A 2.143 2 0 0 0 15.281 13.03 L 15.281 13 L 14.844 13 A 2.143 2 0 0 0 15.281 11.813 A 2.143 2 0 0 0 13.156 9.813 A 2.143 2 0 0 0 12.06 10.06 A 3 2.8 0 0 0 9.719 9 A 3 2.8 0 0 0 9.5 9 z" transform="translate(0,1030.3622)" style="fill:#2a74b9;opacity:1;fill-opacity:1;stroke:none"/>
 </g>
</svg>
