<?xml version="1.0" encoding="UTF-8" standalone="no"?>
<svg
   xmlns:dc="http://purl.org/dc/elements/1.1/"
   xmlns:cc="http://creativecommons.org/ns#"
   xmlns:rdf="http://www.w3.org/1999/02/22-rdf-syntax-ns#"
   xmlns:svg="http://www.w3.org/2000/svg"
   xmlns="http://www.w3.org/2000/svg"
   xmlns:sodipodi="http://sodipodi.sourceforge.net/DTD/sodipodi-0.dtd"
   xmlns:inkscape="http://www.inkscape.org/namespaces/inkscape"
   width="22"
   viewBox="0 0 6.2088891 6.2088891"
   height="22"
   id="svg2"
   version="1.1"
   inkscape:version="0.91 r"
   sodipodi:docname="calendar-08.svg">
  <metadata
     id="metadata17">
    <rdf:RDF>
      <cc:Work
         rdf:about="">
        <dc:format>image/svg+xml</dc:format>
        <dc:type
           rdf:resource="http://purl.org/dc/dcmitype/StillImage" />
        <dc:title />
      </cc:Work>
    </rdf:RDF>
  </metadata>
  <defs
     id="defs15" />
  <sodipodi:namedview
     pagecolor="#ffffff"
     bordercolor="#666666"
     borderopacity="1"
     objecttolerance="10"
     gridtolerance="10"
     guidetolerance="10"
     inkscape:pageopacity="0"
     inkscape:pageshadow="2"
     inkscape:window-width="1366"
     inkscape:window-height="747"
     id="namedview13"
     showgrid="true"
     inkscape:zoom="16"
     inkscape:cx="1.276585"
     inkscape:cy="10.040062"
     inkscape:window-x="0"
     inkscape:window-y="21"
     inkscape:window-maximized="1"
     inkscape:current-layer="svg2"
     showguides="false">
    <inkscape:grid
       type="xygrid"
       id="grid4145"
       originx="0"
       originy="0"
       spacingy="0.28222223"
       spacingx="0.28222223" />
  </sodipodi:namedview>
  <path
     d="m 1.1642656,0.19402711 0,0.46566681 -0.51176782,0 c -0.11641673,0 -0.19402784,0.0970145 -0.19395437,0.1940278 l -2.723e-5,5.16114838 c -4.624e-5,0.097006 0.0969676,0.1940202 0.1939816,0.194018 l 4.90361112,0 c 0.097015,2.2e-6 0.1940278,-0.097012 0.1939372,-0.1939813 L 5.750181,0.85372172 C 5.7501367,0.75670792 5.653123,0.65969392 5.5561089,0.65969392 l -0.5113145,0 0,-0.46566694 C 5.0446777,-8.2504714e-7 5.0446777,-8.2504714e-7 4.8506498,-8.2504714e-7 l -0.5044724,0 c -0.1940278,0 -0.1940278,0 -0.1940278,0.19402793504714 l 0,0.37041734 -2.0955007,0 0,-0.37041734 c 0,-0.19402793504714 0,-0.19402793504714 -0.1940279,-0.19402793504714 l -0.5044724,0 c -0.1940278,0 -0.193883,0 -0.193883,0.19402793504714 z m 0.2583003,0.0644174 0.3756378,0 0,0.77760389 c 0,0.3221459 -0.3756378,0.3221459 -0.3756378,0 z m 2.9880288,0 0.3756378,0 0,0.77760349 c 0,0.3221463 -0.3756378,0.3221463 -0.3756378,0 z m -3.56411531,1.68183309 4.51555751,0 0,3.8806472 -4.51555751,-7.37e-5 z"
     id="path4"
     inkscape:connector-curvature="0"
     style="color:#000000;fill:#cacaca"
     sodipodi:nodetypes="scccccccccccccccccccsccsccccsscccccc" />
  <g
     transform="matrix(0.28222222,0,0,0.28222222,-9.4977623,-9.4483884)"
     style="font-style:normal;font-variant:normal;font-weight:normal;font-stretch:normal;font-size:20px;line-height:125%;font-family:'Droid Sans';-inkscape-font-specification:'Droid Sans';letter-spacing:0px;word-spacing:0px;fill:#000000;fill-opacity:1;stroke:none;stroke-width:1px;stroke-linecap:butt;stroke-linejoin:miter;stroke-opacity:1"
     id="flowRoot4147" />
  <g
     transform="scale(1.1417405,0.87585576)"
     style="font-style:normal;font-variant:normal;font-weight:normal;font-stretch:normal;font-size:3.03820014px;line-height:125%;font-family:Ubuntu;-inkscape-font-specification:Ubuntu;letter-spacing:0px;word-spacing:0px;fill:#3798d6;fill-opacity:1;stroke:none;stroke-width:1px;stroke-linecap:butt;stroke-linejoin:miter;stroke-opacity:1"
     id="text4155">
    <path
       d="m 2.7289926,3.3447974 q 0.1508624,0 0.2851465,0.036472 0.1342841,0.036472 0.2354117,0.1094167 0.1011275,0.072944 0.1608094,0.1823612 0.059682,0.1094167 0.059682,0.2569634 0,0.1094167 -0.033157,0.1989395 -0.033157,0.087865 -0.091181,0.1608093 -0.058024,0.071287 -0.1375997,0.1276528 -0.079576,0.056366 -0.1724142,0.1027854 0.096154,0.051393 0.1873346,0.1143902 0.092838,0.062997 0.1641251,0.1425733 0.071287,0.077918 0.1143901,0.1757298 0.043104,0.097812 0.043104,0.2188334 0,0.1508624 -0.059682,0.2735417 -0.059682,0.1226794 -0.1674406,0.2088865 -0.1077589,0.086207 -0.2586213,0.1326262 -0.1492046,0.046419 -0.3299079,0.046419 -0.1956238,0 -0.3481441,-0.044761 Q 2.2283283,5.7436755 2.1238851,5.6607841 2.0194419,5.5778926 1.9647335,5.4568711 1.911683,5.3358496 1.911683,5.1849872 q 0,-0.1243371 0.036472,-0.2238068 0.036472,-0.09947 0.09947,-0.1790455 Q 2.1106225,4.7025591 2.1951717,4.6412194 2.279721,4.5798798 2.3758751,4.5334606 2.2946415,4.4820679 2.2233548,4.422386 2.1520682,4.3610464 2.0990177,4.2881019 2.047625,4.2134996 2.0161262,4.1239769 1.9862853,4.0344541 1.9862853,3.9266953 q 0,-0.1442311 0.059682,-0.25199 0.06134,-0.1094167 0.1641251,-0.1823612 0.1027854,-0.074602 0.2370695,-0.1110745 0.1342841,-0.036472 0.2818309,-0.036472 z M 2.385822,5.1551463 q 0,0.066313 0.021552,0.1226793 0.021552,0.054708 0.062998,0.094496 0.043103,0.039788 0.106101,0.062997 0.062998,0.021552 0.145889,0.021552 0.174072,0 0.2602791,-0.081234 0.086207,-0.082891 0.086207,-0.2171755 0,-0.069629 -0.029841,-0.1243372 -0.028183,-0.056366 -0.074602,-0.1027854 -0.044761,-0.048077 -0.1027853,-0.087865 -0.058024,-0.039788 -0.116048,-0.07626 l -0.036472,-0.02321 q -0.072944,0.036472 -0.1326263,0.079576 -0.059682,0.041446 -0.1027854,0.092838 -0.041446,0.049735 -0.064655,0.1094167 -0.02321,0.059682 -0.02321,0.1293106 z M 2.7256769,3.7194667 q -0.054708,0 -0.1027854,0.016578 -0.046419,0.016578 -0.081234,0.048077 -0.033157,0.031499 -0.053051,0.077918 -0.019894,0.046419 -0.019894,0.1044432 0,0.069629 0.019894,0.1210215 0.021552,0.049735 0.056366,0.089523 0.036472,0.03813 0.082891,0.069629 0.048077,0.029841 0.1011276,0.059682 0.051393,-0.026525 0.097812,-0.058024 0.046419,-0.031499 0.081234,-0.071287 0.036472,-0.041446 0.058024,-0.092838 0.021552,-0.051393 0.021552,-0.1177059 0,-0.058024 -0.019894,-0.1044432 Q 2.947826,3.8156207 2.9130116,3.784122 2.8781971,3.7526232 2.8301201,3.736045 2.7820431,3.7194667 2.7256769,3.7194667 Z"
       style="font-style:normal;font-variant:normal;font-weight:bold;font-stretch:normal;font-size:3.39523315px;font-family:'droid sans';-inkscape-font-specification:'droid sans Bold';text-align:center;letter-spacing:0.02328032px;word-spacing:0.02328032px;text-anchor:middle;fill:#3798d6;fill-opacity:1"
       id="path4142" />
  </g>
</svg>
