<svg xmlns="http://www.w3.org/2000/svg" viewBox="0 0 22 22">
 <g transform="translate(0,-1030.3622)">
  <rect width="20" height="5" x="1" y="1033.36" style="fill:#388e3c;fill-opacity:1;stroke:none"/>
  <path d="m 4 1034.36 c 0 -1 0 -2 0.909 -2 l 3.182 0 c 0.909 0 0.909 1 0.909 2 z" style="fill:#388e3c;fill-opacity:1;stroke:none"/>
  <path d="m 2 1034.36 18 0 0 4 -18 0 z" style="fill:#95989f;fill-opacity:1;stroke:none"/>
  <rect y="1034.36" x="5" height="6" width="14" style="fill:#d8d8da;fill-opacity:1;stroke:none"/>
  <rect width="14" height="3" x="3" y="1035.36" style="fill:#f9f9f9;fill-opacity:1;stroke:none"/>
  <path d="m 0 1036.36 22 0 -1 14 -20 0 z" style="fill:#66bb6a;fill-opacity:1;stroke:none"/>
  <path d="m 6 8 c -0.554 0 -1 0.446 -1 1 l 0 6 c 0 0.554 0.446 1 1 1 l 3 0 l -2 1 c -2 1 -1 1 0 1 l 8 0 c 1 0 2 0 0 -1 l -2 -1 l 3 0 c 0.554 0 1 -0.446 1 -1 l 0 -6 c 0 -0.554 -0.446 -1 -1 -1 l -10 0 z m 1 1 l 8 0 c 0.554 0 1 0.446 1 1 l 0 3.906 c 0 0.554 -0.446 1.094 -1 1.094 l -2 0 l -4 0 l -2 0 c -0.554 0 -1 -0.54 -1 -1.094 l 0 -3.906 c 0 -0.554 0.446 -1 1 -1 z m 1 1 l 0 4 l 4 0 l 0 -4 l -4 0 z m 1 1 l 1 1 l 1 1 l -2 0 l 0 -2 z" transform="translate(0,1030.3622)" style="fill:#103612;opacity:0.4;fill-opacity:1;stroke:none"/>
 </g>
</svg>
