<svg viewBox="0 0 22 22" xmlns="http://www.w3.org/2000/svg">
 <rect y="4" width="11" height="4" style="fill:#388e3c;fill-opacity:1;stroke:none" x="1"/>
 <path d="m 2 4 c 0 -0.5 0 -1 0.727 -1 l 2.545 0 c 0.727 0 0.727 0.5 0.727 1 z" style="fill:#388e3c;fill-opacity:1;stroke:none"/>
 <rect y="5" width="9" height="4" style="fill:#d8d8da;fill-opacity:1;stroke:none" x="2"/>
 <rect y="6" width="8" height="2.28" style="fill:#f9f9f9;fill-opacity:1;stroke:none" x="3"/>
 <path d="m 0.004 7 13 0 -0.65 7 -11.7 0 z" style="fill:#66bb6a;fill-opacity:1;stroke:none"/>
 <path d="m 2.73 3 c -0.727 0 -0.727 0.5 -0.727 1 l -1 0 l 0 3 l -1 0 l 0.65 7 l 11.699 0 l 0.65 -7 l -1 0 l 0 -3 l -6 0 c 0 -0.5 0 -1 -0.727 -1 l -2.545 0 z" style="fill:#fff;opacity:0.5;fill-opacity:1;stroke:none"/>
 <rect y="10" width="11" height="4" style="fill:#388e3c;fill-opacity:1;stroke:none" x="10"/>
 <path d="m 11 10 c 0 -0.5 0 -1 0.727 -1 l 2.545 0 c 0.727 0 0.727 0.5 0.727 1 z" style="fill:#388e3c;fill-opacity:1;stroke:none"/>
 <rect y="11" width="9" height="4" style="fill:#d8d8da;fill-opacity:1;stroke:none" x="11"/>
 <rect y="12" width="8" height="2.28" style="fill:#f9f9f9;fill-opacity:1;stroke:none" x="12"/>
 <path d="m 9 13 13 0 l -0.65 7 -11.7 0 z" style="fill:#66bb6a;fill-opacity:1;stroke:none"/>
</svg>
