<svg xmlns="http://www.w3.org/2000/svg" viewBox="0 0 22 22">
 <g transform="translate(0,-1030.3622)">
  <rect width="20" height="5" x="1" y="1033.36" style="fill:#e65100;fill-opacity:1;stroke:none"/>
  <path d="m 4 1034.36 c 0 -1 0 -2 0.909 -2 l 3.182 0 c 0.909 0 0.909 1 0.909 2 z" style="fill:#e65100;fill-opacity:1;stroke:none"/>
  <path d="m 2 1034.36 18 0 0 4 -18 0 z" style="fill:#95989f;fill-opacity:1;stroke:none"/>
  <rect y="1034.36" x="5" height="6" width="14" style="fill:#d8d8da;fill-opacity:1;stroke:none"/>
  <rect width="14" height="3" x="3" y="1035.36" style="fill:#f9f9f9;fill-opacity:1;stroke:none"/>
  <path d="m 0 1036.36 22 0 -1 14 -20 0 z" style="fill:#f57c00;fill-opacity:1;stroke:none"/>
  <path d="m 9 8 c -0.554 0 -1 0.446 -1 1 l 6 0 c 0 -0.554 -0.446 -1 -1 -1 l -4 0 z m -1 2 l 0 6 l 6 0 l 0 -6 l -6 0 z m 1 1 l 4 0 l 0 1 l -4 0 l 0 -1 z m 2 2 c 0.552 0 1 0.448 1 1 c 0 0.552 -0.448 1 -1 1 c -0.552 0 -1 -0.448 -1 -1 c 0 -0.552 0.448 -1 1 -1 z m -3 4 c 0 0.554 0.446 1 1 1 l 4 0 c 0.554 0 1 -0.446 1 -1 l -6 0 z" transform="translate(0,1030.3622)" style="fill:#ab5d0b;opacity:1;fill-opacity:1;stroke:none;fill-rule:evenodd"/>
 </g>
</svg>
