<svg xmlns="http://www.w3.org/2000/svg" viewBox="0 0 22 22">
 <g transform="translate(0,-1030.3622)">
  <rect width="20" height="5" x="1" y="1033.36" style="fill:#ec407a;fill-opacity:1;stroke:none"/>
  <path d="m 4 1034.36 c 0 -1 0 -2 0.909 -2 l 3.182 0 c 0.909 0 0.909 1 0.909 2 z" style="fill:#ec407a;fill-opacity:1;stroke:none"/>
  <path d="m 2 1034.36 18 0 0 4 -18 0 z" style="fill:#95989f;fill-opacity:1;stroke:none"/>
  <rect y="1034.36" x="5" height="6" width="14" style="fill:#d8d8da;fill-opacity:1;stroke:none"/>
  <rect width="14" height="3" x="3" y="1035.36" style="fill:#f9f9f9;fill-opacity:1;stroke:none"/>
  <path d="m 0 1036.36 22 0 -1 14 -20 0 z" style="fill:#f06292;fill-opacity:1;stroke:none"/>
  <path d="m 10.375 1038.36 c -2.133 0 -4.375 2.243 -4.375 5 c 0 2.757 2.243 5 4.375 5 3.382 0 5.625 -2.243 5.625 -5 0 -2.757 -2.243 -5 -5 -5 z m 1.031 0.703 c 0.466 0.043 0.918 0.149 1.328 0.328 -0.032 0.039 -0.056 0.074 -0.078 0.141 -0.126 0.379 -0.315 0.198 -0.094 0.672 0.221 0.473 0.406 0.596 0.469 0.375 0.063 -0.221 -0.159 -0.533 0.094 -0.406 0.253 0.126 0.439 -0.034 0.25 0.25 -0.189 0.284 -0.185 0.438 -0.406 0.375 -0.221 -0.064 -0.217 0.374 -0.438 0.438 -0.221 0.063 -0.297 -0.095 -0.297 0.063 0 0.158 0.125 0.013 0.094 0.266 -0.01 0.077 -0.007 0.091 -0.016 0.125 -0.207 -0.059 -0.3 -0.092 -0.453 -0.032 -0.158 0.063 -0.344 0.469 -0.344 0.469 0.197 0.197 0.289 0.339 0.359 0.406 -0.044 0.022 -0.097 0.031 -0.141 0.063 -0.316 0.221 -0.562 0.263 -0.656 0.578 -0.095 0.316 -0.062 0.027 -0.062 0.406 0 0.379 -0.096 0.121 0.094 0.469 0.189 0.347 0.654 0.514 0.875 0.703 0.221 0.189 0.449 -0.412 0.891 0.156 0.442 0.568 0.47 0.341 0.313 0.656 -0.158 0.316 -0.312 0.421 -0.375 0.547 -0.063 0.126 0.123 0.562 0.344 0.656 0.005 0 0.011 0 0.016 0 -0.012 0.027 -0.02 0.051 -0.031 0.078 -0.286 0.13 -0.637 0.309 -0.703 0.328 -0.156 0.045 -0.708 0.138 -1.109 0.25 -0.05 0.014 -0.09 0.014 -0.109 0.016 0.05 -0.054 0.445 -0.261 0.641 -0.375 0.268 -0.157 -0.016 -0.141 -0.016 -0.141 0 0 -0.426 -0.048 -1.297 -0.048 -0.435 0 -0.624 0.019 -0.719 0.048 -0.047 0.014 -0.071 0.028 -0.094 0.047 -0.023 0.019 -0.039 0.04 -0.078 0.063 -0.156 0.089 0.092 0.183 -0.109 0.25 -0.151 0.05 -0.168 0 -0.297 -0.094 0.092 -0.091 0.218 -0.201 0.375 -0.391 0.284 -0.344 0.374 -0.281 0.469 -0.594 0.095 -0.313 -0.797 -0.219 -0.797 -0.406 0 -0.188 -0.153 -0.312 -0.438 -0.438 -0.284 -0.125 -0.091 -0.188 -0.406 -0.281 -0.316 -0.093 -0.671 0.469 -0.766 0.281 -0.095 -0.188 0.297 -0.188 0.297 -0.406 0 -0.214 -0.45 0.161 -0.531 -0.109 -0.002 -0.01 -0.014 -0.01 -0.016 -0.016 -0.008 -0.039 -0.003 -0.063 0 -0.093 0.02 -0.225 0.28 -0.313 0.391 -0.531 0.126 -0.25 0.061 0.188 0.219 0.406 0.158 0.219 0.095 -0.281 0 -0.563 -0.095 -0.281 0.06 -0.281 0.281 -0.656 0.221 -0.375 0.219 -0.594 0.219 -0.875 0 -0.281 0.153 -0.312 0.469 -0.594 0.145 -0.129 0.258 -0.241 0.344 -0.344 0.021 -0.01 0.042 -0.01 0.063 -0.016 0.335 -0.134 0.475 -0.335 0.766 -0.938 0.29 -0.602 -0.114 -0.04 -0.203 -0.062 -0.089 -0.022 -0.219 -0.181 -0.531 -0.359 -0.064 -0.037 -0.122 -0.054 -0.172 -0.062 l 0.578 -0.953 c 0.185 -0.05 0.384 -0.084 0.578 -0.11 0.071 0.404 0.031 0.781 0.031 0.781 0 0 -0.109 0.129 -0.109 0.219 0 0.089 0.598 -0.737 0.688 -0.781 0.089 -0.045 0.315 0.237 0.359 -0.188 0.002 -0.024 -0.003 -0.025 0 -0.047 z m 0.844 1.687 c -0.032 -0.01 -0.07 0 -0.109 0.016 0 0.111 -0.043 0.191 -0.062 0.234 -0.012 -0.02 -0.047 -0.047 -0.047 -0.047 -0.047 0.087 -0.149 0.164 -0.047 0.141 0.103 -0.023 0.18 0.04 0.109 -0.047 -0.014 -0.016 -0.007 -0.01 -0.016 -0.016 0.013 0.01 0.039 0.016 0.094 0.016 0.062 0 0.096 0 0.141 0 -0.076 0.056 -0.159 0.08 -0.047 0.109 0.15 0.039 0.219 0.047 0.219 0.016 0 -0.031 -0.047 -0.141 -0.047 -0.141 0.029 -0.012 0.057 -0.027 0.031 -0.078 -0.047 -0.094 -0.123 -0.188 -0.219 -0.203 z m 2.391 0.265 c 0.078 0.121 0.153 0.246 0.219 0.375 -0.043 0.252 -0.154 0.422 0.031 0.422 0.052 0 0.098 -0.011 0.141 -0.016 0.006 0.015 0.01 0.032 0.016 0.047 -0.316 0 -0.467 0.094 -0.625 0.063 -0.158 -0.032 -0.597 -0.06 -0.313 -0.344 0.166 -0.166 0.373 -0.43 0.531 -0.547 z m -1.969 0.578 c 0.029 0.01 0.054 0.039 0.078 0.093 0.095 0.221 0.251 0.406 0.125 0.438 -0.126 0.031 -0.188 0.063 -0.188 0.063 0 0 0.437 0.284 0.469 -0.031 0.032 -0.316 -0.125 -0.5 -0.125 -0.5 0 0 0.218 0.218 0.281 0.344 0.063 0.126 0.061 0 0.219 0.156 0.158 0.158 0.123 -0.627 0.344 -0.406 0.221 0.221 0.36 0.217 0.297 0.375 -0.063 0.158 0.406 -0.191 0.406 0.125 0 0.304 0.194 0.428 -0.188 0.578 -0.144 -0.01 -0.259 -0.034 -0.281 -0.078 -0.063 -0.126 -0.422 -0.031 -0.422 -0.031 -0.944 -0.236 -1.354 -0.311 -1.625 -0.266 0.005 -0.01 0.01 -0.01 0.016 -0.016 0.138 -0.249 0.398 -0.594 0.313 -0.719 0.12 -0.069 0.215 -0.145 0.281 -0.125 z m 2.656 1.578 c 0.003 0.064 0 0.123 0 0.188 0 0.178 -0.011 0.359 -0.031 0.531 -0.284 -0.253 -0.688 -0.25 -0.688 -0.25 0 0 0.247 -0.28 0.594 -0.406 0.043 -0.016 0.09 -0.037 0.125 -0.063 z" style="fill:#c64077;opacity:1;fill-opacity:1;color:#000"/>
 </g>
</svg>
