<svg viewBox="0 0 22 22" xmlns="http://www.w3.org/2000/svg">
 <rect style="fill:#ec407a;fill-opacity:1;stroke:none" x="1" y="4" height="4" width="11"/>
 <path style="fill:#ec407a;fill-opacity:1;stroke:none" d="m 2 4 c 0 -0.5 0 -1 0.727 -1 l 2.545 0 c 0.727 0 0.727 0.5 0.727 1 z"/>
 <rect style="fill:#d8d8da;fill-opacity:1;stroke:none" x="2" y="5" height="4" width="9"/>
 <rect style="fill:#f9f9f9;fill-opacity:1;stroke:none" x="3" y="6" height="2.28" width="8"/>
 <path style="fill:#f06292;fill-opacity:1;stroke:none" d="m 0.004 7 13 0 -0.65 7 -11.7 0 z"/>
 <path style="fill:#fff;opacity:0.5;fill-opacity:1;stroke:none" d="m 2.73 3 c -0.727 0 -0.727 0.5 -0.727 1 l -1 0 l 0 3 l -1 0 l 0.65 7 l 11.699 0 l 0.65 -7 l -1 0 l 0 -3 l -6 0 c 0 -0.5 0 -1 -0.727 -1 l -2.545 0 z"/>
 <rect style="fill:#ec407a;fill-opacity:1;stroke:none" x="10" y="10" height="4" width="11"/>
 <path style="fill:#ec407a;fill-opacity:1;stroke:none" d="m 11 10 c 0 -0.5 0 -1 0.727 -1 l 2.545 0 c 0.727 0 0.727 0.5 0.727 1 z"/>
 <rect style="fill:#d8d8da;fill-opacity:1;stroke:none" x="11" y="11" height="4" width="9"/>
 <rect style="fill:#f9f9f9;fill-opacity:1;stroke:none" x="12" y="12" height="2.28" width="8"/>
 <path style="fill:#f06292;fill-opacity:1;stroke:none" d="m 9 13 13 0 l -0.65 7 -11.7 0 z"/>
</svg>
