<?xml version="1.0" encoding="UTF-8" standalone="no"?>
<svg
   xmlns:dc="http://purl.org/dc/elements/1.1/"
   xmlns:cc="http://creativecommons.org/ns#"
   xmlns:rdf="http://www.w3.org/1999/02/22-rdf-syntax-ns#"
   xmlns:svg="http://www.w3.org/2000/svg"
   xmlns="http://www.w3.org/2000/svg"
   xmlns:xlink="http://www.w3.org/1999/xlink"
   xmlns:sodipodi="http://sodipodi.sourceforge.net/DTD/sodipodi-0.dtd"
   xmlns:inkscape="http://www.inkscape.org/namespaces/inkscape"
   width="22"
   viewBox="0 0 22 22"
   height="22"
   id="svg2"
   version="1.1"
   inkscape:version="0.91 r"
   sodipodi:docname="gnome-dev-trash-full.svg">
  <metadata
     id="metadata20">
    <rdf:RDF>
      <cc:Work
         rdf:about="">
        <dc:format>image/svg+xml</dc:format>
        <dc:type
           rdf:resource="http://purl.org/dc/dcmitype/StillImage" />
        <dc:title />
      </cc:Work>
    </rdf:RDF>
  </metadata>
  <defs
     id="defs18">
    <linearGradient
       id="linearGradient3844">
      <stop
         id="stop3846"
         offset="0"
         style="stop-color:#000000;stop-opacity:0.39215687;" />
      <stop
         id="stop3848"
         offset="1"
         style="stop-color:#000000;stop-opacity:0;" />
    </linearGradient>
    <radialGradient
       inkscape:collect="always"
       xlink:href="#linearGradient3844"
       id="radialGradient3114"
       gradientUnits="userSpaceOnUse"
       gradientTransform="matrix(1,0,0,0.11307633,0,36.703704)"
       cx="24.075672"
       cy="41.38316"
       fx="24.075672"
       fy="41.38316"
       r="21.075672" />
  </defs>
  <sodipodi:namedview
     pagecolor="#ffffff"
     bordercolor="#666666"
     borderopacity="1"
     objecttolerance="10"
     gridtolerance="10"
     guidetolerance="10"
     inkscape:pageopacity="0"
     inkscape:pageshadow="2"
     inkscape:window-width="1920"
     inkscape:window-height="1052"
     id="namedview16"
     showgrid="true"
     inkscape:zoom="45.28604"
     inkscape:cx="5.8812892"
     inkscape:cy="6.8221554"
     inkscape:window-x="0"
     inkscape:window-y="28"
     inkscape:window-maximized="1"
     inkscape:current-layer="svg2">
    <inkscape:grid
       type="xygrid"
       id="grid2997"
       empspacing="5"
       visible="true"
       enabled="true"
       snapvisiblegridlinesonly="true" />
  </sodipodi:namedview>
  <g
     id="layer3"
     inkscape:label="Blob"
     transform="matrix(0.64705882,0,0,1,-4.5294117,-22)">
    <path
       sodipodi:type="arc"
       style="fill:url(#radialGradient3114);fill-opacity:1;stroke:none"
       id="path3842"
       sodipodi:cx="24.075672"
       sodipodi:cy="41.38316"
       sodipodi:rx="21.075672"
       sodipodi:ry="2.3831596"
       d="m 45.151344,41.38316 c 0,1.316182 -9.4359,2.383159 -21.075672,2.383159 C 12.4359,43.766319 3,42.699342 3,41.38316 3,40.066977 12.4359,39 24.075672,39 c 11.639772,0 21.075672,1.066977 21.075672,2.38316 z"
       transform="matrix(0.80661722,0,0,1.0490275,4.5801483,-1.9120725)" />
  </g>
  <path
     inkscape:connector-curvature="0"
     id="path3801"
     d="m 11.529412,5.3243273 -2.6470591,1.6216223 1.5882351,0 z"
     style="fill:none;stroke:none" />
  <rect
     ry="0.49333313"
     rx="0.50854701"
     y="5"
     x="4"
     height="16"
     width="14"
     id="rect3054"
     style="fill:#f07a64;fill-opacity:1;stroke:none" />
  <path
     style="fill:#f07a64;fill-opacity:1;stroke:none"
     d="m 8.3529411,1.000001 c -0.5294117,0 -1.0588235,0.5405408 -1.0588235,1.0810816 l 0,2.1621631 0,1.0810816 1.0588235,0 L 9,4.0810816 9,3 C 9,2.4594593 9.4705883,2 10,2 l 2,0 c 0.529412,0 1,0.4594593 1,1 l 0,1.0810816 0.117647,1.2432457 1.588235,0 0,-1.0810816 0,-2.1621631 c 0,-0.5405408 -0.529412,-1.0810816 -1.058823,-1.0810816 z"
     id="path3861"
     inkscape:connector-curvature="0"
     sodipodi:nodetypes="ccccccccccccccccc" />
  <path
     sodipodi:nodetypes="ccccc"
     inkscape:connector-curvature="0"
     id="path3824"
     d="M 2,7 C 2,5.8 3.0588235,4 3.5882353,4 L 18.411765,4 C 18.941176,4 20,5.8 20,7 z"
     style="fill:#ff8e78;fill-opacity:1;stroke:none" />
  <rect
     ry="0.5"
     rx="0.5"
     y="9"
     x="5.9999995"
     height="10"
     width="2"
     id="rect3826"
     style="fill:#b64f46;fill-opacity:1;stroke:none" />
  <rect
     style="fill:#b64f46;fill-opacity:1;stroke:none"
     id="rect3110"
     width="2"
     height="10"
     x="10"
     y="9"
     rx="0.5"
     ry="0.5" />
  <rect
     style="fill:#b64f46;fill-opacity:1;stroke:none"
     id="rect3112"
     width="2"
     height="10"
     x="14"
     y="9"
     rx="0.5"
     ry="0.5" />
  <rect
     y="7"
     x="4"
     height="3"
     width="14"
     id="rect3863"
     style="opacity:0.1;fill:#000000;fill-opacity:1;stroke:none" />
</svg>
