<svg xmlns="http://www.w3.org/2000/svg" viewBox="0 0 22 22">
 <g transform="translate(0,-1030.3622)">
  <rect width="20" height="5" x="1" y="1033.36" style="fill:#ffb300;fill-opacity:1;stroke:none"/>
  <path d="m 4 1034.36 c 0 -1 0 -2 0.909 -2 l 3.182 0 c 0.909 0 0.909 1 0.909 2 z" style="fill:#ffb300;fill-opacity:1;stroke:none"/>
  <path d="m 2 1034.36 18 0 0 4 -18 0 z" style="fill:#95989f;fill-opacity:1;stroke:none"/>
  <rect y="1034.36" x="5" height="6" width="14" style="fill:#d8d8da;fill-opacity:1;stroke:none"/>
  <rect width="14" height="3" x="3" y="1035.36" style="fill:#f9f9f9;fill-opacity:1;stroke:none"/>
  <path d="m 0 1036.36 22 0 -1 14 -20 0 z" style="fill:#ffca28;fill-opacity:1;stroke:none"/>
  <path d="m 9.5 9 c -0.277 0 -0.5 0.223 -0.5 0.5 l 0 1 l 0 3.594 c -0.154 -0.054 -0.327 -0.094 -0.5 -0.094 c -0.828 0 -1.5 0.672 -1.5 1.5 c 0 0.828 0.672 1.5 1.5 1.5 c 0.766 0 1.378 -0.571 1.469 -1.313 c 0.025 -0.06 0.031 -0.118 0.031 -0.188 l 0 -4.5 l 4 0 l 0 3.094 c -0.154 -0.054 -0.327 -0.094 -0.5 -0.094 c -0.828 0 -1.5 0.672 -1.5 1.5 c 0 0.828 0.672 1.5 1.5 1.5 c 0.766 0 1.378 -0.571 1.469 -1.313 c 0.025 -0.06 0.031 -0.118 0.031 -0.188 l 0 -5 l 0 -1 c 0 -0.277 -0.223 -0.5 -0.5 -0.5 l -5 0 z" transform="translate(0,1030.3622)" style="fill:#745100;opacity:0.4;fill-opacity:1;stroke:none"/>
 </g>
</svg>
