<svg xmlns="http://www.w3.org/2000/svg" viewBox="0 0 16 16">
 <path d="m 9.136 4.282 c -0.813 0.303 -1.326 1.082 -1.268 1.936 l 0.02 0.33 -0.325 -0.04 c -1.183 -0.155 -2.217 -0.679 -3.095 -1.559 l -0.429 -0.437 -0.111 0.323 c -0.234 0.719 -0.084 1.479 0.403 1.99 0.26 0.281 0.201 0.322 -0.248 0.154 -0.156 -0.053 -0.293 -0.094 -0.306 -0.073 -0.045 0.047 0.111 0.659 0.234 0.901 0.169 0.337 0.514 0.666 0.891 0.861 l 0.319 0.154 -0.377 0.007 c -0.365 0 -0.377 0.007 -0.339 0.148 0.13 0.437 0.644 0.901 1.216 1.103 l 0.403 0.141 -0.351 0.215 c -0.52 0.309 -1.132 0.484 -1.741 0.497 -0.293 0.007 -0.533 0.034 -0.533 0.054 0 0.067 0.793 0.443 1.255 0.591 1.385 0.437 3.03 0.249 4.266 -0.497 0.878 -0.531 1.756 -1.586 2.166 -2.608 0.221 -0.545 0.442 -1.539 0.442 -2.02 0 -0.309 0.019 -0.35 0.384 -0.719 0.215 -0.215 0.416 -0.451 0.455 -0.518 0.066 -0.128 0.059 -0.128 -0.273 -0.013 -0.553 0.201 -0.631 0.175 -0.357 -0.128 0.201 -0.215 0.442 -0.605 0.442 -0.719 0 -0.02 -0.098 0.012 -0.208 0.073 -0.117 0.067 -0.377 0.168 -0.572 0.228 l -0.352 0.114 -0.319 -0.222 c -0.175 -0.121 -0.422 -0.255 -0.552 -0.296 -0.332 -0.094 -0.839 -0.08 -1.138 0.027" style="fill:#00abec"/>
</svg>
