<svg xmlns="http://www.w3.org/2000/svg" viewBox="0 0 16 16">
 <path d="M 10.7 4.7 C 10.68 4.8 10.5 5 10.4 5 l -3 0 C 7.2 5 7 5.2 7 5.4 L 7 5.6 C 7 5.8 7.2 6 7.4 6 L 10 6 c 0.2 0 0.35 0.18 0.3 0.4 C 10.25 6.59 10.1 7.15 10 7.4 9.9 7.65 9.8 8 9.4 8 l -2 0 C 7.1 8 7 8.22 6.8 8.5 6.62 8.72 5 11 5 11 L 5 11 5 4.1 C 5 3.5 5.4 3 6.1 3 l 4.6 0 c 0.2 0 0.35 0.2 0.3 0.4 z M 6.1 2 C 4.5 2 4 2.4 4 4.1 l 0 9.1 c 0 0.4 0.15 0.5 0.25 0.5 0.1 0 0.23 -0.11 0.35 -0.3 C 4.68 13.28 7.7 9 7.7 9 l 1.95 0 c 1 0 1.1 -0.6 1.3 -1.3 0.1 -0.5 0.7 -2.8 1 -4.2 0.2 -1 -0.1 -1.5 -1.1 -1.5 z" fill="#fa4778"/>
</svg>
