<svg xmlns="http://www.w3.org/2000/svg" viewBox="130.35156 177.43359 16 16" style="overflow:visible;enable-background:new 130.3515625 177.4335938 800 151.6611328">
 <path d="m 142.1 183.45 c -0.187 0.018 -0.964 0.193 -1.226 0.249 -0.28 0.075 -2.837 2.05 -3 2.535 -0.037 0.168 -0.056 0.426 -0.056 0.669 l -0.019 0.392 c 0 0.28 0.078 0.731 0.115 0.973 0.168 0.037 1.385 0.005 1.608 0.042 l -0.028 0.502 c -0.219 -0.016 -1.764 -0.012 -2.646 -0.012 -0.448 0 -1.888 0.049 -2.331 0.036 l 0.084 -0.477 c 0.243 -0.019 1.247 0.043 1.468 -0.19 0.11 -0.116 0.075 -0.24 0.075 -0.911 l 0 -0.317 c 0 -0.149 0 -0.429 -0.037 -0.691 -0.093 -0.28 -2.345 -3.092 -2.924 -3.54 -0.168 -0.056 -1.221 -0.161 -1.482 -0.217 l -0.013 -0.43 c 0.13 -0.065 1.301 0.016 2.437 -0.026 0.747 -0.028 2.45 0 2.66 0.025 l -0.054 0.379 c -0.224 0.056 -1.302 0.077 -1.582 0.151 0.728 1.082 1.879 2.476 2.252 3.02 0.205 -0.299 2.01 -1.54 2.065 -1.969 -0.28 -0.056 -1.207 -0.19 -1.356 -0.19 l -0.089 -0.489 c 0.254 -0.04 1.59 0 2.254 0 0.573 0 1.798 0 2.146 0.029 l -0.318 0.46" style="fill:#881fa2;fill-opacity:1"/>
 <path d="m 143.32 188.45 -0.433 -0.037 -0.005 -0.938 0.548 0.068 0.491 0.023 -0.136 0.918 -0.466 -0.035 m 0.558 -1.657 -0.808 -0.078 c 0.085 -0.409 0.011 -3.545 0.005 -3.88 l -0.042 -0.659 c 0.225 0.044 0.191 0.021 1.141 0.121 0.578 0.061 0.654 0.087 0.844 0.094 l -0.248 0.781 c -0.212 0.625 -0.826 3.412 -0.891 3.621 z" style="fill:#881fa2;fill-opacity:1"/>
</svg>
