<svg xmlns="http://www.w3.org/2000/svg" viewBox="0 0 16 16">
 <path d="m 4.576 13 c 0.577 -2.997 -0.977 -3.995 -2.435 -2.86 l -0.661 -0.41 1.169 -1.325 0.026 -0.631 1.119 -0.714 -0.281 -0.716 c 0.48 0.21 0.924 0.179 1.097 0.673 1.034 0.125 2.027 1.199 1.98 1.913 0.645 -1.871 1.548 -2.87 -1.146 -4.217 l -0.084 -0.714 1.687 0.431 0.534 -0.283 0.797 0.493 0.575 -0.431 c -0.164 0.41 0.203 0.525 -0.101 0.872 0.857 0.714 0.589 2.956 0.681 3.882 0.24 -0.726 0.8 -1.536 1.773 -1.758 c 0.076 -0.442 0.698 -0.44 1.054 -0.756 l -0.116 0.705 0.984 0.672 0.012 0.642 1.28 1.42 -0.897 0.431 c -2.126 -1.641 -2.742 0.517 -2.102 2.682" style="fill:#791918;stroke:none"/>
</svg>
