<svg xmlns="http://www.w3.org/2000/svg" viewBox="0 0 16 16">
 <path d="m 6.335 2.22 c -0.379 -0.086 -0.69 -0.052 -1.017 0.121 -0.362 0.224 -0.569 0.569 -0.655 1.052 c -0.086 0.5 0 0.983 0.259 1.465 l 0.121 0.172 -0.414 -0.138 c -0.517 -0.121 -1 -0.052 -1.483 0.207 -0.5 0.259 -0.81 0.621 -1.017 1.121 -0.19 0.483 -0.172 0.948 0.069 1.379 0.103 0.19 0.259 0.345 0.396 0.448 0.207 0.207 0.466 0.328 0.776 0.379 l 0.121 0.034 -0.259 0.224 c -0.241 0.207 -0.379 0.465 -0.465 0.724 c -0.086 0.31 -0.052 0.621 0.121 0.914 0.086 0.138 0.172 0.258 0.31 0.345 0.138 0.121 0.31 0.207 0.517 0.224 0.379 0.086 0.776 0.086 1.207 -0.052 l -0.31 0.517 -0.086 0.224 c -0.172 0.552 -0.121 1.034 0.138 1.534 0.121 0.19 0.259 0.362 0.397 0.517 0.207 0.19 0.465 0.31 0.776 0.397 0.517 0.138 1.034 0.121 1.534 -0.138 0.483 -0.259 0.793 -0.672 0.948 -1.19 l 0.017 -0.103 c 0.327 0.362 0.638 0.604 0.983 0.69 0.345 0.103 0.69 0.086 1 -0.121 0.293 -0.172 0.5 -0.466 0.603 -0.827 0.086 -0.379 0.086 -0.759 0 -1.189 0.172 0.121 0.345 0.207 0.552 0.258 0.552 0.172 1.034 0.155 1.517 -0.103 0.466 -0.258 0.776 -0.672 0.931 -1.207 0.138 -0.517 0.103 -1.017 -0.155 -1.5 l -0.086 -0.138 c -0.138 -0.207 -0.276 -0.414 -0.483 -0.552 -0.172 -0.121 -0.379 -0.207 -0.569 -0.293 c 0.535 -0.259 0.914 -0.621 1.086 -1.086 0.121 -0.379 0.086 -0.69 -0.086 -1 l 0 -0.034 c -0.207 -0.345 -0.483 -0.569 -0.914 -0.69 -0.259 -0.052 -0.552 -0.052 -0.81 -0.034 l -0.569 0.121 0.19 -0.431 c 0.172 -0.552 0.121 -1.086 -0.172 -1.586 l -0.052 -0.086 c -0.259 -0.431 -0.638 -0.69 -1.155 -0.827 -0.534 -0.138 -1.034 -0.086 -1.517 0.172 -0.483 0.258 -0.827 0.655 -0.983 1.172 l 0 0.034 -0.017 0.121 -0.069 -0.121 -0.172 -0.31 c -0.276 -0.43 -0.621 -0.689 -1.052 -0.81 l 0 0 z m 4.396 1.034 c 0.086 0.172 0.138 0.379 0.138 0.603 l -0.052 0.379 c -0.069 0.19 -0.155 0.362 -0.259 0.517 l -1.552 1.897 c -0.155 -0.121 -0.328 -0.207 -0.5 -0.293 l -0.172 -1.948 -0.017 -0.69 0.017 -0.172 c 0.086 -0.345 0.327 -0.603 0.638 -0.776 0.31 -0.172 0.655 -0.207 0.983 -0.086 0.362 0.086 0.621 0.276 0.776 0.569 l 0 0 z m -5.344 0.345 c 0.017 -0.31 0.138 -0.517 0.345 -0.638 0.103 -0.086 0.259 -0.086 0.396 -0.017 0.31 0.086 0.569 0.31 0.776 0.741 0.086 0.172 0.172 0.345 0.207 0.552 l 0.345 2.034 -0.259 0.086 -1.534 -1.672 -0.086 -0.172 c -0.138 -0.311 -0.224 -0.604 -0.189 -0.914 l 0 0 z m -0.931 2.02 0.466 0.19 1.517 1.103 c -0.138 0.172 -0.224 0.345 -0.276 0.517 l -2.482 0.31 -0.172 -0.034 c -0.31 -0.052 -0.517 -0.19 -0.655 -0.448 -0.138 -0.259 -0.138 -0.517 -0.034 -0.776 0.121 -0.328 0.345 -0.586 0.672 -0.724 0.31 -0.173 0.62 -0.224 0.965 -0.138 l 0 0 z m 1.638 2.81 0.121 0.345 0.052 0.121 c -0.259 0.224 -0.448 0.431 -0.655 0.621 l -0.517 0.431 -0.138 0.086 c -0.328 0.155 -0.603 0.207 -0.896 0.172 -0.259 -0.017 -0.466 -0.103 -0.552 -0.258 l -0.052 -0.19 0.034 -0.155 c 0.086 -0.259 0.31 -0.517 0.707 -0.707 0.207 -0.086 0.379 -0.172 0.517 -0.207 l 1.379 -0.259 0 0 z m 5.379 -2.793 c 0.31 -0.138 0.603 -0.172 0.914 -0.138 0.293 0.034 0.5 0.172 0.603 0.379 l 0.069 0.224 -0.034 0.172 c -0.121 0.31 -0.379 0.552 -0.81 0.741 -0.172 0.086 -0.362 0.121 -0.569 0.155 l -2.12 0.259 -0.034 -0.121 -0.034 -0.052 0.069 -0.086 1.741 -1.448 0.207 -0.086 0 0 z m -4.396 1.638 c 0.207 -0.19 0.483 -0.31 0.81 -0.31 c 0.31 0 0.603 0.121 0.793 0.31 0.241 0.241 0.345 0.5 0.345 0.81 0 0.31 -0.103 0.603 -0.345 0.81 -0.224 0.224 -0.483 0.345 -0.793 0.345 -0.328 0 -0.604 -0.121 -0.81 -0.345 c -0.224 -0.207 -0.345 -0.5 -0.345 -0.81 c 0 -0.31 0.121 -0.569 0.345 -0.81 l 0 0 z m 0.396 2.5 c 0.034 0.586 0.086 1.207 0.172 1.879 l 0 0.69 -0.017 0.172 c -0.121 0.31 -0.328 0.569 -0.638 0.707 -0.31 0.172 -0.638 0.207 -0.948 0.121 -0.345 -0.086 -0.603 -0.293 -0.741 -0.569 -0.086 -0.172 -0.155 -0.379 -0.155 -0.586 l 0.086 -0.396 c 0.034 -0.172 0.121 -0.345 0.259 -0.483 l 1.448 -1.724 c 0.172 0.086 0.345 0.172 0.534 0.189 l 0 0 z m 1.328 -0.224 0.724 0.741 0.448 0.552 0.086 0.172 c 0.155 0.293 0.241 0.569 0.207 0.897 -0.034 0.31 -0.138 0.534 -0.345 0.621 -0.121 0.086 -0.259 0.086 -0.396 0.069 -0.328 -0.086 -0.586 -0.345 -0.776 -0.759 l -0.207 -0.569 -0.259 -1.5 0.293 -0.103 0.224 -0.121 0 0 z m 0.776 -1.069 1.948 -0.172 0.69 -0.017 0.172 0.017 c 0.259 0.086 0.5 0.241 0.638 0.5 0.172 0.19 0.258 0.448 0.258 0.741 l -0.052 0.345 c -0.086 0.345 -0.293 0.604 -0.586 0.741 -0.31 0.172 -0.621 0.207 -0.965 0.086 -0.207 -0.052 -0.345 -0.138 -0.466 -0.276 l -1.81 -1.5 0.121 -0.258 0.052 -0.207 0 0 z" style="fill:#292929;fill-opacity:1"/>
 <path d="m 10.731 3.254 c 0.086 0.172 0.138 0.379 0.138 0.603 l -0.052 0.379 c -0.069 0.19 -0.155 0.362 -0.259 0.517 l -1.552 1.897 c -0.155 -0.121 -0.328 -0.207 -0.5 -0.293 l -0.172 -1.948 -0.017 -0.69 0.017 -0.172 c 0.086 -0.345 0.327 -0.603 0.638 -0.776 0.31 -0.172 0.655 -0.207 0.983 -0.086 0.362 0.086 0.621 0.276 0.776 0.569 l 0 0 z m -5.344 0.345 c 0.017 -0.31 0.138 -0.517 0.345 -0.638 0.103 -0.086 0.259 -0.086 0.396 -0.017 0.31 0.086 0.569 0.31 0.776 0.741 0.086 0.172 0.172 0.345 0.207 0.552 l 0.345 2.034 -0.259 0.086 -1.534 -1.672 -0.086 -0.172 c -0.138 -0.311 -0.224 -0.604 -0.189 -0.914 l 0 0 z m -0.931 2.02 0.466 0.19 1.517 1.103 c -0.138 0.172 -0.224 0.345 -0.276 0.517 l -2.482 0.31 -0.172 -0.034 c -0.31 -0.052 -0.517 -0.19 -0.655 -0.448 -0.138 -0.259 -0.138 -0.517 -0.034 -0.776 0.121 -0.328 0.345 -0.586 0.672 -0.724 0.31 -0.173 0.62 -0.224 0.965 -0.138 l 0 0 z m 7.02 0.017 c 0.31 -0.138 0.603 -0.172 0.914 -0.138 0.293 0.034 0.5 0.172 0.603 0.379 l 0.069 0.224 -0.034 0.172 c -0.121 0.31 -0.379 0.552 -0.81 0.741 -0.172 0.086 -0.362 0.121 -0.569 0.155 l -2.12 0.259 -0.034 -0.121 -0.034 -0.052 0.069 -0.086 1.741 -1.448 0.207 -0.086 0 0 z m -4 4.137 c 0.034 0.586 0.086 1.207 0.172 1.879 l 0 0.69 -0.017 0.172 c -0.121 0.31 -0.328 0.569 -0.638 0.707 -0.31 0.172 -0.638 0.207 -0.948 0.121 -0.345 -0.086 -0.603 -0.293 -0.741 -0.569 -0.086 -0.172 -0.155 -0.379 -0.155 -0.586 l 0.086 -0.396 c 0.034 -0.172 0.121 -0.345 0.259 -0.483 l 1.448 -1.724 c 0.172 0.086 0.345 0.172 0.534 0.189 l 0 0 z m 1.328 -0.224 0.724 0.741 0.448 0.552 0.086 0.172 c 0.155 0.293 0.241 0.569 0.207 0.897 -0.034 0.31 -0.138 0.534 -0.345 0.621 -0.121 0.086 -0.259 0.086 -0.396 0.069 -0.328 -0.086 -0.586 -0.345 -0.776 -0.759 l -0.207 -0.569 -0.259 -1.5 0.293 -0.103 0.224 -0.121 0 0 z m 0.776 -1.069 1.948 -0.172 0.69 -0.017 0.172 0.017 c 0.259 0.086 0.5 0.241 0.638 0.5 0.172 0.19 0.258 0.448 0.258 0.741 l -0.052 0.345 c -0.086 0.345 -0.293 0.604 -0.586 0.741 -0.31 0.172 -0.621 0.207 -0.965 0.086 -0.207 -0.052 -0.345 -0.138 -0.466 -0.276 l -1.81 -1.5 0.121 -0.258 0.052 -0.207 0 0 z" style="fill:#73db47;fill-opacity:1"/>
 <path d="m 6.094 8.426 0.121 0.345 0.052 0.121 c -0.259 0.224 -0.448 0.431 -0.655 0.621 l -0.517 0.431 -0.138 0.086 c -0.328 0.155 -0.603 0.207 -0.896 0.172 -0.259 -0.017 -0.466 -0.103 -0.552 -0.258 l -0.052 -0.19 0.034 -0.155 c 0.086 -0.259 0.31 -0.517 0.707 -0.707 0.207 -0.086 0.379 -0.172 0.517 -0.207 l 1.379 -0.259 0 0 z" style="fill:#f03c4e;fill-opacity:1"/>
 <path d="m 7.08 7.271 c 0.207 -0.19 0.483 -0.31 0.81 -0.31 c 0.31 0 0.603 0.121 0.793 0.31 0.241 0.241 0.345 0.5 0.345 0.81 0 0.31 -0.103 0.603 -0.345 0.81 -0.224 0.224 -0.483 0.345 -0.793 0.345 -0.328 0 -0.604 -0.121 -0.81 -0.345 c -0.224 -0.207 -0.345 -0.5 -0.345 -0.81 c 0 -0.31 0.121 -0.569 0.345 -0.81 l 0 0 z" style="fill:#fffd59;fill-opacity:1"/>
</svg>
