<?xml version="1.0"?>
<svg xmlns="http://www.w3.org/2000/svg" xmlns:xlink="http://www.w3.org/1999/xlink" version="1.1" id="Layer_1" x="0px" y="0px" viewBox="0 0 512 512" style="enable-background:new 0 0 512 512;" xml:space="preserve" width="512px" height="512px"><g transform="matrix(0.746799, 0, 0, 0.746799, 64.8195, 64.8195)"><g>
	<g>
		<path d="M495.304,61.217H16.696C7.475,61.217,0,68.693,0,77.913v83.12h512v-83.12C512,68.693,504.525,61.217,495.304,61.217z     M322.284,133.386c-12.275,0-22.261-9.986-22.261-22.261c0-12.275,9.986-22.261,22.261-22.261s22.261,9.986,22.261,22.261    C344.545,123.4,334.559,133.386,322.284,133.386z M382.926,133.386c-12.275,0-22.261-9.986-22.261-22.261    c0-12.275,9.986-22.261,22.261-22.261s22.261,9.986,22.261,22.261C405.187,123.4,395.201,133.386,382.926,133.386z     M443.568,133.386c-12.275,0-22.261-9.986-22.261-22.261c0-12.275,9.986-22.261,22.261-22.261s22.261,9.986,22.261,22.261    C465.829,123.4,455.843,133.386,443.568,133.386z" data-original="#000000" class="active-path" data-old_color="#000000" fill="#FFFFFF"/>
	</g>
</g><g>
	<g>
		<path d="M0,194.424v239.663c0,9.22,7.475,16.696,16.696,16.696h478.609c9.22,0,16.696-7.475,16.696-16.696V194.424H0z     M235.45,335.319l-54.653,46.504c-7.022,5.976-17.559,5.127-23.535-1.896c-5.976-7.022-5.127-17.559,1.896-23.535l39.709-33.789    l-39.709-33.789c-7.023-5.976-7.871-16.512-1.896-23.535c5.975-7.024,16.513-7.871,23.535-1.896l54.653,46.504    C243.28,316.55,243.28,328.657,235.45,335.319z M342.022,385.803h-65.954c-9.22,0-16.696-7.475-16.696-16.696    s7.475-16.696,16.696-16.696h65.954c9.22,0,16.696,7.475,16.696,16.696S351.242,385.803,342.022,385.803z" data-original="#000000" class="active-path" data-old_color="#000000" fill="#FFFFFF"/>
	</g>
</g></g> </svg>
