<?xml version="1.0" encoding="UTF-8" standalone="no"?>
<svg
   xmlns:dc="http://purl.org/dc/elements/1.1/"
   xmlns:cc="http://creativecommons.org/ns#"
   xmlns:rdf="http://www.w3.org/1999/02/22-rdf-syntax-ns#"
   xmlns:svg="http://www.w3.org/2000/svg"
   xmlns="http://www.w3.org/2000/svg"
   xmlns:sodipodi="http://sodipodi.sourceforge.net/DTD/sodipodi-0.dtd"
   xmlns:inkscape="http://www.inkscape.org/namespaces/inkscape"
   width="240"
   height="240"
   version="1.1"
   viewBox="0 0 63.49875 63.49875"
   id="svg27"
   sodipodi:docname="folder-documents.svg"
   inkscape:version="0.92.4 5da689c313, 2019-01-14">
  <metadata
     id="metadata31">
    <rdf:RDF>
      <cc:Work
         rdf:about="">
        <dc:format>image/svg+xml</dc:format>
        <dc:type
           rdf:resource="http://purl.org/dc/dcmitype/StillImage" />
        <dc:title></dc:title>
      </cc:Work>
    </rdf:RDF>
  </metadata>
  <sodipodi:namedview
     pagecolor="#ffffff"
     bordercolor="#666666"
     borderopacity="1"
     objecttolerance="10"
     gridtolerance="10"
     guidetolerance="10"
     inkscape:pageopacity="0"
     inkscape:pageshadow="2"
     inkscape:window-width="1321"
     inkscape:window-height="740"
     id="namedview29"
     showgrid="false"
     inkscape:pagecheckerboard="true"
     inkscape:zoom="1.3037281"
     inkscape:cx="56.674548"
     inkscape:cy="16.522768"
     inkscape:window-x="45"
     inkscape:window-y="28"
     inkscape:window-maximized="0"
     inkscape:current-layer="svg27" />
  <defs
     id="defs7">
    <linearGradient
       id="a"
       x1="-197.10001"
       x2="-196.91"
       y1="217.67999"
       y2="219.37"
       gradientTransform="rotate(-45,-338.07,-140.03)"
       gradientUnits="userSpaceOnUse">
      <stop
         offset="0"
         id="stop2" />
      <stop
         stop-opacity="0"
         offset="1"
         id="stop4" />
    </linearGradient>
  </defs>
  <g
     id="g847"
     transform="matrix(3.3330578,0,0,3.3330578,3.5283746,3.0969103)">
    <g
       id="g23"
       transform="translate(0,-280.07)">
      <path
         id="path9"
         d="m 3.44,282.448 c -0.294,0 -0.395,0.269 -0.53,0.53 H 2.117 a 0.528,0.528 0 0 0 -0.53,0.528 v 5.292 c 0,0.293 0.237,0.53 0.53,0.53 h 12.7 c 0.293,0 0.529,-0.237 0.529,-0.53 v -5.292 a 0.528,0.528 0 0 0 -0.53,-0.529 H 7.674 c -0.155,-0.249 -0.236,-0.53 -0.53,-0.53 z"
         inkscape:connector-curvature="0"
         style="fill:#5294e2;paint-order:markers stroke fill" />
      <path
         id="path11"
         d="m 3.44,282.448 c -0.294,0 -0.395,0.269 -0.53,0.53 H 2.117 a 0.528,0.528 0 0 0 -0.53,0.528 v 5.292 c 0,0.293 0.237,0.53 0.53,0.53 h 12.7 c 0.293,0 0.529,-0.237 0.529,-0.53 v -5.292 a 0.528,0.528 0 0 0 -0.53,-0.529 H 7.674 c -0.155,-0.249 -0.236,-0.53 -0.53,-0.53 z"
         inkscape:connector-curvature="0"
         style="opacity:0.18000004;paint-order:markers stroke fill" />
      <rect
         id="rect13"
         ry="0.26499999"
         height="5.027"
         width="12.171"
         y="283.76999"
         x="2.381"
         style="fill:#ffffff;paint-order:markers stroke fill" />
      <rect
         id="rect15"
         ry="0.52899998"
         height="9.5249996"
         width="15.875"
         y="285.35999"
         x="0.52899998"
         style="fill:#5294e2;paint-order:markers stroke fill" />
      <path
         id="path17"
         d="m 8.467,284.3 h 7.408 c 0.293,0 0.53,0.236 0.53,0.53 v 3.968 c 0,0.293 -0.237,0.529 -0.53,0.529 H 6.152 c -0.294,0 -0.677,-0.276 -0.53,-0.53 l 2.316,-3.968 C 8.085,284.576 8.174,284.3 8.467,284.3 Z"
         inkscape:connector-curvature="0"
         style="fill:#5294e2;paint-order:markers stroke fill" />
      <rect
         id="rect19"
         ry="0.26499999"
         height="0.52899998"
         width="3.175"
         y="282.70999"
         x="3.704"
         style="opacity:0.25;paint-order:stroke markers fill" />
      <path
         id="path21"
         d="m 6.615,287.74 a 0.264,0.264 0 0 0 -0.265,0.264 v 4.233 c 0,0.147 0.118,0.265 0.265,0.265 h 2.38 l 1.588,-1.587 v -2.91 a 0.264,0.264 0 0 0 -0.264,-0.265 z m 0.264,0.529 h 0.85 v 0.989 H 7.517 a 0.4,0.4 0 0 0 0.212,0.288 v 0.361 c -0.288,-0.059 -0.502,-0.188 -0.641,-0.387 -0.14,-0.2 -0.209,-0.467 -0.209,-0.801 z m 1.136,0 h 0.85 v 0.989 H 8.653 c 0.01,0.074 0.029,0.13 0.058,0.17 0.03,0.04 0.08,0.078 0.154,0.118 v 0.361 c -0.288,-0.059 -0.502,-0.188 -0.641,-0.387 -0.14,-0.2 -0.209,-0.467 -0.209,-0.801 z"
         inkscape:connector-curvature="0"
         style="fill:#ffffff;paint-order:stroke markers fill" />
    </g>
    <path
       id="path25"
       style="opacity:0.1;fill:url(#a);paint-order:stroke markers fill"
       d="m 16.404,11.641 -3.1744,3.1749 h 2.6458 c 0.29307,0 0.52864,-0.23557 0.52864,-0.52864 z"
       inkscape:connector-curvature="0" />
  </g>
</svg>
