<svg viewBox="0 0 22 22" style="enable-background:new 0 0 22 22" xmlns="http://www.w3.org/2000/svg">
 <path d="m 9.737 3 c 1.22 -0.016 1.851 0.537 2.545 1.234 0.288 -0.186 1.064 -0.572 1.023 -0.281 -0.06 0.43 0.193 0.814 -0.491 1.279 0.453 1.558 0.192 2.341 -0.156 2.848 -0.348 0.507 -0.937 0.857 -1.38 1.244 -0.443 0.387 -0.623 0.728 0.281 0.604 0.904 -0.124 2.26 0.372 3.01 0.916 0.748 0.544 1 -0.13 1.235 -0.456 0.234 -0.326 0.994 -1.497 1.623 -0.881 0.629 0.616 0.72 2.054 0.583 3.553 -0.136 1.499 -1.825 5.904 -6.495 5.94 -4.671 0.036 -7.01 -1.386 -7.253 -3.864 c -0.243 -2.478 1.021 -3.283 1.633 -4.191 0.612 -0.908 1.48 -1.752 0.66 -2.522 -0.545 -0.695 -2.285 0.204 -2.499 -0.741 -0.15 -0.584 2.066 -0.064 0.591 -0.976 -0.522 -0.334 -1.113 -1.866 -0.328 -1.672 0.988 0.256 1.971 0.667 2.278 -0.335 0.307 -1 1.921 -1.682 3.142 -1.698 z" style="fill:#ececec;fill-opacity:1"/>
</svg>
