<svg xmlns="http://www.w3.org/2000/svg" viewBox="0 0 22 22">
 <path d="m 6.5 3.5 -4.5 3.5 4.5 3 -4.5 4 9 6 9 -6 -4.5 -4 4.5 -3 -4.5 -3.5 -4.5 3.5 -4.5 -3.5 z m 2.313 4.5 2.875 0.75 -1.531 2.563 -0.406 -1 c -1.073 0.478 -1.75 1.52 -1.75 2.688 c 0 1.21 0.758 2.315 1.906 2.75 l -0.531 1.375 c -1.722 -0.653 -2.875 -2.311 -2.875 -4.125 0 -1.774 1.072 -3.359 2.719 -4.063 l -0.406 -0.938 z m 3.844 0.875 c 1.721 0.674 2.844 2.304 2.844 4.125 c 0 1.761 -1.078 3.372 -2.719 4.063 l 0.344 0.938 l -2.75 -0.781 1.469 -2.531 0.375 1 c 1.066 -0.472 1.781 -1.531 1.781 -2.688 0 -1.214 -0.728 -2.3 -1.875 -2.75 l 0.531 -1.375 z" style="fill:#ececec;fill-opacity:1;color:#000"/>
</svg>
