<svg xmlns="http://www.w3.org/2000/svg" viewBox="0 0 22 22">
 <path d="m 6.5 3.5 -4.5 3.5 4.5 3 -4.5 4 9 6 9 -6 -4.5 -4 4.5 -3 -4.5 -3.5 -4.5 3.5 -4.5 -3.5 z m 4.5 5 c 1.761 0 3.372 1.078 4.063 2.719 l 0.938 -0.344 l -0.781 2.75 -2.531 -1.469 1 -0.375 c -0.472 -1.066 -1.531 -1.781 -2.688 -1.781 -1.214 0 -2.3 0.728 -2.75 1.875 l -1.375 -0.531 c 0.674 -1.721 2.304 -2.844 4.125 -2.844 z m -4.25 3.813 2.563 1.531 -1 0.406 c 0.478 1.073 1.52 1.75 2.688 1.75 c 1.21 0 2.315 -0.758 2.75 -1.906 l 1.375 0.531 c -0.653 1.722 -2.311 2.875 -4.125 2.875 -1.774 0 -3.359 -1.072 -4.063 -2.719 l -0.938 0.406 0.75 -2.875 z" style="fill:#ececec;fill-opacity:1;color:#000"/>
</svg>
