<svg xmlns="http://www.w3.org/2000/svg" width="22" viewBox="0 0 6.208889 6.208889" height="22">
 <g transform="matrix(0.38108407,0,0,0.38183495,-9.370621,1.7087678)" style="fill:#ececec;opacity:0.4;fill-opacity:1">
  <path d="m 37.87 6.632 c 0.797 -1.381 0.969 -2.946 0.615 -4.381 l -4.37 0.002 c 0.023 0.023 0.048 0.047 0.071 0.071 0.002 0.002 0.006 0.002 0.008 0.004 0.008 0.009 0.018 0.016 0.026 0.025 0.033 0.038 0.061 0.084 0.091 0.124 0.01 0.013 0.02 0.025 0.029 0.037 0.008 0.011 0.014 0.022 0.022 0.033 0.002 0.002 0.006 0.002 0.008 0.004 0.011 0.016 0.022 0.033 0.033 0.049 0.013 0.02 0.024 0.041 0.036 0.061 0.003 0.006 0.008 0.011 0.011 0.016 0.007 0.012 0.015 0.021 0.022 0.033 0.01 0.018 0.019 0.038 0.028 0.057 0.005 0.01 0.009 0.019 0.014 0.029 0.009 0.019 0.019 0.038 0.028 0.057 0.004 0.009 0.01 0.019 0.014 0.029 0.001 0.002 -0.005 0.006 -0.004 0.008 0.012 0.027 0.024 0.053 0.035 0.081 0.001 0.002 -0.005 0.006 -0.004 0.008 0.003 0.01 0.011 0.019 0.014 0.029 0.005 0.014 0.013 0.026 0.017 0.041 0.003 0.008 0.004 0.016 0.007 0.024 0.009 0.027 0.015 0.056 0.023 0.084 0.007 0.026 0.021 0.05 0.027 0.077 0.002 0.01 0 0.021 0.002 0.032 0.006 0.027 0.01 0.052 0.015 0.08 0.005 0.027 0.012 0.053 0.015 0.08 0.001 0.011 0.001 0.021 0.002 0.032 0.001 0.013 -0.003 0.027 -0.002 0.039 0.001 0.011 0 0.021 0.002 0.032 0.004 0.023 0.011 0.044 0.012 0.068 0 0.006 -0.001 0.013 -0.001 0.02 0 0.004 0.003 0.008 0.003 0.012 0 0.003 -0.004 0.005 -0.004 0.008 0 0.01 0.002 0.021 0.002 0.032 0 0.007 -0.001 0.013 -0.001 0.02 0 0.039 -0.004 0.079 -0.007 0.118 -0.001 0.019 -0.002 0.04 -0.004 0.059 -0.002 0.016 -0.005 0.031 -0.007 0.047 -0.004 0.029 -0.004 0.057 -0.009 0.086 -0.006 0.033 -0.011 0.069 -0.018 0.102 -0.006 0.026 -0.017 0.052 -0.024 0.078 -0.01 0.038 -0.022 0.076 -0.034 0.113 -0.005 0.015 -0.009 0.028 -0.014 0.043 -0.009 0.026 -0.014 0.052 -0.024 0.078 -0.003 0.008 -0.01 0.015 -0.013 0.023 -0.014 0.033 -0.03 0.064 -0.045 0.096 -0.006 0.013 -0.008 0.029 -0.014 0.043 -0.015 0.028 -0.033 0.057 -0.048 0.084 -0.009 0.015 -0.017 0.031 -0.026 0.046 l -2.752 4.766 c 2.396 0.443 4.912 -0.606 6.2 -2.836 z" style="stroke:none"/>
  <path d="m 32.738 -2.258 c -1.594 0 -3.036 0.634 -4.101 1.658 l 2.187 3.784 c 0.008 -0.031 0.017 -0.065 0.026 -0.097 0.001 -0.003 -0.001 -0.006 0 -0.009 0.004 -0.012 0.005 -0.024 0.009 -0.035 0.016 -0.048 0.042 -0.094 0.062 -0.141 0.006 -0.014 0.011 -0.03 0.018 -0.044 0.006 -0.012 0.012 -0.023 0.018 -0.035 0.001 -0.002 -0.001 -0.006 0 -0.009 0.009 -0.018 0.017 -0.035 0.026 -0.053 0.011 -0.021 0.024 -0.041 0.035 -0.062 0.003 -0.006 0.006 -0.012 0.009 -0.018 0.007 -0.012 0.011 -0.024 0.018 -0.035 0.011 -0.018 0.024 -0.035 0.035 -0.053 0.006 -0.009 0.012 -0.018 0.018 -0.026 0.012 -0.018 0.023 -0.036 0.035 -0.053 0.006 -0.008 0.012 -0.018 0.018 -0.026 0.001 -0.001 0.008 0.001 0.009 0 0.018 -0.024 0.034 -0.048 0.053 -0.071 0.001 -0.002 0.007 0.001 0.009 0 0.007 -0.007 0.011 -0.019 0.018 -0.026 0.01 -0.011 0.017 -0.024 0.026 -0.035 0.006 -0.006 0.012 -0.011 0.018 -0.018 0.019 -0.021 0.041 -0.041 0.062 -0.062 0.019 -0.019 0.033 -0.043 0.053 -0.062 0.008 -0.007 0.019 -0.011 0.026 -0.018 0.021 -0.019 0.04 -0.035 0.062 -0.053 0.021 -0.017 0.04 -0.036 0.062 -0.053 0.009 -0.006 0.018 -0.011 0.026 -0.018 0.01 -0.007 0.025 -0.01 0.035 -0.018 0.009 -0.006 0.018 -0.011 0.026 -0.018 0.018 -0.015 0.033 -0.032 0.053 -0.044 0.005 -0.003 0.012 -0.005 0.018 -0.009 0.003 -0.002 0.005 -0.007 0.009 -0.009 0.002 -0.001 0.007 0.001 0.009 0 0.009 -0.005 0.017 -0.012 0.026 -0.018 0.006 -0.003 0.012 -0.006 0.018 -0.009 0.034 -0.019 0.071 -0.036 0.106 -0.053 0.017 -0.008 0.035 -0.018 0.053 -0.026 0.014 -0.006 0.03 -0.012 0.044 -0.018 0.027 -0.011 0.052 -0.025 0.079 -0.035 0.032 -0.012 0.065 -0.025 0.097 -0.035 0.025 -0.008 0.054 -0.011 0.079 -0.018 0.038 -0.01 0.076 -0.019 0.115 -0.026 0.015 -0.003 0.029 -0.006 0.044 -0.009 0.027 -0.005 0.052 -0.014 0.079 -0.018 0.009 -0.001 0.018 0.001 0.026 0 0.035 -0.005 0.07 -0.006 0.106 -0.009 0.015 -0.001 0.029 -0.008 0.044 -0.009 0.032 -0.002 0.065 0 0.097 0 0.017 0 0.036 0 0.053 0 l 5.503 0 c -0.814 -2.296 -2.981 -3.951 -5.556 -3.951 z" style="stroke:none"/>
  <path d="m 28.24 -0.176 c -0.888 1.036 -1.429 2.373 -1.429 3.845 0 2.701 1.806 4.983 4.277 5.697 l 2.187 -3.792 c -0.046 0.013 -0.095 0.017 -0.141 0.026 -0.017 0.004 -0.035 0.006 -0.053 0.009 -0.061 0.011 -0.122 0.021 -0.185 0.026 -0.006 0 -0.012 0 -0.018 0 -0.029 0.002 -0.059 0.008 -0.088 0.009 -0.018 0 -0.035 0 -0.053 0 -0.012 0 -0.023 0 -0.035 0 -0.029 -0.001 -0.059 -0.007 -0.088 -0.009 -0.006 0 -0.012 0 -0.018 0 -0.03 -0.002 -0.059 -0.005 -0.088 -0.009 -0.032 -0.004 -0.065 -0.004 -0.097 -0.009 -0.015 -0.002 -0.029 -0.006 -0.044 -0.009 -0.009 -0.002 -0.017 -0.007 -0.026 -0.009 -0.035 -0.007 -0.071 -0.017 -0.106 -0.026 -0.003 -0.001 -0.006 0.001 -0.009 0 -0.024 -0.006 -0.047 -0.011 -0.071 -0.018 -0.003 -0.001 -0.006 0.001 -0.009 0 -0.009 -0.003 -0.017 -0.006 -0.026 -0.009 -0.021 -0.007 -0.04 -0.019 -0.062 -0.026 -0.002 -0.001 -0.006 0.001 -0.009 0 -0.028 -0.01 -0.052 -0.024 -0.079 -0.035 -0.032 -0.014 -0.065 -0.028 -0.097 -0.044 -0.026 -0.013 -0.054 -0.021 -0.079 -0.035 -0.015 -0.008 -0.029 -0.018 -0.044 -0.026 -0.012 -0.007 -0.024 -0.011 -0.035 -0.018 -0.018 -0.011 -0.035 -0.024 -0.053 -0.035 -0.009 -0.006 -0.018 -0.012 -0.026 -0.018 -0.018 -0.012 -0.036 -0.023 -0.053 -0.035 -0.006 -0.005 -0.011 -0.013 -0.018 -0.018 -0.027 -0.02 -0.053 -0.04 -0.079 -0.062 -0.02 -0.017 -0.042 -0.035 -0.062 -0.053 -0.008 -0.007 -0.019 -0.01 -0.026 -0.018 -0.02 -0.018 -0.034 -0.042 -0.053 -0.062 -0.027 -0.027 -0.054 -0.051 -0.079 -0.079 -0.017 -0.019 -0.036 -0.042 -0.053 -0.062 -0.017 -0.021 -0.036 -0.04 -0.053 -0.062 -0.004 -0.005 -0.005 -0.012 -0.009 -0.018 -0.017 -0.024 -0.036 -0.046 -0.053 -0.071 -0.006 -0.009 -0.012 -0.017 -0.018 -0.026 -0.012 -0.018 -0.024 -0.035 -0.035 -0.053 -0.007 -0.012 -0.011 -0.024 -0.018 -0.035 -0.009 -0.015 -0.019 -0.029 -0.026 -0.044 -0.001 -0.002 0.001 -0.006 0 -0.009 l -0.018 -0.035 -2.743 -4.745 z" style="stroke:none"/>
  <circle cx="0.5" cy="0.5" r="41" transform="matrix(0.03441734,0,0,0.03441734,32.720637,3.6516805)"/>
 </g>
</svg>
