<svg xmlns="http://www.w3.org/2000/svg" viewBox="0 0 22 22">
 <path d="m 7 1 c -1.108 0 -2 0.811 -2 1.818 l 0 16.363 c 0 1.01 0.892 1.818 2 1.818 l 8 0 c 1.108 0 2 -0.811 2 -1.818 l 0 -16.363 c 0 -1.01 -0.892 -1.818 -2 -1.818 l -8 0 z m 0.5 2 l 3 0 l 1 0 c 0.277 0 0.5 0.223 0.5 0.5 l 0 1 l 0 2 c 0 0.277 -0.223 0.5 -0.5 0.5 l -1 0 c -0.277 0 -0.5 -0.223 -0.5 -0.5 l 0 -1.5 l -2.5 0 c -0.277 0 -0.5 -0.223 -0.5 -0.5 l 0 -1 c 0 -0.277 0.223 -0.5 0.5 -0.5 z m 6 0 l 1 0 c 0.277 0 0.5 0.223 0.5 0.5 l 0 1 c 0 0.277 -0.223 0.5 -0.5 0.5 l -1 0 c -0.277 0 -0.5 -0.223 -0.5 -0.5 l 0 -1 c 0 -0.277 0.223 -0.5 0.5 -0.5 z m -6 3 l 1 0 c 0.277 0 0.5 0.223 0.5 0.5 l 0 1 c 0 0.277 -0.223 0.5 -0.5 0.5 l -1 0 c -0.277 0 -0.5 -0.223 -0.5 -0.5 l 0 -1 c 0 -0.277 0.223 -0.5 0.5 -0.5 z m 6 0 l 1 0 c 0.277 0 0.5 0.223 0.5 0.5 l 0 9 c 0 0.277 -0.223 0.5 -0.5 0.5 l -1 0 c -0.277 0 -0.5 -0.223 -0.5 -0.5 l 0 -9 c 0 -0.277 0.223 -0.5 0.5 -0.5 z m -3 2 l 1 0 c 0.277 0 0.5 0.223 0.5 0.5 l 0 1 c 0 0.277 -0.223 0.5 -0.5 0.5 l -1 0 c -0.277 0 -0.5 -0.223 -0.5 -0.5 l 0 -1 c 0 -0.277 0.223 -0.5 0.5 -0.5 z m -3 1 l 1 0 c 0.277 0 0.5 0.223 0.5 0.5 l 0 1 c 0 0.277 -0.223 0.5 -0.5 0.5 l -1 0 c -0.277 0 -0.5 -0.223 -0.5 -0.5 l 0 -1 c 0 -0.277 0.223 -0.5 0.5 -0.5 z m 3 2 l 1 0 c 0.277 0 0.5 0.223 0.5 0.5 l 0 1 c 0 0.277 -0.223 0.5 -0.5 0.5 l -1 0 c -0.277 0 -0.5 -0.223 -0.5 -0.5 l 0 -1 c 0 -0.277 0.223 -0.5 0.5 -0.5 z m -3 1 l 1 0 c 0.277 0 0.5 0.223 0.5 0.5 l 0 1 c 0 0.277 -0.223 0.5 -0.5 0.5 l -1 0 c -0.277 0 -0.5 -0.223 -0.5 -0.5 l 0 -1 c 0 -0.277 0.223 -0.5 0.5 -0.5 z m 3 2 l 1 0 c 0.277 0 0.5 0.223 0.5 0.5 l 0 1 c 0 0.277 -0.223 0.5 -0.5 0.5 l -1 0 c -0.277 0 -0.5 -0.223 -0.5 -0.5 l 0 -1 c 0 -0.277 0.223 -0.5 0.5 -0.5 z m -3 1 l 1 0 c 0.277 0 0.5 0.223 0.5 0.5 l 0 3 c 0 0.277 -0.223 0.5 -0.5 0.5 l -1 0 c -0.277 0 -0.5 -0.223 -0.5 -0.5 l 0 -3 c 0 -0.277 0.223 -0.5 0.5 -0.5 z m 3 2 l 1 0 c 0.277 0 0.5 0.223 0.5 0.5 l 0 1 c 0 0.277 -0.223 0.5 -0.5 0.5 l -1 0 c -0.277 0 -0.5 -0.223 -0.5 -0.5 l 0 -1 c 0 -0.277 0.223 -0.5 0.5 -0.5 z m 3 0 l 1 0 c 0.277 0 0.5 0.223 0.5 0.5 l 0 1 c 0 0.277 -0.223 0.5 -0.5 0.5 l -1 0 c -0.277 0 -0.5 -0.223 -0.5 -0.5 l 0 -1 c 0 -0.277 0.223 -0.5 0.5 -0.5 z" style="fill:#ececec;opacity:0.4;fill-opacity:1"/>
 <path d="m 5,13 0,6.181641 C 5,20.188914 5.892,21 7,21 l 8,0 c 1.108,0 2,-0.811086 2,-1.818359 L 17,13 l -2,0 0,2.5 c 0,0.277 -0.223,0.5 -0.5,0.5 l -1,0 C 13.223,16 13,15.777 13,15.5 l 0,-2.5 -1.5,0 -1,0 -1.5,0 0,0.5 C 9,13.777 8.777,14 8.5,14 l -1,0 C 7.223,14 7,13.777 7,13.5 L 7,13 5,13 Z m 5.5,1 1,0 c 0.277,0 0.5,0.223 0.5,0.5 l 0,1 c 0,0.277 -0.223,0.5 -0.5,0.5 l -1,0 C 10.223,16 10,15.777 10,15.5 l 0,-1 C 10,14.223 10.223,14 10.5,14 Z m -3,1 1,0 C 8.777,15 9,15.223 9,15.5 l 0,3 C 9,18.777 8.777,19 8.5,19 l -1,0 C 7.223,19 7,18.777 7,18.5 l 0,-3 C 7,15.223 7.223,15 7.5,15 Z m 3,2 1,0 c 0.277,0 0.5,0.223 0.5,0.5 l 0,1 c 0,0.277 -0.223,0.5 -0.5,0.5 l -1,0 C 10.223,19 10,18.777 10,18.5 l 0,-1 C 10,17.223 10.223,17 10.5,17 Z m 3,0 1,0 c 0.277,0 0.5,0.223 0.5,0.5 l 0,1 c 0,0.277 -0.223,0.5 -0.5,0.5 l -1,0 C 13.223,19 13,18.777 13,18.5 l 0,-1 C 13,17.223 13.223,17 13.5,17 Z" style="fill:#ececec;opacity:1;fill-opacity:1"/>
</svg>
