<!-- Generator: Adobe Illustrator 16.0.0, SVG Export Plug-In . SVG Version: 6.00 Build 0)  -->
<svg xmlns="http://www.w3.org/2000/svg" viewBox="0 0 22 22">
 <g transform="matrix(0.03690888,0,0,0.03690888,1.3529415,2.705883)">
  <g>
   <path d="m 11 3 c -4.424 0 -8 3.576 -8 8 c 0 4.424 3.576 8 8 8 l 0 3 c 4.612 -2.165 8 -6.765 8 -11 c 0 -4.424 -3.576 -8 -8 -8 z m -5 5 l 4 0 l 0 4 l -1.334 2.668 l -2 0 l 1.334 -2.668 l -2 0 l 0 -4 z m 6 0 l 4 0 l 0 4 l -1.334 2.668 l -2 0 l 1.334 -2.668 l -2 0 l 0 -4 z" transform="matrix(27.093751,0,0,27.093751,-36.65626,-73.31252)" style="fill:#ececec;fill-opacity:1"/>
  </g>
 </g>
</svg>
