<!-- Generator: Adobe Illustrator 16.0.0, SVG Export Plug-In . SVG Version: 6.00 Build 0)  -->
<svg xmlns="http://www.w3.org/2000/svg" viewBox="0 0 22 22">
 <g transform="matrix(0.03690888,0,0,0.03690888,1.3529415,2.705883)" style="fill:#ececec;opacity:1;fill-opacity:1">
  <g>
   <path d="m 11 3 c -4.424 0 -8 3.576 -8 8 c 0 4.424 3.576 8 8 8 l 0 3 c 4.612 -2.165 8 -6.765 8 -11 c 0 -4.424 -3.576 -8 -8 -8 z m -5 7 l 2 0 l 0 2 l -2 0 l 0 -2 z m 4 0 l 2 0 l 0 2 l -2 0 l 0 -2 z m 4 0 l 2 0 l 0 2 l -2 0 l 0 -2 z" transform="matrix(27.093751,0,0,27.093751,-36.65626,-73.31252)"/>
  </g>
 </g>
</svg>
