<svg xmlns="http://www.w3.org/2000/svg" viewBox="0 0 22 22">
 <path d="m 3 1 c -1.108 0 -2 0.892 -2 2 l 0 16 c 0 1.108 0.892 2 2 2 l 16 0 c 1.108 0 2 -0.892 2 -2 l 0 -16 c 0 -1.108 -0.892 -2 -2 -2 l -16 0 z m 10.59 4.551 l 0 5.711 c 0.192 -0.2 0.397 -0.412 0.613 -0.637 c 0.217 -0.233 0.428 -0.463 0.637 -0.688 c 0.208 -0.233 0.405 -0.454 0.588 -0.662 c 0.192 -0.217 0.355 -0.404 0.488 -0.563 l 1.787 0 c -0.417 0.467 -0.858 0.949 -1.324 1.449 c -0.458 0.5 -0.922 0.988 -1.389 1.463 c 0.25 0.208 0.512 0.462 0.787 0.762 c 0.275 0.292 0.542 0.604 0.801 0.938 c 0.258 0.333 0.5 0.667 0.725 1 c 0.225 0.333 0.412 0.642 0.563 0.926 l -1.75 0 c -0.15 -0.258 -0.325 -0.529 -0.525 -0.813 c -0.192 -0.283 -0.4 -0.558 -0.625 -0.824 c -0.225 -0.267 -0.454 -0.517 -0.688 -0.75 c -0.233 -0.242 -0.462 -0.447 -0.688 -0.613 l 0 3 l -1.512 0 l 0 -9.449 l 1.512 -0.25 z m -11.371 1.037 l 1.463 0 c 0.183 0.317 0.386 0.704 0.611 1.162 c 0.225 0.458 0.454 0.941 0.688 1.449 c 0.233 0.5 0.462 1.014 0.688 1.539 c 0.233 0.517 0.447 0.996 0.639 1.438 c 0.192 -0.442 0.4 -0.921 0.625 -1.438 c 0.225 -0.525 0.454 -1.039 0.688 -1.539 c 0.233 -0.508 0.463 -0.991 0.688 -1.449 c 0.225 -0.458 0.428 -0.845 0.611 -1.162 l 1.426 0 c 0.075 0.633 0.146 1.309 0.213 2.025 c 0.067 0.708 0.124 1.437 0.174 2.187 c 0.058 0.742 0.109 1.492 0.15 2.25 c 0.05 0.75 0.092 1.483 0.125 2.199 l -1.551 0 c -0.033 -1.01 -0.075 -2.047 -0.125 -3.113 c -0.042 -1.067 -0.108 -2.1 -0.199 -3.1 c -0.092 0.192 -0.199 0.421 -0.324 0.688 c -0.125 0.267 -0.259 0.558 -0.4 0.875 c -0.142 0.308 -0.287 0.63 -0.438 0.963 c -0.142 0.333 -0.284 0.658 -0.426 0.975 c -0.133 0.308 -0.258 0.6 -0.375 0.875 c -0.117 0.267 -0.215 0.496 -0.299 0.688 l -1.176 0 c -0.083 -0.192 -0.184 -0.424 -0.301 -0.699 c -0.117 -0.275 -0.245 -0.567 -0.387 -0.875 c -0.133 -0.317 -0.276 -0.641 -0.426 -0.975 c -0.142 -0.333 -0.282 -0.655 -0.424 -0.963 c -0.142 -0.308 -0.275 -0.597 -0.4 -0.863 c -0.125 -0.275 -0.233 -0.504 -0.324 -0.688 c -0.092 1 -0.163 2.033 -0.213 3.1 c -0.042 1.067 -0.08 2.105 -0.113 3.113 l -1.549 0 c 0.033 -0.717 0.07 -1.458 0.111 -2.225 c 0.05 -0.767 0.1 -1.525 0.15 -2.275 c 0.058 -0.758 0.121 -1.491 0.187 -2.199 c 0.067 -0.708 0.138 -1.363 0.213 -1.963 z m 16.738 6.73 c 0.462 0 0.801 0.111 1.018 0.332 c 0.221 0.217 0.332 0.513 0.332 0.893 c 0 0.15 -0.031 0.299 -0.094 0.445 c -0.063 0.142 -0.144 0.28 -0.244 0.418 c -0.096 0.133 -0.205 0.265 -0.33 0.395 c -0.125 0.125 -0.25 0.246 -0.375 0.367 c -0.067 0.063 -0.143 0.139 -0.227 0.227 c -0.083 0.087 -0.161 0.174 -0.236 0.262 c -0.075 0.087 -0.139 0.173 -0.193 0.256 c -0.054 0.079 -0.084 0.147 -0.088 0.201 l 1.924 0 l 0 0.637 l -2.756 0 c -0.004 -0.033 -0.006 -0.073 -0.006 -0.119 l 0 -0.111 c 0 -0.2 0.031 -0.384 0.094 -0.551 c 0.067 -0.171 0.152 -0.329 0.256 -0.475 c 0.104 -0.146 0.22 -0.283 0.35 -0.412 c 0.129 -0.129 0.26 -0.258 0.389 -0.383 c 0.1 -0.096 0.195 -0.19 0.287 -0.281 c 0.092 -0.092 0.172 -0.18 0.238 -0.268 c 0.071 -0.092 0.126 -0.184 0.168 -0.275 c 0.042 -0.096 0.063 -0.193 0.063 -0.293 c 0 -0.217 -0.063 -0.371 -0.188 -0.463 c -0.125 -0.092 -0.278 -0.139 -0.457 -0.139 c -0.117 0 -0.224 0.017 -0.324 0.051 c -0.1 0.033 -0.19 0.073 -0.27 0.119 c -0.075 0.046 -0.141 0.093 -0.199 0.143 c -0.058 0.046 -0.102 0.084 -0.131 0.113 l -0.375 -0.531 c 0.175 -0.167 0.378 -0.3 0.611 -0.4 c 0.238 -0.104 0.493 -0.156 0.764 -0.156 z" style="fill:#ececec;fill-opacity:1"/>
</svg>
