<svg xmlns="http://www.w3.org/2000/svg" viewBox="0 0 22 22">
 <path d="m 3 1 c -1.108 0 -2 0.892 -2 2 l 0 16 c 0 1.108 0.892 2 2 2 l 16 0 c 1.108 0 2 -0.892 2 -2 l 0 -16 c 0 -1.108 -0.892 -2 -2 -2 l -16 0 z m 11.1 4.801 l 0 5.711 c 0.192 -0.2 0.397 -0.412 0.613 -0.637 c 0.217 -0.233 0.428 -0.463 0.637 -0.688 c 0.208 -0.233 0.405 -0.454 0.588 -0.662 c 0.192 -0.217 0.353 -0.404 0.486 -0.563 l 1.789 0 c -0.417 0.467 -0.86 0.949 -1.326 1.449 c -0.458 0.5 -0.92 0.988 -1.387 1.463 c 0.25 0.208 0.512 0.462 0.787 0.762 c 0.275 0.292 0.542 0.604 0.801 0.938 c 0.258 0.333 0.5 0.667 0.725 1 c 0.225 0.333 0.413 0.642 0.563 0.926 l -1.75 0 c -0.15 -0.258 -0.325 -0.529 -0.525 -0.813 c -0.192 -0.283 -0.4 -0.558 -0.625 -0.824 c -0.225 -0.267 -0.454 -0.517 -0.688 -0.75 c -0.233 -0.242 -0.463 -0.447 -0.688 -0.613 l 0 3 l -1.512 0 l 0 -9.449 l 1.512 -0.25 z m -9.568 1.037 l 1.576 0 l 0 3.574 c 0.275 -0.275 0.561 -0.567 0.861 -0.875 c 0.3 -0.317 0.597 -0.633 0.889 -0.949 c 0.3 -0.325 0.583 -0.637 0.85 -0.938 c 0.267 -0.3 0.508 -0.571 0.725 -0.813 l 1.889 0 c -0.275 0.317 -0.567 0.645 -0.875 0.986 c -0.308 0.342 -0.626 0.689 -0.951 1.039 c -0.325 0.342 -0.653 0.682 -0.986 1.023 c -0.325 0.342 -0.646 0.668 -0.963 0.977 c 0.35 0.267 0.704 0.579 1.063 0.938 c 0.367 0.35 0.724 0.728 1.074 1.137 c 0.35 0.4 0.683 0.82 1 1.262 c 0.325 0.433 0.622 0.867 0.889 1.301 l -1.863 0 c -0.217 -0.333 -0.467 -0.684 -0.75 -1.051 c -0.283 -0.367 -0.584 -0.721 -0.9 -1.063 c -0.308 -0.342 -0.63 -0.666 -0.963 -0.975 c -0.333 -0.308 -0.661 -0.574 -0.986 -0.799 l 0 3.887 l -1.576 0 l 0 -8.662 z" style="fill:#ececec;fill-opacity:1"/>
</svg>
