<svg viewBox="0 0 22 22" xmlns="http://www.w3.org/2000/svg">
 <path d="m 3 1 c -1.108 0 -2 0.892 -2 2 l 0 16 c 0 1.108 0.892 2 2 2 l 16 0 c 1.108 0 2 -0.892 2 -2 l 0 -16 c 0 -1.108 -0.892 -2 -2 -2 l -16 0 z m 10.721 4.863 c 0.25 0 0.465 0.083 0.648 0.25 c 0.183 0.167 0.275 0.396 0.275 0.688 c 0 0.283 -0.092 0.507 -0.275 0.674 c -0.183 0.167 -0.398 0.25 -0.648 0.25 c -0.258 0 -0.481 -0.083 -0.664 -0.25 c -0.183 -0.167 -0.273 -0.39 -0.273 -0.674 c 0 -0.292 0.09 -0.521 0.273 -0.688 c 0.183 -0.167 0.406 -0.25 0.664 -0.25 z m -9.672 0.725 l 1.574 0 l 0 3.463 l 3.762 0 l 0 -3.463 l 1.576 0 l 0 8.662 l -1.576 0 l 0 -3.838 l -3.762 0 l 0 3.838 l -1.574 0 l 0 -8.662 z m 8.922 2.125 l 1.512 0 l 0 6.537 l -1.512 0 l 0 -6.537 z m 4.404 4.705 l 0.531 0 l 0 4.332 l -0.756 0 l 0 -3.318 c -0.113 0.087 -0.255 0.173 -0.426 0.256 c -0.171 0.083 -0.336 0.153 -0.494 0.207 l -0.23 -0.576 c 0.242 -0.096 0.483 -0.219 0.725 -0.369 c 0.246 -0.15 0.463 -0.327 0.65 -0.531 z" style="fill:#ececec;fill-opacity:1"/>
</svg>
