<svg xmlns="http://www.w3.org/2000/svg" viewBox="0 0 22 22">
 <path style="fill:#ececec;fill-opacity:1" d="m 3 1 c -1.108 0 -2 0.892 -2 2 l 0 16 c 0 1.108 0.892 2 2 2 l 16 0 c 1.108 0 2 -0.892 2 -2 l 0 -16 c 0 -1.108 -0.892 -2 -2 -2 l -16 0 z m 2.818 5.588 l 1.574 0 l 0 8.662 l -1.574 0 l 0 -8.662 z m 5.02 0.15 l 0 1.975 l 2.326 0 l 0 1.262 l -2.326 0 l 0 2.662 c 0 0.525 0.083 0.9 0.25 1.125 c 0.167 0.225 0.452 0.338 0.852 0.338 c 0.275 0 0.516 -0.03 0.725 -0.088 c 0.217 -0.058 0.387 -0.112 0.512 -0.162 l 0.25 1.201 c -0.175 0.075 -0.404 0.15 -0.688 0.225 c -0.283 0.083 -0.617 0.125 -1 0.125 c -0.467 0 -0.857 -0.063 -1.174 -0.188 c -0.308 -0.125 -0.555 -0.304 -0.738 -0.537 c -0.183 -0.242 -0.312 -0.53 -0.387 -0.863 c -0.075 -0.342 -0.113 -0.729 -0.113 -1.162 l 0 -5.662 l 1.512 -0.25 z m 4.951 6.68 l 0.719 0 l 0 2.676 l 0.486 0 l 0 0.619 l -0.486 0 l 0 1.037 l -0.738 0 l 0 -1.037 l -1.9 0 l 0 -0.537 c 0.083 -0.183 0.195 -0.395 0.332 -0.633 c 0.142 -0.237 0.298 -0.48 0.469 -0.73 c 0.171 -0.25 0.351 -0.497 0.543 -0.738 c 0.192 -0.242 0.385 -0.46 0.576 -0.656 z m -0.02 0.932 c -0.1 0.121 -0.204 0.251 -0.313 0.389 c -0.104 0.137 -0.207 0.28 -0.307 0.43 c -0.1 0.15 -0.195 0.305 -0.287 0.463 c -0.092 0.154 -0.175 0.309 -0.25 0.463 l 1.156 0 l 0 -1.744 z"/>
</svg>
