<svg viewBox="0 0 22 22" xmlns="http://www.w3.org/2000/svg">
 <path style="fill:#ececec;fill-opacity:1" d="m 3 1 c -1.108 0 -2 0.892 -2 2 l 0 16 c 0 1.108 0.892 2 2 2 l 16 0 c 1.108 0 2 -0.892 2 -2 l 0 -16 c 0 -1.108 -0.892 -2 -2 -2 l -16 0 z m 1.631 5.5 c 0.725 0 1.388 0.087 1.988 0.262 c 0.6 0.167 1.112 0.434 1.537 0.801 c 0.433 0.358 0.767 0.817 1 1.375 c 0.233 0.55 0.35 1.208 0.35 1.975 c 0 0.75 -0.116 1.405 -0.35 1.963 c -0.233 0.55 -0.567 1.012 -1 1.387 c -0.425 0.367 -0.942 0.643 -1.551 0.826 c -0.6 0.175 -1.267 0.262 -2 0.262 c -0.35 0 -0.746 -0.015 -1.187 -0.049 c -0.442 -0.025 -0.862 -0.084 -1.262 -0.176 l 0 -8.412 c 0.4 -0.092 0.825 -0.151 1.275 -0.176 c 0.45 -0.025 0.849 -0.037 1.199 -0.037 z m 0.1 1.363 c -0.467 0 -0.8 0.012 -1 0.037 l 0 6.05 c 0.092 0.008 0.213 0.017 0.363 0.025 l 0.611 0 c 1.058 0 1.847 -0.265 2.363 -0.799 c 0.525 -0.542 0.787 -1.297 0.787 -2.264 c 0 -0.983 -0.253 -1.737 -0.762 -2.262 c -0.508 -0.525 -1.297 -0.787 -2.363 -0.787 z m 9.107 0.687 c 0.9 0 1.6 0.278 2.1 0.836 c 0.508 0.558 0.764 1.392 0.764 2.5 c 0 0.083 -0.005 0.181 -0.014 0.289 c 0 0.1 -0.003 0.19 -0.012 0.273 l -4.313 0 c 0.042 0.525 0.224 0.935 0.549 1.227 c 0.333 0.283 0.813 0.424 1.438 0.424 c 0.367 0 0.7 -0.033 1 -0.1 c 0.308 -0.067 0.552 -0.138 0.727 -0.213 l 0.199 1.238 c -0.083 0.042 -0.2 0.087 -0.35 0.137 c -0.142 0.042 -0.308 0.08 -0.5 0.113 c -0.183 0.042 -0.383 0.075 -0.6 0.1 c -0.217 0.025 -0.439 0.037 -0.664 0.037 c -0.575 0 -1.075 -0.083 -1.5 -0.25 c -0.425 -0.175 -0.774 -0.413 -1.049 -0.713 c -0.275 -0.308 -0.48 -0.666 -0.613 -1.074 c -0.133 -0.417 -0.199 -0.872 -0.199 -1.363 c 0 -0.575 0.083 -1.078 0.25 -1.512 c 0.175 -0.433 0.404 -0.791 0.688 -1.074 c 0.283 -0.292 0.608 -0.509 0.975 -0.65 c 0.367 -0.15 0.742 -0.225 1.125 -0.225 z m 0.012 1.262 c -0.233 0 -0.436 0.045 -0.611 0.137 c -0.175 0.083 -0.326 0.196 -0.451 0.338 c -0.117 0.142 -0.207 0.305 -0.273 0.488 c -0.067 0.183 -0.114 0.371 -0.139 0.563 l 2.813 0 c 0 -0.208 -0.03 -0.405 -0.088 -0.588 c -0.058 -0.192 -0.145 -0.355 -0.262 -0.488 c -0.108 -0.142 -0.245 -0.249 -0.412 -0.324 c -0.158 -0.083 -0.351 -0.125 -0.576 -0.125 z m 6.43 3.582 l 0.043 0.625 c -0.225 0.004 -0.435 0.028 -0.631 0.074 c -0.196 0.042 -0.371 0.108 -0.525 0.199 c -0.154 0.092 -0.286 0.212 -0.398 0.357 c -0.108 0.146 -0.192 0.325 -0.25 0.537 c 0.204 -0.096 0.426 -0.145 0.668 -0.145 c 0.258 0 0.477 0.038 0.656 0.113 c 0.183 0.071 0.331 0.168 0.443 0.293 c 0.113 0.125 0.194 0.271 0.244 0.438 c 0.054 0.163 0.082 0.335 0.082 0.514 c 0 0.163 -0.03 0.329 -0.088 0.5 c -0.054 0.171 -0.143 0.327 -0.264 0.469 c -0.117 0.137 -0.264 0.252 -0.443 0.344 c -0.179 0.088 -0.391 0.131 -0.637 0.131 c -0.496 0 -0.876 -0.163 -1.139 -0.488 c -0.258 -0.329 -0.387 -0.78 -0.387 -1.355 c 0 -0.417 0.061 -0.785 0.182 -1.105 c 0.125 -0.325 0.3 -0.599 0.525 -0.82 c 0.229 -0.221 0.503 -0.387 0.824 -0.5 c 0.325 -0.117 0.69 -0.176 1.094 -0.18 z m -1.188 2.25 c -0.121 0 -0.237 0.01 -0.35 0.031 c -0.113 0.021 -0.215 0.052 -0.307 0.094 c -0.004 0.033 -0.008 0.07 -0.012 0.111 l 0 0.113 c 0 0.167 0.01 0.325 0.031 0.475 c 0.025 0.146 0.063 0.274 0.117 0.387 c 0.058 0.108 0.137 0.197 0.232 0.264 c 0.1 0.063 0.223 0.094 0.369 0.094 c 0.121 0 0.221 -0.026 0.305 -0.076 c 0.088 -0.05 0.159 -0.114 0.213 -0.193 c 0.054 -0.079 0.094 -0.164 0.119 -0.256 c 0.025 -0.096 0.037 -0.188 0.037 -0.275 c 0 -0.25 -0.061 -0.439 -0.182 -0.568 c -0.121 -0.133 -0.312 -0.199 -0.574 -0.199 z"/>
</svg>
