<svg xmlns="http://www.w3.org/2000/svg" viewBox="0 0 22 22">
 <path d="m 3 1 c -1.108 0 -2 0.892 -2 2 l 0 16 c 0 1.108 0.892 2 2 2 l 16 0 c 1.108 0 2 -0.892 2 -2 l 0 -16 c 0 -1.108 -0.892 -2 -2 -2 l -16 0 z m 1.91 5.5 c 1.25 0 2.203 0.229 2.861 0.688 c 0.667 0.458 1 1.158 1 2.1 c 0 1.175 -0.578 1.972 -1.736 2.389 c 0.158 0.192 0.337 0.424 0.537 0.699 c 0.2 0.275 0.405 0.575 0.613 0.9 c 0.208 0.317 0.408 0.645 0.6 0.986 c 0.192 0.333 0.362 0.663 0.512 0.988 l -1.762 0 c -0.158 -0.3 -0.33 -0.6 -0.514 -0.9 c -0.183 -0.308 -0.371 -0.603 -0.563 -0.887 c -0.183 -0.292 -0.365 -0.563 -0.549 -0.813 c -0.183 -0.258 -0.355 -0.488 -0.514 -0.688 c -0.117 0.008 -0.215 0.012 -0.299 0.012 l -0.238 0 l -0.762 0 l 0 3.275 l -1.576 0 l 0 -8.537 c 0.383 -0.083 0.793 -0.137 1.227 -0.162 c 0.433 -0.033 0.82 -0.051 1.162 -0.051 z m 0.111 1.363 c -0.333 0 -0.64 0.012 -0.924 0.037 l 0 2.799 l 0.688 0 c 0.383 0 0.72 -0.021 1.012 -0.063 c 0.292 -0.042 0.533 -0.116 0.725 -0.225 c 0.2 -0.108 0.351 -0.254 0.451 -0.437 c 0.1 -0.183 0.15 -0.416 0.15 -0.699 c 0 -0.267 -0.05 -0.492 -0.15 -0.676 c -0.1 -0.183 -0.246 -0.329 -0.438 -0.438 c -0.183 -0.108 -0.404 -0.183 -0.662 -0.225 c -0.258 -0.05 -0.543 -0.074 -0.852 -0.074 z m 8.209 0.687 c 0.458 0 0.878 0.083 1.262 0.25 c 0.392 0.158 0.725 0.388 1 0.688 c 0.275 0.3 0.489 0.661 0.639 1.086 c 0.158 0.417 0.236 0.884 0.236 1.4 c 0 0.517 -0.075 0.987 -0.225 1.412 c -0.15 0.425 -0.362 0.788 -0.637 1.088 c -0.275 0.3 -0.608 0.535 -1 0.701 c -0.383 0.167 -0.809 0.25 -1.275 0.25 c -0.467 0 -0.892 -0.083 -1.275 -0.25 c -0.383 -0.167 -0.713 -0.401 -0.988 -0.701 c -0.275 -0.3 -0.49 -0.663 -0.648 -1.088 c -0.15 -0.425 -0.227 -0.895 -0.227 -1.412 c 0 -0.517 0.077 -0.984 0.227 -1.4 c 0.158 -0.425 0.373 -0.786 0.648 -1.086 c 0.283 -0.3 0.617 -0.529 1 -0.688 c 0.383 -0.167 0.805 -0.25 1.264 -0.25 z m 0 1.313 c -0.5 0 -0.892 0.191 -1.176 0.574 c -0.275 0.375 -0.412 0.887 -0.412 1.537 c 0 0.658 0.137 1.179 0.412 1.563 c 0.283 0.383 0.676 0.576 1.176 0.576 c 0.5 0 0.887 -0.193 1.162 -0.576 c 0.283 -0.383 0.426 -0.904 0.426 -1.563 c 0 -0.65 -0.142 -1.162 -0.426 -1.537 c -0.275 -0.383 -0.662 -0.574 -1.162 -0.574 z m 5.389 3.455 c 0.463 0 0.803 0.111 1.02 0.332 c 0.221 0.217 0.33 0.513 0.33 0.893 c 0 0.15 -0.031 0.299 -0.094 0.445 c -0.063 0.142 -0.142 0.28 -0.242 0.418 c -0.096 0.133 -0.207 0.265 -0.332 0.395 c -0.125 0.125 -0.25 0.246 -0.375 0.367 c -0.067 0.063 -0.141 0.139 -0.225 0.227 c -0.083 0.087 -0.163 0.174 -0.238 0.262 c -0.075 0.087 -0.139 0.173 -0.193 0.256 c -0.054 0.079 -0.084 0.147 -0.088 0.201 l 1.926 0 l 0 0.637 l -2.756 0 c -0.004 -0.033 -0.008 -0.073 -0.008 -0.119 l 0 -0.111 c 0 -0.2 0.031 -0.384 0.094 -0.551 c 0.067 -0.171 0.154 -0.329 0.258 -0.475 c 0.104 -0.146 0.22 -0.283 0.35 -0.412 c 0.129 -0.129 0.258 -0.258 0.387 -0.383 c 0.1 -0.096 0.195 -0.19 0.287 -0.281 c 0.092 -0.092 0.172 -0.18 0.238 -0.268 c 0.071 -0.092 0.126 -0.184 0.168 -0.275 c 0.042 -0.096 0.063 -0.193 0.063 -0.293 c 0 -0.217 -0.063 -0.371 -0.188 -0.463 c -0.125 -0.092 -0.276 -0.139 -0.455 -0.139 c -0.117 0 -0.226 0.017 -0.326 0.051 c -0.1 0.033 -0.188 0.073 -0.268 0.119 c -0.075 0.046 -0.143 0.093 -0.201 0.143 c -0.058 0.046 -0.102 0.084 -0.131 0.113 l -0.375 -0.531 c 0.175 -0.167 0.38 -0.3 0.613 -0.4 c 0.238 -0.104 0.491 -0.156 0.762 -0.156 z" style="fill:#ececec;fill-opacity:1"/>
</svg>
