<svg viewBox="0 0 22 22" xmlns="http://www.w3.org/2000/svg">
 <path d="m 3 1 c -1.108 0 -2 0.892 -2 2 l 0 16 c 0 1.108 0.892 2 2 2 l 16 0 c 1.108 0 2 -0.892 2 -2 l 0 -16 c 0 -1.108 -0.892 -2 -2 -2 l -16 0 z m 8.955 4.551 l 0 3.236 c 0.167 -0.058 0.358 -0.109 0.574 -0.15 c 0.225 -0.042 0.447 -0.063 0.664 -0.063 c 0.525 0 0.957 0.077 1.299 0.227 c 0.35 0.142 0.63 0.345 0.838 0.611 c 0.208 0.258 0.354 0.571 0.438 0.937 c 0.092 0.367 0.137 0.775 0.137 1.225 l 0 3.676 l -1.512 0 l 0 -3.438 c 0 -0.35 -0.024 -0.645 -0.074 -0.887 c -0.042 -0.25 -0.118 -0.452 -0.227 -0.602 c -0.1 -0.158 -0.237 -0.269 -0.412 -0.336 c -0.175 -0.075 -0.392 -0.113 -0.65 -0.113 c -0.2 0 -0.403 0.021 -0.611 0.063 c -0.208 0.042 -0.363 0.08 -0.463 0.113 l 0 5.199 l -1.512 0 l 0 -9.449 l 1.512 -0.25 z m -6.775 0.949 c 1.258 0 2.22 0.229 2.887 0.688 c 0.675 0.458 1.014 1.175 1.014 2.15 c 0 0.508 -0.092 0.946 -0.275 1.313 c -0.175 0.358 -0.434 0.653 -0.775 0.887 c -0.342 0.225 -0.758 0.392 -1.25 0.5 c -0.492 0.108 -1.054 0.162 -1.688 0.162 l -0.787 0 l 0 3.051 l -1.574 0 l 0 -8.537 c 0.367 -0.083 0.769 -0.137 1.211 -0.162 c 0.45 -0.033 0.863 -0.051 1.238 -0.051 z m 0.113 1.363 c -0.4 0 -0.73 0.012 -0.988 0.037 l 0 2.949 l 0.762 0 c 0.758 0 1.342 -0.104 1.75 -0.313 c 0.408 -0.217 0.613 -0.621 0.613 -1.213 c 0 -0.283 -0.054 -0.519 -0.162 -0.711 c -0.108 -0.192 -0.26 -0.343 -0.451 -0.451 c -0.192 -0.108 -0.421 -0.183 -0.688 -0.225 c -0.258 -0.05 -0.536 -0.074 -0.836 -0.074 z m 11.793 5.555 l 2.895 0 l 0 0.576 c -0.137 0.154 -0.287 0.364 -0.449 0.631 c -0.163 0.267 -0.317 0.569 -0.463 0.906 c -0.146 0.333 -0.273 0.691 -0.381 1.074 c -0.104 0.383 -0.17 0.765 -0.195 1.145 l -0.773 0 c 0.025 -0.317 0.08 -0.65 0.168 -1 c 0.088 -0.35 0.193 -0.69 0.318 -1.02 c 0.129 -0.333 0.27 -0.642 0.42 -0.93 c 0.154 -0.292 0.305 -0.537 0.455 -0.732 l -1.994 0 l 0 -0.65 z" style="fill:#ececec;fill-opacity:1"/>
</svg>
