<svg viewBox="0 0 22 22" xmlns="http://www.w3.org/2000/svg">
 <path d="m 3 1 c -1.108 0 -2 0.892 -2 2 l 0 16 c 0 1.108 0.892 2 2 2 l 16 0 c 1.108 0 2 -0.892 2 -2 l 0 -16 c 0 -1.108 -0.892 -2 -2 -2 l -16 0 z m -0.063 5.588 l 5.563 0 l 0 1.338 l -3.988 0 l 0 2.137 l 3.551 0 l 0 1.313 l -3.551 0 l 0 2.537 l 4.287 0 l 0 1.338 l -5.861 0 l 0 -8.662 z m 9.936 1.986 c 0.533 0 0.98 0.077 1.338 0.227 c 0.358 0.142 0.641 0.345 0.85 0.611 c 0.217 0.258 0.368 0.576 0.451 0.951 c 0.092 0.367 0.137 0.769 0.137 1.211 l 0 3.676 l -1.512 0 l 0 -3.438 c 0 -0.35 -0.026 -0.645 -0.076 -0.887 c -0.042 -0.25 -0.116 -0.452 -0.225 -0.602 c -0.1 -0.158 -0.24 -0.269 -0.424 -0.336 c -0.175 -0.075 -0.392 -0.113 -0.65 -0.113 c -0.192 0 -0.391 0.012 -0.6 0.037 c -0.208 0.025 -0.363 0.046 -0.463 0.063 l 0 5.275 l -1.514 0 l 0 -6.324 c 0.292 -0.083 0.672 -0.163 1.139 -0.238 c 0.467 -0.075 0.982 -0.113 1.549 -0.113 z m 6.625 4.82 l 0.043 0.625 c -0.225 0.004 -0.435 0.028 -0.631 0.074 c -0.196 0.042 -0.371 0.108 -0.525 0.199 c -0.154 0.092 -0.286 0.212 -0.398 0.357 c -0.108 0.146 -0.192 0.325 -0.25 0.537 c 0.204 -0.096 0.426 -0.145 0.668 -0.145 c 0.258 0 0.477 0.038 0.656 0.113 c 0.183 0.071 0.331 0.168 0.443 0.293 c 0.113 0.125 0.194 0.271 0.244 0.438 c 0.054 0.163 0.082 0.335 0.082 0.514 c 0 0.163 -0.03 0.329 -0.088 0.5 c -0.054 0.171 -0.143 0.327 -0.264 0.469 c -0.117 0.137 -0.264 0.252 -0.443 0.344 c -0.179 0.088 -0.391 0.131 -0.637 0.131 c -0.496 0 -0.876 -0.163 -1.139 -0.488 c -0.258 -0.329 -0.387 -0.78 -0.387 -1.355 c 0 -0.417 0.061 -0.785 0.182 -1.105 c 0.125 -0.325 0.3 -0.599 0.525 -0.82 c 0.229 -0.221 0.503 -0.387 0.824 -0.5 c 0.325 -0.117 0.69 -0.176 1.094 -0.18 z m -1.188 2.25 c -0.121 0 -0.237 0.01 -0.35 0.031 c -0.113 0.021 -0.215 0.052 -0.307 0.094 c -0.004 0.033 -0.008 0.07 -0.012 0.111 l 0 0.113 c 0 0.167 0.01 0.325 0.031 0.475 c 0.025 0.146 0.063 0.274 0.117 0.387 c 0.058 0.108 0.137 0.197 0.232 0.264 c 0.1 0.063 0.223 0.094 0.369 0.094 c 0.121 0 0.221 -0.026 0.305 -0.076 c 0.088 -0.05 0.159 -0.114 0.213 -0.193 c 0.054 -0.079 0.094 -0.164 0.119 -0.256 c 0.025 -0.096 0.037 -0.188 0.037 -0.275 c 0 -0.25 -0.061 -0.439 -0.182 -0.568 c -0.121 -0.133 -0.312 -0.199 -0.574 -0.199 z" style="fill:#ececec;fill-opacity:1"/>
</svg>
