<svg viewBox="0 0 22 22" xmlns="http://www.w3.org/2000/svg">
 <path style="fill:#ececec;fill-opacity:1" d="m 3 1 c -1.108 0 -2 0.892 -2 2 l 0 16 c 0 1.108 0.892 2 2 2 l 16 0 c 1.108 0 2 -0.892 2 -2 l 0 -16 c 0 -1.108 -0.892 -2 -2 -2 l -16 0 z m -0.449 5.588 l 6.912 0 l 0 1.361 l -2.662 0 l 0 7.301 l -1.588 0 l 0 -7.301 l -2.662 0 l 0 -1.361 z m 10.02 1.963 c 0.9 0 1.6 0.278 2.1 0.836 c 0.508 0.558 0.764 1.392 0.764 2.5 c 0 0.083 -0.005 0.181 -0.014 0.289 c 0 0.1 -0.003 0.19 -0.012 0.273 l -4.313 0 c 0.042 0.525 0.224 0.935 0.549 1.227 c 0.333 0.283 0.813 0.424 1.438 0.424 c 0.367 0 0.7 -0.033 1 -0.1 c 0.308 -0.067 0.552 -0.138 0.727 -0.213 l 0.199 1.238 c -0.083 0.042 -0.2 0.087 -0.35 0.137 c -0.142 0.042 -0.308 0.08 -0.5 0.113 c -0.183 0.042 -0.383 0.075 -0.6 0.1 c -0.217 0.025 -0.439 0.037 -0.664 0.037 c -0.575 0 -1.075 -0.083 -1.5 -0.25 c -0.425 -0.175 -0.774 -0.413 -1.049 -0.713 c -0.275 -0.308 -0.48 -0.666 -0.613 -1.074 c -0.133 -0.417 -0.199 -0.872 -0.199 -1.363 c 0 -0.575 0.083 -1.078 0.25 -1.512 c 0.175 -0.433 0.404 -0.791 0.688 -1.074 c 0.283 -0.292 0.608 -0.509 0.975 -0.65 c 0.367 -0.15 0.742 -0.225 1.125 -0.225 z m 0.012 1.262 c -0.233 0 -0.436 0.045 -0.611 0.137 c -0.175 0.083 -0.326 0.196 -0.451 0.338 c -0.117 0.142 -0.207 0.305 -0.273 0.488 c -0.067 0.183 -0.114 0.371 -0.139 0.563 l 2.813 0 c 0 -0.208 -0.03 -0.405 -0.088 -0.588 c -0.058 -0.192 -0.145 -0.355 -0.262 -0.488 c -0.108 -0.142 -0.245 -0.249 -0.412 -0.324 c -0.158 -0.083 -0.351 -0.125 -0.576 -0.125 z m 5.418 3.605 l 0.531 0 l 0 4.332 l -0.758 0 l 0 -3.318 c -0.113 0.087 -0.253 0.173 -0.424 0.256 c -0.171 0.083 -0.336 0.153 -0.494 0.207 l -0.23 -0.576 c 0.242 -0.096 0.483 -0.219 0.725 -0.369 c 0.246 -0.15 0.463 -0.327 0.65 -0.531 z"/>
</svg>
