<svg xmlns="http://www.w3.org/2000/svg" viewBox="0 0 22 22">
 <path d="m 3 1 c -1.108 0 -2 0.892 -2 2 l 0 16 c 0 1.108 0.892 2 2 2 l 16 0 c 1.108 0 2 -0.892 2 -2 l 0 -16 c 0 -1.108 -0.892 -2 -2 -2 l -16 0 z m 9.67 4.863 c 0.25 0 0.467 0.083 0.65 0.25 c 0.183 0.167 0.275 0.396 0.275 0.688 c 0 0.283 -0.092 0.507 -0.275 0.674 c -0.183 0.167 -0.4 0.25 -0.65 0.25 c -0.258 0 -0.479 -0.083 -0.662 -0.25 c -0.183 -0.167 -0.275 -0.39 -0.275 -0.674 c 0 -0.292 0.092 -0.521 0.275 -0.688 c 0.183 -0.167 0.404 -0.25 0.662 -0.25 z m -7.572 0.725 l 5.475 0 l 0 1.338 l -3.9 0 l 0 2.211 l 3.463 0 l 0 1.338 l -3.463 0 l 0 3.775 l -1.574 0 l 0 -8.662 z m 6.822 2.125 l 1.512 0 l 0 6.537 l -1.512 0 l 0 -6.537 z m 4.404 4.705 l 0.531 0 l 0 4.332 l -0.756 0 l 0 -3.318 c -0.113 0.087 -0.253 0.173 -0.424 0.256 c -0.171 0.083 -0.336 0.153 -0.494 0.207 l -0.232 -0.576 c 0.242 -0.096 0.485 -0.219 0.727 -0.369 c 0.246 -0.15 0.461 -0.327 0.648 -0.531 z" style="fill:#ececec;fill-opacity:1"/>
</svg>
