<svg xmlns="http://www.w3.org/2000/svg" viewBox="0 0 22 22">
 <path d="m 3 1 c -1.108 0 -2 0.892 -2 2 l 0 16 c 0 1.108 0.892 2 2 2 l 16 0 c 1.108 0 2 -0.892 2 -2 l 0 -16 c 0 -1.108 -0.892 -2 -2 -2 l -16 0 z m 9.598 4.863 c 0.25 0 0.465 0.083 0.648 0.25 c 0.183 0.167 0.275 0.396 0.275 0.688 c 0 0.283 -0.092 0.507 -0.275 0.674 c -0.183 0.167 -0.398 0.25 -0.648 0.25 c -0.258 0 -0.481 -0.083 -0.664 -0.25 c -0.183 -0.167 -0.273 -0.39 -0.273 -0.674 c 0 -0.292 0.09 -0.521 0.273 -0.688 c 0.183 -0.167 0.406 -0.25 0.664 -0.25 z m -4.889 0.523 c 0.542 0 1.021 0.063 1.438 0.188 c 0.425 0.117 0.758 0.247 1 0.389 l -0.488 1.275 c -0.283 -0.158 -0.596 -0.28 -0.938 -0.363 c -0.333 -0.083 -0.679 -0.125 -1.037 -0.125 c -0.425 0 -0.758 0.087 -1 0.262 c -0.233 0.175 -0.35 0.422 -0.35 0.738 c 0 0.192 0.036 0.358 0.111 0.5 c 0.083 0.133 0.196 0.255 0.338 0.363 c 0.15 0.108 0.322 0.207 0.514 0.299 c 0.2 0.092 0.415 0.18 0.648 0.264 c 0.408 0.15 0.771 0.303 1.088 0.461 c 0.325 0.15 0.596 0.334 0.813 0.551 c 0.225 0.208 0.397 0.458 0.514 0.75 c 0.117 0.283 0.174 0.629 0.174 1.037 c 0 0.783 -0.28 1.393 -0.838 1.826 c -0.55 0.425 -1.357 0.637 -2.424 0.637 c -0.358 0 -0.688 -0.024 -0.988 -0.074 c -0.292 -0.042 -0.554 -0.097 -0.787 -0.164 c -0.225 -0.067 -0.421 -0.133 -0.588 -0.199 c -0.167 -0.075 -0.3 -0.141 -0.4 -0.199 l 0.463 -1.289 c 0.225 0.125 0.529 0.25 0.912 0.375 c 0.383 0.125 0.847 0.188 1.389 0.188 c 0.567 0 0.978 -0.095 1.236 -0.287 c 0.258 -0.192 0.389 -0.462 0.389 -0.813 c 0 -0.208 -0.047 -0.387 -0.139 -0.537 c -0.083 -0.15 -0.208 -0.284 -0.375 -0.4 c -0.158 -0.125 -0.353 -0.238 -0.586 -0.338 c -0.233 -0.108 -0.501 -0.212 -0.801 -0.313 c -0.3 -0.108 -0.592 -0.225 -0.875 -0.35 c -0.275 -0.133 -0.522 -0.295 -0.738 -0.486 c -0.208 -0.192 -0.378 -0.421 -0.512 -0.687 c -0.125 -0.267 -0.188 -0.588 -0.188 -0.963 c 0 -0.783 0.271 -1.396 0.813 -1.838 c 0.542 -0.45 1.28 -0.676 2.213 -0.676 z m 4.139 2.326 l 1.512 0 l 0 6.537 l -1.512 0 l 0 -6.537 z m 4.404 4.705 l 0.531 0 l 0 4.332 l -0.756 0 l 0 -3.318 c -0.112 0.087 -0.255 0.173 -0.426 0.256 c -0.171 0.083 -0.336 0.153 -0.494 0.207 l -0.23 -0.576 c 0.242 -0.096 0.483 -0.219 0.725 -0.369 c 0.246 -0.15 0.463 -0.327 0.65 -0.531 z" style="fill:#ececec;fill-opacity:1"/>
</svg>
