<svg viewBox="0 0 22 22" xmlns="http://www.w3.org/2000/svg">
 <path d="m 3 1 c -1.108 0 -2 0.892 -2 2 l 0 16 c 0 1.108 0.892 2 2 2 l 16 0 c 1.108 0 2 -0.892 2 -2 l 0 -16 c 0 -1.108 -0.892 -2 -2 -2 l -16 0 z m 3.543 5.387 c 0.4 0 0.754 0.03 1.063 0.088 c 0.317 0.05 0.587 0.109 0.813 0.176 c 0.225 0.067 0.409 0.138 0.551 0.213 c 0.15 0.075 0.254 0.129 0.313 0.162 l -0.475 1.287 c -0.25 -0.15 -0.563 -0.275 -0.938 -0.375 c -0.367 -0.108 -0.754 -0.162 -1.162 -0.162 c -0.892 0 -1.576 0.28 -2.051 0.838 c -0.467 0.55 -0.699 1.315 -0.699 2.299 c 0 0.467 0.054 0.895 0.162 1.287 c 0.117 0.383 0.283 0.713 0.5 0.988 c 0.225 0.275 0.499 0.492 0.824 0.65 c 0.333 0.15 0.72 0.225 1.162 0.225 c 0.275 0 0.513 -0.009 0.713 -0.025 c 0.2 -0.025 0.358 -0.055 0.475 -0.088 l 0 -3.111 l 1.576 0 l 0 4.162 c -0.217 0.083 -0.583 0.175 -1.1 0.275 c -0.517 0.1 -1.114 0.15 -1.789 0.15 c -0.625 0 -1.194 -0.101 -1.711 -0.301 c -0.517 -0.2 -0.96 -0.492 -1.326 -0.875 c -0.358 -0.383 -0.638 -0.854 -0.838 -1.412 c -0.2 -0.558 -0.299 -1.201 -0.299 -1.926 c 0 -0.725 0.108 -1.365 0.324 -1.924 c 0.225 -0.558 0.529 -1.031 0.912 -1.414 c 0.383 -0.392 0.835 -0.687 1.352 -0.887 c 0.517 -0.2 1.065 -0.301 1.648 -0.301 z m 6.758 2.164 c 0.5 0 0.922 0.063 1.264 0.188 c 0.342 0.125 0.612 0.298 0.813 0.523 c 0.208 0.225 0.354 0.501 0.438 0.826 c 0.092 0.317 0.137 0.665 0.137 1.049 l 0 3.963 c -0.233 0.05 -0.588 0.109 -1.063 0.176 c -0.467 0.075 -0.996 0.111 -1.588 0.111 c -0.392 0 -0.749 -0.036 -1.074 -0.111 c -0.325 -0.075 -0.605 -0.197 -0.838 -0.363 c -0.225 -0.167 -0.404 -0.384 -0.537 -0.65 c -0.125 -0.267 -0.188 -0.595 -0.188 -0.986 c 0 -0.375 0.071 -0.693 0.213 -0.951 c 0.15 -0.258 0.35 -0.467 0.6 -0.625 c 0.25 -0.167 0.536 -0.283 0.861 -0.35 c 0.333 -0.075 0.681 -0.111 1.039 -0.111 c 0.167 0 0.34 0.012 0.523 0.037 c 0.183 0.017 0.38 0.05 0.588 0.1 l 0 -0.25 c 0 -0.175 -0.021 -0.342 -0.063 -0.5 c -0.042 -0.158 -0.116 -0.295 -0.225 -0.412 c -0.1 -0.125 -0.237 -0.22 -0.412 -0.287 c -0.167 -0.067 -0.38 -0.102 -0.639 -0.102 c -0.35 0 -0.669 0.026 -0.961 0.076 c -0.292 0.05 -0.53 0.107 -0.713 0.174 l -0.188 -1.225 c 0.192 -0.067 0.471 -0.133 0.838 -0.199 c 0.367 -0.067 0.757 -0.1 1.174 -0.1 z m 0.301 3.773 c -0.167 0 -0.339 0.014 -0.514 0.039 c -0.167 0.025 -0.319 0.07 -0.461 0.137 c -0.133 0.067 -0.243 0.162 -0.326 0.287 c -0.083 0.117 -0.125 0.268 -0.125 0.451 c 0 0.358 0.113 0.608 0.338 0.75 c 0.225 0.133 0.529 0.199 0.912 0.199 c 0.467 0 0.821 -0.024 1.063 -0.074 l 0 -1.676 c -0.083 -0.025 -0.203 -0.049 -0.361 -0.074 c -0.158 -0.025 -0.334 -0.039 -0.525 -0.039 z m 5.164 1.094 l 0.531 0 l 0 4.332 l -0.756 0 l 0 -3.318 c -0.113 0.087 -0.253 0.173 -0.424 0.256 c -0.171 0.083 -0.336 0.153 -0.494 0.207 l -0.232 -0.576 c 0.242 -0.096 0.485 -0.219 0.727 -0.369 c 0.246 -0.15 0.461 -0.327 0.648 -0.531 z" style="fill:#ececec;fill-opacity:1"/>
</svg>
