<svg xmlns="http://www.w3.org/2000/svg" viewBox="0 0 22 22">
 <path d="m 3 1 c -1.108 0 -2 0.892 -2 2 l 0 16 c 0 1.108 0.892 2 2 2 l 16 0 c 1.108 0 2 -0.892 2 -2 l 0 -16 c 0 -1.108 -0.892 -2 -2 -2 l -16 0 z m 0.676 5.838 l 1.287 0 c 0.333 0.35 0.693 0.767 1.076 1.25 c 0.383 0.475 0.765 0.97 1.148 1.486 c 0.392 0.517 0.767 1.038 1.125 1.563 c 0.367 0.517 0.693 1 0.977 1.451 l 0 -5.75 l 1.562 0 l 0 8.662 l -1.338 0 c -0.283 -0.475 -0.601 -0.984 -0.951 -1.525 c -0.35 -0.55 -0.711 -1.1 -1.086 -1.65 c -0.375 -0.558 -0.759 -1.095 -1.15 -1.611 c -0.383 -0.525 -0.75 -0.995 -1.1 -1.412 l 0 6.199 l -1.551 0 l 0 -8.662 z m 11.953 1.963 c 0.458 0 0.878 0.083 1.262 0.25 c 0.392 0.158 0.725 0.388 1 0.688 c 0.275 0.3 0.489 0.661 0.639 1.086 c 0.158 0.417 0.236 0.884 0.236 1.4 c 0 0.517 -0.075 0.987 -0.225 1.412 c -0.15 0.425 -0.362 0.788 -0.637 1.088 c -0.275 0.3 -0.608 0.535 -1 0.701 c -0.383 0.167 -0.809 0.25 -1.275 0.25 c -0.467 0 -0.892 -0.083 -1.275 -0.25 c -0.383 -0.167 -0.713 -0.401 -0.988 -0.701 c -0.275 -0.3 -0.49 -0.663 -0.648 -1.088 c -0.15 -0.425 -0.227 -0.895 -0.227 -1.412 c 0 -0.517 0.077 -0.984 0.227 -1.4 c 0.158 -0.425 0.373 -0.786 0.648 -1.086 c 0.283 -0.3 0.617 -0.529 1 -0.688 c 0.383 -0.167 0.805 -0.25 1.264 -0.25 z m 0 1.312 c -0.5 0 -0.892 0.191 -1.176 0.574 c -0.275 0.375 -0.412 0.887 -0.412 1.537 c 0 0.658 0.137 1.179 0.412 1.563 c 0.283 0.383 0.676 0.576 1.176 0.576 c 0.5 0 0.887 -0.193 1.162 -0.576 c 0.283 -0.383 0.426 -0.904 0.426 -1.563 c 0 -0.65 -0.142 -1.162 -0.426 -1.537 c -0.275 -0.383 -0.662 -0.574 -1.162 -0.574 z" style="fill:#ececec;fill-opacity:1"/>
</svg>
