<svg viewBox="0 0 22 22" xmlns="http://www.w3.org/2000/svg">
 <path d="m 3 1 c -1.108 0 -2 0.892 -2 2 l 0 16 c 0 1.108 0.892 2 2 2 l 16 0 c 1.108 0 2 -0.892 2 -2 l 0 -16 c 0 -1.108 -0.892 -2 -2 -2 l -16 0 z m 0.914 5.588 l 1.574 0 l 0 7.299 l 3.9 0 l 0 1.363 l -5.475 0 l 0 -8.662 z m 5.252 2.125 l 1.613 0 c 0.092 0.367 0.196 0.763 0.313 1.188 c 0.125 0.417 0.253 0.837 0.387 1.262 c 0.142 0.417 0.284 0.825 0.426 1.225 c 0.15 0.392 0.287 0.746 0.412 1.063 c 0.125 -0.317 0.259 -0.671 0.4 -1.063 c 0.142 -0.4 0.279 -0.808 0.412 -1.225 c 0.142 -0.425 0.275 -0.845 0.4 -1.262 c 0.125 -0.425 0.233 -0.821 0.324 -1.188 l 1.563 0 c -0.358 1.275 -0.758 2.471 -1.199 3.588 c -0.433 1.108 -0.859 2.091 -1.275 2.949 l -1.299 0 c -0.417 -0.858 -0.847 -1.841 -1.289 -2.949 c -0.433 -1.117 -0.829 -2.313 -1.188 -3.588 z m 7.199 4.705 l 2.213 0 l 0 0.639 l -1.568 0 c -0.004 0.071 -0.011 0.152 -0.02 0.244 c -0.004 0.087 -0.011 0.176 -0.02 0.268 c -0.004 0.092 -0.009 0.18 -0.018 0.264 c -0.008 0.083 -0.017 0.153 -0.025 0.211 c 0.617 0.033 1.072 0.176 1.363 0.426 c 0.296 0.246 0.443 0.583 0.443 1.012 c 0 0.196 -0.033 0.378 -0.1 0.545 c -0.067 0.167 -0.169 0.311 -0.307 0.432 c -0.137 0.121 -0.311 0.216 -0.52 0.287 c -0.208 0.067 -0.451 0.1 -0.73 0.1 c -0.113 0 -0.227 -0.009 -0.344 -0.025 c -0.117 -0.017 -0.23 -0.038 -0.338 -0.063 c -0.104 -0.021 -0.198 -0.043 -0.281 -0.068 c -0.083 -0.025 -0.146 -0.048 -0.188 -0.068 l 0.145 -0.639 c 0.088 0.042 0.213 0.089 0.375 0.139 c 0.167 0.046 0.368 0.068 0.605 0.068 c 0.162 0 0.301 -0.017 0.418 -0.051 c 0.117 -0.037 0.21 -0.086 0.281 -0.148 c 0.075 -0.063 0.131 -0.134 0.164 -0.213 c 0.033 -0.083 0.049 -0.172 0.049 -0.264 c 0 -0.137 -0.026 -0.259 -0.08 -0.367 c -0.054 -0.108 -0.152 -0.2 -0.289 -0.275 c -0.133 -0.075 -0.314 -0.132 -0.543 -0.17 c -0.225 -0.037 -0.51 -0.055 -0.855 -0.055 c 0.046 -0.4 0.08 -0.78 0.105 -1.139 c 0.025 -0.362 0.046 -0.725 0.063 -1.088 z" style="fill:#ececec;fill-opacity:1"/>
</svg>
