<svg xmlns="http://www.w3.org/2000/svg" viewBox="0 0 22 22">
 <path d="m 3 1 c -1.108 0 -2 0.892 -2 2 l 0 16 c 0 1.108 0.892 2 2 2 l 16 0 c 1.108 0 2 -0.892 2 -2 l 0 -16 c 0 -1.108 -0.892 -2 -2 -2 l -16 0 z m 1.994 5.5 c 1.25 0 2.205 0.229 2.863 0.688 c 0.667 0.458 1 1.158 1 2.1 c 0 1.175 -0.58 1.972 -1.738 2.389 c 0.158 0.192 0.339 0.424 0.539 0.699 c 0.2 0.275 0.403 0.575 0.611 0.9 c 0.208 0.317 0.408 0.645 0.6 0.986 c 0.192 0.333 0.364 0.663 0.514 0.988 l -1.764 0 c -0.158 -0.3 -0.328 -0.6 -0.512 -0.9 c -0.183 -0.308 -0.371 -0.603 -0.563 -0.887 c -0.183 -0.292 -0.367 -0.563 -0.551 -0.813 c -0.183 -0.258 -0.353 -0.488 -0.512 -0.688 c -0.117 0.008 -0.217 0.012 -0.301 0.012 l -0.236 0 l -0.764 0 l 0 3.275 l -1.574 0 l 0 -8.537 c 0.383 -0.083 0.791 -0.137 1.225 -0.162 c 0.433 -0.033 0.82 -0.051 1.162 -0.051 z m 0.113 1.363 c -0.333 0 -0.642 0.012 -0.926 0.037 l 0 2.799 l 0.688 0 c 0.383 0 0.722 -0.021 1.014 -0.063 c 0.292 -0.042 0.533 -0.116 0.725 -0.225 c 0.2 -0.108 0.349 -0.254 0.449 -0.437 c 0.1 -0.183 0.15 -0.416 0.15 -0.699 c 0 -0.267 -0.05 -0.492 -0.15 -0.676 c -0.1 -0.183 -0.246 -0.329 -0.438 -0.438 c -0.183 -0.108 -0.404 -0.183 -0.662 -0.225 c -0.258 -0.05 -0.541 -0.074 -0.85 -0.074 z m 5.357 0.85 l 1.514 0 l 0 3.424 c 0 0.7 0.099 1.2 0.299 1.5 c 0.208 0.3 0.568 0.451 1.076 0.451 c 0.183 0 0.374 -0.009 0.574 -0.025 c 0.208 -0.017 0.363 -0.037 0.463 -0.063 l 0 -5.287 l 1.512 0 l 0 6.338 c -0.292 0.075 -0.67 0.15 -1.137 0.225 c -0.467 0.083 -0.979 0.125 -1.537 0.125 c -0.525 0 -0.968 -0.075 -1.326 -0.225 c -0.35 -0.15 -0.633 -0.358 -0.85 -0.625 c -0.208 -0.267 -0.358 -0.585 -0.449 -0.951 c -0.092 -0.375 -0.139 -0.783 -0.139 -1.225 l 0 -3.662 z m 7.982 4.605 c 0.242 0 0.45 0.03 0.625 0.088 c 0.175 0.058 0.317 0.142 0.43 0.25 c 0.117 0.104 0.204 0.229 0.258 0.375 c 0.058 0.142 0.086 0.298 0.086 0.469 c 0 0.2 -0.055 0.379 -0.168 0.537 c -0.108 0.158 -0.251 0.28 -0.426 0.363 c 0.225 0.079 0.411 0.209 0.557 0.393 c 0.15 0.183 0.225 0.42 0.225 0.707 c 0 0.192 -0.033 0.37 -0.1 0.537 c -0.067 0.162 -0.169 0.305 -0.307 0.426 c -0.137 0.117 -0.311 0.21 -0.523 0.281 c -0.208 0.067 -0.458 0.1 -0.75 0.1 c -0.113 0 -0.231 -0.009 -0.352 -0.025 c -0.117 -0.012 -0.228 -0.032 -0.336 -0.057 c -0.104 -0.021 -0.202 -0.043 -0.289 -0.068 c -0.087 -0.029 -0.153 -0.055 -0.199 -0.08 l 0.15 -0.645 c 0.087 0.042 0.214 0.09 0.381 0.145 c 0.167 0.05 0.373 0.074 0.619 0.074 c 0.329 0 0.567 -0.063 0.713 -0.188 c 0.146 -0.129 0.219 -0.299 0.219 -0.512 c 0 -0.137 -0.03 -0.252 -0.088 -0.344 c -0.054 -0.092 -0.132 -0.165 -0.232 -0.219 c -0.096 -0.058 -0.207 -0.098 -0.336 -0.119 c -0.125 -0.025 -0.259 -0.037 -0.4 -0.037 l -0.256 0 l 0 -0.613 l 0.313 0 c 0.096 0 0.191 -0.009 0.287 -0.025 c 0.1 -0.021 0.188 -0.054 0.268 -0.1 c 0.079 -0.05 0.145 -0.114 0.195 -0.193 c 0.05 -0.079 0.074 -0.182 0.074 -0.307 c 0 -0.1 -0.019 -0.185 -0.057 -0.256 c -0.037 -0.071 -0.088 -0.13 -0.15 -0.176 c -0.058 -0.046 -0.126 -0.079 -0.205 -0.1 c -0.079 -0.021 -0.163 -0.031 -0.25 -0.031 c -0.188 0 -0.354 0.03 -0.5 0.088 c -0.146 0.054 -0.276 0.117 -0.389 0.188 l -0.273 -0.563 c 0.058 -0.038 0.128 -0.077 0.211 -0.119 c 0.083 -0.042 0.175 -0.082 0.275 -0.119 c 0.104 -0.037 0.215 -0.067 0.332 -0.088 c 0.117 -0.025 0.24 -0.037 0.369 -0.037 z" style="fill:#ececec;fill-opacity:1"/>
</svg>
