<svg xmlns="http://www.w3.org/2000/svg" viewBox="0 0 22 22">
 <path style="fill:#ececec;fill-opacity:1" d="m 3 1 c -1.108 0 -2 0.892 -2 2 l 0 16 c 0 1.108 0.892 2 2 2 l 16 0 c 1.108 0 2 -0.892 2 -2 l 0 -16 c 0 -1.108 -0.892 -2 -2 -2 l -16 0 z m 8.955 4.551 l 0 3.236 c 0.167 -0.058 0.358 -0.109 0.574 -0.15 c 0.225 -0.042 0.447 -0.063 0.664 -0.063 c 0.525 0 0.957 0.077 1.299 0.227 c 0.35 0.142 0.63 0.345 0.838 0.611 c 0.208 0.258 0.354 0.571 0.438 0.937 c 0.092 0.367 0.137 0.775 0.137 1.225 l 0 3.676 l -1.512 0 l 0 -3.438 c 0 -0.35 -0.024 -0.645 -0.074 -0.887 c -0.042 -0.25 -0.118 -0.452 -0.227 -0.602 c -0.1 -0.158 -0.237 -0.269 -0.412 -0.336 c -0.175 -0.075 -0.392 -0.113 -0.65 -0.113 c -0.2 0 -0.403 0.021 -0.611 0.063 c -0.208 0.042 -0.363 0.08 -0.463 0.113 l 0 5.199 l -1.512 0 l 0 -9.449 l 1.512 -0.25 z m -6.775 0.949 c 1.258 0 2.22 0.229 2.887 0.688 c 0.675 0.458 1.014 1.175 1.014 2.15 c 0 0.508 -0.092 0.946 -0.275 1.313 c -0.175 0.358 -0.434 0.653 -0.775 0.887 c -0.342 0.225 -0.758 0.392 -1.25 0.5 c -0.492 0.108 -1.054 0.162 -1.688 0.162 l -0.787 0 l 0 3.051 l -1.574 0 l 0 -8.537 c 0.367 -0.083 0.769 -0.137 1.211 -0.162 c 0.45 -0.033 0.863 -0.051 1.238 -0.051 z m 0.113 1.363 c -0.4 0 -0.73 0.012 -0.988 0.037 l 0 2.949 l 0.762 0 c 0.758 0 1.342 -0.104 1.75 -0.313 c 0.408 -0.217 0.613 -0.621 0.613 -1.213 c 0 -0.283 -0.054 -0.519 -0.162 -0.711 c -0.108 -0.192 -0.26 -0.343 -0.451 -0.451 c -0.192 -0.108 -0.421 -0.183 -0.688 -0.225 c -0.258 -0.05 -0.536 -0.074 -0.836 -0.074 z m 13.238 5.455 c 0.246 0 0.454 0.037 0.625 0.107 c 0.175 0.071 0.315 0.161 0.424 0.273 c 0.113 0.113 0.194 0.238 0.244 0.375 c 0.05 0.138 0.074 0.271 0.074 0.4 c 0 0.229 -0.063 0.434 -0.188 0.613 c -0.125 0.175 -0.267 0.314 -0.43 0.418 c 0.246 0.133 0.426 0.288 0.543 0.463 c 0.121 0.175 0.182 0.382 0.182 0.619 c 0 0.179 -0.031 0.346 -0.094 0.5 c -0.063 0.154 -0.156 0.288 -0.281 0.4 c -0.125 0.113 -0.281 0.199 -0.469 0.262 c -0.183 0.063 -0.397 0.094 -0.639 0.094 c -0.283 0 -0.518 -0.04 -0.705 -0.119 c -0.188 -0.079 -0.339 -0.178 -0.451 -0.299 c -0.112 -0.121 -0.192 -0.251 -0.242 -0.389 c -0.046 -0.142 -0.07 -0.275 -0.07 -0.4 c 0 -0.125 0.017 -0.24 0.051 -0.344 c 0.038 -0.108 0.088 -0.205 0.15 -0.293 c 0.063 -0.092 0.134 -0.175 0.213 -0.25 c 0.079 -0.075 0.163 -0.141 0.25 -0.199 c -0.192 -0.133 -0.336 -0.277 -0.432 -0.432 c -0.092 -0.158 -0.139 -0.351 -0.139 -0.576 c 0 -0.162 0.031 -0.315 0.094 -0.461 c 0.067 -0.15 0.16 -0.282 0.281 -0.395 c 0.121 -0.113 0.267 -0.203 0.438 -0.27 c 0.171 -0.067 0.362 -0.1 0.57 -0.1 z m 0 0.619 c -0.113 0 -0.212 0.019 -0.295 0.057 c -0.079 0.033 -0.143 0.078 -0.193 0.137 c -0.05 0.054 -0.088 0.115 -0.113 0.182 c -0.025 0.063 -0.037 0.125 -0.037 0.188 c 0 0.158 0.059 0.308 0.176 0.449 c 0.121 0.142 0.32 0.255 0.6 0.338 c 0.154 -0.096 0.276 -0.203 0.363 -0.324 c 0.087 -0.125 0.131 -0.283 0.131 -0.475 c 0 -0.054 -0.012 -0.113 -0.037 -0.176 c -0.021 -0.067 -0.059 -0.127 -0.113 -0.182 c -0.05 -0.054 -0.114 -0.099 -0.193 -0.137 c -0.079 -0.038 -0.175 -0.057 -0.287 -0.057 z m -0.232 1.855 c -0.15 0.096 -0.27 0.214 -0.361 0.352 c -0.092 0.133 -0.139 0.293 -0.139 0.48 c 0 0.063 0.012 0.128 0.037 0.199 c 0.025 0.071 0.067 0.137 0.125 0.195 c 0.058 0.058 0.135 0.107 0.227 0.148 c 0.092 0.038 0.206 0.057 0.344 0.057 c 0.125 0 0.233 -0.015 0.324 -0.049 c 0.092 -0.033 0.166 -0.079 0.225 -0.133 c 0.058 -0.058 0.102 -0.123 0.131 -0.193 c 0.029 -0.075 0.045 -0.15 0.045 -0.225 c 0 -0.117 -0.023 -0.219 -0.068 -0.307 c -0.046 -0.088 -0.114 -0.162 -0.201 -0.225 c -0.083 -0.067 -0.182 -0.122 -0.299 -0.168 c -0.117 -0.05 -0.247 -0.095 -0.389 -0.133 z"/>
</svg>
