<svg viewBox="0 0 22 22" xmlns="http://www.w3.org/2000/svg">
 <path d="m 3 1 c -1.108 0 -2 0.892 -2 2 l 0 16 c 0 1.108 0.892 2 2 2 l 16 0 c 1.108 0 2 -0.892 2 -2 l 0 -16 c 0 -1.108 -0.892 -2 -2 -2 l -16 0 z m -0.063 5.588 l 5.563 0 l 0 1.338 l -3.988 0 l 0 2.137 l 3.551 0 l 0 1.313 l -3.551 0 l 0 2.537 l 4.287 0 l 0 1.338 l -5.861 0 l 0 -8.662 z m 9.936 1.986 c 0.533 0 0.98 0.077 1.338 0.227 c 0.358 0.142 0.641 0.345 0.85 0.611 c 0.217 0.258 0.368 0.576 0.451 0.951 c 0.092 0.367 0.137 0.769 0.137 1.211 l 0 3.676 l -1.512 0 l 0 -3.438 c 0 -0.35 -0.026 -0.645 -0.076 -0.887 c -0.042 -0.25 -0.116 -0.452 -0.225 -0.602 c -0.1 -0.158 -0.24 -0.269 -0.424 -0.336 c -0.175 -0.075 -0.392 -0.113 -0.65 -0.113 c -0.192 0 -0.391 0.012 -0.6 0.037 c -0.208 0.025 -0.363 0.046 -0.463 0.063 l 0 5.275 l -1.514 0 l 0 -6.324 c 0.292 -0.083 0.672 -0.163 1.139 -0.238 c 0.467 -0.075 0.982 -0.113 1.549 -0.113 z m 4.01 4.844 l 2.895 0 l 0 0.576 c -0.138 0.154 -0.289 0.364 -0.451 0.631 c -0.162 0.267 -0.315 0.569 -0.461 0.906 c -0.146 0.333 -0.274 0.691 -0.383 1.074 c -0.104 0.383 -0.168 0.765 -0.193 1.145 l -0.775 0 c 0.025 -0.317 0.082 -0.65 0.17 -1 c 0.088 -0.35 0.193 -0.69 0.318 -1.02 c 0.129 -0.333 0.268 -0.642 0.418 -0.93 c 0.154 -0.292 0.307 -0.537 0.457 -0.732 l -1.994 0 l 0 -0.65 z" style="fill:#ececec;fill-opacity:1"/>
</svg>
