<svg xmlns="http://www.w3.org/2000/svg" viewBox="0 0 22 22">
 <path d="m 3 1 c -1.108 0 -2 0.892 -2 2 l 0 16 c 0 1.108 0.892 2 2 2 l 16 0 c 1.108 0 2 -0.892 2 -2 l 0 -16 c 0 -1.108 -0.892 -2 -2 -2 l -16 0 z m 9.65 4.551 l 0 5.711 c 0.192 -0.2 0.397 -0.412 0.613 -0.637 c 0.217 -0.233 0.428 -0.463 0.637 -0.688 c 0.208 -0.233 0.405 -0.454 0.588 -0.662 c 0.192 -0.217 0.355 -0.404 0.488 -0.563 l 1.787 0 c -0.417 0.467 -0.858 0.949 -1.324 1.449 c -0.458 0.5 -0.922 0.988 -1.389 1.463 c 0.25 0.208 0.512 0.462 0.787 0.762 c 0.275 0.292 0.542 0.604 0.801 0.938 c 0.258 0.333 0.5 0.667 0.725 1 c 0.225 0.333 0.412 0.642 0.563 0.926 l -1.75 0 c -0.15 -0.258 -0.325 -0.529 -0.525 -0.813 c -0.192 -0.283 -0.4 -0.558 -0.625 -0.824 c -0.225 -0.267 -0.454 -0.517 -0.688 -0.75 c -0.233 -0.242 -0.463 -0.447 -0.688 -0.613 l 0 3 l -1.512 0 l 0 -9.449 l 1.512 -0.25 z m -10.289 1.037 l 1.588 0 l 0 5.262 c 0 0.392 0.042 0.73 0.125 1.014 c 0.092 0.275 0.217 0.499 0.375 0.674 c 0.167 0.175 0.36 0.305 0.576 0.389 c 0.225 0.083 0.475 0.125 0.75 0.125 c 0.275 0 0.525 -0.042 0.75 -0.125 c 0.225 -0.083 0.416 -0.214 0.574 -0.389 c 0.167 -0.175 0.292 -0.399 0.375 -0.674 c 0.092 -0.283 0.137 -0.622 0.137 -1.014 l 0 -5.262 l 1.588 0 l 0 5.412 c 0 0.5 -0.071 0.958 -0.213 1.375 c -0.133 0.417 -0.342 0.78 -0.625 1.088 c -0.275 0.308 -0.629 0.55 -1.063 0.725 c -0.433 0.167 -0.945 0.25 -1.537 0.25 c -0.592 0 -1.1 -0.083 -1.525 -0.25 c -0.425 -0.175 -0.779 -0.416 -1.062 -0.725 c -0.275 -0.308 -0.478 -0.671 -0.611 -1.088 c -0.133 -0.417 -0.201 -0.875 -0.201 -1.375 l 0 -5.412 z m 16.824 6.83 l 0.719 0 l 0 2.676 l 0.488 0 l 0 0.619 l -0.488 0 l 0 1.037 l -0.736 0 l 0 -1.037 l -1.9 0 l 0 -0.537 c 0.083 -0.183 0.193 -0.395 0.33 -0.633 c 0.142 -0.237 0.298 -0.48 0.469 -0.73 c 0.171 -0.25 0.353 -0.497 0.545 -0.738 c 0.192 -0.242 0.383 -0.46 0.574 -0.656 z m -0.018 0.932 c -0.1 0.121 -0.204 0.251 -0.313 0.389 c -0.104 0.137 -0.207 0.28 -0.307 0.43 c -0.1 0.15 -0.195 0.305 -0.287 0.463 c -0.092 0.154 -0.175 0.309 -0.25 0.463 l 1.156 0 l 0 -1.744 z" style="fill:#ececec;fill-opacity:1"/>
</svg>
