<svg xmlns="http://www.w3.org/2000/svg" viewBox="0 0 22 22">
 <path d="m 3 1 c -1.108 0 -2 0.892 -2 2 l 0 16 c 0 1.108 0.892 2 2 2 l 16 0 c 1.108 0 2 -0.892 2 -2 l 0 -16 c 0 -1.108 -0.892 -2 -2 -2 l -16 0 z m 1.865 5.588 l 1.576 0 l 0 8.662 l -1.576 0 l 0 -8.662 z m 6.264 1.963 c 0.9 0 1.6 0.278 2.1 0.836 c 0.508 0.558 0.762 1.392 0.762 2.5 c 0 0.083 -0.003 0.181 -0.012 0.289 c 0 0.1 -0.005 0.19 -0.014 0.273 l -4.313 0 c 0.042 0.525 0.226 0.935 0.551 1.227 c 0.333 0.283 0.813 0.424 1.438 0.424 c 0.367 0 0.7 -0.033 1 -0.1 c 0.308 -0.067 0.55 -0.138 0.725 -0.213 l 0.201 1.238 c -0.083 0.042 -0.202 0.087 -0.352 0.137 c -0.142 0.042 -0.308 0.08 -0.5 0.113 c -0.183 0.042 -0.383 0.075 -0.6 0.1 c -0.217 0.025 -0.437 0.037 -0.662 0.037 c -0.575 0 -1.075 -0.083 -1.5 -0.25 c -0.425 -0.175 -0.776 -0.413 -1.051 -0.713 c -0.275 -0.308 -0.478 -0.666 -0.611 -1.074 c -0.133 -0.417 -0.201 -0.872 -0.201 -1.363 c 0 -0.575 0.083 -1.078 0.25 -1.512 c 0.175 -0.433 0.404 -0.791 0.688 -1.074 c 0.283 -0.292 0.61 -0.509 0.977 -0.65 c 0.367 -0.15 0.742 -0.225 1.125 -0.225 z m 0.012 1.262 c -0.233 0 -0.438 0.045 -0.613 0.137 c -0.175 0.083 -0.324 0.196 -0.449 0.338 c -0.117 0.142 -0.209 0.305 -0.275 0.488 c -0.067 0.183 -0.112 0.371 -0.137 0.563 l 2.813 0 c 0 -0.208 -0.03 -0.405 -0.088 -0.588 c -0.058 -0.192 -0.145 -0.355 -0.262 -0.488 c -0.108 -0.142 -0.247 -0.249 -0.414 -0.324 c -0.158 -0.083 -0.349 -0.125 -0.574 -0.125 z m 5.604 3.605 l 0.719 0 l 0 2.676 l 0.488 0 l 0 0.619 l -0.488 0 l 0 1.037 l -0.736 0 l 0 -1.037 l -1.9 0 l 0 -0.537 c 0.083 -0.183 0.193 -0.395 0.33 -0.633 c 0.142 -0.237 0.298 -0.48 0.469 -0.73 c 0.171 -0.25 0.353 -0.497 0.545 -0.738 c 0.192 -0.242 0.383 -0.46 0.574 -0.656 z m -0.018 0.932 c -0.1 0.121 -0.204 0.251 -0.313 0.389 c -0.104 0.137 -0.207 0.28 -0.307 0.43 c -0.1 0.15 -0.195 0.305 -0.287 0.463 c -0.092 0.154 -0.175 0.309 -0.25 0.463 l 1.156 0 l 0 -1.744 z" style="fill:#ececec;fill-opacity:1"/>
</svg>
