<svg xmlns="http://www.w3.org/2000/svg" viewBox="0 0 22 22">
 <path style="fill:#ececec;fill-opacity:1" d="m 3 1 c -1.108 0 -2 0.892 -2 2 l 0 16 c 0 1.108 0.892 2 2 2 l 16 0 c 1.108 0 2 -0.892 2 -2 l 0 -16 c 0 -1.108 -0.892 -2 -2 -2 l -16 0 z m 3.406 5.75 c 0.725 0 1.388 0.087 1.988 0.262 c 0.6 0.167 1.112 0.434 1.537 0.801 c 0.433 0.358 0.767 0.817 1 1.375 c 0.233 0.55 0.35 1.208 0.35 1.975 c 0 0.75 -0.116 1.405 -0.35 1.963 c -0.233 0.55 -0.567 1.012 -1 1.387 c -0.425 0.367 -0.94 0.643 -1.549 0.826 c -0.6 0.175 -1.267 0.262 -2 0.262 c -0.35 0 -0.746 -0.015 -1.188 -0.049 c -0.442 -0.025 -0.864 -0.084 -1.264 -0.176 l 0 -8.412 c 0.4 -0.092 0.825 -0.151 1.275 -0.176 c 0.45 -0.025 0.849 -0.037 1.199 -0.037 z m 0.102 1.363 c -0.467 0 -0.8 0.012 -1 0.037 l 0 6.05 c 0.092 0.008 0.211 0.017 0.361 0.025 l 0.613 0 c 1.058 0 1.845 -0.265 2.361 -0.799 c 0.525 -0.542 0.789 -1.297 0.789 -2.264 c 0 -0.983 -0.255 -1.737 -0.764 -2.262 c -0.508 -0.525 -1.295 -0.787 -2.361 -0.787 z m 9.105 0.688 c 0.9 0 1.602 0.278 2.102 0.836 c 0.508 0.558 0.762 1.392 0.762 2.5 c 0 0.083 -0.003 0.181 -0.012 0.289 c 0 0.1 -0.005 0.19 -0.014 0.273 l -4.313 0 c 0.042 0.525 0.226 0.935 0.551 1.227 c 0.333 0.283 0.813 0.424 1.438 0.424 c 0.367 0 0.7 -0.033 1 -0.1 c 0.308 -0.067 0.55 -0.138 0.725 -0.213 l 0.199 1.238 c -0.083 0.042 -0.2 0.087 -0.35 0.137 c -0.142 0.042 -0.308 0.08 -0.5 0.113 c -0.183 0.042 -0.383 0.075 -0.6 0.1 c -0.217 0.025 -0.437 0.037 -0.662 0.037 c -0.575 0 -1.075 -0.083 -1.5 -0.25 c -0.425 -0.175 -0.776 -0.413 -1.051 -0.713 c -0.275 -0.308 -0.478 -0.666 -0.611 -1.074 c -0.133 -0.417 -0.201 -0.872 -0.201 -1.363 c 0 -0.575 0.083 -1.078 0.25 -1.512 c 0.175 -0.433 0.404 -0.791 0.688 -1.074 c 0.283 -0.292 0.608 -0.509 0.975 -0.65 c 0.367 -0.15 0.742 -0.225 1.125 -0.225 z m 0.014 1.262 c -0.233 0 -0.438 0.045 -0.613 0.137 c -0.175 0.083 -0.324 0.196 -0.449 0.338 c -0.117 0.142 -0.209 0.305 -0.275 0.488 c -0.067 0.183 -0.112 0.371 -0.137 0.563 l 2.813 0 c 0 -0.208 -0.03 -0.405 -0.088 -0.588 c -0.058 -0.192 -0.147 -0.355 -0.264 -0.488 c -0.108 -0.142 -0.245 -0.249 -0.412 -0.324 c -0.158 -0.083 -0.349 -0.125 -0.574 -0.125 z"/>
</svg>
