<svg xmlns="http://www.w3.org/2000/svg" viewBox="0 0 22 22">
 <path style="fill:#ececec;fill-opacity:1" d="m 3 1 c -1.108 0 -2 0.892 -2 2 l 0 16 c 0 1.108 0.892 2 2 2 l 16 0 c 1.108 0 2 -0.892 2 -2 l 0 -16 c 0 -1.108 -0.892 -2 -2 -2 l -16 0 z m 3.916 5.387 c 0.542 0 1.021 0.063 1.438 0.188 c 0.425 0.117 0.758 0.247 1 0.389 l -0.488 1.275 c -0.283 -0.158 -0.596 -0.28 -0.938 -0.363 c -0.333 -0.083 -0.679 -0.125 -1.037 -0.125 c -0.425 0 -0.758 0.087 -1 0.262 c -0.233 0.175 -0.35 0.422 -0.35 0.738 c 0 0.192 0.036 0.358 0.111 0.5 c 0.083 0.133 0.196 0.255 0.338 0.363 c 0.15 0.108 0.32 0.207 0.512 0.299 c 0.2 0.092 0.417 0.18 0.65 0.264 c 0.408 0.15 0.771 0.303 1.088 0.461 c 0.325 0.15 0.596 0.334 0.813 0.551 c 0.225 0.208 0.395 0.458 0.512 0.75 c 0.117 0.283 0.176 0.629 0.176 1.037 c 0 0.783 -0.28 1.393 -0.838 1.826 c -0.55 0.425 -1.357 0.637 -2.424 0.637 c -0.358 0 -0.688 -0.024 -0.988 -0.074 c -0.292 -0.042 -0.554 -0.097 -0.787 -0.164 c -0.225 -0.067 -0.421 -0.133 -0.588 -0.199 c -0.167 -0.075 -0.3 -0.141 -0.4 -0.199 l 0.463 -1.289 c 0.225 0.125 0.529 0.25 0.912 0.375 c 0.383 0.125 0.847 0.188 1.389 0.188 c 0.567 0 0.978 -0.095 1.236 -0.287 c 0.258 -0.192 0.389 -0.462 0.389 -0.813 c 0 -0.208 -0.047 -0.387 -0.139 -0.537 c -0.083 -0.15 -0.208 -0.284 -0.375 -0.4 c -0.158 -0.125 -0.355 -0.238 -0.588 -0.338 c -0.233 -0.108 -0.499 -0.212 -0.799 -0.313 c -0.3 -0.108 -0.592 -0.225 -0.875 -0.35 c -0.275 -0.133 -0.522 -0.295 -0.738 -0.486 c -0.208 -0.192 -0.378 -0.421 -0.512 -0.687 c -0.125 -0.267 -0.188 -0.588 -0.188 -0.963 c 0 -0.783 0.271 -1.396 0.813 -1.838 c 0.542 -0.45 1.28 -0.676 2.213 -0.676 z m 6.676 2.188 c 0.1 0 0.216 0.009 0.35 0.025 c 0.133 0.008 0.267 0.026 0.4 0.051 c 0.133 0.017 0.262 0.041 0.387 0.074 c 0.125 0.025 0.226 0.051 0.301 0.076 l -0.264 1.273 c -0.125 -0.042 -0.3 -0.083 -0.525 -0.125 c -0.217 -0.05 -0.47 -0.074 -0.762 -0.074 c -0.167 0 -0.345 0.017 -0.537 0.051 c -0.183 0.033 -0.314 0.061 -0.389 0.086 l 0 5.238 l -1.512 0 l 0 -6.225 c 0.292 -0.108 0.655 -0.209 1.088 -0.301 c 0.442 -0.1 0.93 -0.15 1.463 -0.15 z m 2.311 4.844 l 2.211 0 l 0 0.639 l -1.568 0 c -0.004 0.071 -0.009 0.152 -0.018 0.244 c -0.004 0.087 -0.011 0.176 -0.02 0.268 c -0.004 0.092 -0.011 0.18 -0.02 0.264 c -0.008 0.083 -0.015 0.153 -0.023 0.211 c 0.617 0.033 1.07 0.176 1.361 0.426 c 0.296 0.246 0.443 0.583 0.443 1.012 c 0 0.196 -0.033 0.378 -0.1 0.545 c -0.067 0.167 -0.169 0.311 -0.307 0.432 c -0.137 0.121 -0.309 0.216 -0.518 0.287 c -0.208 0.067 -0.453 0.1 -0.732 0.1 c -0.113 0 -0.227 -0.009 -0.344 -0.025 c -0.117 -0.017 -0.228 -0.038 -0.336 -0.063 c -0.104 -0.021 -0.198 -0.043 -0.281 -0.068 c -0.083 -0.025 -0.146 -0.048 -0.188 -0.068 l 0.143 -0.639 c 0.088 0.042 0.213 0.089 0.375 0.139 c 0.167 0.046 0.37 0.068 0.607 0.068 c 0.163 0 0.301 -0.017 0.418 -0.051 c 0.117 -0.037 0.21 -0.086 0.281 -0.148 c 0.075 -0.063 0.129 -0.134 0.162 -0.213 c 0.033 -0.083 0.051 -0.172 0.051 -0.264 c 0 -0.137 -0.028 -0.259 -0.082 -0.367 c -0.054 -0.108 -0.15 -0.2 -0.287 -0.275 c -0.133 -0.075 -0.314 -0.132 -0.543 -0.17 c -0.225 -0.037 -0.512 -0.055 -0.857 -0.055 c 0.046 -0.4 0.082 -0.78 0.107 -1.139 c 0.025 -0.362 0.046 -0.725 0.063 -1.088 z"/>
</svg>
