<svg viewBox="0 0 22 22" xmlns="http://www.w3.org/2000/svg">
 <path style="fill:#ececec;fill-opacity:1" d="m 3 1 c -1.108 0 -2 0.892 -2 2 l 0 16 c 0 1.108 0.892 2 2 2 l 16 0 c 1.108 0 2 -0.892 2 -2 l 0 -16 c 0 -1.108 -0.892 -2 -2 -2 l -16 0 z m 0.914 5.588 l 1.574 0 l 0 7.299 l 3.9 0 l 0 1.363 l -5.475 0 l 0 -8.662 z m 5.252 2.125 l 1.613 0 c 0.092 0.367 0.196 0.763 0.313 1.188 c 0.125 0.417 0.253 0.837 0.387 1.262 c 0.142 0.417 0.284 0.825 0.426 1.225 c 0.15 0.392 0.287 0.746 0.412 1.063 c 0.125 -0.317 0.259 -0.671 0.4 -1.063 c 0.142 -0.4 0.279 -0.808 0.412 -1.225 c 0.142 -0.425 0.275 -0.845 0.4 -1.262 c 0.125 -0.425 0.233 -0.821 0.324 -1.188 l 1.563 0 c -0.358 1.275 -0.758 2.471 -1.199 3.588 c -0.433 1.108 -0.859 2.091 -1.275 2.949 l -1.299 0 c -0.417 -0.858 -0.847 -1.841 -1.289 -2.949 c -0.433 -1.117 -0.829 -2.313 -1.188 -3.588 z m 7.975 4.605 c 0.242 0 0.45 0.03 0.625 0.088 c 0.175 0.058 0.319 0.142 0.432 0.25 c 0.117 0.104 0.202 0.229 0.256 0.375 c 0.058 0.142 0.088 0.298 0.088 0.469 c 0 0.2 -0.057 0.379 -0.17 0.537 c -0.108 0.158 -0.249 0.28 -0.424 0.363 c 0.225 0.079 0.409 0.209 0.555 0.393 c 0.15 0.183 0.227 0.42 0.227 0.707 c 0 0.192 -0.035 0.37 -0.102 0.537 c -0.067 0.162 -0.167 0.305 -0.305 0.426 c -0.137 0.117 -0.313 0.21 -0.525 0.281 c -0.208 0.067 -0.458 0.1 -0.75 0.1 c -0.113 0 -0.229 -0.009 -0.35 -0.025 c -0.117 -0.012 -0.23 -0.032 -0.338 -0.057 c -0.104 -0.021 -0.2 -0.043 -0.287 -0.068 c -0.087 -0.029 -0.155 -0.055 -0.201 -0.08 l 0.15 -0.645 c 0.087 0.042 0.214 0.09 0.381 0.145 c 0.167 0.05 0.373 0.074 0.619 0.074 c 0.329 0 0.567 -0.063 0.713 -0.188 c 0.146 -0.129 0.219 -0.299 0.219 -0.512 c 0 -0.137 -0.03 -0.252 -0.088 -0.344 c -0.054 -0.092 -0.13 -0.165 -0.23 -0.219 c -0.096 -0.058 -0.209 -0.098 -0.338 -0.119 c -0.125 -0.025 -0.259 -0.037 -0.4 -0.037 l -0.256 0 l 0 -0.613 l 0.313 0 c 0.096 0 0.191 -0.009 0.287 -0.025 c 0.1 -0.021 0.19 -0.054 0.27 -0.1 c 0.079 -0.05 0.143 -0.114 0.193 -0.193 c 0.05 -0.079 0.074 -0.182 0.074 -0.307 c 0 -0.1 -0.019 -0.185 -0.057 -0.256 c -0.038 -0.071 -0.086 -0.13 -0.148 -0.176 c -0.058 -0.046 -0.128 -0.079 -0.207 -0.1 c -0.079 -0.021 -0.163 -0.031 -0.25 -0.031 c -0.188 0 -0.354 0.03 -0.5 0.088 c -0.146 0.054 -0.274 0.117 -0.387 0.188 l -0.275 -0.563 c 0.058 -0.038 0.13 -0.077 0.213 -0.119 c 0.083 -0.042 0.173 -0.082 0.273 -0.119 c 0.104 -0.037 0.215 -0.067 0.332 -0.088 c 0.117 -0.025 0.24 -0.037 0.369 -0.037 z"/>
</svg>
