<svg viewBox="0 0 22 22" xmlns="http://www.w3.org/2000/svg">
 <path d="m 3 1 c -1.108 0 -2 0.892 -2 2 l 0 16 c 0 1.108 0.892 2 2 2 l 16 0 c 1.108 0 2 -0.892 2 -2 l 0 -16 c 0 -1.108 -0.892 -2 -2 -2 l -16 0 z m 2.363 5.588 l 1.488 0 c 0.292 0.617 0.575 1.242 0.85 1.875 c 0.275 0.633 0.549 1.3 0.824 2 c 0.283 0.7 0.572 1.441 0.863 2.225 c 0.3 0.783 0.613 1.637 0.938 2.563 l -1.699 0 c -0.117 -0.342 -0.238 -0.678 -0.363 -1.012 c -0.125 -0.333 -0.247 -0.675 -0.363 -1.025 l -3.648 0 c -0.117 0.35 -0.238 0.695 -0.363 1.037 l -0.35 1 l -1.639 0 c 0.325 -0.925 0.634 -1.779 0.926 -2.563 c 0.292 -0.783 0.575 -1.525 0.85 -2.225 c 0.283 -0.7 0.563 -1.367 0.838 -2 c 0.275 -0.633 0.558 -1.258 0.85 -1.875 z m 0.713 1.674 c -0.192 0.442 -0.412 0.98 -0.662 1.613 c -0.242 0.633 -0.497 1.321 -0.764 2.063 l 2.852 0 c -0.267 -0.742 -0.525 -1.433 -0.775 -2.074 c -0.25 -0.642 -0.467 -1.177 -0.65 -1.602 z m 5.05 0.451 l 4.963 0 l 0 1.063 c -0.167 0.175 -0.387 0.42 -0.662 0.736 c -0.267 0.317 -0.555 0.671 -0.863 1.063 c -0.308 0.383 -0.621 0.788 -0.938 1.213 c -0.308 0.417 -0.588 0.818 -0.838 1.201 l 3.375 0 l 0 1.262 l -5.199 0 l 0 -0.938 c 0.183 -0.333 0.412 -0.696 0.688 -1.088 c 0.275 -0.392 0.558 -0.782 0.85 -1.174 c 0.292 -0.4 0.58 -0.78 0.863 -1.139 c 0.292 -0.358 0.55 -0.671 0.775 -0.937 l -3.01 0 l 0 -1.262 z m 7.418 4.705 l 0.531 0 l 0 4.332 l -0.756 0 l 0 -3.318 c -0.113 0.087 -0.255 0.173 -0.426 0.256 c -0.171 0.083 -0.336 0.153 -0.494 0.207 l -0.23 -0.576 c 0.242 -0.096 0.483 -0.219 0.725 -0.369 c 0.246 -0.15 0.463 -0.327 0.65 -0.531 z" style="fill:#ececec;fill-opacity:1"/>
</svg>
