<svg viewBox="0 0 22 22" xmlns="http://www.w3.org/2000/svg">
 <path d="m 3 1 c -1.108 0 -2 0.892 -2 2 l 0 16 c 0 1.108 0.892 2 2 2 l 16 0 c 1.108 0 2 -0.892 2 -2 l 0 -16 c 0 -1.108 -0.892 -2 -2 -2 l -16 0 z m 3.205 5.5 c 1.258 0 2.22 0.229 2.887 0.688 c 0.675 0.458 1.014 1.175 1.014 2.15 c 0 0.508 -0.092 0.946 -0.275 1.313 c -0.175 0.358 -0.434 0.653 -0.775 0.887 c -0.342 0.225 -0.758 0.392 -1.25 0.5 c -0.492 0.108 -1.054 0.162 -1.688 0.162 l -0.787 0 l 0 3.051 l -1.574 0 l 0 -8.537 c 0.367 -0.083 0.769 -0.137 1.211 -0.162 c 0.45 -0.033 0.863 -0.051 1.238 -0.051 z m 6.701 0.238 l 0 1.975 l 2.324 0 l 0 1.262 l -2.324 0 l 0 2.662 c 0 0.525 0.083 0.9 0.25 1.125 c 0.167 0.225 0.45 0.338 0.85 0.338 c 0.275 0 0.516 -0.03 0.725 -0.088 c 0.217 -0.058 0.387 -0.112 0.512 -0.162 l 0.25 1.201 c -0.175 0.075 -0.404 0.15 -0.688 0.225 c -0.283 0.083 -0.617 0.125 -1 0.125 c -0.467 0 -0.857 -0.063 -1.174 -0.188 c -0.308 -0.125 -0.555 -0.304 -0.738 -0.537 c -0.183 -0.242 -0.312 -0.53 -0.387 -0.863 c -0.075 -0.342 -0.113 -0.729 -0.113 -1.162 l 0 -5.662 l 1.514 -0.25 z m -6.588 1.125 c -0.4 0 -0.73 0.012 -0.988 0.037 l 0 2.949 l 0.762 0 c 0.758 0 1.342 -0.104 1.75 -0.313 c 0.408 -0.217 0.613 -0.621 0.613 -1.213 c 0 -0.283 -0.054 -0.519 -0.162 -0.711 c -0.108 -0.192 -0.26 -0.343 -0.451 -0.451 c -0.192 -0.108 -0.421 -0.183 -0.688 -0.225 c -0.258 -0.05 -0.536 -0.074 -0.836 -0.074 z m 10.205 5.555 l 2.213 0 l 0 0.639 l -1.568 0 c -0.004 0.071 -0.011 0.152 -0.02 0.244 c -0.004 0.087 -0.009 0.176 -0.018 0.268 c -0.004 0.092 -0.011 0.18 -0.02 0.264 c -0.008 0.083 -0.017 0.153 -0.025 0.211 c 0.617 0.033 1.072 0.176 1.363 0.426 c 0.296 0.246 0.443 0.583 0.443 1.012 c 0 0.196 -0.033 0.378 -0.1 0.545 c -0.067 0.167 -0.169 0.311 -0.307 0.432 c -0.137 0.121 -0.311 0.216 -0.52 0.287 c -0.208 0.067 -0.451 0.1 -0.73 0.1 c -0.113 0 -0.227 -0.009 -0.344 -0.025 c -0.117 -0.017 -0.23 -0.038 -0.338 -0.063 c -0.104 -0.021 -0.198 -0.043 -0.281 -0.068 c -0.083 -0.025 -0.146 -0.048 -0.188 -0.068 l 0.145 -0.639 c 0.088 0.042 0.213 0.089 0.375 0.139 c 0.167 0.046 0.368 0.068 0.605 0.068 c 0.163 0 0.303 -0.017 0.42 -0.051 c 0.117 -0.037 0.21 -0.086 0.281 -0.148 c 0.075 -0.063 0.129 -0.134 0.162 -0.213 c 0.033 -0.083 0.049 -0.172 0.049 -0.264 c 0 -0.137 -0.026 -0.259 -0.08 -0.367 c -0.054 -0.108 -0.15 -0.2 -0.287 -0.275 c -0.133 -0.075 -0.316 -0.132 -0.545 -0.17 c -0.225 -0.037 -0.51 -0.055 -0.855 -0.055 c 0.046 -0.4 0.08 -0.78 0.105 -1.139 c 0.025 -0.362 0.046 -0.725 0.063 -1.088 z" style="fill:#ececec;fill-opacity:1"/>
</svg>
