<svg viewBox="0 0 22 22" xmlns="http://www.w3.org/2000/svg">
 <path d="m 3 1 c -1.108 0 -2 0.892 -2 2 l 0 16 c 0 1.108 0.892 2 2 2 l 16 0 c 1.108 0 2 -0.892 2 -2 l 0 -16 c 0 -1.108 -0.892 -2 -2 -2 l -16 0 z m 8.625 4.551 l 0 5.711 c 0.192 -0.2 0.397 -0.412 0.613 -0.637 c 0.217 -0.233 0.428 -0.463 0.637 -0.688 c 0.208 -0.233 0.405 -0.454 0.588 -0.662 c 0.192 -0.217 0.355 -0.404 0.488 -0.563 l 1.787 0 c -0.417 0.467 -0.858 0.949 -1.324 1.449 c -0.458 0.5 -0.922 0.988 -1.389 1.463 c 0.25 0.208 0.512 0.462 0.787 0.762 c 0.275 0.292 0.542 0.604 0.801 0.938 c 0.258 0.333 0.5 0.667 0.725 1 c 0.225 0.333 0.412 0.642 0.563 0.926 l -1.75 0 c -0.15 -0.258 -0.325 -0.529 -0.525 -0.813 c -0.192 -0.283 -0.4 -0.558 -0.625 -0.824 c -0.225 -0.267 -0.454 -0.517 -0.688 -0.75 c -0.233 -0.242 -0.463 -0.447 -0.688 -0.613 l 0 3 l -1.512 0 l 0 -9.449 l 1.512 -0.25 z m -5.637 0.836 c 0.542 0 1.021 0.063 1.438 0.188 c 0.425 0.117 0.758 0.247 1 0.389 l -0.488 1.275 c -0.283 -0.158 -0.596 -0.28 -0.938 -0.363 c -0.333 -0.083 -0.679 -0.125 -1.037 -0.125 c -0.425 0 -0.758 0.087 -1 0.262 c -0.233 0.175 -0.35 0.422 -0.35 0.738 c 0 0.192 0.036 0.358 0.111 0.5 c 0.083 0.133 0.196 0.255 0.338 0.363 c 0.15 0.108 0.32 0.207 0.512 0.299 c 0.2 0.092 0.417 0.18 0.65 0.264 c 0.408 0.15 0.771 0.303 1.088 0.461 c 0.325 0.15 0.596 0.334 0.813 0.551 c 0.225 0.208 0.395 0.458 0.512 0.75 c 0.117 0.283 0.176 0.629 0.176 1.037 c 0 0.783 -0.28 1.393 -0.838 1.826 c -0.55 0.425 -1.357 0.637 -2.424 0.637 c -0.358 0 -0.688 -0.024 -0.988 -0.074 c -0.292 -0.042 -0.554 -0.097 -0.787 -0.164 c -0.225 -0.067 -0.421 -0.133 -0.588 -0.199 c -0.167 -0.075 -0.3 -0.141 -0.4 -0.199 l 0.463 -1.289 c 0.225 0.125 0.529 0.25 0.912 0.375 c 0.383 0.125 0.847 0.188 1.389 0.188 c 0.567 0 0.978 -0.095 1.236 -0.287 c 0.258 -0.192 0.389 -0.462 0.389 -0.813 c 0 -0.208 -0.047 -0.387 -0.139 -0.537 c -0.083 -0.15 -0.208 -0.284 -0.375 -0.4 c -0.158 -0.125 -0.355 -0.238 -0.588 -0.338 c -0.233 -0.108 -0.499 -0.212 -0.799 -0.313 c -0.3 -0.108 -0.592 -0.225 -0.875 -0.35 c -0.275 -0.133 -0.522 -0.295 -0.738 -0.486 c -0.208 -0.192 -0.378 -0.421 -0.512 -0.687 c -0.125 -0.267 -0.188 -0.588 -0.188 -0.963 c 0 -0.783 0.271 -1.396 0.813 -1.838 c 0.542 -0.45 1.28 -0.676 2.213 -0.676 z m 11.615 6.932 c 0.242 0 0.45 0.03 0.625 0.088 c 0.175 0.058 0.319 0.142 0.432 0.25 c 0.117 0.104 0.202 0.229 0.256 0.375 c 0.058 0.142 0.088 0.298 0.088 0.469 c 0 0.2 -0.055 0.379 -0.168 0.537 c -0.108 0.158 -0.251 0.28 -0.426 0.363 c 0.225 0.079 0.411 0.209 0.557 0.393 c 0.15 0.183 0.225 0.42 0.225 0.707 c 0 0.192 -0.033 0.37 -0.1 0.537 c -0.067 0.162 -0.169 0.305 -0.307 0.426 c -0.137 0.117 -0.313 0.21 -0.525 0.281 c -0.208 0.067 -0.458 0.1 -0.75 0.1 c -0.113 0 -0.229 -0.009 -0.35 -0.025 c -0.117 -0.012 -0.23 -0.032 -0.338 -0.057 c -0.104 -0.021 -0.2 -0.043 -0.287 -0.068 c -0.088 -0.029 -0.153 -0.055 -0.199 -0.08 l 0.15 -0.645 c 0.087 0.042 0.214 0.09 0.381 0.145 c 0.167 0.05 0.373 0.074 0.619 0.074 c 0.329 0 0.565 -0.063 0.711 -0.188 c 0.146 -0.129 0.219 -0.299 0.219 -0.512 c 0 -0.137 -0.028 -0.252 -0.086 -0.344 c -0.054 -0.092 -0.132 -0.165 -0.232 -0.219 c -0.096 -0.058 -0.209 -0.098 -0.338 -0.119 c -0.125 -0.025 -0.257 -0.037 -0.398 -0.037 l -0.258 0 l 0 -0.613 l 0.313 0 c 0.096 0 0.193 -0.009 0.289 -0.025 c 0.1 -0.021 0.188 -0.054 0.268 -0.1 c 0.079 -0.05 0.143 -0.114 0.193 -0.193 c 0.05 -0.079 0.076 -0.182 0.076 -0.307 c 0 -0.1 -0.019 -0.185 -0.057 -0.256 c -0.038 -0.071 -0.088 -0.13 -0.15 -0.176 c -0.058 -0.046 -0.126 -0.079 -0.205 -0.1 c -0.079 -0.021 -0.163 -0.031 -0.25 -0.031 c -0.188 0 -0.354 0.03 -0.5 0.088 c -0.146 0.054 -0.276 0.117 -0.389 0.188 l -0.275 -0.563 c 0.058 -0.038 0.13 -0.077 0.213 -0.119 c 0.083 -0.042 0.175 -0.082 0.275 -0.119 c 0.104 -0.037 0.215 -0.067 0.332 -0.088 c 0.117 -0.025 0.238 -0.037 0.367 -0.037 z" style="fill:#ececec;fill-opacity:1"/>
</svg>
