<svg xmlns="http://www.w3.org/2000/svg" viewBox="0 0 22 22">
 <path style="fill:#ececec;fill-opacity:1" d="m 3 1 c -1.108 0 -2 0.892 -2 2 l 0 16 c 0 1.108 0.892 2 2 2 l 16 0 c 1.108 0 2 -0.892 2 -2 l 0 -16 c 0 -1.108 -0.892 -2 -2 -2 l -16 0 z m 3.748 5.75 c 0.525 0 1.013 0.042 1.463 0.125 c 0.45 0.075 0.837 0.203 1.162 0.387 c 0.333 0.183 0.592 0.427 0.775 0.727 c 0.183 0.3 0.275 0.67 0.275 1.111 c 0 0.408 -0.101 0.759 -0.301 1.051 c -0.192 0.292 -0.463 0.524 -0.813 0.699 c 0.525 0.175 0.914 0.434 1.164 0.775 c 0.25 0.342 0.375 0.776 0.375 1.301 c 0 0.892 -0.327 1.562 -0.977 2.01 c -0.65 0.442 -1.645 0.662 -2.986 0.662 c -0.458 0 -0.922 -0.015 -1.389 -0.049 c -0.467 -0.025 -0.875 -0.084 -1.225 -0.176 l 0 -8.412 c 0.183 -0.033 0.38 -0.063 0.588 -0.088 c 0.208 -0.033 0.42 -0.058 0.637 -0.074 c 0.217 -0.017 0.43 -0.031 0.639 -0.039 c 0.217 -0.008 0.42 -0.012 0.611 -0.012 z m 0.201 1.287 c -0.242 0 -0.459 0.005 -0.65 0.014 c -0.183 0.008 -0.341 0.02 -0.475 0.037 l 0 2.275 l 1.111 0 c 0.6 0 1.072 -0.083 1.414 -0.25 c 0.342 -0.175 0.512 -0.484 0.512 -0.926 c 0 -0.417 -0.179 -0.712 -0.537 -0.887 c -0.35 -0.175 -0.808 -0.264 -1.375 -0.264 z m 8.141 0.787 c 0.533 0 0.98 0.077 1.338 0.227 c 0.358 0.142 0.641 0.345 0.85 0.611 c 0.217 0.258 0.366 0.576 0.449 0.951 c 0.092 0.367 0.139 0.769 0.139 1.211 l 0 3.676 l -1.514 0 l 0 -3.438 c 0 -0.35 -0.024 -0.645 -0.074 -0.887 c -0.042 -0.25 -0.116 -0.452 -0.225 -0.602 c -0.1 -0.158 -0.242 -0.269 -0.426 -0.336 c -0.175 -0.075 -0.392 -0.113 -0.65 -0.113 c -0.192 0 -0.391 0.012 -0.6 0.037 c -0.208 0.025 -0.363 0.046 -0.463 0.063 l 0 5.275 l -1.512 0 l 0 -6.324 c 0.292 -0.083 0.67 -0.163 1.137 -0.238 c 0.467 -0.075 0.984 -0.113 1.551 -0.113 z m -9.266 2.775 l 0 2.639 c 0.175 0.017 0.362 0.029 0.563 0.037 c 0.2 0.008 0.382 0.012 0.549 0.012 c 0.325 0 0.625 -0.021 0.9 -0.063 c 0.283 -0.042 0.525 -0.113 0.725 -0.213 c 0.208 -0.108 0.372 -0.249 0.488 -0.424 c 0.125 -0.175 0.188 -0.401 0.188 -0.676 c 0 -0.492 -0.179 -0.834 -0.537 -1.025 c -0.358 -0.192 -0.855 -0.287 -1.488 -0.287 l -1.387 0 z"/>
</svg>
