<svg viewBox="0 0 22 22" xmlns="http://www.w3.org/2000/svg">
 <path style="fill:#ececec;fill-opacity:1" d="m 3 1 c -1.108 0 -2 0.892 -2 2 l 0 16 c 0 1.108 0.892 2 2 2 l 16 0 c 1.108 0 2 -0.892 2 -2 l 0 -16 c 0 -1.108 -0.892 -2 -2 -2 l -16 0 z m 1.846 5.838 l 1.486 0 c 0.292 0.617 0.575 1.242 0.85 1.875 c 0.275 0.633 0.551 1.3 0.826 2 c 0.283 0.7 0.57 1.441 0.861 2.225 c 0.3 0.783 0.613 1.637 0.938 2.563 l -1.699 0 c -0.117 -0.342 -0.238 -0.678 -0.363 -1.012 c -0.125 -0.333 -0.245 -0.675 -0.361 -1.025 l -3.65 0 c -0.117 0.35 -0.238 0.695 -0.363 1.037 l -0.35 1 l -1.637 0 c 0.325 -0.925 0.632 -1.779 0.924 -2.563 c 0.292 -0.783 0.577 -1.525 0.852 -2.225 c 0.283 -0.7 0.561 -1.367 0.836 -2 c 0.275 -0.633 0.56 -1.258 0.852 -1.875 z m 0.711 1.674 c -0.192 0.442 -0.412 0.98 -0.662 1.613 c -0.242 0.633 -0.495 1.321 -0.762 2.063 l 2.85 0 c -0.267 -0.742 -0.525 -1.433 -0.775 -2.074 c -0.25 -0.642 -0.467 -1.177 -0.65 -1.602 z m 7.908 0.313 c 0.45 0 0.816 0.059 1.1 0.176 c 0.292 0.117 0.533 0.271 0.725 0.463 c 0.092 -0.067 0.21 -0.138 0.352 -0.213 c 0.142 -0.075 0.3 -0.141 0.475 -0.199 c 0.175 -0.067 0.357 -0.122 0.549 -0.164 c 0.2 -0.042 0.402 -0.063 0.602 -0.063 c 0.508 0 0.925 0.077 1.25 0.227 c 0.333 0.142 0.59 0.345 0.773 0.611 c 0.192 0.258 0.322 0.576 0.389 0.951 c 0.075 0.367 0.111 0.769 0.111 1.211 l 0 3.676 l -1.512 0 l 0 -3.438 c 0 -0.683 -0.083 -1.175 -0.25 -1.475 c -0.167 -0.308 -0.488 -0.463 -0.963 -0.463 c -0.242 0 -0.471 0.042 -0.688 0.125 c -0.217 0.075 -0.378 0.15 -0.486 0.225 c 0.067 0.208 0.112 0.429 0.137 0.662 c 0.025 0.233 0.037 0.483 0.037 0.75 l 0 3.613 l -1.512 0 l 0 -3.438 c 0 -0.683 -0.089 -1.175 -0.264 -1.475 c -0.167 -0.308 -0.483 -0.463 -0.949 -0.463 c -0.167 0 -0.351 0.012 -0.551 0.037 c -0.2 0.025 -0.349 0.046 -0.449 0.063 l 0 5.275 l -1.512 0 l 0 -6.324 c 0.292 -0.083 0.67 -0.163 1.137 -0.238 c 0.475 -0.075 0.975 -0.113 1.5 -0.113 z"/>
</svg>
