<svg viewBox="0 0 22 22" xmlns="http://www.w3.org/2000/svg">
 <path d="m 3 1 c -1.108 0 -2 0.892 -2 2 l 0 16 c 0 1.108 0.892 2 2 2 l 16 0 c 1.108 0 2 -0.892 2 -2 l 0 -16 c 0 -1.108 -0.892 -2 -2 -2 l -16 0 z m 3.916 5.387 c 0.542 0 1.021 0.063 1.438 0.188 c 0.425 0.117 0.758 0.247 1 0.389 l -0.488 1.275 c -0.283 -0.158 -0.596 -0.28 -0.938 -0.363 c -0.333 -0.083 -0.679 -0.125 -1.037 -0.125 c -0.425 0 -0.758 0.087 -1 0.262 c -0.233 0.175 -0.35 0.422 -0.35 0.738 c 0 0.192 0.036 0.358 0.111 0.5 c 0.083 0.133 0.196 0.255 0.338 0.363 c 0.15 0.108 0.32 0.207 0.512 0.299 c 0.2 0.092 0.417 0.18 0.65 0.264 c 0.408 0.15 0.771 0.303 1.088 0.461 c 0.325 0.15 0.596 0.334 0.813 0.551 c 0.225 0.208 0.395 0.458 0.512 0.75 c 0.117 0.283 0.176 0.629 0.176 1.037 c 0 0.783 -0.28 1.393 -0.838 1.826 c -0.55 0.425 -1.357 0.637 -2.424 0.637 c -0.358 0 -0.688 -0.024 -0.988 -0.074 c -0.292 -0.042 -0.554 -0.097 -0.787 -0.164 c -0.225 -0.067 -0.421 -0.133 -0.588 -0.199 c -0.167 -0.075 -0.3 -0.141 -0.4 -0.199 l 0.463 -1.289 c 0.225 0.125 0.529 0.25 0.912 0.375 c 0.383 0.125 0.847 0.188 1.389 0.188 c 0.567 0 0.978 -0.095 1.236 -0.287 c 0.258 -0.192 0.389 -0.462 0.389 -0.813 c 0 -0.208 -0.047 -0.387 -0.139 -0.537 c -0.083 -0.15 -0.208 -0.284 -0.375 -0.4 c -0.158 -0.125 -0.355 -0.238 -0.588 -0.338 c -0.233 -0.108 -0.499 -0.212 -0.799 -0.313 c -0.3 -0.108 -0.592 -0.225 -0.875 -0.35 c -0.275 -0.133 -0.522 -0.295 -0.738 -0.486 c -0.208 -0.192 -0.378 -0.421 -0.512 -0.687 c -0.125 -0.267 -0.188 -0.588 -0.188 -0.963 c 0 -0.783 0.271 -1.396 0.813 -1.838 c 0.542 -0.45 1.28 -0.676 2.213 -0.676 z m 6.676 2.188 c 0.1 0 0.216 0.009 0.35 0.025 c 0.133 0.008 0.267 0.026 0.4 0.051 c 0.133 0.017 0.262 0.041 0.387 0.074 c 0.125 0.025 0.226 0.051 0.301 0.076 l -0.264 1.273 c -0.125 -0.042 -0.3 -0.083 -0.525 -0.125 c -0.217 -0.05 -0.47 -0.074 -0.762 -0.074 c -0.167 0 -0.345 0.017 -0.537 0.051 c -0.183 0.033 -0.314 0.061 -0.389 0.086 l 0 5.238 l -1.512 0 l 0 -6.225 c 0.292 -0.108 0.655 -0.209 1.088 -0.301 c 0.442 -0.1 0.93 -0.15 1.463 -0.15 z m 1.848 4.844 l 2.893 0 l 0 0.576 c -0.137 0.154 -0.287 0.364 -0.449 0.631 c -0.162 0.267 -0.317 0.569 -0.463 0.906 c -0.146 0.333 -0.273 0.691 -0.381 1.074 c -0.104 0.383 -0.168 0.765 -0.193 1.145 l -0.775 0 c 0.025 -0.317 0.08 -0.65 0.168 -1 c 0.087 -0.35 0.195 -0.69 0.32 -1.02 c 0.129 -0.333 0.268 -0.642 0.418 -0.93 c 0.154 -0.292 0.307 -0.537 0.457 -0.732 l -1.994 0 l 0 -0.65 z" style="fill:#ececec;fill-opacity:1"/>
</svg>
