<svg viewBox="0 0 22 22" xmlns="http://www.w3.org/2000/svg">
 <path d="m 3 1 c -1.108 0 -2 0.892 -2 2 l 0 16 c 0 1.108 0.892 2 2 2 l 16 0 c 1.108 0 2 -0.892 2 -2 l 0 -16 c 0 -1.108 -0.892 -2 -2 -2 l -16 0 z m 9.67 4.863 c 0.25 0 0.467 0.083 0.65 0.25 c 0.183 0.167 0.275 0.396 0.275 0.688 c 0 0.283 -0.092 0.507 -0.275 0.674 c -0.183 0.167 -0.4 0.25 -0.65 0.25 c -0.258 0 -0.479 -0.083 -0.662 -0.25 c -0.183 -0.167 -0.275 -0.39 -0.275 -0.674 c 0 -0.292 0.092 -0.521 0.275 -0.688 c 0.183 -0.167 0.404 -0.25 0.662 -0.25 z m -7.572 0.725 l 5.475 0 l 0 1.338 l -3.9 0 l 0 2.211 l 3.463 0 l 0 1.338 l -3.463 0 l 0 3.775 l -1.574 0 l 0 -8.662 z m 6.822 2.125 l 1.512 0 l 0 6.537 l -1.512 0 l 0 -6.537 z m 3.262 4.705 l 2.213 0 l 0 0.639 l -1.57 0 c -0.004 0.071 -0.009 0.152 -0.018 0.244 c -0.004 0.087 -0.011 0.176 -0.02 0.268 c -0.004 0.092 -0.009 0.18 -0.018 0.264 c -0.008 0.083 -0.017 0.153 -0.025 0.211 c 0.617 0.033 1.07 0.176 1.361 0.426 c 0.296 0.246 0.445 0.583 0.445 1.012 c 0 0.196 -0.035 0.378 -0.102 0.545 c -0.067 0.167 -0.167 0.311 -0.305 0.432 c -0.137 0.121 -0.311 0.216 -0.52 0.287 c -0.208 0.067 -0.451 0.1 -0.73 0.1 c -0.113 0 -0.227 -0.009 -0.344 -0.025 c -0.117 -0.017 -0.23 -0.038 -0.338 -0.063 c -0.104 -0.021 -0.198 -0.043 -0.281 -0.068 c -0.083 -0.025 -0.146 -0.048 -0.188 -0.068 l 0.143 -0.639 c 0.088 0.042 0.213 0.089 0.375 0.139 c 0.167 0.046 0.37 0.068 0.607 0.068 c 0.162 0 0.301 -0.017 0.418 -0.051 c 0.117 -0.037 0.21 -0.086 0.281 -0.148 c 0.075 -0.063 0.129 -0.134 0.162 -0.213 c 0.033 -0.083 0.051 -0.172 0.051 -0.264 c 0 -0.137 -0.028 -0.259 -0.082 -0.367 c -0.054 -0.108 -0.15 -0.2 -0.287 -0.275 c -0.133 -0.075 -0.314 -0.132 -0.543 -0.17 c -0.225 -0.037 -0.512 -0.055 -0.857 -0.055 c 0.046 -0.4 0.082 -0.78 0.107 -1.139 c 0.025 -0.362 0.046 -0.725 0.063 -1.088 z" style="fill:#ececec;fill-opacity:1"/>
</svg>
