<svg xmlns="http://www.w3.org/2000/svg" viewBox="0 0 22 22">
 <path d="m 3 1 c -1.108 0 -2 0.892 -2 2 l 0 16 c 0 1.108 0.892 2 2 2 l 16 0 c 1.108 0 2 -0.892 2 -2 l 0 -16 c 0 -1.108 -0.892 -2 -2 -2 l -16 0 z m -0.479 5.588 l 1.576 0 l 0 3.463 l 3.762 0 l 0 -3.463 l 1.576 0 l 0 8.662 l -1.576 0 l 0 -3.838 l -3.762 0 l 0 3.838 l -1.576 0 l 0 -8.662 z m 8.06 2.125 l 1.611 0 c 0.083 0.35 0.184 0.728 0.301 1.137 c 0.125 0.408 0.259 0.825 0.4 1.25 c 0.142 0.417 0.291 0.833 0.449 1.25 c 0.158 0.417 0.316 0.804 0.475 1.162 c 0.267 -0.742 0.517 -1.528 0.75 -2.361 c 0.233 -0.842 0.447 -1.654 0.639 -2.438 l 1.563 0 c -0.675 2.483 -1.458 4.733 -2.35 6.75 c -0.167 0.375 -0.339 0.696 -0.514 0.963 c -0.175 0.267 -0.371 0.487 -0.588 0.662 c -0.217 0.175 -0.458 0.3 -0.725 0.375 c -0.267 0.083 -0.574 0.125 -0.924 0.125 c -0.233 0 -0.468 -0.026 -0.701 -0.076 c -0.225 -0.05 -0.395 -0.104 -0.512 -0.162 l 0.275 -1.213 c 0.3 0.117 0.595 0.176 0.887 0.176 c 0.392 0 0.695 -0.095 0.912 -0.287 c 0.225 -0.183 0.421 -0.472 0.588 -0.863 c -0.475 -0.917 -0.933 -1.917 -1.375 -3 c -0.433 -1.083 -0.82 -2.233 -1.162 -3.449 z m 7.176 4.705 l 2.211 0 l 0 0.639 l -1.568 0 c -0.004 0.071 -0.009 0.152 -0.018 0.244 c -0.004 0.087 -0.011 0.176 -0.02 0.268 c -0.004 0.092 -0.011 0.18 -0.02 0.264 c -0.008 0.083 -0.015 0.153 -0.023 0.211 c 0.617 0.033 1.07 0.176 1.361 0.426 c 0.296 0.246 0.443 0.583 0.443 1.012 c 0 0.196 -0.033 0.378 -0.1 0.545 c -0.067 0.167 -0.169 0.311 -0.307 0.432 c -0.137 0.121 -0.309 0.216 -0.518 0.287 c -0.208 0.067 -0.453 0.1 -0.732 0.1 c -0.113 0 -0.227 -0.009 -0.344 -0.025 c -0.117 -0.017 -0.228 -0.038 -0.336 -0.063 c -0.104 -0.021 -0.198 -0.043 -0.281 -0.068 c -0.083 -0.025 -0.146 -0.048 -0.188 -0.068 l 0.143 -0.639 c 0.088 0.042 0.213 0.089 0.375 0.139 c 0.167 0.046 0.37 0.068 0.607 0.068 c 0.163 0 0.301 -0.017 0.418 -0.051 c 0.117 -0.037 0.21 -0.086 0.281 -0.148 c 0.075 -0.063 0.129 -0.134 0.162 -0.213 c 0.033 -0.083 0.051 -0.172 0.051 -0.264 c 0 -0.137 -0.028 -0.259 -0.082 -0.367 c -0.054 -0.108 -0.15 -0.2 -0.287 -0.275 c -0.133 -0.075 -0.314 -0.132 -0.543 -0.17 c -0.225 -0.037 -0.512 -0.055 -0.857 -0.055 c 0.046 -0.4 0.082 -0.78 0.107 -1.139 c 0.025 -0.362 0.046 -0.725 0.063 -1.088 z" style="fill:#ececec;fill-opacity:1"/>
</svg>
