<svg viewBox="0 0 22 22" xmlns="http://www.w3.org/2000/svg">
 <path style="fill:#ececec;fill-opacity:1" d="m 3 1 c -1.108 0 -2 0.892 -2 2 l 0 16 c 0 1.108 0.892 2 2 2 l 16 0 c 1.108 0 2 -0.892 2 -2 l 0 -16 c 0 -1.108 -0.892 -2 -2 -2 l -16 0 z m 1.383 5.838 l 1.576 0 l 0 3.574 c 0.275 -0.275 0.561 -0.567 0.861 -0.875 c 0.3 -0.317 0.597 -0.633 0.889 -0.949 c 0.3 -0.325 0.583 -0.637 0.85 -0.938 c 0.267 -0.3 0.508 -0.571 0.725 -0.813 l 1.889 0 c -0.275 0.317 -0.567 0.645 -0.875 0.986 c -0.308 0.342 -0.626 0.689 -0.951 1.039 c -0.325 0.342 -0.653 0.682 -0.986 1.023 c -0.325 0.342 -0.646 0.668 -0.963 0.977 c 0.35 0.267 0.704 0.579 1.063 0.938 c 0.367 0.35 0.724 0.728 1.074 1.137 c 0.35 0.4 0.683 0.82 1 1.262 c 0.325 0.433 0.622 0.867 0.889 1.301 l -1.863 0 c -0.217 -0.333 -0.467 -0.684 -0.75 -1.051 c -0.283 -0.367 -0.584 -0.721 -0.9 -1.063 c -0.308 -0.342 -0.63 -0.666 -0.963 -0.975 c -0.333 -0.308 -0.661 -0.574 -0.986 -0.799 l 0 3.887 l -1.576 0 l 0 -8.662 z m 10.537 1.963 c 0.458 0 0.88 0.083 1.264 0.25 c 0.392 0.158 0.725 0.388 1 0.688 c 0.275 0.3 0.487 0.661 0.637 1.086 c 0.158 0.417 0.238 0.884 0.238 1.4 c 0 0.517 -0.075 0.987 -0.225 1.412 c -0.15 0.425 -0.364 0.788 -0.639 1.088 c -0.275 0.3 -0.608 0.535 -1 0.701 c -0.383 0.167 -0.809 0.25 -1.275 0.25 c -0.467 0 -0.89 -0.083 -1.273 -0.25 c -0.383 -0.167 -0.713 -0.401 -0.988 -0.701 c -0.275 -0.3 -0.492 -0.663 -0.65 -1.088 c -0.15 -0.425 -0.225 -0.895 -0.225 -1.412 c 0 -0.517 0.075 -0.984 0.225 -1.4 c 0.158 -0.425 0.375 -0.786 0.65 -1.086 c 0.283 -0.3 0.617 -0.529 1 -0.688 c 0.383 -0.167 0.803 -0.25 1.262 -0.25 z m 0 1.312 c -0.5 0 -0.89 0.191 -1.174 0.574 c -0.275 0.375 -0.412 0.887 -0.412 1.537 c 0 0.658 0.137 1.179 0.412 1.563 c 0.283 0.383 0.674 0.576 1.174 0.576 c 0.5 0 0.889 -0.193 1.164 -0.576 c 0.283 -0.383 0.424 -0.904 0.424 -1.563 c 0 -0.65 -0.14 -1.162 -0.424 -1.537 c -0.275 -0.383 -0.664 -0.574 -1.164 -0.574 z"/>
</svg>
