<svg xmlns="http://www.w3.org/2000/svg" viewBox="0 0 22 22">
 <g transform="translate(0,-1030.8622)">
  <path d="m 9 1046.86 -2 2 c -1 1 -1 1 0 1 l 8 0 c 1 0 1 0 0 -1 l -2 -2 0 -1 -4 0 z" style="fill:#ececec;fill-opacity:1;stroke:none"/>
  <path d="m 5 1033.86 c -1.108 0 -2 0.892 -2 2 l 0 9 c 0 1.108 0.892 2 2 2 l 12 0 c 1.108 0 2 -0.892 2 -2 l 0 -9 c 0 -1.108 -0.892 -2 -2 -2 l -12 0 z m 0 2 12 0 0 9 -12 0 0 -9 z" style="fill:#ececec;fill-opacity:1;stroke:none"/>
  <g transform="translate(-0.28625505,0)" style="fill:#ececec;fill-opacity:1;stroke:none">
   <path d="m 6.316 1042.42 1.453 0 0 -4.123 -1.491 0.308 0 -1.119 1.483 -0.308 1.564 0 0 5.242 1.453 0 0 1.136 -4.46 0 0 -1.136 z"/>
   <path d="m 14.65 1040.36 q 0 -1.196 -0.226 -1.683 -0.222 -0.491 -0.752 -0.491 -0.53 0 -0.756 0.491 -0.226 0.487 -0.226 1.683 0 1.209 0.226 1.705 0.226 0.496 0.756 0.496 0.526 0 0.752 -0.496 0.226 -0.496 0.226 -1.705 z m 1.645 0.013 q 0 1.585 -0.684 2.448 -0.684 0.859 -1.94 0.859 -1.26 0 -1.944 -0.859 -0.684 -0.863 -0.684 -2.448 0 -1.589 0.684 -2.448 0.684 -0.863 1.944 -0.863 1.256 0 1.94 0.863 0.684 0.859 0.684 2.448 z"/>
  </g>
 </g>
</svg>
