<svg viewBox="0 0 22 22" xmlns="http://www.w3.org/2000/svg">
 <path d="m 3 1 c -1.108 0 -2 0.892 -2 2 l 0 16 c 0 1.108 0.892 2 2 2 l 16 0 c 1.108 0 2 -0.892 2 -2 l 0 -16 c 0 -1.108 -0.892 -2 -2 -2 l -16 0 z m 4.338 5.387 c 0.358 0 0.683 0.03 0.975 0.088 c 0.292 0.05 0.547 0.109 0.764 0.176 c 0.217 0.067 0.395 0.138 0.537 0.213 c 0.142 0.075 0.242 0.129 0.301 0.162 l -0.463 1.287 c -0.2 -0.125 -0.488 -0.241 -0.863 -0.35 c -0.367 -0.117 -0.766 -0.176 -1.199 -0.176 c -0.375 0 -0.726 0.068 -1.051 0.201 c -0.325 0.125 -0.608 0.316 -0.85 0.574 c -0.233 0.258 -0.417 0.583 -0.551 0.975 c -0.133 0.392 -0.199 0.847 -0.199 1.363 c 0 0.458 0.05 0.878 0.15 1.262 c 0.108 0.383 0.27 0.717 0.486 1 c 0.217 0.275 0.493 0.492 0.826 0.65 c 0.333 0.15 0.733 0.225 1.199 0.225 c 0.558 0 1.013 -0.054 1.363 -0.162 c 0.35 -0.117 0.621 -0.224 0.813 -0.324 l 0.424 1.287 c -0.1 0.067 -0.237 0.133 -0.412 0.199 c -0.167 0.067 -0.366 0.135 -0.6 0.201 c -0.233 0.058 -0.495 0.103 -0.787 0.137 c -0.292 0.042 -0.604 0.063 -0.938 0.063 c -0.65 0 -1.233 -0.101 -1.75 -0.301 c -0.517 -0.2 -0.954 -0.492 -1.313 -0.875 c -0.358 -0.392 -0.635 -0.865 -0.826 -1.424 c -0.192 -0.558 -0.287 -1.201 -0.287 -1.926 c 0 -0.725 0.11 -1.365 0.326 -1.924 c 0.225 -0.558 0.529 -1.031 0.912 -1.414 c 0.383 -0.392 0.833 -0.687 1.35 -0.887 c 0.517 -0.2 1.07 -0.301 1.662 -0.301 z m 6.084 2.164 c 0.383 0 0.75 0.036 1.1 0.111 c 0.35 0.067 0.612 0.135 0.787 0.201 l -0.275 1.225 c -0.167 -0.075 -0.378 -0.143 -0.637 -0.201 c -0.258 -0.067 -0.559 -0.1 -0.9 -0.1 c -0.308 0 -0.558 0.054 -0.75 0.162 c -0.192 0.1 -0.287 0.26 -0.287 0.477 c 0 0.108 0.017 0.204 0.051 0.287 c 0.042 0.083 0.108 0.161 0.199 0.236 c 0.092 0.067 0.213 0.138 0.363 0.213 c 0.15 0.067 0.332 0.138 0.549 0.213 c 0.358 0.133 0.662 0.267 0.912 0.4 c 0.25 0.125 0.455 0.271 0.613 0.438 c 0.167 0.158 0.288 0.34 0.363 0.549 c 0.075 0.208 0.111 0.458 0.111 0.75 c 0 0.625 -0.233 1.101 -0.699 1.426 c -0.458 0.317 -1.116 0.475 -1.975 0.475 c -0.575 0 -1.039 -0.05 -1.389 -0.15 c -0.35 -0.092 -0.595 -0.166 -0.736 -0.225 l 0.262 -1.262 c 0.225 0.092 0.492 0.178 0.801 0.262 c 0.317 0.083 0.674 0.125 1.074 0.125 c 0.4 0 0.692 -0.045 0.875 -0.137 c 0.183 -0.1 0.275 -0.267 0.275 -0.5 c 0 -0.217 -0.101 -0.395 -0.301 -0.537 c -0.192 -0.142 -0.513 -0.296 -0.963 -0.463 c -0.275 -0.1 -0.528 -0.204 -0.762 -0.313 c -0.225 -0.117 -0.421 -0.25 -0.588 -0.4 c -0.167 -0.15 -0.3 -0.329 -0.4 -0.537 c -0.092 -0.217 -0.137 -0.479 -0.137 -0.787 c 0 -0.6 0.22 -1.072 0.662 -1.414 c 0.442 -0.35 1.042 -0.523 1.801 -0.523 z m 4.307 4.768 c 0.463 0 0.801 0.111 1.018 0.332 c 0.221 0.217 0.332 0.513 0.332 0.893 c 0 0.15 -0.031 0.299 -0.094 0.445 c -0.063 0.142 -0.144 0.28 -0.244 0.418 c -0.096 0.133 -0.205 0.265 -0.33 0.395 c -0.125 0.125 -0.25 0.246 -0.375 0.367 c -0.067 0.063 -0.143 0.139 -0.227 0.227 c -0.083 0.087 -0.161 0.174 -0.236 0.262 c -0.075 0.087 -0.139 0.173 -0.193 0.256 c -0.054 0.079 -0.084 0.147 -0.088 0.201 l 1.924 0 l 0 0.637 l -2.756 0 c -0.004 -0.033 -0.006 -0.073 -0.006 -0.119 l 0 -0.111 c 0 -0.2 0.031 -0.384 0.094 -0.551 c 0.067 -0.171 0.152 -0.329 0.256 -0.475 c 0.104 -0.146 0.22 -0.283 0.35 -0.412 c 0.129 -0.129 0.26 -0.258 0.389 -0.383 c 0.1 -0.096 0.195 -0.19 0.287 -0.281 c 0.092 -0.092 0.172 -0.18 0.238 -0.268 c 0.071 -0.092 0.126 -0.184 0.168 -0.275 c 0.042 -0.096 0.063 -0.193 0.063 -0.293 c 0 -0.217 -0.063 -0.371 -0.188 -0.463 c -0.125 -0.092 -0.278 -0.139 -0.457 -0.139 c -0.117 0 -0.224 0.017 -0.324 0.051 c -0.1 0.033 -0.19 0.073 -0.27 0.119 c -0.075 0.046 -0.141 0.093 -0.199 0.143 c -0.058 0.046 -0.102 0.084 -0.131 0.113 l -0.375 -0.531 c 0.175 -0.167 0.378 -0.3 0.611 -0.4 c 0.238 -0.104 0.493 -0.156 0.764 -0.156 z" style="fill:#ececec;fill-opacity:1"/>
</svg>
