<svg xmlns="http://www.w3.org/2000/svg" viewBox="0 0 22 22">
 <path d="m 3 1 c -1.108 0 -2 0.892 -2 2 l 0 16 c 0 1.108 0.892 2 2 2 l 16 0 c 1.108 0 2 -0.892 2 -2 l 0 -16 c 0 -1.108 -0.892 -2 -2 -2 l -16 0 z m -0.344 5.588 l 1.574 0 l 0 3.574 c 0.275 -0.275 0.563 -0.567 0.863 -0.875 c 0.3 -0.317 0.595 -0.633 0.887 -0.949 c 0.3 -0.325 0.585 -0.637 0.852 -0.938 c 0.267 -0.3 0.508 -0.571 0.725 -0.813 l 1.887 0 c -0.275 0.317 -0.567 0.645 -0.875 0.986 c -0.308 0.342 -0.624 0.689 -0.949 1.039 c -0.325 0.342 -0.655 0.682 -0.988 1.023 c -0.325 0.342 -0.646 0.668 -0.963 0.977 c 0.35 0.267 0.704 0.579 1.063 0.938 c 0.367 0.35 0.726 0.728 1.076 1.137 c 0.35 0.4 0.683 0.82 1 1.262 c 0.325 0.433 0.62 0.867 0.887 1.301 l -1.861 0 c -0.217 -0.333 -0.467 -0.684 -0.75 -1.051 c -0.283 -0.367 -0.584 -0.721 -0.9 -1.063 c -0.308 -0.342 -0.63 -0.666 -0.963 -0.975 c -0.333 -0.308 -0.663 -0.574 -0.988 -0.799 l 0 3.887 l -1.574 0 l 0 -8.662 z m 7.76 2.125 l 1.514 0 l 0 3.424 c 0 0.7 0.099 1.2 0.299 1.5 c 0.208 0.3 0.568 0.451 1.076 0.451 c 0.183 0 0.374 -0.009 0.574 -0.025 c 0.208 -0.017 0.363 -0.037 0.463 -0.063 l 0 -5.287 l 1.512 0 l 0 6.338 c -0.292 0.075 -0.67 0.15 -1.137 0.225 c -0.467 0.083 -0.979 0.125 -1.537 0.125 c -0.525 0 -0.968 -0.075 -1.326 -0.225 c -0.35 -0.15 -0.633 -0.358 -0.85 -0.625 c -0.208 -0.267 -0.358 -0.585 -0.449 -0.951 c -0.092 -0.375 -0.139 -0.783 -0.139 -1.225 l 0 -3.662 z m 8.537 4.705 l 0.719 0 l 0 2.676 l 0.488 0 l 0 0.619 l -0.488 0 l 0 1.037 l -0.736 0 l 0 -1.037 l -1.9 0 l 0 -0.537 c 0.083 -0.183 0.195 -0.395 0.332 -0.633 c 0.142 -0.237 0.298 -0.48 0.469 -0.73 c 0.171 -0.25 0.351 -0.497 0.543 -0.738 c 0.192 -0.242 0.383 -0.46 0.574 -0.656 z m -0.018 0.932 c -0.1 0.121 -0.204 0.251 -0.313 0.389 c -0.104 0.137 -0.207 0.28 -0.307 0.43 c -0.1 0.15 -0.195 0.305 -0.287 0.463 c -0.092 0.154 -0.175 0.309 -0.25 0.463 l 1.156 0 l 0 -1.744 z" style="fill:#ececec;fill-opacity:1"/>
</svg>
