<svg xmlns="http://www.w3.org/2000/svg" viewBox="0 0 22 22">
 <path d="m 7 2 c -0.554 0 -1 0.446 -1 1 l 0 1 l -0.25 0 c -0.97 0 -1.75 0.781 -1.75 1.75 l 0 0.25 l -1 0 c -0.554 0 -1 0.446 -1 1 c 0 0.554 0.446 1 1 1 l 1 0 l 0 2 l -1 0 c -0.554 0 -1 0.446 -1 1 c 0 0.554 0.446 1 1 1 l 1 0 l 0 2 l -1 0 c -0.554 0 -1 0.446 -1 1 c 0 0.554 0.446 1 1 1 l 1 0 l 0 0.25 c 0 0.97 0.781 1.75 1.75 1.75 l 0.25 0 l 0 1 c 0 0.554 0.446 1 1 1 c 0.554 0 1 -0.446 1 -1 l 0 -1 l 2 0 l 0 1 c 0 0.554 0.446 1 1 1 c 0.554 0 1 -0.446 1 -1 l 0 -1 l 2 0 l 0 1 c 0 0.554 0.446 1 1 1 c 0.554 0 1 -0.446 1 -1 l 0 -1 l 0.25 0 c 0.97 0 1.75 -0.781 1.75 -1.75 l 0 -0.25 l 1 0 c 0.554 0 1 -0.446 1 -1 c 0 -0.554 -0.446 -1 -1 -1 l -1 0 l 0 -2 l 1 0 c 0.554 0 1 -0.446 1 -1 c 0 -0.554 -0.446 -1 -1 -1 l -1 0 l 0 -2 l 1 0 c 0.554 0 1 -0.446 1 -1 c 0 -0.554 -0.446 -1 -1 -1 l -1 0 l 0 -0.25 c 0 -0.97 -0.781 -1.75 -1.75 -1.75 l -0.25 0 l 0 -1 c 0 -0.554 -0.446 -1 -1 -1 c -0.554 0 -1 0.446 -1 1 l 0 1 l -2 0 l 0 -1 c 0 -0.554 -0.446 -1 -1 -1 c -0.554 0 -1 0.446 -1 1 l 0 1 l -2 0 l 0 -1 c 0 -0.554 -0.446 -1 -1 -1 z m -0.156 4 l 8.313 0 c 0.462 0 0.844 0.382 0.844 0.844 l 0 8.313 c 0 0.462 -0.382 0.844 -0.844 0.844 l -8.313 0 c -0.462 0 -0.844 -0.382 -0.844 -0.844 l 0 -8.313 c 0 -0.462 0.382 -0.844 0.844 -0.844 z" style="fill:#ececec;fill-opacity:1;stroke:none;fill-rule:evenodd"/>
 <rect width="8" height="8" x="7" y="7" rx="0.6" style="fill:#ececec;fill-opacity:1;stroke:none;fill-rule:evenodd"/>
</svg>
