<svg viewBox="0 0 22 22" xmlns="http://www.w3.org/2000/svg">
 <path d="m 3 1 c -1.108 0 -2 0.892 -2 2 l 0 16 c 0 1.108 0.892 2 2 2 l 16 0 c 1.108 0 2 -0.892 2 -2 l 0 -16 c 0 -1.108 -0.892 -2 -2 -2 l -16 0 z m 1.768 5.588 l 1.576 0 l 0 8.662 l -1.576 0 l 0 -8.662 z m 6.275 1.986 c 0.533 0 0.98 0.077 1.338 0.227 c 0.358 0.142 0.641 0.345 0.85 0.611 c 0.217 0.258 0.366 0.576 0.449 0.951 c 0.092 0.367 0.139 0.769 0.139 1.211 l 0 3.676 l -1.514 0 l 0 -3.438 c 0 -0.35 -0.024 -0.645 -0.074 -0.887 c -0.042 -0.25 -0.116 -0.452 -0.225 -0.602 c -0.1 -0.158 -0.242 -0.269 -0.426 -0.336 c -0.175 -0.075 -0.392 -0.113 -0.65 -0.113 c -0.192 0 -0.391 0.012 -0.6 0.037 c -0.208 0.025 -0.363 0.046 -0.463 0.063 l 0 5.275 l -1.512 0 l 0 -6.324 c 0.292 -0.083 0.67 -0.163 1.137 -0.238 c 0.467 -0.075 0.984 -0.113 1.551 -0.113 z m 4.469 4.844 l 2.211 0 l 0 0.639 l -1.568 0 c -0.004 0.071 -0.009 0.152 -0.018 0.244 c -0.004 0.087 -0.011 0.176 -0.02 0.268 c -0.004 0.092 -0.011 0.18 -0.02 0.264 c -0.008 0.083 -0.015 0.153 -0.023 0.211 c 0.617 0.033 1.07 0.176 1.361 0.426 c 0.296 0.246 0.443 0.583 0.443 1.012 c 0 0.196 -0.033 0.378 -0.1 0.545 c -0.067 0.167 -0.169 0.311 -0.307 0.432 c -0.137 0.121 -0.309 0.216 -0.518 0.287 c -0.208 0.067 -0.453 0.1 -0.732 0.1 c -0.113 0 -0.227 -0.009 -0.344 -0.025 c -0.117 -0.017 -0.228 -0.038 -0.336 -0.063 c -0.104 -0.021 -0.198 -0.043 -0.281 -0.068 c -0.083 -0.025 -0.146 -0.048 -0.188 -0.068 l 0.143 -0.639 c 0.088 0.042 0.213 0.089 0.375 0.139 c 0.167 0.046 0.37 0.068 0.607 0.068 c 0.163 0 0.301 -0.017 0.418 -0.051 c 0.117 -0.037 0.21 -0.086 0.281 -0.148 c 0.075 -0.063 0.129 -0.134 0.162 -0.213 c 0.033 -0.083 0.051 -0.172 0.051 -0.264 c 0 -0.137 -0.028 -0.259 -0.082 -0.367 c -0.054 -0.108 -0.15 -0.2 -0.287 -0.275 c -0.133 -0.075 -0.314 -0.132 -0.543 -0.17 c -0.225 -0.037 -0.512 -0.055 -0.857 -0.055 c 0.046 -0.4 0.082 -0.78 0.107 -1.139 c 0.025 -0.362 0.046 -0.725 0.063 -1.088 z" style="fill:#ececec;fill-opacity:1"/>
</svg>
