<svg xmlns="http://www.w3.org/2000/svg" viewBox="0 0 22 22">
 <path d="m 3 1 c -1.108 0 -2 0.892 -2 2 l 0 16 c 0 1.108 0.892 2 2 2 l 16 0 c 1.108 0 2 -0.892 2 -2 l 0 -16 c 0 -1.108 -0.892 -2 -2 -2 l -16 0 z m 11.305 4.801 l 0 5.711 c 0.192 -0.2 0.397 -0.412 0.613 -0.637 c 0.217 -0.233 0.428 -0.463 0.637 -0.688 c 0.208 -0.233 0.405 -0.454 0.588 -0.662 c 0.192 -0.217 0.355 -0.404 0.488 -0.563 l 1.787 0 c -0.417 0.467 -0.86 0.949 -1.326 1.449 c -0.458 0.5 -0.92 0.988 -1.387 1.463 c 0.25 0.208 0.512 0.462 0.787 0.762 c 0.275 0.292 0.542 0.604 0.801 0.938 c 0.258 0.333 0.5 0.667 0.725 1 c 0.225 0.333 0.413 0.642 0.563 0.926 l -1.75 0 c -0.15 -0.258 -0.325 -0.529 -0.525 -0.813 c -0.192 -0.283 -0.4 -0.558 -0.625 -0.824 c -0.225 -0.267 -0.454 -0.517 -0.688 -0.75 c -0.233 -0.242 -0.463 -0.447 -0.688 -0.613 l 0 3 l -1.512 0 l 0 -9.449 l 1.512 -0.25 z m -7.494 1.037 l 1.486 0 c 0.292 0.617 0.577 1.242 0.852 1.875 c 0.275 0.633 0.549 1.3 0.824 2 c 0.283 0.7 0.572 1.441 0.863 2.225 c 0.3 0.783 0.612 1.637 0.938 2.563 l -1.701 0 c -0.117 -0.342 -0.236 -0.678 -0.361 -1.012 c -0.125 -0.333 -0.247 -0.675 -0.363 -1.025 l -3.65 0 c -0.117 0.35 -0.236 0.695 -0.361 1.037 l -0.352 1 l -1.637 0 c 0.325 -0.925 0.634 -1.779 0.926 -2.563 c 0.292 -0.783 0.575 -1.525 0.85 -2.225 c 0.283 -0.7 0.563 -1.367 0.838 -2 c 0.275 -0.633 0.558 -1.258 0.85 -1.875 z m 0.713 1.674 c -0.192 0.442 -0.414 0.98 -0.664 1.613 c -0.242 0.633 -0.495 1.321 -0.762 2.063 l 2.85 0 c -0.267 -0.742 -0.525 -1.433 -0.775 -2.074 c -0.25 -0.642 -0.465 -1.177 -0.648 -1.602 z" style="fill:#ececec;fill-opacity:1"/>
</svg>
