<svg xmlns="http://www.w3.org/2000/svg" viewBox="0 0 22 22">
 <path style="fill:#ececec;fill-opacity:1" d="m 3 1 c -1.108 0 -2 0.892 -2 2 l 0 16 c 0 1.108 0.892 2 2 2 l 16 0 c 1.108 0 2 -0.892 2 -2 l 0 -16 c 0 -1.108 -0.892 -2 -2 -2 l -16 0 z m 2.689 5.838 l 1.576 0 l 0 7.299 l 3.898 0 l 0 1.363 l -5.475 0 l 0 -8.662 z m 5.254 2.125 l 1.611 0 c 0.092 0.367 0.196 0.763 0.313 1.188 c 0.125 0.417 0.255 0.837 0.389 1.262 c 0.142 0.417 0.282 0.825 0.424 1.225 c 0.15 0.392 0.289 0.746 0.414 1.063 c 0.125 -0.317 0.257 -0.671 0.398 -1.063 c 0.142 -0.4 0.281 -0.808 0.414 -1.225 c 0.142 -0.425 0.273 -0.845 0.398 -1.262 c 0.125 -0.425 0.235 -0.821 0.326 -1.188 l 1.563 0 c -0.358 1.275 -0.76 2.471 -1.201 3.588 c -0.433 1.108 -0.857 2.091 -1.273 2.949 l -1.301 0 c -0.417 -0.858 -0.845 -1.841 -1.287 -2.949 c -0.433 -1.117 -0.829 -2.313 -1.188 -3.588 z"/>
</svg>
