<svg viewBox="0 0 22 22" xmlns="http://www.w3.org/2000/svg">
 <path d="m 3 1 c -1.108 0 -2 0.892 -2 2 l 0 16 c 0 1.108 0.892 2 2 2 l 16 0 c 1.108 0 2 -0.892 2 -2 l 0 -16 c 0 -1.108 -0.892 -2 -2 -2 l -16 0 z m 0.742 5.588 l 5.563 0 l 0 1.338 l -3.986 0 l 0 2.137 l 3.549 0 l 0 1.313 l -3.549 0 l 0 2.537 l 4.287 0 l 0 1.338 l -5.863 0 l 0 -8.662 z m 9.35 1.963 c 0.383 0 0.75 0.036 1.1 0.111 c 0.35 0.067 0.614 0.135 0.789 0.201 l -0.275 1.225 c -0.167 -0.075 -0.38 -0.143 -0.639 -0.201 c -0.258 -0.067 -0.557 -0.1 -0.898 -0.1 c -0.308 0 -0.558 0.054 -0.75 0.162 c -0.192 0.1 -0.289 0.26 -0.289 0.477 c 0 0.108 0.017 0.204 0.051 0.287 c 0.042 0.083 0.108 0.161 0.199 0.236 c 0.092 0.067 0.213 0.138 0.363 0.213 c 0.15 0.067 0.334 0.138 0.551 0.213 c 0.358 0.133 0.662 0.267 0.912 0.4 c 0.25 0.125 0.453 0.271 0.611 0.438 c 0.167 0.158 0.288 0.34 0.363 0.549 c 0.075 0.208 0.113 0.458 0.113 0.75 c 0 0.625 -0.235 1.101 -0.701 1.426 c -0.458 0.317 -1.116 0.475 -1.975 0.475 c -0.575 0 -1.037 -0.05 -1.387 -0.15 c -0.35 -0.092 -0.597 -0.166 -0.738 -0.225 l 0.262 -1.262 c 0.225 0.092 0.492 0.178 0.801 0.262 c 0.317 0.083 0.674 0.125 1.074 0.125 c 0.4 0 0.692 -0.045 0.875 -0.137 c 0.183 -0.1 0.275 -0.267 0.275 -0.5 c 0 -0.217 -0.099 -0.395 -0.299 -0.537 c -0.192 -0.142 -0.513 -0.296 -0.963 -0.463 c -0.275 -0.1 -0.53 -0.204 -0.764 -0.313 c -0.225 -0.117 -0.419 -0.25 -0.586 -0.4 c -0.167 -0.15 -0.3 -0.329 -0.4 -0.537 c -0.092 -0.217 -0.139 -0.479 -0.139 -0.787 c 0 -0.6 0.222 -1.072 0.664 -1.414 c 0.442 -0.35 1.04 -0.523 1.799 -0.523 z m 4.307 4.768 c 0.462 0 0.803 0.111 1.02 0.332 c 0.221 0.217 0.33 0.513 0.33 0.893 c 0 0.15 -0.031 0.299 -0.094 0.445 c -0.063 0.142 -0.142 0.28 -0.242 0.418 c -0.096 0.133 -0.207 0.265 -0.332 0.395 c -0.125 0.125 -0.25 0.246 -0.375 0.367 c -0.067 0.063 -0.141 0.139 -0.225 0.227 c -0.083 0.087 -0.163 0.174 -0.238 0.262 c -0.075 0.087 -0.139 0.173 -0.193 0.256 c -0.054 0.079 -0.084 0.147 -0.088 0.201 l 1.926 0 l 0 0.637 l -2.756 0 c -0.004 -0.033 -0.008 -0.073 -0.008 -0.119 l 0 -0.111 c 0 -0.2 0.031 -0.384 0.094 -0.551 c 0.067 -0.171 0.154 -0.329 0.258 -0.475 c 0.104 -0.146 0.22 -0.283 0.35 -0.412 c 0.129 -0.129 0.258 -0.258 0.387 -0.383 c 0.1 -0.096 0.195 -0.19 0.287 -0.281 c 0.092 -0.092 0.172 -0.18 0.238 -0.268 c 0.071 -0.092 0.126 -0.184 0.168 -0.275 c 0.042 -0.096 0.063 -0.193 0.063 -0.293 c 0 -0.217 -0.063 -0.371 -0.188 -0.463 c -0.125 -0.092 -0.276 -0.139 -0.455 -0.139 c -0.117 0 -0.226 0.017 -0.326 0.051 c -0.1 0.033 -0.188 0.073 -0.268 0.119 c -0.075 0.046 -0.143 0.093 -0.201 0.143 c -0.058 0.046 -0.102 0.084 -0.131 0.113 l -0.375 -0.531 c 0.175 -0.167 0.38 -0.3 0.613 -0.4 c 0.238 -0.104 0.491 -0.156 0.762 -0.156 z" style="fill:#ececec;fill-opacity:1"/>
</svg>
