<svg xmlns="http://www.w3.org/2000/svg" viewBox="0 0 22 22">
 <path style="fill:#ececec;fill-opacity:1" d="m 3 1 c -1.108 0 -2 0.892 -2 2 l 0 16 c 0 1.108 0.892 2 2 2 l 16 0 c 1.108 0 2 -0.892 2 -2 l 0 -16 c 0 -1.108 -0.892 -2 -2 -2 l -16 0 z m 3.688 5.75 c 0.725 0 1.388 0.087 1.988 0.262 c 0.6 0.167 1.112 0.434 1.537 0.801 c 0.433 0.358 0.767 0.817 1 1.375 c 0.233 0.55 0.35 1.208 0.35 1.975 c 0 0.75 -0.116 1.405 -0.35 1.963 c -0.233 0.55 -0.567 1.012 -1 1.387 c -0.425 0.367 -0.942 0.643 -1.551 0.826 c -0.6 0.175 -1.267 0.262 -2 0.262 c -0.35 0 -0.746 -0.015 -1.188 -0.049 c -0.442 -0.025 -0.862 -0.084 -1.262 -0.176 l 0 -8.412 c 0.4 -0.092 0.825 -0.151 1.275 -0.176 c 0.45 -0.025 0.849 -0.037 1.199 -0.037 z m 0.1 1.363 c -0.467 0 -0.8 0.012 -1 0.037 l 0 6.05 c 0.092 0.008 0.213 0.017 0.363 0.025 l 0.613 0 c 1.058 0 1.845 -0.265 2.361 -0.799 c 0.525 -0.542 0.787 -1.297 0.787 -2.264 c 0 -0.983 -0.253 -1.737 -0.762 -2.262 c -0.508 -0.525 -1.297 -0.787 -2.363 -0.787 z m 5.633 0.85 l 1.613 0 c 0.092 0.367 0.196 0.763 0.313 1.188 c 0.125 0.417 0.253 0.837 0.387 1.262 c 0.142 0.417 0.284 0.825 0.426 1.225 c 0.15 0.392 0.287 0.746 0.412 1.063 c 0.125 -0.317 0.259 -0.671 0.4 -1.063 c 0.142 -0.4 0.279 -0.808 0.412 -1.225 c 0.142 -0.425 0.275 -0.845 0.4 -1.262 c 0.125 -0.425 0.233 -0.821 0.324 -1.188 l 1.563 0 c -0.358 1.275 -0.758 2.471 -1.199 3.588 c -0.433 1.108 -0.859 2.091 -1.275 2.949 l -1.301 0 c -0.417 -0.858 -0.845 -1.841 -1.287 -2.949 c -0.433 -1.117 -0.829 -2.313 -1.188 -3.588 z"/>
</svg>
