<svg xmlns="http://www.w3.org/2000/svg" viewBox="0 0 22 22">
 <path d="m 3 1 c -1.108 0 -2 0.892 -2 2 l 0 16 c 0 1.108 0.892 2 2 2 l 16 0 c 1.108 0 2 -0.892 2 -2 l 0 -16 c 0 -1.108 -0.892 -2 -2 -2 l -16 0 z m 2.961 5.588 l 1.488 0 c 0.292 0.617 0.575 1.242 0.85 1.875 c 0.275 0.633 0.551 1.3 0.826 2 c 0.283 0.7 0.57 1.441 0.861 2.225 c 0.3 0.783 0.612 1.637 0.937 2.563 l -1.699 0 c -0.117 -0.342 -0.238 -0.678 -0.363 -1.012 c -0.125 -0.333 -0.245 -0.675 -0.361 -1.025 l -3.65 0 c -0.117 0.35 -0.238 0.695 -0.363 1.037 l -0.35 1 l -1.637 0 c 0.325 -0.925 0.632 -1.779 0.924 -2.563 c 0.292 -0.783 0.575 -1.525 0.85 -2.225 c 0.283 -0.7 0.563 -1.367 0.838 -2 c 0.275 -0.633 0.558 -1.258 0.85 -1.875 z m 0.713 1.674 c -0.192 0.442 -0.412 0.98 -0.662 1.613 c -0.242 0.633 -0.495 1.321 -0.762 2.063 l 2.85 0 c -0.267 -0.742 -0.525 -1.433 -0.775 -2.074 c -0.25 -0.642 -0.467 -1.177 -0.65 -1.602 z m 7.82 0.313 c 0.1 0 0.216 0.009 0.35 0.025 c 0.133 0.008 0.267 0.026 0.4 0.051 c 0.133 0.017 0.262 0.041 0.387 0.074 c 0.125 0.025 0.226 0.051 0.301 0.076 l -0.262 1.273 c -0.125 -0.042 -0.3 -0.083 -0.525 -0.125 c -0.217 -0.05 -0.472 -0.074 -0.764 -0.074 c -0.167 0 -0.345 0.017 -0.537 0.051 c -0.183 0.033 -0.312 0.061 -0.387 0.086 l 0 5.238 l -1.514 0 l 0 -6.225 c 0.292 -0.108 0.655 -0.209 1.088 -0.301 c 0.442 -0.1 0.93 -0.15 1.463 -0.15 z m 2.311 4.844 l 2.213 0 l 0 0.639 l -1.568 0 c -0.004 0.071 -0.011 0.152 -0.02 0.244 c -0.004 0.087 -0.011 0.176 -0.02 0.268 c -0.004 0.092 -0.009 0.18 -0.018 0.264 c -0.008 0.083 -0.017 0.153 -0.025 0.211 c 0.617 0.033 1.072 0.176 1.363 0.426 c 0.296 0.246 0.443 0.583 0.443 1.012 c 0 0.196 -0.033 0.378 -0.1 0.545 c -0.067 0.167 -0.169 0.311 -0.307 0.432 c -0.137 0.121 -0.311 0.216 -0.52 0.287 c -0.208 0.067 -0.451 0.1 -0.73 0.1 c -0.113 0 -0.227 -0.009 -0.344 -0.025 c -0.117 -0.017 -0.23 -0.038 -0.338 -0.063 c -0.104 -0.021 -0.198 -0.043 -0.281 -0.068 c -0.083 -0.025 -0.146 -0.048 -0.188 -0.068 l 0.145 -0.639 c 0.088 0.042 0.213 0.089 0.375 0.139 c 0.167 0.046 0.368 0.068 0.605 0.068 c 0.163 0 0.301 -0.017 0.418 -0.051 c 0.117 -0.037 0.21 -0.086 0.281 -0.148 c 0.075 -0.063 0.131 -0.134 0.164 -0.213 c 0.033 -0.083 0.049 -0.172 0.049 -0.264 c 0 -0.137 -0.026 -0.259 -0.08 -0.367 c -0.054 -0.108 -0.152 -0.2 -0.289 -0.275 c -0.133 -0.075 -0.314 -0.132 -0.543 -0.17 c -0.225 -0.037 -0.51 -0.055 -0.855 -0.055 c 0.046 -0.4 0.08 -0.78 0.105 -1.139 c 0.025 -0.362 0.046 -0.725 0.063 -1.088 z" style="fill:#ececec;fill-opacity:1"/>
</svg>
