<svg viewBox="0 0 22 22" xmlns="http://www.w3.org/2000/svg">
 <path style="fill:#ececec;fill-opacity:1" d="m 3 1 c -1.108 0 -2 0.892 -2 2 l 0 16 c 0 1.108 0.892 2 2 2 l 16 0 c 1.108 0 2 -0.892 2 -2 l 0 -16 c 0 -1.108 -0.892 -2 -2 -2 l -16 0 z m 1.865 5.588 l 1.576 0 l 0 8.662 l -1.576 0 l 0 -8.662 z m 6.264 1.963 c 0.9 0 1.6 0.278 2.1 0.836 c 0.508 0.558 0.762 1.392 0.762 2.5 c 0 0.083 -0.003 0.181 -0.012 0.289 c 0 0.1 -0.005 0.19 -0.014 0.273 l -4.313 0 c 0.042 0.525 0.226 0.935 0.551 1.227 c 0.333 0.283 0.813 0.424 1.438 0.424 c 0.367 0 0.7 -0.033 1 -0.1 c 0.308 -0.067 0.55 -0.138 0.725 -0.213 l 0.201 1.238 c -0.083 0.042 -0.202 0.087 -0.352 0.137 c -0.142 0.042 -0.308 0.08 -0.5 0.113 c -0.183 0.042 -0.383 0.075 -0.6 0.1 c -0.217 0.025 -0.437 0.037 -0.662 0.037 c -0.575 0 -1.075 -0.083 -1.5 -0.25 c -0.425 -0.175 -0.776 -0.413 -1.051 -0.713 c -0.275 -0.308 -0.478 -0.666 -0.611 -1.074 c -0.133 -0.417 -0.201 -0.872 -0.201 -1.363 c 0 -0.575 0.083 -1.078 0.25 -1.512 c 0.175 -0.433 0.404 -0.791 0.688 -1.074 c 0.283 -0.292 0.61 -0.509 0.977 -0.65 c 0.367 -0.15 0.742 -0.225 1.125 -0.225 z m 0.012 1.262 c -0.233 0 -0.438 0.045 -0.613 0.137 c -0.175 0.083 -0.324 0.196 -0.449 0.338 c -0.117 0.142 -0.209 0.305 -0.275 0.488 c -0.067 0.183 -0.112 0.371 -0.137 0.563 l 2.813 0 c 0 -0.208 -0.03 -0.405 -0.088 -0.588 c -0.058 -0.192 -0.145 -0.355 -0.262 -0.488 c -0.108 -0.142 -0.247 -0.249 -0.414 -0.324 c -0.158 -0.083 -0.349 -0.125 -0.574 -0.125 z m 5.05 3.506 c 0.242 0 0.45 0.03 0.625 0.088 c 0.175 0.058 0.319 0.142 0.432 0.25 c 0.117 0.104 0.202 0.229 0.256 0.375 c 0.058 0.142 0.088 0.298 0.088 0.469 c 0 0.2 -0.055 0.379 -0.168 0.537 c -0.108 0.158 -0.251 0.28 -0.426 0.363 c 0.225 0.079 0.411 0.209 0.557 0.393 c 0.15 0.183 0.225 0.42 0.225 0.707 c 0 0.192 -0.033 0.37 -0.1 0.537 c -0.067 0.162 -0.169 0.305 -0.307 0.426 c -0.137 0.117 -0.313 0.21 -0.525 0.281 c -0.208 0.067 -0.458 0.1 -0.75 0.1 c -0.113 0 -0.229 -0.009 -0.35 -0.025 c -0.117 -0.012 -0.23 -0.032 -0.338 -0.057 c -0.104 -0.021 -0.2 -0.043 -0.287 -0.068 c -0.088 -0.029 -0.153 -0.055 -0.199 -0.08 l 0.15 -0.645 c 0.088 0.042 0.214 0.09 0.381 0.145 c 0.167 0.05 0.373 0.074 0.619 0.074 c 0.329 0 0.565 -0.063 0.711 -0.188 c 0.146 -0.129 0.219 -0.299 0.219 -0.512 c 0 -0.137 -0.028 -0.252 -0.086 -0.344 c -0.054 -0.092 -0.132 -0.165 -0.232 -0.219 c -0.096 -0.058 -0.209 -0.098 -0.338 -0.119 c -0.125 -0.025 -0.257 -0.037 -0.398 -0.037 l -0.258 0 l 0 -0.613 l 0.313 0 c 0.096 0 0.193 -0.009 0.289 -0.025 c 0.1 -0.021 0.188 -0.054 0.268 -0.1 c 0.079 -0.05 0.143 -0.114 0.193 -0.193 c 0.05 -0.079 0.076 -0.182 0.076 -0.307 c 0 -0.1 -0.019 -0.185 -0.057 -0.256 c -0.038 -0.071 -0.088 -0.13 -0.15 -0.176 c -0.058 -0.046 -0.126 -0.079 -0.205 -0.1 c -0.079 -0.021 -0.162 -0.031 -0.25 -0.031 c -0.188 0 -0.354 0.03 -0.5 0.088 c -0.146 0.054 -0.276 0.117 -0.389 0.188 l -0.275 -0.563 c 0.058 -0.038 0.13 -0.077 0.213 -0.119 c 0.083 -0.042 0.175 -0.082 0.275 -0.119 c 0.104 -0.037 0.215 -0.067 0.332 -0.088 c 0.117 -0.025 0.238 -0.037 0.367 -0.037 z"/>
</svg>
