<svg viewBox="0 0 22 22" xmlns="http://www.w3.org/2000/svg">
 <path style="fill:#ececec;fill-opacity:1" d="m 3 1 c -1.108 0 -2 0.892 -2 2 l 0 16 c 0 1.108 0.892 2 2 2 l 16 0 c 1.108 0 2 -0.892 2 -2 l 0 -16 c 0 -1.108 -0.892 -2 -2 -2 l -16 0 z m 2.693 5.387 c 0.358 0 0.683 0.03 0.975 0.088 c 0.292 0.05 0.545 0.109 0.762 0.176 c 0.217 0.067 0.395 0.138 0.537 0.213 c 0.142 0.075 0.242 0.129 0.301 0.162 l -0.463 1.287 c -0.2 -0.125 -0.486 -0.241 -0.861 -0.35 c -0.367 -0.117 -0.768 -0.176 -1.201 -0.176 c -0.375 0 -0.724 0.068 -1.049 0.201 c -0.325 0.125 -0.61 0.316 -0.852 0.574 c -0.233 0.258 -0.415 0.583 -0.549 0.975 c -0.133 0.392 -0.201 0.847 -0.201 1.363 c 0 0.458 0.05 0.878 0.15 1.262 c 0.108 0.383 0.272 0.717 0.488 1 c 0.217 0.275 0.491 0.492 0.824 0.65 c 0.333 0.15 0.735 0.225 1.201 0.225 c 0.558 0 1.01 -0.054 1.361 -0.162 c 0.35 -0.117 0.621 -0.224 0.813 -0.324 l 0.426 1.287 c -0.1 0.067 -0.237 0.133 -0.412 0.199 c -0.167 0.067 -0.368 0.135 -0.602 0.201 c -0.233 0.058 -0.495 0.103 -0.787 0.137 c -0.292 0.042 -0.604 0.063 -0.938 0.063 c -0.65 0 -1.233 -0.101 -1.75 -0.301 c -0.517 -0.2 -0.954 -0.492 -1.313 -0.875 c -0.358 -0.392 -0.633 -0.865 -0.824 -1.424 c -0.192 -0.558 -0.287 -1.201 -0.287 -1.926 c 0 -0.725 0.108 -1.365 0.324 -1.924 c 0.225 -0.558 0.529 -1.031 0.912 -1.414 c 0.383 -0.392 0.833 -0.687 1.35 -0.887 c 0.517 -0.2 1.072 -0.301 1.664 -0.301 z m 5.9 2.188 c 0.45 0 0.816 0.059 1.1 0.176 c 0.292 0.117 0.533 0.271 0.725 0.463 c 0.092 -0.067 0.208 -0.138 0.35 -0.213 c 0.142 -0.075 0.302 -0.141 0.477 -0.199 c 0.175 -0.067 0.357 -0.122 0.549 -0.164 c 0.2 -0.042 0.4 -0.063 0.6 -0.063 c 0.508 0 0.925 0.077 1.25 0.227 c 0.333 0.142 0.592 0.345 0.775 0.611 c 0.192 0.258 0.322 0.576 0.389 0.951 c 0.075 0.367 0.111 0.769 0.111 1.211 l 0 3.676 l -1.512 0 l 0 -3.438 c 0 -0.683 -0.083 -1.175 -0.25 -1.475 c -0.167 -0.308 -0.488 -0.463 -0.963 -0.463 c -0.242 0 -0.471 0.042 -0.688 0.125 c -0.217 0.075 -0.38 0.15 -0.488 0.225 c 0.067 0.208 0.114 0.429 0.139 0.662 c 0.025 0.233 0.037 0.483 0.037 0.75 l 0 3.613 l -1.512 0 l 0 -3.438 c 0 -0.683 -0.089 -1.175 -0.264 -1.475 c -0.167 -0.308 -0.483 -0.463 -0.949 -0.463 c -0.167 0 -0.351 0.012 -0.551 0.037 c -0.2 0.025 -0.349 0.046 -0.449 0.063 l 0 5.275 l -1.514 0 l 0 -6.324 c 0.292 -0.083 0.672 -0.163 1.139 -0.238 c 0.475 -0.075 0.975 -0.113 1.5 -0.113 z m 8.432 4.844 l 0.531 0 l 0 4.332 l -0.756 0 l 0 -3.318 c -0.113 0.087 -0.253 0.173 -0.424 0.256 c -0.171 0.083 -0.336 0.153 -0.494 0.207 l -0.232 -0.576 c 0.242 -0.096 0.485 -0.219 0.727 -0.369 c 0.246 -0.15 0.461 -0.327 0.648 -0.531 z"/>
</svg>
