<svg xmlns="http://www.w3.org/2000/svg" viewBox="0 0 22 22">
 <path style="fill:#ececec;fill-opacity:1" d="m 3 1 c -1.108 0 -2 0.892 -2 2 l 0 16 c 0 1.108 0.892 2 2 2 l 16 0 c 1.108 0 2 -0.892 2 -2 l 0 -16 c 0 -1.108 -0.892 -2 -2 -2 l -16 0 z m 1.973 5.5 c 0.525 0 1.013 0.042 1.463 0.125 c 0.45 0.075 0.837 0.203 1.162 0.387 c 0.333 0.183 0.592 0.427 0.775 0.727 c 0.183 0.3 0.275 0.67 0.275 1.111 c 0 0.408 -0.101 0.759 -0.301 1.051 c -0.192 0.292 -0.462 0.524 -0.812 0.699 c 0.525 0.175 0.912 0.434 1.162 0.775 c 0.25 0.342 0.375 0.776 0.375 1.301 c 0 0.892 -0.325 1.562 -0.975 2.01 c -0.65 0.442 -1.647 0.662 -2.988 0.662 c -0.458 0 -0.92 -0.015 -1.387 -0.049 c -0.467 -0.025 -0.875 -0.084 -1.225 -0.176 l 0 -8.412 c 0.183 -0.033 0.38 -0.063 0.588 -0.088 c 0.208 -0.033 0.42 -0.058 0.637 -0.074 c 0.217 -0.017 0.428 -0.031 0.637 -0.039 c 0.217 -0.008 0.422 -0.012 0.613 -0.012 z m 0.199 1.287 c -0.242 0 -0.457 0.005 -0.648 0.014 c -0.183 0.008 -0.343 0.02 -0.477 0.037 l 0 2.275 l 1.113 0 c 0.6 0 1.07 -0.083 1.412 -0.25 c 0.342 -0.175 0.514 -0.484 0.514 -0.926 c 0 -0.417 -0.181 -0.712 -0.539 -0.887 c -0.35 -0.175 -0.808 -0.264 -1.375 -0.264 z m 8.328 0.787 c 0.492 0 0.959 0.038 1.4 0.113 c 0.442 0.075 0.817 0.155 1.125 0.238 l 0 5.662 c 0 1.042 -0.265 1.804 -0.799 2.287 c -0.525 0.483 -1.334 0.725 -2.426 0.725 c -0.4 0 -0.792 -0.033 -1.176 -0.1 c -0.375 -0.067 -0.715 -0.153 -1.023 -0.262 l 0.273 -1.289 c 0.258 0.108 0.55 0.197 0.875 0.264 c 0.333 0.067 0.693 0.1 1.076 0.1 c 0.608 0 1.04 -0.125 1.299 -0.375 c 0.258 -0.25 0.389 -0.622 0.389 -1.113 l 0 -0.25 c -0.15 0.075 -0.35 0.152 -0.6 0.227 c -0.242 0.075 -0.521 0.111 -0.838 0.111 c -0.417 0 -0.8 -0.066 -1.15 -0.199 c -0.342 -0.133 -0.637 -0.33 -0.887 -0.588 c -0.242 -0.258 -0.435 -0.58 -0.576 -0.963 c -0.133 -0.392 -0.199 -0.841 -0.199 -1.35 c 0 -0.475 0.071 -0.912 0.213 -1.313 c 0.15 -0.4 0.362 -0.742 0.637 -1.025 c 0.283 -0.283 0.625 -0.504 1.025 -0.662 c 0.4 -0.158 0.853 -0.238 1.361 -0.238 z m 0.014 1.264 c -0.55 0 -0.972 0.182 -1.264 0.549 c -0.292 0.358 -0.438 0.834 -0.438 1.426 c 0 0.642 0.139 1.112 0.414 1.412 c 0.283 0.292 0.644 0.438 1.086 0.438 c 0.242 0 0.467 -0.033 0.676 -0.1 c 0.217 -0.067 0.392 -0.147 0.525 -0.238 l 0 -3.387 c -0.108 -0.025 -0.242 -0.046 -0.4 -0.063 c -0.158 -0.025 -0.358 -0.037 -0.6 -0.037 z m -9.467 1.512 l 0 2.639 c 0.175 0.017 0.362 0.029 0.563 0.037 c 0.2 0.008 0.384 0.012 0.551 0.012 c 0.325 0 0.625 -0.021 0.9 -0.063 c 0.283 -0.042 0.525 -0.113 0.725 -0.213 c 0.208 -0.108 0.372 -0.249 0.488 -0.424 c 0.125 -0.175 0.188 -0.401 0.188 -0.676 c 0 -0.492 -0.181 -0.834 -0.539 -1.025 c -0.358 -0.192 -0.853 -0.287 -1.486 -0.287 l -1.389 0 z m 14.51 1.969 c 0.242 0 0.45 0.03 0.625 0.088 c 0.175 0.058 0.319 0.142 0.432 0.25 c 0.117 0.104 0.202 0.229 0.256 0.375 c 0.058 0.142 0.088 0.298 0.088 0.469 c 0 0.2 -0.057 0.379 -0.17 0.537 c -0.108 0.158 -0.249 0.28 -0.424 0.363 c 0.225 0.079 0.409 0.209 0.555 0.393 c 0.15 0.183 0.227 0.42 0.227 0.707 c 0 0.192 -0.035 0.37 -0.102 0.537 c -0.067 0.162 -0.167 0.305 -0.305 0.426 c -0.137 0.117 -0.313 0.21 -0.525 0.281 c -0.208 0.067 -0.458 0.1 -0.75 0.1 c -0.113 0 -0.229 -0.009 -0.35 -0.025 c -0.117 -0.012 -0.23 -0.032 -0.338 -0.057 c -0.104 -0.021 -0.2 -0.043 -0.287 -0.068 c -0.088 -0.029 -0.155 -0.055 -0.201 -0.08 l 0.15 -0.645 c 0.087 0.042 0.214 0.09 0.381 0.145 c 0.167 0.05 0.373 0.074 0.619 0.074 c 0.329 0 0.567 -0.063 0.713 -0.188 c 0.146 -0.129 0.219 -0.299 0.219 -0.512 c 0 -0.137 -0.03 -0.252 -0.088 -0.344 c -0.054 -0.092 -0.13 -0.165 -0.23 -0.219 c -0.096 -0.058 -0.209 -0.098 -0.338 -0.119 c -0.125 -0.025 -0.259 -0.037 -0.4 -0.037 l -0.256 0 l 0 -0.613 l 0.313 0 c 0.096 0 0.191 -0.009 0.287 -0.025 c 0.1 -0.021 0.19 -0.054 0.27 -0.1 c 0.079 -0.05 0.143 -0.114 0.193 -0.193 c 0.05 -0.079 0.074 -0.182 0.074 -0.307 c 0 -0.1 -0.019 -0.185 -0.057 -0.256 c -0.037 -0.071 -0.086 -0.13 -0.148 -0.176 c -0.058 -0.046 -0.128 -0.079 -0.207 -0.1 c -0.079 -0.021 -0.163 -0.031 -0.25 -0.031 c -0.188 0 -0.354 0.03 -0.5 0.088 c -0.146 0.054 -0.274 0.117 -0.387 0.188 l -0.275 -0.563 c 0.058 -0.038 0.13 -0.077 0.213 -0.119 c 0.083 -0.042 0.173 -0.082 0.273 -0.119 c 0.104 -0.037 0.215 -0.067 0.332 -0.088 c 0.117 -0.025 0.24 -0.037 0.369 -0.037 z"/>
</svg>
