<svg xmlns="http://www.w3.org/2000/svg" viewBox="0 0 22 22">
 <path d="m 3 1 c -1.108 0 -2 0.892 -2 2 l 0 16 c 0 1.108 0.892 2 2 2 l 16 0 c 1.108 0 2 -0.892 2 -2 l 0 -16 c 0 -1.108 -0.892 -2 -2 -2 l -16 0 z m 1.994 5.5 c 1.25 0 2.205 0.229 2.863 0.688 c 0.667 0.458 1 1.158 1 2.1 c 0 1.175 -0.58 1.972 -1.738 2.389 c 0.158 0.192 0.339 0.424 0.539 0.699 c 0.2 0.275 0.403 0.575 0.611 0.9 c 0.208 0.317 0.408 0.645 0.6 0.986 c 0.192 0.333 0.364 0.663 0.514 0.988 l -1.764 0 c -0.158 -0.3 -0.328 -0.6 -0.512 -0.9 c -0.183 -0.308 -0.371 -0.603 -0.563 -0.887 c -0.183 -0.292 -0.367 -0.563 -0.551 -0.813 c -0.183 -0.258 -0.353 -0.488 -0.512 -0.688 c -0.117 0.008 -0.217 0.012 -0.301 0.012 l -0.236 0 l -0.764 0 l 0 3.275 l -1.574 0 l 0 -8.537 c 0.383 -0.083 0.791 -0.137 1.225 -0.162 c 0.433 -0.033 0.82 -0.051 1.162 -0.051 z m 0.113 1.363 c -0.333 0 -0.642 0.012 -0.926 0.037 l 0 2.799 l 0.688 0 c 0.383 0 0.722 -0.021 1.014 -0.063 c 0.292 -0.042 0.533 -0.116 0.725 -0.225 c 0.2 -0.108 0.349 -0.254 0.449 -0.437 c 0.1 -0.183 0.15 -0.416 0.15 -0.699 c 0 -0.267 -0.05 -0.492 -0.15 -0.676 c -0.1 -0.183 -0.246 -0.329 -0.438 -0.438 c -0.183 -0.108 -0.404 -0.183 -0.662 -0.225 c -0.258 -0.05 -0.541 -0.074 -0.85 -0.074 z m 5.357 0.85 l 1.514 0 l 0 3.424 c 0 0.7 0.099 1.2 0.299 1.5 c 0.208 0.3 0.568 0.451 1.076 0.451 c 0.183 0 0.374 -0.009 0.574 -0.025 c 0.208 -0.017 0.363 -0.037 0.463 -0.063 l 0 -5.287 l 1.512 0 l 0 6.338 c -0.292 0.075 -0.67 0.15 -1.137 0.225 c -0.467 0.083 -0.979 0.125 -1.537 0.125 c -0.525 0 -0.968 -0.075 -1.326 -0.225 c -0.35 -0.15 -0.633 -0.358 -0.85 -0.625 c -0.208 -0.267 -0.358 -0.585 -0.449 -0.951 c -0.092 -0.375 -0.139 -0.783 -0.139 -1.225 l 0 -3.662 z m 9.363 4.682 l 0.043 0.625 c -0.225 0.004 -0.435 0.028 -0.631 0.074 c -0.196 0.042 -0.371 0.108 -0.525 0.199 c -0.154 0.092 -0.288 0.212 -0.4 0.357 c -0.108 0.146 -0.192 0.325 -0.25 0.537 c 0.204 -0.096 0.428 -0.145 0.67 -0.145 c 0.258 0 0.477 0.038 0.656 0.113 c 0.183 0.071 0.331 0.168 0.443 0.293 c 0.113 0.125 0.194 0.271 0.244 0.438 c 0.054 0.163 0.08 0.335 0.08 0.514 c 0 0.163 -0.028 0.329 -0.086 0.5 c -0.054 0.171 -0.143 0.327 -0.264 0.469 c -0.117 0.137 -0.264 0.252 -0.443 0.344 c -0.179 0.088 -0.391 0.131 -0.637 0.131 c -0.496 0 -0.876 -0.163 -1.139 -0.488 c -0.258 -0.329 -0.387 -0.78 -0.387 -1.355 c 0 -0.417 0.061 -0.785 0.182 -1.105 c 0.125 -0.325 0.298 -0.599 0.523 -0.82 c 0.229 -0.221 0.505 -0.387 0.826 -0.5 c 0.325 -0.117 0.69 -0.176 1.094 -0.18 z m -1.188 2.25 c -0.121 0 -0.237 0.01 -0.35 0.031 c -0.113 0.021 -0.215 0.052 -0.307 0.094 c -0.004 0.033 -0.01 0.07 -0.014 0.111 l 0 0.113 c 0 0.167 0.01 0.325 0.031 0.475 c 0.025 0.146 0.065 0.274 0.119 0.387 c 0.058 0.108 0.137 0.197 0.232 0.264 c 0.1 0.063 0.221 0.094 0.367 0.094 c 0.121 0 0.223 -0.026 0.307 -0.076 c 0.088 -0.05 0.159 -0.114 0.213 -0.193 c 0.054 -0.079 0.094 -0.164 0.119 -0.256 c 0.025 -0.096 0.037 -0.188 0.037 -0.275 c 0 -0.25 -0.061 -0.439 -0.182 -0.568 c -0.121 -0.133 -0.312 -0.199 -0.574 -0.199 z" style="fill:#ececec;fill-opacity:1"/>
</svg>
