<svg xmlns="http://www.w3.org/2000/svg" viewBox="0 0 22 22">
 <path style="fill:#ececec;fill-opacity:1" d="m 3 1 c -1.108 0 -2 0.892 -2 2 l 0 16 c 0 1.108 0.892 2 2 2 l 16 0 c 1.108 0 2 -0.892 2 -2 l 0 -16 c 0 -1.108 -0.892 -2 -2 -2 l -16 0 z m 1.418 5.838 l 1.875 0 l 1.912 2.963 l 1.887 -2.963 l 1.801 0 l -2.738 4.125 c 0.633 0.858 1.192 1.671 1.676 2.438 c 0.492 0.767 0.903 1.466 1.236 2.1 l -1.85 0 c -0.242 -0.492 -0.545 -1.033 -0.912 -1.625 c -0.367 -0.592 -0.75 -1.163 -1.15 -1.713 c -0.167 0.217 -0.349 0.475 -0.549 0.775 c -0.192 0.3 -0.388 0.609 -0.588 0.926 c -0.192 0.308 -0.37 0.607 -0.537 0.898 c -0.167 0.292 -0.3 0.538 -0.4 0.738 l -1.787 0 c 0.375 -0.708 0.807 -1.434 1.299 -2.176 c 0.492 -0.75 1.025 -1.533 1.6 -2.35 l -2.773 -4.137 z m 10.891 1.963 c 0.383 0 0.75 0.036 1.1 0.111 c 0.35 0.067 0.612 0.135 0.787 0.201 l -0.275 1.225 c -0.167 -0.075 -0.378 -0.143 -0.637 -0.201 c -0.258 -0.067 -0.559 -0.1 -0.9 -0.1 c -0.308 0 -0.558 0.054 -0.75 0.162 c -0.192 0.1 -0.287 0.26 -0.287 0.477 c 0 0.108 0.015 0.204 0.049 0.287 c 0.042 0.083 0.11 0.161 0.201 0.236 c 0.092 0.067 0.211 0.138 0.361 0.213 c 0.15 0.067 0.334 0.138 0.551 0.213 c 0.358 0.133 0.662 0.267 0.912 0.4 c 0.25 0.125 0.455 0.271 0.613 0.438 c 0.167 0.158 0.286 0.34 0.361 0.549 c 0.075 0.208 0.113 0.458 0.113 0.75 c 0 0.625 -0.233 1.101 -0.699 1.426 c -0.458 0.317 -1.118 0.475 -1.977 0.475 c -0.575 0 -1.037 -0.05 -1.387 -0.15 c -0.35 -0.092 -0.597 -0.166 -0.738 -0.225 l 0.264 -1.262 c 0.225 0.092 0.49 0.178 0.799 0.262 c 0.317 0.083 0.676 0.125 1.076 0.125 c 0.4 0 0.692 -0.045 0.875 -0.137 c 0.183 -0.1 0.275 -0.267 0.275 -0.5 c 0 -0.217 -0.101 -0.395 -0.301 -0.537 c -0.192 -0.142 -0.513 -0.296 -0.963 -0.463 c -0.275 -0.1 -0.528 -0.204 -0.762 -0.313 c -0.225 -0.117 -0.421 -0.25 -0.588 -0.4 c -0.167 -0.15 -0.3 -0.329 -0.4 -0.537 c -0.092 -0.217 -0.137 -0.479 -0.137 -0.787 c 0 -0.6 0.22 -1.072 0.662 -1.414 c 0.442 -0.35 1.042 -0.523 1.801 -0.523 z"/>
</svg>
