<svg viewBox="0 0 22 22" xmlns="http://www.w3.org/2000/svg">
 <path style="fill:#ececec;fill-opacity:1" d="m 3 1 c -1.108 0 -2 0.892 -2 2 l 0 16 c 0 1.108 0.892 2 2 2 l 16 0 c 1.108 0 2 -0.892 2 -2 l 0 -16 c 0 -1.108 -0.892 -2 -2 -2 l -16 0 z m 2.363 5.588 l 1.488 0 c 0.292 0.617 0.575 1.242 0.85 1.875 c 0.275 0.633 0.549 1.3 0.824 2 c 0.283 0.7 0.572 1.441 0.863 2.225 c 0.3 0.783 0.613 1.637 0.938 2.563 l -1.699 0 c -0.117 -0.342 -0.238 -0.678 -0.363 -1.012 c -0.125 -0.333 -0.247 -0.675 -0.363 -1.025 l -3.648 0 c -0.117 0.35 -0.238 0.695 -0.363 1.037 l -0.35 1 l -1.639 0 c 0.325 -0.925 0.634 -1.779 0.926 -2.563 c 0.292 -0.783 0.575 -1.525 0.85 -2.225 c 0.283 -0.7 0.563 -1.367 0.838 -2 c 0.275 -0.633 0.558 -1.258 0.85 -1.875 z m 0.713 1.674 c -0.192 0.442 -0.412 0.98 -0.662 1.613 c -0.242 0.633 -0.497 1.321 -0.764 2.063 l 2.852 0 c -0.267 -0.742 -0.525 -1.433 -0.775 -2.074 c -0.25 -0.642 -0.467 -1.177 -0.65 -1.602 z m 5.05 0.451 l 4.963 0 l 0 1.063 c -0.167 0.175 -0.387 0.42 -0.662 0.736 c -0.267 0.317 -0.555 0.671 -0.863 1.063 c -0.308 0.383 -0.621 0.788 -0.938 1.213 c -0.308 0.417 -0.588 0.818 -0.838 1.201 l 3.375 0 l 0 1.262 l -5.199 0 l 0 -0.938 c 0.183 -0.333 0.412 -0.696 0.688 -1.088 c 0.275 -0.392 0.558 -0.782 0.85 -1.174 c 0.292 -0.4 0.58 -0.78 0.863 -1.139 c 0.292 -0.358 0.55 -0.671 0.775 -0.937 l -3.01 0 l 0 -1.262 z m 7.137 4.605 c 0.462 0 0.801 0.111 1.018 0.332 c 0.221 0.217 0.332 0.513 0.332 0.893 c 0 0.15 -0.031 0.299 -0.094 0.445 c -0.063 0.142 -0.144 0.28 -0.244 0.418 c -0.096 0.133 -0.205 0.265 -0.33 0.395 c -0.125 0.125 -0.25 0.246 -0.375 0.367 c -0.067 0.063 -0.143 0.139 -0.227 0.227 c -0.083 0.087 -0.161 0.174 -0.236 0.262 c -0.075 0.087 -0.139 0.173 -0.193 0.256 c -0.054 0.079 -0.084 0.147 -0.088 0.201 l 1.924 0 l 0 0.637 l -2.756 0 c -0.004 -0.033 -0.006 -0.073 -0.006 -0.119 l 0 -0.111 c 0 -0.2 0.031 -0.384 0.094 -0.551 c 0.067 -0.171 0.152 -0.329 0.256 -0.475 c 0.104 -0.146 0.22 -0.283 0.35 -0.412 c 0.129 -0.129 0.26 -0.258 0.389 -0.383 c 0.1 -0.096 0.195 -0.19 0.287 -0.281 c 0.092 -0.092 0.172 -0.18 0.238 -0.268 c 0.071 -0.092 0.126 -0.184 0.168 -0.275 c 0.042 -0.096 0.063 -0.193 0.063 -0.293 c 0 -0.217 -0.063 -0.371 -0.188 -0.463 c -0.125 -0.092 -0.278 -0.139 -0.457 -0.139 c -0.117 0 -0.224 0.017 -0.324 0.051 c -0.1 0.033 -0.19 0.073 -0.27 0.119 c -0.075 0.046 -0.141 0.093 -0.199 0.143 c -0.058 0.046 -0.102 0.084 -0.131 0.113 l -0.375 -0.531 c 0.175 -0.167 0.378 -0.3 0.611 -0.4 c 0.238 -0.104 0.493 -0.156 0.764 -0.156 z"/>
</svg>
