<svg xmlns="http://www.w3.org/2000/svg" viewBox="0 0 22 22">
 <path style="fill:#ececec;fill-opacity:1" d="m 3 1 c -1.108 0 -2 0.892 -2 2 l 0 16 c 0 1.108 0.892 2 2 2 l 16 0 c 1.108 0 2 -0.892 2 -2 l 0 -16 c 0 -1.108 -0.892 -2 -2 -2 l -16 0 z m 1.559 5.387 c 0.542 0 1.021 0.063 1.438 0.188 c 0.425 0.117 0.758 0.247 1 0.389 l -0.486 1.275 c -0.283 -0.158 -0.596 -0.28 -0.938 -0.363 c -0.333 -0.083 -0.681 -0.125 -1.039 -0.125 c -0.425 0 -0.758 0.087 -1 0.262 c -0.233 0.175 -0.35 0.422 -0.35 0.738 c 0 0.192 0.038 0.358 0.113 0.5 c 0.083 0.133 0.196 0.255 0.338 0.363 c 0.15 0.108 0.32 0.207 0.512 0.299 c 0.2 0.092 0.417 0.18 0.65 0.264 c 0.408 0.15 0.771 0.303 1.088 0.461 c 0.325 0.15 0.596 0.334 0.813 0.551 c 0.225 0.208 0.395 0.458 0.512 0.75 c 0.117 0.283 0.176 0.629 0.176 1.037 c 0 0.783 -0.28 1.393 -0.838 1.826 c -0.55 0.425 -1.359 0.637 -2.426 0.637 c -0.358 0 -0.686 -0.024 -0.986 -0.074 c -0.292 -0.042 -0.556 -0.097 -0.789 -0.164 c -0.225 -0.067 -0.419 -0.133 -0.586 -0.199 c -0.167 -0.075 -0.3 -0.141 -0.4 -0.199 l 0.463 -1.289 c 0.225 0.125 0.529 0.25 0.912 0.375 c 0.383 0.125 0.845 0.188 1.387 0.188 c 0.567 0 0.98 -0.095 1.238 -0.287 c 0.258 -0.192 0.387 -0.462 0.387 -0.813 c 0 -0.208 -0.045 -0.387 -0.137 -0.537 c -0.083 -0.15 -0.208 -0.284 -0.375 -0.4 c -0.158 -0.125 -0.355 -0.238 -0.588 -0.338 c -0.233 -0.108 -0.501 -0.212 -0.801 -0.313 c -0.3 -0.108 -0.592 -0.225 -0.875 -0.35 c -0.275 -0.133 -0.52 -0.295 -0.736 -0.486 c -0.208 -0.192 -0.38 -0.421 -0.514 -0.687 c -0.125 -0.267 -0.188 -0.588 -0.188 -0.963 c 0 -0.783 0.271 -1.396 0.813 -1.838 c 0.542 -0.45 1.28 -0.676 2.213 -0.676 z m 3.352 2.326 l 1.6 0 c 0.075 0.35 0.162 0.728 0.262 1.137 c 0.1 0.4 0.204 0.813 0.312 1.238 c 0.108 0.417 0.221 0.825 0.338 1.225 c 0.117 0.4 0.233 0.766 0.35 1.1 c 0.125 -0.383 0.247 -0.779 0.363 -1.188 c 0.125 -0.408 0.241 -0.816 0.35 -1.225 c 0.108 -0.408 0.209 -0.804 0.301 -1.188 c 0.1 -0.392 0.187 -0.758 0.262 -1.1 l 1.162 0 c 0.075 0.342 0.158 0.708 0.25 1.1 c 0.092 0.383 0.189 0.779 0.289 1.188 c 0.108 0.408 0.219 0.816 0.336 1.225 c 0.125 0.408 0.25 0.804 0.375 1.188 c 0.108 -0.333 0.221 -0.7 0.338 -1.1 c 0.117 -0.4 0.23 -0.808 0.338 -1.225 c 0.117 -0.425 0.224 -0.838 0.324 -1.238 c 0.1 -0.408 0.189 -0.787 0.264 -1.137 l 1.563 0 c -0.175 0.642 -0.354 1.27 -0.537 1.887 c -0.183 0.617 -0.367 1.205 -0.551 1.764 c -0.183 0.558 -0.367 1.083 -0.551 1.574 c -0.183 0.492 -0.362 0.929 -0.537 1.313 l -1.225 0 c -0.217 -0.617 -0.442 -1.271 -0.676 -1.963 c -0.225 -0.7 -0.433 -1.417 -0.625 -2.15 c -0.192 0.733 -0.4 1.45 -0.625 2.15 c -0.217 0.692 -0.432 1.346 -0.648 1.963 l -1.238 0 c -0.167 -0.383 -0.342 -0.821 -0.525 -1.313 c -0.183 -0.492 -0.365 -1.016 -0.549 -1.574 c -0.183 -0.558 -0.367 -1.147 -0.551 -1.764 c -0.183 -0.617 -0.362 -1.245 -0.537 -1.887 z m 11.49 4.705 l 0.531 0 l 0 4.332 l -0.756 0 l 0 -3.318 c -0.113 0.087 -0.253 0.173 -0.424 0.256 c -0.171 0.083 -0.336 0.153 -0.494 0.207 l -0.232 -0.576 c 0.242 -0.096 0.485 -0.219 0.727 -0.369 c 0.246 -0.15 0.461 -0.327 0.648 -0.531 z"/>
</svg>
