<svg xmlns="http://www.w3.org/2000/svg" viewBox="0 0 22 22">
 <path d="m 3 1 c -1.108 0 -2 0.892 -2 2 l 0 16 c 0 1.108 0.892 2 2 2 l 16 0 c 1.108 0 2 -0.892 2 -2 l 0 -16 c 0 -1.108 -0.892 -2 -2 -2 l -16 0 z m 5.32 5.637 c 0.4 0 0.754 0.03 1.063 0.088 c 0.317 0.05 0.588 0.109 0.812 0.176 c 0.225 0.067 0.407 0.138 0.549 0.213 c 0.15 0.075 0.254 0.129 0.313 0.162 l -0.475 1.287 c -0.25 -0.15 -0.563 -0.275 -0.937 -0.375 c -0.367 -0.108 -0.754 -0.162 -1.162 -0.162 c -0.892 0 -1.576 0.28 -2.051 0.838 c -0.467 0.55 -0.699 1.315 -0.699 2.299 c 0 0.467 0.054 0.895 0.162 1.287 c 0.117 0.383 0.283 0.713 0.5 0.988 c 0.225 0.275 0.501 0.492 0.826 0.65 c 0.333 0.15 0.72 0.225 1.162 0.225 c 0.275 0 0.513 -0.009 0.713 -0.025 c 0.2 -0.025 0.358 -0.055 0.475 -0.088 l 0 -3.111 l 1.574 0 l 0 4.162 c -0.217 0.083 -0.583 0.175 -1.1 0.275 c -0.517 0.1 -1.112 0.15 -1.787 0.15 c -0.625 0 -1.196 -0.101 -1.713 -0.301 c -0.517 -0.2 -0.958 -0.492 -1.324 -0.875 c -0.358 -0.383 -0.638 -0.854 -0.838 -1.412 c -0.2 -0.558 -0.301 -1.201 -0.301 -1.926 c 0 -0.725 0.11 -1.365 0.326 -1.924 c 0.225 -0.558 0.529 -1.031 0.912 -1.414 c 0.383 -0.392 0.833 -0.687 1.35 -0.887 c 0.517 -0.2 1.067 -0.301 1.65 -0.301 z m 6.758 2.164 c 0.5 0 0.92 0.063 1.262 0.188 c 0.342 0.125 0.613 0.298 0.813 0.523 c 0.208 0.225 0.354 0.501 0.438 0.826 c 0.092 0.317 0.137 0.665 0.137 1.049 l 0 3.963 c -0.233 0.05 -0.587 0.109 -1.063 0.176 c -0.467 0.075 -0.994 0.111 -1.586 0.111 c -0.392 0 -0.751 -0.036 -1.076 -0.111 c -0.325 -0.075 -0.605 -0.197 -0.838 -0.363 c -0.225 -0.167 -0.404 -0.384 -0.537 -0.65 c -0.125 -0.267 -0.188 -0.595 -0.188 -0.986 c 0 -0.375 0.071 -0.693 0.213 -0.951 c 0.15 -0.258 0.35 -0.467 0.6 -0.625 c 0.25 -0.167 0.538 -0.283 0.863 -0.35 c 0.333 -0.075 0.679 -0.111 1.037 -0.111 c 0.167 0 0.342 0.012 0.525 0.037 c 0.183 0.017 0.38 0.05 0.588 0.1 l 0 -0.25 c 0 -0.175 -0.021 -0.342 -0.063 -0.5 c -0.042 -0.158 -0.118 -0.295 -0.227 -0.412 c -0.1 -0.125 -0.237 -0.22 -0.412 -0.287 c -0.167 -0.067 -0.378 -0.102 -0.637 -0.102 c -0.35 0 -0.671 0.026 -0.963 0.076 c -0.292 0.05 -0.53 0.107 -0.713 0.174 l -0.188 -1.225 c 0.192 -0.067 0.471 -0.133 0.838 -0.199 c 0.367 -0.067 0.759 -0.1 1.176 -0.1 z m 0.299 3.773 c -0.167 0 -0.337 0.014 -0.512 0.039 c -0.167 0.025 -0.321 0.07 -0.463 0.137 c -0.133 0.067 -0.241 0.162 -0.324 0.287 c -0.083 0.117 -0.125 0.268 -0.125 0.451 c 0 0.358 0.111 0.608 0.336 0.75 c 0.225 0.133 0.531 0.199 0.914 0.199 c 0.467 0 0.821 -0.024 1.063 -0.074 l 0 -1.676 c -0.083 -0.025 -0.205 -0.049 -0.363 -0.074 c -0.158 -0.025 -0.334 -0.039 -0.525 -0.039 z" style="fill:#ececec;fill-opacity:1"/>
</svg>
