<svg xmlns="http://www.w3.org/2000/svg" viewBox="0 0 22 22">
 <path style="fill:#ececec;fill-opacity:1" d="m 3 1 c -1.108 0 -2 0.892 -2 2 l 0 16 c 0 1.108 0.892 2 2 2 l 16 0 c 1.108 0 2 -0.892 2 -2 l 0 -16 c 0 -1.108 -0.892 -2 -2 -2 l -16 0 z m 1.631 5.5 c 0.725 0 1.388 0.087 1.988 0.262 c 0.6 0.167 1.112 0.434 1.537 0.801 c 0.433 0.358 0.767 0.817 1 1.375 c 0.233 0.55 0.35 1.208 0.35 1.975 c 0 0.75 -0.116 1.405 -0.35 1.963 c -0.233 0.55 -0.567 1.012 -1 1.387 c -0.425 0.367 -0.942 0.643 -1.551 0.826 c -0.6 0.175 -1.267 0.262 -2 0.262 c -0.35 0 -0.746 -0.015 -1.187 -0.049 c -0.442 -0.025 -0.862 -0.084 -1.262 -0.176 l 0 -8.412 c 0.4 -0.092 0.825 -0.151 1.275 -0.176 c 0.45 -0.025 0.849 -0.037 1.199 -0.037 z m 0.1 1.363 c -0.467 0 -0.8 0.012 -1 0.037 l 0 6.05 c 0.092 0.008 0.213 0.017 0.363 0.025 l 0.611 0 c 1.058 0 1.847 -0.265 2.363 -0.799 c 0.525 -0.542 0.787 -1.297 0.787 -2.264 c 0 -0.983 -0.253 -1.737 -0.762 -2.262 c -0.508 -0.525 -1.297 -0.787 -2.363 -0.787 z m 9.107 0.687 c 0.9 0 1.6 0.278 2.1 0.836 c 0.508 0.558 0.764 1.392 0.764 2.5 c 0 0.083 -0.005 0.181 -0.014 0.289 c 0 0.1 -0.003 0.19 -0.012 0.273 l -4.313 0 c 0.042 0.525 0.224 0.935 0.549 1.227 c 0.333 0.283 0.813 0.424 1.438 0.424 c 0.367 0 0.7 -0.033 1 -0.1 c 0.308 -0.067 0.552 -0.138 0.727 -0.213 l 0.199 1.238 c -0.083 0.042 -0.2 0.087 -0.35 0.137 c -0.142 0.042 -0.308 0.08 -0.5 0.113 c -0.183 0.042 -0.383 0.075 -0.6 0.1 c -0.217 0.025 -0.439 0.037 -0.664 0.037 c -0.575 0 -1.075 -0.083 -1.5 -0.25 c -0.425 -0.175 -0.774 -0.413 -1.049 -0.713 c -0.275 -0.308 -0.48 -0.666 -0.613 -1.074 c -0.133 -0.417 -0.199 -0.872 -0.199 -1.363 c 0 -0.575 0.083 -1.078 0.25 -1.512 c 0.175 -0.433 0.404 -0.791 0.688 -1.074 c 0.283 -0.292 0.608 -0.509 0.975 -0.65 c 0.367 -0.15 0.742 -0.225 1.125 -0.225 z m 0.012 1.262 c -0.233 0 -0.436 0.045 -0.611 0.137 c -0.175 0.083 -0.326 0.196 -0.451 0.338 c -0.117 0.142 -0.207 0.305 -0.273 0.488 c -0.067 0.183 -0.114 0.371 -0.139 0.563 l 2.813 0 c 0 -0.208 -0.03 -0.405 -0.088 -0.588 c -0.058 -0.192 -0.145 -0.355 -0.262 -0.488 c -0.108 -0.142 -0.245 -0.249 -0.412 -0.324 c -0.158 -0.083 -0.351 -0.125 -0.576 -0.125 z m 5.137 3.506 c 0.462 0 0.801 0.111 1.018 0.332 c 0.221 0.217 0.332 0.513 0.332 0.893 c 0 0.15 -0.031 0.299 -0.094 0.445 c -0.063 0.142 -0.144 0.28 -0.244 0.418 c -0.096 0.133 -0.207 0.265 -0.332 0.395 c -0.125 0.125 -0.25 0.246 -0.375 0.367 c -0.067 0.063 -0.141 0.139 -0.225 0.227 c -0.083 0.087 -0.161 0.174 -0.236 0.262 c -0.075 0.087 -0.141 0.173 -0.195 0.256 c -0.054 0.079 -0.082 0.147 -0.086 0.201 l 1.924 0 l 0 0.637 l -2.756 0 c -0.004 -0.033 -0.006 -0.073 -0.006 -0.119 l 0 -0.111 c 0 -0.2 0.031 -0.384 0.094 -0.551 c 0.067 -0.171 0.152 -0.329 0.256 -0.475 c 0.104 -0.146 0.22 -0.283 0.35 -0.412 c 0.129 -0.129 0.26 -0.258 0.389 -0.383 c 0.1 -0.096 0.195 -0.19 0.287 -0.281 c 0.092 -0.092 0.17 -0.18 0.236 -0.268 c 0.071 -0.092 0.128 -0.184 0.17 -0.275 c 0.042 -0.096 0.063 -0.193 0.063 -0.293 c 0 -0.217 -0.063 -0.371 -0.188 -0.463 c -0.125 -0.092 -0.278 -0.139 -0.457 -0.139 c -0.117 0 -0.224 0.017 -0.324 0.051 c -0.1 0.033 -0.19 0.073 -0.27 0.119 c -0.075 0.046 -0.141 0.093 -0.199 0.143 c -0.058 0.046 -0.102 0.084 -0.131 0.113 l -0.375 -0.531 c 0.175 -0.167 0.378 -0.3 0.611 -0.4 c 0.238 -0.104 0.493 -0.156 0.764 -0.156 z"/>
</svg>
