<svg xmlns="http://www.w3.org/2000/svg" viewBox="0 0 22 22">
 <path style="fill:#ececec;fill-opacity:1" d="m 3 1 c -1.108 0 -2 0.892 -2 2 l 0 16 c 0 1.108 0.892 2 2 2 l 16 0 c 1.108 0 2 -0.892 2 -2 l 0 -16 c 0 -1.108 -0.892 -2 -2 -2 l -16 0 z m 9.65 4.551 l 0 5.711 c 0.192 -0.2 0.397 -0.412 0.613 -0.637 c 0.217 -0.233 0.428 -0.463 0.637 -0.688 c 0.208 -0.233 0.405 -0.454 0.588 -0.662 c 0.192 -0.217 0.355 -0.404 0.488 -0.563 l 1.787 0 c -0.417 0.467 -0.858 0.949 -1.324 1.449 c -0.458 0.5 -0.922 0.988 -1.389 1.463 c 0.25 0.208 0.512 0.462 0.787 0.762 c 0.275 0.292 0.542 0.604 0.801 0.938 c 0.258 0.333 0.5 0.667 0.725 1 c 0.225 0.333 0.412 0.642 0.563 0.926 l -1.75 0 c -0.15 -0.258 -0.325 -0.529 -0.525 -0.813 c -0.192 -0.283 -0.4 -0.558 -0.625 -0.824 c -0.225 -0.267 -0.454 -0.517 -0.688 -0.75 c -0.233 -0.242 -0.463 -0.447 -0.688 -0.613 l 0 3 l -1.512 0 l 0 -9.449 l 1.512 -0.25 z m -10.289 1.037 l 1.588 0 l 0 5.262 c 0 0.392 0.042 0.73 0.125 1.014 c 0.092 0.275 0.217 0.499 0.375 0.674 c 0.167 0.175 0.36 0.305 0.576 0.389 c 0.225 0.083 0.475 0.125 0.75 0.125 c 0.275 0 0.525 -0.042 0.75 -0.125 c 0.225 -0.083 0.416 -0.214 0.574 -0.389 c 0.167 -0.175 0.292 -0.399 0.375 -0.674 c 0.092 -0.283 0.137 -0.622 0.137 -1.014 l 0 -5.262 l 1.588 0 l 0 5.412 c 0 0.5 -0.071 0.958 -0.213 1.375 c -0.133 0.417 -0.342 0.78 -0.625 1.088 c -0.275 0.308 -0.629 0.55 -1.063 0.725 c -0.433 0.167 -0.945 0.25 -1.537 0.25 c -0.592 0 -1.1 -0.083 -1.525 -0.25 c -0.425 -0.175 -0.779 -0.416 -1.062 -0.725 c -0.275 -0.308 -0.478 -0.671 -0.611 -1.088 c -0.133 -0.417 -0.201 -0.875 -0.201 -1.375 l 0 -5.412 z m 17.65 6.807 l 0.043 0.625 c -0.225 0.004 -0.435 0.028 -0.631 0.074 c -0.196 0.042 -0.371 0.108 -0.525 0.199 c -0.154 0.092 -0.288 0.212 -0.4 0.357 c -0.108 0.146 -0.192 0.325 -0.25 0.537 c 0.204 -0.096 0.428 -0.145 0.67 -0.145 c 0.258 0 0.477 0.038 0.656 0.113 c 0.183 0.071 0.331 0.168 0.443 0.293 c 0.113 0.125 0.194 0.271 0.244 0.438 c 0.054 0.163 0.08 0.335 0.08 0.514 c 0 0.163 -0.03 0.329 -0.088 0.5 c -0.054 0.171 -0.141 0.327 -0.262 0.469 c -0.117 0.137 -0.264 0.252 -0.443 0.344 c -0.179 0.088 -0.393 0.131 -0.639 0.131 c -0.496 0 -0.874 -0.163 -1.137 -0.488 c -0.258 -0.329 -0.387 -0.78 -0.387 -1.355 c 0 -0.417 0.059 -0.785 0.18 -1.105 c 0.125 -0.325 0.3 -0.599 0.525 -0.82 c 0.229 -0.221 0.505 -0.387 0.826 -0.5 c 0.325 -0.117 0.69 -0.176 1.094 -0.18 z m -1.188 2.25 c -0.121 0 -0.239 0.01 -0.352 0.031 c -0.113 0.021 -0.213 0.052 -0.305 0.094 c -0.004 0.033 -0.01 0.07 -0.014 0.111 l 0 0.113 c 0 0.167 0.01 0.325 0.031 0.475 c 0.025 0.146 0.065 0.274 0.119 0.387 c 0.058 0.108 0.135 0.197 0.23 0.264 c 0.1 0.063 0.223 0.094 0.369 0.094 c 0.121 0 0.223 -0.026 0.307 -0.076 c 0.088 -0.05 0.159 -0.114 0.213 -0.193 c 0.054 -0.079 0.094 -0.164 0.119 -0.256 c 0.025 -0.096 0.037 -0.188 0.037 -0.275 c 0 -0.25 -0.061 -0.439 -0.182 -0.568 c -0.121 -0.133 -0.312 -0.199 -0.574 -0.199 z"/>
</svg>
