<svg xmlns="http://www.w3.org/2000/svg" viewBox="0 0 22 22">
 <path d="m 3 1 c -1.108 0 -2 0.892 -2 2 l 0 16 c 0 1.108 0.892 2 2 2 l 16 0 c 1.108 0 2 -0.892 2 -2 l 0 -16 c 0 -1.108 -0.892 -2 -2 -2 l -16 0 z m 2.779 5.5 c 0.525 0 1.01 0.042 1.461 0.125 c 0.45 0.075 0.839 0.203 1.164 0.387 c 0.333 0.183 0.59 0.427 0.773 0.727 c 0.183 0.3 0.275 0.67 0.275 1.111 c 0 0.408 -0.099 0.759 -0.299 1.051 c -0.192 0.292 -0.463 0.524 -0.813 0.699 c 0.525 0.175 0.912 0.434 1.162 0.775 c 0.25 0.342 0.375 0.776 0.375 1.301 c 0 0.892 -0.325 1.562 -0.975 2.01 c -0.65 0.442 -1.647 0.662 -2.988 0.662 c -0.458 0 -0.92 -0.015 -1.387 -0.049 c -0.467 -0.025 -0.877 -0.084 -1.227 -0.176 l 0 -8.412 c 0.183 -0.033 0.38 -0.063 0.588 -0.088 c 0.208 -0.033 0.422 -0.058 0.639 -0.074 c 0.217 -0.017 0.428 -0.031 0.637 -0.039 c 0.217 -0.008 0.422 -0.012 0.613 -0.012 z m 0.199 1.287 c -0.242 0 -0.459 0.005 -0.65 0.014 c -0.183 0.008 -0.341 0.02 -0.475 0.037 l 0 2.275 l 1.113 0 c 0.6 0 1.07 -0.083 1.412 -0.25 c 0.342 -0.175 0.512 -0.484 0.512 -0.926 c 0 -0.417 -0.179 -0.712 -0.537 -0.887 c -0.35 -0.175 -0.808 -0.264 -1.375 -0.264 z m 7.553 0.764 c 0.383 0 0.75 0.036 1.1 0.111 c 0.35 0.067 0.614 0.135 0.789 0.201 l -0.275 1.225 c -0.167 -0.075 -0.38 -0.143 -0.639 -0.201 c -0.258 -0.067 -0.557 -0.1 -0.898 -0.1 c -0.308 0 -0.558 0.054 -0.75 0.162 c -0.192 0.1 -0.289 0.26 -0.289 0.477 c 0 0.108 0.017 0.204 0.051 0.287 c 0.042 0.083 0.108 0.161 0.199 0.236 c 0.092 0.067 0.213 0.138 0.363 0.213 c 0.15 0.067 0.334 0.138 0.551 0.213 c 0.358 0.133 0.662 0.267 0.912 0.4 c 0.25 0.125 0.453 0.271 0.611 0.438 c 0.167 0.158 0.288 0.34 0.363 0.549 c 0.075 0.208 0.113 0.458 0.113 0.75 c 0 0.625 -0.235 1.101 -0.701 1.426 c -0.458 0.317 -1.116 0.475 -1.975 0.475 c -0.575 0 -1.037 -0.05 -1.387 -0.15 c -0.35 -0.092 -0.597 -0.166 -0.738 -0.225 l 0.262 -1.262 c 0.225 0.092 0.492 0.178 0.801 0.262 c 0.317 0.083 0.674 0.125 1.074 0.125 c 0.4 0 0.692 -0.045 0.875 -0.137 c 0.183 -0.1 0.275 -0.267 0.275 -0.5 c 0 -0.217 -0.099 -0.395 -0.299 -0.537 c -0.192 -0.142 -0.513 -0.296 -0.963 -0.463 c -0.275 -0.1 -0.53 -0.204 -0.764 -0.313 c -0.225 -0.117 -0.419 -0.25 -0.586 -0.4 c -0.167 -0.15 -0.3 -0.329 -0.4 -0.537 c -0.092 -0.217 -0.139 -0.479 -0.139 -0.787 c 0 -0.6 0.222 -1.072 0.664 -1.414 c 0.442 -0.35 1.04 -0.523 1.799 -0.523 z m -8.678 2.799 l 0 2.639 c 0.175 0.017 0.363 0.029 0.563 0.037 c 0.2 0.008 0.384 0.012 0.551 0.012 c 0.325 0 0.623 -0.021 0.898 -0.063 c 0.283 -0.042 0.527 -0.113 0.727 -0.213 c 0.208 -0.108 0.37 -0.249 0.486 -0.424 c 0.125 -0.175 0.188 -0.401 0.188 -0.676 c 0 -0.492 -0.179 -0.834 -0.537 -1.025 c -0.358 -0.192 -0.855 -0.287 -1.488 -0.287 l -1.387 0 z m 12.984 1.969 c 0.463 0 0.803 0.111 1.02 0.332 c 0.221 0.217 0.33 0.513 0.33 0.893 c 0 0.15 -0.031 0.299 -0.094 0.445 c -0.063 0.142 -0.142 0.28 -0.242 0.418 c -0.096 0.133 -0.207 0.265 -0.332 0.395 c -0.125 0.125 -0.25 0.246 -0.375 0.367 c -0.067 0.063 -0.141 0.139 -0.225 0.227 c -0.083 0.087 -0.163 0.174 -0.238 0.262 c -0.075 0.087 -0.139 0.173 -0.193 0.256 c -0.054 0.079 -0.084 0.147 -0.088 0.201 l 1.926 0 l 0 0.637 l -2.756 0 c -0.004 -0.033 -0.008 -0.073 -0.008 -0.119 l 0 -0.111 c 0 -0.2 0.031 -0.384 0.094 -0.551 c 0.067 -0.171 0.154 -0.329 0.258 -0.475 c 0.104 -0.146 0.22 -0.283 0.35 -0.412 c 0.129 -0.129 0.258 -0.258 0.387 -0.383 c 0.1 -0.096 0.195 -0.19 0.287 -0.281 c 0.092 -0.092 0.172 -0.18 0.238 -0.268 c 0.071 -0.092 0.126 -0.184 0.168 -0.275 c 0.042 -0.096 0.063 -0.193 0.063 -0.293 c 0 -0.217 -0.063 -0.371 -0.188 -0.463 c -0.125 -0.092 -0.276 -0.139 -0.455 -0.139 c -0.117 0 -0.226 0.017 -0.326 0.051 c -0.1 0.033 -0.188 0.073 -0.268 0.119 c -0.075 0.046 -0.143 0.093 -0.201 0.143 c -0.058 0.046 -0.102 0.084 -0.131 0.113 l -0.375 -0.531 c 0.175 -0.167 0.38 -0.3 0.613 -0.4 c 0.238 -0.104 0.491 -0.156 0.762 -0.156 z" style="fill:#ececec;fill-opacity:1"/>
</svg>
