<svg xmlns="http://www.w3.org/2000/svg" viewBox="0 0 22 22">
 <path d="m 3 1 c -1.108 0 -2 0.892 -2 2 l 0 16 c 0 1.108 0.892 2 2 2 l 16 0 c 1.108 0 2 -0.892 2 -2 l 0 -16 c 0 -1.108 -0.892 -2 -2 -2 l -16 0 z m 3.916 5.387 c 0.542 0 1.021 0.063 1.438 0.188 c 0.425 0.117 0.758 0.247 1 0.389 l -0.488 1.275 c -0.283 -0.158 -0.596 -0.28 -0.938 -0.363 c -0.333 -0.083 -0.679 -0.125 -1.037 -0.125 c -0.425 0 -0.758 0.087 -1 0.262 c -0.233 0.175 -0.35 0.422 -0.35 0.738 c 0 0.192 0.036 0.358 0.111 0.5 c 0.083 0.133 0.196 0.255 0.338 0.363 c 0.15 0.108 0.32 0.207 0.512 0.299 c 0.2 0.092 0.417 0.18 0.65 0.264 c 0.408 0.15 0.771 0.303 1.088 0.461 c 0.325 0.15 0.596 0.334 0.813 0.551 c 0.225 0.208 0.395 0.458 0.512 0.75 c 0.117 0.283 0.176 0.629 0.176 1.037 c 0 0.783 -0.28 1.393 -0.838 1.826 c -0.55 0.425 -1.357 0.637 -2.424 0.637 c -0.358 0 -0.688 -0.024 -0.988 -0.074 c -0.292 -0.042 -0.554 -0.097 -0.787 -0.164 c -0.225 -0.067 -0.421 -0.133 -0.588 -0.199 c -0.167 -0.075 -0.3 -0.141 -0.4 -0.199 l 0.463 -1.289 c 0.225 0.125 0.529 0.25 0.912 0.375 c 0.383 0.125 0.847 0.188 1.389 0.188 c 0.567 0 0.978 -0.095 1.236 -0.287 c 0.258 -0.192 0.389 -0.462 0.389 -0.813 c 0 -0.208 -0.047 -0.387 -0.139 -0.537 c -0.083 -0.15 -0.208 -0.284 -0.375 -0.4 c -0.158 -0.125 -0.355 -0.238 -0.588 -0.338 c -0.233 -0.108 -0.499 -0.212 -0.799 -0.313 c -0.3 -0.108 -0.592 -0.225 -0.875 -0.35 c -0.275 -0.133 -0.522 -0.295 -0.738 -0.486 c -0.208 -0.192 -0.378 -0.421 -0.512 -0.687 c -0.125 -0.267 -0.188 -0.588 -0.188 -0.963 c 0 -0.783 0.271 -1.396 0.813 -1.838 c 0.542 -0.45 1.28 -0.676 2.213 -0.676 z m 6.676 2.188 c 0.1 0 0.216 0.009 0.35 0.025 c 0.133 0.008 0.267 0.026 0.4 0.051 c 0.133 0.017 0.262 0.041 0.387 0.074 c 0.125 0.025 0.226 0.051 0.301 0.076 l -0.264 1.273 c -0.125 -0.042 -0.3 -0.083 -0.525 -0.125 c -0.217 -0.05 -0.47 -0.074 -0.762 -0.074 c -0.167 0 -0.345 0.017 -0.537 0.051 c -0.183 0.033 -0.314 0.061 -0.389 0.086 l 0 5.238 l -1.512 0 l 0 -6.225 c 0.292 -0.108 0.655 -0.209 1.088 -0.301 c 0.442 -0.1 0.93 -0.15 1.463 -0.15 z m 3.291 4.744 c 0.246 0 0.454 0.037 0.625 0.107 c 0.175 0.071 0.317 0.161 0.426 0.273 c 0.113 0.113 0.192 0.238 0.242 0.375 c 0.05 0.138 0.076 0.271 0.076 0.4 c 0 0.229 -0.063 0.434 -0.188 0.613 c -0.125 0.175 -0.269 0.314 -0.432 0.418 c 0.246 0.133 0.426 0.288 0.543 0.463 c 0.121 0.175 0.182 0.382 0.182 0.619 c 0 0.179 -0.031 0.346 -0.094 0.5 c -0.063 0.154 -0.156 0.288 -0.281 0.4 c -0.125 0.113 -0.281 0.199 -0.469 0.262 c -0.183 0.063 -0.395 0.094 -0.637 0.094 c -0.283 0 -0.52 -0.04 -0.707 -0.119 c -0.188 -0.079 -0.337 -0.178 -0.449 -0.299 c -0.113 -0.121 -0.194 -0.251 -0.244 -0.389 c -0.046 -0.142 -0.068 -0.275 -0.068 -0.4 c 0 -0.125 0.015 -0.24 0.049 -0.344 c 0.037 -0.108 0.088 -0.205 0.15 -0.293 c 0.063 -0.092 0.134 -0.175 0.213 -0.25 c 0.079 -0.075 0.162 -0.141 0.25 -0.199 c -0.192 -0.133 -0.336 -0.277 -0.432 -0.432 c -0.092 -0.158 -0.137 -0.351 -0.137 -0.576 c 0 -0.162 0.031 -0.315 0.094 -0.461 c 0.067 -0.15 0.16 -0.282 0.281 -0.395 c 0.121 -0.113 0.267 -0.203 0.438 -0.27 c 0.171 -0.067 0.36 -0.1 0.568 -0.1 z m 0 0.619 c -0.113 0 -0.21 0.019 -0.293 0.057 c -0.079 0.033 -0.145 0.078 -0.195 0.137 c -0.05 0.054 -0.086 0.115 -0.111 0.182 c -0.025 0.063 -0.037 0.125 -0.037 0.188 c 0 0.158 0.057 0.308 0.174 0.449 c 0.121 0.142 0.32 0.255 0.6 0.338 c 0.154 -0.096 0.276 -0.203 0.363 -0.324 c 0.088 -0.125 0.131 -0.283 0.131 -0.475 c 0 -0.054 -0.012 -0.113 -0.037 -0.176 c -0.021 -0.067 -0.059 -0.127 -0.113 -0.182 c -0.05 -0.054 -0.114 -0.099 -0.193 -0.137 c -0.079 -0.038 -0.175 -0.057 -0.287 -0.057 z m -0.23 1.855 c -0.15 0.096 -0.272 0.214 -0.363 0.352 c -0.092 0.133 -0.137 0.293 -0.137 0.48 c 0 0.063 0.012 0.128 0.037 0.199 c 0.025 0.071 0.067 0.137 0.125 0.195 c 0.058 0.058 0.133 0.107 0.225 0.148 c 0.092 0.038 0.206 0.057 0.344 0.057 c 0.125 0 0.233 -0.015 0.324 -0.049 c 0.092 -0.033 0.168 -0.079 0.227 -0.133 c 0.058 -0.058 0.102 -0.123 0.131 -0.193 c 0.029 -0.075 0.043 -0.15 0.043 -0.225 c 0 -0.117 -0.023 -0.219 -0.068 -0.307 c -0.046 -0.088 -0.112 -0.162 -0.199 -0.225 c -0.083 -0.067 -0.184 -0.122 -0.301 -0.168 c -0.117 -0.05 -0.245 -0.095 -0.387 -0.133 z" style="fill:#ececec;fill-opacity:1"/>
</svg>
