<svg xmlns="http://www.w3.org/2000/svg" viewBox="0 0 22 22">
 <path d="m 3 1 c -1.108 0 -2 0.892 -2 2 l 0 16 c 0 1.108 0.892 2 2 2 l 16 0 c 1.108 0 2 -0.892 2 -2 l 0 -16 c 0 -1.108 -0.892 -2 -2 -2 l -16 0 z m -0.344 5.588 l 1.574 0 l 0 3.574 c 0.275 -0.275 0.563 -0.567 0.863 -0.875 c 0.3 -0.317 0.595 -0.633 0.887 -0.949 c 0.3 -0.325 0.585 -0.637 0.852 -0.938 c 0.267 -0.3 0.508 -0.571 0.725 -0.813 l 1.887 0 c -0.275 0.317 -0.567 0.645 -0.875 0.986 c -0.308 0.342 -0.624 0.689 -0.949 1.039 c -0.325 0.342 -0.655 0.682 -0.988 1.023 c -0.325 0.342 -0.646 0.668 -0.963 0.977 c 0.35 0.267 0.704 0.579 1.063 0.938 c 0.367 0.35 0.726 0.728 1.076 1.137 c 0.35 0.4 0.683 0.82 1 1.262 c 0.325 0.433 0.62 0.867 0.887 1.301 l -1.861 0 c -0.217 -0.333 -0.467 -0.684 -0.75 -1.051 c -0.283 -0.367 -0.584 -0.721 -0.9 -1.063 c -0.308 -0.342 -0.63 -0.666 -0.963 -0.975 c -0.333 -0.308 -0.663 -0.574 -0.988 -0.799 l 0 3.887 l -1.574 0 l 0 -8.662 z m 7.76 2.125 l 1.514 0 l 0 3.424 c 0 0.7 0.099 1.2 0.299 1.5 c 0.208 0.3 0.568 0.451 1.076 0.451 c 0.183 0 0.374 -0.009 0.574 -0.025 c 0.208 -0.017 0.363 -0.037 0.463 -0.063 l 0 -5.287 l 1.512 0 l 0 6.338 c -0.292 0.075 -0.67 0.15 -1.137 0.225 c -0.467 0.083 -0.979 0.125 -1.537 0.125 c -0.525 0 -0.968 -0.075 -1.326 -0.225 c -0.35 -0.15 -0.633 -0.358 -0.85 -0.625 c -0.208 -0.267 -0.358 -0.585 -0.449 -0.951 c -0.092 -0.375 -0.139 -0.783 -0.139 -1.225 l 0 -3.662 z m 8.1 4.605 c 0.508 0 0.892 0.165 1.15 0.494 c 0.262 0.325 0.395 0.785 0.395 1.381 c 0 0.842 -0.217 1.479 -0.65 1.912 c -0.433 0.433 -1.098 0.652 -1.994 0.656 l -0.031 -0.631 c 0.25 0 0.476 -0.021 0.676 -0.063 c 0.204 -0.042 0.381 -0.108 0.531 -0.199 c 0.154 -0.092 0.283 -0.212 0.387 -0.357 c 0.104 -0.15 0.184 -0.332 0.238 -0.549 c -0.1 0.046 -0.211 0.08 -0.332 0.105 c -0.121 0.025 -0.237 0.037 -0.35 0.037 c -0.258 0 -0.479 -0.033 -0.662 -0.1 c -0.179 -0.071 -0.327 -0.166 -0.443 -0.287 c -0.113 -0.125 -0.196 -0.269 -0.25 -0.432 c -0.054 -0.162 -0.082 -0.338 -0.082 -0.525 c 0 -0.162 0.028 -0.326 0.082 -0.492 c 0.054 -0.171 0.139 -0.327 0.256 -0.469 c 0.117 -0.142 0.264 -0.256 0.443 -0.344 c 0.179 -0.092 0.391 -0.139 0.637 -0.139 z m 0.02 0.625 c -0.121 0 -0.225 0.026 -0.313 0.076 c -0.083 0.05 -0.153 0.114 -0.207 0.193 c -0.054 0.079 -0.092 0.164 -0.117 0.256 c -0.025 0.092 -0.039 0.182 -0.039 0.27 c 0 0.254 0.061 0.445 0.182 0.574 c 0.125 0.129 0.32 0.193 0.582 0.193 c 0.121 0 0.239 -0.01 0.355 -0.031 c 0.117 -0.025 0.217 -0.06 0.301 -0.105 c 0.004 -0.046 0.006 -0.086 0.006 -0.119 l 0 -0.088 c 0 -0.167 -0.012 -0.323 -0.037 -0.469 c -0.021 -0.15 -0.061 -0.278 -0.119 -0.387 c -0.054 -0.113 -0.13 -0.201 -0.23 -0.264 c -0.096 -0.067 -0.217 -0.1 -0.363 -0.1 z" style="fill:#ececec;fill-opacity:1"/>
</svg>
