<svg viewBox="0 0 22 22" xmlns="http://www.w3.org/2000/svg">
 <path style="fill:#ececec;fill-opacity:1" d="m 3 1 c -1.108 0 -2 0.892 -2 2 l 0 16 c 0 1.108 0.892 2 2 2 l 16 0 c 1.108 0 2 -0.892 2 -2 l 0 -16 c 0 -1.108 -0.892 -2 -2 -2 l -16 0 z m 10.293 4.863 c 0.25 0 0.467 0.083 0.65 0.25 c 0.183 0.167 0.273 0.396 0.273 0.688 c 0 0.283 -0.09 0.507 -0.273 0.674 c -0.183 0.167 -0.4 0.25 -0.65 0.25 c -0.258 0 -0.479 -0.083 -0.662 -0.25 c -0.183 -0.167 -0.275 -0.39 -0.275 -0.674 c 0 -0.292 0.092 -0.521 0.275 -0.688 c 0.183 -0.167 0.404 -0.25 0.662 -0.25 z m -8.818 0.725 l 1.576 0 l 0 3.574 c 0.275 -0.275 0.561 -0.567 0.861 -0.875 c 0.3 -0.317 0.597 -0.633 0.889 -0.949 c 0.3 -0.325 0.583 -0.637 0.85 -0.938 c 0.267 -0.3 0.508 -0.571 0.725 -0.813 l 1.889 0 c -0.275 0.317 -0.567 0.645 -0.875 0.986 c -0.308 0.342 -0.626 0.689 -0.951 1.039 c -0.325 0.342 -0.653 0.682 -0.986 1.023 c -0.325 0.342 -0.646 0.668 -0.963 0.977 c 0.35 0.267 0.704 0.579 1.062 0.938 c 0.367 0.35 0.724 0.728 1.074 1.137 c 0.35 0.4 0.683 0.82 1 1.262 c 0.325 0.433 0.622 0.867 0.889 1.301 l -1.863 0 c -0.217 -0.333 -0.467 -0.684 -0.75 -1.051 c -0.283 -0.367 -0.584 -0.721 -0.9 -1.063 c -0.308 -0.342 -0.63 -0.666 -0.963 -0.975 c -0.333 -0.308 -0.661 -0.574 -0.986 -0.799 l 0 3.887 l -1.576 0 l 0 -8.662 z m 8.07 2.125 l 1.512 0 l 0 6.537 l -1.512 0 l 0 -6.537 z m 4.404 4.705 l 0.531 0 l 0 4.332 l -0.756 0 l 0 -3.318 c -0.113 0.087 -0.255 0.173 -0.426 0.256 c -0.171 0.083 -0.334 0.153 -0.492 0.207 l -0.232 -0.576 c 0.242 -0.096 0.483 -0.219 0.725 -0.369 c 0.246 -0.15 0.463 -0.327 0.65 -0.531 z"/>
</svg>
