<svg xmlns="http://www.w3.org/2000/svg" viewBox="0 0 22 22">
 <path style="fill:#ececec;fill-opacity:1" d="m 3 1 c -1.108 0 -2 0.892 -2 2 l 0 16 c 0 1.108 0.892 2 2 2 l 16 0 c 1.108 0 2 -0.892 2 -2 l 0 -16 c 0 -1.108 -0.892 -2 -2 -2 l -16 0 z m 9.67 4.863 c 0.25 0 0.467 0.083 0.65 0.25 c 0.183 0.167 0.275 0.396 0.275 0.688 c 0 0.283 -0.092 0.507 -0.275 0.674 c -0.183 0.167 -0.4 0.25 -0.65 0.25 c -0.258 0 -0.479 -0.083 -0.662 -0.25 c -0.183 -0.167 -0.275 -0.39 -0.275 -0.674 c 0 -0.292 0.092 -0.521 0.275 -0.688 c 0.183 -0.167 0.404 -0.25 0.662 -0.25 z m -7.572 0.725 l 5.475 0 l 0 1.338 l -3.9 0 l 0 2.211 l 3.463 0 l 0 1.338 l -3.463 0 l 0 3.775 l -1.574 0 l 0 -8.662 z m 6.822 2.125 l 1.512 0 l 0 6.537 l -1.512 0 l 0 -6.537 z m 4.592 4.705 l 0.719 0 l 0 2.676 l 0.488 0 l 0 0.619 l -0.488 0 l 0 1.037 l -0.736 0 l 0 -1.037 l -1.9 0 l 0 -0.537 c 0.083 -0.183 0.195 -0.395 0.332 -0.633 c 0.142 -0.237 0.298 -0.48 0.469 -0.73 c 0.171 -0.25 0.351 -0.497 0.543 -0.738 c 0.192 -0.242 0.383 -0.46 0.574 -0.656 z m -0.018 0.932 c -0.1 0.121 -0.204 0.251 -0.313 0.389 c -0.104 0.137 -0.207 0.28 -0.307 0.43 c -0.1 0.15 -0.195 0.305 -0.287 0.463 c -0.092 0.154 -0.175 0.309 -0.25 0.463 l 1.156 0 l 0 -1.744 z"/>
</svg>
