<svg viewBox="0 0 22 22" xmlns="http://www.w3.org/2000/svg">
 <path style="fill:#ececec;fill-opacity:1" d="m 3 1 c -1.108 0 -2 0.892 -2 2 l 0 16 c 0 1.108 0.892 2 2 2 l 16 0 c 1.108 0 2 -0.892 2 -2 l 0 -16 c 0 -1.108 -0.892 -2 -2 -2 l -16 0 z m 4.361 5.387 c 0.4 0 0.754 0.03 1.063 0.088 c 0.317 0.05 0.588 0.109 0.813 0.176 c 0.225 0.067 0.409 0.138 0.551 0.213 c 0.15 0.075 0.254 0.129 0.312 0.162 l -0.475 1.287 c -0.25 -0.15 -0.563 -0.275 -0.938 -0.375 c -0.367 -0.108 -0.756 -0.162 -1.164 -0.162 c -0.892 0 -1.574 0.28 -2.049 0.838 c -0.467 0.55 -0.701 1.315 -0.701 2.299 c 0 0.467 0.056 0.895 0.164 1.287 c 0.117 0.383 0.283 0.713 0.5 0.988 c 0.225 0.275 0.499 0.492 0.824 0.65 c 0.333 0.15 0.72 0.225 1.162 0.225 c 0.275 0 0.513 -0.009 0.713 -0.025 c 0.2 -0.025 0.358 -0.055 0.475 -0.088 l 0 -3.111 l 1.576 0 l 0 4.162 c -0.217 0.083 -0.585 0.175 -1.102 0.275 c -0.517 0.1 -1.112 0.15 -1.787 0.15 c -0.625 0 -1.196 -0.101 -1.713 -0.301 c -0.517 -0.2 -0.958 -0.492 -1.324 -0.875 c -0.358 -0.383 -0.638 -0.854 -0.838 -1.412 c -0.2 -0.558 -0.299 -1.201 -0.299 -1.926 c 0 -0.725 0.108 -1.365 0.324 -1.924 c 0.225 -0.558 0.529 -1.031 0.912 -1.414 c 0.383 -0.392 0.833 -0.687 1.35 -0.887 c 0.517 -0.2 1.067 -0.301 1.65 -0.301 z m 7.133 2.188 c 0.1 0 0.216 0.009 0.35 0.025 c 0.133 0.008 0.267 0.026 0.4 0.051 c 0.133 0.017 0.262 0.041 0.387 0.074 c 0.125 0.025 0.226 0.051 0.301 0.076 l -0.262 1.273 c -0.125 -0.042 -0.3 -0.083 -0.525 -0.125 c -0.217 -0.05 -0.472 -0.074 -0.764 -0.074 c -0.167 0 -0.345 0.017 -0.537 0.051 c -0.183 0.033 -0.312 0.061 -0.387 0.086 l 0 5.238 l -1.514 0 l 0 -6.225 c 0.292 -0.108 0.655 -0.209 1.088 -0.301 c 0.442 -0.1 0.93 -0.15 1.463 -0.15 z m 3.174 4.744 c 0.463 0 0.801 0.111 1.018 0.332 c 0.221 0.217 0.332 0.513 0.332 0.893 c 0 0.15 -0.031 0.299 -0.094 0.445 c -0.063 0.142 -0.144 0.28 -0.244 0.418 c -0.096 0.133 -0.207 0.265 -0.332 0.395 c -0.125 0.125 -0.25 0.246 -0.375 0.367 c -0.067 0.063 -0.141 0.139 -0.225 0.227 c -0.083 0.087 -0.161 0.174 -0.236 0.262 c -0.075 0.087 -0.141 0.173 -0.195 0.256 c -0.054 0.079 -0.082 0.147 -0.086 0.201 l 1.924 0 l 0 0.637 l -2.756 0 c -0.004 -0.033 -0.006 -0.073 -0.006 -0.119 l 0 -0.111 c 0 -0.2 0.031 -0.384 0.094 -0.551 c 0.067 -0.171 0.152 -0.329 0.256 -0.475 c 0.104 -0.146 0.22 -0.283 0.35 -0.412 c 0.129 -0.129 0.26 -0.258 0.389 -0.383 c 0.1 -0.096 0.195 -0.19 0.287 -0.281 c 0.092 -0.092 0.17 -0.18 0.236 -0.268 c 0.071 -0.092 0.128 -0.184 0.17 -0.275 c 0.042 -0.096 0.063 -0.193 0.063 -0.293 c 0 -0.217 -0.063 -0.371 -0.188 -0.463 c -0.125 -0.092 -0.278 -0.139 -0.457 -0.139 c -0.117 0 -0.224 0.017 -0.324 0.051 c -0.1 0.033 -0.19 0.073 -0.27 0.119 c -0.075 0.046 -0.141 0.093 -0.199 0.143 c -0.058 0.046 -0.102 0.084 -0.131 0.113 l -0.375 -0.531 c 0.175 -0.167 0.378 -0.3 0.611 -0.4 c 0.238 -0.104 0.493 -0.156 0.764 -0.156 z"/>
</svg>
