<svg viewBox="0 0 22 22" xmlns="http://www.w3.org/2000/svg">
 <path style="fill:#ececec;fill-opacity:1" d="m 3 1 c -1.108 0 -2 0.892 -2 2 l 0 16 c 0 1.108 0.892 2 2 2 l 16 0 c 1.108 0 2 -0.892 2 -2 l 0 -16 c 0 -1.108 -0.892 -2 -2 -2 l -16 0 z m 1.936 5.5 c 0.725 0 1.388 0.087 1.988 0.262 c 0.6 0.167 1.112 0.434 1.537 0.801 c 0.433 0.358 0.767 0.817 1 1.375 c 0.233 0.55 0.35 1.208 0.35 1.975 c 0 0.75 -0.116 1.405 -0.35 1.963 c -0.233 0.55 -0.567 1.012 -1 1.387 c -0.425 0.367 -0.942 0.643 -1.551 0.826 c -0.6 0.175 -1.267 0.262 -2 0.262 c -0.35 0 -0.746 -0.015 -1.188 -0.049 c -0.442 -0.025 -0.862 -0.084 -1.262 -0.176 l 0 -8.412 c 0.4 -0.092 0.825 -0.151 1.275 -0.176 c 0.45 -0.025 0.849 -0.037 1.199 -0.037 z m 0.1 1.363 c -0.467 0 -0.8 0.012 -1 0.037 l 0 6.05 c 0.092 0.008 0.213 0.017 0.363 0.025 l 0.613 0 c 1.058 0 1.845 -0.265 2.361 -0.799 c 0.525 -0.542 0.787 -1.297 0.787 -2.264 c 0 -0.983 -0.253 -1.737 -0.762 -2.262 c -0.508 -0.525 -1.297 -0.787 -2.363 -0.787 z m 8.461 0.687 c 0.5 0 0.922 0.063 1.264 0.188 c 0.342 0.125 0.612 0.298 0.813 0.523 c 0.208 0.225 0.354 0.501 0.437 0.826 c 0.092 0.317 0.137 0.665 0.137 1.049 l 0 3.963 c -0.233 0.05 -0.588 0.109 -1.063 0.176 c -0.467 0.075 -0.996 0.111 -1.588 0.111 c -0.392 0 -0.749 -0.036 -1.074 -0.111 c -0.325 -0.075 -0.605 -0.197 -0.838 -0.363 c -0.225 -0.167 -0.404 -0.384 -0.537 -0.65 c -0.125 -0.267 -0.188 -0.595 -0.188 -0.986 c 0 -0.375 0.071 -0.693 0.213 -0.951 c 0.15 -0.258 0.35 -0.467 0.6 -0.625 c 0.25 -0.167 0.536 -0.283 0.861 -0.35 c 0.333 -0.075 0.681 -0.111 1.039 -0.111 c 0.167 0 0.34 0.012 0.523 0.037 c 0.183 0.017 0.38 0.05 0.588 0.1 l 0 -0.25 c 0 -0.175 -0.021 -0.342 -0.063 -0.5 c -0.042 -0.158 -0.116 -0.295 -0.225 -0.412 c -0.1 -0.125 -0.237 -0.22 -0.412 -0.287 c -0.167 -0.067 -0.38 -0.102 -0.639 -0.102 c -0.35 0 -0.669 0.026 -0.961 0.076 c -0.292 0.05 -0.53 0.107 -0.713 0.174 l -0.188 -1.225 c 0.192 -0.067 0.471 -0.133 0.838 -0.199 c 0.367 -0.067 0.757 -0.1 1.174 -0.1 z m 0.301 3.773 c -0.167 0 -0.339 0.014 -0.514 0.039 c -0.167 0.025 -0.319 0.07 -0.461 0.137 c -0.133 0.067 -0.243 0.162 -0.326 0.287 c -0.083 0.117 -0.125 0.268 -0.125 0.451 c 0 0.358 0.113 0.608 0.338 0.75 c 0.225 0.133 0.529 0.199 0.912 0.199 c 0.467 0 0.821 -0.024 1.063 -0.074 l 0 -1.676 c -0.083 -0.025 -0.203 -0.049 -0.361 -0.074 c -0.158 -0.025 -0.334 -0.039 -0.525 -0.039 z m 4.797 0.994 c 0.242 0 0.45 0.03 0.625 0.088 c 0.175 0.058 0.317 0.142 0.43 0.25 c 0.117 0.104 0.204 0.229 0.258 0.375 c 0.058 0.142 0.086 0.298 0.086 0.469 c 0 0.2 -0.055 0.379 -0.168 0.537 c -0.108 0.158 -0.251 0.28 -0.426 0.363 c 0.225 0.079 0.411 0.209 0.557 0.393 c 0.15 0.183 0.225 0.42 0.225 0.707 c 0 0.192 -0.033 0.37 -0.1 0.537 c -0.067 0.162 -0.169 0.305 -0.307 0.426 c -0.137 0.117 -0.311 0.21 -0.523 0.281 c -0.208 0.067 -0.458 0.1 -0.75 0.1 c -0.113 0 -0.231 -0.009 -0.352 -0.025 c -0.117 -0.012 -0.228 -0.032 -0.336 -0.057 c -0.104 -0.021 -0.202 -0.043 -0.289 -0.068 c -0.088 -0.029 -0.153 -0.055 -0.199 -0.08 l 0.15 -0.645 c 0.087 0.042 0.214 0.09 0.381 0.145 c 0.167 0.05 0.373 0.074 0.619 0.074 c 0.329 0 0.567 -0.063 0.713 -0.188 c 0.146 -0.129 0.219 -0.299 0.219 -0.512 c 0 -0.137 -0.03 -0.252 -0.088 -0.344 c -0.054 -0.092 -0.132 -0.165 -0.232 -0.219 c -0.096 -0.058 -0.207 -0.098 -0.336 -0.119 c -0.125 -0.025 -0.259 -0.037 -0.4 -0.037 l -0.256 0 l 0 -0.613 l 0.313 0 c 0.096 0 0.191 -0.009 0.287 -0.025 c 0.1 -0.021 0.188 -0.054 0.268 -0.1 c 0.079 -0.05 0.145 -0.114 0.195 -0.193 c 0.05 -0.079 0.074 -0.182 0.074 -0.307 c 0 -0.1 -0.019 -0.185 -0.057 -0.256 c -0.038 -0.071 -0.088 -0.13 -0.15 -0.176 c -0.058 -0.046 -0.126 -0.079 -0.205 -0.1 c -0.079 -0.021 -0.163 -0.031 -0.25 -0.031 c -0.188 0 -0.354 0.03 -0.5 0.088 c -0.146 0.054 -0.276 0.117 -0.389 0.188 l -0.273 -0.563 c 0.058 -0.038 0.128 -0.077 0.211 -0.119 c 0.083 -0.042 0.175 -0.082 0.275 -0.119 c 0.104 -0.037 0.215 -0.067 0.332 -0.088 c 0.117 -0.025 0.24 -0.037 0.369 -0.037 z"/>
</svg>
