<svg viewBox="0 0 22 22" xmlns="http://www.w3.org/2000/svg">
 <path d="m 3 1 c -1.108 0 -2 0.892 -2 2 l 0 16 c 0 1.108 0.892 2 2 2 l 16 0 c 1.108 0 2 -0.892 2 -2 l 0 -16 c 0 -1.108 -0.892 -2 -2 -2 l -16 0 z m 2.543 5.838 l 5.475 0 l 0 1.338 l -3.898 0 l 0 2.211 l 3.461 0 l 0 1.338 l -3.461 0 l 0 3.775 l -1.576 0 l 0 -8.662 z m 8.424 1.963 c 0.5 0 0.92 0.063 1.262 0.188 c 0.342 0.125 0.612 0.298 0.812 0.523 c 0.208 0.225 0.354 0.501 0.438 0.826 c 0.092 0.317 0.139 0.665 0.139 1.049 l 0 3.963 c -0.233 0.05 -0.587 0.109 -1.062 0.176 c -0.467 0.075 -0.996 0.111 -1.588 0.111 c -0.392 0 -0.751 -0.036 -1.076 -0.111 c -0.325 -0.075 -0.603 -0.197 -0.836 -0.363 c -0.225 -0.167 -0.406 -0.384 -0.539 -0.65 c -0.125 -0.267 -0.188 -0.595 -0.188 -0.986 c 0 -0.375 0.071 -0.693 0.213 -0.951 c 0.15 -0.258 0.35 -0.467 0.6 -0.625 c 0.25 -0.167 0.538 -0.283 0.863 -0.35 c 0.333 -0.075 0.679 -0.111 1.037 -0.111 c 0.167 0 0.342 0.012 0.525 0.037 c 0.183 0.017 0.38 0.05 0.588 0.1 l 0 -0.25 c 0 -0.175 -0.021 -0.342 -0.063 -0.5 c -0.042 -0.158 -0.116 -0.295 -0.225 -0.412 c -0.1 -0.125 -0.239 -0.22 -0.414 -0.287 c -0.167 -0.067 -0.378 -0.102 -0.637 -0.102 c -0.35 0 -0.671 0.026 -0.963 0.076 c -0.292 0.05 -0.53 0.107 -0.713 0.174 l -0.188 -1.225 c 0.192 -0.067 0.471 -0.133 0.838 -0.199 c 0.367 -0.067 0.759 -0.1 1.176 -0.1 z m 0.299 3.773 c -0.167 0 -0.337 0.014 -0.512 0.039 c -0.167 0.025 -0.321 0.07 -0.463 0.137 c -0.133 0.067 -0.241 0.162 -0.324 0.287 c -0.083 0.117 -0.125 0.268 -0.125 0.451 c 0 0.358 0.113 0.608 0.338 0.75 c 0.225 0.133 0.529 0.199 0.912 0.199 c 0.467 0 0.821 -0.024 1.063 -0.074 l 0 -1.676 c -0.083 -0.025 -0.205 -0.049 -0.363 -0.074 c -0.158 -0.025 -0.334 -0.039 -0.525 -0.039 z" style="fill:#ececec;fill-opacity:1"/>
</svg>
