<svg xmlns="http://www.w3.org/2000/svg" viewBox="0 0 22 22">
 <path style="fill:#ececec;fill-opacity:1" d="m 3 1 c -1.108 0 -2 0.892 -2 2 l 0 16 c 0 1.108 0.892 2 2 2 l 16 0 c 1.108 0 2 -0.892 2 -2 l 0 -16 c 0 -1.108 -0.892 -2 -2 -2 l -16 0 z m -0.436 5.838 l 1.576 0 l 0 3.574 c 0.275 -0.275 0.561 -0.567 0.861 -0.875 c 0.3 -0.317 0.597 -0.633 0.889 -0.949 c 0.3 -0.325 0.583 -0.637 0.85 -0.938 c 0.267 -0.3 0.508 -0.571 0.725 -0.813 l 1.887 0 c -0.275 0.317 -0.567 0.645 -0.875 0.986 c -0.308 0.342 -0.624 0.689 -0.949 1.039 c -0.325 0.342 -0.655 0.682 -0.988 1.023 c -0.325 0.342 -0.644 0.668 -0.961 0.977 c 0.35 0.267 0.704 0.579 1.063 0.938 c 0.367 0.35 0.724 0.728 1.074 1.137 c 0.35 0.4 0.683 0.82 1 1.262 c 0.325 0.433 0.62 0.867 0.887 1.301 l -1.861 0 c -0.217 -0.333 -0.467 -0.684 -0.75 -1.051 c -0.283 -0.367 -0.584 -0.721 -0.9 -1.063 c -0.308 -0.342 -0.63 -0.666 -0.963 -0.975 c -0.333 -0.308 -0.661 -0.574 -0.986 -0.799 l 0 3.887 l -1.576 0 l 0 -8.662 z m 10.693 1.986 c 0.45 0 0.816 0.059 1.1 0.176 c 0.292 0.117 0.533 0.271 0.725 0.463 c 0.092 -0.067 0.208 -0.138 0.35 -0.213 c 0.142 -0.075 0.3 -0.141 0.475 -0.199 c 0.175 -0.067 0.359 -0.122 0.551 -0.164 c 0.2 -0.042 0.4 -0.063 0.6 -0.063 c 0.508 0 0.925 0.077 1.25 0.227 c 0.333 0.142 0.592 0.345 0.775 0.611 c 0.192 0.258 0.32 0.576 0.387 0.951 c 0.075 0.367 0.113 0.769 0.113 1.211 l 0 3.676 l -1.512 0 l 0 -3.438 c 0 -0.683 -0.083 -1.175 -0.25 -1.475 c -0.167 -0.308 -0.488 -0.463 -0.963 -0.463 c -0.242 0 -0.471 0.042 -0.688 0.125 c -0.217 0.075 -0.38 0.15 -0.488 0.225 c 0.067 0.208 0.114 0.429 0.139 0.662 c 0.025 0.233 0.037 0.483 0.037 0.75 l 0 3.613 l -1.514 0 l 0 -3.438 c 0 -0.683 -0.087 -1.175 -0.262 -1.475 c -0.167 -0.308 -0.483 -0.463 -0.949 -0.463 c -0.167 0 -0.351 0.012 -0.551 0.037 c -0.2 0.025 -0.349 0.046 -0.449 0.063 l 0 5.275 l -1.514 0 l 0 -6.324 c 0.292 -0.083 0.672 -0.163 1.139 -0.238 c 0.475 -0.075 0.975 -0.113 1.5 -0.113 z"/>
</svg>
