<svg xmlns="http://www.w3.org/2000/svg" viewBox="0 0 22 22">
 <path style="fill:#ececec;fill-opacity:1" d="m 3 1 c -1.108 0 -2 0.892 -2 2 l 0 16 c 0 1.108 0.892 2 2 2 l 16 0 c 1.108 0 2 -0.892 2 -2 l 0 -16 c 0 -1.108 -0.892 -2 -2 -2 l -16 0 z m 5.691 5.637 c 0.542 0 1.021 0.063 1.437 0.188 c 0.425 0.117 0.758 0.247 1 0.389 l -0.488 1.275 c -0.283 -0.158 -0.596 -0.28 -0.938 -0.363 c -0.333 -0.083 -0.679 -0.125 -1.037 -0.125 c -0.425 0 -0.758 0.087 -1 0.262 c -0.233 0.175 -0.35 0.422 -0.35 0.738 c 0 0.192 0.038 0.358 0.113 0.5 c 0.083 0.133 0.194 0.255 0.336 0.363 c 0.15 0.108 0.322 0.207 0.514 0.299 c 0.2 0.092 0.417 0.18 0.65 0.264 c 0.408 0.15 0.769 0.303 1.086 0.461 c 0.325 0.15 0.596 0.334 0.813 0.551 c 0.225 0.208 0.397 0.458 0.514 0.75 c 0.117 0.283 0.174 0.629 0.174 1.037 c 0 0.783 -0.278 1.393 -0.836 1.826 c -0.55 0.425 -1.359 0.637 -2.426 0.637 c -0.358 0 -0.688 -0.024 -0.988 -0.074 c -0.292 -0.042 -0.554 -0.097 -0.787 -0.164 c -0.225 -0.067 -0.421 -0.133 -0.588 -0.199 c -0.167 -0.075 -0.298 -0.141 -0.398 -0.199 l 0.461 -1.289 c 0.225 0.125 0.531 0.25 0.914 0.375 c 0.383 0.125 0.845 0.188 1.387 0.188 c 0.567 0 0.98 -0.095 1.238 -0.287 c 0.258 -0.192 0.387 -0.462 0.387 -0.813 c 0 -0.208 -0.045 -0.387 -0.137 -0.537 c -0.083 -0.15 -0.208 -0.284 -0.375 -0.4 c -0.158 -0.125 -0.355 -0.238 -0.588 -0.338 c -0.233 -0.108 -0.501 -0.212 -0.801 -0.313 c -0.3 -0.108 -0.592 -0.225 -0.875 -0.35 c -0.275 -0.133 -0.52 -0.295 -0.736 -0.486 c -0.208 -0.192 -0.38 -0.421 -0.514 -0.688 c -0.125 -0.267 -0.188 -0.588 -0.188 -0.963 c 0 -0.783 0.271 -1.396 0.813 -1.838 c 0.542 -0.45 1.28 -0.676 2.213 -0.676 z m 6.676 2.188 c 0.1 0 0.216 0.009 0.35 0.025 c 0.133 0.008 0.267 0.026 0.4 0.051 c 0.133 0.017 0.262 0.041 0.387 0.074 c 0.125 0.025 0.226 0.051 0.301 0.076 l -0.262 1.273 c -0.125 -0.042 -0.3 -0.083 -0.525 -0.125 c -0.217 -0.05 -0.472 -0.074 -0.764 -0.074 c -0.167 0 -0.345 0.017 -0.537 0.051 c -0.183 0.033 -0.312 0.061 -0.387 0.086 l 0 5.238 l -1.514 0 l 0 -6.225 c 0.292 -0.108 0.655 -0.209 1.088 -0.301 c 0.442 -0.1 0.93 -0.15 1.463 -0.15 z"/>
</svg>
