<svg xmlns="http://www.w3.org/2000/svg" viewBox="0 0 22 22">
 <path style="fill:#ececec;fill-opacity:1" d="m 3 1 c -1.108 0 -2 0.892 -2 2 l 0 16 c 0 1.108 0.892 2 2 2 l 16 0 c 1.108 0 2 -0.892 2 -2 l 0 -16 c 0 -1.108 -0.892 -2 -2 -2 l -16 0 z m 12.275 5.113 c 0.25 0 0.467 0.083 0.65 0.25 c 0.183 0.167 0.275 0.396 0.275 0.688 c 0 0.283 -0.092 0.507 -0.275 0.674 c -0.183 0.167 -0.4 0.25 -0.65 0.25 c -0.258 0 -0.479 -0.083 -0.662 -0.25 c -0.183 -0.167 -0.275 -0.39 -0.275 -0.674 c 0 -0.292 0.092 -0.521 0.275 -0.688 c 0.183 -0.167 0.404 -0.25 0.662 -0.25 z m -10.182 0.725 l 1.738 0 c 0.2 0.583 0.403 1.179 0.611 1.787 c 0.208 0.608 0.417 1.209 0.625 1.801 c 0.208 0.583 0.417 1.149 0.625 1.699 c 0.208 0.55 0.413 1.053 0.613 1.512 c 0.192 -0.458 0.391 -0.958 0.6 -1.5 c 0.208 -0.55 0.417 -1.119 0.625 -1.711 c 0.217 -0.592 0.428 -1.192 0.637 -1.801 c 0.208 -0.608 0.41 -1.204 0.602 -1.787 l 1.688 0 c -0.508 1.475 -1.05 2.949 -1.625 4.424 c -0.575 1.475 -1.176 2.888 -1.801 4.238 l -1.512 0 c -0.625 -1.35 -1.229 -2.763 -1.812 -4.238 c -0.575 -1.475 -1.113 -2.949 -1.613 -4.424 z m 9.432 2.125 l 1.514 0 l 0 6.537 l -1.514 0 l 0 -6.537 z"/>
</svg>
