<svg viewBox="0 0 22 22" xmlns="http://www.w3.org/2000/svg">
 <path d="m 3 1 c -1.108 0 -2 0.892 -2 2 l 0 16 c 0 1.108 0.892 2 2 2 l 16 0 c 1.108 0 2 -0.892 2 -2 l 0 -16 c 0 -1.108 -0.892 -2 -2 -2 l -16 0 z m 6.139 5.637 c 0.4 0 0.754 0.03 1.063 0.088 c 0.317 0.05 0.588 0.109 0.813 0.176 c 0.225 0.067 0.407 0.138 0.549 0.213 c 0.15 0.075 0.254 0.129 0.313 0.162 l -0.475 1.287 c -0.25 -0.15 -0.563 -0.275 -0.938 -0.375 c -0.367 -0.108 -0.754 -0.162 -1.162 -0.162 c -0.892 0 -1.576 0.28 -2.051 0.838 c -0.467 0.55 -0.699 1.315 -0.699 2.299 c 0 0.467 0.054 0.895 0.162 1.287 c 0.117 0.383 0.283 0.713 0.5 0.988 c 0.225 0.275 0.499 0.492 0.824 0.65 c 0.333 0.15 0.722 0.225 1.164 0.225 c 0.275 0 0.511 -0.009 0.711 -0.025 c 0.2 -0.025 0.36 -0.055 0.477 -0.088 l 0 -3.111 l 1.574 0 l 0 4.162 c -0.217 0.083 -0.583 0.175 -1.1 0.275 c -0.517 0.1 -1.112 0.15 -1.787 0.15 c -0.625 0 -1.196 -0.101 -1.713 -0.301 c -0.517 -0.2 -0.96 -0.492 -1.326 -0.875 c -0.358 -0.383 -0.636 -0.854 -0.836 -1.412 c -0.2 -0.558 -0.301 -1.201 -0.301 -1.926 c 0 -0.725 0.108 -1.365 0.324 -1.924 c 0.225 -0.558 0.531 -1.031 0.914 -1.414 c 0.383 -0.392 0.833 -0.687 1.35 -0.887 c 0.517 -0.2 1.067 -0.301 1.65 -0.301 z m 7.131 2.188 c 0.1 0 0.218 0.009 0.352 0.025 c 0.133 0.008 0.265 0.026 0.398 0.051 c 0.133 0.017 0.264 0.041 0.389 0.074 c 0.125 0.025 0.224 0.051 0.299 0.076 l -0.262 1.273 c -0.125 -0.042 -0.3 -0.083 -0.525 -0.125 c -0.217 -0.05 -0.47 -0.074 -0.762 -0.074 c -0.167 0 -0.345 0.017 -0.537 0.051 c -0.183 0.033 -0.314 0.061 -0.389 0.086 l 0 5.238 l -1.512 0 l 0 -6.225 c 0.292 -0.108 0.655 -0.209 1.088 -0.301 c 0.442 -0.1 0.928 -0.15 1.461 -0.15 z" style="fill:#ececec;fill-opacity:1"/>
</svg>
