<svg xmlns="http://www.w3.org/2000/svg" viewBox="0 0 14 22">
 <path d="m 7.03 2 c -2.323 -0.02 -4.509 1.735 -4.938 3.938 -0.429 2.203 0.734 4.268 2.906 5.063 l 0 6 c 0 2 1.13 3.02 2 3 0.87 -0.017 2 -1 2 -3 l 2 -1 -3 -1 3 -2 -2 -1 l 0 -1 c 2.187 -0.758 3.327 -2.759 2.938 -4.969 -0.389 -2.209 -2.583 -4.01 -4.906 -4.03 z m 0 2.969 c 0.585 0 1.031 0.447 1.031 1.031 0 0.585 -0.447 1.031 -1.031 1.031 c -0.585 0 -1.031 -0.447 -1.031 -1.031 c 0 -0.585 0.447 -1.031 1.031 -1.031 z m 0 1 c 0.022 0 -0.031 0.053 -0.031 0.031 0 -0.022 0.053 0.031 0.031 0.031 -0.022 0 0.031 -0.053 0.031 -0.031 0 0.022 -0.053 -0.031 -0.031 -0.031 z" style="fill:#ef555c;fill-opacity:1;color:#000"/>
</svg>
