<svg xmlns="http://www.w3.org/2000/svg" width="22" viewBox="0 0 6.208889 6.208889" height="22">
 <path d="m 11 3 c -4.418 0 -8 3.582 -8 8 c 0 1.606 0.478 3.098 1.293 4.352 l 2.648 -5.303 l 0.059 -0.123 l 0 -0.082 l -0.834 -0.48 l 0.498 -0.865 c 0.101 -0.175 0.216 -0.339 0.336 -0.498 c 0.976 -1.299 2.536 -2.061 4.184 -2 c 1.28 0.047 2.257 0.894 3.135 1.771 l 3.387 -1.125 c -1.427 -2.193 -3.894 -3.646 -6.705 -3.646 z m 6.707 3.648 l -2.707 5.428 l 0 0.08 l 0.834 0.48 l -0.498 0.865 c -0.101 0.175 -0.216 0.339 -0.336 0.498 c -0.976 1.299 -2.536 2.061 -4.184 2 c -1.28 -0.047 -2.257 -0.894 -3.135 -1.771 l -3.385 1.127 c 1.427 2.192 3.893 3.645 6.703 3.645 c 4.418 0 8 -3.582 8 -8 c 0 -1.606 -0.478 -3.098 -1.293 -4.352 z" transform="scale(0.28222222,0.28222222)" style="fill:#ececec;opacity:1;fill-opacity:1;stroke:none;fill-rule:nonzero"/>
 <g transform="matrix(0.28222222,0,0,0.28222222,-4.9598351,0.24694452)">
  <path d="m 28.721 6.125 c 1.309 0.048 2.5 0.737 3.203 1.818 l 1.389 -0.463 -1.572 3.146 -3.145 -1.574 1.277 -0.426 c -0.338 -0.294 -0.761 -0.485 -1.227 -0.502 -0.742 -0.027 -1.435 0.355 -1.807 0.998 l -1.732 -1 c 0.74 -1.282 2.134 -2.053 3.613 -1.998 z m -3.313 3.498 3.145 1.574 -1.277 0.426 c 0.338 0.294 0.761 0.485 1.227 0.502 0.742 0.027 1.435 -0.355 1.807 -0.998 l 1.732 1 c -0.74 1.282 -2.134 2.053 -3.613 1.998 -1.309 -0.048 -2.5 -0.737 -3.203 -1.818 l -1.389 0.463 z" style="fill:#ececec;opacity:1;fill-opacity:1;stroke:none;fill-rule:nonzero"/>
  <g transform="matrix(0.42297932,0,0,0.42297932,-11.083711,3.1945516)">
   <!-- color: #004794 -->
  </g>
 </g>
 <g transform="matrix(0.28222222,0,0,0.28222222,-4.9598351,0.24694462)" style="stroke-dasharray:none;stroke-opacity:1;stroke-miterlimit:4;stroke:#000;stroke-width:1">
  <g transform="matrix(0.42297932,0,0,0.42297932,-11.083711,3.1945516)" style="stroke:#000;stroke-width:2.364">
   <!-- color: #004794 -->
  </g>
 </g>
</svg>
