<svg xmlns="http://www.w3.org/2000/svg" viewBox="0 0 22 22">
 <path d="M 3,2 C 2.446,2 2,2.446 2,3 l 0,6 c 0,0.554 0.446,1 1,1 l 6,0 c 0.554,0 1,-0.446 1,-1 L 10,3 C 10,2.446 9.554,2 9,2 L 3,2 z M 4,3 8,3 C 8.554,3 9,3.446 9,4 L 9,8 C 9,8.554 8.554,9 8,9 L 4,9 C 3.446,9 3,8.554 3,8 L 3,4 C 3,3.446 3.446,3 4,3 z" style="fill:#ececec;fill-opacity:1;stroke:none"/>
 <path d="m 13,2 c -0.554,0 -1,0.446 -1,1 l 0,6 c 0,0.554 0.446,1 1,1 l 6,0 c 0.554,0 1,-0.446 1,-1 L 20,3 C 20,2.446 19.554,2 19,2 l -6,0 z m 1,1 4,0 c 0.554,0 1,0.446 1,1 l 0,4 c 0,0.554 -0.446,1 -1,1 L 14,9 C 13.446,9 13,8.554 13,8 l 0,-4 c 0,-0.554 0.446,-1 1,-1 z" style="fill:#ececec;fill-opacity:1;stroke:none"/>
 <path d="m 3,12 c -0.554,0 -1,0.446 -1,1 l 0,6 c 0,0.554 0.446,1 1,1 l 6,0 c 0.554,0 1,-0.446 1,-1 l 0,-6 C 10,12.446 9.554,12 9,12 l -6,0 z m 1,1 4,0 c 0.554,0 1,0.446 1,1 l 0,4 c 0,0.554 -0.446,1 -1,1 L 4,19 C 3.446,19 3,18.554 3,18 l 0,-4 c 0,-0.554 0.446,-1 1,-1 z" style="fill:#ececec;fill-opacity:1;stroke:none"/>
 <path d="m 13 12 c -0.554 0 -1 0.446 -1 1 l 0 6 c 0 0.554 0.446 1 1 1 l 6 0 c 0.554 0 1 -0.446 1 -1 l 0 -6 c 0 -0.554 -0.446 -1 -1 -1 l -6 0 z m 1 1 4 0 c 0.554 0 1 0.446 1 1 l 0 4 c 0 0.554 -0.446 1 -1 1 l -4 0 c -0.554 0 -1 -0.446 -1 -1 l 0 -4 c 0 -0.554 0.446 -1 1 -1 z" style="fill:#ececec;fill-opacity:1;stroke:none"/>
</svg>
