<svg xmlns="http://www.w3.org/2000/svg" viewBox="0 0 22 22">
 <g transform="translate(-181.0002,-251)" style="display:inline">
  <path d="m 192 251 -3.137 4.727 -4.727 -1.59 1.59 4.727 -4.727 3.137 4.727 3.137 -1.59 4.727 4.727 -1.59 3.137 4.727 3.137 -4.727 4.727 1.59 -1.59 -4.727 4.727 -3.137 -4.727 -3.137 1.59 -4.727 -4.727 1.59 z m -1.375 5.586 2.75 0 0 6.832 -2.75 0 z m 1.418 7.82 c 0.973 0 1.762 0.789 1.762 1.762 0 0.973 -0.789 1.762 -1.762 1.762 -0.973 0 -1.762 -0.789 -1.762 -1.762 0 -0.973 0.789 -1.762 1.762 -1.762 z" style="fill:#ef555c;fill-opacity:1;stroke:none;fill-rule:evenodd"/>
 </g>
</svg>
