<svg xmlns="http://www.w3.org/2000/svg" viewBox="0 0 22 22">
 <path d="m 14.366 3.295 c -1.558 -0.027 -3.391 0.386 -5.241 1.289 -2.564 1.251 -4.48 3.206 -5.356 5.327 -0.239 -0.108 -0.504 -0.253 -0.773 -0.43 -1.263 -0.83 -1.948 -2.062 -1.948 -2.062 0 0 -0.327 2.456 0.716 3.952 0.537 0.771 1.099 1.261 1.518 1.547 0.06 0.679 0.227 1.354 0.544 2 1.802 3.693 6.958 4.886 11.513 2.664 3.132 -1.528 3.872 -3.918 3.78 -6.931 0.204 -0.14 0.374 -0.275 0.516 -0.43 0.084 0.026 0.175 0.052 0.229 0.086 0.546 0.347 0.687 1.031 0.687 1.031 0 0 0.803 -1.683 0.258 -3.122 -0.385 -1.014 -1.359 -1.461 -2.119 -1.575 -0.024 -0.154 -0.032 -0.302 -0.057 -0.458 -0.295 -1.85 -1.99 -2.853 -4.267 -2.893 z m -8.306 0.888 c 0 0 -0.937 0.691 -1.317 1.718 -0.002 0 0.458 0.859 0.458 0.859 0 0 0.111 -0.167 0.745 -0.544 -0.117 -1.052 0.115 -2.033 0.115 -2.033 z m 8.347 0.192 c 0.766 0 1.172 0.534 1.172 1.221 0 0.688 -0.449 1.133 -1.172 1.133 -0.722 0 -1.234 -0.311 -1.234 -1.177 0 -0.865 0.468 -1.177 1.234 -1.177 z m -10.982 0.582 c 0 0 -0.969 1.399 -1 2.978 0 0.01 1.06 0.945 1.06 0.945 0 0 0.086 -0.329 0.802 -1.174 -0.687 -1.346 -0.859 -2.749 -0.859 -2.749 z m 13.575 1.432 c 0.035 0 0.032 0 0.057 0 -0.217 0.062 -0.675 0.316 -0.974 1.174 -0.262 0.754 -0.172 1.317 -0.172 1.317 0 0 -1.045 0.644 -1.088 1.919 -0.029 0.616 0.2 1.289 1.632 1.203 0.487 0.043 2.177 -0.802 2.177 -0.802 0 0 -2.132 1.892 -3.765 1.476 -1.247 -0.317 -1.252 -1.262 -1.289 -1.69 -0.086 -1 1.117 -2.091 1.117 -2.091 0 0 -0.099 -1.173 0.359 -1.717 0.892 -1.11 1.626 -0.746 1.945 -0.79 z" style="fill:#54cdee;fill-opacity:1"/>
</svg>
