<svg viewBox="0 0 22 22" xmlns="http://www.w3.org/2000/svg">
 <path d="M 5.5 3 C 5.224 3 5 3.224 5 3.5 L 5 10 L 3.5 10 C 3.223 10 3 10.223 3 10.5 L 3 16.5 C 3 16.777 3.223 17 3.5 17 L 5 17 L 5 18.5 C 5 18.777 5.223 19 5.5 19 L 16.5 19 C 16.777 19 17 18.777 17 18.5 L 17 17 L 18.5 17 C 18.777 17 19 16.777 19 16.5 L 19 10.5 C 19 10.223 18.777 10 18.5 10 L 17 10 L 17 5 L 15 3 L 5.5 3 z M 6 4 L 14 4 L 14 6 L 16 6 L 16 10 L 6 10 L 6 4 z M 4 11 L 18 11 L 18 14 L 4 14 L 4 11 z M 6 15 L 16 15 L 16 18 L 6 18 L 6 15 z M 17.5 15 A 0.5 0.5 0 0 1 18 15.5 A 0.5 0.5 0 0 1 17.5 16 A 0.5 0.5 0 0 1 17 15.5 A 0.5 0.5 0 0 1 17.5 15 z " style="visibility:visible;shape-rendering:auto;color-interpolation-filters:linearRGB;fill:#ececec;opacity:1;image-rendering:auto;fill-opacity:1;text-rendering:auto;stroke:none;display:inline;color:#000;fill-rule:nonzero;color-rendering:auto;color-interpolation:sRGB"/>
</svg>
