<svg xmlns="http://www.w3.org/2000/svg" viewBox="0 0 22 22">
 <rect width="4" height="12" x="3" y="5" rx="0.5" ry="0.429" style="fill:#353535;opacity:1;fill-opacity:1;stroke:none;fill-rule:nonzero"/>
 <path d="m 8.447 5 c -0.248 0 -0.447 0.327 -0.447 0.734 l 0 10.531 c 0 0.407 0.199 0.734 0.447 0.734 l 4.553 0 a 6 6 0 0 0 6 -6 6 6 0 0 0 -6 -6 l -4.553 0 m 3.037 1.518 2.328 0.689 -1.229 2.285 -0.344 -0.885 c -0.9 0.423 -1.488 1.355 -1.488 2.393 c 0 1.087 0.629 2.054 1.596 2.457 l -0.475 1.229 c -1.45 -0.605 -2.393 -2.055 -2.393 -3.686 c 0 -1.581 0.924 -3.03 2.307 -3.643 l -0.303 -0.84 m 3.168 0.797 c 1.451 0.583 2.414 2.059 2.414 3.686 0 1.589 -0.897 3.01 -2.283 3.643 l 0.322 0.84 -2.393 -0.689 1.271 -2.285 0.346 0.885 c 0.904 -0.428 1.465 -1.348 1.465 -2.393 c 0 -1.085 -0.647 -2.066 -1.615 -2.457 l 0.473 -1.229 z" style="fill:#353535;opacity:1;fill-opacity:1;stroke:none;fill-rule:nonzero"/>
 <g transform="matrix(0,1,-1,0,21.163674,-3.6838069)">
  <g transform="matrix(0.49988464,0,0,0.49988464,-37.411065,7.9950011)">
   <!-- color: #004794 -->
  </g>
 </g>
</svg>
