<svg xmlns="http://www.w3.org/2000/svg" viewBox="0 0 22 22">
 <path d="m 11 3 c -4.418 0 -8 3.582 -8 8 c 0 0.361 0.016 0.714 0.063 1.063 c 0.017 0.128 0.04 0.249 0.063 0.375 c 0.013 0.071 0.017 0.149 0.031 0.219 c 0.048 0.229 0.152 0.435 0.219 0.656 c 0.006 0.019 -0.006 0.043 0 0.063 c 0.01 0.032 0.021 0.062 0.031 0.094 c 0.071 0.218 0.13 0.447 0.219 0.656 c 0.005 0.012 0.026 0.019 0.031 0.031 c 0.047 0.108 0.105 0.207 0.156 0.313 c 0.051 0.105 0.07 0.21 0.125 0.313 c 0.007 0.012 0.025 0.019 0.031 0.031 c 0.107 0.196 0.222 0.408 0.344 0.594 c 0.016 0.024 0.046 0.039 0.063 0.063 c 0.123 0.183 0.237 0.359 0.375 0.531 c 0.102 0.127 0.204 0.255 0.313 0.375 c 0.039 0.043 0.085 0.083 0.125 0.125 c 0.05 0.053 0.105 0.105 0.156 0.156 c 0.151 0.151 0.306 0.299 0.469 0.438 c 0.102 0.087 0.206 0.168 0.313 0.25 c 0.041 0.031 0.083 0.063 0.125 0.094 c 0.091 0.068 0.187 0.124 0.281 0.188 c 0.104 0.07 0.205 0.154 0.313 0.219 c 0.111 0.068 0.229 0.125 0.344 0.188 c 0.163 0.089 0.33 0.172 0.5 0.25 c 0.106 0.048 0.204 0.113 0.313 0.156 c 0.04 0.016 0.085 0.016 0.125 0.031 c 0.161 0.062 0.334 0.105 0.5 0.156 c 0.201 0.062 0.387 0.141 0.594 0.188 c 0.053 0.012 0.103 0.02 0.156 0.031 c 0.174 0.035 0.354 0.07 0.531 0.094 c 0.092 0.013 0.189 0.022 0.281 0.031 c 0.02 0.002 0.042 -0.002 0.063 0 c 0.249 0.023 0.495 0.031 0.75 0.031 c 0.404 0 0.8 -0.036 1.188 -0.094 c 0.02 -0.003 0.043 0.003 0.063 0 c 0.021 -0.003 0.042 0.003 0.063 0 c 0.312 -0.051 0.607 -0.164 0.906 -0.25 c 0.124 -0.036 0.254 -0.052 0.375 -0.094 c 0.266 -0.091 0.529 -0.195 0.781 -0.313 c 0.107 -0.05 0.208 -0.102 0.313 -0.156 c 0.193 -0.1 0.379 -0.198 0.563 -0.313 c 0.095 -0.06 0.189 -0.124 0.281 -0.188 c 0.043 -0.03 0.082 -0.063 0.125 -0.094 c 0.242 -0.174 0.467 -0.363 0.688 -0.563 c 0.027 -0.025 0.067 -0.038 0.094 -0.063 c 0.074 -0.069 0.148 -0.147 0.219 -0.219 c 0.208 -0.208 0.41 -0.427 0.594 -0.656 c 0.139 -0.173 0.251 -0.347 0.375 -0.531 c 0.008 -0.012 0.023 -0.019 0.031 -0.031 c 0.136 -0.205 0.258 -0.407 0.375 -0.625 c 0.123 -0.227 0.243 -0.448 0.344 -0.688 c 0.018 -0.043 0.045 -0.082 0.063 -0.125 c 0.372 -0.923 0.563 -1.944 0.563 -3 c 0 -4.418 -3.582 -8 -8 -8 z m 0 1 c 3.866 0 7 3.134 7 7 c 0 0.775 -0.143 1.522 -0.375 2.219 c -2.933 -2.866 -6.071 -5 -8.969 -4.969 c -1.673 0.019 -3.259 0.782 -4.656 2.5 c 0.132 -3.75 3.218 -6.75 7 -6.75 z" style="fill:#ececec;opacity:1;fill-opacity:1;stroke:none;fill-rule:nonzero"/>
</svg>
