<svg xmlns="http://www.w3.org/2000/svg" width="22" viewBox="0 0 6.208889 6.208889" height="22">
 <g transform="matrix(.18963 0 0 .19127 -1.60131 -193.15027)" style="fill:#ececec;fill-opacity:1">
  <path d="m 240 92.12 0 36.879 c -52.46 6.538 -95.05 44.81 -107.97 95 l 33.19 0 c 13.611 -36.23 49.647 -64.48 89.03 -64.22 0.955 -0.025 1.922 -0.037 2.875 -0.031 14.299 0.085 28.354 3.635 41.09 10 22.947 10.33 39.986 30.744 48.31 54.25 l 33.438 0 c -12.918 -50.19 -55.51 -88.46 -107.97 -95 l 0 -36.879 z m -107.97 195.88 c 12.918 50.19 55.51 88.46 107.97 95 l 0 36.879 32 0 l 0 -36.879 c 52.46 -6.538 95.05 -44.81 107.97 -95 l -32.969 0 c -12.936 38.16 -52.919 65.61 -93.34 64.19 -39.36 0.199 -75.06 -27.918 -88.37 -64.19 z" transform="matrix(.07203 0 0 .07203 6.3752 1007.6257)"/>
  <path d="m 256 176 c -44.18 0 -80 35.64 -80 80 0 0 -0.53 7.515 1.768 16 l 122.86 0 c -3.317 9.265 -9.266 17.577 -17.344 23.13 -18.585 14.673 -46.731 9.337 -62.56 -7.125 l -38.03 0 c 12.35 28.24 40.517 48 73.31 48 44.18 0 80 -35.817 80 -80 0 0 0 -8.222 -1.591 -16 l -122.91 0 c 6.916 -17.482 23.431 -31.648 42.625 -31.813 0.96 -0.046 1.917 -0.051 2.875 -0.031 12.866 0.261 25.351 6.362 34.03 15.844 l 38.28 0 c -12.35 -28.24 -40.517 -48 -73.31 -48 z" transform="matrix(.06345 0 0 .06345 8.57461 1009.8802)"/>
 </g>
</svg>
