<svg xmlns="http://www.w3.org/2000/svg" viewBox="0 0 22 22">
 <g transform="matrix(.10108 0 0 .10109 -1.93883 21.11468)" style="fill:#ececec;fill-opacity:1">
  <path d="m 99.24 -133.79 c -29.27 0 -53 23.731 -53 53 0 1.204 0.042 2.397 0.121 3.581 -10.291 4.966 -17.288 14.926 -17.288 26.462 0 16.525 14.356 29.828 32.19 29.828 l 133.48 0 c 17.833 0 32.19 -13.303 32.19 -29.828 0 -12.277 -7.927 -22.774 -19.313 -27.36 0.279 -1.856 0.429 -3.753 0.429 -5.687 0 -20.977 -17.01 -37.983 -37.983 -37.983 -10.536 0 -20.08 4.284 -26.958 11.212 -9.537 -14.02 -25.62 -23.23 -43.857 -23.23 z m -21.929 16.16 c 5.724 0 10.367 4.421 10.367 9.885 0 5.464 -4.643 9.898 -10.367 9.898 -5.724 0 -10.367 -4.434 -10.367 -9.898 0 -5.464 4.643 -9.885 10.367 -9.885 z m 50.684 14.686 c 18.768 0 34.13 15.395 34.13 34.17 0 18.778 -15.366 34.17 -34.13 34.17 -18.768 0 -34.13 -15.395 -34.13 -34.17 0 -18.778 15.366 -34.17 34.13 -34.17 z m 0 14.686 c -10.822 0 -19.447 8.63 -19.447 19.488 0 10.858 8.625 19.488 19.447 19.488 10.822 0 19.447 -8.63 19.447 -19.488 0 -10.858 -8.625 -19.488 -19.447 -19.488 z"/>
  <path d="m 250 183.09 -45.4 -7.957 -32.29 32.886 -6.461 -45.634 l -41.26 -20.548 41.4 -20.246 l 6.794 -45.586 32.05 33.12 45.45 -7.625 -21.596 40.716 z" transform="matrix(.09901 .06545 -.06545 .09901 178.41598 -156.96415)"/>
  <path d="m 250 183.09 -45.4 -7.957 -32.29 32.886 -6.461 -45.634 l -41.26 -20.548 41.4 -20.246 l 6.794 -45.586 32.05 33.12 45.45 -7.625 -21.596 40.716 z" transform="matrix(.00505 .05538 -.05538 .00505 204.45583 -147.23562)"/>
  <path d="m 250 183.09 -45.4 -7.957 -32.29 32.886 -6.461 -45.634 l -41.26 -20.548 41.4 -20.246 l 6.794 -45.586 32.05 33.12 45.45 -7.625 -21.596 40.716 z" transform="matrix(.02482 .08116 -.08116 .02482 206.61717 -142.43939)"/>
 </g>
</svg>
