<svg xmlns="http://www.w3.org/2000/svg" viewBox="0 0 22 22">
 <g transform="matrix(.76923 0 0 .72727 -21.19778 2.77725)" style="fill:#ececec;fill-opacity:1">
  <path d="m 51.39 3.691 c 0.957 0 1.774 0.331 2.451 0.992 0.677 0.661 1.016 1.459 1.016 2.393 l 0 11.846 c 0 0.934 -0.339 1.732 -1.016 2.393 -0.677 0.661 -1.494 0.992 -2.451 0.992 l -19.07 0 c -0.957 0 -1.774 -0.331 -2.451 -0.992 -0.677 -0.661 -1.016 -1.459 -1.016 -2.393 l 0 -11.846 c 0 -0.934 0.339 -1.732 1.016 -2.393 0.677 -0.661 1.494 -0.992 2.451 -0.992 l 3.033 0 0.691 -1.798 c 0.172 -0.432 0.485 -0.804 0.941 -1.117 0.456 -0.313 0.923 -0.469 1.402 -0.469 l 6.933 0 c 0.478 0 0.946 0.156 1.402 0.469 0.456 0.313 0.77 0.685 0.941 1.117 l 0.691 1.798 z m -9.533 15.231 c 1.67 0 3.099 -0.58 4.286 -1.739 1.187 -1.159 1.781 -2.554 1.781 -4.184 0 -1.631 -0.594 -3.03 -1.781 -4.184 -1.187 -1.159 -2.616 -1.739 -4.286 -1.739 -1.67 0 -3.099 0.58 -4.286 1.739 -1.187 1.159 -1.781 2.554 -1.781 4.184 0 1.631 0.594 3.03 1.781 4.184 1.187 1.159 2.616 1.739 4.286 1.739 z"/>
  <path d="m 45.857 13.01 a 4 4 0 1 1 -8 0 4 4 0 1 1 8 0 z"/>
 </g>
</svg>
