<svg xmlns="http://www.w3.org/2000/svg" width="22" viewBox="0 0 6.208889 6.208889" height="22">
 <path d="m 11 3 c -4.432 0 -8 3.568 -8 8 c 0 4.432 3.568 8 8 8 c 4.432 0 8 -3.568 8 -8 c 0 -4.432 -3.568 -8 -8 -8 z m -2.125 4.906 c 2.374 -0.07 5.212 0.458 7.125 1.75 c 0.306 0.207 0.394 0.631 0.188 0.938 c -0.206 0.306 -0.602 0.394 -0.906 0.188 c -2.217 -1.497 -6.02 -1.82 -8.25 -1.281 c -0.36 0.086 -0.727 -0.142 -0.813 -0.5 c -0.087 -0.358 0.142 -0.695 0.5 -0.781 c 0.64 -0.155 1.365 -0.289 2.156 -0.313 z m 0.156 2.5 c 2.108 -0.039 4.316 0.548 5.906 1.656 c 0.252 0.176 0.299 0.498 0.125 0.75 c -0.177 0.252 -0.499 0.362 -0.75 0.188 c -1.846 -1.29 -4.79 -1.836 -7.094 -1.281 c -0.299 0.073 -0.584 -0.107 -0.656 -0.406 c -0.072 -0.299 0.108 -0.585 0.406 -0.656 c 0.658 -0.159 1.36 -0.237 2.063 -0.25 z m 0.063 2.313 c 1.895 -0.023 3.516 0.464 4.875 1.406 c 0.203 0.139 0.232 0.391 0.094 0.594 c -0.141 0.202 -0.393 0.265 -0.594 0.125 c -1.613 -1.119 -3.738 -1.485 -6.25 -1.063 c -0.242 0.04 -0.46 -0.133 -0.5 -0.375 c -0.041 -0.242 0.132 -0.46 0.375 -0.5 c 0.687 -0.116 1.368 -0.18 2 -0.188 z" transform="scale(0.28222223,0.28222223)" style="fill:#ececec;fill-opacity:1;fill-rule:evenodd"/>
</svg>
