<svg viewBox="0 0 22 22" xmlns="http://www.w3.org/2000/svg">
 <g transform="matrix(0.06585 0 0 0.0687 -11.84 2.097)" style="fill:#ececec;fill-opacity:1;stroke:none">
  <path transform="matrix(15.18617 0 0 14.5561 179.8 -30.518)" d="m 10.188 5 c -0.967 0 -1.787 0.588 -2.188 1.438 c -0.23 -0.195 -0.524 -0.313 -0.844 -0.313 c -0.739 0 -1.344 0.635 -1.344 1.406 c 0 0.299 0.097 0.585 0.25 0.813 c -0.518 0.344 -0.904 0.878 -1.094 1.5 c -0.092 -0.011 -0.186 -0.031 -0.281 -0.031 c -1.354 0 -2.439 1.15 -2.439 2.564 c 0 1.413 1.084 2.563 2.439 2.563 c 0.577 0 1.112 -0.213 1.531 -0.563 c 0.256 0.347 0.641 0.594 1.094 0.594 c 0.623 0 1.13 -0.445 1.313 -1.031 c 0.609 0.62 1.457 1 2.375 1 c 0.352 0 0.683 -0.072 1 -0.176 l 0 -5.764 l 3.283 0 c -0.248 -1.143 -1.237 -2 -2.406 -2 c -0.096 0 -0.189 0.02 -0.281 0.031 c -0.229 -1.166 -1.221 -2.031 -2.406 -2.031 l -0.002 0 z"/>
 </g>
 <g transform="matrix(1 0 0 0.8 9 -6.2)" style="fill:#000;fill-opacity:1">
  <path style="fill:#ececec;opacity:1;stroke:none;fill-rule:nonzero" d="m 5 21.5 0 7.5 2 0 0 -7.5 z m 4 0 0 7.5 2 0 0 -7.5 z"/>
 </g>
</svg>
