<svg viewBox="0 0 22 22" xmlns="http://www.w3.org/2000/svg">
 <g style="fill:#ececec;fill-opacity:1;stroke:none" transform="matrix(0.06585 0 0 0.0687 -11.84 2.096)">
  <path d="m 10.188 4.998 c -0.967 0 -1.787 0.59 -2.188 1.439 c -0.23 -0.195 -0.524 -0.314 -0.844 -0.314 c -0.739 0 -1.344 0.635 -1.344 1.406 c 0 0.299 0.097 0.586 0.25 0.814 c -0.518 0.344 -0.904 0.878 -1.094 1.5 c -0.092 -0.011 -0.186 -0.031 -0.281 -0.031 c -1.354 0 -2.439 1.149 -2.439 2.563 c 0 1.413 1.084 2.563 2.439 2.563 c 0.577 0 1.112 -0.213 1.531 -0.563 c 0.256 0.347 0.641 0.594 1.094 0.594 c 0.623 0 1.13 -0.445 1.313 -1.031 c 0.437 0.445 1 0.749 1.625 0.891 a 5.25 5.25 0 0 1 -0.25 -1.578125 a 5.25 5.25 0 0 1 4.837891 -5.232422 c -0.453 -0.616 -1.163 -1.02 -1.961 -1.02 c -0.096 0 -0.189 0.02 -0.281 0.031 c -0.229 -1.166 -1.221 -2.031 -2.406 -2.031 l -0.002 0 z" transform="matrix(15.18617 0 0 14.5561 179.8 -30.503)"/>
 </g>
 <path d="m 15.888 12.05 0.518 -1.932 c -1.525 -0.409 -3.147 0.263 -3.937 1.631 -0.79 1.368 -0.561 3.108 0.556 4.225 l 1.414 -1.414 c -0.483 -0.483 -0.58 -1.219 -0.238 -1.811 0.342 -0.592 1.027 -0.876 1.687 -0.699 z" style="visibility:visible;shape-rendering:auto;color-interpolation-filters:linearRGB;fill:#ececec;opacity:1;image-rendering:auto;fill-opacity:1;text-rendering:auto;stroke:none;display:inline;color:#000;fill-rule:nonzero;color-rendering:auto;color-interpolation:sRGB"/>
 <path d="m 16.562 12.44 1.414 -1.414 c 1.117 1.117 1.345 2.857 0.556 4.225 -0.79 1.368 -2.411 2.04 -3.937 1.631 l 0.518 -1.932 c 0.66 0.177 1.345 -0.107 1.687 -0.699 0.342 -0.592 0.246 -1.327 -0.238 -1.811 z" style="visibility:visible;shape-rendering:auto;color-interpolation-filters:linearRGB;fill:#ececec;opacity:1;image-rendering:auto;fill-opacity:1;text-rendering:auto;stroke:none;display:inline;color:#000;fill-rule:nonzero;color-rendering:auto;color-interpolation:sRGB"/>
</svg>
