<svg viewBox="0 0 22 22" xmlns="http://www.w3.org/2000/svg">
 <path style="fill:#ececec;fill-opacity:1;stroke:none;fill-rule:evenodd" d="m 11 2 -9 9 9 9 9 -9 -9 -9 z m -0.436 5.75 c 0.591 0 1.103 0.041 1.533 0.125 0.43 0.078 0.785 0.192 1.064 0.342 0.28 0.144 0.489 0.318 0.629 0.521 c 0.14 0.198 0.209 0.413 0.209 0.646 c 0 0.323 -0.167 0.601 -0.5 0.834 -0.333 0.227 -0.736 0.402 -1.209 0.521 0.29 0.048 0.569 0.115 0.838 0.205 0.269 0.09 0.5 0.204 0.693 0.342 0.204 0.138 0.366 0.297 0.484 0.477 c 0.129 0.18 0.193 0.38 0.193 0.602 c 0 0.269 -0.086 0.52 -0.258 0.754 -0.161 0.227 -0.421 0.424 -0.775 0.592 -0.344 0.168 -0.778 0.299 -1.305 0.395 c -0.527 0.096 -1.151 0.145 -1.871 0.145 -0.28 0 -0.57 -0.011 -0.871 -0.035 -0.29 -0.024 -0.564 -0.054 -0.822 -0.09 -0.258 -0.036 -0.484 -0.073 -0.678 -0.109 -0.194 -0.036 -0.334 -0.064 -0.42 -0.088 l 0.291 -0.729 c 0.183 0.048 0.483 0.112 0.902 0.189 0.43 0.078 0.952 0.115 1.564 0.115 0.957 0 1.64 -0.103 2.049 -0.313 0.419 -0.209 0.629 -0.491 0.629 -0.844 0 -0.227 -0.086 -0.421 -0.258 -0.576 c -0.172 -0.156 -0.398 -0.277 -0.678 -0.367 c -0.28 -0.096 -0.608 -0.161 -0.984 -0.197 -0.366 -0.042 -0.742 -0.063 -1.129 -0.063 l -0.387 0 0 -0.684 0.533 0 c 0.269 0 0.543 -0.015 0.822 -0.045 0.29 -0.03 0.553 -0.084 0.789 -0.162 0.237 -0.078 0.431 -0.181 0.582 -0.312 0.151 -0.138 0.225 -0.308 0.225 -0.512 0 -0.168 -0.053 -0.312 -0.16 -0.432 -0.108 -0.12 -0.253 -0.219 -0.436 -0.297 -0.172 -0.078 -0.377 -0.13 -0.613 -0.16 -0.226 -0.036 -0.468 -0.055 -0.727 -0.055 -0.516 0 -0.957 0.041 -1.322 0.125 c -0.355 0.084 -0.655 0.172 -0.902 0.262 l -0.582 -0.639 c 0.129 -0.048 0.291 -0.098 0.484 -0.152 0.204 -0.06 0.43 -0.114 0.678 -0.162 0.247 -0.048 0.511 -0.085 0.791 -0.115 0.29 -0.036 0.591 -0.055 0.902 -0.055 z"/>
</svg>
