<svg xmlns="http://www.w3.org/2000/svg" width="22" viewBox="0 0 6.208889 6.208889" height="22">
 <path d="m 5.19 1.201 c -0.041 -0.005 -0.087 0.003 -0.132 0.024 l -4 1.552 c -0.273 0.11 -0.271 0.264 -0.05 0.332 l 1.026 0.322 2.376 -1.508 c 0.112 -0.068 0.215 -0.032 0.131 0.044 l -1.925 1.747 -0.055 0.455 -0.279 -0.894 -0.247 0.157 c 0.121 0.384 0.239 0.769 0.361 1.152 0.039 0.103 0.137 0.131 0.224 0.133 0.131 0.004 0.351 -0.179 0.351 -0.179 l 0.353 -0.298 0.966 0.718 c 0.191 0.106 0.329 0.051 0.376 -0.179 l 0.681 -3.229 c 0.052 -0.211 -0.034 -0.336 -0.157 -0.349 m -2.313 2.707 0.214 0.159 -0.26 0.219 0.046 -0.378" style="fill:#ececec;fill-opacity:1"/>
</svg>
