<svg xmlns="http://www.w3.org/2000/svg" viewBox="0 0 22 22">
 <path d="m 9.03 5 c -0.392 0.011 -0.792 0.084 -1.188 0.219 c -1.691 0.575 -2.966 2.242 -3.344 4.313 c -1.11 0.268 -2.047 1.248 -2.375 2.656 c -0.465 2 0.503 4.063 2.156 4.625 c 0.027 0.008 0.035 0.024 0.063 0.031 c 0.228 0.099 0.493 0.156 0.75 0.156 l 11.969 0 c 0.429 0 0.821 -0.147 1.156 -0.406 c 1.34 -0.774 2.072 -2.619 1.656 -4.406 c -0.307 -1.321 -1.167 -2.29 -2.188 -2.625 c -0.009 -0.044 0.01 -0.081 0 -0.125 c -0.465 -2 -2.191 -3.156 -3.844 -2.594 c -0.317 0.108 -0.609 0.255 -0.875 0.469 c -0.911 -1.481 -2.392 -2.354 -3.938 -2.313 z m 1.969 4 l 3 3 l -1.5 0 l 0 3 l -3 0 l 0 -3 l -1.5 0 l 3 -3 z" style="fill:#ececec;fill-opacity:1"/>
</svg>
