<svg xmlns="http://www.w3.org/2000/svg" viewBox="0 0 22 22">
 <path d="m 9.04 5 c -0.392 0.011 -0.791 0.083 -1.186 0.217 -1.691 0.575 -2.975 2.228 -3.352 4.298 -1.11 0.268 -2.061 1.257 -2.389 2.666 c -0.465 2 0.502 4.078 2.155 4.64 0.027 0.008 0.055 0.013 0.082 0.02 c 0.228 0.099 0.472 0.158 0.729 0.158 l 11.988 0 c 0.429 0 0.824 -0.156 1.159 -0.415 1.34 -0.774 2.07 -2.615 1.654 -4.403 -0.307 -1.321 -1.162 -2.278 -2.182 -2.613 -0.009 -0.044 -0.017 -0.087 -0.027 -0.132 -0.465 -2 -2.183 -3.169 -3.836 -2.606 -0.317 0.108 -0.61 0.28 -0.876 0.494 c -0.911 -1.481 -2.372 -2.365 -3.918 -2.323 z" style="fill:#ececec;fill-opacity:1"/>
</svg>
