<svg xmlns="http://www.w3.org/2000/svg" viewBox="0 0 20 22">
 <path d="M 9.5,4 C 5.36,4 2,7.36 2,11.5 2,15.64 5.36,19 9.5,19 c 1.9648,0 3.7561,-0.76222 5.0938,-2 h 5.406 l -3.344,-3.344 c 0.208,-0.687 0.344,-1.401 0.344,-2.156 0,-4.14 -3.36,-7.5 -7.5,-7.5 z m 0,3 C 11.984,7 14,9.016 14,11.5 14,13.984 11.984,16 9.5,16 7.016,16 5,13.984 5,11.5 5,9.016 7.016,7 9.5,7 z" style="fill:#ececec;fill-opacity:1;fill-rule:evenodd"/>
 <path d="m11.262 11.499h-1.762v-2.5" style="stroke-opacity:1;fill:none;stroke:#ececec;stroke-linecap:round;stroke-linejoin:round"/>
</svg>
