<svg xmlns="http://www.w3.org/2000/svg" viewBox="0 0 22 22" style="enable-background:new 0 0 1219.547 1225.016">
 <path d="M 11 2 A 9 9 0 0 0 2 11 A 9 9 0 0 0 3.572 16.07 L 2 20 L 5.924 18.432 A 9 9 0 0 0 11 20 A 9 9 0 0 0 20 11 A 9 9 0 0 0 11 2 z M 7.338 6.217 C 7.51 6.217 7.683 6.216 7.834 6.225 C 8.02 6.234 8.223 6.241 8.416 6.672 C 8.646 7.184 9.15 8.465 9.215 8.594 C 9.28 8.723 9.322 8.874 9.236 9.05 C 9.15 9.22 9.107 9.327 8.977 9.479 C 8.848 9.63 8.706 9.816 8.59 9.932 C 8.46 10.06 8.324 10.2 8.475 10.459 C 8.626 10.718 9.144 11.566 9.914 12.252 C 10.903 13.13 11.738 13.406 11.996 13.535 C 12.255 13.664 12.406 13.644 12.557 13.471 C 12.708 13.298 13.205 12.714 13.377 12.455 C 13.55 12.196 13.72 12.24 13.957 12.326 C 14.194 12.412 15.468 13.04 15.727 13.168 C 15.986 13.297 16.16 13.363 16.223 13.471 C 16.288 13.579 16.288 14.1 16.07 14.699 C 15.856 15.303 14.799 15.887 14.324 15.93 C 13.849 15.973 13.406 16.15 11.219 15.283 C 8.588 14.246 6.928 11.55 6.799 11.377 C 6.67 11.204 5.74 9.973 5.74 8.699 C 5.74 7.426 6.409 6.8 6.646 6.541 C 6.883 6.282 7.166 6.217 7.338 6.217 z" style="fill:#54cdee;opacity:1;fill-opacity:1;stroke:none;fill-rule:nonzero"/>
</svg>
