<svg xmlns="http://www.w3.org/2000/svg" viewBox="0 0 22 22">
 <path d="m 4.999 11 -2.701 2.027 0.441 0.59 2.26 -1.695 0 7.078 12 0 0 -7.078 2.26 1.695 0.441 -0.59 -2.701 -2.027" style="fill:#cf9545"/>
 <rect transform="matrix(0.95334222,0.30189172,-0.30189172,0.95334222,0,0)" height="1.758" y="5.02" x="8.698" width="1.758" style="fill:#cf9545"/>
 <rect transform="matrix(0.9598803,-0.28041009,0.28041009,0.9598803,0,0)" height="2.89" y="6.374" x="6.446" width="2.89" style="fill:#cf9545"/>
 <path d="m 13.391 8.775 -0.827 1.054 -1.327 -0.19 -0.499 -1.244 0.827 -1.054 1.327 0.19" style="fill:#cf9545"/>
 <path d="m 15.807 6.169 -0.846 0.277 -0.251 0.854 -0.525 -0.719 -0.89 0.025 0.521 -0.721 -0.299 -0.838 0.847 0.273 0.705 -0.543 0.002 0.89 z" style="fill:#cf9545"/>
</svg>
