<svg xmlns="http://www.w3.org/2000/svg" viewBox="0 0 22 22">
 <path d="m 10.517 2.496 c -0.492 0 -0.977 0.055 -1.477 0.172 -3.965 0.938 -8.688 7.355 -2.633 10.215 2.848 1.344 2.645 7.461 6.613 6.523 3.969 -0.941 6.289 -5.449 5.191 -10.07 -0.961 -4.04 -4.234 -6.836 -7.695 -6.84 z m -1.223 1.273 c 0.707 0 1.277 0.57 1.277 1.277 0 0.703 -0.57 1.273 -1.277 1.273 -0.703 0 -1.277 -0.57 -1.277 -1.273 0 -0.707 0.574 -1.277 1.277 -1.277 z m 3.836 0.426 c 0.703 0 1.277 0.57 1.277 1.277 0 0.699 -0.574 1.273 -1.277 1.273 -0.711 0 -1.281 -0.574 -1.281 -1.273 0 -0.707 0.57 -1.277 1.281 -1.277 z m -6.816 2.125 c 0.703 0 1.277 0.57 1.277 1.273 0 0.707 -0.574 1.277 -1.277 1.277 -0.703 0 -1.277 -0.57 -1.277 -1.277 0 -0.703 0.574 -1.273 1.277 -1.273 z m 9.367 0.848 c 0.707 0 1.277 0.574 1.277 1.277 0 0.703 -0.57 1.277 -1.277 1.277 -0.703 0 -1.273 -0.574 -1.273 -1.277 0 -0.703 0.57 -1.277 1.273 -1.277 z m -6.984 3.363 c 0.602 -0.012 1.219 0.527 1.449 1.316 0.262 0.902 -0.066 1.793 -0.742 1.992 -0.68 0.195 -1.441 -0.375 -1.703 -1.277 -0.266 -0.898 0.066 -1.793 0.742 -1.992 0.086 -0.023 0.168 -0.035 0.254 -0.039 z m 7.414 0.465 c 0.703 0 1.277 0.57 1.277 1.277 0 0.703 -0.574 1.273 -1.277 1.273 -0.707 0 -1.281 -0.57 -1.281 -1.273 0 -0.707 0.574 -1.277 1.281 -1.277 z m -1.703 3.402 c 0.703 0 1.273 0.57 1.273 1.273 0 0.703 -0.57 1.273 -1.273 1.273 -0.707 0 -1.277 -0.57 -1.277 -1.273 0 -0.703 0.57 -1.273 1.277 -1.273 z" style="fill:#e684a3"/>
</svg>
