<svg xmlns="http://www.w3.org/2000/svg" width="22" height="22" viewBox="0 0 17.6 17.6">
 <path d="m 2.168 2 13.264 0 c 0.093 0 0.168 0.075 0.168 0.168 l 0 13.264 c 0 0.093 -0.075 0.168 -0.168 0.168 l -13.264 0 c -0.093 0 -0.168 -0.075 -0.168 -0.168 l 0 -13.264 c 0 -0.093 0.075 -0.168 0.168 -0.168 z" style="stroke-dasharray:none;fill:none;stroke-miterlimit:4;stroke:#89b585;stroke-linecap:round;stroke-width:0.8"/>
 <path d="m 3.6 7.6 2.4 0 l 0 2.4 -2.4 0" style="stroke-dasharray:none;fill:none;stroke-miterlimit:4;stroke:#89b585;stroke-linecap:round;stroke-linejoin:round;stroke-width:0.8"/>
 <path d="m 14 8.801 c 0 0.662 -0.537 1.199 -1.201 1.199 -0.662 0 -1.199 -0.537 -1.199 -1.199 0 -0.664 0.537 -1.201 1.199 -1.201 0.664 0 1.201 0.537 1.201 1.201" style="stroke-dasharray:none;fill:none;stroke-miterlimit:4;stroke:#89b585;stroke-linecap:round;stroke-linejoin:round;stroke-width:0.8"/>
 <path d="m 4.168 3.6 9.266 0 c 0.314 0 0.566 0.264 0.566 0.595 l 0 1.21 c 0 0.331 -0.252 0.595 -0.566 0.595 l -9.266 0 c -0.314 0 -0.568 -0.264 -0.568 -0.595 l 0 -1.21 c 0 -0.331 0.254 -0.595 0.568 -0.595" style="stroke-dasharray:none;fill:none;stroke-miterlimit:4;stroke:#89b585;stroke-linecap:round;stroke-linejoin:round;stroke-width:0.8"/>
 <path d="m 10.8 3.6 0 2.4 2.498 0 c 0.391 0 0.702 -0.329 0.702 -0.74 l 0 -0.914 c 0 -0.411 -0.311 -0.746 -0.702 -0.746" style="stroke-dasharray:none;fill:none;stroke-miterlimit:4;stroke:#89b585;stroke-linecap:round;stroke-linejoin:round;stroke-width:0.8"/>
 <path d="m 3.6 11.6 2.4 0 l 0 2.4 -2.4 0" style="stroke-dasharray:none;fill:none;stroke-miterlimit:4;stroke:#89b585;stroke-linecap:round;stroke-linejoin:round;stroke-width:0.8"/>
 <path d="m 14 12.799 c 0 0.664 -0.537 1.201 -1.201 1.201 -0.662 0 -1.199 -0.537 -1.199 -1.201 0 -0.662 0.537 -1.199 1.199 -1.199 0.664 0 1.201 0.537 1.201 1.199" style="stroke-dasharray:none;fill:none;stroke-miterlimit:4;stroke:#89b585;stroke-linecap:round;stroke-linejoin:round;stroke-width:0.8"/>
</svg>
