<svg xmlns="http://www.w3.org/2000/svg" width="22" height="22" viewBox="0 0 17.6 17.6">
 <g transform="matrix(0.45833218,0,0,0.45833218,1.2162384e-4,9.9971084e-4)">
  <path d="m 16.25 5.416 c -1.072 0.013 -1.766 0.084 -1.766 0.084 l -0.172 0.02 -0.145 0.096 c -0.294 0.196 -0.448 0.635 -0.416 0.908 0.032 0.273 0.132 0.443 0.223 0.588 0.088 0.14 0.115 0.153 0.189 0.238 l 0.154 4.262 -4.199 16.486 c -0.78 2.582 -0.965 4.199 -0.936 5.219 0.015 0.512 0.085 0.876 0.166 1.133 0.081 0.257 0.23 0.475 0.23 0.475 l 0.053 0.068 0.068 0.055 c 2.619 2.028 5.675 2.305 8.371 2.1 -0.015 -0.416 0.002 -0.874 0.105 -1.43 -2.497 0.204 -5.217 -0.017 -7.496 -1.721 -0.035 -0.117 -0.085 -0.33 -0.096 -0.719 -0.023 -0.809 0.128 -2.298 0.887 -4.803 l 0.004 -0.016 4.25 -16.697 -0.172 -4.836 c 0.546 -0.041 1.825 -0.035 3.594 0.113 l -0.453 4.617 3.045 14.08 0.902 -2.471 -2.531 -11.693 0.434 -4.398 c 0.099 -0.157 0.318 -0.274 0.338 -0.408 0.046 -0.32 -0.031 -0.576 -0.031 -0.576 l -0.119 -0.439 -0.449 -0.07 c -1.511 -0.233 -2.961 -0.279 -4.03 -0.266" transform="scale(0.8,0.8)" mix-blend-mode="normal" isolation="auto" white-space="normal" solid-opacity="1" solid-color="#000000" style="visibility:visible;shape-rendering:auto;color-interpolation-filters:linearRGB;fill:#5b93d7;opacity:1;image-rendering:auto;fill-opacity:1;stroke:none;display:inline;color:#000;fill-rule:evenodd;color-rendering:auto;color-interpolation:sRGB"/>
  <path d="m 11.986 28.5 -0.004 0.023 c -0.005 0.02 -0.01 0.034 -0.01 0.049 -0.752 2.48 -0.895 3.937 -0.875 4.693 0.01 0.278 0.034 0.439 0.059 0.547 2.16 1.539 4.72 1.704 7.113 1.484 0.189 -0.808 0.514 -1.755 1.037 -2.883 l 1.418 -3.891 c -3.855 1.74 -6.771 1.088 -8.738 -0.023 z" transform="scale(0.8,0.8)" style="fill:#adc3e2;fill-rule:evenodd"/>
 </g>
 <path d="m 9.783 2.789 -0.128 0.028 -0.216 0.493 0.161 0.09 c 0.001 0.011 0.003 0.025 0.003 0.025 l 0 0.008 0.051 1.43 0.009 0.03 c 0.015 0.052 0.021 0.051 0.027 0.057 0 -0.008 -0.051 0.104 -0.102 0.192 -0.055 0.093 -0.106 0.175 -0.106 0.175 l -0.015 0.023 -2.387 6.547 0.009 -0.021 c -0.442 0.945 -0.514 1.559 -0.45 1.965 0.032 0.203 0.099 0.352 0.167 0.452 0.064 0.094 0.138 0.148 0.148 0.155 1.99 1.665 4.509 1.132 5.672 0.945 1.33 -0.213 1.601 -1.481 1.601 -1.481 l 0.009 -0.046 -0.008 -0.047 c -0.46 -2.626 -2.132 -8.812 -2.157 -8.902 l 0.159 -1.291 -0.001 -0.022 c -0.006 -0.118 0.042 -0.157 0.042 -0.157 l 0.089 -0.091 -0.019 -0.126 c -0.029 -0.193 -0.19 -0.327 -0.305 -0.367 -0.115 -0.04 -0.214 -0.031 -0.215 -0.03 l -0.001 0 c -1.368 -0.154 -2.036 -0.034 -2.036 -0.034 m 0.32 0.507 c 0.106 -0.019 0.466 -0.108 1.701 0.039 l 0.008 0.001 c -0.051 0.095 -0.107 0.115 -0.098 0.284 l 0.002 -0.044 -0.169 1.368 0.013 0.048 c 0 0 1.685 6.253 2.146 8.848 -0.011 0.061 -0.163 0.875 -1.163 1.035 l -0.001 0 c -1.198 0.192 -3.486 0.667 -5.272 -0.838 l -0.011 -0.009 -0.012 -0.008 c 0 0 0.009 0.012 -0.017 -0.026 -0.026 -0.038 -0.064 -0.111 -0.085 -0.243 -0.042 -0.266 -0.006 -0.781 0.408 -1.668 l 0.005 -0.01 2.373 -6.509 c 0.013 -0.021 0.048 -0.075 0.099 -0.163 0.06 -0.103 0.122 -0.189 0.16 -0.33 0.029 -0.109 0.015 -0.218 -0.013 -0.29 -0.005 -0.012 -0.008 -0.017 -0.013 -0.027 l -0.048 -1.331 0 0.017 c 0 0 0 -0.068 -0.013 -0.144 z" mix-blend-mode="normal" isolation="auto" white-space="normal" solid-opacity="1" solid-color="#000000" style="visibility:visible;shape-rendering:auto;color-interpolation-filters:linearRGB;fill:#5b93d7;opacity:1;image-rendering:auto;fill-opacity:1;stroke:none;display:inline;color:#000;fill-rule:evenodd;color-rendering:auto;color-interpolation:sRGB"/>
 <path d="m 8.108 11.305 -0.299 0.818 c -0.004 0.013 -0.009 0.025 -0.014 0.038 -0.405 0.865 -0.428 1.346 -0.394 1.563 0.016 0.106 0.045 0.15 0.054 0.163 1.687 1.423 3.821 0.972 5.04 0.777 0.739 -0.118 0.915 -0.659 0.952 -0.82 -0.106 -0.591 -0.276 -1.371 -0.473 -2.224 -2.191 0.542 -3.79 0.199 -4.866 -0.315 z" style="fill:#adc3e2;fill-rule:evenodd"/>
</svg>
