<svg xmlns="http://www.w3.org/2000/svg" width="22" height="22" viewBox="0 0 17.6 17.6">
 <path d="m 2.094 1.6 c -0.275 0 -0.494 0.213 -0.494 0.478 l 0 13.444 c 0 0.265 0.219 0.478 0.494 0.478 l 3.01 0 c 0.277 0 0.497 -0.213 0.497 -0.478 l 0 -13.444 c 0 -0.265 -0.22 -0.478 -0.497 -0.478 l -3.01 0 z m 0.306 0.8 2.4 0 0 6.4 -2.4 0 0 -6.4 z m 1.2 9 a 1 1 0 0 1 1 1 1 1 0 0 1 -1 1 1 1 0 0 1 -1 -1 1 1 0 0 1 1 -1 z" style="fill:#b2a546"/>
 <path d="m 6.816 1.6 c -0.231 0 -0.416 0.213 -0.416 0.478 l 0 13.444 c 0 0.265 0.185 0.478 0.416 0.478 l 1.567 0 c 0.232 0 0.417 -0.213 0.417 -0.478 l 0 -13.444 c 0 -0.265 -0.185 -0.478 -0.417 -0.478 l -1.567 0 z m 0.384 0.8 0.8 0 0 6.4 -0.8 0 0 -6.4 z m 0.4 9.4 a 0.6 0.6 0 0 1 0.6 0.6 0.6 0.6 0 0 1 -0.6 0.6 0.6 0.6 0 0 1 -0.6 -0.6 0.6 0.6 0 0 1 0.6 -0.6" style="fill:#b2a546"/>
 <path d="m 9.827 2.159 c -0.297 0.079 -0.481 0.347 -0.412 0.601 l 3.479 12.901 c 0.069 0.255 0.362 0.395 0.66 0.316 l 2.02 -0.537 c 0.299 -0.08 0.482 -0.347 0.414 -0.602 l -3.479 -12.901 c -0.069 -0.255 -0.362 -0.395 -0.661 -0.316 l -2.02 0.537 m 0.444 0.705 1.545 -0.411 1.656 6.142 -1.545 0.411 -1.656 -6.142 z m 3.154 8.623 a 0.8 0.795 0 0 1 0.98 0.562 0.8 0.795 0 0 1 -0.566 0.973 0.8 0.795 0 0 1 -0.98 -0.562 0.8 0.795 0 0 1 0.566 -0.973 z" style="fill:#b2a546"/>
</svg>
