<svg xmlns="http://www.w3.org/2000/svg" viewBox="0 0 22 22">
 <path d="m 10.996 2.5 c -2.253 0 -4.385 0.887 -5.993 2.496 -1.613 1.609 -2.503 3.737 -2.503 5.991 0 4.694 3.811 8.514 8.496 8.514 4.689 0 8.504 -3.819 8.504 -8.514 0 -4.679 -3.815 -8.486 -8.504 -8.486 m 0 0.351 c 4.494 0 8.153 3.652 8.153 8.135 0 4.503 -3.658 8.166 -8.153 8.166 -4.49 0 -8.145 -3.663 -8.145 -8.166 0 -2.16 0.851 -4.198 2.397 -5.741 c 1.546 -1.543 3.588 -2.394 5.747 -2.394" style="fill:#78b2a3"/>
 <g transform="matrix(0.99954062,0,0,0.99977023,0.11828261,0.1177355)">
  <g>
   <path d="m 8.266 3.82 c -0.043 0 -0.082 0.016 -0.125 0.039 0.098 -0.031 0.148 -0.039 0.125 -0.039 m 2.539 0.496 0.023 -0.375 -0.391 0.027 0.051 0.348 0.316 0 m -4.426 6.422 c -0.078 -0.074 -0.027 -0.398 -0.027 -0.398 0 0 -1.176 -0.617 -2.461 -0.992 c -0.156 -0.043 -0.078 -0.371 0.078 -0.496 l -0.051 -0.344 c -0.027 -0.176 0.262 -1.02 0.551 -1.094 0.285 -0.074 -0.027 0.496 -0.027 0.496 l -0.289 0.172 c 0 0 0.34 0.398 0.418 0.398 0.082 0 0.211 -0.199 0.211 -0.199 l -0.367 -0.246 0.34 -0.148 0.023 -0.133 0.059 -0.016 0.563 -0.855 c 0.391 -0.16 0.867 -0.355 0.93 -0.387 0.105 -0.047 0.836 -0.469 0.969 -0.566 0.133 -0.102 0.418 -0.074 0.523 -0.074 0.105 0 0.262 -0.051 0.289 -0.324 0.023 -0.273 0.129 -0.324 0.207 -0.246 0.082 0.07 -0.078 0.195 0.105 0.246 0.184 0.047 0.34 0.172 0.473 0.047 0.094 -0.09 -0.035 -0.191 -0.121 -0.27 l 1.457 0 0.156 -0.449 -0.34 -0.047 -1.258 -0.125 0 -0.148 l -0.102 0.016 c 0.137 -0.746 0.945 -0.621 0.336 -1.059 -0.035 -0.023 -0.57 0.84 -0.703 0.824 -0.246 -0.031 -0.562 -0.035 -0.629 0.043 -0.09 0.109 0.199 -0.363 0.449 -0.504 -0.301 0.09 -0.832 -0.184 -1.797 0.496 -0.324 0.23 -1.145 1.164 -1.48 1.523 -1.422 1.68 -1.535 3.113 -1.535 3.176 c 0 0.125 0.301 0.195 0.328 0.344 0.023 0.148 -0.5 0.645 -0.5 0.891 0 0.113 -0.262 1.352 0.316 2.902 0.508 1.469 1.496 2.766 1.625 2.848 l 0.363 -0.195 c 0 0 -0.602 -1.063 -0.625 -1.164 -0.027 -0.098 0.68 -1.539 1.02 -1.488 0.34 0.047 0.262 0.148 0.473 0.027 0.207 -0.125 0.34 -1.145 0.574 -1.242 c 0.238 -0.102 0.496 -0.223 0.473 -0.473 -0.027 -0.246 -0.918 -0.691 -0.996 -0.766 m 5.684 -7.289 -0.707 -0.25 0.129 0.398 0.578 -0.148 m -2.645 0.914 c 0.078 0 1.648 -1.039 1.492 -1.066 -0.156 -0.023 -0.184 0 -0.605 -0.047 c -0.418 -0.051 -0.863 0.594 -0.969 0.691 -0.102 0.102 -0.07 0.422 0.082 0.422 m 7.207 7.477 0.203 -0.262 -0.203 -0.07 -0.148 0.191 -0.18 0.262 0.152 0.07 0.176 -0.191 m 0.891 0.863 -0.055 -0.383 -0.328 0 -0.023 0.285 -0.305 -0.047 -0.074 -0.309 -0.152 -0.098 -0.18 0.215 -0.18 -0.047 -0.051 0.164 0.203 0.051 0 1.555 0.719 0.172 c -0.016 0.027 -0.027 0.051 -0.031 0.063 -0.051 0.168 0.199 0.242 0.379 0.168 0.066 -0.023 0.48 -0.184 0.609 -0.496 0.184 -0.434 0.301 -1.063 0.332 -1.262 l -0.078 -0.176 -0.508 0.191 -0.281 -0.047 0.004 0 m -0.258 -6.359 c -1.156 -1.758 -3.945 -2.91 -3.945 -2.91 l -0.715 0.379 -0.102 -0.168 l -0.254 -0.094 0 0.215 0.227 0.191 -0.152 0.07 -0.582 0.047 -1.316 0.719 0.125 0.574 -0.152 0.047 -0.074 0.117 0.43 0.645 0.023 0.219 -0.352 0.07 0 0.43 -0.203 0.047 0.027 0.336 -1.727 1.195 0.051 0.668 c 0.129 0.168 1.113 1.172 1.113 1.172 c 0 0 1.145 0.047 1.395 -0.098 0.258 -0.141 0.078 0.145 0.152 0.215 0.078 0.074 0.105 0.574 0.18 0.625 0.078 0.047 0 0.332 0.102 0.43 0.102 0.094 0.102 1.242 0.102 1.242 0 0 0.609 1.027 0.609 1.289 0 0.262 -0.027 0.238 0.453 0.215 0.484 -0.023 0.582 -0.215 0.688 -0.285 0.102 -0.07 0.102 -0.238 0.199 -0.383 0.105 -0.145 0.281 -0.691 0.508 -0.883 0.23 -0.195 0.84 -0.336 0.887 -0.672 0.051 -0.336 0.281 -0.598 0.281 -0.598 l 1.094 -1.156 -0.027 0.156 -0.027 0.598 0.328 -0.121 -0.023 -0.645 -0.117 -0.125 0.016 -0.02 c 0 0 -0.078 -0.145 -0.176 -0.145 -0.102 0 -0.711 0.145 -0.813 0.121 -0.102 -0.027 -0.531 -1.172 -0.609 -1.219 -0.078 -0.051 -0.559 -0.836 -0.559 -0.836 0 0 1.117 1.336 1.293 1.863 0.105 0.305 0.492 0.02 0.805 -0.301 l 0.086 0.203 0.199 -0.047 -0.023 -0.238 l 0.227 0 0 0.359 -0.074 0.191 -0.027 0.309 0.203 0.191 0.102 -0.168 0.328 -0.309 0.383 -0.191 0.098 0.191 0.055 0.262 -0.102 0.289 -0.203 0.168 -0.102 0.43 0 0.215 -0.23 -0.145 -0.023 -0.453 -0.332 0.023 -0.148 0.406 0.227 0.336 0.531 0.07 0.434 -0.406 0.047 -0.785 0.195 -0.258 c 0.125 0.324 0.215 0.66 0.215 0.973 0 0.344 0.27 -0.176 0.137 -1.219 0 -0.004 -0.211 -2.488 -1.359 -3.637 z m -5.066 1.027 -1.367 -0.047 0.582 -0.477 0.305 0 0.48 0.332 0 0.191 m 1.672 -0.164 0 0.215 -0.582 0 0.051 0.141 -0.355 0.047 -0.027 0.121 -0.25 -0.047 l -0.457 -0.094 0.074 -0.121 0.078 -0.145 0.254 -0.262 0.102 0.191 0.379 -0.023 0.203 -0.215 0.789 0.141 -0.258 0.051 m 0.051 -0.313 -0.305 0.047 -0.051 -0.215 0.383 -0.047 0.051 -0.215 l 0.277 0.285 -0.355 0.145 m 1.473 7.43 -0.18 0.145 0.023 0.359 0.23 0 0 -0.309 0.203 -0.266 0 -0.547 -0.129 -0.027 -0.148 0.645 m -1.699 -0.715 c 0 0 -0.18 0.047 0.023 0.121 0.203 0.07 1.016 -1.172 1.016 -1.172 l -0.688 0.43 -0.352 0.621 m -1.383 4.582 -0.148 -0.148 -0.305 -0.047 -0.051 0.148 -0.406 -0.051 -0.027 -0.191 -0.305 0 -0.328 0.191 -0.582 0 l -0.051 -0.145 -0.934 -0.098 -0.152 0.145 -0.383 -0.094 -0.051 -0.336 -0.176 -0.027 -0.203 0.363 -0.684 -0.027 c 0.125 0.059 1.145 0.668 2.711 0.797 2.074 0.168 3.066 -0.336 3.066 -0.336 l -0.078 -0.074 z" style="fill:#78b2a3"/>
  </g>
 </g>
</svg>
