<svg xmlns="http://www.w3.org/2000/svg" viewBox="0 0 22 22">
 <path d="m 9.03 4.678 1.783 4.524 2 -5.146" style="stroke-dasharray:none;fill:none;stroke-miterlimit:4;stroke:#de4646;stroke-linecap:round;stroke-linejoin:round;stroke-width:0.344"/>
 <path d="m 9.03 4.678 -3.46 4.829 0.669 -4.31" style="stroke-dasharray:none;fill:none;stroke-miterlimit:4;stroke:#de4646;stroke-linecap:round;stroke-linejoin:round;stroke-width:0.344"/>
 <path d="m 12.819 4.06 3.968 3.988 -0.829 -4.093" style="stroke-dasharray:none;fill:none;stroke-miterlimit:4;stroke:#de4646;stroke-linecap:round;stroke-linejoin:round;stroke-width:0.344"/>
 <path d="m 2.578 9.552 9.603 8.494 -4.188 -8.56" style="stroke-dasharray:none;fill:none;stroke-miterlimit:4;stroke:#de4646;stroke-linecap:round;stroke-linejoin:round;stroke-width:0.344"/>
 <path d="m 2.578 9.552 3.65 -4.356 2.805 -0.519 -1.041 4.809" style="stroke-dasharray:none;fill:none;stroke-miterlimit:4;stroke:#de4646;stroke-linecap:round;stroke-linejoin:round;stroke-width:0.344"/>
 <path d="m 12.819 4.056 3.139 -0.101 3.463 3.343 -5.529 1.573" style="stroke-dasharray:none;fill:none;stroke-miterlimit:4;stroke:#de4646;stroke-linecap:round;stroke-linejoin:round;stroke-width:0.344"/>
 <path d="m 9.03 4.678 3.786 -0.621 1.074 4.815 -5.9 0.616" style="stroke-dasharray:none;fill:none;stroke-miterlimit:4;stroke:#de4646;stroke-linecap:round;stroke-linejoin:round;stroke-width:0.344"/>
 <path d="m 12.181 18.05 7.241 -10.748 -5.529 1.572" style="stroke-dasharray:none;fill:none;stroke-miterlimit:4;stroke:#de4646;stroke-linecap:round;stroke-linejoin:round;stroke-width:0.344"/>
 <path d="m 16.788 8.05 -4.607 9.999" style="stroke-dasharray:none;fill:none;stroke-miterlimit:4;stroke:#de4646;stroke-linecap:round;stroke-linejoin:round;stroke-width:0.172"/>
 <path d="m 10.816 9.202 1.364 8.845" style="stroke-dasharray:none;fill:none;stroke-miterlimit:4;stroke:#de4646;stroke-linecap:round;stroke-linejoin:round;stroke-width:0.172"/>
 <path d="m 5.573 9.507 6.607 8.54" style="stroke-dasharray:none;fill:none;stroke-miterlimit:4;stroke:#de4646;stroke-linecap:round;stroke-linejoin:round;stroke-width:0.172"/>
</svg>
