<svg xmlns="http://www.w3.org/2000/svg" viewBox="0 0 22 22">
 <path d="m 3 3 0 11 1 0 0 -11" style="fill:#ec86ab"/>
 <path d="m 5 14.5 c 0 0.826 -0.67 1.5 -1.502 1.5 -0.828 0 -1.498 -0.674 -1.498 -1.5 0 -0.826 0.67 -1.5 1.498 -1.5 0.832 0 1.502 0.674 1.502 1.5" style="fill:#ec86ab"/>
 <path d="m 9 19 0 -14.176 -1 0 l 0 14.176" style="fill:#ec86ab"/>
 <path d="m 7 4.504 c 0 -0.831 0.674 -1.504 1.5 -1.504 0.826 0 1.5 0.674 1.5 1.504 0 0.826 -0.674 1.496 -1.5 1.496 -0.826 0 -1.5 -0.669 -1.5 -1.496" style="fill:#ec86ab"/>
 <path d="m 13 3 0 10 1 0 0 -10 z" style="fill:#ec86ab"/>
 <path d="m 15 13.5 c 0 0.831 -0.669 1.5 -1.496 1.5 -0.831 0 -1.504 -0.669 -1.504 -1.5 0 -0.826 0.674 -1.5 1.504 -1.5 0.826 0 1.496 0.674 1.496 1.5" style="fill:#ec86ab"/>
 <path d="m 19 19 0 -7.5 -1 0 0 7.5 z" style="fill:#ec86ab"/>
 <path d="m 17 11.5 c 0 -0.831 0.674 -1.5 1.5 -1.5 0.826 0 1.5 0.669 1.5 1.5 0 0.826 -0.674 1.5 -1.5 1.5 -0.826 0 -1.5 -0.674 -1.5 -1.5" style="fill:#ec86ab"/>
</svg>
