<svg xmlns="http://www.w3.org/2000/svg" viewBox="0 0 22 22">
 <g transform="translate(0.1149841,0.1132815)" style="fill:#6f8bc0">
  <path d="m 16.387 2.383 c -3.566 0 -4.234 5.04 -2.227 5.04 2 0 5.793 -5.04 2.227 -5.04 z"/>
  <path d="m 10.469 6.797 c 1.066 0.066 2.238 -4.04 0.23 -3.785 -2.01 0.258 -1.301 3.719 -0.23 3.785"/>
  <path d="m 5.57 9.352 c 0.762 -0.332 0.098 -3.578 -1.191 -2.695 -1.293 0.887 0.434 3.02 1.191 2.695"/>
  <path d="m 7.711 7.652 c 0.906 -0.184 0.953 -3.867 -0.656 -3.207 -1.613 0.664 -0.246 3.391 0.656 3.207"/>
  <path d="m 12.434 15.887 c 0.16 1.219 -0.898 1.816 -1.934 1.035 -3.305 -2.496 5.469 -3.742 4.887 -7.152 -0.477 -2.828 -9.227 -1.957 -10.223 2.473 c -0.676 2.992 2.773 7.148 6.375 7.148 1.773 0 3.816 -1.586 4.195 -3.598 0.293 -1.531 -3.434 -0.918 -3.301 0.094 z"/>
 </g>
</svg>
