<svg xmlns="http://www.w3.org/2000/svg" viewBox="0 0 22 22">
 <path d="m 5.5 14.984 c 0 0 0 0 0 0 l 0 0 c 0 0 0 0 0 0 l 0 0 0 0 0 0 0 0 0 0 c 0 0 0 0 0 0 l 0 0 c 0 0 0 0 0 0 l 0 0 0 0 z m 0 0 0 0 0 0 0 0 0 0 z m 0 0 0 0 0 0 0 0 0 0 z" style="fill:#c0956e;opacity:0.8;color:#000"/>
 <path d="m 7.538 3 c -0.293 0.031 -0.54 0.308 -0.538 0.604 l 0 4.792 c 0 0.316 0.286 0.604 0.601 0.604 l 2.403 0 1.925 0 2.47 0 c 0.315 0 0.601 -0.288 0.601 -0.604 l 0 -4.792 c 0 -0.316 -0.286 -0.604 -0.601 -0.604 l -6.798 0" style="fill:#c0956e;color:#000"/>
 <path d="m 2.538 13 c -0.293 0.031 -0.54 0.308 -0.538 0.604 l 0 4.792 c 0 0.316 0.286 0.604 0.601 0.604 l 2.403 0 1.925 0 2.47 0 c 0.315 0 0.601 -0.288 0.601 -0.604 l 0 -4.792 c 0 -0.316 -0.286 -0.604 -0.601 -0.604 l -6.798 0 z" style="fill:#c0956e;color:#000"/>
 <path d="m 12.538 13 c -0.293 0.031 -0.54 0.308 -0.538 0.604 l 0 4.792 c 0 0.316 0.286 0.604 0.601 0.604 l 2.403 0 1.925 0 2.47 0 c 0.315 0 0.601 -0.288 0.601 -0.604 l 0 -4.792 c 0 -0.316 -0.286 -0.604 -0.601 -0.604 l -6.798 0 z" style="fill:#c0956e;color:#000"/>
 <g transform="matrix(0.5,0,0,0.5,-0.99999999,-503.1811)" style="fill:#c0956e">
  <path transform="translate(0,1004.3622)" d="m 23 21 0 2 -10 0 0 4 2 0 0 -2 18 0 0 2 2 0 0 -4 -10 0 0 -2 z"/>
 </g>
</svg>
