<svg xmlns="http://www.w3.org/2000/svg" width="22" height="22" viewBox="0 0 17.6 17.6">
 <path d="m 8 3.305 c 0 -0.224 -0.18 -0.405 -0.402 -0.405 -0.22 0 -0.398 0.181 -0.398 0.405 l 0 1.495 0.8 0" style="fill:#555"/>
 <path d="m 10.4 3.305 c 0 -0.224 -0.178 -0.405 -0.401 -0.405 -0.221 0 -0.399 0.181 -0.399 0.405 l 0 1.495 l 0.8 0 z" style="fill:#555"/>
 <path d="m 14.293 10.4 c 0.226 0 0.407 -0.179 0.407 -0.4 0 -0.221 -0.181 -0.4 -0.407 -0.4 l -1.493 0 l 0 0.8 z" style="fill:#555"/>
 <path d="m 14.293 8 c 0.226 0 0.407 -0.18 0.407 -0.401 0 -0.221 -0.181 -0.399 -0.407 -0.399 l -1.493 0 0 0.8" style="fill:#555"/>
 <path d="m 11.134 12 c 0.476 0 0.866 -0.388 0.866 -0.867 l 0 -4.666 c 0 -0.479 -0.389 -0.867 -0.866 -0.867 l -4.668 0 c -0.476 0 -0.866 0.388 -0.866 0.867 l 0 4.666 c 0 0.479 0.389 0.867 0.866 0.867" style="fill:#555"/>
 <path d="m 9.6 14.295 c 0 0.224 0.18 0.405 0.402 0.405 0.22 0 0.398 -0.181 0.398 -0.405 l 0 -1.495 -0.8 0 z" style="fill:#555"/>
 <path d="m 7.2 14.295 c 0 0.224 0.178 0.405 0.401 0.405 0.221 0 0.399 -0.181 0.399 -0.405 l 0 -1.495 l -0.8 0 z" style="fill:#555"/>
 <path d="m 3.307 7.2 c -0.226 0 -0.407 0.179 -0.407 0.4 0 0.221 0.181 0.4 0.407 0.4 l 1.493 0 0 -0.8 z" style="fill:#555"/>
 <path d="m 3.307 9.6 c -0.226 0 -0.407 0.18 -0.407 0.401 0 0.221 0.181 0.399 0.407 0.399 l 1.493 0 0 -0.8" style="fill:#555"/>
</svg>
