<svg xmlns="http://www.w3.org/2000/svg" viewBox="0 0 22 22">
 <path d="m 11 2 c -1.379 0 -2.682 0.32 -3.851 0.876 l -0.083 -0.03 c -0.01 0.028 -0.019 0.057 -0.029 0.085 c -2.979 1.468 -5.04 4.528 -5.04 8.07 c 0 3.545 2.061 6.606 5.04 8.07 0.012 0.027 0.021 0.056 0.033 0.083 l 0.073 -0.032 c 1.169 0.556 2.471 0.876 3.85 0.876 c 1.38 0 2.682 -0.321 3.852 -0.877 l 0.074 0.032 c 0.012 -0.028 0.021 -0.056 0.033 -0.084 c 2.981 -1.467 5.04 -4.528 5.04 -8.07 0 -3.541 -2.056 -6.6 -5.03 -8.07 -0.01 -0.028 -0.019 -0.058 -0.029 -0.086 l -0.085 0.031 c -1.169 -0.556 -2.472 -0.877 -3.852 -0.877 m -0.5 1.025 0 3.475 l 1 0 0 -3.475 c 0.942 0.058 1.836 0.282 2.66 0.637 c 0.374 1.088 0.674 2.206 0.888 3.338 l -1.048 0 l 0 1 1.215 0 c 0.121 0.832 0.195 1.668 0.226 2.5 l -1.44 0 l 0 1 1.454 0 c -0.007 0.843 -0.06 1.679 -0.166 2.5 l -1.288 0 l 0 1 1.134 0 c -0.211 1.156 -0.53 2.272 -0.954 3.33 c -0.829 0.359 -1.731 0.586 -2.68 0.645 l 0 -3.475 -1 0 0 3.475 c -0.947 -0.058 -1.847 -0.284 -2.676 -0.643 -0.425 -1.059 -0.745 -2.175 -0.956 -3.332 l 1.132 0 0 -1 -1.287 0 c -0.106 -0.821 -0.159 -1.657 -0.166 -2.5 l 1.453 0 l 0 -1 -1.439 0 c 0.03 -0.832 0.104 -1.667 0.226 -2.5 l 1.214 0 0 -1 -1.047 0 c 0.215 -1.132 0.514 -2.25 0.89 -3.339 0.823 -0.354 1.717 -0.578 2.657 -0.636 m -3.928 1.325 c -0.259 0.871 -0.476 1.756 -0.64 2.649 l -1.854 0 c 0.617 -1.064 1.473 -1.969 2.493 -2.649 m 8.859 0.002 c 1.018 0.68 1.873 1.585 2.489 2.647 l -1.852 0 c -0.163 -0.893 -0.379 -1.777 -0.638 -2.647 m -11.851 3.647 2.188 0 c -0.117 0.832 -0.185 1.667 -0.215 2.5 l -2.53 0 c 0.054 -0.879 0.242 -1.721 0.557 -2.5 m 12.65 0 2.188 0 c 0.315 0.779 0.502 1.621 0.557 2.5 l -2.529 0 c -0.029 -0.833 -0.098 -1.668 -0.215 -2.5 m -13.207 3.5 2.517 0 c 0.007 0.841 0.059 1.676 0.161 2.5 l -2.104 0 c -0.316 -0.78 -0.52 -1.618 -0.574 -2.5 m 13.436 0 2.516 0 c -0.054 0.882 -0.258 1.72 -0.574 2.5 l -2.103 0 c 0.102 -0.824 0.154 -1.659 0.161 -2.5 z m -12.381 3.5 1.772 0 c 0.155 0.887 0.368 1.756 0.643 2.6 -0.987 -0.674 -1.815 -1.561 -2.415 -2.6 m 12.07 0 1.771 0 c -0.6 1.038 -1.427 1.924 -2.413 2.598 c 0.274 -0.843 0.488 -1.711 0.643 -2.598" style="fill:#e78684;fill-opacity:1"/>
 <rect width="6" height="9" x="8" y="6.5" rx="0.044" ry="0.042" style="stroke-dasharray:none;stroke-opacity:1;fill:none;opacity:1;stroke-miterlimit:4;fill-opacity:1;stroke:#e78684;fill-rule:nonzero;stroke-linecap:round;stroke-linejoin:miter;stroke-width:1;stroke-dashoffset:0"/>
 <circle cx="12" cy="11" r="0.75" style="fill:#e78684;opacity:1;fill-opacity:1;stroke:none;fill-rule:nonzero"/>
</svg>
