<!-- color: #46baa7 -->
<svg xmlns="http://www.w3.org/2000/svg" viewBox="0 0 22 22">
 <path d="M 8,1 C 7.7245,1 7.5,1.2245 7.5,1.5 7.499756,1.8242815 7.5,3 7.5,3 L 6.4065,3 C 5.625,3 5,3.658 5,4.4375 l 0,15.125 C 5,20.342 5.627,21 6.4065,21 l 9.1875,0 C 16.3735,21 17,20.342 17,19.5625 L 17,4.4375 C 17,3.658 16.3755,3 15.594,3 L 14.5,3 14.5,1.5 C 14.5,1.2245 14.2755,1 14,1 Z m 7.594,3 C 15.809,4 16,4.174 16,4.4375 l 0,15.125 C 16,19.826 15.811,20 15.594,20 L 6.4065,20 C 6.1895,20 6,19.826 6,19.5625 L 6,4.4375 C 6,4.174 6.1915,4 6.4065,4 Z M 15,8 l -8,5 0,6 8,0 z" style="fill:#ecb040;fill-opacity:1;stroke:none;fill-rule:nonzero"/>
</svg>
