<svg xmlns="http://www.w3.org/2000/svg" viewBox="0 0 22 22">
 <path d="m 11.597 14.374 c -0.043 -1.542 0.305 -3.037 1.776 -4.099 c 1.55 -1.199 3.041 -2.698 2.885 -4.466 -0.039 -1.706 -2.038 -3.045 -4.197 -3.237 -2.424 -0.332 -5.36 0.492 -6.176 2.374 c -0.41 0.914 -0.027 2.557 1.355 2.557 0.812 0 1.183 -0.519 1.242 -0.996 c 0.047 -0.359 -0.102 -0.679 -0.191 -0.976 -0.098 -0.34 0.328 -0.992 0.793 -1.261 0.39 -0.223 0.796 -0.297 0.855 -0.312 1.398 -0.332 2.788 0.402 3.365 1.296 c 0.582 0.898 -0.059 2.253 -0.972 3.572 -0.921 1.32 -1.905 2.819 -1.901 4.412 0 0.605 -0.055 0.812 -0.016 1.058 0.031 0.195 0.683 0.172 1.183 0.078 z m -0.636 2.077 c -1.335 -0.07 -2.257 1.429 -1.456 2.385 0.714 1.058 2.725 0.796 3.065 -0.398 0.359 -0.933 -0.5 -2 -1.609 -1.987 z" style="fill:#9cc7cf"/>
</svg>
