<svg xmlns="http://www.w3.org/2000/svg" xmlns:svg="http://www.w3.org/2000/svg" style="enable-background:new 0 0 426.667 426.667" id="Layer_1" width="512" height="512" x="0" y="0" version="1.1" viewBox="0 0 426.667 426.667" xml:space="preserve"><metadata id="metadata27"/><g id="g6"><g id="g4"><path style="fill:#fff" id="path2" d="M 213.333,0 C 95.513,0 0,95.513 0,213.333 c 0,117.82 95.513,213.333 213.333,213.333 117.82,0 213.333,-95.513 213.333,-213.333 C 426.666,95.513 331.154,0 213.333,0 Z m 0,387.413 c -96.142,0 -174.08,-77.938 -174.08,-174.08 0,-96.142 77.938,-174.08 174.08,-174.08 96.093,0.118 173.962,77.987 174.08,174.08 0,96.142 -77.938,174.08 -174.08,174.08 z" class="active-path" data-old_color="#000000" data-original="#000000"/></g></g><g id="g12" style="fill:#ee4f84;fill-opacity:1"><g id="g10" style="fill:#ee4f84;fill-opacity:1"><circle style="fill:#ee4f84;fill-opacity:1" id="circle8" cx="213.333" cy="213.333" r="64" class="active-path" data-old_color="#000000" data-original="#000000"/></g></g><g id="g18"><g id="g16"><path style="fill:#ee4f84;fill-opacity:1" id="path14" d="M 213.333,128 C 166.205,128 128,166.205 128,213.333 c 0,47.128 38.205,85.333 85.333,85.333 47.128,0 85.333,-38.205 85.333,-85.333 0,-47.128 -38.204,-85.333 -85.333,-85.333 z m 0,128 c -23.564,0 -42.667,-19.103 -42.667,-42.667 0,-23.564 19.103,-42.667 42.667,-42.667 23.564,0 42.667,19.103 42.667,42.667 C 256,236.897 236.897,256 213.333,256 Z" class="active-path" data-old_color="#000000" data-original="#000000"/></g></g></svg>