<?xml version="1.0" encoding="UTF-8" standalone="no"?>
<svg
   xmlns:dc="http://purl.org/dc/elements/1.1/"
   xmlns:cc="http://creativecommons.org/ns#"
   xmlns:rdf="http://www.w3.org/1999/02/22-rdf-syntax-ns#"
   xmlns:svg="http://www.w3.org/2000/svg"
   xmlns="http://www.w3.org/2000/svg"
   xmlns:sodipodi="http://sodipodi.sourceforge.net/DTD/sodipodi-0.dtd"
   xmlns:inkscape="http://www.inkscape.org/namespaces/inkscape"
   width="240"
   height="240"
   viewBox="0 0 240 240"
   version="1.1"
   id="svg4"
   sodipodi:docname="email-6.svg"
   inkscape:version="1.0 (4035a4fb49, 2020-05-01)">
  <metadata
     id="metadata10">
    <rdf:RDF>
      <cc:Work
         rdf:about="">
        <dc:format>image/svg+xml</dc:format>
        <dc:type
           rdf:resource="http://purl.org/dc/dcmitype/StillImage" />
        <dc:title />
      </cc:Work>
    </rdf:RDF>
  </metadata>
  <defs
     id="defs8">
    <rect
       id="rect887"
       height="76.821962"
       width="72.691548"
       y="140.43247"
       x="160.68127" />
    <rect
       id="rect881"
       height="42.253372"
       width="57.559134"
       y="165.94589"
       x="180.14568" />
  </defs>
  <sodipodi:namedview
     inkscape:document-rotation="0"
     pagecolor="#000000"
     bordercolor="#666666"
     borderopacity="1"
     objecttolerance="10"
     gridtolerance="10"
     guidetolerance="10"
     inkscape:pageopacity="0.65098039"
     inkscape:pageshadow="2"
     inkscape:window-width="1321"
     inkscape:window-height="740"
     id="namedview6"
     showgrid="false"
     inkscape:pagecheckerboard="false"
     inkscape:zoom="2.2645626"
     inkscape:cx="118.93231"
     inkscape:cy="121.34259"
     inkscape:window-x="45"
     inkscape:window-y="28"
     inkscape:window-maximized="0"
     inkscape:current-layer="g877" />
  <g
     id="g877">
    <text
       style="font-style:normal;font-weight:normal;font-size:40px;line-height:1.25;font-family:sans-serif;letter-spacing:0px;word-spacing:0px;white-space:pre;shape-inside:url(#rect881);fill:#000000;fill-opacity:1;stroke:none;"
       id="text879"
       xml:space="preserve" />
    <g
       id="g853">
      <path
         d="M 200,40 H 40 C 28.95,40 20.1,48.95 20.1,60 L 20,180 c 0,11.05 8.95,20 20,20 h 160 c 11.05,0 20,-8.95 20,-20 V 60 c 0,-11.05 -8.95,-20 -20,-20 z m 0,40 -80,50 L 40,80 V 60 l 80,50 80,-50 z"
         id="path2"
         style="opacity:0.8;fill:#ffffff;fill-opacity:1;stroke-width:5" />
      <g
         id="g846">
        <ellipse
           id="ellipse16"
           ry="40.319271"
           rx="40.343189"
           cy="176.31927"
           cx="196.3432"
           style="fill:#e04f5f;stroke-width:0.427111" />
        <g
           style="font-style:normal;font-variant:normal;font-weight:normal;font-stretch:normal;font-size:64px;line-height:1.25;font-family:'sf pro d';-inkscape-font-specification:'sf pro d';letter-spacing:0px;word-spacing:0px;white-space:pre;shape-inside:url(#rect887);fill:#000000;fill-opacity:1;stroke:none"
           id="text885"
           transform="translate(0,-0.98869551)"
           aria-label="6">
          <path
             id="path840"
             style="font-style:normal;font-variant:normal;font-weight:bold;font-stretch:normal;font-family:'SF Pro Display';-inkscape-font-specification:'SF Pro Display Bold';text-align:center;text-anchor:middle;fill:#ffffff"
             d="m 197.82422,200.49547 c 10.0625,0 17.375,-6.65625 17.375,-16 0,-8.46875 -5.96875,-14.6875 -14.6875,-14.6875 -6.09375,0 -10.53125,3.0625 -12.28125,7.25 h -0.1875 c -0.0312,-9.875 3.21875,-16.21875 9.78125,-16.21875 3.71875,0 6.40625,1.875 7.46875,5.09375 h 9.3125 c -1.25,-7.4375 -8,-12.5625 -16.75,-12.5625 -11.71875,0 -18.84375,9 -18.84375,23.9375 0,15.5625 8.03125,23.1875 18.8125,23.1875 z m -0.125,-7.5 c -4.625,0 -8.25,-3.625 -8.25,-8.28125 0,-4.59375 3.5625,-7.9375 8.34375,-7.9375 4.71875,0 8.21875,3.375 8.21875,8.125 -0.0312,4.53125 -3.6875,8.09375 -8.3125,8.09375 z" />
        </g>
      </g>
    </g>
  </g>
</svg>
