<svg xmlns="http://www.w3.org/2000/svg" xmlns:svg="http://www.w3.org/2000/svg" id="svg4" width="240" height="240" version="1.1" viewBox="0 0 240 240"><metadata id="metadata10"/><defs id="defs8"><rect id="rect887" width="72.692" height="76.822" x="160.681" y="140.432"/><rect id="rect881" width="57.559" height="42.253" x="180.146" y="165.946"/></defs><g id="g877"><g id="g854"><path id="path2" d="M 200,40 H 40 C 28.95,40 20.1,48.95 20.1,60 L 20,180 c 0,11.05 8.95,20 20,20 h 160 c 11.05,0 20,-8.95 20,-20 V 60 c 0,-11.05 -8.95,-20 -20,-20 z m 0,40 -80,50 L 40,80 V 60 l 80,50 80,-50 z" style="opacity:.8;fill:#fff;fill-opacity:1;stroke-width:5"/><g id="g846"><ellipse id="ellipse16" cx="196.343" cy="176.319" rx="40.343" ry="40.319" style="fill:#e04f5f;stroke-width:.427111"/><g style="font-style:normal;font-variant:normal;font-weight:400;font-stretch:normal;font-size:64px;line-height:1.25;font-family:'sf pro d';-inkscape-font-specification:'sf pro d';letter-spacing:0;word-spacing:0;white-space:pre;shape-inside:url(#rect887);fill:#000;fill-opacity:1;stroke:none" id="text885" aria-label="7" transform="translate(0,-0.98869551)"><path id="path840" d="m 184.24609,199.49547 h 9.90625 l 18.8125,-37.5 v -7.59375 h -32.25 v 7.5 h 22.9375 v 0.1875 z" style="font-style:normal;font-variant:normal;font-weight:700;font-stretch:normal;font-family:'SF Pro Display';-inkscape-font-specification:'SF Pro Display Bold';text-align:center;text-anchor:middle;fill:#fff"/></g></g></g></g></svg>