<svg xmlns="http://www.w3.org/2000/svg" viewBox="0 0 48 48">
 <g transform="translate(4.3724059e-6,-7.9574106e-5)" style="stroke:#777">
  <path d="m 25.932 35.19 a 12.254 12.508 0 1 1 -24.508 0 12.254 12.508 0 1 1 24.508 0 z" transform="matrix(1.59979,0,0,1.56727,2.11819,-31.14659)" style="fill:#fff;stroke-width:0.5"/>
 </g>
 <path d="m 24.12 10 c -6.951 0 -12.623 5.883 -13.05 13.297 l -4.073 0 6.552 10.612 6.552 -10.612 -4.663 0 c 0.402 -4.81 4.129 -8.566 8.677 -8.566 1.682 0 3.274 0.515 4.604 1.406 l 2.243 -4.03 c -1.991 -1.326 -4.34 -2.11 -6.847 -2.11 z m 10.33 4.091 -6.552 10.612 4.663 0 c -0.402 4.81 -4.129 8.566 -8.677 8.566 -1.682 0 -3.274 -0.515 -4.604 -1.406 l -2.243 4.03 c 1.991 1.326 4.34 2.11 6.847 2.11 c 6.951 0 12.623 -5.883 13.05 -13.297 l 4.073 0 -6.552 -10.612 z" style="fill:#dc322f;fill-opacity:1"/>
</svg>
