<svg width="48" xmlns="http://www.w3.org/2000/svg" viewBox="0 0 48 48" height="48">
<path style="fill:#fff;stroke:#777;stroke-width:.792" d="m 43.604269,24.000062 a 19.604206,19.604156 0 0 1 -39.2084117,0 19.604206,19.604156 0 1 1 39.2084117,0 z"/>
<path style="fill:#dc322f;color:#000" d="m 24,12 c -1.485141,0 -2.680761,1.0704 -2.680761,2.4 l 0,5.4 -5.27775,-2.699999 C 14.75532,16.435201 13.098015,16.848533 12.355444,18 c -0.742569,1.151468 -0.280885,2.6352 1.005286,3.300001 L 18.554704,24 13.36073,26.700001 C 12.074559,27.3648 11.612875,28.848533 12.355444,30 c 0.742572,1.151467 2.399876,1.5648 3.686045,0.900001 L 21.319239,28.2 l 0,5.4 c 0,1.3296 1.19562,2.4 2.680761,2.4 1.485144,0 2.680761,-1.0704 2.680761,-2.4 l 0,-5.4 5.277749,2.700001 C 33.24468,31.5648 34.901985,31.151467 35.644557,30 36.387126,28.848533 35.925438,27.3648 34.63927,26.700001 L 29.445295,24 34.63927,21.300001 C 35.925441,20.6352 36.387126,19.151468 35.644557,18 34.901985,16.848533 33.244678,16.435201 31.95851,17.100001 L 26.680761,19.8 l 0,-5.4 C 26.680761,13.0704 25.485142,12 24,12 z"/>
</svg>
