<svg width="48" xmlns="http://www.w3.org/2000/svg" viewBox="0 0 48 48" height="48">
<g style="stroke:#777">
<path style="fill:#fff;stroke-width:.5" d="m 25.932203,35.18644 a 12.254237,12.508474 0 1 1 -24.5084741,0 12.254237,12.508474 0 1 1 24.5084741,0 z" transform="matrix(1.59979 0 0 1.56727 2.11819 -31.14659)"/>
</g>
<g style="fill:#dc322f" transform="matrix(1.5 0 0 1.5 12 -1542.5437)">
<path d="m 9.2022843,1036.5424 c -1.1648291,0.2929 -2.1430427,1.3626 -2.1430427,1.3626 l 0.029831,0.034 1.8658283,6.9321 c -1.3341199,-0.7236 -3.2394269,-0.5419 -4.8167636,0.5981 -2.0377369,1.473 -2.7469842,3.9837 -1.566995,5.6008 1.1800836,1.6174 3.7833323,1.7312 5.8210647,0.2582 1.6063259,-1.161 2.500751,-2.991 2.177773,-4.4941 -0.01001,-0.047 -0.02452,-0.091 -0.03688,-0.137 l -1.7905338,-6.9305 c 0.041606,-0.061 0.5641537,-0.3008 2.2556898,-0.4161 1.790111,-0.1206 3.001746,-2.9883 3.001746,-2.9883 0,0 -2.012721,0.7708 -3.597226,0.2122 -0.396122,-0.1396 -0.8132901,-0.1327 -1.2011851,-0.034 z"/>
</g>
</svg>
