<svg width="48" xmlns="http://www.w3.org/2000/svg" viewBox="0 0 48 48" height="48" xmlns:xlink="http://www.w3.org/1999/xlink">
<g style="stroke:#777">
<g>
<path style="fill:#fff;stroke-width:.5" d="m 25.932203,35.18644 a 12.254237,12.508474 0 1 1 -24.5084741,0 12.254237,12.508474 0 1 1 24.5084741,0 z" transform="matrix(1.59979 0 0 1.56727 2.11819 -31.14659)"/>
</g>
<g style="fill:#bebebe">
<g transform="translate(-.01036 .53263)">
<path d="m 32.510363,31.065909 a 6.448281,4.9014564 0 0 1 -12.896562,0 6.448281,4.9014564 0 1 1 12.896562,0 z"/>
</g>
<g style="fill-rule:evenodd" transform="translate(-.01036 .53263)">
<path d="m 21.372432,14.890596 a 2.9310347,3.9211813 0 0 1 -5.862069,0 2.9310347,3.9211813 0 1 1 5.862069,0 z"/>
<path d="m 31.924144,14.890596 a 2.9310349,3.9211816 0 0 1 -5.862069,0 2.9310349,3.9211816 0 1 1 5.862069,0 z"/>
</g>
</g>
</g>
</svg>
