<svg width="48" xmlns="http://www.w3.org/2000/svg" viewBox="0 0 48 48" height="48">
<g style="stroke:#777">
<path style="fill:#fff;stroke-width:.5" d="m 25.932203,35.18644 a 12.254237,12.508474 0 1 1 -24.5084741,0 12.254237,12.508474 0 1 1 24.5084741,0 z" transform="matrix(1.59979 0 0 1.56727 2.11819 -31.14659)"/>
</g>
<g style="fill:#dc322f">
<g>
<path d="m 23.556556,16.026705 c -8.784149,0.358158 -17.3293798,4.305771 -13.700788,12.294973 5.293166,-1.833956 12.663583,0.901934 9.602262,2.257494 6.03096,4.573034 20.921997,-2.815091 19.438721,-9.099611 -1.537215,-3.828545 -8.50808,-5.731176 -15.340195,-5.452856 z"/>
</g>
<g transform="matrix(1.09026 0 0 1.03448 -1.50326 -1.32909)">
<path d="M 33.481114,10.506938 20.692081,31.899059 C 19.694152,31.880028 18.766966,31.40615 18.095596,30.451325 L 31.798203,9.5685156 c 0.920962,-0.2178625 1.481932,0.095609 1.682911,0.9384224 z"/>
<path d="m 18.022025,35.621391 c 1.433695,-0.192397 3.654633,-2.022025 2.617536,-4.670632 -2.486378,-0.711406 -1.92173,-1.071459 -1.92173,-1.071459 -3.41537,0.818253 -6.010951,4.723194 -5.296234,7.205594 0.453143,1.573884 0.37727,1.411937 0.37727,1.411937 0.947256,-3.041647 0.964391,-2.484575 4.223158,-2.87544 z"/>
</g>
</g>
</svg>
