<svg xmlns="http://www.w3.org/2000/svg" viewBox="0 0 48 48">
 <g transform="translate(-6.3147151e-5,-6.18188e-5)" style="stroke:#777">
  <path d="m 25.932 35.19 a 12.254 12.508 0 1 1 -24.508 0 12.254 12.508 0 1 1 24.508 0 z" transform="matrix(1.59979,0,0,1.56727,2.11819,-31.14659)" style="fill:#fff;stroke-width:0.5"/>
 </g>
 <path d="m 22.678 11.657 c -1.01 0.038 -2.145 0.348 -2.817 1.155 -0.021 0.025 -0.039 0.052 -0.053 0.082 -0.224 0.476 -0.303 0.861 -0.168 1.2 0.135 0.339 0.439 0.49 0.679 0.585 0.239 0.095 0.462 0.159 0.606 0.244 0.144 0.085 0.21 0.145 0.247 0.336 0.044 0.228 0.011 0.349 -0.041 0.441 -0.052 0.092 -0.133 0.181 -0.253 0.227 -0.186 0.072 -0.509 0.072 -0.509 0.072 l -5.986 0 c -0.212 0 -0.383 0.172 -0.383 0.383 l 0 6.01 c 0 0.429 0.087 0.677 0.207 0.861 0.136 0.189 0.3 0.407 0.557 0.551 0.257 0.144 0.593 0.196 0.964 0.124 0.33 -0.064 0.592 -0.25 0.753 -0.462 0.162 -0.212 0.243 -0.438 0.311 -0.627 0.068 -0.189 0.126 -0.344 0.174 -0.417 0.047 -0.071 0.037 -0.067 0.111 -0.073 0.07 -0.004 0.251 0.039 0.486 0.139 0.517 0.455 0.826 1.38 0.858 2.222 0.011 0.313 -0.017 0.607 -0.07 0.861 l 0.005 -0.015 c -0.018 0.07 -0.015 0.08 -0.011 0.056 -0.002 0.009 -0.003 0.017 -0.005 0.026 -0.093 0.724 -0.391 1.427 -0.829 1.808 -0.303 0.125 -0.494 0.144 -0.526 0.132 -0.036 -0.014 -0.083 -0.064 -0.155 -0.245 -0.072 -0.181 -0.139 -0.445 -0.295 -0.711 -0.156 -0.266 -0.445 -0.533 -0.852 -0.612 l 0 0.002 c -0.54 -0.105 -1 0.077 -1.264 0.359 -0.264 0.282 -0.361 0.613 -0.411 0.846 -0.006 0.026 -0.009 0.052 -0.009 0.079 l 0 6.316 c 0 0.213 0.174 0.385 0.386 0.383 l 6.02 0 c 0.416 -0.001 0.679 -0.091 0.869 -0.215 0.139 -0.091 0.396 -0.335 0.541 -0.593 0.144 -0.257 0.198 -0.593 0.126 -0.964 -0.079 -0.407 -0.346 -0.695 -0.612 -0.852 -0.266 -0.156 -0.531 -0.224 -0.712 -0.295 -0.181 -0.072 -0.233 -0.119 -0.247 -0.155 -0.013 -0.032 0.004 -0.221 0.133 -0.532 0.456 -0.513 1.379 -0.823 2.221 -0.852 l 0.003 0 c 0.31 -0.013 0.602 0.016 0.855 0.068 0.016 0.003 0.031 0.005 0.047 0.006 0.007 0.002 0.014 0.003 0.021 0.005 0.727 0.093 1.433 0.393 1.814 0.827 0.125 0.302 0.146 0.491 0.133 0.523 -0.014 0.035 -0.067 0.083 -0.249 0.155 -0.182 0.072 -0.446 0.141 -0.712 0.297 -0.266 0.156 -0.533 0.445 -0.612 0.852 -0.072 0.37 -0.018 0.707 0.126 0.964 0.144 0.257 0.34 0.468 0.546 0.575 0.26 0.159 0.471 0.186 0.866 0.183 l 6.05 0.003 c 0.212 0 0.383 -0.175 0.383 -0.386 l 0 -6.201 c 0 -0.24 0.031 -0.349 0.137 -0.461 0.11 -0.116 0.22 -0.192 0.552 -0.127 l 0.002 0.002 c 0.193 0.037 0.253 0.102 0.338 0.245 0.085 0.143 0.149 0.364 0.244 0.603 0.095 0.239 0.246 0.544 0.585 0.679 0.339 0.135 0.723 0.057 1.2 -0.167 0.03 -0.014 0.058 -0.032 0.083 -0.053 0.679 -0.566 1 -1.469 1.117 -2.338 0.002 -0.017 0.003 -0.033 0.003 -0.05 0 0.052 0.003 0.028 0.003 -0.038 l -0.009 0.082 c 0.069 -0.317 0.101 -0.67 0.088 -1.044 l 0 -0.002 c -0.038 -1.01 -0.352 -2.145 -1.155 -2.817 -0.025 -0.021 -0.053 -0.039 -0.083 -0.053 -0.477 -0.223 -0.862 -0.301 -1.2 -0.167 -0.339 0.135 -0.49 0.44 -0.585 0.679 -0.095 0.239 -0.159 0.461 -0.244 0.605 -0.085 0.144 -0.145 0.21 -0.338 0.247 -0.229 0.044 -0.35 0.01 -0.442 -0.042 -0.093 -0.052 -0.163 -0.143 -0.227 -0.253 -0.067 -0.115 -0.067 -0.506 -0.067 -0.506 l 0 -6.05 c 0 -0.212 -0.172 -0.383 -0.383 -0.383 l -6.284 0 c -0.161 0 -0.342 -0.044 -0.449 -0.148 -0.111 -0.109 -0.184 -0.221 -0.121 -0.546 0.037 -0.193 0.103 -0.253 0.247 -0.338 0.144 -0.085 0.365 -0.15 0.605 -0.244 0.239 -0.094 0.544 -0.245 0.679 -0.583 0.135 -0.338 0.057 -0.723 -0.167 -1.199 -0.014 -0.03 -0.032 -0.058 -0.053 -0.083 -0.564 -0.672 -1.458 -0.994 -2.321 -1.108 -0.015 -0.004 -0.041 -0.006 -0.067 -0.009 -0.308 -0.064 -0.644 -0.097 -1.01 -0.085 l -0.002 0 z" mix-blend-mode="normal" isolation="auto" white-space="normal" solid-opacity="1" solid-color="#000000" style="visibility:visible;shape-rendering:auto;color-interpolation-filters:linearRGB;fill:#53a93f;opacity:1;image-rendering:auto;fill-opacity:1;stroke:none;display:inline;color:#000;fill-rule:evenodd;color-rendering:auto;color-interpolation:sRGB"/>
</svg>
