<svg xmlns="http://www.w3.org/2000/svg" viewBox="0 0 48 48">
 <g style="stroke:#777">
  <path d="m 25.932 35.19 a 12.254 12.508 0 1 1 -24.508 0 12.254 12.508 0 1 1 24.508 0 z" transform="matrix(1.59979 0 0 1.56727 2.11819 -31.14659)" style="fill:#fff;stroke-width:0.5"/>
 </g>
 <g transform="matrix(1.5 0 0 1.49999 11.98514 -1542.5323)" style="fill:#427fed;fill-opacity:0.941">
  <path d="m 1.051 1036.36 c -0.564 0.054 -1.051 0.648 -1.041 1.281 l 0 13.469 c 0.006 0.663 0.54 1.259 1.133 1.25 l 13.765 0 c 0.583 -0.01 1.096 -0.597 1.102 -1.25 l 0 -13.469 c 0.008 -0.663 -0.51 -1.274 -1.102 -1.281 l -13.765 0 z m 0.959 2 12 0 0 10 -12 0 z" style="color:#000"/>
 </g>
</svg>
