<svg width="48" xmlns="http://www.w3.org/2000/svg" viewBox="0 0 48 48" height="48">
<path style="stroke-opacity:.941;fill:#53a93f;stroke:#2d5c22;fill-opacity:.941;stroke-width:.792" d="m 43.604269,24.000062 a 19.604206,19.604156 0 0 1 -39.2084117,0 19.604206,19.604156 0 1 1 39.2084117,0 z"/>
<path style="fill:#fff" d="m 24.118054,10 c -6.9512,-10e-7 -12.62288,5.883165 -13.045137,13.296804 l -4.072917,0 6.552083,10.611872 6.552083,-10.611872 -4.663194,0 c 0.402455,-4.809904 4.12947,-8.56621 8.677082,-8.56621 1.682034,0 3.273802,0.515084 4.604167,1.406392 l 2.243055,-4.027397 C 28.97378,10.783556 26.625708,10 24.118054,10 z m 10.329861,4.091324 -6.552083,10.611872 4.663195,0 c -0.402457,4.809904 -4.12947,8.56621 -8.677083,8.56621 -1.682034,0 -3.273801,-0.515083 -4.604167,-1.406392 l -2.243055,4.027397 C 19.026218,37.216444 21.37429,38 23.881944,38 c 6.951201,2e-6 12.62288,-5.883165 13.045137,-13.296804 l 4.072919,0 -6.552084,-10.611872 z"/>
</svg>
