<svg width="48" xmlns="http://www.w3.org/2000/svg" viewBox="0 0 48 48" height="48">
<g style="stroke:#777">
<path style="fill:#fff;stroke-width:.5" d="m 25.932203,35.18644 a 12.254237,12.508474 0 1 1 -24.5084741,0 12.254237,12.508474 0 1 1 24.5084741,0 z" transform="matrix(1.59979 0 0 1.56727 2.11819 -31.14659)"/>
</g>
<g style="fill:#427fed" transform="translate(-.22748 .49245)">
<path style="opacity:.6" d="m 18.00004,19.08356 c -1.692347,0 -3.048649,1.339704 -3.048649,3 0.0038,0.1768 0.01638,0.432353 0.03243,0.647727 -0.289402,0.129108 -0.31052,0.721146 -0.06487,1.329545 0.09741,0.241262 0.221486,0.426511 0.356757,0.579547 0.03286,0.170984 0.02424,0.247746 0.06487,0.443181 0.113353,0.357448 0.560256,1.057999 0.972974,1.636364 0.04047,0.444174 0.08246,0.892417 0,1.397728 -1.189219,1.037096 -4.253207,1.483163 -4.248649,2.556817 l -0.06487,0.409091 12,0 -0.06487,-0.409091 c -0.0048,-0.918904 -3.074011,-1.483164 -4.248646,-2.556817 -0.04753,-0.410997 -0.05658,-0.822467 -0.03243,-1.227273 0.376076,-0.61004 0.879151,-1.408687 1.005404,-1.806819 0.04537,-0.20161 0.06189,-0.337768 0.0973,-0.511364 0.112691,-0.143484 0.208878,-0.305766 0.291892,-0.511364 0.233372,-0.577979 0.218287,-1.129731 -0.03243,-1.295454 0.01478,-0.232876 0.02593,-0.480665 0.03243,-0.681818 -1e-6,-1.660296 -1.356301,-3 -3.048649,-3 z"/>
<path d="m 27.454935,14.507545 c -2.538521,0 -4.572973,2.009557 -4.572973,4.499998 0.0057,0.265201 0.02457,0.648532 0.04865,0.971593 -0.434102,0.193661 -0.465779,1.081718 -0.0973,1.994318 0.146122,0.361893 0.332229,0.639765 0.535135,0.869318 0.04931,0.256478 0.03636,0.371621 0.0973,0.664773 0.170031,0.536172 0.840384,1.586999 1.45946,2.454546 0.06071,0.666261 0.123677,1.338627 0,2.09659 -1.783827,1.555646 -6.379809,2.224747 -6.372973,3.835228 l -0.0973,0.613636 18,0 -0.0973,-0.613636 c -0.0073,-1.378356 -4.611018,-2.224747 -6.37297,-3.835228 -0.07129,-0.616492 -0.08488,-1.233698 -0.04865,-1.840909 0.564113,-0.915057 1.318727,-2.113028 1.508107,-2.710227 0.06806,-0.302415 0.09283,-0.506652 0.145945,-0.767046 0.169038,-0.215226 0.313318,-0.458649 0.437839,-0.767045 0.350058,-0.866969 0.327431,-1.694597 -0.04865,-1.943182 0.02217,-0.349314 0.03888,-0.720997 0.04865,-1.022729 0,-2.490441 -2.03445,-4.499998 -4.572973,-4.499998 z"/>
</g>
</svg>
