<svg width="48" xmlns="http://www.w3.org/2000/svg" viewBox="0 0 48 48" height="48" xmlns:xlink="http://www.w3.org/1999/xlink">
<g style="stroke:#777">
<path style="fill:#fff;stroke-width:.5" d="m 25.932203,35.18644 a 12.254237,12.508474 0 1 1 -24.5084741,0 12.254237,12.508474 0 1 1 24.5084741,0 z" transform="matrix(1.59979 0 0 1.56727 2.11819 -31.14659)"/>
</g>
<path style="fill:#dc322f;color:#000" d="m 24,11 c -7.179701,0 -13,5.820299 -13,13 0,7.179701 5.820299,13 13,13 7.179701,0 13,-5.820299 13,-13 0,-7.179701 -5.820299,-13 -13,-13 z m 0,3.25 c 5.384777,0 9.75,4.365223 9.75,9.75 0,5.384776 -4.365223,9.75 -9.75,9.75 -5.384776,0 -9.75,-4.365224 -9.75,-9.75 0,-5.384777 4.365224,-9.75 9.75,-9.75 z m -0.101566,1.625 c -0.838474,0 -1.523438,0.684965 -1.523438,1.523438 l 0,6.703124 c 0,0.838474 0.684964,1.523438 1.523438,1.523438 0.03474,0.0022 0.06626,0 0.101566,0 l 0.101566,0 5.585938,0 c 0.90025,0 1.625,-0.72475 1.625,-1.625 0,-0.90025 -0.72475,-1.625 -1.625,-1.625 l -4.0625,0 0,-4.976562 c 0,-0.838473 -0.684964,-1.523438 -1.523438,-1.523438 l -0.203124,0 z"/>
</svg>
