<svg version="1.1" viewBox="0 0 48 48" xmlns="http://www.w3.org/2000/svg">
 <g transform="matrix(1.9998 0 0 2.0006 .0025206 -.013086)" style="stroke:#777">
  <path transform="matrix(.7999 0 0 .78363 1.0591 -15.573)" d="m25.931 35.19c0 6.909-5.484 12.507-12.253 12.507-6.768 0-12.253-5.598-12.253-12.507s5.484-12.507 12.253-12.507c6.768 0 12.253 5.598 12.253 12.507z" style="fill:#fff;stroke-width:.5"/>
  <path transform="scale(.5)" d="m20.5 12.5c-1.664 0-3 1.281-3 2.875v6.128c-1.664 0-3 1.281-3 2.875v8.247c0 1.594 1.336 2.875 3 2.875h13c1.664 0 3-1.281 3-2.875v-8.248c0-1.594-1.336-2.875-3-2.875v-6.128c0-1.594-1.336-2.875-3-2.875zm1.5 3.041h4c0.828 0 1.5 0.641 1.5 1.437v4.524h-7v-4.524c0-0.797 0.672-1.438 1.5-1.438z" style="fill:#bebebe"/>
 </g>
</svg>
