<svg width="48" xmlns="http://www.w3.org/2000/svg" viewBox="0 0 48 48" height="48">
<path style="fill:#fff;stroke:#777;stroke-width:.792" d="m 43.604269,24.000062 a 19.604206,19.604156 0 0 1 -39.2084117,0 19.604206,19.604156 0 1 1 39.2084117,0 z"/>
<path style="fill:#427fed;fill-rule:evenodd" d="m 24.000007,12 c -3.384695,0 -6.097297,2.679409 -6.097297,5.999999 0.0076,0.353599 0.03277,0.864707 0.06486,1.295455 -0.578803,0.258215 -0.62104,1.442293 -0.129732,2.659091 0.194829,0.482523 0.442971,0.85302 0.713514,1.159092 0.06574,0.34197 0.04848,0.495495 0.129729,0.886363 0.226706,0.714896 1.120511,2.115999 1.945945,3.272728 0.08093,0.888348 0.164905,1.784836 0,2.795455 -2.378434,2.074192 -8.506412,2.966328 -8.497296,5.113635 L 12,36 36,36 35.870265,35.181818 c -0.0097,-1.837807 -6.148022,-2.966329 -8.497294,-5.113635 -0.09505,-0.821993 -0.113173,-1.644932 -0.06485,-2.454547 0.752151,-1.220077 1.758302,-2.817372 2.01081,-3.613636 0.09074,-0.40322 0.12378,-0.675536 0.194593,-1.022728 0.225385,-0.286968 0.417756,-0.611532 0.583785,-1.022727 0.466742,-1.155958 0.436575,-2.259463 -0.06486,-2.590909 0.02957,-0.465752 0.05184,-0.961329 0.06486,-1.363637 C 30.097309,14.679409 27.384709,12 24.000012,12 z"/>
</svg>
