<svg height="48" width="48" xmlns="http://www.w3.org/2000/svg" xmlns:xlink="http://www.w3.org/1999/xlink"><linearGradient id="a" gradientTransform="matrix(1 0 0 .97651015 -.000026 11.327455)" gradientUnits="userSpaceOnUse" x1="409.57144" x2="409.57144" y1="542.79797" y2="507.798"><stop offset="0" stop-color="#2a2c2f"/><stop offset="1" stop-color="#424649"/></linearGradient><g transform="translate(-384.571442 -500.298166)"><rect fill-opacity=".666667" height="33.201344" ry="1.562416" width="44" x="386.57144" y="508.19766"/><rect fill="url(#a)" height="33.201344" ry="1.562416" width="44" x="386.57144" y="507.19733"/></g><g transform="translate(-384.57143 -503.798)"><path d="m404.32135 524.78065c-.0483-.046-.11008-.0689-.18525-.0689h-7.73589c-.0752 0-.13699.023-.18535.0689-.0483.046-.0724.10474-.0724.17635v.49076c0 .0715.0241.13034.0724.17627.0484.0459.11018.0689.18535.0689h7.73589c.0752 0 .13698-.0231.18525-.0689.0483-.0459.0724-.10474.0724-.17627v-.49076c.00009-.0716-.024-.13033-.0724-.17635z" fill="#fff" stroke-width=".096476"/><path d="m391.94402 517.5274c-.0537-.051-.11552-.0767-.18535-.0767-.0698 0-.13155.0256-.18525.0767l-.40294.38339c-.0537.0511-.0805.10983-.0805.17636 0 .0666.0268.12525.0805.17636l3.16695 3.01318-3.16695 3.01329c-.0537.0511-.0805.10991-.0805.17626 0 .0666.0268.12525.0805.17635l.40294.38329c.0537.0512.11542.0766.18525.0766.0699 0 .13165-.0255.18535-.0766l3.75515-3.57283c.0537-.0511.0805-.11001.0805-.17645 0-.0665-.0268-.12525-.0805-.17636z" fill="#fff" stroke-width=".096476"/></g></svg>