<svg height="48" viewBox="0 0 48 48" width="48" xmlns="http://www.w3.org/2000/svg" xmlns:xlink="http://www.w3.org/1999/xlink"><linearGradient id="a" gradientUnits="userSpaceOnUse" x1="10.789665" x2="10.29653" y1="43.786892" y2="4.535699"><stop offset="0" stop-color="#197cf1"/><stop offset="1" stop-color="#20bcfa"/></linearGradient><linearGradient id="b" gradientTransform="matrix(1.0160988 0 0 1.0353173 -391.00723 -518.03966)" gradientUnits="userSpaceOnUse" x1="421.13245" x2="421.33725" y1="543.39435" y2="509.2738"><stop offset="0" stop-color="#a0d5ff"/><stop offset="1" stop-color="#fff"/></linearGradient><g transform="translate(-384.57163 -500.298188)"><path d="m401.77172 506.5146c-.11773-.003-.25993.002-.44479.002h-13.95956c-.43765 0-.79054.35537-.79054.79594v4.85127c-.00065.0184-.005.0355-.005.054v29.33993c0 .84441.68084 1.52526 1.52525 1.52526h40.9513c.8444 0 1.52345-.68085 1.52345-1.52526v-29.33993c0-.8444-.67905-1.52525-1.52345-1.52525h-24.45265c-.0145-.0194-.0242-.0298-.0396-.0504-.56424-.76017-1.41637-2.8096-1.97184-3.55112-.3344-.48691-.45896-.56699-.81215-.57624z" fill-opacity=".666667"/><path d="m16.455078 4.1816406c-.127691-.00335-.281922.00195-.482422.00195h-15.14062475c-.47468 0-.85742188.3854412-.85742188.8632812v5.2617192c-.00070335.01991-.0058594.03851-.0058594.05859v31.822265c0 .915848.73844863 1.654297 1.65429693 1.654297h44.4160151c.915849 0 1.652344-.738449 1.652344-1.654297v-31.822258c0-.9158487-.736495-1.6542974-1.652344-1.6542974h-26.521484c-.01578-.021028-.0263-.032293-.04297-.054687-.61198-.82449-1.536202-3.0473125-2.138671-3.8515625-.362686-.5281125-.497787-.6149598-.88086-.625z" fill="url(#a)" transform="matrix(.92199395 0 0 .92199395 386.600241802849 501.6589522221)"/><path d="m23.949219 8.7128906c-3.251508 6.5304734-4.59308 12.9303734-4.347657 19.0175784h6.808594c-1.175921 6.447052-.660696 10.902738 1.03711 16.113281h18.591796c.91585 0 1.652344-.738449 1.652344-1.654297v-31.822265c0-.9158492-.736494-1.6542974-1.652344-1.6542974z" fill="url(#b)" fill-rule="evenodd" opacity=".83" transform="matrix(.92199395 0 0 .92199395 386.600241802849 501.6589522221)"/><path d="m401.47652 535.82753s-1.67916-2.48639 1.42883-2.56319c0 0 5.7268.60995 11.33622-4.0396 2.66093-1.60749 2.77499 2.064 2.77499 2.064-.17008 5.54371-6.41218 6.9201-6.41218 6.9201s-6.00134 2.19956-9.12786-2.38131z" fill="#19384b" opacity=".997" stroke-width=".381683"/><path d="m396.85152 519.86279c0-1.52704 1.24152-2.76633 2.77228-2.76633 1.53033 0 2.77187 1.23885 2.77187 2.76633 0 1.52838-1.24154 2.76721-2.77187 2.76721-1.53076-.00043-2.77228-1.23883-2.77228-2.76721zm12.5703 0c0-1.52704 1.24288-2.76633 2.7732-2.76633 1.53031 0 2.77228 1.23885 2.77228 2.76633 0 1.52838-1.24151 2.76721-2.77228 2.76721-1.52988-.00043-2.7732-1.23883-2.7732-2.76721z" fill="#19384b" stroke-width=".79572"/><g fill="#fff" fill-opacity=".852041"><circle cx="398.571667" cy="508.795368" r="1.781426"/><circle cx="394.195297" cy="508.833148" r="1.781426"/><circle cx="389.893357" cy="508.875328" r="1.781426"/></g></g></svg>