<svg xmlns="http://www.w3.org/2000/svg" xmlns:svg="http://www.w3.org/2000/svg" id="svg906" width="240mm" height="240mm" version="1.1" viewBox="0 0 240 240"><metadata id="metadata903"/><g id="layer1" transform="translate(0,-57)"><path style="fill:#fff;fill-opacity:1;fill-rule:evenodd;stroke-width:.2583026" id="path858" d="M 119.99991,76.999813 A 100,100 0 0 0 19.999813,176.99991 100,100 0 0 0 119.99991,277 100,100 0 0 0 220,176.99991 100,100 0 0 0 119.99991,76.999813 Z m 0,25.000027 c 41.2733,0 75.00007,33.72677 75.00007,75.00007 0,41.2733 -33.72677,75.00007 -75.00007,75.00007 -41.273299,0 -75.000075,-33.72677 -75.000075,-75.00007 0,-41.2733 33.726776,-75.00007 75.000075,-75.00007 z"/><path style="fill:#53e2ae;fill-opacity:1;fill-rule:evenodd;stroke-width:.2583026" id="path1456" d="m 120,126.99995 c -27.762298,0 -50.000048,22.23776 -50.000048,50.00006 0,27.7623 22.23775,50.00004 50.000048,50.00004 27.7623,0 50.00005,-22.23774 50.00005,-50.00004 0,-27.7623 -22.23775,-50.00006 -50.00005,-50.00006 z"/></g></svg>