<!-- Generator: Adobe Illustrator 18.1.1, SVG Export Plug-In . SVG Version: 6.00 Build 0)  -->
<svg xmlns="http://www.w3.org/2000/svg" viewBox="0 0 48 48" style="enable-background:new 0 0 400 400">
 <path d="m 10.375 12.266 c -1.725 1.99 -3.053 4.372 -3.777 7.08 -0.378 1.412 -0.566 2.83 -0.592 4.23 -0.008 0.275 -0.007 0.55 -0.002 0.826 0.024 1.41 0.213 2.838 0.594 4.26 0.725 2.704 2.051 5.087 3.775 7.08 l 3.699 -4.975 c -0.737 -1.087 -1.319 -2.308 -1.68 -3.654 -0.231 -0.86 -0.348 -1.721 -0.385 -2.572 -0.008 -0.187 -0.018 -0.373 -0.018 -0.561 0 -0.111 0.008 -0.22 0.012 -0.33 0.026 -0.909 0.146 -1.828 0.393 -2.748 0.361 -1.346 0.941 -2.567 1.678 -3.654 l -3.697 -4.975 z" mix-blend-mode="normal" isolation="auto" white-space="normal" solid-opacity="1" solid-color="#000000" style="visibility:visible;shape-rendering:auto;color-interpolation-filters:linearRGB;fill:#fbbc05;opacity:1;image-rendering:auto;fill-opacity:1;stroke:none;display:inline;color:#000;fill-rule:nonzero;color-rendering:auto;color-interpolation:sRGB"/>
 <path d="m 12.659 27.965 -4.859 3.848 c 2.922 6.01 9.08 10.188 16.184 10.188 c 1.445 0 2.847 -0.186 4.195 -0.512 0.024 -0.006 0.048 -0.01 0.072 -0.016 0.008 -0.002 0.016 -0.004 0.023 -0.006 0.24 -0.06 0.478 -0.124 0.715 -0.193 0.345 -0.098 0.688 -0.206 1.029 -0.326 0.023 -0.008 0.047 -0.013 0.07 -0.021 0.004 -0.001 0.008 -0.002 0.012 -0.004 0.982 -0.351 1.946 -0.792 2.881 -1.332 2.424 -1.4 4.382 -3.297 5.857 -5.479 l -5.762 -2.285 c -0.844 0.975 -1.854 1.837 -3.033 2.527 -0.035 0.021 -0.07 0.042 -0.105 0.063 -0.59 0.338 -1.194 0.62 -1.811 0.846 -0.308 0.113 -0.618 0.21 -0.93 0.297 -0.027 0.007 -0.053 0.014 -0.08 0.021 -0.269 0.073 -0.54 0.133 -0.811 0.188 c -0.752 0.147 -1.527 0.232 -2.324 0.232 -5.269 0 -9.697 -3.343 -11.324 -8.04" mix-blend-mode="normal" isolation="auto" white-space="normal" solid-opacity="1" solid-color="#000000" style="visibility:visible;shape-rendering:auto;color-interpolation-filters:linearRGB;fill:#34a853;opacity:1;image-rendering:auto;fill-opacity:1;stroke:none;display:inline;color:#000;fill-rule:nonzero;color-rendering:auto;color-interpolation:sRGB"/>
 <path d="m 24 21 0 6 11.621 0 c -0.762 2.985 -2.634 5.509 -5.158 7.117 l 4.859 3.846 c 4.066 -3.306 6.678 -8.341 6.678 -13.963 0 -1.024 -0.107 -2.02 -0.273 -3 -5.909 0 -11.818 0 -17.727 0" mix-blend-mode="normal" isolation="auto" white-space="normal" solid-opacity="1" solid-color="#000000" style="visibility:visible;shape-rendering:auto;color-interpolation-filters:linearRGB;fill:#4285f4;opacity:1;image-rendering:auto;fill-opacity:1;stroke:none;display:inline;color:#000;fill-rule:nonzero;color-rendering:auto;color-interpolation:sRGB"/>
 <path d="m 23.984 6 c -7.106 0 -13.261 4.176 -16.184 10.188 l 4.859 3.848 c 1.627 -4.692 6.06 -8.04 11.324 -8.04 c 3.075 0 5.859 1.146 7.975 3.03 l 4.217 -4.217 c -3.213 -2.973 -7.492 -4.809 -12.191 -4.809" mix-blend-mode="normal" isolation="auto" white-space="normal" solid-opacity="1" solid-color="#000000" style="visibility:visible;shape-rendering:auto;color-interpolation-filters:linearRGB;fill:#ea4335;opacity:1;image-rendering:auto;fill-opacity:1;stroke:none;display:inline;color:#000;fill-rule:nonzero;color-rendering:auto;color-interpolation:sRGB"/>
</svg>
