<svg xmlns="http://www.w3.org/2000/svg" viewBox="0 0 48 48">
 <path d="m 27.28 13.259 c -2.348 0.875 -3.832 3.127 -3.664 5.592 l 0.057 0.953 -0.94 -0.117 c -3.418 -0.447 -6.405 -1.962 -8.94 -4.505 l -1.24 -1.263 -0.32 0.933 c -0.677 2.077 -0.244 4.273 1.165 5.749 0.75 0.813 0.582 0.931 -0.715 0.444 -0.45 -0.154 -0.845 -0.271 -0.883 -0.212 -0.13 0.137 0.32 1.903 0.677 2.602 0.488 0.973 1.484 1.923 2.573 2.487 l 0.921 0.444 -1.089 0.02 c -1.054 0 -1.089 0.02 -0.978 0.428 0.376 1.263 1.861 2.602 3.513 3.186 l 1.165 0.408 -1.013 0.62 c -1.503 0.894 -3.269 1.397 -5.03 1.437 -0.845 0.019 -1.541 0.098 -1.541 0.157 0 0.193 2.291 1.28 3.626 1.708 4 1.263 8.753 0.718 12.323 -1.437 2.535 -1.534 5.073 -4.583 6.256 -7.535 0.639 -1.573 1.278 -4.447 1.278 -5.827 0 -0.892 0.054 -1.01 1.108 -2.077 0.62 -0.62 1.203 -1.302 1.314 -1.495 0.19 -0.369 0.171 -0.369 -0.788 -0.039 -1.598 0.581 -1.823 0.506 -1.032 -0.369 0.582 -0.62 1.276 -1.747 1.276 -2.077 0 -0.059 -0.282 0.036 -0.601 0.212 -0.339 0.193 -1.089 0.486 -1.652 0.66 l -1.016 0.33 -0.921 -0.64 c -0.506 -0.349 -1.219 -0.738 -1.595 -0.855 -0.959 -0.271 -2.424 -0.232 -3.288 0.078 z" style="fill:#00abec"/>
</svg>
