<svg xmlns="http://www.w3.org/2000/svg" viewBox="130.35156 177.43359 48 47.999999" style="overflow:visible;enable-background:new 130.3515625 177.4335938 800 151.6611328">
 <path d="m 165.6 195.49 c -0.56 0.055 -2.893 0.578 -3.677 0.746 -0.84 0.223 -8.51 6.149 -9.01 7.604 -0.112 0.504 -0.168 1.278 -0.168 2.01 l -0.056 1.176 c 0 0.839 0.233 2.192 0.345 2.92 0.504 0.112 4.154 0.014 4.826 0.126 l -0.083 1.505 c -0.656 -0.048 -5.291 -0.037 -7.938 -0.037 -1.344 0 -5.665 0.148 -6.992 0.108 l 0.251 -1.431 c 0.728 -0.056 3.742 0.13 4.404 -0.569 0.329 -0.347 0.224 -0.719 0.224 -2.734 l 0 -0.952 c 0 -0.448 0 -1.288 -0.112 -2.072 -0.28 -0.84 -7.04 -9.275 -8.771 -10.619 -0.504 -0.168 -3.662 -0.484 -4.446 -0.652 l -0.039 -1.289 c 0.391 -0.196 3.902 0.048 7.31 -0.078 2.24 -0.083 7.35 0 7.98 0.075 l -0.162 1.136 c -0.672 0.168 -3.907 0.23 -4.747 0.454 2.184 3.247 5.636 7.428 6.756 9.05 0.616 -0.896 6.03 -4.619 6.196 -5.907 -0.84 -0.169 -3.621 -0.569 -4.069 -0.569 l -0.266 -1.466 c 0.762 -0.119 4.771 0 6.763 0 1.72 0 5.395 0 6.439 0.085 l -0.955 1.38" style="fill:#881fa2;fill-opacity:1"/>
 <path d="m 169.26 210.48 -1.299 -0.111 -0.014 -2.814 1.645 0.205 1.474 0.068 -0.409 2.755 -1.397 -0.103 m 1.673 -4.97 -2.424 -0.235 c 0.254 -1.226 0.033 -10.636 0.013 -11.64 l -0.125 -1.977 c 0.675 0.133 0.573 0.063 3.423 0.363 1.734 0.182 1.961 0.26 2.531 0.282 l -0.745 2.344 c -0.636 1.875 -2.478 10.237 -2.673 10.863 z" style="fill:#881fa2;fill-opacity:1"/>
</svg>
