<svg xmlns="http://www.w3.org/2000/svg" width="48" viewBox="0 0 13.546667 13.546667" height="48">
 <path d="m 4.69 5.083 c -0.236 0 -0.463 0.034 -0.598 0.19 -0.207 0.238 -0.125 0.712 -0.125 1 0 0.44 -0.03 0.909 0.059 1.343 0.096 0.464 0.434 0.969 0.815 1.284 0.277 0.228 0.573 0.39 0.915 0.522 0.335 0.117 0.656 0.17 0.993 0.174 0.309 0 0.619 -0.032 0.912 -0.127 c 0.299 -0.096 0.602 -0.233 0.853 -0.411 0.262 -0.202 0.472 -0.4 0.638 -0.65 0.121 -0.186 0.223 -0.388 0.298 -0.594 0.187 -0.51 0.133 -1.109 0.133 -1.64 0 -0.24 0.064 -0.673 -0.098 -0.876 -0.244 -0.306 -0.784 -0.198 -1.186 -0.198 l -3.086 0 c -0.153 0 -0.34 -0.021 -0.523 -0.02 z m 3.421 1.309 c 0.065 0 0.133 0.017 0.204 0.06 0.162 0.097 0.213 0.33 0.099 0.475 c -0.105 0.135 -0.262 0.243 -0.394 0.355 l -0.682 0.592 c -0.151 0.134 -0.305 0.324 -0.527 0.345 -0.222 0.02 -0.369 -0.144 -0.512 -0.274 l -0.713 -0.62 c -0.147 -0.121 -0.353 -0.256 -0.456 -0.412 -0.144 -0.22 0.023 -0.482 0.285 -0.517 0.168 -0.022 0.286 0.073 0.403 0.167 l 0.667 0.577 c 0.069 0.059 0.182 0.215 0.279 0.228 0.108 0.014 0.272 -0.197 0.341 -0.257 l 0.496 -0.425 c 0.143 -0.129 0.313 -0.293 0.509 -0.295" style="fill:#ee4055"/>
 <g transform="matrix(0.01699412,0,0,0.01696727,-6.8719213,2.2534218)">
  <path d="m 672.97 87.89 36 -20.691 c 29.384 -13.49 60.752 -20.309 93 -20.309 l 0 -30 c -34.06 2.688 -66.25 7.03 -98 20.719 -8.07 3.481 -25.338 8.627 -29.972 16.494 -4.416 7.497 -1.028 25.15 -1.028 33.787 z" style="fill:#51bbb7"/>
  <path d="m 801.97 16.89 0 30 c 30.987 0 61.751 6.339 90 19.309 l 39 21.691 c 0 -8.623 3.687 -28.21 -1.028 -35.471 -4.649 -7.164 -21.306 -12.09 -28.972 -15.379 -30.898 -13.269 -65.4 -20.13 -99 -20.15 z" style="fill:#ef4155"/>
  <path d="m 930.97 52.89 c 0 9.62 -3.161 25.846 0.603 34.7 2.463 5.795 11.53 10.361 16.12 14.511 11.311 10.236 22.14 21.435 31.09 33.828 24.544 33.978 43.12 77.35 43.19 119.96 0.076 47.39 -9.709 91.84 -36.1 132 -9.534 14.508 -21.14 27.875 -33.81 39.711 -5.53 5.164 -17.523 11.617 -20.487 18.589 -3.664 8.618 -0.603 24.341 -0.603 33.7 28.17 -10.662 54.32 -40.57 71.895 -64 65.57 -87.43 65.57 -211.57 0 -299 -17.574 -23.43 -43.724 -53.34 -71.895 -64 z" style="fill:#fbb74b"/>
  <path d="m 671.97 53.89 c -31.521 21.264 -58.59 45.815 -79.31 78 -56.01 87.01 -50.675 202.53 11.181 285 17.681 23.573 42.07 49.2 69.13 62 0 -9.06 2.98 -24.365 -0.603 -32.7 -2.907 -6.76 -14.1 -12.276 -19.397 -17.339 -13.02 -12.445 -25.01 -25.881 -34.921 -40.961 -26.485 -40.3 -39.29 -88.85 -35.989 -137 3.06 -44.679 21.03 -88.46 49.33 -123 l 24.576 -25.714 15.972 -13.75 c 3.572 -5.889 2.638 -28.316 0.028 -34.536 z" style="fill:#83edb9"/>
  <path d="m 672.97 445.89 c 0 8.414 -3.278 25.478 1.028 32.787 4.634 7.867 21.899 13.01 29.972 16.494 31.753 13.692 63.936 18.03 98 20.719 l 0 -29 c -33.15 0 -66.11 -7.06 -96 -21.756 -9.838 -4.837 -23.2 -10.443 -30 -19.244 l -3 0 z" style="fill:#51bbb7"/>
  <path d="m 801.97 486.89 0 29 c 33.604 -0.022 68.1 -6.881 99 -20.15 7.666 -3.293 24.323 -8.215 28.972 -15.379 4.604 -7.095 1.028 -26.06 1.028 -34.471 l -39 21.691 c -28.25 12.97 -59.01 19.309 -90 19.309 m 173 -41 1 1 -1 -1 z" style="fill:#ef4155"/>
 </g>
</svg>
