<svg height="48" width="48" xmlns="http://www.w3.org/2000/svg" xmlns:xlink="http://www.w3.org/1999/xlink"><linearGradient id="a" gradientUnits="userSpaceOnUse" x1="408.09121321702" x2="407.77328121017" y1="547.94798816329" y2="498.36960892497"><stop offset="0" stop-color="#833cfc"/><stop offset="1" stop-color="#cd87de"/></linearGradient><linearGradient id="b" gradientUnits="userSpaceOnUse" x1="410.571383014577" x2="410.476187185051" y1="503.762702762005" y2="545.111902774704"><stop offset="0" stop-color="#fff"/><stop offset="1" stop-color="#ececec"/></linearGradient><g transform="translate(-384.57143 -499.798)"><rect fill="url(#a)" height="45.999973" ry="22.999987" width="46" x="385.57144" y="500.79803"/><path d="m413.51518 523.19852a1.8333324 1.8333324 0 0 1 -1.83335-1.83334 1.8333324 1.8333324 0 0 1 1.83335-1.83332 1.8333324 1.8333324 0 0 1 1.83333 1.83332 1.8333324 1.8333324 0 0 1 -1.83333 1.83334m-3.66668-4.8889a1.8333324 1.8333324 0 0 1 -1.83333-1.83333 1.8333324 1.8333324 0 0 1 1.83333-1.83332 1.8333324 1.8333324 0 0 1 1.83333 1.83332 1.8333324 1.8333324 0 0 1 -1.83333 1.83333m-6.1111 0a1.8333324 1.8333324 0 0 1 -1.83333-1.83333 1.8333324 1.8333324 0 0 1 1.83333-1.83332 1.8333324 1.8333324 0 0 1 1.83333 1.83332 1.8333324 1.8333324 0 0 1 -1.83333 1.83333m-3.66667 4.8889a1.8333324 1.8333324 0 0 1 -1.83332-1.83334 1.8333324 1.8333324 0 0 1 1.83332-1.83332 1.8333324 1.8333324 0 0 1 1.83334 1.83332 1.8333324 1.8333324 0 0 1 -1.83334 1.83334m6.72223-11a10.999994 10.999994 0 0 0 -11.00001 11 10.999994 10.999994 0 0 0 11.00001 10.99998 1.8333324 1.8333324 0 0 0 1.83331-1.83332c0-.47667-.18331-.90445-.47665-1.22223-.28112-.32999-.46445-.75777-.46445-1.22222a1.8333324 1.8333324 0 0 1 1.83333-1.83332h2.16333a6.1111078 6.1111078 0 0 0 6.11112-6.11112c0-5.40222-4.92556-9.77777-10.99999-9.77777z" fill="url(#b)"/></g></svg>