<svg width="64" xmlns="http://www.w3.org/2000/svg" height="64" viewBox="0 0 64 64" xmlns:xlink="http://www.w3.org/1999/xlink">
<path style="fill:#859900" d="M 10.476562 6.785156 C 4.957031 8.40625 1.324219 12.96875 0.429688 20.507812 C 0.183594 23.675781 -0.855469 28.078125 1.578125 30.183594 C 4.832031 32.566406 8.808594 32.175781 12.339844 31.414062 C 14.917969 30.582031 16.023438 30.277344 18.082031 27.898438 C 18.082031 27.898438 17.84375 21.871094 18.941406 18.570312 C 27.808594 14.007812 36.4375 14.347656 45.058594 18.570312 C 46.15625 21.871094 45.917969 27.898438 45.917969 27.898438 C 47.976562 30.277344 49.082031 30.582031 51.660156 31.414062 C 55.191406 32.175781 59.167969 32.566406 62.421875 30.183594 C 64.855469 28.078125 63.816406 23.675781 63.570312 20.507812 C 62.675781 12.96875 59.042969 8.40625 53.523438 6.785156 C 39.117188 3.457031 24.703125 2.707031 10.476562 6.785156 Z "/>
<path style="fill:#dc322f" d="M 44.800781 39 L 40.535156 39 C 39.4375 39 38.277344 39.617188 37.464844 40.488281 L 32 46.59375 L 26.535156 40.488281 C 25.722656 39.617188 24.5625 39 23.464844 39 L 19.199219 39 L 19.199219 43.765625 C 19.199219 45.242188 19.585938 46.398438 20.398438 47.339844 L 32 60 L 43.601562 47.339844 C 44.414062 46.398438 44.800781 45.242188 44.800781 43.765625 Z "/>
</svg>
