<svg width="64" xmlns="http://www.w3.org/2000/svg" height="64" viewBox="0 0 64 64" xmlns:xlink="http://www.w3.org/1999/xlink">
<path style="fill:#6c71c4" d="M 14.648438 9.128906 C 12.128906 18.179688 12.070312 30.714844 16.5625 36.894531 C 18.453125 39.828125 21.027344 43.6875 19.007812 47.195312 C 15.277344 52.671875 9.054688 55.625 3.386719 58.605469 C 1.460938 58.808594 2.15625 60.613281 2.027344 61.949219 C 2.023438 63.007812 1.714844 64.390625 3.25 63.894531 L 57.589844 63.894531 C 59.128906 64.390625 58.816406 63.007812 58.8125 61.949219 C 58.683594 60.613281 59.378906 58.808594 57.457031 58.605469 C 51.789062 55.625 45.566406 52.671875 41.832031 47.195312 C 39.8125 43.6875 42.390625 39.828125 44.277344 36.894531 C 49.023438 30.167969 49.640625 15.523438 46.179688 8.921875 C 43.050781 3.199219 39.894531 0.21875 30.421875 0 C 20.933594 0.386719 17.789062 3.199219 14.648438 9.128906 Z "/>
<path style="fill:#859900" d="M 64 40 L 52 40 L 52 28 L 40 28 L 40 40 L 28 40 L 28 52 L 40 52 L 40 64 L 52 64 L 52 52 L 64 52 Z "/>
</svg>
