<svg width="64" xmlns="http://www.w3.org/2000/svg" height="64" viewBox="0 0 64 64" xmlns:xlink="http://www.w3.org/1999/xlink">
<path style="fill:#dc322f;fill-rule:evenodd" d="M 32.875 0 C 24.238281 -0.234375 15.871094 3.03125 9.679688 9.058594 C 3.488281 15.085938 -0.00390625 23.359375 0 32 C 0.00390625 49.671875 14.328125 63.996094 32 63.996094 C 49.671875 63.996094 63.996094 49.671875 64 32 C 64.007812 14.664062 50.207031 0.472656 32.875 0 Z M 30.25 8 C 35.851562 7.570312 41.421875 9.117188 46 12.375 L 12.5 45.875 C 9.597656 41.828125 8.023438 36.980469 8 32 C 7.964844 19.398438 17.683594 8.917969 30.25 8 Z M 51.625 18 C 54.507812 22.097656 56.039062 26.992188 56 32 C 55.96875 40.957031 50.949219 49.15625 42.984375 53.253906 C 35.019531 57.355469 25.433594 56.679688 18.125 51.5 Z "/>
</svg>
