<svg viewBox="0 0 64 64" xmlns="http://www.w3.org/2000/svg">
 <path d="m 48.4 16.479 -10.922 10.922 c 0.899 0.487 1.634 1.222 2.121 2.121 l 10.922 -10.922 c -0.899 -0.487 -1.634 -1.222 -2.121 -2.121 z" style="visibility:visible;shape-rendering:auto;color-interpolation-filters:linearRGB;fill:#3daee9;opacity:1;image-rendering:auto;fill-opacity:1;text-rendering:auto;stroke:none;display:inline;color:#000;fill-rule:evenodd;color-rendering:auto;color-interpolation:sRGB"/>
 <path d="m 39.6 34.479 c -0.487 0.899 -1.222 1.634 -2.121 2.121 l 10.922 10.922 c 0.487 -0.899 1.222 -1.634 2.121 -2.121 z" style="visibility:visible;shape-rendering:auto;color-interpolation-filters:linearRGB;fill:#3daee9;opacity:1;image-rendering:auto;fill-opacity:1;text-rendering:auto;stroke:none;display:inline;color:#000;fill-rule:evenodd;color-rendering:auto;color-interpolation:sRGB"/>
 <path d="m 16.16 20.902 c -0.18 1.028 -0.657 1.95 -1.345 2.681 l 15.03 7.515 c 0.18 -1.028 0.657 -1.95 1.345 -2.681 z" style="visibility:visible;shape-rendering:auto;color-interpolation-filters:linearRGB;fill:#3daee9;opacity:1;image-rendering:auto;fill-opacity:1;text-rendering:auto;stroke:none;display:inline;color:#000;fill-rule:evenodd;color-rendering:auto;color-interpolation:sRGB"/>
 <path d="m 29.961 33.383 -15.513 9.694 c 0.758 0.667 1.315 1.541 1.591 2.54 l 15.513 -9.694 c -0.758 -0.667 -1.315 -1.541 -1.591 -2.54 z" style="visibility:visible;shape-rendering:auto;color-interpolation-filters:linearRGB;fill:#3daee9;opacity:1;image-rendering:auto;fill-opacity:1;text-rendering:auto;stroke:none;display:inline;color:#000;fill-rule:evenodd;color-rendering:auto;color-interpolation:sRGB"/>
 <rect y="10" x="-42.5" height="3" width="18" transform="matrix(0 -1 1 0 0 0)" style="fill:#3daee9;opacity:1;fill-opacity:1;stroke:none;fill-rule:nonzero"/>
 <circle cy="47" cx="11" r="4.5" style="stroke-dasharray:none;stroke-opacity:1;fill:#fff;opacity:1;stroke-miterlimit:4;fill-opacity:1;stroke:#888;stroke-linecap:butt;stroke-linejoin:miter;stroke-width:3;stroke-dashoffset:0"/>
 <circle cy="20" cx="11" r="4.5" style="stroke-dasharray:none;stroke-opacity:1;fill:#fff;opacity:1;stroke-miterlimit:4;fill-opacity:1;stroke:#888;stroke-linecap:butt;stroke-linejoin:miter;stroke-width:3;stroke-dashoffset:0"/>
 <circle cy="32" cx="35" r="4.5" style="stroke-dasharray:none;stroke-opacity:1;fill:#fff;opacity:1;stroke-miterlimit:4;fill-opacity:1;stroke:#888;stroke-linecap:butt;stroke-linejoin:miter;stroke-width:3;stroke-dashoffset:0"/>
 <circle cy="14" cx="53" r="4.5" style="stroke-dasharray:none;stroke-opacity:1;fill:#fff;opacity:1;stroke-miterlimit:4;fill-opacity:1;stroke:#888;stroke-linecap:butt;stroke-linejoin:miter;stroke-width:3;stroke-dashoffset:0"/>
 <circle cy="50" cx="53" r="4.5" style="stroke-dasharray:none;stroke-opacity:1;fill:#fff;opacity:1;stroke-miterlimit:4;fill-opacity:1;stroke:#888;stroke-linecap:butt;stroke-linejoin:miter;stroke-width:3;stroke-dashoffset:0"/>
</svg>
