<svg xmlns="http://www.w3.org/2000/svg" viewBox="0 0 64 64">
 <rect width="3" height="48" x="23" y="10" style="fill:#268bd2;opacity:1;fill-opacity:1;stroke:none;fill-rule:nonzero"/>
 <path transform="matrix(0,-2.3094012,-2.6666666,0,109.67128,88.896789)" d="m 35.895 31 -1.732 -3 3.464 0 z" style="fill:#268bd2;opacity:1;fill-opacity:1;stroke:none;fill-rule:nonzero"/>
 <rect width="16" height="36" x="8" y="16" style="fill:#fff;opacity:1;fill-opacity:1;stroke:none;fill-rule:nonzero"/>
 <rect y="10" x="54" height="48" width="3" style="fill:#268bd2;opacity:1;fill-opacity:1;stroke:none;fill-rule:nonzero"/>
 <rect y="20" x="40" height="28" width="16" style="fill:#fff;opacity:1;fill-opacity:1;stroke:none;fill-rule:nonzero"/>
 <path d="m 7 54 19 0 0 -40 -19 0 z m 3 -3 l 0 -34 13 0 0 34 z m 28 -1 19 0 0 -32 -19 0 z m 3 -3 l 0 -26 13 0 0 26 z" style="fill:#888;opacity:1;fill-opacity:1;stroke:none"/>
 <path d="m 35.895 31 -1.732 -3 3.464 0 z" transform="matrix(0,-2.3094012,2.6666666,0,-29.671278,88.896789)" style="fill:#268bd2;opacity:1;fill-opacity:1;stroke:none;fill-rule:nonzero"/>
</svg>
