<svg width="64" xmlns="http://www.w3.org/2000/svg" height="64" viewBox="0 0 64 64" xmlns:xlink="http://www.w3.org/1999/xlink">
<path style="fill:#fff;fill-rule:evenodd" d="M 14.855469 0 L 49.144531 0 C 56 0 56 0 56 7.109375 L 56 56.890625 C 56 64 56 64 49.144531 64 L 14.855469 64 C 8 64 8 64 8 56.890625 L 8 7.109375 C 8 0 8 0 14.855469 0 Z "/>
<path style="fill:#859900" d="M 44 56 C 49.320312 56 53.339844 56 56 56 C 56 56 64 56.25 64 44 C 64 31.75 56 31.164062 56 31.164062 C 56 40.558594 54.640625 40 44 40 C 44 36.867188 44.523438 33.480469 41.863281 33.480469 L 28 46.652344 C 27.136719 47.476562 27.117188 49.050781 28 49.855469 L 41.761719 62.347656 C 44.421875 62.347656 44 59.046875 44 56 Z "/>
</svg>
