<svg xmlns="http://www.w3.org/2000/svg" viewBox="0 0 64 64">
 <path d="m 16.445 0 l 31.11 0 c 9.336 0 12.445 3.199 12.445 12.801 l 0 38.4 c 0 9.602 -3.109 12.801 -12.445 12.801 l -31.11 0 c -9.336 0 -12.445 -3.199 -12.445 -12.801 l 0 -38.4 c 0 -9.602 3.109 -12.801 12.445 -12.801 Z" style="fill:#268bd2;fill-rule:evenodd"/>
 <g style="fill:#fff">
  <path d="m 16.445 0 31.11 0 c 9.336 0 12.445 3.199 12.445 12.801 l 0 25.598 c 0 9.602 -3.109 12.602 -12.445 12.602 l -31.11 0 c -9.336 0 -12.445 -3 -12.445 -12.602 l 0 -25.598 c 0 -9.602 3.109 -12.801 12.445 -12.801" style="fill-opacity:0.302;fill-rule:evenodd"/>
  <path d="m 24 8 l 0 4 l 16 0 l 0 -4 m -16 8 l 0 8 l 16 0 l 0 -8 m -26 12 l 18 20 l 18 -20 Z" style="fill-opacity:0.902"/>
 </g>
</svg>
