
<!--Created with Inkscape (http://www.inkscape.org/)-->
<svg style="enable-background:new" xmlns="http://www.w3.org/2000/svg" viewBox="0 0 64 64">
 <path style="visibility:visible;shape-rendering:auto;color-interpolation-filters:linearRGB;fill:#4b4b4b;opacity:1;image-rendering:auto;fill-opacity:1;text-rendering:auto;stroke:none;display:inline;color:#000;fill-rule:evenodd;color-rendering:auto;color-interpolation:sRGB" d="m 32.26 6.03 c -6.732 -0.343 -13.553 2 -18.772 7.279 -9.26 9.365 -10.247 25.53 -1.189 35.503 7.966 8.77 21.657 9.681 30.06 0.988 7.315 -7.568 8.05 -20.519 0.683 -28.416 -6.337 -6.794 -17.12 -7.442 -23.648 -0.471 -5.538 5.913 -6.04 15.913 -0.229 21.913 4.849 5 12.993 5.425 17.822 0.02 3.945 -4.416 4.247 -11.772 -0.172 -16.07 -3.518 -3.42 -9.326 -3.644 -12.645 0.375 -2.557 3.096 -2.685 8.158 0.525 10.961 2.369 2.068 6.199 2.119 8.218 -0.74 0.703 -0.995 1.03 -2.213 0.936 -3.439 -0.094 -1.226 -0.685 -2.516 -1.815 -3.282 -0.727 -0.493 -1.561 -0.684 -2.426 -0.552 -0.865 0.132 -1.83 0.721 -2.278 1.753 -0.268 0.617 -0.312 1.185 -0.143 1.854 0.169 0.669 0.856 1.55 1.767 1.661 0.413 0.051 0.491 -0.013 0.645 -0.056 0.154 -0.042 0.307 -0.095 0.497 -0.208 0.19 -0.112 0.467 -0.261 0.702 -0.775 0.073 -0.16 -0.072 -0.349 -0.067 -0.557 0.062 0.141 0.2 0.22 0.215 0.415 0.034 0.438 -0.111 0.976 -0.363 1.332 -0.906 1.283 -2.84 1.255 -4.04 0.208 -1.817 -1.587 -1.739 -4.66 -0.186 -6.539 2.152 -2.606 6.104 -2.452 8.491 -0.132 3.13 3.042 2.907 8.438 0.024 11.665 -3.638 4.072 -9.939 3.746 -13.677 -0.111 -4.583 -4.729 -4.179 -12.784 0.263 -17.526 5.326 -5.686 14.278 -5.145 19.517 0.471 6.171 6.616 5.545 17.622 -0.649 24.03 c -7.192 7.44 -19.05 6.654 -25.93 -0.917 -7.888 -8.684 -7.02 -22.913 1.103 -31.13 9.221 -9.325 24.24 -8.262 32.883 1.439 9.724 10.917 8.584 28.616 -1.624 38.765 l 1.991 2.254 c 11.36 -11.295 12.625 -30.931 1.748 -43.14 -4.862 -5.458 -11.505 -8.486 -18.237 -8.829 z"/>
</svg>
