<svg xmlns="http://www.w3.org/2000/svg" viewBox="0 0 64 64">
 <g transform="matrix(2.31962 2.31962 -1.94723 1.94723 26.14 -17.811)">
  <g transform="matrix(1.22226 -0.70567 0.70567 1.22226 -10.611 5.175)">
   <path d="m 16.07 7.213 c 0 0 0.208 -0.893 -0.859 -1.509 -1.067 -0.616 -1.736 0.01 -1.736 0.01 l -5.449 9.437 -0.313 3.539 2.909 -2.041" style="fill:#ff6f03;fill-opacity:1;stroke:none;fill-rule:nonzero"/>
   <path d="m 8.02 15.15 -0.313 3.539 2.909 -2.041" style="fill:#ffc13d;fill-opacity:1;stroke:none;fill-rule:nonzero"/>
   <path d="m 7.849 17.04 -0.142 1.65 1.362 -0.945" style="fill:#2d2d2d;fill-opacity:1;stroke:none;fill-rule:nonzero"/>
  </g>
 </g>
 <path d="m 10 54 c 10.198 6.092 43.08 3.227 37.843 -15.693 -1.784 -6.443 14.94 -8.67 6.02 -1.042 3.408 20.38 -24.25 29.06 -43.868 16.735 z" style="fill:#2d2d2d;opacity:1;fill-opacity:1;stroke:none;fill-rule:nonzero"/>
</svg>
