<svg width="64" xmlns="http://www.w3.org/2000/svg" height="64" viewBox="0 0 64 64" xmlns:xlink="http://www.w3.org/1999/xlink">
<path style="fill:#aaa" d="M 6.398438 0 C 6.398438 35.199219 22.398438 28.800781 40.894531 43.710938 C 39.328125 45.824219 38.398438 48.351562 38.398438 51.199219 C 38.398438 58.273438 44.128906 64 51.199219 64 C 58.273438 64 64 58.273438 64 51.199219 C 64 50.046875 63.679688 48.960938 63.488281 47.902344 L 64 48 L 63.296875 47.105469 C 62.335938 44.289062 60.382812 41.984375 57.886719 40.382812 Z M 51.199219 44.800781 C 54.71875 44.800781 57.601562 47.679688 57.601562 51.199219 C 57.601562 54.71875 54.71875 57.601562 51.199219 57.601562 C 47.679688 57.601562 44.800781 54.71875 44.800781 51.199219 C 44.800781 47.679688 47.679688 44.800781 51.199219 44.800781 Z "/>
<path style="fill:#ccc" d="M 57.601562 0 C 57.601562 35.199219 41.601562 28.800781 23.105469 43.710938 C 24.671875 45.824219 25.601562 48.351562 25.601562 51.199219 C 25.601562 58.273438 19.871094 64 12.800781 64 C 5.726562 64 0 58.273438 0 51.199219 C 0 50.046875 0.222656 48.960938 0.511719 47.902344 L 0 48 L 0.703125 47.105469 C 1.664062 44.289062 3.617188 41.984375 6.113281 40.382812 Z M 12.800781 44.800781 C 9.28125 44.800781 6.398438 47.679688 6.398438 51.199219 C 6.398438 54.71875 9.28125 57.601562 12.800781 57.601562 C 16.320312 57.601562 19.199219 54.71875 19.199219 51.199219 C 19.199219 47.679688 16.320312 44.800781 12.800781 44.800781 Z "/>
</svg>
