<svg width="64" xmlns="http://www.w3.org/2000/svg" height="64" viewBox="0 0 64 64" xmlns:xlink="http://www.w3.org/1999/xlink">
<g style="fill-rule:evenodd">
<path style="fill:#2aa198" d="M 26.507812 0 C 11.863281 0 0 11.851562 0 26.507812 C 0 41.152344 11.863281 53.015625 26.507812 53.015625 C 30.550781 53.015625 34.347656 52.121094 37.792969 50.53125 L 47.734375 60.472656 C 52.40625 65.175781 52.453125 65.175781 57.15625 60.472656 C 61.828125 55.800781 61.828125 55.753906 57.15625 51.046875 L 48.046875 41.9375 C 51.160156 37.5625 53.015625 32.273438 53.015625 26.507812 C 53.015625 11.851562 41.152344 0 26.507812 0 Z M 26.09375 13.253906 C 29.679688 13.140625 33.160156 14.488281 35.734375 16.988281 C 38.3125 19.484375 39.765625 22.921875 39.761719 26.507812 C 39.761719 33.824219 33.828125 39.757812 26.507812 39.757812 C 19.1875 39.757812 13.253906 33.824219 13.253906 26.507812 C 13.25 19.347656 18.933594 13.476562 26.09375 13.253906 Z "/>
<path style="fill:#fff" d="M 13.253906 26.503906 C 13.253906 33.820312 19.1875 39.753906 26.507812 39.753906 C 33.828125 39.753906 39.761719 33.820312 39.761719 26.503906 C 39.761719 19.183594 33.828125 13.253906 26.507812 13.253906 C 19.1875 13.253906 13.253906 19.183594 13.253906 26.503906 Z "/>
<path style="fill:#2aa198;fill-opacity:.102" d="M 13.253906 26.503906 C 13.253906 33.820312 19.1875 39.753906 26.507812 39.753906 C 33.828125 39.753906 39.761719 33.820312 39.761719 26.503906 C 39.761719 19.183594 33.828125 13.253906 26.507812 13.253906 C 19.1875 13.253906 13.253906 19.183594 13.253906 26.503906 Z "/>
</g>
</svg>
