<svg xmlns="http://www.w3.org/2000/svg" viewBox="0 0 64 64">
 <g>
  <path d="m 24 12 -20 20 20 20 32.14 0 c 2.121 -0.088 3.858 -1.967 3.858 -4 l 0 -32 c 0 -2.123 -1.382 -4 -4.03 -4 z" style="fill:#dc322f;opacity:1;fill-opacity:1;color:#000"/>
  <path d="m 28.01 20 3.998 0 c 0.042 0 0.083 -0.002 0.125 0 1.019 0.045 2.038 0.514 2.749 1.25 l 5.122 5.125 5.247 -5.125 c 1.062 -0.922 1.786 -1.222 2.749 -1.25 l 3.998 0 l 0 4 c 0 1.146 -0.137 2.203 -0.999 3 l -5.122 5.125 4.997 5 c 0.752 0.753 1.124 1.814 1.124 2.875 l 0 4 -3.998 0 c -1.061 0 -2.121 -0.372 -2.873 -1.125 l -5.122 -5.125 -5.122 5.125 c -0.752 0.753 -1.813 1.125 -2.873 1.125 l -3.998 0 0 -4 c 0 -1.061 0.372 -2.122 1.124 -2.875 l 5.122 -5 l -5.122 -5.125 c -0.843 -0.779 -1.212 -1.877 -1.124 -3 l 0 -4 z" style="fill:#fff;fill-opacity:1;color:#000"/>
  <path d="m 28.01 20 3.998 0 c 0.042 0 0.083 -0.002 0.125 0 1.019 0.045 2.038 0.514 2.749 1.25 l 5.122 5.125 5.247 -5.125 c 1.062 -0.922 1.786 -1.222 2.749 -1.25 l 3.998 0 l 0 4 c 0 1.146 -0.137 2.203 -0.999 3 l -5.122 5.125 4.997 5 c 0.752 0.753 1.124 1.814 1.124 2.875 l 0 4 -3.998 0 c -1.061 0 -2.121 -0.372 -2.873 -1.125 l -5.122 -5.125 -5.122 5.125 c -0.752 0.753 -1.813 1.125 -2.873 1.125 l -3.998 0 0 -4 c 0 -1.061 0.372 -2.122 1.124 -2.875 l 5.122 -5 l -5.122 -5.125 c -0.843 -0.779 -1.212 -1.877 -1.124 -3 l 0 -4 z" style="fill:#dc322f;fill-opacity:0.102;color:#000"/>
 </g>
</svg>
