<svg xmlns="http://www.w3.org/2000/svg" viewBox="0 0 64 64">
 <path style="stroke-dasharray:none;stroke-opacity:1;fill:none;opacity:1;stroke-miterlimit:4;stroke:#79d073;stroke-linecap:butt;stroke-linejoin:miter;stroke-width:3;stroke-dashoffset:0" transform="matrix(1 0 0 -1 0 0)" d="M 50.5 -34 A 16.5 16.5 0 0 1 34 -17.5"/>
 <path style="stroke-dasharray:none;stroke-opacity:1;fill:none;opacity:1;stroke-miterlimit:4;stroke:#79d073;stroke-linecap:butt;stroke-linejoin:miter;stroke-width:3;stroke-dashoffset:0" transform="matrix(-1 0 0 1 0 0)" d="M -13.5 30 A 16.5 16.5 0 0 1 -30 46.5"/>
 <path style="stroke-dasharray:none;stroke-opacity:1;fill:none;stroke-miterlimit:4;stroke:#79d073;stroke-linecap:butt;stroke-linejoin:miter;stroke-width:3" d="m 34 17.5 15 0"/>
 <path style="stroke-dasharray:none;stroke-opacity:1;fill:none;stroke-miterlimit:4;stroke:#79d073;stroke-linecap:butt;stroke-linejoin:miter;stroke-width:3" d="m 15 46.5 15 0"/>
 <rect style="stroke-dasharray:none;stroke-opacity:1;fill:#fff;opacity:1;stroke-miterlimit:4;fill-opacity:1;stroke:#888;fill-rule:nonzero;stroke-linecap:butt;stroke-linejoin:miter;stroke-width:3.03;stroke-dashoffset:0" y="7.514" height="17.971" x="6.514" width="22.971"/>
 <path style="visibility:visible;shape-rendering:auto;color-interpolation-filters:linearRGB;fill:#888;opacity:1;image-rendering:auto;fill-opacity:1;text-rendering:auto;stroke:none;display:inline;color:#000;fill-rule:nonzero;color-rendering:auto;color-interpolation:sRGB" d="m 40.5 37 -9 9 4.283 0 l 4.717 -4.717 4.717 4.717 4.283 0 l -9 -9 z"/>
 <rect style="fill:#888;opacity:1;fill-opacity:1;stroke:none;fill-rule:nonzero" y="41" height="18" x="39" width="3"/>
 <path style="visibility:visible;shape-rendering:auto;color-interpolation-filters:linearRGB;fill:#888;opacity:1;image-rendering:auto;fill-opacity:1;text-rendering:auto;stroke:none;display:inline;color:#000;fill-rule:nonzero;color-rendering:auto;color-interpolation:sRGB" d="m 53.5 59 -9 -9 4.283 0 l 4.717 4.717 4.717 -4.717 4.283 0 l -9 9 z"/>
 <rect width="3" style="fill:#888;opacity:1;fill-opacity:1;stroke:none;fill-rule:nonzero" height="18" y="-55" transform="matrix(1 0 0 -1 0 0)" x="52"/>
</svg>
