<!-- Created with Inkscape (http://www.inkscape.org/) -->
<svg xmlns="http://www.w3.org/2000/svg" viewBox="0 0 64 64">
 <path d="m 35.426 25.531 14.11 6.635 c 0 0 -0.485 14.07 0.848 18.07 1.333 4 4.173 1.952 4.296 0.515 0.18 -2.101 1.957 -15.269 -1.917 -21.22 -2.588 -3.975 -8.441 -5.571 -12.441 -6.904 -4 -1.333 -4.892 2.904 -4.892 2.904 z" style="fill:#cb4b16;fill-opacity:1;stroke:none;fill-rule:evenodd"/>
 <path d="m 49.53 32.17 -18.853 18.853 c -1.567 1.567 -4.089 1.567 -5.657 0 l -15.09 -15.09 c -1.567 -1.567 -1.567 -4.089 0 -5.657 l 18.853 -18.853" style="fill:#bcbcbc;opacity:1;fill-opacity:1;stroke:none;fill-rule:nonzero"/>
 <path d="m 25.892 13.12 c -4.687 0.04 -9.196 0.973 -12.481 2.735 -2.191 1.175 -3.723 2.657 -4.257 4.487 -0.535 1.829 0.16 3.815 1.716 5.315 3.112 3 8.977 4.531 15.427 4.531 l 0 -2.667 c -5.987 0 -11.431 -1.715 -13.576 -3.784 -1.072 -1.035 -1.252 -1.811 -1.01 -2.645 0.244 -0.836 1.149 -1.92 2.956 -2.888 2.38 -1.276 5.903 -2.104 9.675 -2.331 l 2.724 -2.727 c -0.392 -0.009 -0.784 -0.029 -1.175 -0.027 z" mix-blend-mode="normal" isolation="auto" white-space="normal" solid-color="#000000" solid-opacity="1" style="visibility:visible;shape-rendering:auto;color-interpolation-filters:linearRGB;fill:#5a5a5a;opacity:1;image-rendering:auto;fill-opacity:1;stroke:none;display:inline;color:#000;fill-rule:nonzero;color-rendering:auto;color-interpolation:sRGB"/>
</svg>
