<svg width="64" xmlns="http://www.w3.org/2000/svg" height="64" viewBox="0 0 64 64" xmlns:xlink="http://www.w3.org/1999/xlink">
<path style="fill:#268bd2" d="M 16 12 L 16 20 L 36 20 C 37.710938 20 40 22.457031 40 24 L 40 28 L 20 28 C 16.324219 28 13.058594 29.535156 11 31.875 C 8.941406 34.214844 7.972656 37.117188 8 40 C 8.023438 42.882812 9.074219 45.8125 11.125 48.125 C 13.175781 50.4375 16.367188 52 20 52 L 56 52 L 56 24 C 56 17.460938 50.722656 12 44 12 Z M 28 36 L 40 36 L 40 44 L 28 44 C 26.410156 44 25.730469 43.5625 25.125 42.875 C 24.519531 42.1875 24.011719 41.117188 24 40 C 23.992188 38.882812 24.417969 37.785156 25 37.125 C 25.582031 36.464844 26.3125 36 28 36 Z "/>
</svg>
