<svg width="64" xmlns="http://www.w3.org/2000/svg" height="64" viewBox="0 0 64 64" xmlns:xlink="http://www.w3.org/1999/xlink">
<g style="fill:#268bd2">
<path d="M 24 0.195312 L 24 8.195312 L 48 8.195312 C 49.714844 8.195312 52 10.652344 52 12.195312 L 52 16.195312 L 32 16.195312 C 28.324219 16.195312 25.058594 17.734375 23 20.070312 C 20.941406 22.410156 19.976562 25.316406 20 28.195312 C 20.023438 31.078125 21.078125 34.007812 23.125 36.320312 C 25.175781 38.636719 28.367188 40.195312 32 40.195312 L 60 40.195312 L 60 12.195312 C 60 5.660156 54.722656 0.195312 48 0.195312 Z M 32 24.195312 L 52 24.195312 L 52 32.195312 L 32 32.195312 C 30.410156 32.195312 29.734375 31.757812 29.125 31.070312 C 28.519531 30.386719 28.011719 29.316406 28 28.195312 C 27.992188 27.078125 28.417969 25.984375 29 25.320312 C 29.582031 24.660156 30.3125 24.195312 32 24.195312 Z "/>
<path d="M 16 60 L 12 60 C 10.9375 60 9.878906 59.628906 9.125 58.875 L 0 49.75 L 0 46.25 L 9.125 37.125 C 9.878906 36.371094 10.9375 36 12 36 L 16 36 L 16 40 C 16 41.0625 15.628906 42.121094 14.875 42.875 L 9.75 48 L 14.875 53.125 C 15.628906 53.878906 16 54.9375 16 56 Z "/>
<path d="M 8 44 L 8 52 L 59.75 52 L 59.75 44 Z "/>
</g>
</svg>
