<svg width="64" xmlns="http://www.w3.org/2000/svg" height="64" viewBox="0 0 64 64" xmlns:xlink="http://www.w3.org/1999/xlink">
<path style="fill:#268bd2" d="M 18 12 L 18 20 L 42 20 C 43.710938 20 44.375 21.070312 43.875 22.875 L 42.5 28 L 21.5 28 C 14.144531 28 9 33.410156 7.5 39 C 6.75 41.796875 6.851562 44.914062 8.5 47.625 C 10.148438 50.335938 13.492188 52 17.125 52 L 44.125 52 L 45 49.125 L 51.625 25.125 C 53.363281 18.851562 48.71875 12 42 12 Z M 21.5 36 L 40.25 36 L 38 44 L 17.125 44 C 15.53125 44 15.425781 43.664062 15.25 43.375 C 15.074219 43.085938 14.925781 42.203125 15.25 41 C 15.894531 38.589844 18.121094 36 21.5 36 Z "/>
</svg>
