<svg xmlns="http://www.w3.org/2000/svg" viewBox="0 0 64 64">
 <path d="m 16.445 0 31.11 0 c 9.336 0 12.445 3.199 12.445 12.801 l 0 38.4 c 0 9.602 -3.109 12.801 -12.445 12.801 l -31.11 0 c -9.336 0 -12.445 -3.199 -12.445 -12.801 l 0 -38.4 c 0 -9.602 3.109 -12.801 12.445 -12.801" style="fill:#268bd2;fill-rule:evenodd"/>
 <path d="m 16.445 0 31.11 0 c 9.336 0 12.445 3.199 12.445 12.801 l 0 25.598 c 0 9.602 -3.109 12.602 -12.445 12.602 l -31.11 0 c -9.336 0 -12.445 -3 -12.445 -12.602 l 0 -25.598 c 0 -9.602 3.109 -12.801 12.445 -12.801" style="fill:#fff;fill-opacity:0.302;fill-rule:evenodd"/>
 <path d="m 32 32 -11 13 -11 -13 l 6 0 l 0 -12 l 10 0 0 12 z" style="fill:#fff;fill-opacity:0.902"/>
 <path d="m 54 18 -11 12.999 -11 -12.999 l 6 0 0 -12 10 0 0 12 z" style="fill:#fff;fill-opacity:0.902"/>
</svg>
