<svg xmlns="http://www.w3.org/2000/svg" viewBox="0 0 64 64">
 <path d="m 31.996 0 c -17.672 0.004 -31.996 14.328 -31.996 32 0 7.583 2.643 14.544 7.05 20.03 13.949 2.973 32.949 2.973 49.953 -0.066 4.375 -5.473 6.996 -12.409 6.996 -19.961 0 -17.676 -14.328 -32 -32 -32" style="fill:#268bd2;fill-rule:evenodd"/>
 <g style="fill:#fff;fill-opacity:0.902">
  <path d="m 51.988 32.625 c 0.059 -1.859 -1 -3.527 -2.75 -4.25 c -1.754 -0.723 -3.805 -0.332 -5.125 1 l -8.125 7.875 l 0 -25.25 l -8 0 l 0 25.25 l -8.125 -7.875 c -1.801 -1.754 -4.703 -1.754 -6.5 0 c -1.801 1.754 -1.801 4.621 0 6.375 l 15.375 14.875 c 0.863 0.852 2.023 1.375 3.25 1.375 c 1.223 0 2.383 -0.523 3.25 -1.375 l 15.375 -14.875 c 0.852 -0.805 1.336 -1.957 1.375 -3.125 Z" style="fill:#eaf4fb;fill-opacity:1"/>
  <path d="m 57.01 51.961 c -6.074 7.609 -15.281 12.04 -25.02 12.04 c -9.703 0 -18.883 -4.406 -24.953 -11.973" style="fill:#eaf4fb;fill-opacity:1;fill-rule:evenodd"/>
 </g>
</svg>
