<svg width="64" xmlns="http://www.w3.org/2000/svg" height="64" viewBox="0 0 64 64" xmlns:xlink="http://www.w3.org/1999/xlink">
<path style="fill:#268bd2;fill-rule:evenodd" d="M 31.996094 64 C 14.324219 63.996094 0 49.671875 0 32 C 0 14.328125 14.324219 0.00390625 31.996094 0 C 49.671875 -0.00390625 64 14.324219 64 32 C 64 49.675781 49.671875 64.003906 31.996094 64 Z "/>
<path style="fill:#fff;fill-opacity:.902" d="M 51.988281 32.625 C 52.046875 30.765625 50.988281 29.097656 49.238281 28.375 C 47.484375 27.652344 45.433594 28.042969 44.113281 29.375 L 35.988281 37.25 L 35.988281 12 L 27.988281 12 L 27.988281 37.25 L 19.863281 29.375 C 18.0625 27.621094 15.160156 27.621094 13.363281 29.375 C 11.5625 31.128906 11.5625 33.996094 13.363281 35.75 L 28.738281 50.625 C 29.601562 51.476562 30.761719 52 31.988281 52 C 33.210938 52 34.371094 51.476562 35.238281 50.625 L 50.613281 35.75 C 51.464844 34.945312 51.949219 33.792969 51.988281 32.625 Z "/>
</svg>
