<svg xmlns="http://www.w3.org/2000/svg" viewBox="0 0 64 64">
 <path d="m 56.949 11.973 c -16.949 -2.973 -33.949 -2.973 -49.953 0.066 -4.375 5.473 -6.996 12.409 -6.996 19.961 0 17.676 14.328 32 32 32 17.672 -0.004 31.996 -14.328 31.996 -32 0 -7.583 -2.643 -14.544 -7.05 -20.03" style="fill:#268bd2;fill-rule:evenodd"/>
 <g style="fill:#fff;fill-opacity:0.902">
  <path d="m 32 0 c -9.734 0 -18.941 4.43 -25.02 12.04 l 21.03 -0.027 l 0 25.24 l -8.125 -7.875 c -1.32 -1.332 -3.375 -1.727 -5.125 -1 c -1.754 0.723 -2.813 2.391 -2.75 4.25 c 0.035 1.168 0.52 2.316 1.375 3.125 l 15.375 14.875 c 0.863 0.852 2.023 1.375 3.25 1.375 c 1.223 0 2.383 -0.523 3.25 -1.375 l 15.375 -14.875 c 1.797 -1.754 1.797 -4.621 0 -6.375 c -1.801 -1.754 -4.703 -1.754 -6.5 0 l -8.125 7.875 l 0 -25.25 l 20.945 -0.027 c -6.074 -7.566 -15.254 -11.973 -24.957 -11.973 z" style="fill:#eaf4fb;fill-opacity:1"/>
 </g>
</svg>
