<svg width="64" xmlns="http://www.w3.org/2000/svg" height="64" viewBox="0 0 64 64" xmlns:xlink="http://www.w3.org/1999/xlink">
<path style="fill:#268bd2;fill-rule:evenodd" d="M 31.996094 0 C 14.324219 0.00390625 0 14.328125 0 32 C 0 49.671875 14.324219 63.996094 31.996094 64 C 49.671875 64.003906 64 49.675781 64 32 C 64 14.324219 49.671875 -0.00390625 31.996094 0 Z "/>
<path style="fill:#fff;fill-opacity:.902" d="M 51.988281 31.375 C 52.046875 33.234375 50.988281 34.902344 49.238281 35.625 C 47.484375 36.347656 45.433594 35.957031 44.113281 34.625 L 35.988281 26.75 L 35.988281 52 L 27.988281 52 L 27.988281 26.75 L 19.863281 34.625 C 18.0625 36.378906 15.160156 36.378906 13.363281 34.625 C 11.5625 32.871094 11.5625 30.003906 13.363281 28.25 L 28.738281 13.375 C 29.601562 12.523438 30.761719 12 31.988281 12 C 33.210938 12 34.371094 12.523438 35.238281 13.375 L 50.613281 28.25 C 51.464844 29.054688 51.949219 30.207031 51.988281 31.375 Z "/>
</svg>
