<svg xmlns="http://www.w3.org/2000/svg" viewBox="0 0 64 64">
 <path d="m 55.03 4 c -0.427 0 -0.835 0.159 -1.134 0.465 l -11.371 11.37 -5.177 0 c -0.426 -0.003 -0.862 0.164 -1.163 0.465 l -7.532 7.532 c -0.612 0.599 -0.612 1.727 0 2.326 l 9.219 9.218 c 0.308 0.307 0.728 0.476 1.163 0.465 0.418 -0.003 0.839 -0.17 1.134 -0.465 l 7.561 -7.561 c 0.301 -0.301 0.469 -0.708 0.465 -1.134 l 0 -5.205 11.342 -11.341 c 0.612 -0.599 0.612 -1.727 0 -2.326 l -3.345 -3.344 c -0.3 -0.306 -0.737 -0.465 -1.163 -0.465 z" style="visibility:visible;fill:#888;opacity:1;fill-opacity:1;stroke:none;display:inline;color:#000;fill-rule:nonzero"/>
 <path d="m 24.962 28.16 c -0.418 0.003 -0.839 0.199 -1.134 0.494 l -7.561 7.532 c -0.301 0.301 -0.469 0.737 -0.465 1.163 l 0 5.176 -11.342 11.37 c -0.612 0.599 -0.612 1.698 0 2.297 l 3.345 3.344 c 0.599 0.612 1.699 0.612 2.298 0 l 11.371 -11.341 5.177 0 c 0.426 0.003 0.862 -0.164 1.163 -0.465 l 7.532 -7.561 c 0.612 -0.599 0.612 -1.698 0 -2.297 l -9.219 -9.218 c -0.308 -0.307 -0.728 -0.505 -1.163 -0.494 z" style="visibility:visible;fill:#888;opacity:1;fill-opacity:1;stroke:none;display:inline;color:#000;fill-rule:nonzero"/>
</svg>
