<svg xmlns="http://www.w3.org/2000/svg" viewBox="0 0 64 64">
 <path d="m 8 20 0 37.715 c 0 6.285 0 6.285 6.855 6.285 l 34.29 0 c 6.855 0 6.855 0 6.855 -6.285 l 0 -37.715 c -13.715 0 -37.715 0 -48 0" style="fill:#dc322f"/>
 <g transform="matrix(-1,0,0,1,64,0)" style="fill:#fff;fill-opacity:0.667">
  <path d="m 12 28 0 28 8 0 0 -28 z"/>
  <path d="m 28 28 0 28 8 0 0 -28 z"/>
  <path d="m 44 28 0 28 8 0 0 -28 z"/>
 </g>
 <path d="m 56 16 -48 0 0 -8 l 12 0 0 -8 24 0 0 8 12 0" style="fill:#dc322f"/>
 <path d="m 13.822 63.891 c -1.925 -0.808 -3.614 -1.735 -5.04 -2.779 -14.04 -11.03 -4.468 -27.472 12.206 -27.472 l 0 -9.507 l 19.01 14.259 -19.01 16.634 l 0 -9.505 c -14.296 2.399 -14.345 4.563 -7.191 16.61 0 0 2.377 2.402 0 1.759 z" style="fill:#859900;fill-opacity:1"/>
</svg>
