<svg width="64" xmlns="http://www.w3.org/2000/svg" height="64" viewBox="0 0 64 64" xmlns:xlink="http://www.w3.org/1999/xlink">
<path style="fill:#268bd2;fill-rule:evenodd" d="M 64 32.003906 C 63.996094 49.675781 49.671875 64 32 64 C 14.328125 64 0.00390625 49.675781 0 32.003906 C -0.00390625 14.328125 14.324219 0 32 0 C 49.675781 0 64.003906 14.328125 64 32.003906 Z "/>
<g style="fill:#fff;fill-opacity:.902">
<path d="M 27.027344 40 L 27.027344 38.234375 C 27.027344 36.710938 27.382812 35.382812 28.09375 34.253906 C 28.808594 33.125 30.109375 31.925781 32 30.65625 C 33.820312 29.460938 35.019531 28.492188 35.59375 27.746094 C 36.183594 27 36.476562 26.164062 36.476562 25.242188 C 36.476562 24.210938 36.0625 23.421875 35.226562 22.882812 C 34.394531 22.339844 33.230469 22.070312 31.738281 22.070312 C 29.136719 22.070312 26.167969 22.851562 22.835938 24.40625 L 20 19.1875 C 23.871094 17.199219 27.972656 16.207031 32.3125 16.207031 C 35.886719 16.207031 38.722656 16.992188 40.824219 18.566406 C 42.941406 20.140625 44 22.238281 44 24.859375 C 44 26.609375 43.566406 28.121094 42.699219 29.390625 C 41.832031 30.664062 40.183594 32.09375 37.753906 33.683594 C 36.085938 34.8125 35.027344 35.667969 34.578125 36.257812 C 34.144531 36.84375 33.925781 37.617188 33.925781 38.570312 L 33.925781 40 L 27.027344 40 "/>
<path d="M 26.398438 48 C 26.398438 46.683594 26.742188 45.6875 27.429688 45.011719 C 28.113281 44.335938 29.113281 44 30.421875 44 C 31.6875 44 32.664062 44.34375 33.347656 45.035156 C 34.050781 45.726562 34.398438 46.714844 34.398438 48 C 34.398438 49.238281 34.050781 50.21875 33.347656 50.941406 C 32.648438 51.648438 31.671875 52 30.421875 52 C 29.144531 52 28.152344 51.65625 27.453125 50.964844 C 26.75 50.257812 26.398438 49.269531 26.398438 48 "/>
</g>
</svg>
