<svg xmlns="http://www.w3.org/2000/svg" viewBox="0 0 64 64">
 <path d="m 4 16 c -4 0 -4 0 -4 4 l 0 40 c 0 4 0 4 4 4 l 56 0 c 4 0 4 0 4 -4 c 0 -12.875 0 -32.563 0 -40 c 0 -4 0 -4 -4 -4 Z" style="fill:#268bd2"/>
 <g style="fill-opacity:0.102">
  <path d="m 1.75 16.03 c -1.688 0.188 -1.75 1 -1.75 3.996 l 32 19.977 l 32 -19.977 c 0 -3.996 0 -3.996 -4 -3.996 l -56 0 c -1 0 -1.688 -0.063 -2.25 0 Z" style="fill:#fff"/>
  <path d="m 64 20 l -32 20 l 32 20 Z" style="fill:#000"/>
 </g>
 <path d="m 47 34 c 0 0 9 0 9 6.65 l 0 5.355 c 0 0 4 0.372 4 1.878 l 0 13.729 c 0 1.263 -1.34 2.388 -2.813 2.388 l -20.625 0 c -1.472 0 -2.563 -1.124 -2.563 -2.388 l 0 -13.729 c 0 -1.505 4 -1.889 4 -1.889 l 0 -5.344 c 0 -6.65 9 -6.65 9 -6.65 m 0 3 c 0 0 -6 0 -6 5.311 l 0 3.689 12 0 0 -3.689 c 0 -5.311 -6 -5.311 -6 -5.311" style="fill:#dc322f;fill-opacity:1"/>
 <path d="m 47.13 50 c -2.209 0 -4 1.642 -4 3.667 c 0 1.355 0.682 2.517 1.875 3.151 l 0 4.182 l 4 0 0 -4.182 c 1.193 -0.634 2.125 -1.796 2.125 -3.151 0 -2.025 -1.791 -3.667 -4 -3.667" style="fill:#000;fill-opacity:0.102;fill-rule:evenodd"/>
</svg>
