<svg width="64" xmlns="http://www.w3.org/2000/svg" height="64" viewBox="0 0 64 64" xmlns:xlink="http://www.w3.org/1999/xlink">
<path style="fill:#268bd2;fill-rule:evenodd" d="M 29.5 10.5 C 30.0625 10.5 30.875 11 31.875 12 L 51.875 28 C 55.890625 32.015625 55.875 32 51.875 36 L 31.875 52 C 28.875 55 28.0625 53.5 27.875 47.5 C 27.8125 45.5 27.875 43 27.875 40 C 27.835938 40 27.792969 40 27.75 40 C 7.875 40 -0.125 28 0 11.875 C 7.875 20 15.875 24 27.875 23.75 C 27.871094 20.882812 27.816406 18.433594 27.875 16.5 C 28 12.5 28.375 10.5 29.5 10.5 Z "/>
</svg>
