<svg xmlns="http://www.w3.org/2000/svg" viewBox="0 0 64 64">
 <path d="m 3 0 c -3 0 -3 0 -3 3 l 0 30 c 0 3 0 3 3 3 l 42 0 c 3 0 3 0 3 -3 0 -9.656 0 -24.422 0 -30 c 0 -3 0 -3 -3 -3" style="fill:#268bd2;opacity:0.4;fill-opacity:1"/>
 <g transform="matrix(1.5,0,0,1.5,0,-12)" style="opacity:0.4;fill-opacity:0.102">
  <path d="m 0.875 8.02 c -0.844 0.094 -0.875 0.496 -0.875 1.996 l 16 9.988 16 -9.988 c 0 -1.996 0 -1.996 -2 -1.996 l -28 0 c -0.5 0 -0.844 -0.031 -1.125 0 z" style="fill:#fff"/>
  <path d="m 32 10 -16 10 16 10" style="fill:#000"/>
 </g>
 <path d="m 19 28 c -3 0 -3 0 -3 3 l 0 30 c 0 3 0 3 3 3 l 42 0 c 3 0 3 0 3 -3 0 -9.656 0 -24.422 0 -30 0 -3 0 -3 -3 -3" style="fill:#268bd2"/>
 <g transform="matrix(1.5,0,0,1.5,15.999998,16)" style="fill-opacity:0.102">
  <path d="m 0.875 8.02 c -0.844 0.094 -0.875 0.496 -0.875 1.996 l 16 9.988 16 -9.988 c 0 -1.996 0 -1.996 -2 -1.996 l -28 0 c -0.5 0 -0.844 -0.031 -1.125 0 z" style="fill:#fff"/>
  <path d="m 32 10 -16 10 16 10" style="fill:#000"/>
 </g>
</svg>
