<svg width="64" xmlns="http://www.w3.org/2000/svg" height="64" viewBox="0 0 64 64" xmlns:xlink="http://www.w3.org/1999/xlink">
<g style="fill-rule:evenodd">
<path style="fill:#859900" d="M 34.375 21 C 33.8125 21 33 21.5 32 22.5 L 12 38.5 C 7.988281 42.515625 8 42.5 12 46.5 L 32 62.5 C 35 65.5 35.8125 64 36 58 C 36.0625 56 36 53.5 36 50.5 C 36.042969 50.5 36.085938 50.5 36.125 50.5 C 56 50.5 64.125 24.125 64 8 C 56.125 16.125 48 34.5 36 34.25 C 36.003906 31.382812 36.0625 28.933594 36 27 C 35.875 23 35.5 21 34.375 21 Z "/>
<path style="fill:#000;fill-opacity:.102" d="M 34.375 21 C 33.8125 21 33 21.5 32 22.5 L 12 38.5 C 7.988281 42.515625 8 42.5 12 46.5 L 32 62.5 C 35 65.5 35.8125 64 36 58 C 36.0625 56 36 53.5 36 50.5 C 36.042969 50.5 36.085938 50.5 36.125 50.5 C 56 50.5 64.125 24.125 64 8 C 56.125 16.125 48 34.5 36 34.25 C 36.003906 31.382812 36.0625 28.933594 36 27 C 35.875 23 35.5 21 34.375 21 Z "/>
<path style="fill:#859900" d="M 34.375 6.5 C 33.8125 6.5 33 7 32 8 L 12 24 C 7.984375 28.015625 8 28 12 32 L 32 48 C 35 51 35.8125 49.5 36 43.5 C 36.0625 41.5 36 39 36 36 C 36.042969 36 36.082031 36 36.125 36 C 56 36 64 24 63.875 7.875 C 56 16 48 20 36 19.75 C 36.003906 16.882812 36.058594 14.433594 36 12.5 C 35.875 8.5 35.5 6.5 34.375 6.5 Z "/>
</g>
</svg>
