<svg xmlns="http://www.w3.org/2000/svg" viewBox="0 0 64 64">
 <path d="M 4.742188 64 L 59.257812 64 C 64 64 64 64 64 59.429688 L 64 20 L 32 0 L 0 20 L 0 59.429688 C 0 64 0 64 4.742188 64 Z " style="fill:#268bd2"/>
 <path d="M 4.742188 64 L 59.257812 64 C 64 64 64 64 64 59.429688 L 64 20 L 32 0 L 0 20 L 0 59.429688 C 0 64 0 64 4.742188 64 Z " style="fill:#000;fill-opacity:0.102"/>
 <path d="m 8 8 l 0 48 l 48 0 l 0 -48 Z" style="fill:#fff"/>
 <g style="fill:#268bd2">
  <path d="m 4 64 l 56 0 c 4 0 4 0 4 -4 l 0 -36 l -64 36 c 0 4 0 4 4 4 Z"/>
  <path d="m 60 64 l -56 0 c -4 0 -4 0 -4 -4 l 0 -36 l 64 36 c 0 4 0 4 -4 4 Z"/>
 </g>
 <path d="M 59.257812 64 L 4.742188 64 C 0 64 0 64 0 59.507812 L 0 24 L 64 59.507812 C 64 64 64 64 59.257812 64 Z " style="fill:#fff;fill-opacity:0.102"/>
 <path d="m 41.939 32.19 c -0.396 0 -0.967 0.352 -1.671 1.055 l -14.07 11.257 c -2.825 2.825 -2.814 2.814 0 5.629 l 14.07 11.257 c 2.111 2.111 2.682 1.055 2.814 -3.166 0.044 -1.407 0 -3.166 0 -5.277 0.03 0 0.058 0 0.088 0 13.984 0 19.612 -8.443 19.525 -19.788 -5.541 5.717 -11.169 8.531 -19.612 8.355 0.003 -2.02 0.041 -3.741 0 -5.101 -0.088 -2.814 -0.352 -4.222 -1.143 -4.222 z" style="fill:#859900;fill-rule:evenodd"/>
</svg>
