<svg xmlns="http://www.w3.org/2000/svg" width="64" height="64" viewBox="0 0 64 64" xmlns:xlink="http://www.w3.org/1999/xlink">
 <g>
  <path d="M 0 12 C 0 14.667969 0 17.332031 0 20 C 4.273438 20.046875 11.734375 19.824219 16 20 C 21.769531 20 21.945312 20 24 24 L 28 40 C 32 52 32 52 36.75 52 C 41.25 52 45.75 52 50.25 52 C 48.746094 53.285156 47.347656 55.179688 48.132812 57.257812 C 48.96875 60.277344 53.324219 61.027344 55.195312 58.554688 C 58.675781 55.042969 60.609375 51.601562 64 48 C 60.40625 44.199219 58.285156 40.546875 54.582031 36.851562 C 52.152344 34.601562 47.648438 36.621094 47.839844 39.96875 C 47.761719 41.710938 49.117188 42.894531 50.25 44 C 45.226562 43.949219 49.015625 44.175781 44 44 C 37.878906 44 37.832031 44 36 40 L 32 24 C 28 12 28 12 20 12 C 16.25 12 3.75 12 0 12 Z " fill="#268bd1" id="0"/>
  <path d="M 0 52.039062 C 0 49.371094 0 46.703125 0 44.039062 C 4.273438 43.988281 11.734375 44.214844 16 44.039062 C 21.769531 44.039062 21.945312 44.039062 24 40.039062 L 28 24.039062 C 32 12.039062 32 12.039062 36.75 12.039062 C 41.25 12.039062 45.75 12.039062 50.25 12.039062 C 48.746094 10.753906 47.347656 8.859375 48.132812 6.78125 C 48.96875 3.761719 53.324219 3.007812 55.195312 5.480469 C 58.675781 8.996094 60.609375 12.433594 64 16.039062 C 60.40625 19.839844 58.285156 23.492188 54.582031 27.1875 C 52.152344 29.433594 47.648438 27.417969 47.839844 24.066406 C 47.761719 22.324219 49.117188 21.144531 50.25 20.039062 C 45.226562 20.085938 49.015625 19.859375 44 20.039062 C 37.878906 20.039062 37.832031 20.039062 36 24.039062 L 32 40.039062 C 28 52.039062 28 52.039062 20 52.039062 C 16.25 52.039062 3.75 52.039062 0 52.039062 Z " fill="#268bd1"/>
  <path d="M 0 52.039062 C 0 49.371094 0 46.703125 0 44.039062 C 4.273438 43.988281 11.734375 44.214844 16 44.039062 C 21.769531 44.039062 21.945312 44.039062 24 40.039062 L 28 24.039062 C 32 12.039062 32 12.039062 36.75 12.039062 C 41.25 12.039062 45.75 12.039062 50.25 12.039062 C 48.746094 10.753906 47.347656 8.859375 48.132812 6.78125 C 48.96875 3.761719 53.324219 3.007812 55.195312 5.480469 C 58.675781 8.996094 60.609375 12.433594 64 16.039062 C 60.40625 19.839844 58.285156 23.492188 54.582031 27.1875 C 52.152344 29.433594 47.648438 27.417969 47.839844 24.066406 C 47.761719 22.324219 49.117188 21.144531 50.25 20.039062 C 45.226562 20.085938 49.015625 19.859375 44 20.039062 C 37.878906 20.039062 37.832031 20.039062 36 24.039062 L 32 40.039062 C 28 52.039062 28 52.039062 20 52.039062 C 16.25 52.039062 3.75 52.039062 0 52.039062 Z " fill-opacity="0.102"/>
  <use xlink:href="#0"/>
 </g>
</svg>
