<svg xmlns="http://www.w3.org/2000/svg" viewBox="0 0 64 64">
 <path d="m 4 0 c -1.742 0 -4 2.258 -4 4 l 0 52 c 0 1.648 2.352 4 4 4 l 52 0 c 1.648 0 4 -2.352 4 -4 l 0 -52 c 0 -1.648 -2.352 -4 -4 -4 z" style="fill:#c19553"/>
 <path d="m 4 0 c -1.742 0 -4 2.258 -4 4 l 0 16 c 6.773 0 53.23 0 60 0 l 0 -16 c 0 -1.648 -2.352 -4 -4 -4 z" style="fill:#fff;fill-opacity:0.196"/>
 <path d="m 24 8 0 24 12 0 0 -24 z" style="fill:#fff;fill-opacity:0.392"/>
 <path d="m 61.5 49 a 14.5 14.5 0 0 1 -29 0 14.5 14.5 0 1 1 29 0 z" style="fill:#dc322f;fill-opacity:1;fill-rule:evenodd"/>
 <g transform="matrix(-2,0,0,-2,97,64.000009)">
  <g transform="matrix(0.5,0,0,1,19,-6)">
   <path d="m 14 18 -4 0 0 -6 4 0 0 6" style="fill:#fff;fill-opacity:0.9"/>
  </g>
  <g transform="matrix(0.49999884,0,0,0.49999884,18.999996,2.4968895e-5)" style="fill-rule:evenodd">
   <path transform="matrix(1.24868,0,0,1.15686,-2.44444,-0.82353)" d="m 13.169 7.627 c 0 0.955 -0.717 1.729 -1.602 1.729 -0.885 0 -1.602 -0.774 -1.602 -1.729 0 -0.955 0.717 -1.729 1.602 -1.729 0.885 0 1.602 0.774 1.602 1.729 z" style="fill:#fff;fill-opacity:0.9"/>
  </g>
 </g>
</svg>
