<svg xmlns="http://www.w3.org/2000/svg" viewBox="0 0 64 64">
 <path d="m 4 0 c -1.742 0 -4 2.258 -4 4 l 0 52 c 0 1.648 2.352 4 4 4 l 52 0 c 1.648 0 4 -2.352 4 -4 l 0 -52 c 0 -1.648 -2.352 -4 -4 -4 z" style="fill:#c19553"/>
 <path d="m 4 0 c -1.742 0 -4 2.258 -4 4 l 0 16 c 6.773 0 53.23 0 60 0 l 0 -16 c 0 -1.648 -2.352 -4 -4 -4 z" style="fill:#fff;fill-opacity:0.196"/>
 <path d="m 24 8 0 24 12 0 0 -24 z" style="fill:#fff;fill-opacity:0.392"/>
 <path d="m 62.04 47.37 c -0.002 8.257 -6.695 14.95 -14.952 14.95 -8.257 0 -14.95 -6.693 -14.952 -14.95 -0.002 -8.259 6.693 -14.954 14.952 -14.954 8.259 0 14.954 6.695 14.952 14.954 z" style="fill:#859900;fill-rule:evenodd"/>
 <g transform="matrix(0.46724123,0,0,0.46724123,32.133332,32.413878)" style="fill:#fff;fill-opacity:0.902">
  <path d="m 51.49 24.02 c -3.375 -7.32 -10.93 -12.02 -19.445 -12.02 -8.707 0 -16.664 5.145 -19.801 12.797 l 6.602 2.402 c 2.09 -5.102 7.395 -8.531 13.199 -8.531 5.602 0 10.559 3.066 12.855 7.836 l -4.816 1.813 12.313 6.695 3.602 -12.688 z"/>
  <path d="m 32.04 45.34 c -5.551 0 -10.613 -3.156 -12.879 -7.895 l 4.75 -1.73 l -12.184 -6.551 -3.73 12.352 l 4.543 -1.656 c 3.313 7.289 11.05 12.148 19.5 12.148 8.738 0 16.48 -4.945 19.715 -12.594 l -6.57 -2.469 c -2.156 5.102 -7.316 8.395 -13.145 8.395 z"/>
 </g>
</svg>
