<svg xmlns="http://www.w3.org/2000/svg" viewBox="0 0 64 64">
 <path d="m 4 0 c -1.742 0 -4 2.258 -4 4 l 0 52 c 0 1.648 2.352 4 4 4 l 52 0 c 1.648 0 4 -2.352 4 -4 l 0 -52 c 0 -1.648 -2.352 -4 -4 -4 z" style="fill:#c19553"/>
 <path d="m 4 0 c -1.742 0 -4 2.258 -4 4 l 0 16 c 6.773 0 53.23 0 60 0 l 0 -16 c 0 -1.648 -2.352 -4 -4 -4 z" style="fill:#fff;fill-opacity:0.196"/>
 <path d="m 24 8 0 24 12 0 0 -24 z" style="fill:#fff;fill-opacity:0.392"/>
 <g transform="matrix(0.46875,0,0,0.46875,35.875,34)">
  <path d="m 32 0 c 0 0 20 0.035 20.02 14.188 l 0 12.219 c 0 0 7.98 0 7.98 3.211 l 0 29.29 c 0 2.695 -2.859 5.094 -6 5.094 l -44 0 c -3.141 0 -6 -2.398 -6 -5.094 l 0 -29.29 c 0 -3.211 8.09 -3.234 8.09 -3.234 l -0.25 -12.195 c 0.164 -14.168 20.16 -14.187 20.16 -14.187 m 0 7.102 c 0 0 -12 0 -12 10.629 l 0 8.676 24 0 0 -8.676 c 0 -10.629 -12 -10.629 -12 -10.629" style="fill:#268bd2"/>
  <path d="m 32 36 c -4.418 0 -8 3.582 -8 8 0 2.957 1.613 5.492 4 6.875 l 0 9.125 8 0 0 -9.125 c 2.387 -1.383 4 -3.918 4 -6.875 0 -4.418 -3.582 -8 -8 -8 z" style="fill:#000;fill-opacity:0.102;fill-rule:evenodd"/>
 </g>
</svg>
