<svg xmlns="http://www.w3.org/2000/svg" viewBox="0 0 64 64">
 <path d="m 4 0 c -1.742 0 -4 2.258 -4 4 l 0 52 c 0 1.648 2.352 4 4 4 l 52 0 c 1.648 0 4 -2.352 4 -4 l 0 -52 c 0 -1.648 -2.352 -4 -4 -4 z" style="fill:#c19553"/>
 <path d="m 4 0 c -1.742 0 -4 2.258 -4 4 l 0 16 c 6.773 0 53.23 0 60 0 l 0 -16 c 0 -1.648 -2.352 -4 -4 -4 z" style="fill:#fff;fill-opacity:0.196"/>
 <path d="m 24 8 0 24 12 0 0 -24 z" style="fill:#fff;fill-opacity:0.392"/>
 <path d="m 64 48 c -0.002 8.836 -7.164 15.998 -16 15.998 -8.836 0 -15.998 -7.162 -16 -15.998 c -0.002 -8.838 7.162 -16 16 -16 8.838 0 16 7.164 16 16 z" style="fill:#dc322f;fill-rule:evenodd"/>
 <path d="m 40.01 40 0 2.668 c -0.059 0.746 0.193 1.51 0.754 2.027 l 3.418 3.363 -3.418 3.361 c -0.5 0.502 -0.754 1.207 -0.754 1.914 l 0 2.666 2.666 0 c 0.705 0 1.412 -0.252 1.912 -0.754 l 3.418 -3.42 3.418 3.42 c 0.502 0.502 1.207 0.754 1.912 0.754 l 2.666 0 0 -2.666 c 0 -0.707 -0.252 -1.412 -0.754 -1.914 l -3.359 -3.361 3.418 -3.363 c 0.574 -0.529 0.695 -1.266 0.695 -2.027 l 0 -2.668 -2.666 0 c -0.641 0.02 -1.146 0.256 -1.853 0.871 l -3.476 3.361 -3.418 -3.361 c -0.473 -0.49 -1.119 -0.84 -1.797 -0.871 -0.027 0 -0.088 0 -0.115 0 z" style="fill:#fff;fill-opacity:0.902;fill-rule:evenodd"/>
</svg>
