<svg width="64" xmlns="http://www.w3.org/2000/svg" height="64" viewBox="0 0 64 64" xmlns:xlink="http://www.w3.org/1999/xlink">
<g style="fill-rule:evenodd">
<path style="fill:#dc322f" d="M 64 32.003906 C 63.996094 49.675781 49.671875 64 32 64 C 14.328125 64 0.00390625 49.675781 0 32.003906 C -0.00390625 14.328125 14.324219 0 32 0 C 49.675781 0 64.003906 14.328125 64 32.003906 Z "/>
<path style="fill:#fff;fill-opacity:.902" d="M 16.015625 16 L 16.015625 21.335938 C 15.898438 22.828125 16.402344 24.355469 17.523438 25.390625 L 24.359375 32.117188 L 17.523438 38.839844 C 16.523438 39.84375 16.015625 41.253906 16.015625 42.667969 L 16.015625 48 L 21.347656 48 C 22.757812 48 24.171875 47.496094 25.171875 46.492188 L 32.007812 39.652344 L 38.84375 46.492188 C 39.847656 47.496094 41.257812 48 42.667969 48 L 48 48 L 48 42.667969 C 48 41.253906 47.496094 39.84375 46.492188 38.839844 L 39.773438 32.117188 L 46.609375 25.390625 C 47.757812 24.332031 48 22.859375 48 21.335938 L 48 16 L 42.667969 16 C 41.386719 16.039062 40.375 16.511719 38.960938 17.742188 L 32.007812 24.464844 L 25.171875 17.742188 C 24.226562 16.761719 22.933594 16.0625 21.578125 16 C 21.523438 16 21.402344 16 21.347656 16 Z "/>
</g>
</svg>
