<svg xmlns="http://www.w3.org/2000/svg" viewBox="0 0 64 64">
 <rect width="52" height="20" x="6" y="12" style="fill:#512da8;fill-opacity:1;stroke:none"/>
 <path d="m 12,12 c 0,-2 0,-4 2.90909,-4 L 25.09091,8 C 28,8 28,10 28,12 l 0,2 -16,0 z" style="fill:#512da8;fill-opacity:1;stroke:none"/>
 <path d="m 10 16 44 0 0 9.935 -44 0 z" style="fill:#95989f;fill-opacity:1;stroke:none"/>
 <rect y="14" x="14" height="26" width="38" style="fill:#d8d8da;fill-opacity:1;stroke:none"/>
 <rect width="38" height="26" x="12" y="18" style="fill:#f9f9f9;fill-opacity:1;stroke:none"/>
 <path d="m 2 20 60 0 -4.286 36 -51.43 0 z" style="fill:#7e57c2;fill-opacity:1;stroke:none"/>
 <path d="m 64 38 -14 0 0 -14 -12 0 0 14 -14 0 0 12 14 0 0 14 12 0 0 -14 14 0 z" style="fill:#859900"/>
</svg>
