<svg xmlns="http://www.w3.org/2000/svg" viewBox="0 0 64 64">
 <path d="m 4.148 5 c -1.172 0.117 -2.156 1.216 -2.148 2.395 l 0 49.21 c 0 1.257 1.141 2.395 2.398 2.395 l 55.2 0 c 1.258 0 2.398 -1.138 2.398 -2.395 l 0 -49.21 c 0 -1.257 -1.141 -2.395 -2.398 -2.395 m -2.602 3 c 1.105 0 2 0.895 2 2 0 1.105 -0.895 2 -2 2 -1.105 0 -2 -0.895 -2 -2 0 -1.105 0.895 -2 2 -2 z m -52 7 54 0 l 0 41 -54 0" style="fill:#888;fill-opacity:1"/>
 <rect width="16" height="35" x="40" y="18" style="fill:#268bd2;opacity:1;fill-opacity:1;stroke:none"/>
</svg>
