<svg xmlns="http://www.w3.org/2000/svg" viewBox="0 0 64 64">
 <rect width="12" height="44" x="26" y="-54" transform="matrix(0,1,-1,0,0,0)" style="fill:#cecece;opacity:1;fill-opacity:1;stroke:none;fill-rule:nonzero"/>
 <path d="m 6,6 0,4 0,12 0,4 0,12 0,4 0,12 0,4 52,0 0,-4 0,-28 0,-4 L 58,6 6,6 Z m 4,4 12,0 0,12 -12,0 0,-12 z m 16,0 12,0 0,12 -12,0 0,-12 z m 16,0 12,0 0,12 -12,0 0,-12 z m -32,16 12,0 0,12 -12,0 0,-12 z m 16,0 12,0 0,12 -12,0 0,-12 z m 16,0 12,0 0,12 -12,0 0,-12 z m -32,16 12,0 0,12 -12,0 0,-12 z m 16,0 12,0 0,12 -12,0 0,-12 z m 16,0 12,0 0,12 -12,0 0,-12 z" style="fill:#888;opacity:1;fill-opacity:1;stroke:none;fill-rule:nonzero"/>
</svg>
