<svg xmlns="http://www.w3.org/2000/svg" viewBox="0 0 64 64">
 <g transform="matrix(1.25,0,0,-1.25,0,64)">
  <path d="m 20 16 11.2 0 0 -12.8 -11.2 0 0 12.8" style="fill:#2d2d2d;fill-opacity:1;stroke:none;fill-rule:nonzero"/>
  <path d="m 25.59 51.2 c -10.595 0 -19.19 -8.59 -19.19 -19.2 0 -10.59 8.595 -19.2 19.19 -19.2 10.615 0 19.21 8.61 19.21 19.2 c 0 10.61 -8.595 19.2 -19.21 19.2 z m 0 -10.874 c 4.597 0 8.331 -3.731 8.331 -8.326 0 -4.591 -3.733 -8.31 -8.331 -8.31 -4.593 0 -8.315 3.719 -8.315 8.31 0 4.595 3.721 8.326 8.315 8.326 z" style="fill:#888;fill-opacity:1;stroke:none;fill-rule:nonzero"/>
  <path d="m 13.16 3.836 c 0.36 1.285 24.521 1.285 24.88 0 c 0.36 -1.285 0.36 -3.836 0.36 -3.836 l -25.6 0 c 0 0 0 2.551 0.36 3.836 z" style="fill:#888;fill-opacity:1;stroke:none;fill-rule:nonzero"/>
  <path d="m 25.59 41.6 c -5.295 0 -9.59 -4.299 -9.59 -9.61 0 -5.295 4.295 -9.59 9.59 -9.59 5.315 0 9.61 4.295 9.61 9.59 0 5.311 -4.295 9.61 -9.61 9.61 m 0 -3.203 c 3.547 0 6.407 -2.875 6.407 -6.407 0 -3.531 -2.859 -6.387 -6.407 -6.387 -3.527 0 -6.387 2.855 -6.387 6.387 0 3.531 2.859 6.407 6.387 6.407 z" style="fill:#2d2d2d;fill-opacity:1;stroke:none;fill-rule:nonzero"/>
 </g>
</svg>
