<svg xmlns="http://www.w3.org/2000/svg" viewBox="0 0 64 64">
 <path d="m 3 0 c -3 0 -3 0 -3 3 l 0 30 c 0 3 0 3 3 3 l 42 0 c 3 0 3 0 3 -3 0 -9.656 0 -24.422 0 -30 c 0 -3 0 -3 -3 -3" style="fill:#268bd2"/>
 <g transform="matrix(1.5,0,0,1.5,0,-12)" style="fill-opacity:0.102">
  <path d="m 0.875 8.02 c -0.844 0.094 -0.875 0.496 -0.875 1.996 l 16 9.988 16 -9.988 c 0 -1.996 0 -1.996 -2 -1.996 l -28 0 c -0.5 0 -0.844 -0.031 -1.125 0 z" style="fill:#fff"/>
  <path d="m 32 10 -16 10 16 10" style="fill:#000"/>
 </g>
 <path d="m 19 28 c -3 0 -3 0 -3 3 l 0 30 c 0 3 0 3 3 3 l 42 0 c 3 0 3 0 3 -3 0 -9.656 0 -24.422 0 -30 0 -3 0 -3 -3 -3" style="fill:#268bd2"/>
 <g transform="matrix(1.5,0,0,1.5,15.999998,16)" style="fill-opacity:0.102">
  <path d="m 0.875 8.02 c -0.844 0.094 -0.875 0.496 -0.875 1.996 l 16 9.988 16 -9.988 c 0 -1.996 0 -1.996 -2 -1.996 l -28 0 c -0.5 0 -0.844 -0.031 -1.125 0 z" style="fill:#fff"/>
  <path d="m 32 10 -16 10 16 10" style="fill:#000"/>
 </g>
 <path d="m 56.906 18.08 c 2.992 12.922 2.18 11.32 -8.945 5.867 c -11.688 5.938 -11.281 6.438 -8.875 -5.992 -10.508 -8.75 -9.305 -7.961 3.461 -9.57 5.75 -11.594 5.266 -10.773 11.02 0.07 13.469 1.5 13.148 0.984 3.344 9.625 z" style="fill:#cb4b16;fill-opacity:1;fill-rule:evenodd"/>
</svg>
