<svg xmlns="http://www.w3.org/2000/svg" viewBox="0 0 64 64">
 <path d="m 54.27 9.333 c -24.696 0 -44.937 20.242 -44.937 44.937 l 0 1.729 16.05 0 a 29.333333 29.333333 0 0 1 -0.046875 -1.333333 29.333333 29.333333 0 0 1 29.333334 -29.333334 29.333333 29.333333 0 0 1 1.333333 0.067707 l 0 -16.07 -1.729 0 z" style="visibility:visible;shape-rendering:auto;color-interpolation-filters:linearRGB;fill:#50b34a;opacity:0.4;image-rendering:auto;fill-opacity:1;text-rendering:auto;stroke:none;display:inline;color:#000;fill-rule:nonzero;color-rendering:auto;color-interpolation:sRGB"/>
 <path transform="matrix(-1 0 0 -1 0 0)" d="M -9 -54.999996 A 46 45.999996 0 0 1 -54.999999 -9" style="stroke-dasharray:none;stroke-opacity:1;fill:none;opacity:1;stroke-miterlimit:4;stroke:#50b34a;stroke-linecap:square;stroke-linejoin:round;stroke-width:2;stroke-dashoffset:0"/>
 <rect y="9" height="8" width="8" style="stroke-dasharray:none;stroke-opacity:1;fill:#fff;opacity:1;stroke-miterlimit:4;fill-opacity:1;stroke:#313131;fill-rule:nonzero;stroke-linecap:butt;stroke-linejoin:miter;stroke-width:2;stroke-dashoffset:0" x="33"/>
 <rect y="33" height="8" width="8" style="stroke-dasharray:none;stroke-opacity:1;fill:#fff;opacity:1;stroke-miterlimit:4;fill-opacity:1;stroke:#313131;fill-rule:nonzero;stroke-linecap:butt;stroke-linejoin:miter;stroke-width:2;stroke-dashoffset:0" x="9"/>
 <path transform="matrix(-1 0 0 -1 0 0)" d="m -24.999998 -55 a 30 30 0 0 1 -30 30" style="stroke-dasharray:none;stroke-opacity:1;fill:none;opacity:1;stroke-miterlimit:4;stroke:#50b34a;stroke-linecap:square;stroke-linejoin:round;stroke-width:2;stroke-dashoffset:0"/>
 <rect y="41" height="8" width="8" style="stroke-dasharray:none;stroke-opacity:1;fill:#fff;opacity:1;stroke-miterlimit:4;fill-opacity:1;stroke:#313131;fill-rule:nonzero;stroke-linecap:butt;stroke-linejoin:miter;stroke-width:2;stroke-dashoffset:0" x="23"/>
 <rect y="23" height="8" width="8" style="stroke-dasharray:none;stroke-opacity:1;fill:#fff;opacity:1;stroke-miterlimit:4;fill-opacity:1;stroke:#313131;fill-rule:nonzero;stroke-linecap:butt;stroke-linejoin:miter;stroke-width:2;stroke-dashoffset:0" x="41"/>
</svg>
