<svg width="64" xmlns="http://www.w3.org/2000/svg" height="64" viewBox="0 0 64 64" xmlns:xlink="http://www.w3.org/1999/xlink">
<path style="fill:#268bd2" d="M 32 0 C 32 0 52 0.0351562 52.019531 14.1875 L 52.019531 26.40625 C 52.019531 26.40625 60 26.40625 60 29.617188 L 60 58.90625 C 60 61.601562 57.140625 64 54 64 L 10 64 C 6.859375 64 4 61.601562 4 58.90625 L 4 29.617188 C 4 26.40625 12.085938 26.382812 12.085938 26.382812 L 11.835938 14.1875 C 12 0.0195312 32 0 32 0 Z M 32 7.101562 C 32 7.101562 20 7.101562 20 17.730469 L 20 26.40625 L 44 26.40625 L 44 17.730469 C 44 7.101562 32 7.101562 32 7.101562 Z "/>
<path style="fill:#000;fill-rule:evenodd;fill-opacity:.102" d="M 32 36 C 27.582031 36 24 39.582031 24 44 C 24 46.957031 25.613281 49.492188 28 50.875 L 28 60 L 36 60 L 36 50.875 C 38.386719 49.492188 40 46.957031 40 44 C 40 39.582031 36.417969 36 32 36 Z "/>
</svg>
