<svg width="64" xmlns="http://www.w3.org/2000/svg" height="64" viewBox="0 0 64 64" xmlns:xlink="http://www.w3.org/1999/xlink">
<path style="fill:#859900;fill-rule:evenodd" d="M 32 0.046875 C 49.675781 0.0429688 64.007812 14.371094 64.007812 32.046875 C 64.007812 49.726562 49.675781 64.054688 32 64.046875 C 14.324219 64.054688 -0.0078125 49.726562 -0.0078125 32.046875 C -0.0078125 14.371094 14.324219 0.0429688 32 0.046875 Z "/>
<g style="fill:#fff;fill-opacity:.902">
<path d="M 8.046875 28.050781 L 8.046875 36.050781 L 32.050781 36.050781 L 32.050781 28.050781 Z "/>
<path style="fill-rule:evenodd" d="M 9.328125 40.046875 C 12.621094 49.375 21.5 56.046875 31.953125 56.046875 C 45.207031 56.046875 55.953125 45.304688 55.953125 32.046875 C 55.953125 18.792969 45.207031 8.046875 31.953125 8.046875 C 21.5 8.046875 12.621094 14.722656 9.328125 24.046875 L 18.203125 24.046875 C 20.96875 19.273438 26.035156 16.046875 31.953125 16.046875 C 40.789062 16.046875 47.953125 23.210938 47.953125 32.046875 C 47.953125 40.886719 40.789062 48.046875 31.953125 48.046875 C 26.035156 48.046875 20.96875 44.824219 18.203125 40.046875 Z "/>
</g>
</svg>
