<svg width="64" xmlns="http://www.w3.org/2000/svg" height="64" viewBox="0 0 64 64" xmlns:xlink="http://www.w3.org/1999/xlink">
<path style="fill:#dc322f;fill-rule:evenodd" d="M 18.375 15.75 C 17.691406 15.746094 16.898438 15.847656 16 16 C 15.824219 17.25 15.890625 18.304688 16 19.25 C 16.007812 19.550781 15.964844 19.835938 16 20.125 C 16.117188 21.050781 16.457031 21.953125 17.125 22.75 C 17.347656 23.015625 17.5625 23.246094 17.875 23.5 C 19.238281 24.96875 20.699219 26.34375 22.125 27.75 L 26.375 32 C 24.941406 33.402344 23.550781 34.84375 22.125 36.25 C 20.710938 37.667969 19.261719 39.050781 17.875 40.5 C 17.578125 40.710938 17.339844 41.007812 17.125 41.25 C 16.871094 41.535156 16.664062 41.808594 16.5 42.125 C 16.199219 42.707031 16.074219 43.34375 16 44 C 15.953125 44.410156 15.875 44.824219 15.875 45.25 C 15.863281 45.445312 15.871094 45.664062 15.875 45.875 C 15.902344 46.601562 15.988281 47.292969 16 48 C 16.71875 48.101562 17.390625 48.117188 18 48.125 C 18.113281 48.125 18.265625 48.125 18.375 48.125 C 18.65625 48.121094 18.863281 48.027344 19.125 48 C 19.167969 47.996094 19.207031 48.003906 19.25 48 C 20.535156 47.957031 21.746094 47.777344 22.75 46.875 C 23.015625 46.652344 23.246094 46.4375 23.5 46.125 L 32 37.625 L 40.5 46.125 C 40.710938 46.421875 41.007812 46.660156 41.25 46.875 C 41.535156 47.128906 41.808594 47.335938 42.125 47.5 C 42.679688 47.792969 43.257812 47.921875 43.875 48 C 44.566406 48.09375 45.273438 48.15625 46 48.125 C 46.609375 48.117188 47.28125 48.101562 48 48 C 48.222656 46.683594 48.238281 45.65625 48.125 44.75 C 48.113281 44.402344 48.050781 44.085938 48 43.75 C 47.8125 42.546875 47.324219 41.363281 46.125 40.5 C 44.761719 39.03125 43.300781 37.65625 41.875 36.25 L 37.625 32 L 46.125 23.5 C 46.4375 23.246094 46.652344 23.015625 46.875 22.75 C 47.125 22.464844 47.339844 22.175781 47.5 21.875 C 47.773438 21.355469 47.917969 20.820312 48 20.25 C 48.011719 20.210938 47.992188 20.164062 48 20.125 C 48.269531 18.964844 48.230469 17.648438 48 16 C 46.683594 15.777344 45.65625 15.761719 44.75 15.875 C 44.425781 15.921875 44.046875 15.910156 43.75 16 C 43.625 16.035156 43.496094 16.082031 43.375 16.125 C 42.3125 16.351562 41.277344 16.796875 40.5 17.875 C 39.03125 19.238281 37.65625 20.699219 36.25 22.125 C 34.84375 23.550781 33.402344 24.941406 32 26.375 C 30.636719 24.945312 29.269531 23.519531 27.875 22.125 C 27.855469 22.105469 27.769531 22.144531 27.75 22.125 C 26.34375 20.699219 24.96875 19.238281 23.5 17.875 C 23.289062 17.578125 22.992188 17.339844 22.75 17.125 C 22.582031 16.976562 22.429688 16.867188 22.25 16.75 C 22.15625 16.6875 22.097656 16.554688 22 16.5 C 21.964844 16.480469 21.910156 16.519531 21.875 16.5 C 21.367188 16.238281 20.816406 16.085938 20.25 16 C 20.171875 15.992188 20.078125 16.007812 20 16 C 19.5 15.878906 18.96875 15.753906 18.375 15.75 Z "/>
</svg>
