<svg xmlns="http://www.w3.org/2000/svg" viewBox="0 0 64 64">
 <path d="m 15.684 9.129 c -2.527 9.05 -2.585 21.586 1.919 27.766 1.896 2.934 4.477 6.793 2.452 10.301 -3.741 5.477 -9.981 8.43 -15.665 11.41 -1.931 0.203 -1.234 2.01 -1.363 3.344 -0.004 1.059 -0.313 2.441 1.226 1.945 l 54.49 0 c 1.543 0.496 1.23 -0.887 1.226 -1.945 -0.129 -1.336 0.568 -3.141 -1.359 -3.344 c -5.684 -2.981 -11.924 -5.934 -15.669 -11.41 -2.025 -3.508 0.56 -7.367 2.452 -10.301 4.759 -6.727 5.378 -21.372 1.908 -27.973 -3.138 -5.723 -6.303 -8.703 -15.802 -8.922 -9.515 0.387 -12.668 3.199 -15.817 9.129" style="fill:#6c71c4"/>
</svg>
