<svg width="64" xmlns="http://www.w3.org/2000/svg" height="64" viewBox="0 0 64 64" xmlns:xlink="http://www.w3.org/1999/xlink">
<path style="fill:#268bd2" d="M 12.617188 4 L 51.382812 4 C 56.140625 4 60 7.855469 60 12.613281 L 60 51.382812 C 60 56.140625 56.140625 60 51.382812 60 L 12.617188 60 C 7.859375 60 4 56.140625 4 51.382812 L 4 12.613281 C 4 7.855469 7.859375 4 12.617188 4 Z "/>
<path style="fill:#fff;fill-opacity:.902" d="M 24 12 L 24 24 L 12 24 L 12 40 L 24 40 L 24 52 L 40 52 L 40 40 L 52 40 L 52 24 L 40 24 L 40 12 Z M 28 16 L 36 16 L 36 28 L 48 28 L 48 36 L 36 36 L 36 48 L 28 48 L 28 36 L 16 36 L 16 28 L 28 28 Z "/>
</svg>
