<svg width="64" xmlns="http://www.w3.org/2000/svg" height="64" viewBox="0 0 64 64" xmlns:xlink="http://www.w3.org/1999/xlink">
<path style="fill:#268bd2" d="M 12.617188 4 L 51.382812 4 C 56.140625 4 60 7.855469 60 12.613281 L 60 51.382812 C 60 56.140625 56.140625 60 51.382812 60 L 12.617188 60 C 7.859375 60 4 56.140625 4 51.382812 L 4 12.613281 C 4 7.855469 7.859375 4 12.617188 4 Z "/>
<path style="fill:#fff;fill-opacity:.902" d="M 20 12 L 20 28 L 24 28 L 24 52 L 40 52 C 40 38.410156 40 23.261719 40 12 C 33.332031 12 26.667969 12 20 12 Z M 36 16 C 36 27.332031 36 36.71875 36 48 L 28 48 C 28 40 28 32 28 24 L 24 24 L 24 16 C 28 16 32 16 36 16 Z "/>
</svg>
