<svg viewBox="0 0 16 16" xmlns="http://www.w3.org/2000/svg">
 <rect width="1" style="fill:#f9b13a;opacity:1;fill-opacity:1;stroke:none;fill-rule:nonzero" x="2" y="1" height="14"/>
 <g style="fill:#888888;fill-opacity:1" transform="matrix(0.5 0 0 0.5 0.955 -0.33)">
  <path d="m 13.06 12.343 q 0.771 0 1.354 -0.023 0.607 -0.047 1 -0.14 l 0 -3.62 q -0.234 -0.117 -0.771 -0.187 -0.514 -0.093 -1.261 -0.093 -0.49 0 -1.051 0.07 -0.537 0.07 -1 0.304 -0.444 0.21 -0.747 0.607 -0.304 0.374 -0.304 1 0 1.168 0.747 1.635 0.747 0.444 2.032 0.444 z m -0.187 -10.882 q 1.308 0 2.195 0.35 0.911 0.327 1.448 0.957 0.56 0.607 0.794 1.471 0.234 0.841 0.234 1.868 l 0 7.59 q -0.28 0.047 -0.794 0.14 -0.49 0.07 -1.121 0.14 -0.631 0.07 -1.378 0.117 -0.724 0.07 -1.448 0.07 -1.028 0 -1.892 -0.21 q -0.864 -0.21 -1.495 -0.654 -0.631 -0.467 -0.981 -1.214 -0.35 -0.747 -0.35 -1.798 q 0 -1 0.397 -1.728 q 0.42 -0.724 1.121 -1.168 0.701 -0.444 1.635 -0.654 0.934 -0.21 1.962 -0.21 q 0.327 0 0.677 0.047 0.35 0.023 0.654 0.093 0.327 0.047 0.56 0.093 0.234 0.047 0.327 0.07 l 0 -0.607 q 0 -0.537 -0.117 -1.051 q -0.117 -0.537 -0.42 -0.934 -0.304 -0.42 -0.841 -0.654 -0.514 -0.257 -1.354 -0.257 q -1.074 0 -1.892 0.163 -0.794 0.14 -1.191 0.304 l -0.257 -1.798 q 0.42 -0.187 1.401 -0.35 0.981 -0.187 2.125 -0.187 z"/>
  <path d="m 7.644 29.736 q 0.257 0.117 0.654 0.21 0.42 0.117 0.817 0.117 1.284 0 2.01 -0.584 0.724 -0.56 1.308 -1.845 q -1.471 -2.802 -2.756 -5.932 -1.261 -3.153 -2.102 -6.375 l 2.335 0 q 0.257 1.051 0.607 2.265 0.374 1.214 0.817 2.499 0.444 1.284 0.957 2.569 0.514 1.284 1.074 2.475 0.887 -2.452 1.541 -4.857 0.654 -2.405 1.238 -4.951 l 2.242 0 q -0.841 3.433 -1.868 6.609 -1.028 3.153 -2.219 5.908 -0.467 1.051 -0.981 1.798 -0.49 0.771 -1.098 1.261 -0.607 0.49 -1.378 0.724 -0.747 0.234 -1.705 0.234 -0.257 0 -0.537 -0.047 q -0.28 -0.023 -0.56 -0.093 -0.257 -0.047 -0.49 -0.117 -0.21 -0.07 -0.304 -0.117 l 0.397 -1.751 z"/>
 </g>
</svg>
