<svg xmlns="http://www.w3.org/2000/svg" viewBox="0 0 16 16">
 <g transform="matrix(0.70000001,0,0,0.70000001,-0.39999386,-0.39999742)">
  <path d="m 21.375 12 a 9.375 9.375 0 0 1 -18.75 0 9.375 9.375 0 1 1 18.75 0 z" style="fill:#fff;fill-rule:evenodd"/>
  <path d="m 12 2 c -5.512 0 -10 4.488 -10 10 0 5.512 4.488 10 10 10 5.512 0 10 -4.488 10 -10 0 -5.512 -4.488 -10 -10 -10 z m 0 2 c 4.43 0 8 3.57 8 8 0 4.43 -3.57 8 -8 8 -4.43 0 -8 -3.57 -8 -8 0 -4.43 3.57 -8 8 -8 z" style="fill:#aaa"/>
 </g>
 <rect width="4" height="2" x="6" rx="0.5" style="fill:#aaa;opacity:1;fill-opacity:1;stroke:none"/>
 <path d="m 1.294 2.697 c -0.392 0.392 -0.392 1.022 0 1.414 l 1.061 1.061 2.828 -2.828 -1.061 -1.061 c -0.392 -0.392 -1.022 -0.392 -1.414 0 z" style="fill:#aaa;opacity:1;fill-opacity:1;stroke:none"/>
 <path d="m 14.702 2.697 c 0.392 0.392 0.392 1.022 0 1.414 l -1.061 1.061 -2.828 -2.828 1.061 -1.061 c 0.392 -0.392 1.022 -0.392 1.414 0 z" style="fill:#aaa;opacity:1;fill-opacity:1;stroke:none"/>
 <rect width="6" height="6" x="5" y="5" style="fill:#dc322f;opacity:1;fill-opacity:1;stroke:none"/>
</svg>
