<svg xmlns="http://www.w3.org/2000/svg" viewBox="0 0 16 16">
 <g style="fill-rule:evenodd">
  <path d="m 1.714 0 8.571 0 c 1.714 0 1.714 0 1.714 1.778 l 0 12.444 c 0 1.778 0 1.778 -1.714 1.778 l -8.571 0 c -1.714 0 -1.714 0 -1.714 -1.778 l 0 -12.444 c 0 -1.778 0 -1.778 1.714 -1.778 z" style="fill:#fff"/>
  <path d="m 9.376 13.375 c 0.141 0 0.318 -0.154 0.594 -0.375 1.667 -1.333 5 -4 5 -4 1.108 -0.887 1.104 -1.117 0 -2 l -5 -4 c -0.828 -0.663 -0.953 -0.375 -1 1.125 l -0.031 1.875 c -4.969 0 -6.969 3 -6.938 7.03 1.969 -2.031 3.969 -3.03 6.969 -2.969 l 0 1.813 c 0 1 0.125 1.5 0.406 1.5 z" style="fill:#268bd2"/>
 </g>
</svg>
