<svg width="16" xmlns="http://www.w3.org/2000/svg" height="16" viewBox="0 0 16 16">
<path style="fill:#fff;fill-rule:evenodd" d="M 3.7142859,0 12.285715,0 C 14,0 14,0 14,1.7777778 L 14,14.222222 C 14,16 14,16 12.285715,16 L 3.7142859,16 C 2.0000001,16 2.0000001,16 2.0000001,14.222222 l 0,-12.4444442 C 2.0000001,0 2.0000001,0 3.7142859,0 z"/>
<g style="fill:#268bd2" transform="translate(-8.47456 11.01694)">
<path style="word-spacing:0;line-height:125%;letter-spacing:0" d="m 24.474556,4.98306 -4,0 0,-6 4,0 0,6"/>
<path style="fill-rule:evenodd" d="m 24.474597,-5.0169622 c 0,1.104567 -0.895433,1.9999955 -2.000004,1.9999955 -1.104573,0 -2.000005,-0.8954285 -2.000005,-1.9999955 0,-1.1045669 0.895432,-1.9999953 2.000005,-1.9999953 1.104571,0 2.000004,0.8954284 2.000004,1.9999953 z"/>
</g>
</svg>
