<svg width="16" xmlns="http://www.w3.org/2000/svg" height="16" viewBox="0 0 16 16">
<path style="fill:#fff;fill-rule:evenodd" d="m 3.7142856,-1e-7 8.5714294,0 C 14,-1e-7 14,-1e-7 14,1.7777777 L 14,14.222222 C 14,16 14,16 12.285715,16 L 3.7142855,16 C 1.9999997,16 1.9999997,16 1.9999997,14.222222 l 0,-12.4444443 c 0,-1.777777799999999 0,-1.777777799999999 1.7142858,-1.777777799999999 z"/>
<g style="fill:#aaa;stroke:#aaa;stroke-linecap:round;stroke-width:2" transform="translate(-4 -5)">
<path d="m 15,35 0,3 3,0" transform="scale(.5)"/>
<path d="m 33,35 0,3 -3,0" transform="scale(.5)"/>
<path d="m 30,14 3,0 0,3" transform="scale(.5)"/>
<path d="m 15,17 0,-3 3,0" transform="scale(.5)"/>
</g>
</svg>
