<svg width="16" xmlns="http://www.w3.org/2000/svg" height="16" viewBox="0 0 16 16">
<g style="fill-rule:evenodd">
<path style="fill:#aaa;fill-opacity:.94" d="m 4.6666667,0.00394322 6.6666663,0 C 13,0.00394322 13,-0.16265773 13,1.6699527 l 0,6.6640378 C 13,10 13,10 11.333333,10 L 4.6666667,10 C 3,10 3,10 3,8.3339905 L 3,1.6699527 C 3,0.00394322 3,0.00394322 4.6666667,0.00394322 z"/>
<path style="fill:#ccc" d="M 1.6,4 14.4,4 C 16,4 16,4 16,5.6 l 0,4.8 C 16,12 16,12 14.4,12 L 1.6,12 C 0,12 0,12 0,10.4 L 0,5.6 C 0,4 0,4 1.6,4 z"/>
</g>
<g transform="matrix(.83333 0 0 .8 -2 -.8)">
<path style="fill:#dc322f" d="m 6,11 12,0 0,10 -12,0 z"/>
</g>
<g style="fill-rule:evenodd" transform="matrix(.83326 0 0 .83331 -1.99875 -1.99971)">
<path style="fill:#fff" d="m 19,12.5 a 5.5,6.5 0 1 1 -11,0 5.5,6.5 0 1 1 11,0 z" transform="matrix(1.091 0 0 .9231 -2.729 .4612)"/>
<path style="fill:#555" d="m 19,12.5 a 5.5,6.5 0 1 1 -11,0 5.5,6.5 0 1 1 11,0 z" transform="matrix(.7273 0 0 .6154 2.181 4.308)"/>
<path style="fill:#eee" d="m 19,12.5 a 5.5,6.5 0 1 1 -11,0 5.5,6.5 0 1 1 11,0 z" transform="matrix(.2727 0 0 .2308 9.818 7.615)"/>
</g>
</svg>
