<svg width="16" xmlns="http://www.w3.org/2000/svg" height="16" viewBox="0 0 16 16">
<path style="fill:#e9b080;fill-rule:evenodd" d="m 2.5555555,2.0036808 10.8888885,0 C 15,2.0036808 15,1.8481662 15,3.5588274 L 15,14.444853 C 15,16 15,16 13.444444,16 L 2.5555555,16 C 0.99999994,16 0.99999994,16 0.99999994,14.444853 l 0,-10.8860256 c 0,-1.5551466 0,-1.5551466 1.55555556,-1.5551466 z"/>
<path style="fill:#fff" d="m 13,2 -9.9999998,0 0,10 L 13,12 z"/>
<path style="fill:#aaa" d="m 4.8888888,0 0,3 6.0000002,0 0,-3 z"/>
<g style="fill:#888">
<path d="m 4.8888889,5 0,1 6.0000001,0 0,-1 z"/>
<path d="m 4.8888889,8 0,1 6.0000001,0 0,-1 z"/>
</g>
</svg>
