<svg width="16" xmlns="http://www.w3.org/2000/svg" height="16" viewBox="0 0 16 16">
<g style="fill-rule:evenodd">
<path style="fill:#aaa" d="M 1.8333331,7.5e-4 9.1666663,0 C 11,0 11,0 11,1.5 l 0,9 C 11,12 11,12 9.1666663,12 L 1.8333331,12 C -5e-8,12 -5e-8,12 -5e-8,10.5 l 0,-8.99925 c 0,-1.5 0,-1.5 1.83333315,-1.5 z"/>
<path style="fill:#fff" d="M 6.8333337,4 14.166667,4 C 16,4 16,4 16,5.5000938 l 0,8.9998122 C 16,16 16,16 14.166667,16 L 6.8333337,16 C 5.0000003,16 5.0000003,16 5.0000003,14.499906 l 0,-8.9998122 C 5.0000003,4 5.0000003,4 6.8333337,4 z"/>
</g>
<g style="fill:#888">
<path d="m 7,6 0,1 7,0 0,-1 z"/>
<path d="m 7,12 0,1 4,0 0,-1 z"/>
<path d="m 7,9 0,1 7,0 0,-1 z"/>
</g>
</svg>
