<svg xmlns="http://www.w3.org/2000/svg" viewBox="0 0 16 16">
 <path d="m 6 3 -5 5 5 5 8.04 0 c 0.53 -0.022 0.964 -0.492 0.964 -1 l 0 -8 c 0 -0.531 -0.345 -1 -1.01 -1" style="fill:#dc322f;opacity:1;fill-opacity:1;color:#000"/>
 <path d="m 7 5 0.999 0 c 0.01 0 0.021 0 0.031 0 0.255 0.011 0.51 0.129 0.687 0.313 l 1.281 1.281 1.312 -1.281 c 0.265 -0.231 0.446 -0.306 0.687 -0.313 l 0.999 0 0 1 c 0 0.286 -0.034 0.551 -0.25 0.75 l -1.281 1.281 1.249 1.25 c 0.188 0.188 0.281 0.453 0.281 0.719 l 0 1 -0.999 0 c -0.265 0 -0.53 -0.093 -0.718 -0.281 l -1.281 -1.281 -1.281 1.281 c -0.188 0.188 -0.453 0.281 -0.718 0.281 l -0.999 0 0 -1 c 0 -0.265 0.093 -0.531 0.281 -0.719 l 1.281 -1.25 -1.281 -1.281 c -0.211 -0.195 -0.303 -0.469 -0.281 -0.75 l 0 -1 z" style="fill:#fff;fill-opacity:1;color:#000"/>
 <path d="m 7 5 0.999 0 c 0.01 0 0.021 0 0.031 0 0.255 0.011 0.51 0.129 0.687 0.313 l 1.281 1.281 1.312 -1.281 c 0.265 -0.231 0.446 -0.306 0.687 -0.313 l 0.999 0 0 1 c 0 0.286 -0.034 0.551 -0.25 0.75 l -1.281 1.281 1.249 1.25 c 0.188 0.188 0.281 0.453 0.281 0.719 l 0 1 -0.999 0 c -0.265 0 -0.53 -0.093 -0.718 -0.281 l -1.281 -1.281 -1.281 1.281 c -0.188 0.188 -0.453 0.281 -0.718 0.281 l -0.999 0 0 -1 c 0 -0.265 0.093 -0.531 0.281 -0.719 l 1.281 -1.25 -1.281 -1.281 c -0.211 -0.195 -0.303 -0.469 -0.281 -0.75 l 0 -1 z" style="fill:#dc322f;fill-opacity:0.102;color:#000"/>
</svg>
