<svg width="16" xmlns="http://www.w3.org/2000/svg" height="16" viewBox="0 0 16 16">
<g transform="matrix(.8 0 0 .8 -3.2 -1.6)">
<path style="fill:#aaa" d="M 6,2 C 6,13 11,11 16.78,15.66 16.29,16.32 16,17.11 16,18 c 0,2.21 1.79,4 4,4 2.21,0 4,-1.79 4,-4 0,-0.36 -0.1,-0.7 -0.16,-1.03 L 24,17 23.78,16.72 c -0.3,-0.88 -0.91,-1.6 -1.69,-2.1 z m 14,14 c 1.1,0 2,0.9 2,2 0,1.1 -0.9,2 -2,2 -1.1,0 -2,-0.9 -2,-2 0,-1.1 0.9,-2 2,-2 z"/>
</g>
<g transform="matrix(.8 0 0 .8 -1.6 -1.6)">
<path style="fill:#ccc" d="M 20,2 C 20,13 15,11 9.22,15.66 9.71,16.32 10,17.11 10,18 10,20.21 8.21,22 6,22 3.79,22 2,20.21 2,18 2,17.64 2.07,17.3 2.16,16.97 L 2,17 2.22,16.72 c 0.3,-0.88 0.91,-1.6 1.69,-2.1 z M 6,16 c -1.1,0 -2,0.9 -2,2 0,1.1 0.9,2 2,2 1.1,0 2,-0.9 2,-2 0,-1.1 -0.9,-2 -2,-2 z"/>
</g>
</svg>
