<svg xmlns="http://www.w3.org/2000/svg" viewBox="0 0 16 16">
 <rect rx="2" y="1" x="2" height="14" width="12" style="fill:#e5e1c7;opacity:1;fill-opacity:1;stroke:none"/>
 <rect width="10" height="12" x="3" y="2" rx="1" style="fill:#eae7d1;opacity:1;fill-opacity:1;stroke:none"/>
 <rect width="1" height="3" x="4" rx="0.5" style="fill:#999;opacity:1;fill-opacity:1;stroke:none"/>
 <rect rx="0.5" x="6" height="3" width="1" style="fill:#999;opacity:1;fill-opacity:1;stroke:none"/>
 <rect rx="0.5" x="9" height="3" width="1" style="fill:#999;opacity:1;fill-opacity:1;stroke:none"/>
 <rect width="1" height="3" x="11" rx="0.5" style="fill:#999;opacity:1;fill-opacity:1;stroke:none"/>
 <rect width="8" height="1" x="4" y="5" style="fill:#999;opacity:1;fill-opacity:1;stroke:none"/>
 <rect y="7" x="4" height="1" width="8" style="fill:#999;opacity:1;fill-opacity:1;stroke:none"/>
 <rect width="8" height="1" x="4" y="9" style="fill:#999;opacity:1;fill-opacity:1;stroke:none"/>
 <rect y="11" x="4" height="1" width="8" style="fill:#999;opacity:1;fill-opacity:1;stroke:none"/>
 <path d="M 16,12.749999 13.75,10.5 16,8.25 13.75,6 11.5,8.25 9.25,6 7,8.25 9.25,10.5 7,12.749999 9.25,15 11.5,12.749999 13.75,15 Z" style="fill:#dc322f;fill-opacity:1"/>
</svg>
