<svg xmlns="http://www.w3.org/2000/svg" viewBox="0 0 16 16">
<g style="fill:#268bd2;line-height:normal;color:#000" transform="translate(-180.0002 -706)">
<path d="m 184,708 0,2 6,0 c 0.42816,0 1,0.61414 1,1 l 0,1 -5,0 c -0.91927,0 -1.7356,0.38396 -2.25,0.96875 -0.5144,0.58479 -0.75639,1.31063 -0.75,2.03125 0.006,0.72062 0.26893,1.45271 0.78125,2.03125 C 184.29357,717.60979 185.09172,718 186,718 l 6,0 1,0 0,-1 0,-6 c 0,-1.63434 -1.3198,-3 -3,-3 l -6,0 z m 2,6 5,0 0,2 -5,0 c -0.39787,0 -0.56691,-0.10979 -0.71875,-0.28125 C 185.12941,715.54729 185.00248,715.27938 185,715 c -0.002,-0.27938 0.10467,-0.55354 0.25,-0.71875 C 185.39533,714.11604 185.57764,714 186,714 z"/>
<path d="m 182,719 0,2 12,0 0,-2 -12,0 z"/>
</g>
</svg>
