<svg xmlns="http://www.w3.org/2000/svg" viewBox="0 0 16 16">
<g style="fill:#268bd2;line-height:normal;color:#000" transform="translate(-301.00019 -647)">
<path d="m 307.00032,647.04926 0,2 6,0 c 0.42816,0 1,0.61414 1,1 l 0,1 -5,0 c -0.91927,0 -1.7356,0.38396 -2.25,0.96875 -0.5144,0.58479 -0.75639,1.31063 -0.75,2.03125 0.006,0.72062 0.26893,1.45271 0.78125,2.03125 0.51232,0.57854 1.31047,0.96875 2.21875,0.96875 l 6,0 1,0 0,-1 0,-6 c 0,-1.63434 -1.3198,-3 -3,-3 l -6,0 z m 2,6 5,0 0,2 -5,0 c -0.39787,0 -0.56691,-0.10979 -0.71875,-0.28125 -0.15184,-0.17146 -0.27877,-0.43937 -0.28125,-0.71875 -0.002,-0.27938 0.10467,-0.55354 0.25,-0.71875 0.14533,-0.16521 0.32764,-0.28125 0.75,-0.28125 z"/>
<path d="m 305.0002,662.00001 -1,-10e-6 c -0.26531,-3e-5 -0.53058,-0.0931 -0.71875,-0.28124 l -2,-2.00001 -0.28126,-0.28125 0,-0.87499 0.28126,-0.28126 2,-1.99999 c 0.18818,-0.18821 0.45347,-0.28121 0.71876,-0.28121 l 1,-10e-6 0,1 c 4e-5,0.26531 -0.0931,0.53059 -0.28121,0.71877 l -1.28126,1.28124 1.28125,1.28125 c 0.18815,0.18817 0.28125,0.45345 0.28125,0.71875 l 0,1 z"/>
<path d="m 303,658 0,2 12.9375,0 0,-2 L 303,658 z"/>
</g>
</svg>
