<svg xmlns="http://www.w3.org/2000/svg" viewBox="0 0 16 16">
<g style="fill:#268bd2;line-height:normal;color:#000" transform="translate(-200.0002 -706)">
<path d="m 204,709 0,2 6,0 c 0.42816,0 1,0.61414 1,1 l 2,0 c 0,-1.63434 -1.3198,-3 -3,-3 l -6,0 z m -1,7 c 0.006,0.72062 0.26893,1.45271 0.78125,2.03125 C 204.29357,718.60979 205.09172,719 206,719 l 6,0 1,0 0,-1 0,-2 -2,0 0,1 -5,0 c -0.39787,0 -0.56691,-0.10979 -0.71875,-0.28125 C 205.12941,716.54729 205.00248,716.27938 205,716 l -2,0 z"/>
<path d="m 201,713 0,2 14,0 0,-2 -14,0 z"/>
</g>
</svg>
