<svg width="16" xmlns="http://www.w3.org/2000/svg" viewBox="0 0 16 16" height="16">
<g transform="matrix(0 1 -1 0 16 0)">
<path style="fill:#268bd2;fill-rule:evenodd" d="M 16,8.0011832 A 8.0000001,8.0000001 0 0 1 -2.5e-8,8.0011832 8.0000001,8.0000001 0 1 1 16,8.0011832 z"/>
<path style="fill:#fff;fill-opacity:.9" d="m 8.15625,3.0033955 c -0.464552,-0.015003 -0.881354,0.249416 -1.0625,0.6875 -0.181146,0.438085 -0.083075,0.951186 0.25,1.28125 l 1.96875,2.03125 -6.3125,0 0,2 6.3125,0 -1.96875,2.0312495 c -0.438257,0.450086 -0.438257,1.174914 0,1.625 0.438256,0.450087 1.155494,0.450087 1.59375,0 L 12.65625,8.8158955 C 12.869535,8.5998545 13,8.3094545 13,8.0033955 c 0,-0.306059 -0.130465,-0.596459 -0.34375,-0.8125 L 8.9375,3.3471455 C 8.735903,3.1341045 8.448421,3.0123955 8.15625,3.0033955 z"/>
</g>
</svg>
