<svg xmlns="http://www.w3.org/2000/svg" viewBox="0 0 16 16">
 <g transform="matrix(1 0 0 -1 0 16)">
  <path d="m 1.762 2.994 c -4.199 5.235 -0.475 13 6.236 13.01 6.699 -0.009 10.421 -7.754 6.242 -12.99 -4.24 -1.01 -8.24 -1.01 -12.479 -0.016" transform="matrix(1,0,0,-1,0,16)" style="fill:#268bd2;fill-rule:evenodd"/>
 </g>
 <g transform="matrix(1 0 0 -1 0 16)">
  <path d="m 12.997 8.156 c 0.015 -0.465 -0.249 -0.881 -0.688 -1.063 -0.438 -0.181 -0.951 -0.083 -1.281 0.25 l -2.031 1.969 0 -6.313 -2 0 0 6.313 l -2.031 -1.969 c -0.45 -0.438 -1.175 -0.438 -1.625 0 -0.45 0.438 -0.45 1.155 0 1.594 l 3.844 3.719 c 0.216 0.213 0.506 0.344 0.813 0.344 c 0.306 0 0.596 -0.13 0.813 -0.344 l 3.844 -3.719 c 0.213 -0.202 0.335 -0.489 0.344 -0.781 z" style="fill:#eaf4fb;fill-opacity:1"/>
 </g>
 <g transform="matrix(1 0 0 -1 0 16)" style="fill-rule:evenodd">
  <path d="M 14.253 12.99 A 8 8 0 0 1 7.999 16 l 0 0 A 8 8 0 0 1 1.76 13.01" style="fill:#eaf4fb;fill-opacity:1"/>
 </g>
</svg>
