<svg xmlns="http://www.w3.org/2000/svg" viewBox="0 0 16 16">
 <g transform="matrix(1.1864057,0,0,0.39546856,-0.211636,1.9294537)">
  <path d="m 2.707 2.707 7.586 0 0 7.586 -7.586 0 z" style="fill:#f8f8f8"/>
 </g>
 <path d="m 4 4 7 0 0 1 -7 0 z" style="fill:#ccc"/>
 <path d="m 12 6 0 1 -2 0 c 0 -0.547 -0.39 -1 -1 -1 z" style="fill:#f8f8f8;fill-opacity:1;stroke:none"/>
 <path d="m 11 6 0 1 -1 0 c 0 -0.547 -0.39 -1 -1 -1 z" style="fill:#ccc;fill-opacity:1;stroke:none"/>
 <path d="m 1 3 0 5 14 0 0 -5 z" style="fill:#388e3c;fill-opacity:1;stroke:none"/>
 <path d="m 3 3 c 0 -0.5 0 -1 0.727 -1 l 2.545 0 c 0.727 0 0.727 0.5 0.727 1 z" style="fill:#388e3c;fill-opacity:1;stroke:none"/>
 <rect width="12" height="4" x="2" y="4" style="fill:#d8d8da;fill-opacity:1;stroke:none;fill-rule:evenodd"/>
 <path d="m 0 7 16 0 l -1 7 -14 0 z" style="fill:#66bb6a;fill-opacity:1;stroke:none"/>
 <rect width="9" height="2" x="4" y="5" style="fill:#f9f9f9;fill-opacity:1;stroke:none;fill-rule:evenodd"/>
 <g transform="matrix(.8195 0 0 .81156 -1.83405 -1.93366)">
  <path d="m 20.95 13.17 a 4.881 4.831 0 1 1 -9.76 0 4.881 4.831 0 1 1 9.76 0 z" transform="translate(.811 3.999)" style="fill:#859900;fill-rule:evenodd"/>
  <path d="m 19.55 14.07 a 0.5 0.5 0 0 0 -0.25 0.2 l -2.66 2.6 -1.66 -1.6 a 0.5 0.5 0 1 0 -0.68 0.6 l 2 2 a 0.5 0.5 0 0 0 0.68 0 l 3 -3 a 0.5 0.5 0 0 0 -0.43 -0.8 z" style="fill:#fff;color:#000"/>
 </g>
</svg>
