<svg xmlns="http://www.w3.org/2000/svg" viewBox="0 0 16 16">
 <path d="m 2 5 0 9.429 c 0 1.571 0 1.571 1.714 1.571 l 8.571 0 c 1.714 0 1.714 0 1.714 -1.571 l 0 -9.429 c -3.429 0 -9.429 0 -12 0" style="fill:#dc322f"/>
 <g transform="matrix(-1,0,0,1,16,0)" style="fill:#fff;fill-opacity:0.667">
  <path d="m 3 7 0 7 2 0 0 -7 z"/>
  <path d="m 7 7 0 7 2 0 0 -7 z"/>
  <path d="m 11 7 0 7 2 0 0 -7 z"/>
 </g>
 <path d="m 14 4 -12 0 0 -2 3 0 0 -2 l 6 0 l 0 2 3 0 z" style="fill:#dc322f"/>
 <path d="m 3.433 15.973 c -0.483 -0.203 -0.906 -0.435 -1.264 -0.697 -3.523 -2.766 -1.121 -6.891 3.062 -6.891 l 0 -2.384 l 4.769 3.577 l -4.769 4.173 0 -2.384 c -3.586 0.602 -3.598 1.145 -1.804 4.167 0 0 0.596 0.602 0 0.441 z" style="fill:#859900;fill-opacity:1;color:#bebebe"/>
</svg>
