<svg xmlns="http://www.w3.org/2000/svg" viewBox="0 0 16 16">
 <path d="m 1 16 0 -16 14 0 0 16" style="fill:#dc322f"/>
 <path d="m 10.22 11.216 c 0.354 -1.273 0.362 -3.036 -0.27 -3.905 -0.266 -0.412 -0.628 -0.955 -0.344 -1.448 c 0.525 -0.77 1.401 -1.185 2.199 -1.605 0.271 -0.028 0.173 -0.282 0.191 -0.47 0 -0.149 0.044 -0.344 -0.172 -0.274 l -3.518 0 -0.612 0 -3.518 0 c -0.216 -0.07 -0.173 0.125 -0.172 0.274 0.018 0.187 -0.08 0.442 0.191 0.47 0.798 0.419 1.673 0.835 2.199 1.605 0.284 0.494 -0.078 1.036 -0.344 1.448 c -0.668 0.946 -0.755 3.01 -0.268 3.934 0.44 0.805 0.885 1.224 2.218 1.255 1.335 -0.054 1.778 -0.45 2.22 -1.284" style="fill:#fff;fill-opacity:0.902;color:#bebebe"/>
</svg>
