<svg xmlns="http://www.w3.org/2000/svg" viewBox="0 0 16 16">
 <path d="m 3.714 0 8.571 0 c 1.714 0 1.714 0 1.714 1.778 l 0 12.444 c 0 1.778 0 1.778 -1.714 1.778 l -8.571 0 c -1.714 0 -1.714 0 -1.714 -1.778 l 0 -12.444 c 0 -1.778 0 -1.778 1.714 -1.778 z" style="fill:#fff;fill-rule:evenodd"/>
 <path d="m 11.788 10.283 4.212 4.183 -1.527 1.535 -4.223 -4.19 c -2.696 0.765 -4.429 -0.956 -4.234 -3.82 l 3.135 1.901 0.714 -0.754 -1.927 -3.058 c 2.502 -0.571 4.813 2.102 3.85 4.205" style="fill:#268bd2;fill-opacity:1"/>
</svg>
