<svg xmlns="http://www.w3.org/2000/svg" viewBox="0 0 16 16">
 <path d="m 14.581 0 c -0.122 0 -0.238 0.046 -0.324 0.133 l -3.249 3.249 -1.479 0 c -0.122 -0.001 -0.246 0.047 -0.332 0.133 l -2.152 2.152 c -0.175 0.171 -0.175 0.494 0 0.665 l 2.634 2.634 c 0.088 0.088 0.208 0.136 0.332 0.133 0.119 -0.001 0.24 -0.049 0.324 -0.133 l 2.16 -2.16 c 0.086 -0.086 0.134 -0.202 0.133 -0.324 l 0 -1.487 3.241 -3.24 c 0.175 -0.171 0.175 -0.494 0 -0.665 l -0.956 -0.955 c -0.086 -0.087 -0.21 -0.133 -0.332 -0.133" style="visibility:visible;fill:#888;opacity:1;fill-opacity:1;stroke:none;display:inline;color:#000;fill-rule:nonzero"/>
 <path d="m 5.989 6.904 c -0.119 0.001 -0.24 0.057 -0.324 0.141 l -2.16 2.152 c -0.086 0.086 -0.134 0.211 -0.133 0.332 l 0 1.479 -3.241 3.249 c -0.175 0.171 -0.175 0.485 0 0.656 l 0.956 0.955 c 0.171 0.175 0.485 0.175 0.656 0 l 3.249 -3.24 1.479 0 c 0.122 0.001 0.246 -0.047 0.332 -0.133 l 2.152 -2.16 c 0.175 -0.171 0.175 -0.485 0 -0.656 l -2.634 -2.634 c -0.088 -0.088 -0.208 -0.144 -0.332 -0.141" style="visibility:visible;fill:#888;opacity:1;fill-opacity:1;stroke:none;display:inline;color:#000;fill-rule:nonzero"/>
</svg>
