<svg xmlns="http://www.w3.org/2000/svg" viewBox="0 0 16 16">
 <path d="m 3.503 7 -0.875 2.627 -2.628 0.876 2.628 0.87 0.875 2.627 0.875 -2.627 2.621 -0.87 -2.621 -0.876 m -0.875 -2.627" style="fill:#e2b854;fill-opacity:1;stroke:none;fill-rule:nonzero"/>
 <path d="m 12.5 3.5 -0.75 2.249 -2.25 0.753 2.25 0.749 0.75 2.249 0.75 -2.249 2.25 -0.749 -2.25 -0.753 m -0.75 -2.249" style="fill:#e2b854;fill-opacity:1;stroke:none;fill-rule:nonzero"/>
 <path d="m 9.5 0.2 -0.576 1.722 -1.724 0.576 1.724 0.576 0.576 1.726 0.576 -1.726 1.724 -0.576 -1.724 -0.576 m -0.576 -1.722" style="fill:#e2b854;fill-opacity:1;stroke:none;fill-rule:nonzero"/>
 <g transform="matrix(0.46361297,0.66088698,-0.66210795,0.46275806,21.160151,2.0032266)">
  <path d="m -7.9 16 c -0.73 -0.001 -2.102 0.448 -2.101 1.6 c 0.001 1.183 1.37 1.6 2.101 1.6 l 14.801 0 c 0.886 0 1.6 -0.713 1.6 -1.6 0 -0.886 -0.713 -1.6 -1.6 -1.6 z" style="fill:#5c6982;opacity:1;fill-opacity:1;stroke:none"/>
  <path d="m -13.4 16 c -0.886 0 -1.6 0.713 -1.6 1.6 c 0 0.886 0.713 1.6 1.6 1.6 l 5.5 0 c -0.558 0 -1.1 -0.737 -1.1 -1.6 0 -0.863 0.557 -1.6 1.1 -1.599" style="fill:#c59da1;opacity:1;fill-opacity:1;stroke:none"/>
 </g>
</svg>
