<svg xmlns="http://www.w3.org/2000/svg" viewBox="0 0 16 16">
 <g transform="matrix(0.76190476,0,0,0.76190476,-1.1428571,-1.1428571)">
  <path d="m 22.5 12 c 0 5.797 -4.702 10.5 -10.5 10.5 -5.797 0 -10.5 -4.702 -10.5 -10.5 0 -5.797 4.702 -10.5 10.5 -10.5 c 5.797 0 10.5 4.702 10.5 10.5 m 0 0" style="fill:#e2727f;fill-opacity:1;stroke:none;fill-rule:nonzero"/>
  <path d="m 17.727 12 c 0 3.16 -2.564 5.725 -5.727 5.725 -3.164 0 -5.727 -2.565 -5.727 -5.725 0 -3.165 2.564 -5.73 5.727 -5.73 3.164 0 5.727 2.565 5.727 5.73 m 0 0" style="fill:#dc322f;fill-opacity:1;stroke:none;fill-rule:nonzero"/>
  <path d="m 16.331 9.834 c 0 1.197 -0.969 2.166 -2.166 2.166 c -1.197 0 -2.166 -0.969 -2.166 -2.166 c 0 -1.197 0.969 -2.166 2.166 -2.166 1.197 0 2.166 0.969 2.166 2.166 m 0 0" style="fill:#ef9999;fill-opacity:1;stroke:none;fill-rule:nonzero"/>
 </g>
</svg>
