<svg xmlns="http://www.w3.org/2000/svg" viewBox="0 0 16 16">
 <path d="m 6 10 10 0 -5 6 z" style="fill:#cb4b16"/>
 <g transform="scale(0.98486615,1.0153664)" style="fill:#888;fill-opacity:1;stroke:none">
  <path d="m 2.167 1.97 -2.167 5.909 l 1 0 0.575 -1.6 2.125 0 0.583 1.6 1.058 0 -2.167 -5.909 z m 1.209 3.375 -1.475 0 0.742 -2.15 z" style="fill:#888"/>
  <path d="m 7.933 2.955 c 0.933 0 1.175 0.265 1.175 0.707 0 0.467 -0.317 0.733 -1.133 0.733 -0.289 0 -0.578 0 -0.867 0 l 0 -1.44 z m -0.083 2.299 c 1.234 0 1.692 0.317 1.692 0.842 0 0.642 -0.625 0.799 -1.684 0.799 l -0.75 0 0 -1.632 z m -1.757 -3.284 0 5.909 1.874 0 c 2.184 0 2.6 -1 2.6 -1.659 0 -0.575 -0.4 -1.267 -1.217 -1.417 0.533 -0.325 0.758 -0.767 0.758 -1.284 0 -0.525 -0.309 -1.585 -1.992 -1.55 z" style="fill:#888"/>
  <path d="m 14.387 1.97 c -1.875 0 -3.075 1.275 -3.075 2.942 0 1.642 1.142 2.967 3.02 2.967 0.533 0 1.159 -0.125 1.767 -0.383 l 0.15 -0.058 -0.333 -0.825 -0.15 0.058 c -0.442 0.175 -0.883 0.267 -1.25 0.267 -1.35 0 -2.15 -0.808 -2.15 -2.034 0 -1.1 0.75 -2.025 2 -2.025 0.267 0 0.675 0 1.309 0.233 l 0.158 0.058 0.333 -0.817 -0.15 -0.058 c -0.608 -0.242 -1.175 -0.325 -1.625 -0.325" style="fill:#888"/>
 </g>
</svg>
