<svg width="16" xmlns="http://www.w3.org/2000/svg" height="16" viewBox="0 0 16 16">
<g style="fill:#268bd2" transform="matrix(.70711 -.70711 .70711 .70711 -3.24049 8.17678)">
<path d="M 2,7.0847458 2,9 c 0,1 1,2 2,2 l 8,0 c 1.033898,0 2,-1 2,-2.0508475 L 14,7.0508474 C 14,6 13,5 12,5 L 4,5 C 3,5 2,6 2,7.0847458 z M 4,7 12,7 c 1,0 1,0 1,1 0,1 0,1 -1,1 L 4,9 C 3,9 3,9 3,8 3,7 3,7 4,7 z"/>
<path d="m 11.25,7 6,0 c 1,0 1,2 0,2 l -6,0 c -1,0 -1,-2 0,-2 z"/>
<path d="m -0.75,7 6,0 c 1,0 1,2 0,2 l -6,0 c -1,0 -1,-2 0,-2 z"/>
</g>
<g style="fill-opacity:.1" transform="matrix(.70711 -.70711 .70711 .70711 -3.24049 8.17678)">
<path d="m 11.25,7 6,0 c 1,0 1,2 0,2 l -6,0 c -1,0 -1,-2 0,-2 z"/>
<path d="m -0.75,7 6,0 c 1,0 1,2 0,2 l -6,0 c -1,0 -1,-2 0,-2 z"/>
</g>
<path style="fill:#cb4b16" d="m 6,10 10,0 -5,6 z"/>
</svg>
