<svg xmlns="http://www.w3.org/2000/svg" width="16" viewBox="0 0 4.5155557 4.5155557" height="16">
 <g transform="translate(0,1.3312812e-6)">
  <path d="m 0.282 1.129 c -0.282 0 -0.282 0 -0.282 0.282 l 0 2.822 c 0 0.282 0 0.282 0.282 0.282 l 3.951 0 c 0.282 0 0.282 0 0.282 -0.282 0 -0.908 0 -2.297 0 -2.822 0 -0.282 0 -0.282 -0.282 -0.282 z" style="fill:#268bd2"/>
 </g>
 <g transform="translate(0,1.3312812e-6)" style="fill-opacity:0.1">
  <path d="m 0.123 1.131 c -0.119 0.013 -0.123 0.07 -0.123 0.282 l 2.258 1.409 2.258 -1.409 c 0 -0.282 0 -0.282 -0.282 -0.282 l -3.951 0 c -0.071 0 -0.119 -0.004 -0.159 0 z" style="fill:#fff"/>
  <path d="m 4.516 1.411 -2.258 1.411 2.258 1.411 0 -2.822 z"/>
 </g>
 <g transform="matrix(0.19956,-0.19956,0.19956,0.19956,-0.94954,0.71103133)" style="fill:#dc322f;fill-opacity:0">
  <path d="m 0.625 14.03 1.414 1.414 3.536 -3.536 -1.414 -1.414"/>
  <path d="m 1.332 9.08 5.657 0 0 5.657 z"/>
 </g>
 <path d="m 3.246 2.258 c 0 0 0.706 0.001 0.706 0.501 l 0 0.431 c 0 0 0.281 0 0.281 0.113 l 0 1.033 c 0 0.095 -0.101 0.18 -0.212 0.18 l -1.552 0 c -0.111 0 -0.212 -0.085 -0.212 -0.18 l 0 -1.033 c 0 -0.113 0.285 -0.114 0.285 -0.114 l -0.009 -0.43 c 0.006 -0.5 0.711 -0.501 0.711 -0.501 m 0 0.251 c 0 0 -0.423 0 -0.423 0.375 l 0 0.306 0.847 0 0 -0.306 c 0 -0.375 -0.423 -0.375 -0.423 -0.375 z" style="fill:#dc322f;fill-opacity:1;color:#000"/>
 <path d="m 3.246 3.528 c -0.156 0 -0.282 0.126 -0.282 0.282 0 0.104 0.057 0.194 0.141 0.243 l 0 0.322 0.282 0 0 -0.322 c 0.084 -0.049 0.141 -0.138 0.141 -0.243 0 -0.156 -0.126 -0.282 -0.282 -0.282 z" style="fill-opacity:0.1;fill-rule:evenodd"/>
</svg>
