<svg width="16" xmlns="http://www.w3.org/2000/svg" viewBox="0 0 4.5155557 4.5155557" height="16" xmlns:xlink="http://www.w3.org/1999/xlink">
<defs/>
<path style="fill:#268bd2" d="m 0.33448553,4.5155557 3.84658447,0 c 0.3344857,0 0.3344857,0 0.3344857,-0.3225398 l 0,-2.7819047 L 2.2577779,3.2518525e-8 0,1.4111112 -2.044444e-8,4.1930159 c -2.370371e-9,0.3225398 0,0.3225398 0.33448555044444,0.3225398 z"/>
<path style="fill-opacity:.1" d="m 0.33448553,4.5155557 3.84658447,0 c 0.3344857,0 0.3344857,0 0.3344857,-0.3225398 l 0,-2.7819047 L 2.2577779,3.2518525e-8 0,1.4111112 -1.75e-8,4.1930159 c -1e-8,0.3225398 0,0.3225398 0.3344855475,0.3225398 z"/>
<path style="fill:#fff" d="m 0.56444446,0.56444446 0,3.38666674 3.38666674,0 0,-3.38666674 z"/>
<g style="fill:#268bd2">
<path d="m 0.28222223,4.5155557 3.95111127,0 c 0.2822222,0 0.2822222,0 0.2822222,-0.2822222 l 0,-2.5400001 L 0,4.2333335 c 0,0.2822222 0,0.2822222 0.28222223,0.2822222 z"/>
<path d="m 4.2333335,4.5155557 -3.95111127,0 C 0,4.5155557 0,4.5155557 0,4.2333335 L 0,1.6933334 4.5155557,4.2333335 c 0,0.2822222 0,0.2822222 -0.2822222,0.2822222 z"/>
</g>
<path style="fill:#fff;fill-opacity:.1" d="m 4.18107,4.5155557 -3.84658447,0 C -2.044444e-8,4.5155557 -2.044444e-8,4.5155557 -2.044444e-8,4.1986752 L 0,1.6933334 4.5155557,4.1986752 c 0,0.3168805 0,0.3168805 -0.3344857,0.3168805 z"/>
<path style="fill:#cb4b16;fill-rule:evenodd" d="M 4.0152901,1.2754828 C 4.2260883,2.1873583 4.1690203,2.07446 3.3838537,1.689732 2.5590795,2.1082937 2.5877562,2.1439388 2.7576935,1.266874 2.0162212,0.64907976 2.1010763,0.70497771 3.0021414,0.59128425 c 0.4055219,-0.81787542 0.3712779,-0.76002658 0.7772376,0.005321 0.9499597,0.10564462 0.92757,0.0693573 0.2359111,0.67887825 z"/>
</svg>
