<svg width="16" xmlns="http://www.w3.org/2000/svg" height="16" viewBox="0 0 16 16">
<g style="fill-rule:evenodd">
<path style="fill:#859900" d="m 8.5941353,5.25 c -0.140625,0 -0.34375,0.125 -0.59375,0.375 l -5,4 c -1.0036924,1.003692 -1,1 0,2 l 5,4 c 0.75,0.75 0.953125,0.375 1,-1.125 0.015625,-0.5 0,-1.125 0,-1.875 0.010546,4.4e-5 0.020692,0 0.03125,0 C 14.000385,12.625 16.03125,6.03125 16,2 14.03125,4.03125 12.000385,8.625 9.0003853,8.5625 c 9.566e-4,-0.7169444 0.015104,-1.3291667 0,-1.8125 -0.03125,-1 -0.125,-1.5 -0.40625,-1.5 z"/>
<path style="fill-opacity:.1" d="m 8.5941353,5.25 c -0.140625,0 -0.34375,0.125 -0.59375,0.375 l -5,4 c -1.0036924,1.003692 -1,1 0,2 l 5,4 c 0.75,0.75 0.953125,0.375 1,-1.125 0.015625,-0.5 0,-1.125 0,-1.875 0.010546,4.4e-5 0.020692,0 0.03125,0 C 14.000385,12.625 16.03125,6.03125 16,2 14.03125,4.03125 12.000385,8.625 9.0003853,8.5625 c 9.566e-4,-0.7169444 0.015104,-1.3291667 0,-1.8125 -0.03125,-1 -0.125,-1.5 -0.40625,-1.5 z"/>
<path style="fill:#859900" d="M 8.59375,1.625 C 8.453125,1.625 8.25,1.75 8,2 L 3,6 C 1.9963076,7.0036924 2,7 3,8 l 5,4 C 8.75,12.75 8.953125,12.375 9,10.875 9.015625,10.375 9,9.75 9,9 9.010546,9.000044 9.020692,9 9.03125,9 14,9 16,6 15.96875,1.96875 14,4 12,5 9,4.9375 9.0009566,4.2205556 9.0151042,3.6083333 9,3.125 c -0.03125,-1 -0.125,-1.5 -0.40625,-1.5 z"/>
</g>
</svg>
