<svg viewBox="0 0 4.5155557 4.5155557" width="16" height="16" xmlns="http://www.w3.org/2000/svg">
 <g transform="matrix(1 0 0 1 0 0.564)">
  <path d="m 0.282 0.564 c -0.282 0 -0.282 0 -0.282 0.282 l 0 2.822 c 0 0.282 0 0.282 0.282 0.282 l 3.951 0 c 0.282 0 0.282 0 0.282 -0.282 0 -0.908 0 -2.297 0 -2.822 0 -0.282 0 -0.282 -0.282 -0.282 z" style="fill:#268bd2"/>
 </g>
 <g style="fill-opacity:0.1" transform="matrix(1 0 0 1 0 0.564)">
  <path d="m 0.123 0.566 c -0.119 0.013 -0.123 0.07 -0.123 0.282 l 2.258 1.409 2.258 -1.409 c 0 -0.282 0 -0.282 -0.282 -0.282 l -3.951 0 c -0.071 0 -0.119 -0.004 -0.159 0 z" style="fill:#fff"/>
  <path d="m 4.516 0.847 -2.258 1.411 2.258 1.411 0 -2.822 z"/>
 </g>
 <g style="fill:#dc322f;fill-opacity:0" transform="matrix(0.19956 -0.19956 0.19956 0.19956 -0.95 1.275)">
  <path d="m 0.625 14.03 1.414 1.414 3.536 -3.536 -1.414 -1.414 z"/>
  <path d="m 1.332 9.08 5.657 0 0 5.657 z"/>
 </g>
 <path d="m 1.976 0.847 c -0.564 2.54 0.564 2.258 1.693 3.104 c 0.282 -0.564 0 -0.564 0 -0.847 0 0 0.282 -0.282 0.564 0.282 0 -0.282 0.847 -1.693 -0.564 -2.822 c -0.009 0.55 -0.282 0.564 -0.282 0.564 -0.282 -0.282 -0.282 -0.282 -0.282 -0.564 c 0 -0.252 0.042 -0.606 0 -0.564 c -0.384 0.384 -0.564 0.82 -0.564 1.129 l 0 0.282 c 0 0 -0.282 0 -0.564 -0.564 z" style="fill:#f27d0c"/>
 <path d="m 2.822 4.384 c 0 0.036 0.005 0.077 0.013 0.124 0.065 0.009 0.12 0.006 0.17 0 0.016 0 0.031 0.002 0.046 0 0.048 -0.006 0.096 -0.024 0.137 -0.059 0.014 -0.012 0.026 -0.023 0.039 -0.039 0.077 -0.071 0.149 -0.148 0.222 -0.223 l 0.222 -0.223 c 0.073 0.075 0.149 0.148 0.222 0.223 0.074 0.074 0.147 0.15 0.222 0.223 0.011 0.015 0.027 0.028 0.039 0.039 0.015 0.013 0.029 0.024 0.046 0.033 0.03 0.016 0.064 0.022 0.098 0.026 0.021 0.003 0.043 0.007 0.065 0.007 0.01 0.001 0.022 0 0.033 0 0.038 -0.001 0.074 -0.006 0.111 -0.007 0.005 -0.038 0.006 -0.073 0.007 -0.105 0 -0.006 0 -0.014 0 -0.02 0 -0.015 -0.005 -0.026 -0.007 -0.039 0 -0.002 0 -0.004 0 -0.007 c -0.002 -0.067 -0.012 -0.131 -0.059 -0.183 -0.012 -0.014 -0.023 -0.026 -0.039 -0.039 l -0.444 -0.445 0.444 -0.445 c 0.015 -0.011 0.028 -0.027 0.039 -0.039 0.013 -0.015 0.024 -0.029 0.033 -0.046 0.015 -0.029 0.022 -0.059 0.026 -0.092 0.005 -0.036 0.008 -0.073 0.007 -0.111 0 -0.032 -0.001 -0.067 -0.007 -0.105 -0.069 -0.012 -0.123 -0.013 -0.17 -0.007 -0.018 0.001 -0.035 0.004 -0.052 0.007 -0.063 0.01 -0.125 0.035 -0.17 0.098 c -0.077 0.071 -0.149 0.148 -0.222 0.223 l -0.222 0.223 -0.444 -0.445 c -0.013 -0.016 -0.025 -0.028 -0.039 -0.039 -0.015 -0.013 -0.03 -0.024 -0.046 -0.033 -0.027 -0.014 -0.055 -0.022 -0.085 -0.026 -0.002 -0.001 -0.004 0 -0.007 0 -0.061 -0.014 -0.129 -0.012 -0.216 0 -0.012 0.069 -0.012 0.123 -0.007 0.17 0.002 0.017 0.002 0.037 0.007 0.052 0.002 0.006 0.004 0.013 0.007 0.02 0.012 0.056 0.035 0.11 0.092 0.151 0.071 0.077 0.148 0.149 0.222 0.223 0.075 0.074 0.147 0.149 0.222 0.223 -0.075 0.071 -0.149 0.143 -0.222 0.216 -0.001 0.001 0.001 0.005 0 0.007 -0.075 0.074 -0.151 0.146 -0.222 0.223 -0.015 0.011 -0.028 0.027 -0.039 0.039 -0.008 0.009 -0.014 0.017 -0.02 0.026 -0.003 0.005 -0.01 0.008 -0.013 0.013 -0.001 0.002 0.001 0.005 0 0.007 -0.014 0.027 -0.022 0.055 -0.026 0.085 -0.001 0.004 0 0.009 0 0.013 -0.006 0.026 -0.013 0.054 -0.013 0.085 z" style="fill:#dc322f;fill-rule:evenodd"/>
</svg>
