<svg width="16" xmlns="http://www.w3.org/2000/svg" viewBox="0 0 4.5155557 4.5155557" height="16" xmlns:xlink="http://www.w3.org/1999/xlink">
<defs/>
<g transform="translate(0 .56444)">
<path style="fill:#268bd2" d="M 0.28222223,0.56447648 C 0,0.56447648 0,0.56444338 0,0.84666568 L 0,3.668888 c 0,0.2822222 -4.9194439e-8,0.2822222 0.28222223,0.2822222 l 3.95111117,0 c 0.2822223,0 0.2822223,0 0.2822223,-0.2822222 0,-0.9083989 0,-2.2974207 0,-2.82222232 0,-0.2822223 0,-0.2821895 -0.2822223,-0.2821895 z"/>
<path style="fill:#fff;fill-opacity:.1" d="M 0.12347223,0.56640108 C 0.00440972,0.57961508 0,0.63687508 0,0.84829708 L 2.2577778,2.2577768 4.5155557,0.84829708 c 0,-0.281896 0,-0.281896 -0.2822223,-0.281896 l -3.95111117,0 c -0.0705556,0 -0.1190625,-0.0044 -0.15875,0 z"/>
<path style="fill-opacity:.1" d="m 4.5155557,0.84666558 -2.2577779,1.41111122 2.2577779,1.4111111 0,-2.82222232 z"/>
</g>
<g style="fill:#dc322f;fill-opacity:0" transform="matrix(.19956 -.19956 .19956 .19956 -.94954 1.27547)">
<path d="M 0.62499842,14.032613 2.039212,15.446827 5.574746,11.911293 4.1605324,10.497079 z"/>
<path d="m 1.3321052,9.0828657 5.6568544,0 0,5.6568543 z"/>
</g>
<path style="fill:#cb4b16;fill-rule:evenodd" d="M 4.0152901,1.2754829 C 4.2260883,2.1873584 4.1690203,2.0744601 3.3838537,1.6897321 2.5590795,2.1082938 2.5877562,2.1439389 2.7576935,1.2668741 2.0162212,0.64907993 2.1010763,0.70497783 3.0021414,0.59128433 c 0.4055219,-0.8178754 0.3712779,-0.7600265 0.7772376,0.00532 0.9499597,0.1056446 0.92757,0.069357 0.2359111,0.67887817 z"/>
</svg>
