<svg xmlns="http://www.w3.org/2000/svg" width="16" viewBox="0 0 4.5155557 4.5155557" height="16">
 <path d="m 0.212 0 c -0.212 0 -0.212 0 -0.212 0.212 l 0 2.117 c 0 0.212 0 0.212 0.212 0.212 l 2.963 0 c 0.212 0 0.212 0 0.212 -0.212 0 -0.681 0 -1.723 0 -2.117 0 -0.212 0 -0.212 -0.212 -0.212 z" style="fill:#268bd2;opacity:0.4;fill-opacity:1"/>
 <g transform="matrix(0.75000007,0,0,0.75000007,-1.3457406e-7,-0.42333432)" style="opacity:0.4;fill-opacity:0.1">
  <path d="m 0.123 0.566 c -0.119 0.013 -0.123 0.07 -0.123 0.282 l 2.258 1.409 2.258 -1.409 c 0 -0.282 0 -0.282 -0.282 -0.282 l -3.951 0 c -0.071 0 -0.119 -0.004 -0.159 0 z" style="fill:#fff"/>
  <path d="m 4.516 0.847 -2.258 1.411 2.258 1.411 0 -2.822 z"/>
 </g>
 <g transform="matrix(0.14967002,-0.14967002,0.14967002,0.14967002,-0.71215523,0.10993828)" style="fill:#dc322f;opacity:0.4;fill-opacity:0">
  <path d="m 0.625 14.03 1.414 1.414 3.536 -3.536 -1.414 -1.414"/>
  <path d="m 1.332 9.08 5.657 0 0 5.657 z"/>
 </g>
 <g transform="matrix(0.75000008,0,0,0.75000008,1.1288889,1.5522172)">
  <path d="m 0.282 0.564 c -0.282 0 -0.282 0 -0.282 0.282 l 0 2.822 c 0 0.282 0 0.282 0.282 0.282 l 3.951 0 c 0.282 0 0.282 0 0.282 -0.282 0 -0.908 0 -2.297 0 -2.822 0 -0.282 0 -0.282 -0.282 -0.282 z" style="fill:#268bd2"/>
  <g style="fill-opacity:0.1">
   <path d="m 0.123 0.566 c -0.119 0.013 -0.123 0.07 -0.123 0.282 l 2.258 1.409 2.258 -1.409 c 0 -0.282 0 -0.282 -0.282 -0.282 l -3.951 0 c -0.071 0 -0.119 -0.004 -0.159 0 z" style="fill:#fff"/>
   <path d="m 4.516 0.847 -2.258 1.411 2.258 1.411 0 -2.822 z"/>
  </g>
 </g>
 <g transform="matrix(0.14967002,-0.14967002,0.14967002,0.14967002,0.41673384,2.0854898)" style="fill:#dc322f;fill-opacity:0">
  <path d="m 0.625 14.03 1.414 1.414 3.536 -3.536 -1.414 -1.414"/>
  <path d="m 1.332 9.08 5.657 0 0 5.657 z"/>
 </g>
</svg>
