<svg xmlns="http://www.w3.org/2000/svg" width="16" height="16" xmlns:xlink="http://www.w3.org/1999/xlink">
 <g transform="translate(-60.999948,-277)">
  <path d="m 60.999948,280 c 0,0.66667 0,1.33333 0,2 1.068675,0.0119 2.933232,-0.044 4,0 1.441942,0 1.486136,0 2,1 l 1,4 c 1,3 1,3 2.187598,2.99996 1.124967,0 2.249933,0 3.3749,0 -0.375792,0.32137 -0.725348,0.79471 -0.529143,1.31452 0.208347,0.75499 1.297649,0.94274 1.764985,0.32464 0.870832,-0.87823 1.353933,-1.7383 2.20166,-2.63912 -0.898484,-0.95018 -1.42853,-1.86376 -2.354207,-2.78714 -0.607961,-0.5622 -1.733859,-0.0578 -1.686082,0.77981 -0.01962,0.43531 0.319888,0.73088 0.602787,1.00729 -1.25616,-0.0122 -0.30825,0.0444 -1.562498,4e-5 -1.53033,0 -1.541966,0 -2,-1 l -1,-4 c -1,-3 -1,-3 -3,-3 -0.937467,0 -4.062533,0 -5,0 z" color="#bebebe" fill="#268bd2" id="0"/>
  <path d="m 60.999948,290.00945 c 0,-0.66667 0,-1.33333 0,-2 1.068675,-0.0119 2.933232,0.044 4,0 1.441942,0 1.486136,0 2,-1 l 1,-4 c 1,-3 1,-3 2.187598,-2.99996 1.124967,0 2.249933,0 3.3749,0 -0.375792,-0.32137 -0.725348,-0.79471 -0.529143,-1.31452 0.208347,-0.75499 1.297649,-0.94274 1.764985,-0.32464 0.870832,0.87823 1.353933,1.7383 2.20166,2.63912 -0.898484,0.95018 -1.42853,1.86376 -2.354207,2.78714 -0.607961,0.5622 -1.733859,0.0578 -1.686082,-0.77981 -0.01962,-0.43531 0.319888,-0.73088 0.602787,-1.00729 -1.25616,0.0122 -0.30825,-0.0444 -1.562498,-4e-5 -1.53033,0 -1.541966,0 -2,1 l -1,4 c -1,3 -1,3 -3,3 -0.937467,0 -4.062533,0 -5,0 z" color="#bebebe" fill="#268bd2"/>
  <path d="m 60.999948,290.00945 c 0,-0.66667 0,-1.33333 0,-2 1.068675,-0.0119 2.933232,0.044 4,0 1.441942,0 1.486136,0 2,-1 l 1,-4 c 1,-3 1,-3 2.187598,-2.99996 1.124967,0 2.249933,0 3.3749,0 -0.375792,-0.32137 -0.725348,-0.79471 -0.529143,-1.31452 0.208347,-0.75499 1.297649,-0.94274 1.764985,-0.32464 0.870832,0.87823 1.353933,1.7383 2.20166,2.63912 -0.898484,0.95018 -1.42853,1.86376 -2.354207,2.78714 -0.607961,0.5622 -1.733859,0.0578 -1.686082,-0.77981 -0.01962,-0.43531 0.319888,-0.73088 0.602787,-1.00729 -1.25616,0.0122 -0.30825,-0.0444 -1.562498,-4e-5 -1.53033,0 -1.541966,0 -2,1 l -1,4 c -1,3 -1,3 -3,3 -0.937467,0 -4.062533,0 -5,0 z" opacity="0.1" color="#bebebe"/>
  <use xlink:href="#0"/>
 </g>
</svg>
