<svg xmlns="http://www.w3.org/2000/svg" width="16" viewBox="0 0 16 16" height="16">
 <g transform="matrix(.42328 0 0 .42328 -2.53968 7.61905)">
  <path d="M 8.3625,-18 C 7.3339285,-18 6,-16.666072 6,-15.6375 L 6,15.075 c 0,0.971429 1.3910714,2.3625 2.3625,2.3625 l 30.7125,0 c 0.971429,0 2.3625,-1.391071 2.3625,-2.3625 l 0,-30.7125 C 41.4375,-16.608929 40.046429,-18 39.075,-18 z" fill="#c19553"/>
 </g>
 <g transform="matrix(.42328 0 0 .42328 -2.53968 -2.53968)" fill="#fff">
  <path d="M 8.3625,6 C 7.3339285,6 6,7.3339285 6,8.3625 l 0,9.45 c 3.9999999,0 31.4375,0 35.4375,0 l 0,-9.45 C 41.4375,7.3910714 40.046429,6 39.075,6 z" fill-opacity="0.196"/>
  <path d="m 20.175,10.725 0,14.175 7.0875,0 0,-14.175 z" fill-opacity="0.392"/>
 </g>
 <path d="M 6.0000002,10 16,10 l 0,3 -9.9999998,0 z" fill="#dc322f"/>
</svg>
