<svg xmlns="http://www.w3.org/2000/svg" viewBox="0 0 16 16">
 <g transform="matrix(.42328 0 0 .42328 -2.53968 7.61905)">
  <path d="m 8.363 -18 c -1.029 0 -2.363 1.334 -2.363 2.363 l 0 30.713 c 0 0.971 1.391 2.363 2.363 2.363 l 30.713 0 c 0.971 0 2.362 -1.391 2.362 -2.363 l 0 -30.713 c 0 -0.971 -1.391 -2.363 -2.362 -2.363 z" style="fill:#c19553"/>
 </g>
 <g transform="matrix(.42328 0 0 .42328 -2.53968 -2.53968)" style="fill:#fff">
  <path d="m 8.363 6 c -1.029 0 -2.363 1.334 -2.363 2.363 l 0 9.45 c 4 0 31.438 0 35.438 0 l 0 -9.45 c 0 -0.971 -1.391 -2.363 -2.362 -2.363 z" style="fill-opacity:0.196"/>
  <path d="m 20.18 10.725 0 14.175 7.088 0 0 -14.175 z" style="fill-opacity:0.392"/>
 </g>
 <g transform="matrix(0.5,0,0,0.5,8.5,8)">
  <path d="m 8 0 c 0 0 5 0.009 5.01 3.547 l 0 3.055 c 0 0 1.995 0 1.995 0.803 l 0 7.323 c 0 0.673 -0.715 1.273 -1.5 1.273 l -11 0 c -0.785 0 -1.5 -0.6 -1.5 -1.273 l 0 -7.323 c 0 -0.803 2.02 -0.809 2.02 -0.809 l -0.063 -3.049 c 0.041 -3.542 5.04 -3.547 5.04 -3.547 m 0 1.776 c 0 0 -3 0 -3 2.657 l 0 2.169 6 0 0 -2.169 c 0 -2.657 -3 -2.657 -3 -2.657" style="fill:#859900;color:#000"/>
  <path d="m 8 9 c -1.105 0 -2 0.895 -2 2 0 0.74 0.403 1.373 1 1.719 l 0 2.281 2 0 0 -2.281 c 0.597 -0.346 1 -0.979 1 -1.719 0 -1.105 -0.895 -2 -2 -2" style="fill-opacity:0.1;fill-rule:evenodd"/>
 </g>
</svg>
