<svg xmlns="http://www.w3.org/2000/svg" viewBox="0 0 16 16">
 <g transform="matrix(.42328 0 0 .42328 -2.53968 7.61905)">
  <path d="m 8.363 -18 c -1.029 0 -2.363 1.334 -2.363 2.363 l 0 30.713 c 0 0.971 1.391 2.363 2.363 2.363 l 30.713 0 c 0.971 0 2.362 -1.391 2.362 -2.363 l 0 -30.713 c 0 -0.971 -1.391 -2.363 -2.362 -2.363 z" style="fill:#c19553"/>
 </g>
 <g transform="matrix(.42328 0 0 .42328 -2.53968 -2.53968)" style="fill:#fff">
  <path d="m 8.363 6 c -1.029 0 -2.363 1.334 -2.363 2.363 l 0 9.45 c 4 0 31.438 0 35.438 0 l 0 -9.45 c 0 -0.971 -1.391 -2.363 -2.362 -2.363 z" style="fill-opacity:0.196"/>
  <path d="m 20.18 10.725 0 14.175 7.088 0 0 -14.175 z" style="fill-opacity:0.392"/>
 </g>
 <path d="m 16 12 a 4 4 0 0 1 -8 0 4 4 0 1 1 8 0 z" style="fill:#859900;fill-rule:evenodd"/>
 <g transform="matrix(0.01700638,0,0,0.01603182,7.9597433,8.2432822)" style="fill:#fff;fill-opacity:0.9">
  <path d="m 383.43 172.5 c -25.336 -58.24 -81.998 -95.65 -145.86 -95.65 c -65.31 0 -125 40.928 -148.51 101.83 l 49.5 19.12 c 15.672 -40.617 55.47 -67.894 99.01 -67.894 42.02 0 79.2 24.386 96.41 62.33 l -36.12 14.428 92.35 53.28 27.01 -100.93 -33.792 13.492 z"/>
  <path d="m 237.57 342.1 c -41.639 0 -79.61 -25.12 -96.59 -62.819 l 35.604 -13.763 -91.39 -52.12 -27.975 98.25 34.08 -13.172 c 24.852 58.02 82.86 96.67 146.27 96.67 65.55 0 123.6 -39.34 147.87 -100.2 l -49.27 -19.652 c -16.195 40.577 -54.888 66.801 -98.6 66.801 z"/>
 </g>
</svg>
