<svg xmlns="http://www.w3.org/2000/svg" viewBox="0 0 16 16">
 <g transform="matrix(.42328 0 0 .42328 -2.53968 7.61905)">
  <path d="m 8.363 -18 c -1.029 0 -2.363 1.334 -2.363 2.363 l 0 30.713 c 0 0.971 1.391 2.363 2.363 2.363 l 30.713 0 c 0.971 0 2.362 -1.391 2.362 -2.363 l 0 -30.713 c 0 -0.971 -1.391 -2.363 -2.362 -2.363 z" style="fill:#c19553"/>
 </g>
 <g transform="matrix(.42328 0 0 .42328 -2.53968 -2.53968)" style="fill:#fff">
  <path d="m 8.363 6 c -1.029 0 -2.363 1.334 -2.363 2.363 l 0 9.45 c 4 0 31.438 0 35.438 0 l 0 -9.45 c 0 -0.971 -1.391 -2.363 -2.362 -2.363 z" style="fill-opacity:0.196"/>
  <path d="m 20.18 10.725 0 14.175 7.088 0 0 -14.175 z" style="fill-opacity:0.392"/>
 </g>
 <path d="m 16 12 c 0 2.209 -1.791 4 -4 4 -2.209 0 -4 -1.791 -4 -4 0 -2.209 1.791 -4 4 -4 2.209 0 4 1.791 4 4 z" style="fill:#dc322f;fill-opacity:1;fill-rule:evenodd"/>
 <path d="m 11 9 2 0 l 0 3 -2 0 0 -3" style="fill:#fff;fill-opacity:0.902"/>
 <path d="m 11 14 c 0 -0.551 0.449 -1 1 -1 0.551 0 1 0.449 1 1 0 0.551 -0.449 1 -1 1 -0.551 0 -1 -0.449 -1 -1 z" style="fill:#fff;fill-opacity:0.902;fill-rule:evenodd"/>
</svg>
