<svg xmlns="http://www.w3.org/2000/svg" viewBox="0 0 16 16">
 <rect x="1.5" y="1.5" style="stroke-opacity:1;fill:#268bd2;opacity:1;fill-opacity:1;stroke:#313131;fill-rule:nonzero;stroke-width:1" height="13" width="13" rx="1"/>
 <rect height="2.828" width="2.828" style="fill:#fff;opacity:1;fill-opacity:1;stroke:none;fill-rule:nonzero" x="-1.414" y="4.243" transform="matrix(0.70711 -0.70711 0.70711 0.70711 0 0)"/>
 <rect height="2.828" width="2.828" style="fill:#fff;opacity:1;fill-opacity:1;stroke:none;fill-rule:nonzero" x="1.414" y="7.07" transform="matrix(0.70711 -0.70711 0.70711 0.70711 0 0)"/>
 <rect height="2.828" width="2.828" style="fill:#fff;opacity:1;fill-opacity:1;stroke:none;fill-rule:nonzero" x="4.243" y="9.899" transform="matrix(0.70711 -0.70711 0.70711 0.70711 0 0)"/>
 <rect height="2.828" width="2.828" style="fill:#fff;opacity:1;fill-opacity:1;stroke:none;fill-rule:nonzero" x="1.414" y="12.728" transform="matrix(0.70711 -0.70711 0.70711 0.70711 0 0)"/>
 <rect height="2.828" width="2.828" style="fill:#fff;opacity:1;fill-opacity:1;stroke:none;fill-rule:nonzero" x="-1.414" y="9.899" transform="matrix(0.70711 -0.70711 0.70711 0.70711 0 0)"/>
 <rect height="2.828" width="2.828" style="fill:#fff;opacity:1;fill-opacity:1;stroke:none;fill-rule:nonzero" x="-4.243" y="7.07" transform="matrix(0.70711 -0.70711 0.70711 0.70711 0 0)"/>
 <rect height="2.828" width="2.828" style="fill:#fff;opacity:1;fill-opacity:1;stroke:none;fill-rule:nonzero" x="-7.07" y="9.9" transform="matrix(0.70711 -0.70711 0.70711 0.70711 0 0)"/>
 <rect height="2.828" width="2.828" style="fill:#fff;opacity:1;fill-opacity:1;stroke:none;fill-rule:nonzero" x="-4.243" y="12.728" transform="matrix(0.70711 -0.70711 0.70711 0.70711 0 0)"/>
 <rect height="2.828" width="2.828" style="fill:#fff;opacity:1;fill-opacity:1;stroke:none;fill-rule:nonzero" x="-1.414" y="15.556" transform="matrix(0.70711 -0.70711 0.70711 0.70711 0 0)"/>
</svg>
