<svg xmlns="http://www.w3.org/2000/svg" viewBox="0 0 16 16">
 <path d="m 2 10.8 3.2 0 0 3.2 -3.2 0 z" style="fill:#34d046;fill-opacity:1;color:#000"/>
 <path d="m 2 7.8 3.2 0 0 3.2 -3.2 0 z" style="fill:#dc322f;fill-opacity:1;color:#000"/>
 <path d="M 2,4.8 5.2,4.8 5.2,8 2,8 Z" style="fill:#268bd2;fill-opacity:1;color:#000"/>
 <path d="M 2,2 5.2,2 5.2,5 2,5 Z" style="fill:#ffe546;fill-opacity:1;color:#000"/>
 <path d="m 5 10.8 3.2 0 0 3.2 -3.2 0 z" style="fill:#f27d0c;fill-opacity:1;color:#000"/>
 <path d="m 5 7.8 3.2 0 0 3.2 -3.2 0 z" style="fill:#268bd2;fill-opacity:1;color:#000"/>
 <path d="M 5,4.8 8.2,4.8 8.2,8 5,8 Z" style="fill:#f27d0c;fill-opacity:1;color:#000"/>
 <path d="m 8 10.8 3.2 0 0 3.2 -3.2 0 z" style="fill:#dc322f;fill-opacity:1;color:#000"/>
 <path d="m 11 10.8 3 0 0 3.2 -3 0 z" style="fill:#268bd2;fill-opacity:1;color:#000"/>
 <path d="m 8 7.8 3.2 0 0 3.2 -3.2 0 z" style="fill:#ffe546;fill-opacity:1;color:#000"/>
 <path d="m 11 7.8 3 0 0 3.2 -3 0 z" style="fill:#f27d0c;fill-opacity:1;color:#000"/>
 <path d="M 5,2 8.2,2 8.2,5 5,5 Z" style="fill:#dc322f;fill-opacity:1;color:#000"/>
 <path d="m 8,4.8 3.2,0 0,3.2 L 8,8 Z" style="fill:#34d046;fill-opacity:1;color:#000"/>
 <path d="m 11 4.8 3 0 0 3.2 -3 0 z" style="fill:#dc322f;fill-opacity:1;color:#000"/>
 <path d="m 8,2 3.2,0 0,3 L 8,5 Z" style="fill:#268bd2;fill-opacity:1;color:#000"/>
 <path d="m 11 2 3 0 0 3 -3 0 z" style="fill:#ffe546;fill-opacity:1;color:#000"/>
</svg>
