<svg xmlns="http://www.w3.org/2000/svg" viewBox="0 0 16 16">
 <path d="m 1 6 0 4 12 0 0 -4 z" style="fill:#512da8;fill-opacity:1;stroke:none"/>
 <path d="m 3 6 c 0 -0.5 0 -1 0.727 -1 l 2.545 0 c 0.727 0 0.727 0.5 0.727 1 z" style="fill:#512da8;fill-opacity:1;stroke:none"/>
 <rect width="10" height="3.636" x="2" y="7" style="fill:#d8d8da;fill-opacity:1;stroke:none;fill-rule:evenodd"/>
 <path d="m 0 8 14 0 -1 8 -12 0 z" style="fill:#7e57c2;fill-opacity:1;stroke:none"/>
 <path d="m 3.719 5 c -0.727 0 -0.719 0.5 -0.719 1 l -2 0 l 0 2 l -1 0 l 1 8 l 12 0 l 1 -8 l -1 0 l 0 -2 l -6 0 c 0 -0.5 0.009 -1 -0.719 -1 l -2.563 0 z" style="fill:#000;fill-opacity:0.102;stroke:none"/>
 <path d="m 3 2 0 4 12 0 0 -4 z" style="fill:#512da8;fill-opacity:1;stroke:none"/>
 <path d="m 5 2 c 0 -0.5 0 -1 0.727 -1 l 2.545 0 c 0.727 0 0.727 0.5 0.727 1 z" style="fill:#512da8;fill-opacity:1;stroke:none"/>
 <rect width="10" height="3.636" x="4" y="3" style="fill:#d8d8da;fill-opacity:1;stroke:none;fill-rule:evenodd"/>
 <path d="m 2 4 14 0 -1 8 -12 0 z" style="fill:#7e57c2;fill-opacity:1;stroke:none"/>
 <path d="m 16 10 -3 0 0 -3 -3 0 0 3 -3 0 0 3 3 0 0 3 3 0 0 -3 3 0 z" style="fill:#859900"/>
</svg>
