<svg xmlns="http://www.w3.org/2000/svg" viewBox="0 0 16 16">
 <path d="M 1.5 6 C 1.223 6 1 6.223 1 6.5 L 1 14.5 C 1 14.777 1.223 15 1.5 15 L 11.5 15 C 11.777 15 12 14.777 12 14.5 L 12 10.576172 A 5 5 0 0 1 5 6 L 1.5 6 z " style="fill:#2aa198;fill-opacity:1;stroke:none;display:inline;color:#000"/>
 <path d="m 10.146 1 c -2.818 -0.082 -5.147 2.181 -5.146 5 l 6.5 0 c 0.277 0 0.5 0.223 0.5 0.5 l 0 4.076 c 1.82 -0.794 2.997 -2.59 3 -4.576 0.001 -2.705 -2.15 -4.921 -4.854 -5" style="fill:#df4441;fill-opacity:1;stroke:none;display:inline;color:#000"/>
</svg>
