<svg xmlns="http://www.w3.org/2000/svg" viewBox="0 0 16 16">
 <g transform="matrix(1.25,0,0,-1.25,0,16)">
  <path d="m 4.8 4 3.2 0 0 -3.2 -3.2 0 0 3.2" style="fill:#2d2d2d;fill-opacity:1;stroke:none;fill-rule:nonzero"/>
  <path d="m 6.397 12.8 c -2.649 0 -4.797 -2.148 -4.797 -4.8 0 -2.647 2.149 -4.8 4.797 -4.8 2.654 0 4.803 2.153 4.803 4.8 c 0 2.652 -2.149 4.8 -4.803 4.8 z m 0 -2.718 c 1.149 0 2.083 -0.933 2.083 -2.082 0 -1.148 -0.933 -2.078 -2.083 -2.078 -1.148 0 -2.079 0.93 -2.079 2.078 0 1.149 0.93 2.082 2.079 2.082 z" style="fill:#888;fill-opacity:1;stroke:none;fill-rule:nonzero"/>
  <path d="m 3.29 1.279 c 0.09 0.428 6.13 0.428 6.22 0 c 0.09 -0.428 0.09 -1.279 0.09 -1.279 l -6.4 0 c 0 0 0 0.85 0.09 1.279 z" style="fill:#888;fill-opacity:1;stroke:none;fill-rule:nonzero"/>
  <path d="m 6.398 10.4 c -1.324 0 -2.398 -1.075 -2.398 -2.402 0 -1.324 1.074 -2.398 2.398 -2.398 1.329 0 2.402 1.074 2.402 2.398 0 1.328 -1.074 2.402 -2.402 2.402 m 0 -0.801 c 0.887 0 1.602 -0.719 1.602 -1.602 0 -0.883 -0.715 -1.597 -1.602 -1.597 -0.882 0 -1.597 0.714 -1.597 1.597 0 0.883 0.715 1.602 1.597 1.602 z" style="fill:#2d2d2d;fill-opacity:1;stroke:none;fill-rule:nonzero"/>
 </g>
</svg>
