<svg xmlns="http://www.w3.org/2000/svg" viewBox="0 0 16 16">
 <path d="m 13 3 c 1 0 1 0 1 1 l 0 10 c 0 1 0 1 -1 1 l -10 0 c -1 0 -1 0 -1 -1 l 0 -10 c 0 -1 0 -1 1 -1" style="fill:#e6b07f;fill-opacity:1;stroke:none;fill-rule:evenodd"/>
 <path d="m 12 3 -8 0 0 10 l 8 0" style="fill:#fff;fill-opacity:1;stroke:none;fill-rule:nonzero"/>
 <path d="m 5 1 0 3 l 6 0 0 -3" style="fill:#aaa;fill-opacity:1;stroke:none;fill-rule:nonzero"/>
 <path d="m 6.5 6 3 0 c 1.5 0 1.5 0 1.5 1.5 l 0 2 c 0 1.5 0 1.5 -1.5 1.5 -0.562 0 0.081 -0.005 -0.481 -0.005 c 0.188 0.161 0.363 0.397 0.265 0.657 -0.104 0.377 -0.649 0.471 -0.882 0.162 c -0.435 -0.439 -0.677 -0.869 -1.101 -1.32 0.449 -0.475 0.714 -0.932 1.177 -1.394 c 0.304 -0.281 0.867 -0.029 0.843 0.39 0.01 0.218 -0.16 0.365 -0.301 0.504 0.628 -0.006 -0.146 0.027 0.481 0.005 0.5 0 0.5 0 0.5 -0.5 l 0 -2 c 0 -0.5 0 -0.5 -0.5 -0.5 l -3 0 c -0.5 0 -0.5 0 -0.5 0.5 l 0 2 c 0 0.5 0 0.5 0.5 0.5 l 0 0 c 0.5 0 0.5 0 0.5 0.5 0 0.5 0 0.5 -0.5 0.5 l 0 0 c -1.5 0 -1.5 0 -1.5 -1.5 l 0 -2 c 0 -1.5 0 -1.5 1.5 -1.5" style="fill:#868686;fill-opacity:1;color:#bebebe"/>
</svg>
