<svg viewBox="0 0 16 16" xmlns="http://www.w3.org/2000/svg">
 <path d="m 8 1 c -1.036 0 -2.072 0.267 -3 0.803 -1.856 1.071 -3 3.054 -3 5.197 l 0 0.5 0 7.5 1 0 0 -7.5 0 -0.5 c 0 -1.787 0.952 -3.437 2.5 -4.33 c 1.548 -0.894 3.452 -0.894 5 0 c 1.548 0.894 2.5 2.543 2.5 4.33 l 0 0.5 0 7.5 1 0 l 0 -7.5 0 -0.5 c 0 -2.143 -1.144 -4.126 -3 -5.197 -0.928 -0.536 -1.964 -0.803 -3 -0.803 z" style="fill:#dc322f;fill-opacity:1;stroke:none;color:#f2f2f2"/>
 <path d="M 8,16 8,7" style="stroke-dasharray:2 2;stroke-opacity:1;fill:none;stroke-miterlimit:4;stroke:#353535;stroke-linecap:butt;stroke-linejoin:miter;stroke-width:2;stroke-dashoffset:0"/>
</svg>
