<svg xmlns="http://www.w3.org/2000/svg" viewBox="0 0 16 16">
 <path d="m 1.802 1 c -0.401 0 -0.802 0.401 -0.802 0.802 l 0 12.419 c 0 0.378 0.401 0.779 0.779 0.779 l 12.441 0 c 0.378 0 0.779 -0.401 0.779 -0.779 l 0 -12.441 c 0 -0.378 -0.401 -0.779 -0.779 -0.779 z" style="fill:#c19553"/>
 <path d="m 1.802 1 c -0.401 0 -0.802 0.401 -0.802 0.802 l 0 4.198 c 1.554 0 12.446 0 14 0 l 0 -4.221 c 0 -0.378 -0.401 -0.779 -0.779 -0.779 z" style="fill:#fff;fill-opacity:0.196"/>
 <path d="m 7,1 0,1 1,0 0,1 -1,0 0,1 1,0 0,1 -1,0 0,1 1,0.01 0,2 L 7,8 l 0,2 2,0 0,-2 -1,0.01 L 8,7 9,7 9,6 8,6.0099971 8,5 9,5 9,4 8,4 8,3 9,3 9,2 8,2 8,1 z" style="fill:#fff"/>
 <path d="m 16 10 -3 0 0 -3 -3 0 0 3 -3 0 l 0 3 l 3 0 0 3 3 0 0 -3 3 0 z" style="fill:#859900"/>
</svg>
