<svg width="16" xmlns="http://www.w3.org/2000/svg" viewBox="0 0 16 16" height="16">
<path style="fill:#dc322f" d="M 11,0 C 10.693941,0 10.403541,0.130465 10.1875,0.34375 L 6.34375,4.0625 c -0.4500871,0.438255 -0.4500871,1.155495 0,1.59375 0.4500856,0.438258 1.1749139,0.438258 1.625,0 L 10,3.6875 10,10 l 0,6 2,0 0,-6 0,-6.3125 2.03125,1.96875 c 0.330064,0.33308 0.843165,0.431146 1.28125,0.25 C 15.750584,5.725104 16.015,5.308302 16,4.84375 15.991,4.5515792 15.869291,4.264097 15.65625,4.0625 L 11.8125,0.34375 C 11.596459,0.130465 11.306059,0 11,0 z"/>
<g style="fill:#268bd2;fill-rule:evenodd" transform="translate(0 1)">
<path d="M 6,2.5 C 6,3.8807119 4.8807119,5 3.5,5 2.1192881,5 1,3.8807119 1,2.5 1,1.1192881 2.1192881,0 3.5,0 4.8807119,0 6,1.1192881 6,2.5 z" transform="matrix(.8 0 0 .8 -.8 1)"/>
<path d="M 6,2.5 C 6,3.8807119 4.8807119,5 3.5,5 2.1192881,5 1,3.8807119 1,2.5 1,1.1192881 2.1192881,0 3.5,0 4.8807119,0 6,1.1192881 6,2.5 z" transform="matrix(.8 0 0 .8 -.8 6)"/>
<path d="M 6,2.5 C 6,3.8807119 4.8807119,5 3.5,5 2.1192881,5 1,3.8807119 1,2.5 1,1.1192881 2.1192881,0 3.5,0 4.8807119,0 6,1.1192881 6,2.5 z" transform="matrix(.8 0 0 .8 -.8 11)"/>
</g>
</svg>
