
<!-- Generator: Adobe Illustrator 16.0.0, SVG Export Plug-In . SVG Version: 6.00 Build 0)  -->
<svg xmlns="http://www.w3.org/2000/svg" viewBox="0 0 16.000001 16.000001">
 <rect width="2" style="fill:#76b7ca;opacity:1;fill-opacity:1;stroke:none;fill-rule:nonzero" rx="0.5" height="16" x="7"/>
 <g transform="matrix(0.5 0 0 0.5 -4 -2.433)">
  <rect width="3" transform="matrix(0.5 0.86603 -0.86603 0.5 0 0)" style="fill:#76b7ca;opacity:1;fill-opacity:1;stroke:none;fill-rule:nonzero" rx="1" y="-22.797" x="19.879" height="7"/>
  <rect width="3" transform="matrix(-0.5 0.86603 0.86603 0.5 0 0)" style="fill:#76b7ca;opacity:1;fill-opacity:1;stroke:none;fill-rule:nonzero" rx="1" y="18.772" height="7" x="-4.121"/>
 </g>
 <g transform="matrix(0.5 0 0 -0.5 -4 18.433)">
  <rect width="3" transform="matrix(0.5 0.86603 -0.86603 0.5 0 0)" style="fill:#76b7ca;opacity:1;fill-opacity:1;stroke:none;fill-rule:nonzero" rx="1" y="-22.797" height="7" x="19.879"/>
  <rect width="3" transform="matrix(-0.5 0.86603 0.86603 0.5 0 0)" style="fill:#76b7ca;opacity:1;fill-opacity:1;stroke:none;fill-rule:nonzero" rx="1" y="18.772" x="-4.121" height="7"/>
 </g>
 <rect width="2" transform="matrix(0.5 0.86603 -0.86603 0.5 0 0)" style="fill:#76b7ca;opacity:1;fill-opacity:1;stroke:none;fill-rule:nonzero" rx="0.5" y="-10.928" x="9.928" height="16"/>
 <g transform="matrix(0.25 0.43301 -0.43301 0.25 11.04 -7.609)">
  <rect width="3" transform="matrix(0.5 0.86603 -0.86603 0.5 0 0)" style="fill:#76b7ca;opacity:1;fill-opacity:1;stroke:none;fill-rule:nonzero" rx="1" y="-22.797" height="7" x="19.879"/>
  <rect width="3" transform="matrix(-0.5 0.86603 0.86603 0.5 0 0)" style="fill:#76b7ca;opacity:1;fill-opacity:1;stroke:none;fill-rule:nonzero" rx="1" y="18.772" x="-4.121" height="7"/>
 </g>
 <g transform="matrix(0.25 0.43301 0.43301 -0.25 -7.04 2.824)">
  <rect width="3" transform="matrix(0.5 0.86603 -0.86603 0.5 0 0)" style="fill:#76b7ca;opacity:1;fill-opacity:1;stroke:none;fill-rule:nonzero" rx="1" y="-22.797" x="19.879" height="7"/>
  <rect width="3" transform="matrix(-0.5 0.86603 0.86603 0.5 0 0)" style="fill:#76b7ca;opacity:1;fill-opacity:1;stroke:none;fill-rule:nonzero" rx="1" y="18.772" height="7" x="-4.121"/>
 </g>
 <rect width="2" transform="matrix(-0.5 0.86603 -0.86603 -0.5 0 0)" style="fill:#76b7ca;opacity:1;fill-opacity:1;stroke:none;fill-rule:nonzero" rx="0.5" y="-18.928" height="16" x="1.928"/>
 <g transform="matrix(-0.25 0.43301 -0.43301 -0.25 23.04 2.824)">
  <rect width="3" transform="matrix(0.5 0.86603 -0.86603 0.5 0 0)" style="fill:#76b7ca;opacity:1;fill-opacity:1;stroke:none;fill-rule:nonzero" rx="1" y="-22.797" x="19.879" height="7"/>
  <rect width="3" transform="matrix(-0.5 0.86603 0.86603 0.5 0 0)" style="fill:#76b7ca;opacity:1;fill-opacity:1;stroke:none;fill-rule:nonzero" rx="1" y="18.772" height="7" x="-4.121"/>
 </g>
 <g transform="matrix(-0.25 0.43301 0.43301 0.25 4.965 -7.609)">
  <rect width="3" transform="matrix(0.5 0.86603 -0.86603 0.5 0 0)" style="fill:#76b7ca;opacity:1;fill-opacity:1;stroke:none;fill-rule:nonzero" rx="1" y="-22.797" height="7" x="19.879"/>
  <rect width="3" transform="matrix(-0.5 0.86603 0.86603 0.5 0 0)" style="fill:#76b7ca;opacity:1;fill-opacity:1;stroke:none;fill-rule:nonzero" rx="1" y="18.772" x="-4.121" height="7"/>
 </g>
</svg>
