<svg xmlns="http://www.w3.org/2000/svg" viewBox="0 0 32 32">
 <g transform="translate(0,-16)">
  <path d="m 28.569 19.431 c -0.841 -0.841 -3.111 0 -5.353 2.241 l -3.294 3.294 -14.161 -2.988 c -1.019 -0.192 -1.312 -0.198 -1.826 0.307 -1.205 1.205 -1.206 1.206 0.777 2.355 l 10.292 5.244 -5.667 5.667 -4.477 -0.859 c -0.524 -0.11 -0.515 -0.149 -0.843 0.179 l -0.325 0.325 c -0.495 0.495 0.248 1.081 0.248 1.081 l 4.61 3.172 3.172 4.61 c 0 0 0.586 0.743 1.081 0.248 l 0.325 -0.325 c 0.328 -0.328 0.289 -0.319 0.179 -0.843 l -0.859 -4.477 5.667 -5.667 5.244 10.292 c 1.149 1.983 1.149 1.982 2.355 0.777 0.505 -0.514 0.499 -0.807 0.307 -1.826 l -2.988 -14.161 3.294 -3.294 c 2.241 -2.241 3.083 -4.511 2.241 -5.353 z" style="fill:#71a6ce;fill-opacity:1;stroke:none"/>
 </g>
</svg>
