<svg xmlns="http://www.w3.org/2000/svg" viewBox="0 0 32 32">
 <path d="m 10 5 l -5 6 l 10 0 l 0 -6 l -5 0 z m 7 0 l 0 6 l 10 0 l -5 -6 l -5 0 z m -12 8 l 0 14 l 14.05 0 l 1.242 -1.242 l -2.121 -2.123 l 4.949 -4.947 l 2.121 2.121 l 0.707 -0.707 l 1.051 -1.053 l 0 -6.05 l -22 0 z" style="fill:#c28e5c"/>
 <path d="m 27.364 21.515 -2.121 2.121 -2.121 -2.121 l -2.122 2.121 2.121 2.121 -2.121 2.121 2.121 2.121 l 2.121 -2.121 2.121 2.121 2.122 -2.121 -2.121 -2.121 2.121 -2.121 z" style="fill:#ee545b;fill-opacity:1"/>
</svg>
