<svg xmlns="http://www.w3.org/2000/svg" viewBox="0 0 32 32">
 <g transform="translate(0,-96)">
  <path d="m 17.217 102.5 c -0.823 0.002 -1.737 0.068 -2.742 0.198 -1.133 0.147 -2.392 0.371 -3.777 0.672 -1.238 0.285 -2.413 0.599 -3.525 0.941 -1.091 0.334 -2.13 0.709 -3.116 1.124 -1.972 0.815 -2.99 1.483 -3.053 2 -0.063 0.538 0.409 0.843 1.416 0.916 0.525 0.041 1.154 0.018 1.888 -0.073 0.252 -0.024 1.567 -0.196 1.567 -0.237 0 -0.049 0 0 -0.95 -0.363 -0.339 -0.129 -0.404 -0.123 -0.596 -0.21 -0.102 -0.046 -0.234 -0.069 -0.291 -0.166 -0.028 -0.047 -0.068 -0.099 -0.005 -0.165 0.48 -0.497 3.482 -1.496 4.145 -1.688 1.112 -0.326 1.153 -0.323 2.475 -0.625 2.623 -0.57 4.03 -0.924 5.482 -0.892 1.532 0.049 1.96 0.041 1.96 0.717 -0.047 0.335 -0.202 0.489 -0.361 0.701 -0.902 1.108 -3.219 2.418 -8.317 5.677 -0.042 0.041 -0.084 0.078 -0.126 0.11 -0.021 0.024 -0.032 0.049 -0.031 0.073 0 0.09 2.645 0.622 2.918 0.622 0.294 0 0.556 -0.065 0.787 -0.195 0.315 -0.204 0.755 -0.456 1.322 -0.758 0.587 -0.301 0.905 -0.491 1.765 -0.915 1.028 -0.505 2.056 -0.977 3.084 -1.417 1.028 -0.44 2.077 -0.859 3.147 -1.258 2.644 -0.953 2.93 -1.018 4.105 -1.269 0.586 -0.125 0.638 -0.134 0.953 -0.134 0.483 0 0.65 0.007 0.724 0.257 0.055 0.186 -0.115 0.293 -0.346 0.464 0 0 -2.536 1.633 -3.74 2.543 -0.478 0.362 -0.934 0.755 -1.38 1.156 -0.531 0.478 -1.04 0.981 -1.542 1.491 -0.537 0.545 -1.049 1.104 -1.574 1.674 -0.525 0.578 -0.997 1.116 -1.416 1.613 -0.42 0.505 -0.766 0.941 -1.039 1.307 -0.238 0.354 -0.373 0.599 -0.405 0.735 -1.121 0.555 -3.35 1.497 -5.72 4.371 3.998 -1.847 4.122 -2.141 6.293 -3.143 0.345 0.314 0.343 0.313 0.345 0.314 0.34 0.258 0.762 0.261 1.157 0.259 0.862 -0.006 1.406 -0.257 2.518 -0.599 0.99 -0.314 2.01 -0.712 3.291 -1.394 8.873 -4.727 0.889 -3.685 -6.02 -0.26 0.012 -0.125 0.069 -0.28 0.173 -0.465 0.231 -0.367 0.566 -0.802 1.01 -1.307 0.462 -0.505 0.997 -1.051 1.605 -1.637 0.629 -0.578 1.251 -1.141 1.888 -1.698 0.591 -0.517 1.182 -1.035 1.794 -1.527 0.472 -0.38 0.96 -0.74 1.448 -1.1 0.737 -0.544 1.481 -1.076 2.234 -1.601 0.757 -0.527 1.707 -0.867 2.266 -1.613 0.057 -0.076 0.087 -0.174 0.094 -0.269 0.008 -0.112 -0.007 -0.233 -0.063 -0.33 -0.111 -0.192 -0.312 -0.323 -0.504 -0.431 -0.203 -0.114 -0.433 -0.177 -0.661 -0.217 -0.248 -0.044 -0.462 -0.049 -0.755 -0.025 -1.846 0.114 -4.469 0.819 -7.868 2.114 -1.259 0.472 -2.413 0.929 -3.462 1.368 -1.028 0.44 -1.972 0.872 -2.832 1.295 -0.189 0.13 -0.357 0.195 -0.504 0.195 -0.084 0 -0.126 -0.018 -0.126 -0.049 0 -0.057 0.073 -0.13 0.22 -0.22 1.678 -1.091 2.99 -2.01 3.934 -2.761 0.965 -0.758 1.595 -1.356 1.888 -1.796 0.105 -0.187 0.157 -0.375 0.157 -0.562 0 -0.432 -0.241 -0.778 -0.724 -1.039 -0.525 -0.318 -1.248 -0.485 -2.172 -0.501 -0.102 -0.002 -0.206 -0.002 -0.311 -0.002 z m 8.389 12.357 c 0.486 0.004 0.089 0.629 -1.922 1.457 -1.456 0.6 -3.09 1.25 -4.645 1.278 -0.271 0 -0.433 -0.08 -0.485 -0.239 3.426 -1.529 6.323 -2.504 7.05 -2.496 z" style="fill:#3370d0;fill-opacity:1;stroke:none;fill-rule:evenodd"/>
 </g>
</svg>
