<svg xmlns="http://www.w3.org/2000/svg" width="32" height="32" viewBox="0 0 24 24">
 <g>
  <path d="m 7.102 6 c -0.156 0 -0.32 0.008 -0.492 0.031 c -2.691 0.344 -2.609 2.656 -2.609 2.656 c -1.102 0.188 -2 1.148 -2 2.156 c 0 1 1.148 1.895 2.113 2.156 c 0.574 0.152 1.328 0 1.328 0 c 0.34 0.602 1.465 1 2.246 1 c 1.281 0 2.594 -0.422 2.898 -1 c 0 0 5.289 0.422 6.391 0 c 1.602 -0.617 1.102 -2.547 0.035 -3.195 c -1.066 -0.652 -2.457 -0.195 -2.457 -0.195 c 0 0 -0.004 -1.328 -1.508 -1.961 c -1.508 -0.633 -2.773 0.77 -2.773 0.77 c 0 0 -0.844 -2.402 -3.172 -2.418 m 0 0" style="fill:#d7d7d7;fill-opacity:1;stroke:none;fill-rule:nonzero"/>
  <path d="m 12.461 11 c -0.133 0 -0.281 0.008 -0.426 0.023 c -2.355 0.305 -2.285 2.328 -2.285 2.328 c -0.965 0.164 -1.75 1 -1.75 1.883 c 0 0.883 1.01 1.664 1.852 1.891 c 0.5 0.133 1.156 0 1.156 0 c 0.301 0.523 1.285 0.875 1.969 0.875 c 1.121 0 2.27 -0.371 2.535 -0.875 c 0 0 4.629 0.367 5.59 0 c 1.402 -0.539 0.965 -2.227 0.031 -2.797 c -0.93 -0.57 -2.148 -0.172 -2.148 -0.172 c 0 0 0 -1.16 -1.32 -1.715 c -1.316 -0.555 -2.426 0.676 -2.426 0.676 c 0 0 -0.738 -2.105 -2.777 -2.117 m 0 0" style="fill:#ececec;fill-opacity:1;stroke:none;fill-rule:nonzero"/>
 </g>
</svg>
