<svg xmlns="http://www.w3.org/2000/svg" width="32" height="32" viewBox="0 0 24 24">
 <path d="m 19.5 12 c 0 4.141 -3.359 7.5 -7.5 7.5 -4.141 0 -7.5 -3.359 -7.5 -7.5 0 -4.141 3.359 -7.5 7.5 -7.5 4.141 0 7.5 3.359 7.5 7.5 z m 0 0" style="fill:#dedc3f;fill-opacity:1;stroke:none;fill-rule:nonzero"/>
 <g>
  <path d="m 12 1.5 0.75 2.25 -1.5 0 z" style="fill:#dedc3f;fill-opacity:1;stroke:none;fill-rule:nonzero"/>
  <path d="m 12 22.5 -0.75 -2.25 1.5 0 z" style="fill:#dedc3f;fill-opacity:1;stroke:none;fill-rule:nonzero"/>
 </g>
 <g transform="matrix(0,1,-1,0,23.999999,-5e-7)">
  <path d="m 12 1.5 0.75 2.25 -1.5 0 z" style="fill:#dedc3f;fill-opacity:1;stroke:none;fill-rule:nonzero"/>
  <path d="m 12 22.5 -0.75 -2.25 1.5 0 z" style="fill:#dedc3f;fill-opacity:1;stroke:none;fill-rule:nonzero"/>
 </g>
 <g transform="matrix(-0.70710678,0.70710678,-0.70710678,-0.70710678,28.970562,11.999999)">
  <path d="m 12 1.5 0.75 2.25 -1.5 0 z" style="fill:#dedc3f;fill-opacity:1;stroke:none;fill-rule:nonzero"/>
  <path d="m 12 22.5 -0.75 -2.25 1.5 0 z" style="fill:#dedc3f;fill-opacity:1;stroke:none;fill-rule:nonzero"/>
 </g>
 <g transform="matrix(0.70710678,0.70710678,-0.70710678,0.70710678,11.999999,-4.970563)">
  <path d="m 12 1.5 0.75 2.25 -1.5 0 z" style="fill:#dedc3f;fill-opacity:1;stroke:none;fill-rule:nonzero"/>
  <path d="m 12 22.5 -0.75 -2.25 1.5 0 z" style="fill:#dedc3f;fill-opacity:1;stroke:none;fill-rule:nonzero"/>
 </g>
 <path d="m 11.602 12.5 c -0.156 0 -0.32 0.008 -0.492 0.027 c -2.691 0.348 -2.609 2.66 -2.609 2.66 c -1.102 0.188 -2 1.148 -2 2.156 0 1 1.148 1.895 2.113 2.156 0.574 0.152 1.328 0 1.328 0 0.34 0.598 1.465 1 2.25 1 1.277 0 2.59 -0.426 2.895 -1 0 0 5.293 0.422 6.391 0 1.598 -0.617 1.098 -2.543 0.035 -3.195 -1.063 -0.652 -2.453 -0.195 -2.453 -0.195 0 0 -0.008 -1.328 -1.512 -1.961 -1.508 -0.633 -2.773 0.77 -2.773 0.77 0 0 -0.844 -2.402 -3.172 -2.418 z m 0 0" style="fill:#ebebeb;fill-opacity:1;stroke:none;fill-rule:nonzero"/>
</svg>
