<svg xmlns="http://www.w3.org/2000/svg" viewBox="0 0 64 64">
 <g transform="translate(0,16)">
  <path d="m 54.853 -6.853 c -1.53 -1.53 -5.657 0 -9.732 4.075 l -5.989 5.989 -25.746 -5.433 c -1.853 -0.35 -2.386 -0.36 -3.32 0.558 -2.192 2.192 -2.193 2.192 1.412 4.282 l 18.712 9.535 -10.304 10.304 -8.139 -1.561 c -0.952 -0.201 -0.936 -0.272 -1.533 0.325 l -0.59 0.59 c -0.9 0.9 0.45 1.966 0.45 1.966 l 8.382 5.768 5.768 8.382 c 0 0 1.066 1.35 1.966 0.45 l 0.59 -0.59 c 0.597 -0.597 0.526 -0.58 0.325 -1.533 l -1.561 -8.139 10.304 -10.304 9.535 18.712 c 2.09 3.605 2.09 3.604 4.282 1.412 0.918 -0.934 0.907 -1.467 0.558 -3.32 l -5.433 -25.746 5.989 -5.989 c 4.075 -4.075 5.605 -8.202 4.075 -9.732 z" style="fill:#71a6ce;fill-opacity:1;stroke:none"/>
 </g>
</svg>
