<svg xmlns="http://www.w3.org/2000/svg" viewBox="0 0 64 64">
 <g transform="translate(0,-64)">
  <path d="m 34.433 77 c -1.646 0.004 -3.475 0.135 -5.484 0.395 -2.266 0.293 -4.781 0.741 -7.551 1.344 -2.476 0.57 -4.827 1.199 -7.05 1.883 -2.182 0.668 -4.258 1.419 -6.23 2.25 -3.944 1.629 -5.98 2.965 -6.105 4.01 -0.126 1.075 0.818 1.685 2.832 1.832 1.049 0.082 2.309 0.034 3.777 -0.148 0.504 -0.049 3.133 -0.391 3.133 -0.473 0 -0.098 -0.002 -0.001 -1.902 -0.727 -0.677 -0.259 -0.808 -0.243 -1.191 -0.418 -0.203 -0.093 -0.467 -0.138 -0.582 -0.332 -0.056 -0.094 -0.138 -0.202 -0.012 -0.332 0.961 -0.995 6.964 -2.99 8.289 -3.375 2.224 -0.652 2.31 -0.647 4.953 -1.25 5.245 -1.14 8.07 -1.846 10.965 -1.781 3.063 0.098 3.918 0.082 3.918 1.434 -0.093 0.669 -0.406 0.979 -0.723 1.402 -1.804 2.216 -6.436 4.835 -16.633 11.352 -0.084 0.082 -0.17 0.154 -0.254 0.219 -0.042 0.049 -0.063 0.1 -0.063 0.148 0 0.179 5.29 1.242 5.836 1.242 0.587 0 1.113 -0.13 1.574 -0.391 0.629 -0.407 1.512 -0.913 2.645 -1.516 1.175 -0.603 1.807 -0.981 3.527 -1.828 2.056 -1.01 4.116 -1.956 6.172 -2.836 2.056 -0.88 4.153 -1.717 6.293 -2.516 5.287 -1.906 5.86 -2.038 8.211 -2.539 1.172 -0.25 1.277 -0.27 1.906 -0.27 0.965 0 1.298 0.016 1.445 0.516 0.087 0.292 -0.14 0.495 -0.449 0.73 l 1.633 1.633 c 1.508 -1.039 3.387 -1.72 4.496 -3.199 0.113 -0.151 0.173 -0.35 0.188 -0.539 0.017 -0.223 -0.013 -0.467 -0.125 -0.66 -0.222 -0.385 -0.624 -0.643 -1.01 -0.859 -0.405 -0.228 -0.868 -0.353 -1.324 -0.434 -0.496 -0.088 -0.92 -0.099 -1.508 -0.051 -3.693 0.228 -8.941 1.636 -15.738 4.227 -2.518 0.945 -4.824 1.859 -6.922 2.738 -2.056 0.88 -3.944 1.743 -5.664 2.59 -0.378 0.26 -0.714 0.391 -1.01 0.391 -0.168 0 -0.254 -0.036 -0.254 -0.098 0 -0.114 0.148 -0.262 0.441 -0.441 3.357 -2.183 5.979 -4.02 7.867 -5.52 1.93 -1.515 3.19 -2.714 3.777 -3.594 0.21 -0.375 0.316 -0.75 0.316 -1.125 0 -0.863 -0.484 -1.553 -1.449 -2.074 -1.049 -0.635 -2.497 -0.971 -4.344 -1 -0.204 -0.004 -0.411 -0.004 -0.621 -0.004 z m 20.09 8.816 c -1.199 0.778 -4.55 2.961 -6.57 4.488 -0.957 0.723 -1.865 1.509 -2.758 2.313 -0.512 0.461 -0.994 0.958 -1.488 1.438 l 1.289 1.289 9.527 -9.527 z m -20.43 18.922 c -0.011 0.014 -0.029 0.037 -0.039 0.051 -0.476 0.708 -0.745 1.197 -0.809 1.469 -2.242 1.111 -6.703 2.994 -11.441 8.742 7.995 -3.694 8.244 -4.281 12.586 -6.285 0.689 0.628 0.688 0.624 0.691 0.625 0.68 0.516 1.523 0.525 2.313 0.52 0.591 -0.004 1.109 -0.085 1.621 -0.191 -1.626 -1.63 -3.265 -3.271 -4.922 -4.93 z" style="fill:#3370d0;fill-opacity:1;stroke:none;fill-rule:evenodd"/>
  <path d="m 45 101 10.5 -10.5 4.5 4.5 -15 15 c -3.076 -3.076 -5.924 -5.941 -9 -9.02 l 4.5 -4.482 z" style="fill:#4db147;fill-opacity:1"/>
 </g>
</svg>
