<svg xmlns="http://www.w3.org/2000/svg" xmlns:xlink="http://www.w3.org/1999/xlink" width="64" height="64" viewBox="0 0 48 48">
 <defs>
  <g id="surface7">
   <path d="m 12.301 27.29 c -1.785 0.879 -6.09 4.109 -5.176 5.324 c 0.914 1.211 4.309 -3.457 5.176 -5.324 m 27.2 0.578 c -1.785 0.879 -6.102 4.102 -5.188 5.313 c 0.914 1.211 4.32 -3.445 5.188 -5.313 m -6.867 0.277 c -1.785 0.879 -6.102 4.113 -5.188 5.324 c 0.914 1.211 4.32 -3.457 5.188 -5.324 m -6.184 0.891 c -1.789 0.879 -6.102 4.113 -5.188 5.324 c 0.91 1.215 4.316 -3.457 5.188 -5.324 m -7.301 0.816 c -1.785 0.875 -6.102 4.109 -5.187 5.32 c 0.914 1.215 4.32 -3.457 5.187 -5.32 m -6.637 4.03 c -1.785 0.875 -6.102 4.109 -5.187 5.32 c 0.914 1.215 4.32 -3.457 5.187 -5.32 m 19.797 0.543 c -1.789 0.879 -6.102 4.113 -5.188 5.324 c 0.91 1.211 4.316 -3.457 5.188 -5.324 m -7.09 1.492 c -1.785 0.879 -6.102 4.113 -5.188 5.324 c 0.914 1.211 4.32 -3.457 5.188 -5.324 m 10.66 1.082 c -1.789 0.879 -6.102 4.109 -5.188 5.324 c 0.91 1.211 4.316 -3.457 5.188 -5.324 m -17.559 0.477 c -1.785 0.879 -6.102 4.113 -5.188 5.324 c 0.914 1.215 4.32 -3.457 5.188 -5.324 m 0 0" style="fill:#ececec;fill-opacity:1;stroke:none;fill-rule:nonzero"/>
  </g>
 </defs>
 <g>
  <path d="m 17.477 10 c -0.348 0 -0.723 0.016 -1.102 0.066 c -6.06 0.777 -5.875 5.977 -5.875 5.977 c -2.48 0.422 -4.5 2.586 -4.5 4.852 c 0 2.266 2.586 4.27 4.758 4.852 c 1.289 0.348 2.984 0 2.984 0 c 0.766 1.352 3.297 2.254 5.059 2.254 c 2.875 0 5.832 -0.953 6.512 -2.254 c 0 0 11.91 0.953 14.383 0 c 3.598 -1.387 2.477 -5.723 0.082 -7.188 c -2.395 -1.465 -5.523 -0.441 -5.523 -0.441 c 0 0 -0.016 -2.984 -3.402 -4.41 c -3.383 -1.426 -6.238 1.73 -6.238 1.73 c 0 0 -1.898 -5.406 -7.137 -5.438 m 0 0" style="fill:#ececec;fill-opacity:1;stroke:none;fill-rule:nonzero"/>
  <use xlink:href="#surface7"/>
 </g>
</svg>
