<svg xmlns="http://www.w3.org/2000/svg" width="64" height="64" viewBox="0 0 48 48">
 <path d="m 17.477 12 c -0.348 0 -0.723 0.016 -1.102 0.066 -6.06 0.777 -5.875 5.977 -5.875 5.977 -2.48 0.422 -4.5 2.586 -4.5 4.852 c 0 2.266 2.586 4.27 4.758 4.852 1.289 0.348 2.984 0 2.984 0 c 0.766 1.352 3.297 2.254 5.059 2.254 c 2.875 0 5.832 -0.953 6.512 -2.254 0 0 11.91 0.953 14.383 0 3.598 -1.387 2.477 -5.723 0.082 -7.188 -2.395 -1.465 -5.523 -0.441 -5.523 -0.441 0 0 -0.016 -2.984 -3.402 -4.41 -3.383 -1.426 -6.238 1.73 -6.238 1.73 0 0 -1.898 -5.406 -7.137 -5.438 z m 0 0" style="fill:#ebebeb;fill-opacity:1;stroke:none;fill-rule:nonzero"/>
 <path d="m 21.75 18 0.563 13.5 3.375 0 l 0.563 -13.5 m -4.5 15.75 0 4.5 4.5 0 0 -4.5 z m 0 0" style="fill:#ee545c;fill-opacity:1;stroke:none;fill-rule:nonzero"/>
</svg>
