<svg xmlns="http://www.w3.org/2000/svg" xmlns:xlink="http://www.w3.org/1999/xlink" width="64" height="64" viewBox="0 0 48 48">
 <defs>
  <g id="surface7">
   <path d="m 10.785 27.625 c -0.098 0.023 -0.164 0.117 -0.156 0.223 l 0 0.672 l -0.566 -0.379 c -0.23 -0.156 -0.457 0.211 -0.223 0.367 l 0.789 0.523 l 0 1.215 l -1 -0.602 l -0.043 -0.98 c 0 -0.141 -0.125 -0.246 -0.254 -0.215 c -0.098 0.027 -0.168 0.121 -0.16 0.227 l 0.031 0.711 l -0.555 -0.332 c -0.246 -0.215 -0.504 0.234 -0.211 0.367 l 0.563 0.336 l -0.605 0.332 c -0.309 0.109 -0.066 0.586 0.191 0.379 l 0.84 -0.445 l 1 0.602 l -1.012 0.602 l -0.828 -0.445 c -0.258 -0.207 -0.5 0.27 -0.191 0.379 l 0.598 0.324 l -0.555 0.336 c -0.242 0.148 -0.027 0.527 0.211 0.379 l 0.555 -0.336 l -0.031 0.715 c -0.008 0.289 0.406 0.301 0.414 0.012 l 0.043 -0.984 l 1 -0.602 l 0 1.215 l -0.789 0.527 c -0.234 0.156 -0.012 0.527 0.223 0.367 l 0.566 -0.379 l 0 0.668 c 0 0.289 0.414 0.289 0.414 0 l 0 -0.668 l 0.574 0.379 c 0.234 0.16 0.457 -0.211 0.223 -0.367 l -0.797 -0.527 l 0 -1.227 l 1 0.613 l 0.039 0.984 c 0.008 0.289 0.422 0.277 0.418 -0.012 l -0.035 -0.715 l 0.555 0.336 c 0.242 0.148 0.453 -0.23 0.211 -0.379 l -0.551 -0.336 l 0.594 -0.324 c 0.309 -0.109 0.07 -0.586 -0.191 -0.379 l -0.828 0.445 l -1.012 -0.602 l 1 -0.602 l 0.84 0.445 c 0.262 0.207 0.5 -0.27 0.191 -0.379 l -0.605 -0.332 l 0.563 -0.336 c 0.293 -0.133 0.035 -0.582 -0.211 -0.367 l -0.555 0.332 l 0.035 -0.711 c 0.008 -0.152 -0.129 -0.27 -0.266 -0.227 c -0.09 0.031 -0.152 0.117 -0.152 0.215 l -0.039 0.98 l -1 0.602 l 0 -1.215 l 0.797 -0.523 c 0.234 -0.156 0.012 -0.523 -0.223 -0.367 l -0.574 0.379 l 0 -0.672 c 0.004 -0.125 -0.094 -0.227 -0.215 -0.223 c -0.012 0 -0.027 0 -0.043 0 m 26.344 0.547 c -0.102 0.02 -0.176 0.113 -0.172 0.223 l 0 0.672 l -0.563 -0.383 c -0.234 -0.152 -0.453 0.215 -0.223 0.371 l 0.785 0.523 l 0 1.215 l -1 -0.602 l -0.039 -0.98 c 0 -0.141 -0.125 -0.246 -0.258 -0.215 c -0.098 0.027 -0.164 0.121 -0.16 0.223 l 0.035 0.715 l -0.555 -0.332 c -0.254 -0.246 -0.527 0.258 -0.203 0.367 l 0.555 0.332 l -0.605 0.336 c -0.309 0.109 -0.07 0.586 0.191 0.379 l 0.84 -0.445 l 1 0.602 l -1 0.602 l -0.84 -0.445 c -0.262 -0.207 -0.5 0.27 -0.191 0.379 l 0.594 0.324 l -0.543 0.336 c -0.258 0.133 -0.043 0.535 0.203 0.379 l 0.555 -0.336 l -0.035 0.715 c -0.008 0.289 0.41 0.301 0.418 0.012 l 0.039 -0.984 l 1 -0.602 l 0 1.215 l -0.785 0.527 c -0.234 0.156 -0.012 0.523 0.223 0.367 l 0.563 -0.379 l 0 0.668 c 0 0.289 0.414 0.289 0.414 0 l 0 -0.668 l 0.574 0.379 c 0.234 0.156 0.457 -0.211 0.223 -0.367 l -0.797 -0.527 l 0 -1.227 l 1 0.613 l 0.043 0.984 c 0.008 0.285 0.422 0.277 0.414 -0.012 l -0.031 -0.715 l 0.555 0.336 c 0.238 0.148 0.453 -0.23 0.211 -0.379 l -0.543 -0.336 l 0.586 -0.324 c 0.309 -0.109 0.066 -0.586 -0.191 -0.379 l -0.828 0.445 l -1 -0.602 l 1 -0.602 l 0.828 0.445 c 0.258 0.207 0.5 -0.27 0.191 -0.379 l -0.598 -0.336 l 0.555 -0.332 c 0.293 -0.133 0.035 -0.582 -0.211 -0.367 l -0.555 0.332 l 0.031 -0.715 c 0.008 -0.145 -0.121 -0.254 -0.254 -0.223 c -0.094 0.023 -0.16 0.113 -0.16 0.215 l -0.043 0.98 l -1 0.602 l 0 -1.215 l 0.797 -0.523 c 0.234 -0.156 0.012 -0.523 -0.223 -0.371 l -0.574 0.383 l 0 -0.672 c 0.004 -0.121 -0.086 -0.219 -0.199 -0.223 c 0 0 -0.023 0 -0.023 0 c 0 0 -0.02 0 -0.02 0 m -9.793 0.758 c -0.129 0.035 -0.219 0.16 -0.211 0.301 l 0 0.895 l -0.766 -0.516 c -0.313 -0.207 -0.609 0.285 -0.297 0.492 l 1.063 0.703 l 0 1.641 l -1.34 -0.816 l -0.051 -1.328 c -0.008 -0.172 -0.156 -0.305 -0.32 -0.277 c -0.145 0.023 -0.246 0.16 -0.234 0.313 l 0.031 0.938 l -0.734 -0.445 c -0.324 -0.195 -0.602 0.32 -0.273 0.512 l 0.73 0.445 l -0.797 0.438 c -0.379 0.156 -0.086 0.746 0.258 0.512 l 1.113 -0.602 l 1.34 0.801 l -1.34 0.816 l -1.113 -0.602 c -0.344 -0.238 -0.637 0.352 -0.258 0.512 l 0.797 0.434 l -0.73 0.445 c -0.363 0.184 -0.055 0.742 0.273 0.504 l 0.734 -0.445 l -0.031 0.945 c -0.039 0.414 0.563 0.438 0.555 0.023 l 0.051 -1.316 l 1.34 -0.813 l 0 1.629 l -1.063 0.699 c -0.313 0.211 -0.016 0.699 0.297 0.492 l 0.766 -0.512 l 0 0.902 c -0.027 0.418 0.582 0.418 0.555 0 l 0 -0.902 l 0.766 0.512 c 0.309 0.207 0.605 -0.281 0.297 -0.492 l -1.063 -0.699 l 0 -1.629 l 1.348 0.813 l 0.043 1.316 c -0.008 0.414 0.594 0.391 0.555 -0.023 l -0.035 -0.945 l 0.734 0.445 c 0.332 0.238 0.641 -0.32 0.277 -0.504 l -0.734 -0.445 l 0.797 -0.434 c 0.379 -0.16 0.086 -0.75 -0.254 -0.512 l -1.105 0.602 l -1.352 -0.805 l 1.352 -0.813 l 1.105 0.602 c 0.34 0.234 0.633 -0.355 0.254 -0.512 l -0.797 -0.438 l 0.734 -0.445 c 0.324 -0.195 0.051 -0.707 -0.277 -0.512 l -0.734 0.445 l 0.035 -0.938 c 0.016 -0.188 -0.145 -0.34 -0.32 -0.313 c -0.133 0.023 -0.23 0.141 -0.234 0.277 l -0.043 1.316 l -1.348 0.816 l 0 -1.629 l 1.063 -0.703 c 0.309 -0.207 0.012 -0.699 -0.301 -0.492 l -0.762 0.516 l 0 -0.895 c 0.004 -0.176 -0.141 -0.32 -0.309 -0.301 c -0.012 0 -0.023 0 -0.035 0 m -9.586 5.801 c -0.012 0.004 -0.023 0.008 -0.031 0.012 c -0.129 0.031 -0.219 0.152 -0.215 0.289 l 0 0.902 l -0.766 -0.512 c -0.309 -0.207 -0.609 0.281 -0.297 0.492 l 1.063 0.699 l 0 1.629 l -1.348 -0.813 l -0.043 -1.316 c 0 -0.191 -0.176 -0.328 -0.352 -0.277 c -0.129 0.035 -0.211 0.16 -0.203 0.301 l 0.031 0.945 l -0.73 -0.445 c -0.332 -0.238 -0.641 0.32 -0.277 0.504 l 0.734 0.445 l -0.797 0.434 c -0.379 0.16 -0.086 0.75 0.254 0.516 l 1.105 -0.605 l 1.34 0.805 l -1.34 0.813 l -1.105 -0.602 c -0.34 -0.234 -0.633 0.355 -0.254 0.512 l 0.797 0.438 l -0.734 0.445 c -0.328 0.195 -0.051 0.707 0.277 0.512 l 0.73 -0.445 l -0.031 0.938 c -0.039 0.402 0.551 0.438 0.555 0.035 l 0.043 -1.316 l 1.348 -0.816 l 0 1.629 l -1.063 0.703 c -0.313 0.207 -0.012 0.699 0.297 0.492 l 0.766 -0.516 l 0 0.895 c -0.027 0.414 0.582 0.414 0.555 0 l 0 -0.895 l 0.766 0.516 c 0.313 0.207 0.609 -0.285 0.297 -0.492 l -1.063 -0.703 l 0 -1.629 l 1.348 0.816 l 0.043 1.316 c 0.004 0.402 0.594 0.367 0.555 -0.035 l -0.031 -0.938 l 0.73 0.445 c 0.328 0.195 0.605 -0.32 0.277 -0.512 l -0.734 -0.445 l 0.797 -0.438 c 0.379 -0.156 0.09 -0.746 -0.254 -0.512 l -1.105 0.602 l -1.348 -0.813 l 1.348 -0.805 l 1.105 0.605 c 0.344 0.234 0.633 -0.355 0.254 -0.516 l -0.797 -0.434 l 0.734 -0.445 c 0.363 -0.184 0.055 -0.742 -0.277 -0.504 l -0.73 0.445 l 0.031 -0.945 c 0.012 -0.164 -0.109 -0.309 -0.266 -0.313 c -0.156 -0.008 -0.289 0.125 -0.289 0.289 l -0.043 1.316 l -1.348 0.813 l 0 -1.629 l 1.063 -0.699 c 0.32 -0.207 0.016 -0.711 -0.297 -0.492 l -0.766 0.512 l 0 -0.902 c 0.008 -0.18 -0.141 -0.32 -0.309 -0.301 m 16.488 2.273 c -0.098 0.027 -0.168 0.121 -0.16 0.223 l 0 0.672 l -0.574 -0.379 c -0.234 -0.16 -0.461 0.211 -0.223 0.367 l 0.797 0.523 l 0 1.215 l -1 -0.602 l -0.043 -0.992 c -0.004 -0.141 -0.137 -0.242 -0.266 -0.199 c -0.094 0.027 -0.156 0.121 -0.148 0.223 l 0.031 0.715 l -0.551 -0.336 c -0.246 -0.215 -0.508 0.238 -0.215 0.367 l 0.555 0.336 l -0.598 0.332 c -0.309 0.109 -0.066 0.586 0.191 0.379 l 0.832 -0.457 l 1.01 0.613 l -1.01 0.605 l -0.832 -0.449 c -0.258 -0.203 -0.5 0.273 -0.191 0.379 l 0.598 0.324 l -0.555 0.336 c -0.238 0.148 -0.027 0.527 0.215 0.379 l 0.551 -0.336 l -0.031 0.715 c -0.008 0.289 0.406 0.301 0.414 0.012 l 0.043 -0.98 l 1 -0.605 l 0 1.219 l -0.797 0.523 c -0.234 0.156 -0.012 0.523 0.223 0.367 l 0.574 -0.379 l 0 0.668 c 0 0.293 0.414 0.293 0.414 0 l 0 -0.668 l 0.563 0.379 c 0.234 0.156 0.457 -0.211 0.223 -0.367 l -0.785 -0.523 l 0 -1.227 l 1 0.613 l 0.043 0.98 c 0.008 0.289 0.418 0.277 0.414 -0.012 l -0.031 -0.715 l 0.551 0.336 c 0.246 0.16 0.461 -0.242 0.203 -0.379 l -0.543 -0.336 l 0.594 -0.324 c 0.309 -0.105 0.07 -0.582 -0.191 -0.379 l -0.84 0.449 l -0.996 -0.605 l 0.996 -0.602 l 0.84 0.445 c 0.262 0.207 0.5 -0.27 0.191 -0.379 l -0.605 -0.332 l 0.555 -0.336 c 0.328 -0.109 0.051 -0.609 -0.203 -0.367 l -0.551 0.332 l 0.031 -0.711 c 0.008 -0.152 -0.129 -0.266 -0.266 -0.223 c -0.086 0.023 -0.148 0.105 -0.148 0.199 l -0.043 0.992 l -1 0.602 l 0 -1.215 l 0.785 -0.523 c 0.238 -0.156 0.012 -0.527 -0.223 -0.367 l -0.563 0.379 l 0 -0.672 c 0.004 -0.121 -0.094 -0.223 -0.215 -0.223 c -0.012 0 -0.027 0 -0.039 0 m 0 0" style="fill:#ececec;fill-opacity:1;stroke:none;fill-rule:nonzero"/>
  </g>
 </defs>
 <g>
  <path d="m 17.477 10 c -0.348 0 -0.723 0.016 -1.102 0.066 c -6.06 0.777 -5.875 5.977 -5.875 5.977 c -2.48 0.422 -4.5 2.586 -4.5 4.852 c 0 2.266 2.586 4.27 4.758 4.852 c 1.289 0.348 2.984 0 2.984 0 c 0.766 1.352 3.297 2.254 5.059 2.254 c 2.875 0 5.832 -0.953 6.512 -2.254 c 0 0 11.91 0.953 14.383 0 c 3.598 -1.387 2.477 -5.723 0.082 -7.188 c -2.395 -1.465 -5.523 -0.441 -5.523 -0.441 c 0 0 -0.016 -2.984 -3.402 -4.41 c -3.383 -1.426 -6.238 1.73 -6.238 1.73 c 0 0 -1.898 -5.406 -7.137 -5.438 m 0 0" style="fill:#ececec;fill-opacity:1;stroke:none;fill-rule:nonzero"/>
  <use xlink:href="#surface7"/>
 </g>
</svg>
