<svg xmlns="http://www.w3.org/2000/svg" width="64" height="64" viewBox="0 0 48 48">
 <g>
  <path d="m 42 24 c 0 8.563 -8.06 15.5 -18 15.5 c -9.941 0 -18 -6.938 -18 -15.5 c 0 -8.559 8.06 -15.5 18 -15.5 c 9.941 0 18 6.941 18 15.5 m 0 0" style="fill:#ffd95d;fill-opacity:1;stroke:none;fill-rule:nonzero"/>
  <path d="m 20.5 20.5 c 0 1.379 -1.121 2.5 -2.5 2.5 c -1.379 0 -2.5 -1.121 -2.5 -2.5 c 0 -1.379 1.121 -2.5 2.5 -2.5 c 1.379 0 2.5 1.121 2.5 2.5 m 0 0" style="fill:#646464;fill-opacity:1;stroke:none;fill-rule:nonzero"/>
  <path d="m 32.5 20.5 c 0 1.379 -1.121 2.5 -2.5 2.5 c -1.379 0 -2.5 -1.121 -2.5 -2.5 c 0 -1.379 1.121 -2.5 2.5 -2.5 c 1.379 0 2.5 1.121 2.5 2.5 m 0 0" style="fill:#646464;fill-opacity:1;stroke:none;fill-rule:nonzero"/>
  <path d="m 24.523 8.508 c -7.887 -0.191 -15 4.063 -17.543 10.492 l 34.05 0 c -2.422 -6.121 -9 -10.301 -16.504 -10.492 m 0 0" style="fill:#2a2a2a;fill-opacity:1;stroke:none;fill-rule:nonzero"/>
  <path d="m 6.16 26 c 1.215 7.68 8.832 13.406 17.836 13.406 c 9 0 16.617 -5.727 17.832 -13.406 m -35.668 0" style="fill:#2a2a2a;fill-opacity:1;stroke:none;fill-rule:nonzero"/>
  <path d="m 20.5 31 l 7 0 c 0.277 0 0.5 0.223 0.5 0.5 l 0 1 c 0 0.277 -0.223 0.5 -0.5 0.5 l -7 0 c -0.277 0 -0.5 -0.223 -0.5 -0.5 l 0 -1 c 0 -0.277 0.223 -0.5 0.5 -0.5 m 0 0" style="fill:#3e3e3e;fill-opacity:1;stroke:none;fill-rule:nonzero"/>
 </g>
</svg>
