<svg xmlns="http://www.w3.org/2000/svg" width="64" height="64" viewBox="0 0 48 48">
 <g>
  <path d="m 42 24 c 0 8.563 -8.06 15.5 -18 15.5 c -9.941 0 -18 -6.938 -18 -15.5 c 0 -8.559 8.06 -15.5 18 -15.5 c 9.941 0 18 6.941 18 15.5 m 0 0" style="fill:#ffd95d;fill-opacity:1;stroke:none;fill-rule:nonzero"/>
  <path d="m 19.852 18.824 l -4.293 1.148 c -0.039 0.176 -0.059 0.352 -0.059 0.527 c 0 1.379 1.121 2.5 2.5 2.5 c 1.379 0 2.5 -1.121 2.5 -2.5 c 0 -0.621 -0.23 -1.219 -0.648 -1.676 m 0 0" style="fill:#646464;fill-opacity:1;stroke:none;fill-rule:nonzero"/>
  <path d="m 32.5 20.5 c 0 1.379 -1.121 2.5 -2.5 2.5 c -1.379 0 -2.5 -1.121 -2.5 -2.5 c 0 -1.379 1.121 -2.5 2.5 -2.5 c 1.379 0 2.5 1.121 2.5 2.5 m 0 0" style="fill:#646464;fill-opacity:1;stroke:none;fill-rule:nonzero"/>
  <path d="m 18.883 30 c -0.145 -0.734 0.082 -1.535 0.586 -2.09 c 0.285 -0.313 0.652 -0.547 1.047 -0.695 c 0.398 -0.148 0.828 -0.207 1.25 -0.191 c 0.84 0.027 1.66 0.344 2.316 0.867 c 0.723 0.578 1.223 1.379 1.824 2.086 c 0.59 0.699 1.301 1.32 2.145 1.676 c 0.574 0.246 1.207 0.359 1.832 0.336" style="stroke-opacity:1;fill:none;stroke-miterlimit:4;stroke:#646464;stroke-linecap:butt;stroke-linejoin:miter;stroke-width:1.5"/>
 </g>
</svg>
