<svg xmlns="http://www.w3.org/2000/svg" width="64" height="64" viewBox="0 0 48 48" xmlns:xlink="http://www.w3.org/1999/xlink">
 <defs>
  <radialGradient id="radial0" gradientUnits="userSpaceOnUse" cx="15" cy="28" r="2" gradientTransform="matrix(2,0,0,2,-15,-28)">
   <stop style="stop-color:#ff3636;stop-opacity:1"/>
   <stop offset="1" style="stop-color:#ffd95d;stop-opacity:1"/>
  </radialGradient>
  <radialGradient id="radial1" gradientUnits="userSpaceOnUse" cx="24" cy="28" r="2" gradientTransform="matrix(2,0,0,2,-15,-28)" xlink:href="#radial0"/>
 </defs>
 <g>
  <path d="m 42 24 c 0 8.563 -8.06 15.5 -18 15.5 c -9.941 0 -18 -6.938 -18 -15.5 c 0 -8.559 8.06 -15.5 18 -15.5 c 9.941 0 18 6.941 18 15.5 m 0 0" style="fill:#ffd95d;fill-opacity:1;stroke:none;fill-rule:nonzero"/>
  <path d="m 20.5 20.5 c 0 1.379 -1.121 2.5 -2.5 2.5 c -1.379 0 -2.5 -1.121 -2.5 -2.5 c 0 -1.379 1.121 -2.5 2.5 -2.5 c 1.379 0 2.5 1.121 2.5 2.5 m 0 0" style="fill:#646464;fill-opacity:1;stroke:none;fill-rule:nonzero"/>
  <path d="m 32.5 20.5 c 0 1.379 -1.121 2.5 -2.5 2.5 c -1.379 0 -2.5 -1.121 -2.5 -2.5 c 0 -1.379 1.121 -2.5 2.5 -2.5 c 1.379 0 2.5 1.121 2.5 2.5 m 0 0" style="fill:#646464;fill-opacity:1;stroke:none;fill-rule:nonzero"/>
  <path d="m 26 31 c 0 1.105 -0.895 2 -2 2 c -1.105 0 -2 -0.895 -2 -2 c 0 -1.105 0.895 -2 2 -2 c 1.105 0 2 0.895 2 2 m 0 0" style="fill:#646464;fill-opacity:1;stroke:none;fill-rule:nonzero"/>
  <path d="m 19 28 c 0 2.211 -1.789 4 -4 4 c -2.211 0 -4 -1.789 -4 -4 c 0 -2.211 1.789 -4 4 -4 c 2.211 0 4 1.789 4 4 m 0 0" style="fill:url(#radial0);stroke:none;fill-rule:nonzero"/>
  <path d="m 37 28 c 0 2.211 -1.789 4 -4 4 c -2.211 0 -4 -1.789 -4 -4 c 0 -2.211 1.789 -4 4 -4 c 2.211 0 4 1.789 4 4 m 0 0" style="fill:url(#radial1);stroke:none;fill-rule:nonzero"/>
 </g>
</svg>
