<svg xmlns="http://www.w3.org/2000/svg" width="64" height="64" viewBox="0 0 48 48">
 <g>
  <path d="m 42 24 c 0 8.563 -8.06 15.5 -18 15.5 c -9.941 0 -18 -6.938 -18 -15.5 c 0 -8.559 8.06 -15.5 18 -15.5 c 9.941 0 18 6.941 18 15.5 m 0 0" style="fill:#ffd95d;fill-opacity:1;stroke:none;fill-rule:nonzero"/>
  <path d="m 32.5 19.5 c 0 -1.934 -1.121 -3.5 -2.5 -3.5 c -1.379 0 -2.5 1.566 -2.5 3.5 c 0 1.934 1.121 3.5 2.5 3.5 c 1.379 0 2.5 -1.566 2.5 -3.5 m 0 0" style="fill:#646464;fill-opacity:1;stroke:none;fill-rule:nonzero"/>
  <path d="m 20.5 19.5 c 0 -1.934 -1.121 -3.5 -2.5 -3.5 c -1.379 0 -2.5 1.566 -2.5 3.5 c 0 1.934 1.121 3.5 2.5 3.5 c 1.379 0 2.5 -1.566 2.5 -3.5 m 0 0" style="fill:#646464;fill-opacity:1;stroke:none;fill-rule:nonzero"/>
  <path d="m 27.309 32.98 c -1.012 -0.086 -2.191 -0.43 -4.184 -1.219 c -1.281 -0.512 -1.734 -0.652 -2.301 -0.734 c -0.52 -0.074 -0.852 -0.063 -1.223 0.102 c -0.508 0.203 -0.805 0.672 -0.895 1.434 l -0.043 0.438 l -1.664 0 l 0 -0.406 c 0 -0.754 0.246 -1.473 0.684 -2 c 0.172 -0.211 0.551 -0.523 0.793 -0.66 c 0.25 -0.137 0.703 -0.297 1.031 -0.363 c 0.438 -0.09 1.305 -0.086 1.816 0 c 0.781 0.137 1.621 0.406 3.395 1.094 c 1.563 0.609 2.262 0.793 3.03 0.793 c 0.402 0 0.453 -0.004 0.637 -0.074 c 0.355 -0.137 0.633 -0.422 0.785 -0.816 c 0.066 -0.176 0.152 -0.633 0.152 -0.828 l 0 -0.234 l 1.68 0 l 0 0.375 c 0 0.34 -0.047 0.711 -0.125 1.016 c -0.281 1.109 -1.105 1.824 -2.34 2.043 c -0.246 0.066 -0.961 0.07 -1.227 0.066 m 0 -0.02" style="fill:#646464;fill-opacity:1;stroke:none;fill-rule:nonzero"/>
 </g>
</svg>
