<svg xmlns="http://www.w3.org/2000/svg" width="64" height="64" viewBox="0 0 48 48">
 <g>
  <path d="m 42 24 c 0 8.563 -8.06 15.5 -18 15.5 c -9.941 0 -18 -6.938 -18 -15.5 c 0 -8.559 8.06 -15.5 18 -15.5 c 9.941 0 18 6.941 18 15.5 m 0 0" style="fill:#ffd95d;fill-opacity:1;stroke:none;fill-rule:nonzero"/>
  <path d="m 18 29.25 c -1.379 0 -2.5 -1.121 -2.5 -2.5 c 0 -0.254 0.039 -0.504 0.117 -0.746 c 0.328 1.039 1.293 1.746 2.383 1.746 c 1.094 0 2.059 -0.711 2.383 -1.754 c 0.078 0.242 0.117 0.5 0.117 0.754 c 0 1.379 -1.121 2.5 -2.5 2.5 m 0 0" style="fill:#646464;fill-opacity:1;stroke:none;fill-rule:nonzero"/>
  <path d="m 30 29.25 c -1.379 0 -2.5 -1.121 -2.5 -2.5 c 0 -0.254 0.039 -0.504 0.117 -0.746 c 0.328 1.039 1.293 1.746 2.383 1.746 c 1.094 0 2.059 -0.711 2.383 -1.754 c 0.078 0.242 0.117 0.5 0.117 0.754 c 0 1.379 -1.121 2.5 -2.5 2.5 m 0 0" style="fill:#646464;fill-opacity:1;stroke:none;fill-rule:nonzero"/>
 </g>
</svg>
