<svg xmlns="http://www.w3.org/2000/svg" width="64" height="64" viewBox="0 0 48 48">
 <g>
  <path d="m 42 24 c 0 8.563 -8.06 15.5 -18 15.5 c -9.941 0 -18 -6.938 -18 -15.5 c 0 -8.559 8.06 -15.5 18 -15.5 c 9.941 0 18 6.941 18 15.5 m 0 0" style="fill:#ffd95d;fill-opacity:1;stroke:none;fill-rule:nonzero"/>
  <path d="m 17.1 28 c 0.57 2.887 3.488 5 6.902 5 c 3.414 -0.004 6.324 -2.117 6.895 -5 l -0.961 0 c -0.426 1.719 -2.953 2.996 -5.934 3 c -2.98 -0.004 -5.508 -1.281 -5.934 -3 m -0.969 0" style="fill:#646464;fill-opacity:1;stroke:none;fill-rule:nonzero"/>
  <path d="m 17.684 23.695 c -0.172 -0.195 -0.602 -0.57 -0.953 -0.836 c -1.047 -0.793 -1.191 -0.906 -1.617 -1.297 c -0.781 -0.723 -1.113 -1.449 -1.113 -2.43 c 0 -0.48 0.035 -0.664 0.168 -0.949 c 0.227 -0.48 0.563 -0.836 0.992 -1.055 c 0.305 -0.152 0.453 -0.223 0.961 -0.223 c 0.531 -0.004 0.645 0.059 0.957 0.23 c 0.379 0.207 0.773 0.652 0.852 0.973 l 0.051 0.195 l 0.125 -0.27 c 0.695 -1.527 2.918 -1.504 3.691 0.035 c 0.246 0.488 0.273 1.531 0.055 2.121 c -0.281 0.766 -0.816 1.352 -2.051 2.246 c -0.809 0.586 -1.723 1.477 -1.785 1.598 c -0.074 0.148 -0.004 0.023 -0.332 -0.34 m 0 0" style="fill:#f66;fill-opacity:1;stroke:none;fill-rule:nonzero"/>
  <path d="m 29.684 23.695 c -0.172 -0.195 -0.602 -0.57 -0.953 -0.836 c -1.047 -0.793 -1.191 -0.906 -1.617 -1.297 c -0.781 -0.723 -1.113 -1.449 -1.113 -2.43 c 0 -0.48 0.035 -0.664 0.168 -0.949 c 0.227 -0.48 0.563 -0.836 0.992 -1.055 c 0.305 -0.152 0.453 -0.223 0.961 -0.223 c 0.531 -0.004 0.645 0.059 0.957 0.23 c 0.379 0.207 0.773 0.652 0.852 0.973 l 0.051 0.195 l 0.125 -0.27 c 0.695 -1.527 2.918 -1.504 3.691 0.035 c 0.246 0.488 0.273 1.531 0.055 2.121 c -0.281 0.766 -0.816 1.352 -2.051 2.246 c -0.809 0.586 -1.723 1.477 -1.785 1.598 c -0.074 0.148 -0.004 0.023 -0.332 -0.34 m 0 0" style="fill:#f66;fill-opacity:1;stroke:none;fill-rule:nonzero"/>
 </g>
</svg>
