<svg xmlns="http://www.w3.org/2000/svg" viewBox="0 0 64 64">
 <g>
  <path d="m 10.672 0 c -1.375 0 -2.672 1.355 -2.672 2.789 l 0 58.42 c 0 1.355 1.375 2.789 2.672 2.789 l 42.656 0 c 1.297 0 2.672 -1.434 2.672 -2.789 l 0 -43.21 l -18 -18 m -27.328 0" style="fill:#c19553;fill-opacity:1;stroke:none;fill-rule:nonzero"/>
  <path d="m 8 48 l 0 13.336 c 0 1.297 1.375 2.664 2.664 2.664 l 42.672 0 c 1.289 0 2.664 -1.367 2.664 -2.664 l 0 -13.336 m -48 0" style="fill:#000;fill-opacity:0.196;stroke:none;fill-rule:nonzero"/>
  <path d="m 22.934 58.852 c 0 0.625 -0.102 1.156 -0.313 1.586 c -0.211 0.414 -0.5 0.75 -0.867 1.01 c -0.359 0.242 -0.789 0.422 -1.289 0.539 c -0.484 0.102 -1.016 0.148 -1.586 0.148 c -0.453 0 -0.93 -0.031 -1.414 -0.086 c -0.492 -0.039 -0.977 -0.117 -1.453 -0.219 l 0 -10.11 c 0.391 -0.07 0.82 -0.125 1.281 -0.172 c 0.469 -0.055 0.93 -0.078 1.391 -0.078 c 0.773 0 1.406 0.078 1.898 0.25 c 0.492 0.156 0.875 0.367 1.148 0.641 c 0.281 0.258 0.469 0.547 0.57 0.875 c 0.102 0.32 0.148 0.648 0.148 0.977 c 0 0.492 -0.117 0.93 -0.367 1.313 c -0.234 0.375 -0.547 0.68 -0.945 0.906 c 0.695 0.258 1.172 0.609 1.414 1.039 c 0.258 0.438 0.383 0.898 0.383 1.383 m -4.867 -1.414 l 0 2.828 c 0.141 0.023 0.297 0.039 0.461 0.047 c 0.18 0.016 0.352 0.023 0.523 0.023 c 0.234 0 0.461 -0.023 0.68 -0.055 c 0.227 -0.047 0.422 -0.117 0.586 -0.219 c 0.18 -0.109 0.32 -0.266 0.43 -0.453 c 0.117 -0.203 0.172 -0.453 0.172 -0.758 c 0 -0.508 -0.164 -0.859 -0.484 -1.078 c -0.313 -0.219 -0.734 -0.336 -1.266 -0.336 l -1.102 0 m 0.797 -1.711 c 0.523 0 0.922 -0.117 1.188 -0.344 c 0.266 -0.234 0.398 -0.555 0.398 -0.953 c 0 -0.25 -0.039 -0.445 -0.117 -0.594 c -0.078 -0.156 -0.18 -0.273 -0.313 -0.352 c -0.141 -0.086 -0.289 -0.148 -0.469 -0.164 c -0.18 -0.039 -0.367 -0.055 -0.555 -0.055 c -0.156 0 -0.313 0.008 -0.484 0.016 c -0.164 0.016 -0.313 0.031 -0.445 0.055 l 0 2.391 l 0.797 0" style="fill:#fff;fill-opacity:1;stroke:none;fill-rule:nonzero"/>
  <path d="m 42 18 l 14 14 l 0 -14 m -14 0" style="fill:#000;fill-opacity:0.196;stroke:none;fill-rule:nonzero"/>
  <path d="m 30.879 53.03 c -0.477 0.742 -0.922 1.438 -1.32 2.086 c -0.398 0.648 -0.773 1.273 -1.117 1.867 c -0.344 0.586 -0.672 1.148 -0.984 1.703 c -0.297 0.531 -0.586 1.07 -0.867 1.594 l 4.438 0 l 0 1.719 l -6.805 0 l 0 -1.195 c 0.242 -0.484 0.5 -0.984 0.781 -1.516 c 0.281 -0.539 0.594 -1.109 0.938 -1.719 c 0.344 -0.602 0.711 -1.258 1.117 -1.969 c 0.406 -0.703 0.859 -1.469 1.352 -2.305 l -3.977 0 l 0 -1.711 l 6.445 0 l 0 1.445" style="fill:#fff;fill-opacity:1;stroke:none;fill-rule:nonzero"/>
  <path d="m 38 0 l 17.984 18 l -15.227 0 c -1.348 0 -2.758 -1.426 -2.758 -2.773 m 0 -15.227" style="fill:#fff;fill-opacity:0.392;stroke:none;fill-rule:nonzero"/>
  <path d="m 32.699 62 l 0 -1.719 l 2.25 0 l 0 -6.984 l -2.25 0 l 0 -1.711 l 6.555 0 l 0 1.711 l -2.234 0 l 0 6.984 l 2.234 0 l 0 1.719 l -6.555 0" style="fill:#fff;fill-opacity:1;stroke:none;fill-rule:nonzero"/>
  <path d="m 18 0 l 6 0 l 0 6 l -6 0 m 0 -6" style="fill:#f9f9f9;fill-opacity:1;stroke:none;fill-rule:evenodd"/>
  <path d="m 43.871 51.47 c 1.313 0 2.336 0.273 3.055 0.82 c 0.727 0.539 1.086 1.43 1.086 2.656 c 0 1.25 -0.367 2.148 -1.102 2.711 c -0.719 0.555 -1.75 0.828 -3.086 0.828 l -0.734 0 l 0 3.516 l -2.055 0 l 0 -10.281 c 0.203 -0.047 0.422 -0.086 0.672 -0.117 c 0.258 -0.031 0.508 -0.055 0.766 -0.07 c 0.258 -0.023 0.508 -0.039 0.75 -0.047 c 0.242 -0.016 0.461 -0.016 0.648 -0.016 m 0.234 1.797 c -0.117 0 -0.289 0.008 -0.516 0.016 c -0.211 0 -0.375 0.016 -0.5 0.039 l 0 3.359 l 0.836 0 c 0.656 0 1.148 -0.125 1.484 -0.383 c 0.336 -0.273 0.5 -0.727 0.5 -1.367 c 0 -0.602 -0.164 -1.031 -0.5 -1.273 c -0.32 -0.258 -0.758 -0.391 -1.305 -0.391" style="fill:#fff;fill-opacity:1;stroke:none;fill-rule:nonzero"/>
  <path d="m 24 6 l 6 0 l 0 6 l -6 0 m 0 -6" style="fill:#f9f9f9;fill-opacity:1;stroke:none;fill-rule:evenodd"/>
  <path d="m 18 12 l 6 0 l 0 6 l -6 0 m 0 -6" style="fill:#f9f9f9;fill-opacity:1;stroke:none;fill-rule:evenodd"/>
  <path d="m 24 18 l 6 0 l 0 6 l -6 0 m 0 -6" style="fill:#f9f9f9;fill-opacity:1;stroke:none;fill-rule:evenodd"/>
  <path d="m 18 24 l 6 0 l 0 6 l -6 0 m 0 -6" style="fill:#f9f9f9;fill-opacity:1;stroke:none;fill-rule:evenodd"/>
  <path d="m 18 32 l 12 0 l 0 12 l -12 0 m 0 -12" style="fill:#f9f9f9;fill-opacity:1;stroke:none;fill-rule:evenodd"/>
 </g>
</svg>
