<svg xmlns="http://www.w3.org/2000/svg" viewBox="0 0 64 64">
 <g>
  <path d="m 10.672 0 c -1.375 0 -2.672 1.355 -2.672 2.789 l 0 58.42 c 0 1.355 1.375 2.789 2.672 2.789 l 42.656 0 c 1.297 0 2.672 -1.434 2.672 -2.789 l 0 -43.21 l -18 -18 m -27.328 0" style="fill:#3468ce;fill-opacity:1;stroke:none;fill-rule:nonzero"/>
  <path d="m 42 18 l 14 14 l 0 -14 m -14 0" style="fill:#000;fill-opacity:0.196;stroke:none;fill-rule:nonzero"/>
  <path d="m 38 0 l 17.984 18 l -15.227 0 c -1.348 0 -2.758 -1.426 -2.758 -2.773 m 0 -15.227" style="fill:#fff;fill-opacity:0.392;stroke:none;fill-rule:nonzero"/>
  <path d="m 20 22 l 12 0 l 0 10 l -12 0 m 0 -10" style="fill:#f9f9f9;fill-opacity:1;stroke:none;fill-rule:evenodd"/>
  <path d="m 34 22 l 10 0 l 0 2 l -10 0 m 0 -2" style="fill:#f9f9f9;fill-opacity:1;stroke:none;fill-rule:evenodd"/>
  <path d="m 8 48 l 0 13.336 c 0 1.297 1.375 2.664 2.664 2.664 l 42.672 0 c 1.289 0 2.664 -1.367 2.664 -2.664 l 0 -13.336 m -48 0" style="fill:#000;fill-opacity:0.196;stroke:none;fill-rule:nonzero"/>
  <path d="m 34 26 l 10 0 l 0 2 l -10 0 m 0 -2" style="fill:#f9f9f9;fill-opacity:1;stroke:none;fill-rule:evenodd"/>
  <path d="m 21.23 50.805 c 0.715 0 1.355 0.066 1.938 0.215 c 0.574 0.137 1.074 0.359 1.492 0.664 c 0.418 0.293 0.73 0.672 0.941 1.141 c 0.23 0.449 0.348 0.992 0.348 1.605 c 0 0.648 -0.148 1.23 -0.445 1.754 c -0.293 0.527 -0.785 0.93 -1.469 1.199 c 0.23 0.313 0.469 0.656 0.723 1.043 c 0.254 0.367 0.508 0.762 0.746 1.18 c 0.246 0.402 0.477 0.813 0.688 1.23 c 0.23 0.41 0.422 0.797 0.586 1.164 l -2.602 0 c -0.313 -0.715 -0.672 -1.402 -1.09 -2.059 c -0.402 -0.664 -0.836 -1.336 -1.313 -2.02 l -1.289 0 l 0 4.074 l -2.484 0 l 0 -10.906 c 0.246 -0.051 0.508 -0.094 0.789 -0.133 c 0.293 -0.051 0.59 -0.074 0.883 -0.09 c 0.305 -0.023 0.582 -0.043 0.855 -0.051 c 0.27 -0.016 0.5 -0.016 0.703 -0.016 m 2.199 3.609 c 0 -0.582 -0.207 -1.01 -0.605 -1.289 c -0.402 -0.27 -0.938 -0.41 -1.594 -0.41 c -0.098 0 -0.211 0.008 -0.344 0.016 c -0.133 0 -0.27 0.02 -0.402 0.043 l 0 3.32 l 0.543 0 c 0.844 0 1.457 -0.137 1.836 -0.426 c 0.379 -0.293 0.566 -0.715 0.566 -1.254" style="fill:#fff;fill-opacity:1;stroke:none;fill-rule:nonzero"/>
  <path d="m 36.578 50.93 l 0 1.82 l -3.289 0 l 0 9.25 l -2.504 0 l 0 -9.25 l -3.281 0 l 0 -1.82 l 9.07 0" style="fill:#fff;fill-opacity:1;stroke:none;fill-rule:nonzero"/>
  <path d="m 38.36 62 l 0 -11.07 l 7.645 0 l 0 1.82 l -5.168 0 l 0 2.688 l 4.52 0 l 0 1.82 l -4.52 0 l 0 4.742 l -2.477 0" style="fill:#fff;fill-opacity:1;stroke:none;fill-rule:nonzero"/>
  <path d="m 34 30 l 10 0 l 0 2 l -10 0 m 0 -2" style="fill:#f9f9f9;fill-opacity:1;stroke:none;fill-rule:evenodd"/>
  <path d="m 20 34 l 24 0 l 0 2 l -24 0 m 0 -2" style="fill:#f9f9f9;fill-opacity:1;stroke:none;fill-rule:evenodd"/>
  <path d="m 20 38 l 24 0 l 0 2 l -24 0 m 0 -2" style="fill:#f9f9f9;fill-opacity:1;stroke:none;fill-rule:evenodd"/>
  <path d="m 20 42 l 24 0 l 0 2 l -24 0 m 0 -2" style="fill:#f9f9f9;fill-opacity:1;stroke:none;fill-rule:evenodd"/>
 </g>
</svg>
