<svg xmlns="http://www.w3.org/2000/svg" viewBox="0 0 64 64">
 <path d="m 10.672 0 c -1.375 0 -2.672 1.355 -2.672 2.789 l 0 58.42 c 0 1.355 1.375 2.789 2.672 2.789 l 42.656 0 c 1.297 0 2.672 -1.434 2.672 -2.789 l 0 -43.21 -18 -18 m -27.328 0" style="fill:#dcdcdc;fill-opacity:1;stroke:none;fill-rule:nonzero"/>
 <path d="m 42 18 14 14 0 -14 z m 0 0" style="fill:#000;fill-opacity:0.196;stroke:none;fill-rule:nonzero"/>
 <path d="m 38 0 17.984 18 -15.227 0 c -1.348 0 -2.758 -1.426 -2.758 -2.773 m 0 -15.227" style="fill:#fff;fill-opacity:0.392;stroke:none;fill-rule:nonzero"/>
 <path d="m 23.906 43.02 c 0 1.02 0.277 1.754 0.82 2.215 0.566 0.461 1.387 0.707 2.465 0.727 l 0 2.098 c -1.809 -0.02 -3.211 -0.461 -4.195 -1.305 -0.996 -0.852 -1.488 -2.047 -1.488 -3.586 l 0 -4.539 c 0 -1.039 -0.297 -1.777 -0.902 -2.219 c -0.594 -0.449 -1.469 -0.676 -2.605 -0.676 l 0 -2.117 c 1.23 -0.02 2.125 -0.254 2.676 -0.715 0.555 -0.461 0.832 -1.168 0.832 -2.129 l 0 -4.586 c 0 -1.551 0.512 -2.754 1.539 -3.617 1.023 -0.855 2.41 -1.285 4.145 -1.285 l 0 2.086 c -2.195 0.063 -3.285 1.051 -3.285 2.98 l 0 4.422 c 0 2.148 -1.066 3.414 -3.188 3.805 l 0 0.188 c 2.121 0.383 3.188 1.656 3.188 3.805 l 0 4.449" style="fill:#555;fill-opacity:1;stroke:none;fill-rule:nonzero"/>
 <path d="m 43.25 34.574 c -2.121 -0.391 -3.188 -1.656 -3.188 -3.805 l 0 -4.422 c 0 -1.93 -1.078 -2.918 -3.242 -2.98 l 0 -2.086 c 1.754 0 3.129 0.43 4.133 1.305 1 0.871 1.508 2.066 1.508 3.598 l 0 4.586 c 0 0.973 0.277 1.688 0.84 2.137 0.566 0.453 1.469 0.688 2.699 0.707 l 0 2.117 c -1.16 0 -2.043 0.227 -2.637 0.676 -0.605 0.441 -0.902 1.18 -0.902 2.219 l 0 4.539 c 0 1.527 -0.492 2.715 -1.465 3.566 -0.977 0.863 -2.359 1.305 -4.176 1.324 l 0 -2.098 c 1.055 -0.02 1.867 -0.266 2.422 -0.727 0.543 -0.461 0.82 -1.195 0.82 -2.215 l 0 -4.449 c 0 -1.137 0.266 -2.01 0.789 -2.609 0.523 -0.598 1.324 -1 2.398 -1.195 l 0 -0.188" style="fill:#555;fill-opacity:1;stroke:none;fill-rule:nonzero"/>
</svg>
