<svg xmlns="http://www.w3.org/2000/svg" viewBox="0 0 64 64">
 <g>
  <path d="m 10.672 0 c -1.375 0 -2.672 1.355 -2.672 2.789 l 0 58.42 c 0 1.355 1.375 2.789 2.672 2.789 l 42.656 0 c 1.297 0 2.672 -1.434 2.672 -2.789 l 0 -43.21 l -18 -18 m -27.328 0" style="fill:#a33638;fill-opacity:1;stroke:none;fill-rule:nonzero"/>
  <path d="m 42 18 l 14 14 l 0 -14 m -14 0" style="fill:#000;fill-opacity:0.196;stroke:none;fill-rule:nonzero"/>
  <path d="m 38 0 l 17.984 18 l -15.227 0 c -1.348 0 -2.758 -1.426 -2.758 -2.773 m 0 -15.227" style="fill:#fff;fill-opacity:0.392;stroke:none;fill-rule:nonzero"/>
  <path d="m 32 23.992 c -6.629 0 -12 1.68 -12 3.754 l 0 2.996 c 0 2.074 5.371 3.754 12 3.754 c 6.629 0 12 -1.68 12 -3.754 l 0 -2.996 c 0 -2.074 -5.371 -3.754 -12 -3.754 m 0 0" style="fill:#fff;fill-opacity:1;stroke:none;fill-rule:nonzero"/>
  <path d="m 31.965 35.992 c -5.379 0 -9.906 -1.102 -11.438 -2.621 c -0.359 0.352 -0.527 0.73 -0.527 1.125 l 0 3 c 0 2.074 5.371 3.754 12 3.754 c 6.629 0 12 -1.68 12 -3.754 l 0 -3 c 0 -0.395 -0.211 -0.773 -0.563 -1.125 c -1.531 1.52 -6.102 2.621 -11.473 2.621 m 0 0" style="fill:#fff;fill-opacity:1;stroke:none;fill-rule:nonzero"/>
  <path d="m 31.965 42.742 c -5.379 0 -9.906 -1.098 -11.438 -2.617 c -0.359 0.352 -0.527 0.727 -0.527 1.125 l 0 2.996 c 0 2.074 5.371 3.754 12 3.754 c 6.629 0 12 -1.68 12 -3.754 l 0 -2.996 c 0 -0.398 -0.211 -0.773 -0.563 -1.125 c -1.531 1.52 -6.102 2.617 -11.473 2.617 m 0 0" style="fill:#fff;fill-opacity:1;stroke:none;fill-rule:nonzero"/>
 </g>
</svg>
