<svg xmlns="http://www.w3.org/2000/svg" viewBox="0 0 64 64">
 <path d="m 10.672 0 c -1.375 0 -2.672 1.355 -2.672 2.789 l 0 58.42 c 0 1.355 1.375 2.789 2.672 2.789 l 42.656 0 c 1.297 0 2.672 -1.434 2.672 -2.789 l 0 -43.21 -18 -18 m -27.328 0" style="fill:#dcdcdc;fill-opacity:1;stroke:none;fill-rule:nonzero"/>
 <path d="m 42 18 14 14 0 -14 z m 0 0" style="fill:#000;fill-opacity:0.196;stroke:none;fill-rule:nonzero"/>
 <path d="m 38 0 17.984 18 -15.227 0 c -1.348 0 -2.758 -1.426 -2.758 -2.773 m 0 -15.227" style="fill:#fff;fill-opacity:0.392;stroke:none;fill-rule:nonzero"/>
 <path d="m 40.859 20 -1.895 22.773 c -0.098 1.066 -0.148 1.766 -0.148 2.102 0 0.531 0.098 0.949 0.277 1.23 0.23 0.395 0.543 0.68 0.938 0.867 0.402 0.191 1.074 0.281 2.02 0.281 l -0.199 0.746 l -9.813 0 0.207 -0.746 0.426 0 c 0.797 0 1.445 -0.188 1.945 -0.566 0.352 -0.254 0.629 -0.672 0.828 -1.273 0.129 -0.418 0.262 -1.395 0.387 -2.945 l 0.285 -3.469 l -7.121 0 -2.535 3.773 c -0.574 0.844 -0.934 1.461 -1.082 1.84 -0.148 0.359 -0.223 0.703 -0.223 1.023 0 0.434 0.164 0.805 0.477 1.117 0.32 0.301 0.844 0.477 1.582 0.5 l -0.203 0.746 l -7.359 0 0.195 -0.746 c 0.91 -0.043 1.707 -0.371 2.391 -0.984 c 0.695 -0.633 1.73 -1.977 3.105 -4.02 l 14.875 -22.25 0.641 0 m -3.633 6.719 -7.223 10.805 6.262 0 0.961 -10.805" style="fill:#555;fill-opacity:1;stroke:none;fill-rule:nonzero"/>
</svg>
