<svg xmlns="http://www.w3.org/2000/svg" viewBox="0 0 64 64">
 <g>
  <path d="m 10.672 0 c -1.375 0 -2.672 1.355 -2.672 2.789 l 0 58.42 c 0 1.355 1.375 2.789 2.672 2.789 l 42.656 0 c 1.297 0 2.672 -1.434 2.672 -2.789 l 0 -43.21 l -18 -18 m -27.328 0" style="fill:#36669e;fill-opacity:1;stroke:none;fill-rule:nonzero"/>
  <path d="m 42 18 l 14 14 l 0 -14 m -14 0" style="fill:#000;fill-opacity:0.196;stroke:none;fill-rule:nonzero"/>
  <path d="m 38 0 l 17.984 18 l -15.227 0 c -1.348 0 -2.758 -1.426 -2.758 -2.773 m 0 -15.227" style="fill:#fff;fill-opacity:0.392;stroke:none;fill-rule:nonzero"/>
  <path d="m 21.996 21.996 l 0.004 8 l 2 0 l 0 -6 l 6 0 l 0 -2 m -8 -0.004" style="fill:#fff;fill-opacity:1;stroke:none;fill-rule:nonzero"/>
  <path d="m 42 21.996 l -0.004 8 l -2 0 l 0 -6 l -6 0 l 0 -2 m 8 -0.004" style="fill:#fff;fill-opacity:1;stroke:none;fill-rule:nonzero"/>
  <path d="m 8 48 l 0 13.336 c 0 1.297 1.375 2.664 2.664 2.664 l 42.672 0 c 1.289 0 2.664 -1.367 2.664 -2.664 l 0 -13.336 m -48 0" style="fill:#000;fill-opacity:0.196;stroke:none;fill-rule:nonzero"/>
  <path d="m 20.1 56.5 c 0 0.535 0.016 1.039 0.059 1.508 c 0.051 0.461 0.141 0.863 0.277 1.207 c 0.141 0.344 0.336 0.613 0.586 0.813 c 0.25 0.199 0.586 0.301 1 0.301 c 0.41 0 0.738 -0.102 0.988 -0.301 c 0.262 -0.199 0.461 -0.469 0.598 -0.813 c 0.141 -0.359 0.234 -0.762 0.273 -1.223 c 0.051 -0.461 0.078 -0.957 0.078 -1.492 c 0 -0.527 -0.027 -1.023 -0.078 -1.484 c -0.039 -0.477 -0.133 -0.879 -0.273 -1.223 c -0.137 -0.344 -0.328 -0.609 -0.578 -0.813 c -0.246 -0.199 -0.586 -0.301 -1.01 -0.301 c -0.418 0 -0.754 0.102 -1 0.301 c -0.25 0.203 -0.445 0.477 -0.586 0.832 c -0.137 0.34 -0.227 0.742 -0.277 1.203 c -0.043 0.461 -0.059 0.957 -0.059 1.484 m -2.473 0 c 0 -1.887 0.395 -3.309 1.164 -4.266 c 0.781 -0.969 1.852 -1.449 3.234 -1.449 c 1.434 0 2.531 0.48 3.277 1.449 c 0.746 0.957 1.121 2.379 1.121 4.266 c 0 1.895 -0.375 3.316 -1.137 4.289 c -0.766 0.957 -1.844 1.434 -3.234 1.434 c -1.434 0 -2.531 -0.477 -3.293 -1.434 c -0.754 -0.973 -1.133 -2.395 -1.133 -4.289" style="fill:#fff;fill-opacity:1;stroke:none;fill-rule:nonzero"/>
  <path d="m 30.445 60.22 c 0.066 0.02 0.141 0.02 0.219 0.02 c 0.082 0 0.148 0 0.215 0 c 0.555 0 1.016 -0.094 1.383 -0.285 c 0.387 -0.188 0.688 -0.445 0.906 -0.781 c 0.242 -0.324 0.402 -0.711 0.492 -1.164 c 0.109 -0.461 0.16 -0.965 0.16 -1.508 c 0 -0.469 -0.043 -0.93 -0.117 -1.383 c -0.082 -0.445 -0.219 -0.836 -0.418 -1.18 c -0.191 -0.344 -0.461 -0.613 -0.805 -0.813 c -0.344 -0.219 -0.781 -0.32 -1.324 -0.32 c -0.102 0 -0.227 0 -0.352 0.016 c -0.133 0 -0.25 0.012 -0.359 0.035 l 0 7.363 m 5.84 -3.719 c 0 1.023 -0.145 1.887 -0.438 2.605 c -0.277 0.711 -0.66 1.289 -1.156 1.734 c -0.504 0.453 -1.098 0.777 -1.801 0.988 c -0.68 0.203 -1.441 0.301 -2.262 0.301 c -0.438 0 -0.863 -0.016 -1.281 -0.066 c -0.41 -0.031 -0.855 -0.102 -1.324 -0.191 l 0 -10.699 c 0.551 -0.109 1.07 -0.176 1.559 -0.211 c 0.484 -0.031 0.938 -0.059 1.355 -0.059 c 0.805 0 1.535 0.109 2.195 0.328 c 0.672 0.211 1.234 0.543 1.691 1 c 0.461 0.453 0.816 1.031 1.066 1.734 c 0.266 0.695 0.395 1.543 0.395 2.531" style="fill:#fff;fill-opacity:1;stroke:none;fill-rule:nonzero"/>
  <path d="m 39.996 51.03 c 0.09 0.254 0.199 0.57 0.336 0.957 c 0.141 0.395 0.293 0.813 0.449 1.258 c 0.16 0.453 0.32 0.902 0.473 1.363 c 0.156 0.461 0.309 0.891 0.457 1.273 c 0.152 -0.434 0.32 -0.879 0.488 -1.34 c 0.176 -0.477 0.336 -0.922 0.492 -1.348 c 0.16 -0.438 0.305 -0.848 0.438 -1.223 c 0.133 -0.379 0.25 -0.688 0.352 -0.941 l 2.02 0 c 0.094 0.957 0.176 1.895 0.25 2.801 c 0.094 0.914 0.168 1.809 0.219 2.715 c 0.066 0.879 0.117 1.773 0.16 2.688 c 0.039 0.898 0.074 1.82 0.102 2.766 l -2.23 0 l 0.117 -8.52 l -1.5 4.641 l -1.777 0 l -1.438 -4.641 l 0.098 8.52 l -2.227 0 c 0.039 -0.906 0.074 -1.836 0.117 -2.797 c 0.051 -0.973 0.109 -1.938 0.16 -2.891 c 0.047 -0.957 0.105 -1.887 0.176 -2.781 c 0.074 -0.898 0.164 -1.727 0.258 -2.5 l 2.01 0" style="fill:#fff;fill-opacity:1;stroke:none;fill-rule:nonzero"/>
  <path d="m 42 42 l -0.004 -8 l -2 0 l 0 6 l -6 0 l 0 2 m 8 0.004" style="fill:#fff;fill-opacity:1;stroke:none;fill-rule:nonzero"/>
  <path d="m 21.996 42 l 0.004 -8 l 2 0 l 0 6 l 6 0 l 0 2 m -8 0.004" style="fill:#fff;fill-opacity:1;stroke:none;fill-rule:nonzero"/>
 </g>
</svg>
