<svg xmlns="http://www.w3.org/2000/svg" viewBox="0 0 64 64">
 <path d="m 10.672 0 c -1.375 0 -2.672 1.355 -2.672 2.789 l 0 58.42 c 0 1.355 1.375 2.789 2.672 2.789 l 42.656 0 c 1.297 0 2.672 -1.434 2.672 -2.789 l 0 -43.21 -18 -18 z m 0 0" style="fill:#bf9451;fill-opacity:1;stroke:none;fill-rule:nonzero"/>
 <path d="m 8 48 0 13.336 c 0 1.297 1.375 2.664 2.664 2.664 l 42.672 0 c 1.289 0 2.664 -1.367 2.664 -2.664 l 0 -13.336 z m 0 0" style="fill:#000;fill-opacity:0.196;stroke:none;fill-rule:nonzero"/>
 <path d="m 24.855 61.988 -0.566 -2.5 -3.23 0 -0.551 2.5 -2.508 0 c 0.574 -2.133 1.156 -4.082 1.746 -5.832 0.59 -1.762 1.156 -3.434 1.707 -5.01 l 2.625 0 c 0.574 1.582 1.141 3.27 1.707 5.059 0.57 1.781 1.121 3.707 1.664 5.781 l -2.594 0 m -2.148 -8.742 c -0.129 0.41 -0.254 0.805 -0.375 1.172 -0.109 0.363 -0.207 0.723 -0.313 1.094 -0.09 0.344 -0.18 0.703 -0.27 1.063 -0.082 0.363 -0.164 0.738 -0.238 1.125 l 2.367 0 c -0.082 -0.387 -0.152 -0.762 -0.234 -1.125 -0.074 -0.359 -0.164 -0.719 -0.273 -1.063 -0.09 -0.371 -0.195 -0.73 -0.313 -1.094 -0.105 -0.367 -0.219 -0.762 -0.352 -1.172" style="fill:#fff;fill-opacity:1;stroke:none;fill-rule:nonzero"/>
 <path d="m 42 18 14 14 0 -14 z m 0 0" style="fill:#000;fill-opacity:0.196;stroke:none;fill-rule:nonzero"/>
 <path d="m 31.813 51.02 c 0.695 0 1.32 0.066 1.887 0.207 0.555 0.137 1.039 0.359 1.441 0.645 0.41 0.297 0.715 0.676 0.926 1.125 0.223 0.441 0.328 0.969 0.328 1.574 0 0.633 -0.137 1.207 -0.426 1.723 -0.285 0.508 -0.762 0.902 -1.434 1.172 0.219 0.305 0.457 0.641 0.703 1.02 0.254 0.359 0.492 0.746 0.73 1.156 0.23 0.395 0.453 0.793 0.664 1.203 0.223 0.402 0.41 0.781 0.566 1.141 l -2.527 0 c -0.301 -0.695 -0.656 -1.367 -1.055 -2.02 -0.395 -0.648 -0.813 -1.313 -1.273 -1.977 l -1.254 0 0 3.992 -2.41 0 0 -10.688 c 0.238 -0.047 0.492 -0.09 0.762 -0.121 0.285 -0.051 0.574 -0.074 0.859 -0.09 0.289 -0.023 0.566 -0.043 0.828 -0.051 0.266 -0.016 0.484 -0.016 0.684 -0.016 m 2.141 3.535 c 0 -0.574 -0.199 -0.992 -0.59 -1.262 -0.395 -0.266 -0.914 -0.402 -1.551 -0.402 -0.09 0 -0.199 0.008 -0.328 0.016 -0.133 0 -0.262 0.016 -0.395 0.039 l 0 3.258 0.523 0 c 0.828 0 1.422 -0.141 1.789 -0.418 0.359 -0.297 0.551 -0.707 0.551 -1.23" style="fill:#fff;fill-opacity:1;stroke:none;fill-rule:nonzero"/>
 <path d="m 38 0 17.984 18 -15.227 0 c -1.348 0 -2.758 -1.426 -2.758 -2.773 z m 0 0" style="fill:#fff;fill-opacity:0.392;stroke:none;fill-rule:nonzero"/>
 <path d="m 18 0 6 0 0 6 -6 0 z m 0 0" style="fill:#f8f8f8;fill-opacity:1;stroke:none;fill-rule:evenodd"/>
 <path d="m 24 6 6 0 0 6 -6 0 z m 0 0" style="fill:#f8f8f8;fill-opacity:1;stroke:none;fill-rule:evenodd"/>
 <path d="m 18 12 6 0 0 6 -6 0 z m 0 0" style="fill:#f8f8f8;fill-opacity:1;stroke:none;fill-rule:evenodd"/>
 <path d="m 24 18 6 0 0 6 -6 0 z m 0 0" style="fill:#f8f8f8;fill-opacity:1;stroke:none;fill-rule:evenodd"/>
 <path d="m 18 24 6 0 0 6 -6 0 z m 0 0" style="fill:#f8f8f8;fill-opacity:1;stroke:none;fill-rule:evenodd"/>
 <path d="m 18 32 12 0 0 12 -12 0 z m 0 0" style="fill:#f8f8f8;fill-opacity:1;stroke:none;fill-rule:evenodd"/>
 <path d="m 43.22 62.07 c -1.719 0 -3.02 -0.492 -3.926 -1.484 -0.898 -0.98 -1.348 -2.379 -1.348 -4.203 0 -0.898 0.133 -1.707 0.406 -2.406 0.277 -0.711 0.66 -1.301 1.145 -1.785 0.488 -0.488 1.074 -0.855 1.738 -1.105 0.684 -0.258 1.418 -0.383 2.215 -0.383 0.434 0 0.816 0.031 1.16 0.098 0.348 0.059 0.656 0.133 0.914 0.219 0.266 0.082 0.477 0.164 0.648 0.258 0.184 0.098 0.316 0.164 0.41 0.215 l -0.625 1.727 c -0.301 -0.176 -0.668 -0.328 -1.098 -0.441 -0.418 -0.125 -0.902 -0.191 -1.449 -0.191 -0.375 0 -0.75 0.066 -1.117 0.191 -0.352 0.113 -0.676 0.324 -0.957 0.613 -0.277 0.285 -0.508 0.668 -0.691 1.141 -0.168 0.484 -0.25 1.086 -0.25 1.801 0 1.242 0.234 2.199 0.707 2.863 0.484 0.66 1.266 0.992 2.348 0.992 0.625 0 1.141 -0.066 1.551 -0.191 0.414 -0.133 0.75 -0.258 1 -0.391 l 0.605 1.707 c -0.34 0.191 -0.805 0.367 -1.391 0.523 c -0.574 0.16 -1.238 0.234 -1.996 0.234" style="fill:#fff;fill-opacity:1;stroke:none;fill-rule:nonzero"/>
</svg>
