<svg xmlns="http://www.w3.org/2000/svg" viewBox="0 0 64 64">
 <path d="m 10.672 0 c -1.375 0 -2.672 1.355 -2.672 2.789 l 0 58.42 c 0 1.355 1.375 2.789 2.672 2.789 l 42.656 0 c 1.297 0 2.672 -1.434 2.672 -2.789 l 0 -43.21 -18 -18 m -27.328 0" style="fill:#a6a6a6;fill-opacity:1;stroke:none;fill-rule:nonzero"/>
 <path d="m 42 18 14 14 0 -14 z m 0 0" style="fill:#000;fill-opacity:0.196;stroke:none;fill-rule:nonzero"/>
 <path d="m 38 0 17.984 18 -15.227 0 c -1.348 0 -2.758 -1.426 -2.758 -2.773 m 0 -15.227" style="fill:#fff;fill-opacity:0.392;stroke:none;fill-rule:nonzero"/>
 <path d="m 8 48 0 13.336 c 0 1.297 1.375 2.664 2.664 2.664 l 42.672 0 c 1.289 0 2.664 -1.367 2.664 -2.664 l 0 -13.336 m -48 0" style="fill:#000;fill-opacity:0.196;stroke:none;fill-rule:nonzero"/>
 <path d="m 21.657 60.25 q 0.59 0 0.971 -0.102 0.4 -0.119 0.629 -0.307 0.229 -0.204 0.305 -0.443 0.095 -0.255 0.095 -0.511 0 -0.324 -0.21 -0.579 -0.21 -0.255 -0.533 -0.443 -0.324 -0.204 -0.724 -0.358 -0.4 -0.17 -0.8 -0.307 -0.533 -0.17 -1.105 -0.392 -0.571 -0.221 -1.048 -0.562 -0.457 -0.341 -0.762 -0.834 -0.305 -0.511 -0.305 -1.26 0 -1.481 1.067 -2.316 1.086 -0.834 2.971 -0.834 1.086 0 1.886 0.221 0.819 0.221 1.371 0.494 l -0.686 1.618 q -0.476 -0.238 -1.067 -0.409 -0.571 -0.17 -1.333 -0.17 -1.867 0 -1.867 1.209 0 0.307 0.19 0.545 0.19 0.221 0.476 0.409 0.305 0.17 0.667 0.307 0.381 0.136 0.743 0.255 0.552 0.187 1.143 0.426 0.61 0.221 1.105 0.613 0.514 0.375 0.838 0.954 q 0.324 0.562 0.324 1.43 q 0 1.481 -1.086 2.299 -1.067 0.8 -3.257 0.8 -1.467 0 -2.343 -0.272 q -0.876 -0.289 -1.314 -0.528 l 0.686 -1.703 q 0.514 0.272 1.219 0.511 0.724 0.238 1.752 0.238 z" style="fill:#fff;fill-opacity:1;stroke:none"/>
 <path d="m 30.432 51 q 0.123 0.373 0.3 0.96 0.194 0.586 0.405 1.262 0.211 0.675 0.423 1.368 0.211 0.693 0.405 1.279 0.211 -0.658 0.441 -1.351 0.229 -0.711 0.441 -1.351 q 0.211 -0.658 0.388 -1.226 0.176 -0.569 0.317 -0.942 l 1.797 0 q 0.123 1.439 0.229 2.808 0.123 1.368 0.194 2.719 0.088 1.333 0.141 2.701 q 0.053 1.351 0.088 2.772 l -1.991 0 0.106 -8.548 -1.339 4.656 -1.586 0 l -1.286 -4.656 0.088 8.548 -1.991 0 q 0.053 -1.351 0.106 -2.808 0.07 -1.457 0.141 -2.897 0.07 -1.439 0.159 -2.79 q 0.106 -1.351 0.229 -2.506 l 1.797 0 z" style="fill:#fff;fill-opacity:1;stroke:none"/>
 <path d="m 41.657 60.25 q 0.59 0 0.971 -0.102 0.4 -0.119 0.629 -0.307 0.229 -0.204 0.305 -0.443 0.095 -0.255 0.095 -0.511 0 -0.324 -0.21 -0.579 -0.21 -0.255 -0.533 -0.443 -0.324 -0.204 -0.724 -0.358 -0.4 -0.17 -0.8 -0.307 -0.533 -0.17 -1.105 -0.392 -0.571 -0.221 -1.048 -0.562 -0.457 -0.341 -0.762 -0.834 -0.305 -0.511 -0.305 -1.26 0 -1.481 1.067 -2.316 1.086 -0.834 2.971 -0.834 1.086 0 1.886 0.221 0.819 0.221 1.371 0.494 l -0.686 1.618 q -0.476 -0.238 -1.067 -0.409 -0.571 -0.17 -1.333 -0.17 -1.867 0 -1.867 1.209 0 0.307 0.19 0.545 0.19 0.221 0.476 0.409 0.305 0.17 0.667 0.307 0.381 0.136 0.743 0.255 0.552 0.187 1.143 0.426 0.61 0.221 1.105 0.613 0.514 0.375 0.838 0.954 q 0.324 0.562 0.324 1.43 q 0 1.481 -1.086 2.299 -1.067 0.8 -3.257 0.8 -1.467 0 -2.343 -0.272 q -0.876 -0.289 -1.314 -0.528 l 0.686 -1.703 q 0.514 0.272 1.219 0.511 0.724 0.238 1.752 0.238 z" style="fill:#fff;fill-opacity:1;stroke:none"/>
 <path d="m 38.462 29.922 a 1.077 1.098 0 0 1 -1.077 1.098 1.077 1.098 0 0 1 -1.077 -1.098 1.077 1.098 0 0 1 1.077 -1.098 1.077 1.098 0 0 1 1.077 1.098 z m 2.154 2.196 a 1.077 1.098 0 0 1 -1.077 1.098 1.077 1.098 0 0 1 -1.077 -1.098 1.077 1.098 0 0 1 1.077 -1.098 1.077 1.098 0 0 1 1.077 1.098 z m 2.154 -2.196 a 1.077 1.098 0 0 1 -1.077 1.098 1.077 1.098 0 0 1 -1.077 -1.098 1.077 1.098 0 0 1 1.077 -1.098 1.077 1.098 0 0 1 1.077 1.098 z m -2.154 -2.196 a 1.077 1.098 0 0 1 -1.077 1.098 1.077 1.098 0 0 1 -1.077 -1.098 1.077 1.098 0 0 1 1.077 -1.098 1.077 1.098 0 0 1 1.077 1.098 z m -14 2.196 a 2.154 2.196 0 0 1 -2.154 2.196 2.154 2.196 0 0 1 -2.154 -2.196 2.154 2.196 0 0 1 2.154 -2.196 2.154 2.196 0 0 1 2.154 2.196 z m -1.904 -7.683 c -0.775 0.032 -1.412 0.371 -1.851 0.71 C 20.266 24.955 18 33.33 18 37.757 c 0 4.43 0.999 4.242 1.866 4.242 0.867 0 1.956 -0.608 2.909 -1.463 2.629 -2.36 3.841 -5.124 6.455 -5.124 l 5.54 0 c 2.615 0 3.826 2.764 6.455 5.124 0.952 0.855 2.042 1.463 2.909 1.463 C 45 41.999 46 42.19 46 37.757 46 33.33 43.734 24.955 41.14 22.948 40.44 22.405 39.23 21.864 37.757 22.577 36.77 23.06 35.889 23.333 34.6 23.333 l -5.2 0 c -1.289 0 -2.171 -0.278 -3.157 -0.756 -0.552 -0.267 -1.067 -0.358 -1.531 -0.339 z" style="fill:#fff;opacity:1;fill-opacity:1;stroke:none;fill-rule:nonzero"/>
</svg>
