<svg xmlns="http://www.w3.org/2000/svg" viewBox="0 0 64 64">
 <g>
  <path d="m 10.672 0 c -1.375 0 -2.672 1.355 -2.672 2.789 l 0 58.42 c 0 1.355 1.375 2.789 2.672 2.789 l 42.656 0 c 1.297 0 2.672 -1.434 2.672 -2.789 l 0 -43.21 l -18 -18 m -27.328 0" style="fill:#c19553;fill-opacity:1;stroke:none;fill-rule:nonzero"/>
  <path d="m 8 48 l 0 13.336 c 0 1.297 1.375 2.664 2.664 2.664 l 42.672 0 c 1.289 0 2.664 -1.367 2.664 -2.664 l 0 -13.336 m -48 0" style="fill:#000;fill-opacity:0.196;stroke:none;fill-rule:nonzero"/>
  <path d="m 42 18 l 14 14 l 0 -14 m -14 0" style="fill:#000;fill-opacity:0.196;stroke:none;fill-rule:nonzero"/>
  <path d="m 25.801 52.789 c -0.563 0.762 -1.078 1.473 -1.543 2.141 c -0.473 0.672 -0.906 1.309 -1.316 1.922 c -0.398 0.598 -0.781 1.176 -1.152 1.738 c -0.348 0.559 -0.684 1.105 -1.012 1.645 l 5.195 0 l 0 1.754 l -7.973 0 l 0 -1.223 c 0.285 -0.492 0.598 -1.016 0.922 -1.555 c 0.328 -0.547 0.688 -1.133 1.098 -1.754 c 0.398 -0.621 0.84 -1.301 1.305 -2.027 c 0.484 -0.719 1.016 -1.512 1.586 -2.359 l -4.656 0 l 0 -1.766 l 7.547 0 l 0 1.484" style="fill:#fff;fill-opacity:1;stroke:none;fill-rule:nonzero"/>
  <path d="m 38 0 l 17.984 18 l -15.227 0 c -1.348 0 -2.758 -1.426 -2.758 -2.773 m 0 -15.227" style="fill:#fff;fill-opacity:0.392;stroke:none;fill-rule:nonzero"/>
  <path d="m 29.848 56.641 c 0 0.52 0.016 1.012 0.055 1.469 c 0.051 0.449 0.148 0.84 0.277 1.176 c 0.141 0.336 0.336 0.598 0.582 0.793 c 0.254 0.195 0.578 0.293 0.996 0.293 c 0.41 0 0.734 -0.098 0.98 -0.293 c 0.262 -0.195 0.457 -0.457 0.59 -0.793 c 0.137 -0.352 0.227 -0.742 0.27 -1.191 c 0.047 -0.449 0.078 -0.934 0.078 -1.453 c 0 -0.516 -0.031 -1 -0.078 -1.449 c -0.043 -0.465 -0.133 -0.855 -0.27 -1.191 c -0.133 -0.336 -0.32 -0.598 -0.574 -0.793 c -0.246 -0.195 -0.578 -0.293 -0.996 -0.293 c -0.418 0 -0.742 0.098 -0.996 0.293 c -0.246 0.195 -0.441 0.465 -0.582 0.809 c -0.129 0.336 -0.227 0.727 -0.277 1.176 c -0.039 0.449 -0.055 0.934 -0.055 1.449 m -2.445 0 c 0 -1.84 0.387 -3.23 1.152 -4.16 c 0.77 -0.949 1.84 -1.414 3.203 -1.414 c 1.422 0 2.5 0.465 3.242 1.414 c 0.746 0.93 1.121 2.32 1.121 4.16 c 0 1.844 -0.383 3.234 -1.137 4.18 c -0.758 0.934 -1.82 1.398 -3.203 1.398 c -1.422 0 -2.508 -0.465 -3.266 -1.398 c -0.746 -0.945 -1.113 -2.336 -1.113 -4.18" style="fill:#fff;fill-opacity:1;stroke:none;fill-rule:nonzero"/>
  <path d="m 18 0 l 6 0 l 0 6 l -6 0 m 0 -6" style="fill:#f9f9f9;fill-opacity:1;stroke:none;fill-rule:evenodd"/>
  <path d="m 39.617 56.641 c 0 0.52 0.016 1.012 0.059 1.469 c 0.047 0.449 0.145 0.84 0.277 1.176 c 0.137 0.336 0.332 0.598 0.578 0.793 c 0.254 0.195 0.582 0.293 0.996 0.293 c 0.41 0 0.738 -0.098 0.98 -0.293 c 0.262 -0.195 0.457 -0.457 0.59 -0.793 c 0.137 -0.352 0.227 -0.742 0.27 -1.191 c 0.051 -0.449 0.082 -0.934 0.082 -1.453 c 0 -0.516 -0.031 -1 -0.082 -1.449 c -0.039 -0.465 -0.133 -0.855 -0.27 -1.191 c -0.133 -0.336 -0.32 -0.598 -0.57 -0.793 c -0.246 -0.195 -0.582 -0.293 -1 -0.293 c -0.414 0 -0.742 0.098 -0.996 0.293 c -0.246 0.195 -0.441 0.465 -0.578 0.809 c -0.133 0.336 -0.23 0.727 -0.277 1.176 c -0.043 0.449 -0.059 0.934 -0.059 1.449 m -2.441 0 c 0 -1.84 0.383 -3.23 1.152 -4.16 c 0.766 -0.949 1.836 -1.414 3.199 -1.414 c 1.422 0 2.5 0.465 3.246 1.414 c 0.742 0.93 1.117 2.32 1.117 4.16 c 0 1.844 -0.383 3.234 -1.133 4.18 c -0.762 0.934 -1.824 1.398 -3.203 1.398 c -1.422 0 -2.508 -0.465 -3.27 -1.398 c -0.742 -0.945 -1.109 -2.336 -1.109 -4.18" style="fill:#fff;fill-opacity:1;stroke:none;fill-rule:nonzero"/>
  <path d="m 24 6 l 6 0 l 0 6 l -6 0 m 0 -6" style="fill:#f9f9f9;fill-opacity:1;stroke:none;fill-rule:evenodd"/>
  <path d="m 18 12 l 6 0 l 0 6 l -6 0 m 0 -6" style="fill:#f9f9f9;fill-opacity:1;stroke:none;fill-rule:evenodd"/>
  <path d="m 24 18 l 6 0 l 0 6 l -6 0 m 0 -6" style="fill:#f9f9f9;fill-opacity:1;stroke:none;fill-rule:evenodd"/>
  <path d="m 18 24 l 6 0 l 0 6 l -6 0 m 0 -6" style="fill:#f9f9f9;fill-opacity:1;stroke:none;fill-rule:evenodd"/>
  <path d="m 18 32 l 12 0 l 0 12 l -12 0 m 0 -12" style="fill:#f9f9f9;fill-opacity:1;stroke:none;fill-rule:evenodd"/>
 </g>
</svg>
