<svg xmlns="http://www.w3.org/2000/svg" viewBox="0 0 64 64">
 <g>
  <path d="m 10.672 0 c -1.375 0 -2.672 1.355 -2.672 2.789 l 0 58.42 c 0 1.355 1.375 2.789 2.672 2.789 l 42.656 0 c 1.297 0 2.672 -1.434 2.672 -2.789 l 0 -43.21 l -18 -18 m -27.328 0" style="fill:#c19553;fill-opacity:1;stroke:none;fill-rule:nonzero"/>
  <path d="m 8 48 l 0 13.336 c 0 1.297 1.375 2.664 2.664 2.664 l 42.672 0 c 1.289 0 2.664 -1.367 2.664 -2.664 l 0 -13.336 m -48 0" style="fill:#000;fill-opacity:0.196;stroke:none;fill-rule:nonzero"/>
  <path d="m 42 18 l 14 14 l 0 -14 m -14 0" style="fill:#000;fill-opacity:0.196;stroke:none;fill-rule:nonzero"/>
  <path d="m 38 0 l 17.984 18 l -15.227 0 c -1.348 0 -2.758 -1.426 -2.758 -2.773 m 0 -15.227" style="fill:#fff;fill-opacity:0.392;stroke:none;fill-rule:nonzero"/>
  <path d="m 18 0 l 6 0 l 0 6 l -6 0 m 0 -6" style="fill:#f9f9f9;fill-opacity:1;stroke:none;fill-rule:evenodd"/>
  <path d="m 24 6 l 6 0 l 0 6 l -6 0 m 0 -6" style="fill:#f9f9f9;fill-opacity:1;stroke:none;fill-rule:evenodd"/>
  <path d="m 18 12 l 6 0 l 0 6 l -6 0 m 0 -6" style="fill:#f9f9f9;fill-opacity:1;stroke:none;fill-rule:evenodd"/>
  <path d="m 24 18 l 6 0 l 0 6 l -6 0 m 0 -6" style="fill:#f9f9f9;fill-opacity:1;stroke:none;fill-rule:evenodd"/>
  <path d="m 18 24 l 6 0 l 0 6 l -6 0 m 0 -6" style="fill:#f9f9f9;fill-opacity:1;stroke:none;fill-rule:evenodd"/>
  <path d="m 18 32 l 12 0 l 0 12 l -12 0 m 0 -12" style="fill:#f9f9f9;fill-opacity:1;stroke:none;fill-rule:evenodd"/>
  <path d="m 26.617 50.926 l 0 1.82 l -3.125 0 l 0 9.254 l -2.371 0 l 0 -9.254 l -3.117 0 l 0 -1.82 l 8.613 0" style="fill:#fff;fill-opacity:1;stroke:none;fill-rule:nonzero"/>
  <path d="m 33.961 62 l -0.559 -2.559 l -3.148 0 l -0.543 2.559 l -2.445 0 c 0.559 -2.184 1.125 -4.168 1.699 -5.957 c 0.574 -1.801 1.133 -3.508 1.664 -5.117 l 2.566 0 c 0.559 1.625 1.117 3.348 1.66 5.168 c 0.566 1.813 1.105 3.781 1.633 5.906 l -2.527 0 m -2.109 -8.926 c -0.121 0.418 -0.246 0.813 -0.359 1.199 c -0.102 0.367 -0.207 0.738 -0.305 1.105 c -0.09 0.363 -0.18 0.723 -0.27 1.094 c -0.074 0.367 -0.156 0.754 -0.23 1.148 l 2.313 0 c -0.074 -0.395 -0.148 -0.781 -0.23 -1.148 c -0.074 -0.371 -0.164 -0.73 -0.262 -1.094 c -0.09 -0.367 -0.195 -0.738 -0.313 -1.105 c -0.098 -0.387 -0.211 -0.781 -0.344 -1.199" style="fill:#fff;fill-opacity:1;stroke:none;fill-rule:nonzero"/>
  <path d="m 40.75 50.805 c 0.676 0 1.281 0.063 1.832 0.211 c 0.547 0.141 1.023 0.363 1.418 0.664 c 0.395 0.297 0.695 0.676 0.895 1.141 c 0.223 0.453 0.328 0.992 0.328 1.609 c 0 0.648 -0.141 1.23 -0.418 1.754 c -0.281 0.527 -0.746 0.926 -1.395 1.199 c 0.211 0.313 0.441 0.656 0.688 1.039 c 0.238 0.371 0.477 0.766 0.707 1.184 c 0.23 0.402 0.441 0.813 0.648 1.23 c 0.211 0.41 0.402 0.797 0.555 1.164 l -2.469 0 c -0.293 -0.715 -0.637 -1.402 -1.031 -2.059 c -0.387 -0.664 -0.797 -1.336 -1.246 -2.02 l -1.223 0 l 0 4.078 l -2.355 0 l 0 -10.91 c 0.23 -0.047 0.484 -0.09 0.746 -0.129 c 0.289 -0.051 0.566 -0.074 0.844 -0.094 c 0.281 -0.023 0.551 -0.039 0.805 -0.047 c 0.254 -0.016 0.477 -0.016 0.672 -0.016 m 2.086 3.609 c 0 -0.582 -0.199 -1.012 -0.574 -1.289 c -0.387 -0.27 -0.887 -0.41 -1.512 -0.41 c -0.09 0 -0.203 0.008 -0.328 0.016 c -0.129 0 -0.254 0.016 -0.383 0.043 l 0 3.32 l 0.516 0 c 0.805 0 1.387 -0.141 1.738 -0.426 c 0.363 -0.297 0.543 -0.715 0.543 -1.254" style="fill:#fff;fill-opacity:1;stroke:none;fill-rule:nonzero"/>
 </g>
</svg>
