<svg xmlns="http://www.w3.org/2000/svg" viewBox="0 0 64 64">
 <g>
  <path d="m 10.672 0 c -1.375 0 -2.672 1.355 -2.672 2.789 l 0 58.42 c 0 1.355 1.375 2.789 2.672 2.789 l 42.656 0 c 1.297 0 2.672 -1.434 2.672 -2.789 l 0 -43.21 l -18 -18 m -27.328 0" style="fill:#ce6920;fill-opacity:1;stroke:none;fill-rule:nonzero"/>
  <path d="m 42 18 l 14 14 l 0 -14 m -14 0" style="fill:#000;fill-opacity:0.196;stroke:none;fill-rule:nonzero"/>
  <path d="m 38 0 l 17.984 18 l -15.227 0 c -1.348 0 -2.758 -1.426 -2.758 -2.773 m 0 -15.227" style="fill:#fff;fill-opacity:0.392;stroke:none;fill-rule:nonzero"/>
  <path d="m 32 20 c -1.086 0 -2 0.625 -2.414 1.504 c -0.828 -0.57 -1.977 -0.672 -2.922 -0.152 c -0.93 0.504 -1.422 1.492 -1.328 2.445 c -1.01 -0.09 -2.047 0.383 -2.586 1.27 c -0.539 0.887 -0.43 1.98 0.164 2.762 c -0.93 0.395 -1.578 1.266 -1.578 2.293 c 0 1.031 0.648 1.895 1.578 2.293 c -0.594 0.785 -0.703 1.871 -0.164 2.766 c 0.539 0.887 1.578 1.352 2.586 1.262 c -0.094 0.961 0.398 1.941 1.328 2.453 c 0.422 0.23 0.883 0.32 1.336 0.32 l 0 10.785 l 4 -3.797 l 4 3.797 l 0 -10.785 c 0.453 0 0.914 -0.09 1.336 -0.32 c 0.93 -0.512 1.422 -1.492 1.328 -2.453 c 1.01 0.09 2.047 -0.375 2.586 -1.262 c 0.539 -0.895 0.43 -1.98 -0.164 -2.766 c 0.93 -0.398 1.578 -1.262 1.578 -2.293 c 0 -1.027 -0.648 -1.898 -1.578 -2.293 c 0.594 -0.781 0.703 -1.875 0.164 -2.762 c -0.539 -0.887 -1.578 -1.359 -2.586 -1.27 c 0.094 -0.953 -0.398 -1.941 -1.328 -2.445 c -0.945 -0.52 -2.094 -0.418 -2.922 0.152 c -0.414 -0.879 -1.328 -1.504 -2.414 -1.504 m 0 3.754 c 3.68 0 6.664 2.836 6.664 6.328 c 0 3.492 -2.984 6.32 -6.664 6.32 c -3.68 0 -6.664 -2.828 -6.664 -6.32 c 0 -3.492 2.984 -6.328 6.664 -6.328 m 0 1.27 c -2.945 0 -5.336 2.262 -5.336 5.059 c 0 2.789 2.391 5.059 5.336 5.059 c 2.945 0 5.336 -2.27 5.336 -5.059 c 0 -2.797 -2.391 -5.059 -5.336 -5.059 m 0 0" style="fill:#fff;fill-opacity:1;stroke:none;fill-rule:nonzero"/>
 </g>
</svg>
