<svg xmlns="http://www.w3.org/2000/svg" viewBox="0 0 64 64">
 <g>
  <path d="m 10.672 0 c -1.375 0 -2.672 1.355 -2.672 2.789 l 0 58.42 c 0 1.355 1.375 2.789 2.672 2.789 l 42.656 0 c 1.297 0 2.672 -1.434 2.672 -2.789 l 0 -43.21 l -18 -18 m -27.328 0" style="fill:#eb1a22;fill-opacity:1;stroke:none;fill-rule:nonzero"/>
  <path d="m 42 18 l 14 14 l 0 -14 m -14 0" style="fill:#000;fill-opacity:0.196;stroke:none;fill-rule:nonzero"/>
  <path d="m 38 0 l 17.984 18 l -15.227 0 c -1.348 0 -2.758 -1.426 -2.758 -2.773 m 0 -15.227" style="fill:#fff;fill-opacity:0.392;stroke:none;fill-rule:nonzero"/>
  <path d="m 23.13 33.719 c 1.031 0.047 2.164 0.703 3.01 1.266 c 2.469 1.641 4.445 4.367 4.055 7.492 c 0.367 -0.594 0.391 -1.461 0.391 -2.148 c 0 -2.195 -1.18 -4.453 -2.672 -5.984 c -0.492 -0.516 -1.016 -1.102 -1.664 -1.414 l 7.352 -8.703 l 1.766 -2.086 c 0.133 -0.164 0.586 -0.531 0.484 -0.773 c -0.086 -0.219 -0.508 -0.359 -0.711 -0.453 c -0.227 -0.102 -0.633 -0.32 -0.891 -0.227 c -0.25 0.094 -0.469 0.461 -0.641 0.664 l -1.352 1.578 l -6.359 7.461 l -1.883 2.203 c -0.297 0.352 -0.688 0.703 -0.883 1.125 m 0 0" style="fill:#fff;fill-opacity:1;stroke:none;fill-rule:nonzero"/>
  <path d="m 18.969 36.27 c 2.523 -2.688 4.758 -5.688 7.18 -8.477 l 3.055 -3.617 c 0.703 -0.805 1.539 -1.625 2.102 -2.539 c -0.367 -0.109 -1.203 -0.18 -1.555 0 c -0.375 0.188 -0.688 0.703 -0.961 1.016 l -1.742 1.977 c -0.25 0.305 -0.555 0.773 -0.906 0.961 c -0.516 0.258 -1.445 0.156 -2.01 0.172 l -2.055 0.164 c -1.531 0.109 -3.281 0.109 -4.04 1.758 c -0.609 1.313 -0.516 3.195 -0.578 4.625 c -0.125 3 -0.227 6.05 0.055 9.04 c 0.117 1.289 -0.023 2.922 0.633 4.07 c 0.641 1.125 1.875 1.367 3.039 1.477 c 2.258 0.211 4.961 0.148 6.781 -1.438 c 2.164 -1.883 1.859 -5.242 -0.109 -7.094 c -2.148 -2.031 -6.094 -3.055 -8.891 -2.094 m 0 0" style="fill:#fff;fill-opacity:1;stroke:none;fill-rule:nonzero"/>
  <path d="m 26.578 47.16 c 0.414 0.18 1.109 0.117 1.563 0.117 l 2.836 0.055 c 3.594 0 7.141 -0.227 10.727 -0.391 c 1.703 -0.078 3.625 -0.141 4.328 -2.039 c 0.453 -1.203 0.367 -2.742 0.453 -4.01 c 0.203 -2.938 0.281 -5.945 0.008 -8.875 c -0.133 -1.367 0.031 -3.078 -0.563 -4.344 c -0.914 -1.969 -3.688 -1.82 -5.508 -1.867 c -0.453 -0.016 -1.289 -0.281 -1.703 -0.078 c -0.313 0.148 -0.5 0.961 -0.648 1.266 l -1.609 3.555 c -1.906 4.211 -3.688 8.523 -5.75 12.656 c -0.805 1.602 -2.25 3.625 -4.133 3.953 m 0 0" style="fill:#fff;fill-opacity:1;stroke:none;fill-rule:nonzero"/>
 </g>
</svg>
