<svg xmlns="http://www.w3.org/2000/svg" viewBox="0 0 64 64">
 <path d="m 10.672 0 c -1.375 0 -2.672 1.355 -2.672 2.789 l 0 58.42 c 0 1.355 1.375 2.789 2.672 2.789 l 42.656 0 c 1.297 0 2.672 -1.434 2.672 -2.789 l 0 -43.21 -18 -18 m -27.328 0" style="fill:#757d32;fill-opacity:1;stroke:none;fill-rule:nonzero"/>
 <path d="m 42 18 14 14 0 -14 z m 0 0" style="fill:#000;fill-opacity:0.196;stroke:none;fill-rule:nonzero"/>
 <path d="m 38 0 17.984 18 -15.227 0 c -1.348 0 -2.758 -1.426 -2.758 -2.773 m 0 -15.227" style="fill:#fff;fill-opacity:0.392;stroke:none;fill-rule:nonzero"/>
 <path d="m 25.91 18 -1.91 20.09 4.88 -4.123 2.216 7.03 3.75 -1.172 -2.216 -7.03 6.37 0.605" style="visibility:visible;fill:#f9f9f9;fill-opacity:1;stroke:none;display:inline;color:#000;fill-rule:nonzero"/>
 <path d="m 8 48 0 13.336 c 0 1.297 1.375 2.664 2.664 2.664 l 42.672 0 c 1.289 0 2.664 -1.367 2.664 -2.664 l 0 -13.336 m -48 0" style="fill:#000;fill-opacity:0.196;stroke:none;fill-rule:nonzero"/>
 <path d="m 23.535 62 -0.463 -2 -3.072 0 -0.61 2 -2.39 0 c 0.548 -2.168 1.102 -4.141 1.662 -5.918 0.56 -1.789 1.102 -3.483 1.624 -5.082 l 2.502 0 c 0.548 1.611 1.089 3.323 1.624 5.136 c 0.548 1.801 1.077 3.756 1.587 5.864 m -4.519 -8.868 c -0.124 0.415 -0.243 0.812 -0.355 1.191 l -0.299 1.102 c -0.087 0.355 -0.174 0.717 -0.261 1.084 c -0.075 0.367 -0.259 1.1 -0.333 1.491 l 2.462 0 c -0.075 -0.391 -0.243 -1.124 -0.318 -1.491 -0.075 -0.367 -0.162 -0.729 -0.261 -1.084 -0.087 -0.367 -0.187 -0.735 -0.299 -1.102 -0.1 -0.379 -0.212 -0.776 -0.336 -1.191 z" style="fill:#fff;fill-opacity:1;stroke:none"/>
 <path d="m 34.06 62 q -0.824 -1.83 -1.804 -3.643 -0.961 -1.83 -2.078 -3.661 l 0 7.304 -2.176 0 l 0 -11 1.941 0 q 0.549 0.782 1.098 1.706 0.549 0.906 1.059 1.813 0.529 0.906 0.961 1.759 0.451 0.853 0.765 1.493 l 0 -6.771 2.176 0 l 0 11 -1.941 0 z" style="fill:#fff;fill-opacity:1;stroke:none"/>
 <path d="m 38.8 62 0 -2 2.2 0 0 -7 -2.2 0 0 -2 6.4 0 0 2 -2.2 0 0 7 2.2 0 0 2 z" style="fill:#fff;fill-opacity:1;stroke:none"/>
</svg>
