<svg xmlns="http://www.w3.org/2000/svg" viewBox="0 0 64 64">
 <g>
  <path d="m 10.672 0 c -1.375 0 -2.672 1.355 -2.672 2.789 l 0 58.42 c 0 1.355 1.375 2.789 2.672 2.789 l 42.656 0 c 1.297 0 2.672 -1.434 2.672 -2.789 l 0 -43.21 l -18 -18 m -27.328 0" style="fill:#7099c2;fill-opacity:1;stroke:none;fill-rule:nonzero"/>
  <path d="m 42 18 l 14 14 l 0 -14 m -14 0" style="fill:#000;fill-opacity:0.196;stroke:none;fill-rule:nonzero"/>
  <path d="m 38 0 l 17.984 18 l -15.227 0 c -1.348 0 -2.758 -1.426 -2.758 -2.773 m 0 -15.227" style="fill:#fff;fill-opacity:0.392;stroke:none;fill-rule:nonzero"/>
  <path d="m 22 28 l 0 2 l 20 0 l 0 -2 m -20 0" style="fill:#fff;fill-opacity:1;stroke:none;fill-rule:nonzero"/>
  <path d="m 21.11 32.672 l 0 2.227 l 22.21 0 l 0 -2.227 m -22.21 0" style="fill:#fff;fill-opacity:1;stroke:none;fill-rule:nonzero"/>
  <path d="m 22 38 l 0 2 l 20 0 l 0 -2 m -20 0" style="fill:#fff;fill-opacity:1;stroke:none;fill-rule:nonzero"/>
  <path d="m 31.344 22.68 l 0 22.21 l 1.746 0 l 0 -22.21 m -1.746 0" style="fill:#fff;fill-opacity:1;stroke:none;fill-rule:nonzero"/>
  <path d="m 20.44 33 c -1.997 -6 -1.997 -12 0 -18.01" transform="matrix(1.110795,0,0,1.110738,5.55697,7.126947)" style="stroke-opacity:1;fill:none;stroke-miterlimit:4;stroke:#fff;stroke-linecap:butt;stroke-linejoin:miter;stroke-width:2"/>
  <path d="m 27.466 33 c 2 -5 2 -12 0 -18.01" transform="matrix(1.110795,0,0,1.110738,5.55697,7.126947)" style="stroke-opacity:1;fill:none;stroke-miterlimit:4;stroke:#fff;stroke-linecap:butt;stroke-linejoin:miter;stroke-width:2"/>
  <path d="m 33.05 27.318 c 0 5.03 -4.076 9.102 -9.102 9.102 c -5.03 0 -9.102 -4.076 -9.102 -9.102 c 0 -5.03 4.076 -9.102 9.102 -9.102 c 5.03 0 9.102 4.076 9.102 9.102 m 0 0" transform="matrix(1.220113,0,0,1.220051,2.990299,0.456286)" style="stroke-opacity:1;fill:none;stroke-miterlimit:4;stroke:#fff;stroke-linecap:round;stroke-linejoin:miter;stroke-width:1.821"/>
  <path d="m 8 48 l 0 13.336 c 0 1.297 1.375 2.664 2.664 2.664 l 42.672 0 c 1.289 0 2.664 -1.367 2.664 -2.664 l 0 -13.336 m -48 0" style="fill:#000;fill-opacity:0.196;stroke:none;fill-rule:nonzero"/>
  <path d="m 20.11 56.55 c 0 0.531 0.023 1.031 0.059 1.496 c 0.059 0.457 0.148 0.855 0.281 1.195 c 0.141 0.344 0.34 0.609 0.59 0.809 c 0.258 0.199 0.59 0.297 1.016 0.297 c 0.414 0 0.746 -0.098 0.996 -0.297 c 0.266 -0.199 0.469 -0.465 0.602 -0.809 c 0.141 -0.355 0.23 -0.754 0.273 -1.211 c 0.051 -0.461 0.082 -0.949 0.082 -1.48 c 0 -0.527 -0.031 -1.016 -0.082 -1.473 c -0.043 -0.477 -0.133 -0.875 -0.273 -1.215 c -0.133 -0.34 -0.324 -0.605 -0.582 -0.809 c -0.25 -0.199 -0.594 -0.297 -1.016 -0.297 c -0.426 0 -0.758 0.098 -1.016 0.297 c -0.25 0.203 -0.449 0.477 -0.59 0.824 c -0.133 0.34 -0.223 0.742 -0.281 1.199 c -0.035 0.457 -0.059 0.945 -0.059 1.473 m -2.488 0 c 0 -1.871 0.391 -3.285 1.172 -4.234 c 0.781 -0.965 1.871 -1.438 3.262 -1.438 c 1.445 0 2.543 0.473 3.301 1.438 c 0.758 0.949 1.133 2.363 1.133 4.234 c 0 1.879 -0.383 3.293 -1.148 4.258 c -0.773 0.945 -1.855 1.422 -3.262 1.422 c -1.445 0 -2.551 -0.477 -3.316 -1.422 c -0.758 -0.965 -1.141 -2.379 -1.141 -4.258" style="fill:#fff;fill-opacity:1;stroke:none;fill-rule:nonzero"/>
  <path d="m 36.461 51.12 l 0 1.797 l -3.234 0 l 0 9.08 l -2.469 0 l 0 -9.08 l -3.234 0 l 0 -1.797 l 8.938 0" style="fill:#fff;fill-opacity:1;stroke:none;fill-rule:nonzero"/>
  <path d="m 46.01 51.12 l 0 10.879 l -2.445 0 l 0 -4.789 l -3.258 0 l 0 4.789 l -2.445 0 l 0 -10.879 l 2.445 0 l 0 4.293 l 3.258 0 l 0 -4.293 l 2.445 0" style="fill:#fff;fill-opacity:1;stroke:none;fill-rule:nonzero"/>
 </g>
</svg>
