<svg xmlns="http://www.w3.org/2000/svg" viewBox="0 0 64 64">
 <g>
  <path d="m 10.672 0 c -1.375 0 -2.672 1.355 -2.672 2.789 l 0 58.42 c 0 1.355 1.375 2.789 2.672 2.789 l 42.656 0 c 1.297 0 2.672 -1.434 2.672 -2.789 l 0 -43.21 l -18 -18 m -27.328 0" style="fill:#c19553;fill-opacity:1;stroke:none;fill-rule:nonzero"/>
  <path d="m 8 48 l 0 13.336 c 0 1.297 1.375 2.664 2.664 2.664 l 42.672 0 c 1.289 0 2.664 -1.367 2.664 -2.664 l 0 -13.336 m -48 0" style="fill:#000;fill-opacity:0.196;stroke:none;fill-rule:nonzero"/>
  <path d="m 26.679 50.988 0 1.815 -3.211 0 0 9.185 -2.441 0 0 -9.185 -3.219 0 0 -1.815 8.871 0" style="fill:#fff;fill-opacity:1;stroke:none;fill-rule:nonzero"/>
  <path d="m 42 18 l 14 14 l 0 -14 m -14 0" style="fill:#000;fill-opacity:0.196;stroke:none;fill-rule:nonzero"/>
  <path d="m 38 0 l 17.984 18 l -15.227 0 c -1.348 0 -2.758 -1.426 -2.758 -2.773 m 0 -15.227" style="fill:#fff;fill-opacity:0.392;stroke:none;fill-rule:nonzero"/>
  <path d="m 35.8 52.53 c -1.839 2.527 -3.509 5.085 -5.066 7.664 l 5.246 0 0 1.807 -8.04 0 0 -1.262 c 1.55 -2.755 3.286 -5.402 4.949 -7.923 l -4.695 0 0 -1.815 7.609 0 0 1.529" style="fill:#fff;fill-opacity:1;stroke:none;fill-rule:nonzero"/>
  <path d="m 18 0 l 6 0 l 0 6 l -6 0 m 0 -6" style="fill:#f9f9f9;fill-opacity:1;stroke:none;fill-rule:evenodd"/>
  <path d="m 24 6 l 6 0 l 0 6 l -6 0 m 0 -6" style="fill:#f9f9f9;fill-opacity:1;stroke:none;fill-rule:evenodd"/>
  <path d="m 18 12 l 6 0 l 0 6 l -6 0 m 0 -6" style="fill:#f9f9f9;fill-opacity:1;stroke:none;fill-rule:evenodd"/>
  <path d="m 24 18 l 6 0 l 0 6 l -6 0 m 0 -6" style="fill:#f9f9f9;fill-opacity:1;stroke:none;fill-rule:evenodd"/>
  <path d="m 18 24 l 6 0 l 0 6 l -6 0 m 0 -6" style="fill:#f9f9f9;fill-opacity:1;stroke:none;fill-rule:evenodd"/>
  <path d="m 18 32 l 12 0 l 0 12 l -12 0 m 0 -12" style="fill:#f9f9f9;fill-opacity:1;stroke:none;fill-rule:evenodd"/>
 </g>
 <path d="m 39.43 56.5 c 0 0.52 0.016 1.012 0.056 1.469 0.052 0.449 0.153 0.84 0.286 1.176 0.145 0.336 0.347 0.598 0.601 0.793 0.262 0.195 0.695 0.293 1.126 0.293 0.423 0 0.864 -0.098 1.118 -0.293 0.27 -0.195 0.472 -0.457 0.609 -0.793 0.141 -0.352 0.234 -0.742 0.278 -1.191 0.048 -0.449 0.081 -0.934 0.081 -1.453 0 -0.516 -0.032 -1 -0.081 -1.449 -0.044 -0.465 -0.137 -0.855 -0.278 -1.191 -0.137 -0.336 -0.331 -0.598 -0.593 -0.793 -0.254 -0.195 -0.703 -0.293 -1.134 -0.293 -0.431 0 -0.864 0.098 -1.126 0.293 -0.254 0.195 -0.456 0.465 -0.601 0.809 -0.133 0.336 -0.234 0.727 -0.286 1.176 -0.04 0.449 -0.056 0.934 -0.056 1.449 m -2.426 0 c 0 -1.84 0.399 -3.23 1.19 -4.16 0.794 -0.949 1.899 -1.414 3.306 -1.414 1.468 0 2.581 0.465 3.347 1.414 c 0.77 0.93 1.157 2.32 1.157 4.16 c 0 1.844 -0.395 3.234 -1.173 4.18 -0.782 0.934 -1.879 1.398 -3.306 1.398 -1.468 0 -2.589 -0.465 -3.371 -1.398 -0.77 -0.945 -1.149 -2.336 -1.149 -4.18" style="fill:#fff;fill-opacity:1;stroke:none;fill-rule:nonzero"/>
</svg>
