<svg xmlns="http://www.w3.org/2000/svg" viewBox="0 0 64 64">
 <g>
  <path d="m 10.672 0 c -1.375 0 -2.672 1.355 -2.672 2.789 l 0 58.42 c 0 1.355 1.375 2.789 2.672 2.789 l 42.656 0 c 1.297 0 2.672 -1.434 2.672 -2.789 l 0 -43.21 l -18 -18 m -27.328 0" style="fill:#c19553;fill-opacity:1;stroke:none;fill-rule:nonzero"/>
  <path d="m 8 48 l 0 13.336 c 0 1.297 1.375 2.664 2.664 2.664 l 42.672 0 c 1.289 0 2.664 -1.367 2.664 -2.664 l 0 -13.336 m -48 0" style="fill:#000;fill-opacity:0.196;stroke:none;fill-rule:nonzero"/>
  <path d="m 42 18 l 14 14 l 0 -14 m -14 0" style="fill:#000;fill-opacity:0.196;stroke:none;fill-rule:nonzero"/>
  <path d="m 25.707 62 l -7.707 0 l 0 -11.25 l 2.457 0 l 0 9.395 l 5.25 0 l 0 1.855" style="fill:#fff;fill-opacity:1;stroke:none;fill-rule:nonzero"/>
  <path d="m 38 0 l 17.984 18 l -15.227 0 c -1.348 0 -2.758 -1.426 -2.758 -2.773 m 0 -15.227" style="fill:#fff;fill-opacity:0.392;stroke:none;fill-rule:nonzero"/>
  <path d="m 35.516 50.75 l 0 11.25 l -2.434 0 l 0 -4.961 l -3.254 0 l 0 4.961 l -2.434 0 l 0 -11.25 l 2.434 0 l 0 4.434 l 3.254 0 l 0 -4.434 l 2.434 0" style="fill:#fff;fill-opacity:1;stroke:none;fill-rule:nonzero"/>
  <path d="m 18 0 l 6 0 l 0 6 l -6 0 m 0 -6" style="fill:#f9f9f9;fill-opacity:1;stroke:none;fill-rule:evenodd"/>
  <path d="m 43.516 62 l -0.566 -2.598 l -3.273 0 l -0.551 2.598 l -2.539 0 c 0.586 -2.219 1.168 -4.234 1.762 -6.05 c 0.594 -1.836 1.172 -3.566 1.723 -5.199 l 2.656 0 c 0.582 1.648 1.152 3.395 1.723 5.25 c 0.582 1.848 1.145 3.84 1.688 6 l -2.621 0 m -2.176 -9.07 c -0.133 0.43 -0.254 0.832 -0.379 1.219 c -0.105 0.379 -0.207 0.75 -0.313 1.129 c -0.09 0.363 -0.191 0.734 -0.281 1.105 c -0.074 0.379 -0.156 0.766 -0.238 1.172 l 2.398 0 c -0.074 -0.406 -0.156 -0.793 -0.238 -1.172 c -0.074 -0.371 -0.164 -0.742 -0.273 -1.105 c -0.098 -0.379 -0.195 -0.75 -0.32 -1.129 c -0.105 -0.387 -0.223 -0.789 -0.355 -1.219" style="fill:#fff;fill-opacity:1;stroke:none;fill-rule:nonzero"/>
  <path d="m 24 6 l 6 0 l 0 6 l -6 0 m 0 -6" style="fill:#f9f9f9;fill-opacity:1;stroke:none;fill-rule:evenodd"/>
  <path d="m 18 12 l 6 0 l 0 6 l -6 0 m 0 -6" style="fill:#f9f9f9;fill-opacity:1;stroke:none;fill-rule:evenodd"/>
  <path d="m 24 18 l 6 0 l 0 6 l -6 0 m 0 -6" style="fill:#f9f9f9;fill-opacity:1;stroke:none;fill-rule:evenodd"/>
  <path d="m 18 24 l 6 0 l 0 6 l -6 0 m 0 -6" style="fill:#f9f9f9;fill-opacity:1;stroke:none;fill-rule:evenodd"/>
  <path d="m 18 32 l 12 0 l 0 12 l -12 0 m 0 -12" style="fill:#f9f9f9;fill-opacity:1;stroke:none;fill-rule:evenodd"/>
 </g>
</svg>
