<svg xmlns="http://www.w3.org/2000/svg" viewBox="0 0 64 64">
 <g>
  <path d="m 10.672 0 c -1.375 0 -2.672 1.355 -2.672 2.789 l 0 58.42 c 0 1.355 1.375 2.789 2.672 2.789 l 42.656 0 c 1.297 0 2.672 -1.434 2.672 -2.789 l 0 -43.21 l -18 -18 m -27.328 0" style="fill:#dcdcdc;fill-opacity:1;stroke:none;fill-rule:nonzero"/>
  <path d="m 42 18 l 14 14 l 0 -14 m -14 0" style="fill:#000;fill-opacity:0.196;stroke:none;fill-rule:nonzero"/>
  <path d="m 38 0 l 17.984 18 l -15.227 0 c -1.348 0 -2.758 -1.426 -2.758 -2.773 m 0 -15.227" style="fill:#fff;fill-opacity:0.392;stroke:none;fill-rule:nonzero"/>
 </g>
 <g transform="translate(0,4.3389829)">
  <path d="m 16 32 7.109 -7.109 7.109 7.109 -7.109 7.109 m -7.109 -7.109" style="fill:#878787;fill-opacity:1;stroke:none;fill-rule:nonzero"/>
  <path d="M 24.890625,23.109375 32,16 39.109375,23.109375 32,30.21875 Z m 0,0" style="fill:#878787;fill-opacity:1;stroke:none;fill-rule:nonzero"/>
  <path d="m 33.781 32 7.109 -7.109 7.109 7.109 -7.109 7.109 m -7.109 -7.109" style="fill:#878787;fill-opacity:1;stroke:none;fill-rule:nonzero"/>
  <path d="M 24.890625,40.890625 32,33.78125 39.109375,40.890625 32,48 Z m 0,0" style="fill:#878787;fill-opacity:1;stroke:none;fill-rule:nonzero"/>
 </g>
</svg>
