<svg xmlns="http://www.w3.org/2000/svg" viewBox="0 0 64 64">
 <g>
  <path d="m 10.672 0 c -1.375 0 -2.672 1.355 -2.672 2.789 l 0 58.42 c 0 1.355 1.375 2.789 2.672 2.789 l 42.656 0 c 1.297 0 2.672 -1.434 2.672 -2.789 l 0 -43.21 l -18 -18 m -27.328 0" style="fill:#c19553;fill-opacity:1;stroke:none;fill-rule:nonzero"/>
  <path d="m 8 48 l 0 13.336 c 0 1.297 1.375 2.664 2.664 2.664 l 42.672 0 c 1.289 0 2.664 -1.367 2.664 -2.664 l 0 -13.336 m -48 0" style="fill:#000;fill-opacity:0.196;stroke:none;fill-rule:nonzero"/>
  <path d="m 42 18 l 14 14 l 0 -14 m -14 0" style="fill:#000;fill-opacity:0.196;stroke:none;fill-rule:nonzero"/>
  <path d="m 23.22 62 c -1.695 0 -2.984 -0.484 -3.879 -1.461 c -0.895 -0.965 -1.344 -2.344 -1.344 -4.141 c 0 -0.887 0.141 -1.68 0.41 -2.371 c 0.27 -0.695 0.648 -1.277 1.125 -1.754 c 0.492 -0.484 1.074 -0.844 1.73 -1.09 c 0.672 -0.254 1.402 -0.379 2.188 -0.379 c 0.438 0 0.813 0.031 1.148 0.098 c 0.352 0.059 0.656 0.133 0.91 0.215 c 0.262 0.082 0.477 0.164 0.648 0.254 c 0.18 0.098 0.313 0.164 0.402 0.215 l -0.625 1.695 c -0.293 -0.172 -0.656 -0.32 -1.082 -0.434 c -0.418 -0.125 -0.895 -0.188 -1.434 -0.188 c -0.379 0 -0.746 0.063 -1.109 0.188 c -0.352 0.113 -0.664 0.32 -0.949 0.605 c -0.27 0.281 -0.5 0.656 -0.68 1.125 c -0.176 0.477 -0.258 1.066 -0.258 1.77 c 0 1.223 0.238 2.168 0.699 2.824 c 0.484 0.648 1.262 0.973 2.328 0.973 c 0.625 0 1.141 -0.063 1.535 -0.188 c 0.418 -0.129 0.746 -0.254 0.992 -0.383 l 0.605 1.68 c -0.336 0.188 -0.793 0.359 -1.375 0.523 c -0.574 0.148 -1.23 0.223 -1.988 0.223" style="fill:#fff;fill-opacity:1;stroke:none;fill-rule:nonzero"/>
  <path d="m 38 0 l 17.984 18 l -15.227 0 c -1.348 0 -2.758 -1.426 -2.758 -2.773 m 0 -15.227" style="fill:#fff;fill-opacity:0.392;stroke:none;fill-rule:nonzero"/>
  <path d="m 34.16 61.777 l -0.566 -2.484 l -3.199 0 l -0.547 2.484 l -2.484 0 c 0.574 -2.113 1.148 -4.04 1.73 -5.773 c 0.582 -1.746 1.148 -3.402 1.688 -4.961 l 2.602 0 c 0.574 1.574 1.129 3.238 1.688 5.01 c 0.566 1.754 1.125 3.664 1.648 5.723 l -2.559 0 m -2.141 -8.652 c -0.121 0.402 -0.246 0.789 -0.367 1.156 c -0.098 0.363 -0.207 0.723 -0.305 1.082 c -0.098 0.348 -0.188 0.699 -0.277 1.051 c -0.074 0.363 -0.156 0.73 -0.23 1.117 l 2.344 0 c -0.074 -0.387 -0.156 -0.754 -0.227 -1.117 c -0.074 -0.352 -0.176 -0.703 -0.273 -1.051 c -0.09 -0.359 -0.195 -0.719 -0.313 -1.082 c -0.105 -0.367 -0.219 -0.754 -0.352 -1.156" style="fill:#fff;fill-opacity:1;stroke:none;fill-rule:nonzero"/>
  <path d="m 18 0 l 6 0 l 0 6 l -6 0 m 0 -6" style="fill:#f9f9f9;fill-opacity:1;stroke:none;fill-rule:evenodd"/>
  <path d="m 46 58.53 c 0 0.648 -0.121 1.188 -0.367 1.633 c -0.246 0.426 -0.586 0.77 -1.012 1.039 c -0.418 0.254 -0.918 0.438 -1.5 0.551 c -0.566 0.105 -1.18 0.156 -1.844 0.156 c -0.527 0 -1.074 -0.023 -1.648 -0.082 c -0.566 -0.051 -1.133 -0.125 -1.691 -0.23 l 0 -10.414 c 0.461 -0.066 0.953 -0.125 1.5 -0.172 c 0.543 -0.059 1.074 -0.094 1.609 -0.094 c 0.91 0 1.641 0.094 2.215 0.266 c 0.566 0.164 1.016 0.383 1.336 0.656 c 0.328 0.27 0.551 0.574 0.664 0.902 c 0.113 0.336 0.172 0.672 0.172 1.01 c 0 0.508 -0.141 0.957 -0.426 1.352 c -0.27 0.395 -0.641 0.707 -1.105 0.938 c 0.809 0.262 1.367 0.621 1.648 1.074 c 0.301 0.449 0.449 0.926 0.449 1.418 m -5.676 -1.453 l 0 2.914 c 0.172 0.023 0.352 0.039 0.551 0.047 c 0.203 0.016 0.402 0.016 0.598 0.016 c 0.27 0 0.543 -0.016 0.797 -0.047 c 0.262 -0.051 0.484 -0.125 0.68 -0.23 c 0.203 -0.113 0.379 -0.27 0.508 -0.469 c 0.125 -0.203 0.188 -0.465 0.188 -0.777 c 0 -0.516 -0.188 -0.887 -0.555 -1.109 c -0.371 -0.227 -0.863 -0.344 -1.477 -0.344 l -1.289 0 m 0.934 -1.77 c 0.609 0 1.066 -0.117 1.379 -0.344 c 0.313 -0.246 0.469 -0.574 0.469 -0.992 c 0 -0.258 -0.051 -0.453 -0.141 -0.609 c -0.09 -0.156 -0.211 -0.277 -0.367 -0.359 c -0.148 -0.09 -0.336 -0.148 -0.543 -0.172 c -0.203 -0.035 -0.418 -0.051 -0.641 -0.051 c -0.18 0 -0.367 0 -0.566 0.016 c -0.188 0.008 -0.367 0.027 -0.523 0.051 l 0 2.461 l 0.934 0" style="fill:#fff;fill-opacity:1;stroke:none;fill-rule:nonzero"/>
  <path d="m 24 6 l 6 0 l 0 6 l -6 0 m 0 -6" style="fill:#f9f9f9;fill-opacity:1;stroke:none;fill-rule:evenodd"/>
  <path d="m 18 12 l 6 0 l 0 6 l -6 0 m 0 -6" style="fill:#f9f9f9;fill-opacity:1;stroke:none;fill-rule:evenodd"/>
  <path d="m 24 18 l 6 0 l 0 6 l -6 0 m 0 -6" style="fill:#f9f9f9;fill-opacity:1;stroke:none;fill-rule:evenodd"/>
  <path d="m 18 24 l 6 0 l 0 6 l -6 0 m 0 -6" style="fill:#f9f9f9;fill-opacity:1;stroke:none;fill-rule:evenodd"/>
  <path d="m 18 32 l 12 0 l 0 12 l -12 0 m 0 -12" style="fill:#f9f9f9;fill-opacity:1;stroke:none;fill-rule:evenodd"/>
 </g>
</svg>
