<svg xmlns="http://www.w3.org/2000/svg" viewBox="0 0 64 64">
 <g>
  <path d="m 10.672 0 c -1.375 0 -2.672 1.355 -2.672 2.789 l 0 58.42 c 0 1.355 1.375 2.789 2.672 2.789 l 42.656 0 c 1.297 0 2.672 -1.434 2.672 -2.789 l 0 -43.21 l -18 -18 m -27.328 0" style="fill:#e5b819;fill-opacity:1;stroke:none;fill-rule:nonzero"/>
  <path d="m 42 18 l 14 14 l 0 -14 m -14 0" style="fill:#000;fill-opacity:0.196;stroke:none;fill-rule:nonzero"/>
  <path d="m 38 0 l 17.984 18 l -15.227 0 c -1.348 0 -2.758 -1.426 -2.758 -2.773 m 0 -15.227" style="fill:#fff;fill-opacity:0.392;stroke:none;fill-rule:nonzero"/>
 </g>
 <g transform="matrix(4,0,0,3.9327729,0,-1.1260477)">
  <path d="m 8 6.389 c -1.887 0 -3.5 1.407 -3.5 3.306 c 0 1.653 1.165 2.892 2.411 3.306 -0.828 -0.569 -1.588 -1.653 -1.588 -2.892 c 0 -1.428 1.029 -2.479 2.227 -2.479 1.118 0 1.886 1.069 1.89 2.066 0 0.7 -0.572 1.275 -1.029 1.653 0.824 0 1.853 -0.684 1.853 -2.066 c 0 -1.24 -1.029 -2.892 -2.265 -2.892" style="fill:#fff;fill-opacity:1;stroke:none;fill-rule:evenodd"/>
  <path d="m 8 13 c 1.887 0 3.5 -1.407 3.5 -3.306 0 -1.653 -1.165 -2.892 -2.411 -3.306 0.828 0.569 1.588 1.653 1.588 2.892 0 1.428 -1.029 2.479 -2.227 2.479 -1.118 0 -1.886 -1.069 -1.89 -2.066 0 -0.7 0.572 -1.275 1.029 -1.653 -0.824 0 -1.853 0.684 -1.853 2.066 c 0 1.24 1.029 2.892 2.265 2.892" style="fill:#fff;fill-opacity:1;stroke:none;fill-rule:evenodd"/>
 </g>
</svg>
