<svg xmlns="http://www.w3.org/2000/svg" viewBox="0 0 64 64">
 <path d="m 10.672 0 c -1.375 0 -2.672 1.355 -2.672 2.789 l 0 58.42 c 0 1.355 1.375 2.789 2.672 2.789 l 42.656 0 c 1.297 0 2.672 -1.434 2.672 -2.789 l 0 -43.21 -18 -18 m -27.328 0" style="fill:#a6a6a6;fill-opacity:1;stroke:none;fill-rule:nonzero"/>
 <path d="m 42 18 14 14 0 -14 z m 0 0" style="fill:#000;fill-opacity:0.196;stroke:none;fill-rule:nonzero"/>
 <path d="m 38 0 17.984 18 -15.227 0 c -1.348 0 -2.758 -1.426 -2.758 -2.773 m 0 -15.227" style="fill:#fff;fill-opacity:0.392;stroke:none;fill-rule:nonzero"/>
 <path d="m 8 48 0 13.336 c 0 1.297 1.375 2.664 2.664 2.664 l 42.672 0 c 1.289 0 2.664 -1.367 2.664 -2.664 l 0 -13.336 m -48 0" style="fill:#000;fill-opacity:0.196;stroke:none;fill-rule:nonzero"/>
 <g transform="translate(5,0)">
  <path d="m 23.22 52.822 q -0.805 0 -1.355 0.272 -0.549 0.272 -0.915 0.766 -0.348 0.477 -0.513 1.158 -0.146 0.664 -0.146 1.481 0 1.89 0.641 2.793 0.641 0.885 1.886 0.885 0.201 0 0.439 -0.017 0.238 -0.017 0.439 -0.051 l 0 -3.848 2.252 0 0 5.262 q -0.403 0.136 -1.263 0.307 -0.842 0.17 -2.05 0.17 -1.062 0 -1.922 -0.341 q -0.842 -0.358 -1.446 -1.039 -0.604 -0.698 -0.934 -1.72 -0.33 -1.039 -0.33 -2.401 q 0 -1.345 0.384 -2.367 0.384 -1.039 1.043 -1.737 0.659 -0.698 1.556 -1.039 0.897 -0.358 1.922 -0.358 0.659 0 1.172 0.102 0.531 0.085 0.915 0.204 0.384 0.119 0.622 0.255 q 0.256 0.136 0.384 0.204 l -0.586 1.669 q -0.403 -0.238 -0.989 -0.426 -0.586 -0.187 -1.208 -0.187" style="fill:#fff;fill-opacity:1;stroke:none"/>
  <path d="m 36 58.62 q 0 0.972 -0.366 1.631 -0.366 0.642 -1 1.041 -0.617 0.382 -1.484 0.555 q -0.848 0.156 -1.831 0.156 -0.79 0 -1.639 -0.087 -0.848 -0.069 -1.677 -0.226 l 0 -10.427 q 0.675 -0.104 1.484 -0.174 q 0.81 -0.087 1.6 -0.087 q 1.349 0 2.198 0.26 0.848 0.243 1.33 0.659 0.482 0.399 0.655 0.902 0.173 0.503 0.173 1.01 0 0.763 -0.424 1.353 -0.405 0.59 -1.099 0.937 1.214 0.399 1.639 1.076 q 0.443 0.677 0.443 1.423 m -5.629 -1.457 0 2.915 q 0.251 0.035 0.54 0.052 0.308 0.017 0.598 0.017 0.405 0 0.79 -0.052 0.386 -0.069 0.675 -0.226 0.308 -0.174 0.501 -0.468 0.193 -0.312 0.193 -0.781 0 -0.781 -0.559 -1.11 -0.54 -0.347 -1.465 -0.347 l -1.272 0 z m 0.925 -1.77 q 0.906 0 1.369 -0.347 0.463 -0.364 0.463 -0.989 0 -0.382 -0.135 -0.607 -0.135 -0.243 -0.366 -0.364 -0.231 -0.139 -0.54 -0.174 -0.308 -0.052 -0.636 -0.052 -0.27 0 -0.559 0.017 -0.289 0.017 -0.52 0.052 l 0 2.464 0.925 0 z" style="fill:#fff;fill-opacity:1;stroke:none"/>
 </g>
 <path d="m 38.462 29.922 a 1.077 1.098 0 0 1 -1.077 1.098 1.077 1.098 0 0 1 -1.077 -1.098 1.077 1.098 0 0 1 1.077 -1.098 1.077 1.098 0 0 1 1.077 1.098 z m 2.154 2.196 a 1.077 1.098 0 0 1 -1.077 1.098 1.077 1.098 0 0 1 -1.077 -1.098 1.077 1.098 0 0 1 1.077 -1.098 1.077 1.098 0 0 1 1.077 1.098 z m 2.154 -2.196 a 1.077 1.098 0 0 1 -1.077 1.098 1.077 1.098 0 0 1 -1.077 -1.098 1.077 1.098 0 0 1 1.077 -1.098 1.077 1.098 0 0 1 1.077 1.098 z m -2.154 -2.196 a 1.077 1.098 0 0 1 -1.077 1.098 1.077 1.098 0 0 1 -1.077 -1.098 1.077 1.098 0 0 1 1.077 -1.098 1.077 1.098 0 0 1 1.077 1.098 z m -14 2.196 a 2.154 2.196 0 0 1 -2.154 2.196 2.154 2.196 0 0 1 -2.154 -2.196 2.154 2.196 0 0 1 2.154 -2.196 2.154 2.196 0 0 1 2.154 2.196 z m -1.904 -7.683 c -0.775 0.032 -1.412 0.371 -1.851 0.71 C 20.266 24.955 18 33.33 18 37.757 c 0 4.43 0.999 4.242 1.866 4.242 0.867 0 1.956 -0.608 2.909 -1.463 2.629 -2.36 3.841 -5.124 6.455 -5.124 l 5.54 0 c 2.615 0 3.826 2.764 6.455 5.124 0.952 0.855 2.042 1.463 2.909 1.463 C 45 41.999 46 42.19 46 37.757 46 33.33 43.734 24.955 41.14 22.948 40.44 22.405 39.23 21.864 37.757 22.577 36.77 23.06 35.889 23.333 34.6 23.333 l -5.2 0 c -1.289 0 -2.171 -0.278 -3.157 -0.756 -0.552 -0.267 -1.067 -0.358 -1.531 -0.339 z" style="fill:#fff;opacity:1;fill-opacity:1;stroke:none;fill-rule:nonzero"/>
</svg>
