<svg xmlns="http://www.w3.org/2000/svg" viewBox="0 0 64 64">
 <path d="m 10.672 0 c -1.375 0 -2.672 1.355 -2.672 2.789 l 0 58.42 c 0 1.355 1.375 2.789 2.672 2.789 l 42.656 0 c 1.297 0 2.672 -1.434 2.672 -2.789 l 0 -43.21 -18 -18 m -27.328 0" style="fill:#a6a6a6;fill-opacity:1;stroke:none;fill-rule:nonzero"/>
 <path d="m 42 18 14 14 0 -14 z m 0 0" style="fill:#000;fill-opacity:0.196;stroke:none;fill-rule:nonzero"/>
 <path d="m 38 0 17.984 18 -15.227 0 c -1.348 0 -2.758 -1.426 -2.758 -2.773 m 0 -15.227" style="fill:#fff;fill-opacity:0.392;stroke:none;fill-rule:nonzero"/>
 <path d="m 31.997 20 c -8.811 0 -15.997 7.164 -15.997 16 0 8.836 7.186 16 15.997 16 8.818 0 16 -7.164 16 -16 0 -8.836 -7.188 -16 -16 -16 m 0 2.02 c 7.769 0 14.02 6.261 14.02 13.981 0 7.72 -6.253 13.981 -14.02 13.981 -7.764 0 -14.02 -6.261 -14.02 -13.981 0 -7.72 6.255 -13.981 14.02 -13.981 z m 0.456 1.993 c -1.129 0 -2.258 0.431 -3.123 1.295 l -8.03 8.02 c -1.731 1.728 -1.731 4.509 0 6.238 1.731 1.728 4.516 1.728 6.247 0 l 8.03 -8.02 c 1.731 -1.728 1.731 -4.509 0 -6.238 -0.863 -0.864 -1.992 -1.295 -3.121 -1.295 z m 0 0.632 c 0.969 0 1.939 0.369 2.679 1.109 1.482 1.478 1.482 3.875 0 5.353 -1.486 1.478 -3.883 1.478 -5.358 0 -1.477 -1.474 -1.477 -3.871 0 -5.353 0.741 -0.739 1.71 -1.109 2.679 -1.109 z m 7.139 6.494 c -1.128 0 -2.258 0.431 -3.123 1.295 l -8.03 8.02 c -1.731 1.728 -1.731 4.509 0 6.238 1.731 1.728 4.519 1.728 6.25 0 l 8.03 -8.02 c 1.731 -1.728 1.731 -4.513 0 -6.241 -0.865 -0.864 -1.995 -1.295 -3.123 -1.295 z m 0 0.638 c 0.969 0 1.94 0.369 2.682 1.106 1.477 1.487 1.477 3.872 0 5.351 -1.482 1.474 -3.878 1.474 -5.358 0 -1.477 -1.487 -1.477 -3.872 0 -5.351 0.739 -0.737 1.707 -1.106 2.676 -1.106 z m -15.17 0.893 c 0.969 0 1.937 0.369 2.679 1.109 1.477 1.474 1.477 3.868 0 5.351 -1.489 1.478 -3.883 1.478 -5.355 0 -1.482 -1.478 -1.482 -3.872 0 -5.351 0.739 -0.739 1.707 -1.109 2.676 -1.109 z m 7.139 7.125 c 0.968 0 1.934 0.369 2.67 1.109 1.482 1.478 1.482 3.872 0 5.351 -1.477 1.487 -3.873 1.487 -5.346 0 -1.482 -1.474 -1.482 -3.868 0 -5.351 0.739 -0.739 1.708 -1.109 2.676 -1.109 z" style="fill:#fff;fill-opacity:1;stroke:none;fill-rule:nonzero"/>
</svg>
