<svg xmlns="http://www.w3.org/2000/svg" viewBox="0 0 64 64">
 <g>
  <path d="m 10.672 0 c -1.375 0 -2.672 1.355 -2.672 2.789 l 0 58.42 c 0 1.355 1.375 2.789 2.672 2.789 l 42.656 0 c 1.297 0 2.672 -1.434 2.672 -2.789 l 0 -43.21 l -18 -18 m -27.328 0" style="fill:#a33638;fill-opacity:1;stroke:none;fill-rule:nonzero"/>
  <path d="m 8 48 l 0 13.336 c 0 1.297 1.375 2.664 2.664 2.664 l 42.672 0 c 1.289 0 2.664 -1.367 2.664 -2.664 l 0 -13.336 m -48 0" style="fill:#000;fill-opacity:0.196;stroke:none;fill-rule:nonzero"/>
  <path d="m 20.555 59.832 l -0.383 -1.832 l -2.141 0 l -0.367 1.832 l -1.664 0 c 0.383 -1.563 0.766 -2.984 1.156 -4.266 c 0.391 -1.293 0.766 -2.516 1.133 -3.668 l 1.742 0 c 0.383 1.164 0.758 2.395 1.133 3.703 c 0.383 1.301 0.75 2.711 1.109 4.23 l -1.719 0 m -1.43 -6.395 c -0.086 0.297 -0.172 0.582 -0.25 0.855 c -0.07 0.266 -0.141 0.535 -0.211 0.793 c -0.055 0.262 -0.117 0.523 -0.18 0.785 c -0.055 0.266 -0.102 0.539 -0.156 0.824 l 1.578 0 c -0.055 -0.285 -0.109 -0.559 -0.156 -0.824 c -0.055 -0.262 -0.117 -0.523 -0.188 -0.785 c -0.063 -0.258 -0.125 -0.527 -0.203 -0.793 c -0.07 -0.273 -0.148 -0.559 -0.234 -0.855" style="fill:#fff;fill-opacity:1;stroke:none;fill-rule:nonzero"/>
  <path d="m 26.23 60 c -1.133 0 -2 -0.359 -2.602 -1.078 c -0.594 -0.719 -0.898 -1.734 -0.898 -3.063 c 0 -0.656 0.094 -1.246 0.273 -1.754 c 0.188 -0.516 0.438 -0.945 0.758 -1.297 c 0.328 -0.359 0.719 -0.625 1.156 -0.809 c 0.453 -0.188 0.945 -0.277 1.469 -0.277 c 0.289 0 0.547 0.023 0.773 0.07 c 0.234 0.043 0.438 0.098 0.609 0.16 c 0.172 0.059 0.313 0.121 0.43 0.188 c 0.117 0.07 0.211 0.121 0.273 0.156 l -0.422 1.254 c -0.195 -0.125 -0.438 -0.234 -0.727 -0.32 c -0.273 -0.09 -0.594 -0.141 -0.961 -0.141 c -0.25 0 -0.5 0.051 -0.742 0.141 c -0.234 0.086 -0.445 0.238 -0.633 0.449 c -0.188 0.207 -0.336 0.484 -0.461 0.832 c -0.109 0.352 -0.164 0.789 -0.164 1.309 c 0 0.906 0.156 1.602 0.469 2.086 c 0.32 0.48 0.836 0.723 1.555 0.723 c 0.422 0 0.758 -0.047 1.031 -0.141 c 0.273 -0.094 0.5 -0.188 0.664 -0.285 l 0.398 1.246 c -0.219 0.137 -0.531 0.266 -0.922 0.383 c -0.383 0.113 -0.82 0.168 -1.328 0.168" style="fill:#fff;fill-opacity:1;stroke:none;fill-rule:nonzero"/>
  <path d="m 32.742 60 c -1.141 0 -2.01 -0.359 -2.602 -1.078 c -0.602 -0.719 -0.898 -1.734 -0.898 -3.063 c 0 -0.656 0.094 -1.246 0.273 -1.754 c 0.18 -0.516 0.43 -0.945 0.758 -1.297 c 0.328 -0.359 0.711 -0.625 1.156 -0.809 c 0.445 -0.188 0.938 -0.277 1.469 -0.277 c 0.289 0 0.539 0.023 0.766 0.07 c 0.234 0.043 0.438 0.098 0.609 0.16 c 0.18 0.059 0.32 0.121 0.43 0.188 c 0.125 0.07 0.219 0.121 0.273 0.156 l -0.414 1.254 c -0.203 -0.125 -0.445 -0.234 -0.727 -0.32 c -0.281 -0.09 -0.602 -0.141 -0.961 -0.141 c -0.258 0 -0.5 0.051 -0.742 0.141 c -0.234 0.086 -0.453 0.238 -0.641 0.449 c -0.18 0.207 -0.336 0.484 -0.453 0.832 c -0.117 0.352 -0.172 0.789 -0.172 1.309 c 0 0.906 0.156 1.602 0.469 2.086 c 0.32 0.48 0.844 0.723 1.563 0.723 c 0.414 0 0.758 -0.047 1.023 -0.141 c 0.281 -0.094 0.5 -0.188 0.664 -0.285 l 0.406 1.246 c -0.227 0.137 -0.531 0.266 -0.922 0.383 c -0.383 0.113 -0.828 0.168 -1.328 0.168" style="fill:#fff;fill-opacity:1;stroke:none;fill-rule:nonzero"/>
  <path d="m 37.695 58.55 c 0.047 0.012 0.094 0.012 0.148 0.012 c 0.047 0 0.094 0 0.141 0 c 0.367 0 0.664 -0.066 0.906 -0.207 c 0.258 -0.133 0.453 -0.32 0.602 -0.563 c 0.156 -0.238 0.266 -0.523 0.328 -0.844 c 0.07 -0.332 0.102 -0.699 0.102 -1.09 c 0 -0.34 -0.023 -0.676 -0.078 -1 c -0.055 -0.32 -0.141 -0.605 -0.273 -0.855 c -0.133 -0.246 -0.305 -0.441 -0.531 -0.586 c -0.227 -0.16 -0.516 -0.23 -0.875 -0.23 c -0.07 0 -0.148 0 -0.234 0.012 c -0.086 0 -0.164 0.004 -0.234 0.023 l 0 5.332 m 3.852 -2.695 c 0 0.734 -0.094 1.367 -0.289 1.887 c -0.18 0.516 -0.438 0.938 -0.766 1.258 c -0.328 0.328 -0.719 0.563 -1.18 0.715 c -0.453 0.145 -0.953 0.219 -1.5 0.219 c -0.281 0 -0.563 -0.012 -0.844 -0.051 c -0.266 -0.023 -0.563 -0.07 -0.875 -0.137 l 0 -7.746 c 0.367 -0.078 0.711 -0.129 1.031 -0.152 c 0.32 -0.023 0.617 -0.043 0.898 -0.043 c 0.531 0 1.01 0.078 1.445 0.23 c 0.438 0.16 0.813 0.402 1.117 0.734 c 0.305 0.32 0.539 0.746 0.703 1.258 c 0.172 0.5 0.258 1.113 0.258 1.832" style="fill:#fff;fill-opacity:1;stroke:none;fill-rule:nonzero"/>
  <path d="m 48 57.43 c 0 0.48 -0.086 0.879 -0.25 1.207 c -0.164 0.316 -0.391 0.57 -0.672 0.77 c -0.281 0.191 -0.609 0.324 -1 0.406 c -0.383 0.082 -0.797 0.117 -1.242 0.117 c -0.352 0 -0.719 -0.02 -1.102 -0.063 c -0.383 -0.035 -0.758 -0.09 -1.133 -0.168 l 0 -7.703 c 0.305 -0.047 0.641 -0.09 1 -0.129 c 0.367 -0.039 0.727 -0.066 1.078 -0.066 c 0.609 0 1.102 0.066 1.484 0.195 c 0.383 0.121 0.68 0.285 0.898 0.484 c 0.219 0.199 0.367 0.418 0.445 0.668 c 0.078 0.25 0.117 0.496 0.117 0.746 c 0 0.375 -0.102 0.711 -0.289 1 c -0.18 0.293 -0.43 0.523 -0.742 0.691 c 0.547 0.195 0.914 0.461 1.109 0.797 c 0.195 0.332 0.297 0.684 0.297 1.047 m -3.797 -1.074 l 0 2.156 c 0.109 0.016 0.234 0.027 0.359 0.035 c 0.141 0.012 0.273 0.012 0.406 0.012 c 0.18 0 0.359 -0.012 0.531 -0.035 c 0.172 -0.039 0.328 -0.094 0.461 -0.172 c 0.133 -0.086 0.25 -0.199 0.336 -0.344 c 0.086 -0.152 0.133 -0.348 0.133 -0.578 c 0 -0.383 -0.133 -0.652 -0.383 -0.816 c -0.242 -0.172 -0.57 -0.258 -0.984 -0.258 l -0.859 0 m 0.625 -1.309 c 0.406 0 0.711 -0.086 0.922 -0.254 c 0.211 -0.184 0.313 -0.426 0.313 -0.734 c 0 -0.188 -0.031 -0.332 -0.094 -0.449 c -0.063 -0.113 -0.141 -0.207 -0.242 -0.266 c -0.109 -0.066 -0.227 -0.109 -0.367 -0.129 c -0.141 -0.023 -0.281 -0.035 -0.43 -0.035 c -0.125 0 -0.25 0 -0.375 0.012 c -0.133 0.004 -0.25 0.02 -0.352 0.035 l 0 1.82 l 0.625 0" style="fill:#fff;fill-opacity:1;stroke:none;fill-rule:nonzero"/>
  <path d="m 42 18 l 14 14 l 0 -14 m -14 0" style="fill:#000;fill-opacity:0.196;stroke:none;fill-rule:nonzero"/>
  <path d="m 38 0 l 17.984 18 l -15.227 0 c -1.348 0 -2.758 -1.426 -2.758 -2.773 m 0 -15.227" style="fill:#fff;fill-opacity:0.392;stroke:none;fill-rule:nonzero"/>
  <path d="m 32 21.992 c -5.523 0 -10 1.398 -10 3.129 l 0 2.496 c 0 1.73 4.477 3.129 10 3.129 c 5.523 0 10 -1.398 10 -3.129 l 0 -2.496 c 0 -1.73 -4.477 -3.129 -10 -3.129 m 0 0" style="fill:#fff;fill-opacity:1;stroke:none;fill-rule:nonzero"/>
  <path d="m 31.969 31.992 c -4.48 0 -8.254 -0.914 -9.527 -2.184 c -0.301 0.293 -0.441 0.609 -0.441 0.938 l 0 2.5 c 0 1.727 4.477 3.129 10 3.129 c 5.523 0 10 -1.402 10 -3.129 l 0 -2.5 c 0 -0.328 -0.176 -0.645 -0.469 -0.938 c -1.273 1.27 -5.086 2.184 -9.563 2.184 m 0 0" style="fill:#fff;fill-opacity:1;stroke:none;fill-rule:nonzero"/>
  <path d="m 31.969 37.617 c -4.48 0 -8.254 -0.914 -9.527 -2.18 c -0.301 0.293 -0.441 0.605 -0.441 0.938 l 0 2.496 c 0 1.73 4.477 3.129 10 3.129 c 5.523 0 10 -1.398 10 -3.129 l 0 -2.496 c 0 -0.332 -0.176 -0.645 -0.469 -0.938 c -1.273 1.266 -5.086 2.18 -9.563 2.18 m 0 0" style="fill:#fff;fill-opacity:1;stroke:none;fill-rule:nonzero"/>
 </g>
</svg>
