<svg xmlns="http://www.w3.org/2000/svg" viewBox="0 0 64 64">
 <g>
  <path d="m 10.672 0 c -1.375 0 -2.672 1.355 -2.672 2.789 l 0 58.42 c 0 1.355 1.375 2.789 2.672 2.789 l 42.656 0 c 1.297 0 2.672 -1.434 2.672 -2.789 l 0 -43.21 l -18 -18 m -27.328 0" style="fill:#a33638;fill-opacity:1;stroke:none;fill-rule:nonzero"/>
  <path d="m 8 48 l 0 13.336 c 0 1.297 1.375 2.664 2.664 2.664 l 42.672 0 c 1.289 0 2.664 -1.367 2.664 -2.664 l 0 -13.336 m -48 0" style="fill:#000;fill-opacity:0.196;stroke:none;fill-rule:nonzero"/>
  <path d="m 42 18 l 14 14 l 0 -14 m -14 0" style="fill:#000;fill-opacity:0.196;stroke:none;fill-rule:nonzero"/>
  <path d="m 20.613 56.22 c 0 0.535 0.027 1.039 0.059 1.508 c 0.059 0.461 0.152 0.867 0.277 1.211 c 0.152 0.344 0.344 0.609 0.598 0.813 c 0.25 0.199 0.594 0.301 1.012 0.301 c 0.41 0 0.746 -0.102 1 -0.301 c 0.258 -0.203 0.461 -0.469 0.594 -0.813 c 0.141 -0.363 0.234 -0.766 0.277 -1.227 c 0.051 -0.461 0.074 -0.957 0.074 -1.492 c 0 -0.527 -0.023 -1.023 -0.074 -1.484 c -0.043 -0.477 -0.137 -0.879 -0.277 -1.223 c -0.133 -0.344 -0.328 -0.613 -0.578 -0.813 c -0.25 -0.203 -0.586 -0.305 -1.016 -0.305 c -0.418 0 -0.762 0.102 -1.012 0.305 c -0.254 0.199 -0.445 0.477 -0.598 0.828 c -0.125 0.344 -0.219 0.746 -0.277 1.207 c -0.031 0.461 -0.059 0.957 -0.059 1.484 m -2.48 0 c 0 -1.887 0.395 -3.313 1.172 -4.266 c 0.781 -0.973 1.863 -1.453 3.254 -1.453 c 1.441 0 2.543 0.48 3.297 1.453 c 0.754 0.953 1.129 2.379 1.129 4.266 c 0 1.895 -0.383 3.32 -1.148 4.293 c -0.77 0.957 -1.852 1.434 -3.25 1.434 c -1.445 0 -2.551 -0.477 -3.32 -1.434 c -0.754 -0.973 -1.133 -2.398 -1.133 -4.293" style="fill:#fff;fill-opacity:1;stroke:none;fill-rule:nonzero"/>
  <path d="m 31.04 59.941 c 0.066 0.016 0.145 0.016 0.219 0.016 c 0.074 0 0.148 0 0.219 0 c 0.551 0 1.02 -0.09 1.391 -0.273 c 0.375 -0.195 0.688 -0.453 0.914 -0.781 c 0.234 -0.336 0.402 -0.723 0.492 -1.176 c 0.102 -0.461 0.16 -0.961 0.16 -1.508 c 0 -0.469 -0.039 -0.93 -0.117 -1.375 c -0.082 -0.453 -0.227 -0.848 -0.418 -1.191 c -0.203 -0.344 -0.469 -0.609 -0.813 -0.813 c -0.344 -0.219 -0.789 -0.316 -1.336 -0.316 c -0.098 0 -0.227 0 -0.352 0.016 c -0.133 0 -0.25 0.008 -0.359 0.035 l 0 7.367 m 5.879 -3.723 c 0 1.023 -0.152 1.887 -0.438 2.609 c -0.285 0.711 -0.672 1.289 -1.176 1.734 c -0.5 0.453 -1.105 0.777 -1.809 0.996 c -0.688 0.203 -1.441 0.293 -2.281 0.293 c -0.438 0 -0.863 -0.016 -1.289 -0.066 c -0.414 -0.031 -0.848 -0.102 -1.328 -0.191 l 0 -10.707 c 0.555 -0.102 1.074 -0.176 1.57 -0.211 c 0.484 -0.031 0.945 -0.047 1.367 -0.047 c 0.805 0 1.543 0.098 2.203 0.316 c 0.672 0.211 1.242 0.547 1.703 1.01 c 0.469 0.453 0.82 1.031 1.07 1.734 c 0.27 0.695 0.406 1.543 0.406 2.531" style="fill:#fff;fill-opacity:1;stroke:none;fill-rule:nonzero"/>
  <path d="m 46.754 58.4 c 0 0.664 -0.125 1.215 -0.375 1.668 c -0.254 0.438 -0.598 0.789 -1.031 1.066 c -0.43 0.258 -0.941 0.445 -1.535 0.563 c -0.578 0.109 -1.207 0.156 -1.887 0.156 c -0.535 0 -1.098 -0.023 -1.684 -0.082 c -0.582 -0.051 -1.16 -0.125 -1.73 -0.234 l 0 -10.648 c 0.473 -0.066 0.973 -0.125 1.535 -0.176 c 0.555 -0.059 1.098 -0.082 1.645 -0.082 c 0.93 0 1.676 0.082 2.262 0.258 c 0.578 0.168 1.039 0.395 1.367 0.68 c 0.336 0.27 0.563 0.578 0.68 0.914 c 0.117 0.344 0.176 0.688 0.176 1.031 c 0 0.52 -0.141 0.98 -0.438 1.383 c -0.273 0.402 -0.652 0.723 -1.129 0.957 c 0.828 0.266 1.398 0.637 1.684 1.098 c 0.313 0.461 0.461 0.945 0.461 1.449 m -5.801 -1.484 l 0 2.977 c 0.176 0.027 0.359 0.043 0.563 0.051 c 0.207 0.016 0.41 0.016 0.609 0.016 c 0.277 0 0.555 -0.016 0.816 -0.051 c 0.266 -0.047 0.492 -0.125 0.695 -0.223 c 0.207 -0.129 0.383 -0.285 0.52 -0.488 c 0.125 -0.211 0.191 -0.477 0.191 -0.797 c 0 -0.527 -0.191 -0.906 -0.57 -1.133 c -0.375 -0.234 -0.879 -0.352 -1.508 -0.352 l -1.316 0 m 0.957 -1.809 c 0.617 0 1.09 -0.117 1.406 -0.352 c 0.32 -0.254 0.48 -0.59 0.48 -1.016 c 0 -0.262 -0.051 -0.461 -0.145 -0.613 c -0.094 -0.168 -0.219 -0.293 -0.379 -0.375 c -0.156 -0.094 -0.344 -0.152 -0.551 -0.176 c -0.211 -0.035 -0.43 -0.051 -0.656 -0.051 c -0.184 0 -0.375 0 -0.578 0.016 c -0.191 0.008 -0.375 0.023 -0.535 0.051 l 0 2.516 l 0.957 0" style="fill:#fff;fill-opacity:1;stroke:none;fill-rule:nonzero"/>
  <path d="m 38 0 l 17.984 18 l -15.227 0 c -1.348 0 -2.758 -1.426 -2.758 -2.773 m 0 -15.227" style="fill:#fff;fill-opacity:0.392;stroke:none;fill-rule:nonzero"/>
  <path d="m 32 21.992 c -5.523 0 -10 1.398 -10 3.129 l 0 2.496 c 0 1.73 4.477 3.129 10 3.129 c 5.523 0 10 -1.398 10 -3.129 l 0 -2.496 c 0 -1.73 -4.477 -3.129 -10 -3.129 m 0 0" style="fill:#fff;fill-opacity:1;stroke:none;fill-rule:nonzero"/>
  <path d="m 31.969 31.992 c -4.48 0 -8.254 -0.914 -9.527 -2.184 c -0.301 0.293 -0.441 0.609 -0.441 0.938 l 0 2.5 c 0 1.727 4.477 3.129 10 3.129 c 5.523 0 10 -1.402 10 -3.129 l 0 -2.5 c 0 -0.328 -0.176 -0.645 -0.469 -0.938 c -1.273 1.27 -5.086 2.184 -9.563 2.184 m 0 0" style="fill:#fff;fill-opacity:1;stroke:none;fill-rule:nonzero"/>
  <path d="m 31.969 37.617 c -4.48 0 -8.254 -0.914 -9.527 -2.18 c -0.301 0.293 -0.441 0.605 -0.441 0.938 l 0 2.496 c 0 1.73 4.477 3.129 10 3.129 c 5.523 0 10 -1.398 10 -3.129 l 0 -2.496 c 0 -0.332 -0.176 -0.645 -0.469 -0.938 c -1.273 1.266 -5.086 2.18 -9.563 2.18 m 0 0" style="fill:#fff;fill-opacity:1;stroke:none;fill-rule:nonzero"/>
 </g>
</svg>
