<svg xmlns="http://www.w3.org/2000/svg" viewBox="0 0 64 64">
 <g>
  <path d="m 10.672 0 c -1.375 0 -2.672 1.355 -2.672 2.789 l 0 58.42 c 0 1.355 1.375 2.789 2.672 2.789 l 42.656 0 c 1.297 0 2.672 -1.434 2.672 -2.789 l 0 -43.21 l -18 -18 m -27.328 0" style="fill:#4a7fd6;fill-opacity:1;stroke:none;fill-rule:nonzero"/>
  <path d="m 42 18 l 14 14 l 0 -14 m -14 0" style="fill:#000;fill-opacity:0.196;stroke:none;fill-rule:nonzero"/>
  <path d="m 38 0 l 17.984 18 l -15.227 0 c -1.348 0 -2.758 -1.426 -2.758 -2.773 m 0 -15.227" style="fill:#fff;fill-opacity:0.392;stroke:none;fill-rule:nonzero"/>
  <path d="m 22.996 24 c -1.66 0 -2.996 1.336 -2.996 2.996 l 0 18 c 0 1.66 1.336 3 2.996 3 l 18.01 0 c 1.66 0 2.996 -1.344 2.996 -3 l 0 -18 c 0 -1.66 -1.336 -2.996 -2.996 -2.996 m -11 4 l 4 0 l 0 4 l -4 0 m -2 2 l 6 0 l 0 8 l 2 0 l 0 4 l -8 0 l 0 -4 l 2 0 l 0 -4 l -2 -0.004 m 0 -3.996" style="fill:#fff;fill-opacity:1;stroke:none;fill-rule:nonzero"/>
 </g>
</svg>
