<svg xmlns="http://www.w3.org/2000/svg" viewBox="0 0 64 64">
 <g>
  <path d="m 10.672 0 c -1.375 0 -2.672 1.355 -2.672 2.789 l 0 58.42 c 0 1.355 1.375 2.789 2.672 2.789 l 42.656 0 c 1.297 0 2.672 -1.434 2.672 -2.789 l 0 -43.21 l -18 -18 m -27.328 0" style="fill:#03aa9c;fill-opacity:1;stroke:none;fill-rule:nonzero"/>
  <path d="m 42 18 l 14 14 l 0 -14 m -14 0" style="fill:#000;fill-opacity:0.196;stroke:none;fill-rule:nonzero"/>
  <path d="m 38 0 l 17.984 18 l -15.227 0 c -1.348 0 -2.758 -1.426 -2.758 -2.773 m 0 -15.227" style="fill:#fff;fill-opacity:0.392;stroke:none;fill-rule:nonzero"/>
  <path d="m 40 22.773 c -0.844 0 -1.605 0.57 -2 1.227 l -8 0 c 0 0 -1.945 -0.152 -3.641 0.668 c -1.703 0.816 -3.504 2.695 -3.504 5.82 c 0 3.125 1.801 5 3.504 5.82 c 0.801 0.391 1.594 0.551 2.215 0.656 l 0 0.48 l -3.145 3.03 c -0.094 -0.023 -0.18 -0.066 -0.285 -0.066 c -0.637 0 -1.145 0.488 -1.145 1.102 c 0 0.609 0.508 1.102 1.145 1.102 c 0.629 0 1.137 -0.492 1.137 -1.102 c 0 -0.105 -0.043 -0.18 -0.066 -0.277 l 3.141 -3.03 l 3.789 0 l 0 -1.102 l 1.137 0 c 0 0 1.207 0.027 2.359 0.586 c 1.164 0.559 2.215 1.438 2.215 3.824 c 0 2.387 -1.051 3.262 -2.215 3.824 c -1.152 0.559 -2.641 0.664 -2.641 0.664 l -8 0 c -0.395 -0.656 -1.156 -1.184 -2 -1.184 c -1.266 0 -2.289 0.992 -2.289 2.207 c 0 1.215 1.023 2.203 2.289 2.203 c 0.844 0 1.605 -0.57 2 -1.227 l 8 0 c 0 0 1.945 0.152 3.641 -0.668 c 1.703 -0.816 3.504 -2.695 3.504 -5.82 c 0 -3.125 -1.801 -5 -3.504 -5.82 c -1.695 -0.82 -3.359 -0.793 -3.359 -0.793 l -1.137 0 l 0 -0.344 l 3.145 -3.03 c 0.094 0.023 0.18 0.066 0.285 0.066 c 0.629 0 1.145 -0.488 1.145 -1.102 c 0 -0.609 -0.516 -1.102 -1.145 -1.102 c -0.629 0 -1.148 0.492 -1.148 1.102 c 0 0.105 0.043 0.18 0.078 0.277 l -3.152 3.03 l -3.777 0 l 0 0.93 c -0.379 -0.086 -0.793 -0.207 -1.215 -0.414 c -1.164 -0.559 -2.215 -1.438 -2.215 -3.824 c 0 -2.387 1.051 -3.262 2.215 -3.824 c 1.152 -0.559 2.641 -0.664 2.641 -0.664 l 8 0 c 0.395 0.656 1.156 1.184 2 1.184 c 1.266 0 2.289 -0.992 2.289 -2.207 c 0 -1.215 -1.023 -2.203 -2.289 -2.203 m 0 0" style="fill:#fff;fill-opacity:1;stroke:none;fill-rule:nonzero"/>
 </g>
</svg>
