<svg xmlns="http://www.w3.org/2000/svg" viewBox="0 0 64 64">
 <path d="m 10.672 0 c -1.375 0 -2.672 1.355 -2.672 2.789 l 0 58.42 c 0 1.355 1.375 2.789 2.672 2.789 l 42.656 0 c 1.297 0 2.672 -1.434 2.672 -2.789 l 0 -43.21 -18 -18 m -27.328 0" style="fill:#dcdcdc;fill-opacity:1;stroke:none;fill-rule:nonzero"/>
 <path d="m 42 18 14 14 0 -14 z m 0 0" style="fill:#000;fill-opacity:0.196;stroke:none;fill-rule:nonzero"/>
 <path d="m 38 0 17.984 18 -15.227 0 c -1.348 0 -2.758 -1.426 -2.758 -2.773 m 0 -15.227" style="fill:#fff;fill-opacity:0.392;stroke:none;fill-rule:nonzero"/>
 <path d="m 31.1 18.813 c -2.672 0.852 -0.328 4.828 -4.156 6.773 -4.367 2.227 -6.539 -3.391 -9.164 0.625 -2.625 4.01 3.617 3.391 3.445 8.109 -0.18 4.719 -6.359 3.719 -4.04 7.883 2.32 4.164 4.898 -1.297 9.09 1.195 4.195 2.492 0.18 7.109 5.125 7.266 4.945 0.156 1.273 -4.695 5.648 -6.922 4.367 -2.227 6.539 3.398 9.164 -0.617 2.625 -4.01 -3.617 -3.391 -3.445 -8.109 0.18 -4.719 6.359 -3.719 4.04 -7.883 -2.32 -4.172 -4.898 1.297 -9.09 -1.195 -4.195 -2.492 -0.18 -7.109 -5.125 -7.266 -0.617 -0.016 -1.109 0.016 -1.492 0.141 z m 0.047 12.02 c 2.211 -0.445 4.375 0.906 4.844 3.02 0.469 2.117 -0.938 4.203 -3.141 4.656 -2.211 0.445 -4.375 -0.906 -4.844 -3.02 -0.469 -2.117 0.938 -4.203 3.141 -4.656 z m 0 0" style="fill:#888;fill-opacity:1;stroke:none;fill-rule:nonzero"/>
</svg>
