<svg xmlns="http://www.w3.org/2000/svg" viewBox="0 0 64 64">
 <g>
  <path d="m 10.672 0 c -1.375 0 -2.672 1.355 -2.672 2.789 l 0 58.42 c 0 1.355 1.375 2.789 2.672 2.789 l 42.656 0 c 1.297 0 2.672 -1.434 2.672 -2.789 l 0 -43.21 l -18 -18 m -27.328 0" style="fill:#dcdcdc;fill-opacity:1;stroke:none;fill-rule:nonzero"/>
  <path d="m 42 18 l 14 14 l 0 -14 m -14 0" style="fill:#000;fill-opacity:0.196;stroke:none;fill-rule:nonzero"/>
  <path d="m 38 0 l 17.984 18 l -15.227 0 c -1.348 0 -2.758 -1.426 -2.758 -2.773 m 0 -15.227" style="fill:#fff;fill-opacity:0.392;stroke:none;fill-rule:nonzero"/>
 </g>
 <path d="m 37.873 30.13 c 0.681 0.681 0.681 1.784 0 2.465 l -9.281 9.281 c -0.681 0.681 -1.784 0.681 -2.465 0 l 0 0 c -0.681 -0.681 -0.681 -1.784 0 -2.465 l 9.281 -9.281 c 0.681 -0.681 1.784 -0.681 2.465 0 l 0 0 z m -10.661 15.617 c -1.366 1.366 -3.589 1.366 -4.956 0 -1.366 -1.366 -1.366 -3.589 0 -4.956 l 6.578 -6.571 c -2.207 -0.536 -4.633 0.058 -6.356 1.782 l -2.505 2.505 c -2.63 2.629 -2.63 6.893 0 9.523 2.63 2.629 6.893 2.629 9.523 0 l 2.505 -2.505 c 1.723 -1.723 2.317 -4.148 1.782 -6.356 l -6.571 6.577 z m 7.293 -21.772 -2.505 2.505 c -1.724 1.724 -2.321 4.145 -1.785 6.353 l 6.574 -6.574 c 1.366 -1.366 3.589 -1.366 4.955 0 1.366 1.366 1.366 3.589 0 4.955 l -6.574 6.574 c 2.207 0.535 4.629 -0.061 6.352 -1.785 l 2.505 -2.505 c 2.629 -2.63 2.629 -6.893 0 -9.523 -2.63 -2.629 -6.893 -2.629 -9.523 0 z" style="fill:#888;fill-opacity:1"/>
</svg>
