<svg xmlns="http://www.w3.org/2000/svg" viewBox="0 0 64 64">
 <path d="m 10.672 0 c -1.375 0 -2.672 1.355 -2.672 2.789 l 0 58.42 c 0 1.355 1.375 2.789 2.672 2.789 l 42.656 0 c 1.297 0 2.672 -1.434 2.672 -2.789 l 0 -43.21 -18 -18 m -27.328 0" style="fill:#cf4523;fill-opacity:1;stroke:none;fill-rule:nonzero"/>
 <path d="m 42 18 14 14 0 -14 z m 0 0" style="fill:#000;fill-opacity:0.196;stroke:none;fill-rule:nonzero"/>
 <path d="m 38 0 17.984 18 -15.227 0 c -1.348 0 -2.758 -1.426 -2.758 -2.773 m 0 -15.227" style="fill:#fff;fill-opacity:0.392;stroke:none;fill-rule:nonzero"/>
 <path d="m 8 48 0 13.336 c 0 1.297 1.375 2.664 2.664 2.664 l 42.672 0 c 1.289 0 2.664 -1.367 2.664 -2.664 l 0 -13.336 m -48 0" style="fill:#000;fill-opacity:0.196;stroke:none;fill-rule:nonzero"/>
 <path d="m 16 24 10 0 0 6 -10 0 z m 0 0" style="fill:#fff;fill-opacity:1;stroke:none;fill-rule:nonzero"/>
 <path d="m 18.804 51.646 c 1.296 0 2.294 0.242 3.01 0.734 0.715 0.473 1.071 1.26 1.071 2.356 0 1.11 -0.356 1.913 -1.084 2.405 -0.712 0.493 -1.727 0.734 -3.048 0.734 l -0.721 0 0 3.123 l -2.027 0 0 -9.135 c 0.199 -0.033 0.418 -0.075 0.659 -0.101 0.251 -0.029 0.506 -0.049 0.76 -0.062 0.251 -0.02 0.499 -0.036 0.738 -0.042 0.242 -0.013 0.454 -0.013 0.646 -0.013 m 0.225 1.596 c -0.117 0 -0.287 0.007 -0.506 0.013 -0.212 0 -0.379 0.016 -0.496 0.036 l 0 2.986 0.822 0 c 0.646 0 1.139 -0.114 1.469 -0.343 0.33 -0.238 0.493 -0.643 0.493 -1.211 0 -0.542 -0.163 -0.92 -0.493 -1.139 -0.323 -0.225 -0.747 -0.343 -1.289 -0.343" style="fill:#fff;fill-opacity:1;stroke:none;fill-rule:nonzero"/>
 <path d="m 27.03 51.646 c 1.296 0 2.298 0.242 3.01 0.734 0.712 0.473 1.071 1.26 1.071 2.356 0 1.11 -0.359 1.913 -1.084 2.405 -0.712 0.493 -1.727 0.734 -3.042 0.734 l -0.728 0 0 3.123 -2.027 0 0 -9.135 c 0.196 -0.033 0.418 -0.075 0.656 -0.101 0.255 -0.029 0.509 -0.049 0.76 -0.062 0.255 -0.02 0.499 -0.036 0.741 -0.042 0.238 -0.013 0.46 -0.013 0.643 -0.013 m 0.228 1.596 c -0.117 0 -0.29 0.007 -0.509 0.013 -0.212 0 -0.375 0.016 -0.493 0.036 l 0 2.986 0.822 0 c 0.643 0 1.139 -0.114 1.465 -0.343 0.33 -0.238 0.496 -0.643 0.496 -1.211 0 -0.542 -0.166 -0.92 -0.496 -1.139 -0.32 -0.225 -0.747 -0.343 -1.286 -0.343" style="fill:#fff;fill-opacity:1;stroke:none;fill-rule:nonzero"/>
 <path d="m 39.39 51.75 0 1.521 -2.686 0 0 7.729 -2.043 0 0 -7.729 -2.68 0 0 -1.521 7.409 0" style="fill:#fff;fill-opacity:1;stroke:none;fill-rule:nonzero"/>
 <path d="m 16 34 10 0 0 6 -10 0 z m 0 0" style="fill:#fff;fill-opacity:1;stroke:none;fill-rule:nonzero"/>
 <path d="m 40 21.984 0 8.02 l 8 0 c 0 -4.43 -3.582 -8.02 -8 -8.02 z m 0 0" style="fill:#fff;fill-opacity:1;stroke:none;fill-rule:nonzero"/>
 <path d="m 38 24 c -4.418 0 -8 3.578 -8 8 c 0 4.422 3.586 8 8 8 c 4.418 0 7.996 -3.578 7.996 -8 l -7.996 0 z m 0 0" style="fill:#fff;fill-opacity:1;stroke:none;fill-rule:nonzero"/>
 <path d="m 45.813 61 c -0.212 -0.503 -0.47 -1.061 -0.777 -1.671 -0.294 -0.614 -0.607 -1.221 -0.937 -1.828 -0.32 0.578 -0.636 1.178 -0.956 1.815 c -0.317 0.617 -0.587 1.181 -0.819 1.684 l -2.193 0 c 0.111 -0.271 0.271 -0.587 0.483 -0.963 0.215 -0.372 0.454 -0.777 0.705 -1.211 0.264 -0.431 0.539 -0.878 0.826 -1.325 0.284 -0.47 0.558 -0.911 0.816 -1.335 l -2.663 -4.311 2.19 0 1.612 2.928 1.697 -2.928 2.043 0 -2.601 4.269 c 0.294 0.424 0.587 0.865 0.868 1.328 0.284 0.467 0.552 0.914 0.787 1.361 0.261 0.434 0.477 0.839 0.666 1.224 c 0.183 0.375 0.336 0.692 0.441 0.963 l -2.187 0" style="fill:#fff;fill-opacity:1;stroke:none;fill-rule:nonzero"/>
</svg>
