<svg xmlns="http://www.w3.org/2000/svg" viewBox="0 0 64 64">
 <g>
  <path d="m 10.672 0 c -1.375 0 -2.672 1.355 -2.672 2.789 l 0 58.42 c 0 1.355 1.375 2.789 2.672 2.789 l 42.656 0 c 1.297 0 2.672 -1.434 2.672 -2.789 l 0 -43.21 l -18 -18 m -27.328 0" style="fill:#c19553;fill-opacity:1;stroke:none;fill-rule:nonzero"/>
  <path d="m 8 48 l 0 13.336 c 0 1.297 1.375 2.664 2.664 2.664 l 42.672 0 c 1.289 0 2.664 -1.367 2.664 -2.664 l 0 -13.336 m -48 0" style="fill:#000;fill-opacity:0.196;stroke:none;fill-rule:nonzero"/>
  <path d="m 42 18 l 14 14 l 0 -14 m -14 0" style="fill:#000;fill-opacity:0.196;stroke:none;fill-rule:nonzero"/>
  <path d="m 38 0 l 17.984 18 l -15.227 0 c -1.348 0 -2.758 -1.426 -2.758 -2.773 m 0 -15.227" style="fill:#fff;fill-opacity:0.392;stroke:none;fill-rule:nonzero"/>
  <path d="m 18 0 l 6 0 l 0 6 l -6 0 m 0 -6" style="fill:#f9f9f9;fill-opacity:1;stroke:none;fill-rule:evenodd"/>
  <path d="m 24 6 l 6 0 l 0 6 l -6 0 m 0 -6" style="fill:#f9f9f9;fill-opacity:1;stroke:none;fill-rule:evenodd"/>
  <path d="m 18 12 l 6 0 l 0 6 l -6 0 m 0 -6" style="fill:#f9f9f9;fill-opacity:1;stroke:none;fill-rule:evenodd"/>
  <path d="m 24 18 l 6 0 l 0 6 l -6 0 m 0 -6" style="fill:#f9f9f9;fill-opacity:1;stroke:none;fill-rule:evenodd"/>
  <path d="m 18 24 l 6 0 l 0 6 l -6 0 m 0 -6" style="fill:#f9f9f9;fill-opacity:1;stroke:none;fill-rule:evenodd"/>
  <path d="m 18 32 l 12 0 l 0 12 l -12 0 m 0 -12" style="fill:#f9f9f9;fill-opacity:1;stroke:none;fill-rule:evenodd"/>
  <path d="m 19.15 60.52 c 0.344 0 0.625 -0.031 0.844 -0.094 c 0.227 -0.078 0.406 -0.18 0.539 -0.297 c 0.133 -0.133 0.219 -0.281 0.266 -0.43 c 0.055 -0.172 0.078 -0.336 0.078 -0.5 c 0 -0.211 -0.063 -0.398 -0.18 -0.563 c -0.117 -0.164 -0.273 -0.305 -0.461 -0.43 c -0.188 -0.133 -0.391 -0.242 -0.625 -0.344 c -0.227 -0.109 -0.461 -0.211 -0.688 -0.297 c -0.305 -0.109 -0.625 -0.234 -0.953 -0.383 c -0.328 -0.141 -0.625 -0.32 -0.898 -0.539 c -0.266 -0.227 -0.484 -0.492 -0.656 -0.813 c -0.18 -0.328 -0.266 -0.734 -0.266 -1.219 c 0 -0.961 0.305 -1.711 0.922 -2.25 c 0.617 -0.539 1.477 -0.805 2.555 -0.805 c 0.625 0 1.172 0.07 1.625 0.211 c 0.477 0.141 0.867 0.305 1.188 0.477 l -0.594 1.57 c -0.273 -0.156 -0.578 -0.281 -0.922 -0.398 c -0.328 -0.109 -0.711 -0.164 -1.148 -0.164 c -1.07 0 -1.609 0.391 -1.609 1.172 c 0 0.203 0.055 0.375 0.164 0.531 c 0.109 0.141 0.25 0.273 0.414 0.398 c 0.172 0.109 0.367 0.211 0.578 0.297 c 0.219 0.086 0.43 0.172 0.633 0.242 c 0.32 0.125 0.648 0.266 0.992 0.414 c 0.344 0.148 0.664 0.344 0.945 0.594 c 0.297 0.242 0.539 0.555 0.727 0.93 c 0.188 0.359 0.281 0.82 0.281 1.383 c 0 0.961 -0.313 1.703 -0.938 2.234 c -0.617 0.516 -1.547 0.773 -2.813 0.773 c -0.836 0 -1.516 -0.086 -2.02 -0.266 c -0.5 -0.188 -0.883 -0.359 -1.133 -0.508 l 0.594 -1.656 c 0.289 0.18 0.641 0.344 1.047 0.5 c 0.414 0.148 0.922 0.227 1.508 0.227" style="fill:#fff;fill-opacity:1;stroke:none;fill-rule:nonzero"/>
  <path d="m 31.02 51.781 l 0 10.219 l -2.023 0 l 0 -4.5 l -2.688 0 l 0 4.5 l -2.023 0 l 0 -10.219 l 2.023 0 l 0 4.03 l 2.688 0 l 0 -4.03 l 2.023 0" style="fill:#fff;fill-opacity:1;stroke:none;fill-rule:nonzero"/>
  <path d="m 37.656 62 l -0.477 -2.359 l -2.711 0 l -0.461 2.359 l -2.102 0 c 0.484 -2.01 0.969 -3.844 1.461 -5.492 c 0.5 -1.664 0.969 -3.242 1.43 -4.727 l 2.203 0 c 0.484 1.5 0.961 3.086 1.43 4.773 c 0.477 1.672 0.945 3.492 1.391 5.445 l -2.164 0 m -1.805 -8.234 c -0.109 0.383 -0.219 0.75 -0.313 1.102 c -0.086 0.344 -0.18 0.688 -0.266 1.023 c -0.078 0.336 -0.148 0.672 -0.227 1.01 c -0.07 0.344 -0.133 0.695 -0.195 1.063 l 1.984 0 c -0.07 -0.367 -0.133 -0.719 -0.195 -1.063 c -0.07 -0.336 -0.148 -0.672 -0.234 -1.01 c -0.078 -0.336 -0.164 -0.68 -0.258 -1.023 c -0.094 -0.352 -0.188 -0.719 -0.297 -1.102" style="fill:#fff;fill-opacity:1;stroke:none;fill-rule:nonzero"/>
  <path d="m 43.484 51.664 c 0.578 0 1.109 0.07 1.578 0.203 c 0.469 0.133 0.875 0.336 1.211 0.609 c 0.344 0.273 0.602 0.625 0.773 1.055 c 0.188 0.422 0.281 0.914 0.281 1.484 c 0 0.602 -0.125 1.141 -0.359 1.625 c -0.242 0.484 -0.641 0.852 -1.203 1.102 c 0.188 0.289 0.383 0.609 0.594 0.961 c 0.203 0.336 0.406 0.703 0.609 1.086 c 0.195 0.375 0.383 0.758 0.555 1.141 c 0.188 0.375 0.344 0.734 0.477 1.07 l -2.117 0 c -0.25 -0.656 -0.547 -1.289 -0.891 -1.898 c -0.328 -0.609 -0.68 -1.234 -1.063 -1.859 l -1.055 0 l 0 3.758 l -2.02 0 l 0 -10.07 c 0.195 -0.039 0.406 -0.078 0.641 -0.117 c 0.242 -0.039 0.477 -0.07 0.719 -0.078 c 0.242 -0.023 0.469 -0.039 0.688 -0.047 c 0.227 -0.016 0.414 -0.023 0.578 -0.023 m 1.789 3.336 c 0 -0.539 -0.164 -0.93 -0.492 -1.188 c -0.328 -0.25 -0.758 -0.375 -1.297 -0.375 c -0.078 0 -0.172 0 -0.281 0.016 c -0.109 0 -0.219 0.008 -0.328 0.031 l 0 3.07 l 0.445 0 c 0.688 0 1.188 -0.133 1.492 -0.398 c 0.305 -0.273 0.461 -0.656 0.461 -1.156" style="fill:#fff;fill-opacity:1;stroke:none;fill-rule:nonzero"/>
 </g>
</svg>
