<svg xmlns="http://www.w3.org/2000/svg" viewBox="0 0 64 64">
 <path d="M 10.6875,0 C 9.3125,0 8,1.378906 8,2.8125 l 0,58.375 C 8,62.539062 9.390625,64 10.6875,64 l 42.625,0 C 54.609375,64 56,62.539062 56,61.1875 L 56,2.75 C 56,1.402344 54.597656,0 53.25,0 Z m 0,0" style="fill:#36c;fill-opacity:1;stroke:none;fill-rule:nonzero"/>
 <path d="m 20 20 12 0 0 10 -12 0 z m 0 0" style="fill:#f8f8f8;fill-opacity:1;stroke:none;fill-rule:evenodd"/>
 <path d="m 34 20 10 0 0 2 -10 0 z m 0 0" style="fill:#f8f8f8;fill-opacity:1;stroke:none;fill-rule:evenodd"/>
 <path d="m 34 24 10 0 0 2 -10 0 z m 0 0" style="fill:#f8f8f8;fill-opacity:1;stroke:none;fill-rule:evenodd"/>
 <path d="m 34 28 10 0 0 2 -10 0 z m 0 0" style="fill:#f8f8f8;fill-opacity:1;stroke:none;fill-rule:evenodd"/>
 <path d="m 20 32 24 0 0 2 -24 0 z m 0 0" style="fill:#f8f8f8;fill-opacity:1;stroke:none;fill-rule:evenodd"/>
 <path d="m 20 36 24 0 0 2 -24 0 z m 0 0" style="fill:#f8f8f8;fill-opacity:1;stroke:none;fill-rule:evenodd"/>
 <path d="m 20 40 24 0 0 2 -24 0 z m 0 0" style="fill:#f8f8f8;fill-opacity:1;stroke:none;fill-rule:evenodd"/>
 <path d="m 8 48 0 13.336 c 0 1.297 1.375 2.664 2.664 2.664 l 42.672 0 c 1.289 0 2.664 -1.367 2.664 -2.664 l 0 -13.336 m -48 0" style="fill:#000;fill-opacity:0.196;stroke:none;fill-rule:nonzero"/>
 <g transform="matrix(0.82440562,0,0,0.82440562,1.1929018,9.9262927)">
  <path d="m 20.391 60.26 c 0.066 0.016 0.141 0.016 0.215 0.016 0.082 0 0.156 0 0.223 0 0.551 0 1.01 -0.09 1.379 -0.277 0.379 -0.18 0.684 -0.434 0.902 -0.766 0.238 -0.32 0.402 -0.695 0.492 -1.141 0.109 -0.449 0.164 -0.945 0.164 -1.477 0 -0.461 -0.039 -0.914 -0.121 -1.355 -0.074 -0.438 -0.215 -0.82 -0.41 -1.16 -0.199 -0.336 -0.469 -0.598 -0.813 -0.797 -0.34 -0.211 -0.781 -0.309 -1.324 -0.309 -0.105 0 -0.223 0 -0.352 0.016 -0.133 0 -0.246 0.008 -0.355 0.031 l 0 7.219 m 5.84 -3.645 c 0 1 -0.148 1.848 -0.434 2.555 -0.281 0.695 -0.668 1.262 -1.168 1.699 -0.5 0.441 -1.09 0.762 -1.789 0.977 -0.691 0.188 -1.445 0.289 -2.277 0.289 -0.426 0 -0.852 -0.02 -1.277 -0.066 c -0.406 -0.035 -0.848 -0.098 -1.324 -0.191 l 0 -10.484 c 0.559 -0.102 1.074 -0.176 1.559 -0.207 0.488 -0.031 0.945 -0.059 1.363 -0.059 0.809 0 1.531 0.109 2.188 0.32 0.672 0.207 1.238 0.535 1.699 0.988 0.461 0.441 0.813 1.01 1.066 1.699 0.266 0.68 0.395 1.512 0.395 2.48" style="fill:#fff;fill-opacity:1;stroke:none;fill-rule:nonzero"/>
  <path d="m 29.762 56.61 c 0 0.523 0.02 1.016 0.059 1.477 0.051 0.453 0.148 0.848 0.281 1.184 0.137 0.336 0.336 0.598 0.59 0.797 0.246 0.195 0.582 0.297 1 0.297 0.414 0 0.742 -0.102 0.988 -0.297 0.262 -0.199 0.457 -0.461 0.59 -0.797 0.148 -0.352 0.238 -0.746 0.281 -1.199 0.047 -0.453 0.082 -0.938 0.082 -1.461 0 -0.52 -0.035 -1 -0.082 -1.453 -0.043 -0.469 -0.133 -0.863 -0.281 -1.199 -0.133 -0.34 -0.32 -0.602 -0.566 -0.797 -0.254 -0.199 -0.59 -0.297 -1.012 -0.297 -0.418 0 -0.754 0.098 -1 0.297 -0.254 0.195 -0.453 0.469 -0.59 0.813 -0.133 0.336 -0.23 0.73 -0.281 1.184 -0.039 0.449 -0.059 0.934 -0.059 1.453 m -2.461 0 c 0 -1.848 0.383 -3.246 1.156 -4.18 0.781 -0.953 1.855 -1.422 3.234 -1.422 1.437 0 2.531 0.469 3.277 1.422 0.75 0.934 1.125 2.332 1.125 4.18 0 1.855 -0.383 3.25 -1.141 4.203 -0.762 0.938 -1.848 1.406 -3.234 1.406 -1.438 0 -2.539 -0.469 -3.301 -1.406 -0.75 -0.953 -1.117 -2.348 -1.117 -4.203" style="fill:#fff;fill-opacity:1;stroke:none;fill-rule:nonzero"/>
  <path d="m 46 51.25 0 1.773 -3.219 0 0 8.977 -2.449 0 0 -8.977 -3.211 0 0 -1.773 8.879 0" style="fill:#fff;fill-opacity:1;stroke:none;fill-rule:nonzero"/>
  <path d="m 54.16 62 c -0.254 -0.602 -0.563 -1.27 -0.93 -2 -0.352 -0.734 -0.727 -1.461 -1.121 -2.188 -0.383 0.691 -0.762 1.41 -1.145 2.172 c -0.379 0.738 -0.703 1.414 -0.98 2.02 l -2.625 0 c 0.133 -0.324 0.324 -0.703 0.578 -1.152 0.258 -0.445 0.543 -0.93 0.844 -1.449 0.316 -0.516 0.645 -1.051 0.988 -1.586 0.34 -0.563 0.668 -1.09 0.977 -1.598 l -3.188 -5.16 2.621 0 1.93 3.504 2.031 -3.504 2.445 0 -3.113 5.109 c 0.352 0.508 0.703 1.035 1.039 1.59 0.34 0.559 0.66 1.094 0.941 1.629 0.313 0.52 0.57 1 0.797 1.465 0.219 0.449 0.402 0.828 0.527 1.152 l -2.617 0" style="fill:#fff;fill-opacity:1;stroke:none;fill-rule:nonzero"/>
 </g>
</svg>
