<svg xmlns="http://www.w3.org/2000/svg" viewBox="0 0 64 64">
 <path d="m 10.672 0 c -1.375 0 -2.672 1.355 -2.672 2.789 l 0 58.42 c 0 1.355 1.375 2.789 2.672 2.789 l 42.656 0 c 1.297 0 2.672 -1.434 2.672 -2.789 l 0 -43.21 -18 -18 m -27.328 0" style="fill:#a6a6a6;fill-opacity:1;stroke:none;fill-rule:nonzero"/>
 <path d="m 42 18 14 14 0 -14 z m 0 0" style="fill:#000;fill-opacity:0.196;stroke:none;fill-rule:nonzero"/>
 <path d="m 38 0 17.984 18 -15.227 0 c -1.348 0 -2.758 -1.426 -2.758 -2.773 m 0 -15.227" style="fill:#fff;fill-opacity:0.392;stroke:none;fill-rule:nonzero"/>
 <path d="m 8 48 0 13.336 c 0 1.297 1.375 2.664 2.664 2.664 l 42.672 0 c 1.289 0 2.664 -1.367 2.664 -2.664 l 0 -13.336 m -48 0" style="fill:#000;fill-opacity:0.196;stroke:none;fill-rule:nonzero"/>
 <path d="m 21.356 62 q -0.449 0 -0.956 -0.068 -0.488 -0.051 -0.956 -0.136 q -0.449 -0.085 -0.839 -0.187 -0.39 -0.102 -0.605 -0.187 l 0.468 -1.754 q 0.449 0.17 1.151 0.358 0.722 0.187 1.717 0.187 1.229 0 1.717 -0.46 0.507 -0.46 0.507 -1.141 0 -0.834 -0.761 -1.158 -0.761 -0.341 -1.932 -0.341 l -0.741 0 0 -1.737 0.898 0 q 0.371 0 0.741 -0.068 0.371 -0.068 0.663 -0.221 0.293 -0.153 0.468 -0.409 0.195 -0.255 0.195 -0.647 0 -0.579 -0.41 -0.902 -0.39 -0.341 -1.093 -0.341 -0.683 0 -1.366 0.204 -0.663 0.187 -1.151 0.477 l -0.859 -1.533 q 0.527 -0.307 1.385 -0.613 q 0.878 -0.324 1.971 -0.324 1.015 0 1.756 0.221 0.761 0.221 1.249 0.63 0.488 0.392 0.722 0.937 0.234 0.545 0.234 1.175 0 0.63 -0.41 1.209 -0.41 0.579 -1.093 0.885 0.937 0.341 1.444 1 q 0.527 0.664 0.527 1.584 q 0 0.732 -0.273 1.345 -0.273 0.613 -0.839 1.073 -0.566 0.443 -1.444 0.698 -0.878 0.238 -2.088 0.238 z" style="fill:#fff;fill-opacity:1;stroke:none"/>
 <path d="m 35.465 54.08 q 0 0.556 -0.229 1.077 -0.229 0.504 -0.611 0.991 -0.382 0.487 -0.859 0.938 -0.477 0.452 -0.974 0.869 -0.248 0.209 -0.573 0.504 -0.325 0.278 -0.611 0.591 -0.286 0.295 -0.496 0.608 -0.191 0.313 -0.191 0.573 l 5.079 0 0 1.773 -7.714 0 q -0.057 -0.174 -0.057 -0.434 0.019 -0.261 0.019 -0.365 0 -0.869 0.344 -1.599 0.363 -0.73 0.897 -1.338 0.554 -0.626 1.165 -1.147 0.63 -0.539 1.165 -1.025 0.554 -0.487 0.897 -0.938 0.363 -0.452 0.363 -0.921 0 -0.66 -0.439 -1.01 -0.439 -0.365 -1.107 -0.365 -0.554 0 -1.165 0.243 -0.611 0.243 -1.203 0.817 l -1.165 -1.494 q 0.764 -0.73 1.757 -1.077 1.012 -0.348 2 -0.348 q 0.726 0 1.394 0.191 0.668 0.191 1.184 0.573 0.516 0.382 0.821 0.973 0.305 0.573 0.305 1.338 z" style="fill:#fff;fill-opacity:1;stroke:none"/>
 <path d="m 43.774 62 q -0.318 -0.906 -0.787 -2.01 -0.452 -1.102 -0.954 -2.204 -0.485 1.048 -0.971 2.186 -0.485 1.12 -0.837 2.026 l -2.226 0 q 0.167 -0.48 0.485 -1.155 0.335 -0.675 0.72 -1.457 0.402 -0.782 0.837 -1.599 0.435 -0.835 0.837 -1.599 l -2.711 -5.189 l 2.226 0 1.64 3.519 l 1.724 -3.519 l 2.075 0 -2.644 5.136 q 0.452 0.764 0.887 1.599 0.435 0.835 0.803 1.635 0.385 0.782 0.669 1.475 q 0.285 0.675 0.452 1.155 l -2.226 0 z" style="fill:#fff;fill-opacity:1;stroke:none"/>
 <path d="m 38.462 29.922 a 1.077 1.098 0 0 1 -1.077 1.098 1.077 1.098 0 0 1 -1.077 -1.098 1.077 1.098 0 0 1 1.077 -1.098 1.077 1.098 0 0 1 1.077 1.098 z m 2.154 2.196 a 1.077 1.098 0 0 1 -1.077 1.098 1.077 1.098 0 0 1 -1.077 -1.098 1.077 1.098 0 0 1 1.077 -1.098 1.077 1.098 0 0 1 1.077 1.098 z m 2.154 -2.196 a 1.077 1.098 0 0 1 -1.077 1.098 1.077 1.098 0 0 1 -1.077 -1.098 1.077 1.098 0 0 1 1.077 -1.098 1.077 1.098 0 0 1 1.077 1.098 z m -2.154 -2.196 a 1.077 1.098 0 0 1 -1.077 1.098 1.077 1.098 0 0 1 -1.077 -1.098 1.077 1.098 0 0 1 1.077 -1.098 1.077 1.098 0 0 1 1.077 1.098 z m -14 2.196 a 2.154 2.196 0 0 1 -2.154 2.196 2.154 2.196 0 0 1 -2.154 -2.196 2.154 2.196 0 0 1 2.154 -2.196 2.154 2.196 0 0 1 2.154 2.196 z m -1.904 -7.683 c -0.775 0.032 -1.412 0.371 -1.851 0.71 C 20.266 24.955 18 33.33 18 37.757 c 0 4.43 0.999 4.242 1.866 4.242 0.867 0 1.956 -0.608 2.909 -1.463 2.629 -2.36 3.841 -5.124 6.455 -5.124 l 5.54 0 c 2.615 0 3.826 2.764 6.455 5.124 0.952 0.855 2.042 1.463 2.909 1.463 C 45 41.999 46 42.19 46 37.757 46 33.33 43.734 24.955 41.14 22.948 40.44 22.405 39.23 21.864 37.757 22.577 36.77 23.06 35.889 23.333 34.6 23.333 l -5.2 0 c -1.289 0 -2.171 -0.278 -3.157 -0.756 -0.552 -0.267 -1.067 -0.358 -1.531 -0.339 z" style="fill:#fff;opacity:1;fill-opacity:1;stroke:none;fill-rule:nonzero"/>
</svg>
