<svg xmlns="http://www.w3.org/2000/svg" viewBox="0 0 64 64">
 <g>
  <path d="m 10.742 8 c -1.367 0 -2.742 1.375 -2.742 2.742 l 0 42.594 c 0 1.289 1.375 2.664 2.664 2.664 l 42.672 0 c 1.289 0 2.664 -1.375 2.664 -2.664 l 0 -42.672 c 0 -1.289 -1.375 -2.664 -2.664 -2.664 m -42.594 0" style="fill:#c19553;fill-opacity:1;stroke:none;fill-rule:nonzero"/>
  <path d="m 10.742 8 c -1.367 0 -2.742 1.375 -2.742 2.742 l 0 13.258 c 5.336 0 42.664 0 48 0 l 0 -13.336 c 0 -1.289 -1.375 -2.664 -2.664 -2.664 m -42.594 0" style="fill:#fff;fill-opacity:0.196;stroke:none;fill-rule:nonzero"/>
  <path d="m 28 14 l 0 20 l 8 0 l 0 -20 m -8 0" style="fill:#fff;fill-opacity:0.392;stroke:none;fill-rule:nonzero"/>
 </g>
 <g transform="scale(1.033909,0.96720311)" style="fill:#ff0;fill-opacity:1;stroke:none">
  <path d="m 24.34 52.729 -0.55 -2.317 -3.364 0 -0.531 2.317 -2.312 0 c 0.974 -3.951 2.178 -7.755 3.339 -11.373 l 2.542 0 c 1.269 3.852 2.397 7.748 3.263 11.373 z m -2.205 -9.168 c -0.482 1.521 -0.927 3.379 -1.215 4.874 l 2.402 0 c -0.27 -1.611 -0.765 -3.374 -1.188 -4.874 z" style="fill:#fff"/>
  <path d="m 30.914 41.36 c 1.393 0 2.473 0.297 3.24 0.89 0.767 0.581 1.151 1.538 1.151 2.871 0 1.344 -0.39 2.319 -1.169 2.925 -0.767 0.593 -1.859 0.89 -3.276 0.89 l -0.779 0 0 3.797 -2.178 0 0 -11.1 c 1 -0.211 2 -0.246 3.01 -0.273 z m 0.248 1.944 c -0.381 -0.002 -0.701 0.03 -1.08 0.055 l 0 3.634 0.885 0 c 0.696 0 1.222 -0.139 1.576 -0.418 0.354 -0.291 0.531 -0.781 0.531 -1.472 0 -0.654 -0.177 -1.114 -0.531 -1.381 -0.342 -0.279 -0.803 -0.418 -1.381 -0.418 z" style="fill:#fff"/>
  <path d="m 42.24 52.729 c -0.709 -2.026 -1.9 -3.718 -3.307 -5.2 l 0 5.2 -2.235 0 0 -11.373 2.235 0 0 4.722 c 1.148 -1.474 2.113 -3.038 2.925 -4.722 l 2.525 0 c -0.958 1.917 -2.18 3.637 -3.47 5.236 1.747 1.721 2.983 3.839 3.852 6.137 z" style="fill:#fff"/>
 </g>
</svg>
