<svg xmlns="http://www.w3.org/2000/svg" viewBox="0 0 64 64">
 <g>
  <path d="m 10.688 0 c -1.375 0 -2.688 1.379 -2.688 2.813 l 0 58.38 c 0 1.352 1.391 2.813 2.688 2.813 l 42.625 0 c 1.297 0 2.688 -1.461 2.688 -2.813 l 0 -58.44 c 0 -1.348 -1.402 -2.75 -2.75 -2.75 m -42.563 0" style="fill:#ecaf02;fill-opacity:1;stroke:none;fill-rule:nonzero"/>
  <path d="m 20 44 l 0 -24 l 24 0 l 0 24 l -14 0 l 0 -12 l 6 0 l 0 4 l -2 0 l 0 4 l 6 0 l 0 -16 l -16 0 l 0 20 m -4 0" style="fill:#fff;fill-opacity:1;stroke:none;fill-rule:nonzero"/>
 </g>
</svg>
