<svg xmlns="http://www.w3.org/2000/svg" viewBox="0 0 64 64">
 <g>
  <path d="m 10.672 0 c -1.375 0 -2.672 1.355 -2.672 2.789 l 0 58.42 c 0 1.355 1.375 2.789 2.672 2.789 l 42.656 0 c 1.297 0 2.672 -1.434 2.672 -2.789 l 0 -43.21 l -18 -18 m -27.328 0" style="fill:#c19553;fill-opacity:1;stroke:none;fill-rule:nonzero"/>
  <path d="m 8 48 l 0 13.336 c 0 1.297 1.375 2.664 2.664 2.664 l 42.672 0 c 1.289 0 2.664 -1.367 2.664 -2.664 l 0 -13.336 m -48 0" style="fill:#000;fill-opacity:0.196;stroke:none;fill-rule:nonzero"/>
  <path d="m 24.855 61.988 l -0.566 -2.5 l -3.23 0 l -0.551 2.5 l -2.508 0 c 0.574 -2.133 1.156 -4.082 1.746 -5.832 c 0.59 -1.762 1.156 -3.434 1.707 -5.01 l 2.625 0 c 0.574 1.582 1.141 3.27 1.707 5.059 c 0.57 1.781 1.121 3.707 1.664 5.781 l -2.594 0 m -2.148 -8.742 c -0.129 0.41 -0.254 0.805 -0.375 1.172 c -0.109 0.363 -0.207 0.723 -0.313 1.094 c -0.09 0.344 -0.18 0.703 -0.27 1.063 c -0.082 0.363 -0.164 0.738 -0.238 1.125 l 2.367 0 c -0.082 -0.387 -0.152 -0.762 -0.234 -1.125 c -0.074 -0.359 -0.164 -0.719 -0.273 -1.063 c -0.09 -0.371 -0.195 -0.73 -0.313 -1.094 c -0.105 -0.367 -0.219 -0.762 -0.352 -1.172" style="fill:#fff;fill-opacity:1;stroke:none;fill-rule:nonzero"/>
  <path d="m 42 18 l 14 14 l 0 -14 m -14 0" style="fill:#000;fill-opacity:0.196;stroke:none;fill-rule:nonzero"/>
  <path d="m 31.813 51.02 c 0.695 0 1.32 0.066 1.887 0.207 c 0.555 0.137 1.039 0.359 1.441 0.645 c 0.41 0.297 0.715 0.676 0.926 1.125 c 0.223 0.441 0.328 0.969 0.328 1.574 c 0 0.633 -0.137 1.207 -0.426 1.723 c -0.285 0.508 -0.762 0.902 -1.434 1.172 c 0.219 0.305 0.457 0.641 0.703 1.02 c 0.254 0.359 0.492 0.746 0.73 1.156 c 0.23 0.395 0.453 0.793 0.664 1.203 c 0.223 0.402 0.41 0.781 0.566 1.141 l -2.527 0 c -0.301 -0.695 -0.656 -1.367 -1.055 -2.02 c -0.395 -0.648 -0.813 -1.313 -1.273 -1.977 l -1.254 0 l 0 3.992 l -2.41 0 l 0 -10.688 c 0.238 -0.047 0.492 -0.09 0.762 -0.121 c 0.285 -0.051 0.574 -0.074 0.859 -0.09 c 0.289 -0.023 0.566 -0.043 0.828 -0.051 c 0.266 -0.016 0.484 -0.016 0.684 -0.016 m 2.141 3.535 c 0 -0.574 -0.199 -0.992 -0.59 -1.262 c -0.395 -0.266 -0.914 -0.402 -1.551 -0.402 c -0.09 0 -0.199 0.008 -0.328 0.016 c -0.133 0 -0.262 0.016 -0.395 0.039 l 0 3.258 l 0.523 0 c 0.828 0 1.422 -0.141 1.789 -0.418 c 0.359 -0.297 0.551 -0.707 0.551 -1.23" style="fill:#fff;fill-opacity:1;stroke:none;fill-rule:nonzero"/>
  <path d="m 38 0 l 17.984 18 l -15.227 0 c -1.348 0 -2.758 -1.426 -2.758 -2.773 m 0 -15.227" style="fill:#fff;fill-opacity:0.392;stroke:none;fill-rule:nonzero"/>
  <path d="m 46 58.36 c 0 0.527 -0.082 1.027 -0.238 1.492 c -0.148 0.469 -0.395 0.871 -0.746 1.223 c -0.336 0.352 -0.777 0.633 -1.328 0.844 c -0.551 0.199 -1.215 0.297 -2 0.297 c -0.82 0 -1.512 -0.09 -2.059 -0.277 c -0.551 -0.191 -1.012 -0.418 -1.387 -0.691 l 0.918 -1.715 c 0.328 0.191 0.688 0.371 1.074 0.543 c 0.41 0.18 0.82 0.262 1.238 0.262 c 0.625 0 1.133 -0.141 1.508 -0.434 c 0.395 -0.305 0.582 -0.863 0.582 -1.664 l 0 -5.309 l -4.051 0 l 0 -1.785 l 6.488 0 l 0 7.215" style="fill:#fff;fill-opacity:1;stroke:none;fill-rule:nonzero"/>
  <path d="m 18 0 l 6 0 l 0 6 l -6 0 m 0 -6" style="fill:#f9f9f9;fill-opacity:1;stroke:none;fill-rule:evenodd"/>
  <path d="m 24 6 l 6 0 l 0 6 l -6 0 m 0 -6" style="fill:#f9f9f9;fill-opacity:1;stroke:none;fill-rule:evenodd"/>
  <path d="m 18 12 l 6 0 l 0 6 l -6 0 m 0 -6" style="fill:#f9f9f9;fill-opacity:1;stroke:none;fill-rule:evenodd"/>
  <path d="m 24 18 l 6 0 l 0 6 l -6 0 m 0 -6" style="fill:#f9f9f9;fill-opacity:1;stroke:none;fill-rule:evenodd"/>
  <path d="m 18 24 l 6 0 l 0 6 l -6 0 m 0 -6" style="fill:#f9f9f9;fill-opacity:1;stroke:none;fill-rule:evenodd"/>
  <path d="m 18 32 l 12 0 l 0 12 l -12 0 m 0 -12" style="fill:#f9f9f9;fill-opacity:1;stroke:none;fill-rule:evenodd"/>
 </g>
</svg>
