<svg xmlns="http://www.w3.org/2000/svg" viewBox="0 0 64 64">
 <g>
  <path d="m 10.672 0 c -1.375 0 -2.672 1.355 -2.672 2.789 l 0 58.42 c 0 1.355 1.375 2.789 2.672 2.789 l 42.656 0 c 1.297 0 2.672 -1.434 2.672 -2.789 l 0 -43.21 l -18 -18 m -27.328 0" style="fill:#de1818;fill-opacity:1;stroke:none;fill-rule:nonzero"/>
  <path d="m 42 18 l 14 14 l 0 -14 m -14 0" style="fill:#000;fill-opacity:0.196;stroke:none;fill-rule:nonzero"/>
  <path d="m 38 0 l 17.984 18 l -15.227 0 c -1.348 0 -2.758 -1.426 -2.758 -2.773 m 0 -15.227" style="fill:#fff;fill-opacity:0.392;stroke:none;fill-rule:nonzero"/>
  <path d="m 31.375 21.352 c 0 0 0.922 8.492 -5.586 19.711 c -6.508 11.211 -8.422 9.703 -9.102 9.32 c -0.688 -0.391 -1.57 -1.656 1.32 -4.18 c 2.883 -2.523 4.01 -2.477 4.01 -2.477 c 0 0 -2.641 1.602 -3.664 3.156 c -1.031 1.555 -1.859 2.523 -1.617 2.961 c 0.242 0.438 3.195 -1.789 4.414 -3.68 c 1.945 -3.01 5.617 -8.602 7.328 -13.938 c 1.711 -5.344 2.898 -10.875 2.898 -10.875 m 0 0" style="fill:#fff;fill-opacity:1;stroke:none;fill-rule:nonzero"/>
  <path d="m 47.41 41.01 c 0 0 -0.148 0.391 -1.859 0.25 c -1.711 -0.148 -8.367 -2.234 -11.938 -6.508 c -3.57 -4.273 -3.867 -10.148 -4.109 -13.203 c -0.25 -3.055 1.109 -2.203 1.305 -1.82 c 0.305 0.258 0.453 1.094 0.453 1.094 c 0 0 -0.109 -1.25 -0.648 -1.789 c -0.539 -0.531 -1.016 -0.539 -1.555 0.383 c -0.539 0.922 -0.781 3.492 -0.344 5.969 c 0.445 2.477 2.258 8.156 4.508 10.773 c 2.25 2.625 6.75 4.906 10.08 5.586 c 3.328 0.68 4.109 -0.727 4.109 -0.727 m 0 -0.008" style="fill:#fff;fill-opacity:1;stroke:none;fill-rule:nonzero"/>
  <path d="m 25.734 42.13 c 0 0 6.461 -2.086 12.578 -2.664 c 6.117 -0.586 8.227 0.047 8.758 0.484 c 0.539 0.438 0.539 0.922 0.539 0.922 c 0 0 0.688 -0.68 0.234 -1.367 c -0.383 -0.719 -0.969 -1.305 -5.813 -1.156 c -4.844 0.141 -5.188 0.336 -9.641 1.164 c -4.453 0.828 -6.656 2.617 -6.656 2.617 m 0 0" style="fill:#fff;fill-opacity:1;stroke:none;fill-rule:nonzero"/>
 </g>
</svg>
