<svg xmlns="http://www.w3.org/2000/svg" viewBox="0 0 64 64">
 <path d="m 10.672 0 c -1.375 0 -2.672 1.355 -2.672 2.789 l 0 58.42 c 0 1.355 1.375 2.789 2.672 2.789 l 42.656 0 c 1.297 0 2.672 -1.434 2.672 -2.789 l 0 -43.21 -18 -18 m -27.328 0" style="fill:#dcdcdc;fill-opacity:1;stroke:none;fill-rule:nonzero"/>
 <path d="m 42 18 14 14 0 -14 z m 0 0" style="fill:#000;fill-opacity:0.196;stroke:none;fill-rule:nonzero"/>
 <path d="m 38 0 17.984 18 -15.227 0 c -1.348 0 -2.758 -1.426 -2.758 -2.773 m 0 -15.227" style="fill:#fff;fill-opacity:0.392;stroke:none;fill-rule:nonzero"/>
 <path d="m 18.219 43.988 -0.465 -2.762 -2.633 0 -0.441 2.762 -2.039 0 c 0.465 -2.355 0.934 -4.5 1.414 -6.43 0.48 -1.949 0.941 -3.785 1.391 -5.527 l 2.129 0 c 0.473 1.75 0.934 3.609 1.391 5.586 0.465 1.961 0.918 4.082 1.348 6.371 l -2.094 0 m -1.758 -9.641 c -0.105 0.449 -0.203 0.887 -0.301 1.293 -0.09 0.398 -0.172 0.805 -0.262 1.203 -0.07 0.383 -0.145 0.781 -0.219 1.18 -0.063 0.398 -0.129 0.813 -0.188 1.234 l 1.93 0 c -0.066 -0.422 -0.133 -0.836 -0.195 -1.234 -0.066 -0.398 -0.141 -0.797 -0.223 -1.18 -0.07 -0.398 -0.16 -0.805 -0.258 -1.203 -0.082 -0.406 -0.18 -0.844 -0.285 -1.293" style="fill:#555;fill-opacity:1;stroke:none;fill-rule:nonzero"/>
 <path d="m 24.16 42.25 c 0.324 0 0.602 -0.031 0.813 -0.113 0.219 -0.09 0.398 -0.203 0.52 -0.348 0.129 -0.156 0.219 -0.32 0.262 -0.496 0.047 -0.195 0.078 -0.391 0.078 -0.586 0 -0.246 -0.063 -0.465 -0.176 -0.66 -0.117 -0.188 -0.27 -0.355 -0.449 -0.496 -0.18 -0.152 -0.383 -0.293 -0.602 -0.406 c -0.227 -0.129 -0.445 -0.242 -0.676 -0.348 -0.289 -0.133 -0.602 -0.277 -0.918 -0.449 -0.324 -0.16 -0.609 -0.379 -0.875 -0.633 -0.262 -0.262 -0.473 -0.578 -0.645 -0.949 c -0.16 -0.383 -0.25 -0.863 -0.25 -1.434 0 -1.121 0.301 -1.992 0.895 -2.625 0.602 -0.633 1.43 -0.949 2.484 -0.949 0.602 0 1.133 0.09 1.578 0.25 0.457 0.172 0.836 0.359 1.145 0.563 l -0.574 1.836 c -0.262 -0.18 -0.563 -0.332 -0.895 -0.465 -0.316 -0.129 -0.684 -0.195 -1.113 -0.195 c -1.043 0 -1.563 0.465 -1.563 1.375 0 0.238 0.059 0.441 0.164 0.617 0.105 0.172 0.234 0.328 0.398 0.465 0.168 0.129 0.355 0.242 0.551 0.348 0.219 0.105 0.422 0.203 0.625 0.293 0.313 0.141 0.629 0.301 0.953 0.48 0.34 0.172 0.648 0.398 0.926 0.699 0.285 0.285 0.52 0.641 0.699 1.082 0.188 0.422 0.277 0.965 0.277 1.625 0 1.121 -0.309 1.992 -0.91 2.609 -0.594 0.602 -1.504 0.902 -2.723 0.902 -0.82 0 -1.473 -0.098 -1.961 -0.309 -0.488 -0.219 -0.852 -0.414 -1.105 -0.594 l 0.578 -1.934 c 0.285 0.203 0.625 0.398 1.016 0.574 0.406 0.18 0.895 0.27 1.473 0.27" style="fill:#555;fill-opacity:1;stroke:none;fill-rule:nonzero"/>
 <path d="m 33.14 44.24 c -1.391 0 -2.453 -0.535 -3.188 -1.617 -0.73 -1.082 -1.098 -2.625 -1.098 -4.625 c 0 -0.992 0.117 -1.871 0.336 -2.641 0.227 -0.773 0.535 -1.434 0.926 -1.961 0.406 -0.535 0.879 -0.941 1.414 -1.211 0.555 -0.285 1.156 -0.43 1.805 -0.43 0.352 0 0.66 0.039 0.934 0.121 0.293 0.066 0.539 0.137 0.758 0.227 0.211 0.09 0.383 0.188 0.52 0.293 0.156 0.105 0.262 0.18 0.332 0.227 l -0.504 1.895 c -0.242 -0.188 -0.543 -0.348 -0.891 -0.48 -0.344 -0.137 -0.734 -0.211 -1.18 -0.211 -0.309 0 -0.609 0.074 -0.91 0.211 -0.285 0.133 -0.547 0.359 -0.781 0.676 -0.219 0.309 -0.406 0.73 -0.563 1.262 -0.129 0.527 -0.203 1.184 -0.203 1.965 0 1.367 0.195 2.414 0.578 3.156 0.391 0.723 1.023 1.078 1.91 1.078 0.512 0 0.926 -0.07 1.262 -0.211 0.332 -0.145 0.609 -0.285 0.813 -0.422 l 0.488 1.871 c -0.277 0.211 -0.652 0.398 -1.133 0.574 -0.461 0.172 -1.01 0.254 -1.625 0.254" style="fill:#555;fill-opacity:1;stroke:none;fill-rule:nonzero"/>
 <path d="m 37.25 43.988 0 -1.965 2.156 0 0 -8.02 -2.156 0 0 -1.969 6.258 0 0 1.969 -2.129 0 0 8.02 2.129 0 0 1.965 -6.258 0" style="fill:#555;fill-opacity:1;stroke:none;fill-rule:nonzero"/>
 <path d="m 45.22 43.988 0 -1.965 2.156 0 0 -8.02 -2.156 0 0 -1.969 6.262 0 0 1.969 -2.129 0 0 8.02 2.129 0 0 1.965 -6.262 0" style="fill:#555;fill-opacity:1;stroke:none;fill-rule:nonzero"/>
</svg>
