<svg xmlns="http://www.w3.org/2000/svg" viewBox="0 0 64 64">
 <g>
  <path d="m 10.672 0 c -1.375 0 -2.672 1.355 -2.672 2.789 l 0 58.42 c 0 1.355 1.375 2.789 2.672 2.789 l 42.656 0 c 1.297 0 2.672 -1.434 2.672 -2.789 l 0 -43.21 l -18 -18 m -27.328 0" style="fill:#e56f00;fill-opacity:1;stroke:none;fill-rule:nonzero"/>
  <path d="m 42 18 l 14 14 l 0 -14 m -14 0" style="fill:#000;fill-opacity:0.196;stroke:none;fill-rule:nonzero"/>
  <path d="m 38 0 l 17.984 18 l -15.227 0 c -1.348 0 -2.758 -1.426 -2.758 -2.773 m 0 -15.227" style="fill:#fff;fill-opacity:0.392;stroke:none;fill-rule:nonzero"/>
  <path d="m 28.68 38.563 c 0 0 -0.969 0.531 0.688 0.711 c 2.01 0.219 3.03 0.188 5.242 -0.211 c 0 0 0.578 0.344 1.391 0.648 c -4.953 2.01 -11.211 -0.117 -7.32 -1.148" style="fill:#fff;fill-opacity:1;stroke:none;fill-rule:evenodd"/>
  <path d="m 28.07 35.93 c 0 0 -1.086 0.766 0.57 0.93 c 2.148 0.211 3.836 0.227 6.766 -0.313 c 0 0 0.406 0.391 1.039 0.602 c -5.984 1.664 -12.664 0.133 -8.375 -1.219" style="fill:#fff;fill-opacity:1;stroke:none;fill-rule:evenodd"/>
  <path d="m 33.18 31.477 c 1.219 1.328 -0.328 2.531 -0.328 2.531 c 0 0 3.102 -1.516 1.68 -3.414 c -1.328 -1.773 -2.352 -2.656 3.172 -5.695 c 0 0 -8.664 2.055 -4.523 6.578" style="fill:#fff;fill-opacity:1;stroke:none;fill-rule:evenodd"/>
  <path d="m 39.727 40.508 c 0 0 0.719 0.555 -0.789 0.984 c -2.859 0.828 -11.898 1.07 -14.414 0.039 c -0.898 -0.375 0.789 -0.891 1.328 -1 c 0.555 -0.117 0.867 -0.094 0.867 -0.094 c -1 -0.672 -6.492 1.32 -2.781 1.891 c 10.1 1.547 18.414 -0.703 15.789 -1.82" style="fill:#fff;fill-opacity:1;stroke:none;fill-rule:evenodd"/>
  <path d="m 29.14 33.21 c 0 0 -4.602 1.039 -1.625 1.414 c 1.25 0.156 3.75 0.117 6.086 -0.063 c 1.898 -0.156 3.813 -0.477 3.813 -0.477 c 0 0 -0.672 0.273 -1.156 0.586 c -4.672 1.164 -13.695 0.625 -11.1 -0.57 c 2.203 -1.01 3.984 -0.891 3.984 -0.891" style="fill:#fff;fill-opacity:1;stroke:none;fill-rule:evenodd"/>
  <path d="m 37.39 37.586 c 4.75 -2.344 2.555 -4.594 1.023 -4.289 c -0.375 0.078 -0.539 0.141 -0.539 0.141 c 0 0 0.133 -0.211 0.406 -0.297 c 3.03 -1.01 5.359 2.984 -0.984 4.563 c 0 0 0.078 -0.063 0.094 -0.117" style="fill:#fff;fill-opacity:1;stroke:none;fill-rule:evenodd"/>
  <path d="m 34.531 20 c 0 0 2.633 2.492 -2.492 6.328 c -4.109 3.078 -0.938 4.836 0 6.836 c -2.398 -2.047 -4.164 -3.859 -2.984 -5.539 c 1.734 -2.469 6.539 -3.664 5.477 -7.625" style="fill:#fff;fill-opacity:1;stroke:none;fill-rule:evenodd"/>
  <path d="m 29.609 43.922 c 4.555 0.281 11.555 -0.148 11.727 -2.195 c 0 0 -0.32 0.773 -3.773 1.391 c -3.891 0.695 -8.688 0.609 -11.531 0.172 c 0 -0.008 0.586 0.453 3.578 0.633" style="fill:#fff;fill-opacity:1;stroke:none;fill-rule:evenodd"/>
  <path d="m 8 48 l 0 13.336 c 0 1.297 1.375 2.664 2.664 2.664 l 42.672 0 c 1.289 0 2.664 -1.367 2.664 -2.664 l 0 -13.336 m -48 0" style="fill:#000;fill-opacity:0.196;stroke:none;fill-rule:nonzero"/>
  <path d="m 25.898 58.22 c 0 0.543 -0.078 1.063 -0.238 1.547 c -0.148 0.477 -0.402 0.902 -0.77 1.27 c -0.34 0.363 -0.797 0.652 -1.359 0.875 c -0.563 0.203 -1.242 0.309 -2.051 0.309 c -0.844 0 -1.539 -0.094 -2.102 -0.293 c -0.563 -0.195 -1.039 -0.434 -1.43 -0.715 l 0.945 -1.777 c 0.34 0.195 0.707 0.383 1.105 0.563 c 0.418 0.188 0.832 0.273 1.27 0.273 c 0.637 0 1.156 -0.145 1.539 -0.453 c 0.398 -0.313 0.602 -0.891 0.602 -1.727 l 0 -5.504 l -4.152 0 l 0 -1.855 l 6.641 0 l 0 7.488" style="fill:#fff;fill-opacity:1;stroke:none;fill-rule:nonzero"/>
  <path d="m 34.36 61.984 l -0.59 -2.598 l -3.309 0 l -0.563 2.598 l -2.57 0 c 0.59 -2.215 1.184 -4.238 1.789 -6.05 c 0.605 -1.832 1.184 -3.566 1.742 -5.199 l 2.691 0 c 0.586 1.641 1.172 3.395 1.742 5.25 c 0.598 1.848 1.156 3.844 1.711 6 l -2.645 0 m -2.215 -9.07 c -0.137 0.422 -0.262 0.832 -0.383 1.215 c -0.102 0.375 -0.211 0.75 -0.32 1.133 c -0.094 0.355 -0.188 0.73 -0.281 1.105 c -0.078 0.375 -0.156 0.766 -0.238 1.164 l 2.434 0 c -0.086 -0.398 -0.164 -0.789 -0.25 -1.164 c -0.074 -0.375 -0.168 -0.75 -0.277 -1.105 c -0.094 -0.383 -0.199 -0.758 -0.316 -1.133 c -0.109 -0.383 -0.23 -0.793 -0.367 -1.215" style="fill:#fff;fill-opacity:1;stroke:none;fill-rule:nonzero"/>
  <path d="m 41.477 50.605 c 0.707 0 1.352 0.07 1.922 0.215 c 0.578 0.145 1.074 0.375 1.488 0.672 c 0.418 0.305 0.734 0.695 0.945 1.164 c 0.23 0.461 0.34 1 0.34 1.633 c 0 0.656 -0.145 1.254 -0.441 1.789 c -0.297 0.527 -0.781 0.934 -1.465 1.215 c 0.23 0.316 0.469 0.664 0.723 1.055 c 0.258 0.375 0.504 0.777 0.742 1.203 c 0.238 0.406 0.469 0.824 0.68 1.25 c 0.23 0.414 0.426 0.809 0.586 1.184 l -2.594 0 c -0.305 -0.727 -0.664 -1.422 -1.082 -2.094 c -0.398 -0.672 -0.832 -1.363 -1.301 -2.051 l -1.285 0 l 0 4.145 l -2.465 0 l 0 -11.09 c 0.238 -0.051 0.492 -0.094 0.781 -0.125 c 0.289 -0.051 0.586 -0.078 0.875 -0.094 c 0.301 -0.027 0.578 -0.043 0.844 -0.051 c 0.273 -0.02 0.504 -0.02 0.707 -0.02 m 2.188 3.668 c 0 -0.594 -0.207 -1.027 -0.605 -1.309 c -0.398 -0.273 -0.926 -0.418 -1.582 -0.418 c -0.094 0 -0.203 0.008 -0.34 0.016 c -0.137 0 -0.273 0.02 -0.402 0.043 l 0 3.379 l 0.539 0 c 0.84 0 1.453 -0.145 1.828 -0.434 c 0.375 -0.309 0.563 -0.734 0.563 -1.277" style="fill:#fff;fill-opacity:1;stroke:none;fill-rule:nonzero"/>
 </g>
</svg>
