<svg xmlns="http://www.w3.org/2000/svg" viewBox="0 0 64 64">
 <path d="M 10.6875,0 C 9.3125,0 8,1.378906 8,2.8125 l 0,58.375 C 8,62.539062 9.390625,64 10.6875,64 l 42.625,0 C 54.609375,64 56,62.539062 56,61.1875 L 56,2.75 C 56,1.402344 54.597656,0 53.25,0 Z m 0,0" style="fill:#1e7045;fill-opacity:1;stroke:none;fill-rule:nonzero"/>
 <path d="m 46 18 0 26 -28 0 0 -26 z m -2 2 -14 0 0 6 14 0 z m -16 0 -8 0 0 6 8 0 z m 16 8 -14 0 0 6 14 0 z m -16 0 -8 0 0 6 8 0 z m 16 8 -14 0 0 6 14 0 z m -16 0 -8 0 0 6 8 0 z m 0 0" style="fill:#fff;fill-opacity:1;stroke:none;fill-rule:nonzero"/>
 <path d="m 8 48 0 13.336 c 0 1.297 1.375 2.664 2.664 2.664 l 42.672 0 c 1.289 0 2.664 -1.367 2.664 -2.664 l 0 -13.336 m -48 0" style="fill:#000;fill-opacity:0.196;stroke:none;fill-rule:nonzero"/>
 <g transform="matrix(0.84354244,0,0,0.84354244,0.81623608,8.7003687)">
  <path d="m 24.602 62 c -0.246 -0.613 -0.539 -1.297 -0.902 -2.043 -0.344 -0.746 -0.703 -1.5 -1.09 -2.246 -0.371 0.715 -0.738 1.453 -1.105 2.23 c -0.371 0.754 -0.691 1.445 -0.961 2.059 l -2.543 0 c 0.133 -0.328 0.313 -0.715 0.559 -1.172 0.254 -0.461 0.523 -0.961 0.82 -1.484 0.313 -0.535 0.621 -1.074 0.957 -1.633 0.328 -0.566 0.648 -1.109 0.953 -1.625 l -3.094 -5.281 2.543 0 1.871 3.574 1.969 -3.574 2.371 0 -3.02 5.223 c 0.344 0.52 0.68 1.066 1.016 1.633 0.328 0.566 0.633 1.117 0.922 1.668 0.285 0.523 0.539 1.023 0.762 1.5 0.211 0.457 0.383 0.844 0.516 1.172 l -2.543 0" style="fill:#fff;fill-opacity:1;stroke:none;fill-rule:nonzero"/>
  <path d="m 36.15 62 -7.438 0 0 -11.195 2.371 0 0 9.352 5.066 0 0 1.844" style="fill:#fff;fill-opacity:1;stroke:none;fill-rule:nonzero"/>
  <path d="m 45.6 50.805 0 1.844 -3.117 0 0 9.352 -2.371 0 0 -9.352 -3.125 0 0 -1.844 8.613 0" style="fill:#fff;fill-opacity:1;stroke:none;fill-rule:nonzero"/>
  <path d="m 53.39 62 c -0.246 -0.613 -0.539 -1.297 -0.902 -2.043 -0.344 -0.746 -0.703 -1.5 -1.09 -2.246 -0.371 0.715 -0.738 1.453 -1.105 2.23 c -0.371 0.754 -0.691 1.445 -0.961 2.059 l -2.543 0 c 0.133 -0.328 0.313 -0.715 0.559 -1.172 0.254 -0.461 0.523 -0.961 0.82 -1.484 0.313 -0.535 0.621 -1.074 0.957 -1.633 0.328 -0.566 0.648 -1.109 0.953 -1.625 l -3.094 -5.281 2.543 0 1.871 3.574 1.969 -3.574 2.371 0 -3.02 5.223 c 0.344 0.52 0.68 1.066 1.016 1.633 0.328 0.566 0.633 1.117 0.922 1.668 0.285 0.523 0.539 1.023 0.762 1.5 0.211 0.457 0.383 0.844 0.516 1.172 l -2.543 0" style="fill:#fff;fill-opacity:1;stroke:none;fill-rule:nonzero"/>
 </g>
</svg>
