<svg xmlns="http://www.w3.org/2000/svg" viewBox="0 0 64 64">
 <g>
  <path d="m 10.672 0 c -1.375 0 -2.672 1.355 -2.672 2.789 l 0 58.42 c 0 1.355 1.375 2.789 2.672 2.789 l 42.656 0 c 1.297 0 2.672 -1.434 2.672 -2.789 l 0 -43.21 l -18 -18 m -27.328 0" style="fill:#3398c3;fill-opacity:1;stroke:none;fill-rule:nonzero"/>
  <path d="m 42 18 l 14 14 l 0 -14 m -14 0" style="fill:#000;fill-opacity:0.196;stroke:none;fill-rule:nonzero"/>
  <path d="m 38 0 l 17.984 18 l -15.227 0 c -1.348 0 -2.758 -1.426 -2.758 -2.773 m 0 -15.227" style="fill:#fff;fill-opacity:0.392;stroke:none;fill-rule:nonzero"/>
 </g>
 <path d="m 46 24 c -3 3 -5 6 -9.898 7.413 -0.606 -3.698 -3.825 -6.413 -7.602 -6.413 -4.253 0 -7.7 3.42 -7.7 7.639 0.004 0.319 0.027 0.638 0.071 0.955 c -1.739 0.984 -2.871 2.755 -2.871 5.684 0 4.901 4.777 9.722 10.221 9.722 10.767 0 17.779 -11.11 17.779 -25 m -17.5 4.444 c 2.32 0 4.2 1.865 4.2 4.167 0 2.301 -1.88 4.167 -4.2 4.167 -2.32 0 -4.2 -1.865 -4.2 -4.167 0 -2.301 1.88 -4.167 4.2 -4.167 z m 10.221 10.215 c 0 0.772 -4.854 6.868 -9.521 6.868 -4.279 0 -6.721 -2.871 -6.721 -5.854 4.667 4.54 12.322 1.546 16.242 -1.015 z" style="fill:#fff;opacity:1;fill-opacity:1;stroke:none"/>
 <ellipse cx="30.14" cy="30.877" rx="2.14" ry="2.123" style="fill:#fff;opacity:1;fill-opacity:1;stroke:none"/>
</svg>
