<svg xmlns="http://www.w3.org/2000/svg" viewBox="0 0 64 64">
 <g>
  <path d="m 10.672 0 c -1.375 0 -2.672 1.355 -2.672 2.789 l 0 58.42 c 0 1.355 1.375 2.789 2.672 2.789 l 42.656 0 c 1.297 0 2.672 -1.434 2.672 -2.789 l 0 -43.21 l -18 -18 m -27.328 0" style="fill:#e56f00;fill-opacity:1;stroke:none;fill-rule:nonzero"/>
  <path d="m 42 18 l 14 14 l 0 -14 m -14 0" style="fill:#000;fill-opacity:0.196;stroke:none;fill-rule:nonzero"/>
  <path d="m 38 0 l 17.984 18 l -15.227 0 c -1.348 0 -2.758 -1.426 -2.758 -2.773 m 0 -15.227" style="fill:#fff;fill-opacity:0.392;stroke:none;fill-rule:nonzero"/>
  <path d="m 27.676 43.871 c 0 0 -1.262 0.699 0.895 0.934 c 2.617 0.285 3.949 0.246 6.828 -0.273 c 0 0 0.75 0.445 1.809 0.832 c -6.449 2.625 -14.594 -0.152 -9.531 -1.492" style="fill:#fff;fill-opacity:1;stroke:none;fill-rule:evenodd"/>
  <path d="m 26.883 40.453 c 0 0 -1.414 0.996 0.742 1.199 c 2.797 0.273 4.996 0.297 8.809 -0.398 c 0 0 0.531 0.512 1.355 0.785 c -7.793 2.168 -16.488 0.172 -10.906 -1.586" style="fill:#fff;fill-opacity:1;stroke:none;fill-rule:evenodd"/>
  <path d="m 33.535 34.656 c 1.586 1.727 -0.426 3.293 -0.426 3.293 c 0 0 4.04 -1.984 2.188 -4.453 c -1.73 -2.309 -3.063 -3.449 4.129 -7.406 c 0 0 -11.281 2.676 -5.891 8.566" style="fill:#fff;fill-opacity:1;stroke:none;fill-rule:evenodd"/>
  <path d="m 42.06 46.4 c 0 0 0.938 0.734 -1.027 1.293 c -3.723 1.066 -15.492 1.391 -18.766 0.039 c -1.168 -0.477 1.027 -1.16 1.73 -1.293 c 0.723 -0.152 1.129 -0.121 1.129 -0.121 c -1.305 -0.875 -8.453 1.711 -3.621 2.453 c 13.152 2.023 23.973 -0.906 20.555 -2.371" style="fill:#fff;fill-opacity:1;stroke:none;fill-rule:evenodd"/>
  <path d="m 28.28 36.914 c 0 0 -5.992 1.34 -2.117 1.828 c 1.629 0.215 4.883 0.164 7.926 -0.082 c 2.469 -0.191 4.961 -0.609 4.961 -0.609 c 0 0 -0.875 0.348 -1.504 0.766 c -6.082 1.516 -17.832 0.801 -14.453 -0.746 c 2.867 -1.309 5.188 -1.156 5.188 -1.156" style="fill:#fff;fill-opacity:1;stroke:none;fill-rule:evenodd"/>
  <path d="m 39.02 42.598 c 6.184 -3.039 3.324 -5.969 1.332 -5.574 c -0.488 0.094 -0.703 0.184 -0.703 0.184 c 0 0 0.172 -0.273 0.527 -0.387 c 3.949 -1.32 6.98 3.875 -1.281 5.941 c 0 0 0.102 -0.082 0.125 -0.164" style="fill:#fff;fill-opacity:1;stroke:none;fill-rule:evenodd"/>
  <path d="m 35.3 19.711 c 0 0 3.426 3.246 -3.246 8.242 c -5.352 4 -1.223 6.285 0 8.898 c -3.121 -2.676 -5.422 -5.02 -3.887 -7.211 c 2.258 -3.215 8.516 -4.77 7.133 -9.93" style="fill:#fff;fill-opacity:1;stroke:none;fill-rule:evenodd"/>
  <path d="m 28.887 50.859 c 5.93 0.355 15.04 -0.207 15.27 -2.859 c 0 0 -0.418 1.01 -4.914 1.809 c -5.066 0.895 -11.313 0.793 -15.01 0.215 c 0 0 0.762 0.602 4.656 0.836" style="fill:#fff;fill-opacity:1;stroke:none;fill-rule:evenodd"/>
 </g>
</svg>
