<svg xmlns="http://www.w3.org/2000/svg" viewBox="0 0 64 64">
 <g>
  <path d="m 10.672 0 c -1.375 0 -2.672 1.355 -2.672 2.789 l 0 58.42 c 0 1.355 1.375 2.789 2.672 2.789 l 42.656 0 c 1.297 0 2.672 -1.434 2.672 -2.789 l 0 -43.21 l -18 -18 m -27.328 0" style="fill:#37a34d;fill-opacity:1;stroke:none;fill-rule:nonzero"/>
  <path d="m 42 18 l 14 14 l 0 -14 m -14 0" style="fill:#000;fill-opacity:0.196;stroke:none;fill-rule:nonzero"/>
  <path d="m 38 0 l 17.984 18 l -15.227 0 c -1.348 0 -2.758 -1.426 -2.758 -2.773 m 0 -15.227" style="fill:#fff;fill-opacity:0.392;stroke:none;fill-rule:nonzero"/>
  <path d="m 23.289 22 c -0.703 0.066 -1.305 0.813 -1.289 1.605 l 0 16.828 c 0.008 0.828 0.668 1.574 1.406 1.566 l 17.223 0 c 0.727 -0.016 1.363 -0.746 1.371 -1.566 l 0 -16.828 c 0.016 -0.836 -0.629 -1.598 -1.371 -1.605 m -16.629 2 16 0 0 11.402 -4.703 -5.316 -2.98 2.773 -3.93 -4.922 -4.387 5.66" style="fill:#fff;fill-opacity:1;stroke:none;fill-rule:nonzero"/>
  <path d="m 8 48 l 0 13.336 c 0 1.297 1.375 2.664 2.664 2.664 l 42.672 0 c 1.289 0 2.664 -1.367 2.664 -2.664 l 0 -13.336 m -48 0" style="fill:#000;fill-opacity:0.196;stroke:none;fill-rule:nonzero"/>
  <path d="m 26.2 58.688 c 0 0.656 -0.125 1.215 -0.371 1.656 c -0.254 0.445 -0.598 0.797 -1.031 1.066 c -0.418 0.254 -0.926 0.445 -1.516 0.566 c -0.582 0.105 -1.207 0.156 -1.879 0.156 c -0.531 0 -1.098 -0.031 -1.672 -0.09 c -0.582 -0.051 -1.156 -0.125 -1.723 -0.23 l 0 -10.609 c 0.469 -0.074 0.969 -0.133 1.523 -0.18 c 0.551 -0.059 1.102 -0.082 1.633 -0.082 c 0.926 0 1.672 0.082 2.254 0.262 c 0.582 0.164 1.035 0.387 1.363 0.672 c 0.328 0.27 0.547 0.574 0.672 0.918 c 0.113 0.336 0.172 0.68 0.18 1.027 c -0.008 0.516 -0.148 0.973 -0.434 1.375 c -0.281 0.395 -0.656 0.715 -1.133 0.953 c 0.828 0.27 1.395 0.629 1.68 1.09 c 0.305 0.457 0.453 0.941 0.453 1.449 m -5.766 -1.484 l 0 2.969 c 0.172 0.027 0.363 0.043 0.559 0.051 c 0.207 0.016 0.41 0.023 0.605 0.023 c 0.281 0 0.551 -0.023 0.813 -0.055 c 0.262 -0.051 0.492 -0.125 0.688 -0.23 c 0.215 -0.117 0.387 -0.281 0.52 -0.477 c 0.129 -0.215 0.195 -0.477 0.195 -0.797 c 0 -0.531 -0.188 -0.91 -0.574 -1.129 c -0.367 -0.23 -0.867 -0.352 -1.5 -0.352 l -1.305 0 m 0.953 -1.805 c 0.613 0 1.082 -0.117 1.402 -0.355 c 0.309 -0.246 0.473 -0.582 0.473 -1 c 0 -0.262 -0.047 -0.465 -0.137 -0.621 c -0.09 -0.164 -0.223 -0.289 -0.379 -0.371 c -0.156 -0.09 -0.344 -0.152 -0.547 -0.172 c -0.215 -0.039 -0.43 -0.055 -0.656 -0.055 c -0.184 0 -0.379 0.008 -0.574 0.016 c -0.199 0.016 -0.371 0.031 -0.535 0.059 l 0 2.5 l 0.953 0" style="fill:#fff;fill-opacity:1;stroke:none;fill-rule:nonzero"/>
  <path d="m 29.988 51.06 c 0.098 0.246 0.203 0.566 0.336 0.953 c 0.145 0.383 0.301 0.805 0.457 1.254 c 0.156 0.441 0.313 0.902 0.477 1.359 c 0.156 0.461 0.305 0.879 0.449 1.273 c 0.156 -0.434 0.32 -0.887 0.492 -1.344 c 0.172 -0.469 0.336 -0.922 0.492 -1.348 c 0.164 -0.434 0.305 -0.836 0.438 -1.211 c 0.129 -0.379 0.254 -0.691 0.359 -0.938 l 2.01 0 c 0.09 0.953 0.18 1.879 0.254 2.789 c 0.098 0.91 0.164 1.805 0.223 2.699 c 0.066 0.883 0.113 1.777 0.156 2.688 c 0.039 0.895 0.074 1.813 0.098 2.754 l -2.23 0 l 0.125 -8.492 l -1.504 4.625 l -1.777 0 l -1.441 -4.625 l 0.098 8.492 l -2.23 0 c 0.039 -0.891 0.082 -1.828 0.121 -2.793 c 0.051 -0.961 0.109 -1.922 0.156 -2.879 c 0.051 -0.953 0.117 -1.879 0.18 -2.773 c 0.074 -0.891 0.164 -1.719 0.254 -2.484 l 2.01 0" style="fill:#fff;fill-opacity:1;stroke:none;fill-rule:nonzero"/>
  <path d="m 41.11 50.941 c 1.551 0 2.754 0.285 3.605 0.859 c 0.863 0.566 1.289 1.5 1.289 2.789 c 0 1.313 -0.434 2.254 -1.305 2.844 c -0.859 0.574 -2.074 0.871 -3.656 0.871 l -0.859 0 l 0 3.688 l -2.438 0 l 0 -10.789 c 0.238 -0.051 0.5 -0.09 0.797 -0.121 c 0.305 -0.035 0.605 -0.059 0.91 -0.074 c 0.293 -0.027 0.598 -0.043 0.887 -0.051 c 0.285 -0.016 0.539 -0.016 0.77 -0.016 m 0.27 1.887 c -0.141 0 -0.344 0.008 -0.605 0.016 c -0.254 0 -0.453 0.016 -0.59 0.039 l 0 3.527 l 0.984 0 c 0.777 0 1.359 -0.133 1.754 -0.402 c 0.395 -0.285 0.59 -0.762 0.59 -1.434 c 0 -0.633 -0.195 -1.082 -0.59 -1.336 c -0.379 -0.273 -0.895 -0.41 -1.543 -0.41" style="fill:#fff;fill-opacity:1;stroke:none;fill-rule:nonzero"/>
 </g>
</svg>
