<svg xmlns="http://www.w3.org/2000/svg" viewBox="0 0 64 64">
 <g>
  <path d="m 10.672 0 c -1.375 0 -2.672 1.355 -2.672 2.789 l 0 58.42 c 0 1.355 1.375 2.789 2.672 2.789 l 42.656 0 c 1.297 0 2.672 -1.434 2.672 -2.789 l 0 -43.21 l -18 -18 m -27.328 0" style="fill:#37a34d;fill-opacity:1;stroke:none;fill-rule:nonzero"/>
  <path d="m 42 18 l 14 14 l 0 -14 m -14 0" style="fill:#000;fill-opacity:0.196;stroke:none;fill-rule:nonzero"/>
  <path d="m 38 0 l 17.984 18 l -15.227 0 c -1.348 0 -2.758 -1.426 -2.758 -2.773 m 0 -15.227" style="fill:#fff;fill-opacity:0.392;stroke:none;fill-rule:nonzero"/>
  <path d="m 23.289 22 c -0.703 0.066 -1.305 0.813 -1.289 1.605 l 0 16.828 c 0.008 0.828 0.668 1.574 1.406 1.566 l 17.223 0 c 0.727 -0.016 1.363 -0.746 1.371 -1.566 l 0 -16.828 c 0.016 -0.836 -0.629 -1.598 -1.371 -1.605 m -16.629 2 16 0 0 11.402 -4.703 -5.316 -2.98 2.773 -3.93 -4.922 -4.387 5.66" style="fill:#fff;fill-opacity:1;stroke:none;fill-rule:nonzero"/>
  <path d="m 8 48 l 0 13.336 c 0 1.297 1.375 2.664 2.664 2.664 l 42.672 0 c 1.289 0 2.664 -1.367 2.664 -2.664 l 0 -13.336 m -48 0" style="fill:#000;fill-opacity:0.196;stroke:none;fill-rule:nonzero"/>
  <path d="m 18 61.984 l 0 -1.801 l 2.711 0 l 0 -7.316 l -2.711 0 l 0 -1.801 l 7.891 0 l 0 1.801 l -2.695 0 l 0 7.316 l 2.695 0 l 0 1.801 l -7.891 0" style="fill:#fff;fill-opacity:1;stroke:none;fill-rule:nonzero"/>
  <path d="m 32.891 62.21 c -1.75 0 -3.086 -0.492 -4.01 -1.484 c -0.926 -0.984 -1.387 -2.387 -1.387 -4.215 c 0 -0.898 0.145 -1.707 0.426 -2.41 c 0.277 -0.707 0.668 -1.301 1.16 -1.785 c 0.508 -0.492 1.102 -0.859 1.785 -1.109 c 0.699 -0.258 1.453 -0.383 2.27 -0.383 c 0.441 0 0.832 0.035 1.184 0.102 c 0.359 0.059 0.676 0.133 0.941 0.215 c 0.27 0.082 0.492 0.168 0.66 0.258 c 0.191 0.102 0.336 0.168 0.426 0.219 l -0.641 1.727 c -0.309 -0.176 -0.684 -0.324 -1.129 -0.441 c -0.426 -0.125 -0.918 -0.191 -1.484 -0.191 c -0.383 0 -0.766 0.066 -1.141 0.191 c -0.359 0.117 -0.684 0.324 -0.984 0.617 c -0.277 0.281 -0.512 0.668 -0.703 1.141 c -0.176 0.484 -0.258 1.086 -0.258 1.805 c 0 1.242 0.242 2.199 0.719 2.875 c 0.5 0.652 1.301 0.984 2.41 0.984 c 0.641 0 1.168 -0.066 1.586 -0.191 c 0.426 -0.133 0.766 -0.258 1.023 -0.391 l 0.617 1.711 c -0.34 0.191 -0.816 0.367 -1.418 0.531 c -0.59 0.152 -1.273 0.227 -2.051 0.227" style="fill:#fff;fill-opacity:1;stroke:none;fill-rule:nonzero"/>
  <path d="m 40.04 56.51 c 0 0.535 0.016 1.035 0.059 1.504 c 0.051 0.457 0.141 0.859 0.277 1.199 c 0.148 0.344 0.348 0.609 0.605 0.809 c 0.254 0.203 0.594 0.301 1.02 0.301 c 0.418 0 0.75 -0.098 1.01 -0.301 c 0.27 -0.199 0.469 -0.465 0.602 -0.809 c 0.141 -0.355 0.242 -0.758 0.277 -1.215 c 0.059 -0.461 0.082 -0.953 0.082 -1.488 c 0 -0.523 -0.023 -1.016 -0.082 -1.477 c -0.035 -0.473 -0.137 -0.875 -0.277 -1.215 c -0.133 -0.344 -0.332 -0.609 -0.582 -0.813 c -0.262 -0.199 -0.594 -0.297 -1.027 -0.297 c -0.426 0 -0.766 0.098 -1.02 0.297 c -0.258 0.203 -0.457 0.477 -0.605 0.828 c -0.137 0.34 -0.227 0.742 -0.277 1.199 c -0.043 0.461 -0.059 0.953 -0.059 1.477 m -2.512 0 c 0 -1.875 0.395 -3.293 1.188 -4.246 c 0.781 -0.965 1.883 -1.441 3.285 -1.441 c 1.461 0 2.57 0.477 3.336 1.441 c 0.762 0.953 1.145 2.371 1.145 4.246 c 0 1.887 -0.395 3.305 -1.168 4.273 c -0.777 0.949 -1.871 1.426 -3.289 1.426 c -1.457 0 -2.574 -0.477 -3.352 -1.426 c -0.758 -0.969 -1.145 -2.387 -1.145 -4.273" style="fill:#fff;fill-opacity:1;stroke:none;fill-rule:nonzero"/>
 </g>
</svg>
