<svg xmlns="http://www.w3.org/2000/svg" viewBox="0 0 64 64">
 <g>
  <path d="m 10.688 0 c -1.375 0 -2.688 1.379 -2.688 2.813 l 0 58.38 c 0 1.352 1.391 2.813 2.688 2.813 l 42.625 0 c 1.297 0 2.688 -1.461 2.688 -2.813 l 0 -58.44 c 0 -1.348 -1.402 -2.75 -2.75 -2.75 m -42.563 0" style="fill:#785a8b;fill-opacity:1;stroke:none;fill-rule:nonzero"/>
  <path d="m 8 48 l 0 13.336 c 0 1.297 1.375 2.664 2.664 2.664 l 42.672 0 c 1.289 0 2.664 -1.367 2.664 -2.664 l 0 -13.336 m -48 0" style="fill:#000;fill-opacity:0.196;stroke:none;fill-rule:nonzero"/>
  <path d="m 24 22 l 0 12 l -4 0 l 4 8 l 2 0 l 0 -18 c 5.906 0 12.297 0 18 0 l 0 -2 m -12.762 3.762 l -2.828 2.953 l 4.957 5.164 l -4.957 5.168 l 2.828 2.953 l 4.957 -5.168 l 4.957 5.168 l 2.832 -2.953 l -4.957 -5.168 l 4.957 -5.164 l -2.832 -2.953 l -4.957 5.164 m -4.957 -5.164" style="fill:#fff;fill-opacity:1;stroke:none;fill-rule:nonzero"/>
  <path d="m 20.27 56.35 c 0 0.531 0.016 1.027 0.059 1.488 c 0.059 0.457 0.148 0.852 0.281 1.191 c 0.148 0.34 0.348 0.605 0.594 0.801 c 0.258 0.199 0.598 0.301 1.02 0.301 c 0.414 0 0.742 -0.102 1 -0.301 c 0.266 -0.195 0.461 -0.461 0.594 -0.801 c 0.148 -0.355 0.242 -0.75 0.281 -1.207 c 0.051 -0.453 0.082 -0.941 0.082 -1.473 c 0 -0.52 -0.031 -1.01 -0.082 -1.461 c -0.039 -0.473 -0.133 -0.867 -0.281 -1.207 c -0.133 -0.34 -0.32 -0.605 -0.578 -0.805 c -0.246 -0.195 -0.586 -0.297 -1.016 -0.297 c -0.422 0 -0.762 0.102 -1.02 0.297 c -0.246 0.199 -0.445 0.473 -0.594 0.82 c -0.133 0.34 -0.223 0.734 -0.281 1.191 c -0.043 0.453 -0.059 0.941 -0.059 1.461 m -2.496 0 c 0 -1.859 0.398 -3.266 1.184 -4.207 c 0.785 -0.957 1.867 -1.43 3.266 -1.43 c 1.453 0 2.555 0.473 3.313 1.43 c 0.754 0.941 1.133 2.348 1.133 4.207 c 0 1.871 -0.379 3.277 -1.156 4.234 c -0.77 0.941 -1.859 1.414 -3.266 1.414 c -1.453 0 -2.563 -0.473 -3.332 -1.414 c -0.762 -0.957 -1.141 -2.363 -1.141 -4.234" style="fill:#fff;fill-opacity:1;stroke:none;fill-rule:nonzero"/>
  <path d="m 36.684 50.953 l 0 1.785 l -3.25 0 l 0 9.03 l -2.473 0 l 0 -9.03 l -3.25 0 l 0 -1.785 l 8.973 0" style="fill:#fff;fill-opacity:1;stroke:none;fill-rule:nonzero"/>
  <path d="m 38.434 61.77 l 0 -10.816 l 7.566 0 l 0 1.785 l -5.109 0 l 0 2.621 l 4.465 0 l 0 1.777 l -4.465 0 l 0 4.633 l -2.457 0" style="fill:#fff;fill-opacity:1;stroke:none;fill-rule:nonzero"/>
 </g>
</svg>
