<svg xmlns="http://www.w3.org/2000/svg" viewBox="0 0 64 64">
 <g>
  <path d="m 10.688 0 c -1.375 0 -2.688 1.379 -2.688 2.813 l 0 58.38 c 0 1.352 1.391 2.813 2.688 2.813 l 42.625 0 c 1.297 0 2.688 -1.461 2.688 -2.813 l 0 -58.44 c 0 -1.348 -1.402 -2.75 -2.75 -2.75 m -42.563 0" style="fill:#ecaf02;fill-opacity:1;stroke:none;fill-rule:nonzero"/>
  <path d="m 8 48 l 0 13.336 c 0 1.297 1.375 2.664 2.664 2.664 l 42.672 0 c 1.289 0 2.664 -1.367 2.664 -2.664 l 0 -13.336 m -48 0" style="fill:#000;fill-opacity:0.196;stroke:none;fill-rule:nonzero"/>
  <path d="m 20 42 l 0 -24 l 24 0 l 0 24 l -14 0 l 0 -12 l 6 0 l 0 4 l -2 0 l 0 4 l 6 0 l 0 -16 l -16 0 l 0 20 m -4 0" style="fill:#fff;fill-opacity:1;stroke:none;fill-rule:nonzero"/>
  <path d="m 20.297 56.59 c 0 0.527 0.016 1.023 0.059 1.484 c 0.051 0.453 0.148 0.852 0.281 1.188 c 0.141 0.34 0.34 0.605 0.594 0.801 c 0.246 0.199 0.586 0.297 1.01 0.297 c 0.414 0 0.742 -0.098 1 -0.297 c 0.262 -0.195 0.461 -0.461 0.594 -0.801 c 0.141 -0.355 0.238 -0.75 0.273 -1.203 c 0.055 -0.453 0.082 -0.941 0.082 -1.469 c 0 -0.523 -0.027 -1.01 -0.082 -1.465 c -0.035 -0.469 -0.133 -0.867 -0.273 -1.203 c -0.133 -0.34 -0.332 -0.602 -0.578 -0.801 c -0.25 -0.199 -0.586 -0.297 -1.016 -0.297 c -0.422 0 -0.762 0.098 -1.01 0.297 c -0.254 0.199 -0.453 0.469 -0.594 0.816 c -0.133 0.34 -0.23 0.734 -0.281 1.188 c -0.043 0.457 -0.059 0.941 -0.059 1.465 m -2.484 0 c 0 -1.859 0.395 -3.262 1.172 -4.203 c 0.785 -0.961 1.867 -1.43 3.254 -1.43 c 1.445 0 2.543 0.469 3.293 1.43 c 0.762 0.941 1.133 2.344 1.133 4.203 c 0 1.863 -0.379 3.27 -1.148 4.227 c -0.77 0.941 -1.848 1.41 -3.254 1.41 c -1.445 0 -2.551 -0.469 -3.316 -1.41 c -0.754 -0.957 -1.133 -2.363 -1.133 -4.227" style="fill:#fff;fill-opacity:1;stroke:none;fill-rule:nonzero"/>
  <path d="m 36.629 51.19 l 0 1.785 l -3.238 0 l 0 9.02 l -2.457 0 l 0 -9.02 l -3.238 0 l 0 -1.785 l 8.934 0" style="fill:#fff;fill-opacity:1;stroke:none;fill-rule:nonzero"/>
  <path d="m 38.2 62 l 0 -1.781 l 2.672 0 l 0 -7.242 l -2.672 0 l 0 -1.785 l 7.801 0 l 0 1.785 l -2.66 0 l 0 7.242 l 2.66 0 l 0 1.781 l -7.801 0" style="fill:#fff;fill-opacity:1;stroke:none;fill-rule:nonzero"/>
 </g>
</svg>
