<svg xmlns="http://www.w3.org/2000/svg" viewBox="0 0 64 64">
 <g>
  <path d="m 10.672 0 c -1.375 0 -2.672 1.355 -2.672 2.789 l 0 58.42 c 0 1.355 1.375 2.789 2.672 2.789 l 42.656 0 c 1.297 0 2.672 -1.434 2.672 -2.789 l 0 -43.21 l -18 -18 m -27.328 0" style="fill:#ce5b00;fill-opacity:1;stroke:none;fill-rule:nonzero"/>
  <path d="m 42 18 l 14 14 l 0 -14 m -14 0" style="fill:#000;fill-opacity:0.196;stroke:none;fill-rule:nonzero"/>
  <path d="m 38 0 l 17.984 18 l -15.227 0 c -1.348 0 -2.758 -1.426 -2.758 -2.773 m 0 -15.227" style="fill:#fff;fill-opacity:0.392;stroke:none;fill-rule:nonzero"/>
  <path d="m 31.469 21.578 c -0.5 0 -1.02 0.188 -1.441 0.512 c -0.43 0.332 -0.707 0.762 -0.742 1.281 c -0.035 0.508 0.16 1.027 0.555 1.387 l 0 0.035 c 0.922 0.797 1.879 1.621 2.813 2.438 l -10.426 0 c -0.742 0 -1.371 0.168 -1.855 0.555 c -0.473 0.375 -0.785 0.941 -0.887 1.566 c -0.195 1.227 0.684 2.625 2.105 2.625 l 4.551 0 l -9.504 7.738 c 0 0 -0.008 -0.02 -0.035 0 c -0.582 0.492 -0.992 1.164 -1.145 1.863 c -0.152 0.688 -0.082 1.422 0.332 2 c 0.84 1.184 2.523 1.148 3.695 0.109 l 4.992 -4.488 c 0.008 0.52 0.133 1.344 0.34 2.043 c 0.402 1.434 1.102 2.777 2.066 3.941 c 0.988 1.199 2.188 2.168 3.582 2.848 c 1.469 0.715 3.055 1.059 4.703 1.059 c 1.648 0 3.227 -0.379 4.695 -1.094 c 1.395 -0.691 2.641 -1.648 3.625 -2.848 c 0.957 -1.176 1.621 -2.508 2.035 -3.941 c 0.203 -0.727 0.348 -1.488 0.402 -2.23 c 0.055 -0.727 0.027 -1.461 -0.074 -2.184 c -0.176 -1.426 -0.605 -2.77 -1.297 -3.977 c -0.539 -0.949 -1.246 -1.785 -2.031 -2.52 l 0.035 -0.035 l -0.402 -0.332 l -9.246 -7.809 c 0 0 -0.035 -0.027 -0.035 -0.035 c -0.008 0 -0.035 0 -0.035 0 c -0.402 -0.332 -0.879 -0.512 -1.371 -0.512 m 3.582 8.215 c 4.785 0 8.652 3.824 8.652 8.535 c 0 4.719 -3.867 8.543 -8.652 8.543 c -4.773 0 -8.648 -3.824 -8.648 -8.543 c 0 -4.711 3.875 -8.535 8.648 -8.535 m 0 0" style="fill:#fff;fill-opacity:1;stroke:none;fill-rule:evenodd"/>
  <path d="m 37.543 38.4 c 0 1.414 -1.156 2.563 -2.59 2.563 c -1.422 0 -2.586 -1.148 -2.586 -2.563 c 0 -1.406 1.164 -2.551 2.586 -2.551 c 1.434 0 2.59 1.145 2.59 2.551 m 0 0" style="fill:#fff;fill-opacity:1;stroke:none;fill-rule:nonzero"/>
 </g>
</svg>
