<svg xmlns="http://www.w3.org/2000/svg" viewBox="0 0 64 64">
 <g>
  <path d="m 10.672 0 c -1.375 0 -2.672 1.355 -2.672 2.789 l 0 58.42 c 0 1.355 1.375 2.789 2.672 2.789 l 42.656 0 c 1.297 0 2.672 -1.434 2.672 -2.789 l 0 -43.21 l -18 -18 m -27.328 0" style="fill:#37a34d;fill-opacity:1;stroke:none;fill-rule:nonzero"/>
  <path d="m 42 18 l 14 14 l 0 -14 m -14 0" style="fill:#000;fill-opacity:0.196;stroke:none;fill-rule:nonzero"/>
  <path d="m 38 0 l 17.984 18 l -15.227 0 c -1.348 0 -2.758 -1.426 -2.758 -2.773 m 0 -15.227" style="fill:#fff;fill-opacity:0.392;stroke:none;fill-rule:nonzero"/>
  <path d="m 21.547 24 c -0.844 0.078 -1.563 0.977 -1.547 1.926 l 0 20.2 c 0.008 0.992 0.801 1.887 1.688 1.879 l 20.668 0 c 0.871 -0.016 1.637 -0.895 1.645 -1.879 l 0 -20.2 c 0.016 -1 -0.758 -1.918 -1.645 -1.926 m -20.355 2 20 0 0 14 -6.04 -6.297 -3.578 3.328 -4.711 -5.902 -5.668 6.871" style="fill:#fff;fill-opacity:1;stroke:none;fill-rule:nonzero"/>
 </g>
</svg>
