<svg xmlns="http://www.w3.org/2000/svg" viewBox="0 0 64 64">
 <g>
  <path d="m 10.672 0 c -1.375 0 -2.672 1.355 -2.672 2.789 l 0 58.42 c 0 1.355 1.375 2.789 2.672 2.789 l 42.656 0 c 1.297 0 2.672 -1.434 2.672 -2.789 l 0 -43.21 l -18 -18 m -27.328 0" style="fill:#d04526;fill-opacity:1;stroke:none;fill-rule:nonzero"/>
  <path d="m 42 18 l 14 14 l 0 -14 m -14 0" style="fill:#000;fill-opacity:0.196;stroke:none;fill-rule:nonzero"/>
  <path d="m 38 0 l 17.984 18 l -15.227 0 c -1.348 0 -2.758 -1.426 -2.758 -2.773 m 0 -15.227" style="fill:#fff;fill-opacity:0.392;stroke:none;fill-rule:nonzero"/>
  <path d="m 8 48 l 0 13.336 c 0 1.297 1.375 2.664 2.664 2.664 l 42.672 0 c 1.289 0 2.664 -1.367 2.664 -2.664 l 0 -13.336 m -48 0" style="fill:#000;fill-opacity:0.196;stroke:none;fill-rule:nonzero"/>
  <path d="m 16 24 l 10 0 l 0 6 l -10 0 m 0 -6" style="fill:#fff;fill-opacity:1;stroke:none;fill-rule:nonzero"/>
  <path d="m 20.305 56.37 c 0 0.527 0.02 1.023 0.059 1.484 c 0.051 0.453 0.141 0.848 0.273 1.188 c 0.141 0.336 0.336 0.602 0.586 0.797 c 0.246 0.199 0.574 0.297 0.988 0.297 c 0.402 0 0.723 -0.098 0.973 -0.297 c 0.262 -0.195 0.453 -0.461 0.582 -0.797 c 0.141 -0.355 0.234 -0.75 0.273 -1.203 c 0.051 -0.453 0.082 -0.941 0.082 -1.469 c 0 -0.52 -0.031 -1 -0.082 -1.457 c -0.039 -0.469 -0.133 -0.867 -0.273 -1.203 c -0.129 -0.34 -0.32 -0.602 -0.559 -0.801 c -0.246 -0.195 -0.586 -0.297 -0.996 -0.297 c -0.414 0 -0.742 0.102 -0.988 0.297 c -0.25 0.199 -0.445 0.469 -0.586 0.816 c -0.133 0.34 -0.223 0.734 -0.273 1.188 c -0.039 0.453 -0.059 0.938 -0.059 1.457 m -2.438 0 c 0 -1.852 0.387 -3.254 1.152 -4.195 c 0.77 -0.953 1.832 -1.426 3.191 -1.426 c 1.418 0 2.488 0.473 3.23 1.426 c 0.742 0.941 1.109 2.344 1.109 4.195 c 0 1.863 -0.379 3.266 -1.129 4.219 c -0.75 0.941 -1.82 1.41 -3.195 1.41 c -1.41 0 -2.496 -0.469 -3.246 -1.41 c -0.742 -0.953 -1.113 -2.355 -1.113 -4.219" style="fill:#fff;fill-opacity:1;stroke:none;fill-rule:nonzero"/>
  <path d="m 30.523 60.03 c 0.066 0.016 0.133 0.016 0.215 0.016 c 0.074 0 0.148 0 0.215 0 c 0.543 0 0.996 -0.09 1.359 -0.273 c 0.379 -0.188 0.676 -0.445 0.898 -0.766 c 0.23 -0.328 0.395 -0.707 0.484 -1.152 c 0.102 -0.453 0.16 -0.949 0.16 -1.484 c 0 -0.461 -0.043 -0.914 -0.117 -1.352 c -0.082 -0.445 -0.215 -0.832 -0.41 -1.168 c -0.199 -0.34 -0.465 -0.602 -0.801 -0.801 c -0.34 -0.215 -0.773 -0.313 -1.301 -0.313 c -0.109 0 -0.223 0 -0.355 0.016 c -0.125 0 -0.246 0.008 -0.348 0.035 l 0 7.242 m 5.762 -3.66 c 0 1.01 -0.141 1.855 -0.43 2.563 c -0.27 0.703 -0.66 1.27 -1.145 1.707 c -0.496 0.445 -1.09 0.766 -1.773 0.98 c -0.676 0.188 -1.426 0.289 -2.238 0.289 c -0.43 0 -0.852 -0.016 -1.27 -0.066 c -0.398 -0.035 -0.832 -0.098 -1.305 -0.191 l 0 -10.52 c 0.547 -0.102 1.066 -0.176 1.543 -0.207 c 0.477 -0.035 0.922 -0.059 1.344 -0.059 c 0.789 0 1.508 0.105 2.156 0.32 c 0.66 0.207 1.223 0.535 1.676 0.988 c 0.453 0.445 0.805 1.016 1.055 1.707 c 0.254 0.684 0.387 1.516 0.387 2.488" style="fill:#fff;fill-opacity:1;stroke:none;fill-rule:nonzero"/>
  <path d="m 41.17 50.867 c 1.531 0 2.719 0.289 3.559 0.855 c 0.84 0.563 1.27 1.477 1.27 2.754 c 0 1.285 -0.43 2.227 -1.285 2.801 c -0.848 0.57 -2.043 0.859 -3.602 0.859 l -0.855 0 l 0 3.641 l -2.398 0 l 0 -10.645 c 0.238 -0.043 0.492 -0.086 0.781 -0.125 c 0.297 -0.035 0.594 -0.059 0.891 -0.066 c 0.305 -0.023 0.594 -0.043 0.883 -0.051 c 0.277 -0.016 0.535 -0.023 0.758 -0.023 m 0.27 1.871 c -0.137 0 -0.344 0 -0.602 0.016 c -0.246 0 -0.441 0.008 -0.582 0.035 l 0 3.484 l 0.973 0 c 0.766 0 1.34 -0.141 1.73 -0.406 c 0.387 -0.277 0.582 -0.746 0.582 -1.406 c 0 -0.629 -0.195 -1.07 -0.582 -1.328 c -0.371 -0.262 -0.883 -0.395 -1.52 -0.395" style="fill:#fff;fill-opacity:1;stroke:none;fill-rule:nonzero"/>
  <path d="m 16 34 l 10 0 l 0 6 l -10 0 m 0 -6" style="fill:#fff;fill-opacity:1;stroke:none;fill-rule:nonzero"/>
  <path d="m 40 21.984 l 0 8.02 l 8 0 c 0 -4.43 -3.582 -8.02 -8 -8.02 m 0 0" style="fill:#fff;fill-opacity:1;stroke:none;fill-rule:nonzero"/>
  <path d="m 38 24 c -4.418 0 -8 3.578 -8 8 c 0 4.422 3.586 8 8 8 c 4.418 0 7.996 -3.578 7.996 -8 l -7.996 0 m 0 -8" style="fill:#fff;fill-opacity:1;stroke:none;fill-rule:nonzero"/>
 </g>
</svg>
