<svg xmlns="http://www.w3.org/2000/svg" viewBox="0 0 64 64">
 <path d="M 10.6875,0 C 9.3125,0 8,1.378906 8,2.8125 l 0,58.375 C 8,62.539062 9.390625,64 10.6875,64 l 42.625,0 C 54.609375,64 56,62.539062 56,61.1875 L 56,2.75 C 56,1.402344 54.597656,0 53.25,0 Z m 0,0" style="fill:#cf4523;fill-opacity:1;stroke:none;fill-rule:nonzero"/>
 <path d="m 8 48 0 13.336 c 0 1.297 1.375 2.664 2.664 2.664 l 42.672 0 c 1.289 0 2.664 -1.367 2.664 -2.664 l 0 -13.336 m -48 0" style="fill:#000;fill-opacity:0.196;stroke:none;fill-rule:nonzero"/>
 <path d="m 18.769 51.855 c 1.28 0 2.266 0.239 2.969 0.706 0.706 0.461 1.057 1.212 1.057 2.26 0 1.057 -0.351 1.828 -1.07 2.302 -0.703 0.467 -1.705 0.703 -3.01 0.703 l -0.712 0 0 2.991 -2 0 0 -8.742 c 0.197 -0.035 0.413 -0.068 0.651 -0.103 0.248 -0.026 0.5 -0.048 0.751 -0.055 0.248 -0.019 0.493 -0.032 0.729 -0.039 0.239 -0.013 0.448 -0.023 0.638 -0.023 m 0.222 1.538 c -0.116 0 -0.284 0 -0.5 0.013 -0.21 0 -0.374 0.006 -0.49 0.029 l 0 2.863 0.812 0 c 0.638 0 1.125 -0.116 1.451 -0.332 0.326 -0.229 0.487 -0.616 0.487 -1.157 0 -0.516 -0.161 -0.88 -0.487 -1.09 -0.319 -0.216 -0.738 -0.326 -1.273 -0.326" style="fill:#fff;fill-opacity:1;stroke:none;fill-rule:nonzero"/>
 <path d="m 25.726 56.38 c 0 0.432 0.013 0.838 0.048 1.219 0.039 0.371 0.122 0.696 0.229 0.974 0.116 0.277 0.277 0.496 0.487 0.658 0.203 0.161 0.48 0.242 0.828 0.242 0.335 0 0.606 -0.081 0.809 -0.242 0.219 -0.161 0.38 -0.38 0.49 -0.658 0.119 -0.29 0.197 -0.616 0.229 -0.986 0.042 -0.374 0.068 -0.774 0.068 -1.206 0 -0.426 -0.026 -0.825 -0.068 -1.199 -0.032 -0.384 -0.11 -0.709 -0.229 -0.986 -0.11 -0.277 -0.264 -0.493 -0.467 -0.658 -0.21 -0.161 -0.487 -0.242 -0.832 -0.242 -0.348 0 -0.625 0.081 -0.828 0.242 -0.21 0.164 -0.371 0.387 -0.487 0.671 -0.106 0.277 -0.19 0.603 -0.229 0.974 -0.035 0.374 -0.048 0.774 -0.048 1.199 m -2.031 0 c 0 -1.522 0.319 -2.672 0.954 -3.446 0.645 -0.783 1.531 -1.17 2.669 -1.17 1.183 0 2.082 0.387 2.698 1.17 0.616 0.774 0.928 1.924 0.928 3.446 0 1.528 -0.319 2.679 -0.941 3.465 c -0.629 0.77 -1.522 1.157 -2.666 1.157 c -1.186 0 -2.092 -0.387 -2.721 -1.157 -0.616 -0.787 -0.922 -1.937 -0.922 -3.465" style="fill:#fff;fill-opacity:1;stroke:none;fill-rule:nonzero"/>
 <path d="m 39.11 51.958 0 1.46 -2.653 0 0 7.398 -2.02 0 0 -7.398 -2.647 0 0 -1.46 7.318 0" style="fill:#fff;fill-opacity:1;stroke:none;fill-rule:nonzero"/>
 <path d="m 16 22 10 0 0 6 -10 0 z m 0 0" style="fill:#fff;fill-opacity:1;stroke:none;fill-rule:nonzero"/>
 <path d="m 16 32 10 0 0 6 -10 0 z m 0 0" style="fill:#fff;fill-opacity:1;stroke:none;fill-rule:nonzero"/>
 <path d="m 40 19.984 0 8.02 l 8 0 c 0 -4.43 -3.582 -8.02 -8 -8.02 z m 0 0" style="fill:#fff;fill-opacity:1;stroke:none;fill-rule:nonzero"/>
 <path d="m 38 22 c -4.418 0 -8 3.578 -8 8 c 0 4.422 3.586 8 8 8 c 4.418 0 7.996 -3.578 7.996 -8 l -7.996 0 z m 0 0" style="fill:#fff;fill-opacity:1;stroke:none;fill-rule:nonzero"/>
 <path d="m 45.84 60.826 c -0.21 -0.496 -0.464 -1.048 -0.767 -1.65 -0.29 -0.606 -0.6 -1.206 -0.925 -1.805 -0.316 0.571 -0.629 1.164 -0.945 1.792 -0.313 0.609 -0.58 1.167 -0.809 1.663 l -2.166 0 c 0.11 -0.268 0.268 -0.58 0.477 -0.951 0.213 -0.367 0.448 -0.767 0.696 -1.196 0.261 -0.426 0.532 -0.867 0.816 -1.309 0.28 -0.464 0.551 -0.899 0.806 -1.318 l -2.63 -4.258 2.163 0 1.592 2.892 1.676 -2.892 2.02 0 -2.569 4.216 c 0.29 0.419 0.58 0.854 0.857 1.312 0.28 0.461 0.545 0.903 0.777 1.344 0.258 0.429 0.471 0.828 0.658 1.209 0.181 0.371 0.332 0.683 0.435 0.951 l -2.16 0" style="fill:#fff;fill-opacity:1;stroke:none;fill-rule:nonzero"/>
</svg>
