<svg xmlns="http://www.w3.org/2000/svg" viewBox="0 0 64 64">
 <g>
  <path d="m 10.672 0 c -1.375 0 -2.672 1.355 -2.672 2.789 l 0 58.42 c 0 1.355 1.375 2.789 2.672 2.789 l 42.656 0 c 1.297 0 2.672 -1.434 2.672 -2.789 l 0 -43.21 l -18 -18 m -27.328 0" style="fill:#9b4a85;fill-opacity:1;stroke:none;fill-rule:nonzero"/>
  <path d="m 42 18 l 14 14 l 0 -14 m -14 0" style="fill:#000;fill-opacity:0.196;stroke:none;fill-rule:nonzero"/>
  <path d="m 38 0 l 17.984 18 l -15.227 0 c -1.348 0 -2.758 -1.426 -2.758 -2.773 m 0 -15.227" style="fill:#fff;fill-opacity:0.392;stroke:none;fill-rule:nonzero"/>
  <path d="m 26.938 26.906 c -1.555 0.391 -2.859 1.82 -2.859 1.82 l 0.039 0.039 l 2.492 9.25 c -1.781 -0.969 -4.32 -0.727 -6.422 0.797 c -2.719 1.961 -3.664 5.305 -2.094 7.461 c 1.578 2.164 5.05 2.313 7.766 0.352 c 2.141 -1.555 3.328 -3.992 2.898 -5.992 c -0.008 -0.063 -0.031 -0.125 -0.047 -0.188 l -2.391 -9.242 c 0.055 -0.078 0.758 -0.398 3.01 -0.555 c 2.391 -0.156 4.01 -3.984 4.01 -3.984 c 0 0 -2.688 1.031 -4.797 0.289 c -0.531 -0.188 -1.086 -0.18 -1.602 -0.047 m 0 0" style="fill:#fff;fill-opacity:1;stroke:none;fill-rule:nonzero"/>
  <path d="m 32 38 l 0 2 l 14 0 l 0 -2 m -14 0" style="fill:#fff;fill-opacity:1;stroke:none;fill-rule:nonzero"/>
  <path d="m 32 42 l 0 2 l 14 0 l 0 -2 m -14 0" style="fill:#fff;fill-opacity:1;stroke:none;fill-rule:nonzero"/>
  <path d="m 30 46 l 0 2 l 16 0 l 0 -2 m -16 0" style="fill:#fff;fill-opacity:1;stroke:none;fill-rule:nonzero"/>
  <path d="m 39.445 25.773 c -0.25 0 -0.445 0.203 -0.445 0.445 l 0 1 c -0.445 0.102 -0.859 0.281 -1.234 0.516 l -0.711 -0.711 c -0.172 -0.172 -0.453 -0.172 -0.625 0 l -0.625 0.625 c -0.172 0.18 -0.172 0.453 0 0.625 l 0.711 0.711 c -0.242 0.375 -0.414 0.789 -0.516 1.234 l -1 0 c -0.25 0 -0.445 0.203 -0.445 0.445 l 0 0.891 c 0 0.242 0.195 0.445 0.445 0.445 l 1 0 c 0.102 0.445 0.273 0.859 0.516 1.234 l -0.711 0.711 c -0.172 0.172 -0.172 0.445 0 0.625 l 0.625 0.625 c 0.172 0.172 0.453 0.172 0.625 0 l 0.711 -0.711 c 0.375 0.234 0.789 0.414 1.234 0.516 l 0 1 c 0 0.242 0.195 0.445 0.445 0.445 l 0.891 0 c 0.242 0 0.438 -0.203 0.438 -0.445 l 0 -1 c 0.453 -0.102 0.867 -0.281 1.242 -0.516 l 0.703 0.711 c 0.18 0.172 0.453 0.172 0.625 0 l 0.625 -0.625 c 0.18 -0.18 0.18 -0.453 0 -0.625 l -0.703 -0.711 c 0.234 -0.375 0.406 -0.789 0.508 -1.234 l 1 0 c 0.25 0 0.445 -0.203 0.445 -0.445 l 0 -0.891 c 0 -0.242 -0.195 -0.445 -0.445 -0.445 l -1 0 c -0.102 -0.445 -0.273 -0.859 -0.508 -1.234 l 0.703 -0.711 c 0.18 -0.172 0.18 -0.445 0 -0.625 l -0.625 -0.625 c -0.172 -0.172 -0.445 -0.172 -0.625 0 l -0.703 0.711 c -0.375 -0.234 -0.789 -0.414 -1.242 -0.516 l 0 -1 c 0 -0.242 -0.195 -0.445 -0.438 -0.445 m -0.445 3.555 c 0.977 0 1.773 0.797 1.773 1.781 c 0 0.984 -0.797 1.781 -1.773 1.781 c -0.984 0 -1.781 -0.797 -1.781 -1.781 c 0 -0.984 0.797 -1.781 1.781 -1.781 m 0 0" style="fill:#fff;fill-opacity:1;stroke:none;fill-rule:nonzero"/>
 </g>
</svg>
