<svg xmlns="http://www.w3.org/2000/svg" viewBox="0 0 64 64">
 <path d="m 10.672 0 c -1.375 0 -2.672 1.355 -2.672 2.789 l 0 58.42 c 0 1.355 1.375 2.789 2.672 2.789 l 42.656 0 c 1.297 0 2.672 -1.434 2.672 -2.789 l 0 -43.21 -18 -18 m -27.328 0" style="fill:#e73144;fill-opacity:1;stroke:none;fill-rule:nonzero"/>
 <path d="m 42 18 14 14 0 -14 z m 0 0" style="fill:#000;fill-opacity:0.196;stroke:none;fill-rule:nonzero"/>
 <path d="m 38 0 17.984 18 -15.227 0 c -1.348 0 -2.758 -1.426 -2.758 -2.773 m 0 -15.227" style="fill:#fff;fill-opacity:0.392;stroke:none;fill-rule:nonzero"/>
 <g transform="matrix(1.3042662,0,0,1.2991372,1.3506823,3.530198)">
  <!-- color: #e73245 -->
  <g>
   <path d="m 21 21 14 0 0 14 -14 0 m 0 -14" style="fill:#f9f9f9;fill-opacity:0.749;stroke:none;fill-rule:nonzero"/>
   <path d="m 29 20.5 c 0.035 3.059 -1.578 5.898 -4.223 7.438 -2.645 1.539 -5.91 1.539 -8.555 0 -2.641 -1.539 -4.254 -4.379 -4.223 -7.438 -0.031 -3.059 1.582 -5.898 4.223 -7.438 2.645 -1.539 5.91 -1.539 8.555 0 2.645 1.539 4.258 4.379 4.223 7.438 m 0 0" style="fill:#f9f9f9;fill-opacity:0.749;stroke:none;fill-rule:nonzero"/>
  </g>
 </g>
</svg>
