<svg xmlns="http://www.w3.org/2000/svg" viewBox="0 0 64 64">
 <path d="m 10.672 0 c -1.375 0 -2.672 1.355 -2.672 2.789 l 0 58.42 c 0 1.355 1.375 2.789 2.672 2.789 l 42.656 0 c 1.297 0 2.672 -1.434 2.672 -2.789 l 0 -43.21 -18 -18 m -27.328 0" style="fill:#f3b300;fill-opacity:1;stroke:none;fill-rule:nonzero"/>
 <path d="m 42 18 14 14 0 -14 z m 0 0" style="fill:#000;fill-opacity:0.196;stroke:none;fill-rule:nonzero"/>
 <path d="m 38 0 17.984 18 -15.227 0 c -1.348 0 -2.758 -1.426 -2.758 -2.773 m 0 -15.227" style="fill:#fff;fill-opacity:0.392;stroke:none;fill-rule:nonzero"/>
 <g transform="matrix(1.2220317,0,0,1.2497917,2.6778277,6.0037494)">
  <!-- color: #f4b400 -->
  <g>
   <path d="m 24.01 12 c -2.898 0.004 -5.734 1.297 -7.48 3.691 -2.715 3.738 -1.73 8.801 2.145 11.441 l 0 7.871 1.328 0 0 1 8 0 0 -1 1.313 0 0 -7.871 c 0.832 -0.57 1.566 -1.258 2.145 -2.059 2.77 -3.828 1.691 -9.04 -2.43 -11.633 -1.543 -0.969 -3.289 -1.441 -5.03 -1.441 m -0.012 1.523 c 1.418 0 2.852 0.383 4.121 1.18 3.379 2.125 4.266 6.367 1.984 9.512 -0.527 0.723 -1.195 1.355 -1.977 1.848 l -0.133 1.941 -8 0 -0.117 -1.941 c -3.387 -2.125 -4.27 -6.367 -1.98 -9.512 1.426 -1.965 3.742 -3.03 6.102 -3.02 m -4 15.477 8 0 0 1.996 -8 0 m 0 1 8 0 0 1.715 -8 0 m 0 -1.715" style="fill:#f9f9f9;fill-opacity:1;stroke:none;fill-rule:nonzero"/>
  </g>
 </g>
</svg>
