<svg xmlns="http://www.w3.org/2000/svg" viewBox="0 0 64 64">
 <path d="m 10.672 0 c -1.375 0 -2.672 1.355 -2.672 2.789 l 0 58.42 c 0 1.355 1.375 2.789 2.672 2.789 l 42.656 0 c 1.297 0 2.672 -1.434 2.672 -2.789 l 0 -43.21 -18 -18 m -27.328 0" style="fill:#dcdcdc;fill-opacity:1;stroke:none;fill-rule:nonzero"/>
 <path d="m 42 18 14 14 0 -14 z m 0 0" style="fill:#000;fill-opacity:0.196;stroke:none;fill-rule:nonzero"/>
 <path d="m 38 0 17.984 18 -15.227 0 c -1.348 0 -2.758 -1.426 -2.758 -2.773 m 0 -15.227" style="fill:#fff;fill-opacity:0.392;stroke:none;fill-rule:nonzero"/>
 <path d="m 40.508 29.414 c 1.508 0.461 0.188 2.617 2.352 3.672 2.469 1.203 3.695 -1.844 5.18 0.336 1.484 2.172 -2.047 1.836 -1.953 4.391 0.102 2.555 3.602 2.02 2.289 4.273 -1.313 2.25 -2.773 -0.711 -5.141 0.641 -2.375 1.352 -0.102 3.852 -2.898 3.938 -2.797 0.086 -0.719 -2.539 -3.195 -3.75 -2.469 -1.203 -3.695 1.844 -5.18 -0.328 c -1.484 -2.18 2.047 -1.836 1.953 -4.398 -0.102 -2.555 -3.602 -2.02 -2.289 -4.266 c 1.313 -2.258 2.773 0.703 5.141 -0.648 2.375 -1.352 0.102 -3.852 2.898 -3.938 0.352 -0.008 0.625 0.008 0.844 0.078 z m -0.031 6.508 c -1.242 -0.242 -2.469 0.492 -2.734 1.641 -0.266 1.141 0.531 2.273 1.781 2.516 1.242 0.242 2.469 -0.484 2.734 -1.633 0.266 -1.148 -0.531 -2.281 -1.781 -2.523 z m 0 0" style="fill:#888;fill-opacity:1;stroke:none;fill-rule:nonzero"/>
 <path d="m 28.508 18.742 c 1.508 0.461 0.188 2.617 2.352 3.672 2.469 1.211 3.695 -1.836 5.18 0.336 1.484 2.172 -2.047 1.836 -1.953 4.398 0.102 2.555 3.602 2.01 2.289 4.266 -1.313 2.258 -2.773 -0.703 -5.141 0.648 -2.375 1.352 -0.102 3.852 -2.898 3.938 -2.797 0.078 -0.719 -2.539 -3.195 -3.75 -2.469 -1.203 -3.695 1.836 -5.18 -0.336 -1.484 -2.172 2.047 -1.836 1.953 -4.391 c -0.102 -2.555 -3.602 -2.02 -2.289 -4.273 c 1.313 -2.258 2.773 0.703 5.141 -0.648 2.375 -1.352 0.102 -3.852 2.898 -3.93 0.352 -0.016 0.625 0.008 0.844 0.07 z m -0.031 6.516 c -1.242 -0.25 -2.469 0.484 -2.734 1.633 -0.266 1.148 0.531 2.281 1.781 2.523 1.242 0.242 2.469 -0.492 2.734 -1.641 c 0.266 -1.148 -0.531 -2.273 -1.781 -2.516 m 0 0" style="fill:#888;fill-opacity:1;stroke:none;fill-rule:nonzero"/>
 <path d="m 24.508 33.414 c 1.508 0.461 0.188 2.617 2.352 3.672 2.469 1.203 3.695 -1.844 5.18 0.336 1.484 2.172 -2.047 1.836 -1.953 4.391 0.102 2.555 3.602 2.02 2.289 4.273 -1.313 2.25 -2.773 -0.711 -5.141 0.641 -2.375 1.352 -0.102 3.852 -2.898 3.938 -2.797 0.086 -0.719 -2.539 -3.195 -3.75 -2.469 -1.203 -3.695 1.844 -5.18 -0.328 c -1.484 -2.18 2.047 -1.836 1.953 -4.398 -0.102 -2.555 -3.602 -2.02 -2.289 -4.266 c 1.313 -2.258 2.773 0.703 5.141 -0.648 2.375 -1.352 0.102 -3.852 2.898 -3.938 0.352 -0.008 0.625 0.008 0.844 0.078 z m -0.031 6.508 c -1.242 -0.242 -2.469 0.492 -2.734 1.641 -0.266 1.141 0.531 2.273 1.781 2.516 1.242 0.242 2.469 -0.484 2.734 -1.633 0.266 -1.148 -0.531 -2.281 -1.781 -2.523 z m 0 0" style="fill:#888;fill-opacity:1;stroke:none;fill-rule:nonzero"/>
</svg>
