<svg xmlns="http://www.w3.org/2000/svg" viewBox="0 0 64 64">
 <g>
  <path d="m 10.672 0 c -1.375 0 -2.672 1.355 -2.672 2.789 l 0 58.42 c 0 1.355 1.375 2.789 2.672 2.789 l 42.656 0 c 1.297 0 2.672 -1.434 2.672 -2.789 l 0 -43.21 l -18 -18 m -27.328 0" style="fill:#9a773c;fill-opacity:1;stroke:none;fill-rule:nonzero"/>
  <path d="m 42 18 l 14 14 l 0 -14 m -14 0" style="fill:#000;fill-opacity:0.196;stroke:none;fill-rule:nonzero"/>
  <path d="m 38 0 l 17.984 18 l -15.227 0 c -1.348 0 -2.758 -1.426 -2.758 -2.773 m 0 -15.227" style="fill:#fff;fill-opacity:0.392;stroke:none;fill-rule:nonzero"/>
  <path d="m 44.06 23.887 c -0.121 0.066 -0.234 0.262 -0.336 0.574 c -0.273 0.844 -2.223 6.672 -13.273 6.953 c -5.266 0.141 -7.508 -4.563 -7.508 -4.563 l -0.133 6.04 c 0 0 0.563 1.352 -0.563 2.758 c -0.063 -0.094 -0.102 -0.207 -0.168 -0.301 c -0.402 -0.57 -0.879 -1.051 -1.387 -1.414 c -0.582 -0.414 -1.191 -0.688 -1.789 -0.77 c -0.684 -0.105 -1.359 0.047 -1.883 0.43 c -0.535 0.395 -0.844 0.984 -0.969 1.688 c -0.102 0.602 -0.062 1.258 0.141 1.949 c 0.172 0.602 0.453 1.211 0.855 1.781 c 0.43 0.602 0.965 1.133 1.527 1.508 c 0.629 0.422 1.293 0.668 1.949 0.703 c 0.207 0.02 0.414 -0.035 0.602 -0.063 c 4.234 3.41 12.652 6.598 18.23 2.961 c 0.121 0.035 0.242 0.082 0.363 0.129 c 0 0.059 -0.02 0.113 0 0.172 l 0.262 -0.105 c 0.047 0.02 0.086 0.059 0.133 0.066 c 0.008 0.008 0.027 0 0.039 0 l 0.094 0.102 l 2.52 0.91 c -0.102 0.883 0.328 1.895 1.426 2.316 c 1.969 0.77 3.805 1.754 3.805 1.754 c -0.945 -3.246 -1.285 -5.84 -3.738 -5.617 c -0.461 0.047 -0.809 0.234 -1.063 0.508 l -2.219 -1.445 l -0.094 0 l -0.039 -0.035 c 2.992 -2.98 4.734 -8.598 3.676 -18.355 c -0.066 -0.484 -0.262 -0.73 -0.461 -0.637 m 0 0" style="fill:#fff;fill-opacity:1;stroke:none;fill-rule:nonzero"/>
 </g>
</svg>
