<svg xmlns="http://www.w3.org/2000/svg" viewBox="0 0 64 64">
 <g>
  <path d="m 10.672 0 c -1.375 0 -2.672 1.355 -2.672 2.789 l 0 58.42 c 0 1.355 1.375 2.789 2.672 2.789 l 42.656 0 c 1.297 0 2.672 -1.434 2.672 -2.789 l 0 -43.21 l -18 -18 m -27.328 0" style="fill:#37a34d;fill-opacity:1;stroke:none;fill-rule:nonzero"/>
  <path d="m 42 18 l 14 14 l 0 -14 m -14 0" style="fill:#000;fill-opacity:0.196;stroke:none;fill-rule:nonzero"/>
  <path d="m 38 0 l 17.984 18 l -15.227 0 c -1.348 0 -2.758 -1.426 -2.758 -2.773 m 0 -15.227" style="fill:#fff;fill-opacity:0.392;stroke:none;fill-rule:nonzero"/>
  <path d="m 23.289 22 c -0.703 0.066 -1.305 0.813 -1.289 1.605 l 0 16.828 c 0.008 0.828 0.668 1.574 1.406 1.566 l 17.223 0 c 0.727 -0.016 1.363 -0.746 1.371 -1.566 l 0 -16.828 c 0.016 -0.836 -0.629 -1.598 -1.371 -1.605 m -16.629 2 l 16 0 l 0 11.402 l -4.703 -5.316 l -1.18 1.133 l -1.801 1.641 l -1.102 -1.098 l -2.828 -3.824 l -4.387 5.66 m 0 -9.598" style="fill:#fff;fill-opacity:1;stroke:none;fill-rule:nonzero"/>
  <path d="m 8 48 l 0 13.336 c 0 1.297 1.375 2.664 2.664 2.664 l 42.672 0 c 1.289 0 2.664 -1.367 2.664 -2.664 l 0 -13.336 m -48 0" style="fill:#000;fill-opacity:0.196;stroke:none;fill-rule:nonzero"/>
  <path d="m 40.775 58.25 c 0 0.534 -0.1 0.988 -0.297 1.347 -0.203 0.362 -0.478 0.648 -0.825 0.867 -0.334 0.206 -0.74 0.362 -1.212 0.461 -0.465 0.086 -0.965 0.127 -1.502 0.127 -0.94 0.003 -1.851 -0.094 -2.714 -0.225 l 0 -8.697 c 0.863 -0.143 1.702 -0.151 2.524 -0.178 0.74 0 1.337 0.067 1.802 0.213 0.465 0.133 0.828 0.314 1.09 0.546 0.262 0.219 0.437 0.467 0.537 0.746 0.091 0.273 0.137 0.553 0.144 0.835 -0.006 0.419 -0.119 0.791 -0.347 1.118 -0.225 0.321 -0.525 0.581 -0.906 0.775 0.662 0.219 1.115 0.511 1.343 0.886 0.244 0.372 0.362 0.765 0.362 1.178 m -4.758 -1.207 0 2.414 c 0.137 0.022 0.439 0.035 0.595 0.041 0.166 0.013 0.328 0.019 0.484 0.019 0.225 0 0.44 -0.019 0.65 -0.044 0.209 -0.041 0.394 -0.102 0.55 -0.187 0.172 -0.095 0.309 -0.229 0.415 -0.388 0.103 -0.175 0.156 -0.388 0.156 -0.648 0 -0.432 -0.15 -0.74 -0.459 -0.918 -0.294 -0.187 -0.693 -0.286 -1.199 -0.286 l -1.191 0 m 0.91 -1.467 c 0.49 0 0.865 -0.095 1.121 -0.289 0.247 -0.2 0.378 -0.473 0.378 -0.813 0 -0.213 -0.037 -0.378 -0.109 -0.505 -0.072 -0.133 -0.178 -0.235 -0.303 -0.302 -0.125 -0.073 -0.275 -0.124 -0.437 -0.14 -0.172 -0.032 -0.344 -0.044 -0.525 -0.044 -0.308 -0.013 -0.748 0.036 -1.035 0.06 l 0 2.033 0.91 0" style="fill:#fff;fill-opacity:1;stroke:none;fill-rule:nonzero"/>
  <path d="m 23.529 61 c -0.522 -1.329 -1.017 -2.481 -1.523 -3.801 -0.547 1.347 -1.018 2.475 -1.579 3.801 l -1.779 0 c -0.337 -3.048 -0.567 -6.06 -0.647 -9 l 1.977 0 -0.111 6.993 1.333 -3.406 1.575 0 1.277 3.406 l -0.087 -6.993 l 1.977 0 c -0.144 3.051 -0.273 6.03 -0.63 9 l -1.783 0" style="fill:#fff;fill-opacity:1;stroke:none;fill-rule:nonzero"/>
  <path d="m 44.4 51.959 c 1.205 0 2.141 0.234 2.803 0.704 0.671 0.464 1 1.228 1 2.284 0 1.075 -0.337 1.846 -1.014 2.329 -0.668 0.47 -1.612 0.713 -2.842 0.713 l -0.668 0 0 3.02 -1.895 0 0 -8.88 c 0.676 -0.139 1.351 -0.119 2.02 -0.157 0.222 -0.013 0.419 -0.013 0.598 -0.013 m 0.21 1.545 c -0.328 -0.004 -0.599 0.025 -0.929 0.045 l 0 2.889 0.765 0 c 0.604 0 1.057 -0.109 1.363 -0.329 0.307 -0.234 0.458 -0.624 0.458 -1.174 0 -0.518 -0.152 -0.886 -0.458 -1.094 -0.295 -0.224 -0.695 -0.336 -1.199 -0.336" style="fill:#fff;fill-opacity:1;stroke:none;fill-rule:nonzero"/>
 </g>
 <path d="m 27.24 61 0 -9 5.786 0 0 1.572 -4.12 0 0 2.199 3.381 0 0 1.572 -3.381 0 0 2.084 4.195 0 0 1.572 -5.861 0" style="fill:#fff;fill-opacity:1;stroke:none;fill-rule:nonzero"/>
</svg>
