<svg xmlns="http://www.w3.org/2000/svg" viewBox="0 0 64 64">
 <g>
  <path d="m 10.672 0 c -1.375 0 -2.672 1.355 -2.672 2.789 l 0 58.42 c 0 1.355 1.375 2.789 2.672 2.789 l 42.656 0 c 1.297 0 2.672 -1.434 2.672 -2.789 l 0 -43.21 l -18 -18 m -27.328 0" style="fill:#37a34d;fill-opacity:1;stroke:none;fill-rule:nonzero"/>
  <path d="m 42 18 l 14 14 l 0 -14 m -14 0" style="fill:#000;fill-opacity:0.196;stroke:none;fill-rule:nonzero"/>
  <path d="m 38 0 l 17.984 18 l -15.227 0 c -1.348 0 -2.758 -1.426 -2.758 -2.773 m 0 -15.227" style="fill:#fff;fill-opacity:0.392;stroke:none;fill-rule:nonzero"/>
  <path d="m 23.289 22 c -0.703 0.066 -1.305 0.813 -1.289 1.605 l 0 16.828 c 0.008 0.828 0.668 1.574 1.406 1.566 l 17.223 0 c 0.727 -0.016 1.363 -0.746 1.371 -1.566 l 0 -16.828 c 0.016 -0.836 -0.629 -1.598 -1.371 -1.605 m -16.629 2 16 0 0 11.402 -4.703 -5.316 -2.98 2.773 -3.93 -4.922 -4.387 5.66" style="fill:#fff;fill-opacity:1;stroke:none;fill-rule:nonzero"/>
  <path d="m 8 48 l 0 13.336 c 0 1.297 1.375 2.664 2.664 2.664 l 42.672 0 c 1.289 0 2.664 -1.367 2.664 -2.664 l 0 -13.336 m -48 0" style="fill:#000;fill-opacity:0.196;stroke:none;fill-rule:nonzero"/>
 </g>
 <path d="m 20.291 56.5 c 0 0.525 0.026 1.017 0.06 1.477 0.06 0.451 0.153 0.845 0.281 1.182 0.153 0.336 0.349 0.599 0.605 0.796 0.256 0.197 0.837 0.295 1.263 0.295 0.418 0 0.991 -0.098 1.247 -0.295 0.264 -0.197 0.469 -0.459 0.605 -0.796 0.145 -0.353 0.239 -0.747 0.281 -1.198 0.051 -0.451 0.077 -0.935 0.077 -1.461 0 -0.517 -0.026 -1 -0.077 -1.452 -0.043 -0.468 -0.136 -0.862 -0.281 -1.198 -0.136 -0.336 -0.332 -0.599 -0.588 -0.796 -0.256 -0.197 -0.829 -0.295 -1.264 -0.295 -0.426 0 -1.01 0.098 -1.263 0.295 -0.256 0.197 -0.452 0.468 -0.605 0.812 -0.128 0.336 -0.222 0.73 -0.281 1.182 -0.034 0.451 -0.06 0.935 -0.06 1.452 m -2.291 0 c 0 -1.846 0.401 -3.241 1.193 -4.176 c 0.793 -0.952 1.901 -1.419 3.307 -1.419 c 1.466 0 2.582 0.468 3.349 1.419 c 0.767 0.935 1.151 2.33 1.151 4.176 c 0 1.854 -0.392 3.249 -1.168 4.201 c -0.784 0.935 -1.884 1.403 -3.307 1.403 c -1.466 0 -2.591 -0.468 -3.375 -1.403 -0.767 -0.952 -1.151 -2.347 -1.151 -4.201" style="fill:#fff"/>
 <path d="m 31.719 50.925 c 0.666 0 1.268 0.065 1.807 0.211 0.539 0.138 1.01 0.357 1.395 0.657 0.388 0.292 0.689 0.665 0.888 1.128 0.214 0.446 0.317 0.982 0.317 1.59 0 0.641 -0.135 1.217 -0.412 1.736 -0.277 0.519 -0.737 0.917 -1.371 1.185 c 1.038 1.456 1.815 3 2.56 4.568 l -2.433 0 c -0.593 -1.466 -1.467 -2.79 -2.243 -4.03 l -1.301 0 0 4.03 -2.226 0 0 -10.791 c 1.01 -0.23 2.01 -0.239 3.02 -0.284 m 2.052 3.57 c 0 -0.576 -0.19 -0.998 -0.563 -1.274 -0.38 -0.268 -0.872 -0.406 -1.49 -0.406 -0.242 -0.006 -0.57 0.039 -0.794 0.057 l 0 3.286 0.603 0 c 0.792 0 1.363 -0.138 1.72 -0.422 0.349 -0.292 0.523 -0.706 0.523 -1.241" style="fill:#fff"/>
 <path d="m 44.994 62 -0.579 -2.176 -3.411 0 l -0.562 2.176 -2.491 0 c 1.012 -3.818 2.293 -7.494 3.508 -11 l 2.677 0 c 1.34 3.729 2.524 7.5 3.433 11 l -2.574 0 m -2.26 -8.865 c -0.521 1.512 -0.955 3.393 -1.284 4.881 l 2.55 0 c -0.281 -1.558 -0.816 -3.431 -1.266 -4.881" style="fill:#fff"/>
</svg>
