<svg xmlns="http://www.w3.org/2000/svg" viewBox="0 0 64 64">
 <path d="m 10.672 0 c -1.375 0 -2.672 1.355 -2.672 2.789 l 0 58.42 c 0 1.355 1.375 2.789 2.672 2.789 l 42.656 0 c 1.297 0 2.672 -1.434 2.672 -2.789 l 0 -43.21 -18 -18 m -27.328 0" style="fill:#35a14c;fill-opacity:1;stroke:none;fill-rule:nonzero"/>
 <path d="m 42 18 14 14 0 -14 z m 0 0" style="fill:#000;fill-opacity:0.196;stroke:none;fill-rule:nonzero"/>
 <path d="m 38 0 17.984 18 -15.227 0 c -1.348 0 -2.758 -1.426 -2.758 -2.773 m 0 -15.227" style="fill:#fff;fill-opacity:0.392;stroke:none;fill-rule:nonzero"/>
 <path d="m 8 48 0 13.336 c 0 1.297 1.375 2.664 2.664 2.664 l 42.672 0 c 1.289 0 2.664 -1.367 2.664 -2.664 l 0 -13.336 m -48 0" style="fill:#000;fill-opacity:0.196;stroke:none;fill-rule:nonzero"/>
 <path d="m 22.869 62 q -2.371 0 -3.62 -1.43 -1.249 -1.43 -1.249 -4.07 q 0 -1.311 0.38 -2.333 0.38 -1.022 1.05 -1.72 0.688 -0.715 1.611 -1.073 q 0.941 -0.375 2.045 -0.375 q 0.597 0 1.068 0.102 0.489 0.085 0.851 0.204 0.362 0.119 0.597 0.255 0.253 0.136 0.38 0.204 l -0.579 1.669 q -0.416 -0.255 -1.014 -0.426 -0.579 -0.187 -1.339 -0.187 -0.525 0 -1.032 0.187 -0.489 0.17 -0.887 0.596 -0.38 0.409 -0.633 1.107 -0.235 0.698 -0.235 1.737 0 1.805 0.652 2.776 0.67 0.954 2.172 0.954 0.869 0 1.43 -0.187 0.579 -0.187 0.923 -0.375 l 0.561 1.652 q -0.471 0.272 -1.285 0.511 -0.796 0.221 -1.846 0.221" style="fill:#fff;fill-opacity:1;stroke:none"/>
 <path d="m 30.943 51 q 0.975 0 1.766 0.211 0.791 0.211 1.361 0.65 0.57 0.439 0.864 1.125 0.313 0.668 0.313 1.581 0 0.949 -0.405 1.722 -0.405 0.773 -1.343 1.177 0.313 0.457 0.662 1.019 0.349 0.545 0.68 1.16 0.331 0.597 0.625 1.212 q 0.313 0.597 0.533 1.142 l -2.372 0 q -0.423 -1.054 -0.993 -2.02 -0.552 -0.984 -1.195 -1.986 l -1.177 0 0 4.01 l -2.262 0 0 -10.719 q 0.331 -0.07 0.717 -0.123 0.405 -0.07 0.809 -0.088 0.405 -0.035 0.772 -0.053 0.368 -0.018 0.644 -0.018 z m 2 3.55 q 0 -0.861 -0.552 -1.265 -0.552 -0.404 -1.453 -0.404 -0.129 0 -0.313 0.018 -0.184 0 -0.368 0.035 l 0 3.268 0.497 0 q 1.159 0 1.674 -0.422 0.515 -0.439 0.515 -1.23 z" style="fill:#fff;fill-opacity:1;stroke:none"/>
 <path d="m 45.47 54.08 q 0 0.556 -0.229 1.077 -0.229 0.504 -0.611 0.991 -0.382 0.487 -0.859 0.938 -0.477 0.452 -0.974 0.869 -0.248 0.209 -0.573 0.504 -0.325 0.278 -0.611 0.591 -0.286 0.295 -0.496 0.608 -0.191 0.313 -0.191 0.573 l 5.079 0 0 1.773 -7.714 0 q -0.057 -0.174 -0.057 -0.434 0.019 -0.261 0.019 -0.365 0 -0.869 0.344 -1.599 0.363 -0.73 0.897 -1.338 0.554 -0.626 1.165 -1.147 0.63 -0.539 1.165 -1.025 0.554 -0.487 0.897 -0.938 0.363 -0.452 0.363 -0.921 0 -0.66 -0.439 -1.01 -0.439 -0.365 -1.107 -0.365 -0.554 0 -1.165 0.243 -0.611 0.243 -1.203 0.817 l -1.165 -1.494 q 0.764 -0.73 1.757 -1.077 1.012 -0.348 2 -0.348 q 0.726 0 1.394 0.191 0.668 0.191 1.184 0.573 0.516 0.382 0.821 0.973 0.305 0.573 0.305 1.338 z" style="fill:#fff;fill-opacity:1;stroke:none"/>
 <g transform="matrix(0.80051185,0,0,0.80026785,12.788106,12.78717)" style="fill:#fff;fill-opacity:1">
  <!-- color: #3d3d3d -->
  <g style="fill:#fff">
   <path d="M 27.08,9.641 23.471,19.793 37.705,17.43 C 35.603,13.438 31.721,10.5 27.08,9.641 m 0,0" style="fill:#fff;stroke:none;fill-rule:nonzero"/>
   <path d="m 38.15 19.449 -10.738 1.988 9.199 10.98 c 2.457 -3.797 3.09 -8.586 1.527 -12.969 m 0.012 0" style="fill:#fff;stroke:none;fill-rule:nonzero"/>
   <path d="m 35.07 33.809 -7.121 -8.164 -5.05 13.344 c 4.566 0.195 9.09 -1.656 12.156 -5.18 m 0.012 0" style="fill:#fff;stroke:none;fill-rule:nonzero"/>
   <path d="m 20.922 38.36 3.617 -10.152 -14.242 2.363 c 2.109 3.996 5.996 6.934 10.625 7.789 m 0 0" style="fill:#fff;stroke:none;fill-rule:nonzero"/>
   <path d="M 9.852,28.559 20.586,26.571 11.387,15.591 C 8.934,19.392 8.297,24.177 9.86,28.56 m -0.008,0" style="fill:#fff;stroke:none;fill-rule:nonzero"/>
   <path d="m 12.926 14.207 7.121 8.164 5.05 -13.344 c -4.563 -0.195 -9.09 1.656 -12.152 5.18 m -0.016 0" style="fill:#fff;stroke:none;fill-rule:nonzero"/>
  </g>
 </g>
</svg>
