<svg xmlns="http://www.w3.org/2000/svg" viewBox="0 0 64 64">
 <path d="m 10.672 0 c -1.375 0 -2.672 1.355 -2.672 2.789 l 0 58.42 c 0 1.355 1.375 2.789 2.672 2.789 l 42.656 0 c 1.297 0 2.672 -1.434 2.672 -2.789 l 0 -43.21 -18 -18 m -27.328 0" style="fill:#35a14c;fill-opacity:1;stroke:none;fill-rule:nonzero"/>
 <path d="m 42 18 14 14 0 -14 z m 0 0" style="fill:#000;fill-opacity:0.196;stroke:none;fill-rule:nonzero"/>
 <path d="m 38 0 17.984 18 -15.227 0 c -1.348 0 -2.758 -1.426 -2.758 -2.773 m 0 -15.227" style="fill:#fff;fill-opacity:0.392;stroke:none;fill-rule:nonzero"/>
 <g transform="matrix(0.80051185,0,0,0.80026785,12.788106,12.78717)" style="fill:#fff;fill-opacity:1">
  <!-- color: #3d3d3d -->
  <g style="fill:#fff">
   <path d="M 27.08,9.641 23.471,19.793 37.705,17.43 C 35.603,13.438 31.721,10.5 27.08,9.641 m 0,0" style="fill:#fff;stroke:none;fill-rule:nonzero"/>
   <path d="m 38.15 19.449 -10.738 1.988 9.199 10.98 c 2.457 -3.797 3.09 -8.586 1.527 -12.969 m 0.012 0" style="fill:#fff;stroke:none;fill-rule:nonzero"/>
   <path d="m 35.07 33.809 -7.121 -8.164 -5.05 13.344 c 4.566 0.195 9.09 -1.656 12.156 -5.18 m 0.012 0" style="fill:#fff;stroke:none;fill-rule:nonzero"/>
   <path d="m 20.922 38.36 3.617 -10.152 -14.242 2.363 c 2.109 3.996 5.996 6.934 10.625 7.789 m 0 0" style="fill:#fff;stroke:none;fill-rule:nonzero"/>
   <path d="M 9.852,28.559 20.586,26.571 11.387,15.591 C 8.934,19.392 8.297,24.177 9.86,28.56 m -0.008,0" style="fill:#fff;stroke:none;fill-rule:nonzero"/>
   <path d="m 12.926 14.207 7.121 8.164 5.05 -13.344 c -4.563 -0.195 -9.09 1.656 -12.152 5.18 m -0.016 0" style="fill:#fff;stroke:none;fill-rule:nonzero"/>
  </g>
 </g>
 <path d="m 8 48 0 13.336 c 0 1.297 1.375 2.664 2.664 2.664 l 42.672 0 c 1.289 0 2.664 -1.367 2.664 -2.664 l 0 -13.336 m -48 0" style="fill:#000;fill-opacity:0.196;stroke:none;fill-rule:nonzero"/>
 <path d="m 20.348 60.13 q 0.095 0.017 0.21 0.017 0.115 0 0.21 0 0.802 0 1.337 -0.278 0.554 -0.278 0.878 -0.763 0.344 -0.486 0.477 -1.145 0.153 -0.677 0.153 -1.475 0 -0.694 -0.115 -1.353 -0.115 -0.659 -0.401 -1.162 -0.286 -0.503 -0.783 -0.798 -0.496 -0.312 -1.279 -0.312 -0.153 0 -0.344 0.017 -0.191 0 -0.344 0.035 l 0 7.218 z m 5.652 -3.644 q 0 1.492 -0.42 2.55 -0.401 1.041 -1.126 1.7 -0.726 0.659 -1.737 0.972 q -0.993 0.295 -2.196 0.295 -0.63 0 -1.241 -0.069 -0.592 -0.052 -1.279 -0.191 l 0 -10.479 q 0.802 -0.156 1.508 -0.208 0.706 -0.052 1.317 -0.052 q 1.165 0 2.119 0.312 0.974 0.312 1.642 0.989 0.668 0.659 1.031 1.7 q 0.382 1.024 0.382 2.481" style="fill:#fff;fill-opacity:1;stroke:none"/>
 <path d="m 34.06 62 q -0.824 -1.83 -1.804 -3.643 -0.961 -1.83 -2.078 -3.661 l 0 7.304 -2.176 0 l 0 -11 1.941 0 q 0.549 0.782 1.098 1.706 0.549 0.906 1.059 1.813 0.529 0.906 0.961 1.759 0.451 0.853 0.765 1.493 l 0 -6.771 2.176 0 l 0 11 -1.941 0 z" style="fill:#fff;fill-opacity:1;stroke:none"/>
 <path d="m 43.22 52.822 q -0.805 0 -1.355 0.272 -0.549 0.272 -0.915 0.766 -0.348 0.477 -0.513 1.158 -0.146 0.664 -0.146 1.481 0 1.89 0.641 2.793 0.641 0.885 1.886 0.885 0.201 0 0.439 -0.017 0.238 -0.017 0.439 -0.051 l 0 -3.848 2.252 0 0 5.262 q -0.403 0.136 -1.263 0.306 q -0.842 0.17 -2.05 0.17 -1.062 0 -1.922 -0.341 -0.842 -0.358 -1.446 -1.039 -0.604 -0.698 -0.934 -1.72 -0.33 -1.039 -0.33 -2.401 0 -1.345 0.384 -2.367 0.384 -1.039 1.043 -1.737 0.659 -0.698 1.556 -1.039 0.897 -0.358 1.922 -0.358 q 0.659 0 1.172 0.102 0.531 0.085 0.915 0.204 0.384 0.119 0.622 0.255 q 0.256 0.136 0.384 0.204 l -0.586 1.669 q -0.403 -0.238 -0.989 -0.426 -0.586 -0.187 -1.208 -0.187 z" style="fill:#fff;fill-opacity:1;stroke:none"/>
</svg>
