<svg xmlns="http://www.w3.org/2000/svg" viewBox="0 0 64 64">
 <path d="m 10.672 0 c -1.375 0 -2.672 1.355 -2.672 2.789 l 0 58.42 c 0 1.355 1.375 2.789 2.672 2.789 l 42.656 0 c 1.297 0 2.672 -1.434 2.672 -2.789 l 0 -43.21 -18 -18 m -27.328 0" style="fill:#35a14c;fill-opacity:1;stroke:none;fill-rule:nonzero"/>
 <path d="m 42 18 14 14 0 -14 z m 0 0" style="fill:#000;fill-opacity:0.196;stroke:none;fill-rule:nonzero"/>
 <path d="m 38 0 17.984 18 -15.227 0 c -1.348 0 -2.758 -1.426 -2.758 -2.773 m 0 -15.227" style="fill:#fff;fill-opacity:0.392;stroke:none;fill-rule:nonzero"/>
 <path d="m 8 48 0 13.336 c 0 1.297 1.375 2.664 2.664 2.664 l 42.672 0 c 1.289 0 2.664 -1.367 2.664 -2.664 l 0 -13.336 m -48 0" style="fill:#000;fill-opacity:0.196;stroke:none;fill-rule:nonzero"/>
 <path d="m 23.495 62 q -0.198 -0.622 -0.577 -1.333 -0.36 -0.729 -0.811 -1.404 -0.45 -0.693 -0.955 -1.279 -0.486 -0.604 -0.937 -1.013 l 0 5.03 -2.216 0 0 -11 2.216 0 0 4.567 q 0.396 -0.498 0.829 -1.102 0.432 -0.604 0.811 -1.208 0.396 -0.604 0.721 -1.191 0.324 -0.586 0.541 -1.066 l 2.505 0 q -0.252 0.48 -0.613 1.102 -0.342 0.604 -0.793 1.279 -0.45 0.658 -0.973 1.351 -0.505 0.693 -1.063 1.333 0.559 0.533 1.135 1.226 0.577 0.693 1.081 1.493 0.523 0.782 0.937 1.617 0.414 0.817 0.667 1.599 l -2.505 0 z" style="fill:#fff;fill-opacity:1;stroke:none"/>
 <path d="m 30.348,60.13 q 0.095,0.017 0.21,0.017 0.115,0 0.21,0 0.802,0 1.337,-0.278 0.554,-0.278 0.878,-0.763 0.344,-0.486 0.477,-1.145 0.153,-0.677 0.153,-1.475 0,-0.694 -0.115,-1.353 -0.115,-0.659 -0.401,-1.162 -0.286,-0.503 -0.783,-0.798 -0.496,-0.312 -1.279,-0.312 -0.153,0 -0.344,0.017 -0.191,0 -0.344,0.035 l 0,7.218 z M 36,56.486 q 0,1.492 -0.42,2.55 -0.401,1.041 -1.126,1.7 -0.726,0.659 -1.737,0.972 -0.993,0.295 -2.196,0.295 -0.63,0 -1.241,-0.069 -0.592,-0.052 -1.279,-0.191 l 0,-10.479 q 0.802,-0.156 1.508,-0.208 0.706,-0.052 1.317,-0.052 1.165,0 2.119,0.312 0.974,0.312 1.642,0.989 0.668,0.659 1.031,1.7 Q 36,55.029 36,56.486" style="fill:#fff;fill-opacity:1;stroke:none"/>
 <path d="M 42.869,62 Q 40.498,62 39.249,60.57 38,59.14 38,56.5 q 0,-1.311 0.38,-2.333 0.38,-1.022 1.05,-1.72 0.688,-0.715 1.611,-1.073 0.941,-0.375 2.045,-0.375 0.597,0 1.068,0.102 0.489,0.085 0.851,0.204 0.362,0.119 0.597,0.255 0.253,0.136 0.38,0.204 l -0.579,1.669 Q 44.987,53.178 44.389,53.007 43.81,52.82 43.05,52.82 q -0.525,0 -1.032,0.187 -0.489,0.17 -0.887,0.596 -0.38,0.409 -0.633,1.107 -0.235,0.698 -0.235,1.737 0,1.805 0.652,2.776 0.67,0.954 2.172,0.954 0.869,0 1.43,-0.187 0.579,-0.187 0.923,-0.375 l 0.561,1.652 q -0.471,0.272 -1.285,0.511 -0.796,0.221 -1.846,0.221" style="fill:#fff;fill-opacity:1;stroke:none"/>
 <g transform="matrix(0.80051185,0,0,0.80026785,12.788106,12.78717)" style="fill:#fff;fill-opacity:1">
  <!-- color: #3d3d3d -->
  <g style="fill:#fff">
   <path d="M 27.08,9.641 23.471,19.793 37.705,17.43 C 35.603,13.438 31.721,10.5 27.08,9.641 m 0,0" style="fill:#fff;stroke:none;fill-rule:nonzero"/>
   <path d="m 38.15 19.449 -10.738 1.988 9.199 10.98 c 2.457 -3.797 3.09 -8.586 1.527 -12.969 m 0.012 0" style="fill:#fff;stroke:none;fill-rule:nonzero"/>
   <path d="m 35.07 33.809 -7.121 -8.164 -5.05 13.344 c 4.566 0.195 9.09 -1.656 12.156 -5.18 m 0.012 0" style="fill:#fff;stroke:none;fill-rule:nonzero"/>
   <path d="m 20.922 38.36 3.617 -10.152 -14.242 2.363 c 2.109 3.996 5.996 6.934 10.625 7.789 m 0 0" style="fill:#fff;stroke:none;fill-rule:nonzero"/>
   <path d="M 9.852,28.559 20.586,26.571 11.387,15.591 C 8.934,19.392 8.297,24.177 9.86,28.56 m -0.008,0" style="fill:#fff;stroke:none;fill-rule:nonzero"/>
   <path d="m 12.926 14.207 7.121 8.164 5.05 -13.344 c -4.563 -0.195 -9.09 1.656 -12.152 5.18 m -0.016 0" style="fill:#fff;stroke:none;fill-rule:nonzero"/>
  </g>
 </g>
</svg>
