<svg xmlns="http://www.w3.org/2000/svg" viewBox="0 0 64 64">
 <g>
  <path d="m 10.672 0 c -1.375 0 -2.672 1.355 -2.672 2.789 l 0 58.42 c 0 1.355 1.375 2.789 2.672 2.789 l 42.656 0 c 1.297 0 2.672 -1.434 2.672 -2.789 l 0 -43.21 l -18 -18 m -27.328 0" style="fill:#37a34d;fill-opacity:1;stroke:none;fill-rule:nonzero"/>
  <path d="m 42 18 l 14 14 l 0 -14 m -14 0" style="fill:#000;fill-opacity:0.196;stroke:none;fill-rule:nonzero"/>
  <path d="m 38 0 l 17.984 18 l -15.227 0 c -1.348 0 -2.758 -1.426 -2.758 -2.773 m 0 -15.227" style="fill:#fff;fill-opacity:0.392;stroke:none;fill-rule:nonzero"/>
  <path d="m 23.289 22 c -0.703 0.066 -1.305 0.813 -1.289 1.605 l 0 16.828 c 0.008 0.828 0.668 1.574 1.406 1.566 l 17.223 0 c 0.727 -0.016 1.363 -0.746 1.371 -1.566 l 0 -16.828 c 0.016 -0.836 -0.629 -1.598 -1.371 -1.605 m -16.629 2 16 0 0 11.402 -4.703 -5.316 -2.98 2.773 -3.93 -4.922 -4.387 5.66" style="fill:#fff;fill-opacity:1;stroke:none;fill-rule:nonzero"/>
  <path d="m 8 48 l 0 13.336 c 0 1.297 1.375 2.664 2.664 2.664 l 42.672 0 c 1.289 0 2.664 -1.367 2.664 -2.664 l 0 -13.336 m -48 0" style="fill:#000;fill-opacity:0.196;stroke:none;fill-rule:nonzero"/>
  <path d="m 21.08 50.941 c 1.446 0 2.568 0.285 3.362 0.859 0.805 0.566 1.202 1.5 1.202 2.789 0 1.313 -0.404 2.254 -1.217 2.844 -0.801 0.574 -1.934 0.871 -3.409 0.871 l -0.801 0 0 3.688 -2.215 0 0 -10.789 c 1.045 -0.205 2.031 -0.239 3.078 -0.262 m 0.251 1.887 c -0.393 -0.005 -0.719 0.031 -1.115 0.055 l 0 3.527 0.918 0 c 0.725 0 1.268 -0.133 1.635 -0.402 0.368 -0.285 0.55 -0.762 0.55 -1.434 0 -0.633 -0.182 -1.082 -0.55 -1.336 -0.353 -0.273 -0.834 -0.41 -1.439 -0.41" style="fill:#fff;fill-opacity:1;stroke:none;fill-rule:nonzero"/>
 </g>
 <path d="m 44.06 62 c -0.675 -1.473 -1.476 -2.862 -2.22 -4.188 -0.838 1.425 -1.592 2.783 -2.3 4.188 l -2.744 0 c 1.036 -2.02 2.367 -3.898 3.596 -5.785 l -3.384 -5.16 2.783 0 2.049 3.504 2.157 -3.504 2.596 0 -3.306 5.109 c 1.364 1.884 2.531 3.783 3.509 5.836 l -2.736 0" style="fill:#fff;fill-opacity:1;stroke:none;fill-rule:nonzero"/>
 <path d="m 32.376 62.2 c -1.687 0 -2.968 -0.492 -3.853 -1.484 c -0.882 -0.98 -1.323 -2.379 -1.323 -4.203 c 0 -0.898 0.13 -1.707 0.399 -2.406 0.272 -0.711 0.648 -1.301 1.123 -1.785 0.479 -0.488 1.054 -0.855 1.706 -1.105 0.671 -0.258 1.392 -0.383 2.174 -0.383 0.426 0 0.801 0.031 1.139 0.098 0.341 0.059 0.644 0.133 0.897 0.219 0.261 0.082 0.468 0.164 0.636 0.258 0.18 0.098 0.311 0.164 0.403 0.215 l -0.613 1.727 c -0.295 -0.176 -0.656 -0.328 -1.077 -0.441 -0.41 -0.125 -0.886 -0.191 -1.422 -0.191 -0.368 0 -0.736 0.066 -1.097 0.191 -0.345 0.113 -0.663 0.324 -0.939 0.613 -0.272 0.285 -0.498 0.668 -0.679 1.141 -0.165 0.484 -0.245 1.086 -0.245 1.801 0 1.242 0.23 2.199 0.694 2.863 0.475 0.66 1.242 0.992 2.304 0.992 0.613 0 1.12 -0.066 1.522 -0.191 0.406 -0.133 0.736 -0.258 0.982 -0.391 l 0.594 1.707 c -0.334 0.191 -0.79 0.367 -1.365 0.523 c -0.564 0.16 -1.215 0.234 -1.959 0.234" style="fill:#fff;fill-opacity:1;stroke:none;fill-rule:nonzero"/>
</svg>
