<svg xmlns="http://www.w3.org/2000/svg" viewBox="0 0 64 64">
 <g>
  <path d="m 10.672 0 c -1.375 0 -2.672 1.355 -2.672 2.789 l 0 58.42 c 0 1.355 1.375 2.789 2.672 2.789 l 42.656 0 c 1.297 0 2.672 -1.434 2.672 -2.789 l 0 -43.21 l -18 -18 m -27.328 0" style="fill:#878787;fill-opacity:1;stroke:none;fill-rule:nonzero"/>
  <path d="m 42 18 l 14 14 l 0 -14 m -14 0" style="fill:#000;fill-opacity:0.196;stroke:none;fill-rule:nonzero"/>
  <path d="m 38 0 l 17.984 18 l -15.227 0 c -1.348 0 -2.758 -1.426 -2.758 -2.773 m 0 -15.227" style="fill:#fff;fill-opacity:0.392;stroke:none;fill-rule:nonzero"/>
  <path d="m 24 26 l 0 8 c 0 -1.477 1.195 -2.672 2.664 -2.672 c 1.477 0 2.672 1.195 2.672 2.672 c 0 1.469 -1.195 2.664 -2.672 2.664 c -1.469 0 -2.664 -1.195 -2.664 -2.664 l 0 8 l 8 0 c -1.477 0 -2.664 -1.195 -2.664 -2.672 c 0 -1.469 1.188 -2.664 2.664 -2.664 c 1.477 0 2.664 1.195 2.664 2.664 c 0 1.477 -1.188 2.672 -2.664 2.672 l 8 0 l 0 -16 m -16 0" style="fill:#fff;fill-opacity:1;stroke:none;fill-rule:nonzero"/>
  <path d="m 34.664 23.328 c 0 1.477 -1.195 2.672 -2.664 2.672 c -1.477 0 -2.664 -1.195 -2.664 -2.672 c 0 -1.469 1.188 -2.664 2.664 -2.664 c 1.469 0 2.664 1.195 2.664 2.664 m 0 0" style="fill:#fff;fill-opacity:1;stroke:none;fill-rule:nonzero"/>
  <path d="m 45.34 34 c 0 1.469 -1.195 2.664 -2.672 2.664 c -1.469 0 -2.664 -1.195 -2.664 -2.664 c 0 -1.477 1.195 -2.672 2.664 -2.672 c 1.477 0 2.672 1.195 2.672 2.672 m 0 0" style="fill:#fff;fill-opacity:1;stroke:none;fill-rule:nonzero"/>
  <path d="m 8 48 l 0 13.336 c 0 1.297 1.375 2.664 2.664 2.664 l 42.672 0 c 1.289 0 2.664 -1.367 2.664 -2.664 l 0 -13.336 m -48 0" style="fill:#000;fill-opacity:0.196;stroke:none;fill-rule:nonzero"/>
  <path d="m 20.14 56.55 c 0 0.531 0.016 1.031 0.059 1.492 c 0.051 0.457 0.141 0.855 0.273 1.195 c 0.141 0.34 0.34 0.605 0.59 0.805 c 0.246 0.199 0.578 0.297 0.992 0.297 c 0.406 0 0.73 -0.098 0.98 -0.297 c 0.258 -0.199 0.457 -0.465 0.59 -0.805 c 0.141 -0.355 0.23 -0.754 0.273 -1.211 c 0.047 -0.457 0.074 -0.945 0.074 -1.477 c 0 -0.52 -0.027 -1.012 -0.074 -1.465 c -0.043 -0.473 -0.133 -0.871 -0.273 -1.211 c -0.133 -0.34 -0.324 -0.605 -0.574 -0.805 c -0.25 -0.199 -0.578 -0.297 -0.996 -0.297 c -0.414 0 -0.746 0.098 -0.992 0.297 c -0.25 0.199 -0.449 0.473 -0.59 0.82 c -0.133 0.34 -0.223 0.738 -0.273 1.195 c -0.043 0.453 -0.059 0.945 -0.059 1.465 m -2.445 0 c 0 -1.863 0.391 -3.273 1.152 -4.219 c 0.77 -0.961 1.84 -1.434 3.207 -1.434 c 1.418 0 2.504 0.473 3.242 1.434 c 0.746 0.945 1.121 2.355 1.121 4.219 c 0 1.875 -0.383 3.285 -1.137 4.246 c -0.754 0.945 -1.824 1.418 -3.207 1.418 c -1.418 0 -2.504 -0.473 -3.258 -1.418 c -0.746 -0.961 -1.121 -2.371 -1.121 -4.246" style="fill:#fff;fill-opacity:1;stroke:none;fill-rule:nonzero"/>
  <path d="m 33.902 61.988 c -0.246 -0.59 -0.555 -1.254 -0.918 -1.977 c -0.355 -0.727 -0.73 -1.449 -1.121 -2.172 c -0.371 0.691 -0.754 1.402 -1.125 2.156 c -0.383 0.73 -0.707 1.402 -0.98 1.992 l -2.602 0 c 0.133 -0.316 0.32 -0.691 0.57 -1.137 c 0.258 -0.441 0.539 -0.922 0.84 -1.434 c 0.313 -0.516 0.637 -1.047 0.977 -1.578 c 0.34 -0.555 0.664 -1.078 0.977 -1.582 l -3.164 -5.117 l 2.594 0 l 1.914 3.477 l 2.02 -3.477 l 2.422 0 l -3.086 5.066 c 0.348 0.508 0.695 1.027 1.039 1.574 c 0.34 0.551 0.652 1.09 0.934 1.617 c 0.301 0.516 0.566 0.996 0.781 1.453 c 0.223 0.445 0.398 0.82 0.531 1.137 l -2.598 0" style="fill:#fff;fill-opacity:1;stroke:none;fill-rule:nonzero"/>
  <path d="m 46 51.14 l 0 1.793 l -3.191 0 l 0 9.05 l -2.422 0 l 0 -9.05 l -3.184 0 l 0 -1.793 l 8.797 0" style="fill:#fff;fill-opacity:1;stroke:none;fill-rule:nonzero"/>
 </g>
</svg>
