<svg xmlns="http://www.w3.org/2000/svg" viewBox="0 0 64 64">
 <g>
  <path d="m 10.672 0 c -1.375 0 -2.672 1.355 -2.672 2.789 l 0 58.42 c 0 1.355 1.375 2.789 2.672 2.789 l 42.656 0 c 1.297 0 2.672 -1.434 2.672 -2.789 l 0 -43.21 l -18 -18 m -27.328 0" style="fill:#5555b5;fill-opacity:1;stroke:none;fill-rule:nonzero"/>
  <path d="m 42 18 l 14 14 l 0 -14 m -14 0" style="fill:#000;fill-opacity:0.196;stroke:none;fill-rule:nonzero"/>
  <path d="m 38 0 l 17.984 18 l -15.227 0 c -1.348 0 -2.758 -1.426 -2.758 -2.773 m 0 -15.227" style="fill:#fff;fill-opacity:0.392;stroke:none;fill-rule:nonzero"/>
 </g>
 <path d="m 24.484 50.17 c 3.351 0.789 6.856 0.748 10.324 0.83 0 0 3.034 -0.102 4.699 -0.399 1.743 -0.312 2.725 -0.661 3.255 -1.312 0.011 -0.151 0.244 -0.654 -0.452 -1.103 -1.786 -1.144 -4.046 -1.399 -8.455 -2.28 -4.876 -1.043 -6.362 -2.15 -7.111 -2.968 -0.717 -0.815 0.037 -2.589 3.903 -3.584 1.954 -0.546 9.298 -0.891 9.298 -0.891 -2.167 -1.593 -6.228 -4.44 -7.06 -5.04 -0.73 -0.532 -1.9 -1.347 -2.05 -2.106 -0.193 -0.737 0.97 -1.137 1.589 -1.202 3.146 -0.15 5.742 0.091 8.634 0.482 1.743 0.023 3.065 -0.936 2.927 -2.842 -0.084 -1.94 -2.08 -3.427 -4.239 -3.419 -2.032 0.004 -7.02 0.532 -7.02 0.532 5.872 0.993 6.837 1.266 7.163 1.951 -1.629 1.536 -4.527 0.678 -7.232 0.487 -3.43 -0.41 -5.819 -0.812 -6.812 0.572 -0.645 0.894 0.168 1.949 0.492 2.562 1.969 2.933 4.795 4.462 7.67 6.222 -5.353 -1.258 -9.55 -0.295 -12.185 1.198 -3.02 1.929 -2.392 4.973 2.606 7.668 2.943 1.589 4.852 2.275 9.152 2.768 2.784 0.345 3.199 0.509 3.187 0.741 -0.016 0.323 -3.254 0.556 -4.145 0.65 -2.262 0.234 -8.115 0.478 -8.148 0.479" style="fill:#fff;fill-opacity:1;stroke:none;fill-rule:evenodd"/>
</svg>
