<svg xmlns="http://www.w3.org/2000/svg" viewBox="0 0 64 64">
 <g>
  <path d="m 10.672 0 c -1.375 0 -2.672 1.355 -2.672 2.789 l 0 58.42 c 0 1.355 1.375 2.789 2.672 2.789 l 42.656 0 c 1.297 0 2.672 -1.434 2.672 -2.789 l 0 -43.21 l -18 -18 m -27.328 0" style="fill:#366994;fill-opacity:1;stroke:none;fill-rule:nonzero"/>
  <path d="m 42 18 l 14 14 l 0 -14 m -14 0" style="fill:#000;fill-opacity:0.196;stroke:none;fill-rule:nonzero"/>
  <path d="m 38 0 l 17.984 18 l -15.227 0 c -1.348 0 -2.758 -1.426 -2.758 -2.773 m 0 -15.227" style="fill:#fff;fill-opacity:0.392;stroke:none;fill-rule:nonzero"/>
  <path d="m 32.29 22 c -1.086 0.008 -2.133 0.094 -3.047 0.25 c -2.68 0.469 -3.25 0.609 -3.25 2.414 l 0 4 l 6.672 0 l 0 1.336 l -9.344 0 c -1.836 0 -3.039 1.125 -3.539 3.211 c -0.586 2.391 -0.609 3.875 0 6.375 c 0.445 1.852 1.703 3.75 3.539 3.75 l 1.336 0 l 0 -4 c 0 -2.07 1.859 -4 4 -4 l 6.672 0 c 1.766 0 2.672 -0.914 2.672 -2.672 l 0 -6.664 c 0 -1.703 -0.703 -3.469 -2.422 -3.75 c -1.086 -0.18 -2.211 -0.258 -3.289 -0.25 m -2.297 2.664 c 0.742 0 1.336 0.602 1.336 1.336 c 0 0.734 -0.594 1.336 -1.336 1.336 c -0.734 0 -1.336 -0.602 -1.336 -1.336 c 0 -0.734 0.602 -1.336 1.336 -1.336 m 0 0" style="fill:#fff;fill-opacity:1;stroke:none;fill-rule:nonzero"/>
  <path d="m 31.711 50 c 1.086 -0.008 2.133 -0.094 3.047 -0.25 c 2.68 -0.469 3.25 -0.609 3.25 -2.414 l 0 -4 l -6.672 0 l 0 -1.336 l 9.344 0 c 1.836 0 3.039 -1.125 3.539 -3.211 c 0.586 -2.391 0.609 -3.875 0 -6.375 c -0.445 -1.852 -1.703 -3.75 -3.539 -3.75 l -1.336 0 l 0 4 c 0 2.07 -1.859 4 -4 4 l -6.672 0 c -1.766 0 -2.672 0.914 -2.672 2.672 l 0 6.664 c 0 1.703 0.703 3.469 2.422 3.75 c 1.086 0.18 2.211 0.258 3.289 0.25 m 2.297 -2.664 c -0.742 0 -1.336 -0.602 -1.336 -1.336 c 0 -0.734 0.594 -1.336 1.336 -1.336 c 0.734 0 1.336 0.602 1.336 1.336 c 0 0.734 -0.602 1.336 -1.336 1.336 m 0 0" style="fill:#fff;fill-opacity:1;stroke:none;fill-rule:nonzero"/>
 </g>
</svg>
