<svg xmlns="http://www.w3.org/2000/svg" viewBox="0 0 64 64">
 <path d="m 10.672 0 c -1.375 0 -2.672 1.355 -2.672 2.789 l 0 58.42 c 0 1.355 1.375 2.789 2.672 2.789 l 42.656 0 c 1.297 0 2.672 -1.434 2.672 -2.789 l 0 -43.21 -18 -18 m -27.328 0" style="fill:#dcdcdc;fill-opacity:1;stroke:none;fill-rule:nonzero"/>
 <path d="m 42 18 14 14 0 -14 z m 0 0" style="fill:#000;fill-opacity:0.196;stroke:none;fill-rule:nonzero"/>
 <path d="m 38 0 17.984 18 -15.227 0 c -1.348 0 -2.758 -1.426 -2.758 -2.773 m 0 -15.227" style="fill:#fff;fill-opacity:0.392;stroke:none;fill-rule:nonzero"/>
 <path d="m 32 24 c -7.734 0 -14 6.27 -14 13.996 0 7.734 6.266 14 14 14 7.734 0 14 -6.27 14 -14 0 -7.727 -6.266 -13.996 -14 -13.996 m 0 2.797 c 6.184 0 11.195 5.01 11.195 11.199 0 6.188 -5.01 11.207 -11.195 11.207 -6.184 0 -11.195 -5.02 -11.195 -11.207 0 -6.188 5.01 -11.199 11.195 -11.199 z m 0 0" style="fill:#888;fill-opacity:1;stroke:none;fill-rule:nonzero"/>
 <path d="m 32.22 32.484 c -1.469 0 -2.602 0.492 -3.406 1.477 -0.801 0.977 -1.203 2.336 -1.203 4.086 0 3.648 1.531 5.469 4.609 5.469 1.285 0 2.852 -0.285 4.684 -0.859 l 0 2.902 c -1.504 0.559 -3.191 0.84 -5.05 0.84 -2.672 0 -4.715 -0.715 -6.133 -2.16 -1.418 -1.441 -2.125 -3.512 -2.125 -6.211 0 -1.695 0.344 -3.191 1.043 -4.461 0.695 -1.281 1.688 -2.266 2.992 -2.938 1.305 -0.688 2.836 -1.035 4.586 -1.035 1.785 0 3.574 0.387 5.379 1.156 l -1.262 2.816 c -0.684 -0.289 -1.379 -0.543 -2.066 -0.762 -0.699 -0.215 -1.379 -0.32 -2.051 -0.32" style="fill:#888;fill-opacity:1;stroke:none;fill-rule:nonzero"/>
</svg>
