<svg xmlns="http://www.w3.org/2000/svg" viewBox="0 0 64 64">
 <g>
  <path d="m 10.672 0 c -1.375 0 -2.672 1.355 -2.672 2.789 l 0 58.42 c 0 1.355 1.375 2.789 2.672 2.789 l 42.656 0 c 1.297 0 2.672 -1.434 2.672 -2.789 l 0 -43.21 l -18 -18 m -27.328 0" style="fill:#b2542c;fill-opacity:1;stroke:none;fill-rule:nonzero"/>
  <path d="m 42 18 l 14 14 l 0 -14 m -14 0" style="fill:#000;fill-opacity:0.196;stroke:none;fill-rule:nonzero"/>
  <path d="m 38 0 l 17.984 18 l -15.227 0 c -1.348 0 -2.758 -1.426 -2.758 -2.773 m 0 -15.227" style="fill:#fff;fill-opacity:0.392;stroke:none;fill-rule:nonzero"/>
 </g>
 <path d="m 30.965 21 -1.086 2.137 c -0.733 0.112 -1.454 0.28 -2.16 0.504 l -1.906 -1.441 -1.934 0.953 -0.016 2.391 c -0.551 0.38 -1.076 0.796 -1.566 1.25 l -2.328 -0.492 -1.422 1.797 1.047 2.141 c -0.282 0.515 -0.531 1.048 -0.746 1.594 l -2.336 0.531 -0.508 2.352 1.875 1.469 c -0.021 0.272 -0.034 0.543 -0.039 0.816 0.001 0.276 0.01 0.549 0.027 0.824 l -1.867 1.461 l 0.52 2.352 2.32 0.527 c 0.22 0.544 0.474 1.074 0.762 1.586 l -1.051 2.148 1.422 1.801 2.332 -0.496 c 0.488 0.459 1.01 0.88 1.559 1.266 l 0.016 2.387 1.922 0.953 1.906 -1.441 c 0.709 0.219 1.433 0.382 2.168 0.488 l 1.082 2.129 2.078 0.016 1.086 -2.137 c 0.733 -0.112 1.454 -0.28 2.16 -0.504 l 1.906 1.441 1.934 -0.953 0.016 -2.391 c 0.551 -0.38 1.076 -0.796 1.566 -1.25 l 2.328 0.492 1.422 -1.797 -1.047 -2.141 c 0.282 -0.515 0.531 -1.048 0.746 -1.594 l 2.336 -0.531 0.508 -2.352 -1.875 -1.469 c 0.021 -0.272 0.034 -0.543 0.039 -0.816 -0.001 -0.276 -0.01 -0.549 -0.027 -0.824 l 1.867 -1.461 -0.52 -2.352 -2.32 -0.527 c -0.22 -0.544 -0.474 -1.074 -0.762 -1.586 l 1.051 -2.148 -1.422 -1.801 -2.332 0.496 c -0.488 -0.459 -1.01 -0.88 -1.559 -1.266 l -0.016 -2.387 -1.922 -0.953 -1.906 1.441 c -0.709 -0.219 -1.433 -0.382 -2.168 -0.488 l -1.082 -2.129 -2.078 -0.016 z m 1.035 4 a 12 12 0 0 1 12 12 12 12 0 0 1 -12 12 12 12 0 0 1 -12 -12 12 12 0 0 1 12 -12 z" style="fill:#fff;opacity:1;fill-opacity:1;stroke:none"/>
 <path d="m 32.64 29 c 4.477 0 6.36 2 6.36 5 0 2.667 -2.454 3.922 -3.8 4.16 1.092 0.286 1.544 1.399 2.14 3.24 c 0.518 1.6 1.424 1.6 2.66 1.6 l 0 2 -3 0 c -1.574 0 -1.845 -1.259 -2.4 -2.8 c -0.793 -2.2 -1.402 -3.2 -3.2 -3.2 l -2.4 0 0 4 2 0 l 0 2 l -7 0 0 -2 2 0 l 0 -12 l -2 0 0 -2 z m -3.64 8 3.3 0 c 2.7 0 3.41 -1.542 3.41 -3 0 -1.944 -1.273 -3 -3.42 -3 l -3.29 0" style="fill:#fff;fill-opacity:1;stroke:none"/>
</svg>
