<svg xmlns="http://www.w3.org/2000/svg" viewBox="0 0 64 64">
 <path d="m 10.672 0 c -1.375 0 -2.672 1.355 -2.672 2.789 l 0 58.42 c 0 1.355 1.375 2.789 2.672 2.789 l 42.656 0 c 1.297 0 2.672 -1.434 2.672 -2.789 l 0 -43.21 -18 -18 m -27.328 0" style="fill:#dcdcdc;fill-opacity:1;stroke:none;fill-rule:nonzero"/>
 <path d="m 42 18 14 14 0 -14 z m 0 0" style="fill:#000;fill-opacity:0.196;stroke:none;fill-rule:nonzero"/>
 <path d="m 38 0 17.984 18 -15.227 0 c -1.348 0 -2.758 -1.426 -2.758 -2.773 m 0 -15.227" style="fill:#fff;fill-opacity:0.392;stroke:none;fill-rule:nonzero"/>
 <path d="m 32 24 c -7.734 0 -14 6.27 -14 13.996 0 7.734 6.266 14 14 14 7.734 0 14 -6.27 14 -14 0 -7.727 -6.266 -13.996 -14 -13.996 m 0 2.797 c 6.184 0 11.195 5.01 11.195 11.199 0 6.188 -5.01 11.207 -11.195 11.207 -6.184 0 -11.195 -5.02 -11.195 -11.207 0 -6.188 5.01 -11.199 11.195 -11.199 z m 0 0" style="fill:#888;fill-opacity:1;stroke:none;fill-rule:nonzero"/>
 <path d="m 34.797 32.402 c 0 1.539 -1.254 2.797 -2.797 2.797 -1.551 0 -2.797 -1.258 -2.797 -2.797 0 -1.551 1.246 -2.809 2.797 -2.809 1.543 0 2.797 1.258 2.797 2.809 z m 0 0" style="fill:#888;fill-opacity:1;stroke:none;fill-rule:nonzero"/>
 <path d="m 30.598 36.602 2.805 0 c 1.395 0 1.395 -0.008 1.395 1.395 l 0 7.01 c 0 1.395 0.008 1.395 -1.395 1.395 l -2.805 0 c -1.395 0 -1.395 0.008 -1.395 -1.395 l 0 -7.01 c 0 -1.395 -0.008 -1.395 1.395 -1.395 z m 0 0" style="fill:#888;fill-opacity:1;stroke:none;fill-rule:nonzero"/>
</svg>
