<svg xmlns="http://www.w3.org/2000/svg" viewBox="0 0 64 64">
 <g>
  <path d="m 10.672 0 c -1.375 0 -2.672 1.355 -2.672 2.789 l 0 58.42 c 0 1.355 1.375 2.789 2.672 2.789 l 42.656 0 c 1.297 0 2.672 -1.434 2.672 -2.789 l 0 -43.21 l -18 -18 m -27.328 0" style="fill:#2d2d2d;fill-opacity:1;stroke:none;fill-rule:nonzero"/>
  <path d="m 42 18 l 14 14 l 0 -14 m -14 0" style="fill:#000;fill-opacity:0.196;stroke:none;fill-rule:nonzero"/>
  <path d="m 38 0 l 17.984 18 l -15.227 0 c -1.348 0 -2.758 -1.426 -2.758 -2.773 m 0 -15.227" style="fill:#fff;fill-opacity:0.392;stroke:none;fill-rule:nonzero"/>
  <path d="m 20 36.785 c 0 -1.563 0.301 -3.102 0.887 -4.625 c 0.598 -1.535 1.453 -2.906 2.566 -4.113 c 1.145 -1.199 2.523 -2.18 4.16 -2.922 c 1.625 -0.746 3.488 -1.125 5.59 -1.125 c 2.461 0 4.582 0.523 6.375 1.551 c 1.813 1.039 3.137 2.391 4 4.047 l -4.125 2.637 c -0.305 -0.723 -0.711 -1.324 -1.203 -1.809 c -0.492 -0.504 -1.027 -0.895 -1.625 -1.191 c -0.57 -0.285 -1.172 -0.492 -1.785 -0.609 c -0.625 -0.141 -1.223 -0.219 -1.793 -0.219 c -1.266 0 -2.383 0.258 -3.34 0.762 c -0.961 0.508 -1.762 1.164 -2.41 1.98 c -0.617 0.801 -1.098 1.715 -1.434 2.754 c -0.309 1.01 -0.465 2.02 -0.465 3.03 c 0 1.133 0.176 2.227 0.543 3.285 c 0.387 1.035 0.914 1.949 1.594 2.738 c 0.695 0.801 1.527 1.438 2.488 1.914 c 0.957 0.488 2 0.727 3.145 0.727 c 0.59 0 1.207 -0.066 1.82 -0.211 c 0.625 -0.152 1.223 -0.383 1.785 -0.695 c 0.598 -0.305 1.145 -0.703 1.637 -1.191 c 0.492 -0.504 0.895 -1.102 1.203 -1.797 l 4.387 2.34 c -0.414 0.961 -1.02 1.82 -1.82 2.57 c -0.781 0.715 -1.668 1.336 -2.68 1.84 c -1.012 0.504 -2.074 0.883 -3.191 1.152 c -1.109 0.266 -2.207 0.398 -3.297 0.398 c -1.918 0 -3.676 -0.379 -5.285 -1.152 c -1.582 -0.77 -2.953 -1.77 -4.113 -3 c -1.145 -1.254 -2.039 -2.664 -2.68 -4.227 c -0.625 -1.59 -0.934 -3.199 -0.934 -4.836" style="fill:#dcdcdc;fill-opacity:1;stroke:none;fill-rule:nonzero"/>
 </g>
</svg>
