<svg xmlns="http://www.w3.org/2000/svg" viewBox="0 0 64 64">
 <path d="m 10.672 0 c -1.375 0 -2.672 1.355 -2.672 2.789 l 0 58.42 c 0 1.355 1.375 2.789 2.672 2.789 l 42.656 0 c 1.297 0 2.672 -1.434 2.672 -2.789 l 0 -43.21 -18 -18 m -27.328 0" style="fill:#dcdcdc;fill-opacity:1;stroke:none;fill-rule:nonzero"/>
 <path d="m 42 18 14 14 0 -14 z m 0 0" style="fill:#000;fill-opacity:0.196;stroke:none;fill-rule:nonzero"/>
 <path d="m 38 0 17.984 18 -15.227 0 c -1.348 0 -2.758 -1.426 -2.758 -2.773 m 0 -15.227" style="fill:#fff;fill-opacity:0.392;stroke:none;fill-rule:nonzero"/>
 <path d="m 27.995 45 -4 0 0 -9.07 c 0 -1.244 -0.314 -2.175 -0.741 -2.791 -0.416 -0.628 -1.386 -1.043 -2.473 -1.043 -0.824 0 -1.604 0.243 -1.981 0.489 -0.429 0.281 -0.705 0.595 -0.975 1.078 -0.27 0.483 -0.518 1.079 -0.629 1.789 -0.113 0.71 -0.212 1.5 -0.2 2.437 l 0 7.113 -4 0 0 -24 4 0 0 9.961 c 0.551 -0.895 1.41 -1.537 2.268 -1.928 0.855 -0.401 1.893 -0.584 2.973 -0.584 0.933 0 1.459 0.107 2.212 0.353 0.765 0.236 1.417 0.612 1.957 1.126 0.54 0.514 0.956 1.172 1.249 1.975 0.292 0.792 0.345 1.743 0.345 2.853 z" style="fill:#3e3e3e;fill-opacity:1;stroke:none"/>
 <path d="m 40 38 -4 0 0 4 -2 0 0 -4 -4 0 0 -2 4 0 0 -4 2 0 0 4 4 0" style="fill:#3e3e3e;fill-opacity:1;stroke:none;fill-rule:nonzero"/>
 <path d="m 52 36 0 2 -4 0 0 4 -2 0 0 -4 -4 0 0 -2 4 0 0 -4 2 0 0 4 2 0" style="fill:#3e3e3e;fill-opacity:1;stroke:none;fill-rule:nonzero"/>
</svg>
