<svg xmlns="http://www.w3.org/2000/svg" viewBox="0 0 64 64">
 <g>
  <path d="m 10.672 0 c -1.375 0 -2.672 1.355 -2.672 2.789 l 0 58.42 c 0 1.355 1.375 2.789 2.672 2.789 l 42.656 0 c 1.297 0 2.672 -1.434 2.672 -2.789 l 0 -43.21 l -18 -18 m -27.328 0" style="fill:#dc312f;fill-opacity:1;stroke:none;fill-rule:nonzero"/>
  <path d="m 42 18 l 14 14 l 0 -14 m -14 0" style="fill:#000;fill-opacity:0.196;stroke:none;fill-rule:nonzero"/>
  <path d="m 38 0 l 17.984 18 l -15.227 0 c -1.348 0 -2.758 -1.426 -2.758 -2.773 m 0 -15.227" style="fill:#fff;fill-opacity:0.392;stroke:none;fill-rule:nonzero"/>
 </g>
 <path d="m 20 25 c -1.108 0 -2 0.892 -2 2 l 0 8 c 0 1.108 0.892 2 2 2 l 24 0 c 1.108 0 2 -0.892 2 -2 l 0 -8 c 0 -1.108 -0.892 -2 -2 -2 z m 0 2 16 0 0 8 -16 0 z m 18 2 6 0 -3 4 z" style="fill:#fff;opacity:1;fill-opacity:1;stroke:none"/>
 <path d="m 20.398 41 c -1.33 0 -2.398 1.069 -2.398 2.398 l 0 7.203 c 0 1.33 1.069 2.398 2.398 2.398 l 7.203 0 c 1.33 0 2.398 -1.069 2.398 -2.398 l 0 -7.203 c 0 -1.33 -1.069 -2.398 -2.398 -2.398 m -0.387 2 1.285 1.332 -6.43 6.668 -2.673 -2.668 1.285 -1.332 l 1.388 1.332 z" style="fill:#fff;opacity:1;fill-opacity:1;stroke:none"/>
 <path d="m 40 41 a 6 6 0 0 0 -6 6 6 6 0 0 0 6 6 6 6 0 0 0 6 -6 6 6 0 0 0 -6 -6 z m 0 2 a 4 4 0 0 1 4 4 4 4 0 0 1 -4 4 4 4 0 0 1 -4 -4 4 4 0 0 1 4 -4 z m 0 2 a 2 2 0 0 0 -2 2 2 2 0 0 0 2 2 2 2 0 0 0 2 -2 2 2 0 0 0 -2 -2 z" style="fill:#fff;opacity:1;fill-opacity:1;stroke:none"/>
</svg>
