<svg xmlns="http://www.w3.org/2000/svg" viewBox="0 0 64 64">
 <path d="m 10.859 0.008 c -1.375 0 -2.672 1.355 -2.672 2.789 l 0 58.42 c 0 1.355 1.375 2.789 2.672 2.789 l 42.656 0 c 1.297 0 2.672 -1.434 2.672 -2.789 l 0 -43.21 -18 -18 z m 0 0" style="fill:#0ca1a6;fill-opacity:1;stroke:none;fill-rule:nonzero"/>
 <path d="m 42 18 14 14 0 -14 z m 0 0" style="fill:#000;fill-opacity:0.196;stroke:none;fill-rule:nonzero"/>
 <path d="m 38 0 17.984 18 -15.227 0 c -1.348 0 -2.758 -1.426 -2.758 -2.773 m 0 -15.227" style="fill:#fff;fill-opacity:0.392;stroke:none;fill-rule:nonzero"/>
 <path d="m 47 34.5 c 0 -3.577 -3.218 -6.5 -7.128 -6.5 l 0 0 c -0.367 0 -0.733 0.038 -1.1 0.077 l 0 0 c -3.055 0.423 -5.091 2.5 -6.272 4.077 l 0 0 c -1.14 -1.577 -3.218 -3.692 -6.272 -4.077 l 0 0 c -0.367 -0.038 -0.733 -0.077 -1.1 -0.077 l 0 0 c -3.951 0 -7.128 2.923 -7.128 6.5 l 0 0 c 0 3.577 3.218 6.5 7.128 6.5 l 0 0 c 0.367 0 0.733 -0.038 1.1 -0.077 l 0 0 c 3.055 -0.423 5.091 -2.5 6.272 -4.077 l 0 0 c 1.14 1.615 3.177 3.692 6.272 4.077 l 0 0 c 0.367 0.038 0.733 0.077 1.1 0.077 l 0 0 c 3.91 0 7.128 -2.885 7.128 -6.5 l 0 0 z m -21.1 4.154 c -0.244 0.038 -0.489 0.038 -0.774 0.038 l 0 0 c -2.607 0 -4.684 -1.885 -4.684 -4.192 l 0 0 c 0 -2.308 2.118 -4.192 4.684 -4.192 l 0 0 c 0.244 0 0.489 0.038 0.774 0.038 l 0 0 c 2.892 0.385 4.643 3.077 5.254 4.154 l 0 0 c -0.611 1.077 -2.362 3.769 -5.254 4.154 l 0 0 z m 7.942 -4.154 c 0.611 -1.077 2.362 -3.769 5.254 -4.154 l 0 0 c 0.244 -0.038 0.489 -0.038 0.774 -0.038 l 0 0 c 2.607 0 4.684 1.885 4.684 4.192 l 0 0 c 0 2.308 -2.118 4.192 -4.684 4.192 l 0 0 c -0.244 0 -0.489 0 -0.774 -0.038 l 0 0 c -2.892 -0.385 -4.643 -3.077 -5.254 -4.154 l 0 0 z" style="fill:#fff"/>
 <path transform="matrix(0.47619048,0,0,0.29411765,-4.5714288,3.3529422)" d="m 57.48 103.52 0 0 0 4.76 11.34 0 0 0 0 -4.76 0 0 z" style="fill:#fff"/>
 <path transform="matrix(0.28571429,0,0,0.28571429,11.4,4.2571424)" d="m 88.55 103.4 0 4.9 0 0 7.35 0 0 0 0 7.35 0 0 4.9 0 0 -7.35 7.35 0 0 -4.9 -7.35 0 0 -7.35 -4.9 0 0 7.35 z" style="fill:#fff"/>
</svg>
