<svg xmlns="http://www.w3.org/2000/svg" viewBox="0 0 64 64">
 <g>
  <path d="m 10.672 0 c -1.375 0 -2.672 1.355 -2.672 2.789 l 0 58.42 c 0 1.355 1.375 2.789 2.672 2.789 l 42.656 0 c 1.297 0 2.672 -1.434 2.672 -2.789 l 0 -43.21 l -18 -18 m -27.328 0" style="fill:#98b3d0;fill-opacity:1;stroke:none;fill-rule:nonzero"/>
  <path d="m 42 18 l 14 14 l 0 -14 m -14 0" style="fill:#000;fill-opacity:0.196;stroke:none;fill-rule:nonzero"/>
  <path d="m 38 0 l 17.984 18 l -15.227 0 c -1.348 0 -2.758 -1.426 -2.758 -2.773 m 0 -15.227" style="fill:#fff;fill-opacity:0.392;stroke:none;fill-rule:nonzero"/>
 </g>
 <g transform="matrix(1.3333333,0,0,1.3333333,1.3333333,-0.6666654)">
  <path d="m 23 19 c -6.629 0 -12 3.582 -12 8 0 3.482 3.592 6.436 8.25 7.535 l 0 -2.65 c -2.417 -1.088 -4.25 -2.868 -4.25 -4.885 c 0 -3.313 4.254 -6 9.5 -6 5.246 0 9.5 2.688 9.5 6 0 2.592 -2.46 4.945 -6.106 5.783 0.293 0.483 0.586 0.965 0.877 1.434 c 3.794 -1.344 6.229 -4.153 6.229 -7.217 c 0 -4.418 -5.371 -8 -12 -8 z" style="fill:#fff;fill-opacity:1;stroke:none;fill-rule:nonzero"/>
  <path d="M 20,23.004 20,38 l 3,0 0,-5 1,0 3,5 3,0 -3,-5 -0.219,-0.344 c 1.875,-0.719 3.215,-2.523 3.215,-4.656 0,-2.758 -2.238,-4.996 -5,-4.996 m -1.996,3 1.996,0 c 1.105,0 2,0.895 2,1.996 0,1.109 -0.898,2 -2,2 L 23,30 23,26 m 0,0.004" style="fill:#fff;fill-opacity:1;stroke:none;fill-rule:nonzero"/>
 </g>
</svg>
