<svg xmlns="http://www.w3.org/2000/svg" viewBox="0 0 64 64">
 <path d="M 10.672,0 C 9.297,0 8,1.355 8,2.789 l 0,58.42 c 0,1.355 1.375,2.789 2.672,2.789 l 42.656,0 c 1.297,0 2.672,-1.434 2.672,-2.789 l 0,-43.21 -18,-18 m -27.328,0" style="fill:#ef6f29;fill-opacity:1;stroke:none;fill-rule:nonzero"/>
 <path d="m 42 18 14 14 0 -14 m -14 0" style="fill:#000;fill-opacity:0.196;stroke:none;fill-rule:nonzero"/>
 <path d="m 38,0 17.984,18 -15.227,0 c -1.348,0 -2.758,-1.426 -2.758,-2.773 M 37.999,0" style="fill:#fff;fill-opacity:0.392;stroke:none;fill-rule:nonzero"/>
 <g transform="matrix(1.1666181,0,0,1.1667867,4.0005837,10.998921)" style="fill:#fff">
  <!-- color: #eeeeee -->
  <g style="fill:#fff">
   <path d="m 15.988 14.492 c -3.766 4.04 -2.852 11.574 2.031 16.828 4.887 5.25 11.898 6.227 15.66 2.184 3.762 -4.04 2.852 -11.578 -2.035 -16.824 -4.887 -5.254 -11.898 -6.23 -15.66 -2.187 m 3.414 1.68 c 2.957 -3.18 8.22 -2.488 11.97 1.543 3.75 4.03 4.48 9.875 1.519 13.05 -2.953 3.18 -8.309 2.488 -12.05 -1.539 -3.75 -4.03 -4.391 -9.871 -1.438 -13.05" style="fill:#fff;stroke:none;fill-rule:nonzero"/>
   <path d="m 30.606,15.427 2.216,0 c 0.335,0 0.606,0.272 0.606,0.606 l 0,2.216 c 0,0.335 -0.272,0.606 -0.606,0.606 l -2.216,0 C 30.271,18.855 30,18.583 30,18.249 l 0,-2.216 c 0,-0.335 0.272,-0.606 0.606,-0.606 m 0,0" style="fill:#fff;fill-opacity:1;stroke:none;fill-rule:nonzero"/>
   <path d="m 13.216,20.574 4.425,0 c 0.674,0 1.216,0.543 1.216,1.212 l 0,4.428 c 0,0.67 -0.543,1.212 -1.216,1.212 l -4.425,0 C 12.542,27.426 12,26.883 12,26.214 l 0,-4.428 c 0,-0.67 0.543,-1.212 1.216,-1.212 m 0,0" style="fill:#fff;fill-opacity:1;stroke:none;fill-rule:nonzero"/>
   <path d="m 31.77 29.15 3.319 0 c 0.502 0 0.912 0.406 0.912 0.908 l 0 3.322 c 0 0.502 -0.409 0.908 -0.912 0.908 l -3.319 0 c -0.502 0 -0.912 -0.406 -0.912 -0.908 l 0 -3.322 c 0 -0.502 0.409 -0.908 0.912 -0.908 m 0 0" style="fill:#fff;fill-opacity:1;stroke:none;fill-rule:nonzero"/>
  </g>
 </g>
</svg>
