<svg xmlns="http://www.w3.org/2000/svg" viewBox="0 0 64 64">
 <g>
  <path d="m 10.672 0 c -1.375 0 -2.672 1.355 -2.672 2.789 l 0 58.42 c 0 1.355 1.375 2.789 2.672 2.789 l 42.656 0 c 1.297 0 2.672 -1.434 2.672 -2.789 l 0 -43.21 l -18 -18 m -27.328 0" style="fill:#c3b15f;fill-opacity:1;stroke:none;fill-rule:nonzero"/>
  <path d="m 42 18 l 14 14 l 0 -14 m -14 0" style="fill:#000;fill-opacity:0.196;stroke:none;fill-rule:nonzero"/>
  <path d="m 38 0 l 17.984 18 l -15.227 0 c -1.348 0 -2.758 -1.426 -2.758 -2.773 m 0 -15.227" style="fill:#fff;fill-opacity:0.392;stroke:none;fill-rule:nonzero"/>
 </g>
 <path d="m 29.343 21 c -9.622 0 -0.906 21.97 3.664 22.911 -0.905 -16.15 -2.884 -21.24 -2.319 -21.7 0.565 -0.459 2.949 6.58 4.269 21.705 4.27 -2.126 7.508 -22.917 -2.989 -22.917 m 2.989 22.916 c -0.778 0.23 -1.481 0.134 -1.95 -0.005 l 0.948 7.223 l 1.512 3.866 l 0 -3.157 z" style="fill:#fff;opacity:1;fill-opacity:1;stroke:none"/>
</svg>
