<svg xmlns="http://www.w3.org/2000/svg" viewBox="0 0 64 64">
 <g>
  <path d="m 10.672 0 c -1.375 0 -2.672 1.355 -2.672 2.789 l 0 58.42 c 0 1.355 1.375 2.789 2.672 2.789 l 42.656 0 c 1.297 0 2.672 -1.434 2.672 -2.789 l 0 -43.21 l -18 -18 m -27.328 0" style="fill:#dda06a;fill-opacity:1;stroke:none;fill-rule:nonzero"/>
  <path d="m 42 18 l 14 14 l 0 -14 m -14 0" style="fill:#000;fill-opacity:0.196;stroke:none;fill-rule:nonzero"/>
  <path d="m 38 0 l 17.984 18 l -15.227 0 c -1.348 0 -2.758 -1.426 -2.758 -2.773 m 0 -15.227" style="fill:#fff;fill-opacity:0.392;stroke:none;fill-rule:nonzero"/>
 </g>
 <path d="m 8 48 0 13.336 c 0 1.297 1.375 2.664 2.664 2.664 l 42.672 0 c 1.289 0 2.664 -1.367 2.664 -2.664 l 0 -13.336" style="fill:#000;fill-opacity:0.196"/>
 <path d="m 25.586 49.9 c -1.223 -0.009 -2.396 0.14 -3.586 0.279 l 0 11.821 l 2.345 0 0 -3.932 1.169 0 c 1.692 0 2.989 -0.407 3.901 -1.035 c 0.929 -0.637 1.385 -1.68 1.385 -3.101 c 0 -1.411 -0.459 -2.462 -1.37 -3.082 -0.912 -0.628 -2.187 -0.938 -3.844 -0.95 z m 0.291 2.188 c 0.693 -0.005 1.235 0.143 1.647 0.435 0.421 0.282 0.63 0.702 0.63 1.394 0 0.728 -0.209 1.17 -0.63 1.479 -0.421 0.291 -1.059 0.39 -1.881 0.449 l -1.298 0 0 -3.729 c 0.455 -0.024 1.161 -0.025 1.532 -0.028 z" style="fill:#fff;fill-opacity:1"/>
 <path d="m 24 19 0 25 2 0 0 -12 16 0 l -6.5 -5.5 6.5 -5.5 -16 0 0 -2" style="fill:#fff;opacity:1;fill-opacity:1;stroke:none"/>
 <path d="m 36.997 49.986 c -1.568 0 -2.796 0.499 -3.683 1.519 c -0.878 1 -1.314 2.499 -1.314 4.477 c 0 1.987 0.424 3.48 1.273 4.5 0.868 1 2.116 1.505 3.749 1.505 1.578 0 2.81 -0.503 3.678 -1.505 c 0.859 -1.02 1.299 -2.513 1.299 -4.5 c 0 -1.978 -0.429 -3.474 -1.279 -4.477 -0.85 -1.02 -2.09 -1.519 -3.724 -1.519 z m 0 1.988 c 0.476 0 1.016 0.103 1.305 0.314 0.28 0.211 0.495 0.493 0.644 0.853 0.168 0.36 0.268 0.783 0.315 1.284 0.056 0.484 0.091 1 0.091 1.556 0 0.563 -0.035 1.082 -0.091 1.566 -0.047 0.484 -0.146 0.906 -0.315 1.284 -0.149 0.36 -0.381 0.642 -0.68 0.853 -0.28 0.211 -0.803 0.314 -1.27 0.314 -0.476 0 -1.021 -0.103 -1.301 -0.314 -0.289 -0.211 -0.511 -0.493 -0.67 -0.853 -0.149 -0.36 -0.259 -0.782 -0.315 -1.266 -0.047 -0.492 -0.066 -1.022 -0.066 -1.584 0 -0.554 0.019 -1.073 0.066 -1.556 0.056 -0.484 0.165 -0.905 0.315 -1.266 0.159 -0.369 0.38 -0.661 0.67 -0.872 0.28 -0.211 0.825 -0.314 1.301 -0.314 z" style="fill:#fff;fill-opacity:1"/>
</svg>
