<svg xmlns="http://www.w3.org/2000/svg" viewBox="0 0 64 64">
 <g>
  <path d="m 10.672 0 c -1.375 0 -2.672 1.355 -2.672 2.789 l 0 58.42 c 0 1.355 1.375 2.789 2.672 2.789 l 42.656 0 c 1.297 0 2.672 -1.434 2.672 -2.789 l 0 -43.21 l -18 -18 m -27.328 0" style="fill:#dcdcdc;fill-opacity:1;stroke:none;fill-rule:nonzero"/>
  <path d="m 42 18 l 14 14 l 0 -14 m -14 0" style="fill:#000;fill-opacity:0.196;stroke:none;fill-rule:nonzero"/>
  <path d="m 38 0 l 17.984 18 l -15.227 0 c -1.348 0 -2.758 -1.426 -2.758 -2.773 m 0 -15.227" style="fill:#fff;fill-opacity:0.392;stroke:none;fill-rule:nonzero"/>
  <g transform="matrix(2.182419,0,0,2.1797494,-0.92223015,-3.8581025)" style="fill:#888">
   <path d="m 21.5 18.508 q 0 1.131 -0.361 2.074 -0.361 0.935 -1.021 1.469 -0.66 0.534 -1.532 0.534 -0.581 0 -1.029 -0.275 -0.448 -0.283 -0.644 -0.739 l -0.126 0 q -0.849 1.014 -2.161 1.014 -1.391 0 -2.192 -0.833 -0.801 -0.841 -0.801 -2.294 0 -1.658 1.053 -2.671 1.053 -1.013 2.75 -1.013 0.676 0 1.485 0.134 0.817 0.126 1.343 0.306 l -0.181 3.842 q 0 1.092 0.597 1.092 0.503 0 0.801 -0.731 0.299 -0.739 0.299 -1.925 0 -1.265 -0.526 -2.231 -0.526 -0.974 -1.485 -1.485 -0.951 -0.511 -2.176 -0.511 -1.587 0 -2.758 0.652 -1.171 0.652 -1.799 1.886 -0.621 1.226 -0.621 2.836 0 2.168 1.155 3.331 1.163 1.155 3.363 1.155 0.833 0 1.831 -0.181 0.998 -0.189 1.964 -0.542 l 0 1.508 q -1.681 0.715 -3.732 0.715 -2.986 0 -4.659 -1.571 -1.666 -1.571 -1.666 -4.368 0 -1.941 0.849 -3.52 0.856 -1.587 2.428 -2.483 1.579 -0.904 3.63 -0.904 1.728 0 3.088 0.707 1.359 0.707 2.098 2.01 0.739 1.304 0.739 3.01 z m -8.05 0.982 q 0 1.658 1.351 1.658 0.707 0 1.076 -0.495 0.369 -0.503 0.448 -1.626 l 0.102 -1.736 q -0.401 -0.086 -0.904 -0.086 -0.982 0 -1.532 0.613 -0.542 0.613 -0.542 1.673 z"/>
  </g>
 </g>
</svg>
