<svg xmlns="http://www.w3.org/2000/svg" viewBox="0 0 64 64">
 <g>
  <path d="m 10.672 0 c -1.375 0 -2.672 1.355 -2.672 2.789 l 0 58.42 c 0 1.355 1.375 2.789 2.672 2.789 l 42.656 0 c 1.297 0 2.672 -1.434 2.672 -2.789 l 0 -43.21 l -18 -18 m -27.328 0" style="fill:#70c9dc;fill-opacity:1;stroke:none;fill-rule:nonzero"/>
  <path d="m 42 18 l 14 14 l 0 -14 m -14 0" style="fill:#000;fill-opacity:0.196;stroke:none;fill-rule:nonzero"/>
  <path d="m 38 0 l 17.984 18 l -15.227 0 c -1.348 0 -2.758 -1.426 -2.758 -2.773 m 0 -15.227" style="fill:#fff;fill-opacity:0.392;stroke:none;fill-rule:nonzero"/>
 </g>
 <path d="m 24 24 c -3.314 0 -6 2.686 -6 6 0 3.314 2.686 6 6 6 3.314 0 6 -2.686 6 -6 0 -3.314 -2.686 -6 -6 -6 z m -2 4 c 1.105 0 2 0.895 2 2 0 1.105 -0.895 2 -2 2 -1.105 0 -2 -0.895 -2 -2 0 -1.105 0.895 -2 2 -2 z" style="fill:#fff;opacity:1;fill-opacity:1;stroke:none"/>
 <path d="m 40 24 c -3.314 0 -6 2.686 -6 6 0 3.314 2.686 6 6 6 3.314 0 6 -2.686 6 -6 0 -3.314 -2.686 -6 -6 -6 z m -2 4 c 1.105 0 2 0.895 2 2 0 1.105 -0.895 2 -2 2 -1.105 0 -2 -0.895 -2 -2 0 -1.105 0.895 -2 2 -2 z" style="fill:#fff;opacity:1;fill-opacity:1;stroke:none"/>
 <rect width="3" height="7" x="29" y="41" rx="1.5" style="fill:#fff;opacity:1;fill-opacity:1;stroke:none"/>
 <rect y="41" x="32" height="7" width="3" rx="1.5" style="fill:#fff;opacity:1;fill-opacity:1;stroke:none"/>
 <path d="M 32 36 A 3 2 0 0 0 29 38 L 35 38 A 3 2 0 0 0 32 36 z M 35 38 A 3 2 0 0 1 32 40 A 3 2 0 0 1 29 38 L 28.5 38 C 27.11 38 26 39.12 26 40.5 C 26 41.885 27.11 43 28.5 43 L 35.5 43 C 36.885 43 38 41.885 38 40.5 C 38 39.12 36.885 38 35.5 38 L 35 38 z" style="fill:#fff;opacity:1;fill-opacity:1;stroke:none"/>
</svg>
