<?xml version="1.0" encoding="UTF-8" standalone="no"?>
<svg
   xmlns:dc="http://purl.org/dc/elements/1.1/"
   xmlns:cc="http://creativecommons.org/ns#"
   xmlns:rdf="http://www.w3.org/1999/02/22-rdf-syntax-ns#"
   xmlns:svg="http://www.w3.org/2000/svg"
   xmlns="http://www.w3.org/2000/svg"
   xmlns:sodipodi="http://sodipodi.sourceforge.net/DTD/sodipodi-0.dtd"
   xmlns:inkscape="http://www.inkscape.org/namespaces/inkscape"
   viewBox="0 0 64 64"
   id="svg2"
   version="1.1"
   inkscape:version="0.91 r13725"
   sodipodi:docname="text-x-nim.svg">
  <metadata
     id="metadata18">
    <rdf:RDF>
      <cc:Work
         rdf:about="">
        <dc:format>image/svg+xml</dc:format>
        <dc:type
           rdf:resource="http://purl.org/dc/dcmitype/StillImage" />
        <dc:title />
      </cc:Work>
    </rdf:RDF>
  </metadata>
  <defs
     id="defs16" />
  <sodipodi:namedview
     pagecolor="#ffffff"
     bordercolor="#666666"
     borderopacity="1"
     objecttolerance="10"
     gridtolerance="10"
     guidetolerance="10"
     inkscape:pageopacity="0"
     inkscape:pageshadow="2"
     inkscape:window-width="1600"
     inkscape:window-height="880"
     id="namedview14"
     showgrid="false"
     inkscape:zoom="10.375"
     inkscape:cx="32"
     inkscape:cy="32"
     inkscape:window-x="0"
     inkscape:window-y="20"
     inkscape:window-maximized="1"
     inkscape:current-layer="g4"
     showguides="false" />
  <g
     id="g4">
    <path
       d="m 10.672 0 c -1.375 0 -2.672 1.355 -2.672 2.789 l 0 58.42 c 0 1.355 1.375 2.789 2.672 2.789 l 42.656 0 c 1.297 0 2.672 -1.434 2.672 -2.789 l 0 -43.21 l -18 -18 m -27.328 0"
       style="fill:#efc743;fill-opacity:1;stroke:none;fill-rule:nonzero"
       id="path6" />
    <path
       d="m 42 18 l 14 14 l 0 -14 m -14 0"
       style="fill:#000;fill-opacity:0.196;stroke:none;fill-rule:nonzero"
       id="path8" />
    <path
       d="m 38 0 l 17.984 18 l -15.227 0 c -1.348 0 -2.758 -1.426 -2.758 -2.773 m 0 -15.227"
       style="fill:#fff;fill-opacity:0.392;stroke:none;fill-rule:nonzero"
       id="path10" />
    <path
       style="fill:#ffffff;fill-opacity:1"
       d="m 31.048759,47.979759 c -2.260588,-0.194545 -4.505457,-0.834735 -6.445679,-1.838161 -1.760752,-0.910605 -3.105285,-2.044082 -3.964626,-3.342305 -1.472198,-3.149347 -1.718338,-4.369262 -3.175774,-8.456864 -0.04603,-0.114683 -1.307847,-5.334616 -1.294876,-5.356838 0.751251,0.302344 1.319614,0.542823 2.124861,0.878193 l 0.37959,-0.369875 c 0.532519,-0.518892 1.083854,-0.920307 1.875129,-1.365239 l 0.241419,-0.135752 c 0.46263,-0.970932 0.947041,-1.963418 1.445147,-2.899917 0.832468,0.62535 1.476628,1.133141 2.34744,1.80904 0.02013,0.01538 0.269182,-0.03109 0.680595,-0.126929 1.730354,-0.40318 2.651646,-0.539213 3.810782,-0.562691 l 0.626314,-0.01266 c 0.764175,-0.734835 1.52985,-1.468357 2.297183,-2.199758 0.812364,0.771672 1.426839,1.364347 2.297183,2.199758 l 0.626303,0.01266 c 1.149739,0.0233 2.064844,0.15657 3.72237,0.542154 0.352313,0.08199 0.664582,0.153754 0.69394,0.159556 0.90568,-0.616651 1.454085,-1.082866 2.439617,-1.833196 0.519912,1.016949 0.891645,1.804091 1.427223,2.910287 l 0.175105,0.09725 c 0.800875,0.444683 1.411718,0.88672 1.942902,1.405985 l 0.379896,0.371369 c 0.754377,-0.314534 1.473395,-0.613376 2.131492,-0.886826 -0.465287,1.907531 -0.906736,3.812444 -1.293926,5.336807 -1.001146,2.771918 -1.736091,5.024272 -2.84395,7.923103 -1.021126,1.894466 -3.052768,3.49823 -5.808024,4.584833 -1.403937,0.553666 -2.873014,0.920748 -4.422157,1.104979 -0.544426,0.0648 -1.919199,0.09386 -2.415462,0.05112 z m 0.948263,-11.08397 c 2.149491,1.189637 3.82526,2.149563 6.101803,3.424012 1.218191,-0.282629 1.850387,-0.506328 3.327705,-0.946996 0.831883,-1.045644 1.672932,-2.109981 2.336964,-3.241556 -0.08787,-0.258801 -0.369711,-0.805648 -0.564187,-1.094881 -1.114886,-1.658056 -3.312575,-3.085053 -6.004762,-3.898991 -2.644352,-0.799473 -5.654168,-0.963506 -8.494557,-0.462935 -3.708449,0.653545 -6.81949,2.443282 -8.092529,4.655524 -0.157825,0.274261 -0.342633,0.668755 -0.394597,0.842311 0.654164,1.176802 1.51431,2.113313 2.351654,3.198707 1.098081,0.331755 2.201899,0.658707 3.306287,0.960543 2.144974,-1.197875 3.941111,-2.223145 6.126219,-3.435738 z"
       id="path4849"
       inkscape:connector-curvature="0"
       sodipodi:nodetypes="csccccssccccccccccccccsccccsccccccccssscccc" />
  </g>
</svg>
