<svg xmlns="http://www.w3.org/2000/svg" viewBox="0 0 64 64">
 <path d="m 10.672 0 c -1.375 0 -2.672 1.355 -2.672 2.789 l 0 58.42 c 0 1.355 1.375 2.789 2.672 2.789 l 42.656 0 c 1.297 0 2.672 -1.434 2.672 -2.789 l 0 -43.21 -18 -18 m -27.328 0" style="fill:#dcdcdc;fill-opacity:1;stroke:none;fill-rule:nonzero"/>
 <path d="m 42 18 14 14 0 -14 z m 0 0" style="fill:#000;fill-opacity:0.196;stroke:none;fill-rule:nonzero"/>
 <path d="m 38 0 17.984 18 -15.227 0 c -1.348 0 -2.758 -1.426 -2.758 -2.773 m 0 -15.227" style="fill:#fff;fill-opacity:0.392;stroke:none;fill-rule:nonzero"/>
 <path d="m 29.25 42.38 0 -0.953 c 0 -1.375 0.242 -2.508 0.727 -3.391 0.477 -0.891 1.375 -1.828 2.688 -2.82 1.813 -1.352 2.961 -2.367 3.43 -3.047 0.477 -0.688 0.719 -1.508 0.719 -2.469 0 -1.203 -0.445 -2.125 -1.32 -2.773 -0.875 -0.656 -2.125 -0.984 -3.773 -0.984 -1.055 0 -2.086 0.109 -3.086 0.336 -1 0.211 -2.156 0.602 -3.453 1.18 l -1.18 -2.383 c 2.523 -1.164 5.164 -1.742 7.922 -1.742 2.555 0 4.539 0.547 5.953 1.656 1.414 1.102 2.125 2.664 2.125 4.672 0 0.859 -0.133 1.617 -0.398 2.273 -0.258 0.648 -0.641 1.266 -1.148 1.852 -0.508 0.578 -1.602 1.516 -3.281 2.805 -1.352 1.016 -2.25 1.852 -2.688 2.523 -0.43 0.672 -0.648 1.563 -0.648 2.68 l 0 0.586 -2.586 0 m -0.977 5.234 c 0 -1.594 0.797 -2.398 2.406 -2.398 0.773 0 1.367 0.211 1.781 0.617 0.43 0.414 0.641 1.01 0.641 1.781 0 0.758 -0.211 1.344 -0.641 1.766 c -0.43 0.414 -1.023 0.617 -1.781 0.617 -0.695 0 -1.273 -0.18 -1.727 -0.547 -0.453 -0.375 -0.68 -0.984 -0.68 -1.836" style="fill:#888;fill-opacity:1;stroke:none;fill-rule:nonzero"/>
</svg>
