<svg xmlns="http://www.w3.org/2000/svg" viewBox="0 0 64 64">
 <defs>
  
 </defs>
 <path d="m 10.672 0 c -1.375 0 -2.672 1.355 -2.672 2.789 l 0 58.42 c 0 1.355 1.375 2.789 2.672 2.789 l 42.656 0 c 1.297 0 2.672 -1.434 2.672 -2.789 l 0 -43.21 -18 -18 m -27.328 0" style="fill:#f05617;fill-opacity:1;stroke:none;fill-rule:nonzero"/>
 <path d="m 42 18 14 14 0 -14 z m 0 0" style="fill:#000;fill-opacity:0.196;stroke:none;fill-rule:nonzero"/>
 <path d="m 38 0 17.984 18 -15.227 0 c -1.348 0 -2.758 -1.426 -2.758 -2.773 m 0 -15.227" style="fill:#fff;fill-opacity:0.392;stroke:none;fill-rule:nonzero"/>
 <path d="m 8 48 0 13.336 c 0 1.297 1.375 2.664 2.664 2.664 l 42.672 0 c 1.289 0 2.664 -1.367 2.664 -2.664 l 0 -13.336 m -48 0" style="fill:#000;fill-opacity:0.196;stroke:none;fill-rule:nonzero"/>
 <g transform="translate(-1e-6,0)">
  <path d="m 18.914 62 q -0.404 -1.226 -0.859 -2.772 -0.455 -1.546 -0.859 -3.074 -0.404 -1.546 -0.724 -2.914 -0.32 -1.368 -0.472 -2.239 l 2.189 0 q 0.101 0.853 0.303 1.99 0.202 1.12 0.438 2.328 0.253 1.191 0.522 2.363 0.286 1.155 0.556 2.079 0.269 -0.906 0.539 -2.061 0.269 -1.173 0.505 -2.363 0.236 -1.208 0.438 -2.346 q 0.202 -1.137 0.337 -1.99 l 2.173 0 q -0.202 1.066 -0.505 2.381 -0.286 1.315 -0.674 2.772 -0.371 1.439 -0.825 2.95 q -0.455 1.493 -0.943 2.897 l -2.139 0 z" style="fill:#fff;fill-opacity:1;stroke:none"/>
  <path d="m 27.432 51 q 0.123 0.373 0.3 0.96 0.194 0.586 0.405 1.262 0.211 0.675 0.423 1.368 0.211 0.693 0.405 1.279 0.211 -0.658 0.441 -1.351 0.229 -0.711 0.441 -1.351 q 0.211 -0.658 0.388 -1.226 0.176 -0.569 0.317 -0.942 l 1.797 0 q 0.123 1.439 0.229 2.808 0.123 1.368 0.194 2.719 0.088 1.333 0.141 2.701 q 0.053 1.351 0.088 2.772 l -1.991 0 0.106 -8.548 -1.339 4.656 -1.586 0 l -1.286 -4.656 0.088 8.548 -1.991 0 q 0.053 -1.351 0.106 -2.808 0.07 -1.457 0.141 -2.897 0.07 -1.439 0.159 -2.79 q 0.106 -1.351 0.229 -2.506 l 1.797 0 z" style="fill:#fff;fill-opacity:1;stroke:none"/>
  <path d="m 36.05 60.13 q 0.084 0.017 0.184 0.017 0.1 0 0.184 0 0.702 0 1.169 -0.278 0.484 -0.278 0.768 -0.763 0.301 -0.486 0.418 -1.145 0.134 -0.677 0.134 -1.475 0 -0.694 -0.1 -1.353 -0.1 -0.659 -0.351 -1.162 -0.251 -0.503 -0.685 -0.798 -0.434 -0.312 -1.119 -0.312 -0.134 0 -0.301 0.017 -0.167 0 -0.301 0.035 l 0 7.218 z m 4.945 -3.644 q 0 1.492 -0.368 2.55 -0.351 1.041 -0.986 1.7 -0.635 0.659 -1.52 0.972 q -0.869 0.295 -1.921 0.295 -0.551 0 -1.086 -0.069 -0.518 -0.052 -1.119 -0.191 l 0 -10.479 q 0.702 -0.156 1.32 -0.208 0.618 -0.052 1.153 -0.052 q 1.019 0 1.854 0.312 0.852 0.312 1.437 0.989 0.585 0.659 0.902 1.7 q 0.334 1.024 0.334 2.481" style="fill:#fff;fill-opacity:1;stroke:none"/>
  <path d="m 46.809 62 q -0.173 -0.622 -0.505 -1.333 -0.315 -0.729 -0.709 -1.404 -0.394 -0.693 -0.836 -1.279 -0.426 -0.604 -0.82 -1.013 l 0 5.03 -1.939 0 l 0 -11 1.939 0 0 4.567 q 0.347 -0.498 0.725 -1.102 0.378 -0.604 0.709 -1.208 0.347 -0.604 0.631 -1.191 q 0.284 -0.586 0.473 -1.066 l 2.191 0 q -0.221 0.48 -0.536 1.102 -0.3 0.604 -0.694 1.279 -0.394 0.658 -0.851 1.351 -0.441 0.693 -0.93 1.333 0.489 0.533 0.993 1.226 0.505 0.693 0.946 1.493 0.457 0.782 0.82 1.617 q 0.363 0.817 0.583 1.599 l -2.191 0 z" style="fill:#fff;fill-opacity:1;stroke:none"/>
 </g>
 <path d="m 31.921 18.821 c -1.532 5.855 -3.123 11.697 -4.683 17.541 -2.437 -6.734 -0.036 -0.032 -2.436 -6.733 l -4.802 0 0 2.401 3.601 0 3.601 10.774 0.457 0.012 c 1.224 -5.667 2.879 -11.239 4.379 -16.833 l 0 -0.022 c 0.928 3.376 1.838 6.758 2.738 10.138 0.844 -3.18 1.7 -6.36 2.548 -9.539 1.876 4.283 -0.036 -0.019 1.877 4.283 l 4.799 0 -0.002 -2.413 -3.601 0 c -3.071 -9.147 0 0 -3.076 -9.353 -0.848 3.157 -1.702 6.312 -2.55 9.464 -0.858 -3.245 -1.734 -6.49 -2.626 -9.726 l 0.002 0.003 z" style="fill:#fff;fill-opacity:1;stroke:none;fill-rule:nonzero"/>
</svg>
