<svg xmlns="http://www.w3.org/2000/svg" viewBox="0 0 64 64">
 <defs>
  
 </defs>
 <path d="m 10.672 0 c -1.375 0 -2.672 1.355 -2.672 2.789 l 0 58.42 c 0 1.355 1.375 2.789 2.672 2.789 l 42.656 0 c 1.297 0 2.672 -1.434 2.672 -2.789 l 0 -43.21 -18 -18 m -27.328 0" style="fill:#14aae9;fill-opacity:1;stroke:none;fill-rule:nonzero"/>
 <path d="m 42 18 14 14 0 -14 z m 0 0" style="fill:#000;fill-opacity:0.196;stroke:none;fill-rule:nonzero"/>
 <path d="m 38 0 17.984 18 -15.227 0 c -1.348 0 -2.758 -1.426 -2.758 -2.773 m 0 -15.227" style="fill:#fff;fill-opacity:0.392;stroke:none;fill-rule:nonzero"/>
 <path d="m 8 48 0 13.336 c 0 1.297 1.375 2.664 2.664 2.664 l 42.672 0 c 1.289 0 2.664 -1.367 2.664 -2.664 l 0 -13.336 z m 0 0" style="fill:#000;fill-opacity:0.196;stroke:none;fill-rule:nonzero"/>
 <g>
  <path d="m 18.914 62 q -0.404 -1.226 -0.859 -2.772 -0.455 -1.546 -0.859 -3.074 -0.404 -1.546 -0.724 -2.914 -0.32 -1.368 -0.472 -2.239 l 2.189 0 q 0.101 0.853 0.303 1.99 0.202 1.12 0.438 2.328 0.253 1.191 0.522 2.363 0.286 1.155 0.556 2.079 0.269 -0.906 0.539 -2.061 0.269 -1.173 0.505 -2.363 0.236 -1.208 0.438 -2.346 q 0.202 -1.137 0.337 -1.99 l 2.173 0 q -0.202 1.066 -0.505 2.381 -0.286 1.315 -0.674 2.772 -0.371 1.439 -0.825 2.95 q -0.455 1.493 -0.943 2.897 l -2.139 0 z" style="fill:#fff;fill-opacity:1;stroke:none"/>
  <path d="m 32 58.62 q 0 0.972 -0.32 1.631 -0.32 0.642 -0.877 1.041 -0.54 0.382 -1.299 0.555 q -0.742 0.156 -1.602 0.156 -0.692 0 -1.434 -0.087 -0.742 -0.069 -1.467 -0.226 l 0 -10.427 q 0.59 -0.104 1.299 -0.174 q 0.708 -0.087 1.4 -0.087 q 1.181 0 1.923 0.26 0.742 0.243 1.164 0.659 0.422 0.399 0.573 0.902 0.152 0.503 0.152 1.01 0 0.763 -0.371 1.353 -0.354 0.59 -0.961 0.937 1.063 0.399 1.434 1.076 q 0.388 0.677 0.388 1.423 m -4.925 -1.457 0 2.915 q 0.219 0.035 0.472 0.052 0.27 0.017 0.523 0.017 0.354 0 0.692 -0.052 0.337 -0.069 0.59 -0.226 0.27 -0.173 0.439 -0.468 0.169 -0.312 0.169 -0.781 0 -0.781 -0.489 -1.11 -0.472 -0.347 -1.282 -0.347 l -1.113 0 z m 0.81 -1.77 q 0.793 0 1.198 -0.347 0.405 -0.364 0.405 -0.989 0 -0.382 -0.118 -0.607 -0.118 -0.243 -0.32 -0.364 -0.202 -0.139 -0.472 -0.174 -0.27 -0.052 -0.557 -0.052 -0.236 0 -0.489 0.017 -0.253 0.017 -0.455 0.052 l 0 2.464 0.81 0 z" style="fill:#fff;fill-opacity:1;stroke:none"/>
  <path d="m 34.962 56.5 q 0 0.766 0.047 1.447 0.063 0.664 0.22 1.158 0.173 0.494 0.471 0.783 0.298 0.289 0.8 0.289 0.487 0 0.785 -0.289 0.314 -0.289 0.471 -0.783 0.173 -0.511 0.22 -1.175 0.063 -0.664 0.063 -1.43 0 -0.766 -0.063 -1.43 -0.047 -0.681 -0.22 -1.175 -0.157 -0.494 -0.455 -0.783 -0.298 -0.289 -0.8 -0.289 -0.502 0 -0.8 0.289 -0.298 0.289 -0.471 0.8 -0.157 0.494 -0.22 1.158 -0.047 0.664 -0.047 1.43 z m -1.962 0 q 0 -2.724 0.926 -4.104 0.926 -1.396 2.574 -1.396 1.711 0 2.605 1.396 0.895 1.379 0.895 4.104 0 2.724 -0.91 4.121 -0.91 1.379 -2.574 1.379 -1.711 0 -2.621 -1.379 -0.895 -1.396 -0.895 -4.121" style="fill:#fff;fill-opacity:1;stroke:none"/>
  <path d="m 46.05 62 q -0.278 -0.906 -0.688 -2.01 -0.395 -1.102 -0.835 -2.204 -0.425 1.048 -0.849 2.186 -0.425 1.12 -0.732 2.026 l -1.948 0 q 0.146 -0.48 0.425 -1.155 0.293 -0.675 0.63 -1.457 0.351 -0.782 0.732 -1.599 0.381 -0.835 0.732 -1.599 l -2.372 -5.189 l 1.948 0 1.435 3.519 l 1.508 -3.519 l 1.816 0 -2.314 5.136 q 0.395 0.764 0.776 1.599 0.381 0.835 0.703 1.635 0.337 0.782 0.586 1.475 q 0.249 0.675 0.395 1.155 l -1.948 0 z" style="fill:#fff;fill-opacity:1;stroke:none"/>
 </g>
 <path d="m 31.921 18.821 c -1.532 5.855 -3.123 11.697 -4.683 17.541 -2.437 -6.734 -0.036 -0.032 -2.436 -6.733 l -4.802 0 0 2.401 3.601 0 3.601 10.774 0.457 0.012 c 1.224 -5.667 2.879 -11.239 4.379 -16.833 l 0 -0.022 c 0.928 3.376 1.838 6.758 2.738 10.138 0.844 -3.18 1.7 -6.36 2.548 -9.539 1.876 4.283 -0.036 -0.019 1.877 4.283 l 4.799 0 -0.002 -2.413 -3.601 0 c -3.071 -9.147 0 0 -3.076 -9.353 -0.848 3.157 -1.702 6.312 -2.55 9.464 -0.858 -3.245 -1.734 -6.49 -2.626 -9.726 l 0.002 0.003 z" style="fill:#fff;fill-opacity:1;stroke:none;fill-rule:nonzero"/>
</svg>
