<svg xmlns="http://www.w3.org/2000/svg" viewBox="0 0 64 64">
 <g>
  <path d="m 10.672 0 c -1.375 0 -2.672 1.355 -2.672 2.789 l 0 58.42 c 0 1.355 1.375 2.789 2.672 2.789 l 42.656 0 c 1.297 0 2.672 -1.434 2.672 -2.789 l 0 -43.21 l -18 -18 m -27.328 0" style="fill:#d04526;fill-opacity:1;stroke:none;fill-rule:nonzero"/>
  <path d="m 42 18 l 14 14 l 0 -14 m -14 0" style="fill:#000;fill-opacity:0.196;stroke:none;fill-rule:nonzero"/>
  <path d="m 38 0 l 17.984 18 l -15.227 0 c -1.348 0 -2.758 -1.426 -2.758 -2.773 m 0 -15.227" style="fill:#fff;fill-opacity:0.392;stroke:none;fill-rule:nonzero"/>
  <path d="m 8 48 l 0 13.336 c 0 1.297 1.375 2.664 2.664 2.664 l 42.672 0 c 1.289 0 2.664 -1.367 2.664 -2.664 l 0 -13.336 m -48 0" style="fill:#000;fill-opacity:0.196;stroke:none;fill-rule:nonzero"/>
  <path d="m 16 24 l 10 0 l 0 6 l -10 0 m 0 -6" style="fill:#fff;fill-opacity:1;stroke:none;fill-rule:nonzero"/>
  <path d="m 21.355 50.805 c 1.551 0 2.746 0.289 3.598 0.879 c 0.855 0.566 1.281 1.508 1.281 2.82 c 0 1.328 -0.426 2.289 -1.297 2.879 c -0.852 0.59 -2.066 0.879 -3.648 0.879 l -0.863 0 l 0 3.738 l -2.426 0 l 0 -10.934 c 0.238 -0.039 0.5 -0.09 0.789 -0.121 c 0.301 -0.035 0.605 -0.059 0.91 -0.074 c 0.301 -0.023 0.598 -0.043 0.883 -0.051 c 0.289 -0.016 0.543 -0.016 0.773 -0.016 m 0.27 1.91 c -0.141 0 -0.344 0.008 -0.605 0.016 c -0.254 0 -0.453 0.02 -0.594 0.043 l 0 3.574 l 0.984 0 c 0.773 0 1.363 -0.137 1.758 -0.41 c 0.395 -0.285 0.59 -0.77 0.59 -1.449 c 0 -0.648 -0.195 -1.102 -0.59 -1.363 c -0.387 -0.27 -0.895 -0.41 -1.543 -0.41" style="fill:#fff;fill-opacity:1;stroke:none;fill-rule:nonzero"/>
  <path d="m 31.2 50.805 c 1.551 0 2.75 0.289 3.602 0.879 c 0.852 0.566 1.281 1.508 1.281 2.82 c 0 1.328 -0.43 2.289 -1.297 2.879 c -0.852 0.59 -2.066 0.879 -3.641 0.879 l -0.871 0 l 0 3.738 l -2.426 0 l 0 -10.934 c 0.234 -0.039 0.5 -0.09 0.785 -0.121 c 0.305 -0.035 0.609 -0.059 0.91 -0.074 c 0.305 -0.023 0.598 -0.043 0.887 -0.051 c 0.285 -0.016 0.551 -0.016 0.77 -0.016 m 0.273 1.91 c -0.141 0 -0.348 0.008 -0.609 0.016 c -0.254 0 -0.449 0.02 -0.59 0.043 l 0 3.574 l 0.984 0 c 0.77 0 1.363 -0.137 1.754 -0.41 c 0.395 -0.285 0.594 -0.77 0.594 -1.449 c 0 -0.648 -0.199 -1.102 -0.594 -1.363 c -0.383 -0.27 -0.895 -0.41 -1.539 -0.41" style="fill:#fff;fill-opacity:1;stroke:none;fill-rule:nonzero"/>
  <path d="m 46 50.93 l 0 1.82 l -3.215 0 l 0 9.25 l -2.445 0 l 0 -9.25 l -3.207 0 l 0 -1.82 l 8.867 0" style="fill:#fff;fill-opacity:1;stroke:none;fill-rule:nonzero"/>
  <path d="m 16 34 l 10 0 l 0 6 l -10 0 m 0 -6" style="fill:#fff;fill-opacity:1;stroke:none;fill-rule:nonzero"/>
  <path d="m 40 21.984 l 0 8.02 l 8 0 c 0 -4.43 -3.582 -8.02 -8 -8.02 m 0 0" style="fill:#fff;fill-opacity:1;stroke:none;fill-rule:nonzero"/>
  <path d="m 38 24 c -4.418 0 -8 3.578 -8 8 c 0 4.422 3.586 8 8 8 c 4.418 0 7.996 -3.578 7.996 -8 l -7.996 0 m 0 -8" style="fill:#fff;fill-opacity:1;stroke:none;fill-rule:nonzero"/>
 </g>
</svg>
