<svg xmlns="http://www.w3.org/2000/svg" viewBox="0 0 64 64">
 <g>
  <path d="m 10.672 0 c -1.375 0 -2.672 1.355 -2.672 2.789 l 0 58.42 c 0 1.355 1.375 2.789 2.672 2.789 l 42.656 0 c 1.297 0 2.672 -1.434 2.672 -2.789 l 0 -43.21 l -18 -18 m -27.328 0" style="fill:#d04526;fill-opacity:1;stroke:none;fill-rule:nonzero"/>
  <path d="m 42 18 l 14 14 l 0 -14 m -14 0" style="fill:#000;fill-opacity:0.196;stroke:none;fill-rule:nonzero"/>
  <path d="m 38 0 l 17.984 18 l -15.227 0 c -1.348 0 -2.758 -1.426 -2.758 -2.773 m 0 -15.227" style="fill:#fff;fill-opacity:0.392;stroke:none;fill-rule:nonzero"/>
  <path d="m 8 48 l 0 13.336 c 0 1.297 1.375 2.664 2.664 2.664 l 42.672 0 c 1.289 0 2.664 -1.367 2.664 -2.664 l 0 -13.336 m -48 0" style="fill:#000;fill-opacity:0.196;stroke:none;fill-rule:nonzero"/>
  <path d="m 16 24 l 10 0 l 0 6 l -10 0 m 0 -6" style="fill:#fff;fill-opacity:1;stroke:none;fill-rule:nonzero"/>
  <path d="m 20.453 60.26 c 0.063 0.02 0.137 0.02 0.219 0.02 c 0.074 0 0.148 0 0.215 0 c 0.559 0 1.023 -0.094 1.395 -0.281 c 0.383 -0.18 0.688 -0.434 0.918 -0.762 c 0.238 -0.32 0.402 -0.695 0.5 -1.141 c 0.105 -0.449 0.156 -0.941 0.156 -1.477 c 0 -0.457 -0.043 -0.91 -0.117 -1.352 c -0.082 -0.434 -0.219 -0.82 -0.418 -1.156 c -0.203 -0.336 -0.473 -0.598 -0.82 -0.797 c -0.344 -0.211 -0.785 -0.309 -1.336 -0.309 c -0.105 0 -0.219 0 -0.352 0.016 c -0.141 0 -0.254 0.008 -0.359 0.031 l 0 7.207 m 5.895 -3.641 c 0 0.992 -0.148 1.848 -0.445 2.551 c -0.277 0.699 -0.672 1.262 -1.172 1.699 c -0.508 0.441 -1.105 0.762 -1.813 0.965 c -0.688 0.199 -1.449 0.297 -2.285 0.297 c -0.445 0 -0.871 -0.016 -1.297 -0.066 c -0.41 -0.031 -0.852 -0.098 -1.336 -0.188 l 0 -10.473 c 0.559 -0.105 1.082 -0.172 1.574 -0.203 c 0.492 -0.035 0.949 -0.059 1.379 -0.059 c 0.801 0 1.539 0.105 2.203 0.313 c 0.684 0.215 1.246 0.543 1.715 0.992 c 0.469 0.434 0.82 1.01 1.074 1.695 c 0.262 0.684 0.402 1.512 0.402 2.477" style="fill:#fff;fill-opacity:1;stroke:none;fill-rule:nonzero"/>
  <path d="m 31.34 51.14 c 1.566 0 2.781 0.289 3.641 0.855 c 0.859 0.555 1.297 1.465 1.297 2.738 c 0 1.277 -0.438 2.211 -1.313 2.785 c -0.863 0.566 -2.09 0.855 -3.684 0.855 l -0.875 0 l 0 3.613 l -2.453 0 l 0 -10.586 c 0.238 -0.039 0.508 -0.082 0.797 -0.121 c 0.313 -0.031 0.613 -0.059 0.918 -0.066 c 0.305 -0.023 0.605 -0.039 0.895 -0.047 c 0.293 -0.02 0.547 -0.027 0.777 -0.027 m 0.277 1.863 c -0.145 0 -0.352 0 -0.613 0.016 c -0.254 0 -0.449 0.008 -0.598 0.031 l 0 3.469 l 0.992 0 c 0.785 0 1.375 -0.141 1.77 -0.402 c 0.402 -0.277 0.598 -0.746 0.598 -1.402 c 0 -0.621 -0.195 -1.063 -0.598 -1.32 c -0.383 -0.262 -0.902 -0.391 -1.551 -0.391" style="fill:#fff;fill-opacity:1;stroke:none;fill-rule:nonzero"/>
  <path d="m 41.45 60.43 c 0.41 0 0.754 -0.031 1.016 -0.098 c 0.281 -0.082 0.504 -0.188 0.656 -0.313 c 0.156 -0.137 0.266 -0.293 0.32 -0.449 c 0.066 -0.18 0.098 -0.352 0.098 -0.523 c 0 -0.223 -0.07 -0.418 -0.219 -0.59 c -0.141 -0.176 -0.328 -0.32 -0.559 -0.453 c -0.223 -0.141 -0.477 -0.254 -0.754 -0.359 c -0.277 -0.117 -0.559 -0.223 -0.836 -0.313 c -0.371 -0.113 -0.754 -0.246 -1.156 -0.402 c -0.395 -0.148 -0.762 -0.336 -1.09 -0.566 c -0.32 -0.238 -0.582 -0.516 -0.797 -0.852 c -0.211 -0.344 -0.32 -0.77 -0.32 -1.277 c 0 -1.012 0.371 -1.797 1.117 -2.363 c 0.754 -0.566 1.785 -0.844 3.105 -0.844 c 0.754 0 1.41 0.074 1.969 0.223 c 0.566 0.145 1.051 0.316 1.434 0.5 l -0.719 1.645 c -0.328 -0.164 -0.699 -0.293 -1.117 -0.418 c -0.395 -0.113 -0.859 -0.172 -1.395 -0.172 c -1.293 0 -1.949 0.41 -1.949 1.23 c 0 0.215 0.074 0.395 0.203 0.559 c 0.133 0.148 0.297 0.285 0.492 0.418 c 0.215 0.113 0.453 0.223 0.699 0.313 c 0.27 0.09 0.523 0.18 0.777 0.254 c 0.387 0.129 0.785 0.277 1.195 0.434 c 0.43 0.156 0.805 0.359 1.156 0.625 c 0.355 0.254 0.648 0.582 0.871 0.973 c 0.23 0.379 0.344 0.863 0.344 1.453 c 0 1.01 -0.375 1.785 -1.141 2.344 c -0.738 0.543 -1.875 0.813 -3.402 0.813 c -1.016 0 -1.836 -0.09 -2.441 -0.277 c -0.617 -0.199 -1.074 -0.379 -1.379 -0.535 l 0.715 -1.738 c 0.359 0.188 0.785 0.363 1.277 0.527 c 0.5 0.152 1.117 0.234 1.828 0.234" style="fill:#fff;fill-opacity:1;stroke:none;fill-rule:nonzero"/>
  <path d="m 16 34 l 10 0 l 0 6 l -10 0 m 0 -6" style="fill:#fff;fill-opacity:1;stroke:none;fill-rule:nonzero"/>
  <path d="m 40 21.984 l 0 8.02 l 8 0 c 0 -4.43 -3.582 -8.02 -8 -8.02 m 0 0" style="fill:#fff;fill-opacity:1;stroke:none;fill-rule:nonzero"/>
  <path d="m 38 24 c -4.418 0 -8 3.578 -8 8 c 0 4.422 3.586 8 8 8 c 4.418 0 7.996 -3.578 7.996 -8 l -7.996 0 m 0 -8" style="fill:#fff;fill-opacity:1;stroke:none;fill-rule:nonzero"/>
 </g>
</svg>
