<svg xmlns="http://www.w3.org/2000/svg" viewBox="0 0 64 64">
 <g>
  <path d="m 10.688 0 c -1.375 0 -2.688 1.379 -2.688 2.813 l 0 58.38 c 0 1.352 1.391 2.813 2.688 2.813 l 42.625 0 c 1.297 0 2.688 -1.461 2.688 -2.813 l 0 -58.44 c 0 -1.348 -1.402 -2.75 -2.75 -2.75 m -42.563 0" style="fill:#207045;fill-opacity:1;stroke:none;fill-rule:nonzero"/>
  <path d="m 46 18 l 0 26 l -28 0 l 0 -26 m 26 2 l -14 0 l 0 6 l 14 0 m -16 -6 l -8 0 l 0 6 l 8 0 m 16 2 l -14 0 l 0 6 l 14 0 m -16 -6 l -8 0 l 0 6 l 8 0 m 16 2 l -14 0 l 0 6 l 14 0 m -16 -6 l -8 0 l 0 6 l 8 0 m 0 -6" style="fill:#fff;fill-opacity:1;stroke:none;fill-rule:nonzero"/>
  <path d="m 8 48 l 0 13.336 c 0 1.297 1.375 2.664 2.664 2.664 l 42.672 0 c 1.289 0 2.664 -1.367 2.664 -2.664 l 0 -13.336 m -48 0" style="fill:#000;fill-opacity:0.196;stroke:none;fill-rule:nonzero"/>
  <path d="m 24.602 62 c -0.246 -0.613 -0.539 -1.297 -0.902 -2.043 c -0.344 -0.746 -0.703 -1.5 -1.09 -2.246 c -0.371 0.715 -0.738 1.453 -1.105 2.23 c -0.371 0.754 -0.691 1.445 -0.961 2.059 l -2.543 0 c 0.133 -0.328 0.313 -0.715 0.559 -1.172 c 0.254 -0.461 0.523 -0.961 0.82 -1.484 c 0.313 -0.535 0.621 -1.074 0.957 -1.633 c 0.328 -0.566 0.648 -1.109 0.953 -1.625 l -3.094 -5.281 l 2.543 0 l 1.871 3.574 l 1.969 -3.574 l 2.371 0 l -3.02 5.223 c 0.344 0.52 0.68 1.066 1.016 1.633 c 0.328 0.566 0.633 1.117 0.922 1.668 c 0.285 0.523 0.539 1.023 0.762 1.5 c 0.211 0.457 0.383 0.844 0.516 1.172 l -2.543 0" style="fill:#fff;fill-opacity:1;stroke:none;fill-rule:nonzero"/>
  <path d="m 36.15 62 l -7.438 0 l 0 -11.195 l 2.371 0 l 0 9.352 l 5.066 0 l 0 1.844" style="fill:#fff;fill-opacity:1;stroke:none;fill-rule:nonzero"/>
  <path d="m 46 50.805 l 0 1.844 l -3.117 0 l 0 9.352 l -2.371 0 l 0 -9.352 l -3.125 0 l 0 -1.844 l 8.613 0" style="fill:#fff;fill-opacity:1;stroke:none;fill-rule:nonzero"/>
 </g>
</svg>
