<svg xmlns="http://www.w3.org/2000/svg" viewBox="0 0 64 64">
 <g>
  <path d="m 10.688 0 c -1.375 0 -2.688 1.379 -2.688 2.813 l 0 58.38 c 0 1.352 1.391 2.813 2.688 2.813 l 42.625 0 c 1.297 0 2.688 -1.461 2.688 -2.813 l 0 -58.44 c 0 -1.348 -1.402 -2.75 -2.75 -2.75 m -42.563 0" style="fill:#d04526;fill-opacity:1;stroke:none;fill-rule:nonzero"/>
  <path d="m 8 48 l 0 13.336 c 0 1.297 1.375 2.664 2.664 2.664 l 42.672 0 c 1.289 0 2.664 -1.367 2.664 -2.664 l 0 -13.336 m -48 0" style="fill:#000;fill-opacity:0.196;stroke:none;fill-rule:nonzero"/>
  <path d="m 16 22 l 10 0 l 0 6 l -10 0 m 0 -6" style="fill:#fff;fill-opacity:1;stroke:none;fill-rule:nonzero"/>
  <path d="m 16 32 l 10 0 l 0 6 l -10 0 m 0 -6" style="fill:#fff;fill-opacity:1;stroke:none;fill-rule:nonzero"/>
  <path d="m 40 19.984 l 0 8.02 l 8 0 c 0 -4.43 -3.582 -8.02 -8 -8.02 m 0 0" style="fill:#fff;fill-opacity:1;stroke:none;fill-rule:nonzero"/>
  <path d="m 20.426 60.22 c 0.066 0.016 0.141 0.023 0.215 0.023 c 0.082 0 0.156 0 0.223 0 c 0.547 0 1.01 -0.098 1.375 -0.285 c 0.379 -0.191 0.684 -0.445 0.902 -0.781 c 0.238 -0.328 0.402 -0.715 0.492 -1.164 c 0.109 -0.461 0.164 -0.961 0.164 -1.5 c 0 -0.469 -0.039 -0.926 -0.121 -1.379 c -0.074 -0.441 -0.215 -0.836 -0.41 -1.18 c -0.195 -0.344 -0.469 -0.617 -0.813 -0.813 c -0.336 -0.215 -0.777 -0.32 -1.32 -0.32 c -0.105 0 -0.223 0.008 -0.352 0.016 c -0.133 0 -0.246 0.016 -0.355 0.043 l 0 7.34 m 5.832 -3.707 c 0 1.016 -0.148 1.879 -0.434 2.598 c -0.277 0.707 -0.664 1.281 -1.164 1.73 c -0.5 0.445 -1.09 0.781 -1.789 0.984 c -0.688 0.207 -1.441 0.305 -2.27 0.305 c -0.43 0 -0.855 -0.023 -1.281 -0.074 c -0.402 -0.031 -0.844 -0.098 -1.32 -0.188 l 0 -10.672 c 0.559 -0.105 1.074 -0.18 1.559 -0.211 c 0.484 -0.035 0.941 -0.051 1.359 -0.051 c 0.805 0 1.527 0.105 2.184 0.313 c 0.672 0.211 1.238 0.551 1.699 1.01 c 0.457 0.453 0.809 1.027 1.066 1.73 c 0.262 0.699 0.391 1.543 0.391 2.527" style="fill:#fff;fill-opacity:1;stroke:none;fill-rule:nonzero"/>
  <path d="m 31.2 50.938 c 1.551 0 2.75 0.289 3.602 0.863 c 0.852 0.563 1.281 1.5 1.281 2.785 c 0 1.313 -0.43 2.258 -1.297 2.848 c -0.852 0.574 -2.066 0.867 -3.641 0.867 l -0.871 0 l 0 3.691 l -2.426 0 l 0 -10.793 c 0.234 -0.047 0.5 -0.09 0.785 -0.121 c 0.305 -0.035 0.609 -0.059 0.91 -0.074 c 0.305 -0.023 0.598 -0.043 0.887 -0.051 c 0.285 -0.016 0.543 -0.016 0.77 -0.016 m 0.273 1.887 c -0.141 0 -0.348 0.008 -0.609 0.016 c -0.254 0 -0.449 0.016 -0.59 0.043 l 0 3.523 l 0.984 0 c 0.77 0 1.363 -0.129 1.754 -0.398 c 0.395 -0.289 0.594 -0.766 0.594 -1.438 c 0 -0.629 -0.199 -1.082 -0.594 -1.336 c -0.383 -0.27 -0.895 -0.41 -1.539 -0.41" style="fill:#fff;fill-opacity:1;stroke:none;fill-rule:nonzero"/>
  <path d="m 46 51.06 l 0 1.793 l -3.215 0 l 0 9.137 l -2.445 0 l 0 -9.137 l -3.207 0 l 0 -1.793 l 8.867 0" style="fill:#fff;fill-opacity:1;stroke:none;fill-rule:nonzero"/>
  <path d="m 38 22 c -4.418 0 -8 3.578 -8 8 c 0 4.422 3.586 8 8 8 c 4.418 0 7.996 -3.578 7.996 -8 l -7.996 0 m 0 -8" style="fill:#fff;fill-opacity:1;stroke:none;fill-rule:nonzero"/>
 </g>
</svg>
