<svg xmlns="http://www.w3.org/2000/svg" viewBox="0 0 64 64">
 <g>
  <path d="m 10.672 0 c -1.375 0 -2.672 1.355 -2.672 2.789 l 0 58.42 c 0 1.355 1.375 2.789 2.672 2.789 l 42.656 0 c 1.297 0 2.672 -1.434 2.672 -2.789 l 0 -43.21 l -18 -18 m -27.328 0" style="fill:#3468ce;fill-opacity:1;stroke:none;fill-rule:nonzero"/>
  <path d="m 42 18 l 14 14 l 0 -14 m -14 0" style="fill:#000;fill-opacity:0.196;stroke:none;fill-rule:nonzero"/>
  <path d="m 38 0 l 17.984 18 l -15.227 0 c -1.348 0 -2.758 -1.426 -2.758 -2.773 m 0 -15.227" style="fill:#fff;fill-opacity:0.392;stroke:none;fill-rule:nonzero"/>
  <path d="m 20 22 l 12 0 l 0 10 l -12 0 m 0 -10" style="fill:#f9f9f9;fill-opacity:1;stroke:none;fill-rule:evenodd"/>
  <path d="m 34 22 l 10 0 l 0 2 l -10 0 m 0 -2" style="fill:#f9f9f9;fill-opacity:1;stroke:none;fill-rule:evenodd"/>
  <path d="m 8 48 l 0 13.336 c 0 1.297 1.375 2.664 2.664 2.664 l 42.672 0 c 1.289 0 2.664 -1.367 2.664 -2.664 l 0 -13.336 m -48 0" style="fill:#000;fill-opacity:0.196;stroke:none;fill-rule:nonzero"/>
  <path d="m 34 26 l 10 0 l 0 2 l -10 0 m 0 -2" style="fill:#f9f9f9;fill-opacity:1;stroke:none;fill-rule:evenodd"/>
  <path d="m 23.523 54.945 c 0.051 0.227 0.133 0.5 0.234 0.824 c 0.109 0.336 0.215 0.699 0.34 1.094 c 0.133 0.398 0.266 0.832 0.418 1.289 c 0.156 0.461 0.309 0.926 0.449 1.41 c 0 -0.609 -0.008 -1.266 -0.016 -1.957 c -0.016 -0.703 -0.027 -1.418 -0.043 -2.152 c -0.016 -0.723 -0.023 -1.457 -0.043 -2.199 c -0.008 -0.75 -0.016 -1.473 -0.016 -2.164 l 2.258 0 c -0.043 0.891 -0.082 1.816 -0.125 2.766 c -0.031 0.941 -0.082 1.875 -0.133 2.816 c -0.051 0.934 -0.117 1.84 -0.199 2.746 c -0.066 0.902 -0.141 1.758 -0.234 2.566 l -2.023 0 c -0.293 -0.73 -0.574 -1.523 -0.867 -2.375 c -0.293 -0.855 -0.582 -1.672 -0.875 -2.449 c -0.289 0.742 -0.59 1.551 -0.906 2.418 c -0.316 0.867 -0.609 1.676 -0.867 2.406 l -2.023 0 c -0.102 -0.809 -0.203 -1.664 -0.277 -2.566 c -0.082 -0.914 -0.148 -1.84 -0.215 -2.766 c -0.051 -0.941 -0.102 -1.871 -0.141 -2.813 c -0.043 -0.953 -0.066 -1.867 -0.102 -2.75 l 2.258 0 c -0.008 0.691 -0.023 1.406 -0.043 2.148 c -0.008 0.742 -0.023 1.484 -0.031 2.215 c -0.02 0.734 -0.035 1.449 -0.043 2.152 c -0.016 0.691 -0.023 1.348 -0.023 1.957 c 0.125 -0.375 0.258 -0.793 0.398 -1.234 c 0.16 -0.449 0.301 -0.883 0.434 -1.324 c 0.148 -0.434 0.281 -0.832 0.398 -1.191 c 0.117 -0.367 0.211 -0.656 0.277 -0.867 l 1.781 0" style="fill:#fff;fill-opacity:1;stroke:none;fill-rule:nonzero"/>
  <path d="m 31.988 50.965 c 1.559 0 2.766 0.289 3.625 0.867 c 0.855 0.566 1.289 1.488 1.289 2.781 c 0 1.301 -0.441 2.25 -1.309 2.832 c -0.855 0.574 -2.082 0.867 -3.664 0.867 l -0.867 0 l 0 3.672 l -2.434 0 l 0 -10.754 c 0.234 -0.043 0.5 -0.082 0.793 -0.125 c 0.301 -0.031 0.602 -0.059 0.906 -0.066 c 0.301 -0.023 0.602 -0.043 0.895 -0.051 c 0.289 -0.016 0.547 -0.023 0.766 -0.023 m 0.281 1.891 c -0.148 0 -0.348 0 -0.613 0.016 c -0.25 0 -0.453 0.008 -0.594 0.035 l 0 3.523 l 0.992 0 c 0.773 0 1.359 -0.141 1.758 -0.41 c 0.391 -0.281 0.59 -0.758 0.59 -1.422 c 0 -0.633 -0.199 -1.086 -0.59 -1.344 c -0.383 -0.266 -0.898 -0.398 -1.543 -0.398" style="fill:#fff;fill-opacity:1;stroke:none;fill-rule:nonzero"/>
  <path d="m 42.04 60.4 c 0.406 0 0.75 -0.031 1.01 -0.102 c 0.285 -0.082 0.5 -0.191 0.66 -0.316 c 0.156 -0.141 0.258 -0.297 0.316 -0.457 c 0.066 -0.184 0.098 -0.359 0.098 -0.531 c 0 -0.227 -0.074 -0.426 -0.223 -0.602 c -0.145 -0.176 -0.328 -0.324 -0.551 -0.457 c -0.227 -0.141 -0.477 -0.258 -0.75 -0.367 c -0.285 -0.117 -0.559 -0.227 -0.832 -0.316 c -0.367 -0.117 -0.75 -0.25 -1.152 -0.41 c -0.391 -0.148 -0.758 -0.34 -1.09 -0.574 c -0.316 -0.242 -0.574 -0.523 -0.793 -0.867 c -0.207 -0.348 -0.316 -0.781 -0.316 -1.297 c 0 -1.027 0.375 -1.824 1.109 -2.398 c 0.758 -0.578 1.781 -0.859 3.09 -0.859 c 0.75 0 1.41 0.074 1.957 0.227 c 0.566 0.148 1.043 0.324 1.426 0.508 l -0.707 1.672 c -0.336 -0.164 -0.699 -0.301 -1.109 -0.426 c -0.398 -0.113 -0.859 -0.172 -1.391 -0.172 c -1.293 0 -1.934 0.414 -1.934 1.25 c 0 0.215 0.066 0.398 0.191 0.566 c 0.133 0.148 0.301 0.289 0.5 0.422 c 0.207 0.117 0.441 0.227 0.691 0.316 c 0.266 0.094 0.516 0.184 0.766 0.262 c 0.383 0.133 0.785 0.281 1.191 0.441 c 0.426 0.156 0.809 0.363 1.152 0.633 c 0.355 0.258 0.641 0.59 0.863 0.988 c 0.227 0.387 0.344 0.875 0.344 1.477 c 0 1.023 -0.375 1.816 -1.133 2.383 c -0.734 0.551 -1.867 0.824 -3.383 0.824 c -1.016 0 -1.824 -0.09 -2.434 -0.285 c -0.605 -0.199 -1.066 -0.383 -1.367 -0.539 l 0.719 -1.766 c 0.348 0.191 0.773 0.367 1.266 0.531 c 0.5 0.16 1.109 0.242 1.816 0.242" style="fill:#fff;fill-opacity:1;stroke:none;fill-rule:nonzero"/>
  <path d="m 34 30 l 10 0 l 0 2 l -10 0 m 0 -2" style="fill:#f9f9f9;fill-opacity:1;stroke:none;fill-rule:evenodd"/>
  <path d="m 20 34 l 24 0 l 0 2 l -24 0 m 0 -2" style="fill:#f9f9f9;fill-opacity:1;stroke:none;fill-rule:evenodd"/>
  <path d="m 20 38 l 24 0 l 0 2 l -24 0 m 0 -2" style="fill:#f9f9f9;fill-opacity:1;stroke:none;fill-rule:evenodd"/>
  <path d="m 20 42 l 24 0 l 0 2 l -24 0 m 0 -2" style="fill:#f9f9f9;fill-opacity:1;stroke:none;fill-rule:evenodd"/>
 </g>
</svg>
