<svg xmlns="http://www.w3.org/2000/svg" xmlns:svg="http://www.w3.org/2000/svg" id="bold" width="240" height="240" enable-background="new 0 0 24 24" version="1.1" viewBox="0 0 240 240"><metadata id="metadata29"/><g id="g883" transform="translate(20,20)" style="fill:#fff;fill-opacity:1"><g id="g843"><path id="path16" d="m 125,175 v 10.41667 c 0,8 -6.58333,14.58333 -14.58333,14.58333 H 89.583333 C 82.583333,200 75,194.66667 75,183 v -8 z" style="stroke-width:8.33333;fill:#fff;fill-opacity:1"/><path id="path18" d="M 136.75,54.666667 C 123.08333,43.583333 105.08333,39.25 87.5,43 c -22.083333,4.583333 -40,22.583333 -44.583333,44.666667 -4.666667,22.666663 3.833333,45.166663 22,58.916663 4.916666,3.66667 8.333333,9.33334 9.5,15.91667 v 0.0833 C 74.583333,162.5 74.833333,162.5 75,162.5 h 50 c 0.16667,0 0.25,0 0.41667,0.0833 V 162.5 c 1.16666,-6.33333 4.91666,-12.16667 10.66666,-16.66667 C 150.16667,134.66667 158.33333,118 158.33333,100 158.33333,82.333333 150.5,65.833333 136.75,54.666667 Z m -5.5,49.500003 c -3.41667,0 -6.25,-2.83334 -6.25,-6.250003 C 125,85.25 114.75,75 102.08333,75 c -3.416663,0 -6.249997,-2.833333 -6.249997,-6.25 0,-3.416667 2.833334,-6.25 6.249997,-6.25 19.5,0 35.41667,15.916667 35.41667,35.416667 0,3.416663 -2.83333,6.250003 -6.25,6.250003 z" style="stroke-width:8.33333;fill:#fff;fill-opacity:1"/></g></g></svg>