<svg xmlns="http://www.w3.org/2000/svg" xmlns:svg="http://www.w3.org/2000/svg" id="Capa_1" width="240" height="240" enable-background="new 0 0 488.471 488.471" version="1.1" viewBox="0 0 240 240"><metadata id="metadata17"/><g id="g10" transform="matrix(0.40944089,0,0,0.40944089,20,20)"><path id="path2" d="m 427.412,122.118 c 0,-33.723 27.337,-61.059 61.059,-61.059 -33.721,0 -61.059,-27.337 -61.059,-61.059 0,33.721 -27.337,61.059 -61.059,61.059 33.721,0 61.059,27.335 61.059,61.059 z" class="active-path" data-old_color="#000000" data-original="#000000" style="fill:#fff"/><path id="path4" d="m 442.677,183.176 c 0,25.291 -20.503,45.794 -45.794,45.794 25.292,0 45.794,20.503 45.794,45.794 0,-25.292 20.503,-45.794 45.794,-45.794 -25.292,0.001 -45.794,-20.502 -45.794,-45.794 z" class="active-path" data-old_color="#000000" data-original="#000000" style="fill:#fff"/><path id="path6" d="m 213.706,183.176 c 0,-50.583 41.005,-91.588 91.588,-91.588 -50.583,0 -91.588,-41.005 -91.588,-91.588 0,50.583 -41.005,91.588 -91.588,91.588 50.583,0 91.588,41.006 91.588,91.588 z" class="active-path" data-old_color="#000000" data-original="#000000" style="fill:#fff"/><path id="path8" d="M 335.824,91.588 0,427.412 61.059,488.471 396.883,152.647 Z m -52.115,97.909 43.17,-43.17 15.265,15.265 -43.17,43.17 c 0,0 -15.265,-15.265 -15.265,-15.265 z" class="active-path" data-old_color="#000000" data-original="#000000" style="fill:#fff"/></g></svg>