<svg xmlns="http://www.w3.org/2000/svg" viewBox="0 0 48 48">
 <path d="m 6.289 4 c -1.145 0 -2.289 1.145 -2.289 2.289 l 0 35.488 c 0 1.078 1.145 2.223 2.223 2.223 l 35.555 0 c 1.078 0 2.223 -1.145 2.223 -2.223 l 0 -35.555 c 0 -1.078 -1.145 -2.223 -2.223 -2.223" style="fill:#c19553"/>
 <path d="m 6.289 4 c -1.145 0 -2.289 1.145 -2.289 2.289 l 0 13.711 c 4.441 0 35.559 0 40 0 l 0 -13.777 c 0 -1.078 -1.145 -2.223 -2.223 -2.223" style="fill:#fff;fill-opacity:0.196"/>
 <path d="m 24,8 -4,0 0,-4 4,0 0,8 -4,0 0,4 4,0 0,8.03125 L 20,24 l 0,8 8,0 0,-8 -4,0.03125 L 24,20 l 4,0 0,-4 -4,0 0,-4 4,0 0,-4 z" style="fill:#fff"/>
 <path d="m 22 32 24 0 0 8 -24 0 z" style="fill:#dc312f"/>
</svg>
