<svg xmlns="http://www.w3.org/2000/svg" viewBox="0 0 48 48">
 <path d="m 42 26 a 18 18 0 0 1 -36 0 18 18 0 1 1 36 0 z" style="fill:#fff;fill-rule:evenodd"/>
 <path d="m 23.969 12.968 c -1.102 0.016 -1.984 0.93 -1.969 2.031 l 0 11 c 0 0.469 0.164 0.922 0.469 1.281 l 5 6 c 0.445 0.602 1.18 0.898 1.914 0.789 0.734 -0.117 1.344 -0.625 1.586 -1.328 0.242 -0.703 0.07 -1.484 -0.438 -2.023 l -4.531 -5.437 0 -10.281 c 0.008 -0.539 -0.203 -1.063 -0.586 -1.445 -0.383 -0.383 -0.906 -0.594 -1.445 -0.586 z" style="fill:#268bd2"/>
 <path d="m 24 6 c -11.02 0 -20 8.977 -20 20 0 11.02 8.977 20 20 20 11.02 0 20 -8.977 20 -20 0 -11.02 -8.977 -20 -20 -20 m 0 4 c 8.859 0 16 7.141 16 16 0 8.859 -7.141 16 -16 16 c -8.859 0 -16 -7.141 -16 -16 0 -8.859 7.141 -16 16 -16" style="fill:#aaa"/>
 <path d="m 5.615 10.444 c -0.783 0.783 -0.783 2.045 0 2.828 0.943 0.943 1.886 1.886 2.828 2.828 c 2.357 -2.357 4.714 -4.714 7.07 -7.07 -0.943 -0.943 -1.886 -1.886 -2.828 -2.828 c -0.783 -0.783 -2.045 -0.783 -2.828 0 z" style="fill:#aaa;opacity:1;fill-opacity:1;stroke:none"/>
 <rect width="8" height="6" x="20" y="2" rx="2" style="fill:#aaa;opacity:1;fill-opacity:1;stroke:none"/>
 <path d="m 42.38 10.444 c 0.783 0.783 0.783 2.045 0 2.828 -0.943 0.943 -1.886 1.886 -2.828 2.828 c -2.357 -2.357 -4.714 -4.714 -7.07 -7.07 0.943 -0.943 1.886 -1.886 2.828 -2.828 c 0.783 -0.783 2.045 -0.783 2.828 0 z" style="fill:#aaa;opacity:1;fill-opacity:1;stroke:none"/>
</svg>
