<svg xmlns="http://www.w3.org/2000/svg" viewBox="0 0 48 48">
 <path style="visibility:visible;shape-rendering:auto;color-interpolation-filters:linearRGB;fill:#3daee9;opacity:1;image-rendering:auto;fill-opacity:1;text-rendering:auto;stroke:none;display:inline;color:#000;fill-rule:evenodd;color-rendering:auto;color-interpolation:sRGB" d="m 34.934 13.652 -7.281 7.281 c 0.599 0.325 1.089 0.815 1.414 1.414 l 7.281 -7.281 c -0.599 -0.325 -1.089 -0.815 -1.414 -1.414 z"/>
 <path style="visibility:visible;shape-rendering:auto;color-interpolation-filters:linearRGB;fill:#3daee9;opacity:1;image-rendering:auto;fill-opacity:1;text-rendering:auto;stroke:none;display:inline;color:#000;fill-rule:evenodd;color-rendering:auto;color-interpolation:sRGB" d="m 29.07 25.652 c -0.325 0.599 -0.815 1.089 -1.414 1.414 l 7.281 7.281 c 0.325 -0.599 0.815 -1.089 1.414 -1.414 z"/>
 <path style="visibility:visible;shape-rendering:auto;color-interpolation-filters:linearRGB;fill:#3daee9;opacity:1;image-rendering:auto;fill-opacity:1;text-rendering:auto;stroke:none;display:inline;color:#000;fill-rule:evenodd;color-rendering:auto;color-interpolation:sRGB" d="m 13.438 16.602 c -0.12 0.685 -0.438 1.3 -0.896 1.787 l 10.02 5.01 c 0.12 -0.685 0.438 -1.3 0.896 -1.787 z"/>
 <path style="visibility:visible;shape-rendering:auto;color-interpolation-filters:linearRGB;fill:#3daee9;opacity:1;image-rendering:auto;fill-opacity:1;text-rendering:auto;stroke:none;display:inline;color:#000;fill-rule:evenodd;color-rendering:auto;color-interpolation:sRGB" d="m 22.641 24.922 -10.342 6.463 c 0.505 0.445 0.877 1.027 1.061 1.693 l 10.342 -6.463 c -0.505 -0.445 -0.877 -1.027 -1.061 -1.693 z"/>
 <rect style="fill:#3daee9;opacity:1;fill-opacity:1;stroke:none;fill-rule:nonzero" y="9" x="-31" height="2" width="12" transform="matrix(0 -1 1 0 0 0)"/>
 <circle style="stroke-dasharray:none;stroke-opacity:1;fill:#fff;opacity:1;stroke-miterlimit:4;fill-opacity:1;stroke:#888;stroke-linecap:butt;stroke-linejoin:miter;stroke-width:2;stroke-dashoffset:0" cy="34" cx="10" r="3"/>
 <circle style="stroke-dasharray:none;stroke-opacity:1;fill:#fff;opacity:1;stroke-miterlimit:4;fill-opacity:1;stroke:#888;stroke-linecap:butt;stroke-linejoin:miter;stroke-width:2;stroke-dashoffset:0" cy="16" cx="10" r="3"/>
 <circle style="stroke-dasharray:none;stroke-opacity:1;fill:#fff;opacity:1;stroke-miterlimit:4;fill-opacity:1;stroke:#888;stroke-linecap:butt;stroke-linejoin:miter;stroke-width:2;stroke-dashoffset:0" cy="24" cx="26" r="3"/>
 <circle style="stroke-dasharray:none;stroke-opacity:1;fill:#fff;opacity:1;stroke-miterlimit:4;fill-opacity:1;stroke:#888;stroke-linecap:butt;stroke-linejoin:miter;stroke-width:2;stroke-dashoffset:0" cy="12" cx="38" r="3"/>
 <circle style="stroke-dasharray:none;stroke-opacity:1;fill:#fff;opacity:1;stroke-miterlimit:4;fill-opacity:1;stroke:#888;stroke-linecap:butt;stroke-linejoin:miter;stroke-width:2;stroke-dashoffset:0" cy="36" cx="38" r="3"/>
</svg>
