<svg xmlns="http://www.w3.org/2000/svg" viewBox="0 0 48 48">
 <rect width="2" height="36" x="12" y="6" style="fill:#268bd2;opacity:1;fill-opacity:1;stroke:none;fill-rule:nonzero"/>
 <rect y="6" x="34" height="36" width="2" style="fill:#268bd2;opacity:1;fill-opacity:1;stroke:none;fill-rule:nonzero"/>
 <path transform="matrix(0,-2.0207259,-1.6666666,0,67.669583,77.034628)" d="m 35.895 31 -1.732 -3 3.464 0 z" style="fill:#268bd2;opacity:1;fill-opacity:1;stroke:none;fill-rule:nonzero"/>
 <path d="m 35.895 31 -1.732 -3 3.464 0 z" transform="matrix(0,-2.0207259,1.6666666,0,-19.669583,77.034628)" style="fill:#268bd2;opacity:1;fill-opacity:1;stroke:none;fill-rule:nonzero"/>
 <rect width="10" height="26" x="8" y="11" style="fill:#fff;opacity:1;fill-opacity:1;stroke:none;fill-rule:nonzero"/>
 <rect y="13" x="30" height="22" width="10" style="fill:#fff;opacity:1;fill-opacity:1;stroke:none;fill-rule:nonzero"/>
 <path d="m 7 38 12 0 0 -28 -12 0 z m 2 -2 0 -24 8 0 0 24 z m 20 0 12 0 0 -24 -12 0 z m 2 -2 0 -20 8 0 0 20 z" style="fill:#888;opacity:1;fill-opacity:1;stroke:none"/>
</svg>
