<svg viewBox="0 0 48 48" xmlns="http://www.w3.org/2000/svg">
 <g transform="matrix(0 -1 1 0 0 48)">
  <path style="fill:#fff;stroke-miterlimit:10;stroke:#888;stroke-width:2" d="m 35 20 8 0 0 8 -8 0 z"/>
  <path style="fill:#fff;stroke-miterlimit:10;stroke:#888;stroke-width:2" d="m 5 30 8 0 0 8 -8 0 z"/>
  <path style="fill:#fff;stroke-miterlimit:10;stroke:#888;stroke-width:2" d="m 5 10 8 0 0 8 -8 0 z"/>
  <path style="fill:#268bd2;fill-opacity:1;stroke:none" d="m 20 13 0 2 3 0 0 4 -3 0 0 2 8 0 0 -2 -3 0 0 -4 3 0 0 -2 z"/>
  <path style="fill:#268bd2;fill-opacity:1;stroke:none" d="m 20 27 0 2 3 0 0 4 -3 0 0 2 8 0 0 -2 -3 0 0 -4 3 0 0 -2 z"/>
 </g>
</svg>
