<svg width="48" xmlns="http://www.w3.org/2000/svg" height="48" viewBox="0 0 48 48" xmlns:xlink="http://www.w3.org/1999/xlink">
<g style="fill:#888">
<path d="M 12 22 L 32 10 L 32 14 L 12 26 Z "/>
<path d="M 12 26 L 32 38 L 32 34 L 12 22 Z "/>
</g>
<g style="fill-rule:evenodd">
<path style="fill:#268bd2" d="M 39.996094 12 C 39.996094 16.417969 36.414062 20 31.996094 20 C 27.582031 20 24 16.417969 24 12 C 24 7.582031 27.582031 3.996094 31.996094 3.996094 C 36.414062 3.996094 39.996094 7.582031 39.996094 12 Z "/>
<path style="fill:#2aa198" d="M 19.996094 24 C 19.996094 28.417969 16.414062 32 11.996094 32 C 7.582031 32 4 28.417969 4 24 C 4 19.582031 7.582031 15.996094 11.996094 15.996094 C 16.414062 15.996094 19.996094 19.582031 19.996094 24 Z "/>
<path style="fill:#dc322f" d="M 39.996094 36.007812 C 39.996094 40.429688 36.414062 44.011719 31.996094 44.011719 C 27.582031 44.011719 24 40.429688 24 36.007812 C 24 31.589844 27.582031 28.007812 31.996094 28.007812 C 36.414062 28.007812 39.996094 31.589844 39.996094 36.007812 Z "/>
</g>
</svg>
