<svg xmlns="http://www.w3.org/2000/svg" viewBox="0 0 48 48">
 <g style="fill-rule:evenodd">
  <path d="m 8 6 l 20 0 c 4 0 4 0 4 4 l 0 28 c 0 4 0 4 -4 4 l -20 0 c -4 0 -4 0 -4 -4 l 0 -28 c 0 -4 0 -4 4 -4 Z" style="fill:#fff"/>
  <path d="m 29.945 37.675 13.77 -10.781 c 3.05 -2.388 3.041 -3.01 0 -5.391 l -13.77 -10.781 c -1.919 -1.502 -1.945 -0.697 -1.945 2.772 -0.039 1.348 0 4.506 0 4.506 c -0.031 0 0.031 0 0 0 c -13.684 0 -20.09 8.893 -20 19.759 5.422 -5.475 11.738 -7.849 20 -7.68 l 0 3.92 c 0 1.96 0.029 5 1.945 3.675 z" style="fill:#268bd2"/>
 </g>
</svg>
