<svg width="48" xmlns="http://www.w3.org/2000/svg" height="48" viewBox="0 0 48 48" xmlns:xlink="http://www.w3.org/1999/xlink">
<path style="fill:#fff;fill-rule:evenodd" d="M 10 4 L 30 4 C 34 4 34 4 34 8 L 34 36 C 34 40 34 40 30 40 L 10 40 C 6 40 6 40 6 36 L 6 8 C 6 4 6 4 10 4 Z "/>
<g style="fill:#268bd2">
<path d="M 36 44 L 28 44 L 28 32 L 36 32 L 36 44 "/>
<path style="fill-rule:evenodd" d="M 36 24 C 36 26.210938 34.210938 28 32 28 C 29.789062 28 28 26.210938 28 24 C 28 21.789062 29.789062 20 32 20 C 34.210938 20 36 21.789062 36 24 Z "/>
</g>
</svg>
