<svg width="48" xmlns="http://www.w3.org/2000/svg" height="48" viewBox="0 0 48 48" xmlns:xlink="http://www.w3.org/1999/xlink">
<path style="fill:#fff;fill-rule:evenodd" d="M 14 6 L 34 6 C 38 6 38 6 38 10 L 38 38 C 38 42 38 42 34 42 L 14 42 C 10 42 10 42 10 38 L 10 10 C 10 6 10 6 14 6 Z "/>
<g style="fill:#aaa;stroke:#aaa;stroke-linecap:round;stroke-width:2">
<path d="M 15 35 L 15 38 L 18 38 " transform="translate(0 -2)"/>
<path d="M 33 35 L 33 38 L 30 38 " transform="translate(0 -2)"/>
<path d="M 30 14 L 33 14 L 33 17 " transform="translate(0 -2)"/>
<path d="M 15 17 L 15 14 L 18 14 " transform="translate(0 -2)"/>
</g>
</svg>
