
<!--Created with Inkscape (http://www.inkscape.org/)-->
<svg xmlns="http://www.w3.org/2000/svg" style="enable-background:new" viewBox="0 0 48 48">
 <path style="visibility:visible;shape-rendering:auto;color-interpolation-filters:linearRGB;fill:#4b4b4b;opacity:1;image-rendering:auto;fill-opacity:1;text-rendering:auto;stroke:none;display:inline;color:#000;fill-rule:evenodd;color-rendering:auto;color-interpolation:sRGB" d="m 24.2 4.03 c -5.179 -0.264 -10.426 1.536 -14.44 5.592 -7.118 7.193 -7.878 19.611 -0.918 27.27 c 6.117 6.729 16.632 7.429 23.08 0.761 5.611 -5.8 6.176 -15.727 0.529 -21.777 -4.854 -5.2 -13.12 -5.697 -18.11 -0.365 -4.235 4.518 -4.619 12.158 -0.178 16.738 3.7 3.815 9.913 4.139 13.592 0.024 3 -3.357 3.231 -8.949 -0.126 -12.209 -2.667 -2.59 -7.07 -2.762 -9.579 0.275 -1.928 2.333 -2.025 6.147 0.389 8.253 1.773 1.547 4.641 1.588 6.146 -0.542 0.52 -0.736 0.766 -1.644 0.696 -2.551 -0.07 -0.907 -0.505 -1.853 -1.337 -2.417 -0.529 -0.359 -1.144 -0.5 -1.774 -0.404 -0.63 0.096 -1.32 0.52 -1.644 1.264 -0.189 0.435 -0.223 0.848 -0.104 1.323 0.12 0.475 0.594 1.087 1.233 1.166 0.278 0.034 0.34 -0.01 0.448 -0.039 0.108 -0.03 0.213 -0.067 0.344 -0.145 0.132 -0.078 0.319 -0.179 0.478 -0.526 0.121 -0.265 0 -0.628 -0.111 -0.922 0.025 0.011 0.062 0.007 0.081 0.02 0.286 0.194 0.419 0.469 0.448 0.852 0.029 0.382 -0.095 0.836 -0.315 1.146 -0.763 1.08 -2.365 1.055 -3.358 0.188 -1.485 -1.295 -1.421 -3.784 -0.163 -5.306 1.732 -2.095 4.897 -1.975 6.809 -0.118 2.497 2.425 2.319 6.712 0.026 9.277 -2.886 3.227 -7.872 2.968 -10.83 -0.082 -3.62 -3.733 -3.299 -10.08 0.204 -13.814 4.195 -4.475 11.233 -4.05 15.355 0.365 4.85 5.196 4.36 13.826 -0.504 18.853 c -5.642 5.832 -14.936 5.216 -20.327 -0.714 -6.179 -6.798 -5.5 -17.921 0.859 -24.347 7.215 -7.292 18.96 -6.463 25.718 1.118 c 7.602 8.528 6.711 22.344 -1.266 30.27 l 1.329 1.503 c 8.745 -8.689 9.718 -23.799 1.348 -33.19 -3.74 -4.196 -8.85 -6.522 -14.03 -6.785 z"/>
</svg>
