<svg xmlns="http://www.w3.org/2000/svg" viewBox="0 0 48 48">
 <rect width="8" height="28" x="-28" y="-38" transform="scale(-1,-1)" style="fill:#cecece;opacity:1;fill-opacity:1;stroke:none;fill-rule:nonzero"/>
 <rect transform="scale(-1,-1)" y="-38" x="-38" height="28" width="8" style="fill:#79d073;opacity:1;fill-opacity:1;stroke:none;fill-rule:nonzero"/>
 <path d="m 8 8 c 0 10.667 0 21.333 0 32 10.667 0 21.333 0 32 0 c 0 -10.667 0 -21.333 0 -32 -10.667 0 -21.333 0 -32 0 m 2 2 8 0 0 8 -8 0 z m 10 0 8 0 0 8 -8 0 z m 10 0 8 0 0 8 -8 0 z m -20 10 8 0 0 8 -8 0 z m 10 0 8 0 0 8 -8 0 z m 10 0 8 0 0 8 -8 0 z m -20 10 8 0 0 8 -8 0 z m 10 0 8 0 0 8 -8 0 z m 10 0 8 0 0 8 -8 0 z" style="fill:#888;opacity:1;fill-opacity:1;stroke:none;fill-rule:nonzero"/>
</svg>
