<svg width="48" xmlns="http://www.w3.org/2000/svg" height="48" viewBox="0 0 48 48" xmlns:xlink="http://www.w3.org/1999/xlink">
<path style="fill:#e9b080;fill-rule:evenodd" d="M 10 8 L 38 8 C 42 8 42 7.601562 42 12 L 42 40 C 42 44 42 44 38 44 L 10 44 C 6 44 6 44 6 40 L 6 12 C 6 8 6 8 10 8 Z "/>
<path style="fill:#fff" d="M 36 8 L 12 8 L 12 36 L 36 36 Z "/>
<path style="fill:#aaa" d="M 16 4 L 16 12 L 32 12 L 32 4 Z "/>
<g style="fill:#888">
<path d="M 16 16 L 16 20 L 32 20 L 32 16 Z "/>
<path d="M 16 24 L 16 28 L 32 28 L 32 24 Z "/>
</g>
</svg>
