<svg width="48" xmlns="http://www.w3.org/2000/svg" height="48" viewBox="0 0 48 48" xmlns:xlink="http://www.w3.org/1999/xlink">
<path style="fill:#aaa" d="M 8 4 C 8 26 18 22 29.558594 31.320312 C 28.578125 32.640625 28 34.21875 28 36 C 28 40.421875 31.578125 44 36 44 C 40.421875 44 44 40.421875 44 36 C 44 35.28125 43.800781 34.601562 43.679688 33.941406 L 44 34 L 43.558594 33.441406 C 42.960938 31.679688 41.738281 30.238281 40.179688 29.238281 Z M 36 32 C 38.199219 32 40 33.800781 40 36 C 40 38.199219 38.199219 40 36 40 C 33.800781 40 32 38.199219 32 36 C 32 33.800781 33.800781 32 36 32 Z "/>
<path style="fill:#ccc" d="M 40 4 C 40 26 30 22 18.441406 31.320312 C 19.421875 32.640625 20 34.21875 20 36 C 20 40.421875 16.421875 44 12 44 C 7.578125 44 4 40.421875 4 36 C 4 35.28125 4.140625 34.601562 4.320312 33.941406 L 4 34 L 4.441406 33.441406 C 5.039062 31.679688 6.261719 30.238281 7.820312 29.238281 Z M 12 32 C 9.800781 32 8 33.800781 8 36 C 8 38.199219 9.800781 40 12 40 C 14.199219 40 16 38.199219 16 36 C 16 33.800781 14.199219 32 12 32 Z "/>
</svg>
