<svg xmlns="http://www.w3.org/2000/svg" viewBox="0 0 48 48">
 <path d="m 8 8 0 32 32 0 0 -32 z m 2 2 c 9.333 0 18.667 0 28 0 0 9.333 0 18.667 0 28 -9.333 0 -18.667 0 -28 0 0 -9.333 0 -18.667 0 -28 z" style="fill:#888;opacity:1;fill-opacity:1;stroke:none;fill-rule:nonzero"/>
 <path d="m 23 6 0 5 2 0 0 -5 z m 0 7 0 3 2 0 0 -3 z m 0 5 0 3 2 0 0 -3 z m 0 5 0 3 2 0 0 -3 z m 0 5 0 3 2 0 0 -3 z m 0 5 0 3 2 0 0 -3 z m 0 5 0 5 2 0 0 -5 z" style="fill:#268bd2;opacity:1;fill-opacity:1;stroke:none"/>
</svg>
