<svg width="48" xmlns="http://www.w3.org/2000/svg" height="48" viewBox="0 0 48 48" xmlns:xlink="http://www.w3.org/1999/xlink">
<g style="fill:#268bd2">
<path d="M 12 8 L 12 14 L 30 14 C 31.222656 14 32 16.765625 32 18 L 38 18 C 38 12.769531 34.515625 8 29.714844 8 Z "/>
<path d="M 10 32 C 10 36 10.484375 37.046875 11.945312 38.898438 C 13.410156 40.75 15.40625 42 18 42 C 24.667969 42 31.332031 42 38 42 C 38 38.800781 38 35.199219 38 32 L 32 32 L 32 36 L 18 36 C 16.863281 36 16.664062 35.25 16.230469 34.699219 C 15.796875 34.152344 16.007812 32.894531 16 32 Z "/>
<path d="M 4 22 L 4 28 L 44 28 L 44 22 Z "/>
</g>
</svg>
