<svg width="48" xmlns="http://www.w3.org/2000/svg" height="48" viewBox="0 0 48 48" xmlns:xlink="http://www.w3.org/1999/xlink">
<path style="fill:#268bd2" d="M 10 10 L 10 16 C 16 16 22 16 28 16 C 29.425781 16 29.761719 16.710938 30 18 L 30 22 C 24.667969 22 19.332031 22 14 22 C 10.9375 22 8.214844 22.886719 6.5 24.875 C 4.785156 26.863281 3.980469 29.363281 4 31.8125 C 4.019531 34.261719 4.917969 36.71875 6.625 38.6875 C 8.332031 40.65625 10.972656 42 14 42 C 25.132812 42 34.097656 42 44 42 C 44 34.0625 44 26.125 44 18.1875 C 44 12.628906 40 10 34 10 C 25.242188 10 18.386719 10 10 10 Z M 20.1875 28 L 30 28 L 30 36 L 20.1875 36 C 18.148438 36 16.125 36 16.125 32 C 16.125 28 18.148438 28 20.1875 28 Z "/>
</svg>
