<svg width="48" xmlns="http://www.w3.org/2000/svg" height="48" viewBox="0 0 48 48" xmlns:xlink="http://www.w3.org/1999/xlink">
<path style="fill:#268bd2" d="M 14 10 L 14 16 L 33.226562 16 C 34.597656 16 35.898438 17.253906 35.5 18.699219 L 34.828125 22 L 18 22 C 12.109375 22 7.558594 27.128906 6.359375 31.601562 C 5.757812 33.835938 5.839844 36.332031 7.160156 38.5 C 8.480469 40.667969 11.160156 42 14.070312 42 L 35.699219 42 L 36.398438 39.699219 L 41.707031 20.5 C 43.097656 15.480469 39.378906 10 33.996094 10 Z M 18 28 L 33.121094 28 L 30.503906 36 L 14 36 C 12.726562 36 12.710938 35.332031 12.566406 35.101562 C 12.425781 34.867188 12.308594 34.164062 12.566406 33.199219 C 13.085938 31.273438 15.292969 28 18 28 Z "/>
</svg>
