<svg width="48" xmlns="http://www.w3.org/2000/svg" height="48" viewBox="0 0 48 48" xmlns:xlink="http://www.w3.org/1999/xlink">
<path style="fill:#268bd2;fill-rule:evenodd" d="M 44 24 C 44 12.957031 35.042969 4 24 4 C 12.957031 4 4 12.957031 4 24 C 4 35.042969 12.957031 44 24 44 C 35.042969 44 44 35.042969 44 24 Z "/>
<path style="fill:#fff;fill-opacity:.902" d="M 36 24.007812 C 36 23.394531 35.738281 22.8125 35.3125 22.382812 L 27.875 14.695312 C 27.472656 14.269531 26.898438 14.023438 26.3125 14.007812 C 25.382812 13.976562 24.550781 14.503906 24.1875 15.382812 C 23.824219 16.257812 24.019531 17.285156 24.6875 17.945312 L 28.625 22.007812 L 12 22.007812 L 12 26.007812 L 28.625 26.007812 L 24.6875 30.070312 C 23.8125 30.96875 23.8125 32.417969 24.6875 33.320312 C 25.5625 34.21875 27 34.21875 27.875 33.320312 L 35.3125 25.632812 C 35.738281 25.199219 36 24.617188 36 24.007812 Z "/>
</svg>
