<svg xmlns="http://www.w3.org/2000/svg" viewBox="0 0 48 48">
 <path d="m 10 4 l 20 0 c 4 0 4 0 4 4 l 0 28 c 0 4 0 4 -4 4 l -20 0 c -4 0 -4 0 -4 -4 l 0 -28 c 0 -4 0 -4 4 -4 Z" style="fill:#fff;fill-rule:evenodd"/>
 <g transform="matrix(0.75,0,0,0.75,12,-739.27165)" style="fill:#268bd2;fill-opacity:1">
  <path d="m 26.519 1026.06 13.481 13.382 l -4.896 4.92 -13.511 -13.411 c -8.621 2.445 -14.162 -3.056 -13.547 -12.225 l 10.03 6.089 2.284 -2.422 -6.158 -9.78 c 8 -1.834 15.394 6.723 12.315 13.447 z"/>
 </g>
</svg>
