<svg xmlns="http://www.w3.org/2000/svg" viewBox="0 0 48 48">
 <path d="m 38 16 l 0 24 c 0 4 0 4 -4 4 l -20 0 c -4 0 -4 0 -4 -4 l 0 -24 c 8 0 22 0 28 0 Z" style="fill:#dc322f"/>
 <g style="fill:#fff;fill-opacity:0.667">
  <path d="m 14 20 l 0 20 l 4 0 l 0 -20 Z"/>
  <path d="m 22 20 l 0 20 l 4 0 l 0 -20 Z"/>
  <path d="m 30 20 l 0 20 l 4 0 l 0 -20 Z"/>
 </g>
 <path d="m 10 12 l 28 0 l 0 -4 l -8 0 l 0 -4 l -12 0 l 0 4 l -8 0 Z" style="fill:#dc322f"/>
 <path d="m 36.535 43.931 c 1.216 -0.51 2.28 -1.096 3.183 -1.755 8.868 -6.963 2.819 -17.346 -7.713 -17.346 l 0 -6 l -12 9 l 12 10.503 0 -6 c 9.03 1.515 9.06 2.881 4.545 10.489 0 0 -1.5 1.515 0 1.111 z" style="fill:#859900;fill-opacity:1"/>
</svg>
