<svg xmlns="http://www.w3.org/2000/svg" viewBox="0 0 48 48">
 <path d="m 12.408 27.15 c -0.222 -0.787 -0.953 -1.332 -1.785 -1.332 l -4.771 0 c -0.556 0 -1.083 0.245 -1.434 0.668 -0.352 0.423 -0.492 0.978 -0.381 1.513 0.843 4.063 2.919 7.717 6 10.568 0.346 0.32 0.801 0.495 1.27 0.495 0.089 0 0.179 -0.007 0.269 -0.019 0.56 -0.081 1.052 -0.409 1.335 -0.89 l 2.408 -4.093 c 0.402 -0.684 0.309 -1.544 -0.231 -2.13 -1.256 -1.361 -2.183 -3.01 -2.682 -4.78" style="fill:#268bd2;fill-opacity:1;stroke:none;fill-rule:nonzero"/>
 <path d="m 28.54 36.414 c -0.336 -0.571 -0.953 -0.909 -1.604 -0.909 c -0.131 0 -0.264 0.014 -0.396 0.042 -0.839 0.18 -1.694 0.271 -2.541 0.271 -1.185 0 -2.356 -0.17 -3.482 -0.507 -0.178 -0.053 -0.36 -0.079 -0.539 -0.079 -0.648 0 -1.267 0.335 -1.604 0.909 l -2.364 4.02 c -0.273 0.465 -0.323 1.023 -0.138 1.527 0.186 0.504 0.588 0.902 1.101 1.088 c 2.24 0.812 4.604 1.224 7.03 1.224 c 2 0 3.982 -0.284 5.877 -0.846 0.542 -0.16 0.979 -0.555 1.187 -1.071 0.208 -0.516 0.165 -1.098 -0.118 -1.579 l -2.406 -4.09" style="fill:#859900;fill-opacity:1;stroke:none;fill-rule:nonzero"/>
 <path d="m 35.59 20.845 c 0.221 0.79 0.952 1.337 1.786 1.337 l 4.771 0 c 0.556 0 1.082 -0.245 1.434 -0.667 c 0.352 -0.422 0.492 -0.977 0.382 -1.511 -0.911 -4.428 -3.366 -8.463 -6.912 -11.361 -0.335 -0.274 -0.756 -0.421 -1.186 -0.421 c -0.108 0 -0.217 0.009 -0.325 0.028 -0.538 0.094 -1.01 0.417 -1.279 0.881 l -2.367 4.03 c -0.43 0.732 -0.29 1.659 0.339 2.237 1.614 1.482 2.775 3.367 3.358 5.452" style="fill:#ee7616;fill-opacity:1;stroke:none;fill-rule:nonzero"/>
 <path d="m 29.876 4.846 c -1.896 -0.561 -3.873 -0.846 -5.877 -0.846 c -2.422 0 -4.787 0.412 -7.03 1.223 -0.512 0.186 -0.915 0.584 -1.101 1.088 -0.186 0.504 -0.135 1.062 0.138 1.527 l 2.364 4.02 c 0.337 0.574 0.956 0.909 1.604 0.909 0.179 0 0.361 -0.026 0.539 -0.079 1.126 -0.336 2.297 -0.507 3.482 -0.507 0.848 0 1.703 0.091 2.541 0.271 0.132 0.028 0.265 0.042 0.396 0.042 0.651 0 1.268 -0.339 1.604 -0.909 l 2.406 -4.09 c 0.283 -0.481 0.326 -1.062 0.118 -1.579 -0.208 -0.516 -0.646 -0.911 -1.187 -1.071" style="fill:#dc322f;fill-opacity:1;stroke:none;fill-rule:nonzero"/>
 <path d="m 42.15 25.818 -4.771 0 c -0.834 0 -1.565 0.547 -1.786 1.337 -0.583 2.085 -1.744 3.971 -3.358 5.452 -0.629 0.578 -0.769 1.505 -0.339 2.237 l 2.367 4.03 c 0.273 0.465 0.741 0.787 1.279 0.881 0.108 0.019 0.217 0.028 0.325 0.028 0.43 0 0.85 -0.147 1.186 -0.421 c 3.546 -2.898 6 -6.934 6.912 -11.361 0.11 -0.534 -0.03 -1.089 -0.382 -1.511 -0.352 -0.422 -0.878 -0.667 -1.434 -0.667" style="fill:#ffcf38;fill-opacity:1;stroke:none;fill-rule:nonzero"/>
 <path d="m 12.913 9.847 c -0.283 -0.481 -0.775 -0.809 -1.335 -0.89 -0.09 -0.013 -0.18 -0.019 -0.269 -0.019 -0.469 0 -0.924 0.175 -1.27 0.495 -3.083 2.851 -5.159 6.505 -6 10.568 -0.111 0.535 0.029 1.09 0.381 1.513 0.352 0.423 0.878 0.668 1.434 0.668 l 4.771 0 c 0.832 0 1.563 -0.545 1.785 -1.332 0.499 -1.766 1.426 -3.419 2.682 -4.78 0.54 -0.585 0.633 -1.446 0.231 -2.13 l -2.408 -4.093" style="fill:#3a4f7a;fill-opacity:1;stroke:none;fill-rule:nonzero"/>
 <path d="m 39.66 15.938 -15.305 3.992 c -1.955 0.51 -3.871 1.284 -4.242 3.387 -0.391 2.22 1.034 4.329 3.18 4.707 1.54 0.271 2.743 -0.686 3.898 -1.652 z" style="fill:#4d4d4d;stroke:none"/>
</svg>
