<svg width="48" xmlns="http://www.w3.org/2000/svg" height="48" viewBox="0 0 48 48" xmlns:xlink="http://www.w3.org/1999/xlink">
<path style="fill:#268bd2;fill-rule:evenodd" d="M 44 24 C 44 35.042969 35.042969 44 24 44 C 12.957031 44 4 35.042969 4 24 C 4 12.957031 12.957031 4 24 4 C 35.042969 4 44 12.957031 44 24 Z "/>
<g style="fill:#fff;fill-opacity:.902">
<path d="M 28 36 L 20 36 L 20 24 L 28 24 L 28 36 "/>
<path style="fill-rule:evenodd" d="M 28 16 C 28 18.203125 26.203125 20 24 20 C 21.796875 20 20 18.203125 20 16 C 20 13.796875 21.796875 12 24 12 C 26.203125 12 28 13.796875 28 16 Z "/>
</g>
</svg>
