<svg width="48" xmlns="http://www.w3.org/2000/svg" height="48" viewBox="0 0 48 48" xmlns:xlink="http://www.w3.org/1999/xlink">
<g style="fill:#268bd2">
<path d="M 40.265625 11.980469 L 36.023438 7.738281 C 31.777344 3.492188 28.949219 6.324219 26.121094 9.152344 L 9.152344 26.121094 C 6.324219 28.949219 3.496094 31.777344 7.738281 36.019531 L 11.980469 40.261719 C 16.222656 44.507812 19.050781 41.675781 21.878906 38.847656 L 38.410156 21.96875 C 41.238281 19.140625 44.507812 16.222656 40.265625 11.980469 Z M 34.609375 17.636719 L 17.636719 34.605469 C 17.636719 34.605469 16.222656 36.019531 14.109375 33.90625 C 11.980469 31.777344 13.394531 30.363281 13.394531 30.363281 L 30.363281 13.394531 C 30.242188 13.515625 31.777344 11.980469 33.953125 14.15625 C 36.023438 16.222656 34.609375 17.636719 34.609375 17.636719 Z "/>
<path d="M 44.507812 7.738281 L 33.191406 19.050781 C 30.363281 21.878906 26.121094 17.636719 28.949219 14.808594 L 40.265625 3.492188 C 43.09375 0.664062 47.335938 4.90625 44.507812 7.738281 Z "/>
<path d="M 19.050781 33.191406 L 7.738281 44.507812 C 4.910156 47.335938 0.667969 43.09375 3.496094 40.261719 L 14.808594 28.949219 C 17.636719 26.121094 21.878906 30.363281 19.050781 33.191406 Z "/>
</g>
<g style="fill-opacity:.102;fill:#000">
<path d="M 44.507812 7.738281 L 33.191406 19.050781 C 30.363281 21.878906 26.121094 17.636719 28.949219 14.808594 L 40.265625 3.492188 C 43.09375 0.664062 47.335938 4.90625 44.507812 7.738281 Z "/>
<path d="M 19.050781 33.191406 L 7.738281 44.507812 C 4.910156 47.335938 0.667969 43.09375 3.496094 40.261719 L 14.808594 28.949219 C 17.636719 26.121094 21.878906 30.363281 19.050781 33.191406 Z "/>
</g>
<path style="fill:#cb4b16" d="M 18 30 L 46 30 L 32 46 Z "/>
</svg>
