<svg xmlns="http://www.w3.org/2000/svg" viewBox="0 0 48 48">
 <path d="m 26.5 5 c -1.123 0 -2.245 0.289 -3.25 0.869 c -2.01 1.16 -3.25 3.309 -3.25 5.629 l 0 20.502 c 0 1.427 0.764 2.751 2 3.465 1.236 0.714 2.764 0.714 4 0 1.236 -0.714 2 -2.038 2 -3.465 l 0 -15 c 0 -0.554 -0.446 -1 -1 -1 l -1 0 c -0.554 0 -1 0.446 -1 1 l 0 15 c 0 0.36 -0.189 0.687 -0.5 0.867 -0.311 0.18 -0.689 0.18 -1 0 c -0.311 -0.18 -0.5 -0.507 -0.5 -0.867 l 0 -20.502 c 0 -1.253 0.665 -2.405 1.75 -3.03 1.085 -0.627 2.415 -0.627 3.5 0 c 1.085 0.627 1.75 1.778 1.75 3.03 l 0 22.502 c 0 2.146 -1.142 4.122 -3 5.195 -1.858 1.073 -4.142 1.073 -6 0 c -1.858 -1.073 -3 -3.049 -3 -5.195 l 0 -19 c 0 -0.554 -0.446 -1 -1 -1 l -1 0 c -0.554 0 -1 0.446 -1 1 l 0 19 c 0 3.213 1.717 6.188 4.5 7.795 2.783 1.607 6.217 1.607 9 0 c 2.783 -1.607 4.5 -4.582 4.5 -7.795 l 0 -22.502 c 0 -2.32 -1.241 -4.469 -3.25 -5.629 -1 -0.58 -2.127 -0.869 -3.25 -0.869" style="fill:#808080;opacity:1;fill-opacity:1;stroke:none;fill-rule:nonzero"/>
</svg>
