<svg width="48" xmlns="http://www.w3.org/2000/svg" height="48" viewBox="0 0 48 48" xmlns:xlink="http://www.w3.org/1999/xlink">
<g style="fill-rule:evenodd">
<path style="fill:#859900" d="M 24.085938 17.707031 L 10.335938 28.707031 C 7.578125 31.464844 7.585938 31.457031 10.335938 34.207031 L 24.085938 45.207031 C 26 46.742188 26 46.171875 26 42.378906 C 26.039062 41.003906 26.085938 39.457031 26 37.457031 C 26.03125 37.457031 25.96875 37.457031 26 37.457031 C 39.664062 37.457031 46.085938 19.085938 46 8 C 40.585938 13.585938 34.25 25.628906 26 25.457031 C 26 23.488281 26.039062 22.785156 26 21.457031 C 26 19.457031 26 16.347656 24.085938 17.707031 Z "/>
<path style="fill:#000;fill-opacity:.102" d="M 24.085938 17.707031 L 10.335938 28.707031 C 7.578125 31.464844 7.585938 31.457031 10.335938 34.207031 L 24.085938 45.207031 C 26 46.742188 26 46.171875 26 42.378906 C 26.039062 41.003906 26.085938 39.457031 26 37.457031 C 26.03125 37.457031 25.96875 37.457031 26 37.457031 C 39.664062 37.457031 46.085938 19.085938 46 8 C 40.585938 13.585938 34.25 25.628906 26 25.457031 C 26 23.488281 26.039062 22.785156 26 21.457031 C 26 19.457031 26 16.347656 24.085938 17.707031 Z "/>
<path style="fill:#859900" d="M 24.085938 8.21875 L 10.335938 19.21875 C 7.578125 21.976562 7.585938 21.96875 10.335938 24.71875 L 24.085938 35.71875 C 26 37.253906 26 36.683594 26 32.890625 C 26.039062 31.515625 26.085938 29.96875 26 27.96875 C 26.03125 27.96875 25.96875 27.96875 26 27.96875 C 39.664062 27.96875 46.085938 19.21875 46 8.132812 C 40.585938 13.71875 34.25 16.140625 26 15.96875 C 26 14 26.039062 13.296875 26 11.96875 C 26 9.96875 26 6.859375 24.085938 8.21875 Z "/>
</g>
</svg>
