<svg width="48" xmlns="http://www.w3.org/2000/svg" height="48" viewBox="0 0 48 48" xmlns:xlink="http://www.w3.org/1999/xlink">
<g style="fill:#268bd2">
<path d="M 6 14 C 2 14 2 14 2 18 L 2 42 C 2 46 2 46 6 46 L 42 46 C 46 46 46 46 46 42 C 46 33.148438 46 23.117188 46 18 C 46 14 46 14 42 14 Z "/>
<path d="M 6 46 L 42 46 C 46 46 46 46 46 42 L 46 18 L 2 42 C 2 46 2 46 6 46 Z "/>
</g>
<path style="fill:#000;fill-opacity:.102" d="M 6 46 L 42 46 C 46 46 46 46 46 42 L 46 18 L 2 42 C 2 46 2 46 6 46 Z "/>
<path style="fill:#268bd2" d="M 42 46 L 6 46 C 2 46 2 46 2 42 L 2 18 L 46 42 C 46 46 46 46 42 46 Z "/>
<path style="fill:#fff;fill-opacity:.102" d="M 2 18 L 24 30 L 46 18 C 46 14 46 14 42 14 L 6 14 C 2 14 2 14 2 18 Z "/>
<path style="fill:#f27d0c" d="M 22 10 C 16 34 28 32 38 40 C 40 34 38 34 38 32 C 38 32 40 28 44 34 C 44 30 52 20 38 8 C 38 14 34 14 34 14 C 32 12 32 10 32 8 C 32 6 32 2 32 2 C 28 4 26 8 26 12 L 26 16 C 26 16 24 16 22 10 Z "/>
<path style="fill:#dc322f;fill-rule:evenodd" d="M 29.5 44.71875 C 29.5 45.070312 29.546875 45.476562 29.625 45.929688 C 30.265625 46.023438 30.804688 45.992188 31.28125 45.929688 C 31.4375 45.929688 31.585938 45.953125 31.726562 45.929688 C 32.203125 45.875 32.664062 45.703125 33.070312 45.359375 C 33.203125 45.242188 33.320312 45.132812 33.445312 44.976562 C 34.195312 44.28125 34.898438 43.53125 35.617188 42.804688 L 37.78125 40.640625 C 38.492188 41.367188 39.226562 42.078125 39.945312 42.804688 C 40.664062 43.53125 41.375 44.265625 42.109375 44.976562 C 42.21875 45.125 42.367188 45.25 42.492188 45.359375 C 42.640625 45.492188 42.78125 45.59375 42.9375 45.679688 C 43.234375 45.828125 43.5625 45.890625 43.890625 45.929688 C 44.101562 45.960938 44.3125 46 44.53125 46 C 44.632812 46 44.742188 46 44.851562 46 C 45.21875 45.984375 45.570312 45.9375 45.929688 45.929688 C 45.984375 45.570312 45.992188 45.21875 46 44.914062 C 46 44.851562 46 44.78125 46 44.71875 C 45.992188 44.578125 45.945312 44.46875 45.929688 44.335938 C 45.929688 44.3125 45.9375 44.296875 45.929688 44.273438 C 45.90625 43.617188 45.820312 43 45.359375 42.484375 C 45.242188 42.351562 45.132812 42.234375 44.976562 42.101562 L 40.648438 37.765625 L 44.976562 33.429688 C 45.125 33.320312 45.25 33.164062 45.359375 33.046875 C 45.492188 32.898438 45.59375 32.757812 45.679688 32.601562 C 45.828125 32.3125 45.890625 32.015625 45.929688 31.703125 C 45.976562 31.351562 46.007812 30.992188 46 30.617188 C 45.992188 30.3125 45.984375 29.96875 45.929688 29.601562 C 45.265625 29.484375 44.734375 29.476562 44.273438 29.539062 C 44.101562 29.539062 43.9375 29.570312 43.765625 29.601562 C 43.15625 29.695312 42.546875 29.945312 42.109375 30.554688 C 41.359375 31.25 40.664062 32 39.945312 32.726562 L 37.78125 34.898438 L 33.445312 30.554688 C 33.320312 30.398438 33.203125 30.289062 33.070312 30.171875 C 32.921875 30.046875 32.773438 29.9375 32.617188 29.851562 C 32.359375 29.71875 32.085938 29.640625 31.796875 29.601562 C 31.773438 29.59375 31.75 29.601562 31.726562 29.601562 C 31.140625 29.460938 30.46875 29.484375 29.625 29.601562 C 29.515625 30.273438 29.507812 30.796875 29.5625 31.257812 C 29.585938 31.421875 29.578125 31.617188 29.625 31.765625 C 29.648438 31.835938 29.671875 31.898438 29.6875 31.960938 C 29.804688 32.5 30.03125 33.03125 30.585938 33.429688 C 31.28125 34.179688 32.023438 34.875 32.75 35.59375 C 33.476562 36.3125 34.1875 37.054688 34.914062 37.765625 C 34.1875 38.460938 33.460938 39.15625 32.75 39.875 C 32.734375 39.882812 32.757812 39.921875 32.75 39.9375 C 32.023438 40.65625 31.28125 41.359375 30.585938 42.101562 C 30.429688 42.210938 30.3125 42.367188 30.203125 42.484375 C 30.125 42.570312 30.070312 42.648438 30.007812 42.742188 C 29.976562 42.789062 29.90625 42.820312 29.882812 42.867188 C 29.875 42.890625 29.890625 42.914062 29.882812 42.9375 C 29.75 43.195312 29.671875 43.476562 29.625 43.765625 C 29.625 43.804688 29.632812 43.851562 29.625 43.890625 C 29.5625 44.148438 29.5 44.414062 29.5 44.71875 Z "/>
</svg>
