<svg xmlns="http://www.w3.org/2000/svg" viewBox="0 0 48 48">
 <rect style="fill:#3daee9;opacity:1;fill-opacity:1;stroke:none;fill-rule:nonzero" transform="matrix(0 -1 -1 0 0 0)" y="-21" width="2" x="-40" height="10"/>
 <rect style="fill:#3daee9;opacity:1;fill-opacity:1;stroke:none;fill-rule:nonzero" transform="matrix(0 -1 -1 0 0 0)" y="-37" x="-40" width="2" height="10"/>
 <rect width="6" height="6" transform="matrix(1 0 0 -1 0 0)" y="-42" x="21" style="stroke-dasharray:none;stroke-opacity:1;fill:none;opacity:1;stroke-miterlimit:4;stroke:#313131;stroke-linecap:butt;stroke-linejoin:miter;stroke-width:2;stroke-dashoffset:0"/>
 <rect style="fill:#3daee9;opacity:1;fill-opacity:1;stroke:none;fill-rule:nonzero" transform="matrix(0 -1 -1 0 0 0)" y="-20" x="-12" width="2" height="8.5"/>
 <rect width="4" height="4" transform="matrix(1 0 0 -1 0 0)" y="-13" x="8" style="stroke-dasharray:none;stroke-opacity:1;fill:none;opacity:1;stroke-miterlimit:4;stroke:#313131;stroke-linecap:butt;stroke-linejoin:miter;stroke-width:2;stroke-dashoffset:0"/>
 <path style="fill:#cb4b16" d="m 24 28 5 -6 -10 0 z"/>
 <rect style="fill:#3daee9;opacity:1;fill-opacity:1;stroke:none;fill-rule:nonzero" transform="matrix(0 -1 -1 0 0 0)" y="-36.5" width="2" x="-12" height="8.5"/>
 <rect width="4" height="4" transform="matrix(1 0 0 -1 0 0)" y="-13" x="36" style="stroke-dasharray:none;stroke-opacity:1;fill:none;opacity:1;stroke-miterlimit:4;stroke:#313131;stroke-linecap:butt;stroke-linejoin:miter;stroke-width:2;stroke-dashoffset:0"/>
</svg>
