<svg xmlns="http://www.w3.org/2000/svg" viewBox="0 0 48 48">
 <rect y="12.5" width="2" x="9" height="23" style="fill:#3daee9;opacity:1;fill-opacity:1;stroke:none;fill-rule:nonzero"/>
 <rect width="2" y="-35.5" x="9" height="23" transform="matrix(0 1 -1 0 0 0)" style="fill:#3daee9;opacity:1;fill-opacity:1;stroke:none;fill-rule:nonzero"/>
 <circle r="3" cy="9" cx="9" style="stroke-dasharray:none;stroke-opacity:1;fill:none;opacity:1;stroke-miterlimit:4;stroke:#313131;stroke-linecap:butt;stroke-linejoin:round;stroke-width:2;stroke-dashoffset:0"/>
 <rect width="2" y="12.5" x="37" height="14.5" style="fill:#3daee9;opacity:1;fill-opacity:1;stroke:none;fill-rule:nonzero"/>
 <rect y="6" width="6" x="36" height="6" style="stroke-dasharray:none;stroke-opacity:1;fill:none;opacity:1;stroke-miterlimit:4;stroke:#313131;stroke-linecap:butt;stroke-linejoin:miter;stroke-width:2;stroke-dashoffset:0"/>
 <rect y="-27" width="2" x="37" height="14.5" transform="matrix(0 1 -1 0 0 0)" style="fill:#3daee9;opacity:1;fill-opacity:1;stroke:none;fill-rule:nonzero"/>
 <rect y="36" width="6" x="6" height="6" style="stroke-dasharray:none;stroke-opacity:1;fill:none;opacity:1;stroke-miterlimit:4;stroke:#313131;stroke-linecap:butt;stroke-linejoin:miter;stroke-width:2;stroke-dashoffset:0"/>
 <path d="m 47 35 -6 0 0 -6 -6 0 0 6 -6 0 0 6 6 0 0 6 6 0 0 -6 6 0 z" style="fill:#859900"/>
</svg>
