<svg xmlns="http://www.w3.org/2000/svg" width="48" height="48" viewBox="0 0 48 48">
 <g>
  <path d="M 6.285156 4 C 5.144531 4 4 5.140625 4 6.285156 L 4 41.777344 C 4 42.855469 5.144531 44 6.222656 44 L 41.777344 44 C 42.859375 44 44 42.855469 44 41.777344 L 44 6.222656 C 44 5.140625 42.859375 4 41.777344 4 Z " fill="#c19553"/>
  <path d="M 6.285156 4 C 5.144531 4 4 5.144531 4 6.285156 L 4 18 C 8.445312 18 39.554688 18 44 18 L 44 6.222656 C 44 5.144531 42.859375 4 41.777344 4 Z " fill="#ffffff" fill-opacity="0.196"/>
  <path d="M 20 8 L 20 26 L 28 26 L 28 8 Z " fill="#ffffff" fill-opacity="0.392"/>
  <path d="M 22 30 L 46 30 L 46 38 L 22 38 Z " fill="#dc312f"/>
 </g>
</svg>
