<svg xmlns="http://www.w3.org/2000/svg" viewBox="0 0 48 48">
 <path d="m 6.285 4 c -1.141 0 -2.285 1.145 -2.285 2.285 l 0 35.492 c 0 1.078 1.145 2.223 2.223 2.223 l 35.555 0 c 1.082 0 2.223 -1.145 2.223 -2.223 l 0 -35.555 c 0 -1.078 -1.141 -2.223 -2.223 -2.223 Z" style="fill:#c19553"/>
 <g style="fill:#fff">
  <path d="m 6.285 4 c -1.141 0 -2.285 1.145 -2.285 2.285 l 0 11.715 c 4.445 0 35.555 0 40 0 l 0 -11.777 c 0 -1.078 -1.141 -2.223 -2.223 -2.223 Z" style="fill-opacity:0.196"/>
  <path d="m 20 8 l 0 18 l 8 0 l 0 -18 Z" style="fill-opacity:0.392"/>
 </g>
 <g transform="matrix(0.475,0,0,0.54285714,25.1,22.114286)">
  <path d="m 24 4 c 6 0 14 0 14 10 l 0 6 c 2 0 6 -0.004 6 4 l 0 16 c 0 4 -3.844 4 -6 4 l -28 0 c -2.156 0 -6 0 -6 -4 l 0 -16 c 0 -4 4 -4 6 -4 l 0 -6 c 0 -10 8 -10 14 -10 m 0 6 c -2 0 -8 0 -8 6 l 0 4 16 0 0 -4 c 0 -6 -6 -6 -8 -6 z" style="fill:#859900"/>
  <path d="m 24 28 c -2.211 0 -4 1.789 -4 4 0 1.48 0.805 2.746 2 3.438 l 0 6.563 l 4 0 0 -6.563 c 1.195 -0.691 2 -1.957 2 -3.438 0 -2.211 -1.789 -4 -4 -4" style="fill:#000;fill-opacity:0.102"/>
 </g>
</svg>
