<svg width="48" xmlns="http://www.w3.org/2000/svg" height="48" viewBox="0 0 48 48" xmlns:xlink="http://www.w3.org/1999/xlink">
<path style="fill:#c19553" d="M 6.285156 4 C 5.144531 4 4 5.144531 4 6.285156 L 4 41.777344 C 4 42.855469 5.144531 44 6.222656 44 L 41.777344 44 C 42.859375 44 44 42.855469 44 41.777344 L 44 6.222656 C 44 5.144531 42.859375 4 41.777344 4 Z "/>
<g style="fill:#fff">
<path style="fill-opacity:.196" d="M 6.285156 4 C 5.144531 4 4 5.144531 4 6.285156 L 4 18 C 8.445312 18 39.554688 18 44 18 L 44 6.222656 C 44 5.144531 42.859375 4 41.777344 4 Z "/>
<path style="fill-opacity:.392" d="M 20 8 L 20 26 L 28 26 L 28 8 Z "/>
</g>
<path style="fill:#859900" d="M 36 48 L 48 36 L 40 36 L 40 24 L 32 24 L 32 36 L 24 36 Z "/>
</svg>
