<svg xmlns="http://www.w3.org/2000/svg" viewBox="0 0 48 48">
 <path d="M 8,6 C 6.892,6 6,6.892 6,8 L 6,26 9.2695312,26 20,15.273438 20,8 C 20,6.892 19.108,6 18,6 L 8,6 Z" style="fill:#26d285;opacity:1;fill-opacity:1;stroke:none;fill-rule:nonzero"/>
 <path d="m 30.629 8.297 c -0.511 0 -1.022 0.198 -1.414 0.59 l -17.12 17.11 l 19.801 0 7.215 -7.215 c 0.783 -0.783 0.783 -2.045 0 -2.828 l -7.07 -7.07 c -0.392 -0.392 -0.903 -0.59 -1.414 -0.59 z" style="fill:#26d2cc;opacity:1;fill-opacity:1;stroke:none;fill-rule:nonzero"/>
 <path d="m 8,28 c -1.108,0 -2,0.892 -2,2 l 0,10 c 0,1.108 0.892,2 2,2 l 32,0 c 1.108,0 2,-0.892 2,-2 l 0,-10 c 0,-1.108 -0.892,-2 -2,-2 L 8,28 Z m 5,4 a 3,3 0 0 1 3,3 3,3 0 0 1 -3,3 3,3 0 0 1 -3,-3 3,3 0 0 1 3,-3 z" style="fill:#268bd2;opacity:1;fill-opacity:1;stroke:none;fill-rule:nonzero"/>
</svg>
