<svg xmlns="http://www.w3.org/2000/svg" viewBox="0 0 48 48">
 <path d="m 8 31.467 8.533 0 0 8.533 l -8.533 0 z" style="fill:#34d046;fill-opacity:1;color:#000"/>
 <path d="m 8 23.467 8.533 0 0 8.533 l -8.533 0 z" style="fill:#dc322f;fill-opacity:1;color:#000"/>
 <path d="m 8 15.467 8.533 0 0 8.533 l -8.533 0 z" style="fill:#268bd2;fill-opacity:1;color:#000"/>
 <path d="m 8,8 8.533333,0 0,8 L 8,16 Z" style="fill:#ffe546;fill-opacity:1;color:#000"/>
 <path d="m 16 31.467 8.533 0 0 8.533 l -8.533 0 z" style="fill:#f27d0c;fill-opacity:1;color:#000"/>
 <path d="m 16 23.467 8.533 0 0 8.533 l -8.533 0 z" style="fill:#268bd2;fill-opacity:1;color:#000"/>
 <path d="m 16 15.467 8.533 0 0 8.533 l -8.533 0 z" style="fill:#f27d0c;fill-opacity:1;color:#000"/>
 <path d="m 24 31.467 8.533 0 0 8.533 l -8.533 0 z" style="fill:#dc322f;fill-opacity:1;color:#000"/>
 <path d="m 32 31.467 8 0 l 0 8.533 -8 0 z" style="fill:#268bd2;fill-opacity:1;color:#000"/>
 <path d="m 24 23.467 8.533 0 0 8.533 l -8.533 0 z" style="fill:#ffe546;fill-opacity:1;color:#000"/>
 <path d="m 32 23.467 8 0 l 0 8.533 -8 0 z" style="fill:#f27d0c;fill-opacity:1;color:#000"/>
 <path d="m 16 8 8.533 0 0 8 l -8.533 0 z" style="fill:#dc322f;fill-opacity:1;color:#000"/>
 <path d="m 24 15.467 8.533 0 0 8.533 l -8.533 0 z" style="fill:#34d046;fill-opacity:1;color:#000"/>
 <path d="m 32 15.467 8 0 l 0 8.533 -8 0 z" style="fill:#dc322f;fill-opacity:1;color:#000"/>
 <path d="m 24 8 8.533 0 0 8 l -8.533 0 z" style="fill:#268bd2;fill-opacity:1;color:#000"/>
 <path d="m 32 8 8 0 0 8 -8 0 z" style="fill:#ffe546;fill-opacity:1;color:#000"/>
</svg>
