<svg width="48" xmlns="http://www.w3.org/2000/svg" height="48" viewBox="0 0 48 48" xmlns:xlink="http://www.w3.org/1999/xlink">
<g style="fill-rule:evenodd">
<path style="fill:#dc322f" d="M 44 24 C 44 35.046875 35.046875 44 24 44 C 12.953125 44 4 35.046875 4 24 C 4 12.953125 12.953125 4 24 4 C 35.046875 4 44 12.953125 44 24 Z "/>
<path style="fill:#fff" d="M 14.011719 14 L 14.011719 17.332031 C 13.9375 18.269531 14.25 19.222656 14.953125 19.871094 L 19.226562 24.074219 L 14.953125 28.277344 C 14.324219 28.902344 14.011719 29.785156 14.011719 30.667969 L 14.011719 34 L 17.34375 34 C 18.222656 34 19.105469 33.683594 19.730469 33.058594 L 24.003906 28.78125 L 28.277344 33.058594 C 28.902344 33.683594 29.785156 34 30.667969 34 L 34 34 L 34 30.667969 C 34 29.785156 33.683594 28.902344 33.058594 28.277344 L 28.859375 24.074219 L 33.132812 19.871094 C 33.847656 19.207031 34 18.289062 34 17.332031 L 34 14 L 30.667969 14 C 29.867188 14.023438 29.234375 14.320312 28.351562 15.085938 L 24.003906 19.289062 L 19.730469 15.085938 C 19.140625 14.476562 18.335938 14.039062 17.488281 14 C 17.453125 14 17.375 14 17.34375 14 Z "/>
<path style="fill:#dc322f;fill-opacity:.102" d="M 14.011719 14 L 14.011719 17.332031 C 13.9375 18.269531 14.25 19.222656 14.953125 19.871094 L 19.226562 24.074219 L 14.953125 28.277344 C 14.324219 28.902344 14.011719 29.785156 14.011719 30.667969 L 14.011719 34 L 17.34375 34 C 18.222656 34 19.105469 33.683594 19.730469 33.058594 L 24.003906 28.78125 L 28.277344 33.058594 C 28.902344 33.683594 29.785156 34 30.667969 34 L 34 34 L 34 30.667969 C 34 29.785156 33.683594 28.902344 33.058594 28.277344 L 28.859375 24.074219 L 33.132812 19.871094 C 33.847656 19.207031 34 18.289062 34 17.332031 L 34 14 L 30.667969 14 C 29.867188 14.023438 29.234375 14.320312 28.351562 15.085938 L 24.003906 19.289062 L 19.730469 15.085938 C 19.140625 14.476562 18.335938 14.039062 17.488281 14 C 17.453125 14 17.375 14 17.34375 14 Z "/>
</g>
</svg>
