<svg xmlns="http://www.w3.org/2000/svg" viewBox="0 0 48 48">
 <path d="m 8.5 18 c -0.277 0 -0.5 0.223 -0.5 0.5 l 0 21 c 0 0.277 0.223 0.5 0.5 0.5 l 26 0 c 0.277 0 0.5 -0.223 0.5 -0.5 l 0 -9.771 a 12 12 0 0 1 -19 -9.729 a 12 12 0 0 1 0.182 -2 l -7.682 0 z" style="fill:#2aa198;fill-opacity:1;stroke:none;display:inline;color:#000"/>
 <path d="m 28.35 8.01 c -5.979 -0.168 -11.168 4.093 -12.168 9.99 l 18.318 0 c 0.277 0 0.5 0.223 0.5 0.5 l 0 11.229 c 3.134 -2.251 4.994 -5.871 5 -9.729 -0.003 -6.489 -5.164 -11.801 -11.65 -11.99" style="fill:#df4441;fill-opacity:1;stroke:none;display:inline;color:#000"/>
</svg>
