<svg xmlns="http://www.w3.org/2000/svg" viewBox="0 0 48 48">
 <rect width="8" height="28" x="20" y="-38" transform="matrix(0,1,-1,0,0,0)" style="fill:#cecece;opacity:1;fill-opacity:1;stroke:none;fill-rule:nonzero"/>
 <path d="m 8 8 l 0 2 l 0 8 l 0 2 l 0 8 l 0 2 l 0 8 l 0 2 l 10 0 l 2 0 l 20 0 l 0 -2 l 0 -30 l -20 0 l -2 0 l -10 0 z m 2 2 l 8 0 l 0 8 l -8 0 l 0 -8 z m 10 0 l 8 0 l 0 8 l -8 0 l 0 -8 z m 10 0 l 8 0 l 0 8 l -8 0 l 0 -8 z m -20 10 l 8 0 l 0 8 l -8 0 l 0 -8 z m 10 0 l 8 0 l 0 8 l -8 0 l 0 -8 z m 10 0 l 8 0 l 0 8 l -8 0 l 0 -8 z m -20 10 l 8 0 l 0 8 l -8 0 l 0 -8 z m 10 0 l 8 0 l 0 8 l -8 0 l 0 -8 z m 10 0 l 8 0 l 0 8 l -8 0 l 0 -8 z" style="fill:#888;opacity:1;fill-opacity:1;stroke:none;fill-rule:nonzero"/>
</svg>
