<svg xmlns="http://www.w3.org/2000/svg" viewBox="0 0 48 48">
 <path d="m 12,6 24,0 c 4,0 4,0 4,4 l 0,28 c 0,4 0,4 -4,4 L 12,42 C 8,42 8,42 8,38 L 8,10 C 8,6 8,6 12,6 Z" style="fill:#6c71c4;fill-rule:evenodd"/>
 <path d="m 18.449 15.14 c -0.887 3.113 -0.906 7.422 0.676 9.547 c 0.664 1.01 1.57 2.332 0.859 3.539 -1.313 1.883 -3.504 2.898 -5.496 3.922 -0.68 0.07 -0.434 0.691 -0.477 1.148 -0.004 0.367 -0.113 0.844 0.43 0.672 l 19.12 0 c 0.543 0.172 0.434 -0.305 0.43 -0.672 -0.043 -0.457 0.203 -1.078 -0.477 -1.148 -1.992 -1.023 -4.184 -2.039 -5.496 -3.922 -0.711 -1.207 0.195 -2.531 0.859 -3.539 1.672 -2.313 1.887 -7.348 0.668 -9.617 c -1.098 -1.965 -2.211 -2.992 -5.543 -3.066 c -3.34 0.133 -4.445 1.102 -5.551 3.137 z" style="fill:#2d2d2d;fill-opacity:0.533"/>
</svg>
