<svg xmlns="http://www.w3.org/2000/svg" viewBox="0 0 48 48">
 <g transform="matrix(0.77272727,0,0,0.78125,0.45454546,-8.9375)" style="fill:#268bd2">
  <path d="m 6 14 c -4 0 -4 0 -4 4 l 0 24 c 0 4 0 4 4 4 l 36 0 c 4 0 4 0 4 -4 0 -8.852 0 -18.883 0 -24 0 -4 0 -4 -4 -4 z"/>
  <path d="m 6,46 36,0 c 4,0 4,0 4,-4 L 46,18 2,42 c 0,4 0,4 4,4 z"/>
 </g>
 <path d="m 5.091 27 27.818 0 c 3.091 0 3.091 0 3.091 -3.125 l 0 -18.75 -34 18.75 c 0 3.125 0 3.125 3.091 3.125 z" style="fill:#000;fill-opacity:0.102"/>
 <path d="m 32.909 27 -27.818 0 c -3.091 0 -3.091 0 -3.091 -3.125 l 0 -18.75 l 34 18.75 c 0 3.125 0 3.125 -3.091 3.125" style="fill:#268bd2"/>
 <path d="m 2 5.125 17 9.375 17 -9.375 c 0 -3.125 0 -3.125 -3.091 -3.125 l -27.818 0 c -3.091 0 -3.091 0 -3.091 3.125" style="fill:#fff;fill-opacity:0.102"/>
 <g transform="matrix(0.77272727,0,0,0.78125,10.454545,10.0625)" style="fill:#268bd2">
  <path d="m 6 14 c -4 0 -4 0 -4 4 l 0 24 c 0 4 0 4 4 4 l 36 0 c 4 0 4 0 4 -4 0 -8.852 0 -18.883 0 -24 0 -4 0 -4 -4 -4 z"/>
  <path d="m 6,46 36,0 c 4,0 4,0 4,-4 L 46,18 2,42 c 0,4 0,4 4,4 z"/>
 </g>
 <path d="m 15.090909,46 27.818182,0 C 46,46 46,46 46,42.875 l 0,-18.75 -34,18.75 C 12,46 12,46 15.090909,46 Z" style="fill:#000;fill-opacity:0.102"/>
 <path d="M 42.909091,46 15.090909,46 C 12,46 12,46 12,42.875 l 0,-18.75 34,18.75 C 46,46 46,46 42.909091,46 Z" style="fill:#268bd2"/>
 <path d="M 12,24.125 29,33.5 46,24.125 C 46,21 46,21 42.909091,21 L 15.090909,21 C 12,21 12,21 12,24.125 Z" style="fill:#fff;fill-opacity:0.102"/>
 <path d="m 41.12 14.914 c 2.055 9.23 1.5 8.09 -6.156 4.195 -8.03 4.238 -7.75 4.598 -6.094 -4.285 -7.227 -6.25 -6.398 -5.688 2.375 -6.84 3.953 -8.281 3.617 -7.688 7.578 0.055 9.258 1.07 9.04 0.707 2.297 6.875 z" style="fill:#cb4b16;fill-rule:evenodd"/>
</svg>
