<svg xmlns="http://www.w3.org/2000/svg" viewBox="0 0 48 48">
 <path style="visibility:visible;shape-rendering:auto;color-interpolation-filters:linearRGB;fill:#50b34a;opacity:0.4;image-rendering:auto;fill-opacity:1;text-rendering:auto;stroke:none;display:inline;color:#000;fill-rule:nonzero;color-rendering:auto;color-interpolation:sRGB" d="M 40.703124,7 C 22.181208,7 7,22.181206 7,40.703124 L 7,42 19.035156,42 A 22,22 0 0 1 19,41 22,22 0 0 1 41,19 a 22,22 0 0 1 1,0.05078 L 42,7 40.703124,7 Z"/>
 <path transform="matrix(-1 0 0 -1 0 0)" style="stroke-dasharray:none;stroke-opacity:1;fill:none;opacity:1;stroke-miterlimit:4;stroke:#50b34a;stroke-linecap:square;stroke-linejoin:round;stroke-width:2;stroke-dashoffset:0" d="M -7 -41 A 34 33.999996 0 0 1 -40.999999 -7"/>
 <rect width="6" style="stroke-dasharray:none;stroke-opacity:1;fill:#fff;opacity:1;stroke-miterlimit:4;fill-opacity:1;stroke:#313131;fill-rule:nonzero;stroke-linecap:butt;stroke-linejoin:miter;stroke-width:2;stroke-dashoffset:0" y="7" x="25" height="6"/>
 <rect width="6" style="stroke-dasharray:none;stroke-opacity:1;fill:#fff;opacity:1;stroke-miterlimit:4;fill-opacity:1;stroke:#313131;fill-rule:nonzero;stroke-linecap:butt;stroke-linejoin:miter;stroke-width:2;stroke-dashoffset:0" y="25" x="7" height="6"/>
 <path transform="matrix(-1 0 0 -1 0 0)" style="stroke-dasharray:none;stroke-opacity:1;fill:none;opacity:1;stroke-miterlimit:4;stroke:#50b34a;stroke-linecap:square;stroke-linejoin:round;stroke-width:2;stroke-dashoffset:0" d="m -18.999996 -41 a 22 22 0 0 1 -22 22"/>
 <rect width="6" style="stroke-dasharray:none;stroke-opacity:1;fill:#fff;opacity:1;stroke-miterlimit:4;fill-opacity:1;stroke:#313131;fill-rule:nonzero;stroke-linecap:butt;stroke-linejoin:miter;stroke-width:2;stroke-dashoffset:0" y="31" x="17" height="6"/>
 <rect width="6" style="stroke-dasharray:none;stroke-opacity:1;fill:#fff;opacity:1;stroke-miterlimit:4;fill-opacity:1;stroke:#313131;fill-rule:nonzero;stroke-linecap:butt;stroke-linejoin:miter;stroke-width:2;stroke-dashoffset:0" y="17" x="31" height="6"/>
</svg>
