<svg width="48" xmlns="http://www.w3.org/2000/svg" height="48" viewBox="0 0 48 48" xmlns:xlink="http://www.w3.org/1999/xlink">
<path style="fill:#888" d="M 12.3125 11.996094 C 11.910156 11.996094 11.5625 12.347656 11.5625 12.746094 L 11.5625 14.621094 C 10.675781 14.851562 9.890625 15.289062 9.125 15.746094 L 7.71875 14.246094 C 7.4375 13.964844 6.96875 13.964844 6.6875 14.246094 L 4.25 16.683594 C 3.96875 16.964844 3.96875 17.433594 4.25 17.714844 L 5.75 19.121094 C 5.289062 19.890625 4.855469 20.675781 4.625 21.558594 L 2.75 21.558594 C 2.347656 21.558594 2 21.910156 2 22.308594 L 2 25.683594 C 2 26.085938 2.347656 26.433594 2.75 26.433594 L 4.625 26.433594 C 4.855469 27.320312 5.289062 28.105469 5.75 28.871094 L 4.25 30.277344 C 3.96875 30.558594 3.96875 31.027344 4.25 31.308594 L 6.6875 33.746094 C 6.96875 34.027344 7.4375 34.027344 7.71875 33.746094 L 9.125 32.246094 C 9.890625 32.707031 10.675781 33.144531 11.5625 33.371094 L 11.5625 35.246094 C 11.5625 35.648438 11.910156 35.996094 12.3125 35.996094 L 15.6875 35.996094 C 16.089844 35.996094 16.4375 35.648438 16.4375 35.246094 L 16.4375 33.371094 C 17.324219 33.144531 18.109375 32.707031 18.875 32.246094 L 20.28125 33.746094 C 20.5625 34.027344 21.03125 34.027344 21.3125 33.746094 L 23.75 31.308594 C 24.03125 31.027344 24.03125 30.558594 23.75 30.277344 L 22.25 28.871094 C 22.710938 28.105469 23.144531 27.320312 23.375 26.433594 L 25.25 26.433594 C 25.652344 26.433594 26 26.085938 26 25.683594 L 26 22.308594 C 26 21.910156 25.652344 21.558594 25.25 21.558594 L 23.375 21.558594 C 23.144531 20.675781 22.710938 19.890625 22.25 19.121094 L 23.75 17.714844 C 24.03125 17.433594 24.03125 16.964844 23.75 16.683594 L 21.3125 14.246094 C 21.03125 13.964844 20.5625 13.964844 20.28125 14.246094 L 18.875 15.746094 C 18.109375 15.289062 17.324219 14.851562 16.4375 14.621094 L 16.4375 12.746094 C 16.4375 12.347656 16.089844 11.996094 15.6875 11.996094 Z M 14 20.996094 C 15.652344 20.996094 17 22.34375 17 23.996094 C 17 25.652344 15.652344 26.996094 14 26.996094 C 12.347656 26.996094 11 25.652344 11 23.996094 C 11 22.34375 12.347656 20.996094 14 20.996094 Z "/>
<path style="fill:#000;fill-opacity:.102" d="M 12.3125 11.996094 C 11.910156 11.996094 11.5625 12.347656 11.5625 12.746094 L 11.5625 14.621094 C 10.675781 14.851562 9.890625 15.289062 9.125 15.746094 L 7.71875 14.246094 C 7.4375 13.964844 6.96875 13.964844 6.6875 14.246094 L 4.25 16.683594 C 3.96875 16.964844 3.96875 17.433594 4.25 17.714844 L 5.75 19.121094 C 5.289062 19.890625 4.855469 20.675781 4.625 21.558594 L 2.75 21.558594 C 2.347656 21.558594 2 21.910156 2 22.308594 L 2 25.683594 C 2 26.085938 2.347656 26.433594 2.75 26.433594 L 4.625 26.433594 C 4.855469 27.320312 5.289062 28.105469 5.75 28.871094 L 4.25 30.277344 C 3.96875 30.558594 3.96875 31.027344 4.25 31.308594 L 6.6875 33.746094 C 6.96875 34.027344 7.4375 34.027344 7.71875 33.746094 L 9.125 32.246094 C 9.890625 32.707031 10.675781 33.144531 11.5625 33.371094 L 11.5625 35.246094 C 11.5625 35.648438 11.910156 35.996094 12.3125 35.996094 L 15.6875 35.996094 C 16.089844 35.996094 16.4375 35.648438 16.4375 35.246094 L 16.4375 33.371094 C 17.324219 33.144531 18.109375 32.707031 18.875 32.246094 L 20.28125 33.746094 C 20.5625 34.027344 21.03125 34.027344 21.3125 33.746094 L 23.75 31.308594 C 24.03125 31.027344 24.03125 30.558594 23.75 30.277344 L 22.25 28.871094 C 22.710938 28.105469 23.144531 27.320312 23.375 26.433594 L 25.25 26.433594 C 25.652344 26.433594 26 26.085938 26 25.683594 L 26 22.308594 C 26 21.910156 25.652344 21.558594 25.25 21.558594 L 23.375 21.558594 C 23.144531 20.675781 22.710938 19.890625 22.25 19.121094 L 23.75 17.714844 C 24.03125 17.433594 24.03125 16.964844 23.75 16.683594 L 21.3125 14.246094 C 21.03125 13.964844 20.5625 13.964844 20.28125 14.246094 L 18.875 15.746094 C 18.109375 15.289062 17.324219 14.851562 16.4375 14.621094 L 16.4375 12.746094 C 16.4375 12.347656 16.089844 11.996094 15.6875 11.996094 Z M 14 20.996094 C 15.652344 20.996094 17 22.34375 17 23.996094 C 17 25.652344 15.652344 26.996094 14 26.996094 C 12.347656 26.996094 11 25.652344 11 23.996094 C 11 22.34375 12.347656 20.996094 14 20.996094 Z "/>
<path style="fill:#888" d="M 32.3125 1.996094 C 31.910156 1.996094 31.5625 2.347656 31.5625 2.746094 L 31.5625 4.621094 C 30.675781 4.851562 29.890625 5.289062 29.125 5.746094 L 27.71875 4.246094 C 27.4375 3.964844 26.96875 3.964844 26.6875 4.246094 L 24.25 6.683594 C 23.96875 6.964844 23.96875 7.433594 24.25 7.714844 L 25.75 9.121094 C 25.289062 9.890625 24.855469 10.675781 24.625 11.558594 L 22.75 11.558594 C 22.347656 11.558594 22 11.910156 22 12.308594 L 22 15.683594 C 22 16.085938 22.347656 16.433594 22.75 16.433594 L 24.625 16.433594 C 24.855469 17.320312 25.289062 18.105469 25.75 18.871094 L 24.25 20.277344 C 23.96875 20.558594 23.96875 21.027344 24.25 21.308594 L 26.6875 23.746094 C 26.96875 24.027344 27.4375 24.027344 27.71875 23.746094 L 29.125 22.246094 C 29.890625 22.707031 30.675781 23.144531 31.5625 23.371094 L 31.5625 25.246094 C 31.5625 25.648438 31.910156 25.996094 32.3125 25.996094 L 35.6875 25.996094 C 36.089844 25.996094 36.4375 25.648438 36.4375 25.246094 L 36.4375 23.371094 C 37.324219 23.144531 38.109375 22.707031 38.875 22.246094 L 40.28125 23.746094 C 40.5625 24.027344 41.03125 24.027344 41.3125 23.746094 L 43.75 21.308594 C 44.03125 21.027344 44.03125 20.558594 43.75 20.277344 L 42.25 18.871094 C 42.710938 18.105469 43.144531 17.320312 43.375 16.433594 L 45.25 16.433594 C 45.652344 16.433594 46 16.085938 46 15.683594 L 46 12.308594 C 46 11.910156 45.652344 11.558594 45.25 11.558594 L 43.375 11.558594 C 43.144531 10.675781 42.710938 9.890625 42.25 9.121094 L 43.75 7.714844 C 44.03125 7.433594 44.03125 6.964844 43.75 6.683594 L 41.3125 4.246094 C 41.03125 3.964844 40.5625 3.964844 40.28125 4.246094 L 38.875 5.746094 C 38.109375 5.289062 37.324219 4.851562 36.4375 4.621094 L 36.4375 2.746094 C 36.4375 2.347656 36.089844 1.996094 35.6875 1.996094 Z M 34 10.996094 C 35.652344 10.996094 37 12.34375 37 13.996094 C 37 15.652344 35.652344 16.996094 34 16.996094 C 32.347656 16.996094 31 15.652344 31 13.996094 C 31 12.34375 32.347656 10.996094 34 10.996094 Z "/>
<path style="fill:#000;fill-opacity:.102" d="M 32.3125 1.996094 C 31.910156 1.996094 31.5625 2.347656 31.5625 2.746094 L 31.5625 4.621094 C 30.675781 4.851562 29.890625 5.289062 29.125 5.746094 L 27.71875 4.246094 C 27.4375 3.964844 26.96875 3.964844 26.6875 4.246094 L 24.25 6.683594 C 23.96875 6.964844 23.96875 7.433594 24.25 7.714844 L 25.75 9.121094 C 25.289062 9.890625 24.855469 10.675781 24.625 11.558594 L 22.75 11.558594 C 22.347656 11.558594 22 11.910156 22 12.308594 L 22 15.683594 C 22 16.085938 22.347656 16.433594 22.75 16.433594 L 24.625 16.433594 C 24.855469 17.320312 25.289062 18.105469 25.75 18.871094 L 24.25 20.277344 C 23.96875 20.558594 23.96875 21.027344 24.25 21.308594 L 26.6875 23.746094 C 26.96875 24.027344 27.4375 24.027344 27.71875 23.746094 L 29.125 22.246094 C 29.890625 22.707031 30.675781 23.144531 31.5625 23.371094 L 31.5625 25.246094 C 31.5625 25.648438 31.910156 25.996094 32.3125 25.996094 L 35.6875 25.996094 C 36.089844 25.996094 36.4375 25.648438 36.4375 25.246094 L 36.4375 23.371094 C 37.324219 23.144531 38.109375 22.707031 38.875 22.246094 L 40.28125 23.746094 C 40.5625 24.027344 41.03125 24.027344 41.3125 23.746094 L 43.75 21.308594 C 44.03125 21.027344 44.03125 20.558594 43.75 20.277344 L 42.25 18.871094 C 42.710938 18.105469 43.144531 17.320312 43.375 16.433594 L 45.25 16.433594 C 45.652344 16.433594 46 16.085938 46 15.683594 L 46 12.308594 C 46 11.910156 45.652344 11.558594 45.25 11.558594 L 43.375 11.558594 C 43.144531 10.675781 42.710938 9.890625 42.25 9.121094 L 43.75 7.714844 C 44.03125 7.433594 44.03125 6.964844 43.75 6.683594 L 41.3125 4.246094 C 41.03125 3.964844 40.5625 3.964844 40.28125 4.246094 L 38.875 5.746094 C 38.109375 5.289062 37.324219 4.851562 36.4375 4.621094 L 36.4375 2.746094 C 36.4375 2.347656 36.089844 1.996094 35.6875 1.996094 Z M 34 10.996094 C 35.652344 10.996094 37 12.34375 37 13.996094 C 37 15.652344 35.652344 16.996094 34 16.996094 C 32.347656 16.996094 31 15.652344 31 13.996094 C 31 12.34375 32.347656 10.996094 34 10.996094 Z "/>
<path style="fill:#888" d="M 29.296875 18 C 29.191406 17.992188 29.144531 18.039062 29.035156 18.089844 L 25.265625 19.578125 C 24.835938 19.761719 24.652344 20.367188 24.828125 20.804688 L 25.617188 22.992188 C 24.746094 23.644531 24.148438 24.339844 23.511719 25.183594 L 21.320312 24.21875 C 20.890625 24.035156 20.277344 24.308594 20.09375 24.746094 L 18.601562 28.335938 C 18.425781 28.773438 18.699219 29.292969 19.128906 29.476562 L 21.320312 30.4375 C 21.175781 31.480469 21.167969 32.515625 21.320312 33.59375 L 19.128906 34.554688 C 18.699219 34.738281 18.515625 35.082031 18.691406 35.519531 L 20.09375 39.285156 C 20.277344 39.722656 20.890625 39.90625 21.320312 39.722656 L 23.511719 38.847656 C 24.164062 39.714844 24.945312 40.398438 25.789062 41.035156 L 24.828125 43.226562 C 24.652344 43.664062 24.835938 44.269531 25.265625 44.453125 L 29.035156 45.941406 C 29.472656 46.125 29.824219 45.855469 30 45.417969 L 30.960938 43.226562 C 32.015625 43.378906 33.050781 43.378906 34.117188 43.226562 L 34.996094 45.417969 C 35.179688 45.855469 35.792969 46.039062 36.222656 45.855469 L 39.816406 44.453125 C 40.253906 44.269531 40.523438 43.664062 40.34375 43.226562 L 39.378906 41.035156 C 40.246094 40.382812 40.941406 39.691406 41.570312 38.847656 L 43.847656 39.722656 C 44.285156 39.90625 44.726562 39.722656 44.898438 39.285156 L 46.476562 35.519531 C 46.660156 35.082031 46.476562 34.738281 46.039062 34.554688 L 43.761719 33.59375 C 43.910156 32.539062 43.921875 31.511719 43.761719 30.4375 L 45.953125 29.476562 C 46.390625 29.292969 46.660156 28.949219 46.476562 28.511719 L 44.898438 24.746094 C 44.726562 24.308594 44.199219 24.035156 43.761719 24.21875 L 41.570312 25.183594 C 40.921875 24.316406 40.230469 23.628906 39.378906 22.992188 L 40.34375 20.628906 C 40.523438 20.191406 40.253906 19.761719 39.816406 19.578125 L 36.222656 18.089844 C 35.792969 17.90625 35.179688 18.175781 34.996094 18.613281 L 34.117188 20.804688 C 33.074219 20.652344 32.039062 20.652344 30.960938 20.804688 L 30 18.613281 C 29.863281 18.289062 29.617188 18.015625 29.296875 18 Z M 32.539062 26.410156 C 35.640625 26.410156 38.152344 28.917969 38.152344 32.015625 C 38.152344 35.113281 35.640625 37.621094 32.539062 37.621094 C 29.449219 37.621094 26.929688 35.113281 26.929688 32.015625 C 26.929688 28.917969 29.449219 26.410156 32.539062 26.410156 Z "/>
</svg>
