<svg width="48" xmlns="http://www.w3.org/2000/svg" height="48" viewBox="0 0 48 48" xmlns:xlink="http://www.w3.org/1999/xlink">
<g style="fill-rule:evenodd">
<path style="fill:#dc322f" d="M 44 24 C 44 35.046875 35.042969 44 24 44 C 12.949219 44 3.992188 35.046875 4 24 C 3.992188 12.953125 12.949219 4 24 4 C 35.042969 4 44 12.953125 44 24 Z "/>
<path style="fill:#fff;fill-opacity:.902" d="M 40 24 C 40 17.28125 35.867188 11.558594 30 9.1875 L 30 13.625 C 33.585938 15.699219 36 19.558594 36 24 C 36 30.628906 30.628906 36 24 36 C 17.371094 36 12 30.628906 12 24 C 12 19.558594 14.414062 15.699219 18 13.625 L 18 9.1875 C 12.132812 11.558594 8 17.28125 8 24 C 8 32.835938 15.164062 40 24 40 C 32.835938 40 40 32.835938 40 24 Z "/>
</g>
<path style="fill:#fff;fill-opacity:.902" d="M 26 24 L 22 24 L 22 8 L 26 8 Z "/>
</svg>
