<svg xmlns="http://www.w3.org/2000/svg" viewBox="0 0 48 48">
 <path d="m 23 5.5 -19.5 21 18 18 21 -21 l 0 -18 -19.5 0 z m 9 6 a 4.5 4.5 0 0 1 4.5 4.5 4.5 4.5 0 0 1 -4.5 4.5 4.5 4.5 0 0 1 -4.5 -4.5 4.5 4.5 0 0 1 4.5 -4.5 z" style="stroke-dasharray:none;stroke-opacity:1;fill:#e6e1a2;opacity:1;stroke-miterlimit:4;fill-opacity:1;stroke:#a3a093;stroke-linecap:round;stroke-linejoin:round;stroke-width:1"/>
 <path d="m 46 30 -8 0 0 -8 -8 0 0 8 -8 0 0 8 8 0 0 8 8 0 0 -8 8 0 z" style="fill:#859900"/>
</svg>
