<svg xmlns="http://www.w3.org/2000/svg" viewBox="0 0 48 48">
 <path d="m 6.289 4 c -1.145 0 -2.289 1.145 -2.289 2.289 l 0 35.488 c 0 1.078 1.145 2.223 2.223 2.223 l 35.555 0 c 1.078 0 2.223 -1.145 2.223 -2.223 l 0 -35.555 c 0 -1.078 -1.145 -2.223 -2.223 -2.223" style="fill:#c19553"/>
 <path d="m 6.289 4 c -1.145 0 -2.289 1.145 -2.289 2.289 l 0 13.711 c 4.441 0 35.559 0 40 0 l 0 -13.777 c 0 -1.078 -1.145 -2.223 -2.223 -2.223" style="fill:#fff;fill-opacity:0.196"/>
 <path d="m 24,8 -4,0 0,-4 4,0 0,8 -4,0 0,4 4,0 0,8.03125 L 20,24 l 0,8 8,0 0,-8 -4,0.03125 L 24,20 l 4,0 0,-4 -4,0 0,-4 4,0 0,-4 z" style="fill:#fff"/>
 <path d="m 29.18 16.707 l 13.75 11 c 2.758 2.758 2.75 2.75 0 5.5 l -13.75 11 c -1.914 1.535 -1.914 0.965 -1.914 -2.828 c -0.039 -1.375 -0.086 -2.922 0 -4.922 c -0.031 0 0.031 0 0 0 c -13.664 0 -20.09 -8.75 -20 -19.836 c 5.414 5.586 11.75 8.01 20 7.836 c 0 -1.969 -0.039 -2.672 0 -4 c 0 -2 0 -5.109 1.914 -3.75 Z" style="fill:#268bd2;fill-rule:evenodd"/>
</svg>
