<svg width="48" xmlns="http://www.w3.org/2000/svg" height="48" viewBox="0 0 48 48" xmlns:xlink="http://www.w3.org/1999/xlink">
<path style="fill:#859900;fill-rule:evenodd" d="M 44 24 C 44 35.042969 35.042969 44 24 44 C 12.957031 44 4 35.042969 4 24 C 4 12.957031 12.957031 4 24 4 C 35.042969 4 44 12.957031 44 24 Z "/>
<g style="fill:#fff;fill-opacity:.902">
<path d="M 35.367188 19.214844 C 33.398438 14.824219 28.992188 12 24.027344 12 C 18.949219 12 14.300781 15.089844 12.472656 19.675781 L 16.324219 21.121094 C 17.542969 18.054688 20.640625 16.003906 24.027344 16.003906 C 27.292969 16.003906 30.183594 17.835938 31.523438 20.699219 L 28.714844 21.789062 L 35.898438 25.808594 L 38 18.199219 Z "/>
<path d="M 24.027344 32.003906 C 20.785156 32.003906 17.835938 30.109375 16.515625 27.265625 L 19.28125 26.230469 L 12.175781 22.296875 L 10 29.707031 L 12.652344 28.710938 C 14.582031 33.089844 19.09375 36 24.027344 36 C 29.125 36 33.636719 33.035156 35.527344 28.445312 L 31.695312 26.964844 C 30.4375 30.027344 27.425781 32.003906 24.027344 32.003906 Z "/>
</g>
</svg>
