<svg width="48" xmlns="http://www.w3.org/2000/svg" height="48" viewBox="0 0 48 48" xmlns:xlink="http://www.w3.org/1999/xlink">
<path style="fill:#268bd2;fill-rule:evenodd" d="M 16 10 C 16 7.789062 14.210938 6 12 6 C 9.789062 6 8 7.789062 8 10 C 8 12.210938 9.789062 14 12 14 C 14.210938 14 16 12.210938 16 10 Z "/>
<path style="fill:#dc322f" d="M 30 42 C 30.609375 42 31.191406 41.738281 31.625 41.3125 L 39.3125 33.875 C 39.738281 33.472656 39.980469 32.898438 40 32.3125 C 40.027344 31.382812 39.5 30.550781 38.625 30.1875 C 37.746094 29.824219 36.722656 30.019531 36.0625 30.6875 L 32 34.625 L 32 6 L 28 6 L 28 34.625 L 23.9375 30.6875 C 23.035156 29.8125 21.585938 29.8125 20.6875 30.6875 C 19.785156 31.5625 19.785156 33 20.6875 33.875 L 28.375 41.3125 C 28.804688 41.738281 29.386719 42 30 42 Z "/>
<g style="fill:#268bd2;fill-rule:evenodd">
<path d="M 16 22 C 16 19.789062 14.210938 18 12 18 C 9.789062 18 8 19.789062 8 22 C 8 24.210938 9.789062 26 12 26 C 14.210938 26 16 24.210938 16 22 Z "/>
<path d="M 16 34 C 16 31.789062 14.210938 30 12 30 C 9.789062 30 8 31.789062 8 34 C 8 36.210938 9.789062 38 12 38 C 14.210938 38 16 36.210938 16 34 Z "/>
</g>
</svg>
