<svg xmlns="http://www.w3.org/2000/svg" viewBox="0 0 48 48">
 <path d="m 7.07 5.982 c -0.586 0.059 -1.078 0.608 -1.074 1.197 l 0 33.623 c 0 0.628 0.57 1.197 1.199 1.197 l 33.602 0 c 0.629 0 1.199 -0.569 1.199 -1.197 l 0 -33.623 c 0 -0.628 -0.57 -1.197 -1.199 -1.197 m -1.801 2 c 0.552 0 1 0.448 1 1 0 0.552 -0.448 1 -1 1 -0.552 0 -1 -0.448 -1 -1 0 -0.552 0.448 -1 1 -1 z m -31 4 32 0 0 27.982 -32 0 z" style="fill:#888;fill-opacity:1"/>
 <rect width="32" height="4" x="8" y="24" style="fill:#268bd2;opacity:1;fill-opacity:1;stroke:none"/>
</svg>
