<svg width="48" xmlns="http://www.w3.org/2000/svg" height="48" viewBox="0 0 48 48" xmlns:xlink="http://www.w3.org/1999/xlink">
<path style="fill:#dc322f;fill-rule:evenodd" d="M 10 37.996094 C 13.929688 37.871094 14.023438 38.003906 16 35.996094 C 17.414062 34.582031 22.535156 29.402344 23.949219 27.988281 C 26.777344 30.816406 29.171875 33.167969 32 35.996094 C 34.023438 38.003906 33.964844 38.046875 38 37.996094 C 37.964844 34.046875 38.023438 34.003906 36 31.996094 C 33.171875 29.167969 30.777344 26.816406 27.949219 23.988281 C 30.183594 21.691406 33.171875 18.824219 36 15.996094 C 38.023438 14.003906 38.066406 14.089844 38 9.996094 C 34.066406 10.089844 34.023438 10.003906 32 11.996094 C 29.171875 14.824219 25.78125 18.15625 23.949219 19.988281 C 21.121094 17.160156 18.828125 14.824219 16 11.996094 C 14.023438 10.003906 13.972656 10.121094 10 9.996094 C 9.972656 14.121094 10.023438 14.003906 12 15.996094 C 13.414062 17.410156 18.535156 22.574219 19.949219 23.988281 C 17.121094 26.816406 14.828125 29.167969 12 31.996094 C 10.023438 34.003906 9.929688 33.871094 10 37.996094 Z "/>
</svg>
