
<!-- Generator: Adobe Illustrator 16.0.0, SVG Export Plug-In . SVG Version: 6.00 Build 0)  -->
<svg viewBox="0 0 47.999998 47.999998" xmlns="http://www.w3.org/2000/svg">
 <rect width="4" height="42" rx="0.5" style="fill:#76b7ca;opacity:1;fill-opacity:1;stroke:none;fill-rule:nonzero" x="22" y="3"/>
 <g>
  <rect width="3" rx="0.5" height="7" transform="matrix(0.5 0.86603 -0.86603 0.5 0 0)" style="fill:#76b7ca;opacity:1;fill-opacity:1;stroke:none;fill-rule:nonzero" x="19.879" y="-22.797"/>
  <rect width="3" height="7" rx="0.5" transform="matrix(-0.5 0.86603 0.86603 0.5 0 0)" style="fill:#76b7ca;opacity:1;fill-opacity:1;stroke:none;fill-rule:nonzero" x="-4.121" y="18.772"/>
 </g>
 <g transform="matrix(1 0 0 -1 0 48)">
  <rect width="3" height="7" rx="0.5" transform="matrix(0.5 0.86603 -0.86603 0.5 0 0)" style="fill:#76b7ca;opacity:1;fill-opacity:1;stroke:none;fill-rule:nonzero" x="19.879" y="-22.797"/>
  <rect width="3" rx="0.5" height="7" transform="matrix(-0.5 0.86603 0.86603 0.5 0 0)" style="fill:#76b7ca;opacity:1;fill-opacity:1;stroke:none;fill-rule:nonzero" x="-4.121" y="18.772"/>
 </g>
 <rect width="4" rx="0.5" height="42" transform="matrix(0.5 0.86603 -0.86603 0.5 0 0)" style="fill:#76b7ca;opacity:1;fill-opacity:1;stroke:none;fill-rule:nonzero" x="30.785" y="-29.785"/>
 <g transform="matrix(0.5 0.86603 -0.86603 0.5 32.785 -8.785)">
  <rect width="3" height="7" rx="0.5" transform="matrix(0.5 0.86603 -0.86603 0.5 0 0)" style="fill:#76b7ca;opacity:1;fill-opacity:1;stroke:none;fill-rule:nonzero" x="19.879" y="-22.797"/>
  <rect width="3" rx="0.5" height="7" transform="matrix(-0.5 0.86603 0.86603 0.5 0 0)" style="fill:#76b7ca;opacity:1;fill-opacity:1;stroke:none;fill-rule:nonzero" x="-4.121" y="18.772"/>
 </g>
 <g transform="matrix(0.5 0.86603 0.86603 -0.5 -8.785 15.215)">
  <rect width="3" rx="0.5" height="7" transform="matrix(0.5 0.86603 -0.86603 0.5 0 0)" style="fill:#76b7ca;opacity:1;fill-opacity:1;stroke:none;fill-rule:nonzero" x="19.879" y="-22.797"/>
  <rect width="3" height="7" rx="0.5" transform="matrix(-0.5 0.86603 0.86603 0.5 0 0)" style="fill:#76b7ca;opacity:1;fill-opacity:1;stroke:none;fill-rule:nonzero" x="-4.121" y="18.772"/>
 </g>
 <rect width="4" height="42" rx="0.5" transform="matrix(-0.5 0.86603 -0.86603 -0.5 0 0)" style="fill:#76b7ca;opacity:1;fill-opacity:1;stroke:none;fill-rule:nonzero" x="6.785" y="-53.785"/>
 <g transform="matrix(-0.5 0.86603 -0.86603 -0.5 56.785 15.215)">
  <rect width="3" rx="0.5" height="7" transform="matrix(0.5 0.86603 -0.86603 0.5 0 0)" style="fill:#76b7ca;opacity:1;fill-opacity:1;stroke:none;fill-rule:nonzero" x="19.879" y="-22.797"/>
  <rect width="3" height="7" rx="0.5" transform="matrix(-0.5 0.86603 0.86603 0.5 0 0)" style="fill:#76b7ca;opacity:1;fill-opacity:1;stroke:none;fill-rule:nonzero" x="-4.121" y="18.772"/>
 </g>
 <g transform="matrix(-0.5 0.86603 0.86603 0.5 15.215 -8.785)">
  <rect width="3" height="7" rx="0.5" transform="matrix(0.5 0.86603 -0.86603 0.5 0 0)" style="fill:#76b7ca;opacity:1;fill-opacity:1;stroke:none;fill-rule:nonzero" x="19.879" y="-22.797"/>
  <rect width="3" rx="0.5" height="7" transform="matrix(-0.5 0.86603 0.86603 0.5 0 0)" style="fill:#76b7ca;opacity:1;fill-opacity:1;stroke:none;fill-rule:nonzero" x="-4.121" y="18.772"/>
 </g>
</svg>
