<svg width="48" xmlns="http://www.w3.org/2000/svg" height="48" viewBox="0 0 48 48" xmlns:xlink="http://www.w3.org/1999/xlink">
<path style="fill:#268bd2" d="M 10 4 L 38 4 C 41.273438 4 44 6.726562 44 10 L 44 38 C 44 41.265625 41.273438 44 38 44 L 10 44 C 6.726562 44 4 41.265625 4 38 L 4 10 C 4 6.726562 6.726562 4 10 4 Z "/>
<path style="fill:#fff;fill-opacity:.902" d="M 14 10 L 14 24 L 18 24 L 18 38 L 30 38 C 30 28.65625 30 17.742188 30 10 C 25.414062 10 18.585938 10 14 10 Z M 26 14 C 26 21.789062 26 26.242188 26 34 L 22 34 C 22 28.5 22 25.5 22 20 L 18 20 L 18 14 C 20.75 14 23.25 14 26 14 Z "/>
</svg>
