<svg width="22" xmlns="http://www.w3.org/2000/svg" height="22" viewBox="0 0 22 22" xmlns:xlink="http://www.w3.org/1999/xlink">
<g style="stroke:#777">
<path style="fill:#fff;stroke-width:.5" d="M 25.930955 35.186401 C 25.930955 42.09259 20.443729 47.693673 13.677926 47.693673 C 6.912124 47.693673 1.424898 42.09259 1.424898 35.186401 C 1.424898 28.280211 6.912124 22.679128 13.677926 22.679128 C 20.443729 22.679128 25.930955 28.280211 25.930955 35.186401 Z " transform="matrix(.73324 0 0 .71833 .97084 -14.27552)"/>
<path style="fill:#bebebe;stroke-width:.948" d="M 2.326255 33.438128 C 4.147077 50.115754 19.825832 52.48297 31.33146 38.686707 L 36.665977 44.706505 L 36.685661 25.854468 L 20.426211 25.661663 L 25.652463 31.606481 C 16.125134 46.45246 4.471872 42.27502 2.326255 33.438128 Z " transform="matrix(.39688 0 0 .36468 2.92049 -1.61616)"/>
</g>
</svg>
