<svg width="22" xmlns="http://www.w3.org/2000/svg" height="22" viewBox="0 0 22 22" xmlns:xlink="http://www.w3.org/1999/xlink">
<path style="fill:#fff;stroke:#777;stroke-width:.5" d="M 25.930955 35.186401 C 25.930955 42.09259 20.443729 47.693673 13.677926 47.693673 C 6.912124 47.693673 1.424898 42.09259 1.424898 35.186401 C 1.424898 28.280211 6.912124 22.679128 13.677926 22.679128 C 20.443729 22.679128 25.930955 28.280211 25.930955 35.186401 Z " transform="matrix(.73324 0 0 .71833 .97084 -14.27552)"/>
<g style="fill:#427fec">
<path style="fill-opacity:.6" d="M 8.144531 8.972656 C 7.371094 8.972656 6.75 9.585938 6.75 10.347656 C 6.75 10.429688 6.757812 10.546875 6.761719 10.644531 C 6.628906 10.703125 6.621094 10.976562 6.734375 11.253906 C 6.777344 11.363281 6.835938 11.449219 6.898438 11.519531 C 6.914062 11.597656 6.910156 11.632812 6.925781 11.722656 C 6.980469 11.886719 7.183594 12.207031 7.371094 12.472656 C 7.390625 12.675781 7.410156 12.882812 7.371094 13.113281 C 6.828125 13.589844 5.421875 13.792969 5.425781 14.285156 L 5.394531 14.472656 L 10.894531 14.472656 L 10.867188 14.285156 C 10.863281 13.863281 9.457031 13.605469 8.917969 13.113281 C 8.898438 12.925781 8.894531 12.734375 8.902344 12.550781 C 9.078125 12.269531 9.308594 11.90625 9.363281 11.722656 C 9.386719 11.628906 9.394531 11.566406 9.410156 11.488281 C 9.460938 11.421875 9.503906 11.347656 9.542969 11.253906 C 9.648438 10.988281 9.644531 10.734375 9.527344 10.660156 C 9.535156 10.554688 9.539062 10.441406 9.542969 10.347656 C 9.542969 9.585938 8.921875 8.972656 8.144531 8.972656 Z "/>
<path d="M 12.480469 6.875 C 11.316406 6.875 10.382812 7.796875 10.382812 8.9375 C 10.386719 9.058594 10.394531 9.234375 10.40625 9.382812 C 10.207031 9.472656 10.191406 9.878906 10.359375 10.296875 C 10.429688 10.460938 10.511719 10.589844 10.605469 10.695312 C 10.628906 10.8125 10.621094 10.867188 10.652344 11 C 10.730469 11.246094 11.035156 11.726562 11.320312 12.125 C 11.347656 12.429688 11.375 12.738281 11.320312 13.085938 C 10.503906 13.800781 8.394531 14.105469 8.398438 14.84375 L 8.355469 15.125 L 16.605469 15.125 L 16.558594 14.84375 C 16.554688 14.210938 14.445312 13.824219 13.640625 13.085938 C 13.605469 12.804688 13.601562 12.519531 13.617188 12.242188 C 13.875 11.824219 14.222656 11.273438 14.308594 11 C 14.339844 10.863281 14.351562 10.769531 14.375 10.648438 C 14.453125 10.550781 14.519531 10.4375 14.574219 10.296875 C 14.734375 9.898438 14.726562 9.519531 14.554688 9.40625 C 14.5625 9.246094 14.570312 9.074219 14.574219 8.9375 C 14.574219 7.796875 13.644531 6.875 12.480469 6.875 Z "/>
</g>
</svg>
