<svg width="22" xmlns="http://www.w3.org/2000/svg" height="22" viewBox="0 0 22 22" xmlns:xlink="http://www.w3.org/1999/xlink">
<path style="fill:#fff;stroke:#777;stroke-width:.792" d="M 43.602273 24 C 43.602273 34.823864 34.823864 43.602273 24 43.602273 C 13.176136 43.602273 4.397727 34.823864 4.397727 24 C 4.397727 13.176136 13.176136 4.397727 24 4.397727 C 34.823864 4.397727 43.602273 13.176136 43.602273 24 Z " transform="scale(.45833)"/>
<path style="fill:#53a93e;fill-opacity:.941" d="M 15.289062 4.585938 C 15.144531 4.601562 14.996094 4.691406 14.878906 4.828125 L 12.261719 7.636719 C 12.148438 7.769531 12.082031 7.933594 12.082031 8.125 C 12.082031 8.183594 12.097656 8.242188 12.109375 8.296875 C 11.867188 8.613281 11.933594 8.964844 11.933594 10.058594 C 11.933594 10.382812 11.285156 10.738281 11.125 10.738281 C 11.117188 10.738281 11.117188 10.738281 11.109375 10.738281 C 10.59375 10.738281 8.910156 10.835938 8.398438 11.75 C 7.882812 12.664062 5.957031 16.808594 5.957031 17.417969 C 6.730469 17.417969 12.34375 13.800781 12.628906 13.460938 C 12.980469 13.046875 12.800781 12.21875 12.574219 11.664062 C 12.578125 11.660156 12.574219 11.648438 12.574219 11.644531 C 12.582031 11.625 12.582031 11.601562 12.5625 11.558594 C 12.441406 11.296875 12.382812 11.035156 12.382812 10.667969 C 12.382812 9.746094 12.453125 9.28125 12.628906 9.046875 C 12.644531 9.027344 12.65625 9 12.671875 8.980469 C 12.953125 9.03125 13.34375 8.859375 13.519531 8.648438 L 15.835938 5.960938 C 16.070312 5.6875 16.125 5.28125 15.890625 5.003906 L 15.699219 4.777344 C 15.582031 4.640625 15.433594 4.570312 15.289062 4.585938 Z "/>
</svg>
