<svg xmlns="http://www.w3.org/2000/svg" viewBox="0 0 22 22">
 <path d="m 25.931 35.19 c 0 6.906 -5.487 12.507 -12.253 12.507 c -6.766 0 -12.253 -5.601 -12.253 -12.507 c 0 -6.906 5.487 -12.507 12.253 -12.507 c 6.766 0 12.253 5.601 12.253 12.507 Z" transform="matrix(.73324 0 0 .71833 .97084 -14.27552)" style="fill:#fff;stroke:#777;stroke-width:0.5"/>
 <path d="m 7.5 5 c -0.277 0 -0.5 0.223 -0.5 0.5 0 0.277 0.223 0.5 0.5 0.5 l -1.5 0 c -0.554 0 -1 0.446 -1 1 l 0 8 c 0 0.554 0.446 1 1 1 l 10 0 c 0.554 0 1 -0.446 1 -1 l 0 -8 c 0 -0.554 -0.446 -1 -1 -1 l -6.5 0 c 0.277 0 0.5 -0.223 0.5 -0.5 0 -0.277 -0.223 -0.5 -0.5 -0.5 m 5.699 2 0.602 0 c 0.111 0 0.199 0.088 0.199 0.199 l 0 0.602 c 0 0.111 -0.088 0.199 -0.199 0.199 l -0.602 0 c -0.111 0 -0.199 -0.088 -0.199 -0.199 l 0 -0.602 c 0 -0.111 0.088 -0.199 0.199 -0.199 m -4.199 1 c 1.657 0 3 1.343 3 3 0 1.657 -1.343 3 -3 3 c -1.657 0 -3 -1.343 -3 -3 0 -1.657 1.343 -3 3 -3" style="fill:#427fec;opacity:1;fill-opacity:1;stroke:none"/>
</svg>
