<svg xmlns="http://www.w3.org/2000/svg" viewBox="0 0 22 22">
 <path d="m 25.931 35.19 c 0 6.906 -5.487 12.507 -12.253 12.507 c -6.766 0 -12.253 -5.601 -12.253 -12.507 c 0 -6.906 5.487 -12.507 12.253 -12.507 c 6.766 0 12.253 5.601 12.253 12.507 Z" transform="matrix(.73324 0 0 .71833 .97084 -14.27552)" style="fill:#fff;stroke:#777;stroke-width:0.5"/>
 <path d="m 10.339 4.829 c -0.503 0.019 -1.072 0.174 -1.409 0.577 -0.011 0.012 -0.019 0.026 -0.027 0.041 -0.112 0.238 -0.151 0.431 -0.084 0.6 0.067 0.169 0.22 0.245 0.339 0.292 0.12 0.047 0.231 0.08 0.303 0.122 0.072 0.042 0.105 0.073 0.124 0.168 0.022 0.114 0.005 0.174 -0.02 0.22 -0.026 0.046 -0.067 0.091 -0.127 0.114 -0.093 0.036 -0.255 0.036 -0.255 0.036 l -2.993 0 c -0.106 0 -0.192 0.086 -0.192 0.192 l 0 3.01 c 0 0.215 0.044 0.338 0.103 0.431 0.068 0.094 0.15 0.204 0.279 0.276 0.128 0.072 0.297 0.098 0.482 0.062 0.165 -0.032 0.296 -0.125 0.377 -0.231 0.081 -0.106 0.122 -0.219 0.155 -0.314 0.034 -0.095 0.063 -0.172 0.087 -0.208 0.024 -0.036 0.018 -0.034 0.055 -0.036 0.035 -0.002 0.125 0.019 0.243 0.07 0.258 0.227 0.413 0.69 0.429 1.111 0.005 0.157 -0.009 0.304 -0.035 0.43 l 0.002 -0.008 c -0.009 0.035 -0.008 0.04 -0.005 0.028 -0.001 0.004 -0.002 0.008 -0.002 0.013 -0.046 0.362 -0.196 0.713 -0.414 0.904 -0.152 0.062 -0.247 0.072 -0.263 0.066 -0.018 -0.007 -0.042 -0.032 -0.077 -0.123 c -0.036 -0.09 -0.07 -0.222 -0.148 -0.355 -0.078 -0.133 -0.223 -0.267 -0.426 -0.306 l 0 0.001 c -0.27 -0.053 -0.5 0.039 -0.632 0.18 -0.132 0.141 -0.181 0.307 -0.205 0.423 -0.003 0.013 -0.004 0.026 -0.005 0.039 l 0 3.158 c 0 0.106 0.087 0.192 0.193 0.192 l 3.01 0 c 0.208 0 0.34 -0.045 0.434 -0.108 0.069 -0.045 0.198 -0.168 0.27 -0.296 0.072 -0.129 0.099 -0.296 0.063 -0.482 -0.039 -0.203 -0.173 -0.348 -0.306 -0.426 -0.133 -0.078 -0.265 -0.112 -0.356 -0.148 -0.091 -0.036 -0.116 -0.059 -0.124 -0.077 -0.006 -0.016 0.002 -0.111 0.067 -0.266 0.228 -0.257 0.69 -0.411 1.111 -0.426 l 0.002 0 c 0.155 -0.007 0.301 0.008 0.427 0.034 0.008 0.001 0.016 0.002 0.023 0.003 0.004 0.001 0.007 0.002 0.011 0.002 0.363 0.046 0.717 0.196 0.907 0.414 0.062 0.151 0.073 0.246 0.067 0.261 -0.007 0.018 -0.033 0.041 -0.124 0.077 -0.091 0.036 -0.223 0.07 -0.356 0.149 -0.133 0.078 -0.267 0.222 -0.306 0.426 -0.036 0.185 -0.009 0.353 0.063 0.482 0.072 0.128 0.17 0.234 0.273 0.287 0.13 0.079 0.235 0.093 0.433 0.091 l 3.02 0.002 c 0.106 0 0.192 -0.087 0.192 -0.193 l 0 -3.1 c 0 -0.12 0.016 -0.174 0.068 -0.23 0.055 -0.058 0.11 -0.096 0.276 -0.064 l 0.001 0.001 c 0.096 0.018 0.127 0.051 0.169 0.123 0.042 0.072 0.075 0.182 0.122 0.302 0.047 0.12 0.123 0.272 0.292 0.339 0.169 0.067 0.362 0.028 0.6 -0.083 0.015 -0.007 0.029 -0.016 0.042 -0.027 0.34 -0.283 0.501 -0.735 0.558 -1.169 0.001 -0.008 0.002 -0.017 0.002 -0.025 0 0.026 0.002 0.014 0.002 -0.019 l -0.005 0.041 c 0.035 -0.159 0.05 -0.335 0.044 -0.522 l 0 -0.001 c -0.019 -0.504 -0.176 -1.073 -0.577 -1.409 -0.013 -0.011 -0.027 -0.02 -0.042 -0.027 -0.238 -0.112 -0.431 -0.151 -0.6 -0.083 -0.169 0.067 -0.245 0.22 -0.292 0.339 -0.047 0.12 -0.08 0.23 -0.122 0.302 -0.042 0.072 -0.073 0.105 -0.169 0.124 -0.115 0.022 -0.175 0.005 -0.221 -0.021 -0.046 -0.026 -0.081 -0.071 -0.114 -0.127 -0.034 -0.057 -0.034 -0.253 -0.034 -0.253 l 0 -3.03 c 0 -0.106 -0.086 -0.192 -0.192 -0.192 l -3.142 0 c -0.08 0 -0.171 -0.022 -0.224 -0.074 -0.056 -0.054 -0.092 -0.11 -0.061 -0.273 0.019 -0.096 0.052 -0.127 0.123 -0.169 0.072 -0.042 0.183 -0.075 0.302 -0.122 0.12 -0.047 0.272 -0.123 0.339 -0.292 0.067 -0.169 0.028 -0.361 -0.083 -0.599 -0.007 -0.015 -0.016 -0.029 -0.027 -0.042 -0.282 -0.336 -0.729 -0.497 -1.161 -0.554 -0.007 -0.002 -0.02 -0.003 -0.033 -0.005 -0.154 -0.032 -0.322 -0.049 -0.503 -0.042 l -0.001 0 z" mix-blend-mode="normal" isolation="auto" white-space="normal" solid-opacity="1" solid-color="#000000" style="visibility:visible;shape-rendering:auto;color-interpolation-filters:linearRGB;fill:#53a93f;opacity:1;image-rendering:auto;fill-opacity:1;stroke:none;display:inline;color:#000;fill-rule:evenodd;color-rendering:auto;color-interpolation:sRGB"/>
</svg>
