<svg width="22" xmlns="http://www.w3.org/2000/svg" height="22" viewBox="0 0 22 22" xmlns:xlink="http://www.w3.org/1999/xlink">
<path style="fill:#fff;stroke:#777;stroke-width:.5" d="M 25.930955 35.186401 C 25.930955 42.09259 20.443729 47.693673 13.677926 47.693673 C 6.912124 47.693673 1.424898 42.09259 1.424898 35.186401 C 1.424898 28.280211 6.912124 22.679128 13.677926 22.679128 C 20.443729 22.679128 25.930955 28.280211 25.930955 35.186401 Z " transform="matrix(.73324 0 0 .71833 .97084 -14.27552)"/>
<g style="fill:#dc322f">
<path d="M 10.796875 7.34375 C 6.769531 7.507812 2.855469 9.320312 4.515625 12.980469 C 6.941406 12.140625 10.320312 13.394531 8.917969 14.015625 C 11.683594 16.113281 18.507812 12.726562 17.828125 9.84375 C 17.125 8.089844 13.929688 7.21875 10.796875 7.34375 Z "/>
<path d="M 16.042969 4.371094 L 9.652344 14.515625 C 9.152344 14.507812 8.6875 14.28125 8.351562 13.828125 L 15.199219 3.925781 C 15.660156 3.824219 15.941406 3.972656 16.042969 4.371094 Z "/>
<path d="M 8.316406 16.28125 C 9.03125 16.1875 10.144531 15.320312 9.625 14.066406 C 8.382812 13.726562 8.664062 13.558594 8.664062 13.558594 C 6.957031 13.945312 5.660156 15.796875 6.019531 16.972656 C 6.246094 17.71875 6.207031 17.644531 6.207031 17.644531 C 6.679688 16.203125 6.6875 16.464844 8.316406 16.28125 Z "/>
</g>
</svg>
