<svg width="22" xmlns="http://www.w3.org/2000/svg" height="22" viewBox="0 0 22 22" xmlns:xlink="http://www.w3.org/1999/xlink">
<defs>

<filter width="100%" x="0" y="0" height="100%" filterUnits="objectBoundingBox" id="alpha">
<feColorMatrix values="0 0 0 0 1 0 0 0 0 1 0 0 0 0 1 0 0 0 1 0" in="SourceGraphic" type="matrix"/>
</filter>
<g style="clip-path:url(#clip1)" id="surface6">
<path style="stroke-opacity:.941;fill:#53a93e;stroke:#859900;fill-opacity:.941;stroke-width:.792" d="M 43.602273 24 C 43.602273 34.823864 34.823864 43.602273 24 43.602273 C 13.176136 43.602273 4.397727 34.823864 4.397727 24 C 4.397727 13.176136 13.176136 4.397727 24 4.397727 C 34.823864 4.397727 43.602273 13.176136 43.602273 24 Z " transform="scale(.45833)"/>
</g>
<mask id="mask0">
<g style="filter:url(#alpha)">
<rect width="22" x="0" y="0" height="22" style="fill:#000;fill-opacity:.502"/>
</g>
</mask>
</defs>
<use style="mask:url(#mask0)" xlink:href="#surface6"/>
<path style="fill:#fff" d="M 11.054688 4.582031 C 7.867188 4.582031 5.269531 7.28125 5.074219 10.675781 L 3.207031 10.675781 L 6.210938 15.542969 L 9.214844 10.675781 L 7.078125 10.675781 C 7.261719 8.472656 8.96875 6.75 11.054688 6.75 C 11.824219 6.75 12.554688 6.988281 13.164062 7.394531 L 14.191406 5.550781 C 13.28125 4.941406 12.203125 4.582031 11.054688 4.582031 Z M 15.789062 6.457031 L 12.785156 11.324219 L 14.921875 11.324219 C 14.738281 13.527344 13.03125 15.25 10.945312 15.25 C 10.175781 15.25 9.445312 15.011719 8.835938 14.605469 L 7.808594 16.449219 C 8.71875 17.058594 9.796875 17.417969 10.945312 17.417969 C 14.132812 17.417969 16.730469 14.71875 16.925781 11.324219 L 18.792969 11.324219 Z "/>
</svg>
