<svg xmlns="http://www.w3.org/2000/svg" viewBox="0 0 22 22">
 <g style="stroke:#777">
  <path d="m 25.931 35.19 c 0 6.906 -5.487 12.507 -12.253 12.507 c -6.766 0 -12.253 -5.601 -12.253 -12.507 c 0 -6.906 5.487 -12.507 12.253 -12.507 c 6.766 0 12.253 5.601 12.253 12.507 Z" transform="matrix(.73324 0 0 .71833 .97084 -14.27552)" style="fill:#fff;stroke-width:0.5"/>
  <path d="m 20.502 12.637 c -1.662 0 -3 1.278 -3 2.872 l 0 5.827 c -1.662 0 -3.01 1.278 -3.01 2.872 l 0 8.417 c 0 1.594 1.345 2.786 3.01 2.786 l 13 0 c 1.662 0 3 -1.192 3 -2.786 l 0 -8.417 c 0 -1.594 -1.338 -2.872 -3 -2.872 l 0 -5.827 c 0 -1.594 -1.338 -2.872 -3 -2.872 z m 1.5 2.872 4 0 c 0.827 0 1.5 0.639 1.5 1.44 l 0 4.387 -7 0 0 -4.387 c 0 -0.801 0.665 -1.44 1.5 -1.44 z" transform="scale(0.45833,0.45833)" style="fill:#bebebe"/>
 </g>
</svg>
