<svg width="22" xmlns="http://www.w3.org/2000/svg" height="22" viewBox="0 0 22 22" xmlns:xlink="http://www.w3.org/1999/xlink">
<path style="fill:#fff;stroke:#777;stroke-width:.792" d="M 43.602273 24 C 43.602273 34.823864 34.823864 43.602273 24 43.602273 C 13.176136 43.602273 4.397727 34.823864 4.397727 24 C 4.397727 13.176136 13.176136 4.397727 24 4.397727 C 34.823864 4.397727 43.602273 13.176136 43.602273 24 Z " transform="scale(.45833)"/>
<path style="fill:#53a93e;fill-rule:evenodd;fill-opacity:.941" d="M 12.4375 16.5 C 11.949219 16.488281 11.457031 16.339844 11.058594 16.039062 C 9.777344 15.078125 10.773438 14.078125 9.652344 13.238281 C 8.535156 12.398438 7.542969 13.402344 6.257812 12.441406 L 6.257812 12.4375 C 5.972656 12.226562 5.765625 11.960938 5.640625 11.675781 C 5.640625 11.671875 5.640625 11.671875 5.640625 11.667969 C 5.613281 11.609375 5.59375 11.550781 5.574219 11.492188 C 5.566406 11.464844 5.558594 11.4375 5.550781 11.410156 C 5.550781 11.410156 5.550781 11.40625 5.550781 11.402344 C 5.535156 11.347656 5.527344 11.289062 5.515625 11.234375 C 5.515625 11.230469 5.519531 11.230469 5.515625 11.230469 C 5.515625 11.226562 5.515625 11.226562 5.515625 11.222656 C 5.511719 11.195312 5.507812 11.167969 5.507812 11.140625 C 5.503906 11.121094 5.503906 11.101562 5.503906 11.082031 C 5.5 11.070312 5.5 11.0625 5.5 11.050781 C 5.5 11.046875 5.5 11.042969 5.5 11.039062 C 5.5 11.011719 5.5 10.988281 5.5 10.960938 C 5.5 10.945312 5.5 10.933594 5.503906 10.917969 C 5.503906 10.898438 5.503906 10.878906 5.507812 10.859375 C 5.511719 10.828125 5.511719 10.796875 5.515625 10.769531 C 5.519531 10.769531 5.515625 10.769531 5.515625 10.765625 C 5.527344 10.710938 5.535156 10.652344 5.550781 10.597656 C 5.550781 10.59375 5.550781 10.589844 5.550781 10.589844 C 5.558594 10.5625 5.566406 10.535156 5.574219 10.507812 C 5.59375 10.449219 5.613281 10.390625 5.640625 10.332031 C 5.640625 10.328125 5.640625 10.328125 5.640625 10.324219 C 5.765625 10.039062 5.972656 9.773438 6.257812 9.5625 L 6.257812 9.558594 C 7.542969 8.597656 8.535156 9.601562 9.652344 8.761719 C 10.773438 7.921875 9.777344 6.921875 11.058594 5.960938 C 11.972656 5.277344 13.351562 5.367188 14.136719 6.160156 C 14.921875 6.953125 14.824219 8.148438 13.910156 8.832031 C 12.625 9.796875 11.632812 8.789062 10.515625 9.628906 C 9.949219 10.054688 9.921875 10.519531 9.871094 11 C 9.921875 11.480469 9.949219 11.945312 10.515625 12.371094 C 11.632812 13.210938 12.625 12.207031 13.910156 13.167969 C 14.824219 13.851562 14.921875 15.046875 14.136719 15.839844 C 13.695312 16.289062 13.066406 16.511719 12.4375 16.5 Z "/>
</svg>
