<svg xmlns="http://www.w3.org/2000/svg" width="32" height="32" viewBox="0 0 24 24">
 <path d="m 22.5 12 c 0 4.972 -4.703 9 -10.5 9 -5.797 0 -10.5 -4.03 -10.5 -9 0 -4.972 4.699 -9 10.5 -9 5.801 0 10.5 4.03 10.5 9 z m 0 0" style="fill:#ffd95c;fill-opacity:1;stroke:none;fill-rule:nonzero"/>
 <path d="m 7.5 17.25 c 0.372 -1.882 2.274 -3.187 4.503 -3.187 2.228 0 4.13 1.306 4.497 3.187 l -0.75 0 c -0.275 -1.122 -1.805 -1.882 -3.747 -1.882 -1.943 0 -3.477 0.76 -3.753 1.882 z" style="fill:#636363;fill-opacity:1;stroke:none;fill-rule:nonzero"/>
 <path d="M 14.791 8.65 A 1.594 1.594 0 0 0 14.25 9.844 1.594 1.594 0 0 0 15.844 11.438 1.594 1.594 0 0 0 17.405 10.16 L 14.791 8.65" style="fill:#656565;opacity:1;fill-opacity:1;stroke:none;fill-rule:nonzero"/>
 <path d="m 9.319 8.587 -2.552 1.474 a 1.594 1.594 0 0 0 1.576 1.377 1.594 1.594 0 0 0 1.594 -1.594 1.594 1.594 0 0 0 -0.618 -1.257" style="fill:#656565;opacity:1;fill-opacity:1;stroke:none;fill-rule:nonzero"/>
</svg>
