<svg xmlns="http://www.w3.org/2000/svg" width="32" height="32" viewBox="0 0 24 24">
 <path d="m 22.5 12 c 0 4.972 -4.703 9 -10.5 9 -5.797 0 -10.5 -4.03 -10.5 -9 0 -4.972 4.699 -9 10.5 -9 5.801 0 10.5 4.03 10.5 9 z m 0 0" style="fill:#ffd95c;fill-opacity:1;stroke:none;fill-rule:nonzero"/>
 <path d="m 7.5 14.25 c 0.372 1.882 2.274 3.187 4.503 3.187 2.228 0 4.13 -1.306 4.497 -3.187 l -0.75 0 c -0.275 1.122 -1.805 1.882 -3.747 1.882 -1.943 0 -3.477 -0.76 -3.753 -1.882 z" style="fill:#636363;fill-opacity:1;stroke:none;fill-rule:nonzero"/>
 <path d="m 7.98 12.391 c -0.097 -0.11 -0.338 -0.321 -0.54 -0.47 -0.589 -0.444 -0.668 -0.51 -0.905 -0.729 -0.444 -0.404 -0.628 -0.813 -0.628 -1.366 0 -0.268 0.018 -0.373 0.092 -0.532 0.132 -0.272 0.321 -0.47 0.562 -0.593 0.167 -0.088 0.255 -0.127 0.54 -0.127 0.299 -0.004 0.36 0.031 0.536 0.127 0.215 0.119 0.435 0.369 0.479 0.549 l 0.031 0.11 0.066 -0.154 c 0.391 -0.857 1.643 -0.844 2.078 0.022 0.141 0.277 0.154 0.861 0.031 1.191 -0.158 0.435 -0.461 0.76 -1.151 1.265 -0.457 0.33 -0.971 0.83 -1.01 0.901 -0.044 0.079 -0.004 0.013 -0.185 -0.193 z m 0 0" style="fill:#f66;fill-opacity:1;stroke:none;fill-rule:nonzero"/>
 <path d="m 15.668 12.391 c -0.097 -0.11 -0.338 -0.321 -0.54 -0.47 -0.589 -0.444 -0.668 -0.51 -0.905 -0.729 -0.444 -0.404 -0.628 -0.813 -0.628 -1.366 0 -0.268 0.018 -0.373 0.092 -0.532 0.132 -0.272 0.321 -0.47 0.562 -0.593 0.167 -0.088 0.255 -0.127 0.54 -0.127 0.299 -0.004 0.36 0.031 0.536 0.127 0.215 0.119 0.435 0.369 0.479 0.549 l 0.031 0.11 0.066 -0.154 c 0.391 -0.857 1.643 -0.844 2.078 0.022 0.141 0.277 0.154 0.861 0.031 1.191 -0.158 0.435 -0.461 0.76 -1.151 1.265 -0.457 0.33 -0.971 0.83 -1.01 0.901 -0.044 0.079 -0.004 0.013 -0.185 -0.193 z m 0 0" style="fill:#f66;fill-opacity:1;stroke:none;fill-rule:nonzero"/>
</svg>
