<svg xmlns="http://www.w3.org/2000/svg" width="32" height="32" viewBox="0 0 24 24">
 <path d="m 22.5 12 c 0 4.972 -4.703 9 -10.5 9 -5.797 0 -10.5 -4.03 -10.5 -9 0 -4.972 4.699 -9 10.5 -9 5.801 0 10.5 4.03 10.5 9 z m 0 0" style="fill:#ffd95c;fill-opacity:1;stroke:none;fill-rule:nonzero"/>
 <path d="m 7.776 7.259 c -0.555 0.004 -0.909 0.042 -0.913 0.042 -0.013 0 -1.237 0.105 -1.885 0.669 -0.387 0.341 -0.446 0.846 -0.446 0.867 0 0.004 -0.042 0.303 -0.029 0.942 0.017 0.82 0.358 1.414 0.438 1.519 0.013 0.013 0.025 0.029 0.038 0.046 0.189 0.257 0.774 1.031 2.79 1.031 1.805 0 2.373 -0.728 2.407 -0.774 0.034 -0.034 0.741 -0.816 0.968 -2.091 l 1.717 0 c 0.227 1.275 0.934 2.057 0.968 2.091 0.034 0.046 0.602 0.774 2.407 0.774 2.02 0 2.6 -0.774 2.79 -1.031 0.013 -0.017 0.025 -0.034 0.038 -0.046 0.08 -0.105 0.421 -0.698 0.438 -1.519 0.013 -0.64 -0.029 -0.938 -0.029 -0.942 0 -0.021 -0.059 -0.526 -0.446 -0.867 -0.648 -0.564 -1.872 -0.669 -1.885 -0.669 -0.004 0 -0.358 -0.038 -0.913 -0.042 l -0.072 0 c -0.122 0 -0.715 0.008 -1.359 0.084 -0.08 0.008 -0.156 0.017 -0.231 0.029 l -0.299 0.046 c -0.534 0.101 -0.909 0.236 -1.123 0.412 -0.257 0.215 -0.311 0.509 -0.324 0.602 l -1.632 0 c -0.013 -0.093 -0.067 -0.387 -0.324 -0.602 -0.215 -0.177 -0.589 -0.311 -1.123 -0.412 l -0.299 -0.046 c -0.076 -0.013 -0.151 -0.021 -0.231 -0.029 -0.644 -0.076 -1.237 -0.084 -1.359 -0.084 m -0.072 0" style="fill:#023042;fill-opacity:1;stroke:none;fill-rule:nonzero"/>
 <path d="m 15.75 14.25 c -0.275 1.122 -1.804 1.882 -3.747 1.882 -0.001 0 -0.002 0 -0.003 0 l 0 1.305 c 0.001 0 0.002 0 0.003 0 2.228 0 4.13 -1.306 4.497 -3.188 l -0.75 0 z" style="fill:#636363;fill-opacity:1;stroke:none;fill-rule:nonzero"/>
</svg>
