<svg xmlns="http://www.w3.org/2000/svg" width="32" height="32" viewBox="0 0 24 24">
 <path d="m 22.5 12 c 0 4.972 -4.703 9 -10.5 9 -5.797 0 -10.5 -4.03 -10.5 -9 0 -4.972 4.699 -9 10.5 -9 5.801 0 10.5 4.03 10.5 9 z m 0 0" style="fill:#ffd95c;fill-opacity:1;stroke:none;fill-rule:nonzero"/>
 <ellipse cx="8.156" cy="9.75" rx="1.594" ry="1.688" style="fill:#656565;opacity:1;fill-opacity:1;stroke:none;fill-rule:nonzero"/>
 <ellipse cy="9.75" cx="15.656" rx="1.594" ry="1.688" style="fill:#656565;opacity:1;fill-opacity:1;stroke:none;fill-rule:nonzero"/>
 <path d="m 13.77 16.486 c -0.54 -0.046 -1.172 -0.23 -2.239 -0.653 -0.686 -0.272 -0.929 -0.347 -1.23 -0.389 -0.28 -0.042 -0.46 -0.038 -0.657 0.05 -0.272 0.109 -0.431 0.364 -0.481 0.77 l -0.021 0.234 -0.891 0 0 -0.218 c 0 -0.406 0.13 -0.787 0.364 -1.076 0.096 -0.113 0.297 -0.28 0.427 -0.352 0.134 -0.075 0.377 -0.159 0.552 -0.197 0.234 -0.046 0.699 -0.046 0.975 0 0.414 0.075 0.866 0.218 1.816 0.59 0.837 0.322 1.21 0.423 1.62 0.423 0.218 0 0.243 -0.004 0.343 -0.038 0.193 -0.075 0.339 -0.23 0.419 -0.439 0.038 -0.096 0.084 -0.339 0.084 -0.444 l 0 -0.126 0.9 0 0 0.201 c 0 0.184 -0.025 0.381 -0.067 0.544 -0.151 0.594 -0.59 0.979 -1.251 1.092 -0.134 0.038 -0.519 0.042 -0.661 0.038 z m 0 0" style="fill:#636363;fill-opacity:1;stroke:none;fill-rule:nonzero"/>
</svg>
