<svg xmlns="http://www.w3.org/2000/svg" width="32" height="32" viewBox="0 0 24 24">
 <path d="m 22.5 12 c 0 4.972 -4.703 9 -10.5 9 c -5.797 0 -10.5 -4.03 -10.5 -9 0 -4.972 4.699 -9 10.5 -9 c 5.801 0 10.5 4.03 10.5 9 z m 0 0" style="fill:#ffd95c;fill-opacity:1;stroke:none;fill-rule:nonzero"/>
 <circle cx="8.25" cy="9.844" r="1.594" style="fill:#656565;opacity:1;fill-opacity:1;stroke:none;fill-rule:nonzero"/>
 <circle r="1.594" cy="9.844" cx="15.75" style="fill:#656565;opacity:1;fill-opacity:1;stroke:none;fill-rule:nonzero"/>
 <path d="m 12.305 3 c -4.558 -0.112 -8.672 2.317 -10.187 5.996 l 19.772 0 c -1.444 -3.498 -5.247 -5.888 -9.586 -5.996" style="fill:#282828;fill-opacity:1;stroke:none;fill-rule:nonzero"/>
 <path d="m 1.544 12.75 c 0.446 4.62 4.955 8.25 10.456 8.25 c 5.501 0 10.01 -3.63 10.456 -8.25 l -20.912 0 z" style="fill:#282828;opacity:1;fill-opacity:1;stroke:none;fill-rule:nonzero"/>
 <path d="m 10.03 15.75 3.938 0 c 0.154 0 0.281 0.17 0.281 0.375 l 0 0.75 c 0 0.205 -0.127 0.375 -0.281 0.375 l -3.938 0 c -0.154 0 -0.281 -0.17 -0.281 -0.375 l 0 -0.75 c 0 -0.205 0.127 -0.375 0.281 -0.375 z m 0 0" style="fill:#3d3d3d;fill-opacity:1;stroke:none;fill-rule:nonzero"/>
</svg>
