<svg xmlns="http://www.w3.org/2000/svg" width="32" height="32" viewBox="0 0 24 24">
 <path d="m 22.5 12 c 0 4.972 -4.703 9 -10.5 9 -5.797 0 -10.5 -4.03 -10.5 -9 0 -4.972 4.699 -9 10.5 -9 5.801 0 10.5 4.03 10.5 9 z m 0 0" style="fill:#ffd95c;fill-opacity:1;stroke:none;fill-rule:nonzero"/>
 <path d="m 14.391 14.631 c -0.014 -0.073 -0.068 -0.228 -0.118 -0.346 -0.146 -0.355 -0.168 -0.405 -0.219 -0.565 -0.091 -0.296 -0.068 -0.528 0.073 -0.774 0.073 -0.123 0.105 -0.164 0.182 -0.214 0.127 -0.091 0.264 -0.132 0.405 -0.123 0.096 0.005 0.146 0.009 0.273 0.082 0.137 0.077 0.155 0.109 0.209 0.196 0.064 0.109 0.096 0.282 0.073 0.373 l -0.018 0.055 0.073 -0.05 c 0.396 -0.282 0.956 0.046 0.924 0.546 -0.009 0.159 -0.155 0.428 -0.291 0.546 -0.187 0.15 -0.405 0.219 -0.847 0.269 -0.291 0.027 -0.651 0.118 -0.683 0.141 -0.041 0.027 -0.005 0.005 -0.036 -0.137 z m 0 0" style="fill:#f66;fill-opacity:1;stroke:none;fill-rule:nonzero"/>
 <path d="m 10.875 14.578 c 0.713 -0.713 1.515 -0.811 1.885 -0.29 0.223 0.308 -0.521 0.642 -0.521 1 0 0.357 0.37 0.281 0.486 0.557 -0.361 1.038 -1.502 0.468 -1.85 0.156 0.53 2.741 3.155 0.245 2.121 -0.735 1.422 -2.139 -1.275 -2.3 -2.121 -0.691 z m 0 0" style="fill:#636363;fill-opacity:1;stroke:none;fill-rule:nonzero"/>
 <path d="m 8.156 9 c -0.882 0 -1.594 0.712 -1.594 1.594 0 0.159 0.025 0.324 0.075 0.478 0.209 -0.667 0.822 -1.116 1.519 -1.116 0.697 0 1.31 0.453 1.519 1.116 0.05 -0.154 0.075 -0.314 0.075 -0.478 0 -0.882 -0.712 -1.594 -1.594 -1.594 z m 0 0" style="fill:#636363;fill-opacity:1;stroke:none;fill-rule:nonzero"/>
 <circle r="1.594" cy="9.844" cx="15.844" style="fill:#656565;opacity:1;fill-opacity:1;stroke:none;fill-rule:nonzero"/>
</svg>
