<svg xmlns="http://www.w3.org/2000/svg" width="32" height="32" viewBox="0 0 24 24">
 <path d="m 22.5 12 c 0 4.972 -4.703 9 -10.5 9 -5.797 0 -10.5 -4.03 -10.5 -9 0 -4.972 4.699 -9 10.5 -9 5.801 0 10.5 4.03 10.5 9 z m 0 0" style="fill:#ffcc3d;fill-opacity:1;stroke:none;fill-rule:nonzero"/>
 <path d="m 11.566 13.683 c 0.15 0.073 0.339 0.112 0.554 0.09 0.352 -0.039 0.476 -0.154 0.601 -0.292 0.197 -0.227 0.27 -0.536 -0.021 -0.708 -0.236 -0.137 -0.747 -0.146 -1.081 -0.077 -0.802 0.159 -0.536 0.76 -0.051 0.987 z m 0 0" style="fill:#2e2e2e;fill-opacity:1;stroke:none;fill-rule:nonzero"/>
 <path d="m 15.529 15.24 c -1.2 -0.275 -3.764 -0.293 -5.447 -0.158 c -4.055 0.316 -2.7 1.517 -0.258 1.98 0.736 0.135 1.697 0.223 2.78 0.176 1.772 -0.076 2.395 -0.305 3.02 -0.586 1 -0.451 1.359 -1.072 -0.094 -1.412 z m 0 0" style="fill:#de7035;fill-opacity:1;stroke:none;fill-rule:nonzero"/>
 <path d="m 12.142 3 c -0.122 -0.001 -0.244 0.002 -0.365 0.004 -0.209 0.004 -0.416 0.012 -0.621 0.026 -0.131 0.009 -0.261 0.019 -0.391 0.032 c -0.19 0.019 -0.377 0.046 -0.564 0.073 -0.133 0.02 -0.267 0.034 -0.399 0.059 -0.082 0.015 -0.162 0.038 -0.243 0.054 -0.447 0.093 -0.886 0.206 -1.311 0.347 -0.018 0.006 -0.036 0.012 -0.054 0.018 -0.252 0.085 -0.499 0.177 -0.741 0.278 -2.462 1.027 -4.424 2.871 -5.347 5.209 c -0.014 0 -0.027 0.003 -0.041 0.003 -0.36 0.909 -0.564 1.879 -0.564 2.892 0 1.024 0.209 2 0.576 2.92 0.011 0 0.022 0.002 0.034 0.002 1.151 2.882 3.886 5.01 7.192 5.769 0.128 0.029 0.254 0.06 0.384 0.085 0.143 0.028 0.287 0.052 0.432 0.075 0.196 0.031 0.394 0.057 0.593 0.078 0.108 0.012 0.216 0.024 0.325 0.032 0.314 0.025 0.631 0.042 0.952 0.042 0.006 0 0.013 0 0.019 0 0.331 0 0.657 -0.017 0.98 -0.042 0.091 -0.007 0.181 -0.019 0.271 -0.028 0.228 -0.023 0.453 -0.052 0.676 -0.088 0.116 -0.019 0.231 -0.038 0.346 -0.06 0.186 -0.035 0.368 -0.078 0.549 -0.122 0.13 -0.031 0.262 -0.058 0.39 -0.094 0.25 -0.069 0.495 -0.148 0.736 -0.232 0.012 -0.004 0.026 -0.007 0.038 -0.012 0.177 -0.063 0.349 -0.134 0.522 -0.205 0.09 -0.037 0.181 -0.072 0.27 -0.111 0.179 -0.079 0.355 -0.163 0.529 -0.251 0.076 -0.038 0.15 -0.078 0.224 -0.117 0.182 -0.097 0.362 -0.197 0.536 -0.303 0.025 -0.015 0.047 -0.032 0.072 -0.047 1.708 -1.063 3.045 -2.569 3.764 -4.37 0.007 0 0.014 -0.001 0.021 -0.002 0.367 -0.917 0.576 -1.896 0.576 -2.92 0 -1.013 -0.204 -1.984 -0.564 -2.892 -0.014 0 -0.027 -0.003 -0.041 -0.003 c -1.052 -2.667 -3.465 -4.699 -6.444 -5.599 c -0.002 -0.001 -0.005 -0.002 -0.007 -0.003 -0.001 0 -0.002 -0.001 -0.003 -0.001 c -0.217 -0.065 -0.437 -0.121 -0.659 -0.174 -0.091 -0.021 -0.182 -0.041 -0.274 -0.06 -0.178 -0.038 -0.356 -0.076 -0.536 -0.106 -0.287 -0.047 -0.577 -0.088 -0.872 -0.114 -0.056 -0.005 -0.114 -0.004 -0.17 -0.009 -0.262 -0.02 -0.526 -0.032 -0.793 -0.035 m -3.956 4.352 c 1.313 0.064 2.494 1.213 3.821 1.177 1.413 0.036 2.663 -1.272 4.081 -1.172 0.327 0.023 0.683 0.013 0.996 0.108 0.895 0.277 1.522 0.973 1.881 1.782 0.327 0.759 0.213 1.522 -0.028 2.286 -0.191 0.595 -0.199 1.391 -0.108 2 0.086 0.582 0.418 1.127 0.454 1.709 0.095 1.595 -1.291 2.674 -2.673 3.273 -1.368 0.6 -3.045 0.826 -4.608 0.799 c -1.563 0.027 -3.24 -0.199 -4.608 -0.799 -1.382 -0.604 -2.768 -1.678 -2.664 -3.273 0.032 -0.586 0.37 -1.127 0.451 -1.709 0.091 -0.609 0.081 -1.409 -0.106 -2 -0.245 -0.764 -0.358 -1.527 -0.026 -2.286 0.354 -0.809 0.982 -1.505 1.877 -1.782 0.318 -0.095 0.668 -0.086 0.995 -0.108 c 0.091 -0.009 0.177 -0.009 0.264 -0.004 z" style="fill:#855c51;fill-opacity:1;stroke:none;fill-rule:nonzero"/>
 <circle cx="8.25" cy="9.844" r="1.594" style="fill:#656565;opacity:1;fill-opacity:1;stroke:none;fill-rule:nonzero"/>
 <circle r="1.594" cy="9.844" cx="15.75" style="fill:#656565;opacity:1;fill-opacity:1;stroke:none;fill-rule:nonzero"/>
 <circle cx="2.25" cy="12" r="2.25" style="fill:#855c51;opacity:1;fill-opacity:1;stroke:none;fill-rule:nonzero"/>
 <path d="m 1.5 13.25 c -0.267 0 -0.516 -0.238 -0.651 -0.625 -0.132 -0.387 -0.132 -0.863 0 -1.25 c 0.135 -0.387 0.384 -0.625 0.651 -0.625 m 0 2.5" style="fill:#ffcc3d;fill-opacity:1;stroke:none;fill-rule:nonzero"/>
 <circle r="2.25" cy="12" cx="21.75" style="fill:#855c51;opacity:1;fill-opacity:1;stroke:none;fill-rule:nonzero"/>
 <path d="m 22.5 13.25 c 0.267 0 0.516 -0.238 0.651 -0.625 0.132 -0.387 0.132 -0.863 0 -1.25 -0.135 -0.387 -0.384 -0.625 -0.651 -0.625 z m 0 0" style="fill:#ffcc3d;fill-opacity:1;stroke:none;fill-rule:nonzero"/>
</svg>
