<svg xmlns="http://www.w3.org/2000/svg" width="32" height="32" viewBox="0 0 24 24">
 <path d="m 22.5 12 c 0 4.972 -4.703 9 -10.5 9 -5.797 0 -10.5 -4.03 -10.5 -9 0 -4.972 4.699 -9 10.5 -9 5.801 0 10.5 4.03 10.5 9 z m 0 0" style="fill:#ffd95c;fill-opacity:1;stroke:none;fill-rule:nonzero"/>
 <path d="m 9.75 10.594 c 0 0.882 -0.712 1.594 -1.594 1.594 -0.882 0 -1.594 -0.712 -1.594 -1.594 0 -0.882 0.712 -1.594 1.594 -1.594 0.882 0 1.594 0.712 1.594 1.594 z m 0 0" style="fill:#636363;fill-opacity:1;stroke:none;fill-rule:nonzero"/>
 <path d="m 17.437 10.594 c 0 0.882 -0.712 1.594 -1.594 1.594 -0.882 0 -1.594 -0.712 -1.594 -1.594 0 -0.882 0.712 -1.594 1.594 -1.594 0.882 0 1.594 0.712 1.594 1.594 z m 0 0" style="fill:#636363;fill-opacity:1;stroke:none;fill-rule:nonzero"/>
 <rect width="6" height="1.125" x="17.15" y="2.619" rx="0.5" transform="matrix(0.70710678,0.70710678,-0.70710678,0.70710678,0,0)" style="fill:#636363;opacity:1;fill-opacity:1;stroke:none;fill-rule:nonzero"/>
 <rect rx="0.5" y="-20.715" x="0.182" height="1.125" width="6" transform="matrix(-0.70710678,0.70710678,-0.70710678,-0.70710678,0,0)" style="fill:#636363;opacity:1;fill-opacity:1;stroke:none;fill-rule:nonzero"/>
</svg>
