<svg xmlns="http://www.w3.org/2000/svg" width="32" height="32" viewBox="0 0 24 24">
 <path d="m 22.5 12 c 0 4.972 -4.703 9 -10.5 9 -5.797 0 -10.5 -4.03 -10.5 -9 0 -4.972 4.699 -9 10.5 -9 5.801 0 10.5 4.03 10.5 9 z m 0 0" style="fill:#ffd95c;fill-opacity:1;stroke:none;fill-rule:nonzero"/>
 <path d="m 15.75 14.25 c -0.275 1.122 -1.804 1.882 -3.747 1.882 -0.001 0 -0.002 0 -0.003 0 l 0 1.305 c 0.001 0 0.002 0 0.003 0 2.228 0 4.13 -1.306 4.497 -3.188 l -0.75 0 z" style="fill:#636363;fill-opacity:1;stroke:none;fill-rule:nonzero"/>
 <path d="m 9.525 11.439 c -0.509 0.388 -0.844 0.995 -0.844 1.686 c 0 1.175 0.95 2.125 2.125 2.125 c 1.085 0 1.966 -0.811 2.098 -1.859 l -3.379 -1.951 z" transform="scale(0.74999998,0.74999998)" style="fill:#636363;fill-opacity:1;stroke:none;fill-rule:nonzero"/>
 <path d="m 22.395 11.484 l -3.43 1.98 c 0.163 1.013 1.033 1.785 2.092 1.785 c 1.175 0 2.125 -0.95 2.125 -2.125 c 0 -0.665 -0.31 -1.251 -0.787 -1.641 z" transform="scale(0.74999998,0.74999998)" style="fill:#636363;fill-opacity:1;stroke:none;fill-rule:nonzero"/>
 <path d="m 14.667 8.25 2.917 0 c 0.643 0 1.167 0.505 1.167 1.125 l 0 2.25 c 0 0.62 -0.524 1.125 -1.167 1.125 l -2.917 0 c -0.643 0 -1.167 -0.505 -1.167 -1.125 l 0 -2.25 c 0 -0.62 0.524 -1.125 1.167 -1.125 z m 0 0" style="fill:#454545;fill-opacity:1;stroke:none;fill-rule:nonzero"/>
 <path d="m 23.594 13.5 c -0.324 0 -0.594 0.227 -0.594 0.5 c 0 0.273 0.269 0.5 0.594 0.5 l 6.285 0 c -0.049 -0.337 -0.108 -0.672 -0.189 -1 l -6.096 0 z" transform="scale(0.74999998,0.74999998)" style="fill:#454545;fill-opacity:1;stroke:none;fill-rule:nonzero"/>
 <path d="m 14.963 4.045 c -0.369 0.023 -0.732 0.062 -1.092 0.109 l 6.074 10.52 l 0.865 -0.5 l -5.848 -10.129 z" transform="scale(0.74999998,0.74999998)" style="fill:#454545;fill-opacity:1;stroke:none;fill-rule:nonzero"/>
</svg>
