<svg xmlns="http://www.w3.org/2000/svg" width="32" height="32" viewBox="0 0 24 24">
 <path d="m 22.5 12 c 0 4.972 -4.703 9 -10.5 9 -5.797 0 -10.5 -4.03 -10.5 -9 0 -4.972 4.699 -9 10.5 -9 5.801 0 10.5 4.03 10.5 9 z m 0 0" style="fill:#ffd95c;fill-opacity:1;stroke:none;fill-rule:nonzero"/>
 <path d="m 8.156 9 c -0.882 0 -1.594 0.712 -1.594 1.594 0 0.159 0.025 0.324 0.075 0.478 0.209 -0.667 0.822 -1.116 1.519 -1.116 0.697 0 1.31 0.453 1.519 1.116 0.05 -0.154 0.075 -0.314 0.075 -0.478 0 -0.882 -0.712 -1.594 -1.594 -1.594 z m 0 0" style="fill:#636363;fill-opacity:1;stroke:none;fill-rule:nonzero"/>
 <circle r="1.594" cy="9.844" cx="15.844" style="fill:#656565;opacity:1;fill-opacity:1;stroke:none;fill-rule:nonzero"/>
 <rect width="6" height="0.75" x="9" y="15" rx="0.375" style="fill:#636363;opacity:1;fill-opacity:1;stroke:none;fill-rule:nonzero"/>
 <path d="m 13.875 15 c 0 1.341 -0.357 2.577 -0.938 3.245 -0.58 0.674 -1.295 0.674 -1.875 0 c -0.58 -0.668 -0.938 -1.904 -0.938 -3.245" style="fill:#f05959;fill-opacity:1;stroke:none;fill-rule:nonzero"/>
</svg>
