<svg viewBox="0 0 22 22" xmlns="http://www.w3.org/2000/svg">
 <rect width="1" style="fill:#f9b13a;opacity:1;fill-opacity:1;stroke:none;fill-rule:nonzero" y="1" x="-20" transform="matrix(0 -1 1 0 0 0)" height="20"/>
 <path style="fill:#888888;fill-opacity:1" d="m 4.253 18.277 q 0.164 0.074 0.416 0.134 0.268 0.074 0.52 0.074 0.817 0 1.278 -0.372 q 0.461 -0.356 0.832 -1.174 -0.936 -1.783 -1.754 -3.775 -0.802 -2.01 -1.338 -4.057 l 1.486 0 q 0.164 0.669 0.387 1.441 0.238 0.773 0.52 1.59 0.282 0.817 0.61 1.635 0.327 0.817 0.684 1.575 0.565 -1.56 0.981 -3.091 0.416 -1.531 0.788 -3.151 l 1.426 0 q -0.535 2.185 -1.189 4.205 -0.654 2.01 -1.412 3.76 -0.297 0.669 -0.624 1.144 -0.312 0.491 -0.698 0.802 -0.387 0.312 -0.877 0.461 -0.475 0.149 -1.082 0.149 -0.164 0 -0.342 -0.03 q -0.178 -0.015 -0.356 -0.059 -0.164 -0.03 -0.312 -0.074 -0.134 -0.045 -0.193 -0.074 l 0.253 -1.115 z"/>
 <path style="fill:#888888;fill-opacity:1" d="m 15.15 15.841 q 0.491 0 0.862 -0.015 0.387 -0.03 0.639 -0.089 l 0 -2.304 q -0.149 -0.074 -0.491 -0.119 -0.327 -0.059 -0.802 -0.059 -0.312 0 -0.669 0.045 -0.342 0.045 -0.639 0.193 -0.282 0.134 -0.475 0.387 -0.193 0.238 -0.193 0.639 0 0.743 0.475 1.04 0.475 0.282 1.293 0.282 z m -0.119 -6.925 q 0.832 0 1.397 0.223 0.579 0.208 0.921 0.61 0.356 0.387 0.505 0.936 0.149 0.535 0.149 1.189 l 0 4.829 q -0.178 0.03 -0.505 0.089 -0.312 0.045 -0.713 0.089 -0.401 0.045 -0.877 0.074 -0.461 0.045 -0.921 0.045 -0.654 0 -1.203 -0.134 -0.55 -0.134 -0.951 -0.416 -0.401 -0.297 -0.624 -0.773 -0.223 -0.475 -0.223 -1.144 0 -0.639 0.253 -1.1 0.268 -0.461 0.713 -0.743 0.446 -0.282 1.04 -0.416 0.594 -0.134 1.248 -0.134 0.208 0 0.431 0.03 0.223 0.015 0.416 0.059 0.208 0.03 0.356 0.059 0.149 0.03 0.208 0.045 l 0 -0.387 q 0 -0.342 -0.074 -0.669 -0.074 -0.342 -0.268 -0.594 -0.193 -0.268 -0.535 -0.416 -0.327 -0.164 -0.862 -0.164 -0.684 0 -1.203 0.104 -0.505 0.089 -0.758 0.193 l -0.164 -1.144 q 0.268 -0.119 0.892 -0.223 0.624 -0.119 1.352 -0.119 z"/>
</svg>
