<svg xmlns="http://www.w3.org/2000/svg" viewBox="0 0 22 22">
 <path d="m 11.02 1 c -1.421 -0.006 -2.221 5.03 -3.374 5.86 -1.153 0.83 -6.17 -0.018 -6.614 1.332 -0.444 1.35 4.094 3.663 4.528 5.02 c 0.433 1.353 -1.901 5.864 -0.755 6.703 1.147 0.84 4.749 -2.758 6.171 -2.752 1.421 0.006 4.974 3.672 6.126 2.841 1.153 -0.831 -1.155 -5.398 -0.71 -6.748 0.445 -1.349 5.01 -3.619 4.572 -4.972 c -0.434 -1.353 -5.468 -0.536 -6.614 -1.376 -1.146 -0.84 -1.909 -5.899 -3.329 -5.904 z" style="fill:#f1c40f;fill-opacity:1;color:#000"/>
 <path d="m 10 8 0 3 -3 0 0 2 3 0 0 3 2 0 0 -3 3 0 0 -2 -3 0 0 -3 z" style="fill:#859900;fill-opacity:1;stroke:none;fill-rule:evenodd"/>
</svg>
