<svg width="22" xmlns="http://www.w3.org/2000/svg" height="22" viewBox="0 0 22 22">
<g style="fill:#859900" transform="matrix(1.50015 0 0 1.49644 -121.1043 -1117.3371)">
<path d="m 92.3,748 c -0.77,0 -1.33,0.7 -1.82,1.2 -0.46,0.6 -0.94,1.3 -1.07,2 0,0.3 0.29,0.4 0.41,0.6 0.47,0.4 0.95,1 0.66,1.7 -0.43,0.8 -1.22,1.4 -1.84,2.1 -0.49,0.5 -1.13,1.2 -1.91,0.9 -0.58,-0.3 -0.91,-0.8 -1.36,-1.1 -0.63,0 -1.17,0.4 -1.69,0.7 -0.67,0.5 -1.36,1.1 -1.6,1.9 -0.14,0.6 0.54,1 0.96,1.3 1.05,0.8 2.47,0.9 3.68,0.5 1.94,-0.7 3.5,-2.2 4.88,-3.6 1.17,-1.4 2.3,-3 2.45,-4.8 0.1,-1.3 -0.55,-2.5 -1.55,-3.3 l -0.1,-0.1 -0.1,0 z"/>
</g>
</svg>
