<svg xmlns="http://www.w3.org/2000/svg" viewBox="0 0 22 22">
 <g style="fill-rule:evenodd">
  <path d="m 3,2 10,0 c 2,0 2,0 2,2 l 0,14 c 0,2 0,2 -2,2 L 3,20 C 1,20 1,20 1,18 L 1,4 C 1,2 1,2 3,2 z" style="fill:#fff"/>
  <path d="m 13.929 17.837 6.857 -5.38 c 1.667 -1.308 1.57 -1.458 0 -2.69 l -6.857 -5.38 c -0.955 -0.751 -0.929 -0.472 -0.929 1.384 l 0 2.228 c -6.814 0 -10 4.457 -10 9.879 2.7 -2.732 5.885 -3.963 10 -3.879 l 0 2 c 0 0.978 -0.025 2.499 0.929 1.834 z" style="fill:#268bd2"/>
 </g>
</svg>
