<svg xmlns="http://www.w3.org/2000/svg" viewBox="0 0 22 22">
 <g transform="matrix(1.03896 0 0 1.03896 -.42857 -.42857)">
  <path d="m 2.477 1.375 c -0.551 0 -1.102 0.551 -1.102 1.102 l 0 17.08 c 0 0.52 0.551 1.07 1.07 1.07 l 17.11 0 c 0.52 0 1.07 -0.551 1.07 -1.07 l 0 -17.11 c 0 -0.52 -0.551 -1.07 -1.07 -1.07 z" style="fill:#c19553"/>
  <path d="m 2.477 1.375 c -0.551 0 -1.102 0.551 -1.102 1.102 l 0 6.598 c 2.137 0 17.11 0 19.25 0 l 0 -6.63 c 0 -0.52 -0.551 -1.07 -1.07 -1.07 z" style="fill:#fff;fill-opacity:0.196"/>
  <path d="m 11 3.3 -1.925 0 0 -1.925 1.925 0 0 3.85 -1.925 0 0 1.925 1.925 0 0 3.866 l -1.925 -0.016 l 0 3.85 3.85 0 0 -3.85 -1.925 0.016 0 -1.941 1.925 0 0 -1.925 -1.925 0 0 -1.925 1.925 0 0 -1.925 -1.925 0 z" style="fill:#fff"/>
 </g>
 <path d="m 17.646 21.96 c 0.709 -0.298 1.33 -0.639 1.856 -1.024 c 5.173 -4.061 1.643 -10.119 -4.502 -10.119 l 0 -3.501 -7 5.252 7 6.127 l 0 -3.501 c 5.269 0.884 5.289 1.681 2.655 6.118 0 0 -0.875 0.884 0 0.648 z" style="fill:#cb4b16;color:#bebebe"/>
</svg>
