<svg xmlns="http://www.w3.org/2000/svg" viewBox="0 0 22 22">
 <rect width="4" height="14" x="9" y="-18" transform="matrix(0,1,-1,0,0,0)" style="fill:#268bd2;opacity:0.2;fill-opacity:1;stroke:none;fill-rule:nonzero"/>
 <path d="m 3 3 c 0 5.333 0 10.667 0 16 5.333 0 10.667 0 16 0 c 0 -5.333 0 -10.667 0 -16 -5.333 0 -10.667 0 -16 0 m 1 1 4 0 0 4 -4 0 m 5 -4 4 0 0 4 -4 0 z m 5 0 4 0 0 4 -4 0 z m -10 5 c 4.667 0 9.333 0 14 0 l 0 4 c -4.667 0 -9.333 0 -14 0 z m 0 5 4 0 0 4 -4 0 z m 5 0 4 0 0 4 -4 0 z m 5 0 4 0 0 4 -4 0 z" style="fill:#888;opacity:1;fill-opacity:1;stroke:none;fill-rule:nonzero"/>
 <path d="m 8 9 0 4 -2.5 -2" style="fill:#268bd2;opacity:1;fill-opacity:1;stroke:none"/>
 <path d="m 14 9 0 4 2.5 -2 z" style="fill:#268bd2;opacity:1;fill-opacity:1;stroke:none"/>
</svg>
