<!-- Created with Inkscape (http://www.inkscape.org/) -->
<svg xmlns="http://www.w3.org/2000/svg" viewBox="0 0 22 22">
 <path d="m 12.474 8.216 6.07 2.855 c 0 0 -0.209 6.06 0.365 7.777 0.574 1.721 1.796 0.84 1.849 0.221 0.077 -0.904 0.842 -6.571 -0.825 -9.132 c -1.114 -1.71 -3.632 -2.397 -5.354 -2.971 -1.721 -0.574 -2.105 1.25 -2.105 1.25" style="fill:#cb4b16;fill-opacity:1;stroke:none;fill-rule:evenodd"/>
 <path d="m 18.544 11.07 -8.113 8.113 c -0.674 0.674 -1.76 0.674 -2.434 0 l -6.491 -6.491 c -0.674 -0.674 -0.674 -1.76 0 -2.434 l 8.113 -8.113" style="fill:#bcbcbc;opacity:1;fill-opacity:1;stroke:none;fill-rule:nonzero"/>
 <path d="m 8.372 2.875 c -2.02 0.017 -3.957 0.419 -5.371 1.177 -0.943 0.505 -1.602 1.143 -1.832 1.931 c -0.23 0.787 0.069 1.642 0.738 2.287 1.339 1.292 3.863 1.95 6.638 1.95 l 0 -1.148 c -2.576 0 -4.919 -0.738 -5.842 -1.628 c -0.461 -0.445 -0.539 -0.779 -0.434 -1.138 0.105 -0.36 0.495 -0.826 1.272 -1.243 1.024 -0.549 2.54 -0.905 4.163 -1 l 1.172 -1.173 c -0.169 -0.004 -0.337 -0.013 -0.505 -0.011" mix-blend-mode="normal" isolation="auto" white-space="normal" solid-color="#000000" solid-opacity="1" style="visibility:visible;shape-rendering:auto;color-interpolation-filters:linearRGB;fill:#5a5a5a;opacity:1;image-rendering:auto;fill-opacity:1;stroke:none;display:inline;color:#000;fill-rule:nonzero;color-rendering:auto;color-interpolation:sRGB"/>
</svg>
