<svg xmlns="http://www.w3.org/2000/svg" viewBox="0 0 22 22">
 <rect width="16" height="18" x="3" y="3" rx="2" style="fill:#e5e1c7;opacity:1;fill-opacity:1;stroke:none"/>
 <rect rx="1" y="4" x="4" height="16" width="14" style="fill:#eae7d1;opacity:1;fill-opacity:1;stroke:none"/>
 <rect width="1" height="3" x="5" y="2" rx="0.5" style="fill:#999;opacity:1;fill-opacity:1;stroke:none"/>
 <rect rx="0.5" y="2" x="7" height="3" width="1" style="fill:#999;opacity:1;fill-opacity:1;stroke:none"/>
 <rect width="1" height="3" x="9" y="2" rx="0.5" style="fill:#999;opacity:1;fill-opacity:1;stroke:none"/>
 <rect rx="0.5" y="2" x="12" height="3" width="1" style="fill:#999;opacity:1;fill-opacity:1;stroke:none"/>
 <rect width="1" height="3" x="14" y="2" rx="0.5" style="fill:#999;opacity:1;fill-opacity:1;stroke:none"/>
 <rect rx="0.5" y="2" x="16" height="3" width="1" style="fill:#999;opacity:1;fill-opacity:1;stroke:none"/>
 <rect width="12" height="1" x="5" y="7" style="fill:#999;opacity:1;fill-opacity:1;stroke:none"/>
 <rect y="9" x="5" height="1" width="12" style="fill:#999;opacity:1;fill-opacity:1;stroke:none"/>
 <rect width="8" height="1" x="5" y="11" style="fill:#999;opacity:1;fill-opacity:1;stroke:none"/>
 <rect y="13" x="5" height="1" width="8" style="fill:#999;opacity:1;fill-opacity:1;stroke:none"/>
 <rect width="12" height="1" x="5" y="15" style="fill:#999;opacity:1;fill-opacity:1;stroke:none"/>
 <rect y="17" x="5" height="1" width="12" style="fill:#999;opacity:1;fill-opacity:1;stroke:none"/>
 <path d="m 22 19.17 -2.828 -2.828 2.828 -2.828 -2.828 -2.828 -2.828 2.828 -2.828 -2.828 -2.828 2.828 2.828 2.828 -2.828 2.828 2.828 2.828 2.828 -2.828 2.828 2.828" style="fill:#dc322f;fill-opacity:1"/>
</svg>
