<svg width="22" xmlns="http://www.w3.org/2000/svg" height="22" viewBox="0 0 22 22">
<g transform="matrix(0 1 -1 0 22 0)">
<path style="fill:#268bd2;fill-rule:evenodd" d="M 21,11 C 21,5.4779827 16.522017,1 11,1 5.477983,1 1,5.4779827 1,11 c 0,5.522017 4.477983,10 10,10 5.522017,0 10,-4.477983 10,-10 z"/>
<path style="fill:#fff;fill-opacity:.9" d="m 17,11.003395 c 0,-0.30606 -0.130466,-0.596458 -0.34375,-0.8125 L 12.9375,6.3471455 c -0.201597,-0.213041 -0.48908,-0.33476 -0.78125,-0.34375 -0.464552,-0.015002 -0.881355,0.2494155 -1.0625,0.6875 -0.181146,0.4380841 -0.08307,0.9511864 0.25,1.28125 l 1.96875,2.0312495 -8.3125,0 0,2 8.3125,0 -1.96875,2.03125 c -0.438256,0.450088 -0.438256,1.174913 0,1.625 0.438257,0.450087 1.155495,0.450087 1.59375,0 l 3.71875,-3.84375 C 16.869534,11.599854 17,11.309453 17,11.003395 z"/>
</g>
</svg>
