<svg xmlns="http://www.w3.org/2000/svg" viewBox="0 0 22 22">
 <path d="m 4.2 1.301 7.6 -0.001 c 1.9 0 1.9 0 1.9 1.925 l 0 11.55 c 0 1.925 0 1.925 -1.9 1.925 l -7.6 0 c -1.9 0 -1.9 0 -1.9 -1.925 l 0 -11.549 c 0 -1.925 0 -1.925 1.9 -1.925 z" style="stroke-dasharray:2.4 2.4;stroke-opacity:1;fill:#fff;stroke-miterlimit:4;fill-opacity:1;stroke:#cfcfcf;fill-rule:evenodd;stroke-width:0.6;stroke-dashoffset:0"/>
 <g transform="translate(-5,-7)">
  <path d="m 12.2 10.301 7.6 -0.001 c 1.9 0 1.9 0 1.9 1.925 l 0 11.55 c 0 1.925 0 1.925 -1.9 1.925 l -7.6 0 c -1.9 0 -1.9 0 -1.9 -1.925 l 0 -11.549 c 0 -1.925 0 -1.925 1.9 -1.925 z" style="stroke-dasharray:2.4 2.4;stroke-opacity:1;fill:#c2c2c2;stroke-miterlimit:4;fill-opacity:1;stroke:#888;fill-rule:evenodd;stroke-width:0.6;stroke-dashoffset:0"/>
  <g transform="translate(1,4.0000005)" style="fill:#888;opacity:1">
   <path d="m 11 9 0 2 8 0 0 -2 z"/>
   <path d="m 11 17 0 2 4 0 0 -2 z"/>
   <path d="m 11 13 0 2 8 0 0 -2 z"/>
  </g>
 </g>
 <path d="m 10,5.001 8,0 c 2,0 2,0 2,2 L 20,19 c 0,2 0,2 -2,2 l -8,0 C 8,21 8,21 8,19 L 8,7.001 c 0,-2 0,-2 2,-2 z" style="fill:#fff;fill-rule:evenodd"/>
 <g transform="translate(-1 -1)" style="fill:#888">
  <path d="m 11 9 0 2 8 0 0 -2 z"/>
  <path d="m 11 17 0 2 4 0 0 -2 z"/>
  <path d="m 11 13 0 2 8 0 0 -2 z"/>
 </g>
</svg>
