<svg width="22" xmlns="http://www.w3.org/2000/svg" viewBox="0 0 22 22" height="22">
<g transform="translate(-1 -1)">
<path style="fill:#268bd2;fill-rule:evenodd" d="m 21.999986,12.001 a 9.9999861,9.9999827 0 0 1 -19.9999721,0 9.9999861,9.9999827 0 1 1 19.9999721,0 z"/>
</g>
<g style="word-spacing:0;line-height:125%;letter-spacing:0">
<g style="fill:#fff" transform="matrix(1.48084 0 0 1.35629 -4.31532 -8.41989)">
<path d="m 9.2231874,15.742203 0,-0.433594 c -1.6e-6,-0.374996 0.080076,-0.701168 0.2402344,-0.978516 0.1601543,-0.277339 0.4531227,-0.57226 0.8789062,-0.884765 0.410153,-0.292964 0.679684,-0.531245 0.808594,-0.714844 0.132809,-0.183588 0.199215,-0.388666 0.199219,-0.615234 -4e-6,-0.2539 -0.09375,-0.447259 -0.28125,-0.580078 -0.187504,-0.132806 -0.449222,-0.199212 -0.785157,-0.199219 -0.5859393,7e-6 -1.2539074,0.191413 -2.0039059,0.574219 L 7.6411562,10.626968 c 0.8710928,-0.488272 1.79492,-0.7324128 2.7714848,-0.7324215 0.804683,8.7e-6 1.443355,0.1933675 1.916015,0.5800785 0.476557,0.386726 0.714839,0.902351 0.714844,1.546875 -5e-6,0.429693 -0.09766,0.800787 -0.292969,1.113281 -0.195317,0.312505 -0.566411,0.664067 -1.113281,1.054687 -0.375004,0.277348 -0.613285,0.488286 -0.714844,0.632813 -0.09766,0.144535 -0.146487,0.333988 -0.146484,0.568359 l 0,0.351563 -1.5527346,0 m -0.1875,2.003906 c -1.4e-6,-0.328124 0.087889,-0.57617 0.2636719,-0.744141 0.1757794,-0.167967 0.4316385,-0.251951 0.7675777,-0.251953 0.324216,2e-6 0.574216,0.08594 0.75,0.257813 0.179685,0.171876 0.269528,0.41797 0.269532,0.738281 -4e-6,0.308594 -0.08985,0.552735 -0.269532,0.732422 -0.17969,0.175781 -0.42969,0.263672 -0.75,0.263672 -0.3281267,0 -0.5820327,-0.08594 -0.7617183,-0.257813 C 9.1255297,18.308609 9.035686,18.062516 9.0356874,17.746109"/>
</g>
<g style="fill:#268bd2;fill-opacity:.1" transform="matrix(1.48084 0 0 1.35629 -4.31532 -8.41989)">
<path d="m 9.2231874,15.742203 0,-0.433594 c -1.6e-6,-0.374996 0.080076,-0.701168 0.2402344,-0.978516 0.1601543,-0.277339 0.4531227,-0.57226 0.8789062,-0.884765 0.410153,-0.292964 0.679684,-0.531245 0.808594,-0.714844 0.132809,-0.183588 0.199215,-0.388666 0.199219,-0.615234 -4e-6,-0.2539 -0.09375,-0.447259 -0.28125,-0.580078 -0.187504,-0.132806 -0.449222,-0.199212 -0.785157,-0.199219 -0.5859393,7e-6 -1.2539074,0.191413 -2.0039059,0.574219 L 7.6411562,10.626968 c 0.8710928,-0.488272 1.79492,-0.7324128 2.7714848,-0.7324215 0.804683,8.7e-6 1.443355,0.1933675 1.916015,0.5800785 0.476557,0.386726 0.714839,0.902351 0.714844,1.546875 -5e-6,0.429693 -0.09766,0.800787 -0.292969,1.113281 -0.195317,0.312505 -0.566411,0.664067 -1.113281,1.054687 -0.375004,0.277348 -0.613285,0.488286 -0.714844,0.632813 -0.09766,0.144535 -0.146487,0.333988 -0.146484,0.568359 l 0,0.351563 -1.5527346,0 m -0.1875,2.003906 c -1.4e-6,-0.328124 0.087889,-0.57617 0.2636719,-0.744141 0.1757794,-0.167967 0.4316385,-0.251951 0.7675777,-0.251953 0.324216,2e-6 0.574216,0.08594 0.75,0.257813 0.179685,0.171876 0.269528,0.41797 0.269532,0.738281 -4e-6,0.308594 -0.08985,0.552735 -0.269532,0.732422 -0.17969,0.175781 -0.42969,0.263672 -0.75,0.263672 -0.3281267,0 -0.5820327,-0.08594 -0.7617183,-0.257813 C 9.1255297,18.308609 9.035686,18.062516 9.0356874,17.746109"/>
</g>
</g>
</svg>
