<svg xmlns="http://www.w3.org/2000/svg" viewBox="0 0 22 22">
 <path d="m 8 14 14 0 -7 8 z" style="fill:#cb4b16"/>
 <g transform="matrix(1.354191,0,0,1.3140036,0,0.64705927)" style="fill:#888;fill-opacity:1;stroke:none">
  <path d="m 2.187 1.791 -2.187 6.088 l 1.01 0 0.58 -1.649 2.144 0 0.589 1.649 1.068 0 -2.187 -6.088 z m 1.219 3.478 -1.489 0 0.748 -2.215 z" style="fill:#888"/>
  <path d="m 7.791 2.806 c 0.955 0 1.203 0.273 1.203 0.728 0 0.481 -0.324 0.756 -1.16 0.756 -0.296 0 -0.591 0 -0.887 0 l 0 -1.484 z m -0.085 2.368 c 1.262 0 1.731 0.326 1.731 0.867 0 0.661 -0.64 0.823 -1.723 0.823 l -0.768 0 0 -1.681 z m -1.798 -3.383 l 0 6.087 1.917 0 c 2.235 0 2.661 -1.03 2.661 -1.709 0 -0.592 -0.409 -1.305 -1.245 -1.46 0.546 -0.335 0.776 -0.79 0.776 -1.322 0 -0.541 -0.316 -1.633 -2.038 -1.597 z" style="fill:#888"/>
  <path d="m 14.299 1.791 c -1.965 0 -3.222 1.314 -3.222 3.03 0 1.692 1.196 3.057 3.161 3.057 0.559 0 1.214 -0.129 1.851 -0.395 l 0.157 -0.06 -0.349 -0.85 -0.157 0.06 c -0.463 0.18 -0.926 0.275 -1.31 0.275 -1.415 0 -2.253 -0.833 -2.253 -2.095 0 -1.133 0.786 -2.087 2.096 -2.087 0.279 0 0.707 0 1.371 0.24 l 0.166 0.06 0.349 -0.842 -0.157 -0.06 c -0.637 -0.249 -1.231 -0.335 -1.703 -0.335" style="fill:#888"/>
 </g>
</svg>
