<svg xmlns="http://www.w3.org/2000/svg" viewBox="0 0 22 22">
 <g transform="matrix(0.81818182,0,0,0.81249997,0,-4.8749992)" style="fill:#268bd2;opacity:0.4;fill-opacity:1">
  <path d="m 2 6 c -2 0 -2 0 -2 2 l 0 12 c 0 2 0 2 2 2 l 18 0 c 2 0 2 0 2 -2 0 -4.426 0 -9.441 0 -12 0 -2 0 -2 -2 -2 z"/>
  <path d="m 2,22 18,0 c 2,0 2,0 2,-2 L 22,8 0,20 c 0,2 0,2 2,2 z"/>
 </g>
 <path d="m 18 1.625 l -9 4.875 l 9 4.875 l 0 -9.75 z" style="opacity:0.4;fill-opacity:0.1"/>
 <path d="m 0,1.6250011 9,4.874999 9,-4.874999 C 18,0 18,0 16.363637,0 L 1.636363,0 C 0,0 0,0 0,1.6250011 Z" style="fill:#fff;opacity:0.4;fill-opacity:0.102"/>
 <g transform="matrix(0.81818182,0,0,0.81249997,4,4.1250007)" style="fill:#268bd2">
  <path d="m 2 6 c -2 0 -2 0 -2 2 l 0 12 c 0 2 0 2 2 2 l 18 0 c 2 0 2 0 2 -2 0 -4.426 0 -9.441 0 -12 0 -2 0 -2 -2 -2 z"/>
  <path d="m 2,22 18,0 c 2,0 2,0 2,-2 L 22,8 0,20 c 0,2 0,2 2,2 z"/>
 </g>
 <path d="m 5.636 22 14.727 0 c 1.636 0 1.636 0 1.636 -1.625 l 0 -9.75 -18 9.75 c 0 1.625 0 1.625 1.636 1.625" style="fill-opacity:0.1"/>
 <path d="M 20.363637,22 5.6363637,22 C 4,22 4,22 4,20.375001 l 0,-9.75 18,9.75 C 22,22 22,22 20.363637,22 Z" style="fill:#268bd2"/>
 <path d="m 4 10.625 9 4.875 9 -4.875 c 0 -1.625 0 -1.625 -1.636 -1.625 l -14.727 0 c -1.636 0 -1.636 0 -1.636 1.625" style="fill:#fff;fill-opacity:0.102"/>
</svg>
