<svg width="22" xmlns="http://www.w3.org/2000/svg" height="22" viewBox="0 0 22 22">
<path style="fill:#268bd2" d="m 2,22 18,0 c 2,0 2,0 2,-2 L 22,7 11,0 0,7 0,20 c 0,2 0,2 2,2 z"/>
<path style="fill-opacity:.102" d="m 2,22 18,0 c 2,0 2,0 2,-2 L 22,7 11,0 0,7 0,20 c 0,2 0,2 2,2 z"/>
<path style="fill:#fff" d="M 3,3 3,19 19,19 19,3 z"/>
<g style="fill:#268bd2">
<path d="m 2,22 18,0 c 2,0 2,0 2,-2 L 22,8 0,20 c 0,2 0,2 2,2 z"/>
<path d="M 20,22 2,22 C 0,22 0,22 0,20 L 0,8 22,20 c 0,2 0,2 -2,2 z"/>
</g>
<path style="fill:#fff;fill-opacity:.102" d="M 20,22 2,22 C 0,22 0,22 0,20 L 0,8 22,20 c 0,2 0,2 -2,2 z"/>
<path style="fill:#cb4b16;fill-rule:evenodd" d="m 19.561515,6.4573283 c 1.027344,4.6145407 0.75,4.0422887 -3.078125,2.0982561 -4.015625,2.1185496 -3.875,2.2971236 -3.046875,-2.1429001 -3.6132806,-3.1250632 -3.199219,-2.8450244 1.1875,-3.4213351 1.976562,-4.1396935 1.808594,-3.84342049 3.789062,0.02841 4.628907,0.535725 4.519532,0.3530917 1.148438,3.4375692 z"/>
</svg>
