<svg xmlns="http://www.w3.org/2000/svg" width="22" height="22" viewBox="0 0 22 22">
 <path d="m 0,17.999592 c 0,-0.917969 0,-2.082031 0,-3 1.46875,-0.01563 3.53125,0.05859 5,0 1.984375,0 2.5602922,0 3,-1 l 2,-6.0000002 c 1.375,-4.1249997 1.367188,-3.9999997 3,-3.9999997 1.546876,0 2.453124,0 4,0 -0.515626,-0.441406 -0.722656,-0.96875 -0.453125,-1.683594 0.285156,-1.035156 1.785156,-1.296875 2.425781,-0.445312 1.199219,1.207031 1.863282,2.390625 3.027344,3.628906 -1.234375,1.304688 -1.964844,2.5624997 -3.238281,3.8320307 -0.835938,0.7734382 -2.382813,0.07813 -2.316407,-1.070312 C 16.417969,7.6597478 16.609374,7.3784978 17,6.9995921 c -1.726563,0.01563 -0.277344,-0.0625 -2,0 -2,0 -1.527334,0 -2,0.9999997 l -2,6.0000002 c -1.375,4.125 -1.25,4 -4,4 -1.289062,0 -5.710938,0 -7,0 z" fill="#268bd1"/>
 <path d="m 0,17.999592 c 0,-0.917969 0,-2.082031 0,-3 1.46875,-0.01563 3.53125,0.05859 5,0 1.984375,0 2.5602922,0 3,-1 l 2,-6.0000002 c 1.375,-4.1249997 1.367188,-3.9999997 3,-3.9999997 1.546876,0 2.453124,0 4,0 -0.515626,-0.441406 -0.722656,-0.96875 -0.453125,-1.683594 0.285156,-1.035156 1.785156,-1.296875 2.425781,-0.445312 1.199219,1.207031 1.863282,2.390625 3.027344,3.628906 -1.234375,1.304688 -1.964844,2.5624997 -3.238281,3.8320307 -0.835938,0.7734382 -2.382813,0.07813 -2.316407,-1.070312 C 16.417969,7.6597478 16.609374,7.3784978 17,6.9995921 c -1.726563,0.01563 -0.277344,-0.0625 -2,0 -2,0 -1.527334,0 -2,0.9999997 l -2,6.0000002 c -1.375,4.125 -1.25,4 -4,4 -1.289062,0 -5.710938,0 -7,0 z" opacity="0.1"/>
 <path d="M 0,4 C 0,4.917969 0,6.082031 0,7 1.46875,7.015625 3.53125,6.941406 5,7 6.984375,7 7.5602922,7 8,8 l 2,6 c 1.375,4.125 1.367188,4 3,4 1.546876,0 2.453124,0 4,0 -0.515626,0.441406 -0.722656,0.96875 -0.453125,1.683594 0.285156,1.035156 1.785156,1.296875 2.425781,0.445312 C 20.171875,18.921875 20.835938,17.738281 22,16.5 20.765625,15.195312 20.035156,13.9375 18.761719,12.667969 17.925781,11.894531 16.378906,12.589844 16.445312,13.738281 16.417969,14.339844 16.609374,14.621094 17,15 c -1.726563,-0.01563 -0.277344,0.0625 -2,0 -2,0 -1.527334,0 -2,-1 L 11,8 C 9.625,3.875 9.75,4 7,4 5.710938,4 1.289062,4 0,4 z" fill="#268bd1"/>
</svg>
