<svg viewBox="0 0 22 22" xmlns="http://www.w3.org/2000/svg">
 <rect style="fill:#3daee9;opacity:1;fill-opacity:1;stroke:none;fill-rule:nonzero" x="3" y="-9.5" transform="matrix(0 1 -1 0 0 0)" height="5.5" width="1"/>
 <rect style="fill:#3daee9;opacity:1;fill-opacity:1;stroke:none;fill-rule:nonzero" x="18" y="-8" transform="matrix(0 1 -1 0 0 0)" height="3.25" width="1"/>
 <rect style="stroke-dasharray:none;stroke-opacity:1;fill:none;opacity:1;stroke-miterlimit:4;stroke:#313131;stroke-linecap:butt;stroke-linejoin:miter;stroke-width:1;stroke-dashoffset:0" x="2.5" y="17.5" height="2" width="2"/>
 <path d="M 11,13 14,9 8,9 Z" style="fill:#cb4b16"/>
 <rect style="fill:#3daee9;opacity:1;fill-opacity:1;stroke:none;fill-rule:nonzero" x="18" y="-17.25" transform="matrix(0 1 -1 0 0 0)" height="3.25" width="1"/>
 <rect style="stroke-dasharray:none;stroke-opacity:1;fill:none;opacity:1;stroke-miterlimit:4;stroke:#313131;stroke-linecap:butt;stroke-linejoin:miter;stroke-width:1;stroke-dashoffset:0" x="17.5" y="17.5" height="2" width="2"/>
 <rect style="fill:#3daee9;opacity:1;fill-opacity:1;stroke:none;fill-rule:nonzero" x="3" y="-18" transform="matrix(0 1 -1 0 0 0)" height="5.5" width="1"/>
 <rect x="9.5" y="-4.5" style="stroke-dasharray:none;stroke-opacity:1;fill:none;opacity:1;stroke-miterlimit:4;stroke:#313131;stroke-linecap:butt;stroke-linejoin:miter;stroke-width:1;stroke-dashoffset:0" transform="matrix(1 0 0 -1 0 0)" height="3" width="3"/>
</svg>
