
<!-- Created with Inkscape (http://www.inkscape.org/) -->
<svg xmlns="http://www.w3.org/2000/svg" viewBox="0 0 22 22">
 <rect height="11" style="fill:#3daee9;opacity:1;fill-opacity:1;stroke:none;fill-rule:nonzero" y="5.5" x="4" width="1"/>
 <rect height="11" style="fill:#3daee9;opacity:1;fill-opacity:1;stroke:none;fill-rule:nonzero" y="-16.5" width="1" x="4" transform="matrix(0 1 -1 0 0 0)"/>
 <circle r="1.5" style="stroke-dasharray:none;stroke-opacity:1;fill:none;opacity:1;stroke-miterlimit:4;stroke:#313131;stroke-linecap:butt;stroke-linejoin:round;stroke-width:1;stroke-dashoffset:0" cy="4" cx="4"/>
 <rect height="6.5" style="fill:#3daee9;opacity:1;fill-opacity:1;stroke:none;fill-rule:nonzero" y="5.5" width="1" x="17"/>
 <rect height="3" style="stroke-dasharray:none;stroke-opacity:1;fill:none;opacity:1;stroke-miterlimit:4;stroke:#313131;stroke-linecap:butt;stroke-linejoin:miter;stroke-width:1;stroke-dashoffset:0" y="2.5" width="3" x="16.5"/>
 <rect height="6.5" style="fill:#3daee9;opacity:1;fill-opacity:1;stroke:none;fill-rule:nonzero" y="-12" x="17" width="1" transform="matrix(0 1 -1 0 0 0)"/>
 <rect height="3" style="stroke-dasharray:none;stroke-opacity:1;fill:none;opacity:1;stroke-miterlimit:4;stroke:#313131;stroke-linecap:butt;stroke-linejoin:miter;stroke-width:1;stroke-dashoffset:0" y="16.5" width="3" x="2.5"/>
 <path style="fill:#dc322f;fill-opacity:1" d="m 21.743 19.621 -2.121 -2.121 2.121 -2.121 -2.121 -2.121 -2.121 2.121 -2.121 -2.121 -2.121 2.121 2.121 2.121 -2.121 2.121 2.121 2.121 2.121 -2.121 l 2.121 2.121 z"/>
</svg>
