<svg xmlns="http://www.w3.org/2000/svg" viewBox="0 0 22 22">
 <g transform="matrix(.55556 0 0 .55556 -2.33333 11)">
  <path d="m 8.06 -18 c -1.029 0 -2.057 1.029 -2.057 2.057 l 0 31.943 c 0 0.971 1.029 2 2 2 l 32 0 c 0.971 0 2 -1.029 2 -2 l 0 -32 c 0 -0.971 -1.029 -2 -2 -2 z" style="fill:#c19553"/>
 </g>
 <g transform="matrix(.55556 0 0 .55556 -2.33333 -2.33333)" style="fill:#fff">
  <path d="m 8.06 6 c -1.029 0 -2.057 1.029 -2.057 2.057 l 0 10.543 c 4 0 32 0 36 0 l 0 -10.6 c 0 -0.971 -1.029 -2 -2 -2 z" style="fill-opacity:0.196"/>
  <path d="m 20.4 9.6 0 16.2 l 7.2 0 0 -16.2 z" style="fill-opacity:0.392"/>
 </g>
 <path d="m 16.785 12 c -0.743 -0.003 -1.161 2.63 -1.764 3.064 -0.603 0.434 -3.227 -0.009 -3.459 0.696 -0.232 0.706 2.141 1.915 2.368 2.623 0.227 0.708 -0.994 3.066 -0.395 3.505 0.6 0.439 2.484 -1.442 3.227 -1.439 0.743 0.003 2.601 1.92 3.204 1.486 0.603 -0.435 -0.604 -2.823 -0.371 -3.529 0.233 -0.706 2.618 -1.893 2.391 -2.6 -0.227 -0.708 -2.86 -0.28 -3.459 -0.72 -0.599 -0.439 -0.998 -3.085 -1.741 -3.088 z" style="fill:#f1c40f;fill-opacity:1;color:#000"/>
</svg>
