<svg xmlns="http://www.w3.org/2000/svg" viewBox="0 0 22 22">
 <path d="m 2.143 1 c -0.571 0 -1.143 0.571 -1.143 1.143 l 0 17.746 c 0 0.54 0.571 1.111 1.111 1.111 l 17.778 0 c 0.54 0 1.111 -0.571 1.111 -1.111 l 0 -17.778 c 0 -0.54 -0.571 -1.111 -1.111 -1.111 z" style="fill:#c19553"/>
 <path d="m 2.143 1 c -0.571 0 -1.143 0.571 -1.143 1.143 l 0 5.857 c 2.222 0 17.778 0 20 0 l 0 -5.889 c 0 -0.54 -0.571 -1.111 -1.111 -1.111 z" style="fill:#fff;fill-opacity:0.196"/>
 <path d="m 9 3 0 9 4 0 0 -9 z" style="fill:#fff;fill-opacity:0.392"/>
 <g transform="matrix(0.51428571,0,0,0.51428571,11.328571,8.9521087)">
  <path d="m 12 5.371 c 2.625 0 6.125 0 6.125 5 l 0 3 c 0.875 0 2.625 -0.002 2.625 2 l 0 8 c 0 2 -1.682 2 -2.625 2 l -12.25 0 c -0.943 0 -2.625 0 -2.625 -2 l 0 -8 c 0 -2 1.75 -2 2.625 -2 l 0 -3 c 0 -5 3.5 -5 6.125 -5 z m 0 3 c -0.875 0 -3.5 0 -3.5 3 l 0 2 7 0 0 -2 c 0 -3 -2.625 -3 -3.5 -3 z" style="fill:#268bd2"/>
  <path d="m 12 17.371 c -1.105 0 -2 0.895 -2 2 0 0.74 0.403 1.373 1 1.719 l 0 3.281 2 0 0 -3.281 c 0.597 -0.346 1 -0.979 1 -1.719 0 -1.105 -0.895 -2 -2 -2 z" style="fill-opacity:0.1"/>
 </g>
</svg>
