<svg xmlns="http://www.w3.org/2000/svg" viewBox="0 0 22 22">
 <rect width="16" height="5" x="1" y="9" style="fill:#ec407a;fill-opacity:1;stroke:none"/>
 <path d="m 3 10 c 0 -1 0 -2 0.909 -2 l 3.182 0 c 0.909 0 0.909 1 0.909 2 z" style="fill:#ec407a;fill-opacity:1;stroke:none"/>
 <path d="m 2 10 14 0 0 3 -14 0 z" style="fill:#95989f;fill-opacity:1;stroke:none"/>
 <rect y="10" x="4" height="5.368" width="11" style="fill:#d8d8da;fill-opacity:1;stroke:none"/>
 <rect width="12" height="2.684" x="3" y="11" style="fill:#f9f9f9;fill-opacity:1;stroke:none"/>
 <path d="m 0 12 18 0 l -0.9 10 -16.2 0 z" style="fill:#f06292;fill-opacity:1;stroke:none"/>
 <path d="m 3.906 8 c -0.59 0 -0.771 0.431 -0.844 1 l -2.063 0 0 3 -1 0 0.906 10 16.188 0 0.906 -10 -1 0 0 -3 -9.06 0 c -0.073 -0.569 -0.254 -1 -0.844 -1 l -3.188 0 z" style="fill:#000;fill-opacity:0.102;stroke:none"/>
 <rect width="16" height="5" x="5" y="1" style="fill:#ec407a;fill-opacity:1;stroke:none"/>
 <path d="m 7 2 c 0 -1 0 -2 0.909 -2 l 3.182 0 c 0.909 0 0.909 1 0.909 2 z" style="fill:#ec407a;fill-opacity:1;stroke:none"/>
 <path d="m 6 2 14 0 0 3 -14 0 z" style="fill:#95989f;fill-opacity:1;stroke:none"/>
 <rect y="2" x="8" height="5.368" width="11" style="fill:#d8d8da;fill-opacity:1;stroke:none"/>
 <rect width="12" height="2.684" x="7" y="3" style="fill:#f9f9f9;fill-opacity:1;stroke:none"/>
 <path d="m 4 4 18 0 l -0.9 10 -16.2 0 z" style="fill:#f06292;fill-opacity:1;stroke:none"/>
 <path d="m 22 14 -4 0 0 -4 -4 0 0 4 -4 0 0 4 4 0 0 4 4 0 0 -4 4 0 z" style="fill:#859900"/>
</svg>
