<svg width="22" xmlns="http://www.w3.org/2000/svg" viewBox="0 0 22 22" height="22">
<g style="fill-rule:evenodd" transform="translate(-.99997 -.99998)">
<path style="fill:#dc322f" d="m 22.372881,11.644068 a 8.7966099,8.1864405 0 1 1 -17.5932198,0 8.7966099,8.1864405 0 1 1 17.5932198,0 z" transform="matrix(1.1368 0 0 1.22153 -3.43353 -2.2236)"/>
<path style="fill:#fff" d="m 7.0051524,7.000389 0,1.6666018 c -0.036433,0.4670775 0.120332,0.9442646 0.4707718,1.2680666 l 2.13658,2.1013676 -2.13658,2.101368 c -0.3129384,0.313053 -0.4707768,0.754248 -0.4707718,1.195605 l 0,1.666602 1.6658079,0 c 0.4411467,0 0.8821409,-0.157909 1.1950359,-0.470996 l 2.1365798,-2.137598 2.13658,2.137598 C 14.452051,16.842025 14.893027,16.999984 15.334192,17 L 17,17 17,15.333398 c -1.4e-5,-0.441374 -0.157837,-0.882552 -0.470772,-1.195605 l -2.100367,-2.101368 2.13658,-2.1013676 C 16.924056,9.6034029 17,9.1435845 17,8.6669908 l 0,-1.6666018 -1.665808,0 c -0.40047,0.011646 -0.717119,0.1599795 -1.158823,0.5434571 L 12.002576,9.6452136 9.8659962,7.5438461 C 9.5706182,7.2378625 9.1673409,7.0190225 8.7433867,7.000389 c -0.017394,-7.653e-4 -0.055182,-1.997e-4 -0.072426,0 l -1.6658079,0 z"/>
<path style="fill:#dc322f;fill-opacity:.1" d="m 7.0051524,7.000389 0,1.6666018 c -0.036433,0.4670775 0.120332,0.9442646 0.4707718,1.2680666 l 2.13658,2.1013676 -2.13658,2.101368 c -0.3129384,0.313053 -0.4707768,0.754248 -0.4707718,1.195605 l 0,1.666602 1.6658079,0 c 0.4411467,0 0.8821409,-0.157909 1.1950359,-0.470996 l 2.1365798,-2.137598 2.13658,2.137598 C 14.452051,16.842025 14.893027,16.999984 15.334192,17 L 17,17 17,15.333398 c -1.4e-5,-0.441374 -0.157837,-0.882552 -0.470772,-1.195605 l -2.100367,-2.101368 2.13658,-2.1013676 C 16.924056,9.6034029 17,9.1435845 17,8.6669908 l 0,-1.6666018 -1.665808,0 c -0.40047,0.011646 -0.717119,0.1599795 -1.158823,0.5434571 L 12.002576,9.6452136 9.8659962,7.5438461 C 9.5706182,7.2378625 9.1673409,7.0190225 8.7433867,7.000389 c -0.017394,-7.653e-4 -0.055182,-1.997e-4 -0.072426,0 l -1.6658079,0 z"/>
</g>
</svg>
