<svg xmlns="http://www.w3.org/2000/svg" width="22" height="22" viewBox="0 0 17.600001 17.600001">
 <path d="m 7.2 12 3.2 0 0 4 -3.2 0 z m 0 0" style="fill:#2b2b2b;fill-opacity:1;stroke:none;fill-rule:nonzero"/>
 <path d="m 8.8 1.2 c -3.316 0 -6 2.688 -6 6 0 3.313 2.684 6 6 6 3.313 0 6 -2.688 6 -6 0 -3.313 -2.688 -6 -6 -6 z m 0 3.398 c 1.434 0 2.598 1.164 2.598 2.602 0 1.438 -1.164 2.602 -2.598 2.602 -1.438 0 -2.602 -1.164 -2.602 -2.602 0 -1.438 1.164 -2.602 2.602 -2.602 z m 0 0" style="fill:#878787;fill-opacity:1;stroke:none;fill-rule:nonzero"/>
 <path d="m 4.909 15.519 c 0.109 -0.426 7.668 -0.426 7.777 0 c 0.113 0.426 0.113 1.281 0.113 1.281 l -8 0 c 0 0 0 -0.855 0.109 -1.281 z m 0 0" style="fill:#878787;fill-opacity:1;stroke:none;fill-rule:nonzero"/>
 <path d="m 8.802 4.4 c -1.548 0 -2.802 1.254 -2.802 2.8 0 1.546 1.254 2.8 2.802 2.8 1.544 0 2.798 -1.254 2.798 -2.8 c 0 -1.546 -1.254 -2.8 -2.798 -2.8 z m -0.023 0.801 c 1.161 0 2.024 0.859 2.024 2.02 0 1.16 -0.864 1.98 -2.024 1.98 -1.161 0 -1.977 -0.82 -1.977 -1.98 0 -1.16 0.817 -2.02 1.977 -2.02 z m 0 0" style="fill:#2b2b2b;fill-opacity:1;stroke:none;fill-rule:nonzero"/>
</svg>
