<svg xmlns="http://www.w3.org/2000/svg" viewBox="0 0 22 22">
 <path d="m 17,4 c 1,0 1,0 1,1 l 0,14 c 0,1 0,1 -1,1 L 5,20 C 4,20 4,20 4,19 L 4,5 C 4,4 4,4 5,4" style="fill:#e6b07f;fill-opacity:1;stroke:none;fill-rule:evenodd"/>
 <path d="m 16 4 -10 0 l 0 14 10 0" style="fill:#fff;fill-opacity:1;stroke:none;fill-rule:nonzero"/>
 <path d="m 7 2 0 3.071 8 0 l 0 -3.071" style="fill:#aaa;fill-opacity:1;stroke:none;fill-rule:nonzero"/>
 <path d="m 7 14 l 0 1 l 7 0 l 0 -1 l -5 0 l -2 0 z" style="fill:#868686;fill-opacity:1;stroke:none;fill-rule:nonzero"/>
 <path d="m 7 16 0 1 7 0 0 -1 z" style="fill:#868686;fill-opacity:1;stroke:none;fill-rule:nonzero"/>
 <path d="m 7 10 l 0 1 l 2 0 l 0 -1 l -2 0 z" style="fill:#868686;fill-opacity:1;stroke:none;fill-rule:nonzero"/>
 <path d="m 7 12 l 0 1 l 2 0 l 0 -1 l -2 0 z" style="fill:#868686;fill-opacity:1;stroke:none;fill-rule:nonzero"/>
 <path d="m 7 6 l 0 1 l 7 0 l 0 -1 l -7 0 z" style="fill:#868686;fill-opacity:1;stroke:none;fill-rule:nonzero"/>
 <path d="M 7 8 L 7 9 L 9 9 L 9 8 L 7 8 z " style="fill:#868686;fill-opacity:1;stroke:none;fill-rule:nonzero"/>
 <path d="m 20 11 -5 -5 l 0 3 -5 0 0 4 5 0 0 3 z" style="fill:#268bd2;fill-opacity:1"/>
</svg>
