<svg xmlns="http://www.w3.org/2000/svg" viewBox="0 0 22 22">
 <path d="m 5,2 12,0 c 2,0 2,0 2,2 l 0,14 c 0,2 0,2 -2,2 L 5,20 C 3,20 3,20 3,18 L 3,4 C 3,2 3,2 5,2 z" style="fill:#6c71c4;fill-rule:evenodd"/>
 <path d="m 8.225 6.569 c -0.443 1.556 -0.453 3.71 0.337 4.773 0.332 0.504 0.785 1.167 0.43 1.77 -0.657 0.941 -1.752 1.449 -2.748 1.961 -0.339 0.034 -0.216 0.345 -0.239 0.574 -0.001 0.182 -0.055 0.42 0.215 0.335 l 4.398 0 0.765 0 4.398 0 c 0.271 0.085 0.216 -0.153 0.215 -0.335 -0.023 -0.229 0.1 -0.54 -0.239 -0.574 -0.997 -0.513 -2.092 -1.02 -2.748 -1.961 -0.355 -0.603 0.098 -1.266 0.43 -1.77 0.835 -1.157 0.943 -3.673 0.335 -4.808 c -0.55 -0.984 -1.106 -1.496 -2.772 -1.534 -1.669 0.066 -2.222 0.55 -2.775 1.569 z" style="fill:#2d2d2d;fill-opacity:0.533;color:#bebebe"/>
</svg>
