<svg width="22" xmlns="http://www.w3.org/2000/svg" height="22" viewBox="0 0 22 22">
<g transform="translate(0 -1)">
<path style="fill:#268bd2" d="m 11,2 c 3,0 7,0 7,5 l 0,3 c 1,0 3,-0.00164 3,2 l 0,8 c 0,2 -1.921875,2 -3,2 L 4,22 C 2.921875,22 1,22 1,20 L 1,12 C 1,9.9983571 3,10 4,10 L 4,7 C 4,2 8,2 11,2 z m 0,3 C 10,5 7,5 7,8 l 0,2 8,0 0,-2 C 15,5 12,5 11,5 z"/>
<path style="fill-opacity:.1" d="m 11,14 c -1.1045695,0 -2,0.89543 -2,2 0,0.739604 0.4031044,1.372707 1,1.71875 L 10,21 l 2,0 0,-3.28125 C 12.596896,17.372707 13,16.739604 13,16 13,14.89543 12.104569,14 11,14 z"/>
</g>
</svg>
