<svg width="22" xmlns="http://www.w3.org/2000/svg" height="22" viewBox="0 0 22 22">
<g transform="matrix(1.03896 0 0 1.03896 -.42857 -.42857)">
<path style="fill:#c19553" d="M 2.476562,1.375 C 1.925781,1.375 1.375,1.925781 1.375,2.476562 l 0,17.078126 c 0,0.519531 0.550781,1.070312 1.070312,1.070312 l 17.109376,0 c 0.519531,0 1.070312,-0.550781 1.070312,-1.070312 l 0,-17.109376 C 20.625,1.925781 20.074219,1.375 19.554688,1.375 z"/>
<path style="fill:#fff;fill-opacity:.196" d="M 2.476562,1.375 C 1.925781,1.375 1.375,1.925781 1.375,2.476562 l -4e-7,6.5984379 c 2.136719,0 17.1132814,0 19.2500004,0 l 0,-6.6296879 C 20.625,1.925781 20.074219,1.375 19.554688,1.375 z"/>
<path style="fill:#fff" d="m 11,3.2999997 -1.9250001,0 0,-1.9250001 1.9250001,0 0,3.8500002 -1.9250001,0 0,1.9250001 1.9250001,0 0,3.8656251 L 9.0749999,11 l 0,3.85 3.8500001,0 0,-3.85 -1.925,0.01563 0,-1.9406251 1.925,0 0,-1.925 -1.925,0 0,-1.9250001 1.925,0 0,-1.9250001 -1.925,0 z"/>
</g>
<path style="fill:#268bd2;fill-rule:evenodd" d="m 14.092284,7.8539937 6.875,5.5000003 c 1.378907,1.378906 1.375,1.375 0,2.75 l -6.875,5.5 c -0.957031,0.767583 -0.957031,0.482666 -0.957031,-1.415042 -0.01953,-0.6875 -0.04297,-1.459958 0,-2.459958 -0.01563,0 0.01563,0 0,0 -6.8320306,0 -10.0429686,-4.375 -9.9999996,-9.9179693 2.707031,2.7929693 5.875,4.0039073 9.9999996,3.9179693 0,-0.984374 -0.01953,-1.335937 0,-2.0000003 0,-1 0,-2.5543473 0.957031,-1.875 z"/>
</svg>
