<svg xmlns="http://www.w3.org/2000/svg" viewBox="0 0 22 22">
 <path d="m 2.537 1.991 c -0.293 0.029 -0.539 0.304 -0.537 0.599 l 0 16.812 c 0 0.314 0.285 0.599 0.6 0.599 l 16.801 0 c 0.314 0 0.6 -0.284 0.6 -0.599 l 0 -16.812 c 0 -0.314 -0.285 -0.599 -0.6 -0.599 z m 15.963 1 c 0.276 0 0.5 0.224 0.5 0.5 0 0.276 -0.224 0.5 -0.5 0.5 -0.276 0 -0.5 -0.224 -0.5 -0.5 0 -0.276 0.224 -0.5 0.5 -0.5 z m -15.5 2 16 0 0 13.991 -16 0 z" style="fill:#888;fill-opacity:1"/>
 <rect width="16" height="2" x="3" y="11" style="fill:#268bd2;opacity:1;fill-opacity:1;stroke:none"/>
</svg>
