<svg width="22" xmlns="http://www.w3.org/2000/svg" height="22" viewBox="0 0 22 22">
<path style="fill:#268bd2" d="m 4,1 14,0 c 1.636719,0 3,1.363281 3,3 l 0,14 c 0,1.632813 -1.363281,3 -3,3 L 4,21 C 2.363281,21 1,19.632813 1,18 L 1,4 C 1,2.363281 2.363281,1 4,1 z"/>
<g style="fill:#fff;fill-opacity:.902">
<path d="m 3,3 0,7 2,0 0,-5 5,0 0,-2 z m 9,0 0,2 5,0 0,5 2,0 0,-7 z m -9,9 0,7 7,0 0,-2 -5,0 0,-5 z m 14,0 0,5 -5,0 0,2 7,0 0,-7 z"/>
<path d="m 7,7 0,8 8,0 0,-8 z m 2,2 4,0 0,4 -4,0 z"/>
</g>
</svg>
