<svg xmlns="http://www.w3.org/2000/svg" viewBox="0 0 22 22">
 <path d="m 4 1 14 0 c 1.637 0 3 1.363 3 3 l 0 14 c 0 1.633 -1.363 3 -3 3 l -14 0 c -1.637 0 -3 -1.367 -3 -3 l 0 -14 c 0 -1.637 1.363 -3 3 -3 z" style="fill:#268bd2"/>
 <g transform="matrix(0,1,-1,0,22,0)">
  <g style="fill:#fff;fill-opacity:0.902">
   <path d="m 7 7 0 8 8 0 0 -8 z m 2 2 4 0 0 4 -4 0 z"/>
  </g>
  <rect y="4" x="3" height="14" width="2" style="fill:#fff;opacity:1;fill-opacity:0.902;stroke:none"/>
  <rect width="2" height="14" x="17" y="4" style="fill:#fff;opacity:1;fill-opacity:0.902;stroke:none"/>
 </g>
</svg>
