<svg width="22" xmlns="http://www.w3.org/2000/svg" height="22" viewBox="0 0 22 22">
<path style="fill:#268bd2" d="m 4,1 14,0 c 1.636719,0 3,1.363281 3,3 l 0,14 c 0,1.632813 -1.363281,3 -3,3 L 4,21 C 2.363281,21 1,19.632813 1,18 L 1,4 C 1,2.363281 2.363281,1 4,1 z"/>
<path style="fill:#fff;fill-opacity:.902" d="m 6,4 0,7 2,0 0,7 6,0 C 14,13.328125 14,7.871094 14,4 11.707031,4 8.292969,4 6,4 z m 6,2 c 0,3.894531 0,6.121094 0,10 l -2,0 c 0,-2.75 0,-4.25 0,-7 L 8,9 8,6 c 1.375,0 2.625,0 4,0 z"/>
</svg>
