<svg xmlns="http://www.w3.org/2000/svg" xmlns:svg="http://www.w3.org/2000/svg" id="svg6" width="240" height="240" version="1.1" viewBox="0 0 240 240"><metadata id="metadata12"/><g id="g827" transform="matrix(5,0,0,5,-0.025,-960)"><g id="g833" transform="translate(0,192)"><path id="path2" d="m 22,40 v -6 h -8 v 7.33 C 14,42.8 15.19,44 16.67,44 h 14.67 c 1.47,0 2.67,-1.19 2.67,-2.67 V 34 h -8.8 z" style="fill:#fff;fill-opacity:.4"/><path id="path4" d="M 31.33,8 H 28 V 4 H 20 V 8 H 16.67 C 15.19,8 14,9.19 14,10.67 V 34 h 8 v -5 h -4 l 8,-15 v 11 h 4 l -4.8,9 H 34 V 10.67 C 34,9.19 32.81,8 31.33,8 Z" style="fill:#fff;fill-opacity:.4"/></g><path style="fill:#fff;fill-opacity:1" id="path2-3" d="m 22,232 v -6 h -8 v 7.33 c 0,1.47 1.19,2.67 2.67,2.67 h 14.67 c 1.47,0 2.67,-1.19 2.67,-2.67 V 226 h -8.8 z"/></g></svg>