<?xml version="1.0" encoding="UTF-8" standalone="no"?>
<!-- Generator: Adobe Illustrator 16.0.0, SVG Export Plug-In . SVG Version: 6.00 Build 0)  -->

<svg
   xmlns:dc="http://purl.org/dc/elements/1.1/"
   xmlns:cc="http://creativecommons.org/ns#"
   xmlns:rdf="http://www.w3.org/1999/02/22-rdf-syntax-ns#"
   xmlns:svg="http://www.w3.org/2000/svg"
   xmlns="http://www.w3.org/2000/svg"
   xmlns:sodipodi="http://sodipodi.sourceforge.net/DTD/sodipodi-0.dtd"
   xmlns:inkscape="http://www.inkscape.org/namespaces/inkscape"
   version="1.1"
   id="Capa_1"
   x="0px"
   y="0px"
   width="475.071px"
   height="475.071px"
   viewBox="0 0 475.071 475.071"
   style="enable-background:new 0 0 475.071 475.071;"
   xml:space="preserve"
   sodipodi:docname="music-note-black-symbol.svg"
   inkscape:version="0.92.4 5da689c313, 2019-01-14"><metadata
   id="metadata4670"><rdf:RDF><cc:Work
       rdf:about=""><dc:format>image/svg+xml</dc:format><dc:type
         rdf:resource="http://purl.org/dc/dcmitype/StillImage" /></cc:Work></rdf:RDF></metadata><defs
   id="defs4668" /><sodipodi:namedview
   pagecolor="#ffffff"
   bordercolor="#666666"
   borderopacity="1"
   objecttolerance="10"
   gridtolerance="10"
   guidetolerance="10"
   inkscape:pageopacity="0"
   inkscape:pageshadow="2"
   inkscape:window-width="1366"
   inkscape:window-height="726"
   id="namedview4666"
   showgrid="false"
   inkscape:zoom="0.49676784"
   inkscape:cx="-112.72872"
   inkscape:cy="237.53551"
   inkscape:window-x="0"
   inkscape:window-y="0"
   inkscape:window-maximized="0"
   inkscape:current-layer="Capa_1" />
<g
   id="g4633"
   style="fill:#ffffff;fill-opacity:1">
	<path
   d="M448.808,7.994C443.483,2.664,437.009,0,429.397,0c-3.046,0-5.715,0.383-7.994,1.143L183.861,74.232   c-5.708,1.903-10.373,5.282-13.99,10.135c-3.615,4.856-5.424,10.232-5.424,16.134v276.087   c-16.562-7.426-34.833-11.139-54.818-11.139c-8.564,0-17.749,0.999-27.55,2.994c-9.806,1.995-19.657,5.041-29.552,9.134   c-9.9,4.093-18.083,9.853-24.556,17.271c-6.471,7.423-9.705,15.899-9.705,25.413c0,9.521,3.234,17.987,9.705,25.413   c6.473,7.419,14.655,13.179,24.556,17.271c9.899,4.093,19.75,7.136,29.552,9.134c9.801,1.995,18.986,2.991,27.55,2.991   s17.746-0.996,27.55-2.991c9.806-1.998,19.653-5.041,29.552-9.134c9.896-4.093,18.079-9.853,24.55-17.271   c6.477-7.426,9.71-15.893,9.71-25.413v-202.42l219.271-67.665v153.317c-16.566-7.422-34.834-11.139-54.819-11.139   c-8.565,0-17.751,0.996-27.552,2.994c-9.805,1.995-19.65,5.041-29.551,9.134c-9.896,4.093-18.082,9.853-24.558,17.278   c-6.468,7.416-9.712,15.89-9.712,25.406c0,9.521,3.244,17.987,9.712,25.413c6.476,7.423,14.661,13.183,24.558,17.271   c9.897,4.093,19.746,7.139,29.551,9.138c9.801,1.998,18.986,2.99,27.552,2.99c8.562,0,17.747-0.992,27.548-2.99   c9.802-1.999,19.65-5.045,29.554-9.138c9.897-4.089,18.076-9.849,24.551-17.271c6.479-7.426,9.709-15.893,9.709-25.413V27.401   C456.802,19.789,454.146,13.321,448.808,7.994z"
   id="path4631"
   style="fill:#ffffff;fill-opacity:1" />
</g>
<g
   id="g4635"
   style="fill:#ffffff;fill-opacity:1">
</g>
<g
   id="g4637"
   style="fill:#ffffff;fill-opacity:1">
</g>
<g
   id="g4639"
   style="fill:#ffffff;fill-opacity:1">
</g>
<g
   id="g4641"
   style="fill:#ffffff;fill-opacity:1">
</g>
<g
   id="g4643"
   style="fill:#ffffff;fill-opacity:1">
</g>
<g
   id="g4645"
   style="fill:#ffffff;fill-opacity:1">
</g>
<g
   id="g4647"
   style="fill:#ffffff;fill-opacity:1">
</g>
<g
   id="g4649"
   style="fill:#ffffff;fill-opacity:1">
</g>
<g
   id="g4651"
   style="fill:#ffffff;fill-opacity:1">
</g>
<g
   id="g4653"
   style="fill:#ffffff;fill-opacity:1">
</g>
<g
   id="g4655"
   style="fill:#ffffff;fill-opacity:1">
</g>
<g
   id="g4657"
   style="fill:#ffffff;fill-opacity:1">
</g>
<g
   id="g4659"
   style="fill:#ffffff;fill-opacity:1">
</g>
<g
   id="g4661"
   style="fill:#ffffff;fill-opacity:1">
</g>
<g
   id="g4663"
   style="fill:#ffffff;fill-opacity:1">
</g>
</svg>