<svg xmlns="http://www.w3.org/2000/svg" xmlns:svg="http://www.w3.org/2000/svg" id="svg42" width="240" height="240" version="1.1" viewBox="0 0 63.499 63.499"><metadata id="metadata48"/><g id="g893" transform="matrix(3.571519,0,0,3.571519,1.5128951,1.5111096)"><path style="font-variant-ligatures:normal;font-variant-position:normal;font-variant-caps:normal;font-variant-numeric:normal;font-variant-alternates:normal;font-feature-settings:normal;text-indent:0;text-decoration:none;text-decoration-line:none;text-decoration-style:solid;text-decoration-color:#000;text-transform:none;text-orientation:mixed;white-space:normal;shape-padding:0;isolation:auto;mix-blend-mode:normal" id="path2" fill="none" stroke="#f5ce17" stroke-width="1.058" d="m 8.5145,3.1397 -5.59,5.591 1.58,1.581 5.592,-5.59 z" font-weight="400" overflow="visible"/><path id="path4" fill="#424048" d="m 1.058,14.287 h 6.615 v 1.059 H 1.058 Z"/><path style="font-variant-ligatures:normal;font-variant-position:normal;font-variant-caps:normal;font-variant-numeric:normal;font-variant-alternates:normal;font-feature-settings:normal;text-indent:0;text-decoration:none;text-decoration-line:none;text-decoration-style:solid;text-decoration-color:#000;text-transform:none;text-orientation:mixed;white-space:normal;shape-padding:0;isolation:auto;mix-blend-mode:normal" id="path6" fill="gray" d="m 2.712,7.9815 v 4.41 c 0,0.609 -0.494,1.102 -1.102,1.102 H 1.058 V 14.552 H 7.673 V 13.4935 H 7.122 c -0.60901,5.53e-4 -1.103,-0.49299 -1.103,-1.102 v -4.41 z" font-weight="400" overflow="visible"/><path id="path8" fill="#68676b" d="m 1.058,13.493 h 6.615 v 1.059 H 1.058 Z"/><path id="path10" fill="none" stroke="#424048" stroke-width="1.058" d="m 10.842,10.588 2.236,-2.236 2.237,2.236"/><path id="path12" fill="#7a8599" d="m 15.035,9.471 a 0.84,0.84 0 0 1 0.839,0.839 v 1.677 l -0.839,0.84 H 14.197 V 10.31 c 0,-0.463 0.375,-0.839 0.838,-0.839 z"/><path style="font-variant-ligatures:normal;font-variant-position:normal;font-variant-caps:normal;font-variant-numeric:normal;font-variant-alternates:normal;font-feature-settings:normal;text-indent:0;text-decoration:none;text-decoration-line:none;text-decoration-style:solid;text-decoration-color:#000;text-transform:none;text-orientation:mixed;white-space:normal;shape-padding:0;isolation:auto;mix-blend-mode:normal" id="path14" fill="none" d="m 8.654,3.088 -5.59,5.592 1.58,1.58 5.592,-5.59 z" font-weight="400" overflow="visible"/><circle id="circle16" cx="4.498" cy="8.731" r="3.175" fill="#f9f06b"/><path id="path18" fill="#424048" stroke="#424048" stroke-width="1.058" d="M 13.672,8.632 9.2,4.159"/><circle id="circle20" cx="9.128" cy="4.101" r="2.514" fill="#f9f06b"/><circle id="circle22" cx="12.965" cy="8.202" r="1.587" fill="#f9f06b"/><circle id="circle24" cx="9.128" cy="4.101" r="1.455" fill="#4a4850"/><circle id="circle26" cx="4.498" cy="8.731" r="1.852" fill="#4a4850"/><circle id="circle28" cx="4.498" cy="8.731" r="1.058" fill="#1a1723"/><circle id="circle30" cx="9.128" cy="4.101" r=".661" fill="#1a1723"/><circle id="circle32" cx="12.965" cy="8.202" r="1.058" fill="#4a4850"/><circle id="circle34" cx="12.965" cy="8.202" r=".529" fill="#1a1723"/><circle id="circle36" cx="15.035" cy="10.31" r=".28" fill="#2e3436"/><path id="path38" fill="#7a8599" d="m 11.121,9.471 a 0.839,0.839 0 0 0 -0.838,0.839 v 1.677 l 0.838,0.84 h 0.84 V 10.31 a 0.839,0.839 0 0 0 -0.84,-0.839 z"/><circle id="circle40" cx="-11.121" cy="10.31" r=".28" fill="#2e3436" transform="scale(-1,1)"/></g></svg>