<?xml version="1.0" encoding="UTF-8" standalone="no"?>
<svg
   xmlns:dc="http://purl.org/dc/elements/1.1/"
   xmlns:cc="http://creativecommons.org/ns#"
   xmlns:rdf="http://www.w3.org/1999/02/22-rdf-syntax-ns#"
   xmlns:svg="http://www.w3.org/2000/svg"
   xmlns="http://www.w3.org/2000/svg"
   xmlns:sodipodi="http://sodipodi.sourceforge.net/DTD/sodipodi-0.dtd"
   xmlns:inkscape="http://www.inkscape.org/namespaces/inkscape"
   width="240"
   height="240"
   version="1.1"
   viewBox="0 0 63.49875 63.49875"
   id="svg22"
   sodipodi:docname="games.svg"
   inkscape:version="0.92.4 5da689c313, 2019-01-14">
  <metadata
     id="metadata28">
    <rdf:RDF>
      <cc:Work
         rdf:about="">
        <dc:format>image/svg+xml</dc:format>
        <dc:type
           rdf:resource="http://purl.org/dc/dcmitype/StillImage" />
        <dc:title></dc:title>
      </cc:Work>
    </rdf:RDF>
  </metadata>
  <defs
     id="defs26" />
  <sodipodi:namedview
     pagecolor="#ffffff"
     bordercolor="#666666"
     borderopacity="1"
     objecttolerance="10"
     gridtolerance="10"
     guidetolerance="10"
     inkscape:pageopacity="0"
     inkscape:pageshadow="2"
     inkscape:window-width="1321"
     inkscape:window-height="740"
     id="namedview24"
     showgrid="false"
     inkscape:pagecheckerboard="true"
     inkscape:zoom="0.65186406"
     inkscape:cx="-162.01565"
     inkscape:cy="-4.0990234"
     inkscape:window-x="45"
     inkscape:window-y="28"
     inkscape:window-maximized="0"
     inkscape:current-layer="svg22" />
  <g
     transform="matrix(3.7037086,0,0,3.7037086,0.39192509,-1036.8817)"
     id="g20">
    <circle
       cx="8.4665003"
       cy="288.53"
       r="7.1436"
       style="fill:#f88e45;paint-order:stroke markers fill"
       id="circle2" />
    <path
       d="m 4.07,287.872 -0.344,2.688 a 0.697,0.697 0 0 0 -0.022,0.17 c 0,0.394 0.328,0.713 0.733,0.713 A 0.74,0.74 0 0 0 5,291.185 v 10e-4 l 2.001,-2.243 z m 8.793,0 -2.931,1.071 2,2.244 10e-4,-0.001 a 0.74,0.74 0 0 0 0.563,0.258 c 0.405,0 0.733,-0.32 0.733,-0.714 a 0.693,0.693 0 0 0 -0.021,-0.17 z"
       id="path4"
       inkscape:connector-curvature="0"
       style="fill:#ffffff" />
    <path
       d="m 6.218,285.09 a 2.249,2.249 0 1 0 1.24,4.123 h 2.017 a 2.249,2.249 0 1 0 1.24,-4.123 H 8.092 Z"
       id="path6"
       inkscape:connector-curvature="0"
       style="fill:#ffffff" />
    <path
       d="m 10.848,285.887 a 0.397,0.397 0 0 0 -0.397,0.397 0.397,0.397 0 0 0 0.397,0.397 0.397,0.397 0 0 0 0.397,-0.397 0.397,0.397 0 0 0 -0.397,-0.397 z"
       id="path8"
       inkscape:connector-curvature="0"
       style="fill:#27ae60" />
    <path
       d="m 10.054,286.681 a 0.397,0.397 0 0 0 -0.397,0.397 0.397,0.397 0 0 0 0.397,0.397 0.397,0.397 0 0 0 0.397,-0.397 0.397,0.397 0 0 0 -0.397,-0.397 z"
       id="path10"
       inkscape:connector-curvature="0"
       style="fill:#f36137" />
    <path
       d="m 11.642,286.681 a 0.397,0.397 0 0 0 -0.397,0.397 0.397,0.397 0 0 0 0.397,0.397 0.397,0.397 0 0 0 0.397,-0.397 0.397,0.397 0 0 0 -0.397,-0.397 z"
       id="path12"
       inkscape:connector-curvature="0"
       style="fill:#f05242" />
    <path
       d="m 10.848,287.475 a 0.397,0.397 0 0 0 -0.397,0.397 0.397,0.397 0 0 0 0.397,0.397 0.397,0.397 0 0 0 0.397,-0.397 0.397,0.397 0 0 0 -0.397,-0.397 z"
       id="path14"
       inkscape:connector-curvature="0"
       style="fill:#2980b9" />
    <circle
       cx="6.085"
       cy="286.95001"
       r="0.79400003"
       id="circle16"
       style="fill:#f88e45;paint-order:stroke markers fill" />
    <path
       d="m 7.144,288.533 a 0.53,0.53 0 0 0 -0.53,0.53 0.53,0.53 0 0 0 0.53,0.529 0.53,0.53 0 0 0 0.529,-0.53 0.53,0.53 0 0 0 -0.53,-0.529 z m 2.646,0 a 0.53,0.53 0 0 0 -0.53,0.53 0.53,0.53 0 0 0 0.53,0.529 0.53,0.53 0 0 0 0.529,-0.53 0.53,0.53 0 0 0 -0.53,-0.529 z"
       id="path18"
       inkscape:connector-curvature="0"
       style="fill:#666666;stroke:#e1e1e1;stroke-width:0.52899998;stroke-linecap:square;paint-order:markers stroke fill" />
  </g>
</svg>
