<svg xmlns="http://www.w3.org/2000/svg" xmlns:svg="http://www.w3.org/2000/svg" id="svg22" width="240" height="240" version="1.1" viewBox="0 0 63.499 63.499"><metadata id="metadata28"/><g id="g20" transform="matrix(3.7037086,0,0,3.7037086,0.39192509,-1036.8817)"><circle style="fill:#f88e45;paint-order:stroke markers fill" id="circle2" cx="8.467" cy="288.53" r="7.144"/><path id="path4" d="m 4.07,287.872 -0.344,2.688 a 0.697,0.697 0 0 0 -0.022,0.17 c 0,0.394 0.328,0.713 0.733,0.713 A 0.74,0.74 0 0 0 5,291.185 v 10e-4 l 2.001,-2.243 z m 8.793,0 -2.931,1.071 2,2.244 10e-4,-0.001 a 0.74,0.74 0 0 0 0.563,0.258 c 0.405,0 0.733,-0.32 0.733,-0.714 a 0.693,0.693 0 0 0 -0.021,-0.17 z" style="fill:#fff"/><path id="path6" d="m 6.218,285.09 a 2.249,2.249 0 1 0 1.24,4.123 h 2.017 a 2.249,2.249 0 1 0 1.24,-4.123 H 8.092 Z" style="fill:#fff"/><path id="path8" d="m 10.848,285.887 a 0.397,0.397 0 0 0 -0.397,0.397 0.397,0.397 0 0 0 0.397,0.397 0.397,0.397 0 0 0 0.397,-0.397 0.397,0.397 0 0 0 -0.397,-0.397 z" style="fill:#27ae60"/><path id="path10" d="m 10.054,286.681 a 0.397,0.397 0 0 0 -0.397,0.397 0.397,0.397 0 0 0 0.397,0.397 0.397,0.397 0 0 0 0.397,-0.397 0.397,0.397 0 0 0 -0.397,-0.397 z" style="fill:#f36137"/><path id="path12" d="m 11.642,286.681 a 0.397,0.397 0 0 0 -0.397,0.397 0.397,0.397 0 0 0 0.397,0.397 0.397,0.397 0 0 0 0.397,-0.397 0.397,0.397 0 0 0 -0.397,-0.397 z" style="fill:#f05242"/><path id="path14" d="m 10.848,287.475 a 0.397,0.397 0 0 0 -0.397,0.397 0.397,0.397 0 0 0 0.397,0.397 0.397,0.397 0 0 0 0.397,-0.397 0.397,0.397 0 0 0 -0.397,-0.397 z" style="fill:#2980b9"/><circle id="circle16" cx="6.085" cy="286.95" r=".794" style="fill:#f88e45;paint-order:stroke markers fill"/><path id="path18" d="m 7.144,288.533 a 0.53,0.53 0 0 0 -0.53,0.53 0.53,0.53 0 0 0 0.53,0.529 0.53,0.53 0 0 0 0.529,-0.53 0.53,0.53 0 0 0 -0.53,-0.529 z m 2.646,0 a 0.53,0.53 0 0 0 -0.53,0.53 0.53,0.53 0 0 0 0.53,0.529 0.53,0.53 0 0 0 0.529,-0.53 0.53,0.53 0 0 0 -0.53,-0.529 z" style="fill:#666;stroke:#e1e1e1;stroke-width:.52899998;stroke-linecap:square;paint-order:markers stroke fill"/></g></svg>