<svg xmlns="http://www.w3.org/2000/svg" viewBox="0 0 24 24">
 <path d="m 17.926 5.05 c -1.066 0.437 -4.488 1.867 -4.574 1.902 -0.957 -0.781 -2.199 -1.391 -3.492 -1.457 -3.129 -0.199 -6 2.582 -6.01 5.664 c -0.141 2.773 1.125 5.34 2.269 7.793 0.957 -0.398 4.437 -1.851 4.527 -1.887 0.937 0.785 2.141 1.363 3.398 1.453 3.078 0.262 5.937 -2.402 6.093 -5.41 0.227 -2.812 -1.074 -5.418 -2.164 -7.937 -0.016 -0.039 -0.031 -0.078 -0.047 -0.121 z" style="fill:none;stroke:#6996af;stroke-width:0.68"/>
 <g transform="translate(1.1138774,1.1206057)" style="fill:#6996af">
  <path d="m 5.715 16.04 c -0.676 -1.637 -1.57 -3.074 -1.59 -5.746 -0.02 -2.762 2.348 -4.547 4.215 -4.547 c 2.266 0 4.262 1.914 4.363 3.496 0.098 1.43 -0.414 3.508 -3.039 3.492 -1.254 -0.004 -2.555 -1.094 -2.563 -2.719 -0.008 -1.75 2.188 -1.922 2.738 -1.477 0.215 0.172 0.207 0.52 0.02 0.457 -1.184 -0.387 -1.914 0.371 -1.855 1.125 0.07 1.023 0.68 1.633 1.766 1.684 1.57 0.074 2.01 -1.453 1.973 -2.07 c -0.051 -0.754 -0.711 -2.305 -2.75 -2.586 -0.969 -0.133 -1.766 0.152 -2.352 0.719 -0.582 0.566 -0.91 1.152 -0.957 2.113 -0.051 0.996 0.168 1.578 0.758 2.883 0.215 0.465 0.809 1.402 1.266 2.344"/>
  <path d="m 16.05 5.746 c 0.676 1.637 1.57 3.078 1.59 5.746 0.023 2.762 -2.348 4.547 -4.215 4.547 -2.266 0 -4.258 -1.91 -4.363 -3.496 -0.094 -1.43 0.414 -3.508 3.039 -3.492 1.254 0.008 2.559 1.098 2.563 2.723 0.008 1.75 -2.184 1.918 -2.738 1.473 -0.215 -0.172 -0.207 -0.516 -0.016 -0.453 1.18 0.383 1.91 -0.375 1.855 -1.125 c -0.074 -1.027 -0.684 -1.637 -1.77 -1.688 -1.57 -0.074 -2.01 1.453 -1.969 2.074 c 0.047 0.75 0.707 2.301 2.746 2.582 0.969 0.137 1.766 -0.152 2.352 -0.719 0.582 -0.566 0.91 -1.152 0.961 -2.113 c 0.047 -0.992 -0.168 -1.574 -0.762 -2.879 -0.215 -0.465 -0.805 -1.402 -1.266 -2.348"/>
 </g>
</svg>
