<svg xmlns="http://www.w3.org/2000/svg" viewBox="0 0 24 24">
 <g transform="matrix(0.91591612,0,0,0.91586696,1.1231695,1.1233545)" style="fill:#d68b85;stroke:#d68b85;stroke-width:1.092">
  <path d="m 110.78 199.19 c 0.78 -1.055 0.546 -2.618 -0.546 -3.4 l -38.889 -27.903 c -1.092 -0.782 -2.652 -0.547 -3.433 0.547 -0.78 1.094 -0.507 2.618 0.585 3.4 l 38.889 27.942 c 1.092 0.782 2.613 0.508 3.394 -0.586 z" transform="matrix(0.10014,0,0,0.09996,-3.66791,-0.30054)" style="stroke-width:0.338"/>
  <path d="m 104.93 182.34 c 0.975 -0.938 1.092 -2.423 0.195 -3.361 l -31.01 -32.983 c -0.897 -0.899 -2.379 -0.899 -3.394 0 -0.975 0.938 -1.053 2.423 -0.195 3.361 l 31.05 32.983 c 0.858 0.938 2.379 0.938 3.355 0 z" transform="matrix(0.10014,0,0,0.09996,-3.66791,-0.30054)" style="stroke-width:0.329"/>
  <path d="m 195.81 99.65 c 0.936 -0.977 0.936 -2.501 0 -3.478 l -33.897 -33.843 c -0.936 -0.938 -2.457 -0.938 -3.433 0 -0.936 0.977 -0.936 2.501 0 3.439 l 33.858 33.882 c 0.975 0.938 2.496 0.938 3.472 0 z" transform="matrix(0.10014,0,0,0.09996,-3.66791,-0.30054)" style="stroke-width:0.338"/>
  <path d="m 193.86 116.92 c 0.975 -0.938 1.053 -2.423 0.156 -3.4 l -31.556 -33.53 c -0.897 -0.938 -2.418 -0.938 -3.394 -0.039 -0.975 0.938 -1.053 2.423 -0.195 3.4 l 31.595 33.53 c 0.897 0.938 2.418 0.977 3.394 0.039 z" transform="matrix(0.10014,0,0,0.09996,-3.66791,-0.30054)" style="stroke-width:0.332"/>
  <path d="m 176.89 119.39 c 1.131 -0.743 1.677 -1.915 1.209 -2.618 l -16.695 -25.988 c -0.468 -0.743 -1.794 -0.743 -2.925 0 -1.131 0.703 -1.677 1.876 -1.209 2.618 l 16.734 25.988 c 0.468 0.743 1.755 0.743 2.886 0 z" transform="matrix(0.10014,0,0,0.09996,-3.66791,-0.30054)" style="stroke-width:0.272"/>
  <path d="m 166.17 140.88 c 0.975 -0.977 1.014 -2.423 0.195 -3.283 l -30.62 -30.599 c -0.858 -0.86 -2.34 -0.782 -3.277 0.156 -0.975 0.938 -1.014 2.423 -0.156 3.283 l 30.581 30.599 c 0.858 0.86 2.34 0.782 3.277 -0.156 z" transform="matrix(0.10014,0,0,0.09996,-3.66791,-0.30054)" style="stroke-width:0.322"/>
  <path d="m 100.17 159.75 c 1.17 -0.703 1.794 -1.837 1.404 -2.462 l -13.886 -22.862 c -0.39 -0.664 -1.638 -0.586 -2.808 0.078 -1.17 0.703 -1.755 1.798 -1.365 2.462 l 13.886 22.862 c 0.39 0.664 1.638 0.586 2.769 -0.078 z" transform="matrix(0.10014,0,0,0.09996,-3.66791,-0.30054)" style="stroke-width:0.253"/>
  <g style="stroke-width:0.338">
   <path d="m 231.7 47.13 c -5.03 2.579 -45.44 -10.669 -45.44 -10.669 0 0 10.337 34.82 12.521 44.512 2.184 9.731 2.184 24.15 2.184 24.15 -0.273 6.565 -2.808 8.441 -7.84 14.11 -4.993 5.627 -11.585 4.69 -14.705 4.064 -3.16 -0.586 -37.641 -8.754 -47.978 -11.607 -10.376 -2.814 -21.649 -0.274 -25.705 2.54 -4.096 2.814 -6.28 10.63 -6.28 10.63 -5.344 22.901 17.241 68.975 17.241 68.975 -1.872 5.04 -8.152 10.04 -8.152 10.04 0 0 -23.482 -61.43 -13.808 -80.58 9.752 -19.11 25.744 -18.797 32.648 -18.797 6.865 0 50.44 12.857 57.652 12.545 7.216 -0.313 11.936 3.126 8.152 -17.547 -3.745 -20.712 -12.521 -48.3 -13.496 -54.907 -0.897 -6.565 2.847 -10.317 2.847 -10.317 0 0 4.72 -5.94 10.649 -5.04 5.968 0.977 31.673 10.04 40.762 13.795 1.755 0.743 0.429 3.244 -1.248 4.103 z" transform="matrix(0.10014,0,0,0.09996,-3.66791,-0.30054)" style="stroke-width:0.338"/>
   <path d="m 247.69 62.49 c -20.361 12.232 -35.457 6.604 -43.57 5.94 -8.152 -0.625 -33.23 -11.919 -39.2 -12.818 -5.968 -0.977 -10.649 5 -10.649 5 0 0 -3.784 3.752 -2.808 10.356 0.897 6.565 9.674 34.16 13.457 54.868 3.784 20.673 -0.936 17.234 -8.152 17.547 -7.216 0.313 -50.786 -12.545 -57.691 -12.545 -6.904 0 -22.897 -0.313 -32.609 18.836 -9.713 19.11 2.496 54.52 2.496 54.52 0 0 16.968 14.459 15.369 9.106 0 0 -18.489 -39.2 -13.145 -62.06 0 0 2.184 -7.855 6.241 -10.708 4.096 -2.775 15.408 -5.315 25.744 -2.462 10.337 2.814 44.818 10.942 47.978 11.607 3.121 0.586 9.674 1.563 14.705 -4.103 5.03 -5.627 7.528 -7.503 7.84 -14.11 0 0 0 -14.42 -2.184 -24.15 -2.184 -9.692 -12.56 -44.512 -12.56 -44.512 0 0 38.03 12.388 42.05 12.545 7.801 0.313 22.546 4.377 34.443 -2.501 11.936 -6.917 12.248 -10.356 12.248 -10.356 z" transform="matrix(0.10014,0,0,0.09996,-3.66791,-0.30054)" style="stroke-width:0.338"/>
  </g>
  <path d="m 144.05 146.35 c 0.975 -0.938 0.975 -2.501 0.078 -3.4 l -33.04 -33.02 c -0.897 -0.899 -2.457 -0.899 -3.394 0.078 -0.975 0.938 -0.975 2.462 -0.039 3.361 l 32.999 33.02 c 0.936 0.938 2.457 0.938 3.394 -0.039 z" transform="matrix(0.10014,0,0,0.09996,-3.66791,-0.30054)" style="stroke-width:0.334"/>
  <path d="m 158.48 147.6 c 0.975 -0.938 0.897 -2.579 -0.156 -3.595 l -36.978 -37.01 c -1.053 -1.055 -2.652 -1.094 -3.628 -0.156 -0.936 0.938 -0.858 2.579 0.195 3.595 l 36.978 37.01 c 1.014 1.055 2.652 1.094 3.589 0.156 z" transform="matrix(0.10014,0,0,0.09996,-3.66791,-0.30054)" style="stroke-width:0.354"/>
  <path d="m 124.39 141.27 c 0.858 -1.055 1.014 -2.345 0.351 -2.892 l -23.638 -19.852 c -0.663 -0.586 -1.911 -0.195 -2.769 0.86 -0.897 1.016 -1.014 2.306 -0.39 2.853 l 23.677 19.852 c 0.663 0.586 1.911 0.195 2.769 -0.821 z" transform="matrix(0.10014,0,0,0.09996,-3.66791,-0.30054)" style="stroke-width:0.272"/>
  <path d="m 232.79 72.33 c 0.975 -0.938 0.975 -2.462 0 -3.439 l -33.858 -33.843 c -0.936 -0.938 -2.496 -0.938 -3.472 0 -0.936 0.938 -0.936 2.501 0 3.439 l 33.897 33.843 c 0.936 0.977 2.496 0.977 3.433 0 z" transform="matrix(0.10014,0,0,0.09996,-3.66791,-0.30054)" style="stroke-width:0.338"/>
  <path d="m 213.95 74.25 c 1.014 -0.821 1.287 -2.267 0.507 -3.244 l -26.836 -34.585 c -0.78 -0.938 -2.223 -1.055 -3.316 -0.234 -1.053 0.821 -1.326 2.267 -0.546 3.244 l 26.875 34.546 c 0.741 0.977 2.223 1.094 3.316 0.274 z" transform="matrix(0.10014,0,0,0.09996,-3.66791,-0.30054)" style="stroke-width:0.323"/>
 </g>
</svg>
