<svg xmlns="http://www.w3.org/2000/svg" viewBox="0 0 24 24">
 <path d="m 11.325 20.475 c -3.586 -0.246 -6.73 -3.07 -7.621 -6.488 -0.816 -3.543 0.809 -7.535 3.984 -9.387 2.043 -1.219 4.605 -1.371 6.863 -0.738 c 2.793 0.859 4.918 3.344 5.664 6.113 0.672 2.551 0.187 5.449 -1.594 7.461 -1.613 2.01 -4.191 3.164 -6.773 3.063 -0.172 -0.004 -0.352 -0.012 -0.523 -0.023 z m 2.133 -0.402 c 0.644 -0.055 0.531 -0.254 -0.055 -0.305 -1.043 -0.199 -2.172 -0.207 -3.179 0.148 0.887 0.426 2.066 0.316 3.062 0.188 z m -3.164 -0.566 c 0.461 -0.469 -0.02 -1.586 -0.422 -2.027 -0.894 -0.457 -1.59 -1.203 -2.41 -1.77 -0.617 -0.223 -1.219 0.203 -1.816 0.348 c 0 0.59 -0.043 1.258 0.477 1.664 0.855 0.844 1.887 1.586 3.051 1.918 0.375 0.016 0.766 -0.004 1.121 -0.133 z m 4.914 0.023 c 1.488 -0.637 2.883 -1.668 3.718 -3.07 0.305 -0.402 0.523 -1.109 -0.262 -0.875 -0.992 0.625 -1.887 1.395 -2.902 1.98 -0.613 0.488 -1.059 1.16 -1.496 1.797 0.152 0.355 0.648 0.27 0.941 0.168 z m 1.01 -2.57 c 0.746 -0.613 1.828 -1.01 2.222 -1.938 0.176 -0.73 0.191 -1.488 0.266 -2.234 -0.746 -0.66 -1.66 -1.105 -2.555 -1.531 -0.883 0.07 -1.598 0.855 -2.301 1.363 -0.371 0.203 -0.273 0.668 -0.375 1.023 -0.137 0.824 -0.293 1.648 -0.383 2.484 0.695 0.512 1.473 0.984 2.316 1.184 0.309 0.004 0.559 -0.203 0.809 -0.352 z m -5.332 0.125 c 0.676 -0.258 1.574 -0.453 1.89 -1.168 0.238 -1 0.367 -2.027 0.492 -3.051 -0.676 -0.641 -1.391 -1.316 -2.273 -1.645 -0.762 -0.016 -1.406 0.523 -2.082 0.816 -0.91 0.246 -1.226 1.074 -1.266 1.93 -0.27 0.844 0.039 1.711 0.805 2.18 0.672 0.492 1.531 1.277 2.433 0.938 z m -5.668 -1.184 c -0.547 -1.012 -0.926 -2.125 -1.078 -3.266 c -0.543 0.109 -0.051 1.441 0.102 1.98 0.254 0.734 0.644 1.41 1.055 2.07 0.074 -0.273 0.117 -0.539 -0.078 -0.785 z m -0.234 -4.512 c 0.238 -0.344 0.621 -0.613 0.766 -1 0.254 -1.184 0.668 -2.324 1.258 -3.383 -0.023 -0.68 -0.789 -1.098 -1.168 -0.344 -1.082 1.391 -1.933 3.09 -1.973 4.883 -0.145 0.617 0.395 1.063 0.703 0.332 0.137 -0.16 0.273 -0.324 0.414 -0.484 m 13.96 0.848 c 0.461 -0.602 1.098 -1.316 0.934 -2.133 c -0.289 -1.547 -1.086 -3.02 -2.305 -4.02 -0.367 -0.152 -1.027 -0.719 -1.281 -0.184 c -0.375 0.719 -1.305 1.395 -0.969 2.289 0.285 0.879 0.496 1.801 0.914 2.633 0.773 0.598 1.664 1.066 2.562 1.461 z m -10.249 -0.402 c 0.711 -0.359 1.402 -0.754 2.098 -1.145 0.23 -0.816 0.527 -1.613 0.801 -2.414 0.039 -0.871 -0.738 -1.492 -1.258 -2.102 -0.508 -0.813 -1.371 -0.188 -2 0.109 -1.383 0.738 -1.699 2.359 -2.172 3.715 c 0.066 0.508 0.531 0.934 0.871 1.313 0.469 0.469 0.996 1.098 1.66 0.523 z m 5.101 -4.383 c 0.371 -0.051 0.781 -0.016 1.121 -0.121 0.512 -0.547 0.965 -1.188 1.176 -1.91 c -0.258 -0.73 -1.109 -1.059 -1.793 -1.309 -0.871 -0.258 -1.805 -0.383 -2.707 -0.281 -0.652 0.332 -1.824 1.297 -1.164 2.047 0.484 0.574 1 1.121 1.527 1.66 0.613 0.004 1.226 -0.043 1.84 -0.086" style="fill:#9c9c37;stroke:#9c9c37;stroke-width:0.085"/>
</svg>
