<svg xmlns="http://www.w3.org/2000/svg" viewBox="0 0 24 24">
 <path d="m 9 6 c -1.645 0 -3 1.355 -3 3 l 0 5 c 0 0.552 0.448 1 1 1 0.552 0 1 -0.448 1 -1 l 0 -5 c 0 -0.564 0.436 -1 1 -1 l 9.5 0 c 0.18 0 0.343 0.094 0.434 0.25 0.09 0.156 0.09 0.344 0 0.5 c -0.09 0.156 -0.253 0.25 -0.434 0.25 c -1.369 0 -2.5 1.131 -2.5 2.5 l 0 2.5 c 0 0.552 0.448 1 1 1 0.552 0 1 -0.448 1 -1 l 0 -2.5 c 0 -0.288 0.212 -0.5 0.5 -0.5 0.892 0 1.72 -0.478 2.166 -1.25 0.446 -0.772 0.446 -1.728 0 -2.5 c -0.446 -0.772 -1.274 -1.25 -2.166 -1.25 m -14.5 3 c -0.552 0 -1 0.448 -1 1 l 0 5 c 0 1.645 1.355 3 3 3 2.083 0 4.167 0 6.25 0 0.981 0 1.89 -0.526 2.381 -1.375 0.49 -0.849 0.49 -1.901 0 -2.75 c -0.49 -0.849 -1.4 -1.375 -2.381 -1.375 l -0.5 0 c -0.27 0 -0.516 -0.142 -0.65 -0.375 -0.135 -0.233 -0.135 -0.517 0 -0.75 c 0.135 -0.233 0.381 -0.375 0.65 -0.375 l 2.25 0 c 0.552 0 1 -0.448 1 -1 0 -0.552 -0.448 -1 -1 -1 l -2.25 0 c -0.981 0 -1.892 0.526 -2.383 1.375 -0.49 0.849 -0.49 1.901 0 2.75 0.49 0.849 1.402 1.375 2.383 1.375 l 0.5 0 c 0.27 0 0.516 0.142 0.65 0.375 0.135 0.233 0.135 0.517 0 0.75 -0.135 0.233 -0.381 0.375 -0.65 0.375 -2.083 0 -4.167 0 -6.25 0 -0.564 0 -1 -0.436 -1 -1 l 0 -5 c 0 -0.552 -0.448 -1 -1 -1 z" style="fill:#d07d86;opacity:1;fill-opacity:1;stroke:none;fill-rule:nonzero"/>
</svg>
