<svg xmlns="http://www.w3.org/2000/svg" viewBox="0 0 24 24">
 <path d="m 9.469 6 c -1.219 0 -1.719 0.109 -2.108 0.224 -0.606 0.178 -1.226 0.496 -1.614 0.995 c -2.274 2.919 -3.752 9.833 -3.343 10.587 c 0.41 0.758 4.095 -0.752 6.03 -3.658 0.147 -0.217 0.416 -0.647 0.416 -0.647 l 6.308 0 c 0 0 0.269 0.43 0.416 0.647 1.931 2.906 5.617 4.416 6.03 3.658 c 0.41 -0.755 -1.068 -7.668 -3.343 -10.587 -0.388 -0.499 -1.01 -0.817 -1.614 -0.995 -0.389 -0.114 -0.888 -0.224 -2.108 -0.224 m 1.233 1.926 c 0.329 0.013 0.611 0.238 0.696 0.555 0.108 0.401 -0.13 0.813 -0.53 0.92 -0.4 0.107 -0.812 -0.131 -0.918 -0.532 -0.107 -0.4 0.13 -0.811 0.53 -0.918 0.073 -0.019 0.148 -0.028 0.223 -0.025 z m -8.265 0.074 1 0 0 1.5 1.5 0 0 1 -1.5 0 0 1.5 -1 0 0 -1.5 -1.5 0 0 -1 1.5 0 z m 10.1 0.986 c 0.329 0.013 0.611 0.239 0.696 0.557 0.107 0.4 -0.13 0.811 -0.53 0.918 -0.401 0.108 -0.813 -0.13 -0.92 -0.53 -0.108 -0.401 0.13 -0.813 0.532 -0.92 0.073 -0.019 0.148 -0.028 0.223 -0.025 z m -2.899 0.776 c 0.329 0.013 0.611 0.239 0.696 0.557 0.107 0.4 -0.13 0.811 -0.53 0.918 -0.4 0.107 -0.811 -0.13 -0.918 -0.53 -0.107 -0.4 0.13 -0.811 0.53 -0.918 0.072 -0.02 0.148 -0.029 0.223 -0.026 z m 1.762 1.062 c 0.357 -0.023 0.68 0.21 0.772 0.555 0.107 0.401 -0.131 0.812 -0.532 0.918 -0.4 0.107 -0.811 -0.13 -0.918 -0.53 -0.107 -0.4 0.13 -0.811 0.53 -0.918 0.048 -0.013 0.098 -0.022 0.148 -0.025 z" style="fill:#d64c62"/>
</svg>
