<svg xmlns="http://www.w3.org/2000/svg" viewBox="0 0 24 24">
 <path d="m 10.03 5.678 1.783 4.524 2 -5.146" style="stroke-dasharray:none;fill:none;stroke-miterlimit:4;stroke:#de4646;stroke-linecap:round;stroke-linejoin:round;stroke-width:0.344"/>
 <path d="m 10.03 5.678 -3.46 4.829 0.669 -4.31" style="stroke-dasharray:none;fill:none;stroke-miterlimit:4;stroke:#de4646;stroke-linecap:round;stroke-linejoin:round;stroke-width:0.344"/>
 <path d="m 13.819 5.06 3.968 3.988 -0.829 -4.093" style="stroke-dasharray:none;fill:none;stroke-miterlimit:4;stroke:#de4646;stroke-linecap:round;stroke-linejoin:round;stroke-width:0.344"/>
 <path d="m 3.578 10.552 9.603 8.494 -4.188 -8.56 z" style="stroke-dasharray:none;fill:none;stroke-miterlimit:4;stroke:#de4646;stroke-linecap:round;stroke-linejoin:round;stroke-width:0.344"/>
 <path d="m 3.578 10.552 3.65 -4.356 2.805 -0.519 -1.041 4.809" style="stroke-dasharray:none;fill:none;stroke-miterlimit:4;stroke:#de4646;stroke-linecap:round;stroke-linejoin:round;stroke-width:0.344"/>
 <path d="m 13.819 5.056 3.139 -0.101 3.463 3.343 -5.529 1.573" style="stroke-dasharray:none;fill:none;stroke-miterlimit:4;stroke:#de4646;stroke-linecap:round;stroke-linejoin:round;stroke-width:0.344"/>
 <path d="m 10.03 5.678 3.786 -0.621 1.074 4.815 -5.9 0.616" style="stroke-dasharray:none;fill:none;stroke-miterlimit:4;stroke:#de4646;stroke-linecap:round;stroke-linejoin:round;stroke-width:0.344"/>
 <path d="m 13.181 19.05 7.241 -10.748 -5.529 1.572" style="stroke-dasharray:none;fill:none;stroke-miterlimit:4;stroke:#de4646;stroke-linecap:round;stroke-linejoin:round;stroke-width:0.344"/>
 <path d="m 17.788 9.05 -4.607 9.999" style="stroke-dasharray:none;fill:none;stroke-miterlimit:4;stroke:#de4646;stroke-linecap:round;stroke-linejoin:round;stroke-width:0.172"/>
 <path d="m 11.816 10.202 1.364 8.845" style="stroke-dasharray:none;fill:none;stroke-miterlimit:4;stroke:#de4646;stroke-linecap:round;stroke-linejoin:round;stroke-width:0.172"/>
 <path d="m 6.573 10.507 6.607 8.54" style="stroke-dasharray:none;fill:none;stroke-miterlimit:4;stroke:#de4646;stroke-linecap:round;stroke-linejoin:round;stroke-width:0.172"/>
</svg>
