<svg xmlns="http://www.w3.org/2000/svg" viewBox="0 0 24 24">
 <path d="m 6 12 -2.701 2.027 0.441 0.59 2.26 -1.695 0 7.078 12 0 0 -7.078 2.26 1.695 0.441 -0.59 l -2.701 -2.027" style="fill:#cf9545"/>
 <rect transform="matrix(0.95334222,0.30189172,-0.30189172,0.95334222,0,0)" height="1.758" y="5.67" x="9.954" width="1.758" style="fill:#cf9545"/>
 <rect transform="matrix(0.9598803,-0.28041009,0.28041009,0.9598803,0,0)" height="2.89" y="7.614" x="7.126" width="2.89" style="fill:#cf9545"/>
 <path d="m 14.391 9.775 -0.827 1.054 -1.327 -0.19 -0.499 -1.244 0.827 -1.054 1.327 0.19 z" style="fill:#cf9545"/>
 <path d="m 16.808 7.169 -0.846 0.277 -0.251 0.854 -0.525 -0.719 -0.89 0.025 0.521 -0.721 -0.299 -0.838 0.847 0.273 0.705 -0.543 0.002 0.89 z" style="fill:#cf9545"/>
</svg>
