<svg xmlns="http://www.w3.org/2000/svg" viewBox="0 0 24 24">
 <g transform="matrix(0.99954286,0,0,0.99954062,1.1182393,1.1182826)" style="fill:#a98bc7">
  <path d="m 10.637 2.383 c -5.04 0 -8.715 3.883 -8.207 8.648 0.422 4.02 3.688 7.395 7.719 8.359 -0.688 -1.125 -1.133 -2.395 -1.273 -3.727 -0.508 -4.766 3.176 -8.613 8.211 -8.613 0.789 0 1.551 0.098 2.305 0.277 c -1.777 -2.914 -5.121 -4.945 -8.754 -4.945 m 0 1.781 c 1.578 0 3.098 0.488 4.402 1.293 c -4.914 0.953 -8.445 5.293 -7.93 10.367 -1.566 -1.297 -2.711 -3.051 -2.918 -4.984 -0.398 -3.762 2.324 -6.676 6.445 -6.676"/>
  <path d="m 6.453 5.605 c 0.891 0 1.609 0.863 1.609 1.93 l 0 6.84 c 0 1.07 -0.719 1.934 -1.609 1.934 -0.887 0 -1.609 -0.863 -1.609 -1.934 l 0 -6.84 c 0 -1.066 0.723 -1.93 1.609 -1.93 z"/>
  <path d="m 5.395 6.793 c 0.863 0 1.566 0.867 1.566 1.934 l 0 3.668 c 0 1.066 -0.703 1.93 -1.566 1.93 -0.863 0 -1.563 -0.863 -1.563 -1.93 l 0 -3.668 c 0 -1.066 0.699 -1.934 1.563 -1.934 z"/>
  <path d="m 7.422 4.723 c 0.891 0 1.609 0.867 1.609 1.93 l 0 2.656 c 0 1.07 -0.719 1.934 -1.609 1.934 -0.887 0 -1.609 -0.863 -1.609 -1.934 l 0 -2.656 c 0 -1.063 0.723 -1.93 1.609 -1.93 z"/>
  <path d="m 8.188 3.18 2.305 0 c 1.066 0 1.93 0.867 1.93 1.934 l 0 1.422 c 0 1.066 -0.863 1.93 -1.93 1.93 l -2.305 0 c -1.066 0 -1.934 -0.863 -1.934 -1.93 l 0 -1.422 c 0 -1.066 0.867 -1.934 1.934 -1.934 z"/>
  <path d="m 9.1 6.355 c 0.621 0 1.125 0.836 1.125 1.867 0 1.035 -0.504 1.875 -1.125 1.875 -0.621 0 -1.125 -0.84 -1.125 -1.875 0 -1.031 0.504 -1.867 1.125 -1.867 z"/>
  <path d="m 12.813 4.02 0.363 0 c 1.07 0 1.934 0.613 1.934 1.367 0 0.758 -0.863 1.367 -1.934 1.367 l -0.363 0 c -1.066 0 -1.93 -0.609 -1.93 -1.367 0 -0.754 0.863 -1.367 1.93 -1.367 z"/>
 </g>
</svg>
