<svg xmlns="http://www.w3.org/2000/svg" width="24" height="24" viewBox="0 0 19.2 19.2">
 <path d="m 4.528 4.4 10.143 0 c 0.071 0 0.128 0.057 0.128 0.128 l 0 10.143 c 0 0.071 -0.057 0.128 -0.128 0.128 l -10.143 0 c -0.071 0 -0.128 -0.057 -0.128 -0.128 l 0 -10.143 c 0 -0.071 0.057 -0.128 0.128 -0.128 z" style="stroke-dasharray:none;fill:none;stroke-miterlimit:4;stroke:#ca9a69;stroke-linecap:round;stroke-width:0.8"/>
 <path d="m 5.2 4.4 0 10.4 0.267 0 0 -2 0.933 0 0 -0.267 -0.933 0 0 -1.333 0.933 0 0 -0.267 -0.933 0 0 -1.333 1.733 0 0 -0.267 -1.733 0 0 -1.333 1.733 0 0 -0.267 -1.733 0 0 -1.333 0.933 0 0 -0.267 -0.933 0 0 -1.734 z" mix-blend-mode="normal" isolation="auto" white-space="normal" solid-opacity="1" solid-color="#000000" style="visibility:visible;shape-rendering:auto;color-interpolation-filters:linearRGB;fill:#ca9a69;opacity:1;image-rendering:auto;fill-opacity:0.6;stroke:none;display:inline;color:#000;fill-rule:nonzero;color-rendering:auto;color-interpolation:sRGB"/>
 <rect width="0.8" height="0.8" x="7.2" y="5.6" rx="0.133" style="fill:#ca9a69;opacity:1;fill-opacity:1;stroke:none;fill-rule:nonzero"/>
 <rect width="0.8" height="0.8" x="7.2" y="12" rx="0.133" style="fill:#ca9a69;opacity:1;fill-opacity:1;stroke:none;fill-rule:nonzero"/>
 <rect width="4.8" height="0.8" x="8.8" y="5.6" rx="0.133" style="fill:#ca9a69;opacity:1;fill-opacity:1;stroke:none;fill-rule:nonzero"/>
 <rect width="0.8" height="0.8" x="8" y="7.2" rx="0.133" style="fill:#ca9a69;opacity:1;fill-opacity:1;stroke:none;fill-rule:nonzero"/>
 <rect width="0.8" height="0.8" x="8" y="8.8" rx="0.133" style="fill:#ca9a69;opacity:1;fill-opacity:1;stroke:none;fill-rule:nonzero"/>
 <rect width="0.8" height="0.8" x="7.2" y="10.4" rx="0.133" style="fill:#ca9a69;opacity:1;fill-opacity:1;stroke:none;fill-rule:nonzero"/>
 <rect width="4" height="0.8" x="9.6" y="7.2" rx="0.111" ry="0.133" style="fill:#ca9a69;opacity:1;fill-opacity:1;stroke:none;fill-rule:nonzero"/>
 <rect width="4" height="0.8" x="9.6" y="8.8" rx="0.111" ry="0.133" style="fill:#ca9a69;opacity:1;fill-opacity:1;stroke:none;fill-rule:nonzero"/>
 <rect width="4.8" height="0.8" x="8.8" y="10.4" rx="0.133" style="fill:#ca9a69;opacity:1;fill-opacity:1;stroke:none;fill-rule:nonzero"/>
 <rect width="4.8" height="0.8" x="8.8" y="12" rx="0.133" style="fill:#ca9a69;opacity:1;fill-opacity:1;stroke:none;fill-rule:nonzero"/>
</svg>
