<svg xmlns="http://www.w3.org/2000/svg" viewBox="0 0 24 24">
 <g transform="translate(1.113188,1.1150646)" style="fill:#8ccd7c">
  <path d="m 6.379 6.898 c -2.207 0 -3.996 1.801 -3.996 4.02 0 0.141 0 0.277 0.016 0.41 0.031 0.863 -0.016 2.105 0.984 5.125 0.848 2.566 1.5 2.512 1.5 2.512 l 0.996 -0.504 c 0 0 -0.5 -1 -0.5 -2.01 0 -0.484 0.117 -1.082 0.234 -1.574 0.246 0.047 0.508 0.063 0.766 0.063 2.207 0 4 -1.801 4 -4.02 0 -2.219 -1.793 -4.02 -4 -4.02 z"/>
  <path d="m 15.391 14.875 c 2.207 0 4 -1.805 4 -4.02 0 -0.137 -0.004 -0.273 -0.016 -0.41 -0.035 -0.859 0.016 -2.105 -0.984 -5.121 -0.852 -2.566 -1.5 -2.516 -1.5 -2.516 l -1 0.504 c 0 0 0.5 1.01 0.5 2.01 0 0.484 -0.113 1.078 -0.234 1.57 -0.246 -0.047 -0.508 -0.063 -0.766 -0.063 -2.207 0 -3.996 1.801 -3.996 4.02 0 2.219 1.789 4.02 3.996 4.02 z"/>
 </g>
</svg>
