<svg xmlns="http://www.w3.org/2000/svg" width="24" height="24" viewBox="0 0 19.2 19.2">
 <path d="m 9.06 3.982 1.074 0 c 0.146 0 0.263 0.102 0.263 0.225 l 0 0.725 c 0 0.125 -0.117 0.225 -0.263 0.225 l -1.074 0 c -0.146 0 -0.263 -0.1 -0.263 -0.225 l 0 -0.725 c 0 -0.123 0.117 -0.225 0.263 -0.225 z" style="fill:#b477d0"/>
 <path d="m 9.09 3.198 0.937 0 c 0.314 0 0.568 0.254 0.568 0.568 0 0.313 -0.254 0.568 -0.568 0.568 l -0.937 0 c -0.314 0 -0.568 -0.256 -0.568 -0.568 0 -0.314 0.254 -0.568 0.568 -0.568 z" style="fill:#b477d0"/>
 <path d="m 9.301 2.227 0.6 0 c 0.593 0 1.073 0.328 1.073 0.736 l 0 0.077 c 0 0.406 -0.48 0.734 -1.073 0.734 l -0.6 0 c -0.593 0 -1.074 -0.328 -1.074 -0.734 l 0 -0.077 c 0 -0.407 0.482 -0.736 1.074 -0.736 z" style="fill:#b477d0;stroke:#b477d0;stroke-linejoin:round;stroke-width:0.453"/>
 <path d="m 9.507 6.4 0.187 0 c 0.168 0 0.307 0.102 0.307 0.231 l 0 0.738 c 0 0.126 -0.139 0.231 -0.307 0.231 l -0.187 0 c -0.168 0 -0.307 -0.104 -0.307 -0.231 l 0 -0.738 c 0 -0.128 0.139 -0.231 0.307 -0.231 z" style="fill:#b477d0"/>
 <path d="m 9.507 14.04 0.187 0 c 0.168 0 0.307 0.104 0.307 0.23 l 0 0.739 c 0 0.126 -0.139 0.23 -0.307 0.23 l -0.187 0 c -0.168 0 -0.307 -0.104 -0.307 -0.23 l 0 -0.739 c 0 -0.126 0.139 -0.23 0.307 -0.23 z" style="fill:#b477d0"/>
 <path d="m 5.2 10.892 0 -0.185 c 0 -0.169 0.104 -0.308 0.232 -0.308 l 0.737 0 c 0.126 0 0.23 0.139 0.23 0.308 l 0 0.185 c 0 0.171 -0.104 0.308 -0.23 0.308 l -0.737 0 c -0.128 0 -0.232 -0.136 -0.232 -0.308 z" style="fill:#b477d0"/>
 <path d="m 12.8 10.892 0 -0.185 c 0 -0.169 0.104 -0.308 0.231 -0.308 l 0.738 0 c 0.128 0 0.231 0.139 0.231 0.308 l 0 0.185 c 0 0.171 -0.102 0.308 -0.231 0.308 l -0.738 0 c -0.126 0 -0.231 -0.136 -0.231 -0.308 z" style="fill:#b477d0"/>
 <path d="m 9.518 7.446 c -0.123 0 -0.248 0.006 -0.373 0.02 -0.039 0.002 -0.074 0.025 -0.09 0.061 -0.018 0.035 -0.014 0.076 0.01 0.107 0.025 0.029 0.064 0.045 0.102 0.039 0.951 -0.104 1.797 0.184 2.488 0.846 0.025 0.031 0.066 0.043 0.104 0.033 0.039 -0.01 0.068 -0.041 0.076 -0.08 0.008 -0.037 -0.006 -0.078 -0.037 -0.102 c -0.641 -0.613 -1.42 -0.928 -2.279 -0.924" style="fill:#b477d0"/>
 <path d="m 9.82 8.06 c -0.053 0.008 -0.09 0.051 -0.09 0.104 0.002 0.053 0.041 0.096 0.094 0.102 0.529 0.068 0.953 0.262 1.352 0.617 0.043 0.037 0.109 0.033 0.146 -0.01 0.039 -0.043 0.035 -0.109 -0.008 -0.146 -0.428 -0.379 -0.898 -0.594 -1.463 -0.666 -0.012 -0.002 -0.021 -0.002 -0.031 0 z" style="fill:#b477d0"/>
 <path d="m 9.434 6.884 c -0.344 0.01 -0.693 0.066 -1.043 0.17 -0.037 0.008 -0.066 0.037 -0.076 0.074 -0.01 0.039 0.004 0.078 0.031 0.104 0.029 0.025 0.07 0.033 0.105 0.02 1.326 -0.395 2.646 -0.064 3.629 0.908 0.041 0.041 0.107 0.041 0.148 0 0.041 -0.041 0.039 -0.107 0 -0.146 c -0.775 -0.768 -1.762 -1.158 -2.795 -1.129" style="fill:#b477d0"/>
 <path d="m 12.982 5.363 -0.203 0.801 0.787 0.605 0.758 -0.443 c 0 -0.393 -1.01 -1.076 -1.342 -0.963 z" style="fill:#b477d0;fill-rule:evenodd"/>
 <path d="m 12.975 7.931 c -0.07 -0.08 -4.309 3.359 -4.309 3.359 l 0.16 0.203 c 0 0 4.217 -3.482 4.148 -3.562 z" style="fill:#b477d0;fill-rule:evenodd"/>
 <circle cx="9.6" cy="10.8" r="5.4" style="stroke-dasharray:none;stroke-opacity:1;fill:none;opacity:1;stroke-miterlimit:4;fill-opacity:1;stroke:#b477d0;fill-rule:nonzero;stroke-linecap:butt;stroke-linejoin:miter;stroke-width:1.2;stroke-dashoffset:0"/>
</svg>
