<svg xmlns="http://www.w3.org/2000/svg" viewBox="0 0 24 24">
 <g transform="matrix(0.63460343,0,0,0.63138643,1.9622705,1.9945938)" style="fill:#a47854;stroke:#a47854;fill-rule:evenodd;stroke-linejoin:round;stroke-width:1.66">
  <path transform="scale(0.1237,0.1237)" d="m 30.726 148.2 c 38.27 -0.537 53.778 -5.242 65.53 -8.874 11.779 -3.663 29.21 -11.495 29.21 -11.495 l 44.02 89.84 -138.76 0 z" style="stroke-width:8.993"/>
  <path transform="scale(0.1237,0.1237)" d="m 157.29 182.08 c 0 0 -19.768 10.958 -25.452 13.737 -7.863 3.821 -21.41 14.12 -45.16 21.473 l -55.641 0 0 -43.894 c 32.15 -1.01 55.29 -1.989 69.69 -8.02 14.368 -6.03 41.462 -20.08 41.462 -20.08 z" style="stroke-width:10.164"/>
  <path transform="scale(0.1237,0.1237)" d="m 132.53 142.2 c 20.842 -20.905 14.779 -27.16 35.936 -28.989 21.16 -1.8 56.81 14.08 56.81 14.08 l 0 90.31 -55.799 0 z" style="stroke-width:8.993"/>
  <path transform="scale(0.1237,0.1237)" d="m 224.62 184.1 c 0 0 -4.989 -2.621 -11.463 -5.368 -6.379 -2.653 -11.495 -3.979 -23.08 -0.663 -7.831 2.242 -14.368 7.231 -27.726 17.273 l -17.12 -43.04 c 13.295 -11.968 23.779 -20.4 37.14 -21.41 13.389 -1.01 24.41 1.358 31.14 4.674 6.695 3.347 10.452 5.684 10.452 5.684 z" style="stroke-width:10.164"/>
 </g>
 <path d="m 4.685 4.5 14.63 0 c 0.101 0 0.185 0.084 0.185 0.185 l 0 14.63 c 0 0.101 -0.084 0.185 -0.185 0.185 l -14.63 0 c -0.101 0 -0.185 -0.084 -0.185 -0.185 l 0 -14.63 c 0 -0.101 0.084 -0.185 0.185 -0.185 z" style="stroke-dasharray:none;fill:none;stroke-miterlimit:4;stroke:#a47854;stroke-linecap:round;stroke-width:1"/>
</svg>
