<svg xmlns="http://www.w3.org/2000/svg" width="24" height="24" viewBox="0 0 19.2 19.2">
 <path d="m 3.617 3 c -0.343 0 -0.617 0.266 -0.617 0.598 l 0 16.805 c 0 0.332 0.274 0.598 0.617 0.598 l 3.762 0 c 0.346 0 0.621 -0.266 0.621 -0.598 l 0 -16.805 c 0 -0.332 -0.275 -0.598 -0.621 -0.598 l -3.762 0 z m 0.383 1 l 3 0 l 0 8 l -3 0 l 0 -8 z m 1.5 11.25 a 1.25 1.25 0 0 1 1.25 1.25 a 1.25 1.25 0 0 1 -1.25 1.25 a 1.25 1.25 0 0 1 -1.25 -1.25 a 1.25 1.25 0 0 1 1.25 -1.25 z" transform="scale(0.8,0.8)" style="fill:#b2a546"/>
 <path d="m 9.52 3 c -0.288 0 -0.52 0.266 -0.52 0.598 l 0 16.805 c 0 0.332 0.231 0.598 0.52 0.598 l 1.959 0 c 0.29 0 0.521 -0.266 0.521 -0.598 l 0 -16.805 c 0 -0.332 -0.231 -0.598 -0.521 -0.598 l -1.959 0 z m 0.48 1 l 1 0 l 0 8 l -1 0 l 0 -8 z m 0.5 11.75 a 0.75 0.75 0 0 1 0.75 0.75 a 0.75 0.75 0 0 1 -0.75 0.75 a 0.75 0.75 0 0 1 -0.75 -0.75 a 0.75 0.75 0 0 1 0.75 -0.75 z" transform="scale(0.8,0.8)" style="fill:#b2a546"/>
 <path d="m 10.627 2.959 c -0.297 0.079 -0.481 0.347 -0.412 0.601 l 3.479 12.901 c 0.069 0.255 0.362 0.395 0.66 0.316 l 2.02 -0.537 c 0.299 -0.08 0.482 -0.347 0.414 -0.602 l -3.479 -12.901 c -0.069 -0.255 -0.362 -0.395 -0.661 -0.316 l -2.02 0.537 z m 0.444 0.705 1.545 -0.411 1.656 6.142 -1.545 0.411 -1.656 -6.142 z m 3.154 8.623 a 0.8 0.795 0 0 1 0.98 0.562 0.8 0.795 0 0 1 -0.566 0.973 0.8 0.795 0 0 1 -0.98 -0.562 0.8 0.795 0 0 1 0.566 -0.973 z" style="fill:#b2a546"/>
</svg>
