<svg xmlns="http://www.w3.org/2000/svg" viewBox="0 0 24 24">
 <g transform="matrix(0.43301271,0.25,-0.25,0.43301271,4.3749865,-3.3831685)">
  <path d="m 18.05 5.787 c -0.315 0 -0.568 0.253 -0.568 0.568 l 0 0.968 c -1.116 0.224 -2.141 0.684 -3.056 1.294 l -0.704 -0.704 c -0.223 -0.223 -0.581 -0.223 -0.803 0 l -1.607 1.607 c -0.223 0.223 -0.223 0.581 0 0.803 l 0.704 0.704 c -0.609 0.916 -1.065 1.941 -1.29 3.056 l -0.97 0 c -0.315 0 -0.568 0.253 -0.568 0.568 l 0 2.273 c 0 0.315 0.253 0.568 0.568 0.568 l 0.985 0 c 0.227 1.113 0.651 2.155 1.261 3.07 l -0.69 0.69 c -0.223 0.223 -0.223 0.581 0 0.803 l 1.607 1.607 c 0.223 0.223 0.581 0.223 0.803 0 l 0.692 -0.692 c 0.917 0.611 1.951 1.058 3.067 1.283 l 0 0.965 c 0 0.315 0.253 0.568 0.568 0.568 l 2.273 0 c 0.315 0 0.568 -0.253 0.568 -0.568 l 0 -0.985 c 1.113 -0.227 2.155 -0.651 3.07 -1.261 l 0.69 0.69 c 0.223 0.223 0.581 0.223 0.803 0 l 1.607 -1.607 c 0.223 -0.223 0.223 -0.581 0 -0.803 l -0.692 -0.692 c 0.611 -0.917 1.058 -1.951 1.283 -3.067 l 0.968 0 c 0.315 0 0.568 -0.253 0.568 -0.568 l 0 -2.273 c 0 -0.315 -0.253 -0.568 -0.568 -0.568 l -0.988 0 c -0.227 -1.113 -0.651 -2.155 -1.261 -3.07 l 0.69 -0.69 c 0.223 -0.223 0.223 -0.581 0 -0.803 l -1.607 -1.607 c -0.223 -0.223 -0.581 -0.223 -0.803 0 l -0.692 0.692 c -0.917 -0.611 -1.951 -1.058 -3.067 -1.283 l 0 -0.968 c 0 -0.315 -0.253 -0.568 -0.568 -0.568 l -2.273 0 z m 1.136 2.728 c 4.02 0 7.273 3.248 7.273 7.273 0 4.02 -3.248 7.273 -7.273 7.273 -4.02 0 -7.273 -3.248 -7.273 -7.273 0 -4.02 3.248 -7.273 7.273 -7.273 z" mix-blend-mode="normal" isolation="auto" white-space="normal" solid-opacity="1" solid-color="#000000" style="visibility:visible;shape-rendering:auto;color-interpolation-filters:linearRGB;fill:#6891b8;opacity:1;image-rendering:auto;fill-opacity:1;stroke:none;display:inline;color:#000;fill-rule:nonzero;color-rendering:auto;color-interpolation:sRGB"/>
  <circle transform="matrix(0.8660254,-0.5,0.5,0.8660254,0,0)" r="1.989" cy="23.267" cx="8.723" style="fill:#6891b8;opacity:1;fill-opacity:1;stroke:none;fill-rule:nonzero"/>
 </g>
 <g transform="matrix(0.56817116,0,0,0.56817116,9.3903727,1.4881111)">
  <path d="m 15.829 18.15 c -0.196 -0.196 -0.511 -0.196 -0.707 0 l -0.602 0.602 c -0.834 -0.555 -1.758 -0.907 -2.707 -1.097 l 0 -0.876 c 0 -0.277 -0.223 -0.5 -0.5 -0.5 l -2 0 c -0.277 0 -0.5 0.223 -0.5 0.5 l 0 0.876 c -0.949 0.191 -1.871 0.545 -2.704 1.099 l -0.604 -0.604 c -0.196 -0.196 -0.511 -0.196 -0.707 0 l -1.414 1.414 c -0.196 0.196 -0.196 0.511 0 0.707 l 0.613 0.613 c -0.551 0.834 -0.936 1.746 -1.126 2.694 l -0.859 0 c -0.277 0 -0.5 0.223 -0.5 0.5 l 0 2 c 0 0.277 0.223 0.5 0.5 0.5 l 0.862 0 c 0.19 0.95 0.555 1.872 1.11 2.707 l -0.601 0.601 c -0.196 0.196 -0.196 0.511 0 0.707 l 1.414 1.414 c 0.196 0.196 0.511 0.196 0.707 0 l 0.613 -0.613 c 0.834 0.551 1.746 0.936 2.694 1.126 l 0 0.859 c 0 0.277 0.223 0.5 0.5 0.5 l 2 0 c 0.277 0 0.5 -0.223 0.5 -0.5 l 0 -0.862 c 0.95 -0.19 1.872 -0.555 2.707 -1.11 l 0.602 0.602 c 0.196 0.196 0.511 0.196 0.707 0 l 1.414 -1.414 c 0.196 -0.196 0.196 -0.511 0 -0.707 l -0.615 -0.615 c 0.551 -0.834 0.936 -1.746 1.126 -2.694 l 0.859 0 c 0.277 0 0.5 -0.223 0.5 -0.5 l 0 -2 c 0 -0.277 -0.223 -0.5 -0.5 -0.5 l -0.862 0 c -0.19 -0.95 -0.555 -1.872 -1.11 -2.707 l 0.602 -0.602 c 0.196 -0.196 0.196 -0.511 0 -0.707 l -1.414 -1.414 z m -0.99 2.404 c 2.505 2.505 2.505 6.547 0 9.05 -2.505 2.505 -6.547 2.505 -9.05 0 -2.505 -2.505 -2.505 -6.547 0 -9.05 2.505 -2.505 6.547 -2.505 9.05 0 z" mix-blend-mode="normal" isolation="auto" white-space="normal" solid-opacity="1" solid-color="#000000" style="visibility:visible;shape-rendering:auto;color-interpolation-filters:linearRGB;fill:#6891b8;opacity:1;image-rendering:auto;fill-opacity:1;stroke:none;display:inline;color:#000;fill-rule:nonzero;color-rendering:auto;color-interpolation:sRGB"/>
  <circle transform="matrix(0.96592583,0.25881905,-0.25881905,0.96592583,0,0)" r="1.75" cy="21.555" cx="16.453" style="fill:#6891b8;opacity:1;fill-opacity:1;stroke:none;fill-rule:nonzero"/>
 </g>
</svg>
