<svg xmlns="http://www.w3.org/2000/svg" viewBox="0 0 24 24">
 <path d="m 4 4 0 11 1 0 0 -11" style="fill:#ec86ab"/>
 <path d="m 6 15.5 c 0 0.826 -0.67 1.5 -1.502 1.5 -0.828 0 -1.498 -0.674 -1.498 -1.5 0 -0.826 0.67 -1.5 1.498 -1.5 0.832 0 1.502 0.674 1.502 1.5" style="fill:#ec86ab"/>
 <path d="m 10 20 0 -14.176 -1 0 l 0 14.176" style="fill:#ec86ab"/>
 <path d="m 8 5.504 c 0 -0.831 0.674 -1.504 1.5 -1.504 0.826 0 1.5 0.674 1.5 1.504 0 0.826 -0.674 1.496 -1.5 1.496 -0.826 0 -1.5 -0.669 -1.5 -1.496" style="fill:#ec86ab"/>
 <path d="m 14 4 0 10 1 0 0 -10 z" style="fill:#ec86ab"/>
 <path d="m 16 14.5 c 0 0.831 -0.669 1.5 -1.496 1.5 -0.831 0 -1.504 -0.669 -1.504 -1.5 0 -0.826 0.674 -1.5 1.504 -1.5 0.826 0 1.496 0.674 1.496 1.5" style="fill:#ec86ab"/>
 <path d="m 20 20 0 -7.5 -1 0 0 7.5 z" style="fill:#ec86ab"/>
 <path d="m 18 12.5 c 0 -0.831 0.674 -1.5 1.5 -1.5 0.826 0 1.5 0.669 1.5 1.5 c 0 0.826 -0.674 1.5 -1.5 1.5 -0.826 0 -1.5 -0.674 -1.5 -1.5" style="fill:#ec86ab"/>
</svg>
