<!-- color: #8d65ba -->
<svg xmlns="http://www.w3.org/2000/svg" viewBox="0 0 24 24">
 <path d="m 12 5.5 c -4 0.003 -7.221 2.838 -9.1 4.997 -0.233 0.268 -0.483 0.585 -0.692 0.878 -0.142 0.195 -0.213 0.41 -0.213 0.625 0 0.215 0.071 0.43 0.213 0.625 0.208 0.293 0.458 0.61 0.692 0.878 1.875 2.16 5.093 4.995 9.1 4.997 4 -0.002 7.221 -2.838 9.09 -4.997 0.233 -0.268 0.483 -0.585 0.692 -0.878 0.142 -0.195 0.213 -0.41 0.213 -0.625 0 -0.215 -0.07 -0.43 -0.213 -0.625 c -0.209 -0.293 -0.459 -0.61 -0.692 -0.878 -1.875 -2.16 -5.093 -4.995 -9.09 -4.997 m 0 1.5 a 5 5 0 0 1 2.961 0.978 l -1.806 1.807 a 2.5 2.5 0 0 0 -1.155 -0.284 2.5 2.5 0 0 0 -2.5 2.5 2.5 2.5 0 0 0 0.284 1.155 l -1.807 1.806 a 5 5 0 0 1 -0.978 -2.961 5 5 0 0 1 5 -5 m 4.02 2.039 a 5 5 0 0 1 0.977 2.961 5 5 0 0 1 -5 5 5 5 0 0 1 -2.961 -0.977 l 1.807 -1.807 a 2.5 2.5 0 0 0 1.155 0.284 2.5 2.5 0 0 0 2.5 -2.5 2.5 2.5 0 0 0 -0.284 -1.155 l 1.806 -1.806 m -3.272 0.961 a 1.25 1.25 0 0 1 0.175 0.014 l -1.411 1.411 a 1.25 1.25 0 0 1 -0.014 -0.175 1.25 1.25 0 0 1 1.25 -1.25 m 1.236 1.075 a 1.25 1.25 0 0 1 0.014 0.175 1.25 1.25 0 0 1 -1.25 1.25 1.25 1.25 0 0 1 -0.175 -0.014 l 1.411 -1.411 z" style="fill:#eb93b5;fill-opacity:1;stroke:none;fill-rule:nonzero"/>
</svg>
