<!-- color: #46baa7 -->
<svg xmlns="http://www.w3.org/2000/svg" viewBox="0 0 24 24">
 <path d="M 9,2 C 8.7245,2 8.5,2.2245 8.5,2.5 8.499756,2.8242815 8.5,4 8.5,4 L 7.4065,4 C 6.625,4 6,4.658 6,5.4375 l 0,15.125 C 6,21.342 6.627,22 7.4065,22 l 9.1875,0 C 17.3735,22 18,21.342 18,20.5625 L 18,5.4375 C 18,4.658 17.3755,4 16.594,4 L 15.5,4 15.5,2.5 C 15.5,2.2245 15.2755,2 15,2 Z m 7.594,3 C 16.809,5 17,5.174 17,5.4375 l 0,15.125 C 17,20.826 16.811,21 16.594,21 L 7.4065,21 C 7.1895,21 7,20.826 7,20.5625 L 7,5.4375 C 7,5.174 7.1915,5 7.4065,5 Z M 16,9 l -8,5 0,6 8,0 z" style="fill:#ecb040;fill-opacity:1;stroke:none;fill-rule:nonzero"/>
</svg>
