<svg xmlns="http://www.w3.org/2000/svg" viewBox="0 0 16 16">
 <path d="m 3,7 0,7 c 0,1.108 0.892,2 2,2 l 6,0 c 1.108,0 2,-0.892 2,-2 L 13,7 z M 6.5,9 C 6.777,9 7,9.223 7,9.5 l 0,4 C 7,13.777 6.777,14 6.5,14 6.223,14 6,13.777 6,13.5 l 0,-4 C 6,9.223 6.223,9 6.5,9 z m 3,0 C 9.777,9 10,9.223 10,9.5 l 0,4 C 10,13.777 9.777,14 9.5,14 9.223,14 9,13.777 9,13.5 l 0,-4 C 9,9.223 9.223,9 9.5,9 z" style="fill:#bebebe;fill-opacity:1;stroke:none"/>
 <path d="M 2,6 14,6 C 15,6 15,6 14,4.5 13,3 13,3 12,3 L 4,3 C 3,3 3,3 2,4.5 1,6 1,6 2,6 z" style="fill:#bebebe;fill-opacity:1;stroke:none"/>
 <path d="m 8 0 c -1.657 0 -3 1.343 -3 3 0 1.657 1.343 3 3 3 1.657 0 3 -1.343 3 -3 0 -1.657 -1.343 -3 -3 -3 z m 0 1.5 c 0.828 0 1.5 0.672 1.5 1.5 0 0.828 -0.672 1.5 -1.5 1.5 -0.828 0 -1.5 -0.672 -1.5 -1.5 0 -0.828 0.672 -1.5 1.5 -1.5 z" style="fill:#bebebe;fill-opacity:1;stroke:none"/>
</svg>
