<svg width="32" xmlns="http://www.w3.org/2000/svg" height="32" viewBox="0 0 32 32" xmlns:xlink="http://www.w3.org/1999/xlink">
<g style="fill-rule:evenodd">
<path style="fill:#888" d="M 2.855469 4 L 17.144531 4 C 20 4 20 4 20 7.109375 L 20 28.890625 C 20 32 20 32 17.144531 32 L 2.855469 32 C 0 32 0 32 0 28.890625 L 0 7.109375 C 0 4 0 4 2.855469 4 Z "/>
<path style="fill:#fff" d="M 10.855469 0 L 25.144531 0 C 28 0 28 0 28 3.109375 L 28 24.890625 C 28 28 28 28 25.144531 28 L 10.855469 28 C 8 28 8 28 8 24.890625 L 8 3.109375 C 8 0 8 0 10.855469 0 Z "/>
</g>
<path style="fill:#859900" d="M 32 20 L 26 20 L 26 14 L 20 14 L 20 20 L 14 20 L 14 26 L 20 26 L 20 32 L 26 32 L 26 26 L 32 26 Z "/>
</svg>
