<svg xmlns="http://www.w3.org/2000/svg" viewBox="0 0 32 32">
 <path d="m 30 16 c 0 7.731 -6.269 14 -14 14 -7.731 0 -14 -6.269 -14 -14 0 -7.731 6.269 -14 14 -14 7.731 0 14 6.269 14 14" style="fill:#fff;fill-rule:evenodd"/>
 <path d="m 15.977 5.574 c -0.883 0.012 -1.59 0.746 -1.578 1.625 l 0 8.801 c 0 0.375 0.133 0.738 0.375 1.023 l 4 4.801 c 0.359 0.48 0.945 0.719 1.531 0.633 c 0.59 -0.094 1.078 -0.5 1.27 -1.063 c 0.195 -0.563 0.059 -1.188 -0.348 -1.621 l -3.625 -4.348 l 0 -8.227 c 0.004 -0.43 -0.164 -0.848 -0.469 -1.156 c -0.309 -0.305 -0.727 -0.473 -1.156 -0.469 Z" style="fill:#268bd2"/>
 <path d="m 16 0 c -8.82 0 -16 7.18 -16 16 c 0 8.82 7.18 16 16 16 c 8.82 0 16 -7.18 16 -16 c 0 -8.82 -7.18 -16 -16 -16 m 0 3.199 c 7.086 0 12.801 5.715 12.801 12.801 c 0 7.086 -5.715 12.801 -12.801 12.801 c -7.086 0 -12.801 -5.715 -12.801 -12.801 c 0 -7.086 5.715 -12.801 12.801 -12.801 Z" style="fill:#aaa"/>
 <path d="m 32 20 l -6 0 l 0 -6 l -6 0 l 0 6 l -6 0 l 0 6 l 6 0 l 0 6 l 6 0 l 0 -6 l 6 0 Z" style="fill:#859900"/>
</svg>
