<svg xmlns="http://www.w3.org/2000/svg" viewBox="0 0 32 32">
 <path d="m 3.605 2 c -0.805 0 -1.605 0.801 -1.605 1.605 l 0 24.836 c 0 0.758 0.801 1.559 1.559 1.559 l 24.883 0 c 0.758 0 1.559 -0.801 1.559 -1.559 l 0 -24.883 c 0 -0.758 -0.801 -1.559 -1.559 -1.559 Z" style="fill:#c19553"/>
 <path d="m 3.605 2 c -0.805 0 -1.605 0.801 -1.605 1.605 l 0 8.395 c 3.109 0 24.891 0 28 0 l 0 -8.441 c 0 -0.758 -0.801 -1.559 -1.559 -1.559 Z" style="fill:#fff;fill-opacity:0.196"/>
 <path d="m 14 2 l 0 2 l 2 0 l 0 2 l -2 0 l 0 2 l 2 0 l 0 2 l -2 0 l 0 2 l 2 0.02 l 0 4 l -2 -0.02 l 0 4 l 4 0 l 0 -4 l -2 0.02 l 0 -2.02 l 2 0 l 0 -2 l -2 0.02 l 0 -2.02 l 2 0 l 0 -2 l -2 0 l 0 -2 l 2 0 l 0 -2 l -2 0 l 0 -2 Z" style="fill:#fff"/>
 <path d="m 16 22 16 0 0 6 -16 0 z" style="fill:#dc322f"/>
</svg>
