<svg xmlns="http://www.w3.org/2000/svg" viewBox="0 0 32 32">
 <path d="m 16.03 2 c -1.991 -0.008 -3.11 7.101 -4.725 8.274 -1.615 1.172 -8.642 -0.025 -9.264 1.88 -0.622 1.906 5.735 5.172 6.342 7.083 0.607 1.91 -2.662 8.279 -1.057 9.465 1.606 1.186 6.652 -3.894 8.642 -3.886 1.99 0.008 6.966 5.184 8.58 4.01 1.615 -1.173 -1.618 -7.621 -0.995 -9.527 0.623 -1.905 7.01 -5.11 6.404 -7.02 -0.608 -1.911 -7.658 -0.757 -9.264 -1.943 c -1.605 -1.186 -2.673 -8.329 -4.663 -8.336 z" style="fill:#f1c40f;fill-opacity:1;color:#000"/>
 <path d="m 14 11 0 4 -4 0 0 4 4 0 l 0 4 l 4 0 0 -4 4 0 0 -4 -4 0 0 -4 l -4 0 z" style="fill:#859900;fill-opacity:1;stroke:none;fill-rule:evenodd"/>
</svg>
