<svg width="32" xmlns="http://www.w3.org/2000/svg" height="32" viewBox="0 0 32 32" xmlns:xlink="http://www.w3.org/1999/xlink">
<path style="fill:#859900" d="M 5.238281 3.390625 C 2.476562 4.203125 0.664062 6.484375 0.214844 10.253906 C 0.09375 11.839844 -0.425781 14.039062 0.789062 15.09375 C 2.414062 16.285156 4.402344 16.085938 6.171875 15.707031 C 7.460938 15.289062 8.011719 15.136719 9.039062 13.949219 C 9.039062 13.949219 8.921875 10.933594 9.472656 9.285156 C 13.90625 7.003906 18.21875 7.171875 22.527344 9.285156 C 23.078125 10.933594 22.960938 13.949219 22.960938 13.949219 C 23.988281 15.136719 24.539062 15.289062 25.828125 15.707031 C 27.597656 16.085938 29.585938 16.285156 31.210938 15.09375 C 32.425781 14.039062 31.90625 11.839844 31.785156 10.253906 C 31.335938 6.484375 29.523438 4.203125 26.761719 3.390625 C 19.558594 1.726562 12.351562 1.351562 5.238281 3.390625 Z "/>
<path style="fill:#dc322f" d="M 22.398438 19.5 L 20.265625 19.5 C 19.71875 19.5 19.140625 19.808594 18.734375 20.246094 L 16 23.296875 L 13.265625 20.246094 C 12.859375 19.808594 12.28125 19.5 11.734375 19.5 L 9.601562 19.5 L 9.601562 21.882812 C 9.601562 22.621094 9.792969 23.199219 10.199219 23.671875 L 16 30 L 21.800781 23.671875 C 22.207031 23.199219 22.398438 22.621094 22.398438 21.882812 Z "/>
</svg>
