<svg width="32" xmlns="http://www.w3.org/2000/svg" height="32" viewBox="0 0 32 32" xmlns:xlink="http://www.w3.org/1999/xlink">
<path style="fill:#859900" d="M 27.304688 0 C 25.253906 0 23.757812 1.859375 22.453125 3.191406 C 21.226562 4.789062 19.945312 6.648438 19.597656 8.511719 C 19.597656 9.308594 20.371094 9.574219 20.691406 10.109375 C 21.945312 11.171875 23.226562 12.769531 22.453125 14.628906 C 21.304688 16.757812 19.199219 18.355469 17.546875 20.21875 C 16.238281 21.546875 14.53125 23.410156 12.453125 22.613281 C 10.90625 21.8125 10.023438 20.484375 8.824219 19.683594 C 7.144531 19.683594 5.703125 20.75 4.316406 21.546875 C 2.53125 22.878906 0.691406 24.472656 0.0507812 26.601562 C -0.324219 28.199219 1.488281 29.261719 2.609375 30.058594 C 5.410156 32.1875 9.199219 32.453125 12.425781 31.390625 C 17.597656 29.527344 21.757812 25.539062 25.4375 21.8125 C 28.558594 18.089844 31.574219 13.832031 31.972656 9.042969 C 32.238281 5.585938 30.507812 2.394531 27.839844 0.265625 L 27.574219 0 Z "/>
</svg>
