<svg xmlns="http://www.w3.org/2000/svg" viewBox="0 0 32 32">
 <g transform="matrix(0 -1 1 0 0 32)">
  <path d="m 24 13 6 0 0 6 -6 0 z" style="fill:#fff;stroke-miterlimit:10;stroke:#888;stroke-width:2"/>
  <path d="m 2 5 6 0 0 6 -6 0 z" style="fill:#fff;stroke-miterlimit:10;stroke:#888;stroke-width:2"/>
  <path d="m 2 21 6 0 0 6 -6 0 z" style="fill:#fff;stroke-miterlimit:10;stroke:#888;stroke-width:2"/>
  <path d="m 13 8 0 1 2 0 0 4 -2 0 0 1 6 0 0 -1 -2 0 0 -4 2 0 0 -1 z" style="fill:#268bd2;fill-opacity:1;stroke:none"/>
  <path d="m 13 18 0 1 2 0 0 4 -2 0 0 1 6 0 0 -1 -2 0 0 -4 2 0 0 -1 z" style="fill:#268bd2;fill-opacity:1;stroke:none"/>
 </g>
</svg>
