<svg xmlns="http://www.w3.org/2000/svg" viewBox="0 0 32 32">
 <rect width="2" height="24" x="11" y="-27" transform="matrix(0,1,-1,0,0,0)" style="fill:#268bd2;opacity:1;fill-opacity:1;stroke:none;fill-rule:nonzero"/>
 <path transform="matrix(1.4433757,0,0,-1.6666666,-22.31045,64.669499)" d="m 35.895 31 -1.732 -3 3.464 0 z" style="fill:#268bd2;opacity:1;fill-opacity:1;stroke:none;fill-rule:nonzero"/>
 <rect width="8" height="18" x="4" y="-24" transform="matrix(0,1,-1,0,0,0)" style="fill:#fff;opacity:1;fill-opacity:1;stroke:none;fill-rule:nonzero"/>
 <rect y="-27" x="27" height="24" width="2" transform="matrix(0,1,-1,0,0,0)" style="fill:#268bd2;opacity:1;fill-opacity:1;stroke:none;fill-rule:nonzero"/>
 <rect y="-22" x="20" height="14" width="8" transform="matrix(0,1,-1,0,0,0)" style="fill:#fff;opacity:1;fill-opacity:1;stroke:none;fill-rule:nonzero"/>
 <path d="m 5 3 0 10 20 0 0 -10 z m 2 2 16 0 0 6 -16 0 z m 0 14 0 10 16 0 0 -10 z m 2 2 12 0 0 6 -12 0 z" style="fill:#888;opacity:1;fill-opacity:1;stroke:none"/>
 <path d="m 35.895 31 -1.732 -3 3.464 0 z" transform="matrix(1.4433757,0,0,1.6666666,-22.31045,-24.669667)" style="fill:#268bd2;opacity:1;fill-opacity:1;stroke:none;fill-rule:nonzero"/>
</svg>
