<svg viewBox="0 0 32 32" xmlns="http://www.w3.org/2000/svg">
 <path d="m 12.97,11.682 q 0.771,0 1.354,-0.023 0.607,-0.047 1,-0.14 l 0,-3.62 Q 15.09,7.782 14.553,7.712 14.039,7.619 13.292,7.619 q -0.49,0 -1.051,0.07 -0.537,0.07 -1,0.304 -0.444,0.21 -0.747,0.607 -0.304,0.374 -0.304,1 0,1.168 0.747,1.635 0.747,0.444 2.032,0.444 z M 12.783,0.8 q 1.308,0 2.195,0.35 0.911,0.327 1.448,0.957 0.56,0.607 0.794,1.471 0.234,0.841 0.234,1.868 l 0,7.59 q -0.28,0.047 -0.794,0.14 -0.49,0.07 -1.121,0.14 -0.631,0.07 -1.378,0.117 -0.724,0.07 -1.448,0.07 -1.028,0 -1.892,-0.21 -0.864,-0.21 -1.495,-0.654 -0.631,-0.467 -0.981,-1.214 -0.35,-0.747 -0.35,-1.798 0,-1 0.397,-1.728 0.42,-0.724 1.121,-1.168 0.701,-0.444 1.635,-0.654 0.934,-0.21 1.962,-0.21 0.327,0 0.677,0.047 0.35,0.023 0.654,0.093 0.327,0.047 0.56,0.093 0.234,0.047 0.327,0.07 l 0,-0.607 q 0,-0.537 -0.117,-1.051 Q 15.094,3.975 14.791,3.578 14.487,3.158 13.95,2.924 13.436,2.667 12.596,2.667 11.522,2.667 10.704,2.83 9.91,2.97 9.513,3.134 L 9.256,1.336 q 0.42,-0.187 1.401,-0.35 0.981,-0.187 2.125,-0.187 z" style="fill:#888;fill-opacity:1"/>
 <path d="m 7.554,29.075 q 0.257,0.117 0.654,0.21 0.42,0.117 0.817,0.117 1.284,0 2.01,-0.584 0.724,-0.56 1.308,-1.845 Q 10.872,24.171 9.587,21.041 8.326,17.888 7.485,14.666 l 2.335,0 q 0.257,1.051 0.607,2.265 0.374,1.214 0.817,2.499 0.444,1.284 0.957,2.569 0.514,1.284 1.074,2.475 0.887,-2.452 1.541,-4.857 0.654,-2.405 1.238,-4.951 l 2.242,0 q -0.841,3.433 -1.868,6.609 -1.028,3.153 -2.219,5.908 -0.467,1.051 -0.981,1.798 -0.49,0.771 -1.098,1.261 -0.607,0.49 -1.378,0.724 Q 10.005,31.2 9.047,31.2 8.79,31.2 8.51,31.153 8.23,31.13 7.95,31.06 7.693,31.013 7.46,30.943 7.25,30.873 7.156,30.826 l 0.397,-1.751 z" style="fill:#888;fill-opacity:1"/>
 <path d="m 26.5 8 -2.5 5 l 5 0 z" style="fill:#268bd2;opacity:1;fill-opacity:1;stroke:none;fill-rule:nonzero"/>
 <path d="m 26.5 24 -2.5 -5 l 5 0 z" style="fill:#268bd2;opacity:1;fill-opacity:1;stroke:none;fill-rule:nonzero"/>
</svg>
