<svg viewBox="0 0 32 32" xmlns="http://www.w3.org/2000/svg">
 <path d="m 24.678 5.908 -7.77 7.77 c 0.646 0.255 1.159 0.768 1.414 1.414 l 7.77 -7.77 c -0.646 -0.255 -1.159 -0.768 -1.414 -1.414 z m -6.281 10.762 c -0.19 0.675 -0.654 1.232 -1.268 1.547 l 7.475 6.113 c 0.19 -0.674 0.653 -1.232 1.266 -1.547 z" style="visibility:visible;shape-rendering:auto;color-interpolation-filters:linearRGB;fill:#3daee9;opacity:1;image-rendering:auto;fill-opacity:1;text-rendering:auto;stroke:none;display:inline;color:#000;fill-rule:evenodd;color-rendering:auto;color-interpolation:sRGB"/>
 <rect width="12" transform="matrix(0 -1 1 0 0 0)" y="4" style="fill:#3daee9;opacity:1;fill-opacity:1;stroke:none;fill-rule:nonzero" x="-22" height="2"/>
 <path d="m 7.438 23.463 c -0.153 -0.687 -0.593 -1.264 -1.184 -1.611 l 7.309 -5.314 c 0.153 0.687 0.593 1.264 1.184 1.611 z" style="visibility:visible;shape-rendering:auto;color-interpolation-filters:linearRGB;fill:#3daee9;opacity:1;image-rendering:auto;fill-opacity:1;text-rendering:auto;stroke:none;display:inline;color:#000;fill-rule:evenodd;color-rendering:auto;color-interpolation:sRGB"/>
 <circle r="2" cy="24" cx="5" style="stroke-dasharray:none;stroke-opacity:1;fill:#fff;opacity:1;stroke-miterlimit:4;fill-opacity:1;stroke:#888;stroke-linecap:butt;stroke-linejoin:miter;stroke-width:2;stroke-dashoffset:0"/>
 <path d="m 7.438 8.537 c -0.153 0.687 -0.593 1.264 -1.184 1.611 l 7.309 5.314 c 0.153 -0.687 0.593 -1.264 1.184 -1.611 z" style="visibility:visible;shape-rendering:auto;color-interpolation-filters:linearRGB;fill:#3daee9;opacity:1;image-rendering:auto;fill-opacity:1;text-rendering:auto;stroke:none;display:inline;color:#000;fill-rule:evenodd;color-rendering:auto;color-interpolation:sRGB"/>
 <circle r="2" cy="8" cx="5" style="stroke-dasharray:none;stroke-opacity:1;fill:#fff;opacity:1;stroke-miterlimit:4;fill-opacity:1;stroke:#888;stroke-linecap:butt;stroke-linejoin:miter;stroke-width:2;stroke-dashoffset:0"/>
 <circle r="2" cy="16" cx="16" style="stroke-dasharray:none;stroke-opacity:1;fill:#fff;opacity:1;stroke-miterlimit:4;fill-opacity:1;stroke:#888;stroke-linecap:butt;stroke-linejoin:miter;stroke-width:2;stroke-dashoffset:0"/>
 <circle r="2" cy="5" cx="27" style="stroke-dasharray:none;stroke-opacity:1;fill:#fff;opacity:1;stroke-miterlimit:4;fill-opacity:1;stroke:#888;stroke-linecap:butt;stroke-linejoin:miter;stroke-width:2;stroke-dashoffset:0"/>
 <circle r="2" cy="25" cx="27" style="stroke-dasharray:none;stroke-opacity:1;fill:#fff;opacity:1;stroke-miterlimit:4;fill-opacity:1;stroke:#888;stroke-linecap:butt;stroke-linejoin:miter;stroke-width:2;stroke-dashoffset:0"/>
</svg>
