<svg width="32" xmlns="http://www.w3.org/2000/svg" height="32" viewBox="0 0 32 32" xmlns:xlink="http://www.w3.org/1999/xlink">
<g style="fill:#888">
<path d="M 8.003906 14.398438 L 24 4.800781 L 24 8 L 8.003906 17.597656 Z "/>
<path d="M 8.003906 17.597656 L 24 27.195312 L 24 23.996094 L 8.003906 14.398438 Z "/>
</g>
<g style="fill-rule:evenodd">
<path style="fill:#268bd2" d="M 30.394531 6.398438 C 30.394531 9.933594 27.53125 12.796875 23.996094 12.796875 C 20.464844 12.796875 17.601562 9.933594 17.601562 6.398438 C 17.601562 2.863281 20.464844 0 23.996094 0 C 27.53125 0 30.394531 2.863281 30.394531 6.398438 Z "/>
<path style="fill:#2aa198" d="M 14.398438 15.996094 C 14.398438 19.53125 11.535156 22.394531 8.003906 22.394531 C 4.46875 22.394531 1.605469 19.53125 1.605469 15.996094 C 1.605469 12.460938 4.46875 9.597656 8.003906 9.597656 C 11.535156 9.597656 14.398438 12.460938 14.398438 15.996094 Z "/>
<path style="fill:#dc322f" d="M 30.394531 25.601562 C 30.394531 29.136719 27.53125 32 23.996094 32 C 20.464844 32 17.601562 29.136719 17.601562 25.601562 C 17.601562 22.066406 20.464844 19.203125 23.996094 19.203125 C 27.53125 19.203125 30.394531 22.066406 30.394531 25.601562 Z "/>
</g>
</svg>
