<svg xmlns="http://www.w3.org/2000/svg" viewBox="0 0 32 32">
 <path d="M 24.570312,0 7.429688,0 C 4,0 4,0 4,3.554688 L 4,28.445312 C 4,32 4,32 7.429688,32 l 17.140624,0 C 28,32 28,32 28,28.445312 L 28,3.554688 C 28,0 28,0 24.570312,0 Z" style="fill:#fff;fill-rule:evenodd"/>
 <path d="m 10 28 c -2.66 0 -4.668 0 -6 0 0 0 -4 0.125 -4 -6 0 -6.125 4 -6.418 4 -6.418 0 4.699 0.68 4.418 6 4.418 0 -1.566 -0.262 -3.258 1.066 -3.258 l 6.934 6.586 c 0.434 0.41 0.441 1.199 0 1.598 l -6.883 6.25 c -1.328 0 -1.117 -1.652 -1.117 -3.176" style="fill:#859900"/>
</svg>
