<svg xmlns="http://www.w3.org/2000/svg" viewBox="0 0 32 32">
 <path d="m 8.223 0 l 15.555 0 c 4.668 0 6.223 1.602 6.223 6.398 l 0 19.2 c 0 4.797 -1.555 6.398 -6.223 6.398 l -15.555 0 c -4.668 0 -6.223 -1.602 -6.223 -6.398 l 0 -19.2 c 0 -4.797 1.555 -6.398 6.223 -6.398 Z" style="fill:#268bd2;fill-rule:evenodd"/>
 <g style="fill:#fff">
  <path d="m 8.223 0 15.555 0 c 4.668 0 6.223 1.602 6.223 6.398 l 0 12.801 c 0 4.801 -1.555 6.801 -6.223 6.801 l -15.555 0 c -4.668 0 -6.223 -2 -6.223 -6.801 l 0 -12.801 c 0 -4.797 1.555 -6.398 6.223 -6.398" style="fill-opacity:0.302;fill-rule:evenodd"/>
  <path d="m 25 14 l -9 10 l -9 -10 l 5 0 l 0 -10 l 8 0 l 0 10 Z" style="fill-opacity:0.902"/>
 </g>
</svg>
