<svg width="32" xmlns="http://www.w3.org/2000/svg" height="32" viewBox="0 0 32 32" xmlns:xlink="http://www.w3.org/1999/xlink">
<g style="fill-rule:evenodd">
<path style="fill:#aaa;fill-opacity:.941" d="M 9.332031 0.0078125 L 22.667969 0.0078125 C 26 0.0078125 26 -0.324219 26 3.339844 L 26 16.667969 C 26 20 26 20 22.667969 20 L 9.332031 20 C 6 20 6 20 6 16.667969 L 6 3.339844 C 6 0.0078125 6 0.0078125 9.332031 0.0078125 Z "/>
<path style="fill:#ccc" d="M 3.199219 8 L 28.800781 8 C 32 8 32 8 32 11.199219 L 32 20.800781 C 32 24 32 24 28.800781 24 L 3.199219 24 C 0 24 0 24 0 20.800781 L 0 11.199219 C 0 8 0 8 3.199219 8 Z "/>
</g>
<path style="fill:#dc322f" d="M 6 16 L 26 16 L 26 32 L 6 32 Z "/>
<g style="fill-rule:evenodd">
<path style="fill:#fff" d="M 26 16 C 26 21.523438 21.523438 26 16 26 C 10.476562 26 6 21.523438 6 16 C 6 10.476562 10.476562 6 16 6 C 21.523438 6 26 10.476562 26 16 Z "/>
<path style="fill:#555" d="M 22.667969 16 C 22.667969 19.683594 19.683594 22.667969 16 22.667969 C 12.316406 22.667969 9.332031 19.683594 9.332031 16 C 9.332031 12.320312 12.316406 9.335938 16 9.335938 C 19.683594 9.335938 22.667969 12.320312 22.667969 16 Z "/>
<path style="fill:#eee" d="M 21 13.5 C 21 14.882812 19.878906 16 18.5 16 C 17.121094 16 16 14.882812 16 13.5 C 16 12.121094 17.121094 11 18.5 11 C 19.878906 11 21 12.121094 21 13.5 Z "/>
</g>
</svg>
