
<!--Created with Inkscape (http://www.inkscape.org/)-->
<svg viewBox="0 0 32 32" style="enable-background:new" xmlns="http://www.w3.org/2000/svg">
 <path d="m 16.14 3.02 c -3.365 -0.171 -6.774 1 -9.385 3.648 -4.639 4.699 -5.135 12.806 -0.592 17.815 4 4.411 10.873 4.868 15.1 0.49 3.684 -3.817 4.053 -10.346 0.337 -14.336 -3.202 -3.439 -8.649 -3.769 -11.955 -0.234 c -2.811 3.01 -3.066 8.088 -0.108 11.146 2.474 2.558 6.628 2.776 9.1 0.005 2.027 -2.273 2.181 -6.06 -0.098 -8.278 -1.824 -1.776 -4.835 -1.891 -6.565 0.206 -1.342 1.627 -1.408 4.286 0.288 5.769 1.264 1.105 3.31 1.134 4.398 -0.408 0.384 -0.545 0.559 -1.201 0.508 -1.873 -0.052 -0.671 -0.381 -1.395 -1.01 -1.82 -0.412 -0.28 -0.872 -0.388 -1.362 -0.313 -0.49 0.075 -1.054 0.421 -1.313 1.017 -0.161 0.372 -0.187 0.695 -0.087 1.094 0.097 0.386 0.519 0.89 1.049 0.985 -0.33 0.038 -0.68 -0.035 -0.953 -0.274 -0.768 -0.672 -0.733 -2 -0.061 -2.82 0.952 -1.155 2.724 -1.084 3.794 -0.042 1.421 1.383 1.32 3.857 0 5.337 -1.678 1.882 -4.604 1.73 -6.338 -0.062 -2.138 -2.21 -1.949 -5.989 0.131 -8.214 2.504 -2.678 6.73 -2.422 9.2 0.231 2.92 3.135 2.624 8.366 -0.314 11.409 c -3.418 3.542 -9.07 3.166 -12.346 -0.445 -3.763 -4.15 -3.347 -10.962 0.534 -14.893 4.412 -4.47 11.612 -3.962 15.751 0.694 4.665 5.246 4.118 13.764 -0.784 18.646 l 1.327 1.504 c 5.669 -5.646 6.301 -15.456 0.868 -21.565 -2.43 -2.733 -5.751 -4.248 -9.116 -4.419 z" style="visibility:visible;shape-rendering:auto;color-interpolation-filters:linearRGB;fill:#4b4b4b;opacity:1;image-rendering:auto;fill-opacity:1;text-rendering:auto;stroke:none;display:inline;color:#000;fill-rule:evenodd;color-rendering:auto;color-interpolation:sRGB"/>
</svg>
