<svg width="32" xmlns="http://www.w3.org/2000/svg" height="32" viewBox="0 0 32 32" xmlns:xlink="http://www.w3.org/1999/xlink">
<path style="fill:#dc322f" d="M 28 10 L 28 28.855469 C 28 32 28 32 24.570312 32 L 7.429688 32 C 4 32 4 32 4 28.855469 L 4 10 C 10.855469 10 22.855469 10 28 10 Z "/>
<g style="fill-opacity:.667;fill:#fff">
<path d="M 6 14 L 6 28 L 10 28 L 10 14 Z "/>
<path d="M 14 14 L 14 28 L 18 28 L 18 14 Z "/>
<path d="M 22 14 L 22 28 L 26 28 L 26 14 Z "/>
</g>
<path style="fill:#dc322f" d="M 4 8 L 28 8 L 28 4 L 22 4 L 22 0 L 10 0 L 10 4 L 4 4 Z "/>
</svg>
