<svg width="32" xmlns="http://www.w3.org/2000/svg" height="32" viewBox="0 0 32 32" xmlns:xlink="http://www.w3.org/1999/xlink">
<g style="fill-rule:evenodd">
<path style="fill:#2aa198" d="M 13.253906 0 C 5.929688 0 0 5.925781 0 13.253906 C 0 20.578125 5.929688 26.507812 13.253906 26.507812 C 15.273438 26.507812 17.175781 26.058594 18.898438 25.265625 L 23.867188 30.234375 C 26.203125 32.589844 26.226562 32.589844 28.578125 30.234375 C 30.914062 27.898438 30.914062 27.875 28.578125 25.523438 L 24.023438 20.96875 C 25.578125 18.78125 26.507812 16.136719 26.507812 13.253906 C 26.507812 5.925781 20.578125 0 13.253906 0 Z M 13.046875 6.625 C 14.839844 6.570312 16.578125 7.246094 17.867188 8.492188 C 19.15625 9.742188 19.882812 11.460938 19.882812 13.253906 C 19.882812 16.914062 16.914062 19.878906 13.253906 19.878906 C 9.59375 19.878906 6.625 16.914062 6.625 13.253906 C 6.625 9.671875 9.46875 6.738281 13.046875 6.625 Z "/>
<path style="fill:#fff" d="M 6.625 13.25 C 6.625 16.910156 9.59375 19.875 13.253906 19.875 C 16.914062 19.875 19.882812 16.910156 19.882812 13.25 C 19.882812 9.59375 16.914062 6.625 13.253906 6.625 C 9.59375 6.625 6.625 9.59375 6.625 13.25 Z "/>
<path style="fill:#2aa198;fill-opacity:.102" d="M 6.625 13.25 C 6.625 16.910156 9.59375 19.875 13.253906 19.875 C 16.914062 19.875 19.882812 16.910156 19.882812 13.25 C 19.882812 9.59375 16.914062 6.625 13.253906 6.625 C 9.59375 6.625 6.625 9.59375 6.625 13.25 Z "/>
</g>
<path style="fill:#fff" d="M 32 0 L 12 0 L 12 20 L 32 20 Z "/>
<g style="fill:#888">
<path d="M 16 4 L 16 8 L 28 8 L 28 4 Z "/>
<path d="M 16 12 L 16 16 L 28 16 L 28 12 Z "/>
</g>
</svg>
