<svg xmlns="http://www.w3.org/2000/svg" viewBox="0 0 32 32">
 <g transform="matrix(-1,0,0,1,32,0)">
  <path d="m 12 6 -10 10 10 10 16.07 0 c 1.06 -0.044 1.929 -0.984 1.929 -2 l 0 -16 c 0 -1.062 -0.691 -2 -2.02 -2" style="fill:#dc322f;opacity:1;fill-opacity:1;color:#000"/>
  <path d="m 14.01 10 1.999 0 c 0.021 0 0.042 -0.001 0.063 0 0.51 0.022 1.019 0.257 1.374 0.625 l 2.561 2.563 2.624 -2.563 c 0.531 -0.461 0.893 -0.611 1.374 -0.625 l 1.999 0 l 0 2 c 0 0.573 -0.069 1.101 -0.5 1.5 l -2.561 2.563 2.499 2.5 c 0.376 0.376 0.562 0.907 0.562 1.438 l 0 2 -1.999 0 c -0.53 0 -1.061 -0.186 -1.437 -0.563 l -2.561 -2.563 -2.561 2.563 c -0.376 0.376 -0.906 0.563 -1.437 0.563 l -1.999 0 0 -2 c 0 -0.531 0.186 -1.061 0.562 -1.438 l 2.561 -2.5 l -2.561 -2.563 c -0.421 -0.389 -0.606 -0.938 -0.562 -1.5 l 0 -2 z" style="fill:#fff;fill-opacity:1;color:#000"/>
  <path d="m 14.01 10 1.999 0 c 0.021 0 0.042 -0.001 0.063 0 0.51 0.022 1.019 0.257 1.374 0.625 l 2.561 2.563 2.624 -2.563 c 0.531 -0.461 0.893 -0.611 1.374 -0.625 l 1.999 0 l 0 2 c 0 0.573 -0.069 1.101 -0.5 1.5 l -2.561 2.563 2.499 2.5 c 0.376 0.376 0.562 0.907 0.562 1.438 l 0 2 -1.999 0 c -0.53 0 -1.061 -0.186 -1.437 -0.563 l -2.561 -2.563 -2.561 2.563 c -0.376 0.376 -0.906 0.563 -1.437 0.563 l -1.999 0 0 -2 c 0 -0.531 0.186 -1.061 0.562 -1.438 l 2.561 -2.5 l -2.561 -2.563 c -0.421 -0.389 -0.606 -0.938 -0.562 -1.5 l 0 -2 z" style="fill:#dc322f;fill-opacity:0.102;color:#000"/>
 </g>
</svg>
