<!-- Created with Inkscape (http://www.inkscape.org/) -->
<svg xmlns="http://www.w3.org/2000/svg" viewBox="0 0 32 32">
 <path d="m 18.06 12.1 8.498 3.997 c 0 0 -0.292 8.478 0.511 10.887 0.803 2.41 2.514 1.176 2.588 0.31 0.108 -1.266 1.179 -9.199 -1.155 -12.785 -1.559 -2.395 -5.085 -3.356 -7.495 -4.159 -2.41 -0.803 -2.947 1.749 -2.947 1.749 z" style="fill:#cb4b16;fill-opacity:1;stroke:none;fill-rule:evenodd"/>
 <path d="m 26.562 16.1 -11.358 11.358 c -0.944 0.944 -2.464 0.944 -3.408 0 l -9.09 -9.09 c -0.944 -0.944 -0.944 -2.464 0 -3.408 l 11.358 -11.358" style="fill:#bcbcbc;opacity:1;fill-opacity:1;stroke:none;fill-rule:nonzero"/>
 <path d="m 12.32 4.625 c -2.823 0.024 -5.54 0.586 -7.519 1.647 -1.32 0.708 -2.243 1.601 -2.565 2.703 c -0.322 1.102 0.096 2.298 1.034 3.202 1.875 1.808 5.408 2.729 9.294 2.729 l 0 -1.607 c -3.607 0 -6.886 -1.033 -8.179 -2.28 c -0.646 -0.623 -0.754 -1.091 -0.607 -1.594 0.147 -0.504 0.692 -1.157 1.781 -1.74 1.434 -0.769 3.556 -1.268 5.828 -1.404 l 1.641 -1.643 c -0.236 -0.006 -0.472 -0.018 -0.708 -0.016 z" mix-blend-mode="normal" isolation="auto" white-space="normal" solid-color="#000000" solid-opacity="1" style="visibility:visible;shape-rendering:auto;color-interpolation-filters:linearRGB;fill:#5a5a5a;opacity:1;image-rendering:auto;fill-opacity:1;stroke:none;display:inline;color:#000;fill-rule:nonzero;color-rendering:auto;color-interpolation:sRGB"/>
</svg>
