<svg width="32" xmlns="http://www.w3.org/2000/svg" height="32" viewBox="0 0 32 32" xmlns:xlink="http://www.w3.org/1999/xlink">
<g style="fill:#268bd2">
<path d="M 8 6 L 8 10 L 20 10 C 20.855469 10 22 11.226562 22 12 L 26 12 C 26 8.730469 23.359375 6 20 6 Z M 6 20 C 6.011719 21.441406 6.539062 22.90625 7.5625 24.0625 C 8.585938 25.21875 10.183594 26 12 26 L 26 26 L 26 20 L 22 20 L 22 22 L 12 22 C 11.203125 22 10.867188 21.78125 10.5625 21.4375 C 10.257812 21.09375 10.003906 20.558594 10 20 Z "/>
<path d="M 2 14 L 2 18 L 30 18 L 30 14 Z "/>
</g>
</svg>
