<svg width="32" xmlns="http://www.w3.org/2000/svg" height="32" viewBox="0 0 32 32" xmlns:xlink="http://www.w3.org/1999/xlink">
<path style="fill:#268bd2" d="M 8 6 L 8 10 L 18 10 C 18.855469 10 20 11.226562 20 12 L 20 14 L 10 14 C 8.160156 14 6.527344 14.769531 5.5 15.9375 C 4.472656 17.105469 3.988281 18.558594 4 20 C 4.011719 21.441406 4.539062 22.90625 5.5625 24.0625 C 6.585938 25.21875 8.183594 26 10 26 L 28 26 L 28 12 C 28 8.730469 25.359375 6 22 6 Z M 14 18 L 20 18 L 20 22 L 14 22 C 13.203125 22 12.867188 21.78125 12.5625 21.4375 C 12.257812 21.09375 12.003906 20.558594 12 20 C 11.996094 19.441406 12.210938 18.894531 12.5 18.5625 C 12.789062 18.230469 13.15625 18 14 18 Z "/>
</svg>
