<svg xmlns="http://www.w3.org/2000/svg" viewBox="0 0 32 32">
 <path d="m 28.471 5.988 c -5.471 -0.988 -18.471 -0.988 -24.965 0.031 -2.19 2.737 -3.506 6.203 -3.506 9.98 0 8.836 7.164 16 16 16 8.836 0 15.996 -7.164 15.996 -16 0 -3.792 -1.326 -7.27 -3.529 -10.01" style="fill:#268bd2;fill-rule:evenodd"/>
 <g style="fill:#fff;fill-opacity:0.902">
  <path d="m 16 0 c -4.871 0 -9.473 2.215 -12.508 6.02 l 10.512 -0.014 l 0 12.619 l -4.062 -3.938 c -0.66 -0.668 -1.688 -0.863 -2.563 -0.5 c -0.879 0.363 -1.406 1.195 -1.375 2.125 c 0.016 0.586 0.262 1.16 0.688 1.563 l 7.687 7.438 c 0.43 0.426 1.012 0.688 1.625 0.688 c 0.609 0 1.191 -0.262 1.625 -0.688 l 7.688 -7.438 c 0.898 -0.875 0.898 -2.313 0 -3.188 c -0.902 -0.875 -2.352 -0.875 -3.25 0 l -4.063 3.938 l 0 -12.623 l 10.473 -0.014 c -3.039 -3.785 -7.625 -5.988 -12.477 -5.988 z" style="fill:#eaf4fb;fill-opacity:1"/>
 </g>
</svg>
