<svg width="32" xmlns="http://www.w3.org/2000/svg" height="32" viewBox="0 0 32 32" xmlns:xlink="http://www.w3.org/1999/xlink">
<path style="fill:#268bd2;fill-rule:evenodd" d="M 32 16.003906 C 32 24.839844 24.835938 32 16 32 C 7.164062 32 0 24.839844 0 16.003906 C 0 7.164062 7.164062 0 16 0 C 24.835938 0 32 7.164062 32 16.003906 Z "/>
<path style="fill:#fff;fill-opacity:.902" d="M 16.3125 6.007812 C 15.382812 5.976562 14.550781 6.503906 14.1875 7.382812 C 13.824219 8.257812 14.019531 9.285156 14.6875 9.945312 L 18.625 14.007812 L 6 14.007812 L 6 18.007812 L 18.625 18.007812 L 14.6875 22.070312 C 13.8125 22.96875 13.8125 24.417969 14.6875 25.320312 C 15.5625 26.21875 17 26.21875 17.875 25.320312 L 25.3125 17.632812 C 25.738281 17.199219 26 16.617188 26 16.007812 C 26 15.394531 25.738281 14.8125 25.3125 14.382812 L 17.875 6.695312 C 17.472656 6.269531 16.898438 6.023438 16.3125 6.007812 Z "/>
</svg>
