<svg width="32" xmlns="http://www.w3.org/2000/svg" height="32" viewBox="0 0 32 32" xmlns:xlink="http://www.w3.org/1999/xlink">
<path style="fill:#268bd2;fill-rule:evenodd" d="M 0 16.003906 C 0 24.839844 7.164062 32 16 32 C 24.835938 32 32 24.839844 32 16.003906 C 32 7.164062 24.835938 0 16 0 C 7.164062 0 0 7.164062 0 16.003906 Z "/>
<path style="fill:#fff;fill-opacity:.902" d="M 15.6875 6.007812 C 16.617188 5.976562 17.449219 6.503906 17.8125 7.382812 C 18.175781 8.257812 17.980469 9.285156 17.3125 9.945312 L 13.375 14.007812 L 26 14.007812 L 26 18.007812 L 13.375 18.007812 L 17.3125 22.070312 C 18.1875 22.96875 18.1875 24.417969 17.3125 25.320312 C 16.4375 26.21875 15 26.21875 14.125 25.320312 L 6.6875 17.632812 C 6.261719 17.199219 6 16.617188 6 16.007812 C 6 15.394531 6.261719 14.8125 6.6875 14.382812 L 14.125 6.695312 C 14.527344 6.269531 15.101562 6.023438 15.6875 6.007812 Z "/>
</svg>
