<svg width="32" xmlns="http://www.w3.org/2000/svg" height="32" viewBox="0 0 32 32" xmlns:xlink="http://www.w3.org/1999/xlink">
<path style="fill:#268bd2;fill-rule:evenodd" d="M 15.996094 0 C 7.160156 0 0 7.164062 0 16 C 0 24.835938 7.160156 32 15.996094 32 C 24.835938 32 32 24.835938 32 16 C 32 7.164062 24.835938 0 15.996094 0 Z "/>
<path style="fill:#fff;fill-opacity:.902" d="M 25.992188 15.6875 C 26.023438 16.617188 25.496094 17.449219 24.617188 17.8125 C 23.742188 18.175781 22.714844 17.980469 22.054688 17.3125 L 17.992188 13.375 L 17.992188 26 L 13.992188 26 L 13.992188 13.375 L 9.929688 17.3125 C 9.03125 18.1875 7.582031 18.1875 6.679688 17.3125 C 5.78125 16.4375 5.78125 15 6.679688 14.125 L 14.367188 6.6875 C 14.800781 6.261719 15.382812 6 15.992188 6 C 16.605469 6 17.1875 6.261719 17.617188 6.6875 L 25.304688 14.125 C 25.730469 14.527344 25.976562 15.101562 25.992188 15.6875 Z "/>
</svg>
