<svg xmlns="http://www.w3.org/2000/svg" viewBox="0 0 32 32">
 <path d="m 7 4.085 -4.5 2.598 0 -5.196" transform="matrix(0.88888889,0,0,1.0584755,0.77777778,-0.32360346)" style="fill:#268bd2;opacity:1;fill-opacity:1;stroke:none;fill-rule:nonzero"/>
 <rect width="19" height="2" x="10" y="3" style="fill:#dc322f;opacity:1;fill-opacity:1;stroke:none;fill-rule:nonzero"/>
 <path d="m 7 4.085 -4.5 2.598 0 -5.196" transform="matrix(0.88888889,0,0,1.0584755,0.77777778,7.6763965)" style="fill:#268bd2;opacity:1;fill-opacity:1;stroke:none;fill-rule:nonzero"/>
 <rect width="11" height="2" x="10" y="11" style="fill:#dc322f;opacity:1;fill-opacity:1;stroke:none;fill-rule:nonzero"/>
 <path d="m 7 4.085 -4.5 2.598 0 -5.196" transform="matrix(0.88888889,0,0,1.0584755,0.77777778,15.676397)" style="fill:#268bd2;opacity:1;fill-opacity:1;stroke:none;fill-rule:nonzero"/>
 <rect width="19" height="2" x="10" y="19" style="fill:#dc322f;opacity:1;fill-opacity:1;stroke:none;fill-rule:nonzero"/>
 <path d="m 7 4.085 -4.5 2.598 0 -5.196" transform="matrix(0.88888889,0,0,1.0584755,0.77777778,23.676397)" style="fill:#268bd2;opacity:1;fill-opacity:1;stroke:none;fill-rule:nonzero"/>
 <rect width="15" height="2" x="10" y="27" style="fill:#dc322f;opacity:1;fill-opacity:1;stroke:none;fill-rule:nonzero"/>
</svg>
