<svg xmlns="http://www.w3.org/2000/svg" viewBox="0 0 32 32">
 <g style="fill-rule:evenodd">
  <path d="m 9.332 0.008 l 13.336 0 c 3.332 0 3.332 -0.332 3.332 3.332 l 0 13.328 c 0 3.332 0 3.332 -3.332 3.332 l -13.336 0 c -3.332 0 -3.332 0 -3.332 -3.332 l 0 -13.328 c 0 -3.332 0 -3.332 3.332 -3.332 Z" style="fill:#aaa;fill-opacity:0.941"/>
  <path d="M 3.199219 8 L 28.800781 8 C 32 8 32 8 32 11.199219 L 32 20.800781 C 32 24 32 24 28.800781 24 L 3.199219 24 C 0 24 0 24 0 20.800781 L 0 11.199219 C 0 8 0 8 3.199219 8 Z " style="fill:#ccc"/>
 </g>
 <path d="m 6 16 l 20 0 l 0 16 l -20 0 Z" style="fill:#dc322f"/>
 <path d="m 32 7 c 0 3.865 -3.135 7 -7 7 c -3.865 0 -7 -3.135 -7 -7 0 -3.865 3.135 -7 7 -7 3.865 0 7 3.135 7 7" style="fill:#5d5d5d;fill-opacity:1;fill-rule:evenodd"/>
 <path d="m 21 3.5 3 0 0 7 -3 0 z" style="fill:#fff;fill-opacity:0.902"/>
 <path d="m 26 3.5 3 0 0 7 -3 0 z" style="fill:#fff;fill-opacity:0.902"/>
</svg>
