<svg xmlns="http://www.w3.org/2000/svg" viewBox="0 0 32 32">
 <path d="m 30 0 0 32 -28 0 0 -32" style="fill:#dc322f"/>
 <path d="m 20.44 22.434 c 0.708 -2.547 0.726 -6.071 -0.539 -7.811 -0.532 -0.824 -1.258 -1.909 -0.688 -2.896 1.051 -1.54 2.802 -2.371 4.398 -3.21 0.541 -0.055 0.345 -0.565 0.38 -0.938 0.002 -0.299 0.09 -0.688 -0.343 -0.549 l -15.296 0 c -0.433 -0.138 -0.345 0.25 -0.343 0.549 0.035 0.374 -0.161 0.883 0.383 0.938 1.594 0.839 3.347 1.67 4.396 3.21 0.57 0.987 -0.156 2.072 -0.688 2.896 -1.335 1.894 -1.509 6.01 -0.534 7.868 0.88 1.608 1.768 2.448 4.435 2.509 2.672 -0.108 3.556 -0.901 4.44 -2.566 z" style="fill:#fff;fill-opacity:0.902"/>
</svg>
