<svg xmlns="http://www.w3.org/2000/svg" viewBox="0 0 32 32">
 <path d="m 28 10 l 0 18.855 c 0 3.145 0 3.145 -3.43 3.145 l -17.14 0 c -3.43 0 -3.43 0 -3.43 -3.145 l 0 -18.855 c 6.855 0 18.855 0 24 0 Z" style="fill:#dc322f"/>
 <g style="fill:#fff;fill-opacity:0.667">
  <path d="m 6 14 l 0 14 l 4 0 l 0 -14 Z"/>
  <path d="m 14 14 l 0 14 l 4 0 l 0 -14 Z"/>
  <path d="m 22 14 l 0 14 l 4 0 l 0 -14 Z"/>
 </g>
 <path d="m 4 8 l 24 0 l 0 -4 l -6 0 l 0 -4 l -12 0 l 0 4 l -6 0 Z" style="fill:#dc322f"/>
 <path d="m 24.4 31.949 c 0.913 -0.383 1.711 -0.823 2.386 -1.319 6.653 -5.224 2.116 -13.01 -5.782 -13.01 l 0 -4.502 l -9 6.755 l 9 7.88 0 -4.502 c 6.773 1.137 6.796 2.16 3.407 7.868 0 0 -1.125 1.137 0 0.835 z" style="fill:#859900;fill-opacity:1"/>
</svg>
