<svg xmlns="http://www.w3.org/2000/svg" viewBox="0 0 32 32">
 <path d="m 7.506 14.5 -1.751 5.254 -5.255 1.752 5.255 1.74 1.751 5.254 1.751 -5.254 5.243 -1.74 -5.243 -1.752 m -1.751 -5.254" style="fill:#e2b854;fill-opacity:1;stroke:none;fill-rule:nonzero"/>
 <path d="m 25.5 7.5 -1.5 4.498 -4.5 1.506 4.5 1.499 1.5 4.498 1.5 -4.498 4.5 -1.499 -4.5 -1.506 m -1.5 -4.498" style="fill:#e2b854;fill-opacity:1;stroke:none;fill-rule:nonzero"/>
 <path d="m 19.5 1 -1.127 3.37 -3.373 1.126 3.373 1.126 1.127 3.378 1.127 -3.378 3.373 -1.126 -3.373 -1.126 m -1.127 -3.37" style="fill:#e2b854;fill-opacity:1;stroke:none;fill-rule:nonzero"/>
 <g transform="matrix(0.88859154,1.2804685,-1.2690402,0.89659371,41.723621,4.8812522)">
  <path d="m -7.9 16 c -0.73 -0.001 -2.102 0.448 -2.101 1.6 c 0.001 1.183 1.37 1.6 2.101 1.6 l 14.801 0 c 0.886 0 1.6 -0.713 1.6 -1.6 0 -0.886 -0.713 -1.6 -1.6 -1.6 z" style="fill:#5c6982;opacity:1;fill-opacity:1;stroke:none"/>
  <path d="m -13.4 16 c -0.886 0 -1.6 0.713 -1.6 1.6 c 0 0.886 0.713 1.6 1.6 1.6 l 5.5 0 c -0.558 0 -1.1 -0.737 -1.1 -1.6 0 -0.863 0.557 -1.6 1.1 -1.599" style="fill:#c59da1;opacity:1;fill-opacity:1;stroke:none"/>
 </g>
</svg>
