<svg xmlns="http://www.w3.org/2000/svg" viewBox="0 0 32 32">
 <g transform="matrix(1.5238095,0,0,1.5238095,-2.2857142,-2.2857137)">
  <path d="m 22.5 12 c 0 5.797 -4.702 10.5 -10.5 10.5 -5.797 0 -10.5 -4.702 -10.5 -10.5 0 -5.797 4.702 -10.5 10.5 -10.5 c 5.797 0 10.5 4.702 10.5 10.5 m 0 0" style="fill:#e2727f;fill-opacity:1;stroke:none;fill-rule:nonzero"/>
  <path d="m 17.578 12 c 0 3.078 -2.497 5.576 -5.578 5.576 -3.081 0 -5.578 -2.498 -5.578 -5.576 0 -3.083 2.497 -5.58 5.578 -5.58 3.081 0 5.578 2.498 5.578 5.58 m 0 0" style="fill:#dc322f;fill-opacity:1;stroke:none;fill-rule:nonzero"/>
  <path d="m 16.397 9.802 c 0 1.215 -0.984 2.198 -2.198 2.198 c -1.215 0 -2.198 -0.984 -2.198 -2.198 c 0 -1.215 0.984 -2.198 2.198 -2.198 1.215 0 2.198 0.984 2.198 2.198 m 0 0" style="fill:#ef9999;fill-opacity:1;stroke:none;fill-rule:nonzero"/>
 </g>
</svg>
