<svg xmlns="http://www.w3.org/2000/svg" viewBox="0 0 32 32">
 <path d="m 7.324 4.563 c -1.258 4.527 -1.289 10.793 0.957 13.887 c 0.945 1.465 2.234 3.395 1.223 5.148 c -1.867 2.738 -4.977 4.215 -7.813 5.707 c -0.961 0.098 -0.613 1 -0.676 1.668 c -0.004 0.531 -0.16 1.223 0.609 0.977 l 27.17 0 c 0.77 0.246 0.613 -0.445 0.609 -0.977 c -0.063 -0.664 0.285 -1.57 -0.68 -1.668 c -2.832 -1.492 -5.945 -2.969 -7.809 -5.707 c -1.012 -1.754 0.277 -3.684 1.223 -5.148 c 2.371 -3.367 2.68 -10.688 0.949 -13.988 c -1.563 -2.859 -3.141 -4.352 -7.879 -4.461 c -4.746 0.191 -6.316 1.602 -7.887 4.563 Z" style="fill:#6c71c4"/>
 <path d="m 16 22 16 0 0 6 -16 0 z" style="fill:#dc322f"/>
</svg>
