<svg width="32" xmlns="http://www.w3.org/2000/svg" height="32" viewBox="0 0 32 32" xmlns:xlink="http://www.w3.org/1999/xlink">
<path style="fill:#dc322f" d="M 0 6 L 0 2 L 2 2 L 2 0 L 6 0 L 6 2 L 10 2 L 10 0 L 14 0 L 14 2 L 18 2 L 18 0 L 22 0 L 22 2 L 26 2 L 26 0 L 30 0 L 30 2 L 32 2 L 32 6 C 30.667969 6 31.332031 6 30 6 L 30 10 L 32 10 L 32 14 L 30 14 L 30 18 L 32 18 L 32 22 L 30 22 L 30 26 L 32 26 L 32 30 L 30 30 L 30 32 L 26 32 L 26 30 L 22 30 L 22 32 L 18 32 L 18 30 L 14 30 L 14 32 L 10 32 L 10 30 L 6 30 L 6 32 L 2 32 L 2 30 L 0 30 L 0 26 L 2 26 L 2 22 L 0 22 L 0 18 L 2 18 L 2 14 L 0 14 L 0 10 L 2 10 L 2 6 Z "/>
<path style="fill:#fff;fill-opacity:.902" d="M 6 6 L 26 6 L 26 26 L 6 26 Z "/>
<path style="fill:#dc322f" d="M 10 10 C 12 10 14 10 14 12.75 C 16 10 22 10 22 10 C 20 12 18 16 18 18 L 22 20 C 22 20 20 22 18 22 C 12 22 10 18 10 10 Z "/>
</svg>
