<svg width="32" xmlns="http://www.w3.org/2000/svg" height="32" viewBox="0 0 32 32" xmlns:xlink="http://www.w3.org/1999/xlink">
<path style="fill:#268bd2" d="M 2.371094 32 L 29.628906 32 C 32 32 32 32 32 29.714844 L 32 10 L 16 0 L 0 10 L 0 29.714844 C 0 32 0 32 2.371094 32 Z "/>
<path style="fill:#000;fill-opacity:.102" d="M 2.371094 32 L 29.628906 32 C 32 32 32 32 32 29.714844 L 32 10 L 16 0 L 0 10 L 0 29.714844 C 0 32 0 32 2.371094 32 Z "/>
<path style="fill:#fff" d="M 4 4 L 4 28 L 28 28 L 28 4 Z "/>
<g style="fill:#268bd2">
<path d="M 2 32 L 30 32 C 32 32 32 32 32 30 L 32 12 L 0 30 C 0 32 0 32 2 32 Z "/>
<path d="M 30 32 L 2 32 C 0 32 0 32 0 30 L 0 12 L 32 30 C 32 32 32 32 30 32 Z "/>
</g>
<path style="fill:#fff;fill-opacity:.102" d="M 29.628906 32 L 2.371094 32 C 0 32 0 32 0 29.753906 L 0 12 L 32 29.753906 C 32 32 32 32 29.628906 32 Z "/>
<path style="fill:#cb4b16;fill-rule:evenodd" d="M 28.453125 9.039062 C 29.949219 15.5 29.542969 14.699219 23.980469 11.972656 C 18.136719 14.941406 18.339844 15.191406 19.542969 8.976562 C 14.289062 4.601562 14.890625 4.996094 21.273438 4.191406 C 24.148438 -1.605469 23.90625 -1.195312 26.78125 4.226562 C 33.515625 4.976562 33.355469 4.71875 28.453125 9.039062 Z "/>
</svg>
