<svg width="32" xmlns="http://www.w3.org/2000/svg" height="32" viewBox="0 0 32 32" xmlns:xlink="http://www.w3.org/1999/xlink">
<path style="fill:#268bd2" d="M 2 8 C 0 8 0 8 0 10 L 0 30 C 0 32 0 32 2 32 L 30 32 C 32 32 32 32 32 30 C 32 23.5625 32 13.71875 32 10 C 32 8 32 8 30 8 Z "/>
<g style="fill-opacity:.102">
<path style="fill:#fff" d="M 0.875 8.015625 C 0.03125 8.109375 0 8.511719 0 10.011719 L 16 20 L 32 10.011719 C 32 8.015625 32 8.015625 30 8.015625 L 2 8.015625 C 1.5 8.015625 1.15625 7.984375 0.875 8.015625 Z "/>
<path style="fill:#000" d="M 32 10 L 16 20 L 32 30 Z "/>
</g>
<path style="fill:#f27d0c" d="M 14 6 C 10 24 18 22 26 28 C 28 24 26 24 26 22 C 26 22 28 20 30 24 C 30 22 36 12 26 4 C 25.9375 7.898438 24 8 24 8 C 22 6 22 6 22 4 C 22 2.214844 22.296875 -0.296875 22 0 C 19.28125 2.71875 18 5.808594 18 8 L 18 10 C 18 10 16 10 14 6 Z "/>
</svg>
