<svg xmlns="http://www.w3.org/2000/svg" viewBox="0 0 32 32">
 <path d="M 2.371094 32 L 29.628906 32 C 32 32 32 32 32 29.714844 L 32 10 L 16 0 L 0 10 L 0 29.714844 C 0 32 0 32 2.371094 32 Z " style="fill:#268bd2"/>
 <path d="M 2.371094 32 L 29.628906 32 C 32 32 32 32 32 29.714844 L 32 10 L 16 0 L 0 10 L 0 29.714844 C 0 32 0 32 2.371094 32 Z " style="fill:#000;fill-opacity:0.102"/>
 <path d="m 4 4 l 0 24 l 24 0 l 0 -24 Z" style="fill:#fff"/>
 <g style="fill:#268bd2">
  <path d="m 2 32 l 28 0 c 2 0 2 0 2 -2 l 0 -18 l -32 18 c 0 2 0 2 2 2 Z"/>
  <path d="m 30 32 l -28 0 c -2 0 -2 0 -2 -2 l 0 -18 l 32 18 c 0 2 0 2 -2 2 Z"/>
 </g>
 <path d="M 29.628906 32 L 2.371094 32 C 0 32 0 32 0 29.753906 L 0 12 L 32 29.753906 C 32 32 32 32 29.628906 32 Z " style="fill:#fff;fill-opacity:0.102"/>
 <path d="m 20.589 15.555 c -0.21 0 -0.514 0.187 -0.888 0.561 l -7.477 5.982 c -1.501 1.501 -1.495 1.495 0 2.991 l 7.477 5.982 c 1.122 1.122 1.425 0.561 1.495 -1.682 0.023 -0.748 0 -1.682 0 -2.804 0.015 0 0.032 0 0.047 0 7.431 0 10.422 -4.486 10.375 -10.515 -2.944 3.038 -5.935 4.533 -10.422 4.44 0 -1.072 0.023 -1.989 0 -2.711 -0.047 -1.495 -0.187 -2.243 -0.608 -2.243 z" style="fill:#859900;fill-rule:evenodd"/>
</svg>
