<svg width="32" xmlns="http://www.w3.org/2000/svg" height="32" viewBox="0 0 32 32" xmlns:xlink="http://www.w3.org/1999/xlink">
<path style="fill:#859900;fill-rule:evenodd" d="M 17.1875 5.25 C 16.90625 5.25 16.5 5.5 16 6 L 6 14 C 3.992188 16.007812 4 16 6 18 L 16 26 C 17.5 27.5 17.90625 26.75 18 23.75 C 18.03125 22.75 18 21.5 18 20 C 18.019531 20 18.042969 20 18.0625 20 C 28 20 32 14 31.9375 5.9375 C 28 10 24 12 18 11.875 C 18 10.441406 18.03125 9.214844 18 8.25 C 17.9375 6.25 17.75 5.25 17.1875 5.25 Z "/>
</svg>
