<!-- Created with Inkscape (http://www.inkscape.org/) -->
<svg xmlns="http://www.w3.org/2000/svg" viewBox="0 0 32 32">
 <path d="m 16 13.5 c 1.38 0 2.5 1.122 2.5 2.5 0 1.38 -1.122 2.5 -2.5 2.5 -1.38 0 -2.5 -1.122 -2.5 -2.5 0 -1.38 1.122 -2.5 2.5 -2.5 z" style="stroke-dasharray:none;stroke-opacity:1;fill:none;stroke-miterlimit:4;fill-opacity:1;stroke:#888;stroke-linejoin:round;stroke-width:1"/>
 <path d="m 16 2.75 c -7.347 0 -13.25 5.906 -13.25 13.25 0 7.347 5.906 13.25 13.25 13.25 7.347 0 13.25 -5.906 13.25 -13.25 0 -7.347 -5.906 -13.25 -13.25 -13.25 m 0 7.95 c 2.919 0 5.3 2.381 5.3 5.3 0 2.919 -2.381 5.3 -5.3 5.3 -2.919 0 -5.3 -2.381 -5.3 -5.3 0 -2.919 2.381 -5.3 5.3 -5.3 z" style="fill:#d1d1d1;fill-opacity:1;stroke:none"/>
 <circle cx="16" cy="16" r="13.481" style="stroke-dasharray:none;stroke-opacity:1;fill:none;opacity:1;stroke-miterlimit:4;fill-opacity:1;stroke:#888;fill-rule:nonzero;stroke-linecap:butt;stroke-linejoin:round;stroke-width:1.037;stroke-dashoffset:0"/>
 <circle cy="16" cx="16" r="5.5" style="stroke-dasharray:none;stroke-opacity:1;fill:none;opacity:1;stroke-miterlimit:4;fill-opacity:1;stroke:#888;fill-rule:nonzero;stroke-linecap:butt;stroke-linejoin:round;stroke-width:1;stroke-dashoffset:0"/>
 <path d="m 30 24 -5.5 6 -5.5 -6 3 0 0 -6 5 0 0 6 z" style="fill:#859900;fill-opacity:1;stroke:none"/>
</svg>
