<svg viewBox="0 0 32 32" xmlns="http://www.w3.org/2000/svg">
 <rect y="8" x="6" height="15.5" width="1" style="fill:#3daee9;opacity:1;fill-opacity:1;stroke:none;fill-rule:nonzero"/>
 <rect y="-24" x="6" height="15.5" width="1" style="fill:#3daee9;opacity:1;fill-opacity:1;stroke:none;fill-rule:nonzero" transform="matrix(0 1 -1 0 0 0)"/>
 <circle style="stroke-dasharray:none;stroke-opacity:1;fill:none;opacity:1;stroke-miterlimit:4;stroke:#313131;stroke-linecap:butt;stroke-linejoin:round;stroke-width:2;stroke-dashoffset:0" r="2" cy="6" cx="6"/>
 <rect y="-18" x="-26" height="9.5" width="1" style="fill:#3daee9;opacity:1;fill-opacity:1;stroke:none;fill-rule:nonzero" transform="matrix(-1 0 0 -1 0 0)"/>
 <rect y="4" x="24" height="4" width="4" style="stroke-dasharray:none;stroke-opacity:1;fill:none;opacity:1;stroke-miterlimit:4;stroke:#313131;stroke-linecap:butt;stroke-linejoin:miter;stroke-width:2;stroke-dashoffset:0"/>
 <rect y="-18" x="25" height="9.5" width="1" style="fill:#3daee9;opacity:1;fill-opacity:1;stroke:none;fill-rule:nonzero" transform="matrix(0 1 -1 0 0 0)"/>
 <rect y="24" x="4" height="4" width="4" style="stroke-dasharray:none;stroke-opacity:1;fill:none;opacity:1;stroke-miterlimit:4;stroke:#313131;stroke-linecap:butt;stroke-linejoin:miter;stroke-width:2;stroke-dashoffset:0"/>
 <path d="m 30.657 27.828 -2.828 -2.828 2.828 -2.828 -2.828 -2.828 -2.828 2.828 -2.828 -2.828 -2.828 2.828 2.828 2.828 -2.828 2.828 2.828 2.828 2.828 -2.828 l 2.828 2.828 z" style="fill:#dc322f;fill-opacity:1"/>
</svg>
