<svg xmlns="http://www.w3.org/2000/svg" viewBox="0 0 32 32">
 <rect x="6" height="15.5" style="fill:#3daee9;opacity:1;fill-opacity:1;stroke:none;fill-rule:nonzero" width="1" y="8"/>
 <rect x="6" height="15.5" style="fill:#3daee9;opacity:1;fill-opacity:1;stroke:none;fill-rule:nonzero" width="1" y="-24" transform="matrix(0 1 -1 0 0 0)"/>
 <circle cy="6" cx="6" style="stroke-dasharray:none;stroke-opacity:1;fill:none;opacity:1;stroke-miterlimit:4;stroke:#313131;stroke-linecap:butt;stroke-linejoin:round;stroke-width:2;stroke-dashoffset:0" r="2"/>
 <rect x="-26" height="9.5" style="fill:#3daee9;opacity:1;fill-opacity:1;stroke:none;fill-rule:nonzero" width="1" y="-18" transform="matrix(-1 0 0 -1 0 0)"/>
 <rect x="24" height="4" style="stroke-dasharray:none;stroke-opacity:1;fill:none;opacity:1;stroke-miterlimit:4;stroke:#313131;stroke-linecap:butt;stroke-linejoin:miter;stroke-width:2;stroke-dashoffset:0" width="4" y="4"/>
 <rect x="25" height="9.5" style="fill:#3daee9;opacity:1;fill-opacity:1;stroke:none;fill-rule:nonzero" width="1" transform="matrix(0 1 -1 0 0 0)" y="-18"/>
 <rect x="4" height="4" style="stroke-dasharray:none;stroke-opacity:1;fill:none;opacity:1;stroke-miterlimit:4;stroke:#313131;stroke-linecap:butt;stroke-linejoin:miter;stroke-width:2;stroke-dashoffset:0" width="4" y="24"/>
 <path style="fill:#859900" d="m 31 23 -4 0 0 -4 -4 0 0 4 -4 0 0 4 4 0 0 4 4 0 0 -4 4 0 z"/>
</svg>
