<svg xmlns="http://www.w3.org/2000/svg" viewBox="0 0 32 32">
 <rect width="1" style="fill:#3daee9;opacity:1;fill-opacity:1;stroke:none;fill-rule:nonzero" x="-26" height="4.5" y="8.5" transform="matrix(0 -1 1 0 0 0)"/>
 <path d="m 16 18 4 -4 -8 0 z" style="fill:#cb4b16"/>
 <rect width="3" style="stroke-dasharray:none;stroke-opacity:1;fill:none;opacity:1;stroke-miterlimit:4;stroke:#313131;stroke-linecap:butt;stroke-linejoin:miter;stroke-width:2;stroke-dashoffset:0" height="3" x="5" y="24"/>
 <rect width="1" style="fill:#3daee9;opacity:1;fill-opacity:1;stroke:none;fill-rule:nonzero" height="4.5" x="-26" y="-23.5" transform="matrix(0 -1 -1 0 0 0)"/>
 <rect height="3" width="3" x="-27" y="24" style="stroke-dasharray:none;stroke-opacity:1;fill:none;opacity:1;stroke-miterlimit:4;stroke:#313131;stroke-linecap:butt;stroke-linejoin:miter;stroke-width:2;stroke-dashoffset:0" transform="matrix(-1 0 0 1 0 0)"/>
 <rect width="1" style="fill:#3daee9;opacity:1;fill-opacity:1;stroke:none;fill-rule:nonzero" height="15" x="-7" y="8.5" transform="matrix(0 -1 1 0 0 0)"/>
 <rect width="3" style="stroke-dasharray:none;stroke-opacity:1;fill:none;opacity:1;stroke-miterlimit:4;stroke:#313131;stroke-linecap:butt;stroke-linejoin:miter;stroke-width:2;stroke-dashoffset:0" height="3" x="5" y="5"/>
 <rect height="3" width="3" x="-27" y="5" style="stroke-dasharray:none;stroke-opacity:1;fill:none;opacity:1;stroke-miterlimit:4;stroke:#313131;stroke-linecap:butt;stroke-linejoin:miter;stroke-width:2;stroke-dashoffset:0" transform="matrix(-1 0 0 1 0 0)"/>
</svg>
