<svg xmlns="http://www.w3.org/2000/svg" viewBox="0 0 32 32">
 <rect rx="4" y="2" x="4" height="28" width="24" style="fill:#e5e1c7;opacity:1;fill-opacity:1;stroke:none"/>
 <rect width="20" height="24" x="6" y="4" rx="2" style="fill:#eae7d1;opacity:1;fill-opacity:1;stroke:none"/>
 <rect width="2" height="6" x="8" rx="1" style="fill:#999;opacity:1;fill-opacity:1;stroke:none"/>
 <rect rx="1" x="12" height="6" width="2" style="fill:#999;opacity:1;fill-opacity:1;stroke:none"/>
 <rect rx="1" x="18" height="6" width="2" style="fill:#999;opacity:1;fill-opacity:1;stroke:none"/>
 <rect width="2" height="6" x="22" rx="1" style="fill:#999;opacity:1;fill-opacity:1;stroke:none"/>
 <rect width="16" height="2" x="8" y="10" style="fill:#999;opacity:1;fill-opacity:1;stroke:none"/>
 <rect y="14" x="8" height="2" width="16" style="fill:#999;opacity:1;fill-opacity:1;stroke:none"/>
 <rect width="16" height="2" x="8" y="18" style="fill:#999;opacity:1;fill-opacity:1;stroke:none"/>
 <rect y="22" x="8" height="2" width="16" style="fill:#999;opacity:1;fill-opacity:1;stroke:none"/>
 <path d="m 32 18 -6 0 0 -6 -6 0 0 6 l -6 0 l 0 6 6 0 0 6 l 6 0 l 0 -6 6 0 z" style="fill:#859900"/>
</svg>
