<svg width="32" xmlns="http://www.w3.org/2000/svg" height="32" viewBox="0 0 32 32" xmlns:xlink="http://www.w3.org/1999/xlink">
<path style="fill:#c19553" d="M 2 0 C 1.128906 0 0 1.128906 0 2 L 0 28 C 0 28.824219 1.175781 30 2 30 L 28 30 C 28.824219 30 30 28.824219 30 28 L 30 2 C 30 1.175781 28.824219 0 28 0 Z "/>
<g style="fill:#fff">
<path style="fill-opacity:.196" d="M 2 0 C 1.128906 0 0 1.128906 0 2 L 0 10 C 3.386719 10 26.613281 10 30 10 L 30 2 C 30 1.175781 28.824219 0 28 0 Z "/>
<path style="fill-opacity:.392" d="M 12 4 L 12 16 L 18 16 L 18 4 Z "/>
</g>
<path style="fill:#859900" d="M 22.855469 32 L 32 24 L 26 24 L 26 14 L 20 14 L 20 24 L 14 24 Z "/>
</svg>
