<svg xmlns="http://www.w3.org/2000/svg" viewBox="0 0 32 32">
 <path d="m 2 0 c -0.871 0 -2 1.129 -2 2 l 0 26 c 0 0.824 1.176 2 2 2 l 26 0 c 0.824 0 2 -1.176 2 -2 l 0 -26 c 0 -0.824 -1.176 -2 -2 -2 Z" style="fill:#c19553"/>
 <g style="fill:#fff">
  <path d="m 2 0 c -0.871 0 -2 1.129 -2 2 l 0 8 c 3.387 0 26.613 0 30 0 l 0 -8 c 0 -0.824 -1.176 -2 -2 -2 Z" style="fill-opacity:0.196"/>
  <path d="m 12 4 l 0 12 l 6 0 l 0 -12 Z" style="fill-opacity:0.392"/>
 </g>
 <path d="m 32 25 a 7 7 0 0 1 -14 0 7 7 0 1 1 14 0 z" style="fill:#dc322f;fill-opacity:1;fill-rule:evenodd"/>
 <g transform="matrix(-1,0,0,-1,50,32.500005)">
  <g transform="matrix(0.5,0,0,1,19,-6)">
   <path d="m 14 18 -4 0 0 -6 4 0 0 6" style="fill:#fff;fill-opacity:0.9"/>
  </g>
  <g transform="matrix(0.49999884,0,0,0.49999884,18.999996,2.4968895e-5)" style="fill-rule:evenodd">
   <path transform="matrix(1.24868,0,0,1.15686,-2.44444,-0.82353)" d="m 13.169 7.627 c 0 0.955 -0.717 1.729 -1.602 1.729 -0.885 0 -1.602 -0.774 -1.602 -1.729 0 -0.955 0.717 -1.729 1.602 -1.729 0.885 0 1.602 0.774 1.602 1.729 z" style="fill:#fff;fill-opacity:0.9"/>
  </g>
 </g>
</svg>
