<svg xmlns="http://www.w3.org/2000/svg" viewBox="0 0 32 32">
 <path d="m 2 0 c -0.871 0 -2 1.129 -2 2 l 0 26 c 0 0.824 1.176 2 2 2 l 26 0 c 0.824 0 2 -1.176 2 -2 l 0 -26 c 0 -0.824 -1.176 -2 -2 -2 Z" style="fill:#c19553"/>
 <g style="fill:#fff">
  <path d="m 2 0 c -0.871 0 -2 1.129 -2 2 l 0 8 c 3.387 0 26.613 0 30 0 l 0 -8 c 0 -0.824 -1.176 -2 -2 -2 Z" style="fill-opacity:0.196"/>
  <path d="m 12 4 l 0 12 l 6 0 l 0 -12 Z" style="fill-opacity:0.392"/>
 </g>
 <path d="m 31.977 23.975 c 0 4.431 -3.592 8.02 -8.02 8.02 -4.431 0 -8.02 -3.59 -8.02 -8.02 0 -4.433 3.592 -8.02 8.02 -8.02 4.431 0 8.02 3.592 8.02 8.02 z" style="fill:#859900;fill-rule:evenodd"/>
 <g transform="matrix(0.50143395,0,0,0.50143395,15.930676,15.950208)" style="fill:#fff;fill-opacity:0.902">
  <path d="m 25.746 12.01 c -1.691 -3.66 -5.469 -6.01 -9.723 -6.01 -4.355 0 -8.336 2.574 -9.902 6.398 l 3.301 1.203 c 1.043 -2.555 3.695 -4.266 6.602 -4.266 2.801 0 5.277 1.531 6.426 3.914 l -2.41 0.906 6.156 3.348 1.801 -6.34 z"/>
  <path d="m 16.02 22.668 c -2.777 0 -5.309 -1.578 -6.441 -3.945 l 2.375 -0.867 l -6.094 -3.273 -1.863 6.172 2.27 -0.828 c 1.66 3.648 5.523 6.078 9.754 6.078 4.367 0 8.238 -2.473 9.855 -6.297 l -3.285 -1.234 c -1.078 2.547 -3.656 4.195 -6.57 4.195 z"/>
 </g>
</svg>
