<svg xmlns="http://www.w3.org/2000/svg" viewBox="0 0 32 32">
 <path d="m 2 0 c -0.871 0 -2 1.129 -2 2 l 0 26 c 0 0.824 1.176 2 2 2 l 26 0 c 0.824 0 2 -1.176 2 -2 l 0 -26 c 0 -0.824 -1.176 -2 -2 -2 Z" style="fill:#c19553"/>
 <g style="fill:#fff">
  <path d="m 2 0 c -0.871 0 -2 1.129 -2 2 l 0 8 c 3.387 0 26.613 0 30 0 l 0 -8 c 0 -0.824 -1.176 -2 -2 -2 Z" style="fill-opacity:0.196"/>
  <path d="m 12 4 l 0 12 l 6 0 l 0 -12 Z" style="fill-opacity:0.392"/>
 </g>
 <g transform="matrix(0.5,0,0,0.5,17,16)">
  <path d="m 16 0 c 0 0 10 0.02 10.01 7.094 l 0 6.109 c 0 0 3.988 0 3.988 1.605 l 0 14.645 c 0 1.348 -1.43 2.547 -3 2.547 l -22 0 c -1.57 0 -3 -1.199 -3 -2.547 l 0 -14.645 c 0 -1.605 4.04 -1.617 4.04 -1.617 l -0.125 -6.098 c 0.082 -7.086 10.08 -7.094 10.08 -7.094 m 0 3.551 c 0 0 -6 0 -6 5.313 l 0 4.34 12 0 0 -4.34 c 0 -5.313 -6 -5.313 -6 -5.313 z" style="fill:#268bd2"/>
  <path d="m 16 18 c -2.211 0 -4 1.789 -4 4 0 1.48 0.805 2.746 2 3.438 l 0 4.563 l 4 0 0 -4.563 c 1.195 -0.691 2 -1.957 2 -3.438 0 -2.211 -1.789 -4 -4 -4" style="fill:#000;fill-opacity:0.102;fill-rule:evenodd"/>
 </g>
</svg>
