
<!-- Creator: CorelDRAW -->
<svg style="shape-rendering:geometricPrecision;image-rendering:optimizeQuality;text-rendering:geometricPrecision;fill-rule:evenodd" height="32" xmlns="http://www.w3.org/2000/svg" width="32" viewBox="0 0 9.0311105 9.0311105">
 <g style="fill:#535353;fill-opacity:1" transform="matrix(0.25701 0 0 0.25007 -2.536 -0.764)">
  <path style="fill-rule:nonzero" d="m 29.631 26.755 -4.392 0 c -0.012 -0.641 -0.018 -1.027 -0.018 -1.169 0 -1.437 0.235 -2.618 0.706 -3.544 0.47 -0.932 1.417 -1.971 2.828 -3.134 1.411 -1.158 2.258 -1.917 2.528 -2.28 0.429 -0.564 0.641 -1.193 0.641 -1.876 0 -0.95 -0.376 -1.763 -1.129 -2.446 -0.753 -0.677 -1.764 -1.015 -3.04 -1.015 -1.229 0 -2.258 0.356 -3.087 1.063 -0.823 0.706 -1.393 1.787 -1.705 3.235 l -4.439 -0.558 c 0.123 -2.078 1 -3.841 2.622 -5.289 1.629 -1.448 3.757 -2.173 6.403 -2.173 2.775 0 4.986 0.736 6.632 2.202 1.64 1.466 2.463 3.17 2.463 5.123 0 1.074 -0.306 2.095 -0.905 3.057 -0.606 0.962 -1.893 2.274 -3.869 3.93 -1.023 0.861 -1.658 1.549 -1.905 2.072 -0.247 0.522 -0.359 1.454 -0.335 2.802 z"/>
 </g>
 <rect y="6.773" style="fill:#535353;opacity:1;fill-opacity:1;stroke:none;fill-rule:nonzero" x="3.951" height="1.129" width="1.129"/>
</svg>
