<svg width="32" xmlns="http://www.w3.org/2000/svg" height="32" viewBox="0 0 32 32" xmlns:xlink="http://www.w3.org/1999/xlink">
<g style="fill-rule:evenodd">
<path style="fill:#dc322f" d="M 32 16.003906 C 32 24.839844 24.835938 32 16 32 C 7.164062 32 0 24.839844 0 16.003906 C 0 7.164062 7.164062 0 16 0 C 24.835938 0 32 7.164062 32 16.003906 Z "/>
<path style="fill:#fff;fill-opacity:.902" d="M 8.007812 8 L 8.007812 10.667969 C 7.949219 11.414062 8.199219 12.179688 8.761719 12.695312 L 12.179688 16.058594 L 8.761719 19.421875 C 8.261719 19.921875 8.007812 20.628906 8.007812 21.332031 L 8.007812 24 L 10.671875 24 C 11.378906 24 12.085938 23.746094 12.585938 23.246094 L 16.003906 19.828125 L 19.421875 23.246094 C 19.921875 23.746094 20.628906 24 21.335938 24 L 24 24 L 24 21.332031 C 24 20.628906 23.746094 19.921875 23.246094 19.421875 L 19.886719 16.058594 L 23.304688 12.695312 C 23.878906 12.164062 24 11.429688 24 10.667969 L 24 8 L 21.335938 8 C 20.695312 8.019531 20.1875 8.257812 19.480469 8.871094 L 16.003906 12.230469 L 12.585938 8.871094 C 12.113281 8.378906 11.46875 8.03125 10.789062 8 C 10.761719 8 10.699219 8 10.671875 8 Z "/>
</g>
</svg>
