<svg xmlns="http://www.w3.org/2000/svg" viewBox="0 0 32 32">
 <path d="m 5.119 3.564 c -1.021 3.538 -1.043 8.433 0.774 10.847 0.764 1.147 1.807 2.654 0.991 4.02 -1.51 2.139 -4.03 3.293 -6.321 4.458 -0.562 0.327 -0.562 0.232 -0.562 1.306 0 0.801 0 0.801 0.507 0.801 l 21.987 0 c 0.507 0 0.507 0 0.507 -0.801 c 0 -1.074 0 -1.01 -0.562 -1.306 -2.293 -1.165 -4.812 -2.319 -6.321 -4.458 -0.816 -1.37 0.227 -2.876 0.991 -4.02 c 1.919 -2.627 2.169 -8.347 0.769 -10.925 -1.265 -2.236 -2.543 -3.401 -6.376 -3.486 -3.838 0.151 -5.111 1.25 -6.381 3.564" style="fill:#859900;fill-opacity:1"/>
 <path d="m 14.12 10.564 c -1.021 3.538 -1.043 8.433 0.774 10.847 0.764 1.147 1.807 2.654 0.991 4.02 c -1.51 2.139 -4.03 3.293 -6.321 4.458 -0.562 0.327 -0.562 0.232 -0.562 1.306 0 0.801 0 0.801 0.507 0.801 l 21.987 0 c 0.507 0 0.507 0 0.507 -0.801 0 -1.074 0 -1.01 -0.562 -1.306 -2.293 -1.165 -4.812 -2.319 -6.321 -4.458 -0.816 -1.37 0.227 -2.876 0.991 -4.02 1.919 -2.627 2.169 -8.347 0.769 -10.925 -1.265 -2.236 -2.543 -3.401 -6.376 -3.486 -3.838 0.151 -5.111 1.25 -6.381 3.564" style="fill:#6c71c4"/>
</svg>
