<svg xmlns="http://www.w3.org/2000/svg" viewBox="0 0 32 32">
 <g transform="matrix(1.25,0,0,-1.25,0,32)">
  <path d="m 9.6 8 6.4 0 0 -6.4 -6.4 0 0 6.4" style="fill:#2d2d2d;fill-opacity:1;stroke:none;fill-rule:nonzero"/>
  <path d="m 12.795 25.6 c -5.298 0 -9.595 -4.295 -9.595 -9.6 0 -5.295 4.297 -9.6 9.595 -9.6 5.308 0 9.605 4.305 9.605 9.6 c 0 5.305 -4.297 9.6 -9.605 9.6 z m 0 -5.437 c 2.299 0 4.165 -1.866 4.165 -4.163 0 -2.296 -1.867 -4.155 -4.165 -4.155 -2.297 0 -4.157 1.86 -4.157 4.155 0 2.298 1.861 4.163 4.157 4.163 z" style="fill:#888;fill-opacity:1;stroke:none;fill-rule:nonzero"/>
  <path d="m 6.58 2.558 c 0.18 0.857 12.26 0.857 12.44 0 c 0.18 -0.857 0.18 -2.558 0.18 -2.558 l -12.8 0 c 0 0 0 1.701 0.18 2.558 z" style="fill:#888;fill-opacity:1;stroke:none;fill-rule:nonzero"/>
  <path d="m 12.795 20.8 c -2.647 0 -4.795 -2.15 -4.795 -4.805 0 -2.647 2.148 -4.795 4.795 -4.795 2.657 0 4.805 2.148 4.805 4.795 0 2.655 -2.148 4.805 -4.805 4.805 m 0 -1.602 c 1.774 0 3.203 -1.438 3.203 -3.203 0 -1.766 -1.43 -3.193 -3.203 -3.193 -1.764 0 -3.193 1.428 -3.193 3.193 0 1.766 1.43 3.203 3.193 3.203 z" style="fill:#2d2d2d;fill-opacity:1;stroke:none;fill-rule:nonzero"/>
 </g>
</svg>
