<svg xmlns="http://www.w3.org/2000/svg" viewBox="0 0 32 32">
 <path d="m 26,6 c 2,0 2,0 2,2 l 0,20 c 0,2 0,2 -2,2 L 6,30 C 4,30 4,30 4,28 L 4,8 C 4,6 4,6 6,6" style="fill:#e6b07f;fill-opacity:1;stroke:none;fill-rule:evenodd"/>
 <path d="M 24,6 8,6 8,26 24,26" style="fill:#fff;fill-opacity:1;stroke:none;fill-rule:nonzero"/>
 <path d="m 10 2 0 6 12 0 0 -6" style="fill:#aaa;fill-opacity:1;stroke:none;fill-rule:nonzero"/>
 <path d="m 13 12 6 0 c 3 0 3 0 3 3 l 0 4 c 0 3 0 3 -3 3 -1.125 0 0.162 -0.009 -0.962 -0.009 0.376 0.321 0.725 0.795 0.529 1.315 -0.208 0.755 -1.298 0.943 -1.765 0.325 -0.871 -0.878 -1.354 -1.738 -2.202 -2.639 0.898 -0.95 1.429 -1.864 2.354 -2.787 0.608 -0.562 1.734 -0.058 1.686 0.78 0.02 0.435 -0.32 0.731 -0.603 1.01 1.256 -0.012 -0.292 0.054 0.962 0.009 1 0 1 0 1 -1 l 0 -4 c 0 -1 0 -1 -1 -1 l -6 0 c -1 0 -1 0 -1 1 l 0 4 c 0 1 0 1 1 1 l 0 0 c 1 0 1 0 1 1 0 1 0 1 -1 1 l 0 0 c -3 0 -3 0 -3 -3 l 0 -4 c 0 -3 0 -3 3 -3 z" style="fill:#868686;fill-opacity:1;color:#bebebe"/>
</svg>
