<svg xmlns="http://www.w3.org/2000/svg" viewBox="0 0 32 32">
 <g transform="matrix(1.3333333,0,0,1.3333333,-16,-15.333333)">
  <g>
   <!-- color: #d14040 -->
   <g>
    <path d="m 31.5,16 c 1.5,0 1.5,0 1.5,1.5 l 0,15 C 33,34 33,34 31.5,34 l -15,0 C 15,34 15,34 15,32.5 l 0,-15 C 15,16 15,16 16.5,16" style="fill:#e6b07f;fill-opacity:1;stroke:none;fill-rule:evenodd"/>
    <path d="m 30 16 -12 0 0 15 12 0" style="fill:#fff;fill-opacity:1;stroke:none;fill-rule:nonzero"/>
    <path d="m 19.5 13 0 4.5 9 0 0 -4.5" style="fill:#aaa;fill-opacity:1;stroke:none;fill-rule:nonzero"/>
    <path d="m 19.5 25 0 1.5 9 0 0 -1.5" style="fill:#868686;fill-opacity:1;stroke:none;fill-rule:nonzero"/>
    <path d="m 19.5 28 0 1.5 9 0 0 -1.5" style="fill:#868686;fill-opacity:1;stroke:none;fill-rule:nonzero"/>
   </g>
  </g>
 </g>
 <path d="m 10 10 0 2 l 12 0 0 -2" style="fill:#868686;fill-opacity:1;stroke:none;fill-rule:nonzero"/>
 <path d="m 10 14 0 2 l 12 0 0 -2" style="fill:#868686;fill-opacity:1;stroke:none;fill-rule:nonzero"/>
</svg>
