<svg xmlns="http://www.w3.org/2000/svg" viewBox="0 0 32 32">
 <path d="m 26,6 c 2,0 2,0 2,2 l 0,20 c 0,2 0,2 -2,2 L 6,30 C 4,30 4,30 4,28 L 4,8 C 4,6 4,6 6,6" style="fill:#e6b07f;fill-opacity:1;stroke:none;fill-rule:evenodd"/>
 <path d="M 24,6 8,6 8,26 24,26" style="fill:#fff;fill-opacity:1;stroke:none;fill-rule:nonzero"/>
 <path d="m 10 2 0 6 12 0 0 -6" style="fill:#aaa;fill-opacity:1;stroke:none;fill-rule:nonzero"/>
 <path d="m 14.263 17.498 6.122 -6.122 2.624 2.624 -8.746 8.746 c -1.794 -1.794 -3.454 -3.464 -5.248 -5.258 l 2.624 -2.613" style="fill:#888"/>
</svg>
