<svg xmlns="http://www.w3.org/2000/svg" viewBox="0 0 32 32">
 <path d="m 1.5 0 c -1.5 0 -1.5 0 -1.5 1.5 l 0 15 c 0 1.5 0 1.5 1.5 1.5 l 21 0 c 1.5 0 1.5 0 1.5 -1.5 0 -4.828 0 -12.211 0 -15 c 0 -1.5 0 -1.5 -1.5 -1.5" style="fill:#268bd2"/>
 <g transform="matrix(0.74999999,0,0,0.74999999,0,-6.0000001)" style="fill-opacity:0.102">
  <path d="m 0.875 8.02 c -0.844 0.094 -0.875 0.496 -0.875 1.996 l 16 9.988 16 -9.988 c 0 -1.996 0 -1.996 -2 -1.996 l -28 0 c -0.5 0 -0.844 -0.031 -1.125 0 z" style="fill:#fff"/>
  <path d="m 32 10 -16 10 16 10" style="fill:#000"/>
 </g>
 <path d="m 9.77832,32 20.44336,0 C 32,32 32,32 32,30.286133 L 32,15.5 20,8 8,15.5 8,30.286133 C 8,32 8,32 9.77832,32 Z" style="fill:#268bd2"/>
 <path d="m 9.77832,32 20.44336,0 C 32,32 32,32 32,30.286133 L 32,15.5 20,8 8,15.5 8,30.286133 C 8,32 8,32 9.77832,32 Z" style="fill:#000;fill-opacity:0.102"/>
 <path d="m 11 11 0 18 18 0 l 0 -18" style="fill:#fff"/>
 <g transform="matrix(0.75,0,0,0.75,8,8)" style="fill:#268bd2">
  <path d="m 2,32 28,0 c 2,0 2,0 2,-2 L 32,12 0,30 c 0,2 0,2 2,2 z"/>
  <path d="M 30,32 2,32 C 0,32 0,32 0,30 L 0,12 32,30 c 0,2 0,2 -2,2 z"/>
 </g>
 <path d="M 30.22168,32 9.77832,32 C 8,32 8,32 8,30.31543 L 8,17 32,30.31543 C 32,32 32,32 30.22168,32 Z" style="fill:#fff;fill-opacity:0.102"/>
</svg>
