<svg xmlns="http://www.w3.org/2000/svg" viewBox="0 0 32 32">
 <path d="m 13.5 28 0 -0.5 c 0 -7.785 6.215 -14 14 -14 l 0.5 0 0 -9 -0.5 0 c -12.649 0 -23 10.351 -23 23 l 0 0.5 z" style="visibility:visible;shape-rendering:auto;color-interpolation-filters:linearRGB;fill:#50b34a;opacity:0.4;image-rendering:auto;fill-opacity:1;text-rendering:auto;stroke:none;display:inline;color:#000;fill-rule:nonzero;color-rendering:auto;color-interpolation:sRGB"/>
 <path d="M -4.5 -27.5 A 23 22.999998 0 0 1 -27.499999 -4.500002" style="stroke-dasharray:none;stroke-opacity:1;fill:none;opacity:1;stroke-miterlimit:4;stroke:#50b34a;stroke-linecap:square;stroke-linejoin:round;stroke-width:1;stroke-dashoffset:0" transform="matrix(-1 0 0 -1 0 0)"/>
 <rect height="4" style="stroke-dasharray:none;stroke-opacity:1;fill:#fff;opacity:1;stroke-miterlimit:4;fill-opacity:1;stroke:#313131;fill-rule:nonzero;stroke-linecap:butt;stroke-linejoin:miter;stroke-width:2;stroke-dashoffset:0" width="4" y="3" x="18"/>
 <path d="m -13.5 -27.5 a 14 14 0 0 1 -14 14" style="stroke-dasharray:none;stroke-opacity:1;fill:none;opacity:1;stroke-miterlimit:4;stroke:#50b34a;stroke-linecap:square;stroke-linejoin:round;stroke-width:1;stroke-dashoffset:0" transform="matrix(-1 0 0 -1 0 0)"/>
 <rect height="4" style="stroke-dasharray:none;stroke-opacity:1;fill:#fff;opacity:1;stroke-miterlimit:4;fill-opacity:1;stroke:#313131;fill-rule:nonzero;stroke-linecap:butt;stroke-linejoin:miter;stroke-width:2;stroke-dashoffset:0" width="4" y="12" x="20"/>
 <rect height="4" style="stroke-dasharray:none;stroke-opacity:1;fill:#fff;opacity:1;stroke-miterlimit:4;fill-opacity:1;stroke:#313131;fill-rule:nonzero;stroke-linecap:butt;stroke-linejoin:miter;stroke-width:2;stroke-dashoffset:0" width="4" y="18" x="3"/>
 <rect height="4" style="stroke-dasharray:none;stroke-opacity:1;fill:#fff;opacity:1;stroke-miterlimit:4;fill-opacity:1;stroke:#313131;fill-rule:nonzero;stroke-linecap:butt;stroke-linejoin:miter;stroke-width:2;stroke-dashoffset:0" width="4" y="20" x="12"/>
</svg>
