<svg xmlns="http://www.w3.org/2000/svg" viewBox="0 0 32 32">
 <path d="m 16 2.996 c -1.708 0 -3.416 0.395 -4.957 1.186 c -3.081 1.581 -5.04 4.56 -5.04 7.818 l 0 1 l 0 17 l 2 0 l 0 -17 l 0 -1 c 0 -2.458 1.469 -4.762 3.957 -6.04 c 2.488 -1.277 5.598 -1.277 8.09 0 c 2.488 1.277 3.957 3.581 3.957 6.04 l 0 1 l 0 17 l 2 0 l 0 -17 l 0 -1 c 0 -3.258 -1.962 -6.237 -5.04 -7.818 c -1.541 -0.791 -3.249 -1.186 -4.957 -1.186 z" style="fill:#dc322f;fill-opacity:1;stroke:none;color:#f2f2f2"/>
 <path d="m 16 32 0 -18" style="stroke-dasharray:4 4;stroke-opacity:1;fill:none;stroke-miterlimit:4;stroke:#353535;stroke-linecap:butt;stroke-linejoin:miter;stroke-width:4;stroke-dashoffset:0"/>
</svg>
