<svg width="32" xmlns="http://www.w3.org/2000/svg" height="32" viewBox="0 0 32 32" xmlns:xlink="http://www.w3.org/1999/xlink">
<path style="fill:#888" d="M 22.875 0 C 22.609375 0 22.375 0.234375 22.375 0.5 L 22.375 1.75 C 21.78125 1.902344 21.265625 2.195312 20.75 2.5 L 19.8125 1.5 C 19.625 1.3125 19.3125 1.3125 19.125 1.5 L 17.5 3.125 C 17.3125 3.3125 17.3125 3.625 17.5 3.8125 L 18.5 4.75 C 18.195312 5.265625 17.902344 5.78125 17.75 6.375 L 16.5 6.375 C 16.234375 6.375 16 6.609375 16 6.875 L 16 9.125 C 16 9.390625 16.234375 9.625 16.5 9.625 L 17.75 9.625 C 17.902344 10.21875 18.195312 10.734375 18.5 11.25 L 17.5 12.1875 C 17.3125 12.375 17.3125 12.6875 17.5 12.875 L 19.125 14.5 C 19.3125 14.6875 19.625 14.6875 19.8125 14.5 L 20.75 13.5 C 21.265625 13.804688 21.78125 14.097656 22.375 14.25 L 22.375 15.5 C 22.375 15.765625 22.609375 16 22.875 16 L 25.125 16 C 25.390625 16 25.625 15.765625 25.625 15.5 L 25.625 14.25 C 26.21875 14.097656 26.734375 13.804688 27.25 13.5 L 28.1875 14.5 C 28.375 14.6875 28.6875 14.6875 28.875 14.5 L 30.5 12.875 C 30.6875 12.6875 30.6875 12.375 30.5 12.1875 L 29.5 11.25 C 29.804688 10.734375 30.097656 10.21875 30.25 9.625 L 31.5 9.625 C 31.765625 9.625 32 9.390625 32 9.125 L 32 6.875 C 32 6.609375 31.765625 6.375 31.5 6.375 L 30.25 6.375 C 30.097656 5.78125 29.804688 5.265625 29.5 4.75 L 30.5 3.8125 C 30.6875 3.625 30.6875 3.3125 30.5 3.125 L 28.875 1.5 C 28.6875 1.3125 28.375 1.3125 28.1875 1.5 L 27.25 2.5 C 26.734375 2.195312 26.21875 1.902344 25.625 1.75 L 25.625 0.5 C 25.625 0.234375 25.390625 0 25.125 0 Z M 24 6 C 25.105469 6 26 6.894531 26 8 C 26 9.105469 25.105469 10 24 10 C 22.894531 10 22 9.105469 22 8 C 22 6.894531 22.894531 6 24 6 Z "/>
<path style="fill:#000;fill-opacity:.102" d="M 22.875 0 C 22.609375 0 22.375 0.234375 22.375 0.5 L 22.375 1.75 C 21.78125 1.902344 21.265625 2.195312 20.75 2.5 L 19.8125 1.5 C 19.625 1.3125 19.3125 1.3125 19.125 1.5 L 17.5 3.125 C 17.3125 3.3125 17.3125 3.625 17.5 3.8125 L 18.5 4.75 C 18.195312 5.265625 17.902344 5.78125 17.75 6.375 L 16.5 6.375 C 16.234375 6.375 16 6.609375 16 6.875 L 16 9.125 C 16 9.390625 16.234375 9.625 16.5 9.625 L 17.75 9.625 C 17.902344 10.21875 18.195312 10.734375 18.5 11.25 L 17.5 12.1875 C 17.3125 12.375 17.3125 12.6875 17.5 12.875 L 19.125 14.5 C 19.3125 14.6875 19.625 14.6875 19.8125 14.5 L 20.75 13.5 C 21.265625 13.804688 21.78125 14.097656 22.375 14.25 L 22.375 15.5 C 22.375 15.765625 22.609375 16 22.875 16 L 25.125 16 C 25.390625 16 25.625 15.765625 25.625 15.5 L 25.625 14.25 C 26.21875 14.097656 26.734375 13.804688 27.25 13.5 L 28.1875 14.5 C 28.375 14.6875 28.6875 14.6875 28.875 14.5 L 30.5 12.875 C 30.6875 12.6875 30.6875 12.375 30.5 12.1875 L 29.5 11.25 C 29.804688 10.734375 30.097656 10.21875 30.25 9.625 L 31.5 9.625 C 31.765625 9.625 32 9.390625 32 9.125 L 32 6.875 C 32 6.609375 31.765625 6.375 31.5 6.375 L 30.25 6.375 C 30.097656 5.78125 29.804688 5.265625 29.5 4.75 L 30.5 3.8125 C 30.6875 3.625 30.6875 3.3125 30.5 3.125 L 28.875 1.5 C 28.6875 1.3125 28.375 1.3125 28.1875 1.5 L 27.25 2.5 C 26.734375 2.195312 26.21875 1.902344 25.625 1.75 L 25.625 0.5 C 25.625 0.234375 25.390625 0 25.125 0 Z M 24 6 C 25.105469 6 26 6.894531 26 8 C 26 9.105469 25.105469 10 24 10 C 22.894531 10 22 9.105469 22 8 C 22 6.894531 22.894531 6 24 6 Z "/>
<path style="fill:#888" d="M 6.875 8 C 6.609375 8 6.375 8.234375 6.375 8.5 L 6.375 9.75 C 5.78125 9.902344 5.265625 10.195312 4.75 10.5 L 3.8125 9.5 C 3.625 9.3125 3.3125 9.3125 3.125 9.5 L 1.5 11.125 C 1.3125 11.3125 1.3125 11.625 1.5 11.8125 L 2.5 12.75 C 2.195312 13.265625 1.902344 13.78125 1.75 14.375 L 0.5 14.375 C 0.234375 14.375 0 14.609375 0 14.875 L 0 17.125 C 0 17.390625 0.234375 17.625 0.5 17.625 L 1.75 17.625 C 1.902344 18.21875 2.195312 18.734375 2.5 19.25 L 1.5 20.1875 C 1.3125 20.375 1.3125 20.6875 1.5 20.875 L 3.125 22.5 C 3.3125 22.6875 3.625 22.6875 3.8125 22.5 L 4.75 21.5 C 5.265625 21.804688 5.78125 22.097656 6.375 22.25 L 6.375 23.5 C 6.375 23.765625 6.609375 24 6.875 24 L 9.125 24 C 9.390625 24 9.625 23.765625 9.625 23.5 L 9.625 22.25 C 10.21875 22.097656 10.734375 21.804688 11.25 21.5 L 12.1875 22.5 C 12.375 22.6875 12.6875 22.6875 12.875 22.5 L 14.5 20.875 C 14.6875 20.6875 14.6875 20.375 14.5 20.1875 L 13.5 19.25 C 13.804688 18.734375 14.097656 18.21875 14.25 17.625 L 15.5 17.625 C 15.765625 17.625 16 17.390625 16 17.125 L 16 14.875 C 16 14.609375 15.765625 14.375 15.5 14.375 L 14.25 14.375 C 14.097656 13.78125 13.804688 13.265625 13.5 12.75 L 14.5 11.8125 C 14.6875 11.625 14.6875 11.3125 14.5 11.125 L 12.875 9.5 C 12.6875 9.3125 12.375 9.3125 12.1875 9.5 L 11.25 10.5 C 10.734375 10.195312 10.21875 9.902344 9.625 9.75 L 9.625 8.5 C 9.625 8.234375 9.390625 8 9.125 8 Z M 8 14 C 9.105469 14 10 14.894531 10 16 C 10 17.105469 9.105469 18 8 18 C 6.894531 18 6 17.105469 6 16 C 6 14.894531 6.894531 14 8 14 Z "/>
<path style="fill:#000;fill-opacity:.102" d="M 6.875 8 C 6.609375 8 6.375 8.234375 6.375 8.5 L 6.375 9.75 C 5.78125 9.902344 5.265625 10.195312 4.75 10.5 L 3.8125 9.5 C 3.625 9.3125 3.3125 9.3125 3.125 9.5 L 1.5 11.125 C 1.3125 11.3125 1.3125 11.625 1.5 11.8125 L 2.5 12.75 C 2.195312 13.265625 1.902344 13.78125 1.75 14.375 L 0.5 14.375 C 0.234375 14.375 0 14.609375 0 14.875 L 0 17.125 C 0 17.390625 0.234375 17.625 0.5 17.625 L 1.75 17.625 C 1.902344 18.21875 2.195312 18.734375 2.5 19.25 L 1.5 20.1875 C 1.3125 20.375 1.3125 20.6875 1.5 20.875 L 3.125 22.5 C 3.3125 22.6875 3.625 22.6875 3.8125 22.5 L 4.75 21.5 C 5.265625 21.804688 5.78125 22.097656 6.375 22.25 L 6.375 23.5 C 6.375 23.765625 6.609375 24 6.875 24 L 9.125 24 C 9.390625 24 9.625 23.765625 9.625 23.5 L 9.625 22.25 C 10.21875 22.097656 10.734375 21.804688 11.25 21.5 L 12.1875 22.5 C 12.375 22.6875 12.6875 22.6875 12.875 22.5 L 14.5 20.875 C 14.6875 20.6875 14.6875 20.375 14.5 20.1875 L 13.5 19.25 C 13.804688 18.734375 14.097656 18.21875 14.25 17.625 L 15.5 17.625 C 15.765625 17.625 16 17.390625 16 17.125 L 16 14.875 C 16 14.609375 15.765625 14.375 15.5 14.375 L 14.25 14.375 C 14.097656 13.78125 13.804688 13.265625 13.5 12.75 L 14.5 11.8125 C 14.6875 11.625 14.6875 11.3125 14.5 11.125 L 12.875 9.5 C 12.6875 9.3125 12.375 9.3125 12.1875 9.5 L 11.25 10.5 C 10.734375 10.195312 10.21875 9.902344 9.625 9.75 L 9.625 8.5 C 9.625 8.234375 9.390625 8 9.125 8 Z M 8 14 C 9.105469 14 10 14.894531 10 16 C 10 17.105469 9.105469 18 8 18 C 6.894531 18 6 17.105469 6 16 C 6 14.894531 6.894531 14 8 14 Z "/>
<path style="fill:#888" d="M 19.699219 12.023438 C 19.625 12.015625 19.589844 12.050781 19.511719 12.085938 L 16.824219 13.148438 C 16.515625 13.277344 16.386719 13.710938 16.511719 14.023438 L 17.074219 15.585938 C 16.457031 16.050781 16.027344 16.542969 15.574219 17.148438 L 14.011719 16.460938 C 13.703125 16.332031 13.265625 16.523438 13.136719 16.835938 L 12.074219 19.398438 C 11.949219 19.707031 12.140625 20.082031 12.449219 20.210938 L 14.011719 20.898438 C 13.90625 21.644531 13.90625 22.382812 14.011719 23.148438 L 12.449219 23.835938 C 12.140625 23.964844 12.011719 24.210938 12.136719 24.523438 L 13.136719 27.210938 C 13.265625 27.519531 13.703125 27.652344 14.011719 27.523438 L 15.574219 26.898438 C 16.039062 27.515625 16.597656 28.007812 17.199219 28.460938 L 16.511719 30.023438 C 16.386719 30.332031 16.515625 30.769531 16.824219 30.898438 L 19.511719 31.960938 C 19.824219 32.089844 20.074219 31.894531 20.199219 31.585938 L 20.886719 30.023438 C 21.636719 30.128906 22.371094 30.132812 23.136719 30.023438 L 23.761719 31.585938 C 23.890625 31.894531 24.328125 32.027344 24.636719 31.898438 L 27.199219 30.898438 C 27.511719 30.769531 27.703125 30.332031 27.574219 30.023438 L 26.886719 28.460938 C 27.507812 27.996094 28 27.5 28.449219 26.898438 L 30.074219 27.523438 C 30.386719 27.652344 30.699219 27.519531 30.824219 27.210938 L 31.949219 24.523438 C 32.078125 24.210938 31.949219 23.964844 31.636719 23.835938 L 30.011719 23.148438 C 30.121094 22.398438 30.121094 21.664062 30.011719 20.898438 L 31.574219 20.210938 C 31.886719 20.082031 32.078125 19.832031 31.949219 19.523438 L 30.824219 16.835938 C 30.699219 16.523438 30.324219 16.332031 30.011719 16.460938 L 28.449219 17.148438 C 27.988281 16.527344 27.492188 16.039062 26.886719 15.585938 L 27.574219 13.898438 C 27.703125 13.585938 27.511719 13.277344 27.199219 13.148438 L 24.636719 12.085938 C 24.328125 11.957031 23.890625 12.148438 23.761719 12.460938 L 23.136719 14.023438 C 22.390625 13.914062 21.652344 13.914062 20.886719 14.023438 L 20.199219 12.460938 C 20.105469 12.226562 19.921875 12.035156 19.699219 12.023438 Z M 22.011719 18.023438 C 24.222656 18.023438 26.011719 19.8125 26.011719 22.023438 C 26.011719 24.230469 24.222656 26.023438 22.011719 26.023438 C 19.804688 26.023438 18.011719 24.230469 18.011719 22.023438 C 18.011719 19.8125 19.804688 18.023438 22.011719 18.023438 Z "/>
</svg>
