<svg width="32" xmlns="http://www.w3.org/2000/svg" height="32" viewBox="0 0 32 32" xmlns:xlink="http://www.w3.org/1999/xlink">
<path style="fill:#268bd2" d="M 16 0 C 16 0 26 0.0195312 26.011719 7.09375 L 26.011719 13.203125 C 26.011719 13.203125 30 13.203125 30 14.808594 L 30 29.453125 C 30 30.800781 28.570312 32 27 32 L 5 32 C 3.429688 32 2 30.800781 2 29.453125 L 2 14.808594 C 2 13.203125 6.042969 13.191406 6.042969 13.191406 L 5.917969 7.09375 C 6 0.0078125 16 0 16 0 Z M 16 3.550781 C 16 3.550781 10 3.550781 10 8.863281 L 10 13.203125 L 22 13.203125 L 22 8.863281 C 22 3.550781 16 3.550781 16 3.550781 Z "/>
<path style="fill:#000;fill-rule:evenodd;fill-opacity:.102" d="M 16 18 C 13.789062 18 12 19.789062 12 22 C 12 23.480469 12.804688 24.746094 14 25.4375 L 14 30 L 18 30 L 18 25.4375 C 19.195312 24.746094 20 23.480469 20 22 C 20 19.789062 18.210938 18 16 18 Z "/>
</svg>
