<svg width="32" xmlns="http://www.w3.org/2000/svg" height="32" viewBox="0 0 32 32" xmlns:xlink="http://www.w3.org/1999/xlink">
<path style="fill:#dc322f;fill-rule:evenodd" d="M 32 16.023438 C 32 24.863281 24.835938 32.027344 16 32.027344 C 7.164062 32.027344 0 24.863281 0 16.023438 C 0 7.1875 7.164062 0.0234375 16 0.0234375 C 24.835938 0.0234375 32 7.1875 32 16.023438 Z "/>
<g style="fill:#fff;fill-opacity:.902">
<path d="M 18 4.046875 L 14 4.046875 L 14 16.050781 L 18 16.050781 Z "/>
<path style="fill-rule:evenodd" d="M 12 4.6875 C 7.335938 6.335938 4 10.773438 4 16 C 4 22.628906 9.371094 28 16 28 C 22.628906 28 28 22.628906 28 16 C 28 10.773438 24.664062 6.335938 20 4.6875 L 20 9.125 C 22.386719 10.507812 24 13.042969 24 16 C 24 20.417969 20.417969 24 16 24 C 11.582031 24 8 20.417969 8 16 C 8 13.042969 9.613281 10.507812 12 9.125 Z "/>
</g>
</svg>
