<svg width="32" xmlns="http://www.w3.org/2000/svg" height="32" viewBox="0 0 32 32" xmlns:xlink="http://www.w3.org/1999/xlink">
<path style="fill:#859900;fill-rule:evenodd" d="M 16 0.0234375 C 24.839844 0.0234375 32.003906 7.1875 32.003906 16.023438 C 32.003906 24.863281 24.839844 32.027344 16 32.023438 C 7.160156 32.027344 -0.00390625 24.863281 -0.00390625 16.023438 C -0.00390625 7.1875 7.160156 0.0234375 16 0.0234375 Z "/>
<g style="fill:#fff;fill-opacity:.902">
<path d="M 4.023438 14.023438 L 4.023438 18.023438 L 16.023438 18.023438 L 16.023438 14.023438 Z "/>
<path style="fill-rule:evenodd" d="M 4.664062 20.023438 C 6.308594 24.6875 10.75 28.023438 15.976562 28.023438 C 22.601562 28.023438 27.976562 22.652344 27.976562 16.023438 C 27.976562 9.398438 22.601562 4.023438 15.976562 4.023438 C 10.75 4.023438 6.308594 7.363281 4.664062 12.023438 L 9.101562 12.023438 C 10.484375 9.636719 13.015625 8.023438 15.976562 8.023438 C 20.394531 8.023438 23.976562 11.605469 23.976562 16.023438 C 23.976562 20.441406 20.394531 24.023438 15.976562 24.023438 C 13.015625 24.023438 10.484375 22.410156 9.101562 20.023438 Z "/>
</g>
</svg>
