<svg width="32" xmlns="http://www.w3.org/2000/svg" height="32" viewBox="0 0 32 32" xmlns:xlink="http://www.w3.org/1999/xlink">
<path style="fill:#859900;fill-rule:evenodd" d="M 32 16.003906 C 32 24.839844 24.835938 32 16 32 C 7.164062 32 0 24.839844 0 16.003906 C 0 7.164062 7.164062 0 16 0 C 24.835938 0 32 7.164062 32 16.003906 Z "/>
<g style="fill:#fff;fill-opacity:.902">
<path d="M 25.746094 12.011719 C 24.054688 8.351562 20.277344 6 16.023438 6 C 11.667969 6 7.6875 8.574219 6.121094 12.398438 L 9.421875 13.601562 C 10.464844 11.046875 13.117188 9.335938 16.023438 9.335938 C 18.824219 9.335938 21.300781 10.867188 22.449219 13.25 L 20.039062 14.15625 L 26.195312 17.503906 L 27.996094 11.164062 Z "/>
<path d="M 16.023438 22.667969 C 13.246094 22.667969 10.714844 21.089844 9.582031 18.722656 L 11.957031 17.855469 L 5.863281 14.582031 L 4 20.753906 L 6.269531 19.925781 C 7.929688 23.574219 11.792969 26.003906 16.023438 26.003906 C 20.390625 26.003906 24.261719 23.53125 25.878906 19.707031 L 22.59375 18.472656 C 21.515625 21.019531 18.9375 22.667969 16.023438 22.667969 Z "/>
</g>
</svg>
