<svg xmlns="http://www.w3.org/2000/svg" viewBox="0 0 32 32">
 <path d="m 3.75 2.02 c -2.055 0 -3.75 1.695 -3.75 3.75 l 0 24.25 l 28 0 l 0 -24.25 c 0 -2.055 -1.695 -3.75 -3.75 -3.75 Z" style="fill:#fff"/>
 <path d="m 3.75 2.02 c -2.055 0 -3.75 1.695 -3.75 3.75 l 0 24.25 l 28 0 l 0 -24.25 c 0 -2.055 -1.695 -3.75 -3.75 -3.75 m -20.5 2 l 20.5 0 c 0.98 0 1.75 0.77 1.75 1.75 l 0 22.246 l -24 0 l 0 -22.246 c 0 -0.98 0.77 -1.75 1.75 -1.75 Z" style="fill:#888"/>
 <path d="m 2 12 l 8 0 l 0 16 l -8 0 Z" style="fill:#000;fill-opacity:0.102"/>
 <g style="fill:#888;fill-opacity:0.902">
  <path d="m 2 10 l 0 2 l 8 0 l 0 16 l 2 0 l 0 -16 l 14 0 l 0 -2 l -24 0 z"/>
 </g>
 <path d="m 32 27.5 -4.5 -4.5 4.5 -4.5 -4.5 -4.5 -4.5 4.5 -4.5 -4.5 -4.5 4.5 4.5 4.5 -4.5 4.5 4.5 4.5 4.5 -4.5 4.5 4.5" style="fill:#dc322f;fill-opacity:1"/>
</svg>
