<svg width="32" xmlns="http://www.w3.org/2000/svg" height="32" viewBox="0 0 32 32" xmlns:xlink="http://www.w3.org/1999/xlink">
<path style="fill:#dc322f;fill-rule:evenodd" d="M 9.1875 7.875 C 8.84375 7.871094 8.449219 7.921875 8 8 C 7.914062 8.625 7.945312 9.152344 8 9.625 C 8.003906 9.777344 7.980469 9.917969 8 10.0625 C 8.058594 10.523438 8.230469 10.976562 8.5625 11.375 C 8.671875 11.507812 8.78125 11.621094 8.9375 11.75 C 9.621094 12.484375 10.347656 13.171875 11.0625 13.875 L 13.1875 16 C 12.472656 16.699219 11.777344 17.421875 11.0625 18.125 C 10.355469 18.832031 9.628906 19.527344 8.9375 20.25 C 8.789062 20.355469 8.671875 20.503906 8.5625 20.625 C 8.433594 20.765625 8.332031 20.90625 8.25 21.0625 C 8.101562 21.351562 8.039062 21.671875 8 22 C 7.976562 22.207031 7.9375 22.414062 7.9375 22.625 C 7.933594 22.722656 7.9375 22.832031 7.9375 22.9375 C 7.949219 23.300781 7.996094 23.644531 8 24 C 8.359375 24.050781 8.695312 24.058594 9 24.0625 C 9.058594 24.0625 9.132812 24.0625 9.1875 24.0625 C 9.328125 24.058594 9.429688 24.011719 9.5625 24 C 9.582031 23.996094 9.605469 24.003906 9.625 24 C 10.265625 23.976562 10.875 23.890625 11.375 23.4375 C 11.507812 23.328125 11.621094 23.21875 11.75 23.0625 L 16 18.8125 L 20.25 23.0625 C 20.355469 23.210938 20.503906 23.328125 20.625 23.4375 C 20.765625 23.566406 20.90625 23.667969 21.0625 23.75 C 21.339844 23.898438 21.628906 23.960938 21.9375 24 C 22.285156 24.046875 22.636719 24.078125 23 24.0625 C 23.304688 24.058594 23.640625 24.050781 24 24 C 24.113281 23.34375 24.121094 22.828125 24.0625 22.375 C 24.054688 22.203125 24.027344 22.042969 24 21.875 C 23.90625 21.273438 23.660156 20.679688 23.0625 20.25 C 22.378906 19.515625 21.652344 18.828125 20.9375 18.125 L 18.8125 16 L 23.0625 11.75 C 23.21875 11.621094 23.328125 11.507812 23.4375 11.375 C 23.5625 11.230469 23.671875 11.089844 23.75 10.9375 C 23.886719 10.675781 23.957031 10.410156 24 10.125 C 24.003906 10.105469 23.996094 10.082031 24 10.0625 C 24.136719 9.480469 24.117188 8.824219 24 8 C 23.34375 7.886719 22.828125 7.878906 22.375 7.9375 C 22.214844 7.960938 22.023438 7.957031 21.875 8 C 21.8125 8.015625 21.746094 8.042969 21.6875 8.0625 C 21.15625 8.175781 20.636719 8.398438 20.25 8.9375 C 19.515625 9.621094 18.828125 10.347656 18.125 11.0625 C 17.421875 11.777344 16.699219 12.472656 16 13.1875 C 15.320312 12.472656 14.636719 11.761719 13.9375 11.0625 C 13.925781 11.050781 13.886719 11.074219 13.875 11.0625 C 13.171875 10.347656 12.484375 9.621094 11.75 8.9375 C 11.644531 8.789062 11.496094 8.671875 11.375 8.5625 C 11.292969 8.488281 11.214844 8.433594 11.125 8.375 C 11.078125 8.34375 11.046875 8.277344 11 8.25 C 10.980469 8.242188 10.957031 8.257812 10.9375 8.25 C 10.683594 8.117188 10.410156 8.042969 10.125 8 C 10.085938 7.996094 10.039062 8.003906 10 8 C 9.75 7.941406 9.484375 7.878906 9.1875 7.875 Z "/>
</svg>
