<svg xmlns="http://www.w3.org/2000/svg" viewBox="0 0 32 32">
 <path d="m 8.23 4.562 c -1.239 4.527 -1.27 10.793 0.943 13.887 0.931 1.465 2.201 3.395 1.205 5.148 -1.839 2.738 -4.903 4.215 -7.697 5.707 -0.947 0.098 -0.604 1 -0.666 1.668 -0.004 0.531 -0.158 1.223 0.6 0.977 l 26.769 0 c 0.758 0.246 0.604 -0.445 0.6 -0.977 -0.062 -0.664 0.281 -1.57 -0.67 -1.668 -2.79 -1.492 -5.857 -2.969 -7.693 -5.707 -0.997 -1.754 0.273 -3.684 1.205 -5.148 2.336 -3.367 2.64 -10.688 0.935 -13.988 c -1.539 -2.859 -3.094 -4.352 -7.762 -4.461 -4.676 0.191 -6.223 1.602 -7.77 4.563" style="fill:#6c71c4"/>
</svg>
