<svg width="32" xmlns="http://www.w3.org/2000/svg" height="32" viewBox="0 0 32 32" xmlns:xlink="http://www.w3.org/1999/xlink">
<path style="fill:#268bd2" d="M 6.308594 2 L 25.691406 2 C 28.070312 2 30 3.929688 30 6.308594 L 30 25.691406 C 30 28.070312 28.070312 30 25.691406 30 L 6.308594 30 C 3.929688 30 2 28.070312 2 25.691406 L 2 6.308594 C 2 3.929688 3.929688 2 6.308594 2 Z "/>
<path style="fill:#fff;fill-opacity:.902" d="M 10 6 L 10 14 L 12 14 L 12 26 L 20 26 C 20 19.207031 20 11.632812 20 6 C 16.667969 6 13.332031 6 10 6 Z M 18 8 C 18 13.667969 18 18.359375 18 24 L 14 24 C 14 20 14 16 14 12 L 12 12 L 12 8 C 14 8 16 8 18 8 Z "/>
</svg>
