<svg width="32" xmlns="http://www.w3.org/2000/svg" height="32" viewBox="0 0 32 32" xmlns:xlink="http://www.w3.org/1999/xlink">
<path style="fill:#268bd2" d="M 6.308594 2 L 25.691406 2 C 28.070312 2 30 3.929688 30 6.308594 L 30 25.691406 C 30 28.070312 28.070312 30 25.691406 30 L 6.308594 30 C 3.929688 30 2 28.070312 2 25.691406 L 2 6.308594 C 2 3.929688 3.929688 2 6.308594 2 Z "/>
<path style="fill:#fff;fill-opacity:.902" d="M 6 12 L 6 20 C 12.6875 20 19.75 20 26 20 L 26 12 C 18.519531 12 13.210938 12 6 12 Z M 24 14 L 24 18 C 18.644531 18 12.691406 18 8 18 L 8 14 C 13.667969 14 18.359375 14 24 14 Z "/>
</svg>
