<svg xmlns="http://www.w3.org/2000/svg" xmlns:svg="http://www.w3.org/2000/svg" xmlns:xlink="http://www.w3.org/1999/xlink" id="svg21" width="240" height="240" version="1.1" viewBox="0 0 240 240"><metadata id="metadata25"/><defs id="defs7"><linearGradient id="b" x1="46.168" x2="46.168" y1="57" y2="27.346" gradientTransform="matrix(0.26458,0,0,0.26458,0,280.07)" gradientUnits="userSpaceOnUse"><stop id="stop2" offset="0"/><stop id="stop4" offset="1" stop-opacity="0"/></linearGradient><linearGradient id="linearGradient831" x1="46.168" x2="46.168" y1="57" y2="27.346" gradientTransform="matrix(0.2751632,0,0,0.2751632,-0.339,46.22855)" gradientUnits="userSpaceOnUse" xlink:href="#b"/></defs><g id="g844" transform="matrix(14.536827,0,0,14.536827,-3.0711033,-679.9855)"><rect id="rect9" width="13.758" height="13.758" x="1.587" y="48.153" rx=".794" ry=".794" style="fill:#ee4f84;fill-opacity:1;stroke-width:1.00048006;paint-order:markers stroke fill"/><path id="path11" d="m 15.34524,53.74983 a 12.38224,12.38224 0 0 1 -5.96128,8.15984 h 5.13552 c 0.4576,0 0.82576,-0.36816 0.82576,-0.82576 z" style="opacity:.25;fill:url(#linearGradient831);stroke-width:1.00048006;paint-order:markers stroke fill"/><g id="g8" transform="matrix(0.52732028,0,0,0.52732028,0.29116898,-491.75087)" style="fill:#fff;fill-rule:evenodd;stroke:none;stroke-width:1"><path id="path6" d="M 3.9902344,2.9902344 A 1.0000925,1.0000925 0 0 0 3.2929688,4.7070312 L 6.5859375,8 3.2929688,11.292969 a 1.0000925,1.0000925 0 1 0 1.4140624,1.414062 L 8,9.4140625 11.292969,12.707031 a 1.0003045,1.0003045 0 1 0 1.414062,-1.414062 L 9.4140625,8 12.707031,4.7070312 a 1.0000925,1.0000925 0 0 0 -0.726562,-1.7148437 1.0000925,1.0000925 0 0 0 -0.6875,0.3007813 L 8,6.5859375 4.7070312,3.2929688 A 1.0000925,1.0000925 0 0 0 3.9902344,2.9902344 Z" transform="matrix(1.6250122,0,0,1.6250122,2.4976161,1023.8989)" style="fill:#fff"/></g></g></svg>