<?xml version="1.0" encoding="UTF-8" standalone="no"?>
<svg
   xmlns:dc="http://purl.org/dc/elements/1.1/"
   xmlns:cc="http://creativecommons.org/ns#"
   xmlns:rdf="http://www.w3.org/1999/02/22-rdf-syntax-ns#"
   xmlns:svg="http://www.w3.org/2000/svg"
   xmlns="http://www.w3.org/2000/svg"
   xmlns:xlink="http://www.w3.org/1999/xlink"
   xmlns:sodipodi="http://sodipodi.sourceforge.net/DTD/sodipodi-0.dtd"
   xmlns:inkscape="http://www.inkscape.org/namespaces/inkscape"
   width="240"
   height="240"
   version="1.1"
   viewBox="0 0 240 240"
   id="svg21"
   sodipodi:docname="menu123131.svg"
   inkscape:version="0.92.5 (2060ec1f9f, 2020-04-08)">
  <metadata
     id="metadata25">
    <rdf:RDF>
      <cc:Work
         rdf:about="">
        <dc:format>image/svg+xml</dc:format>
        <dc:type
           rdf:resource="http://purl.org/dc/dcmitype/StillImage" />
        <dc:title />
      </cc:Work>
    </rdf:RDF>
  </metadata>
  <sodipodi:namedview
     pagecolor="#ffffff"
     bordercolor="#666666"
     borderopacity="1"
     objecttolerance="10"
     gridtolerance="10"
     guidetolerance="10"
     inkscape:pageopacity="0"
     inkscape:pageshadow="2"
     inkscape:window-width="1321"
     inkscape:window-height="740"
     id="namedview23"
     showgrid="false"
     inkscape:pagecheckerboard="true"
     inkscape:zoom="1.8101934"
     inkscape:cx="92.388716"
     inkscape:cy="96.694777"
     inkscape:window-x="45"
     inkscape:window-y="28"
     inkscape:window-maximized="0"
     inkscape:current-layer="g844" />
  <defs
     id="defs7">
    <linearGradient
       id="b"
       x1="46.167999"
       x2="46.167999"
       y1="57"
       y2="27.346001"
       gradientTransform="matrix(0.26458,0,0,0.26458,0,280.07)"
       gradientUnits="userSpaceOnUse">
      <stop
         offset="0"
         id="stop2" />
      <stop
         stop-opacity="0"
         offset="1"
         id="stop4" />
    </linearGradient>
    <linearGradient
       inkscape:collect="always"
       xlink:href="#b"
       id="linearGradient860"
       gradientUnits="userSpaceOnUse"
       gradientTransform="matrix(0.26458,0,0,0.26458,0,280.07)"
       x1="46.167999"
       y1="57"
       x2="46.167999"
       y2="27.346001" />
  </defs>
  <g
     transform="matrix(14.536827,0,0,14.536827,-3.0711039,-679.98549)"
     id="g858">
    <g
       transform="matrix(1.04,0,0,1.04,-0.339,-245.04425)"
       id="g850"
       style="stroke-width:0.96200001;paint-order:markers stroke fill">
      <rect
         x="1.852"
         y="281.92001"
         width="13.229"
         height="13.229"
         rx="0.76300001"
         ry="0.76300001"
         id="rect846"
         style="fill:#2196f3" />
      <path
         d="m 15.081,287.302 a 11.906,11.906 0 0 1 -5.732,7.846 h 4.938 c 0.44,0 0.794,-0.354 0.794,-0.794 z"
         id="path848"
         inkscape:connector-curvature="0"
         style="opacity:0.25;fill:url(#linearGradient860)" />
    </g>
    <path
       inkscape:connector-curvature="0"
       d="M 6.08525,53.866767 H 7.275845 V 52.676172 H 6.08525 Z m 1.7858922,3.571785 h 1.190595 v -1.190595 h -1.190595 z m -1.7858922,0 H 7.275845 V 56.247957 H 6.08525 Z m 0,-1.785892 H 7.275845 V 54.462065 H 6.08525 Z m 1.7858922,0 h 1.190595 V 54.462065 H 7.8711422 Z M 9.657035,52.676172 v 1.190595 h 1.190595 v -1.190595 z m -1.7858928,1.190595 h 1.190595 V 52.676172 H 7.8711422 Z M 9.657035,55.65266 H 10.84763 V 54.462065 H 9.657035 Z m 0,1.785892 H 10.84763 V 56.247957 H 9.657035 Z"
       id="path852"
       style="fill:#ffffff;fill-opacity:0.89803922;stroke-width:0.14882438" />
    <g
       transform="matrix(0.79373,0,0,0.79373,2.1166,-773.91425)"
       id="g856"
       style="fill:#ffffff;fill-opacity:0.9">
      <path
         transform="translate(0,1036.4)"
         d="M 3,3 V 7 H 4 V 4 H 7 V 3 Z m 6,0 v 1 h 3 v 3 h 1 V 3 Z M 3,9 v 4 H 7 V 12 H 4 V 9 Z m 9,0 v 3 H 9 v 1 h 4 V 9 Z"
         id="path854"
         inkscape:connector-curvature="0"
         style="color:#000000" />
    </g>
  </g>
  <g
     id="g844"
     transform="matrix(14.536827,0,0,14.536827,-3.0711039,-679.98549)">
    <g
       style="stroke-width:0.96200001;paint-order:markers stroke fill"
       id="g13"
       transform="matrix(1.04,0,0,1.04,-0.339,-245.04425)">
      <rect
         style="fill:#ee4f84;fill-opacity:1"
         id="rect9"
         ry="0.76300001"
         rx="0.76300001"
         height="13.229"
         width="13.229"
         y="281.92001"
         x="1.852" />
      <path
         style="opacity:0.25;fill:url(#b)"
         inkscape:connector-curvature="0"
         id="path11"
         d="m 15.081,287.302 a 11.906,11.906 0 0 1 -5.732,7.846 h 4.938 c 0.44,0 0.794,-0.354 0.794,-0.794 z" />
    </g>
    <g
       id="g8"
       transform="matrix(0.52732028,0,0,0.52732028,0.29116898,-491.75087)"
       style="fill:#ffffff;fill-rule:evenodd;stroke:none;stroke-width:1">
      <path
         inkscape:connector-curvature="0"
         id="path6"
         d="M 3.9902344,2.9902344 A 1.0000925,1.0000925 0 0 0 3.2929688,4.7070312 L 6.5859375,8 3.2929688,11.292969 a 1.0000925,1.0000925 0 1 0 1.4140624,1.414062 L 8,9.4140625 11.292969,12.707031 a 1.0003045,1.0003045 0 1 0 1.414062,-1.414062 L 9.4140625,8 12.707031,4.7070312 a 1.0000925,1.0000925 0 0 0 -0.726562,-1.7148437 1.0000925,1.0000925 0 0 0 -0.6875,0.3007813 L 8,6.5859375 4.7070312,3.2929688 A 1.0000925,1.0000925 0 0 0 3.9902344,2.9902344 Z"
         transform="matrix(1.6250122,0,0,1.6250122,2.4976161,1023.8989)"
         style="fill:#ffffff" />
    </g>
  </g>
</svg>
