<svg xmlns="http://www.w3.org/2000/svg" viewBox="0 0 24 24">
 <rect ry="2.665" height="5.329" rx="3.382" y="14.671" x="5" width="11.771" style="fill:#ececec;fill-opacity:1"/>
 <rect height="7.334" y="10.04" x="5" width="11.771" style="fill:#ececec;fill-opacity:1"/>
 <g transform="matrix(-0.20621,0,0,0.20963,35.60912,9.7473305)" style="fill:#ececec;fill-opacity:1">
  <path d="m 94.25 9.801 c -3.138 0 -5.618 1.048 -7.441 3.145 -1.81 2.083 -2.715 4.941 -2.715 8.574 0 3.737 0.872 6.628 2.617 8.672 1.758 2.031 4.258 3.047 7.5 3.047 1.992 0 4.264 -0.358 6.816 -1.074 l 0 2.91 c -1.979 0.742 -4.421 1.113 -7.324 1.113 -4.206 0 -7.454 -1.276 -9.746 -3.828 -2.279 -2.552 -3.418 -6.178 -3.418 -10.879 0 -2.943 0.547 -5.521 1.641 -7.734 1.107 -2.214 2.695 -3.919 4.766 -5.117 2.083 -1.198 4.531 -1.797 7.344 -1.797 2.995 0 5.612 0.547 7.852 1.641 l -1.406 2.852 c -2.161 -1.016 -4.323 -1.523 -6.484 -1.523"/>
 </g>
</svg>
