<!-- Generator: Adobe Illustrator 15.1.0, SVG Export Plug-In . SVG Version: 6.00 Build 0)  -->
<svg xmlns="http://www.w3.org/2000/svg" viewBox="0 0 24 24" style="enable-background:new 0 0 24 24">
 <polygon points="18.162,10.28 16.033,8.347 22.172,0.866 22.76,1.286 " transform="matrix(0.88289963,0,0,0.88294066,1.4052044,1.7353734)" style="fill:#ececec;opacity:0.4;fill-opacity:1"/>
 <path d="m 6.06 10.812 -3.563 1.188 0 -1.188 3.563 -3.091 1.187 0.715 4.109 10.11 -2.921 1.768" style="fill:#ececec;fill-opacity:1"/>
 <path d="m 15.2 13.239 -1.549 1.239 -3.099 2.478 0.807 1.588 2.446 0.739 1.223 0.37" style="fill:#ececec;opacity:1;fill-opacity:1"/>
 <path d="m 11.505 14.374 -1.855 -3.562 2.35 -1.188 c 1.187 0 3.561 1.188 3.561 1.188 l -4.056 3.562 z" style="fill:#ececec;opacity:1;fill-opacity:1"/>
 <path d="m 21.5 21.23 -3.563 -8.04 -1.188 -1.188 -3.099 2.478 -3.099 2.478 0.807 1.588 2.446 0.739 2.446 0.739 4.892 1.478 0.326 0" style="fill:#ececec;opacity:0.4;fill-opacity:1"/>
</svg>
