<!-- Generator: Adobe Illustrator 15.1.0, SVG Export Plug-In . SVG Version: 6.00 Build 0)  -->
<svg xmlns="http://www.w3.org/2000/svg" viewBox="0 0 24 24" style="enable-background:new 0 0 24 24">
 <g transform="matrix(0.88289963,0,0,0.88294066,1.4052044,1.7353741)" style="fill:#ececec;opacity:0.4;fill-opacity:1">
  <path d="m 19.98 1.5 -4.957 6.04 c 0.299 0.225 0.476 0.578 0.477 0.953 l 0 0.465 l 0.939 0.854 4.061 -7.941 m -15.438 4.85 -3.563 3.092 0 1.188 3.563 -1.188 1.438 5.75 0 -7.07 c 0 -0.112 0.016 -0.223 0.047 -0.33 l -0.297 -0.729 m 9.5 3.564 l -0.25 0.199 0 6.906 c -0.001 0.332 -0.139 0.65 -0.383 0.875 l 5.02 1.52 0.326 0 0.033 -0.27 -3.563 -8.04" transform="matrix(1.1326316,0,0,1.1325789,-0.45894734,-0.83286838)"/>
 </g>
 <g transform="translate(7.5,13.200001)">
  <path d="M 1.661 -4 A 0.661 0.995 0 0 0 1 -3.01 L 1 5.01 A 0.661 0.995 0 0 0 1.661 6 L 2.839 6 A 0.661 0.995 0 0 0 3.5 5.01 l 0 -8.01 A 0.661 0.995 0 0 0 2.839 -4 l -1.178 0 z" mix-blend-mode="normal" isolation="auto" white-space="normal" solid-opacity="1" solid-color="#000000" style="visibility:visible;shape-rendering:auto;color-interpolation-filters:linearRGB;fill:#ececec;opacity:1;image-rendering:auto;fill-opacity:1;stroke:none;display:inline;color:#000;fill-rule:nonzero;color-rendering:auto;color-interpolation:sRGB"/>
  <path d="M 6.161 -4 A 0.661 0.995 0 0 0 5.5 -3.01 l 0 8.01 A 0.661 0.995 0 0 0 6.161 6 l 1.178 0 a 0.661 0.995 0 0 0 0.661 -0.995 l 0 -8.01 a 0.661 0.995 0 0 0 -0.661 -0.995 l -1.178 0 z" mix-blend-mode="normal" isolation="auto" white-space="normal" solid-opacity="1" solid-color="#000000" style="visibility:visible;shape-rendering:auto;color-interpolation-filters:linearRGB;fill:#ececec;opacity:1;image-rendering:auto;fill-opacity:1;stroke:none;display:inline;color:#000;fill-rule:nonzero;color-rendering:auto;color-interpolation:sRGB"/>
 </g>
</svg>
