<svg xmlns="http://www.w3.org/2000/svg" viewBox="0 0 24 24">
 <path d="m 20 17.12 c 0 0.816 -0.301 1.5 -0.902 2.052 c -0.602 0.551 -1.35 0.827 -2.242 0.827 -1.028 0 -1.923 -0.347 -2.686 -1.046 l -8.881 -8.129 c -0.859 -0.802 -1.289 -1.748 -1.289 -2.836 0 -1.11 0.419 -2.052 1.257 -2.829 0.838 -0.774 1.862 -1.16 3.073 -1.16 1.207 0 2.245 0.394 3.123 1.182 l 6.915 6.346 c 0.075 0.072 0.115 0.147 0.115 0.233 0 0.111 -0.118 0.272 -0.351 0.487 -0.233 0.211 -0.408 0.319 -0.53 0.319 -0.1 0 -0.186 -0.036 -0.261 -0.104 l -6.929 -6.356 c -0.602 -0.537 -1.289 -0.809 -2.066 -0.809 c -0.809 0 -1.49 0.265 -2.048 0.788 -0.555 0.523 -0.834 1.153 -0.834 1.894 0 0.734 0.29 1.364 0.87 1.894 l 8.87 8.14 c 0.48 0.437 1.031 0.659 1.654 0.659 0.491 0 0.892 -0.147 1.214 -0.44 0.319 -0.294 0.48 -0.662 0.48 -1.11 0 -0.573 -0.24 -1.078 -0.72 -1.518 l -6.643 -6.084 c -0.197 -0.168 -0.426 -0.251 -0.684 -0.251 c -0.222 0 -0.405 0.064 -0.548 0.197 -0.147 0.132 -0.218 0.301 -0.218 0.505 0 0.222 0.097 0.43 0.286 0.616 l 4.684 4.294 c 0.079 0.072 0.115 0.147 0.115 0.233 0 0.111 -0.118 0.276 -0.355 0.491 -0.236 0.215 -0.415 0.326 -0.537 0.326 -0.09 0 -0.175 -0.036 -0.251 -0.107 l -4.684 -4.294 c -0.48 -0.423 -0.72 -0.945 -0.72 -1.558 c 0 -0.573 0.215 -1.06 0.648 -1.457 0.437 -0.397 0.967 -0.594 1.59 -0.594 0.67 0 1.239 0.218 1.705 0.659 l 6.639 6.084 c 0.763 0.684 1.142 1.504 1.142 2.46" style="fill:#ececec;fill-opacity:1"/>
</svg>
