<svg xmlns="http://www.w3.org/2000/svg" viewBox="0 0 24 24" style="enable-background:new 0 0 512 512">
 <path d="m 13.939 12 c 0 1.026 -0.831 1.857 -1.857 1.857 -1.025 0 -1.857 -0.831 -1.857 -1.857 0 -1.025 0.831 -1.857 1.857 -1.857 1.025 0 1.857 0.831 1.857 1.857 z m 6.561 -0.303 c 0 0 -3.01 5.803 -8.49 5.803 c -5.086 0 -8.51 -5.803 -8.51 -5.803 0 0 3.15 -5.197 8.51 -5.197 5.45 0 8.49 5.197 8.49 5.197 m -5.117 0.303 c 0 -1.823 -1.478 -3.301 -3.301 -3.301 -1.823 0 -3.301 1.478 -3.301 3.301 0 1.823 1.478 3.301 3.301 3.301 1.823 0 3.301 -1.478 3.301 -3.301 z" style="fill:#ececec;fill-opacity:1"/>
</svg>
