<svg xmlns="http://www.w3.org/2000/svg" viewBox="0 0 24 24">
 <g transform="translate(0.99999989,1.0000001)" style="fill:#ececec;fill-opacity:1">
  <path d="m 6.6 10.905 c -1 0.963 -1.6 2.256 -1.6 3.684 0 2.994 2.68 5.411 6 5.411 c 3.32 0 6 -2.417 6 -5.411 0 -1.425 -0.604 -2.719 -1.6 -3.684 l -1.2 1.082 c 0.696 0.684 1.086 1.597 1.086 2.602 0 2.138 -1.914 3.865 -4.286 3.865 -2.371 0 -4.286 -1.726 -4.286 -3.865 0 -0.999 0.42 -1.895 1.114 -2.576 l -1.229 -1.108 z" style="stroke:none"/>
  <rect rx="0.898" y="4" x="10" height="13" width="2" style="stroke:none"/>
  <rect transform="matrix(0,-1,1,0,0,0)" width="1" height="14" x="-10" y="4" rx="0.483" style="stroke:none"/>
  <rect width="1" height="5" x="17" y="5" rx="0.449" style="stroke:none"/>
  <rect rx="0.449" y="5" x="4" height="5" width="1" style="stroke:none"/>
  <path d="m 10.837 2 c -0.043 0.004 -0.08 0.028 -0.122 0.037 -0.112 0.021 -0.223 0.019 -0.327 0.073 -0.207 0.107 -0.353 0.29 -0.449 0.475 -0.037 0.071 -0.103 0.142 -0.122 0.219 l -1.633 2.486 c -0.362 0.561 -0.166 1.276 0.408 1.572 0.574 0.297 1.312 0.086 1.674 -0.475 l 0.735 -1.133 0.735 1.133 c 0.362 0.561 1.1 0.772 1.674 0.475 0.574 -0.297 0.77 -1.01 0.408 -1.572 l -1.633 -2.486 c -0.013 -0.052 -0.061 -0.097 -0.082 -0.146 l -0.041 -0.073 c -0.096 -0.185 -0.242 -0.368 -0.449 -0.475 -0.104 -0.054 -0.215 -0.052 -0.327 -0.073 -0.099 -0.019 -0.185 -0.042 -0.286 -0.037 -0.057 -0.003 -0.107 -0.005 -0.163 0 z" style="stroke:none"/>
  <path d="m 4.364 3 c -0.036 0.003 -0.066 0.023 -0.102 0.029 -0.093 0.017 -0.186 0.016 -0.272 0.059 -0.173 0.086 -0.294 0.232 -0.374 0.38 -0.031 0.057 -0.086 0.113 -0.102 0.176 l -1.361 1.989 c -0.302 0.449 -0.138 1.02 0.34 1.258 0.478 0.237 1.093 0.069 1.395 -0.38 l 0.612 -0.907 0.612 0.907 c 0.302 0.449 0.917 0.618 1.395 0.38 0.478 -0.237 0.642 -0.809 0.34 -1.258 l -1.361 -1.989 c -0.011 -0.041 -0.051 -0.078 -0.068 -0.117 l -0.034 -0.059 c -0.08 -0.148 -0.202 -0.295 -0.374 -0.38 -0.086 -0.043 -0.179 -0.041 -0.272 -0.059 -0.082 -0.015 -0.155 -0.033 -0.238 -0.029 c -0.047 -0.002 -0.089 -0.004 -0.136 0 z" style="stroke:none"/>
  <path d="m 17.364 3 c -0.036 0.003 -0.066 0.023 -0.102 0.029 -0.093 0.017 -0.186 0.016 -0.272 0.059 -0.173 0.086 -0.294 0.232 -0.374 0.38 -0.031 0.057 -0.086 0.113 -0.102 0.176 l -1.361 1.989 c -0.302 0.449 -0.138 1.02 0.34 1.258 0.478 0.237 1.093 0.069 1.395 -0.38 l 0.612 -0.907 0.612 0.907 c 0.302 0.449 0.917 0.618 1.395 0.38 0.478 -0.237 0.642 -0.809 0.34 -1.258 l -1.361 -1.989 c -0.011 -0.041 -0.051 -0.078 -0.068 -0.117 l -0.034 -0.059 c -0.08 -0.148 -0.202 -0.295 -0.374 -0.38 -0.086 -0.043 -0.179 -0.041 -0.272 -0.059 -0.082 -0.015 -0.155 -0.033 -0.238 -0.029 -0.047 -0.002 -0.089 -0.004 -0.136 0 z" style="stroke:none"/>
  <path d="m 10.891 16.998 c -0.029 -0.003 -0.053 -0.023 -0.082 -0.029 -0.075 -0.017 -0.149 -0.016 -0.218 -0.058 -0.138 -0.086 -0.235 -0.232 -0.299 -0.38 -0.025 -0.057 -0.069 -0.113 -0.082 -0.176 l -1.089 -1.989 c -0.241 -0.449 -0.11 -1.02 0.272 -1.258 0.383 -0.237 0.875 -0.069 1.116 0.38 l 0.49 0.907 0.49 -0.907 c 0.241 -0.449 0.733 -0.618 1.116 -0.38 0.383 0.237 0.513 0.809 0.272 1.258 l -1.089 1.989 c -0.008 0.041 -0.041 0.078 -0.054 0.117 l -0.027 0.058 c -0.064 0.148 -0.161 0.295 -0.299 0.38 -0.069 0.043 -0.143 0.041 -0.218 0.058 -0.066 0.015 -0.124 0.033 -0.191 0.029 -0.038 0.002 -0.071 0.004 -0.109 0 z" style="stroke:none"/>
 </g>
</svg>
