<svg xmlns="http://www.w3.org/2000/svg" viewBox="0 0 24 24">
 <path d="m 3 5 c -0.276 0 -0.5 0.224 -0.5 0.5 l 0 13 c 0 0.276 0.224 0.5 0.5 0.5 l 12 0 c 0.276 0 0.5 -0.224 0.5 -0.5 l 0 -3.191 5.277 2.639 c 0.332 0.165 0.722 -0.076 0.723 -0.447 l 0 -11 c 0 -0.371 -0.39 -0.612 -0.723 -0.447 l -5.277 2.639 0 -3.191 c 0 -0.276 -0.224 -0.5 -0.5 -0.5 l -12 0 m 3.373 4 1.254 0 c 0.206 0 0.373 0.113 0.373 0.252 l 0 5.498 c -0.001 0.139 -0.168 0.25 -0.373 0.25 l -1.254 0 c -0.205 0 -0.372 -0.111 -0.373 -0.25 l 0 -5.498 c 0 -0.139 0.167 -0.252 0.373 -0.252 m 4 0 1.254 0 c 0.206 0 0.373 0.113 0.373 0.252 l 0 5.498 c -0.001 0.139 -0.168 0.25 -0.373 0.25 l -1.254 0 c -0.205 0 -0.372 -0.111 -0.373 -0.25 l 0 -5.498 c 0 -0.139 0.167 -0.252 0.373 -0.252" mix-blend-mode="normal" isolation="auto" white-space="normal" solid-opacity="1" solid-color="#000000" style="visibility:visible;shape-rendering:auto;color-interpolation-filters:linearRGB;fill:#ececec;opacity:1;image-rendering:auto;fill-opacity:1;stroke:none;display:inline;color:#000;fill-rule:evenodd;color-rendering:auto;color-interpolation:sRGB"/>
</svg>
