<svg xmlns="http://www.w3.org/2000/svg" viewBox="0 0 24 24">
 <g transform="translate(0,-40)">
  <rect width="5" height="3" x="17" y="55" rx="0.929" style="fill:#ececec;fill-opacity:1;stroke:none"/>
  <rect width="5" height="3" x="8" y="42" rx="1.05" style="fill:#ececec;fill-opacity:1;stroke:none"/>
  <path d="m 9.945 44.07 1.821 6.759 0.957 -0.256 -1.821 -6.759 -0.957 0.256 z" style="visibility:visible;fill:#ececec;opacity:1;fill-opacity:1;display:inline;color:#000"/>
  <rect width="5" height="3" x="2" y="46" rx="1.063" style="fill:#ececec;fill-opacity:1;stroke:none"/>
  <rect width="5" height="3" x="12" y="59" rx="1.045" style="fill:#ececec;fill-opacity:1;stroke:none"/>
  <g transform="matrix(0.63043555,0.63047037,-0.63043555,0.63047037,37.571451,8.5669684)" style="fill:#ececec;fill-opacity:1">
   <path d="m 15.453 60.715 c 0.165 0.083 0.246 0.182 0.243 0.297 0 0.117 0.047 0.285 0.142 0.502 0.094 0.217 0.208 0.42 0.341 0.609 l 0.13 0.191 c 0.133 0.189 0.216 0.43 0.251 0.722 0.034 0.292 0.01 0.544 -0.075 0.756 l -1.723 4.503 c -0.125 0.304 -0.224 0.304 -0.224 0.304 l -0.749 0.002 c 0 0 -0.09 0.004 -0.222 -0.306 l -1.727 -4.507 c -0.082 -0.214 -0.105 -0.466 -0.069 -0.754 0.036 -0.288 0.121 -0.528 0.257 -0.72 l 0.126 -0.188 c 0.133 -0.189 0.246 -0.392 0.341 -0.609 0.094 -0.217 0.142 -0.384 0.142 -0.502 0 -0.117 0.081 -0.216 0.243 -0.297 0.162 -0.08 0.361 -0.121 0.595 -0.121 l 1.379 -0.008 c 0.235 0 0.435 0.041 0.599 0.124 z"/>
   <g transform="matrix(-0.0667802,0,0,-0.0417344,16.194516,59.996203)">
    <path transform="matrix(23.961043,0,0,23.961043,197.76847,-17.817911)" d="m -5.727 2.498 c -0.013 -0.18 -0.045 -0.358 -0.096 -0.537 -0.059 -0.195 -0.13 -0.454 -0.254 -0.586 -0.134 -0.143 -0.313 -0.135 -0.473 -0.165 c -0.144 -0.027 -0.289 -0.014 -0.434 -0.014 -0.147 0 -0.294 -0.013 -0.439 0.014 -0.16 0.03 -0.339 0.021 -0.473 0.165 -0.123 0.132 -0.196 0.391 -0.254 0.586 -0.052 0.18 -0.083 0.357 -0.096 0.537 l -0.01 0.217 c -0.001 0.138 0.003 0.277 0.002 0.416 0.005 0.781 0.005 1.562 0.02 2.342 0.016 1.561 0.061 3.12 0.117 4.68 0.06 1.56 0.143 3.122 0.252 4.682 0.112 1.56 0.24 3.122 0.441 4.682 0.025 0.194 0.179 0.355 0.381 0.381 0.242 0.031 0.46 -0.14 0.492 -0.381 0.2 -1.56 0.331 -3.121 0.441 -4.682 0.109 -1.561 0.193 -3.122 0.252 -4.682 0.056 -1.561 0.101 -3.12 0.117 -4.68 0.015 -0.78 0.015 -1.562 0.02 -2.342 -0.001 -0.138 0.003 -0.278 0.002 -0.416 z"/>
   </g>
  </g>
  <path d="m 3.979 48.26 4.956 4.943 0.701 -0.701 -4.956 -4.943 -0.701 0.701" style="visibility:visible;fill:#ececec;opacity:1;fill-opacity:1;display:inline;color:#000"/>
  <path d="m 14 50.27 0.009 9.564 0.991 0 -0.009 -9.564 -0.991 0 z" style="visibility:visible;fill:#ececec;opacity:1;fill-opacity:1;display:inline;color:#000"/>
  <path d="m 15.881 49.4 3.508 6.06 0.858 -0.495 -3.508 -6.06 -0.858 0.495 z" style="visibility:visible;fill:#ececec;opacity:1;fill-opacity:1;display:inline;color:#000"/>
 </g>
</svg>
