<svg xmlns="http://www.w3.org/2000/svg" viewBox="0 0 16 16">
 <g transform="translate(-773.0039,317.99981)" style="display:inline">
  <path d="m 10.996 0.031 c -1.22 0.475 -1.998 1.485 -2 2.594 c 0.002 1.109 0.78 2.118 2 2.594 l 0 2.471 c 0.169 0.08 0.34 0.154 0.504 0.248 c 1.12 0.646 1.944 1.602 2.496 2.713 l 0 -5.432 c 1.22 -0.475 1.998 -1.485 2 -2.594 -0.002 -1.109 -0.78 -2.118 -2 -2.594 l 0 1.969 c 0 0.554 -0.446 1 -1 1 l -1 0 c -0.554 0 -1 -0.446 -1 -1 z" transform="translate(773.0039,-317.99981)" style="fill:#bebebe;opacity:1;fill-opacity:1;stroke:none;fill-rule:nonzero"/>
  <path d="m 781 -310 c -1.036 0 -2.073 0.267 -3 0.803 -1.854 1.071 -3 3.056 -3 5.197 l -1.754 0 c -0.139 0 -0.25 0.111 -0.25 0.25 l 0 1.5 c 0 0.139 0.111 0.25 0.25 0.25 l 15.5 0 c 0.139 0 0.25 -0.111 0.25 -0.25 l 0 -1.5 c 0 -0.139 -0.111 -0.25 -0.25 -0.25 l -1.746 0 c 0 -2.141 -1.146 -4.127 -3 -5.197 -0.927 -0.535 -1.964 -0.803 -3 -0.803 z m 0 2.998 c 0.517 0 1.035 0.134 1.5 0.402 0.93 0.537 1.5 1.525 1.5 2.6 l -6 0 c 0 -1.074 0.57 -2.063 1.5 -2.6 0.465 -0.269 0.983 -0.402 1.5 -0.402 z" style="fill:#bebebe;opacity:1;fill-opacity:1;stroke:none;fill-rule:nonzero"/>
 </g>
</svg>
