<svg xmlns="http://www.w3.org/2000/svg" viewBox="0 0 16 16">
 <path d="m 5.905 3.03 c -1.01 0 -1.423 0.091 -1.745 0.185 -0.502 0.147 -1.015 0.411 -1.336 0.823 -1.883 2.417 -3.106 8.139 -2.767 8.764 0.339 0.627 3.39 -0.622 4.989 -3.03 0.121 -0.18 0.344 -0.536 0.344 -0.536 l 5.221 0 c 0 0 0.223 0.356 0.344 0.536 1.599 2.406 4.65 3.656 4.989 3.03 c 0.339 -0.625 -0.884 -6.348 -2.767 -8.764 -0.321 -0.413 -0.834 -0.676 -1.336 -0.823 -0.322 -0.095 -0.735 -0.185 -1.745 -0.185 m 1.021 1.594 c 0.272 0.01 0.505 0.197 0.576 0.46 0.089 0.332 -0.107 0.673 -0.439 0.762 -0.332 0.089 -0.672 -0.109 -0.76 -0.44 -0.089 -0.331 0.108 -0.672 0.439 -0.76 0.06 -0.016 0.122 -0.023 0.184 -0.021 z m -7.116 0.373 1 0 0 1 1 0 0 1 -1 0 l 0 1 -1 0 l 0 -1 -1 0 0 -1 1 0 m 8.638 -0.495 c 0.272 0.011 0.506 0.197 0.576 0.461 0.089 0.331 -0.108 0.672 -0.439 0.76 -0.332 0.089 -0.673 -0.107 -0.762 -0.439 -0.089 -0.332 0.108 -0.673 0.44 -0.762 0.06 -0.016 0.122 -0.023 0.184 -0.021 z m -2.4 0.643 c 0.272 0.011 0.506 0.197 0.576 0.461 0.089 0.331 -0.108 0.672 -0.439 0.76 c -0.331 0.089 -0.672 -0.108 -0.76 -0.439 -0.089 -0.331 0.108 -0.672 0.439 -0.76 c 0.06 -0.016 0.122 -0.024 0.184 -0.022 z m 1.459 0.879 c 0.295 -0.019 0.563 0.174 0.639 0.46 0.089 0.332 -0.109 0.672 -0.44 0.76 -0.331 0.089 -0.672 -0.108 -0.76 -0.439 -0.089 -0.331 0.108 -0.672 0.439 -0.76 0.04 -0.011 0.081 -0.018 0.122 -0.021 z" style="fill:#bebebe;fill-opacity:1"/>
</svg>
