<svg xmlns="http://www.w3.org/2000/svg" viewBox="0 0 16 16">
 <g transform="matrix(0.50000061,0,0,0.50000061,-2.9180928,-500.51223)" style="fill:#bebebe;fill-opacity:1">
  <path d="m 16.01 1001.02 0 18.736 c -1.396 -0.676 -3.301 -0.782 -5.158 -0.285 -3.31 0.887 -5.514 3.395 -4.922 5.601 0.592 2.206 3.753 3.275 7.06 2.389 2.867 -0.769 4.968 -2.784 5.01 -4.806 l 0.004 0 0 -13.254 13 1.734 0 13.869 c -1.396 -0.676 -3.301 -0.782 -5.158 -0.285 -3.31 0.887 -5.514 3.395 -4.922 5.601 0.592 2.206 3.753 3.275 7.06 2.389 2.868 -0.769 4.97 -2.785 5.01 -4.808 l 0.004 0 0 -24.605 z m 2 4.621 13 1.734 0 1.76 -13 -1.734 z"/>
 </g>
</svg>
