<svg xmlns="http://www.w3.org/2000/svg" viewBox="0 0 16 16">
 <path d="m 6.06 0.031 c -0.305 0.022 -0.597 0.122 -0.844 0.313 -0.659 0.509 -0.85 1.523 -0.313 2.219 0.239 0.309 0.56 0.596 0.969 0.938 0.204 0.171 0.406 0.33 0.656 0.469 0.021 0.012 0.041 0.02 0.063 0.031 l -5.094 0 c -0.277 0 -0.5 0.223 -0.5 0.5 l 0 3 c 0 0.277 0.223 0.5 0.5 0.5 l 0.5 0 0 7.5 c 0 0.277 0.223 0.5 0.5 0.5 l 11 0 c 0.277 0 0.5 -0.223 0.5 -0.5 l 0 -7.5 0.5 0 c 0.277 0 0.5 -0.223 0.5 -0.5 l 0 -3 c 0 -0.277 -0.223 -0.5 -0.5 -0.5 l -4.844 0 c 0.132 -0.083 0.261 -0.159 0.375 -0.25 0.306 -0.244 0.513 -0.381 0.75 -0.688 c 0.508 -0.657 0.319 -1.567 -0.281 -2.031 -0.278 -0.215 -0.663 -0.291 -1.031 -0.25 -0.368 0.041 -0.742 0.206 -0.969 0.5 -0.187 0.242 -0.276 0.45 -0.375 0.688 -0.018 -0.043 -0.045 -0.082 -0.063 -0.125 -0.103 -0.25 -0.205 -0.481 -0.313 -0.688 -0.108 -0.206 -0.165 -0.34 -0.313 -0.531 -0.266 -0.344 -0.659 -0.549 -1.063 -0.594 -0.101 -0.011 -0.211 -0.007 -0.313 0 z m 0.125 0.938 c 0.171 0.007 0.354 0.101 0.469 0.25 c 0.204 0.264 0.952 1.764 0.688 1.969 -0.264 0.204 -1.452 -0.955 -1.656 -1.219 -0.204 -0.264 -0.139 -0.639 0.125 -0.844 0.066 -0.051 0.144 -0.105 0.219 -0.125 0.056 -0.015 0.099 -0.033 0.156 -0.031 z m 3.406 0.781 c 0.104 -0.013 0.19 0.023 0.281 0.094 0.183 0.141 0.235 0.411 0.094 0.594 -0.141 0.183 -0.973 0.954 -1.156 0.813 -0.183 -0.141 0.359 -1.161 0.5 -1.344 0.071 -0.091 0.178 -0.143 0.281 -0.156 z m -7.594 3.25 5 0 0 2 -5 0 z m 7 0 5 0 0 2 -5 0 z m -6 3 4 0 0 7 -4 0 z m 6 0 4 0 0 7 -4 0 z" style="visibility:visible;fill:#bebebe;fill-opacity:1;stroke:none;display:inline;color:#000;fill-rule:nonzero"/>
</svg>
