<svg xmlns="http://www.w3.org/2000/svg" viewBox="0 0 16 16">
 <g transform="matrix(0.0675,0,0,0.06923077,0.16000023,14)" style="fill:#bebebe">
  <path d="m 145.78 -173.33 44.44 0 c 29.63 0 29.63 28.889 29.63 28.889 l 0 43.33 c 0 14.444 -20.931 28.889 -29.63 28.889 l 0 21.667 44.44 21.667 0 28.889 -133.33 0 0 -28.889 44.44 -21.667 0 -21.667 c 0 0 -29.63 -14.444 -29.63 -28.889 l 0 -43.33 c 0 0 0 -28.889 29.63 -28.889 z" style="color:#000"/>
 </g>
 <g transform="matrix(0.0525,0,0,0.05192308,-4.3199998,11)" style="fill:#bebebe">
  <path d="m 141 -154.07 55.57 0 0 77.04 38.1 38.519 l -57.14 38.519 l 0 19.259 -76.19 0 0 -26.667 39.668 -21.481 0 -28.889 c 0 0 -20.693 -8.116 -20.62 -19.259 l 0 -57.778 c 0 0 1.572 -19.259 20.62 -19.259 z" style="color:#000"/>
 </g>
 <g transform="matrix(0.075,0,0,0.075,-17.780636,12.526475)" style="fill:#bebebe"/>
</svg>
