<svg xmlns="http://www.w3.org/2000/svg" xmlns:svg="http://www.w3.org/2000/svg" id="svg4" width="240" height="240" version="1.1" viewBox="0 0 240 240"><metadata id="metadata10"/><path id="path2" d="m 173.64706,48.70588 -17.05882,17.05883 c 20.35293,12.35294 33.99999,34.58823 33.99999,60.11764 A 70.588235,70.588235 0 0 1 120,196.47059 70.588235,70.588235 0 0 1 49.41177,125.88235 c 0,-25.52941 13.647059,-47.7647 33.882353,-60.23529 L 66.352946,48.70588 C 41.882358,65.64706 25.882358,93.88235 25.882358,125.88235 A 94.117647,94.117647 0 0 0 120,220 94.117647,94.117647 0 0 0 214.11764,125.88235 c 0,-32 -16,-60.23529 -40.47058,-77.17647 M 131.7647,20 h -23.52941 v 117.64706 h 23.52941" style="fill:#fff;stroke-width:11.76470661"/></svg>