<svg xmlns="http://www.w3.org/2000/svg" xmlns:svg="http://www.w3.org/2000/svg" id="svg853" width="512" height="512" version="1.1" viewBox="0 0 135.467 135.467"><metadata id="metadata850"/><g id="layer1" transform="translate(0,-161.53332)"><g id="g11" transform="translate(1.6833333e-6,-8.4666667)"><path style="fill:#8ab4ff;fill-opacity:.94117647;stroke-width:2.20012879" id="path6" d="m 33.066693,269.01082 h 69.333277 c 16.72673,0 30.33336,-14.03017 30.33336,-31.27746 0,-17.24737 -13.60663,-31.27754 -30.33336,-31.27754 H 33.066693 c -16.72672,0 -30.3333597,14.03017 -30.3333597,31.27754 0,17.24729 13.6066397,31.27746 30.3333597,31.27746 z m 69.333277,-53.61859 c 11.94707,0 21.66673,10.0222 21.66673,22.34113 0,12.31885 -9.71966,22.34105 -21.66673,22.34105 -11.946977,0 -21.666637,-10.0222 -21.666637,-22.34105 0,-12.31893 9.71966,-22.34113 21.666637,-22.34113 z"/><ellipse id="path1490" cx="102.372" cy="237.714" rx="21.774" ry="22.329" style="opacity:1;fill:#fff;fill-opacity:1;stroke-width:.59941393"/></g></g></svg>