<svg xmlns="http://www.w3.org/2000/svg" xmlns:svg="http://www.w3.org/2000/svg" id="svg3819" width="240" height="240" version="1.1" viewBox="0 0 63.5 63.5"><metadata id="metadata3816"/><g id="layer1" transform="translate(0,-233.5)"><g id="g3831" transform="matrix(0.52916658,0,0,0.52916658,-34.240778,200.10183)"><path id="path479" d="m 174.70699,143.8475 c 0,-10.09752 -8.18781,-18.29264 -18.29268,-18.29264 -0.36099,0 -0.71461,0.0276 -1.07074,0.0461 -2.79512,-8.51223 -10.80975,-14.68291 -20.27073,-14.68291 -11.78536,0 -21.34146,9.56091 -21.34146,21.34142 0,0.26826 0.0313,0.56048 0.0415,0.82966 -6.93902,1.1463 -12.23658,7.14635 -12.23658,14.41465 0,8.07317 6.55366,14.63415 14.63415,14.63415 h 41.46339 v -0.0461 c 9.53171,-0.63423 17.07317,-8.56091 17.07317,-18.24387 z" style="clip-rule:evenodd;opacity:.8;fill:#fff;fill-rule:evenodd;stroke-width:2.43902421"/><path id="path481" d="m 113.73138,84.091415 h -4.87804 v 12.195152 h 4.87804 z M 74.706994,118.23779 v 4.87798 h 12.195125 v -4.87798 z m 8.482928,-21.731734 3.448782,-3.439001 8.624384,8.634095 -3.448782,3.43901 z m 0.492721,48.829284 3.448773,3.439 8.624393,-8.60976 -3.448782,-3.46343 z m 46.565857,-39.68292 -3.44879,-3.43909 8.62195,-8.634103 3.45122,3.46343 z m -21.2366,23.70732 c -2.94146,1.1463 -5.48292,2.99993 -7.50243,5.29263 -4.402443,-3.07313 -7.290242,-8.19513 -7.290242,-13.97559 0,-9.43905 7.643902,-17.07314 17.073172,-17.07314 4.78536,0 9.10243,1.97559 12.20243,5.14633 -7.83903,3.87798 -13.48049,11.56093 -14.48293,20.60977 z" style="clip-rule:evenodd;fill:#fcde00;fill-rule:evenodd;stroke-width:2.43902421"/></g></g></svg>