<?xml version="1.0" encoding="UTF-8" standalone="no"?>
<!-- Created with Inkscape (http://www.inkscape.org/) -->

<svg
   xmlns:dc="http://purl.org/dc/elements/1.1/"
   xmlns:cc="http://creativecommons.org/ns#"
   xmlns:rdf="http://www.w3.org/1999/02/22-rdf-syntax-ns#"
   xmlns:svg="http://www.w3.org/2000/svg"
   xmlns="http://www.w3.org/2000/svg"
   xmlns:sodipodi="http://sodipodi.sourceforge.net/DTD/sodipodi-0.dtd"
   xmlns:inkscape="http://www.inkscape.org/namespaces/inkscape"
   width="100mm"
   height="100mm"
   viewBox="0 0 100 100"
   version="1.1"
   id="svg4010"
   inkscape:version="0.92.4 5da689c313, 2019-01-14"
   sodipodi:docname="storm_icon.svg">
  <defs
     id="defs4004" />
  <sodipodi:namedview
     id="base"
     pagecolor="#222222"
     bordercolor="#666666"
     borderopacity="1.0"
     inkscape:pageopacity="0"
     inkscape:pageshadow="2"
     inkscape:zoom="0.7"
     inkscape:cx="49.056047"
     inkscape:cy="328.24357"
     inkscape:document-units="mm"
     inkscape:current-layer="layer1"
     showgrid="false"
     inkscape:window-width="1289"
     inkscape:window-height="742"
     inkscape:window-x="45"
     inkscape:window-y="26"
     inkscape:window-maximized="1" />
  <metadata
     id="metadata4007">
    <rdf:RDF>
      <cc:Work
         rdf:about="">
        <dc:format>image/svg+xml</dc:format>
        <dc:type
           rdf:resource="http://purl.org/dc/dcmitype/StillImage" />
        <dc:title></dc:title>
      </cc:Work>
    </rdf:RDF>
  </metadata>
  <g
     inkscape:label="Layer 1"
     inkscape:groupmode="layer"
     id="layer1"
     transform="translate(0,-197)">
    <g
       id="g4037"
       transform="translate(84.264007,161.61031)">
      <path
         id="path501"
         d="m -44.118709,69.172222 h 19.706722 l -4.22287,16.891479 h 9.853366 l -24.633415,42.228699 2.11144,-28.15243 h -9.853366 z"
         style="clip-rule:evenodd;fill:#ffffff;fill-rule:evenodd;stroke-width:2.81524634"
         inkscape:connector-curvature="0" />
      <path
         id="path503"
         d="m -10.335752,55.096061 c -0.84452,0 -1.675081,0.0532 -2.497129,0.146836 -3.296653,-11.460881 -13.839755,-19.853206 -26.359155,-19.853206 -15.160099,0 -27.448647,12.28859 -27.448647,27.448679 0,1.266834 0.115447,2.508451 0.284308,3.727404 -8.124806,1.227465 -14.360576,8.217718 -14.360576,16.683141 0,9.326969 7.564573,16.891475 16.891479,16.891475 h 6.894542 l 0.284309,-1.247146 7.038113,-30.967746 0.99657,-4.383272 h 4.495943 19.706721 7.212667 l -1.748266,6.995892 -2.474604,9.895587 h 2.640699 9.8026867 l -4.9407497,8.46819 -6.556713,11.238495 h 10.140516 c 12.4377566,0 22.521975,-10.084235 22.521975,-22.522003 0,-12.437767 -10.0870274,-22.5219 -22.524784,-22.5219 z"
         style="clip-rule:evenodd;opacity:0.8;fill:#ffffff;fill-rule:evenodd;stroke-width:2.81524634"
         inkscape:connector-curvature="0" />
      <path
         id="path505"
         d="m -67.927255,102.48222 -9.098873,12.52789 3.983569,2.89405 9.101692,-12.52501 z m 15.557057,14.58306 -9.93219,13.66513 3.983569,2.89693 9.93219,-13.66523 z m 22.485372,15.42748 15.934298,-21.9138 3.9835693,2.89405 -15.9371073,21.91668 z m 27.5950469,-22.76971 -9.1016929,12.52789 3.9863893,2.89682 9.1016926,-12.52778 z"
         style="clip-rule:evenodd;fill:#5ac8fa;fill-rule:evenodd;stroke-width:2.81524634"
         inkscape:connector-curvature="0" />
    </g>
  </g>
</svg>
