<svg xmlns="http://www.w3.org/2000/svg" viewBox="0 0 16 16">
 <path d="m 14.535 8 c 0 3.609 -2.926 6.535 -6.535 6.535 -3.609 0 -6.535 -2.926 -6.535 -6.535 0 -3.609 2.926 -6.535 6.535 -6.535 3.609 0 6.535 2.926 6.535 6.535 z" style="fill:#fff;stroke:#777;stroke-width:0.264"/>
 <path d="m 8.04 3.332 c -2.316 0 -4.207 1.961 -4.348 4.434 l -1.359 0 l 2.184 3.539 l 2.188 -3.539 l -1.555 0 c 0.133 -1.602 1.375 -2.855 2.891 -2.855 c 0.563 0 1.09 0.172 1.535 0.469 l 0.746 -1.344 c -0.664 -0.441 -1.445 -0.703 -2.281 -0.703 m 3.445 1.363 l -2.188 3.539 l 1.555 0 c -0.133 1.602 -1.375 2.855 -2.891 2.855 c -0.563 0 -1.09 -0.172 -1.535 -0.469 l -0.746 1.344 c 0.664 0.441 1.445 0.703 2.281 0.703 c 2.316 0 4.207 -1.961 4.348 -4.434 l 1.359 0 Z" style="fill:#dc322f;fill-opacity:1"/>
</svg>
