<svg width="16" xmlns="http://www.w3.org/2000/svg" height="16" viewBox="0 0 16 16" xmlns:xlink="http://www.w3.org/1999/xlink">
<path style="fill:#fff;stroke:#777;stroke-width:.5" d="M 25.932953 35.186401 C 25.932953 42.095309 20.446393 47.695712 13.677926 47.695712 C 6.90946 47.695712 1.4229 42.095309 1.4229 35.186401 C 1.4229 28.277492 6.90946 22.677089 13.677926 22.677089 C 20.446393 22.677089 25.932953 28.277492 25.932953 35.186401 Z " transform="matrix(.53326 0 0 .52242 .70606 -10.3822)"/>
<path style="fill:#dc322f" d="M 6.21875 3 L 6.21875 9 C 5.789062 8.835938 5.226562 8.808594 4.648438 8.960938 C 3.566406 9.25 2.839844 10.054688 3.03125 10.761719 C 3.222656 11.464844 4.253906 11.804688 5.335938 11.519531 C 6.253906 11.273438 6.914062 10.65625 6.976562 10.042969 L 6.984375 10.042969 L 6.984375 5.628906 L 10.902344 6.105469 L 10.902344 10.378906 C 10.472656 10.214844 9.910156 10.1875 9.332031 10.339844 C 8.25 10.628906 7.523438 11.433594 7.714844 12.140625 C 7.90625 12.84375 8.9375 13.183594 10.019531 12.898438 C 10.941406 12.652344 11.597656 12.035156 11.660156 11.421875 L 11.667969 11.421875 L 11.667969 3.710938 Z "/>
</svg>
