<svg width="16" xmlns="http://www.w3.org/2000/svg" height="16" viewBox="0 0 16 16" xmlns:xlink="http://www.w3.org/1999/xlink">
<path style="fill:#fff;stroke:#777;stroke-width:.792" d="M 43.605469 24 C 43.605469 34.828125 34.828125 43.605469 24 43.605469 C 13.171875 43.605469 4.394531 34.828125 4.394531 24 C 4.394531 13.171875 13.171875 4.394531 24 4.394531 C 34.828125 4.394531 43.605469 13.171875 43.605469 24 Z " transform="scale(.33333)"/>
<path style="fill:#dc322f" d="M 7.605469 12.347656 C 7.390625 12.113281 6.855469 11.660156 6.414062 11.339844 C 5.105469 10.386719 4.925781 10.25 4.394531 9.777344 C 3.414062 8.910156 3 8.035156 3 6.851562 C 3 6.273438 3.042969 6.050781 3.210938 5.710938 C 3.496094 5.132812 3.914062 4.703125 4.449219 4.441406 C 4.832031 4.253906 5.019531 4.171875 5.652344 4.167969 C 6.316406 4.164062 6.457031 4.238281 6.847656 4.445312 C 7.324219 4.699219 7.8125 5.234375 7.914062 5.617188 L 7.976562 5.855469 L 8.128906 5.527344 C 9 3.691406 11.78125 3.71875 12.746094 5.574219 C 13.054688 6.164062 13.089844 7.417969 12.816406 8.128906 C 12.460938 9.050781 11.792969 9.753906 10.253906 10.832031 C 9.242188 11.539062 8.097656 12.609375 8.019531 12.761719 C 7.925781 12.933594 8.015625 12.789062 7.605469 12.347656 Z "/>
</svg>
