<svg width="16" xmlns="http://www.w3.org/2000/svg" height="16" viewBox="0 0 16 16" xmlns:xlink="http://www.w3.org/1999/xlink">
<path style="fill:#fff;stroke:#777;stroke-width:.5" d="M 25.932953 35.186401 C 25.932953 42.095309 20.446393 47.695712 13.677926 47.695712 C 6.90946 47.695712 1.4229 42.095309 1.4229 35.186401 C 1.4229 28.277492 6.90946 22.677089 13.677926 22.677089 C 20.446393 22.677089 25.932953 28.277492 25.932953 35.186401 Z " transform="matrix(.53326 0 0 .52242 .70606 -10.3822)"/>
<path style="fill:#dc322f" d="M 8 3.667969 C 5.605469 3.667969 3.667969 5.605469 3.667969 8 C 3.667969 10.394531 5.605469 12.332031 8 12.332031 C 10.394531 12.332031 12.332031 10.394531 12.332031 8 C 12.332031 5.605469 10.394531 3.667969 8 3.667969 Z M 8 4.75 C 9.796875 4.75 11.25 6.203125 11.25 8 C 11.25 9.796875 9.796875 11.25 8 11.25 C 6.203125 11.25 4.75 9.796875 4.75 8 C 4.75 6.203125 6.203125 4.75 8 4.75 Z M 7.964844 5.292969 C 7.6875 5.292969 7.457031 5.519531 7.457031 5.800781 L 7.457031 8.035156 C 7.457031 8.3125 7.6875 8.542969 7.964844 8.542969 C 7.976562 8.542969 7.988281 8.542969 8 8.542969 L 9.894531 8.542969 C 10.195312 8.542969 10.4375 8.300781 10.4375 8 C 10.4375 7.699219 10.195312 7.457031 9.894531 7.457031 L 8.542969 7.457031 L 8.542969 5.800781 C 8.542969 5.519531 8.3125 5.292969 8.035156 5.292969 Z "/>
</svg>
