<svg width="16" xmlns="http://www.w3.org/2000/svg" height="16" viewBox="0 0 16 16" xmlns:xlink="http://www.w3.org/1999/xlink">
<g style="stroke:#777">
<path style="fill:#fff;stroke-width:.5" d="M 25.932953 35.186401 C 25.932953 42.095309 20.446393 47.695712 13.677926 47.695712 C 6.90946 47.695712 1.4229 42.095309 1.4229 35.186401 C 1.4229 28.277492 6.90946 22.677089 13.677926 22.677089 C 20.446393 22.677089 25.932953 28.277492 25.932953 35.186401 Z " transform="matrix(.53326 0 0 .52242 .70606 -10.3822)"/>
<path style="fill:#bebebe" d="M 22.40625 12.503906 C 21.960938 12.503906 21.597656 12.878906 21.597656 13.335938 L 21.597656 14.953125 C 20.789062 15.175781 20.015625 15.503906 19.300781 15.914062 L 18.152344 14.753906 C 17.988281 14.589844 17.789062 14.507812 17.578125 14.507812 C 17.367188 14.507812 17.15625 14.578125 16.992188 14.742188 L 14.742188 16.992188 C 14.414062 17.320312 14.425781 17.824219 14.753906 18.152344 L 15.914062 19.300781 C 15.503906 20.015625 15.175781 20.789062 14.953125 21.597656 L 13.335938 21.597656 C 12.878906 21.597656 12.503906 21.960938 12.503906 22.40625 L 12.503906 25.59375 C 12.503906 26.039062 12.878906 26.402344 13.335938 26.402344 L 14.953125 26.402344 C 15.175781 27.210938 15.503906 27.984375 15.914062 28.699219 L 14.753906 29.847656 C 14.425781 30.175781 14.414062 30.679688 14.742188 31.007812 L 16.992188 33.257812 C 17.320312 33.585938 17.824219 33.574219 18.152344 33.246094 L 19.300781 32.085938 C 20.015625 32.496094 20.789062 32.824219 21.597656 33.046875 L 21.597656 34.664062 C 21.597656 35.121094 21.960938 35.496094 22.40625 35.496094 L 25.59375 35.496094 C 26.039062 35.496094 26.402344 35.121094 26.402344 34.664062 L 26.402344 33.046875 C 27.210938 32.824219 27.984375 32.496094 28.699219 32.085938 L 29.847656 33.246094 C 30.175781 33.574219 30.679688 33.585938 31.007812 33.257812 L 33.257812 31.007812 C 33.585938 30.679688 33.574219 30.175781 33.246094 29.847656 L 32.085938 28.699219 C 32.496094 27.984375 32.824219 27.210938 33.046875 26.402344 L 34.664062 26.402344 C 35.121094 26.402344 35.496094 26.039062 35.496094 25.59375 L 35.496094 22.40625 C 35.496094 21.960938 35.121094 21.597656 34.664062 21.597656 L 33.046875 21.597656 C 32.824219 20.789062 32.496094 20.015625 32.085938 19.300781 L 33.246094 18.152344 C 33.574219 17.824219 33.585938 17.320312 33.257812 16.992188 L 31.007812 14.742188 C 30.679688 14.414062 30.175781 14.425781 29.847656 14.753906 L 28.699219 15.914062 C 27.984375 15.503906 27.210938 15.175781 26.402344 14.953125 L 26.402344 13.335938 C 26.402344 12.878906 26.039062 12.503906 25.59375 12.503906 Z M 24 20.519531 C 25.921875 20.519531 27.480469 22.078125 27.480469 24 C 27.480469 25.921875 25.921875 27.480469 24 27.480469 C 22.078125 27.480469 20.519531 25.921875 20.519531 24 C 20.519531 22.078125 22.078125 20.519531 24 20.519531 Z " transform="scale(.33333)"/>
</g>
</svg>
