<svg width="16" xmlns="http://www.w3.org/2000/svg" height="16" viewBox="0 0 16 16" xmlns:xlink="http://www.w3.org/1999/xlink">
<path style="fill:#fff;stroke:#777;stroke-width:.5" d="M 25.932953 35.186401 C 25.932953 42.095309 20.446393 47.695712 13.677926 47.695712 C 6.90946 47.695712 1.4229 42.095309 1.4229 35.186401 C 1.4229 28.277492 6.90946 22.677089 13.677926 22.677089 C 20.446393 22.677089 25.932953 28.277492 25.932953 35.186401 Z " transform="matrix(.53326 0 0 .52242 .70606 -10.3822)"/>
<g style="fill:#427fec">
<path style="fill-opacity:.6" d="M 5.925781 6.523438 C 5.359375 6.523438 4.90625 6.972656 4.90625 7.523438 C 4.910156 7.585938 4.914062 7.667969 4.917969 7.742188 C 4.824219 7.785156 4.816406 7.980469 4.898438 8.183594 C 4.929688 8.265625 4.972656 8.328125 5.015625 8.378906 C 5.027344 8.433594 5.023438 8.460938 5.039062 8.523438 C 5.074219 8.644531 5.222656 8.878906 5.363281 9.070312 C 5.375 9.21875 5.390625 9.367188 5.363281 9.535156 C 4.964844 9.882812 3.945312 10.03125 3.945312 10.390625 L 3.925781 10.523438 L 7.925781 10.523438 L 7.902344 10.390625 C 7.902344 10.082031 6.878906 9.894531 6.488281 9.535156 C 6.46875 9.398438 6.46875 9.261719 6.476562 9.128906 C 6.601562 8.925781 6.769531 8.65625 6.8125 8.523438 C 6.824219 8.457031 6.832031 8.414062 6.84375 8.355469 C 6.878906 8.308594 6.914062 8.253906 6.941406 8.183594 C 7.019531 7.992188 7.011719 7.808594 6.929688 7.753906 C 6.933594 7.675781 6.9375 7.59375 6.941406 7.523438 C 6.941406 6.972656 6.488281 6.523438 5.925781 6.523438 Z "/>
<path d="M 9.074219 5 C 8.230469 5 7.550781 5.667969 7.550781 6.5 C 7.554688 6.589844 7.558594 6.714844 7.566406 6.824219 C 7.421875 6.886719 7.414062 7.183594 7.535156 7.488281 C 7.585938 7.609375 7.644531 7.703125 7.714844 7.777344 C 7.730469 7.863281 7.726562 7.902344 7.746094 8 C 7.804688 8.179688 8.027344 8.527344 8.234375 8.816406 C 8.253906 9.039062 8.273438 9.265625 8.234375 9.515625 C 7.636719 10.035156 6.105469 10.257812 6.109375 10.796875 L 6.074219 11 L 12.074219 11 L 12.042969 10.796875 C 12.039062 10.335938 10.507812 10.054688 9.917969 9.515625 C 9.894531 9.3125 9.890625 9.105469 9.902344 8.902344 C 10.089844 8.597656 10.34375 8.199219 10.40625 8 C 10.429688 7.898438 10.4375 7.832031 10.453125 7.746094 C 10.511719 7.671875 10.558594 7.589844 10.601562 7.488281 C 10.71875 7.199219 10.710938 6.921875 10.582031 6.839844 C 10.589844 6.722656 10.597656 6.601562 10.601562 6.5 C 10.601562 5.667969 9.921875 5 9.074219 5 Z "/>
</g>
</svg>
