<svg width="16" xmlns="http://www.w3.org/2000/svg" height="16" viewBox="0 0 16 16" xmlns:xlink="http://www.w3.org/1999/xlink">
<path style="fill:#fff;stroke:#777;stroke-width:.5" d="M 25.932953 35.186401 C 25.932953 42.095309 20.446393 47.695712 13.677926 47.695712 C 6.90946 47.695712 1.4229 42.095309 1.4229 35.186401 C 1.4229 28.277492 6.90946 22.677089 13.677926 22.677089 C 20.446393 22.677089 25.932953 28.277492 25.932953 35.186401 Z " transform="matrix(.53326 0 0 .52242 .70606 -10.3822)"/>
<g style="fill:#dc322f">
<path d="M 7.851562 5.34375 C 4.925781 5.460938 2.074219 6.777344 3.285156 9.441406 C 5.050781 8.828125 7.507812 9.742188 6.484375 10.191406 C 8.496094 11.71875 13.460938 9.253906 12.964844 7.160156 C 12.453125 5.882812 10.128906 5.25 7.851562 5.34375 Z "/>
<path d="M 11.667969 3.179688 L 7.019531 10.554688 C 6.65625 10.550781 6.320312 10.386719 6.074219 10.058594 L 11.054688 2.855469 C 11.390625 2.78125 11.59375 2.890625 11.667969 3.179688 Z "/>
<path d="M 6.046875 11.839844 C 6.570312 11.773438 7.375 11.144531 7 10.230469 C 6.097656 9.984375 6.300781 9.859375 6.300781 9.859375 C 5.058594 10.140625 4.117188 11.488281 4.375 12.34375 C 4.542969 12.886719 4.515625 12.832031 4.515625 12.832031 C 4.859375 11.78125 4.863281 11.976562 6.046875 11.839844 Z "/>
</g>
</svg>
