<svg width="16" xmlns="http://www.w3.org/2000/svg" height="16" viewBox="0 0 16 16" xmlns:xlink="http://www.w3.org/1999/xlink">
<g style="stroke:#777">
<path style="fill:#fff;stroke-width:.5" d="M 25.932953 35.186401 C 25.932953 42.095309 20.446393 47.695712 13.677926 47.695712 C 6.90946 47.695712 1.4229 42.095309 1.4229 35.186401 C 1.4229 28.277492 6.90946 22.677089 13.677926 22.677089 C 20.446393 22.677089 25.932953 28.277492 25.932953 35.186401 Z " transform="matrix(.53326 0 0 .52242 .70606 -10.3822)"/>
<g style="fill:#bebebe">
<path d="M 32.506454 31.06112 C 32.506454 33.768151 29.623641 35.971276 26.061141 35.971276 C 22.498641 35.971276 19.615829 33.768151 19.615829 31.06112 C 19.615829 28.354089 22.498641 26.162682 26.061141 26.162682 C 29.623641 26.162682 32.506454 28.354089 32.506454 31.06112 Z " transform="matrix(.33333 0 0 .33333 -.00345 .17754)"/>
<g style="fill-rule:evenodd">
<path d="M 21.373641 14.889245 C 21.373641 17.057214 20.061141 18.815026 18.443954 18.815026 C 16.826766 18.815026 15.514266 17.057214 15.514266 14.889245 C 15.514266 12.721276 16.826766 10.963464 18.443954 10.963464 C 20.061141 10.963464 21.373641 12.721276 21.373641 14.889245 Z " transform="matrix(.33333 0 0 .33333 -.00345 .17754)"/>
<path d="M 31.920516 14.889245 C 31.920516 17.057214 30.608016 18.815026 28.990829 18.815026 C 27.373641 18.815026 26.061141 17.057214 26.061141 14.889245 C 26.061141 12.721276 27.373641 10.963464 28.990829 10.963464 C 30.608016 10.963464 31.920516 12.721276 31.920516 14.889245 Z " transform="matrix(.33333 0 0 .33333 -.00345 .17754)"/>
</g>
</g>
</g>
</svg>
