<svg width="16" xmlns="http://www.w3.org/2000/svg" height="16" viewBox="0 0 16 16" xmlns:xlink="http://www.w3.org/1999/xlink">
<path style="fill:#fff;stroke:#777;stroke-width:.792" d="M 43.605469 24 C 43.605469 34.828125 34.828125 43.605469 24 43.605469 C 13.171875 43.605469 4.394531 34.828125 4.394531 24 C 4.394531 13.171875 13.171875 4.394531 24 4.394531 C 34.828125 4.394531 43.605469 13.171875 43.605469 24 Z " transform="scale(.33333)"/>
<path style="fill:#53a93e;fill-opacity:.941" d="M 11.117188 3.335938 C 11.011719 3.34375 10.90625 3.410156 10.820312 3.511719 L 8.917969 5.554688 C 8.835938 5.652344 8.789062 5.769531 8.789062 5.910156 C 8.789062 5.953125 8.796875 5.996094 8.808594 6.035156 C 8.632812 6.261719 8.675781 6.519531 8.675781 7.316406 C 8.675781 7.550781 8.207031 7.808594 8.089844 7.808594 C 8.082031 7.808594 8.085938 7.808594 8.078125 7.808594 C 7.707031 7.808594 6.480469 7.882812 6.105469 8.546875 C 5.734375 9.210938 4.332031 12.222656 4.332031 12.667969 C 4.894531 12.667969 8.976562 10.035156 9.1875 9.789062 C 9.4375 9.488281 9.308594 8.886719 9.144531 8.484375 C 9.148438 8.480469 9.144531 8.472656 9.144531 8.46875 C 9.152344 8.457031 9.152344 8.4375 9.136719 8.40625 C 9.046875 8.214844 9.007812 8.027344 9.007812 7.761719 C 9.007812 7.089844 9.054688 6.75 9.1875 6.582031 C 9.195312 6.566406 9.207031 6.546875 9.214844 6.53125 C 9.417969 6.566406 9.703125 6.441406 9.832031 6.289062 L 11.515625 4.335938 C 11.6875 4.136719 11.726562 3.839844 11.558594 3.640625 L 11.417969 3.472656 C 11.332031 3.375 11.222656 3.324219 11.117188 3.335938 Z "/>
</svg>
