<svg width="16" xmlns="http://www.w3.org/2000/svg" height="16" viewBox="0 0 16 16" xmlns:xlink="http://www.w3.org/1999/xlink">
<path style="fill:#fff;stroke:#777;stroke-width:.5" d="M 25.932953 35.186401 C 25.932953 42.095309 20.446393 47.695712 13.677926 47.695712 C 6.90946 47.695712 1.4229 42.095309 1.4229 35.186401 C 1.4229 28.277492 6.90946 22.677089 13.677926 22.677089 C 20.446393 22.677089 25.932953 28.277492 25.932953 35.186401 Z " transform="matrix(.53326 0 0 .52242 .70606 -10.3822)"/>
<g style="fill:#dc322f">
<path d="M 8 10.679688 L 8 11.566406 L 6.578125 12.5 "/>
<path d="M 8 10.679688 L 8 11.566406 L 9.417969 12.5 "/>
<path d="M 4.082031 11.042969 L 4.113281 5.433594 L 11.886719 5.453125 L 11.917969 11.027344 Z "/>
<path d="M 3.839844 4.957031 L 12.160156 4.957031 L 12.160156 5.972656 L 3.839844 5.972656 Z "/>
</g>
</svg>
