<svg width="16" xmlns="http://www.w3.org/2000/svg" height="16" viewBox="0 0 16 16" xmlns:xlink="http://www.w3.org/1999/xlink">
<defs/>
<rect width="13" x="1.5" y="1.5" rx="6.499" height="13" style="fill:#427fec;fill-rule:evenodd"/>
<path style="fill:#fff" d="M 1.8722468,8.177463 1.9412128,7.8410786 2.6966269,8.1484995 3.217617,8.6183611 3.665385,8.6820401 C 3.5054853,9.0339311 3.1817543,9.6011084 3.2406867,9.993936 c 0.034278,0.228472 0.2747641,0.554057 0.4121802,0.740012 0.1919692,0.259721 0.5534595,0.413111 0.6501169,0.740077 l 0.016138,0.538213 0.105243,0.403661 c -0.021004,0.171019 -0.1857279,0.467608 -0.077134,0.626381 0.1194109,0.174616 0.5611841,0.394207 0.7662912,0.449107 0.1958311,0.0524 0.2172117,-0.146462 0.1381028,-0.268166 l 0.2557978,-0.342506 0.3237309,-0.232979 0.2279699,-0.7681 0.4903544,-0.30917 c 0.200901,-0.292756 0.055281,-0.535792 0.1304587,-0.836485 L 7.0102875,9.825745 C 6.6365911,9.6896164 6.1014758,9.5224955 5.83785,9.2202542 L 5.7688841,9.2538992 5.6999179,8.9511542 5.2861168,8.7493231 5.2171505,8.8165992 5.1136943,8.3456615 4.5619579,8.3030104 4.1481568,8.0823414 C 3.9696716,8.057578 3.732563,8.3426026 3.6653894,8.4802163 L 3.4240051,8.4465713 3.4929713,8.3792952 3.2860714,8.2447431 3.3205616,8.3792952 C 3.171834,8.2293013 3.1464202,8.0403876 3.1826293,7.84108 L 2.941245,7.7401729 2.9067547,7.84108 C 2.8636278,7.674604 2.8813693,7.4595545 3.0102109,7.3365042 2.8212144,7.2107646 2.6935908,7.3287571 2.5619254,7.4710562 L 2.2860578,6.9328423 c -0.075972,0.1650982 -0.048501,0.3298588 -0.03449,0.5045758 l -0.068966,0 C 2.1673704,7.2491781 2.1197052,7.0434791 2.2175314,6.8660699 2.400342,6.5345303 2.9489285,6.3940903 3.2860671,6.4619059 l -0.034491,0.067276 0.3103519,0.269107 C 3.563348,6.2839239 3.7705193,6.2295649 4.0619725,5.8551017 L 4.2660119,5.493961 C 4.4921891,5.2512926 4.8432996,5.0859939 5.1467874,4.9768719 L 5.5274856,4.7463474 C 5.4043731,4.5384959 5.0800621,4.5983056 4.8722998,4.6117953 5.2458929,4.4044141 5.754352,4.5163665 6.0102527,4.1408574 5.7310752,3.9426941 5.7309718,3.4255719 5.286101,3.6362816 L 5.3550672,3.4344521 4.9757508,3.2662606 4.6990891,3.8288616 4.3205651,4.275411 4.2860749,4.0399435 C 4.1402107,3.9738433 3.7383748,3.8582275 3.7305464,3.6698201 3.7220373,3.4650632 4.3704907,3.1550415 4.5274592,3.0307917 L 4.458493,3.1989832 4.7257394,3.1746898 C 4.7823958,3.1397856 5.3205445,2.4002947 5.389546,2.8625999 5.7634495,3.0008457 5.8055878,3.1586283 6.1826651,2.9298759 L 5.9412812,2.8289552 C 5.9032453,2.4967362 5.6026194,2.4927534 5.3205785,2.492571 L 6.2171482,2.0889107 C 6.3169752,2.3277468 6.6301226,2.3766565 6.7314347,2.5966281 6.8034067,2.7529221 6.5895004,2.8471736 6.5949205,2.9971468 6.6015905,3.1820515 6.7857865,3.4085115 6.8723396,3.569 L 7.3910748,3.0159143 C 7.6773218,2.867034 8.1375373,2.8509117 8.3655072,2.61036 8.6294434,2.3318277 8.4843365,1.8887756 8.9758299,1.8870811 c -0.099726,-0.040923 -0.2603497,-0.071993 -0.3448351,0 l -0.103442,-0.1009212 0.1379321,0 C 8.5933848,1.6896935 8.5446843,1.6377641 8.4241006,1.6179687 8.2855445,1.4508587 7.9666777,1.5296229 7.7689152,1.5113339 7.0801768,1.4476548 6.3362657,1.6636755 5.699908,1.875752 3.5288299,2.5992773 1.5851702,4.9280454 1.5002962,7.2355721 1.4906526,7.4975474 1.7189598,7.613902 1.8320924,7.8144546 l 0.040149,0.3629918 M 11.010356,2.5261979 c -0.121213,0.096813 -0.327663,0.144961 -0.482769,0.1681916 l -0.280938,0.378096 -0.3288335,0.2672226 c -0.052869,0.1225163 0.031965,0.3077917 0.058032,0.431109 L 10.320681,3.6026257 c 0.04959,0.1671496 0.183729,0.2101051 0.310353,0.3027463 0.204417,-0.3783991 0.02842,-0.7399673 0.517251,-0.9418758 l -0.310352,0.3700225 0.103456,-0.067276 0.03449,0.2018294 0.03449,-0.2691069 c 0.09107,0.3034519 -0.0042,0.7209383 -0.344835,0.8354763 l -0.344835,-0.028152 0,-0.2018294 C 10.124558,3.8443848 10.131076,3.9396892 10.182768,4.1072041 10.049657,4.0703082 9.9705224,4.0767964 9.8724167,4.1744802 9.7670743,4.0688832 9.6811369,3.9878546 9.6655156,3.8380958 9.5985488,3.7730333 9.5689657,3.7287082 9.5620733,3.6362649 L 9.320689,3.6026338 9.4241455,4.1408477 C 9.3321478,3.9724875 9.2366944,3.9320885 9.0448287,3.9726562 L 9.1482851,4.3763166 9.2862173,4.3426718 9.1827754,4.3090407 9.3207075,4.0735718 9.3896736,4.4435941 9.7000253,4.3763182 c -0.086935,0.081041 -0.1559686,0.1007412 -0.2758686,0.100921 l 0.03449,0.1009211 -0.172418,0 0.2413843,0.4036604 c -0.5650104,0.00457 -0.5717001,0.286498 -0.5517348,0.7400447 0.1102777,0.00775 0.1643487,0.023684 0.2413842,0.1009211 0.4562858,-0.2345281 0.5617699,-0.6705484 1.1034696,-0.8073221 0.0879,0.2666513 0.359284,0.2501691 0.275867,0.5718532 0.266144,-0.052984 0.34063,-0.2713951 0.172418,-0.4709378 0.226764,0.1317575 0.292109,0.4023822 0.448285,0.6054914 0.109937,-0.1408109 0.06704,-0.3018044 0.241385,-0.4036605 l 0,0.100921 c 0.29211,0.2528601 0.493561,0.3096414 0.862086,0.4372999 -0.126658,0.1753909 -0.279386,0.3474837 -0.517251,0.3330863 -0.291179,-0.017596 -0.662738,-0.2961847 -0.862088,0.036937 L 10.386597,5.7975319 C 10.078832,5.6709205 9.7758601,5.7900613 9.4586468,5.7555172 l -0.1379322,0.067276 0.068966,0.033645 C 8.7579094,6.1337197 8.4076965,6.8639753 8.341971,7.4710797 L 8.221383,7.8747416 c 0.067179,0.3941743 0.4092149,0.8025771 0.6967384,1.0708098 0.2024524,0.188846 0.3479719,-0.1809399 0.5405282,0.00567 0.2548672,-0.094115 0.6395654,-0.2577033 0.8733274,0.00498 0.153555,0.1725977 -0.0062,0.3149219 0.04704,0.4995968 0.09217,0.3195311 0.311798,0.6937578 0.311281,1.0427898 l -0.08645,0.84096 c 0.07554,0.512345 0.367524,0.943221 0.372076,1.480089 0.422803,-0.04248 0.897916,-0.250001 1.132712,-0.60549 l 0.100834,-0.299718 0.174212,-0.207887 -0.06562,-0.330329 c 0.0987,-0.231061 0.497665,-0.255651 0.55777,-0.508108 0.08186,-0.343683 -0.132033,-0.751446 -0.0045,-1.1095617 C 13.068,9.2064057 13.616046,8.8025434 13.631113,8.1775416 l -0.4138,0.033645 c 0.37218,-0.4455395 1.161024,-0.6697058 0.758636,-1.3455347 l -0.172418,0.2018295 -0.06897,0 C 13.601441,6.7949439 13.389994,6.7667884 13.389719,6.4283525 13.712518,6.6993768 14.047005,6.708022 14.355254,7.0338438 14.689191,6.8575108 14.352954,6.088908 14.263144,5.8228625 13.964688,4.9385081 13.475368,4.1001723 12.80339,3.4345365 12.563144,3.1965511 12.371208,2.9083847 12.010374,2.8626833 l 0.03449,-0.1009211 c -0.280282,-0.03619 -0.749222,-0.038487 -0.965538,-0.2354689 l -0.06897,0 z"/>
<rect width="12" x="2" y="2" rx="5.999" height="12" style="fill:none;stroke:#427fec"/>
</svg>
