<svg xmlns="http://www.w3.org/2000/svg" viewBox="0 0 32 32">
 <rect width="10" height="18.5" x="11" y="3" rx="5" ry="5.75" style="fill:#d6d6d6;opacity:1;fill-opacity:1;stroke:none;fill-rule:nonzero"/>
 <path d="m 21 12 0 1 -3 0 c -0.554 0 -1 -0.223 -1 -0.5 0 -0.277 0.446 -0.5 1 -0.5 l 3 0 z" style="fill:#828282;opacity:1;fill-opacity:1;stroke:none;fill-rule:nonzero"/>
 <path d="m 21 10 0 1 -3 0 c -0.554 0 -1 -0.223 -1 -0.5 0 -0.277 0.446 -0.5 1 -0.5 l 3 0 z" style="fill:#828282;opacity:1;fill-opacity:1;stroke:none;fill-rule:nonzero"/>
 <path d="m 11 16 -3 1.247 0.023 -1.25" style="fill:#373737;opacity:1;fill-opacity:1;stroke:none;fill-rule:nonzero"/>
 <path d="m 21 16 3 1.247 -0.023 -1.25" style="fill:#373737;opacity:1;fill-opacity:1;stroke:none;fill-rule:nonzero"/>
 <path d="m 8.56 15.618 a 0.743 0.743 0 0 0 -0.731 0.753 c 0 2.918 1.558 5.618 4.086 7.077 2.527 1.459 5.644 1.459 8.171 0 2.527 -1.459 4.086 -4.159 4.086 -7.077 a 0.743 0.743 0 1 0 -1.486 0 c 0 2.39 -1.273 4.596 -3.343 5.791 -2.07 1.195 -4.616 1.195 -6.686 0 -2.07 -1.195 -3.343 -3.401 -3.343 -5.791 A 0.743 0.743 0 0 0 8.56 15.618" mix-blend-mode="normal" isolation="auto" white-space="normal" solid-opacity="1" solid-color="#000000" style="visibility:visible;shape-rendering:auto;color-interpolation-filters:linearRGB;fill:#547181;opacity:1;image-rendering:auto;fill-opacity:1;stroke:none;display:inline;color:#000;fill-rule:nonzero;color-rendering:auto;color-interpolation:sRGB"/>
 <path d="m 15.257 24.394 c -0.287 2.152 -1.942 3.494 -3.714 4.606 l 8.914 0 c -1.772 -1.112 -3.427 -2.454 -3.714 -4.606 z" style="fill:#547181;fill-opacity:1;stroke:none;fill-rule:evenodd"/>
 <path d="m 11 15.5 l 0 0.25 c 0 3.186 2.23 5.75 5 5.75 c 2.77 0 5 -2.564 5 -5.75 l 0 -0.25 l -10 0 z" style="fill:#547181;opacity:1;fill-opacity:1;stroke:none;fill-rule:nonzero"/>
 <path d="m 11 15 l 0 0.75 c 0 0.084 0.009 0.167 0.012 0.25 l 9.977 0 c 0.003 -0.083 0.012 -0.166 0.012 -0.25 l 0 -0.75 l -10 0 z" style="fill:#373737;opacity:1;fill-opacity:1;stroke:none;fill-rule:nonzero"/>
 <path d="m 20.953 8 c 0.028 0.246 0.047 0.495 0.047 0.75 l 0 0.25 -3 0 c -0.554 0 -1 -0.223 -1 -0.5 0 -0.277 0.446 -0.5 1 -0.5 l 2.953 0 z" style="fill:#828282;opacity:1;fill-opacity:1;stroke:none;fill-rule:nonzero"/>
 <path d="m 17 -0.381 0 23.03 c 0.741 -0.177 1.418 -0.554 2 -1.072 l 0 -20.892 c -0.582 -0.519 -1.259 -0.893 -2 -1.07 z" style="fill:#fff;opacity:0.2;fill-opacity:1;stroke:none;fill-rule:nonzero"/>
 <path d="m 19 22.332 c -0.638 0.321 -1.311 0.538 -2 0.643 l 0 1.504 c 0.681 -0.084 1.352 -0.256 2 -0.512 l 0 -1.635 z" style="fill:#fff;opacity:0.2;fill-opacity:1;stroke:none;fill-rule:nonzero"/>
 <path d="m 17 25.381 l 0 3.619 l 2 0 l 0 -1.027 c -0.883 -0.711 -1.614 -1.545 -2 -2.592 z" style="fill:#fff;opacity:0.2;fill-opacity:1;stroke:none;fill-rule:nonzero"/>
 <path d="m 11 12 l 0 1 l 3 0 c 0.554 0 1 -0.223 1 -0.5 c 0 -0.277 -0.446 -0.5 -1 -0.5 l -3 0 z" style="fill:#828282;opacity:1;fill-opacity:1;stroke:none;fill-rule:nonzero"/>
 <path d="m 11 10 l 0 1 l 3 0 c 0.554 0 1 -0.223 1 -0.5 c 0 -0.277 -0.446 -0.5 -1 -0.5 l -3 0 z" style="fill:#828282;opacity:1;fill-opacity:1;stroke:none;fill-rule:nonzero"/>
 <path d="m 11.05 8 c -0.028 0.246 -0.047 0.495 -0.047 0.75 l 0 0.25 l 3 0 c 0.554 0 1 -0.223 1 -0.5 c 0 -0.277 -0.446 -0.5 -1 -0.5 l -2.953 0 z" style="fill:#828282;opacity:1;fill-opacity:1;stroke:none;fill-rule:nonzero"/>
</svg>
