<svg xmlns="http://www.w3.org/2000/svg" viewBox="0 0 32 32">
 <path d="m 15.817 3.414 c 0 0 -2.357 0.174 -3.928 0.764 -1.571 0.59 -2.584 1.277 -4.714 2.848 -2.13 1.571 -1.117 1.874 -1.117 1.874 0.569 0.065 1.307 0.041 1.812 -0.304 0.645 -0.44 2.051 -1.571 3.233 -2.055 1.487 -0.608 3.107 -1.01 4.714 -1.01 1.607 0 3.227 0.4 4.714 1.01 1.182 0.484 2.589 1.615 3.233 2.055 0.506 0.345 1.243 0.369 1.812 0.304 0 0 1.013 -0.302 -1.117 -1.874 -2.13 -1.571 -3.143 -2.258 -4.714 -2.848 -1.571 -0.59 -3.928 -0.764 -3.928 -0.764 z" style="fill:#89c86b;fill-opacity:1;stroke:none;fill-rule:evenodd"/>
 <path transform="scale(-1,-1)" d="m -3.6 -15.791 a 12.4 12.4 0 0 1 -6.2 10.739 12.4 12.4 0 0 1 -12.4 0 12.4 12.4 0 0 1 -6.2 -10.739" style="stroke-dasharray:none;stroke-opacity:1;fill:none;opacity:1;stroke-miterlimit:4;fill-opacity:1;stroke:#515151;fill-rule:nonzero;stroke-linecap:butt;stroke-linejoin:miter;stroke-width:1.2;stroke-dashoffset:0"/>
 <path d="m 3 15.791 0.2 2.4 1.2 0 -0.2 -2.4 z" style="fill:#89c86b;fill-opacity:1;stroke:none;fill-rule:evenodd"/>
 <rect width="5.6" height="12.8" x="3.202" y="16.8" rx="1.6" transform="matrix(0.9961947,-0.08715574,0.08715574,0.9961947,0,0)" style="fill:#515151;opacity:1;fill-opacity:1;stroke:none;fill-rule:nonzero"/>
 <path d="m 3.2 18.19 0.906 10.36 0.797 -0.07 -0.07 -0.797 0.797 -0.07 -0.837 -9.563" style="fill:#515151;fill-opacity:1;stroke:none;fill-rule:evenodd"/>
 <rect width="1.6" height="12.8" x="3.202" y="16.8" transform="matrix(0.9961947,-0.08715574,0.08715574,0.9961947,0,0)" style="fill:#89c86b;opacity:1;fill-opacity:1;stroke:none;fill-rule:nonzero"/>
 <path d="m 29 15.791 -0.2 2.4 -1.2 0 0.2 -2.4 z" style="fill:#89c86b;fill-opacity:1;stroke:none;fill-rule:evenodd"/>
 <rect rx="1.6" y="14.01" x="-28.676" height="12.8" width="5.6" transform="matrix(-0.99619438,-0.08715941,-0.08715207,0.99619502,0,0)" style="fill:#515151;opacity:1;fill-opacity:1;stroke:none;fill-rule:nonzero"/>
 <path d="m 28.8 18.19 -0.906 10.36 -0.797 -0.07 0.07 -0.797 -0.797 -0.07 0.837 -9.563 z" style="fill:#515151;fill-opacity:1;stroke:none;fill-rule:evenodd"/>
 <rect y="14.01" x="-28.676" height="12.8" width="1.6" transform="matrix(-0.99619438,-0.08715941,-0.08715207,0.99619502,0,0)" style="fill:#89c86b;opacity:1;fill-opacity:1;stroke:none;fill-rule:nonzero"/>
</svg>
