<svg xmlns="http://www.w3.org/2000/svg" viewBox="0 0 32 32">
 <defs>
  <linearGradient gradientTransform="matrix(0.75,0,0,0.75,-1.9999989,-1.9999999)" y2="23" x2="0" y1="-7" gradientUnits="userSpaceOnUse" id="linearGradient3011">
   <stop style="stop-color:#839496;stop-opacity:1"/>
   <stop offset="1" style="stop-color:#667678;stop-opacity:1"/>
  </linearGradient>
 </defs>
 <path d="M 14.5 4 C 13.669 4 13 4.6689997 13 5.5 L 13 6 L 11.5 6 C 10.669 6 10 6.669 10 7.5 L 10 26.5 C 10 27.331 10.669 28 11.5 28 L 20.5 28 C 21.331 28 22 27.331 22 26.5 L 22 7.5 C 22 6.669 21.331 6 20.5 6 L 19 6 L 19 5.5 C 19 4.6689997 18.331 4 17.5 4 L 14.5 4 z " style="fill:url(#linearGradient3011);fill-opacity:1;stroke:none"/>
 <rect width="12" height="22" x="10" y="6" rx="1.5" style="fill:#6fa7ce;opacity:0.2;fill-opacity:1;stroke:none;fill-rule:nonzero"/>
 <rect width="2" height="2" x="16" y="4" style="fill:#fff;opacity:0.2;fill-opacity:1;stroke:none"/>
 <rect width="2" height="22" x="18" y="6" rx="0" style="fill:#fff;opacity:0.2;fill-opacity:1;stroke:none"/>
 <g transform="matrix(1.2645779,0,0,1.2645779,-4.2332464,-2.2906385)" style="fill:#fff;fill-opacity:1">
  <path d="m 14.757 16.836 0 -0.424 c 0 -0.381 0.089 -0.713 0.267 -0.995 0.178 -0.282 0.503 -0.582 0.976 -0.9 0.456 -0.298 0.755 -0.54 0.898 -0.727 0.148 -0.187 0.221 -0.395 0.221 -0.626 0 -0.258 -0.104 -0.455 -0.312 -0.59 -0.208 -0.135 -0.499 -0.203 -0.872 -0.203 -0.651 0 -1.393 0.195 -2.226 0.584 l -0.709 -1.305 c 0.967 -0.497 1.993 -0.745 3.078 -0.745 0.894 0 1.603 0.197 2.128 0.59 0.529 0.393 0.794 0.918 0.794 1.574 0 0.437 -0.108 0.815 -0.325 1.132 -0.217 0.318 -0.629 0.675 -1.236 1.073 -0.416 0.282 -0.681 0.497 -0.794 0.644 -0.108 0.147 -0.163 0.34 -0.163 0.578 l 0 0.34 -1.725 0" style="fill:#fff"/>
  <path d="m 14.65 18.604 c 0 -0.329 0.086 -0.578 0.257 -0.747 0.171 -0.169 0.421 -0.253 0.749 -0.253 0.316 0 0.56 0.086 0.731 0.259 0.175 0.173 0.263 0.42 0.263 0.741 0 0.31 -0.088 0.555 -0.263 0.735 -0.175 0.176 -0.419 0.265 -0.731 0.265 -0.32 0 -0.568 -0.086 -0.743 -0.259 -0.175 -0.176 -0.263 -0.424 -0.263 -0.741" style="fill:#fff"/>
 </g>
</svg>
