<svg xmlns="http://www.w3.org/2000/svg" viewBox="0 0 32 32">
 <g transform="matrix(0.6875,0,0,0.6875,-0.5,-690.99901)" style="fill:#eee8d5">
  <path d="m 24 8 c -8.837 0 -16 7.163 -16 16 0 8.837 7.163 16 16 16 8.837 0 16 -7.163 16 -16 0 -8.837 -7.163 -16 -16 -16 z m 0 11 c 2.756 0 5 2.244 5 5 0 2.756 -2.244 5 -5 5 -2.756 0 -5 -2.244 -5 -5 0 -2.756 2.244 -5 5 -5 z m 0 1 c -2.215 0 -4 1.785 -4 4 0 2.215 1.785 4 4 4 2.215 0 4 -1.785 4 -4 0 -2.215 -1.785 -4 -4 -4 z m 0 1.5 c 1.381 0 2.5 1.119 2.5 2.5 0 1.381 -1.119 2.5 -2.5 2.5 -1.381 0 -2.5 -1.119 -2.5 -2.5 0 -1.381 1.119 -2.5 2.5 -2.5 z" transform="translate(0,1004.3622)"/>
 </g>
 <path d="m 14.809 14.771 c 0.268 -0.259 0.612 -0.434 0.983 -0.48 l -0.134 -1.01 c -0.594 0.074 -1.136 0.334 -1.563 0.748 l 0.713 0.741 z m -1.191 -1.229 c 0.534 -0.513 1.223 -0.846 1.96 -0.939 l -0.957 -7.505 c -2.364 0.302 -4.575 1.357 -6.279 3.01 l 5.275 5.436 z" style="fill:#657b83;opacity:0.256"/>
 <path d="m 17.604 16.596 c -0.13 0.349 -0.365 0.655 -0.681 0.857 l 0.556 0.854 c 0.504 -0.322 0.881 -0.791 1.088 -1.349 l -0.963 -0.362 z m 1.604 0.596 c -0.26 0.693 -0.739 1.29 -1.365 1.692 l 4.097 6.36 c 2 -1.291 3.544 -3.196 4.37 -5.419 l -7.103 -2.633 z" style="fill:#fffefb;opacity:0.464;fill-opacity:1"/>
 <path d="m 17.233 17.187 c -0.259 0.268 -0.597 0.454 -0.966 0.513 l 0.168 1 c 0.591 -0.094 1.124 -0.373 1.536 -0.802 l -0.738 -0.716 z m 1.233 1.187 c -0.516 0.531 -1.193 0.887 -1.927 1.01 l 1.216 7.467 c 2.352 -0.383 4.525 -1.514 6.171 -3.222 l -5.46 -5.251 z" style="fill:#657b83;opacity:0.256"/>
 <path d="m 14.407 15.374 c 0.136 -0.347 0.378 -0.648 0.697 -0.844 l -0.54 -0.864 c -0.51 0.313 -0.896 0.774 -1.113 1.328 l 0.956 0.38 z m -1.593 -0.626 c 0.274 -0.688 0.763 -1.276 1.396 -1.666 l -3.976 -6.437 c -2.027 1.253 -3.603 3.128 -4.472 5.336 l 7.05 2.767 z" style="fill:#fffefb;opacity:0.426;fill-opacity:1"/>
 <path d="m 16 12 c -2.209 0 -4 1.791 -4 4 0 2.209 1.791 4 4 4 2.209 0 4 -1.791 4 -4 0 -2.209 -1.791 -4 -4 -4 z m 0 1 c 1.657 0 3 1.343 3 3 0 1.657 -1.343 3 -3 3 -1.657 0 -3 -1.343 -3 -3 0 -1.657 1.343 -3 3 -3 z" style="fill:#657b83;fill-opacity:1;stroke:none"/>
 <path d="m 18.83 6.368 c 0.494 -0.078 1.027 -0.031 1.5 0.196 1.894 0.91 3.509 0.205 3.509 0.205 0 0 -1.272 3.079 -3.512 2.991 -2.117 -0.081 -2.432 0.499 -2.492 0.57 l 1.284 8.918 c 0.009 0.061 0.021 0.115 0.027 0.175 0.2 1.922 -1.14 4.089 -3.291 5.326 -2.729 1.569 -5.948 1.08 -7.198 -1.099 -1.25 -2.179 -0.063 -5.238 2.666 -6.808 2.112 -1.214 4.519 -1.172 6.08 -0.09 l -1.389 -8.902 -0.046 -0.065 c 0 0 1.375 -1.206 2.862 -1.417 z" style="fill:#d33682;color:#000"/>
</svg>
