<svg xmlns="http://www.w3.org/2000/svg" viewBox="0 0 32 32">
 <g style="fill:#909ea9">
  <path d="m 9 5.332 c -0.082 0.016 -0.16 0.043 -0.23 0.086 l -3.125 1.938 c -0.188 0.117 -0.309 0.336 -0.313 0.563 l 0 17.438 c 0 0.348 0.32 0.664 0.668 0.664 l 2.457 0 c 0.012 0.344 0.324 0.648 0.668 0.648 l 13.75 0 c 0.344 0 0.656 -0.305 0.668 -0.648 l 2.457 0 c 0.348 0 0.668 -0.316 0.668 -0.664 l 0 -17.438 c -0.004 -0.227 -0.125 -0.445 -0.313 -0.563 l -3.125 -1.938 c -0.109 -0.063 -0.234 -0.09 -0.355 -0.086 l -13.75 0 c -0.043 -0.004 -0.082 -0.004 -0.125 0 m 0.332 1.336 l 14 0 l 2 1.332 l 0 16.668 l -2 0 l 0 -6.668 l -14.664 0 l 0 6.668 l -2 0 l 0 -16.668 m 2.664 12.668 l 13.336 0 l 0 0.664 l -13.336 0 m 0 2 l 13.336 0 l 0 0.668 l -13.336 0 Z"/>
  <path d="m 15 6 l -2.332 0 l 0 2 l 9.332 0 l 0 -2 Z"/>
  <path d="m 9.332 16.668 l 0 -4.668 l 9.336 0 l 0 4.668 Z"/>
  <path d="m 20 12 l 0 4.668 l 2.668 0 l 0 -4.668 Z"/>
 </g>
</svg>
