<svg xmlns="http://www.w3.org/2000/svg" viewBox="0 0 32 32">
 <path d="m 14 19 0 6 -10 0 0 4 24 0 0 -4 -10 0 0 -6 -4 0 z" style="fill:#919fa9;fill-opacity:1;color:#bebebe"/>
 <path d="m 16 2.5 c -3.087 0 -5 1.71 -5 5 l 0 4 0 2 2 0 7 0 1 0 0 -2 0 -4 c 0 -3.29 -1.913 -5 -5 -5 m 0 3 c 1.128 0 2 0.872 2 2 l 0 2 -4 0 0 -2 c 0 -1.128 0.872 -2 2 -2 z" style="fill:#bebebe;color:#bebebe"/>
 <path d="M 8.25,9.25 C 8.5013227,9 9,9 9,9 l 14,0 c 0,0 0.5,0 0.75,0.25 C 24,9.5 24,10 24,10 L 24,21 8,21 8,10 c 0,0 -0.00132,-0.5 0.25,-0.75 z" style="fill:#ecd14c;fill-opacity:1;color:#bebebe"/>
 <rect width="3" height="12" x="19" y="9" style="fill:#e9d988;opacity:1;fill-opacity:1;stroke:none"/>
</svg>
