<svg style="clip-rule:evenodd;fill-rule:evenodd;stroke-linejoin:round;stroke-miterlimit:2" version="1.1" viewBox="0 0 64 64" xmlns="http://www.w3.org/2000/svg">
 <path d="m61.122 15.88c0-2.762-2.239-5-5-5h-48.244c-2.761 0-5 2.238-5 5v32.246c0 2.761 2.239 5 5 5h48.244c2.761 0 5-2.239 5-5v-32.246z" style="fill:#0083d5"/>
 <path d="m61.122 20.652c0-1.326-0.527-2.598-1.465-3.536-0.938-0.937-2.209-1.464-3.535-1.464h-25.58c-1.232 0-2.42-0.455-3.337-1.277-0.768-0.689-1.713-1.535-2.481-2.224-0.917-0.822-2.105-1.277-3.337-1.277h-13.509c-1.326 0-2.597 0.527-3.535 1.465-0.938 0.937-1.465 2.209-1.465 3.535v32.252c0 2.761 2.239 5 5 5h48.244c2.761 0 5-2.239 5-5v-27.474z" style="fill:url(#_Linear1)"/>
 <path d="m27.632 24.449c0.379-0.519 0.983-0.827 1.626-0.827h5.826c0.621 0 1.208 0.287 1.589 0.778 0.323 0.416 0.722 0.928 1.053 1.353 0.415 0.534 1.054 0.845 1.73 0.842 1.046-4e-3 2.647-0.011 3.828-0.016 0.406-1e-3 0.797 0.159 1.085 0.446s0.45 0.677 0.45 1.083v12.929c0 0.405-0.161 0.794-0.448 1.081s-0.676 0.448-1.081 0.448h-22.58c-0.405 0-0.794-0.161-1.081-0.448s-0.448-0.676-0.448-1.081v-12.935c0-0.406 0.161-0.795 0.448-1.081 0.287-0.287 0.676-0.448 1.081-0.448h4.263c0.697 0 1.351-0.333 1.762-0.895 0.285-0.391 0.617-0.846 0.897-1.229zm4.368 4.347c3.031 0 5.492 2.461 5.492 5.492s-2.461 5.492-5.492 5.492-5.492-2.461-5.492-5.492 2.461-5.492 5.492-5.492zm0 1.064c2.444 0 4.428 1.984 4.428 4.428s-1.984 4.428-4.428 4.428-4.428-1.984-4.428-4.428 1.984-4.428 4.428-4.428zm6.537-1.387c0.46 0 0.834 0.374 0.834 0.835s-0.374 0.834-0.834 0.834c-0.461 0-0.835-0.373-0.835-0.834s0.374-0.835 0.835-0.835z" style="fill:url(#_Linear2)"/>
 <path d="m24.563 25.074c0-0.175-0.142-0.316-0.316-0.316h-1.764c-0.174 0-0.316 0.141-0.316 0.316v0.633c0 0.174 0.142 0.316 0.316 0.316h1.764c0.174 0 0.316-0.142 0.316-0.316v-0.633z" style="fill:#126c97"/>
 <defs>
  <linearGradient id="_Linear1" x2="1" gradientTransform="matrix(2.31885e-15,-41.6338,37.8697,2.54933e-15,33.3576,52.7218)" gradientUnits="userSpaceOnUse">
   <stop style="stop-color:#1075f6" offset="0"/>
   <stop style="stop-color:#12c5ff" offset="1"/>
  </linearGradient>
  <linearGradient id="_Linear2" x2="1" gradientTransform="matrix(1.15994e-15,18.9433,-18.9433,1.15994e-15,32,23.6224)" gradientUnits="userSpaceOnUse">
   <stop style="stop-color:#137098" offset="0"/>
   <stop style="stop-color:#106597" offset=".42"/>
   <stop style="stop-color:#0b4e94" offset="1"/>
  </linearGradient>
 </defs>
</svg>
