<svg xmlns="http://www.w3.org/2000/svg" viewBox="0 0 24 24">
 <path d="m 5 1 c -0.473 0 -1 0.527 -1 1 l 0 20 c 0 0.445 0.555 1 1 1 l 14 0 c 0.445 0 0.992 -0.555 1 -1 l 0 -15 -6 -6 z" style="fill:#6b7daa;fill-opacity:1"/>
 <path d="m 15 7 5 5 0 -5 z" style="fill:#000;fill-opacity:0.196"/>
 <path d="m 14 1 6 6 -5 0 c -0.445 0 -1 -0.555 -1 -1 z" style="fill:#fff;fill-opacity:0.392"/>
 <path d="m 13.781 8.588 c -1.775 -0.027 -1.781 2.01 -1.781 2.01 l 0 1.844 c 0 0.737 1 1.938 1 1.938 l 0 0.625 -2 1 0 2 3.5 0 3.5 0 0 -2 -2 -1 0 -0.625 c 0 0 1 -1.201 1 -1.938 l 0 -1.844 c 0 0 -0.006 -2.01 -1.781 -2.01 l -0.688 0 c -0.006 -0.001 -0.024 0.001 -0.031 0 -0.165 -0.017 -0.559 0.005 -0.719 0 z m -4.125 1.412 c 0 0 -1.656 -0.045 -1.656 1.844 l 0 0.594 c 0 0.632 1 1.938 1 1.938 l 0 0.625 l -2 1 0 1 3 0 0 -1.438 2 -1.188 c 0 0 -1 -1.274 -1 -1.906 l 0 -2.469 z" style="fill:#fff"/>
</svg>
