<svg xmlns="http://www.w3.org/2000/svg" viewBox="0 0 24 24">
 <path d="m 5 1 c -0.473 0 -1 0.527 -1 1 l 0 20 c 0 0.445 0.555 1 1 1 l 14 0 c 0.445 0 0.992 -0.555 1 -1 l 0 -15 -6 -6 z" style="fill:#9b4a85;fill-opacity:1"/>
 <path d="m 15 7 5 5 0 -5 z" style="fill:#000;fill-opacity:0.196"/>
 <path d="m 14 1 6 6 -5 0 c -0.445 0 -1 -0.555 -1 -1 z" style="fill:#fff;fill-opacity:0.392"/>
 <path d="m 10.366 9 c -0.636 0.169 -1.174 0.795 -1.174 0.795 l 0.014 0.02 1.024 4.04 c -0.73 -0.422 -1.778 -0.318 -2.643 0.348 -1.118 0.86 -1.506 2.326 -0.861 3.265 0.65 0.944 2.077 1.014 3.195 0.154 0.884 -0.681 1.375 -1.744 1.197 -2.624 -0.005 -0.025 -0.014 -0.05 -0.019 -0.08 l -0.987 -4.04 c 0.023 -0.035 0.313 -0.174 1.24 -0.244 c 0.982 -0.07 1.647 -1.739 1.647 -1.739 c 0 0 -1.104 0.447 -1.974 0.124 c -0.215 -0.084 -0.444 -0.08 -0.66 -0.02 z" style="fill:#fff"/>
 <path d="m 14 10 0 -1 3 0 0 1 z" style="fill:#fff"/>
 <path d="m 12 13 0 1 5 0 0 -1 z" style="fill:#fff"/>
 <path d="m 13 12 0 -1 4.04 0 0 1 z" style="fill:#fff"/>
 <path d="m 12 15 0 1 5 0 0 -1 z" style="fill:#fff"/>
 <path d="m 12 17 0 1 5 0 0 -1 z" style="fill:#fff"/>
</svg>
