<svg xmlns="http://www.w3.org/2000/svg" viewBox="0 0 24 24">
 <defs>
  
 </defs>
 <path d="m 5 1 c -0.473 0 -1 0.527 -1 1 l 0 20 c 0 0.445 0.555 1 1 1 l 14 0 c 0.445 0 0.992 -0.555 1 -1 l 0 -15 -6 -6 z" style="fill:#dcdcdc;fill-opacity:1"/>
 <path d="m 15 7 5 5 0 -5 z" style="fill:#000;fill-opacity:0.196"/>
 <path d="m 14 1 6 6 -5 0 c -0.445 0 -1 -0.555 -1 -1 z" style="fill:#fff;fill-opacity:0.392"/>
 <path d="m 8 18 c 0.003 -2.811 0.007 -5.03 0 -8 l 7 0 l 1 1 0 7 z m 7 -4 -6 0 0 3 2.985 0 3.01 0 m -1 -6.7 -4 0 0 2.7 4 0 z m -2 0.7 1 0 0 1 -1 0 z" style="fill:#888;fill-opacity:1"/>
</svg>
