<svg xmlns="http://www.w3.org/2000/svg" viewBox="0 0 24 24">
 <path d="m 5 1 c -0.473 0 -1 0.527 -1 1 l 0 20 c 0 0.445 0.555 1 1 1 l 14 0 c 0.445 0 0.992 -0.555 1 -1 l 0 -15 -6 -6 z" style="fill:#7c9c35;fill-opacity:1"/>
 <path d="m 15 7 5 5 0 -5 z" style="fill:#000;fill-opacity:0.196"/>
 <path d="m 14 1 6 6 -5 0 c -0.445 0 -1 -0.555 -1 -1 z" style="fill:#fff;fill-opacity:0.392"/>
 <path d="m 8 9 l 0 3 l 4 0 l 0 -3 l -4 0 z m 5 0 l 0 1 l 3 0 l 0 -1 l -3 0 z m 0 2 l 0 1 l 3 0 l 0 -1 l -3 0 z m -5 2 l 0 1 l 8 0 l 0 -1 l -8 0 z m 0 2 l 0 1 l 8 0 l 0 -1 l -8 0 z m 0 2 l 0 1 l 8 0 l 0 -1 l -8 0 z" style="fill:#fff;fill-opacity:1;stroke:none;fill-rule:evenodd"/>
</svg>
