<svg xmlns="http://www.w3.org/2000/svg" viewBox="0 0 24 24">
 <path d="m 5 1 c -0.473 0 -1 0.527 -1 1 l 0 20 c 0 0.445 0.555 1 1 1 l 14 0 c 0.445 0 1 -0.555 1 -1 l 0 -20 c 0 -0.473 -0.527 -1 -1 -1 z" style="fill:#dcdcdc;fill-opacity:1"/>
 <path d="m 7 11 0 1 10 0 0 -1 z" style="fill:#888"/>
 <path d="m 7 13 0 1 10 0 0 -1 z" style="fill:#888"/>
 <path d="m 7 17 0 1 10 0 0 -1 z" style="fill:#888"/>
 <path d="m 7 7 0 1 10 0 0 -1 z" style="fill:#888"/>
 <path d="m 7 15 0 1 10 0 0 -1 z" style="fill:#888"/>
 <path d="m 7 9 0 1 10 0 0 -1 z" style="fill:#888"/>
</svg>
