<svg xmlns="http://www.w3.org/2000/svg" viewBox="0 0 24 24">
 <path d="m 5 1 c -0.473 0 -1 0.527 -1 1 l 0 20 c 0 0.445 0.555 1 1 1 l 14 0 c 0.445 0 0.992 -0.555 1 -1 l 0 -15 -6 -6 z" style="fill:#04aa9c;fill-opacity:1"/>
 <path d="m 14 1 6 6 -5 0 c -0.445 0 -1 -0.555 -1 -1 z" style="fill:#fff;fill-opacity:0.392"/>
 <path d="m 15.432 7.53 c -0.362 0 -0.687 0.18 -0.849 0.47 l -3.583 0 c 0 0 -0.69 0.002 -1.421 0.368 -0.723 0.365 -1.579 1.255 -1.579 2.632 0 1.377 0.856 2.147 1.579 2.512 0.347 0.175 0.421 0.168 0.421 0.168 l 0 0.832 -0.819 0.842 c -0.037 -0.008 -0.074 -0.03 -0.118 -0.03 -0.273 0 -0.494 0.221 -0.494 0.487 0 0.266 0.221 0.487 0.494 0.487 0.266 0 0.487 -0.221 0.487 -0.487 0 -0.046 -0.015 -0.084 -0.03 -0.122 l 1.351 -1.339 -0.871 0.651 l 3 0 0 -1 c 0 0 0.713 0 0.993 0.121 c 0.494 0.244 1.01 0.821 1.01 1.879 0 1.058 -0.494 1.524 -0.989 1.767 -0.502 0.244 -1.011 0.233 -1.011 0.233 l -3.572 0 c -0.162 -0.289 -0.48 -0.461 -0.841 -0.461 -0.539 0 -0.974 0.434 -0.974 0.974 0 0.54 0.435 0.974 0.974 0.974 0.362 0 0.679 -0.198 0.841 -0.487 l 3.572 0 c 0 0 0.708 0.015 1.439 -0.35 c 0.723 -0.365 1.561 -1.272 1.561 -2.65 0 -1.377 -0.856 -2.396 -1.579 -2.762 -0.52 -0.238 -1.421 -0.238 -1.421 -0.238 l 0 -0.772 0.838 -0.832 c 0.044 0.008 0.074 0.03 0.118 0.03 0.273 0 0.494 -0.221 0.494 -0.487 0 -0.266 -0.221 -0.487 -0.494 -0.487 -0.266 0 -0.487 0.221 -0.487 0.487 0 0.046 0.022 0.084 0.03 0.122 l -0.968 0.938 -2.53 0 0.007 0.629 c -0.494 -0.244 -1.01 -0.572 -1.01 -1.629 0 -1.058 0.513 -1.506 1.01 -1.75 0.502 -0.244 0.993 -0.25 0.993 -0.25 l 3.583 0 c 0.162 0.289 0.488 0.479 0.849 0.479 0.539 0 0.974 -0.434 0.974 -0.974 0 -0.54 -0.435 -0.974 -0.974 -0.974 z" style="fill:#fff"/>
 <path d="m 15 7 5 5 0 -5 z" style="fill:#000;fill-opacity:0.196"/>
</svg>
