<svg xmlns="http://www.w3.org/2000/svg" viewBox="0 0 24 24">
 <path d="m 4.917 4 c -0.458 0 -0.917 0.458 -0.917 0.917 l 0 14.193 c 0 0.432 0.458 0.891 0.891 0.891 l 14.219 0 c 0.432 0 0.891 -0.458 0.891 -0.891 l 0 -14.219 c 0 -0.432 -0.458 -0.891 -0.891 -0.891 z" style="fill:#c19553"/>
 <path d="m 4.917 4 c -0.458 0 -0.917 0.43 -0.917 0.859 l 0 4.141 c 1.776 0 14.224 0 16 0 l 0 -4.165 c 0 -0.405 -0.458 -0.835 -0.891 -0.835 z" style="fill:#fff;fill-opacity:0.196"/>
 <path d="m 10 6 0 8 l 4 0 0 -8 z" style="fill:#fff;fill-opacity:0.392"/>
</svg>
