<svg xmlns="http://www.w3.org/2000/svg" viewBox="0 0 24 24">
 <path d="m 5 1 c -0.473 0 -1 0.527 -1 1 l 0 20 c 0 0.445 0.555 1 1 1 l 14 0 c 0.445 0 0.992 -0.555 1 -1 l 0 -15 -6 -6 z" style="fill:#a33639;fill-opacity:1"/>
 <path d="m 15 7 5 5 0 -5 z" style="fill:#000;fill-opacity:0.196"/>
 <path d="m 14 1 6 6 -5 0 c -0.445 0 -1 -0.555 -1 -1 z" style="fill:#fff;fill-opacity:0.392"/>
 <g transform="matrix(1.0905218,0,0,1.0905218,0.00426067,-0.0786586)" style="fill:#fff">
  <path d="m 11 8.25 c -2.023 0 -3.668 0.512 -3.668 1.145 l 0 0.918 c 0 0.633 1.645 1.145 3.668 1.145 2.023 0 3.668 -0.512 3.668 -1.145 l 0 -0.918 c 0 -0.633 -1.645 -1.145 -3.668 -1.145 z"/>
  <path d="m 10.988 11.918 c -1.641 0 -3.03 -0.34 -3.492 -0.805 -0.109 0.109 -0.164 0.227 -0.164 0.344 l 0 0.918 c 0 0.633 1.645 1.145 3.668 1.145 2.023 0 3.668 -0.512 3.668 -1.145 l 0 -0.918 c 0 -0.117 -0.066 -0.234 -0.176 -0.344 -0.465 0.465 -1.863 0.805 -3.504 0.805 z"/>
  <path d="m 10.988 13.98 c -1.641 0 -3.03 -0.34 -3.492 -0.805 -0.109 0.109 -0.164 0.227 -0.164 0.344 l 0 0.918 c 0 0.633 1.645 1.145 3.668 1.145 2.023 0 3.668 -0.512 3.668 -1.145 l 0 -0.918 c 0 -0.117 -0.066 -0.234 -0.176 -0.344 -0.465 0.465 -1.863 0.805 -3.504 0.805 z"/>
 </g>
</svg>
