<svg xmlns="http://www.w3.org/2000/svg" viewBox="0 0 24 24">
 <path d="m 5 1 c -0.473 0 -1 0.527 -1 1 l 0 20 c 0 0.445 0.555 1 1 1 l 14 0 c 0.445 0 0.992 -0.555 1 -1 l 0 -15 -6 -6 z" style="fill:#e5b819;fill-opacity:1"/>
 <path d="m 15 7 5 5 0 -5 z" style="fill:#000;fill-opacity:0.196"/>
 <path d="m 14 1 6 6 -5 0 c -0.445 0 -1 -0.555 -1 -1 z" style="fill:#fff;fill-opacity:0.392"/>
 <g transform="matrix(1.5293428,0,0,1.4624341,0.17653973,0.4507908)" style="fill:#fff">
  <path d="m 5.769 5.846 1.308 0 0 6.838 -2.616 0 0 -1.368 1.308 0 z"/>
  <path d="m 7.731 5.846 3.269 0 0 1.368 -1.962 0 0 1.368 1.962 0 0 4.103 -3.269 0 0 -1.368 1.962 0 0 -1.368 -1.962 0 z"/>
 </g>
</svg>
