<svg xmlns="http://www.w3.org/2000/svg" viewBox="0 0 24 24">
 <path d="m 5 1 c -0.473 0 -1 0.527 -1 1 l 0 20 c 0 0.445 0.555 1 1 1 l 14 0 c 0.445 0 0.992 -0.555 1 -1 l 0 -15 -6 -6 z" style="fill:#785a8b;fill-opacity:1"/>
 <path d="m 15 7 5 5 0 -5 z" style="fill:#000;fill-opacity:0.196"/>
 <path d="m 14 1 6 6 -5 0 c -0.445 0 -1 -0.555 -1 -1 z" style="fill:#fff;fill-opacity:0.392"/>
 <path d="m 8 9 0 7 -2 0 2 3 1 0 0 -9 9 0 0 -1 z m 3.372 1.911 -1.21 1.305 2.121 2.28 -2.121 2.287 1.21 1.305 2.128 -2.287 2.121 2.287 1.217 -1.305 -2.128 -2.287 2.128 -2.28 l -1.217 -1.305 -2.121 2.28 z" style="fill:#fff"/>
</svg>
