<svg xmlns="http://www.w3.org/2000/svg" viewBox="0 0 24 24">
 <path d="m 5 1 c -0.473 0 -1 0.527 -1 1 l 0 20 c 0 0.445 0.555 1 1 1 l 14 0 c 0.445 0 0.992 -0.555 1 -1 l 0 -15 -6 -6 z" style="fill:#e5b819;fill-opacity:1"/>
 <path d="m 15 7 5 5 0 -5 z" style="fill:#000;fill-opacity:0.196"/>
 <path d="m 14 1 6 6 -5 0 c -0.445 0 -1 -0.555 -1 -1 z" style="fill:#fff;fill-opacity:0.392"/>
 <g transform="matrix(0.5,0,0,0.50294115,0,-0.1117637)">
  <path d="m 24 19.11 c -5.391 0 -10 4.02 -10 9.444 0 4.722 3.329 8.264 6.889 9.444 -2.365 -1.627 -4.536 -4.722 -4.536 -8.264 0 -4.079 2.941 -7.083 6.363 -7.083 3.195 0 5.389 3.054 5.401 5.903 0 2 -1.634 3.644 -2.941 4.722 2.353 0 5.294 -1.955 5.294 -5.903 0 -3.542 -2.941 -8.264 -6.471 -8.264 z" style="fill:#fff;fill-opacity:1;stroke:none;fill-rule:evenodd"/>
  <path d="m 24 38 c 5.391 0 10 -4.02 10 -9.444 0 -4.722 -3.329 -8.264 -6.889 -9.444 2.365 1.627 4.536 4.722 4.536 8.264 0 4.079 -2.941 7.083 -6.363 7.083 -3.195 0 -5.389 -3.054 -5.401 -5.903 0 -2 1.634 -3.644 2.941 -4.722 -2.353 0 -5.294 1.955 -5.294 5.903 c 0 3.542 2.941 8.264 6.471 8.264" style="fill:#fff;fill-opacity:1;stroke:none;fill-rule:evenodd"/>
 </g>
</svg>
