<svg xmlns="http://www.w3.org/2000/svg" viewBox="0 0 24 24">
 <defs>
  
 </defs>
 <path d="m 5 1 c -0.473 0 -1 0.527 -1 1 l 0 20 c 0 0.445 0.555 1 1 1 l 14 0 c 0.445 0 0.992 -0.555 1 -1 l 0 -15 -6 -6 z" style="fill:#dcdcdc"/>
 <path d="m 15 7 5 5 0 -5 z" style="fill:#000;fill-opacity:0.196"/>
 <path d="m 14 1 6 6 -5 0 c -0.445 0 -1 -0.555 -1 -1 z" style="fill:#fff;fill-opacity:0.392"/>
 <path d="m 12 9 c 0 0 2.997 0.062 3 2.273 l 0 1.727 c 0 0 1 0.044 1 0.545 l 0 4.659 c 0 0.421 -0.408 0.795 -0.857 0.795 l -6.286 0 c -0.449 0 -0.857 -0.375 -0.857 -0.795 l 0 -4.659 c 0 -0.502 1 -0.545 1 -0.545 l 0 -1.721 c 0.023 -2.214 3 -2.279 3 -2.279 z m 0 1.274 c 0 0 -2 0.131 -2 1.726 l 0 1 4 0 0 -1 c 0 -1.66 -2 -1.726 -2 -1.726 z" style="fill:#888;fill-opacity:1;color:#000"/>
</svg>
