<svg xmlns="http://www.w3.org/2000/svg" viewBox="0 0 24 24">
 <path d="m 5 1 c -0.473 0 -1 0.527 -1 1 l 0 20 c 0 0.445 0.555 1 1 1 l 14 0 c 0.445 0 0.992 -0.555 1 -1 l 0 -15 -6 -6 z" style="fill:#9a773c;fill-opacity:1"/>
 <path d="m 15 7 5 5 0 -5 z" style="fill:#000;fill-opacity:0.196"/>
 <path d="m 14 1 6 6 -5 0 c -0.445 0 -1 -0.555 -1 -1 z" style="fill:#fff;fill-opacity:0.392"/>
 <rect width="2" height="2" x="7" y="1" style="fill:#f9f9f9;fill-opacity:1;stroke:none;fill-rule:evenodd"/>
 <path d="m 16.605 10.177 c -0.043 0.022 -0.086 0.096 -0.122 0.222 -0.107 0.332 -0.852 2.629 -5.07 2.74 -2.01 0.052 -2.872 -1.795 -2.872 -1.795 l -0.05 2.378 c 0 0 0.215 0.532 -0.215 1.086 -0.021 -0.037 -0.036 -0.081 -0.064 -0.118 c -0.158 -0.222 -0.337 -0.414 -0.53 -0.554 -0.222 -0.162 -0.458 -0.273 -0.68 -0.303 -0.265 -0.044 -0.523 0.015 -0.723 0.17 c -0.201 0.155 -0.322 0.384 -0.365 0.665 -0.043 0.236 -0.029 0.495 0.05 0.761 0.064 0.244 0.172 0.48 0.329 0.709 0.165 0.236 0.365 0.443 0.58 0.591 0.243 0.17 0.494 0.266 0.745 0.281 0.079 0 0.158 -0.015 0.229 -0.03 1.618 1.344 4.834 2.6 6.968 1.167 0.043 0.015 0.093 0.037 0.136 0.052 0 0.022 -0.007 0.044 0 0.066 l 0.1 -0.037 c 0.021 0.007 0.036 0.022 0.05 0.022 0.007 0 0.007 0 0.014 0 l 0.036 0.044 0.96 0.354 c -0.036 0.347 0.129 0.746 0.544 0.916 0.752 0.303 1.454 0.687 1.454 0.687 -0.358 -1.278 -0.487 -2.304 -1.425 -2.208 -0.179 0.015 -0.308 0.089 -0.408 0.199 l -0.845 -0.576 -0.036 0 -0.014 -0.007 c 1.139 -1.182 1.805 -3.39 1.404 -7.23 -0.021 -0.192 -0.1 -0.295 -0.179 -0.251 z" style="fill:#f9f9f9;fill-opacity:1"/>
 <rect width="2" height="2" x="9" y="3" style="fill:#f9f9f9;fill-opacity:1;stroke:none;fill-rule:evenodd"/>
 <rect width="4" height="4" x="7" y="6" style="fill:#f9f9f9;fill-opacity:1;stroke:none;fill-rule:evenodd"/>
</svg>
