<svg xmlns="http://www.w3.org/2000/svg" viewBox="0 0 24 24">
 <path d="m 5 1 c -0.473 0 -1 0.527 -1 1 l 0 20 c 0 0.445 0.555 1 1 1 l 14 0 c 0.445 0 0.992 -0.555 1 -1 l 0 -15 -6 -6 z" style="fill:#4d9a05;fill-opacity:1"/>
 <path d="m 15 7 5 5 0 -5 z" style="fill:#000;fill-opacity:0.196"/>
 <path d="m 14 1 6 6 -5 0 c -0.445 0 -1 -0.555 -1 -1 z" style="fill:#fff;fill-opacity:0.392"/>
 <path d="m 11 8 c 0.668 0 1.332 0 2 0 l 0 4 l 1 0 l -2 2 -2 -2 1 0 z" style="fill:#fff"/>
 <path d="m 7 15 0 4 10 0 0 -4 z m 4.976 1 4.02 0 0 2 -4 0 z" style="fill:#fff"/>
</svg>
