<svg xmlns="http://www.w3.org/2000/svg" viewBox="0 0 24 24">
 <path d="m 5 1 c -0.473 0 -1 0.527 -1 1 l 0 20 c 0 0.445 0.555 1 1 1 l 14 0 c 0.445 0 0.992 -0.555 1 -1 l 0 -15 -6 -6 z" style="fill:#0ca1a6;fill-opacity:1"/>
 <path d="m 15 7 5 5 0 -5 z" style="fill:#000;fill-opacity:0.196"/>
 <path d="m 14 1 6 6 -5 0 c -0.445 0 -1 -0.555 -1 -1 z" style="fill:#fff;fill-opacity:0.392"/>
 <path d="m 17 12.5 c 0 -1.376 -1.11 -2.5 -2.458 -2.5 l 0 0 c -0.126 0 -0.253 0.015 -0.379 0.03 l 0 0 c -1.053 0.163 -1.756 0.962 -2.163 1.568 l 0 0 c -0.393 -0.607 -1.11 -1.42 -2.163 -1.568 l 0 0 c -0.126 -0.015 -0.253 -0.03 -0.379 -0.03 l 0 0 c -1.362 0 -2.458 1.124 -2.458 2.5 l 0 0 c 0 1.376 1.11 2.5 2.458 2.5 l 0 0 c 0.126 0 0.253 -0.015 0.379 -0.03 l 0 0 c 1.053 -0.163 1.756 -0.962 2.163 -1.568 l 0 0 c 0.393 0.621 1.096 1.42 2.163 1.568 l 0 0 c 0.126 0.015 0.253 0.03 0.379 0.03 l 0 0 c 1.348 0 2.458 -1.109 2.458 -2.5 l 0 0 z m -7.275 1.598 c -0.084 0.015 -0.169 0.015 -0.267 0.015 l 0 0 c -0.899 0 -1.615 -0.725 -1.615 -1.612 l 0 0 c 0 -0.888 0.73 -1.612 1.615 -1.612 l 0 0 c 0.084 0 0.169 0.015 0.267 0.015 l 0 0 c 0.997 0.148 1.601 1.183 1.812 1.598 l 0 0 c -0.211 0.414 -0.815 1.45 -1.812 1.598 l 0 0 z m 2.739 -1.598 c 0.211 -0.414 0.815 -1.45 1.812 -1.598 l 0 0 c 0.084 -0.015 0.169 -0.015 0.267 -0.015 l 0 0 c 0.899 0 1.615 0.725 1.615 1.612 l 0 0 c 0 0.888 -0.73 1.612 -1.615 1.612 l 0 0 c -0.084 0 -0.169 0 -0.267 -0.015 l 0 0 c -0.997 -0.148 -1.601 -1.183 -1.812 -1.598 l 0 0 z" style="fill:#fff;opacity:0.7"/>
 <path d="m 8 12 0 0 0 1 3 0 0 0 0 -1 0 0 z" style="fill:#fff"/>
 <path d="m 13 12 0 1 0 0 1 0 0 0 0 1 0 0 1 0 0 -1 1 0 0 -1 -1 0 0 -1 -1 0 0 1 z" style="fill:#fff"/>
</svg>
