<svg xmlns="http://www.w3.org/2000/svg" viewBox="0 0 24 24">
 <path d="m 5 1 c -0.473 0 -1 0.527 -1 1 l 0 20 c 0 0.445 0.555 1 1 1 l 14 0 c 0.445 0 0.992 -0.555 1 -1 l 0 -15 -6 -6 z" style="fill:#2d2d2d;fill-opacity:1"/>
 <path d="m 15 7 5 5 0 -5 z" style="fill:#000;fill-opacity:0.196"/>
 <path d="m 14 1 6 6 -5 0 c -0.445 0 -1 -0.555 -1 -1 z" style="fill:#fff;fill-opacity:0.392"/>
 <path d="m 8 9.778 0 0.822 c 1.333 0 1.233 0.4 1.233 1.733 l 0 4 c 0 1.333 0.1 1.733 -1.233 1.733 l 0 0.933 l 4 0 0 -0.933 c -1.333 0 -1.233 -0.4 -1.233 -1.733 l 0 -1.333 0.566 0 c 0.533 0 0.967 0 0.967 1.333 l 0.933 0 0 -4 -0.933 0 c 0 1.333 -0.434 1.333 -0.967 1.333 l -0.566 0 0 -2.667 2.566 0 c 1.333 0 1.733 0 1.733 1.333 l 0.933 0 0 -2.567 z" style="fill:#dcdcdc;fill-opacity:1"/>
</svg>
