<svg xmlns="http://www.w3.org/2000/svg" viewBox="0 0 24 24">
 <path d="m 5 1 c -0.473 0 -1 0.527 -1 1 l 0 20 c 0 0.445 0.555 1 1 1 l 14 0 c 0.445 0 0.992 -0.555 1 -1 l 0 -15 -6 -6 z" style="fill:#dcdcdc"/>
 <path d="m 15 7 5 5 0 -5 z" style="fill:#000;fill-opacity:0.196"/>
 <g transform="matrix(1.8007035,0,0,1.7996484,-2.4056281,-1.5957808)" style="fill:#888">
  <path d="m 8 5.332 c -1.84 0 -3.332 1.492 -3.332 3.336 c 0 1.84 1.492 3.332 3.332 3.332 1.84 0 3.332 -1.492 3.332 -3.332 0 -1.844 -1.492 -3.336 -3.332 -3.336 z m 0 0.668 c 1.473 0 2.668 1.195 2.668 2.668 0 1.473 -1.195 2.664 -2.668 2.664 -1.473 0 -2.668 -1.191 -2.668 -2.664 c 0 -1.473 1.195 -2.668 2.668 -2.668 z"/>
  <path d="m 8.668 7.332 c 0 0.371 -0.301 0.668 -0.668 0.668 -0.367 0 -0.668 -0.297 -0.668 -0.668 0 -0.367 0.301 -0.664 0.668 -0.664 c 0.367 0 0.668 0.297 0.668 0.664 z"/>
  <path d="m 8.555 8.388 0 2.223 -1.111 0 0 -2.223 z"/>
 </g>
 <path d="m 14 1 6 6 -5 0 c -0.445 0 -1 -0.555 -1 -1 z" style="fill:#fff;fill-opacity:0.392"/>
</svg>
