<svg xmlns="http://www.w3.org/2000/svg" viewBox="0 0 24 24">
 <path d="m 5 1 c -0.473 0 -1 0.527 -1 1 l 0 20 c 0 0.445 0.555 1 1 1 l 14 0 c 0.445 0 0.992 -0.555 1 -1 l 0 -15 -6 -6 z" style="fill:#dc322f;fill-opacity:1"/>
 <path d="m 15 7 5 5 0 -5 z" style="fill:#000;fill-opacity:0.196"/>
 <path d="m 14 1 6 6 -5 0 c -0.445 0 -1 -0.555 -1 -1 z" style="fill:#fff;fill-opacity:0.392"/>
 <path d="m 8 14 c -0.554 0 -1 0.446 -1 1 l 0 3 c 0 0.554 0.446 1 1 1 l 3 0 c 0.554 0 1 -0.446 1 -1 l 0 -3 c 0 -0.554 -0.446 -1 -1 -1 z m 2.717 1 0.533 0.539 -2.534 2.461 -1.066 -1.078 0.533 -0.541 0.533 0.541" style="fill:#fff;opacity:1;fill-opacity:1;stroke:none"/>
 <path d="M 8,9 C 7.446,9 7,9.446 7,10 l 0,2 c 0,0.554 0.446,1 1,1 l 8,0 c 0.554,0 1,-0.446 1,-1 l 0,-2 C 17,9.446 16.554,9 16,9 L 8,9 Z m 0,1 5,0 0,2 -5,0 0,-2 z m 6,0 2,0 0,2 -2,0 0,-2 z" style="fill:#fff;opacity:1;fill-opacity:1;stroke:none"/>
 <path d="M 14.5 14 A 2.5 2.5 0 0 0 12 16.5 2.5 2.5 0 0 0 14.5 19 2.5 2.5 0 0 0 17 16.5 2.5 2.5 0 0 0 14.5 14 m 0 0.75 a 1.75 1.75 0 0 1 1.75 1.75 1.75 1.75 0 0 1 -1.75 1.75 1.75 1.75 0 0 1 -1.75 -1.75 1.75 1.75 0 0 1 1.75 -1.75 z m 0 0.75 a 1 1 0 0 0 -1 1 1 1 0 0 0 1 1 1 1 0 0 0 1 -1 1 1 0 0 0 -1 -1 z" style="fill:#fff;opacity:1;fill-opacity:1;stroke:none"/>
</svg>
