<svg xmlns="http://www.w3.org/2000/svg" viewBox="0 0 24 24">
 <path d="m 5 1 c -0.473 0 -1 0.527 -1 1 l 0 20 c 0 0.445 0.555 1 1 1 l 14 0 c 0.445 0 0.992 -0.555 1 -1 l 0 -15 -6 -6 z" style="fill:#2d2d2d;fill-opacity:1"/>
 <path d="m 15 7 5 5 0 -5 z" style="fill:#000;fill-opacity:0.196"/>
 <path d="m 14 1 6 6 -5 0 c -0.445 0 -1 -0.555 -1 -1 z" style="fill:#fff;fill-opacity:0.392"/>
 <path d="m 15.503 9.6 c -0.776 0 -1.169 0.276 -1.479 0.658 -0.31 0.382 -0.494 0.89 -0.706 1.327 -0.142 0.294 -0.461 1.386 -0.755 2.416 -0.245 0.852 -0.464 1.694 -0.83 2.445 -0.261 0.403 -0.681 0.63 -1.104 0.63 -0.148 0 -0.296 -0.028 -0.439 -0.084 0.502 0.717 1.658 1.881 3.01 -0.057 0.933 -1.344 1.246 -4.238 1.911 -5.327 0.838 -1.386 1.26 -1.059 1.365 -0.943 0.019 -0.113 0.029 -0.23 0.023 -0.344 -0.009 -0.209 -0.06 -0.369 -0.18 -0.486 -0.12 -0.119 -0.346 -0.231 -0.817 -0.231 l 0.002 -0.004 z m -6.318 1.221 c 0.199 0.233 0.359 0.528 0.456 0.875 0.216 0.778 0.257 1.745 0.305 2.595 0.025 0.426 0.05 0.822 0.09 1.132 0.033 0.485 0.217 0.814 0.594 0.849 0.457 -0.023 0.597 -0.574 0.734 -0.98 c -0.206 -0.089 -0.503 -0.585 -0.734 -2.482 -0.132 -1.095 -0.91 -1.699 -1.446 -1.99 m -1.23 0.195 c -0.098 0 -0.182 0.028 -0.248 0.076 -0.088 0.063 -0.165 0.166 -0.2 0.379 -0.051 0.323 0.165 0.682 0.367 0.966 0 0 0 -0.403 0.389 -0.603 0.212 -0.109 0.473 0.067 0.671 0.252 -0.013 -0.058 -0.028 -0.115 -0.043 -0.17 c -0.159 -0.571 -0.537 -0.844 -0.831 -0.892 l -0.106 -0.009 z" style="fill:#fff;fill-opacity:1;stroke:none;fill-rule:nonzero"/>
</svg>
