<svg xmlns="http://www.w3.org/2000/svg" viewBox="0 0 24 24">
 <path d="m 5 1 c -0.473 0 -1 0.527 -1 1 l 0 20 c 0 0.445 0.555 1 1 1 l 14 0 c 0.445 0 0.992 -0.555 1 -1 l 0 -15 -6 -6 z" style="fill:#dcdcdc"/>
 <path d="m 15 7 5 5 0 -5 z" style="fill:#000;fill-opacity:0.196"/>
 <path d="m 14 1 6 6 -5 0 c -0.445 0 -1 -0.555 -1 -1 z" style="fill:#fff;fill-opacity:0.392"/>
 <g transform="scale(1.0078875,0.99217423)" style="fill:#888">
  <path d="m 16.867 13.565 q 0 0.888 -0.279 1.627 -0.279 0.734 -0.79 1.153 -0.51 0.419 -1.185 0.419 -0.45 0 -0.796 -0.216 -0.346 -0.222 -0.498 -0.579 l -0.097 0 q -0.656 0.795 -1.671 0.795 -1.075 0 -1.695 -0.653 -0.62 -0.66 -0.62 -1.8 0 -1.301 0.814 -2.096 0.814 -0.795 2.127 -0.795 0.523 0 1.148 0.105 0.632 0.099 1.039 0.24 l -0.14 3.01 q 0 0.857 0.462 0.857 0.389 0 0.62 -0.573 0.231 -0.579 0.231 -1.51 0 -0.992 -0.407 -1.751 -0.407 -0.764 -1.148 -1.165 -0.735 -0.401 -1.683 -0.401 -1.227 0 -2.133 0.512 -0.905 0.512 -1.391 1.479 -0.48 0.962 -0.48 2.225 0 1.701 0.893 2.614 0.899 0.906 2.6 0.906 0.644 0 1.416 -0.142 0.772 -0.148 1.519 -0.425 l 0 1.184 q -1.3 0.561 -2.886 0.561 -2.309 0 -3.603 -1.233 -1.288 -1.233 -1.288 -3.427 0 -1.523 0.656 -2.762 0.662 -1.245 1.877 -1.948 1.221 -0.709 2.807 -0.709 1.337 0 2.388 0.555 1.051 0.555 1.622 1.578 0.571 1.023 0.571 2.361 z m -6.222 0.771 q 0 1.301 1.045 1.301 0.547 0 0.832 -0.388 0.286 -0.395 0.346 -1.276 l 0.079 -1.362 q -0.31 -0.068 -0.699 -0.068 -0.759 0 -1.185 0.481 -0.419 0.481 -0.419 1.313 z"/>
 </g>
</svg>
