<svg xmlns="http://www.w3.org/2000/svg" viewBox="0 0 24 24">
 <path d="m 5 1 c -0.473 0 -1 0.527 -1 1 l 0 20 c 0 0.445 0.555 1 1 1 l 14 0 c 0.445 0 0.992 -0.555 1 -1 l 0 -15 -6 -6 z" style="fill:#dcdcdc"/>
 <path d="m 15 7 5 5 0 -5 z" style="fill:#000;fill-opacity:0.196"/>
 <path d="m 14 1 6 6 -5 0 c -0.445 0 -1 -0.555 -1 -1 z" style="fill:#fff;fill-opacity:0.392"/>
 <path d="m 10.704 16.855 0 -0.393 c 0 -0.567 0.117 -1.031 0.336 -1.392 0.226 -0.367 0.649 -0.76 1.255 -1.166 0.853 -0.554 1.386 -0.979 1.605 -1.257 0.226 -0.284 0.336 -0.619 0.336 -1.018 0 -0.496 -0.204 -0.876 -0.62 -1.141 -0.401 -0.277 -0.992 -0.412 -1.758 -0.412 -0.496 0 -0.97 0.052 -1.444 0.142 -0.467 0.084 -0.999 0.251 -1.605 0.483 l -0.554 -0.979 c 1.182 -0.477 2.414 -0.722 3.698 -0.722 c 1.189 0 2.115 0.232 2.779 0.683 0.664 0.458 0.992 1.102 0.992 1.933 0 0.348 -0.066 0.664 -0.19 0.934 c -0.117 0.271 -0.292 0.522 -0.532 0.767 c -0.233 0.238 -0.744 0.619 -1.532 1.153 -0.635 0.419 -1.05 0.767 -1.255 1.044 -0.204 0.271 -0.299 0.644 -0.299 1.102 l 0 0.238 -1.211 0 m -0.46 2.165 c 0 -0.664 0.379 -0.992 1.123 -0.992 0.365 0 0.642 0.084 0.839 0.258 0.197 0.168 0.299 0.412 0.299 0.735 0 0.309 -0.102 0.548 -0.299 0.728 c -0.204 0.168 -0.481 0.251 -0.839 0.251 c -0.321 0 -0.591 -0.077 -0.802 -0.226 -0.212 -0.155 -0.321 -0.406 -0.321 -0.754" style="fill:#888"/>
</svg>
