<svg xmlns="http://www.w3.org/2000/svg" viewBox="0 0 22 22">
 <g style="fill:#ececec;fill-opacity:1">
  <rect width="11.771" x="4" y="13.671" rx="3.382" height="5.329" ry="2.665"/>
  <rect width="11.771" x="4" y="9.04" height="7.334"/>
  <g transform="matrix(-.20621 0 0 .20963 34.60912 8.74733)">
   <path d="m 94.25 9.801 c -3.138 0 -5.618 1.048 -7.441 3.145 -1.81 2.083 -2.715 4.941 -2.715 8.574 0 3.737 0.872 6.628 2.617 8.672 1.758 2.031 4.258 3.047 7.5 3.047 1.992 0 4.264 -0.358 6.816 -1.074 l 0 2.91 c -1.979 0.742 -4.421 1.113 -7.324 1.113 -4.206 0 -7.454 -1.276 -9.746 -3.828 -2.279 -2.552 -3.418 -6.178 -3.418 -10.879 0 -2.943 0.547 -5.521 1.641 -7.734 1.107 -2.214 2.695 -3.919 4.766 -5.117 2.083 -1.198 4.531 -1.797 7.344 -1.797 2.995 0 5.612 0.547 7.852 1.641 l -1.406 2.852 c -2.161 -1.016 -4.323 -1.523 -6.484 -1.523"/>
  </g>
  <g transform="matrix(.12726 0 0 .1072 -13.60468 .69497)">
   <path d="m 158.27 21.558 c 0.135 -0.429 -4.985 1.661 -7.969 3.5 -1.48 0.912 -4.797 3.938 -5.656 5.094 -0.888 1.194 -1.656 2.55 -2.188 3.938 -0.531 1.388 -0.929 2.898 -1 4.375 -0.071 1.487 0.085 3.097 0.563 4.5 0.491 1.444 1.42 2.792 2.344 4.03 0.943 1.265 2.224 2.317 3.281 3.5 1.033 1.155 2.217 2.218 3 3.531 0.788 1.321 1.402 2.841 1.688 4.344 0.258 1.355 0.168 2.848 -0.063 4.219 -0.23 1.369 -0.687 2.76 -1.313 4 -0.661 1.311 -1.521 2.589 -2.531 3.656 -1.104 1.165 -3.929 2.627 -3.813 3.063 0.108 0.403 4.403 -1.143 5.813 -1.75 1.221 -0.526 4.443 -2.364 5.469 -3.281 0.982 -0.878 2 -1.764 2.781 -2.813 0.747 -1.01 1.484 -2.176 1.781 -3.375 0.329 -1.329 0.313 -2.821 0.094 -4.188 -0.241 -1.503 -0.817 -3.01 -1.469 -4.406 -0.648 -1.384 -1.525 -2.681 -2.406 -3.938 -0.891 -1.271 -1.913 -2.46 -2.906 -3.656 -0.968 -1.166 -2.164 -2.172 -2.969 -3.438 -0.825 -1.298 -1.719 -2.774 -1.938 -4.25 -0.207 -1.394 0.199 -2.972 0.656 -4.344 0.476 -1.427 1.313 -2.767 2.156 -4.03 0.787 -1.181 1.829 -2.198 2.719 -3.313 1.307 -1.638 3.526 -3.862 3.875 -4.969 z"/>
   <path d="m 187.18 21.558 c 0.135 -0.429 -4.985 1.661 -7.969 3.5 -1.48 0.912 -4.797 3.938 -5.656 5.094 -0.888 1.194 -1.656 2.55 -2.188 3.938 -0.531 1.388 -0.929 2.898 -1 4.375 -0.071 1.487 0.085 3.097 0.563 4.5 0.491 1.444 1.42 2.792 2.344 4.03 0.943 1.265 2.224 2.317 3.281 3.5 1.033 1.155 2.217 2.218 3 3.531 0.788 1.321 1.402 2.841 1.688 4.344 0.258 1.355 0.168 2.848 -0.063 4.219 -0.23 1.369 -0.687 2.76 -1.313 4 -0.661 1.311 -1.521 2.589 -2.531 3.656 -1.104 1.165 -3.929 2.627 -3.813 3.063 0.108 0.403 4.403 -1.143 5.813 -1.75 1.221 -0.526 4.443 -2.364 5.469 -3.281 0.982 -0.878 2 -1.764 2.781 -2.813 0.747 -1.01 1.484 -2.176 1.781 -3.375 0.329 -1.329 0.313 -2.821 0.094 -4.188 -0.241 -1.503 -0.817 -3.01 -1.469 -4.406 -0.648 -1.384 -1.525 -2.681 -2.406 -3.938 -0.891 -1.271 -1.913 -2.46 -2.906 -3.656 -0.968 -1.166 -2.164 -2.172 -2.969 -3.438 -0.825 -1.298 -1.719 -2.774 -1.938 -4.25 -0.207 -1.394 0.199 -2.972 0.656 -4.344 0.476 -1.427 1.313 -2.767 2.156 -4.03 0.787 -1.181 1.829 -2.198 2.719 -3.313 1.307 -1.638 3.526 -3.862 3.875 -4.969 z"/>
   <path d="m 216.08 21.558 c 0.135 -0.429 -4.985 1.661 -7.969 3.5 -1.48 0.912 -4.797 3.938 -5.656 5.094 -0.888 1.194 -1.656 2.55 -2.188 3.938 -0.531 1.388 -0.929 2.898 -1 4.375 -0.071 1.487 0.085 3.097 0.563 4.5 0.491 1.444 1.42 2.792 2.344 4.03 0.943 1.265 2.224 2.317 3.281 3.5 1.033 1.155 2.217 2.218 3 3.531 0.788 1.321 1.402 2.841 1.688 4.344 0.258 1.355 0.168 2.848 -0.063 4.219 -0.23 1.369 -0.687 2.76 -1.313 4 -0.661 1.311 -1.521 2.589 -2.531 3.656 -1.104 1.165 -3.929 2.627 -3.813 3.063 0.108 0.403 4.403 -1.143 5.813 -1.75 1.221 -0.526 4.443 -2.364 5.469 -3.281 0.982 -0.878 2 -1.764 2.781 -2.813 0.747 -1.01 1.484 -2.176 1.781 -3.375 0.329 -1.329 0.313 -2.821 0.094 -4.188 -0.241 -1.503 -0.817 -3.01 -1.469 -4.406 -0.648 -1.384 -1.525 -2.681 -2.406 -3.938 -0.891 -1.271 -1.913 -2.46 -2.906 -3.656 -0.968 -1.166 -2.164 -2.172 -2.969 -3.438 -0.825 -1.298 -1.719 -2.774 -1.938 -4.25 -0.207 -1.394 0.199 -2.972 0.656 -4.344 0.476 -1.427 1.313 -2.767 2.156 -4.03 0.787 -1.181 1.829 -2.198 2.719 -3.313 1.307 -1.638 3.526 -3.862 3.875 -4.969 z"/>
  </g>
 </g>
</svg>
