<!-- Generator: Adobe Illustrator 15.1.0, SVG Export Plug-In . SVG Version: 6.00 Build 0)  -->
<svg xmlns="http://www.w3.org/2000/svg" viewBox="0 0 22 22" style="enable-background:new 0 0 24 24">
 <polygon points="18.162,10.28 16.033,8.347 22.172,0.866 22.76,1.286 " transform="matrix(0.88289963,0,0,0.88294066,0.40520444,0.73537336)" style="fill:#ececec;opacity:0.4;fill-opacity:1"/>
 <path d="m 5.063 9.812 -3.563 1.188 0 -1.188 3.563 -3.091 1.187 0.715 2.054 5.05 -2.053 2.072" style="fill:#ececec;fill-opacity:1"/>
 <path d="m 5.063 6.721 -3.563 3.092 0 1.188 3.563 -1.188 l 1.188 4.75 1.188 4.75 2.92 -1.768 0 -0.002 9.783 2.957 0.326 0 l 0.033 -0.269 -3.563 -8.04 -1.188 -1.188 -6.078 4.857 -1.369 -3.367 -2.053 -5.05" style="fill:#ececec;opacity:0.4;fill-opacity:1"/>
 <path d="m 10.505 13.374 -1.855 -3.562 2.35 -1.188 c 1.187 0 3.561 1.188 3.561 1.188 l -4.056 3.562 z" style="fill:#ececec;opacity:0.4;fill-opacity:1"/>
</svg>
