<!-- Generator: Adobe Illustrator 15.1.0, SVG Export Plug-In . SVG Version: 6.00 Build 0)  -->
<svg xmlns="http://www.w3.org/2000/svg" viewBox="0 0 22 22" style="enable-background:new 0 0 24 24">
 <polygon points="18.162,10.28 16.033,8.347 22.172,0.866 22.76,1.286 " transform="matrix(0.88289963,0,0,0.88294066,0.40520444,0.73537336)" style="fill:#ececec;opacity:0.4;fill-opacity:1"/>
 <path transform="matrix(0.88289963,0,0,0.88294066,0.40520444,0.73537336)" d="m 5.275 10.28 -4.04 1.345 0 -1.345 4.04 -3.501 1.344 0.81 4.654 11.448 -3.308 2 z" style="fill:#ececec;fill-opacity:1"/>
 <polyline points="22.76,22.08 18.725,12.97 17.379,11.625 10.359,17.238 11.273,19.037 22.354,22.385     22.723,22.385   " transform="matrix(0.88289963,0,0,0.88294066,0.40520444,0.73537336)" style="fill:#ececec;opacity:0.4;fill-opacity:1"/>
 <path d="m 10.505 13.374 -1.855 -3.562 2.35 -1.188 c 1.187 0 3.561 1.188 3.561 1.188 l -4.056 3.562 z" style="fill:#ececec;opacity:0.4;fill-opacity:1"/>
</svg>
