<!-- Generator: Adobe Illustrator 15.1.0, SVG Export Plug-In . SVG Version: 6.00 Build 0)  -->
<svg xmlns="http://www.w3.org/2000/svg" viewBox="0 0 22 22" style="enable-background:new 0 0 24 24">
 <polygon points="18.162,10.28 16.033,8.347 22.172,0.866 22.76,1.286 " transform="matrix(0.88289963,0,0,0.88294066,0.40520444,0.73537336)" style="fill:#ececec;opacity:0.4;fill-opacity:1"/>
 <path transform="matrix(0.88289963,0,0,0.88294066,0.40520444,0.73537336)" d="m 5.275 10.28 -4.04 1.345 0 -1.345 4.04 -3.501 1.344 0.81 4.654 11.448 -3.308 2 z" style="fill:#ececec;fill-opacity:1"/>
 <path transform="matrix(0.88289963,0,0,0.88294066,0.40520444,0.73537336)" d="m 15.624 13.03 -1.755 1.403 -3.51 2.807 0.914 1.799 2.77 0.837 1.385 0.419" style="fill:#ececec;opacity:1;fill-opacity:1"/>
 <path d="m 10.505 13.374 -1.855 -3.562 2.35 -1.188 c 1.187 0 3.561 1.188 3.561 1.188 l -4.056 3.562 z" style="fill:#ececec;opacity:1;fill-opacity:1"/>
 <path d="m 20.5 20.231 -3.563 -8.04 -1.188 -1.188 -3.099 2.478 -3.099 2.478 0.807 1.588 2.446 0.739 2.446 0.739 4.892 1.478 0.326 0" style="fill:#ececec;opacity:0.4;fill-opacity:1"/>
</svg>
