<svg xmlns="http://www.w3.org/2000/svg" viewBox="0 0 22 22">
 <path d="m 19 16.12 q 0 1.225 -0.903 2.052 q -0.903 0.827 -2.24 0.827 -1.543 0 -2.686 -1.047 l -8.88 -8.126 q -1.291 -1.204 -1.291 -2.838 0 -1.665 1.257 -2.827 1.257 -1.162 3.074 -1.162 1.806 0 3.12 1.183 l 6.914 6.346 q 0.114 0.105 0.114 0.23 0 0.167 -0.349 0.487 -0.349 0.319 -0.531 0.319 -0.149 0 -0.263 -0.105 l -6.926 -6.356 q -0.903 -0.806 -2.069 -0.806 q -1.211 0 -2.046 0.785 -0.834 0.785 -0.834 1.895 0 1.099 0.869 1.895 l 8.869 8.136 q 0.72 0.66 1.657 0.66 0.731 0 1.211 -0.44 0.48 -0.44 0.48 -1.11 0 -0.859 -0.72 -1.518 l -6.64 -6.084 q -0.297 -0.251 -0.686 -0.251 q -0.331 0 -0.549 0.199 -0.217 0.199 -0.217 0.503 0 0.335 0.286 0.618 l 4.686 4.293 q 0.114 0.105 0.114 0.23 0 0.167 -0.354 0.492 -0.354 0.325 -0.537 0.325 -0.137 0 -0.251 -0.105 l -4.686 -4.293 q -0.72 -0.639 -0.72 -1.56 q 0 -0.859 0.651 -1.456 0.651 -0.597 1.589 -0.597 1.01 0 1.703 0.66 l 6.64 6.084 q 1.143 1.026 1.143 2.461 z" style="fill:#ececec;fill-opacity:1"/>
</svg>
