<svg xmlns="http://www.w3.org/2000/svg" width="22" viewBox="0 0 6.2088891 6.2088891" height="22">
 <path d="m 2.822 2.258 c -0.152 0 -0.282 0.144 -0.282 0.282 l 0 1.41 c 0 0.145 0.088 0.282 0.282 0.282 l 0.847 0 0 0.673 0.564 0 0 -0.673 0.847 0 c 0.181 0 0.282 -0.123 0.282 -0.282 l 0 -1.41 c 0 -0.139 -0.111 -0.282 -0.282 -0.282 z m 0.564 0.564 1.129 0 c 0.155 0 0.282 0.109 0.282 0.282 l 0 0.282 c 0 0.143 -0.109 0.282 -0.282 0.282 l -1.129 0 c -0.175 0 -0.282 -0.117 -0.282 -0.282 l 0 -0.282 c 0 -0.157 0.118 -0.282 0.282 -0.282 z m -0.564 1.977 0 0.564 2.258 0 0 -0.564 z" style="fill:#ececec;fill-opacity:1;color:#000"/>
 <path d="m 1.129 0.843 c -0.282 0 -0.282 0.282 -0.282 0.282 l 0 1.693 c 0 0 0 0.282 0.282 0.282 l 0.847 0 0 0.558 -0.847 0 0 0.564 1.129 0 0 -1.687 -0.564 0 c -0.155 0 -0.282 -0.13 -0.282 -0.282 l 0 -0.564 c 0 -0.16 0.126 -0.282 0.282 -0.282 l 1.129 0 c 0.169 0 0.282 0.12 0.282 0.282 l 0 0.282 0.564 0 0 -0.847 c 0 -0.282 -0.282 -0.282 -0.282 -0.282 z" style="fill:#ececec;fill-opacity:1;color:#000"/>
</svg>
