<svg xmlns="http://www.w3.org/2000/svg" viewBox="0 0 22 22">
 <path d="m 2 4 c -0.276 0 -0.5 0.224 -0.5 0.5 l 0 13 c 0 0.276 0.224 0.5 0.5 0.5 l 12 0 c 0.276 0 0.5 -0.224 0.5 -0.5 l 0 -3.191 l 5.277 2.639 c 0.332 0.165 0.722 -0.076 0.723 -0.447 l 0 -11 c 0 -0.371 -0.39 -0.612 -0.723 -0.447 l -5.277 2.639 l 0 -3.191 c 0 -0.276 -0.224 -0.5 -0.5 -0.5 l -12 0 z m 3.229 4 l 5.543 0 c 0.126 0 0.228 0.093 0.229 0.209 l 0 5.582 c 0 0.116 -0.102 0.209 -0.229 0.209 l -5.543 0 c -0.126 0 -0.228 -0.093 -0.229 -0.209 l 0 -5.582 c 0 -0.116 0.102 -0.209 0.229 -0.209 z" mix-blend-mode="normal" isolation="auto" white-space="normal" solid-opacity="1" solid-color="#000000" style="visibility:visible;shape-rendering:auto;color-interpolation-filters:linearRGB;fill:#ececec;opacity:1;image-rendering:auto;fill-opacity:1;stroke:none;display:inline;color:#000;fill-rule:evenodd;color-rendering:auto;color-interpolation:sRGB"/>
</svg>
