<svg xmlns="http://www.w3.org/2000/svg" width="22" viewBox="0 0 6.208889 6.208889" height="22">
 <path d="m 4.374 2.164 c 0 -0.141 -0.038 -0.272 -0.114 -0.394 c -0.076 -0.122 -0.175 -0.221 -0.298 -0.298 -0.122 -0.077 -0.258 -0.138 -0.407 -0.182 -0.149 -0.044 -0.299 -0.066 -0.451 -0.066 c -0.152 0 -0.303 0.022 -0.451 0.066 c -0.149 0.044 -0.284 0.105 -0.407 0.182 -0.122 0.077 -0.222 0.177 -0.298 0.298 -0.076 0.122 -0.114 0.253 -0.114 0.394 c 0 0.198 0.075 0.374 0.225 0.529 0.022 0.022 0.056 0.054 0.101 0.097 0.045 0.043 0.079 0.075 0.101 0.097 0.282 0.3 0.438 0.592 0.466 0.876 l 0.754 0 c 0.029 -0.284 0.184 -0.576 0.466 -0.876 c 0.022 -0.022 0.056 -0.054 0.101 -0.097 0.045 -0.043 0.079 -0.075 0.101 -0.097 0.15 -0.155 0.225 -0.331 0.225 -0.529 z m 0.423 0 c 0 0.304 -0.114 0.566 -0.341 0.788 -0.099 0.096 -0.181 0.181 -0.246 0.256 -0.065 0.074 -0.131 0.168 -0.197 0.281 -0.066 0.113 -0.104 0.218 -0.112 0.316 0.104 0.055 0.155 0.135 0.155 0.241 0 0.073 -0.028 0.135 -0.083 0.188 0.055 0.053 0.083 0.116 0.083 0.188 0 0.102 -0.05 0.181 -0.149 0.238 0.029 0.045 0.043 0.091 0.043 0.138 0 0.09 -0.035 0.16 -0.104 0.209 -0.069 0.049 -0.155 0.073 -0.256 0.073 -0.044 0.086 -0.11 0.155 -0.198 0.206 -0.088 0.051 -0.184 0.076 -0.288 0.076 -0.104 0 -0.2 -0.025 -0.288 -0.076 c -0.088 -0.051 -0.154 -0.12 -0.198 -0.206 c -0.101 0 -0.187 -0.024 -0.256 -0.073 -0.069 -0.049 -0.104 -0.119 -0.104 -0.209 0 -0.047 0.014 -0.093 0.043 -0.138 -0.099 -0.057 -0.149 -0.136 -0.149 -0.238 0 -0.073 0.028 -0.135 0.083 -0.188 -0.055 -0.053 -0.083 -0.116 -0.083 -0.188 0 -0.106 0.052 -0.186 0.155 -0.241 c -0.009 -0.098 -0.046 -0.203 -0.112 -0.316 -0.066 -0.113 -0.132 -0.206 -0.197 -0.281 -0.065 -0.074 -0.147 -0.16 -0.246 -0.256 -0.227 -0.221 -0.341 -0.484 -0.341 -0.788 c 0 -0.194 0.049 -0.375 0.147 -0.542 c 0.098 -0.168 0.227 -0.307 0.387 -0.417 0.16 -0.111 0.341 -0.198 0.542 -0.262 c 0.202 -0.064 0.407 -0.096 0.617 -0.096 0.209 0 0.415 0.032 0.617 0.096 0.202 0.064 0.383 0.151 0.542 0.262 0.16 0.111 0.289 0.25 0.387 0.417 0.098 0.168 0.147 0.348 0.147 0.542 z" style="fill:#ececec;fill-opacity:1"/>
</svg>
