<svg xmlns="http://www.w3.org/2000/svg" viewBox="0 0 22 22">
 <path d="m 18.333 5.462 c 0.736 0 1.365 0.24 1.885 0.721 0.521 0.481 0.781 1.061 0.781 1.74 l 0 8.615 c 0 0.679 -0.26 1.26 -0.781 1.74 -0.521 0.481 -1.149 0.721 -1.885 0.721 l -14.667 0 c -0.736 0 -1.365 -0.24 -1.885 -0.721 c -0.521 -0.481 -0.781 -1.061 -0.781 -1.74 l 0 -8.615 c 0 -0.679 0.26 -1.26 0.781 -1.74 0.521 -0.481 1.149 -0.721 1.885 -0.721 l 2.333 0 l 0.531 -1.308 c 0.132 -0.314 0.373 -0.585 0.724 -0.812 0.351 -0.228 0.71 -0.341 1.078 -0.341 l 5.333 0 c 0.368 0 0.727 0.114 1.078 0.341 0.351 0.228 0.592 0.498 0.724 0.812 l 0.531 1.308 z m -7.333 11.08 c 1.285 0 2.384 -0.421 3.297 -1.264 0.913 -0.843 1.37 -1.857 1.37 -3.043 0 -1.186 -0.457 -2.2 -1.37 -3.043 -0.913 -0.843 -2.01 -1.264 -3.297 -1.264 -1.285 0 -2.384 0.421 -3.297 1.264 -0.913 0.843 -1.37 1.857 -1.37 3.043 0 1.186 0.457 2.2 1.37 3.043 0.913 0.843 2.01 1.264 3.297 1.264 z" style="fill:#ececec;fill-opacity:1"/>
 <rect width="2" height="5" x="8" y="10" rx="1" style="fill:#ececec;fill-opacity:1;stroke:none;fill-rule:evenodd"/>
 <rect width="2" height="5" x="12" y="10" rx="1" style="fill:#ececec;fill-opacity:1;stroke:none;fill-rule:evenodd"/>
</svg>
