<?xml version="1.0" encoding="UTF-8" standalone="no"?>
<svg
   xmlns:dc="http://purl.org/dc/elements/1.1/"
   xmlns:cc="http://creativecommons.org/ns#"
   xmlns:rdf="http://www.w3.org/1999/02/22-rdf-syntax-ns#"
   xmlns:svg="http://www.w3.org/2000/svg"
   xmlns="http://www.w3.org/2000/svg"
   xmlns:sodipodi="http://sodipodi.sourceforge.net/DTD/sodipodi-0.dtd"
   xmlns:inkscape="http://www.inkscape.org/namespaces/inkscape"
   width="240"
   height="240"
   viewBox="0 0 240 240"
   version="1.1"
   id="svg7"
   sodipodi:docname="no.svg"
   inkscape:version="0.92.4 5da689c313, 2019-01-14">
  <metadata
     id="metadata11">
    <rdf:RDF>
      <cc:Work
         rdf:about="">
        <dc:format>image/svg+xml</dc:format>
        <dc:type
           rdf:resource="http://purl.org/dc/dcmitype/StillImage" />
        <dc:title />
      </cc:Work>
    </rdf:RDF>
  </metadata>
  <sodipodi:namedview
     pagecolor="#ffffff"
     bordercolor="#666666"
     borderopacity="1"
     objecttolerance="10"
     gridtolerance="10"
     guidetolerance="10"
     inkscape:pageopacity="0"
     inkscape:pageshadow="2"
     inkscape:window-width="1321"
     inkscape:window-height="740"
     id="namedview9"
     showgrid="false"
     inkscape:zoom="1.4142136"
     inkscape:cx="48.473996"
     inkscape:cy="101.07576"
     inkscape:window-x="45"
     inkscape:window-y="28"
     inkscape:window-maximized="0"
     inkscape:current-layer="layer1"
     inkscape:pagecheckerboard="true" />
  <defs
     id="defs3">
    <style
       id="current-color-scheme"
       type="text/css">
   .ColorScheme-Text { color:#aaaaaa; } .ColorScheme-Highlight { color:#5294e2; }
  </style>
  </defs>
  <g
     inkscape:groupmode="layer"
     id="layer1"
     inkscape:label="Layer 1">
    <rect
       style="opacity:1;fill:#e6e6e6;fill-opacity:1;stroke:#ffffff;stroke-width:0;stroke-miterlimit:4;stroke-dasharray:none;stroke-opacity:1"
       id="rect820"
       width="200"
       height="199.99998"
       x="20"
       y="20.000008"
       ry="29.698486" />
  </g>
  <g
     inkscape:groupmode="layer"
     id="layer2"
     inkscape:label="Layer 2">
    <path
       style="color:#aaaaaa;fill:#ee4f84;fill-opacity:1;stroke-width:15.6059494"
       class="ColorScheme-Text"
       d="m 166.84833,57.5 a 15.605949,15.605949 0 0 0 -11.0339,4.572067 L 120.03049,97.85601 84.398927,62.224446 a 15.605949,15.605949 0 0 0 -0.15245,-0.152883 15.605949,15.605949 0 0 0 -10.94246,-4.511106 l -0.15232,0.213942 A 15.605949,15.605949 0 0 0 57.545723,73.38034 15.605949,15.605949 0 0 0 62.11778,84.41423 l 35.783957,35.7839 -35.783957,35.78394 a 15.605949,15.605949 0 0 0 -4.511096,10.91196 15.605949,15.605949 0 0 0 15.605953,15.60597 15.605949,15.605949 0 0 0 11.03389,-4.57207 l 35.783963,-35.78394 35.63153,35.63155 a 15.605949,15.605949 0 0 0 11.18631,4.72446 15.605949,15.605949 0 0 0 15.60595,-15.60597 15.605949,15.605949 0 0 0 -4.57205,-11.03389 L 141.97635,119.98476 177.6079,84.3532 A 15.605949,15.605949 0 0 0 182.45428,73.10593 15.605949,15.605949 0 0 0 166.84833,57.5 Z"
       id="path5"
       inkscape:connector-curvature="0" />
  </g>
</svg>
