<svg xmlns="http://www.w3.org/2000/svg" viewBox="0 0 64 64">
 <path d="m 30.03 56.647 c -10.422 -0.707 -19.574 -8.926 -22.16 -18.871 -2.383 -10.308 2.352 -21.921 11.59 -27.304 5.937 -3.543 13.39 -3.992 19.964 -2.141 8.121 2.492 14.304 9.719 16.472 17.769 c 1.953 7.43 0.547 15.859 -4.637 21.714 -4.691 5.84 -12.191 9.203 -19.699 8.906 -0.508 -0.008 -1.023 -0.035 -1.531 -0.074 z m 6.211 -1.164 c 1.875 -0.164 1.543 -0.734 -0.156 -0.887 -3.039 -0.586 -6.32 -0.598 -9.258 0.43 2.586 1.246 6.02 0.918 8.906 0.547 z m -9.203 -1.648 c 1.332 -1.359 -0.059 -4.609 -1.227 -5.898 -2.609 -1.332 -4.629 -3.5 -7.02 -5.141 -1.797 -0.66 -3.551 0.586 -5.281 1.01 -0.008 1.711 -0.125 3.652 1.387 4.844 2.488 2.449 5.488 4.601 8.875 5.578 1.086 0.047 2.227 -0.02 3.262 -0.391 z m 14.289 0.074 c 4.328 -1.863 8.387 -4.859 10.828 -8.933 0.879 -1.172 1.523 -3.23 -0.77 -2.547 -2.883 1.812 -5.488 4.051 -8.437 5.762 -1.789 1.422 -3.078 3.367 -4.355 5.23 0.441 1.027 1.887 0.781 2.734 0.488 z m 2.937 -7.488 c 2.172 -1.785 5.316 -2.93 6.465 -5.633 0.512 -2.129 0.551 -4.328 0.766 -6.496 -2.168 -1.922 -4.824 -3.223 -7.426 -4.453 -2.574 0.203 -4.648 2.488 -6.687 3.965 -1.082 0.594 -0.801 1.941 -1.102 2.969 -0.391 2.41 -0.844 4.805 -1.113 7.234 2.027 1.488 4.285 2.863 6.746 3.441 0.891 0.008 1.629 -0.59 2.352 -1.027 z m -15.515 0.371 c 1.973 -0.75 4.578 -1.316 5.5 -3.398 0.691 -2.918 1.07 -5.906 1.434 -8.879 -1.961 -1.863 -4.051 -3.824 -6.613 -4.785 -2.215 -0.039 -4.09 1.523 -6.05 2.375 -2.652 0.723 -3.574 3.125 -3.687 5.613 -0.781 2.461 0.113 4.984 2.344 6.34 1.953 1.434 4.461 3.723 7.078 2.734 z m -16.484 -3.445 c -1.594 -2.949 -2.695 -6.176 -3.137 -9.504 -1.582 0.32 -0.145 4.191 0.293 5.769 0.742 2.133 1.879 4.101 3.066 6.02 0.215 -0.789 0.344 -1.57 -0.223 -2.281 z m -0.684 -13.13 c 0.695 -0.996 1.805 -1.777 2.227 -2.918 0.734 -3.437 1.941 -6.758 3.664 -9.836 -0.07 -1.988 -2.297 -3.199 -3.402 -1 -3.152 4.051 -5.625 8.992 -5.738 14.207 -0.414 1.789 1.148 3.086 2.047 0.969 0.395 -0.469 0.801 -0.945 1.203 -1.418 z m 40.616 2.465 c 1.336 -1.75 3.184 -3.828 2.711 -6.203 -0.84 -4.5 -3.152 -8.769 -6.707 -11.699 -1.062 -0.449 -2.988 -2.09 -3.723 -0.539 -1.09 2.09 -3.797 4.062 -2.82 6.66 0.832 2.562 1.445 5.238 2.664 7.656 2.246 1.742 4.836 3.105 7.445 4.25 z m -29.824 -1.164 c 2.07 -1.047 4.082 -2.199 6.101 -3.332 0.676 -2.379 1.535 -4.695 2.332 -7.03 0.109 -2.523 -2.148 -4.336 -3.652 -6.105 -1.484 -2.371 -3.992 -0.555 -5.82 0.312 -4.02 2.148 -4.949 6.867 -6.324 10.812 0.195 1.48 1.551 2.711 2.539 3.809 1.363 1.375 2.898 3.199 4.824 1.531 z m 14.843 -12.754 c 1.074 -0.148 2.273 -0.039 3.262 -0.344 1.492 -1.598 2.801 -3.465 3.418 -5.566 -0.746 -2.117 -3.223 -3.082 -5.215 -3.805 -2.531 -0.746 -5.246 -1.117 -7.875 -0.816 -1.894 0.961 -5.301 3.766 -3.379 5.949 1.406 1.672 2.902 3.262 4.434 4.828 1.789 0.02 3.574 -0.121 5.355 -0.246 z" style="fill:#9c9c37;stroke:#9c9c37;stroke-width:0.247"/>
</svg>
