<svg xmlns="http://www.w3.org/2000/svg" viewBox="0 0 64 64">
 <path d="m 24.561 52.626 c 1.586 -0.172 -0.281 -1.508 -0.813 -1.773 -1.016 -0.508 -1.836 -1.086 -2.477 -2.047 -1.01 -1.539 -1.508 -3.57 -1.938 -5.336 -0.289 -1.203 -0.516 -1.898 0.242 -2.914 0.758 -1.01 -0.531 -1.836 0.266 -2.906 1.344 -1.789 1.914 -4.164 3.242 -5.93 0.375 -0.5 0.242 -0.969 0.781 -1.023 0.258 -0.023 0.93 0.492 1.156 0.641 0.656 0.445 1.461 0.656 2.102 1.086 0.328 0.211 0.945 0.055 1.211 0.266 0.773 0.602 0.594 2.484 0.516 3.453 -0.117 1.367 -1.219 1.797 -1.219 3.125 0 1.594 0.336 2.68 -0.164 4.313 -0.281 0.938 -1.01 2.01 -1.125 2.961 -0.094 0.758 0.047 0.734 0.266 1.453 0.266 0.852 0.328 1.617 1.133 2 0.461 0.211 2.328 0.305 2.586 -0.219 0.516 -1.023 -1.445 -1.367 -1.773 -1.992 -0.719 -1.344 0.969 -4.82 1.609 -5.984 0.359 -0.633 1.047 -1.141 1.297 -1.781 0.344 -0.859 -0.352 -1.445 -0.242 -2.102 0.219 -1.281 0.758 -2.641 1.164 -3.883 0.945 -2.867 2.25 1.492 2.797 2.594 0.219 0.43 0.375 0.906 0.594 1.344 0.258 0.523 -0.313 0.977 -0.156 1.617 0.141 0.609 0.844 0.945 1.234 1.398 0.594 0.703 1.01 1.578 1.32 2.43 0.664 1.781 0.898 4.875 2.133 6.305 0.172 0.203 0.672 0.094 0.859 0.273 0.43 0.414 -0.109 0.875 0.727 1.156 0.648 0.219 2.273 0.453 2.883 0.078 1.172 -0.711 -0.289 -1.578 -1.023 -2.32 -1.023 -1.016 -2.219 -1.953 -3.02 -3.172 -1.055 -1.602 -1.281 -3.406 -1.484 -5.258 -0.102 -0.891 0.867 -1.336 0.031 -2.398 -0.266 -0.344 -1.078 -0.297 -1.078 -0.648 0 -1.109 -0.031 -2.227 0 -3.336 0.039 -1.352 0.031 -3.57 1.32 -4.422 1.711 -1.148 3.883 -1.445 5.524 -2.672 1.625 -1.219 3.117 -2.328 4.094 -4.281 0.516 -1.023 0.781 -2.023 1.188 -3.07 0.297 -0.773 0.219 -0.516 0.695 -0.977 0.289 -0.266 0.711 -0.453 1.031 -0.75 0.828 -0.797 0.977 -1.578 2.367 -1.242 0.555 0.133 1.469 1.172 1.781 0.539 0.203 -0.406 0.078 -0.773 -0.031 -1.188 -0.156 -0.609 0.594 -0.813 0.57 -1.398 -0.031 -1.01 -1.664 -2.07 -2.508 -2.242 -1.063 -0.211 -2.234 0.25 -3.375 0.031 -0.906 -0.18 -1.703 -0.672 -2.578 -0.891 -0.922 -0.234 -1.75 -0.313 -2.531 0.242 -0.359 0.258 -0.5 0.711 -0.813 0.969 -0.266 0.219 -0.5 0.156 -0.805 0.383 -0.93 0.664 -1 1.641 0.594 1.344 -0.672 2.766 -3.922 10.211 -7.547 6.359 -1.695 -1.797 -3.25 -3.789 -4.852 -5.656 -1.414 -1.648 -2.234 -3.5 -4.633 -3.18 -2.375 0.313 -3.992 1.938 -5.828 3.289 -1.5 1.102 -3.266 1.344 -4.852 2.266 -1.688 0.969 -3.188 2.602 -3.766 4.469 -0.844 2.703 -0.359 5.305 -1.844 7.875 -0.891 1.555 -2.156 2.641 -3.281 3.93 -0.609 0.695 -1.016 1.648 -0.813 2.586 0.141 0.641 0.594 0.758 0.594 1.508 0 1.305 -0.063 2.602 -0.008 3.914 0.055 1.164 0.148 2.305 0.305 3.453 0.148 1 0.516 1.281 0.836 2.02 0.484 1.086 0.406 1.563 1.563 1.992 0.656 0.242 1.781 0.727 2.484 0.703 1.01 -0.047 1.148 -0.883 0.375 -1.781 -0.5 -0.586 -1.43 -0.773 -1.992 -1.406 -1.633 -1.828 -2.336 -7.328 -0.969 -9.266 0.563 -0.813 1.289 -0.82 1.344 -2.047 0.047 -1.102 -0.398 -1.484 0.594 -2.477 3.164 -1.617 3.5 -2.773 4.524 -2.219 1.25 0.68 0.273 4.484 0 5.555 -0.477 1.914 -2.375 2.813 -1.133 4.742 0.891 1.383 1.313 2.813 1.914 4.422 0.547 1.453 0.508 3.531 1.375 4.742 0.172 0.234 0.438 0.367 0.594 0.594 0.117 0.164 0.289 0.656 0.375 0.758 0.367 0.422 0.445 0.531 1.031 0.75 1.039 0.398 2.32 0.266 3.445 0.266" style="fill:#d56f7f;fill-rule:evenodd"/>
</svg>
