<svg xmlns="http://www.w3.org/2000/svg" viewBox="0 0 64 64">
 <path d="m 39.443 52.626 c -1.59 -0.176 0.277 -1.512 0.805 -1.777 1.016 -0.508 1.844 -1.09 2.48 -2.047 1.012 -1.535 1.512 -3.574 1.941 -5.336 0.285 -1.199 0.516 -1.895 -0.246 -2.91 -0.758 -1.012 0.531 -1.844 -0.27 -2.91 -1.34 -1.793 -1.906 -4.16 -3.234 -5.934 -0.379 -0.5 -0.242 -0.969 -0.781 -1.02 -0.262 -0.027 -0.93 0.492 -1.16 0.645 -0.656 0.441 -1.457 0.648 -2.102 1.078 -0.324 0.215 -0.945 0.059 -1.211 0.27 -0.773 0.605 -0.594 2.484 -0.516 3.449 0.117 1.375 1.219 1.805 1.219 3.125 0 1.594 -0.34 2.684 0.164 4.316 0.285 0.938 1.01 2 1.125 2.961 0.098 0.758 -0.047 0.738 -0.266 1.453 -0.262 0.852 -0.328 1.613 -1.133 2 -0.465 0.215 -2.324 0.305 -2.586 -0.215 -0.516 -1.023 1.445 -1.375 1.777 -2 0.715 -1.34 -0.969 -4.816 -1.613 -5.984 -0.359 -0.629 -1.043 -1.137 -1.297 -1.777 -0.344 -0.859 0.352 -1.445 0.242 -2.102 -0.215 -1.281 -0.758 -2.645 -1.16 -3.879 -0.945 -2.871 -2.254 1.488 -2.801 2.59 -0.219 0.43 -0.375 0.906 -0.59 1.348 -0.262 0.52 0.313 0.969 0.156 1.613 -0.145 0.605 -0.848 0.945 -1.238 1.402 -0.594 0.695 -1 1.574 -1.32 2.426 -0.664 1.777 -0.898 4.879 -2.129 6.305 -0.176 0.207 -0.672 0.09 -0.859 0.273 -0.43 0.414 0.109 0.879 -0.73 1.156 -0.645 0.215 -2.273 0.449 -2.883 0.078 -1.172 -0.707 0.293 -1.582 1.02 -2.316 1.031 -1.023 2.223 -1.961 3.02 -3.176 1.055 -1.602 1.273 -3.406 1.484 -5.254 0.098 -0.895 -0.867 -1.336 -0.035 -2.402 0.27 -0.34 1.082 -0.293 1.082 -0.645 0 -1.113 0.031 -2.234 0 -3.34 -0.039 -1.348 -0.031 -3.57 -1.32 -4.422 -1.715 -1.145 -3.887 -1.445 -5.523 -2.668 -1.625 -1.227 -3.117 -2.332 -4.102 -4.285 -0.508 -1.023 -0.773 -2.023 -1.184 -3.074 -0.301 -0.773 -0.215 -0.512 -0.695 -0.969 -0.289 -0.266 -0.711 -0.457 -1.031 -0.754 -0.824 -0.797 -0.977 -1.578 -2.367 -1.246 -0.555 0.137 -1.465 1.172 -1.777 0.543 -0.203 -0.406 -0.078 -0.777 0.023 -1.188 0.156 -0.609 -0.586 -0.813 -0.566 -1.398 0.035 -1.01 1.66 -2.07 2.508 -2.238 1.066 -0.215 2.238 0.246 3.371 0.023 0.914 -0.176 1.707 -0.668 2.586 -0.883 0.918 -0.234 1.746 -0.313 2.531 0.238 0.359 0.254 0.496 0.711 0.809 0.973 0.266 0.215 0.5 0.156 0.809 0.375 0.922 0.664 0.996 1.648 -0.594 1.348 0.672 2.77 3.918 10.211 7.547 6.363 1.691 -1.797 3.246 -3.789 4.848 -5.66 1.414 -1.645 2.234 -3.5 4.637 -3.184 2.371 0.313 3.992 1.941 5.828 3.289 1.496 1.105 3.262 1.348 4.848 2.266 1.688 0.969 3.191 2.605 3.77 4.473 0.84 2.703 0.359 5.305 1.836 7.871 0.895 1.555 2.164 2.645 3.289 3.934 0.605 0.695 1.01 1.652 0.809 2.582 -0.137 0.645 -0.594 0.762 -0.594 1.512 0 1.309 0.066 2.605 0.008 3.914 -0.055 1.164 -0.145 2.305 -0.309 3.457 -0.141 0.996 -0.508 1.273 -0.832 2.01 -0.48 1.086 -0.402 1.563 -1.563 1.992 -0.656 0.238 -1.777 0.727 -2.48 0.703 -1.01 -0.047 -1.152 -0.879 -0.379 -1.777 0.504 -0.586 1.434 -0.777 1.992 -1.406 1.637 -1.832 2.34 -7.332 0.973 -9.273 -0.566 -0.805 -1.289 -0.813 -1.344 -2.043 -0.051 -1.102 0.398 -1.484 -0.598 -2.48 -3.164 -1.613 -3.496 -2.766 -4.523 -2.215 -1.25 0.68 -0.27 4.488 0 5.555 0.48 1.914 2.375 2.813 1.133 4.746 -0.895 1.379 -1.309 2.805 -1.914 4.422 -0.547 1.449 -0.504 3.527 -1.375 4.738 -0.168 0.234 -0.438 0.363 -0.594 0.594 -0.117 0.168 -0.293 0.656 -0.375 0.754 -0.367 0.422 -0.445 0.535 -1.031 0.754 -1.039 0.398 -2.316 0.27 -3.441 0.27" style="fill:#6fbed5;fill-rule:evenodd"/>
</svg>
