<svg xmlns="http://www.w3.org/2000/svg" width="64" height="64" viewBox="0 0 51.2 51.2">
 <path d="m 5.313 4.8 40.573 0 c 0.285 0 0.513 0.228 0.513 0.513 l 0 40.573 c 0 0.285 -0.228 0.513 -0.513 0.513 l -40.573 0 c -0.285 0 -0.513 -0.228 -0.513 -0.513 l 0 -40.573 c 0 -0.285 0.228 -0.513 0.513 -0.513 z" style="stroke-dasharray:none;fill:none;stroke-miterlimit:4;stroke:#85b3b5;stroke-linecap:round;stroke-width:3.2"/>
 <path d="m 25.593 4.416 0.014 0 c 0.203 0 0.377 0.07 0.377 0.153 l 0 42.06 c 0 0.088 -0.174 0.153 -0.377 0.153 l -0.014 0 c -0.203 0 -0.377 -0.065 -0.377 -0.153 l 0 -42.06 c 0 -0.082 0.174 -0.153 0.377 -0.153 z" style="fill:none;stroke:#85b3b5;stroke-linecap:round;stroke-width:2.431"/>
 <path d="m 20.395 33.2 0 2.39 -10.39 0 0 -2.39 z" style="fill:#85b3b5;stroke:#85b3b5;fill-rule:evenodd;stroke-linejoin:round;stroke-width:0.81"/>
 <path d="m 16.395 29.6 c 0 0.661 -0.534 1.195 -1.195 1.195 -0.661 0 -1.195 -0.534 -1.195 -1.195 0 -0.661 0.534 -1.195 1.195 -1.195 0.661 0 1.195 0.534 1.195 1.195 z" style="fill:#85b3b5;stroke-miterlimit:10;stroke:#85b3b5;stroke-linecap:round;stroke-linejoin:round;stroke-width:0.81"/>
 <path d="m 16.395 39.2 c 0 0.657 -0.534 1.191 -1.195 1.191 -0.661 0 -1.195 -0.534 -1.195 -1.191 0 -0.661 0.534 -1.199 1.195 -1.199 0.661 0 1.195 0.538 1.195 1.199 z" style="fill:#85b3b5;stroke-miterlimit:10;stroke:#85b3b5;stroke-linecap:round;stroke-linejoin:round;stroke-width:0.81"/>
 <rect width="11.2" height="3.2" x="9.6" y="14.4" rx="0.467" ry="0.4" style="fill:#85b3b5;opacity:1;fill-opacity:1;stroke:none;fill-rule:nonzero"/>
 <rect width="11.2" height="3.2" x="10.4" y="-16.8" rx="0.467" ry="0.4" transform="matrix(0,1,-1,0,0,0)" style="fill:#85b3b5;opacity:1;fill-opacity:1;stroke:none;fill-rule:nonzero"/>
 <path d="m 38.828 11.481 1.69 1.69 -7.347 7.347 -1.69 -1.69" style="fill:#85b3b5;stroke:#85b3b5;fill-rule:evenodd;stroke-linejoin:round;stroke-width:0.81"/>
 <path d="m 33.451 11.761 c 0.467 0.467 0.467 1.223 0 1.69 -0.467 0.467 -1.223 0.467 -1.69 0 -0.467 -0.467 -0.467 -1.223 0 -1.69 0.467 -0.467 1.223 -0.467 1.69 0 z" style="fill:#85b3b5;stroke-miterlimit:10;stroke:#85b3b5;stroke-linecap:round;stroke-linejoin:round;stroke-width:0.81"/>
 <path d="m 40.24 18.552 c 0.465 0.465 0.465 1.22 -0.003 1.688 -0.467 0.467 -1.223 0.467 -1.688 0.003 -0.467 -0.467 -0.47 -1.226 -0.003 -1.693 0.467 -0.467 1.226 -0.465 1.693 0.003 z" style="fill:#85b3b5;stroke-miterlimit:10;stroke:#85b3b5;stroke-linecap:round;stroke-linejoin:round;stroke-width:0.81"/>
 <rect width="11.2" height="3.2" x="-5.03" y="48.746" rx="0.467" ry="0.4" transform="matrix(0.70710678,-0.70710678,0.70710678,0.70710678,0,0)" style="fill:#85b3b5;opacity:1;fill-opacity:1;stroke:none;fill-rule:nonzero"/>
 <rect width="11.2" height="3.2" x="44.746" y="-2.166" rx="0.467" ry="0.4" transform="matrix(0.70710678,0.70710678,-0.70710678,0.70710678,0,0)" style="fill:#85b3b5;opacity:1;fill-opacity:1;stroke:none;fill-rule:nonzero"/>
</svg>
