<svg xmlns="http://www.w3.org/2000/svg" width="64" height="64" viewBox="0 0 51.2 51.2">
 <path d="m 22.656 5.465 c -1.7 0.064 -3.622 0.588 -4.758 1.95 -0.036 0.042 -0.066 0.088 -0.09 0.138 -0.379 0.804 -0.511 1.455 -0.284 2.027 0.227 0.572 0.742 0.828 1.147 0.988 0.404 0.16 0.78 0.269 1.024 0.412 0.243 0.143 0.354 0.245 0.417 0.568 0.075 0.385 0.018 0.589 -0.069 0.745 -0.087 0.156 -0.225 0.306 -0.427 0.384 -0.314 0.122 -0.86 0.122 -0.86 0.122 l -10.11 0 c -0.357 0 -0.647 0.29 -0.647 0.647 l 0 10.16 c 0 0.725 0.147 1.143 0.349 1.454 0.23 0.319 0.507 0.688 0.941 0.931 0.434 0.243 1 0.331 1.628 0.21 0.558 -0.109 0.999 -0.423 1.272 -0.781 0.273 -0.359 0.411 -0.74 0.525 -1.06 0.114 -0.319 0.214 -0.581 0.294 -0.704 0.079 -0.121 0.062 -0.113 0.187 -0.123 0.118 -0.007 0.424 0.065 0.821 0.235 0.873 0.768 1.395 2.33 1.448 3.752 0.018 0.529 -0.03 1.026 -0.118 1.454 l 0.008 -0.026 c -0.03 0.119 -0.026 0.135 -0.018 0.095 -0.003 0.014 -0.006 0.029 -0.008 0.044 -0.157 1.222 -0.661 2.409 -1.4 3.053 -0.512 0.211 -0.834 0.244 -0.888 0.223 -0.061 -0.024 -0.14 -0.109 -0.261 -0.415 c -0.121 -0.306 -0.235 -0.751 -0.499 -1.2 -0.264 -0.449 -0.752 -0.901 -1.438 -1.034 l 0 0.003 c -0.911 -0.178 -1.689 0.131 -2.134 0.606 c -0.445 0.476 -0.61 1.036 -0.694 1.428 -0.01 0.044 -0.015 0.088 -0.015 0.133 l 0 10.667 c 0 0.359 0.293 0.65 0.653 0.647 l 10.175 0 c 0.703 -0.001 1.147 -0.154 1.467 -0.363 0.234 -0.154 0.67 -0.567 0.913 -1 0.244 -0.434 0.334 -1 0.212 -1.628 -0.133 -0.687 -0.585 -1.174 -1.034 -1.438 -0.449 -0.264 -0.896 -0.378 -1.203 -0.499 -0.306 -0.121 -0.393 -0.2 -0.417 -0.261 -0.022 -0.055 0.007 -0.374 0.225 -0.898 0.77 -0.867 2.329 -1.389 3.752 -1.438 l 0.005 0 c 0.523 -0.022 1.017 0.026 1.443 0.115 0.026 0.005 0.053 0.008 0.079 0.01 0.012 0.003 0.024 0.006 0.036 0.008 1.228 0.157 2.42 0.663 3.063 1.397 0.211 0.51 0.246 0.83 0.225 0.883 -0.024 0.06 -0.113 0.14 -0.42 0.261 -0.307 0.121 -0.753 0.237 -1.203 0.502 -0.45 0.264 -0.901 0.751 -1.034 1.438 -0.121 0.625 -0.031 1.194 0.212 1.628 0.244 0.434 0.575 0.79 0.922 0.971 0.438 0.268 0.795 0.314 1.463 0.309 l 10.216 0.005 c 0.357 0 0.647 -0.295 0.647 -0.653 l 0 -10.472 c 0 -0.406 0.053 -0.589 0.231 -0.778 0.185 -0.197 0.372 -0.325 0.932 -0.215 l 0.003 0.003 c 0.325 0.062 0.428 0.173 0.571 0.415 0.143 0.242 0.252 0.615 0.412 1.019 0.16 0.404 0.416 0.919 0.988 1.147 0.572 0.227 1.222 0.096 2.027 -0.282 0.051 -0.024 0.098 -0.054 0.141 -0.09 1.147 -0.956 1.693 -2.482 1.886 -3.949 0.004 -0.028 0.005 -0.056 0.005 -0.084 0 0.088 0.005 0.047 0.005 -0.064 l -0.015 0.138 c 0.117 -0.536 0.17 -1.132 0.148 -1.763 l 0 -0.003 c -0.064 -1.701 -0.594 -3.623 -1.95 -4.758 -0.043 -0.036 -0.09 -0.066 -0.141 -0.09 -0.805 -0.377 -1.455 -0.509 -2.027 -0.282 -0.572 0.227 -0.828 0.742 -0.988 1.147 -0.16 0.404 -0.269 0.778 -0.412 1.021 -0.143 0.243 -0.245 0.354 -0.571 0.417 -0.387 0.074 -0.591 0.016 -0.747 -0.072 -0.156 -0.088 -0.275 -0.241 -0.384 -0.427 -0.114 -0.194 -0.114 -0.855 -0.114 -0.855 l 0.001 -10.224 c -0.001 -0.357 -0.29 -0.647 -0.648 -0.647 l -10.612 0 c -0.271 0 -0.577 -0.074 -0.758 -0.25 -0.188 -0.184 -0.311 -0.373 -0.205 -0.921 0.063 -0.325 0.174 -0.428 0.417 -0.571 0.243 -0.143 0.617 -0.253 1.021 -0.412 0.404 -0.159 0.919 -0.414 1.147 -0.985 0.228 -0.572 0.096 -1.22 -0.282 -2.024 -0.024 -0.051 -0.054 -0.098 -0.09 -0.141 -0.952 -1.135 -2.463 -1.679 -3.921 -1.871 -0.025 -0.007 -0.069 -0.011 -0.113 -0.015 -0.519 -0.108 -1.088 -0.164 -1.699 -0.143 l -0.003 0 z" mix-blend-mode="normal" isolation="auto" white-space="normal" solid-opacity="1" solid-color="#000000" style="visibility:visible;shape-rendering:auto;color-interpolation-filters:linearRGB;fill:#61c66c;opacity:1;image-rendering:auto;fill-opacity:1;stroke:none;display:inline;color:#000;fill-rule:evenodd;color-rendering:auto;color-interpolation:sRGB"/>
</svg>
