<svg xmlns="http://www.w3.org/2000/svg" viewBox="0 0 64 64">
 <g transform="translate(0.33203133,0.33398443)" style="fill:#549ca4;stroke:#549ca4;stroke-width:4.545">
  <path d="m 69.16 106.23 c 1.626 7.563 2.558 13.247 1.216 20.794 -10.295 8.368 -36.615 12.13 -36.552 20.794 l -3.553 25.973 c 0 8.605 24.552 15.584 54.804 15.584 30.27 0 54.789 -6.979 54.789 -15.584 l -3.521 -25.973 c -0.047 -7.421 -26.526 -12.142 -36.678 -20.794 -0.868 -6.995 -0.189 -13.784 1.311 -20.794 z" transform="scale(0.2474,0.2474)"/>
  <path d="m 84.82 57.55 c -12.552 0 -22.736 9.789 -22.736 21.836 0.095 4.484 0.474 9.789 3.047 21.868 1.5 4.689 15.03 18.11 15.13 19.658 2.953 1.563 7.579 1.563 10.61 0 0 -1.547 12.13 -14.968 13.658 -19.658 2.874 -12.552 2.874 -17.15 3.03 -21.868 0 -12.05 -10.184 -21.836 -22.736 -21.836 z" transform="scale(0.2474,0.2474)"/>
  <g style="stroke-linejoin:round">
   <path d="m 132.74 71.18 c -7.658 -4.547 -20.12 -36.24 -18.19 -22.736 l 4.547 31.815 z" transform="scale(0.2474,0.2474)"/>
   <path d="m 178.01 71.18 c 7.674 -4.547 20.1 -36.24 18.17 -22.736 l -4.547 31.815 z" transform="scale(0.2474,0.2474)"/>
  </g>
  <path d="m 134.81 107.56 c 2.116 9.884 3.268 17.368 1.563 27.25 -13.216 10.973 -47.05 15.931 -47 27.27 l -4.547 34.1 c 0 11.289 31.547 20.447 70.44 20.447 38.936 0 70.48 -9.158 70.48 -20.447 l -4.547 -34.1 c -0.063 -9.71 -34.1 -15.9 -47.16 -27.27 -1.137 -9.174 -0.237 -18.08 1.705 -27.25 z" transform="scale(0.2474,0.2474)"/>
  <path d="m 155.26 39.36 c -18.805 0 -34.07 14.242 -34.07 31.815 0.158 6.505 0.711 14.242 4.547 31.815 2.274 6.821 22.531 25.01 22.721 27.27 4.421 2.289 11.368 2.289 15.916 0 0 -2.258 18.19 -20.447 20.447 -27.27 4.326 -18.284 4.326 -24.994 4.563 -31.815 0 -17.573 -15.268 -31.815 -34.12 -31.815 z" transform="scale(0.2474,0.2474)"/>
 </g>
</svg>
