<svg xmlns="http://www.w3.org/2000/svg" viewBox="0 0 64 64">
 <path d="m 31.983 17 c -0.516 0 -1.01 0.048 -1.507 0.064 -6.075 0.24 -10.779 1.822 -14.03 3.484 -3.529 1.798 -5.583 3.812 -5.583 3.812 -1.152 1.199 -1.144 3.356 0.016 4.539 1.168 1.191 3.279 1.199 4.447 0.024 0 0 0.878 -0.879 2.82 -2.01 -0.572 1.598 -0.854 3.3 -0.854 5.091 0 8.239 6.622 14.992 14.695 14.992 8.08 0 14.695 -6.753 14.695 -14.992 0 -1.79 -0.274 -3.492 -0.846 -5.091 1.942 1.127 2.82 2.01 2.82 2.01 1.16 1.207 3.303 1.215 4.471 0.024 1.176 -1.199 1.168 -3.38 -0.016 -4.563 0 0 -2.046 -2.02 -5.575 -3.82 -3.255 -1.662 -7.96 -3.245 -14.03 -3.484 -0.491 -0.048 -1.01 -0.064 -1.515 -0.064 z m 0 4.715 c 4.681 0 11.15 2.182 11.15 10.277 0 7.096 -4.407 11.3 -11.15 11.3 -6.638 0 -11.05 -4.307 -11.05 -11.3 0 -7.184 6.373 -10.277 11.05 -10.277 z" style="fill:#4cb29c"/>
 <path d="m 35.5 31.993 c 0 1.942 -1.572 3.507 -3.507 3.507 -1.921 0 -3.493 -1.564 -3.493 -3.507 0 -1.929 1.572 -3.493 3.493 -3.493 1.935 0 3.507 1.564 3.507 3.493 z" style="stroke-dasharray:none;fill:none;stroke-miterlimit:4;stroke:#4cb29c;stroke-linecap:round;stroke-linejoin:round;stroke-width:4"/>
</svg>
