<svg xmlns="http://www.w3.org/2000/svg" width="64" height="64" viewBox="0 0 51.2 51.2">
 <g transform="matrix(1.3333725,0,0,1.3333725,-2.5080658e-4,0.00210808)">
  <path d="m 16.25 5.416 c -1.072 0.013 -1.766 0.084 -1.766 0.084 l -0.172 0.02 -0.145 0.096 c -0.294 0.196 -0.448 0.635 -0.416 0.908 0.032 0.273 0.132 0.443 0.223 0.588 0.088 0.14 0.115 0.153 0.189 0.238 l 0.154 4.262 -4.199 16.486 c -0.78 2.582 -0.965 4.199 -0.936 5.219 0.015 0.512 0.085 0.876 0.166 1.133 0.081 0.257 0.23 0.475 0.23 0.475 l 0.053 0.068 0.068 0.055 c 2.619 2.028 5.675 2.305 8.371 2.1 -0.015 -0.416 0.002 -0.874 0.105 -1.43 -2.497 0.204 -5.217 -0.017 -7.496 -1.721 -0.035 -0.117 -0.085 -0.33 -0.096 -0.719 -0.023 -0.809 0.128 -2.298 0.887 -4.803 l 0.004 -0.016 4.25 -16.697 -0.172 -4.836 c 0.546 -0.041 1.825 -0.035 3.594 0.113 l -0.453 4.617 3.045 14.08 0.902 -2.471 -2.531 -11.693 0.434 -4.398 c 0.099 -0.157 0.318 -0.274 0.338 -0.408 0.046 -0.32 -0.031 -0.576 -0.031 -0.576 l -0.119 -0.439 -0.449 -0.07 c -1.511 -0.233 -2.961 -0.279 -4.03 -0.266" transform="scale(0.8,0.8)" mix-blend-mode="normal" isolation="auto" white-space="normal" solid-opacity="1" solid-color="#000000" style="visibility:visible;shape-rendering:auto;color-interpolation-filters:linearRGB;fill:#5b93d7;opacity:1;image-rendering:auto;fill-opacity:1;stroke:none;display:inline;color:#000;fill-rule:evenodd;color-rendering:auto;color-interpolation:sRGB"/>
  <path d="m 11.986 28.5 -0.004 0.023 c -0.005 0.02 -0.01 0.034 -0.01 0.049 -0.752 2.48 -0.895 3.937 -0.875 4.693 0.01 0.278 0.034 0.439 0.059 0.547 2.16 1.539 4.72 1.704 7.113 1.484 0.189 -0.808 0.514 -1.755 1.037 -2.883 l 1.418 -3.891 c -3.855 1.74 -6.771 1.088 -8.738 -0.023 z" transform="scale(0.8,0.8)" style="fill:#adc3e2;fill-rule:evenodd"/>
 </g>
 <path d="m 28.459 8.114 -0.372 0.081 -0.628 1.435 0.469 0.26 c 0.004 0.032 0.008 0.073 0.008 0.073 l 0 0.023 0.148 4.159 0.026 0.086 c 0.043 0.15 0.06 0.148 0.078 0.167 -0.001 -0.024 -0.148 0.302 -0.297 0.557 -0.159 0.271 -0.307 0.508 -0.307 0.508 l -0.044 0.068 -6.946 19.05 0.026 -0.06 c -1.285 2.749 -1.496 4.534 -1.31 5.716 0.093 0.591 0.288 1.025 0.484 1.315 0.185 0.273 0.402 0.43 0.43 0.451 5.789 4.845 13.12 3.293 16.5 2.75 3.87 -0.621 4.656 -4.307 4.656 -4.307 l 0.026 -0.133 -0.023 -0.135 c -1.338 -7.638 -6.203 -25.636 -6.274 -25.897 l 0.464 -3.755 -0.003 -0.065 c -0.017 -0.344 0.122 -0.456 0.122 -0.456 l 0.258 -0.266 -0.055 -0.367 c -0.083 -0.561 -0.553 -0.951 -0.888 -1.068 -0.333 -0.116 -0.623 -0.089 -0.625 -0.089 l -0.003 0 c -3.98 -0.448 -5.922 -0.099 -5.922 -0.099 z m 0.932 1.474 c 0.308 -0.056 1.355 -0.314 4.948 0.115 l 0.023 0.003 c -0.149 0.278 -0.31 0.333 -0.286 0.826 l 0.005 -0.128 -0.492 3.979 0.039 0.141 c 0 0 4.902 18.19 6.242 25.74 -0.031 0.176 -0.475 2.544 -3.383 3.01 l -0.003 0 c -3.486 0.56 -10.141 1.941 -15.336 -2.438 l -0.031 -0.026 -0.034 -0.023 c 0 0 0.025 0.035 -0.049 -0.076 -0.075 -0.11 -0.187 -0.322 -0.247 -0.708 -0.121 -0.773 -0.018 -2.272 1.188 -4.852 l 0.016 -0.029 6.904 -18.935 c 0.038 -0.06 0.139 -0.217 0.289 -0.474 0.176 -0.3 0.355 -0.55 0.466 -0.961 0.085 -0.316 0.044 -0.633 -0.039 -0.844 -0.014 -0.035 -0.025 -0.049 -0.039 -0.078 l -0.141 -3.873 0 0.049 c 0 0 0 -0.199 -0.039 -0.419 z" mix-blend-mode="normal" isolation="auto" white-space="normal" solid-opacity="1" solid-color="#000000" style="visibility:visible;shape-rendering:auto;color-interpolation-filters:linearRGB;fill:#5b93d7;opacity:1;image-rendering:auto;fill-opacity:1;stroke:none;display:inline;color:#000;fill-rule:evenodd;color-rendering:auto;color-interpolation:sRGB"/>
 <path d="m 23.588 32.886 -0.87 2.38 c -0.01 0.036 -0.026 0.073 -0.042 0.109 -1.177 2.516 -1.245 3.917 -1.146 4.547 0.047 0.307 0.13 0.438 0.156 0.474 4.906 4.141 11.11 2.828 14.662 2.26 2.151 -0.344 2.662 -1.917 2.771 -2.385 -0.307 -1.719 -0.802 -3.99 -1.375 -6.469 -6.375 1.578 -11.03 0.578 -14.157 -0.917 z" style="fill:#adc3e2;fill-rule:evenodd"/>
</svg>
