<svg xmlns="http://www.w3.org/2000/svg" width="64" height="64" viewBox="0 0 51.2 51.2">
 <path d="m 4.8 34.13 12.8 1.867 l 0 -6.933 -12.8 -0.8 0 -5.333 12.8 -0.8 0 -6.933 -12.8 1.867 0 -5.6 l 19.2 -5.067 l 0 38.4 l -19.2 -5.067" style="fill:#c18eb2;fill-rule:evenodd"/>
 <path d="m 27.2 6.4 0 19.2 0 19.2 c 2.259 0 5.841 -0.809 9.05 -2.054 2.692 -1.044 5.339 -2.196 7.357 -4.44 c 2.794 -3.106 2.793 -10.573 2.793 -12.706 0 -2.133 0.001 -9.6 -2.793 -12.706 -2.02 -2.243 -4.665 -3.396 -7.357 -4.44 -3.21 -1.245 -6.792 -2.054 -9.05 -2.054 m 6.776 8.533 c 2.259 0.043 4.317 1.494 5.446 2.94 1.33 1.703 1.33 6.66 1.33 7.727 0 1.067 0 6.02 -1.33 7.727 -1.129 1.445 -3.188 2.896 -5.446 2.94 l 0 -10.667 z" style="fill:#c18eb2"/>
 <flowRoot transform="translate(0,12.8)" line-height="125%" style="letter-spacing:0;word-spacing:0;font-size:30;font-family:Ubuntu;fill:#000;fill-opacity:1;font-weight:normal;stroke:none;font-style:normal;font-variant:normal;font-stretch:normal">
  <flowRegion>
   <rect width="17.6" height="37.6" x="-39.2" y="-7.2"/>
  </flowRegion>
  <flowPara>DD</flowPara>
 </flowRoot>
</svg>
