<svg xmlns="http://www.w3.org/2000/svg" viewBox="0 0 64 64">
 <path d="m 30.6 7.26 c -1.438 0 -2.852 0.164 -4.297 0.504 c -11.543 2.734 -25.27 21.406 -7.66 29.719 8.285 3.914 7.695 21.707 19.238 18.973 11.543 -2.734 18.293 -15.848 15.1 -29.29 -2.793 -11.762 -12.313 -19.887 -22.379 -19.902 m -3.559 3.711 c 2.051 0 3.715 1.66 3.715 3.711 0 2.047 -1.664 3.711 -3.715 3.711 -2.051 0 -3.719 -1.664 -3.719 -3.711 0 -2.051 1.668 -3.711 3.719 -3.711 z m 11.152 1.238 c 2.051 0 3.715 1.66 3.715 3.711 0 2.043 -1.664 3.703 -3.715 3.703 -2.059 0 -3.719 -1.66 -3.719 -3.703 0 -2.051 1.66 -3.711 3.719 -3.711 z m -19.824 6.184 c 2.051 0 3.715 1.66 3.715 3.707 0 2.051 -1.664 3.711 -3.715 3.711 -2.051 0 -3.719 -1.66 -3.719 -3.711 0 -2.047 1.668 -3.707 3.719 -3.707 z m 27.25 2.469 c 2.059 0 3.719 1.668 3.719 3.711 0 2.051 -1.66 3.711 -3.719 3.711 -2.051 0 -3.711 -1.66 -3.711 -3.711 0 -2.043 1.66 -3.711 3.711 -3.711 z m -20.316 9.777 c 1.75 -0.031 3.547 1.531 4.219 3.828 0.762 2.625 -0.203 5.223 -2.168 5.797 -1.973 0.57 -4.195 -1.09 -4.957 -3.711 -0.766 -2.617 0.195 -5.223 2.168 -5.797 0.242 -0.07 0.484 -0.109 0.738 -0.117 z m 21.563 1.355 c 2.051 0 3.715 1.66 3.715 3.711 0 2.051 -1.664 3.711 -3.715 3.711 -2.059 0 -3.719 -1.66 -3.719 -3.711 0 -2.051 1.66 -3.711 3.719 -3.711 z m -4.957 9.895 c 2.051 0 3.711 1.66 3.711 3.707 0 2.051 -1.66 3.711 -3.711 3.711 -2.055 0 -3.715 -1.66 -3.715 -3.711 0 -2.047 1.66 -3.707 3.715 -3.707 z" style="fill:#e684a3"/>
</svg>
