<svg xmlns="http://www.w3.org/2000/svg" viewBox="0 0 64 64">
 <path d="m 52.52 6.934 c -0.754 0.066 -1.512 0.441 -2.121 1.035 l -13.629 11.848 c -0.586 0.566 -0.91 1.367 -0.91 2.176 c 0 0.391 0.086 0.742 0.227 1.086 c 0.008 0.02 -0.004 0.047 0 0.059 c -0.508 1.082 -0.344 2.586 -0.344 5.84 c 0 1.199 -3.117 2.461 -3.895 2.461 c -0.039 0 -0.078 0 -0.117 0 c -2.473 0 -10.512 0.371 -12.992 3.785 c -2.48 3.41 -11.797 18.91 -11.797 21.18 c 3.715 0 30.734 -13.504 32.12 -14.773 c 1.672 -1.535 0.852 -4.633 -0.227 -6.699 c 0.004 -0.004 -0.008 -0.043 0 -0.059 c 0.023 -0.07 0.039 -0.18 -0.059 -0.344 c -0.582 -0.969 -0.918 -1.953 -0.918 -3.32 c 0 -3.035 0.316 -4.707 0.977 -5.664 c 1.457 0.246 3.578 -0.461 4.523 -1.375 l 11.965 -11.398 c 1.219 -1.172 1.504 -2.941 0.289 -4.121 l -0.977 -0.969 c -0.605 -0.594 -1.367 -0.809 -2.117 -0.742 Z" style="fill:#cc7d6f"/>
</svg>
