<svg xmlns="http://www.w3.org/2000/svg" viewBox="0 0 64 64">
 <g style="fill:#4ea34d">
  <path d="m 31.488 21.758 c -10.152 0.449 -20.03 5.398 -15.832 15.422 c 6.117 -2.301 14.633 1.129 11.09 2.828 c 6.969 5.738 24.18 -3.527 22.465 -11.41 c -1.777 -4.801 -9.832 -7.188 -17.727 -6.84 m -0.27 2.832 c 2.117 0 3.832 0.566 3.832 1.262 c 0 0.699 -1.715 1.266 -3.832 1.266 c -2.121 0 -3.836 -0.566 -3.836 -1.266 c 0 -0.695 1.715 -1.262 3.836 -1.262 m 9.469 2.09 c 2.117 0 3.836 0.566 3.836 1.266 c 0 0.695 -1.719 1.262 -3.836 1.262 c -2.117 0 -3.832 -0.566 -3.832 -1.262 c 0 -0.699 1.715 -1.266 3.832 -1.266 m -17.41 1.918 c 2.117 0 3.836 0.566 3.836 1.262 c 0 0.699 -1.719 1.266 -3.836 1.266 c -2.117 0 -3.832 -0.566 -3.832 -1.266 c 0 -0.695 1.715 -1.262 3.832 -1.262 m 17.32 3.309 c 2.117 0 3.836 0.566 3.836 1.266 c 0 0.695 -1.719 1.262 -3.836 1.262 c -2.117 0 -3.832 -0.566 -3.832 -1.262 c 0 -0.699 1.715 -1.266 3.832 -1.266 m -6.676 4.793 c 2.117 0 3.836 0.566 3.836 1.262 c 0 0.699 -1.719 1.266 -3.836 1.266 c -2.117 0 -3.832 -0.566 -3.832 -1.266 c 0 -0.695 1.715 -1.262 3.832 -1.262 Z"/>
  <path d="m 45.949 12.145 l -18.816 31.477 c -1.469 -0.031 -2.832 -0.727 -3.82 -2.133 l 20.16 -30.723 c 1.355 -0.32 2.18 0.141 2.477 1.379 Z"/>
  <path d="m 23.2 49.1 c 2.109 -0.285 5.379 -2.977 3.852 -6.875 c -3.656 -1.047 -2.828 -1.574 -2.828 -1.574 c -5.02 1.203 -8.84 6.949 -7.789 10.602 c 0.664 2.316 0.555 2.078 0.555 2.078 c 1.395 -4.477 1.418 -3.656 6.211 -4.23 Z"/>
 </g>
</svg>
