<svg xmlns="http://www.w3.org/2000/svg" viewBox="0 0 64 64">
 <g transform="matrix(1.9999894,0,0,1.9999894,0.33351906,0.33173249)">
  <path d="m 17.441 7.176 c -0.105 0 -0.219 0.027 -0.316 0.094 -0.098 0.063 -0.184 0.176 -0.18 0.32 0.016 0.051 0.008 0.098 0.004 0.156 0 0.156 0.133 0.289 0.293 0.289 0.16 0 0.289 -0.133 0.289 -0.289 0 -0.16 -0.125 -0.293 -0.285 -0.297 0.055 -0.035 0.137 -0.055 0.195 -0.055 0.23 0 0.398 0.129 0.523 0.324 0.125 0.195 0.188 0.457 0.184 0.668 -0.012 0.527 -0.27 0.973 -0.66 1.313 -0.383 0.34 -0.895 0.57 -1.379 0.664 l 0.039 0.211 c 0.523 -0.094 1.066 -0.34 1.488 -0.711 0.422 -0.371 0.719 -0.875 0.734 -1.477 0 -0.254 -0.066 -0.547 -0.219 -0.785 c -0.152 -0.242 -0.395 -0.426 -0.711 -0.426" style="fill:#ec7878"/>
  <path d="m 14.227 7.176 c 0.102 0 0.215 0.027 0.316 0.094 0.094 0.063 0.18 0.176 0.176 0.32 -0.012 0.051 -0.004 0.098 -0.004 0.156 0 0.156 -0.129 0.289 -0.289 0.289 -0.16 0 -0.293 -0.133 -0.293 -0.289 0 -0.16 0.129 -0.293 0.289 -0.297 -0.059 -0.035 -0.137 -0.055 -0.195 -0.055 -0.23 0 -0.402 0.129 -0.527 0.324 -0.121 0.195 -0.184 0.457 -0.18 0.668 0.008 0.527 0.27 0.973 0.656 1.313 0.383 0.34 0.895 0.57 1.383 0.664 l -0.039 0.211 c -0.527 -0.094 -1.07 -0.34 -1.488 -0.711 -0.422 -0.371 -0.723 -0.875 -0.734 -1.477 -0.004 -0.254 0.066 -0.547 0.219 -0.785 0.148 -0.242 0.395 -0.426 0.711 -0.426 z" style="fill:#ec7878"/>
  <path d="m 15.613 9.285 c -1.246 0.055 -2.453 0.664 -3.258 1.609 -0.414 0.453 -0.805 0.961 -0.984 1.559 0.004 0.098 0.039 0.188 0.063 0.277 -0.266 0.02 -0.598 -0.016 -0.781 0.219 -0.336 0.371 -0.414 0.887 -0.582 1.34 -0.75 2.602 -0.363 5.566 1.238 7.777 0.867 1.188 2.16 2.129 3.641 2.371 0.25 0.023 0.531 0.09 0.762 -0.039 0.082 -0.074 0.207 -0.051 0.277 0.023 0.313 0.16 0.66 0.004 0.977 -0.035 1.516 -0.336 2.813 -1.371 3.629 -2.668 1.504 -2.328 1.758 -5.379 0.824 -7.977 -0.125 -0.309 -0.25 -0.641 -0.492 -0.879 c -0.164 -0.113 -0.371 -0.152 -0.566 -0.164 0.125 -0.262 0.043 -0.574 -0.148 -0.781 -0.68 -1.113 -1.688 -2.074 -2.957 -2.453 -0.535 -0.148 -1.09 -0.184 -1.641 -0.18" style="fill:#ec7878"/>
  <path d="m 15.777 9.59 c -0.008 0 -0.016 0 -0.023 0.004 -0.438 0.031 -0.883 0.074 -1.301 0.223 -1.191 0.414 -2.098 1.383 -2.723 2.461 -0.094 0.164 -0.027 0.395 0.164 0.41 1.336 0.004 2.668 0 4 0.004 0 0 0 0 0.004 0 1.336 -0.004 2.668 0 4 -0.004 0.191 -0.016 0.258 -0.246 0.16 -0.41 -0.625 -1.078 -1.531 -2.047 -2.723 -2.461 c -0.418 -0.148 -0.863 -0.191 -1.301 -0.223 c -0.109 -0.012 -0.09 0.027 -0.141 0.027 -0.055 -0.004 -0.031 -0.035 -0.125 -0.031 z" style="fill:#ec7878"/>
  <path d="m 16.738 13.02 c -0.391 0 -0.707 0.32 -0.707 0.715 l 0 10.168 c 0 0.145 0 0.25 0.191 0.27 2.984 -0.164 5.43 -3.352 5.43 -7.25 0 -1.285 -0.258 -2.492 -0.711 -3.539 0 0 -0.004 0 -0.004 0 -0.008 -0.023 -0.016 -0.047 -0.027 -0.07 0 -0.004 0 -0.004 0 -0.008 -0.086 -0.172 -0.258 -0.285 -0.453 -0.285 z" style="fill:#ec7878"/>
  <path d="m 14.93 13.02 c 0.391 0 0.707 0.32 0.707 0.715 l 0 10.168 c 0 0.145 0 0.25 -0.191 0.27 -2.984 -0.164 -5.434 -3.352 -5.434 -7.25 0 -1.285 0.258 -2.492 0.715 -3.539 0 0 0.004 0 0.004 0 0.004 -0.023 0.016 -0.047 0.023 -0.07 0 -0.004 0.004 -0.004 0.004 -0.008 0.086 -0.172 0.254 -0.285 0.453 -0.285 z" style="fill:#ec7878"/>
  <g style="fill:#ec7878;fill-rule:evenodd">
   <path d="m 11.676 13.32 -0.453 0.559 -0.715 -0.051 0.395 0.598 -0.273 0.668 0.691 -0.188 0.551 0.465 0.035 -0.719 0.613 -0.379 -0.672 -0.258 z m 2.246 0.68 l -0.379 1.918 -1.797 0.773 1.703 0.953 0.18 1.945 1.438 -1.324 1.906 0.43 -0.816 -1.773 0.996 -1.68 -1.941 0.23 z m 5.859 0.887 -0.449 0.559 -0.719 -0.051 0.395 0.602 -0.27 0.664 0.691 -0.188 0.547 0.465 0.035 -0.719 l 0.613 -0.379 -0.676 -0.254 m -8.828 2.734 -0.547 1.105 -0.508 0.074 c 0.18 0.613 0.422 1.207 0.734 1.766 l 0.32 -0.168 1.09 0.57 -0.207 -1.211 0.875 -0.859 -1.215 -0.172 z m 8.941 0.105 -1.082 1.227 -1.621 -0.191 0.836 1.402 -0.684 1.484 1.594 -0.359 0.75 0.691 c 0.199 -0.215 0.383 -0.441 0.551 -0.68 l 0.051 -0.531 0.43 -0.242 c 0.145 -0.262 0.273 -0.535 0.391 -0.813 l -0.898 -0.387 z m -5.371 3.313 -0.449 0.559 -0.719 -0.051 0.395 0.602 -0.273 0.668 0.695 -0.188 0.547 0.461 0.035 -0.715 0.613 -0.383 -0.676 -0.254 z"/>
   <path d="m 20.91 18.762 c 0 1.125 -2.215 2.039 -4.953 2.039 -2.734 0 -4.953 -0.914 -4.953 -2.039 0 -1.125 2.219 -2.035 4.953 -2.035 2.738 0 4.953 0.91 4.953 2.035 z" style="fill-opacity:0.902"/>
  </g>
  <path d="m 12.293 22.418 c 0.789 0.813 1.82 1.398 2.953 1.523 0.07 0.023 0.211 0.016 0.176 -0.09 -0.004 -0.246 -0.008 -0.496 -0.008 -0.742 0.004 -0.152 0.004 -0.125 -0.113 -0.051 -1.168 0.707 -2.156 -0.152 -3.01 -0.641 z m 7.04 0.055 c -0.848 0.488 -1.84 1.348 -3.01 0.641 -0.113 -0.074 -0.113 -0.102 -0.109 0.051 0 0.246 -0.004 0.496 -0.012 0.742 -0.035 0.105 0.105 0.113 0.176 0.09 1.133 -0.121 2.164 -0.711 2.953 -1.523 z" style="fill:#ec7878;fill-opacity:0.459"/>
  <g style="fill:#ec7878;fill-rule:evenodd">
   <path d="m 18.988 12 c 0 1.383 -1.395 2.5 -3.113 2.5 -1.719 0 -3.113 -1.117 -3.113 -2.5 0 -1.379 1.395 -2.496 3.113 -2.496 1.719 0 3.113 1.117 3.113 2.496 z"/>
   <path d="m 14.602 7.664 c 0 0.098 -0.078 0.176 -0.172 0.176 -0.094 0 -0.168 -0.078 -0.168 -0.176 0 -0.098 0.074 -0.18 0.168 -0.18 0.094 0 0.172 0.082 0.172 0.18 z"/>
   <path d="m 17.406 7.664 c 0 0.098 -0.074 0.176 -0.168 0.176 -0.098 0 -0.176 -0.078 -0.176 -0.176 0 -0.098 0.078 -0.18 0.176 -0.18 0.094 0 0.168 0.082 0.168 0.18 z"/>
  </g>
 </g>
 <path d="m 53 31.996 c 0 11.611 -9.401 21 -20.992 21 -11.606 0 -21.01 -9.393 -21.01 -21 0 -11.595 9.401 -20.996 21.01 -20.996 11.591 0 20.992 9.401 20.992 20.996 z" style="stroke-dasharray:none;fill:none;stroke-miterlimit:4;stroke:#ec7878;stroke-linecap:round;stroke-linejoin:round;stroke-width:2"/>
 <path d="m 32 6.03 0 51.943" style="stroke-dasharray:none;stroke-opacity:1;fill:none;stroke-miterlimit:4;stroke:#ec7878;fill-rule:evenodd;stroke-linecap:round;stroke-linejoin:miter;stroke-width:4"/>
 <path d="m 57.972 32 -51.943 0" style="stroke-dasharray:none;stroke-opacity:1;fill:none;stroke-miterlimit:4;stroke:#ec7878;fill-rule:evenodd;stroke-linecap:round;stroke-linejoin:miter;stroke-width:4"/>
</svg>
