<svg xmlns="http://www.w3.org/2000/svg" viewBox="0 0 64 64">
 <path d="m 9.563 6 c -0.866 0 -1.563 0.736 -1.563 1.66 l 0 48.68 c 0 0.924 0.696 1.66 1.563 1.66 l 8.867 0 c 0.874 0 1.57 -0.736 1.57 -1.66 l 0 -48.68 c 0 -0.924 -0.697 -1.66 -1.57 -1.66 m -8.43 4 8 0 0 20 -8 0 z m 4 35 c 1.657 0 3 1.343 3 3 0 1.657 -1.343 3 -3 3 -1.657 0 -3 -1.343 -3 -3 0 -1.657 1.343 -3 3 -3 z" style="fill:#b2a445"/>
 <path d="m 25.387 6 c -0.765 0 -1.387 0.736 -1.387 1.66 l 0 48.68 c 0 0.924 0.621 1.66 1.387 1.66 l 5.219 0 c 0.778 0 1.395 -0.736 1.395 -1.66 l 0 -48.68 c 0 -0.924 -0.616 -1.66 -1.395 -1.66 m -4.606 4 4 0 0 20 -4 0 z m 2 36 c 1.105 0 2 0.895 2 2 0 1.105 -0.895 2 -2 2 -1.105 0 -2 -0.895 -2 -2 0 -1.105 0.895 -2 2 -2 z" style="fill:#b2a445"/>
 <path d="m 34.931 7.751 c -0.924 0.247 -1.485 1.159 -1.246 2.051 l 12.599 46.982 c 0.239 0.892 1.181 1.401 2.105 1.154 l 6.301 -1.687 c 0.94 -0.252 1.492 -1.161 1.253 -2.053 l -12.599 -46.982 c -0.239 -0.892 -1.173 -1.403 -2.113 -1.152 m -5.01 5.479 5.796 -1.552 5.176 19.303 -5.796 1.552 z m 11.957 33 c 1.6 -0.428 3.245 0.52 3.674 2.12 0.429 1.599 -0.521 3.243 -2.121 3.671 -1.6 0.428 -3.245 -0.52 -3.674 -2.12 -0.429 -1.599 0.521 -3.243 2.121 -3.671 z" style="fill:#b2a445"/>
</svg>
