<svg xmlns="http://www.w3.org/2000/svg" viewBox="0 0 64 64">
 <path d="m 10 24 c -1.105 0 -2 0.895 -2 2 0 5.333 0 10.667 0 16 0 3.29 2.71 6 6 6 6.667 0 13.333 0 20 0 2.572 0 4.983 -1.282 6.32 -3.453 1.337 -2.172 1.337 -4.922 0 -7.094 c -1.337 -2.172 -3.748 -3.453 -6.32 -3.453 l -3 0 c -1.075 0 -2.064 -0.569 -2.602 -1.5 -0.538 -0.931 -0.538 -2.069 0 -3 c 0.538 -0.931 1.527 -1.5 2.602 -1.5 l 7 0 c 1.105 0 2 -0.895 2 -2 0 -1.105 -0.895 -2 -2 -2 l -7 0 c -2.498 0 -4.814 1.337 -6.06 3.5 -1.249 2.163 -1.249 4.837 0 7 c 1.249 2.163 3.565 3.5 6.06 3.5 l 3 0 c 1.238 0 2.346 0.624 2.914 1.547 0.568 0.922 0.568 1.984 0 2.906 c -0.568 0.922 -1.676 1.547 -2.914 1.547 c -6.667 0 -13.333 0 -20 0 -1.128 0 -2 -0.872 -2 -2 0 -5.333 0 -10.667 0 -16 0 -1.105 -0.895 -2 -2 -2 z" style="fill:#d07d86;opacity:1;fill-opacity:1;stroke:none;fill-rule:nonzero"/>
 <path d="m 23 16 c -3.842 0 -7 3.158 -7 7 0 5 0 10 0 15 0 1.105 0.895 2 2 2 1.105 0 2 -0.895 2 -2 0 -5 0 -10 0 -15 0 -1.681 1.319 -3 3 -3 l 27 0 c 1.128 0 2 0.872 2 2 0 1.128 -0.872 2 -2 2 -3.29 0 -6 2.71 -6 6 l 0 8 c 0 1.105 0.895 2 2 2 1.105 0 2 -0.895 2 -2 l 0 -8 c 0 -1.128 0.872 -2 2 -2 3.29 0 6 -2.71 6 -6 0 -3.29 -2.71 -6 -6 -6 z" style="fill:#d07d86;opacity:1;fill-opacity:1;stroke:none;fill-rule:nonzero"/>
</svg>
