<svg xmlns="http://www.w3.org/2000/svg" viewBox="0 0 64 64">
 <path d="m 51.5 32 c 0.004 10.77 -8.728 19.5 -19.5 19.5 -10.772 0 -19.504 -8.73 -19.5 -19.5 -0.004 -10.77 8.728 -19.5 19.5 -19.5 c 10.772 0 19.504 8.73 19.5 19.5 z" style="stroke-dasharray:none;fill:none;stroke-miterlimit:4;stroke:#2f8b96;stroke-width:3"/>
 <path d="m 24.5 32 c 0 1.796 -1.457 3.25 -3.252 3.25 c -1.791 0 -3.248 -1.454 -3.248 -3.25 0 -1.792 1.457 -3.25 3.248 -3.25 1.795 0 3.252 1.458 3.252 3.25" style="fill:#2f8b96"/>
 <path d="m 35.25 32 c 0 1.796 -1.454 3.25 -3.25 3.25 -1.796 0 -3.25 -1.454 -3.25 -3.25 0 -1.792 1.454 -3.25 3.25 -3.25 1.796 0 3.25 1.458 3.25 3.25 z" style="fill:#2f8b96"/>
 <path d="m 46 32 c 0 1.796 -1.458 3.25 -3.25 3.25 -1.796 0 -3.25 -1.454 -3.25 -3.25 0 -1.792 1.454 -3.25 3.25 -3.25 1.792 0 3.25 1.458 3.25 3.25 z" style="fill:#2f8b96"/>
</svg>
