<svg xmlns="http://www.w3.org/2000/svg" viewBox="0 0 64 64">
 <g transform="translate(0.33454306,0.3339845)" style="fill:#6f8bc0">
  <path d="m 47.676 6.926 c -10.379 0 -12.324 14.664 -6.484 14.664 5.832 0 16.855 -14.664 6.484 -14.664 z"/>
  <path d="m 30.449 19.773 c 3.105 0.188 6.516 -11.766 0.676 -11.02 -5.84 0.754 -3.789 10.824 -0.676 11.02"/>
  <path d="m 16.203 27.2 c 2.215 -0.961 0.289 -10.41 -3.469 -7.832 -3.758 2.574 1.262 8.797 3.469 7.832 z"/>
  <path d="m 22.434 22.258 c 2.633 -0.531 2.773 -11.242 -1.914 -9.32 -4.691 1.926 -0.715 9.855 1.914 9.32 z"/>
  <path d="m 36.17 46.22 c 0.469 3.539 -2.617 5.285 -5.633 3.01 -9.609 -7.262 15.914 -10.879 14.227 -20.801 -1.395 -8.23 -26.848 -5.699 -29.746 7.188 -1.965 8.711 8.07 20.793 18.547 20.793 5.156 0 11.1 -4.617 12.207 -10.461 0.855 -4.461 -9.992 -2.676 -9.602 0.273 z"/>
 </g>
</svg>
