<svg xmlns="http://www.w3.org/2000/svg" viewBox="0 0 64 64">
 <path d="m 32 7 c -3.879 0 -7.555 0.887 -10.834 2.469 l -0.15 -0.055 c -0.02 0.053 -0.035 0.109 -0.055 0.162 c -8.265 4.083 -13.961 12.594 -13.961 22.424 c 0 9.838 5.706 18.357 13.982 22.436 c 0.023 0.053 0.041 0.107 0.064 0.16 l 0.135 -0.059 c 3.275 1.577 6.945 2.463 10.818 2.463 c 3.875 0 7.546 -0.886 10.822 -2.465 l 0.139 0.061 c 0.024 -0.054 0.043 -0.11 0.066 -0.164 c 8.271 -4.08 13.973 -12.597 13.973 -22.432 c 0 -9.826 -5.692 -18.336 -13.951 -22.42 c -0.02 -0.055 -0.036 -0.111 -0.057 -0.166 l -0.154 0.057 c -3.28 -1.583 -6.957 -2.471 -10.838 -2.471 z m -1.5 3.057 l 0 7.943 l -6.826 0 c -0.872 0 -1.674 0.74 -1.674 1.668 l 0 0.332 l -0.871 0 c 0.572 -2.791 1.324 -5.546 2.25 -8.236 c 2.211 -0.941 4.605 -1.538 7.121 -1.707 z m 3 0 c 2.514 0.169 4.913 0.753 7.123 1.693 c 0.927 2.693 1.671 5.457 2.242 8.25 l -0.865 0 l 0 -0.332 c 0 -0.928 -0.801 -1.668 -1.674 -1.668 l -6.826 0 l 0 -7.943 z m 10.939 3.787 c 2.384 1.635 4.421 3.732 6 6.156 l -4.502 0 c -0.407 -2.072 -0.904 -4.129 -1.498 -6.156 z m -24.873 0.004 c -0.595 2.027 -1.102 4.08 -1.51 6.152 l -4.502 0 c 1.58 -2.426 3.626 -4.517 6.01 -6.152 z m 5.434 7.152 l 14 0 l 0 22 l -14 0 l 0 -22 z m -13.08 2 l 5.615 0 c -0.377 2.494 -0.612 5 -0.705 7.5 l -6.773 0 c 0.178 -2.659 0.827 -5.185 1.863 -7.5 z m 8.664 0 l 1.416 0 l 0 7.5 l -2.152 0 c 0.096 -2.497 0.344 -5 0.736 -7.5 z m 21.416 0 l 1.404 0 c 0.392 2.496 0.641 5 0.736 7.5 l -2.141 0 l 0 -7.5 z m 4.465 0 l 5.613 0 c 1.037 2.315 1.691 4.84 1.869 7.5 l -6.783 0 c -0.093 -2.499 -0.323 -5.01 -0.699 -7.5 z m -11.465 7 a 2 2 0 0 0 -2 2 a 2 2 0 0 0 2 2 a 2 2 0 0 0 2 -2 a 2 2 0 0 0 -2 -2 z m -24.943 3.5 l 6.734 0 c 0.025 2.526 0.186 5.03 0.521 7.5 l -5.393 0 c -1.037 -2.315 -1.685 -4.841 -1.863 -7.5 z m 9.752 0 l 2.191 0 l 0 7.5 l -1.637 0 c -0.351 -2.457 -0.528 -4.967 -0.555 -7.5 z m 22.19 0 l 2.178 0 c -0.027 2.534 -0.211 5.04 -0.563 7.5 l -1.615 0 l 0 -7.5 z m 5.203 0 l 6.744 0 c -0.179 2.659 -0.828 5.186 -1.865 7.5 l -5.41 0 c 0.335 -2.467 0.506 -4.974 0.531 -7.5 z m -33.648 10.5 l 4.25 0 c 0.391 2.036 0.906 4.03 1.527 5.982 c -2.283 -1.61 -4.25 -3.637 -5.777 -5.982 z m 7.33 0 l 1.115 0 l 0 0.332 c 0 0.928 0.801 1.668 1.674 1.668 l 6.826 0 l 0 7.943 c -2.537 -0.17 -4.95 -0.774 -7.176 -1.729 c -1.051 -2.62 -1.864 -5.371 -2.439 -8.215 z m 21.12 0 l 1.096 0 c -0.575 2.844 -1.369 5.605 -2.42 8.227 c -2.225 0.953 -4.642 1.546 -7.176 1.717 l 0 -7.943 l 6.826 0 c 0.872 0 1.674 -0.74 1.674 -1.668 l 0 -0.332 z m 4.18 0 l 4.258 0 c -1.528 2.343 -3.482 4.381 -5.766 5.99 c 0.62 -1.951 1.117 -3.954 1.508 -5.99 z" style="fill:#e78684;fill-opacity:1"/>
</svg>
