<svg xmlns="http://www.w3.org/2000/svg" width="64" height="64" viewBox="0 0 51.2 51.2">
 <path d="m 25.413 11.2 0.373 0 c 0.336 0 0.613 0.273 0.613 0.615 l 0 1.969 c 0 0.337 -0.277 0.615 -0.613 0.615 l -0.373 0 c -0.336 0 -0.613 -0.278 -0.613 -0.615 l 0 -1.969 c 0 -0.342 0.277 -0.615 0.613 -0.615 z" style="fill:#fd4651;fill-opacity:1"/>
 <path d="m 25.413 36.8 0.373 0 c 0.336 0 0.613 0.278 0.613 0.614 l 0 1.971 c 0 0.337 -0.277 0.614 -0.613 0.614 l -0.373 0 c -0.336 0 -0.613 -0.278 -0.613 -0.614 l 0 -1.971 c 0 -0.337 0.277 -0.614 0.613 -0.614 z" style="fill:#fd4651;fill-opacity:1"/>
 <path d="m 11.2 25.785 0 -0.369 c 0 -0.337 0.278 -0.615 0.62 -0.615 l 1.966 0 c 0.337 0 0.614 0.278 0.614 0.615 l 0 0.369 c 0 0.342 -0.278 0.615 -0.614 0.615 l -1.966 0 c -0.342 0 -0.62 -0.273 -0.62 -0.615 z" style="fill:#fd4651;fill-opacity:1"/>
 <path d="m 36.8 25.785 0 -0.369 c 0 -0.337 0.278 -0.615 0.615 -0.615 l 1.969 0 c 0.342 0 0.615 0.278 0.615 0.615 l 0 0.369 c 0 0.342 -0.273 0.615 -0.615 0.615 l -1.969 0 c -0.337 0 -0.615 -0.273 -0.615 -0.615" style="fill:#fd4651;fill-opacity:1"/>
 <circle cx="25.6" cy="25.6" r="20" style="stroke-dasharray:none;stroke-opacity:1;fill:none;opacity:1;stroke-miterlimit:4;fill-opacity:1;stroke:#fd4651;fill-rule:nonzero;stroke-linecap:butt;stroke-linejoin:miter;stroke-width:4.8;stroke-dashoffset:0"/>
 <path d="m 18.13 17 c -0.242 0 -0.485 0.094 -0.669 0.277 l -0.04 0.046 c -0.371 0.367 -0.371 0.966 0 1.333 l 5.558 5.558 c 0.003 0.003 0.006 0.004 0.008 0.006 a 2.933 2.933 0 0 1 1.4 -1.344 c -0.012 -0.013 -0.017 -0.029 -0.029 -0.042 l -5.558 -5.558 c -0.186 -0.183 -0.429 -0.277 -0.671 -0.277 z" style="fill:#fd4651;fill-opacity:1;stroke:none;fill-rule:nonzero"/>
 <path d="m 37.538 17.507 c -0.122 0.015 -0.243 0.055 -0.356 0.121 l -9.752 5.629 a 2.933 2.933 0 0 1 1.069 1.85 l 9.75 -5.629 c 0.454 -0.262 0.608 -0.843 0.348 -1.294 l -0.121 -0.21 c -0.197 -0.341 -0.572 -0.513 -0.938 -0.467 z" style="fill:#fd4651;fill-opacity:1;stroke:none;fill-rule:nonzero"/>
 <path d="m 23.704 27.786 -5.446 10.04 c -0.125 0.229 -0.046 0.525 0.179 0.663 l 0.063 0.042 c 0.225 0.133 0.504 0.059 0.629 -0.171 l 5.46 -10.06 a 2.933 2.933 0 0 1 -0.885 -0.51 z" style="fill:#fd4651;fill-opacity:1;stroke:none;fill-rule:nonzero"/>
 <path d="m 25.6 22.347 c -1.769 0 -3.2 1.431 -3.2 3.2 0 1.769 1.431 3.2 3.2 3.2 1.769 0 3.2 -1.431 3.2 -3.2 0 -1.769 -1.431 -3.2 -3.2 -3.2 z m 0 1.653 a 1.6 1.6 0 0 1 1.6 1.6 1.6 1.6 0 0 1 -1.6 1.6 1.6 1.6 0 0 1 -1.6 -1.6 1.6 1.6 0 0 1 1.6 -1.6 z" style="fill:#fd4651;fill-opacity:1;stroke:none;fill-rule:nonzero"/>
</svg>
