<svg xmlns="http://www.w3.org/2000/svg" viewBox="0 0 64 64">
 <path d="m 31.984 5 c -2.036 0 -3.743 1.164 -4.526 2.807 -1.551 -1.053 -3.712 -1.26 -5.466 -0.287 -1.754 0.957 -2.678 2.791 -2.506 4.578 -1.879 -0.016 -3.837 0.718 -4.839 2.361 -1.018 1.659 -0.814 3.7 0.313 5.168 c -1.738 0.734 -2.96 2.361 -2.96 4.275 c 0 1.914 1.222 3.541 2.96 4.275 -1.112 1.467 -1.331 3.493 -0.313 5.168 1 1.643 2.96 2.52 4.839 2.361 -0.172 1.786 0.752 3.621 2.506 4.578 0.783 0.431 1.146 0.59 2.01 0.59 l 0 20.13 8 -7.082 8 7.082 0 -20.13 c 0.846 0 1.225 -0.016 2.01 -0.59 1.754 -0.957 2.678 -2.791 2.506 -4.578 1.879 0.016 3.837 -0.718 4.839 -2.361 1.018 -1.659 0.814 -3.7 -0.313 -5.168 c 1.738 -0.734 2.96 -2.361 2.96 -4.275 0 -1.914 -1.222 -3.541 -2.96 -4.275 1.112 -1.467 1.331 -3.493 0.313 -5.168 -1 -1.643 -2.96 -2.52 -4.839 -2.361 0.172 -1.786 -0.752 -3.621 -2.506 -4.578 -1.754 -0.957 -3.915 -0.766 -5.466 0.287 -0.783 -1.643 -2.49 -2.807 -4.526 -2.807 m -0.031 7 c 6.891 0 12.498 5.279 12.498 11.803 0 6.523 -5.591 11.803 -12.498 11.803 -6.891 0 -12.498 -5.279 -12.498 -11.803 0 -6.523 5.591 -11.803 12.498 -11.803 z m 0 2.361 c -5.513 0 -9.992 4.227 -9.992 9.442 0 5.216 4.479 9.442 9.992 9.442 5.513 0 9.992 -4.227 9.992 -9.442 0 -5.216 -4.479 -9.442 -9.992 -9.442 z" style="fill:#d64c62;fill-opacity:1"/>
</svg>
