<svg xmlns="http://www.w3.org/2000/svg" viewBox="0 0 16 16">
 <g transform="translate(0 -1036.3622)">
  <path d="m 9.202 1036.54 c -1.165 0.293 -2.143 1.363 -2.143 1.363 l 0.03 0.034 1.866 6.932 c -1.334 -0.724 -3.239 -0.542 -4.817 0.598 -2.038 1.473 -2.747 3.984 -1.567 5.601 1.18 1.617 3.783 1.731 5.821 0.258 1.606 -1.161 2.501 -2.991 2.178 -4.494 -0.01 -0.047 -0.025 -0.091 -0.037 -0.137 l -1.791 -6.93 c 0.042 -0.061 0.564 -0.301 2.256 -0.416 1.79 -0.121 3 -2.988 3 -2.988 0 0 -2.01 0.771 -3.597 0.212 -0.396 -0.14 -0.813 -0.133 -1.201 -0.034 z" style="fill:#bebebe"/>
 </g>
</svg>
