<svg xmlns="http://www.w3.org/2000/svg" viewBox="0 0 16 16">
 <path d="m 2.668 1 c -0.344 0 -0.668 0.339 -0.668 0.697 l 0 12.605 c 0 0.338 0.344 0.697 0.668 0.697 l 10.664 0 c 0.324 0 0.668 -0.359 0.668 -0.697 l 0 -9.303 -4 -4 m -7 1 7 0 0 2.383 c 0 0.299 0.337 0.733 0.613 0.617 l 2.387 0 0 9 -10 0" style="fill:#bebebe;fill-opacity:1"/>
 <g transform="translate(15.491527,1.084523)" style="fill:#bebebe;fill-opacity:1">
  <path d="m -11.492 6.915 0 1 8 0 0 -1 z"/>
  <path d="m -11.492 8.915 0 1 8 0 0 -1 z"/>
  <path d="m -11.492 10.915 0 1 8 0 0 -1 z"/>
  <path d="m -11.492 4.915 0 1 8 0 0 -1 z"/>
 </g>
</svg>
