<svg xmlns="http://www.w3.org/2000/svg" viewBox="0 0 16 16">
 <path d="m 2.668 1 c -0.344 0 -0.668 0.339 -0.668 0.697 l 0 12.605 c 0 0.338 0.344 0.697 0.668 0.697 l 10.664 0 c 0.324 0 0.668 -0.359 0.668 -0.697 l 0 -9.303 -4 -4 m -7 1 7 0 0 2.383 c 0 0.299 0.337 0.733 0.613 0.617 l 2.387 0 0 9 -10 0" style="fill:#bebebe;fill-opacity:1"/>
 <path d="m 7.458 4.794 1.084 0 c 1.633 0 1.633 1.869 1.633 1.869 l 0 1.343 c 0 0.625 -1.084 1.888 -1.084 1.888 l 0 0.619 l 1.909 1.468 l 0 1 l -3.274 0.019 -2.726 -0.019 l 0 -1 1.909 -1.468 0 -0.619 c 0 0 -1.091 -1.263 -1.084 -1.888 l 0 -1.343 c 0 0 0 -1.869 1.633 -1.869 z" style="fill:#bebebe;fill-opacity:1"/>
</svg>
