<?xml version="1.0" encoding="UTF-8" standalone="no"?>
<!-- Created with Inkscape (http://www.inkscape.org/) -->

<svg
   xmlns:dc="http://purl.org/dc/elements/1.1/"
   xmlns:cc="http://creativecommons.org/ns#"
   xmlns:rdf="http://www.w3.org/1999/02/22-rdf-syntax-ns#"
   xmlns:svg="http://www.w3.org/2000/svg"
   xmlns="http://www.w3.org/2000/svg"
   xmlns:sodipodi="http://sodipodi.sourceforge.net/DTD/sodipodi-0.dtd"
   xmlns:inkscape="http://www.inkscape.org/namespaces/inkscape"
   width="240mm"
   height="240mm"
   viewBox="0 0 240 240"
   version="1.1"
   id="svg906"
   inkscape:version="0.92.4 5da689c313, 2019-01-14"
   sodipodi:docname="recorder-countdown.svg">
  <defs
     id="defs900" />
  <sodipodi:namedview
     id="base"
     pagecolor="#ffffff"
     bordercolor="#666666"
     borderopacity="1.0"
     inkscape:pageopacity="0.0"
     inkscape:pageshadow="2"
     inkscape:zoom="0.60460731"
     inkscape:cx="245.64249"
     inkscape:cy="505.04802"
     inkscape:document-units="mm"
     inkscape:current-layer="layer1"
     showgrid="false"
     inkscape:pagecheckerboard="true"
     inkscape:window-width="1321"
     inkscape:window-height="740"
     inkscape:window-x="45"
     inkscape:window-y="28"
     inkscape:window-maximized="0" />
  <metadata
     id="metadata903">
    <rdf:RDF>
      <cc:Work
         rdf:about="">
        <dc:format>image/svg+xml</dc:format>
        <dc:type
           rdf:resource="http://purl.org/dc/dcmitype/StillImage" />
        <dc:title></dc:title>
      </cc:Work>
    </rdf:RDF>
  </metadata>
  <g
     inkscape:label="Layer 1"
     inkscape:groupmode="layer"
     id="layer1"
     transform="translate(0,-57)">
    <path
       inkscape:connector-curvature="0"
       style="fill:#ffffff;fill-opacity:1;fill-rule:evenodd;stroke-width:0.2583026"
       d="M 119.99991,76.999813 A 100,100 0 0 0 19.999813,176.99991 100,100 0 0 0 119.99991,277 100,100 0 0 0 220,176.99991 100,100 0 0 0 119.99991,76.999813 Z m 0,25.000027 c 41.2733,0 75.00007,33.72677 75.00007,75.00007 0,41.2733 -33.72677,75.00007 -75.00007,75.00007 -41.273299,0 -75.000075,-33.72677 -75.000075,-75.00007 0,-41.2733 33.726776,-75.00007 75.000075,-75.00007 z"
       id="path858" />
    <path
       style="fill:#53e2ae;fill-opacity:1;fill-rule:evenodd;stroke-width:0.2583026"
       d="m 120,126.99995 c -27.762298,0 -50.000048,22.23776 -50.000048,50.00006 0,27.7623 22.23775,50.00004 50.000048,50.00004 27.7623,0 50.00005,-22.23774 50.00005,-50.00004 0,-27.7623 -22.23775,-50.00006 -50.00005,-50.00006 z"
       id="path1456"
       inkscape:connector-curvature="0" />
  </g>
</svg>
