<svg xmlns="http://www.w3.org/2000/svg" xmlns:svg="http://www.w3.org/2000/svg" id="svg906" width="240mm" height="240mm" version="1.1" viewBox="0 0 240 240"><metadata id="metadata903"/><g id="layer1" transform="translate(0,-57)"><g id="g882"><path id="path858" d="M 453.54297 75.589844 A 377.95276 377.95276 0 0 0 75.589844 453.54297 A 377.95276 377.95276 0 0 0 453.54297 831.49609 A 377.95276 377.95276 0 0 0 831.49609 453.54297 A 377.95276 377.95276 0 0 0 453.54297 75.589844 z M 453.54297 170.07812 C 609.53654 170.07813 737.00781 297.54939 737.00781 453.54297 C 737.00781 609.53654 609.53654 737.00781 453.54297 737.00781 C 297.5494 737.00781 170.07812 609.53654 170.07812 453.54297 C 170.07812 297.54939 297.5494 170.07812 453.54297 170.07812 z" transform="matrix(0.26458333,0,0,0.26458333,0,57)" style="fill:#fff;fill-opacity:1;fill-rule:evenodd;stroke-width:.97626179"/><path id="path1456" d="m 120,126.99995 c -27.762298,0 -50.000048,22.23776 -50.000048,50.00006 0,27.7623 22.23775,50.00004 50.000048,50.00004 27.7623,0 50.00005,-22.23774 50.00005,-50.00004 0,-27.7623 -22.23775,-50.00006 -50.00005,-50.00006 z" style="fill:#ee4f84;fill-opacity:1;fill-rule:evenodd;stroke-width:.2583026"/></g></g></svg>