<svg xmlns="http://www.w3.org/2000/svg" width="22" height="22" viewBox="0 0 18 18">
 <g>
  <path d="m 15.75 9 c 0 3.211 -3.02 5.813 -6.75 5.813 c -3.727 0 -6.75 -2.602 -6.75 -5.813 c 0 -3.211 3.02 -5.813 6.75 -5.813 c 3.727 0 6.75 2.602 6.75 5.813 m 0 0" style="fill:#ffd95d;fill-opacity:1;stroke:none;fill-rule:nonzero"/>
  <path d="m 6.414 12.375 c 0.211 -1.082 1.305 -1.875 2.586 -1.875 c 1.281 0 2.371 0.793 2.586 1.875 l -0.363 0 c -0.156 -0.645 -1.105 -1.125 -2.223 -1.125 c -1.117 0 -2.066 0.48 -2.223 1.125 m -0.363 0" style="fill:#646464;fill-opacity:1;stroke:none;fill-rule:nonzero"/>
  <path d="m 7.406 7.02 l -1.563 0.902 c 0.105 0.414 0.48 0.703 0.906 0.703 c 0.52 0 0.938 -0.418 0.938 -0.938 c 0 -0.25 -0.102 -0.492 -0.281 -0.668 m 0 0" style="fill:#646464;fill-opacity:1;stroke:none;fill-rule:nonzero"/>
  <path d="m 10.594 7.02 c -0.18 0.176 -0.281 0.418 -0.281 0.668 c 0 0.52 0.418 0.938 0.938 0.938 c 0.426 0 0.801 -0.289 0.906 -0.703 m -1.563 -0.902" style="fill:#646464;fill-opacity:1;stroke:none;fill-rule:nonzero"/>
  <path d="m 12.375 10.313 c 0 0.313 -0.25 0.563 -0.563 0.563 c -0.313 0 -0.563 -0.25 -0.563 -0.563 c 0 -0.313 0.563 -1.313 0.563 -1.313 c 0 0 0.563 1 0.563 1.313 m 0 0" style="fill:#86b5f1;fill-opacity:1;stroke:none;fill-rule:nonzero"/>
 </g>
</svg>
