<svg xmlns="http://www.w3.org/2000/svg" width="22" height="22" viewBox="0 0 18 18">
 <g>
  <path d="m 15.75 9 c 0 3.211 -3.02 5.813 -6.75 5.813 c -3.727 0 -6.75 -2.602 -6.75 -5.813 c 0 -3.211 3.02 -5.813 6.75 -5.813 c 3.727 0 6.75 2.602 6.75 5.813 m 0 0" style="fill:#ffd95d;fill-opacity:1;stroke:none;fill-rule:nonzero"/>
  <path d="m 10.5 5.25 l 1.5 0 c 0.105 0 0.188 0.082 0.188 0.188 c 0 0.105 -0.082 0.188 -0.188 0.188 l -1.5 0 c -0.105 0 -0.188 -0.082 -0.188 -0.188 c 0 -0.105 0.082 -0.188 0.188 -0.188 m 0 0" style="fill:#646464;fill-opacity:1;stroke:none;fill-rule:nonzero"/>
  <path d="m 7.688 7.688 c 0 0.52 -0.418 0.938 -0.938 0.938 c -0.52 0 -0.938 -0.418 -0.938 -0.938 c 0 -0.52 0.418 -0.938 0.938 -0.938 c 0.52 0 0.938 0.418 0.938 0.938 m 0 0" style="fill:#646464;fill-opacity:1;stroke:none;fill-rule:nonzero"/>
  <path d="m 12.188 7.688 c 0 0.52 -0.418 0.938 -0.938 0.938 c -0.52 0 -0.938 -0.418 -0.938 -0.938 c 0 -0.52 0.418 -0.938 0.938 -0.938 c 0.52 0 0.938 0.418 0.938 0.938 m 0 0" style="fill:#646464;fill-opacity:1;stroke:none;fill-rule:nonzero"/>
  <path d="m 6 6 l 1.5 0 c 0.105 0 0.188 0.082 0.188 0.188 c 0 0.105 -0.082 0.188 -0.188 0.188 l -1.5 0 c -0.105 0 -0.188 -0.082 -0.188 -0.188 c 0 -0.105 0.082 -0.188 0.188 -0.188 m 0 0" style="fill:#646464;fill-opacity:1;stroke:none;fill-rule:nonzero"/>
  <path d="m 11.223 10.5 c -0.156 0.645 -1.105 1.125 -2.223 1.125 l 0 0.75 c 1.281 0 2.371 -0.793 2.586 -1.875 m -0.363 0" style="fill:#646464;fill-opacity:1;stroke:none;fill-rule:nonzero"/>
 </g>
</svg>
