<svg xmlns="http://www.w3.org/2000/svg" width="22" height="22" viewBox="0 0 18 18">
 <g>
  <path d="m 15.75 9 c 0 3.211 -3.02 5.813 -6.75 5.813 c -3.727 0 -6.75 -2.602 -6.75 -5.813 c 0 -3.211 3.02 -5.813 6.75 -5.813 c 3.727 0 6.75 2.602 6.75 5.813 m 0 0" style="fill:#ffd95d;fill-opacity:1;stroke:none;fill-rule:nonzero"/>
  <path d="m 12.188 7.313 c 0 -0.727 -0.418 -1.313 -0.938 -1.313 c -0.52 0 -0.938 0.586 -0.938 1.313 c 0 0.727 0.418 1.313 0.938 1.313 c 0.52 0 0.938 -0.586 0.938 -1.313 m 0 0" style="fill:#646464;fill-opacity:1;stroke:none;fill-rule:nonzero"/>
  <path d="m 7.688 7.313 c 0 -0.727 -0.418 -1.313 -0.938 -1.313 c -0.52 0 -0.938 0.586 -0.938 1.313 c 0 0.727 0.418 1.313 0.938 1.313 c 0.52 0 0.938 -0.586 0.938 -1.313 m 0 0" style="fill:#646464;fill-opacity:1;stroke:none;fill-rule:nonzero"/>
  <path d="m 10.242 12.367 c -0.379 -0.031 -0.824 -0.16 -1.57 -0.457 c -0.48 -0.191 -0.652 -0.246 -0.863 -0.273 c -0.195 -0.027 -0.32 -0.027 -0.457 0.035 c -0.191 0.078 -0.301 0.254 -0.336 0.539 l -0.016 0.164 l -0.625 0 l 0 -0.152 c 0 -0.281 0.094 -0.551 0.258 -0.75 c 0.063 -0.082 0.203 -0.199 0.297 -0.25 c 0.094 -0.051 0.262 -0.109 0.387 -0.137 c 0.164 -0.031 0.488 -0.031 0.68 0 c 0.293 0.051 0.609 0.152 1.273 0.41 c 0.586 0.23 0.848 0.297 1.137 0.301 c 0.148 0 0.168 -0.004 0.238 -0.031 c 0.133 -0.051 0.238 -0.156 0.293 -0.305 c 0.027 -0.066 0.059 -0.238 0.059 -0.309 l 0 -0.09 l 0.629 0 l 0 0.141 c 0 0.129 -0.016 0.266 -0.047 0.383 c -0.105 0.414 -0.414 0.684 -0.875 0.762 c -0.094 0.027 -0.363 0.027 -0.461 0.027 m 0 -0.008" style="fill:#646464;fill-opacity:1;stroke:none;fill-rule:nonzero"/>
 </g>
</svg>
