<svg xmlns="http://www.w3.org/2000/svg" width="22" height="22" viewBox="0 0 18 18">
 <g>
  <path d="m 15.75 9 c 0 3.211 -3.02 5.813 -6.75 5.813 c -3.727 0 -6.75 -2.602 -6.75 -5.813 c 0 -3.211 3.02 -5.813 6.75 -5.813 c 3.727 0 6.75 2.602 6.75 5.813 m 0 0" style="fill:#ffce3d;fill-opacity:1;stroke:none;fill-rule:nonzero"/>
  <path d="m 8.703 10.27 c 0.102 0.047 0.23 0.078 0.379 0.059 c 0.242 -0.023 0.324 -0.102 0.41 -0.199 c 0.133 -0.152 0.184 -0.367 -0.012 -0.48 c -0.164 -0.094 -0.512 -0.102 -0.738 -0.055 c -0.551 0.109 -0.367 0.52 -0.039 0.676 m 0 0" style="fill:#2f2f2f;fill-opacity:1;stroke:none;fill-rule:nonzero"/>
  <path d="m 11.207 11.746 c -0.75 -0.137 -2.352 -0.148 -3.406 -0.082 c -2.535 0.16 -1.688 0.762 -0.16 0.992 c 0.461 0.066 1.063 0.109 1.738 0.086 c 1.105 -0.035 1.496 -0.152 1.887 -0.293 c 0.625 -0.223 0.848 -0.535 -0.059 -0.703 m 0 0" style="fill:#de7036;fill-opacity:1;stroke:none;fill-rule:nonzero"/>
  <path d="m 9.195 3.191 c -2.957 -0.074 -5.625 1.523 -6.578 3.934 c -0.668 0.004 -1.281 0.359 -1.617 0.938 c -0.332 0.582 -0.332 1.293 0 1.875 c 0.336 0.578 0.953 0.938 1.621 0.938 c 0.938 2.348 3.5 3.922 6.383 3.922 c 2.879 0 5.445 -1.574 6.383 -3.922 c 0.664 -0.004 1.277 -0.359 1.613 -0.938 c 0.332 -0.582 0.332 -1.293 0 -1.875 c -0.336 -0.578 -0.949 -0.934 -1.617 -0.938 c -0.906 -2.293 -3.375 -3.863 -6.188 -3.934 m -2.656 2.805 c 0.848 0.043 1.609 0.781 2.465 0.758 c 0.91 0.027 1.715 -0.816 2.629 -0.754 c 0.211 0.016 0.438 0.008 0.645 0.07 c 0.574 0.18 0.98 0.625 1.211 1.148 c 0.211 0.488 0.137 0.984 -0.016 1.473 c -0.125 0.387 -0.129 0.898 -0.07 1.293 c 0.051 0.375 0.266 0.727 0.289 1.102 c 0.063 1.027 -0.828 1.723 -1.723 2.109 c -0.879 0.387 -1.961 0.531 -2.969 0.516 c -1.01 0.016 -2.09 -0.129 -2.969 -0.516 c -0.895 -0.387 -1.785 -1.082 -1.719 -2.109 c 0.023 -0.379 0.234 -0.727 0.289 -1.102 c 0.059 -0.395 0.055 -0.906 -0.066 -1.293 c -0.156 -0.492 -0.234 -0.984 -0.02 -1.473 c 0.23 -0.523 0.633 -0.969 1.211 -1.148 c 0.203 -0.063 0.43 -0.059 0.641 -0.07 c 0.059 -0.004 0.117 -0.004 0.172 -0.004 m 0 0" style="fill:#855b52;fill-opacity:1;stroke:none;fill-rule:nonzero"/>
  <path d="m 7.688 7.688 c 0 0.52 -0.418 0.938 -0.938 0.938 c -0.52 0 -0.938 -0.418 -0.938 -0.938 c 0 -0.52 0.418 -0.938 0.938 -0.938 c 0.52 0 0.938 0.418 0.938 0.938 m 0 0" style="fill:#646464;fill-opacity:1;stroke:none;fill-rule:nonzero"/>
  <path d="m 12.188 7.688 c 0 0.52 -0.418 0.938 -0.938 0.938 c -0.52 0 -0.938 -0.418 -0.938 -0.938 c 0 -0.52 0.418 -0.938 0.938 -0.938 c 0.52 0 0.938 0.418 0.938 0.938 m 0 0" style="fill:#646464;fill-opacity:1;stroke:none;fill-rule:nonzero"/>
  <path d="m 2.25 9.938 c -0.27 0 -0.516 -0.18 -0.648 -0.469 c -0.137 -0.289 -0.137 -0.648 0 -0.938 c 0.133 -0.289 0.379 -0.469 0.648 -0.469 m 0 1.875" style="fill:#ffce3d;fill-opacity:1;stroke:none;fill-rule:nonzero"/>
  <path d="m 15.75 9.938 c 0.27 0 0.516 -0.18 0.648 -0.469 c 0.137 -0.289 0.137 -0.648 0 -0.938 c -0.133 -0.289 -0.379 -0.469 -0.648 -0.469 m 0 1.875" style="fill:#ffce3d;fill-opacity:1;stroke:none;fill-rule:nonzero"/>
 </g>
</svg>
