<svg xmlns="http://www.w3.org/2000/svg" viewBox="0 0 24 24">
 <path d="m 8 4 -4 4 7 0 0 -4 -3 0 z m 5 0 0 4 7 0 -4 -4 -3 0 z m -9 6 0 10 9.604 0 c -0.313 -1.723 0.189 -3.57 1.508 -4.889 1.065 -1.066 2.484 -1.611 3.889 -1.611 c 0.334 0 0.669 0.032 1 0.094 l 0 -3.594 -16 0" style="fill:#c28e5c"/>
 <path d="m 19 -22 a 3 3 0 0 1 2.772 1.852 3 3 0 0 1 -0.65 3.27 3 3 0 0 1 -3.27 0.65 3 3 0 0 1 -1.852 -2.772" transform="matrix(0,1,-1,0,0,0)" style="stroke-dasharray:none;stroke-opacity:1;fill:none;opacity:1;stroke-miterlimit:4;fill-opacity:1;stroke:#4db147;fill-rule:nonzero;stroke-linecap:butt;stroke-linejoin:miter;stroke-width:1;stroke-dashoffset:0"/>
</svg>
