<svg viewBox="0 0 24 24" xmlns="http://www.w3.org/2000/svg">
 <path style="fill:#ececec;fill-opacity:1;stroke:none;fill-rule:nonzero" d="m 11.65 4 -0.002 0.002 c -1.163 0 -2.268 0.198 -3.275 0.629 c -1.621 0.694 -2.741 1.708 -3.717 2.977 6.643 -3.767 11.123 0.265 11.06 1.541 c -0.044 0.937 -0.866 0.763 -2.693 0.25 c -3.885 -1.088 -8.235 0.511 -8.912 3.646 -0.901 4.167 3.873 6.93 7.539 6.955 c 4.68 -0.003 8.344 -3.333 8.35 -8 -0.006 -4.665 -3.952 -7.969 -8.35 -8 z m -0.150391 8 a 4.5 2.5 0 0 1 4.5 2.5 4.5 2.5 0 0 1 -4.5 2.5 a 4.5 2.5 0 0 1 -4.5 -2.5 4.5 2.5 0 0 1 4.5 -2.5 z"/>
</svg>
