<svg xmlns="http://www.w3.org/2000/svg" viewBox="0 0 24 24">
 <path d="m 8.667 3 c -1.84 0 -3.333 1.511 -3.333 3.374 l 0 5.637 c 0 1.862 1.493 3.374 3.333 3.374 c 1.84 0 3.333 -1.511 3.333 -3.374 l 0 -5.637 c 0 -1.862 -1.493 -3.374 -3.333 -3.374" style="fill:#ececec;fill-opacity:1"/>
 <path d="m 2 12 c 0 3.349 2.399 6.113 5.557 6.647 l 0 1.228 -1.113 0 0 1.125 4.447 0 0 -1.125 -1.113 0 0 -1.228 c 3.158 -0.534 5.557 -3.298 5.557 -6.647 l -2.223 0 c 0 2.485 -1.987 4.502 -4.443 4.502 -2.453 0 -4.443 -2.02 -4.443 -4.502 z" style="fill:#ececec;fill-opacity:1"/>
 <path d="m 22 12 c 0 1.243 -0.995 2.249 -2.223 2.249 -1.228 0 -2.22 -1.01 -2.22 -2.249 0 -1.243 0.992 -2.249 2.22 -2.249 c 1.228 0 2.223 1.01 2.223 2.249" style="fill:#ef555c;fill-opacity:1"/>
</svg>
