<svg xmlns="http://www.w3.org/2000/svg" viewBox="0 0 24 24">
 <path d="m 8.667 3 c -1.84 0 -3.333 1.511 -3.333 3.374 l 0 5.637 c 0 1.862 1.493 3.374 3.333 3.374 c 1.84 0 3.333 -1.511 3.333 -3.374 l 0 -5.637 c 0 -1.862 -1.493 -3.374 -3.333 -3.374" style="fill:#ececec;fill-opacity:1"/>
 <path d="m 2 12 c 0 3.349 2.399 6.113 5.557 6.647 l 0 1.228 -1.113 0 0 1.125 4.447 0 0 -1.125 -1.113 0 0 -1.228 c 3.158 -0.534 5.557 -3.298 5.557 -6.647 l -2.223 0 c 0 2.485 -1.987 4.502 -4.443 4.502 -2.453 0 -4.443 -2.02 -4.443 -4.502 z" style="fill:#ececec;fill-opacity:1"/>
 <g transform="matrix(0.91657718,0,0,0.91683249,1.0010738,0.9980101)" style="fill:#ececec;opacity:0.4;fill-opacity:1">
  <path d="m 22.91 4.637 c 0 1.355 -1.086 2.453 -2.426 2.453 -1.34 0 -2.422 -1.098 -2.422 -2.453 0 -1.355 1.082 -2.453 2.422 -2.453 1.34 0 2.426 1.098 2.426 2.453 z"/>
  <path d="m 22.91 12 c 0 1.355 -1.086 2.453 -2.426 2.453 -1.34 0 -2.422 -1.098 -2.422 -2.453 0 -1.355 1.082 -2.453 2.422 -2.453 1.34 0 2.426 1.098 2.426 2.453 z"/>
  <path d="m 22.91 19.363 c 0 1.355 -1.086 2.453 -2.426 2.453 -1.34 0 -2.422 -1.098 -2.422 -2.453 0 -1.355 1.082 -2.453 2.422 -2.453 1.34 0 2.426 1.098 2.426 2.453 z"/>
 </g>
</svg>
