<svg xmlns="http://www.w3.org/2000/svg" viewBox="0 0 24 24">
 <path d="m 6.786 4.908 c -0.034 0.002 -0.07 0.006 -0.103 0.011 -0.031 0.005 -0.061 0.015 -0.092 0.023 -0.004 0.001 -0.008 -0.001 -0.011 0 -0.034 0.009 -0.07 0.022 -0.103 0.034 c -0.66 0.22 -1.622 1.064 -1.942 1.791 -0.137 0.298 -0.255 0.63 -0.356 1.033 -0.188 0.746 -0.24 1.743 -0.092 2.916 c 0.121 0.99 0.399 2.146 0.942 3.387 0.337 0.897 1.01 2 2.263 3.1 0.147 0.109 0.29 0.213 0.437 0.31 1.178 0.781 2.233 1.128 3.056 1.263 1.35 0.301 2.562 0.361 3.596 0.298 1.229 -0.07 2.252 -0.307 2.987 -0.643 0.31 -0.168 0.719 -0.419 0.942 -0.62 0.657 -0.593 1.176 -1.11 1.459 -1.561 0.011 -0.016 0.024 -0.03 0.034 -0.046 0.032 -0.053 0.056 -0.098 0.08 -0.149 0.012 -0.024 0.024 -0.045 0.034 -0.069 0.018 -0.043 0.034 -0.085 0.046 -0.126 0.003 -0.025 0.009 -0.026 0.011 -0.046 0.004 -0.015 0.009 -0.032 0.011 -0.046 0.005 -0.032 0.009 -0.089 0.011 -0.103 0.006 -0.027 0 -0.023 0 -0.023 0 0 0.002 -0.007 0 -0.034 -0.002 -0.028 0 -0.078 0 -0.184 -0.009 -0.071 -0.025 -0.148 -0.046 -0.218 -0.042 -0.139 -0.106 -0.276 -0.195 -0.413 -0.173 -0.268 -0.428 -0.532 -0.758 -0.792 -0.612 -0.482 -1.469 -0.949 -2.47 -1.401 -0.852 -0.385 -1.79 -0.737 -2.7 -1.125 -0.636 -0.31 -1.138 -0.472 -1.321 -0.62 -0.023 -0.018 -0.033 -0.039 -0.046 -0.057 -0.166 -0.033 -0.432 -0.482 -0.896 -1.045 c -0.536 -0.725 -1.047 -1.491 -1.562 -2.193 -0.602 -0.822 -1.183 -1.515 -1.735 -1.986 -0.298 -0.254 -0.585 -0.44 -0.862 -0.551 -0.142 -0.057 -0.278 -0.101 -0.414 -0.115 c -0.069 -0.007 -0.14 -0.004 -0.207 0 z" style="fill:#ececec;opacity:0.4;fill-opacity:1"/>
 <path d="m 14.556 11.779 -5.553 6.432 c 0.662 0.299 1.269 0.481 1.779 0.564 1.35 0.301 2.562 0.362 3.596 0.299 1.229 -0.07 2.253 -0.306 2.988 -0.643 0.31 -0.168 0.719 -0.418 0.941 -0.619 0.657 -0.593 1.176 -1.111 1.459 -1.563 0.011 -0.016 0.025 -0.029 0.035 -0.045 0.032 -0.053 0.056 -0.099 0.08 -0.15 0.012 -0.024 0.025 -0.044 0.035 -0.068 0.018 -0.043 0.033 -0.085 0.045 -0.127 0.003 -0.025 0.009 -0.025 0.012 -0.045 0.004 -0.015 0.009 -0.032 0.012 -0.047 0.005 -0.032 0.009 -0.089 0.012 -0.104 0.006 -0.027 0 -0.021 0 -0.021 0 0 0.002 -0.007 0 -0.035 -0.002 -0.028 0 -0.078 0 -0.184 -0.009 -0.071 -0.026 -0.148 -0.047 -0.219 -0.042 -0.139 -0.106 -0.274 -0.195 -0.412 c -0.173 -0.268 -0.428 -0.533 -0.758 -0.793 -0.612 -0.482 -1.47 -0.949 -2.471 -1.4 -0.622 -0.281 -1.302 -0.548 -1.971 -0.82" style="fill:#ececec;fill-opacity:1"/>
</svg>
