<svg xmlns="http://www.w3.org/2000/svg" viewBox="0 0 24 24">
 <path d="m 7.498 4.5 -4.498 3.502 4.498 3 -4.498 4 9 5.998 9 -5.998 -4.498 -4 4.498 -3 -4.498 -3.502 -4.502 3.502 m -2.188 0.999 2.876 0.752 -1.533 2.56 -0.405 -0.999 c -1.074 0.48 -1.751 1.522 -1.751 2.689 0 1.207 0.759 2.313 1.909 2.75 l -0.534 1.375 c -1.723 -0.655 -2.876 -2.313 -2.876 -4.125 0 -1.776 1.074 -3.359 2.722 -4.064 z m 3.846 0.877 c 1.719 0.673 2.844 2.302 2.844 4.125 0 1.758 -1.078 3.369 -2.722 4.061 l 0.344 0.938 -2.75 -0.781 1.472 -2.532 0.372 0.999 c 1.067 -0.473 1.784 -1.529 1.784 -2.686 0 -1.217 -0.727 -2.302 -1.877 -2.75 z" style="fill:#ececec;fill-opacity:1"/>
</svg>
