<svg xmlns="http://www.w3.org/2000/svg" viewBox="0 0 24 24">
 <g transform="matrix(0.53350319,0,0,0.53580409,-0.80246521,-0.85804087)" style="fill:#ececec;fill-opacity:1">
  <g>
   <!-- color: #f8bd5a -->
   <g>
    <path d="m 23.672 10 c -7.582 0 -13.84 6.141 -14.613 14.07 -0.004 0.02 0 0.047 0 0.07 l 0 0.023 c -0.004 0.027 0 0.047 0 0.07 -0.086 1.141 -0.066 2.082 0 3.145 2.961 12.898 11.824 11.895 11.824 8.141 l -4.01 -6.922 c -0.863 -0.59 -1.762 0.418 -2.594 0.961 0 0 -0.338 0.745 -0.955 -0.865 -0.719 -1.898 -0.816 -4.913 0.27 -7.441 2.246 -5.25 5.358 -7.437 10.05 -7.523 l 0.699 0 c 4.672 0.102 7.81 2.292 10.05 7.524 1.082 2.527 0.989 5.537 0.27 7.44 -0.609 1.609 -0.958 0.865 -0.958 0.865 -0.824 -0.547 -1.723 -1.551 -2.594 -0.961 l -4.01 6.922 c 0 3.75 8.867 4.758 11.828 -8.141 0.063 -1.063 0.086 -2 0 -3.145 -0.004 -0.023 0.004 -0.043 0 -0.07 l 0 -0.023 c -0.004 -0.023 0.004 -0.047 0 -0.07 c -0.777 -7.938 -6.992 -14.07 -14.574 -14.07 l -0.699 0" style="stroke:none;fill-rule:nonzero"/>
   </g>
  </g>
 </g>
</svg>
