<svg xmlns="http://www.w3.org/2000/svg" viewBox="0 0 24 24">
 <g transform="translate(1,1.0000001)">
  <path d="m 10 3 c -1.211 0 -2.311 0.35 -3.133 0.955 c -0.822 0.605 -1.369 1.49 -1.369 2.492 l 0 9.06 c 0 1 0.545 1.896 1.365 2.512 c 0.82 0.616 1.923 0.98 3.137 0.98 l 1.996 0 c 1.214 0 2.316 -0.364 3.137 -0.98 c 0.82 -0.616 1.365 -1.509 1.365 -2.512 l 0 -9.06 c 0 -1 -0.548 -1.888 -1.369 -2.492 -0.822 -0.605 -1.922 -0.955 -3.133 -0.955 z m 0.738 1.762 0.52 0 c 0.376 0 0.656 0.259 0.656 0.607 l 0 3.322 c 0 0.349 -0.302 0.65 -0.656 0.65 l -0.52 0 c -0.354 0 -0.656 -0.301 -0.656 -0.65 l 0 -3.322 c 0 -0.349 0.28 -0.607 0.656 -0.607 z" mix-blend-mode="normal" isolation="auto" white-space="normal" solid-opacity="1" solid-color="#000000" style="visibility:visible;shape-rendering:auto;color-interpolation-filters:linearRGB;fill:#ececec;opacity:0.4;image-rendering:auto;fill-opacity:1;stroke:none;display:inline;color:#000;fill-rule:nonzero;color-rendering:auto;color-interpolation:sRGB"/>
  <path d="m 5.5 12.6 0 2.908 c 0 1 0.545 1.896 1.365 2.512 c 0.82 0.616 1.923 0.98 3.137 0.98 l 1.996 0 c 1.214 0 2.316 -0.364 3.137 -0.98 c 0.82 -0.616 1.365 -1.509 1.365 -2.512 l 0 -2.908" mix-blend-mode="normal" isolation="auto" white-space="normal" solid-opacity="1" solid-color="#000000" style="visibility:visible;shape-rendering:auto;color-interpolation-filters:linearRGB;fill:#ececec;opacity:1;image-rendering:auto;fill-opacity:1;stroke:none;display:inline;color:#000;fill-rule:nonzero;color-rendering:auto;color-interpolation:sRGB"/>
 </g>
</svg>
