<svg xmlns="http://www.w3.org/2000/svg" viewBox="0 0 24 24">
 <path style="fill:#ececec;fill-opacity:1" d="m 4 2 c -1.108 0 -2 0.892 -2 2 l 0 16 c 0 1.108 0.892 2 2 2 l 16 0 c 1.108 0 2 -0.892 2 -2 l 0 -16 c 0 -1.108 -0.892 -2 -2 -2 l -16 0 z m 4.68 5.387 c 0.358 0 0.683 0.03 0.975 0.088 0.292 0.05 0.547 0.109 0.764 0.176 0.217 0.067 0.395 0.138 0.537 0.213 0.142 0.075 0.242 0.129 0.301 0.162 l -0.463 1.287 c -0.2 -0.125 -0.488 -0.241 -0.863 -0.35 -0.367 -0.117 -0.766 -0.176 -1.199 -0.176 c -0.375 0 -0.726 0.068 -1.051 0.201 -0.325 0.125 -0.608 0.316 -0.85 0.574 -0.233 0.258 -0.417 0.583 -0.551 0.975 -0.133 0.392 -0.199 0.847 -0.199 1.363 0 0.458 0.05 0.878 0.15 1.262 0.108 0.383 0.27 0.717 0.486 1 0.217 0.275 0.493 0.492 0.826 0.65 0.333 0.15 0.733 0.225 1.199 0.225 0.558 0 1.013 -0.054 1.363 -0.162 0.35 -0.117 0.621 -0.224 0.813 -0.324 l 0.424 1.287 c -0.1 0.067 -0.237 0.133 -0.412 0.199 -0.167 0.067 -0.366 0.135 -0.6 0.201 -0.233 0.058 -0.495 0.103 -0.787 0.137 -0.292 0.042 -0.604 0.063 -0.938 0.063 -0.65 0 -1.233 -0.101 -1.75 -0.301 -0.517 -0.2 -0.954 -0.492 -1.313 -0.875 c -0.358 -0.392 -0.635 -0.865 -0.826 -1.424 -0.192 -0.558 -0.287 -1.201 -0.287 -1.926 c 0 -0.725 0.11 -1.365 0.326 -1.924 0.225 -0.558 0.529 -1.031 0.912 -1.414 c 0.383 -0.392 0.833 -0.687 1.35 -0.887 0.517 -0.2 1.07 -0.301 1.662 -0.301 z m 6.533 2.188 c 0.1 0 0.216 0.009 0.35 0.025 0.133 0.008 0.267 0.026 0.4 0.051 0.133 0.017 0.264 0.041 0.389 0.074 0.125 0.025 0.224 0.051 0.299 0.076 l -0.262 1.273 c -0.125 -0.042 -0.3 -0.083 -0.525 -0.125 -0.217 -0.05 -0.47 -0.074 -0.762 -0.074 -0.167 0 -0.347 0.017 -0.539 0.051 -0.183 0.033 -0.312 0.061 -0.387 0.086 l 0 5.238 -1.512 0 0 -6.225 c 0.292 -0.108 0.653 -0.209 1.086 -0.301 c 0.442 -0.1 0.93 -0.15 1.463 -0.15 z m 3.174 4.744 c 0.462 0 0.801 0.111 1.018 0.332 0.221 0.217 0.332 0.513 0.332 0.893 0 0.15 -0.031 0.299 -0.094 0.445 -0.063 0.142 -0.144 0.28 -0.244 0.418 -0.096 0.133 -0.205 0.265 -0.33 0.395 -0.125 0.125 -0.25 0.246 -0.375 0.367 -0.067 0.063 -0.143 0.139 -0.227 0.227 -0.083 0.087 -0.161 0.174 -0.236 0.262 -0.075 0.087 -0.139 0.173 -0.193 0.256 -0.054 0.079 -0.084 0.147 -0.088 0.201 l 1.924 0 0 0.637 -2.756 0 c -0.004 -0.033 -0.006 -0.073 -0.006 -0.119 l 0 -0.111 c 0 -0.2 0.031 -0.384 0.094 -0.551 0.067 -0.171 0.152 -0.329 0.256 -0.475 0.104 -0.146 0.22 -0.283 0.35 -0.412 0.129 -0.129 0.26 -0.258 0.389 -0.383 0.1 -0.096 0.195 -0.19 0.287 -0.281 0.092 -0.092 0.172 -0.18 0.238 -0.268 0.071 -0.092 0.126 -0.184 0.168 -0.275 0.042 -0.096 0.063 -0.193 0.063 -0.293 0 -0.217 -0.063 -0.371 -0.188 -0.463 -0.125 -0.092 -0.278 -0.139 -0.457 -0.139 -0.117 0 -0.224 0.017 -0.324 0.051 -0.1 0.033 -0.19 0.073 -0.27 0.119 -0.075 0.046 -0.141 0.093 -0.199 0.143 -0.058 0.046 -0.102 0.084 -0.131 0.113 l -0.375 -0.531 c 0.175 -0.167 0.378 -0.3 0.611 -0.4 0.238 -0.104 0.493 -0.156 0.764 -0.156 z"/>
</svg>
