<svg viewBox="0 0 24 24" xmlns="http://www.w3.org/2000/svg">
 <path d="m 4 2 c -1.108 0 -2 0.892 -2 2 l 0 16 c 0 1.108 0.892 2 2 2 l 16 0 c 1.108 0 2 -0.892 2 -2 l 0 -16 c 0 -1.108 -0.892 -2 -2 -2 l -16 0 z m -0.377 5.588 1.287 0 c 0.333 0.35 0.691 0.767 1.074 1.25 0.383 0.475 0.767 0.97 1.15 1.486 0.392 0.517 0.767 1.037 1.125 1.563 0.367 0.517 0.691 1 0.975 1.451 l 0 -5.75 1.563 0 0 8.662 -1.336 0 c -0.283 -0.475 -0.601 -0.984 -0.951 -1.525 c -0.35 -0.55 -0.713 -1.1 -1.088 -1.65 -0.375 -0.558 -0.757 -1.095 -1.148 -1.611 -0.383 -0.525 -0.752 -0.995 -1.102 -1.412 l 0 6.199 -1.549 0 0 -8.662 z m 11.252 1.963 c 0.458 0 0.88 0.083 1.264 0.25 0.392 0.158 0.725 0.387 1 0.688 0.275 0.3 0.487 0.661 0.637 1.086 0.158 0.417 0.238 0.884 0.238 1.4 0 0.517 -0.077 0.987 -0.227 1.412 -0.15 0.425 -0.362 0.788 -0.637 1.088 -0.275 0.3 -0.608 0.535 -1 0.701 -0.383 0.167 -0.809 0.25 -1.275 0.25 -0.467 0 -0.892 -0.083 -1.275 -0.25 -0.383 -0.167 -0.711 -0.401 -0.986 -0.701 -0.275 -0.3 -0.492 -0.663 -0.65 -1.088 -0.15 -0.425 -0.225 -0.895 -0.225 -1.412 0 -0.517 0.075 -0.984 0.225 -1.4 0.158 -0.425 0.375 -0.786 0.65 -1.086 0.283 -0.3 0.617 -0.529 1 -0.688 0.383 -0.167 0.803 -0.25 1.262 -0.25 z m 0 1.313 c -0.5 0 -0.89 0.191 -1.174 0.574 -0.275 0.375 -0.414 0.887 -0.414 1.537 0 0.658 0.139 1.179 0.414 1.563 0.283 0.383 0.674 0.576 1.174 0.576 0.5 0 0.887 -0.193 1.162 -0.576 0.283 -0.383 0.426 -0.904 0.426 -1.563 0 -0.65 -0.142 -1.162 -0.426 -1.537 c -0.275 -0.383 -0.662 -0.574 -1.162 -0.574 z m 4.971 3.555 0.531 0 0 4.332 -0.756 0 0 -3.318 c -0.113 0.088 -0.255 0.173 -0.426 0.256 -0.171 0.083 -0.334 0.153 -0.492 0.207 l -0.232 -0.576 c 0.242 -0.096 0.483 -0.219 0.725 -0.369 0.246 -0.15 0.463 -0.327 0.65 -0.531 z" style="fill:#ececec;fill-opacity:1"/>
</svg>
