<svg xmlns="http://www.w3.org/2000/svg" viewBox="0 0 24 24">
 <path d="m 4 2 c -1.108 0 -2 0.892 -2 2 l 0 16 c 0 1.108 0.892 2 2 2 l 16 0 c 1.108 0 2 -0.892 2 -2 l 0 -16 c 0 -1.108 -0.892 -2 -2 -2 l -16 0 z m 12.07 5.113 c 0.25 0 0.467 0.083 0.65 0.25 0.183 0.167 0.275 0.396 0.275 0.687 0 0.283 -0.092 0.507 -0.275 0.674 -0.183 0.167 -0.4 0.25 -0.65 0.25 -0.258 0 -0.479 -0.083 -0.662 -0.25 -0.183 -0.167 -0.275 -0.39 -0.275 -0.674 0 -0.292 0.092 -0.521 0.275 -0.688 0.183 -0.167 0.404 -0.25 0.662 -0.25 z m -8.816 0.725 1.574 0 0 3.574 c 0.275 -0.275 0.563 -0.567 0.863 -0.875 0.3 -0.317 0.595 -0.633 0.887 -0.949 0.3 -0.325 0.583 -0.637 0.85 -0.938 0.267 -0.3 0.51 -0.571 0.727 -0.813 l 1.887 0 c -0.275 0.317 -0.567 0.645 -0.875 0.986 -0.308 0.342 -0.624 0.689 -0.949 1.039 -0.325 0.342 -0.655 0.682 -0.988 1.023 -0.325 0.342 -0.646 0.668 -0.963 0.977 0.35 0.267 0.704 0.579 1.063 0.938 0.367 0.35 0.726 0.728 1.076 1.137 0.35 0.4 0.683 0.82 1 1.262 0.325 0.433 0.62 0.867 0.887 1.301 l -1.863 0 c -0.217 -0.333 -0.467 -0.684 -0.75 -1.051 -0.283 -0.367 -0.582 -0.721 -0.898 -1.063 c -0.308 -0.342 -0.63 -0.666 -0.963 -0.975 -0.333 -0.308 -0.663 -0.574 -0.988 -0.799 l 0 3.887 -1.574 0 0 -8.662 z m 8.07 2.125 1.514 0 0 6.537 -1.514 0 0 -6.537 z" style="fill:#ececec;fill-opacity:1"/>
</svg>
