<svg viewBox="0 0 24 24" xmlns="http://www.w3.org/2000/svg">
 <path style="fill:#ececec;fill-opacity:1" d="m 4 2 c -1.108 0 -2 0.892 -2 2 l 0 16 c 0 1.108 0.892 2 2 2 l 16 0 c 1.108 0 2 -0.892 2 -2 l 0 -16 c 0 -1.108 -0.892 -2 -2 -2 l -16 0 z m 3.205 5.5 c 1.258 0 2.22 0.229 2.887 0.688 0.675 0.458 1.014 1.175 1.014 2.15 0 0.508 -0.092 0.946 -0.275 1.313 -0.175 0.358 -0.434 0.653 -0.775 0.887 -0.342 0.225 -0.758 0.392 -1.25 0.5 -0.492 0.108 -1.054 0.162 -1.688 0.162 l -0.787 0 0 3.051 -1.574 0 0 -8.537 c 0.367 -0.083 0.769 -0.137 1.211 -0.162 0.45 -0.033 0.863 -0.051 1.238 -0.051 z m 6.701 0.238 0 1.975 2.324 0 0 1.262 -2.324 0 0 2.662 c 0 0.525 0.083 0.9 0.25 1.125 0.167 0.225 0.45 0.338 0.85 0.338 0.275 0 0.516 -0.03 0.725 -0.088 0.217 -0.058 0.387 -0.112 0.512 -0.162 l 0.25 1.201 c -0.175 0.075 -0.404 0.15 -0.688 0.225 -0.283 0.083 -0.617 0.125 -1 0.125 -0.467 0 -0.857 -0.063 -1.174 -0.188 -0.308 -0.125 -0.555 -0.304 -0.738 -0.537 -0.183 -0.242 -0.312 -0.53 -0.387 -0.863 -0.075 -0.342 -0.113 -0.729 -0.113 -1.162 l 0 -5.662 1.514 -0.25 z m -6.588 1.125 c -0.4 0 -0.73 0.012 -0.988 0.037 l 0 2.949 0.762 0 c 0.758 0 1.342 -0.104 1.75 -0.313 0.408 -0.217 0.613 -0.621 0.613 -1.213 0 -0.283 -0.054 -0.519 -0.162 -0.711 c -0.108 -0.192 -0.26 -0.343 -0.451 -0.451 -0.192 -0.108 -0.421 -0.183 -0.688 -0.225 -0.258 -0.05 -0.536 -0.074 -0.836 -0.074 z m 11.07 5.455 c 0.462 0 0.801 0.111 1.018 0.332 0.221 0.217 0.332 0.513 0.332 0.893 0 0.15 -0.031 0.299 -0.094 0.445 -0.063 0.142 -0.144 0.28 -0.244 0.418 -0.096 0.133 -0.205 0.265 -0.33 0.395 -0.125 0.125 -0.25 0.246 -0.375 0.367 -0.067 0.063 -0.143 0.139 -0.227 0.227 -0.083 0.087 -0.161 0.174 -0.236 0.262 -0.075 0.087 -0.139 0.173 -0.193 0.256 -0.054 0.079 -0.084 0.147 -0.088 0.201 l 1.924 0 0 0.637 -2.756 0 c -0.004 -0.033 -0.006 -0.073 -0.006 -0.119 l 0 -0.111 c 0 -0.2 0.031 -0.384 0.094 -0.551 0.067 -0.171 0.152 -0.329 0.256 -0.475 0.104 -0.146 0.22 -0.283 0.35 -0.412 0.129 -0.129 0.26 -0.258 0.389 -0.383 0.1 -0.096 0.195 -0.19 0.287 -0.281 0.092 -0.092 0.172 -0.18 0.238 -0.268 0.071 -0.092 0.126 -0.184 0.168 -0.275 0.042 -0.096 0.063 -0.193 0.063 -0.293 0 -0.217 -0.063 -0.371 -0.188 -0.463 -0.125 -0.092 -0.278 -0.139 -0.457 -0.139 -0.117 0 -0.224 0.017 -0.324 0.051 -0.1 0.033 -0.19 0.073 -0.27 0.119 -0.075 0.046 -0.141 0.093 -0.199 0.143 -0.058 0.046 -0.102 0.084 -0.131 0.113 l -0.375 -0.531 c 0.175 -0.167 0.378 -0.3 0.611 -0.4 0.238 -0.104 0.493 -0.156 0.764 -0.156 z"/>
</svg>
