<svg xmlns="http://www.w3.org/2000/svg" viewBox="0 0 24 24">
 <path style="fill:#ececec;fill-opacity:1" d="m 4 2 c -1.108 0 -2 0.892 -2 2 l 0 16 c 0 1.108 0.892 2 2 2 l 16 0 c 1.108 0 2 -0.892 2 -2 l 0 -16 c 0 -1.108 -0.892 -2 -2 -2 l -16 0 z m 10.928 4.551 0 5.711 c 0.192 -0.2 0.397 -0.412 0.613 -0.637 0.217 -0.233 0.428 -0.463 0.637 -0.688 0.208 -0.233 0.405 -0.454 0.588 -0.662 0.192 -0.217 0.355 -0.404 0.488 -0.563 l 1.787 0 c -0.417 0.467 -0.86 0.949 -1.326 1.449 -0.458 0.5 -0.92 0.988 -1.387 1.463 0.25 0.208 0.512 0.462 0.787 0.762 0.275 0.292 0.542 0.604 0.801 0.938 0.258 0.333 0.5 0.667 0.725 1 0.225 0.333 0.413 0.642 0.563 0.926 l -1.75 0 c -0.15 -0.258 -0.325 -0.529 -0.525 -0.813 -0.192 -0.283 -0.4 -0.558 -0.625 -0.824 -0.225 -0.267 -0.454 -0.517 -0.688 -0.75 -0.233 -0.242 -0.463 -0.447 -0.688 -0.613 l 0 3 -1.512 0 0 -9.449 1.512 -0.25 z m -11.371 1.037 1.461 0 c 0.183 0.317 0.388 0.704 0.613 1.162 c 0.225 0.458 0.454 0.941 0.688 1.449 0.233 0.5 0.463 1.014 0.688 1.539 0.233 0.517 0.445 0.996 0.637 1.438 0.192 -0.442 0.4 -0.921 0.625 -1.438 0.225 -0.525 0.454 -1.039 0.688 -1.539 0.233 -0.508 0.463 -0.991 0.688 -1.449 0.225 -0.458 0.43 -0.845 0.613 -1.162 l 1.426 0 c 0.075 0.633 0.144 1.309 0.211 2.025 0.067 0.708 0.126 1.438 0.176 2.188 0.058 0.742 0.109 1.492 0.15 2.25 0.05 0.75 0.092 1.483 0.125 2.199 l -1.551 0 c -0.033 -1.01 -0.075 -2.047 -0.125 -3.113 -0.042 -1.067 -0.108 -2.1 -0.199 -3.1 -0.092 0.192 -0.201 0.421 -0.326 0.688 -0.125 0.267 -0.257 0.558 -0.398 0.875 -0.142 0.308 -0.287 0.63 -0.438 0.963 -0.142 0.333 -0.284 0.658 -0.426 0.975 -0.133 0.308 -0.258 0.6 -0.375 0.875 -0.117 0.267 -0.217 0.496 -0.301 0.688 l -1.174 0 c -0.083 -0.192 -0.184 -0.424 -0.301 -0.699 -0.117 -0.275 -0.245 -0.567 -0.387 -0.875 -0.133 -0.317 -0.276 -0.641 -0.426 -0.975 -0.142 -0.333 -0.282 -0.655 -0.424 -0.963 -0.142 -0.308 -0.275 -0.597 -0.4 -0.863 c -0.125 -0.275 -0.235 -0.504 -0.326 -0.688 -0.092 1 -0.161 2.033 -0.211 3.1 c -0.042 1.067 -0.08 2.105 -0.113 3.113 l -1.551 0 c 0.033 -0.717 0.072 -1.458 0.113 -2.225 0.05 -0.767 0.1 -1.525 0.15 -2.275 0.058 -0.758 0.121 -1.491 0.188 -2.199 0.067 -0.708 0.138 -1.363 0.213 -1.963 z m 17.02 6.83 0.531 0 0 4.332 -0.758 0 0 -3.318 c -0.113 0.088 -0.253 0.173 -0.424 0.256 -0.171 0.083 -0.336 0.153 -0.494 0.207 l -0.23 -0.576 c 0.242 -0.096 0.483 -0.219 0.725 -0.369 0.246 -0.15 0.463 -0.327 0.65 -0.531 z"/>
</svg>
