<svg xmlns="http://www.w3.org/2000/svg" viewBox="0 0 24 24">
 <g transform="translate(0,-1028.8622)">
  <path d="m 10 1045.86 -2 2 c -1 1 -1 1 0 1 l 8 0 c 1 0 1 0 0 -1 l -2 -2 0 -1 -4 0 z" style="fill:#ececec;fill-opacity:1;stroke:none"/>
  <path d="m 6 1032.86 c -1.108 0 -2 0.892 -2 2 l 0 9 c 0 1.108 0.892 2 2 2 l 12 0 c 1.108 0 2 -0.892 2 -2 l 0 -9 c 0 -1.108 -0.892 -2 -2 -2 l -12 0 z m 0 2 12 0 0 9 -12 0 0 -9 z" style="fill:#ececec;fill-opacity:1;stroke:none"/>
  <g transform="translate(-0.0598144,0)" style="fill:#ececec;fill-opacity:1;stroke:none">
   <path d="m 10.367 1039.11 q 0.645 0.167 0.978 0.581 0.338 0.41 0.338 1.047 0 0.948 -0.726 1.444 -0.726 0.491 -2.119 0.491 -0.491 0 -0.987 -0.081 -0.491 -0.077 -0.974 -0.235 l 0 -1.269 q 0.461 0.231 0.914 0.35 0.457 0.115 0.897 0.115 0.654 0 1 -0.226 0.35 -0.226 0.35 -0.649 0 -0.436 -0.359 -0.658 -0.355 -0.226 -1.051 -0.226 l -0.658 0 0 -1.06 0.692 0 q 0.62 0 0.923 -0.192 0.303 -0.197 0.303 -0.594 0 -0.367 -0.295 -0.568 -0.295 -0.201 -0.833 -0.201 -0.397 0 -0.803 0.09 -0.406 0.09 -0.807 0.265 l 0 -1.205 q 0.487 -0.137 0.966 -0.205 0.479 -0.068 0.94 -0.068 1.243 0 1.859 0.41 0.62 0.406 0.62 1.226 0 0.56 -0.295 0.919 -0.295 0.355 -0.872 0.5 z"/>
   <path d="m 14.791 1039.4 q -0.432 0 -0.649 0.282 -0.214 0.278 -0.214 0.837 0 0.56 0.214 0.842 0.218 0.278 0.649 0.278 0.436 0 0.649 -0.278 0.218 -0.282 0.218 -0.842 0 -0.56 -0.218 -0.837 -0.214 -0.282 -0.649 -0.282 z m 2.034 -3.063 0 1.179 q -0.406 -0.192 -0.765 -0.282 -0.359 -0.094 -0.701 -0.094 -0.735 0 -1.145 0.41 -0.41 0.406 -0.479 1.209 0.282 -0.209 0.611 -0.312 0.329 -0.107 0.718 -0.107 0.978 0 1.577 0.572 0.602 0.572 0.602 1.5 0 1.025 -0.671 1.645 -0.671 0.615 -1.799 0.615 -1.243 0 -1.927 -0.837 -0.679 -0.842 -0.679 -2.384 0 -1.581 0.795 -2.482 0.799 -0.906 2.188 -0.906 0.44 0 0.854 0.068 0.414 0.068 0.82 0.205 z"/>
  </g>
 </g>
</svg>
