<svg xmlns="http://www.w3.org/2000/svg" viewBox="0 0 24 24">
 <path d="m 4 2 c -1.108 0 -2 0.892 -2 2 l 0 16 c 0 1.108 0.892 2 2 2 l 16 0 c 1.108 0 2 -0.892 2 -2 l 0 -16 c 0 -1.108 -0.892 -2 -2 -2 l -16 0 z m 2.818 5.588 1.574 0 0 8.662 -1.574 0 0 -8.662 z m 5.02 0.15 0 1.975 2.326 0 0 1.262 -2.326 0 0 2.662 c 0 0.525 0.083 0.9 0.25 1.125 0.167 0.225 0.452 0.338 0.852 0.338 0.275 0 0.516 -0.03 0.725 -0.088 0.217 -0.058 0.387 -0.112 0.512 -0.162 l 0.25 1.201 c -0.175 0.075 -0.404 0.15 -0.688 0.225 -0.283 0.083 -0.617 0.125 -1 0.125 -0.467 0 -0.857 -0.063 -1.174 -0.188 -0.308 -0.125 -0.555 -0.304 -0.738 -0.537 -0.183 -0.242 -0.312 -0.53 -0.387 -0.863 -0.075 -0.342 -0.113 -0.729 -0.113 -1.162 l 0 -5.662 1.512 -0.25 z m 3.619 6.68 2.213 0 0 0.639 -1.568 0 c -0.004 0.071 -0.011 0.152 -0.02 0.244 -0.004 0.088 -0.011 0.176 -0.02 0.268 -0.004 0.092 -0.009 0.18 -0.018 0.264 -0.008 0.083 -0.017 0.153 -0.025 0.211 0.617 0.033 1.072 0.176 1.363 0.426 0.296 0.246 0.443 0.583 0.443 1.012 0 0.196 -0.033 0.378 -0.1 0.545 -0.067 0.167 -0.169 0.311 -0.307 0.432 -0.137 0.121 -0.311 0.216 -0.52 0.287 -0.208 0.067 -0.451 0.1 -0.73 0.1 -0.113 0 -0.227 -0.009 -0.344 -0.025 -0.117 -0.017 -0.23 -0.038 -0.338 -0.063 -0.104 -0.021 -0.198 -0.043 -0.281 -0.068 -0.083 -0.025 -0.146 -0.048 -0.188 -0.068 l 0.145 -0.639 c 0.088 0.042 0.213 0.089 0.375 0.139 0.167 0.046 0.368 0.068 0.605 0.068 0.163 0 0.301 -0.017 0.418 -0.051 0.117 -0.038 0.21 -0.086 0.281 -0.148 0.075 -0.063 0.131 -0.134 0.164 -0.213 0.033 -0.083 0.049 -0.172 0.049 -0.264 0 -0.137 -0.026 -0.259 -0.08 -0.367 -0.054 -0.108 -0.152 -0.2 -0.289 -0.275 -0.133 -0.075 -0.314 -0.132 -0.543 -0.17 -0.225 -0.038 -0.51 -0.055 -0.855 -0.055 0.046 -0.4 0.08 -0.78 0.105 -1.139 0.025 -0.363 0.046 -0.725 0.063 -1.088 z" style="fill:#ececec;fill-opacity:1"/>
</svg>
