<svg viewBox="0 0 24 24" xmlns="http://www.w3.org/2000/svg">
 <path d="m 4 2 c -1.108 0 -2 0.892 -2 2 l 0 16 c 0 1.108 0.892 2 2 2 l 16 0 c 1.108 0 2 -0.892 2 -2 l 0 -16 c 0 -1.108 -0.892 -2 -2 -2 l -16 0 z m 2.961 5.588 1.488 0 c 0.292 0.617 0.575 1.242 0.85 1.875 0.275 0.633 0.551 1.3 0.826 2 0.283 0.7 0.57 1.441 0.861 2.225 0.3 0.783 0.613 1.637 0.938 2.563 l -1.699 0 c -0.117 -0.342 -0.238 -0.678 -0.363 -1.012 -0.125 -0.333 -0.245 -0.675 -0.361 -1.025 l -3.65 0 c -0.117 0.35 -0.238 0.695 -0.363 1.037 l -0.35 1 l -1.637 0 c 0.325 -0.925 0.632 -1.779 0.924 -2.563 0.292 -0.783 0.575 -1.525 0.85 -2.225 0.283 -0.7 0.563 -1.367 0.838 -2 0.275 -0.633 0.558 -1.258 0.85 -1.875 z m 0.713 1.674 c -0.192 0.442 -0.412 0.98 -0.662 1.613 -0.242 0.633 -0.495 1.321 -0.762 2.063 l 2.85 0 c -0.267 -0.742 -0.525 -1.433 -0.775 -2.074 -0.25 -0.642 -0.467 -1.177 -0.65 -1.602 z m 7.82 0.313 c 0.1 0 0.216 0.009 0.35 0.025 0.133 0.008 0.267 0.026 0.4 0.051 0.133 0.017 0.262 0.041 0.387 0.074 0.125 0.025 0.226 0.051 0.301 0.076 l -0.262 1.273 c -0.125 -0.042 -0.3 -0.083 -0.525 -0.125 -0.217 -0.05 -0.472 -0.074 -0.764 -0.074 -0.167 0 -0.345 0.017 -0.537 0.051 -0.183 0.033 -0.312 0.061 -0.387 0.086 l 0 5.238 -1.514 0 0 -6.225 c 0.292 -0.108 0.655 -0.209 1.088 -0.301 0.442 -0.1 0.93 -0.15 1.463 -0.15 z m 4.467 4.82 0.043 0.625 c -0.225 0.004 -0.435 0.028 -0.631 0.074 -0.196 0.042 -0.371 0.108 -0.525 0.199 -0.154 0.092 -0.286 0.212 -0.398 0.357 -0.108 0.146 -0.192 0.325 -0.25 0.537 0.204 -0.096 0.426 -0.145 0.668 -0.145 0.258 0 0.477 0.038 0.656 0.113 0.183 0.071 0.331 0.168 0.443 0.293 0.113 0.125 0.194 0.271 0.244 0.438 0.054 0.163 0.082 0.335 0.082 0.514 0 0.163 -0.03 0.329 -0.088 0.5 -0.054 0.171 -0.143 0.327 -0.264 0.469 -0.117 0.137 -0.264 0.252 -0.443 0.344 -0.179 0.087 -0.391 0.131 -0.637 0.131 -0.496 0 -0.876 -0.163 -1.139 -0.488 c -0.258 -0.329 -0.387 -0.78 -0.387 -1.355 c 0 -0.417 0.061 -0.785 0.182 -1.105 0.125 -0.325 0.3 -0.599 0.525 -0.82 0.229 -0.221 0.503 -0.387 0.824 -0.5 0.325 -0.117 0.69 -0.176 1.094 -0.18 z m -1.188 2.25 c -0.121 0 -0.237 0.01 -0.35 0.031 -0.113 0.021 -0.215 0.052 -0.307 0.094 -0.004 0.033 -0.008 0.07 -0.012 0.111 l 0 0.113 c 0 0.167 0.01 0.325 0.031 0.475 0.025 0.146 0.063 0.274 0.117 0.387 0.058 0.108 0.137 0.197 0.232 0.264 0.1 0.063 0.223 0.094 0.369 0.094 0.121 0 0.221 -0.026 0.305 -0.076 0.087 -0.05 0.159 -0.114 0.213 -0.193 0.054 -0.079 0.094 -0.164 0.119 -0.256 0.025 -0.096 0.037 -0.188 0.037 -0.275 0 -0.25 -0.061 -0.439 -0.182 -0.568 -0.121 -0.133 -0.312 -0.199 -0.574 -0.199 z" style="fill:#ececec;fill-opacity:1"/>
</svg>
