<svg xmlns="http://www.w3.org/2000/svg" viewBox="0 0 24 24">
 <path d="m 4 2 c -1.108 0 -2 0.892 -2 2 l 0 16 c 0 1.108 0.892 2 2 2 l 16 0 c 1.108 0 2 -0.892 2 -2 l 0 -16 c 0 -1.108 -0.892 -2 -2 -2 l -16 0 z m -0.063 5.588 5.563 0 0 1.338 -3.988 0 0 2.137 3.551 0 0 1.313 -3.551 0 0 2.537 4.287 0 0 1.338 -5.861 0 0 -8.662 z m 9.936 1.986 c 0.533 0 0.98 0.077 1.338 0.227 0.358 0.142 0.641 0.345 0.85 0.611 0.217 0.258 0.368 0.576 0.451 0.951 0.092 0.367 0.137 0.769 0.137 1.211 l 0 3.676 -1.512 0 0 -3.438 c 0 -0.35 -0.026 -0.645 -0.076 -0.887 -0.042 -0.25 -0.116 -0.452 -0.225 -0.602 -0.1 -0.158 -0.24 -0.269 -0.424 -0.336 -0.175 -0.075 -0.392 -0.113 -0.65 -0.113 -0.192 0 -0.391 0.012 -0.6 0.037 -0.208 0.025 -0.363 0.046 -0.463 0.063 l 0 5.275 -1.514 0 0 -6.324 c 0.292 -0.083 0.672 -0.163 1.139 -0.238 0.467 -0.075 0.982 -0.113 1.549 -0.113 z m 5.363 4.744 c 0.508 0 0.89 0.165 1.148 0.494 0.262 0.325 0.395 0.785 0.395 1.381 0 0.842 -0.217 1.479 -0.65 1.912 -0.433 0.433 -1.098 0.652 -1.994 0.656 l -0.031 -0.631 c 0.25 0 0.476 -0.021 0.676 -0.063 0.204 -0.042 0.381 -0.108 0.531 -0.199 0.154 -0.092 0.283 -0.212 0.387 -0.357 0.104 -0.15 0.184 -0.332 0.238 -0.549 -0.1 0.046 -0.211 0.08 -0.332 0.105 -0.121 0.025 -0.237 0.037 -0.35 0.037 -0.258 0 -0.479 -0.033 -0.662 -0.1 -0.179 -0.071 -0.327 -0.166 -0.443 -0.287 -0.113 -0.125 -0.196 -0.269 -0.25 -0.432 -0.054 -0.163 -0.082 -0.338 -0.082 -0.525 0 -0.162 0.028 -0.326 0.082 -0.492 0.054 -0.171 0.139 -0.327 0.256 -0.469 0.117 -0.142 0.264 -0.256 0.443 -0.344 0.179 -0.092 0.393 -0.139 0.639 -0.139 z m 0.018 0.625 c -0.121 0 -0.225 0.026 -0.313 0.076 -0.083 0.05 -0.151 0.114 -0.205 0.193 -0.054 0.079 -0.094 0.164 -0.119 0.256 -0.025 0.092 -0.037 0.182 -0.037 0.27 0 0.254 0.059 0.445 0.18 0.574 0.125 0.129 0.32 0.193 0.582 0.193 0.121 0 0.239 -0.01 0.355 -0.031 0.117 -0.025 0.217 -0.06 0.301 -0.105 0.004 -0.046 0.006 -0.086 0.006 -0.119 l 0 -0.088 c 0 -0.167 -0.012 -0.323 -0.037 -0.469 -0.021 -0.15 -0.061 -0.278 -0.119 -0.387 -0.054 -0.113 -0.13 -0.201 -0.23 -0.264 -0.096 -0.067 -0.217 -0.1 -0.363 -0.1 z" style="fill:#ececec;fill-opacity:1"/>
</svg>
