<svg xmlns="http://www.w3.org/2000/svg" viewBox="0 0 24 24">
 <path style="fill:#ececec;fill-opacity:1" d="m 4 2 c -1.108 0 -2 0.892 -2 2 l 0 16 c 0 1.108 0.892 2 2 2 l 16 0 c 1.108 0 2 -0.892 2 -2 l 0 -16 c 0 -1.108 -0.892 -2 -2 -2 l -16 0 z m 10.73 4.801 0 3.236 c 0.167 -0.058 0.36 -0.109 0.576 -0.15 0.225 -0.042 0.445 -0.063 0.662 -0.063 0.525 0 0.959 0.077 1.301 0.227 0.35 0.142 0.628 0.345 0.836 0.611 0.208 0.258 0.354 0.571 0.438 0.938 0.092 0.367 0.139 0.775 0.139 1.225 l 0 3.676 -1.514 0 0 -3.438 c 0 -0.35 -0.024 -0.645 -0.074 -0.887 -0.042 -0.25 -0.116 -0.452 -0.225 -0.602 -0.1 -0.158 -0.237 -0.269 -0.412 -0.336 -0.175 -0.075 -0.392 -0.113 -0.65 -0.113 -0.2 0 -0.405 0.021 -0.613 0.063 -0.208 0.042 -0.363 0.08 -0.463 0.113 l 0 5.199 -1.512 0 0 -9.449 1.512 -0.25 z m -6.775 0.949 c 1.258 0 2.222 0.229 2.889 0.688 0.675 0.458 1.012 1.175 1.012 2.15 0 0.508 -0.092 0.946 -0.275 1.313 -0.175 0.358 -0.432 0.653 -0.773 0.887 -0.342 0.225 -0.758 0.392 -1.25 0.5 -0.492 0.108 -1.054 0.162 -1.688 0.162 l -0.789 0 0 3.051 -1.574 0 0 -8.537 c 0.367 -0.083 0.771 -0.137 1.213 -0.162 0.45 -0.033 0.861 -0.051 1.236 -0.051 z m 0.113 1.363 c -0.4 0 -0.73 0.012 -0.988 0.037 l 0 2.949 0.764 0 c 0.758 0 1.342 -0.104 1.75 -0.313 0.408 -0.217 0.611 -0.621 0.611 -1.213 0 -0.283 -0.054 -0.519 -0.162 -0.711 c -0.108 -0.192 -0.258 -0.343 -0.449 -0.451 -0.192 -0.108 -0.421 -0.183 -0.688 -0.225 -0.258 -0.05 -0.538 -0.074 -0.838 -0.074 z"/>
</svg>
