<svg viewBox="0 0 24 24" xmlns="http://www.w3.org/2000/svg">
 <path d="m 4 2 c -1.108 0 -2 0.892 -2 2 l 0 16 c 0 1.108 0.892 2 2 2 l 16 0 c 1.108 0 2 -0.892 2 -2 l 0 -16 c 0 -1.108 -0.892 -2 -2 -2 l -16 0 z m 0.914 5.588 1.574 0 0 7.299 3.9 0 0 1.363 -5.475 0 0 -8.662 z m 5.252 2.125 1.613 0 c 0.092 0.367 0.196 0.763 0.313 1.188 0.125 0.417 0.253 0.837 0.387 1.262 0.142 0.417 0.284 0.825 0.426 1.225 0.15 0.392 0.287 0.746 0.412 1.063 0.125 -0.317 0.259 -0.671 0.4 -1.063 0.142 -0.4 0.279 -0.808 0.412 -1.225 0.142 -0.425 0.275 -0.845 0.4 -1.262 0.125 -0.425 0.233 -0.821 0.324 -1.188 l 1.563 0 c -0.358 1.275 -0.758 2.471 -1.199 3.588 -0.433 1.108 -0.859 2.091 -1.275 2.949 l -1.299 0 c -0.417 -0.858 -0.847 -1.841 -1.289 -2.949 -0.433 -1.117 -0.829 -2.313 -1.188 -3.588 z m 9.355 4.682 0.043 0.625 c -0.225 0.004 -0.435 0.028 -0.631 0.074 -0.196 0.042 -0.371 0.108 -0.525 0.199 -0.154 0.092 -0.286 0.212 -0.398 0.357 -0.108 0.146 -0.192 0.325 -0.25 0.537 0.204 -0.096 0.426 -0.145 0.668 -0.145 0.258 0 0.477 0.038 0.656 0.113 0.183 0.071 0.331 0.168 0.443 0.293 0.113 0.125 0.194 0.271 0.244 0.438 0.054 0.163 0.082 0.335 0.082 0.514 0 0.163 -0.03 0.329 -0.088 0.5 -0.054 0.171 -0.143 0.327 -0.264 0.469 -0.117 0.137 -0.264 0.252 -0.443 0.344 -0.179 0.087 -0.391 0.131 -0.637 0.131 -0.496 0 -0.876 -0.163 -1.139 -0.488 c -0.258 -0.329 -0.387 -0.78 -0.387 -1.355 c 0 -0.417 0.061 -0.785 0.182 -1.105 0.125 -0.325 0.3 -0.599 0.525 -0.82 0.229 -0.221 0.503 -0.387 0.824 -0.5 0.325 -0.117 0.69 -0.176 1.094 -0.18 z m -1.188 2.25 c -0.121 0 -0.237 0.01 -0.35 0.031 -0.113 0.021 -0.215 0.052 -0.307 0.094 -0.004 0.033 -0.008 0.07 -0.012 0.111 l 0 0.113 c 0 0.167 0.01 0.325 0.031 0.475 0.025 0.146 0.063 0.274 0.117 0.387 0.058 0.108 0.137 0.197 0.232 0.264 0.1 0.063 0.223 0.094 0.369 0.094 0.121 0 0.221 -0.026 0.305 -0.076 0.087 -0.05 0.159 -0.114 0.213 -0.193 0.054 -0.079 0.094 -0.164 0.119 -0.256 0.025 -0.096 0.037 -0.188 0.037 -0.275 0 -0.25 -0.061 -0.439 -0.182 -0.568 -0.121 -0.133 -0.312 -0.199 -0.574 -0.199 z" style="fill:#ececec;fill-opacity:1"/>
</svg>
