<svg xmlns="http://www.w3.org/2000/svg" viewBox="0 0 24 24">
 <path style="fill:#ececec;fill-opacity:1" d="m 4 2 c -1.108 0 -2 0.892 -2 2 l 0 16 c 0 1.108 0.892 2 2 2 l 16 0 c 1.108 0 2 -0.892 2 -2 l 0 -16 c 0 -1.108 -0.892 -2 -2 -2 l -16 0 z m 3.205 5.5 c 1.258 0 2.22 0.229 2.887 0.688 0.675 0.458 1.014 1.175 1.014 2.15 0 0.508 -0.092 0.946 -0.275 1.313 -0.175 0.358 -0.434 0.653 -0.775 0.887 -0.342 0.225 -0.758 0.392 -1.25 0.5 -0.492 0.108 -1.054 0.162 -1.688 0.162 l -0.787 0 0 3.051 -1.574 0 0 -8.537 c 0.367 -0.083 0.769 -0.137 1.211 -0.162 0.45 -0.033 0.863 -0.051 1.238 -0.051 z m 6.701 0.238 0 1.975 2.324 0 0 1.262 -2.324 0 0 2.662 c 0 0.525 0.083 0.9 0.25 1.125 0.167 0.225 0.45 0.338 0.85 0.338 0.275 0 0.516 -0.03 0.725 -0.088 0.217 -0.058 0.387 -0.112 0.512 -0.162 l 0.25 1.201 c -0.175 0.075 -0.404 0.15 -0.688 0.225 -0.283 0.083 -0.617 0.125 -1 0.125 -0.467 0 -0.857 -0.063 -1.174 -0.188 -0.308 -0.125 -0.555 -0.304 -0.738 -0.537 -0.183 -0.242 -0.312 -0.53 -0.387 -0.863 -0.075 -0.342 -0.113 -0.729 -0.113 -1.162 l 0 -5.662 1.514 -0.25 z m -6.588 1.125 c -0.4 0 -0.73 0.012 -0.988 0.037 l 0 2.949 0.762 0 c 0.758 0 1.342 -0.104 1.75 -0.313 0.408 -0.217 0.613 -0.621 0.613 -1.213 0 -0.283 -0.054 -0.519 -0.162 -0.711 c -0.108 -0.192 -0.26 -0.343 -0.451 -0.451 -0.192 -0.108 -0.421 -0.183 -0.688 -0.225 -0.258 -0.05 -0.536 -0.074 -0.836 -0.074 z m 11.537 5.555 0.719 0 0 2.676 0.486 0 0 0.619 -0.486 0 0 1.037 -0.738 0 0 -1.037 -1.9 0 0 -0.537 c 0.083 -0.183 0.195 -0.395 0.332 -0.633 0.142 -0.238 0.298 -0.48 0.469 -0.73 0.171 -0.25 0.351 -0.497 0.543 -0.738 0.192 -0.242 0.385 -0.46 0.576 -0.656 z m -0.02 0.932 c -0.1 0.121 -0.204 0.251 -0.313 0.389 -0.104 0.137 -0.207 0.28 -0.307 0.43 -0.1 0.15 -0.195 0.305 -0.287 0.463 -0.092 0.154 -0.175 0.309 -0.25 0.463 l 1.156 0 0 -1.744 z"/>
</svg>
