<svg xmlns="http://www.w3.org/2000/svg" viewBox="0 0 24 24">
 <path d="m 4 2 c -1.108 0 -2 0.892 -2 2 l 0 16 c 0 1.108 0.892 2 2 2 l 16 0 c 1.108 0 2 -0.892 2 -2 l 0 -16 c 0 -1.108 -0.892 -2 -2 -2 l -16 0 z m 4.482 5.637 c 0.542 0 1.021 0.063 1.438 0.188 0.425 0.117 0.758 0.247 1 0.389 l -0.486 1.275 c -0.283 -0.158 -0.596 -0.28 -0.938 -0.363 -0.333 -0.083 -0.681 -0.125 -1.039 -0.125 c -0.425 0 -0.758 0.087 -1 0.262 c -0.233 0.175 -0.35 0.422 -0.35 0.738 c 0 0.192 0.038 0.358 0.113 0.5 0.083 0.133 0.196 0.255 0.338 0.363 0.15 0.108 0.32 0.207 0.512 0.299 0.2 0.092 0.417 0.18 0.65 0.264 0.408 0.15 0.771 0.303 1.088 0.461 0.325 0.15 0.596 0.334 0.813 0.551 0.225 0.208 0.395 0.458 0.512 0.75 0.117 0.283 0.176 0.629 0.176 1.037 0 0.783 -0.28 1.393 -0.838 1.826 -0.55 0.425 -1.359 0.637 -2.426 0.637 -0.358 0 -0.686 -0.024 -0.986 -0.074 c -0.292 -0.042 -0.556 -0.097 -0.789 -0.164 -0.225 -0.067 -0.419 -0.133 -0.586 -0.199 -0.167 -0.075 -0.3 -0.141 -0.4 -0.199 l 0.463 -1.289 c 0.225 0.125 0.529 0.25 0.912 0.375 0.383 0.125 0.845 0.188 1.387 0.188 0.567 0 0.98 -0.095 1.238 -0.287 0.258 -0.192 0.387 -0.463 0.387 -0.813 0 -0.208 -0.045 -0.387 -0.137 -0.537 -0.083 -0.15 -0.208 -0.284 -0.375 -0.4 -0.158 -0.125 -0.355 -0.238 -0.588 -0.338 -0.233 -0.108 -0.501 -0.213 -0.801 -0.313 -0.3 -0.108 -0.592 -0.225 -0.875 -0.35 -0.275 -0.133 -0.52 -0.295 -0.736 -0.486 -0.208 -0.192 -0.38 -0.421 -0.514 -0.688 -0.125 -0.267 -0.188 -0.588 -0.188 -0.963 0 -0.783 0.271 -1.396 0.813 -1.838 0.542 -0.45 1.28 -0.676 2.213 -0.676 z m 7.088 2.188 c 0.517 0 1 0.038 1.451 0.113 0.45 0.075 0.82 0.155 1.111 0.238 l 0 8.637 -1.512 0 0 -2.537 c -0.175 0.092 -0.392 0.175 -0.65 0.25 -0.25 0.075 -0.53 0.111 -0.838 0.111 -0.467 0 -0.878 -0.078 -1.236 -0.236 -0.358 -0.167 -0.659 -0.401 -0.9 -0.701 -0.242 -0.3 -0.429 -0.658 -0.563 -1.074 -0.125 -0.417 -0.188 -0.878 -0.188 -1.387 0 -0.517 0.075 -0.984 0.225 -1.4 0.158 -0.425 0.379 -0.785 0.662 -1.076 0.292 -0.3 0.642 -0.529 1.051 -0.688 0.408 -0.167 0.87 -0.25 1.387 -0.25 z m 0.014 1.301 c -0.558 0 -0.996 0.191 -1.313 0.574 -0.317 0.375 -0.475 0.896 -0.475 1.563 0 0.633 0.125 1.139 0.375 1.514 0.258 0.375 0.661 0.563 1.211 0.563 0.25 0 0.485 -0.038 0.701 -0.113 0.225 -0.083 0.404 -0.17 0.537 -0.262 l 0 -3.738 c -0.108 -0.025 -0.245 -0.046 -0.412 -0.063 -0.158 -0.025 -0.367 -0.037 -0.625 -0.037 z" style="fill:#ececec;fill-opacity:1"/>
</svg>
