<svg viewBox="0 0 24 24" xmlns="http://www.w3.org/2000/svg">
 <path style="fill:#ececec;fill-opacity:1" d="m 4 2 c -1.108 0 -2 0.892 -2 2 l 0 16 c 0 1.108 0.892 2 2 2 l 16 0 c 1.108 0 2 -0.892 2 -2 l 0 -16 c 0 -1.108 -0.892 -2 -2 -2 l -16 0 z m -0.809 5.588 1.287 0 c 0.333 0.35 0.693 0.767 1.076 1.25 0.383 0.475 0.765 0.97 1.148 1.486 0.392 0.517 0.767 1.037 1.125 1.563 0.367 0.517 0.693 1 0.977 1.451 l 0 -5.75 1.563 0 0 8.662 -1.338 0 c -0.283 -0.475 -0.601 -0.984 -0.951 -1.525 c -0.35 -0.55 -0.711 -1.1 -1.086 -1.65 -0.375 -0.558 -0.759 -1.095 -1.15 -1.611 -0.383 -0.525 -0.75 -0.995 -1.1 -1.412 l 0 6.199 -1.551 0 0 -8.662 z m 11.252 1.963 c 0.458 0 0.88 0.083 1.264 0.25 0.392 0.158 0.725 0.387 1 0.688 0.275 0.3 0.487 0.661 0.637 1.086 0.158 0.417 0.238 0.884 0.238 1.4 0 0.517 -0.075 0.987 -0.225 1.412 -0.15 0.425 -0.364 0.788 -0.639 1.088 -0.275 0.3 -0.608 0.535 -1 0.701 -0.383 0.167 -0.809 0.25 -1.275 0.25 -0.467 0 -0.89 -0.083 -1.273 -0.25 -0.383 -0.167 -0.713 -0.401 -0.988 -0.701 -0.275 -0.3 -0.492 -0.663 -0.65 -1.088 -0.15 -0.425 -0.225 -0.895 -0.225 -1.412 0 -0.517 0.075 -0.984 0.225 -1.4 0.158 -0.425 0.375 -0.786 0.65 -1.086 0.283 -0.3 0.617 -0.529 1 -0.688 0.383 -0.167 0.803 -0.25 1.262 -0.25 z m 0 1.313 c -0.5 0 -0.89 0.191 -1.174 0.574 -0.275 0.375 -0.412 0.887 -0.412 1.537 0 0.658 0.137 1.179 0.412 1.563 0.283 0.383 0.674 0.576 1.174 0.576 0.5 0 0.889 -0.193 1.164 -0.576 0.283 -0.383 0.424 -0.904 0.424 -1.563 0 -0.65 -0.14 -1.162 -0.424 -1.537 -0.275 -0.383 -0.664 -0.574 -1.164 -0.574 z m 5.158 3.555 0.719 0 0 2.676 0.488 0 0 0.619 -0.488 0 0 1.037 -0.736 0 0 -1.037 -1.9 0 0 -0.537 c 0.083 -0.183 0.195 -0.395 0.332 -0.633 0.142 -0.238 0.298 -0.48 0.469 -0.73 0.171 -0.25 0.351 -0.497 0.543 -0.738 0.192 -0.242 0.383 -0.46 0.574 -0.656 z m -0.018 0.932 c -0.1 0.121 -0.204 0.251 -0.313 0.389 -0.104 0.137 -0.207 0.28 -0.307 0.43 -0.1 0.15 -0.195 0.305 -0.287 0.463 -0.092 0.154 -0.175 0.309 -0.25 0.463 l 1.156 0 0 -1.744 z"/>
</svg>
