<svg xmlns="http://www.w3.org/2000/svg" viewBox="0 0 24 24">
 <path d="m 4 2 c -1.108 0 -2 0.892 -2 2 l 0 16 c 0 1.108 0.892 2 2 2 l 16 0 c 1.108 0 2 -0.892 2 -2 l 0 -16 c 0 -1.108 -0.892 -2 -2 -2 l -16 0 z m 2.389 5.5 c 0.525 0 1.01 0.042 1.461 0.125 0.45 0.075 0.839 0.203 1.164 0.387 c 0.333 0.183 0.59 0.427 0.773 0.727 0.183 0.3 0.275 0.67 0.275 1.111 c 0 0.408 -0.099 0.759 -0.299 1.051 -0.192 0.292 -0.463 0.524 -0.813 0.699 0.525 0.175 0.912 0.434 1.162 0.775 0.25 0.342 0.375 0.776 0.375 1.301 0 0.892 -0.325 1.562 -0.975 2.01 -0.65 0.442 -1.647 0.662 -2.988 0.662 -0.458 0 -0.92 -0.015 -1.387 -0.049 -0.467 -0.025 -0.877 -0.084 -1.227 -0.176 l 0 -8.412 c 0.183 -0.033 0.38 -0.063 0.588 -0.088 0.208 -0.033 0.422 -0.058 0.639 -0.074 0.217 -0.017 0.428 -0.031 0.637 -0.039 0.217 -0.008 0.422 -0.012 0.613 -0.012 z m 0.199 1.287 c -0.242 0 -0.459 0.005 -0.65 0.014 -0.183 0.008 -0.341 0.02 -0.475 0.037 l 0 2.275 1.113 0 c 0.6 0 1.07 -0.083 1.412 -0.25 c 0.342 -0.175 0.512 -0.484 0.512 -0.926 0 -0.417 -0.179 -0.712 -0.537 -0.887 c -0.35 -0.175 -0.808 -0.264 -1.375 -0.264 z m 4.604 0.926 1.611 0 c 0.083 0.35 0.184 0.728 0.301 1.137 0.125 0.408 0.259 0.825 0.4 1.25 0.142 0.417 0.291 0.833 0.449 1.25 0.158 0.417 0.316 0.804 0.475 1.162 0.267 -0.742 0.517 -1.528 0.75 -2.361 0.233 -0.842 0.447 -1.654 0.639 -2.438 l 1.563 0 c -0.675 2.483 -1.458 4.733 -2.35 6.75 -0.167 0.375 -0.339 0.696 -0.514 0.963 -0.175 0.267 -0.371 0.487 -0.588 0.662 -0.217 0.175 -0.458 0.3 -0.725 0.375 -0.267 0.083 -0.574 0.125 -0.924 0.125 -0.233 0 -0.468 -0.026 -0.701 -0.076 -0.225 -0.05 -0.395 -0.104 -0.512 -0.162 l 0.275 -1.213 c 0.3 0.117 0.595 0.176 0.887 0.176 0.392 0 0.695 -0.095 0.912 -0.287 0.225 -0.183 0.421 -0.472 0.588 -0.863 -0.475 -0.917 -0.933 -1.917 -1.375 -3 -0.433 -1.083 -0.82 -2.233 -1.162 -3.449 z m -5.729 2.637 0 2.639 c 0.175 0.017 0.362 0.029 0.563 0.037 0.2 0.008 0.384 0.012 0.551 0.012 0.325 0 0.623 -0.021 0.898 -0.063 0.283 -0.042 0.527 -0.113 0.727 -0.213 0.208 -0.108 0.37 -0.249 0.486 -0.424 0.125 -0.175 0.188 -0.401 0.188 -0.676 0 -0.492 -0.179 -0.834 -0.537 -1.025 -0.358 -0.192 -0.855 -0.287 -1.488 -0.287 l -1.387 0 z m 13.678 1.969 c 0.242 0 0.45 0.03 0.625 0.088 0.175 0.058 0.319 0.142 0.432 0.25 0.117 0.104 0.202 0.229 0.256 0.375 0.058 0.142 0.088 0.298 0.088 0.469 0 0.2 -0.055 0.379 -0.168 0.537 -0.108 0.158 -0.251 0.28 -0.426 0.363 0.225 0.079 0.411 0.209 0.557 0.393 0.15 0.183 0.225 0.42 0.225 0.707 0 0.192 -0.033 0.37 -0.1 0.537 -0.067 0.163 -0.169 0.305 -0.307 0.426 -0.137 0.117 -0.313 0.21 -0.525 0.281 -0.208 0.067 -0.458 0.1 -0.75 0.1 -0.113 0 -0.229 -0.009 -0.35 -0.025 -0.117 -0.012 -0.23 -0.032 -0.338 -0.057 -0.104 -0.021 -0.2 -0.043 -0.287 -0.068 -0.087 -0.029 -0.153 -0.055 -0.199 -0.08 l 0.15 -0.645 c 0.087 0.042 0.214 0.09 0.381 0.145 0.167 0.05 0.373 0.074 0.619 0.074 0.329 0 0.565 -0.063 0.711 -0.188 0.146 -0.129 0.219 -0.299 0.219 -0.512 0 -0.137 -0.028 -0.252 -0.086 -0.344 -0.054 -0.092 -0.132 -0.165 -0.232 -0.219 -0.096 -0.058 -0.209 -0.098 -0.338 -0.119 -0.125 -0.025 -0.257 -0.037 -0.398 -0.037 l -0.258 0 0 -0.613 0.313 0 c 0.096 0 0.193 -0.009 0.289 -0.025 0.1 -0.021 0.188 -0.054 0.268 -0.1 0.079 -0.05 0.143 -0.114 0.193 -0.193 0.05 -0.079 0.076 -0.182 0.076 -0.307 0 -0.1 -0.019 -0.185 -0.057 -0.256 -0.038 -0.071 -0.088 -0.13 -0.15 -0.176 -0.058 -0.046 -0.126 -0.079 -0.205 -0.1 -0.079 -0.021 -0.163 -0.031 -0.25 -0.031 -0.188 0 -0.354 0.03 -0.5 0.088 -0.146 0.054 -0.276 0.117 -0.389 0.188 l -0.275 -0.563 c 0.058 -0.037 0.13 -0.077 0.213 -0.119 0.083 -0.042 0.175 -0.082 0.275 -0.119 0.104 -0.037 0.215 -0.067 0.332 -0.088 0.117 -0.025 0.238 -0.037 0.367 -0.037 z" style="fill:#ececec;fill-opacity:1"/>
</svg>
