<svg viewBox="0 0 24 24" xmlns="http://www.w3.org/2000/svg">
 <path d="m 4 2 c -1.108 0 -2 0.892 -2 2 l 0 16 c 0 1.108 0.892 2 2 2 l 16 0 c 1.108 0 2 -0.892 2 -2 l 0 -16 c 0 -1.108 -0.892 -2 -2 -2 l -16 0 z m 3.238 5.838 5.477 0 0 1.338 -3.9 0 0 2.211 3.463 0 0 1.338 -3.463 0 0 3.775 -1.576 0 0 -8.662 z m 9.04 1.986 c 0.1 0 0.216 0.009 0.35 0.025 0.133 0.008 0.267 0.026 0.4 0.051 0.133 0.017 0.264 0.041 0.389 0.074 0.125 0.025 0.224 0.051 0.299 0.076 l -0.262 1.273 c -0.125 -0.042 -0.3 -0.083 -0.525 -0.125 -0.217 -0.05 -0.47 -0.074 -0.762 -0.074 -0.167 0 -0.347 0.017 -0.539 0.051 -0.183 0.033 -0.312 0.061 -0.387 0.086 l 0 5.238 -1.512 0 0 -6.225 c 0.292 -0.108 0.653 -0.209 1.086 -0.301 0.442 -0.1 0.93 -0.15 1.463 -0.15 z" style="fill:#ececec;fill-opacity:1"/>
</svg>
