<svg xmlns="http://www.w3.org/2000/svg" viewBox="0 0 24 24">
 <path style="fill:#ececec;fill-opacity:1" d="m 4 2 c -1.108 0 -2 0.892 -2 2 l 0 16 c 0 1.108 0.892 2 2 2 l 16 0 c 1.108 0 2 -0.892 2 -2 l 0 -16 c 0 -1.108 -0.892 -2 -2 -2 l -16 0 z m 10.188 4.551 0 7.486 c 0 0.183 0.012 0.338 0.037 0.463 0.033 0.125 0.087 0.233 0.162 0.324 0.075 0.083 0.176 0.151 0.301 0.201 0.133 0.042 0.3 0.075 0.5 0.1 l -0.213 1.25 c -0.45 -0.008 -0.825 -0.059 -1.125 -0.15 -0.292 -0.092 -0.524 -0.22 -0.699 -0.387 -0.175 -0.175 -0.3 -0.389 -0.375 -0.639 -0.067 -0.258 -0.1 -0.55 -0.1 -0.875 l 0 -7.523 1.512 -0.25 z m -5.613 0.836 c 0.542 0 1.021 0.063 1.438 0.188 0.425 0.117 0.758 0.247 1 0.389 l -0.488 1.275 c -0.283 -0.158 -0.596 -0.28 -0.938 -0.363 -0.333 -0.083 -0.679 -0.125 -1.037 -0.125 c -0.425 0 -0.758 0.087 -1 0.262 c -0.233 0.175 -0.35 0.422 -0.35 0.738 c 0 0.192 0.038 0.358 0.113 0.5 0.083 0.133 0.194 0.255 0.336 0.363 0.15 0.108 0.322 0.207 0.514 0.299 0.2 0.092 0.417 0.18 0.65 0.264 0.408 0.15 0.769 0.303 1.086 0.461 0.325 0.15 0.596 0.334 0.813 0.551 0.225 0.208 0.397 0.458 0.514 0.75 0.117 0.283 0.174 0.629 0.174 1.037 0 0.783 -0.278 1.393 -0.836 1.826 -0.55 0.425 -1.359 0.637 -2.426 0.637 -0.358 0 -0.688 -0.024 -0.988 -0.074 c -0.292 -0.042 -0.554 -0.097 -0.787 -0.164 -0.225 -0.067 -0.421 -0.133 -0.588 -0.199 -0.167 -0.075 -0.298 -0.141 -0.398 -0.199 l 0.461 -1.289 c 0.225 0.125 0.531 0.25 0.914 0.375 0.383 0.125 0.845 0.188 1.387 0.188 0.567 0 0.98 -0.095 1.238 -0.287 0.258 -0.192 0.387 -0.463 0.387 -0.813 0 -0.208 -0.045 -0.387 -0.137 -0.537 -0.083 -0.15 -0.208 -0.284 -0.375 -0.4 -0.158 -0.125 -0.355 -0.238 -0.588 -0.338 -0.233 -0.108 -0.501 -0.213 -0.801 -0.313 -0.3 -0.108 -0.592 -0.225 -0.875 -0.35 c -0.275 -0.133 -0.52 -0.295 -0.736 -0.486 -0.208 -0.192 -0.38 -0.421 -0.514 -0.688 c -0.125 -0.267 -0.188 -0.588 -0.188 -0.963 0 -0.783 0.271 -1.396 0.813 -1.838 0.542 -0.45 1.28 -0.676 2.213 -0.676 z m 8.531 6.932 c 0.462 0 0.801 0.111 1.018 0.332 0.221 0.217 0.332 0.513 0.332 0.893 0 0.15 -0.031 0.299 -0.094 0.445 -0.063 0.142 -0.144 0.28 -0.244 0.418 -0.096 0.133 -0.207 0.265 -0.332 0.395 -0.125 0.125 -0.25 0.246 -0.375 0.367 -0.067 0.063 -0.141 0.139 -0.225 0.227 -0.083 0.087 -0.161 0.174 -0.236 0.262 -0.075 0.087 -0.141 0.173 -0.195 0.256 -0.054 0.079 -0.082 0.147 -0.086 0.201 l 1.924 0 0 0.637 -2.756 0 c -0.004 -0.033 -0.006 -0.073 -0.006 -0.119 l 0 -0.111 c 0 -0.2 0.031 -0.384 0.094 -0.551 0.067 -0.171 0.152 -0.329 0.256 -0.475 0.104 -0.146 0.22 -0.283 0.35 -0.412 0.129 -0.129 0.26 -0.258 0.389 -0.383 0.1 -0.096 0.195 -0.19 0.287 -0.281 0.092 -0.092 0.17 -0.18 0.236 -0.268 0.071 -0.092 0.128 -0.184 0.17 -0.275 0.042 -0.096 0.063 -0.193 0.063 -0.293 0 -0.217 -0.063 -0.371 -0.188 -0.463 -0.125 -0.092 -0.278 -0.139 -0.457 -0.139 -0.117 0 -0.224 0.017 -0.324 0.051 -0.1 0.033 -0.19 0.073 -0.27 0.119 -0.075 0.046 -0.141 0.093 -0.199 0.143 -0.058 0.046 -0.102 0.084 -0.131 0.113 l -0.375 -0.531 c 0.175 -0.167 0.378 -0.3 0.611 -0.4 0.238 -0.104 0.493 -0.156 0.764 -0.156 z"/>
</svg>
