<svg viewBox="0 0 24 24" xmlns="http://www.w3.org/2000/svg">
 <path style="fill:#ececec;fill-opacity:1" d="m 4 2 c -1.108 0 -2 0.892 -2 2 l 0 16 c 0 1.108 0.892 2 2 2 l 16 0 c 1.108 0 2 -0.892 2 -2 l 0 -16 c 0 -1.108 -0.892 -2 -2 -2 l -16 0 z m 10.512 4.801 0 3.236 c 0.167 -0.058 0.358 -0.109 0.574 -0.15 0.225 -0.042 0.447 -0.063 0.664 -0.063 0.525 0 0.957 0.077 1.299 0.227 0.35 0.142 0.63 0.345 0.838 0.611 0.208 0.258 0.354 0.571 0.438 0.938 0.092 0.367 0.137 0.775 0.137 1.225 l 0 3.676 -1.512 0 0 -3.438 c 0 -0.35 -0.024 -0.645 -0.074 -0.887 -0.042 -0.25 -0.118 -0.452 -0.227 -0.602 -0.1 -0.158 -0.237 -0.269 -0.412 -0.336 -0.175 -0.075 -0.392 -0.113 -0.65 -0.113 -0.2 0 -0.403 0.021 -0.611 0.063 -0.208 0.042 -0.363 0.08 -0.463 0.113 l 0 5.199 -1.512 0 0 -9.449 1.512 -0.25 z m -9.236 1.037 6.199 0 0 1.162 c -0.275 0.3 -0.608 0.692 -1 1.176 -0.392 0.475 -0.794 0.996 -1.211 1.563 -0.417 0.558 -0.83 1.136 -1.238 1.736 -0.4 0.592 -0.754 1.154 -1.063 1.688 l 4.65 0 0 1.338 -6.551 0 0 -0.988 c 0.167 -0.308 0.36 -0.642 0.576 -1 0.225 -0.367 0.461 -0.742 0.711 -1.125 0.25 -0.383 0.509 -0.77 0.775 -1.162 0.275 -0.392 0.546 -0.767 0.813 -1.125 c 0.267 -0.367 0.525 -0.712 0.775 -1.037 0.258 -0.333 0.5 -0.628 0.725 -0.887 l -4.162 0 0 -1.338 z"/>
</svg>
