<svg xmlns="http://www.w3.org/2000/svg" viewBox="0 0 24 24">
 <path style="fill:#ececec;fill-opacity:1" d="m 4 2 c -1.108 0 -2 0.892 -2 2 l 0 16 c 0 1.108 0.892 2 2 2 l 16 0 c 1.108 0 2 -0.892 2 -2 l 0 -16 c 0 -1.108 -0.892 -2 -2 -2 l -16 0 z m 9.67 4.863 c 0.25 0 0.467 0.083 0.65 0.25 0.183 0.167 0.275 0.396 0.275 0.688 0 0.283 -0.092 0.507 -0.275 0.674 -0.183 0.167 -0.4 0.25 -0.65 0.25 -0.258 0 -0.479 -0.083 -0.662 -0.25 -0.183 -0.167 -0.275 -0.39 -0.275 -0.674 0 -0.292 0.092 -0.521 0.275 -0.688 0.183 -0.167 0.404 -0.25 0.662 -0.25 z m -7.572 0.725 5.475 0 0 1.338 -3.9 0 0 2.211 3.463 0 0 1.338 -3.463 0 0 3.775 -1.574 0 0 -8.662 z m 6.822 2.125 1.512 0 0 6.537 -1.512 0 0 -6.537 z m 4.123 4.605 c 0.462 0 0.803 0.111 1.02 0.332 0.221 0.217 0.332 0.513 0.332 0.893 0 0.15 -0.031 0.299 -0.094 0.445 -0.063 0.142 -0.144 0.28 -0.244 0.418 -0.096 0.133 -0.207 0.265 -0.332 0.395 -0.125 0.125 -0.25 0.246 -0.375 0.367 -0.067 0.063 -0.141 0.139 -0.225 0.227 -0.083 0.087 -0.163 0.174 -0.238 0.262 -0.075 0.087 -0.139 0.173 -0.193 0.256 -0.054 0.079 -0.084 0.147 -0.088 0.201 l 1.926 0 0 0.637 -2.756 0 c -0.004 -0.033 -0.006 -0.073 -0.006 -0.119 l 0 -0.111 c 0 -0.2 0.031 -0.384 0.094 -0.551 0.067 -0.171 0.152 -0.329 0.256 -0.475 0.104 -0.146 0.22 -0.283 0.35 -0.412 0.129 -0.129 0.258 -0.258 0.387 -0.383 0.1 -0.096 0.197 -0.19 0.289 -0.281 0.092 -0.092 0.17 -0.18 0.236 -0.268 0.071 -0.092 0.128 -0.184 0.17 -0.275 0.042 -0.096 0.063 -0.193 0.063 -0.293 0 -0.217 -0.063 -0.371 -0.188 -0.463 -0.125 -0.092 -0.278 -0.139 -0.457 -0.139 -0.117 0 -0.224 0.017 -0.324 0.051 -0.1 0.033 -0.19 0.073 -0.27 0.119 -0.075 0.046 -0.141 0.093 -0.199 0.143 -0.058 0.046 -0.104 0.084 -0.133 0.113 l -0.375 -0.531 c 0.175 -0.167 0.38 -0.3 0.613 -0.4 0.238 -0.104 0.491 -0.156 0.762 -0.156 z"/>
</svg>
