<svg viewBox="0 0 24 24" xmlns="http://www.w3.org/2000/svg">
 <path style="fill:#ececec;fill-opacity:1" d="m 4 2 c -1.108 0 -2 0.892 -2 2 l 0 16 c 0 1.108 0.892 2 2 2 l 16 0 c 1.108 0 2 -0.892 2 -2 l 0 -16 c 0 -1.108 -0.892 -2 -2 -2 l -16 0 z m 2 5.75 c 0.525 0 1.01 0.042 1.461 0.125 0.45 0.075 0.839 0.203 1.164 0.387 0.333 0.183 0.59 0.427 0.773 0.727 0.183 0.3 0.275 0.67 0.275 1.111 0 0.408 -0.099 0.759 -0.299 1.051 -0.192 0.292 -0.462 0.524 -0.813 0.699 0.525 0.175 0.912 0.434 1.162 0.775 0.25 0.342 0.375 0.776 0.375 1.301 0 0.892 -0.325 1.562 -0.975 2.01 -0.65 0.442 -1.647 0.662 -2.988 0.662 -0.458 0 -0.92 -0.015 -1.387 -0.049 -0.467 -0.025 -0.877 -0.084 -1.227 -0.176 l 0 -8.412 c 0.183 -0.033 0.38 -0.063 0.588 -0.088 0.208 -0.033 0.422 -0.058 0.639 -0.074 0.217 -0.017 0.428 -0.031 0.637 -0.039 0.217 -0.008 0.422 -0.012 0.613 -0.012 z m 0.199 1.287 c -0.242 0 -0.459 0.005 -0.65 0.014 -0.183 0.008 -0.341 0.02 -0.475 0.037 l 0 2.275 1.113 0 c 0.6 0 1.07 -0.083 1.412 -0.25 0.342 -0.175 0.512 -0.484 0.512 -0.926 0 -0.417 -0.179 -0.712 -0.537 -0.887 -0.35 -0.175 -0.808 -0.264 -1.375 -0.264 z m 8.09 0.787 c 0.45 0 0.818 0.059 1.102 0.176 0.292 0.117 0.533 0.271 0.725 0.463 0.092 -0.067 0.208 -0.138 0.35 -0.213 0.142 -0.075 0.3 -0.141 0.475 -0.199 0.175 -0.067 0.359 -0.122 0.551 -0.164 0.2 -0.042 0.4 -0.063 0.6 -0.063 0.508 0 0.925 0.077 1.25 0.227 0.333 0.142 0.592 0.345 0.775 0.611 0.192 0.258 0.32 0.576 0.387 0.951 0.075 0.367 0.113 0.769 0.113 1.211 l 0 3.676 -1.514 0 0 -3.438 c 0 -0.683 -0.083 -1.175 -0.25 -1.475 c -0.167 -0.308 -0.486 -0.463 -0.961 -0.463 c -0.242 0 -0.471 0.042 -0.688 0.125 -0.217 0.075 -0.38 0.15 -0.488 0.225 0.067 0.208 0.112 0.429 0.137 0.662 0.025 0.233 0.039 0.483 0.039 0.75 l 0 3.613 -1.514 0 0 -3.438 c 0 -0.683 -0.087 -1.175 -0.262 -1.475 c -0.167 -0.308 -0.485 -0.463 -0.951 -0.463 c -0.167 0 -0.349 0.012 -0.549 0.037 -0.2 0.025 -0.351 0.046 -0.451 0.063 l 0 5.275 -1.512 0 0 -6.324 c 0.292 -0.083 0.67 -0.163 1.137 -0.238 0.475 -0.075 0.975 -0.113 1.5 -0.113 z m -9.215 2.775 0 2.639 c 0.175 0.017 0.362 0.029 0.563 0.037 0.2 0.008 0.384 0.012 0.551 0.012 0.325 0 0.623 -0.021 0.898 -0.063 0.283 -0.042 0.527 -0.113 0.727 -0.213 0.208 -0.108 0.37 -0.249 0.486 -0.424 0.125 -0.175 0.188 -0.401 0.188 -0.676 0 -0.492 -0.179 -0.834 -0.537 -1.025 -0.358 -0.192 -0.855 -0.287 -1.488 -0.287 l -1.387 0 z"/>
</svg>
