<svg xmlns="http://www.w3.org/2000/svg" viewBox="0 0 24 24">
 <path style="fill:#ececec;fill-opacity:1" d="m 4 2 c -1.108 0 -2 0.892 -2 2 l 0 16 c 0 1.108 0.892 2 2 2 l 16 0 c 1.108 0 2 -0.892 2 -2 l 0 -16 c 0 -1.108 -0.892 -2 -2 -2 l -16 0 z m 1.768 5.588 1.576 0 0 8.662 -1.576 0 0 -8.662 z m 6.275 1.986 c 0.533 0 0.98 0.077 1.338 0.227 0.358 0.142 0.641 0.345 0.85 0.611 0.217 0.258 0.366 0.576 0.449 0.951 0.092 0.367 0.139 0.769 0.139 1.211 l 0 3.676 -1.514 0 0 -3.438 c 0 -0.35 -0.024 -0.645 -0.074 -0.887 -0.042 -0.25 -0.116 -0.452 -0.225 -0.602 -0.1 -0.158 -0.242 -0.269 -0.426 -0.336 -0.175 -0.075 -0.392 -0.113 -0.65 -0.113 -0.192 0 -0.391 0.012 -0.6 0.037 -0.208 0.025 -0.363 0.046 -0.463 0.063 l 0 5.275 -1.512 0 0 -6.324 c 0.292 -0.083 0.67 -0.163 1.137 -0.238 0.467 -0.075 0.984 -0.113 1.551 -0.113 z m 5.611 4.844 0.531 0 0 4.332 -0.756 0 0 -3.318 c -0.113 0.088 -0.255 0.173 -0.426 0.256 -0.171 0.083 -0.334 0.153 -0.492 0.207 l -0.232 -0.576 c 0.242 -0.096 0.483 -0.219 0.725 -0.369 0.246 -0.15 0.463 -0.327 0.65 -0.531 z"/>
</svg>
