<svg viewBox="0 0 24 24" xmlns="http://www.w3.org/2000/svg">
 <path d="m 4 2 c -1.108 0 -2 0.892 -2 2 l 0 16 c 0 1.108 0.892 2 2 2 l 16 0 c 1.108 0 2 -0.892 2 -2 l 0 -16 c 0 -1.108 -0.892 -2 -2 -2 l -16 0 z m 4.68 5.387 c 0.358 0 0.683 0.03 0.975 0.088 0.292 0.05 0.547 0.109 0.764 0.176 0.217 0.067 0.395 0.138 0.537 0.213 0.142 0.075 0.242 0.129 0.301 0.162 l -0.463 1.287 c -0.2 -0.125 -0.488 -0.241 -0.863 -0.35 -0.367 -0.117 -0.766 -0.176 -1.199 -0.176 c -0.375 0 -0.726 0.068 -1.051 0.201 -0.325 0.125 -0.608 0.316 -0.85 0.574 -0.233 0.258 -0.417 0.583 -0.551 0.975 -0.133 0.392 -0.199 0.847 -0.199 1.363 0 0.458 0.05 0.878 0.15 1.262 0.108 0.383 0.27 0.717 0.486 1 0.217 0.275 0.493 0.492 0.826 0.65 0.333 0.15 0.733 0.225 1.199 0.225 0.558 0 1.013 -0.054 1.363 -0.162 0.35 -0.117 0.621 -0.224 0.813 -0.324 l 0.424 1.287 c -0.1 0.067 -0.237 0.133 -0.412 0.199 -0.167 0.067 -0.366 0.135 -0.6 0.201 -0.233 0.058 -0.495 0.103 -0.787 0.137 -0.292 0.042 -0.604 0.063 -0.938 0.063 -0.65 0 -1.233 -0.101 -1.75 -0.301 -0.517 -0.2 -0.954 -0.492 -1.313 -0.875 c -0.358 -0.392 -0.635 -0.865 -0.826 -1.424 -0.192 -0.558 -0.287 -1.201 -0.287 -1.926 c 0 -0.725 0.11 -1.365 0.326 -1.924 0.225 -0.558 0.529 -1.031 0.912 -1.414 c 0.383 -0.392 0.833 -0.687 1.35 -0.887 0.517 -0.2 1.07 -0.301 1.662 -0.301 z m 6.533 2.188 c 0.1 0 0.216 0.009 0.35 0.025 0.133 0.008 0.267 0.026 0.4 0.051 0.133 0.017 0.264 0.041 0.389 0.074 0.125 0.025 0.224 0.051 0.299 0.076 l -0.262 1.273 c -0.125 -0.042 -0.3 -0.083 -0.525 -0.125 -0.217 -0.05 -0.47 -0.074 -0.762 -0.074 -0.167 0 -0.347 0.017 -0.539 0.051 -0.183 0.033 -0.312 0.061 -0.387 0.086 l 0 5.238 -1.512 0 0 -6.225 c 0.292 -0.108 0.653 -0.209 1.086 -0.301 c 0.442 -0.1 0.93 -0.15 1.463 -0.15 z m 3.086 4.744 c 0.242 0 0.45 0.03 0.625 0.088 0.175 0.058 0.319 0.142 0.432 0.25 0.117 0.104 0.202 0.229 0.256 0.375 0.058 0.142 0.088 0.298 0.088 0.469 0 0.2 -0.057 0.379 -0.17 0.537 -0.108 0.158 -0.249 0.28 -0.424 0.363 0.225 0.079 0.411 0.209 0.557 0.393 0.15 0.183 0.225 0.42 0.225 0.707 0 0.192 -0.033 0.37 -0.1 0.537 -0.067 0.163 -0.169 0.305 -0.307 0.426 -0.137 0.117 -0.313 0.21 -0.525 0.281 -0.208 0.067 -0.458 0.1 -0.75 0.1 -0.113 0 -0.229 -0.009 -0.35 -0.025 -0.117 -0.012 -0.23 -0.032 -0.338 -0.057 -0.104 -0.021 -0.2 -0.043 -0.287 -0.068 -0.087 -0.029 -0.155 -0.055 -0.201 -0.08 l 0.15 -0.645 c 0.087 0.042 0.214 0.09 0.381 0.145 0.167 0.05 0.373 0.074 0.619 0.074 0.329 0 0.567 -0.063 0.713 -0.188 0.146 -0.129 0.219 -0.299 0.219 -0.512 0 -0.137 -0.03 -0.252 -0.088 -0.344 -0.054 -0.092 -0.13 -0.165 -0.23 -0.219 -0.096 -0.058 -0.209 -0.098 -0.338 -0.119 -0.125 -0.025 -0.259 -0.037 -0.4 -0.037 l -0.256 0 0 -0.613 0.313 0 c 0.096 0 0.191 -0.009 0.287 -0.025 0.1 -0.021 0.19 -0.054 0.27 -0.1 0.079 -0.05 0.143 -0.114 0.193 -0.193 0.05 -0.079 0.074 -0.182 0.074 -0.307 0 -0.1 -0.017 -0.185 -0.055 -0.256 -0.038 -0.071 -0.088 -0.13 -0.15 -0.176 -0.058 -0.046 -0.128 -0.079 -0.207 -0.1 -0.079 -0.021 -0.163 -0.031 -0.25 -0.031 -0.188 0 -0.354 0.03 -0.5 0.088 -0.146 0.054 -0.274 0.117 -0.387 0.188 l -0.275 -0.563 c 0.058 -0.037 0.13 -0.077 0.213 -0.119 0.083 -0.042 0.175 -0.082 0.275 -0.119 0.104 -0.037 0.213 -0.067 0.33 -0.088 0.117 -0.025 0.24 -0.037 0.369 -0.037 z" style="fill:#ececec;fill-opacity:1"/>
</svg>
