<svg xmlns="http://www.w3.org/2000/svg" viewBox="0 0 24 24">
 <path d="m 4 2 c -1.108 0 -2 0.892 -2 2 l 0 16 c 0 1.108 0.892 2 2 2 l 16 0 c 1.108 0 2 -0.892 2 -2 l 0 -16 c 0 -1.108 -0.892 -2 -2 -2 l -16 0 z m 3.205 5.5 c 1.258 0 2.22 0.229 2.887 0.688 0.675 0.458 1.014 1.175 1.014 2.15 0 0.508 -0.092 0.946 -0.275 1.313 -0.175 0.358 -0.434 0.653 -0.775 0.887 -0.342 0.225 -0.758 0.392 -1.25 0.5 -0.492 0.108 -1.054 0.162 -1.688 0.162 l -0.787 0 0 3.051 -1.574 0 0 -8.537 c 0.367 -0.083 0.769 -0.137 1.211 -0.162 0.45 -0.033 0.863 -0.051 1.238 -0.051 z m 6.701 0.238 0 1.975 2.324 0 0 1.262 -2.324 0 0 2.662 c 0 0.525 0.083 0.9 0.25 1.125 0.167 0.225 0.45 0.338 0.85 0.338 0.275 0 0.516 -0.03 0.725 -0.088 0.217 -0.058 0.387 -0.112 0.512 -0.162 l 0.25 1.201 c -0.175 0.075 -0.404 0.15 -0.688 0.225 -0.283 0.083 -0.617 0.125 -1 0.125 -0.467 0 -0.857 -0.063 -1.174 -0.188 -0.308 -0.125 -0.555 -0.304 -0.738 -0.537 -0.183 -0.242 -0.312 -0.53 -0.387 -0.863 -0.075 -0.342 -0.113 -0.729 -0.113 -1.162 l 0 -5.662 1.514 -0.25 z m -6.588 1.125 c -0.4 0 -0.73 0.012 -0.988 0.037 l 0 2.949 0.762 0 c 0.758 0 1.342 -0.104 1.75 -0.313 0.408 -0.217 0.613 -0.621 0.613 -1.213 0 -0.283 -0.054 -0.519 -0.162 -0.711 c -0.108 -0.192 -0.26 -0.343 -0.451 -0.451 -0.192 -0.108 -0.421 -0.183 -0.688 -0.225 -0.258 -0.05 -0.536 -0.074 -0.836 -0.074 z m 12.361 5.531 0.045 0.625 c -0.225 0.004 -0.437 0.028 -0.633 0.074 -0.196 0.042 -0.369 0.108 -0.523 0.199 -0.154 0.092 -0.288 0.212 -0.4 0.357 -0.108 0.146 -0.192 0.325 -0.25 0.537 0.204 -0.096 0.426 -0.145 0.668 -0.145 0.258 0 0.477 0.038 0.656 0.113 0.183 0.071 0.331 0.168 0.443 0.293 0.113 0.125 0.194 0.271 0.244 0.438 0.054 0.163 0.082 0.335 0.082 0.514 0 0.163 -0.03 0.329 -0.088 0.5 -0.054 0.171 -0.141 0.327 -0.262 0.469 -0.117 0.137 -0.266 0.252 -0.445 0.344 -0.179 0.087 -0.391 0.131 -0.637 0.131 -0.496 0 -0.874 -0.163 -1.137 -0.488 c -0.258 -0.329 -0.389 -0.78 -0.389 -1.355 c 0 -0.417 0.061 -0.785 0.182 -1.105 0.125 -0.325 0.3 -0.599 0.525 -0.82 0.229 -0.221 0.503 -0.387 0.824 -0.5 0.325 -0.117 0.69 -0.176 1.094 -0.18 z m -1.188 2.25 c -0.121 0 -0.237 0.01 -0.35 0.031 -0.113 0.021 -0.215 0.052 -0.307 0.094 -0.004 0.033 -0.008 0.07 -0.012 0.111 l 0 0.113 c 0 0.167 0.01 0.325 0.031 0.475 0.025 0.146 0.065 0.274 0.119 0.387 0.058 0.108 0.135 0.197 0.23 0.264 0.1 0.063 0.223 0.094 0.369 0.094 0.121 0 0.223 -0.026 0.307 -0.076 0.087 -0.05 0.157 -0.114 0.211 -0.193 0.054 -0.079 0.094 -0.164 0.119 -0.256 0.025 -0.096 0.037 -0.188 0.037 -0.275 0 -0.25 -0.059 -0.439 -0.18 -0.568 -0.121 -0.133 -0.314 -0.199 -0.576 -0.199 z" style="fill:#ececec;fill-opacity:1"/>
</svg>
