<svg xmlns="http://www.w3.org/2000/svg" viewBox="0 0 24 24">
 <path d="m 4 2 c -1.108 0 -2 0.892 -2 2 l 0 16 c 0 1.108 0.892 2 2 2 l 16 0 c 1.108 0 2 -0.892 2 -2 l 0 -16 c 0 -1.108 -0.892 -2 -2 -2 l -16 0 z m 1.91 5.5 c 1.25 0 2.203 0.229 2.861 0.688 0.667 0.458 1 1.158 1 2.1 0 1.175 -0.578 1.972 -1.736 2.389 c 0.158 0.192 0.337 0.424 0.537 0.699 c 0.2 0.275 0.405 0.575 0.613 0.9 0.208 0.317 0.408 0.645 0.6 0.986 c 0.192 0.333 0.362 0.663 0.512 0.988 l -1.762 0 c -0.158 -0.3 -0.33 -0.6 -0.514 -0.9 -0.183 -0.308 -0.371 -0.603 -0.563 -0.887 c -0.183 -0.292 -0.365 -0.563 -0.549 -0.813 -0.183 -0.258 -0.355 -0.488 -0.514 -0.688 -0.117 0.008 -0.215 0.012 -0.299 0.012 l -0.238 0 -0.762 0 0 3.275 -1.576 0 0 -8.537 c 0.383 -0.083 0.793 -0.137 1.227 -0.162 0.433 -0.033 0.82 -0.051 1.162 -0.051 z m 0.111 1.363 c -0.333 0 -0.64 0.012 -0.924 0.037 l 0 2.799 0.688 0 c 0.383 0 0.72 -0.021 1.012 -0.063 0.292 -0.042 0.533 -0.116 0.725 -0.225 0.2 -0.108 0.351 -0.254 0.451 -0.438 0.1 -0.183 0.15 -0.416 0.15 -0.699 0 -0.267 -0.05 -0.492 -0.15 -0.676 -0.1 -0.183 -0.246 -0.329 -0.438 -0.438 c -0.183 -0.108 -0.404 -0.183 -0.662 -0.225 -0.258 -0.05 -0.543 -0.074 -0.852 -0.074 z m 8.209 0.688 c 0.458 0 0.878 0.083 1.262 0.25 0.392 0.158 0.725 0.387 1 0.687 0.275 0.3 0.489 0.661 0.639 1.086 0.158 0.417 0.236 0.884 0.236 1.4 0 0.517 -0.075 0.987 -0.225 1.412 -0.15 0.425 -0.362 0.788 -0.637 1.088 -0.275 0.3 -0.608 0.535 -1 0.701 -0.383 0.167 -0.809 0.25 -1.275 0.25 -0.467 0 -0.892 -0.083 -1.275 -0.25 -0.383 -0.167 -0.713 -0.401 -0.988 -0.701 -0.275 -0.3 -0.49 -0.663 -0.648 -1.088 -0.15 -0.425 -0.227 -0.895 -0.227 -1.412 0 -0.517 0.077 -0.984 0.227 -1.4 0.158 -0.425 0.373 -0.786 0.648 -1.086 0.283 -0.3 0.617 -0.529 1 -0.687 0.383 -0.167 0.805 -0.25 1.264 -0.25 z m 0 1.312 c -0.5 0 -0.892 0.191 -1.176 0.574 -0.275 0.375 -0.412 0.887 -0.412 1.537 0 0.658 0.137 1.179 0.412 1.563 0.283 0.383 0.676 0.576 1.176 0.576 0.5 0 0.887 -0.193 1.162 -0.576 0.283 -0.383 0.426 -0.904 0.426 -1.563 0 -0.65 -0.142 -1.162 -0.426 -1.537 -0.275 -0.383 -0.662 -0.574 -1.162 -0.574 z m 4.527 3.555 2.211 0 0 0.639 -1.568 0 c -0.004 0.071 -0.009 0.152 -0.018 0.244 -0.004 0.088 -0.011 0.176 -0.02 0.268 -0.004 0.092 -0.011 0.18 -0.02 0.264 -0.008 0.083 -0.015 0.153 -0.023 0.211 0.617 0.033 1.07 0.176 1.361 0.426 0.296 0.246 0.443 0.583 0.443 1.012 0 0.196 -0.033 0.378 -0.1 0.545 -0.067 0.167 -0.169 0.311 -0.307 0.432 -0.137 0.121 -0.309 0.216 -0.518 0.287 -0.208 0.067 -0.453 0.1 -0.732 0.1 -0.113 0 -0.227 -0.009 -0.344 -0.025 -0.117 -0.017 -0.228 -0.038 -0.336 -0.063 -0.104 -0.021 -0.198 -0.043 -0.281 -0.068 -0.083 -0.025 -0.146 -0.048 -0.188 -0.068 l 0.143 -0.639 c 0.087 0.042 0.212 0.089 0.375 0.139 0.167 0.046 0.37 0.068 0.607 0.068 0.163 0 0.301 -0.017 0.418 -0.051 0.117 -0.038 0.21 -0.086 0.281 -0.148 0.075 -0.063 0.129 -0.134 0.162 -0.213 0.033 -0.083 0.051 -0.172 0.051 -0.264 0 -0.137 -0.028 -0.259 -0.082 -0.367 -0.054 -0.108 -0.15 -0.2 -0.287 -0.275 -0.133 -0.075 -0.314 -0.132 -0.543 -0.17 -0.225 -0.038 -0.512 -0.055 -0.857 -0.055 0.046 -0.4 0.082 -0.78 0.107 -1.139 0.025 -0.363 0.046 -0.725 0.063 -1.088 z" style="fill:#ececec;fill-opacity:1"/>
</svg>
