<svg viewBox="0 0 24 24" xmlns="http://www.w3.org/2000/svg">
 <path d="m 4 2 c -1.108 0 -2 0.892 -2 2 l 0 16 c 0 1.108 0.892 2 2 2 l 16 0 c 1.108 0 2 -0.892 2 -2 l 0 -16 c 0 -1.108 -0.892 -2 -2 -2 l -16 0 z m 1.432 5.838 1.576 0 0 3.574 c 0.275 -0.275 0.561 -0.567 0.861 -0.875 0.3 -0.317 0.597 -0.633 0.889 -0.949 0.3 -0.325 0.583 -0.637 0.85 -0.938 0.267 -0.3 0.508 -0.571 0.725 -0.813 l 1.889 0 c -0.275 0.317 -0.567 0.645 -0.875 0.986 -0.308 0.342 -0.626 0.689 -0.951 1.039 -0.325 0.342 -0.653 0.682 -0.986 1.023 -0.325 0.342 -0.646 0.668 -0.963 0.977 0.35 0.267 0.704 0.579 1.063 0.938 0.367 0.35 0.724 0.728 1.074 1.137 0.35 0.4 0.683 0.82 1 1.262 0.325 0.433 0.622 0.867 0.889 1.301 l -1.863 0 c -0.217 -0.333 -0.467 -0.684 -0.75 -1.051 -0.283 -0.367 -0.584 -0.721 -0.9 -1.063 -0.308 -0.342 -0.63 -0.666 -0.963 -0.975 -0.333 -0.308 -0.661 -0.574 -0.986 -0.799 l 0 3.887 -1.576 0 0 -8.662 z m 7.762 2.125 1.512 0 0 3.424 c 0 0.7 0.101 1.2 0.301 1.5 0.208 0.3 0.566 0.451 1.074 0.451 0.183 0 0.374 -0.009 0.574 -0.025 0.208 -0.017 0.363 -0.037 0.463 -0.063 l 0 -5.287 1.514 0 0 6.338 c -0.292 0.075 -0.672 0.15 -1.139 0.225 -0.467 0.083 -0.979 0.125 -1.537 0.125 -0.525 0 -0.966 -0.075 -1.324 -0.225 -0.35 -0.15 -0.635 -0.358 -0.852 -0.625 -0.208 -0.267 -0.358 -0.585 -0.449 -0.951 -0.092 -0.375 -0.137 -0.783 -0.137 -1.225 l 0 -3.662 z" style="fill:#ececec;fill-opacity:1"/>
</svg>
