<svg xmlns="http://www.w3.org/2000/svg" viewBox="0 0 24 24">
 <path style="fill:#ececec;fill-opacity:1" d="m 4 2 c -1.108 0 -2 0.892 -2 2 l 0 16 c 0 1.108 0.892 2 2 2 l 16 0 c 1.108 0 2 -0.892 2 -2 l 0 -16 c 0 -1.108 -0.892 -2 -2 -2 l -16 0 z m 1.973 5.5 c 0.525 0 1.013 0.042 1.463 0.125 0.45 0.075 0.837 0.203 1.162 0.387 0.333 0.183 0.592 0.427 0.775 0.727 0.183 0.3 0.275 0.67 0.275 1.111 0 0.408 -0.101 0.759 -0.301 1.051 -0.192 0.292 -0.462 0.524 -0.813 0.699 0.525 0.175 0.912 0.434 1.162 0.775 0.25 0.342 0.375 0.776 0.375 1.301 0 0.892 -0.325 1.562 -0.975 2.01 -0.65 0.442 -1.647 0.662 -2.988 0.662 -0.458 0 -0.92 -0.015 -1.387 -0.049 -0.467 -0.025 -0.875 -0.084 -1.225 -0.176 l 0 -8.412 c 0.183 -0.033 0.38 -0.063 0.588 -0.088 0.208 -0.033 0.42 -0.058 0.637 -0.074 0.217 -0.017 0.428 -0.031 0.637 -0.039 0.217 -0.008 0.422 -0.012 0.613 -0.012 z m 0.199 1.287 c -0.242 0 -0.457 0.005 -0.648 0.014 -0.183 0.008 -0.343 0.02 -0.477 0.037 l 0 2.275 1.113 0 c 0.6 0 1.07 -0.083 1.412 -0.25 0.342 -0.175 0.514 -0.484 0.514 -0.926 0 -0.417 -0.181 -0.712 -0.539 -0.887 -0.35 -0.175 -0.808 -0.264 -1.375 -0.264 z m 8.141 0.787 c 0.533 0 0.98 0.077 1.338 0.227 0.358 0.142 0.641 0.345 0.85 0.611 0.217 0.258 0.368 0.576 0.451 0.951 0.092 0.367 0.137 0.769 0.137 1.211 l 0 3.676 -1.512 0 0 -3.438 c 0 -0.35 -0.026 -0.645 -0.076 -0.887 -0.042 -0.25 -0.116 -0.452 -0.225 -0.602 -0.1 -0.158 -0.24 -0.269 -0.424 -0.336 -0.175 -0.075 -0.392 -0.113 -0.65 -0.113 -0.192 0 -0.391 0.012 -0.6 0.037 -0.208 0.025 -0.363 0.046 -0.463 0.063 l 0 5.275 -1.514 0 0 -6.324 c 0.292 -0.083 0.672 -0.163 1.139 -0.238 0.467 -0.075 0.982 -0.113 1.549 -0.113 z m -9.266 2.775 0 2.639 c 0.175 0.017 0.362 0.029 0.563 0.037 0.2 0.008 0.384 0.012 0.551 0.012 0.325 0 0.625 -0.021 0.9 -0.063 0.283 -0.042 0.525 -0.113 0.725 -0.213 0.208 -0.108 0.372 -0.249 0.488 -0.424 0.125 -0.175 0.188 -0.401 0.188 -0.676 0 -0.492 -0.181 -0.834 -0.539 -1.025 -0.358 -0.192 -0.853 -0.287 -1.486 -0.287 l -1.389 0 z m 14.598 1.969 c 0.462 0 0.801 0.111 1.018 0.332 0.221 0.217 0.332 0.513 0.332 0.893 0 0.15 -0.031 0.299 -0.094 0.445 -0.063 0.142 -0.144 0.28 -0.244 0.418 -0.096 0.133 -0.207 0.265 -0.332 0.395 -0.125 0.125 -0.25 0.246 -0.375 0.367 -0.067 0.063 -0.141 0.139 -0.225 0.227 -0.083 0.087 -0.161 0.174 -0.236 0.262 -0.075 0.087 -0.141 0.173 -0.195 0.256 -0.054 0.079 -0.082 0.147 -0.086 0.201 l 1.924 0 0 0.637 -2.756 0 c -0.004 -0.033 -0.006 -0.073 -0.006 -0.119 l 0 -0.111 c 0 -0.2 0.031 -0.384 0.094 -0.551 0.067 -0.171 0.152 -0.329 0.256 -0.475 0.104 -0.146 0.22 -0.283 0.35 -0.412 0.129 -0.129 0.26 -0.258 0.389 -0.383 0.1 -0.096 0.195 -0.19 0.287 -0.281 0.092 -0.092 0.17 -0.18 0.236 -0.268 0.071 -0.092 0.128 -0.184 0.17 -0.275 0.042 -0.096 0.063 -0.193 0.063 -0.293 0 -0.217 -0.063 -0.371 -0.188 -0.463 -0.125 -0.092 -0.278 -0.139 -0.457 -0.139 -0.117 0 -0.224 0.017 -0.324 0.051 -0.1 0.033 -0.19 0.073 -0.27 0.119 -0.075 0.046 -0.141 0.093 -0.199 0.143 -0.058 0.046 -0.102 0.084 -0.131 0.113 l -0.375 -0.531 c 0.175 -0.167 0.378 -0.3 0.611 -0.4 0.238 -0.104 0.493 -0.156 0.764 -0.156 z"/>
</svg>
