<svg xmlns="http://www.w3.org/2000/svg" viewBox="0 0 24 24">
 <path style="fill:#ececec;fill-opacity:1" d="m 4 2 c -1.108 0 -2 0.892 -2 2 l 0 16 c 0 1.108 0.892 2 2 2 l 16 0 c 1.108 0 2 -0.892 2 -2 l 0 -16 c 0 -1.108 -0.892 -2 -2 -2 l -16 0 z m 3.205 5.5 c 1.258 0 2.22 0.229 2.887 0.688 0.675 0.458 1.014 1.175 1.014 2.15 0 0.508 -0.092 0.946 -0.275 1.313 -0.175 0.358 -0.434 0.653 -0.775 0.887 -0.342 0.225 -0.758 0.392 -1.25 0.5 -0.492 0.108 -1.054 0.162 -1.688 0.162 l -0.787 0 0 3.051 -1.574 0 0 -8.537 c 0.367 -0.083 0.769 -0.137 1.211 -0.162 0.45 -0.033 0.863 -0.051 1.238 -0.051 z m 6.701 0.238 0 1.975 2.324 0 0 1.262 -2.324 0 0 2.662 c 0 0.525 0.083 0.9 0.25 1.125 0.167 0.225 0.45 0.338 0.85 0.338 0.275 0 0.516 -0.03 0.725 -0.088 0.217 -0.058 0.387 -0.112 0.512 -0.162 l 0.25 1.201 c -0.175 0.075 -0.404 0.15 -0.688 0.225 -0.283 0.083 -0.617 0.125 -1 0.125 -0.467 0 -0.857 -0.063 -1.174 -0.188 -0.308 -0.125 -0.555 -0.304 -0.738 -0.537 -0.183 -0.242 -0.312 -0.53 -0.387 -0.863 -0.075 -0.342 -0.113 -0.729 -0.113 -1.162 l 0 -5.662 1.514 -0.25 z m -6.588 1.125 c -0.4 0 -0.73 0.012 -0.988 0.037 l 0 2.949 0.762 0 c 0.758 0 1.342 -0.104 1.75 -0.313 0.408 -0.217 0.613 -0.621 0.613 -1.213 0 -0.283 -0.054 -0.519 -0.162 -0.711 c -0.108 -0.192 -0.26 -0.343 -0.451 -0.451 -0.192 -0.108 -0.421 -0.183 -0.688 -0.225 -0.258 -0.05 -0.536 -0.074 -0.836 -0.074 z m 11.1 5.455 c 0.508 0 0.892 0.165 1.15 0.494 0.262 0.325 0.393 0.785 0.393 1.381 0 0.842 -0.217 1.479 -0.65 1.912 -0.433 0.433 -1.096 0.652 -1.992 0.656 l -0.031 -0.631 c 0.25 0 0.474 -0.021 0.674 -0.063 0.204 -0.042 0.381 -0.108 0.531 -0.199 0.154 -0.092 0.285 -0.212 0.389 -0.357 0.104 -0.15 0.182 -0.332 0.236 -0.549 -0.1 0.046 -0.209 0.08 -0.33 0.105 -0.121 0.025 -0.239 0.037 -0.352 0.037 -0.258 0 -0.479 -0.033 -0.662 -0.1 -0.179 -0.071 -0.327 -0.166 -0.443 -0.287 -0.113 -0.125 -0.196 -0.269 -0.25 -0.432 -0.054 -0.163 -0.082 -0.338 -0.082 -0.525 0 -0.162 0.028 -0.326 0.082 -0.492 0.054 -0.171 0.139 -0.327 0.256 -0.469 0.117 -0.142 0.264 -0.256 0.443 -0.344 0.179 -0.092 0.393 -0.139 0.639 -0.139 z m 0.018 0.625 c -0.121 0 -0.225 0.026 -0.313 0.076 -0.083 0.05 -0.151 0.114 -0.205 0.193 -0.054 0.079 -0.094 0.164 -0.119 0.256 -0.025 0.092 -0.037 0.182 -0.037 0.27 0 0.254 0.061 0.445 0.182 0.574 0.125 0.129 0.318 0.193 0.58 0.193 0.121 0 0.241 -0.01 0.357 -0.031 0.117 -0.025 0.215 -0.06 0.299 -0.105 0.004 -0.046 0.006 -0.086 0.006 -0.119 l 0 -0.088 c 0 -0.167 -0.012 -0.323 -0.037 -0.469 -0.021 -0.15 -0.061 -0.278 -0.119 -0.387 -0.054 -0.113 -0.13 -0.201 -0.23 -0.264 -0.096 -0.067 -0.217 -0.1 -0.363 -0.1 z"/>
</svg>
