<svg xmlns="http://www.w3.org/2000/svg" viewBox="0 0 22 22">
 <path style="fill:#ececec;fill-opacity:1" d="m 3 1 c -1.108 0 -2 0.892 -2 2 l 0 16 c 0 1.108 0.892 2 2 2 l 16 0 c 1.108 0 2 -0.892 2 -2 l 0 -16 c 0 -1.108 -0.892 -2 -2 -2 l -16 0 z m -0.756 5.588 l 1.287 0 c 0.333 0.35 0.693 0.767 1.076 1.25 c 0.383 0.475 0.767 0.97 1.15 1.486 c 0.392 0.517 0.767 1.038 1.125 1.563 c 0.367 0.517 0.691 1 0.975 1.451 l 0 -5.75 l 1.563 0 l 0 8.662 l -1.338 0 c -0.283 -0.475 -0.599 -0.984 -0.949 -1.525 c -0.35 -0.55 -0.713 -1.1 -1.088 -1.65 c -0.375 -0.558 -0.759 -1.095 -1.15 -1.611 c -0.383 -0.525 -0.75 -0.995 -1.1 -1.412 l 0 6.199 l -1.551 0 l 0 -8.662 z m 11.254 1.963 c 0.458 0 0.878 0.083 1.262 0.25 c 0.392 0.158 0.725 0.388 1 0.688 c 0.275 0.3 0.487 0.661 0.637 1.086 c 0.158 0.417 0.238 0.884 0.238 1.4 c 0 0.517 -0.075 0.987 -0.225 1.412 c -0.15 0.425 -0.364 0.788 -0.639 1.088 c -0.275 0.3 -0.608 0.535 -1 0.701 c -0.383 0.167 -0.807 0.25 -1.273 0.25 c -0.467 0 -0.892 -0.083 -1.275 -0.25 c -0.383 -0.167 -0.713 -0.401 -0.988 -0.701 c -0.275 -0.3 -0.492 -0.663 -0.65 -1.088 c -0.15 -0.425 -0.225 -0.895 -0.225 -1.412 c 0 -0.517 0.075 -0.984 0.225 -1.4 c 0.158 -0.425 0.375 -0.786 0.65 -1.086 c 0.283 -0.3 0.617 -0.529 1 -0.688 c 0.383 -0.167 0.805 -0.25 1.264 -0.25 z m 0 1.313 c -0.5 0 -0.892 0.191 -1.176 0.574 c -0.275 0.375 -0.412 0.887 -0.412 1.537 c 0 0.658 0.137 1.179 0.412 1.563 c 0.283 0.383 0.676 0.576 1.176 0.576 c 0.5 0 0.887 -0.193 1.162 -0.576 c 0.283 -0.383 0.424 -0.904 0.424 -1.563 c 0 -0.65 -0.14 -1.162 -0.424 -1.537 c -0.275 -0.383 -0.662 -0.574 -1.162 -0.574 z m 3.363 3.555 l 2.895 0 l 0 0.576 c -0.137 0.154 -0.289 0.364 -0.451 0.631 c -0.162 0.267 -0.315 0.569 -0.461 0.906 c -0.146 0.333 -0.274 0.691 -0.383 1.074 c -0.104 0.383 -0.168 0.765 -0.193 1.145 l -0.775 0 c 0.025 -0.317 0.082 -0.65 0.17 -1 c 0.087 -0.35 0.193 -0.69 0.318 -1.02 c 0.129 -0.333 0.268 -0.642 0.418 -0.93 c 0.154 -0.292 0.307 -0.537 0.457 -0.732 l -1.994 0 l 0 -0.65 z"/>
</svg>
