<svg viewBox="0 0 24 24" xmlns="http://www.w3.org/2000/svg">
 <path d="m 4 2 c -1.108 0 -2 0.892 -2 2 l 0 16 c 0 1.108 0.892 2 2 2 l 16 0 c 1.108 0 2 -0.892 2 -2 l 0 -16 c 0 -1.108 -0.892 -2 -2 -2 l -16 0 z m 0.742 5.588 5.563 0 0 1.338 -3.986 0 0 2.137 3.549 0 0 1.313 -3.549 0 0 2.537 4.287 0 0 1.338 -5.863 0 0 -8.662 z m 9.35 1.963 c 0.383 0 0.75 0.036 1.1 0.111 0.35 0.067 0.614 0.135 0.789 0.201 l -0.275 1.225 c -0.167 -0.075 -0.38 -0.143 -0.639 -0.201 -0.258 -0.067 -0.557 -0.1 -0.898 -0.1 -0.308 0 -0.558 0.054 -0.75 0.162 -0.192 0.1 -0.289 0.26 -0.289 0.477 0 0.108 0.017 0.204 0.051 0.287 0.042 0.083 0.108 0.161 0.199 0.236 0.092 0.067 0.213 0.138 0.363 0.213 0.15 0.067 0.334 0.138 0.551 0.213 0.358 0.133 0.662 0.267 0.912 0.4 0.25 0.125 0.453 0.271 0.611 0.438 0.167 0.158 0.288 0.34 0.363 0.549 0.075 0.208 0.113 0.458 0.113 0.75 0 0.625 -0.235 1.101 -0.701 1.426 -0.458 0.317 -1.116 0.475 -1.975 0.475 -0.575 0 -1.037 -0.05 -1.387 -0.15 -0.35 -0.092 -0.597 -0.166 -0.738 -0.225 l 0.262 -1.262 c 0.225 0.092 0.492 0.178 0.801 0.262 0.317 0.083 0.674 0.125 1.074 0.125 0.4 0 0.692 -0.045 0.875 -0.137 0.183 -0.1 0.275 -0.267 0.275 -0.5 0 -0.217 -0.099 -0.395 -0.299 -0.537 -0.192 -0.142 -0.513 -0.296 -0.963 -0.463 -0.275 -0.1 -0.53 -0.204 -0.764 -0.313 -0.225 -0.117 -0.419 -0.25 -0.586 -0.4 -0.167 -0.15 -0.3 -0.329 -0.4 -0.537 -0.092 -0.217 -0.139 -0.479 -0.139 -0.787 0 -0.6 0.222 -1.072 0.664 -1.414 0.442 -0.35 1.04 -0.523 1.799 -0.523 z m 3.445 4.867 2.211 0 0 0.639 -1.568 0 c -0.004 0.071 -0.009 0.152 -0.018 0.244 -0.004 0.088 -0.011 0.176 -0.02 0.268 -0.004 0.092 -0.011 0.18 -0.02 0.264 -0.008 0.083 -0.015 0.153 -0.023 0.211 0.617 0.033 1.07 0.176 1.361 0.426 0.296 0.246 0.443 0.583 0.443 1.012 0 0.196 -0.033 0.378 -0.1 0.545 -0.067 0.167 -0.169 0.311 -0.307 0.432 -0.137 0.121 -0.309 0.216 -0.518 0.287 -0.208 0.067 -0.453 0.1 -0.732 0.1 -0.113 0 -0.227 -0.009 -0.344 -0.025 -0.117 -0.017 -0.228 -0.038 -0.336 -0.063 -0.104 -0.021 -0.198 -0.043 -0.281 -0.068 -0.083 -0.025 -0.146 -0.048 -0.188 -0.068 l 0.143 -0.639 c 0.087 0.042 0.212 0.089 0.375 0.139 0.167 0.046 0.37 0.068 0.607 0.068 0.163 0 0.301 -0.017 0.418 -0.051 0.117 -0.038 0.21 -0.086 0.281 -0.148 0.075 -0.063 0.129 -0.134 0.162 -0.213 0.033 -0.083 0.051 -0.172 0.051 -0.264 0 -0.137 -0.028 -0.259 -0.082 -0.367 -0.054 -0.108 -0.15 -0.2 -0.287 -0.275 -0.133 -0.075 -0.314 -0.132 -0.543 -0.17 -0.225 -0.038 -0.512 -0.055 -0.857 -0.055 0.046 -0.4 0.082 -0.78 0.107 -1.139 0.025 -0.363 0.046 -0.725 0.063 -1.088 z" style="fill:#ececec;fill-opacity:1"/>
</svg>
