<svg xmlns="http://www.w3.org/2000/svg" viewBox="0 0 24 24">
 <path d="m 4 2 c -1.108 0 -2 0.892 -2 2 l 0 16 c 0 1.108 0.892 2 2 2 l 16 0 c 1.108 0 2 -0.892 2 -2 l 0 -16 c 0 -1.108 -0.892 -2 -2 -2 l -16 0 z m 0.686 5.838 1.463 0 c 0.183 0.317 0.386 0.704 0.611 1.162 c 0.225 0.458 0.454 0.941 0.688 1.449 0.233 0.5 0.463 1.014 0.688 1.539 0.233 0.517 0.447 0.996 0.639 1.438 0.192 -0.442 0.4 -0.921 0.625 -1.438 0.225 -0.525 0.454 -1.039 0.688 -1.539 0.233 -0.508 0.463 -0.991 0.688 -1.449 0.225 -0.458 0.428 -0.845 0.611 -1.162 l 1.426 0 c 0.075 0.633 0.146 1.309 0.213 2.025 0.067 0.708 0.124 1.437 0.174 2.187 0.058 0.742 0.109 1.492 0.15 2.25 0.05 0.75 0.092 1.483 0.125 2.199 l -1.549 0 c -0.033 -1.01 -0.075 -2.047 -0.125 -3.113 -0.042 -1.067 -0.11 -2.1 -0.201 -3.1 -0.092 0.192 -0.199 0.421 -0.324 0.688 -0.125 0.267 -0.259 0.558 -0.4 0.875 -0.142 0.308 -0.287 0.63 -0.438 0.963 -0.142 0.333 -0.284 0.658 -0.426 0.975 -0.133 0.308 -0.258 0.6 -0.375 0.875 -0.117 0.267 -0.215 0.496 -0.299 0.688 l -1.176 0 c -0.083 -0.192 -0.182 -0.424 -0.299 -0.699 -0.117 -0.275 -0.247 -0.567 -0.389 -0.875 -0.133 -0.317 -0.274 -0.641 -0.424 -0.975 -0.142 -0.333 -0.284 -0.655 -0.426 -0.963 -0.142 -0.308 -0.275 -0.597 -0.4 -0.863 c -0.125 -0.275 -0.233 -0.504 -0.324 -0.688 -0.092 1 -0.163 2.033 -0.213 3.1 c -0.042 1.067 -0.08 2.105 -0.113 3.113 l -1.549 0 c 0.033 -0.717 0.07 -1.458 0.111 -2.225 0.05 -0.767 0.1 -1.525 0.15 -2.275 0.058 -0.758 0.121 -1.491 0.188 -2.199 0.067 -0.708 0.138 -1.363 0.213 -1.963 z m 9.709 2.125 1.613 0 c 0.083 0.35 0.184 0.728 0.301 1.137 0.125 0.408 0.257 0.825 0.398 1.25 0.142 0.417 0.293 0.833 0.451 1.25 0.158 0.417 0.316 0.804 0.475 1.162 0.267 -0.742 0.517 -1.528 0.75 -2.361 0.233 -0.842 0.445 -1.654 0.637 -2.438 l 1.563 0 c -0.675 2.483 -1.458 4.733 -2.35 6.75 -0.167 0.375 -0.337 0.696 -0.512 0.963 -0.175 0.267 -0.371 0.487 -0.588 0.662 -0.217 0.175 -0.458 0.3 -0.725 0.375 -0.267 0.083 -0.576 0.125 -0.926 0.125 -0.233 0 -0.466 -0.026 -0.699 -0.076 -0.225 -0.05 -0.397 -0.104 -0.514 -0.162 l 0.275 -1.213 c 0.3 0.117 0.597 0.176 0.889 0.176 0.392 0 0.695 -0.095 0.912 -0.287 0.225 -0.183 0.421 -0.472 0.588 -0.863 -0.475 -0.917 -0.933 -1.917 -1.375 -3 -0.433 -1.083 -0.822 -2.233 -1.164 -3.449 z" style="fill:#ececec;fill-opacity:1"/>
</svg>
