<svg xmlns="http://www.w3.org/2000/svg" viewBox="0 0 24 24">
 <path style="fill:#ececec;fill-opacity:1" d="m 4 2 c -1.108 0 -2 0.892 -2 2 l 0 16 c 0 1.108 0.892 2 2 2 l 16 0 c 1.108 0 2 -0.892 2 -2 l 0 -16 c 0 -1.108 -0.892 -2 -2 -2 l -16 0 z m -0.547 5.588 6.912 0 0 1.361 -2.662 0 0 7.301 -1.588 0 0 -7.301 -2.662 0 0 -1.361 z m 10.217 1.986 c 0.492 0 0.959 0.038 1.4 0.113 0.442 0.075 0.817 0.155 1.125 0.238 l 0 5.662 c 0 1.042 -0.265 1.804 -0.799 2.287 -0.525 0.483 -1.334 0.725 -2.426 0.725 -0.4 0 -0.792 -0.033 -1.176 -0.1 -0.375 -0.067 -0.715 -0.153 -1.023 -0.262 l 0.273 -1.289 c 0.258 0.108 0.55 0.197 0.875 0.264 0.333 0.067 0.693 0.1 1.076 0.1 0.608 0 1.04 -0.125 1.299 -0.375 0.258 -0.25 0.389 -0.622 0.389 -1.113 l 0 -0.25 c -0.15 0.075 -0.35 0.152 -0.6 0.227 -0.242 0.075 -0.521 0.111 -0.838 0.111 -0.417 0 -0.8 -0.066 -1.15 -0.199 c -0.342 -0.133 -0.637 -0.33 -0.887 -0.588 -0.242 -0.258 -0.435 -0.58 -0.576 -0.963 -0.133 -0.392 -0.199 -0.841 -0.199 -1.35 c 0 -0.475 0.071 -0.912 0.213 -1.313 0.15 -0.4 0.362 -0.742 0.637 -1.025 0.283 -0.283 0.625 -0.504 1.025 -0.662 0.4 -0.158 0.853 -0.238 1.361 -0.238 z m 0.014 1.264 c -0.55 0 -0.972 0.182 -1.264 0.549 -0.292 0.358 -0.438 0.834 -0.438 1.426 0 0.642 0.139 1.112 0.414 1.412 0.283 0.292 0.644 0.438 1.086 0.438 0.242 0 0.467 -0.033 0.676 -0.1 0.217 -0.067 0.392 -0.147 0.525 -0.238 l 0 -3.387 c -0.108 -0.025 -0.242 -0.046 -0.4 -0.062 -0.158 -0.025 -0.358 -0.037 -0.6 -0.037 z m 5.131 3.48 c 0.462 0 0.801 0.111 1.018 0.332 0.221 0.217 0.332 0.513 0.332 0.893 0 0.15 -0.031 0.299 -0.094 0.445 -0.063 0.142 -0.144 0.28 -0.244 0.418 -0.096 0.133 -0.207 0.265 -0.332 0.395 -0.125 0.125 -0.25 0.246 -0.375 0.367 -0.067 0.063 -0.141 0.139 -0.225 0.227 -0.083 0.087 -0.161 0.174 -0.236 0.262 -0.075 0.087 -0.141 0.173 -0.195 0.256 -0.054 0.079 -0.082 0.147 -0.086 0.201 l 1.924 0 0 0.637 -2.756 0 c -0.004 -0.033 -0.006 -0.073 -0.006 -0.119 l 0 -0.111 c 0 -0.2 0.031 -0.384 0.094 -0.551 0.067 -0.171 0.152 -0.329 0.256 -0.475 0.104 -0.146 0.22 -0.283 0.35 -0.412 0.129 -0.129 0.26 -0.258 0.389 -0.383 0.1 -0.096 0.195 -0.19 0.287 -0.281 0.092 -0.092 0.17 -0.18 0.236 -0.268 0.071 -0.092 0.128 -0.184 0.17 -0.275 0.042 -0.096 0.063 -0.193 0.063 -0.293 0 -0.217 -0.063 -0.371 -0.188 -0.463 -0.125 -0.092 -0.278 -0.139 -0.457 -0.139 -0.117 0 -0.224 0.017 -0.324 0.051 -0.1 0.033 -0.19 0.073 -0.27 0.119 -0.075 0.046 -0.141 0.093 -0.199 0.143 -0.058 0.046 -0.102 0.084 -0.131 0.113 l -0.375 -0.531 c 0.175 -0.167 0.378 -0.3 0.611 -0.4 0.238 -0.104 0.493 -0.156 0.764 -0.156 z"/>
</svg>
