<svg xmlns="http://www.w3.org/2000/svg" viewBox="0 0 24 24">
 <path d="m 4 2 c -1.108 0 -2 0.892 -2 2 l 0 16 c 0 1.108 0.892 2 2 2 l 16 0 c 1.108 0 2 -0.892 2 -2 l 0 -16 c 0 -1.108 -0.892 -2 -2 -2 l -16 0 z m 4.35 5.838 1.576 0 0 8.662 -1.576 0 0 -8.662 z m 5.687 1.963 c 0.383 0 0.75 0.036 1.1 0.111 0.35 0.067 0.612 0.135 0.787 0.201 l -0.273 1.225 c -0.167 -0.075 -0.38 -0.143 -0.639 -0.201 -0.258 -0.067 -0.559 -0.1 -0.9 -0.1 -0.308 0 -0.558 0.054 -0.75 0.162 -0.192 0.1 -0.287 0.26 -0.287 0.477 0 0.108 0.017 0.204 0.051 0.287 0.042 0.083 0.108 0.161 0.199 0.236 0.092 0.067 0.213 0.138 0.363 0.213 0.15 0.067 0.332 0.138 0.549 0.213 0.358 0.133 0.664 0.267 0.914 0.4 0.25 0.125 0.453 0.271 0.611 0.438 0.167 0.158 0.288 0.34 0.363 0.549 0.075 0.208 0.111 0.458 0.111 0.75 0 0.625 -0.233 1.101 -0.699 1.426 -0.458 0.317 -1.116 0.475 -1.975 0.475 -0.575 0 -1.039 -0.05 -1.389 -0.15 -0.35 -0.092 -0.595 -0.166 -0.736 -0.225 l 0.262 -1.262 c 0.225 0.092 0.492 0.178 0.801 0.262 0.317 0.083 0.674 0.125 1.074 0.125 0.4 0 0.692 -0.045 0.875 -0.137 0.183 -0.1 0.275 -0.267 0.275 -0.5 0 -0.217 -0.101 -0.395 -0.301 -0.537 -0.192 -0.142 -0.511 -0.296 -0.961 -0.463 -0.275 -0.1 -0.53 -0.204 -0.764 -0.313 -0.225 -0.117 -0.421 -0.25 -0.588 -0.4 -0.167 -0.15 -0.298 -0.329 -0.398 -0.537 -0.092 -0.217 -0.139 -0.479 -0.139 -0.787 0 -0.6 0.22 -1.072 0.662 -1.414 0.442 -0.35 1.042 -0.523 1.801 -0.523 z" style="fill:#ececec;fill-opacity:1"/>
</svg>
