<svg xmlns="http://www.w3.org/2000/svg" viewBox="0 0 24 24">
 <path style="fill:#ececec;fill-opacity:1" d="m 4 2 c -1.108 0 -2 0.892 -2 2 l 0 16 c 0 1.108 0.892 2 2 2 l 16 0 c 1.108 0 2 -0.892 2 -2 l 0 -16 c 0 -1.108 -0.892 -2 -2 -2 l -16 0 z m 8.674 4.551 0 3.236 c 0.167 -0.058 0.36 -0.109 0.576 -0.15 c 0.225 -0.042 0.445 -0.063 0.662 -0.063 0.525 0 0.959 0.077 1.301 0.227 0.35 0.142 0.628 0.345 0.836 0.611 0.208 0.258 0.354 0.571 0.438 0.938 0.092 0.367 0.139 0.775 0.139 1.225 l 0 3.676 -1.514 0 0 -3.438 c 0 -0.35 -0.024 -0.645 -0.074 -0.887 -0.042 -0.25 -0.116 -0.452 -0.225 -0.602 -0.1 -0.158 -0.237 -0.269 -0.412 -0.336 -0.175 -0.075 -0.392 -0.113 -0.65 -0.113 -0.2 0 -0.405 0.021 -0.613 0.063 -0.208 0.042 -0.363 0.08 -0.463 0.113 l 0 5.199 -1.512 0 0 -9.449 1.512 -0.25 z m -9.539 1.037 6.914 0 0 1.361 -2.664 0 0 7.301 -1.586 0 0 -7.301 -2.664 0 0 -1.361 z m 15.908 6.73 c 0.242 0 0.45 0.03 0.625 0.088 0.175 0.058 0.319 0.142 0.432 0.25 0.117 0.104 0.202 0.229 0.256 0.375 0.058 0.142 0.088 0.298 0.088 0.469 0 0.2 -0.055 0.379 -0.168 0.537 -0.108 0.158 -0.251 0.28 -0.426 0.363 0.225 0.079 0.411 0.209 0.557 0.393 0.15 0.183 0.225 0.42 0.225 0.707 0 0.192 -0.033 0.37 -0.1 0.537 -0.067 0.163 -0.169 0.305 -0.307 0.426 -0.137 0.117 -0.313 0.21 -0.525 0.281 -0.208 0.067 -0.458 0.1 -0.75 0.1 -0.113 0 -0.229 -0.009 -0.35 -0.025 -0.117 -0.012 -0.23 -0.032 -0.338 -0.057 -0.104 -0.021 -0.2 -0.043 -0.287 -0.068 -0.087 -0.029 -0.153 -0.055 -0.199 -0.08 l 0.15 -0.645 c 0.087 0.042 0.214 0.09 0.381 0.145 0.167 0.05 0.373 0.074 0.619 0.074 0.329 0 0.565 -0.063 0.711 -0.188 0.146 -0.129 0.219 -0.299 0.219 -0.512 0 -0.137 -0.028 -0.252 -0.086 -0.344 -0.054 -0.092 -0.132 -0.165 -0.232 -0.219 -0.096 -0.058 -0.209 -0.098 -0.338 -0.119 -0.125 -0.025 -0.257 -0.037 -0.398 -0.037 l -0.258 0 0 -0.613 0.313 0 c 0.096 0 0.193 -0.009 0.289 -0.025 0.1 -0.021 0.188 -0.054 0.268 -0.1 0.079 -0.05 0.143 -0.114 0.193 -0.193 0.05 -0.079 0.076 -0.182 0.076 -0.307 0 -0.1 -0.019 -0.185 -0.057 -0.256 -0.038 -0.071 -0.088 -0.13 -0.15 -0.176 -0.058 -0.046 -0.126 -0.079 -0.205 -0.1 -0.079 -0.021 -0.163 -0.031 -0.25 -0.031 -0.188 0 -0.354 0.03 -0.5 0.088 -0.146 0.054 -0.276 0.117 -0.389 0.188 l -0.275 -0.563 c 0.058 -0.037 0.13 -0.077 0.213 -0.119 0.083 -0.042 0.175 -0.082 0.275 -0.119 0.104 -0.037 0.215 -0.067 0.332 -0.088 0.117 -0.025 0.238 -0.037 0.367 -0.037 z"/>
</svg>
