<svg xmlns="http://www.w3.org/2000/svg" viewBox="0 0 24 24">
 <path style="fill:#ececec;fill-opacity:1" d="m 4 2 c -1.108 0 -2 0.892 -2 2 l 0 16 c 0 1.108 0.892 2 2 2 l 16 0 c 1.108 0 2 -0.892 2 -2 l 0 -16 c 0 -1.108 -0.892 -2 -2 -2 l -16 0 z m 4.361 5.387 c 0.4 0 0.754 0.03 1.063 0.088 0.317 0.05 0.587 0.109 0.812 0.176 0.225 0.067 0.409 0.138 0.551 0.213 0.15 0.075 0.254 0.129 0.313 0.162 l -0.475 1.287 c -0.25 -0.15 -0.563 -0.275 -0.938 -0.375 -0.367 -0.108 -0.756 -0.162 -1.164 -0.162 c -0.892 0 -1.574 0.28 -2.049 0.838 -0.467 0.55 -0.701 1.315 -0.701 2.299 0 0.467 0.056 0.895 0.164 1.287 0.117 0.383 0.283 0.713 0.5 0.988 0.225 0.275 0.499 0.492 0.824 0.65 0.333 0.15 0.72 0.225 1.162 0.225 0.275 0 0.513 -0.009 0.713 -0.025 0.2 -0.025 0.358 -0.055 0.475 -0.088 l 0 -3.111 1.576 0 0 4.162 c -0.217 0.083 -0.585 0.175 -1.102 0.275 -0.517 0.1 -1.112 0.15 -1.787 0.15 -0.625 0 -1.196 -0.101 -1.713 -0.301 c -0.517 -0.2 -0.958 -0.492 -1.324 -0.875 -0.358 -0.383 -0.638 -0.854 -0.838 -1.412 -0.2 -0.558 -0.299 -1.201 -0.299 -1.926 c 0 -0.725 0.108 -1.365 0.324 -1.924 0.225 -0.558 0.529 -1.031 0.912 -1.414 c 0.383 -0.392 0.833 -0.687 1.35 -0.887 0.517 -0.2 1.067 -0.301 1.65 -0.301 z m 7.133 2.188 c 0.1 0 0.216 0.009 0.35 0.025 0.133 0.008 0.267 0.026 0.4 0.051 0.133 0.017 0.262 0.041 0.387 0.074 0.125 0.025 0.226 0.051 0.301 0.076 l -0.262 1.273 c -0.125 -0.042 -0.3 -0.083 -0.525 -0.125 -0.217 -0.05 -0.472 -0.074 -0.764 -0.074 -0.167 0 -0.345 0.017 -0.537 0.051 -0.183 0.033 -0.312 0.061 -0.387 0.086 l 0 5.238 -1.514 0 0 -6.225 c 0.292 -0.108 0.655 -0.209 1.088 -0.301 0.442 -0.1 0.93 -0.15 1.463 -0.15 z m 3.643 4.844 0.719 0 0 2.676 0.486 0 0 0.619 -0.486 0 0 1.037 -0.738 0 0 -1.037 -1.9 0 0 -0.537 c 0.083 -0.183 0.195 -0.395 0.332 -0.633 0.142 -0.238 0.298 -0.48 0.469 -0.73 0.171 -0.25 0.351 -0.497 0.543 -0.738 0.192 -0.242 0.385 -0.46 0.576 -0.656 z m -0.02 0.932 c -0.1 0.121 -0.204 0.251 -0.313 0.389 -0.104 0.137 -0.207 0.28 -0.307 0.43 -0.1 0.15 -0.195 0.305 -0.287 0.463 -0.092 0.154 -0.175 0.309 -0.25 0.463 l 1.156 0 0 -1.744 z"/>
</svg>
