<svg viewBox="0 0 24 24" xmlns="http://www.w3.org/2000/svg">
 <path style="fill:#ececec;fill-opacity:1" d="m 4 2 c -1.108 0 -2 0.892 -2 2 l 0 16 c 0 1.108 0.892 2 2 2 l 16 0 c 1.108 0 2 -0.892 2 -2 l 0 -16 c 0 -1.108 -0.892 -2 -2 -2 l -16 0 z m 1.994 5.5 c 1.25 0 2.205 0.229 2.863 0.688 0.667 0.458 1 1.158 1 2.1 0 1.175 -0.58 1.972 -1.738 2.389 c 0.158 0.192 0.339 0.424 0.539 0.699 c 0.2 0.275 0.403 0.575 0.611 0.9 0.208 0.317 0.408 0.645 0.6 0.986 c 0.192 0.333 0.364 0.663 0.514 0.988 l -1.764 0 c -0.158 -0.3 -0.328 -0.6 -0.512 -0.9 -0.183 -0.308 -0.371 -0.603 -0.563 -0.887 -0.183 -0.292 -0.367 -0.563 -0.551 -0.813 -0.183 -0.258 -0.353 -0.488 -0.512 -0.688 -0.117 0.008 -0.217 0.012 -0.301 0.012 l -0.236 0 -0.764 0 0 3.275 -1.574 0 0 -8.537 c 0.383 -0.083 0.791 -0.137 1.225 -0.162 0.433 -0.033 0.82 -0.051 1.162 -0.051 z m 0.113 1.363 c -0.333 0 -0.642 0.012 -0.926 0.037 l 0 2.799 0.688 0 c 0.383 0 0.722 -0.021 1.014 -0.063 0.292 -0.042 0.533 -0.116 0.725 -0.225 0.2 -0.108 0.349 -0.254 0.449 -0.438 0.1 -0.183 0.15 -0.416 0.15 -0.699 0 -0.267 -0.05 -0.492 -0.15 -0.676 -0.1 -0.183 -0.246 -0.329 -0.438 -0.438 c -0.183 -0.108 -0.404 -0.183 -0.662 -0.225 -0.258 -0.05 -0.541 -0.074 -0.85 -0.074 z m 5.357 0.85 1.514 0 0 3.424 c 0 0.7 0.099 1.2 0.299 1.5 0.208 0.3 0.568 0.451 1.076 0.451 0.183 0 0.374 -0.009 0.574 -0.025 0.208 -0.017 0.363 -0.037 0.463 -0.063 l 0 -5.287 1.512 0 0 6.338 c -0.292 0.075 -0.67 0.15 -1.137 0.225 -0.467 0.083 -0.979 0.125 -1.537 0.125 -0.525 0 -0.968 -0.075 -1.326 -0.225 -0.35 -0.15 -0.633 -0.358 -0.85 -0.625 -0.208 -0.267 -0.358 -0.585 -0.449 -0.951 -0.092 -0.375 -0.139 -0.783 -0.139 -1.225 l 0 -3.662 z m 8.07 4.605 c 0.462 0 0.803 0.111 1.02 0.332 0.221 0.217 0.332 0.513 0.332 0.893 0 0.15 -0.031 0.299 -0.094 0.445 -0.063 0.142 -0.144 0.28 -0.244 0.418 -0.096 0.133 -0.207 0.265 -0.332 0.395 -0.125 0.125 -0.25 0.246 -0.375 0.367 -0.067 0.063 -0.141 0.139 -0.225 0.227 -0.083 0.087 -0.163 0.174 -0.238 0.262 -0.075 0.087 -0.139 0.173 -0.193 0.256 -0.054 0.079 -0.084 0.147 -0.088 0.201 l 1.926 0 0 0.637 -2.756 0 c -0.004 -0.033 -0.006 -0.073 -0.006 -0.119 l 0 -0.111 c 0 -0.2 0.031 -0.384 0.094 -0.551 0.067 -0.171 0.152 -0.329 0.256 -0.475 0.104 -0.146 0.22 -0.283 0.35 -0.412 0.129 -0.129 0.258 -0.258 0.387 -0.383 0.1 -0.096 0.197 -0.19 0.289 -0.281 0.092 -0.092 0.17 -0.18 0.236 -0.268 0.071 -0.092 0.128 -0.184 0.17 -0.275 0.042 -0.096 0.063 -0.193 0.063 -0.293 0 -0.217 -0.063 -0.371 -0.188 -0.463 -0.125 -0.092 -0.278 -0.139 -0.457 -0.139 -0.117 0 -0.224 0.017 -0.324 0.051 -0.1 0.033 -0.19 0.073 -0.27 0.119 -0.075 0.046 -0.141 0.093 -0.199 0.143 -0.058 0.046 -0.104 0.084 -0.133 0.113 l -0.375 -0.531 c 0.175 -0.167 0.38 -0.3 0.613 -0.4 0.238 -0.104 0.491 -0.156 0.762 -0.156 z"/>
</svg>
