<svg xmlns="http://www.w3.org/2000/svg" viewBox="0 0 24 24">
 <path d="m 4 2 c -1.108 0 -2 0.892 -2 2 l 0 16 c 0 1.108 0.892 2 2 2 l 16 0 c 1.108 0 2 -0.892 2 -2 l 0 -16 c 0 -1.108 -0.892 -2 -2 -2 l -16 0 z m 5 5.637 c 0.4 0 0.754 0.03 1.062 0.088 0.317 0.05 0.588 0.109 0.813 0.176 0.225 0.067 0.409 0.138 0.551 0.213 0.15 0.075 0.254 0.129 0.313 0.162 l -0.475 1.287 c -0.25 -0.15 -0.563 -0.275 -0.938 -0.375 c -0.367 -0.108 -0.754 -0.162 -1.162 -0.162 c -0.892 0 -1.576 0.28 -2.051 0.838 -0.467 0.55 -0.699 1.315 -0.699 2.299 0 0.467 0.054 0.895 0.162 1.287 0.117 0.383 0.283 0.713 0.5 0.988 0.225 0.275 0.499 0.492 0.824 0.65 0.333 0.15 0.72 0.225 1.162 0.225 0.275 0 0.513 -0.009 0.713 -0.025 0.2 -0.025 0.358 -0.055 0.475 -0.088 l 0 -3.111 1.576 0 0 4.162 c -0.217 0.083 -0.583 0.175 -1.1 0.275 -0.517 0.1 -1.114 0.15 -1.789 0.15 -0.625 0 -1.194 -0.101 -1.711 -0.301 c -0.517 -0.2 -0.96 -0.492 -1.326 -0.875 -0.358 -0.383 -0.638 -0.854 -0.838 -1.412 c -0.2 -0.558 -0.299 -1.201 -0.299 -1.926 0 -0.725 0.108 -1.365 0.324 -1.924 0.225 -0.558 0.529 -1.031 0.912 -1.414 c 0.383 -0.392 0.835 -0.687 1.352 -0.887 0.517 -0.2 1.065 -0.301 1.648 -0.301 z m 4.508 2.326 1.514 0 0 3.424 c 0 0.7 0.099 1.2 0.299 1.5 0.208 0.3 0.568 0.451 1.076 0.451 0.183 0 0.374 -0.009 0.574 -0.025 0.208 -0.017 0.363 -0.037 0.463 -0.063 l 0 -5.287 1.512 0 0 6.338 c -0.292 0.075 -0.67 0.15 -1.137 0.225 -0.467 0.083 -0.979 0.125 -1.537 0.125 -0.525 0 -0.968 -0.075 -1.326 -0.225 -0.35 -0.15 -0.633 -0.358 -0.85 -0.625 -0.208 -0.267 -0.358 -0.585 -0.449 -0.951 -0.092 -0.375 -0.139 -0.783 -0.139 -1.225 l 0 -3.662 z" style="fill:#ececec;fill-opacity:1"/>
</svg>
