<svg viewBox="0 0 24 24" xmlns="http://www.w3.org/2000/svg">
 <path style="fill:#ececec;fill-opacity:1" d="m 4 2 c -1.108 0 -2 0.892 -2 2 l 0 16 c 0 1.108 0.892 2 2 2 l 16 0 c 1.108 0 2 -0.892 2 -2 l 0 -16 c 0 -1.108 -0.892 -2 -2 -2 l -16 0 z m 3.336 5.637 c 0.542 0 1.021 0.063 1.438 0.188 0.425 0.117 0.758 0.247 1 0.389 l -0.488 1.275 c -0.283 -0.158 -0.596 -0.28 -0.938 -0.363 -0.333 -0.083 -0.679 -0.125 -1.037 -0.125 c -0.425 0 -0.758 0.087 -1 0.262 c -0.233 0.175 -0.35 0.422 -0.35 0.738 c 0 0.192 0.036 0.358 0.111 0.5 0.083 0.133 0.196 0.255 0.338 0.363 0.15 0.108 0.32 0.207 0.512 0.299 0.2 0.092 0.417 0.18 0.65 0.264 0.408 0.15 0.771 0.303 1.088 0.461 0.325 0.15 0.596 0.334 0.813 0.551 0.225 0.208 0.395 0.458 0.512 0.75 0.117 0.283 0.176 0.629 0.176 1.037 0 0.783 -0.28 1.393 -0.838 1.826 -0.55 0.425 -1.357 0.637 -2.424 0.637 -0.358 0 -0.688 -0.024 -0.988 -0.074 c -0.292 -0.042 -0.554 -0.097 -0.787 -0.164 -0.225 -0.067 -0.421 -0.133 -0.588 -0.199 -0.167 -0.075 -0.3 -0.141 -0.4 -0.199 l 0.463 -1.289 c 0.225 0.125 0.529 0.25 0.912 0.375 0.383 0.125 0.847 0.188 1.389 0.188 0.567 0 0.978 -0.095 1.236 -0.287 0.258 -0.192 0.389 -0.463 0.389 -0.813 0 -0.208 -0.047 -0.387 -0.139 -0.537 -0.083 -0.15 -0.208 -0.284 -0.375 -0.4 -0.158 -0.125 -0.355 -0.238 -0.588 -0.338 -0.233 -0.108 -0.499 -0.213 -0.799 -0.313 -0.3 -0.108 -0.592 -0.225 -0.875 -0.35 -0.275 -0.133 -0.522 -0.295 -0.738 -0.486 -0.208 -0.192 -0.378 -0.421 -0.512 -0.688 -0.125 -0.267 -0.188 -0.588 -0.188 -0.963 0 -0.783 0.271 -1.396 0.813 -1.838 0.542 -0.45 1.28 -0.676 2.213 -0.676 z m 3.35 2.326 1.6 0 c 0.075 0.35 0.164 0.728 0.264 1.137 0.1 0.4 0.204 0.813 0.313 1.238 0.108 0.417 0.221 0.825 0.338 1.225 0.117 0.4 0.233 0.766 0.35 1.1 0.125 -0.383 0.245 -0.779 0.361 -1.188 0.125 -0.408 0.243 -0.816 0.352 -1.225 0.108 -0.408 0.207 -0.804 0.299 -1.188 0.1 -0.392 0.189 -0.758 0.264 -1.1 l 1.162 0 c 0.075 0.342 0.158 0.708 0.25 1.1 0.092 0.383 0.187 0.779 0.287 1.188 0.108 0.408 0.221 0.816 0.338 1.225 0.125 0.408 0.25 0.804 0.375 1.188 0.108 -0.333 0.221 -0.7 0.338 -1.1 0.117 -0.4 0.228 -0.808 0.336 -1.225 0.117 -0.425 0.226 -0.838 0.326 -1.238 0.1 -0.408 0.187 -0.787 0.262 -1.137 l 1.563 0 c -0.175 0.642 -0.354 1.27 -0.537 1.887 -0.183 0.617 -0.367 1.205 -0.551 1.764 -0.183 0.558 -0.365 1.083 -0.549 1.574 -0.183 0.492 -0.362 0.929 -0.537 1.313 l -1.227 0 c -0.217 -0.617 -0.44 -1.271 -0.674 -1.963 -0.225 -0.7 -0.433 -1.417 -0.625 -2.15 -0.192 0.733 -0.4 1.45 -0.625 2.15 -0.217 0.692 -0.434 1.346 -0.65 1.963 l -1.238 0 c -0.167 -0.383 -0.34 -0.821 -0.523 -1.313 -0.183 -0.492 -0.367 -1.016 -0.551 -1.574 -0.183 -0.558 -0.367 -1.147 -0.551 -1.764 -0.183 -0.617 -0.362 -1.245 -0.537 -1.887 z"/>
</svg>
