<svg xmlns="http://www.w3.org/2000/svg" viewBox="0 0 24 24">
 <path style="fill:#ececec;fill-opacity:1" d="m 4 2 c -1.108 0 -2 0.892 -2 2 l 0 16 c 0 1.108 0.892 2 2 2 l 16 0 c 1.108 0 2 -0.892 2 -2 l 0 -16 c 0 -1.108 -0.892 -2 -2 -2 l -16 0 z m 5.502 5.637 c 0.567 0 1.105 0.097 1.613 0.289 0.508 0.192 0.949 0.478 1.324 0.861 0.383 0.383 0.687 0.859 0.912 1.426 0.225 0.558 0.338 1.208 0.338 1.949 0 0.742 -0.113 1.396 -0.338 1.963 -0.217 0.567 -0.515 1.042 -0.898 1.426 -0.375 0.375 -0.818 0.658 -1.326 0.85 -0.508 0.192 -1.05 0.287 -1.625 0.287 -0.575 0 -1.12 -0.095 -1.637 -0.287 c -0.508 -0.192 -0.955 -0.475 -1.338 -0.85 -0.375 -0.383 -0.675 -0.859 -0.9 -1.426 c -0.225 -0.567 -0.338 -1.221 -0.338 -1.963 0 -0.742 0.113 -1.391 0.338 -1.949 0.225 -0.567 0.529 -1.042 0.912 -1.426 c 0.392 -0.383 0.843 -0.67 1.352 -0.861 0.508 -0.192 1.045 -0.289 1.611 -0.289 z m -0.012 1.389 c -0.4 0 -0.76 0.075 -1.076 0.225 -0.317 0.15 -0.588 0.362 -0.813 0.637 -0.217 0.275 -0.383 0.605 -0.5 0.988 -0.117 0.383 -0.174 0.812 -0.174 1.287 0 0.475 0.057 0.909 0.174 1.301 0.117 0.383 0.283 0.711 0.5 0.986 0.225 0.267 0.496 0.475 0.813 0.625 0.317 0.15 0.676 0.227 1.076 0.227 0.392 0 0.746 -0.077 1.062 -0.227 0.317 -0.15 0.582 -0.358 0.799 -0.625 0.225 -0.275 0.397 -0.603 0.514 -0.986 0.117 -0.392 0.174 -0.826 0.174 -1.301 0 -0.475 -0.057 -0.904 -0.174 -1.287 c -0.117 -0.392 -0.289 -0.722 -0.514 -0.988 -0.217 -0.275 -0.482 -0.487 -0.799 -0.637 -0.317 -0.15 -0.671 -0.225 -1.062 -0.225 z m 8.391 0.799 c 0.1 0 0.216 0.009 0.35 0.025 0.133 0.008 0.267 0.026 0.4 0.051 0.133 0.017 0.262 0.041 0.387 0.074 0.125 0.025 0.226 0.051 0.301 0.076 l -0.264 1.273 c -0.125 -0.042 -0.298 -0.083 -0.523 -0.125 -0.217 -0.05 -0.472 -0.074 -0.764 -0.074 -0.167 0 -0.345 0.017 -0.537 0.051 -0.183 0.033 -0.312 0.061 -0.387 0.086 l 0 5.238 -1.514 0 0 -6.225 c 0.292 -0.108 0.655 -0.209 1.088 -0.301 0.442 -0.1 0.93 -0.15 1.463 -0.15 z"/>
</svg>
