<svg xmlns="http://www.w3.org/2000/svg" viewBox="0 0 24 24">
 <path d="m 4 2 c -1.108 0 -2 0.892 -2 2 l 0 16 c 0 1.108 0.892 2 2 2 l 16 0 c 1.108 0 2 -0.892 2 -2 l 0 -16 c 0 -1.108 -0.892 -2 -2 -2 l -16 0 z m 1.229 5.838 6.912 0 0 1.361 -2.662 0 0 7.301 -1.588 0 0 -7.301 -2.662 0 0 -1.361 z m 10.219 1.986 c 0.492 0 0.959 0.038 1.4 0.113 0.442 0.075 0.817 0.155 1.125 0.238 l 0 5.662 c 0 1.042 -0.267 1.804 -0.801 2.287 -0.525 0.483 -1.334 0.725 -2.426 0.725 -0.4 0 -0.79 -0.033 -1.174 -0.1 -0.375 -0.067 -0.717 -0.153 -1.025 -0.262 l 0.275 -1.289 c 0.258 0.108 0.55 0.197 0.875 0.264 0.333 0.067 0.691 0.1 1.074 0.1 0.608 0 1.042 -0.125 1.301 -0.375 0.258 -0.25 0.387 -0.622 0.387 -1.113 l 0 -0.25 c -0.15 0.075 -0.35 0.152 -0.6 0.227 -0.242 0.075 -0.521 0.111 -0.838 0.111 -0.417 0 -0.8 -0.066 -1.15 -0.199 c -0.342 -0.133 -0.637 -0.33 -0.887 -0.588 -0.242 -0.258 -0.433 -0.58 -0.574 -0.963 -0.133 -0.392 -0.201 -0.841 -0.201 -1.35 c 0 -0.475 0.071 -0.912 0.213 -1.313 0.15 -0.4 0.362 -0.742 0.637 -1.025 0.283 -0.283 0.625 -0.504 1.025 -0.662 0.4 -0.158 0.855 -0.238 1.363 -0.238 z m 0.012 1.264 c -0.55 0 -0.97 0.182 -1.262 0.549 -0.292 0.358 -0.438 0.834 -0.438 1.426 0 0.642 0.137 1.112 0.412 1.412 0.283 0.292 0.646 0.438 1.088 0.438 0.242 0 0.465 -0.033 0.674 -0.1 0.217 -0.067 0.392 -0.147 0.525 -0.238 l 0 -3.387 c -0.108 -0.025 -0.242 -0.046 -0.4 -0.063 -0.158 -0.025 -0.358 -0.037 -0.6 -0.037 z" style="fill:#ececec;fill-opacity:1"/>
</svg>
