<svg xmlns="http://www.w3.org/2000/svg" viewBox="0 0 24 24">
 <path d="m 4 2 c -1.108 0 -2 0.892 -2 2 l 0 16 c 0 1.108 0.892 2 2 2 l 16 0 c 1.108 0 2 -0.892 2 -2 l 0 -16 c 0 -1.108 -0.892 -2 -2 -2 l -16 0 z m 13.221 4.801 0 7.486 c 0 0.183 0.012 0.338 0.037 0.463 0.033 0.125 0.089 0.233 0.164 0.324 0.075 0.083 0.174 0.151 0.299 0.201 0.133 0.042 0.3 0.075 0.5 0.1 l -0.213 1.25 c -0.45 -0.008 -0.825 -0.059 -1.125 -0.15 -0.292 -0.092 -0.524 -0.22 -0.699 -0.387 -0.175 -0.175 -0.3 -0.389 -0.375 -0.639 -0.067 -0.258 -0.1 -0.55 -0.1 -0.875 l 0 -7.523 1.512 -0.25 z m -10.666 1.037 1.289 0 c 0.333 0.35 0.691 0.767 1.074 1.25 0.383 0.475 0.767 0.97 1.15 1.486 0.392 0.517 0.767 1.037 1.125 1.563 0.367 0.517 0.691 1 0.975 1.451 l 0 -5.75 1.563 0 0 8.662 -1.338 0 c -0.283 -0.475 -0.599 -0.984 -0.949 -1.525 -0.35 -0.55 -0.713 -1.1 -1.088 -1.65 -0.375 -0.558 -0.759 -1.095 -1.15 -1.611 -0.383 -0.525 -0.75 -0.995 -1.1 -1.412 l 0 6.199 -1.551 0 0 -8.662 z" style="fill:#ececec;fill-opacity:1"/>
</svg>
