<svg xmlns="http://www.w3.org/2000/svg" viewBox="0 0 24 24">
 <path d="m 4 2 c -1.108 0 -2 0.892 -2 2 l 0 16 c 0 1.108 0.892 2 2 2 l 16 0 c 1.108 0 2 -0.892 2 -2 l 0 -16 c 0 -1.108 -0.892 -2 -2 -2 l -16 0 z m 1.768 5.588 1.576 0 0 8.662 -1.576 0 0 -8.662 z m 6.275 1.986 c 0.533 0 0.98 0.077 1.338 0.227 0.358 0.142 0.641 0.345 0.85 0.611 0.217 0.258 0.366 0.576 0.449 0.951 0.092 0.367 0.139 0.769 0.139 1.211 l 0 3.676 -1.514 0 0 -3.438 c 0 -0.35 -0.024 -0.645 -0.074 -0.887 -0.042 -0.25 -0.116 -0.452 -0.225 -0.602 -0.1 -0.158 -0.242 -0.269 -0.426 -0.336 -0.175 -0.075 -0.392 -0.113 -0.65 -0.113 -0.192 0 -0.391 0.012 -0.6 0.037 -0.208 0.025 -0.363 0.046 -0.463 0.063 l 0 5.275 -1.512 0 0 -6.324 c 0.292 -0.083 0.67 -0.163 1.137 -0.238 0.467 -0.075 0.984 -0.113 1.551 -0.113 z m 5.799 4.844 0.719 0 0 2.676 0.488 0 0 0.619 -0.488 0 0 1.037 -0.736 0 0 -1.037 -1.9 0 0 -0.537 c 0.083 -0.183 0.193 -0.395 0.33 -0.633 0.142 -0.238 0.298 -0.48 0.469 -0.73 0.171 -0.25 0.353 -0.497 0.545 -0.738 0.192 -0.242 0.383 -0.46 0.574 -0.656 z m -0.018 0.932 c -0.1 0.121 -0.204 0.251 -0.313 0.389 -0.104 0.137 -0.207 0.28 -0.307 0.43 -0.1 0.15 -0.195 0.305 -0.287 0.463 -0.092 0.154 -0.175 0.309 -0.25 0.463 l 1.156 0 0 -1.744 z" style="fill:#ececec;fill-opacity:1"/>
</svg>
