<svg xmlns="http://www.w3.org/2000/svg" viewBox="0 0 24 24">
 <path style="fill:#ececec;fill-opacity:1" d="m 4 2 c -1.108 0 -2 0.892 -2 2 l 0 16 c 0 1.108 0.892 2 2 2 l 16 0 c 1.108 0 2 -0.892 2 -2 l 0 -16 c 0 -1.108 -0.892 -2 -2 -2 l -16 0 z m -0.344 5.588 1.574 0 0 3.574 c 0.275 -0.275 0.563 -0.567 0.863 -0.875 0.3 -0.317 0.595 -0.633 0.887 -0.949 0.3 -0.325 0.585 -0.637 0.852 -0.938 0.267 -0.3 0.508 -0.571 0.725 -0.813 l 1.887 0 c -0.275 0.317 -0.567 0.645 -0.875 0.986 -0.308 0.342 -0.624 0.689 -0.949 1.039 c -0.325 0.342 -0.655 0.682 -0.988 1.023 -0.325 0.342 -0.646 0.668 -0.963 0.977 0.35 0.267 0.704 0.579 1.063 0.938 0.367 0.35 0.726 0.728 1.076 1.137 0.35 0.4 0.683 0.82 1 1.262 0.325 0.433 0.62 0.867 0.887 1.301 l -1.861 0 c -0.217 -0.333 -0.467 -0.684 -0.75 -1.051 -0.283 -0.367 -0.584 -0.721 -0.9 -1.063 -0.308 -0.342 -0.63 -0.666 -0.963 -0.975 -0.333 -0.308 -0.663 -0.574 -0.988 -0.799 l 0 3.887 -1.574 0 0 -8.662 z m 7.76 2.125 1.514 0 0 3.424 c 0 0.7 0.099 1.2 0.299 1.5 0.208 0.3 0.568 0.451 1.076 0.451 0.183 0 0.374 -0.009 0.574 -0.025 c 0.208 -0.017 0.363 -0.038 0.463 -0.063 l 0 -5.287 1.512 0 0 6.338 c -0.292 0.075 -0.67 0.15 -1.137 0.225 -0.467 0.083 -0.979 0.125 -1.537 0.125 -0.525 0 -0.968 -0.075 -1.326 -0.225 -0.35 -0.15 -0.633 -0.358 -0.85 -0.625 -0.208 -0.267 -0.358 -0.585 -0.449 -0.951 -0.092 -0.375 -0.139 -0.783 -0.139 -1.225 l 0 -3.662 z m 9.363 4.682 0.043 0.625 c -0.225 0.004 -0.435 0.028 -0.631 0.074 -0.196 0.042 -0.371 0.108 -0.525 0.199 -0.154 0.092 -0.288 0.212 -0.4 0.357 -0.108 0.146 -0.192 0.325 -0.25 0.537 0.204 -0.096 0.428 -0.145 0.67 -0.145 0.258 0 0.477 0.038 0.656 0.113 0.183 0.071 0.331 0.168 0.443 0.293 0.113 0.125 0.194 0.271 0.244 0.438 0.054 0.163 0.08 0.335 0.08 0.514 0 0.163 -0.028 0.329 -0.086 0.5 -0.054 0.171 -0.143 0.327 -0.264 0.469 -0.117 0.137 -0.264 0.252 -0.443 0.344 -0.179 0.087 -0.391 0.131 -0.637 0.131 -0.496 0 -0.876 -0.163 -1.139 -0.488 c -0.258 -0.329 -0.387 -0.78 -0.387 -1.355 c 0 -0.417 0.061 -0.785 0.182 -1.105 0.125 -0.325 0.298 -0.599 0.523 -0.82 0.229 -0.221 0.505 -0.387 0.826 -0.5 0.325 -0.117 0.69 -0.176 1.094 -0.18 z m -1.188 2.25 c -0.121 0 -0.237 0.01 -0.35 0.031 -0.113 0.021 -0.215 0.052 -0.307 0.094 -0.004 0.033 -0.009 0.07 -0.014 0.111 l 0 0.113 c 0 0.167 0.01 0.325 0.031 0.475 0.025 0.146 0.065 0.274 0.119 0.387 0.058 0.108 0.137 0.197 0.232 0.264 0.1 0.063 0.221 0.094 0.367 0.094 0.121 0 0.223 -0.026 0.307 -0.076 0.087 -0.05 0.159 -0.114 0.213 -0.193 0.054 -0.079 0.094 -0.164 0.119 -0.256 0.025 -0.096 0.037 -0.188 0.037 -0.275 0 -0.25 -0.061 -0.439 -0.182 -0.568 c -0.121 -0.133 -0.312 -0.199 -0.574 -0.199 z"/>
</svg>
