<svg viewBox="0 0 24 24" xmlns="http://www.w3.org/2000/svg">
 <path d="m 4 2 c -1.108 0 -2 0.892 -2 2 l 0 16 c 0 1.108 0.892 2 2 2 l 16 0 c 1.108 0 2 -0.892 2 -2 l 0 -16 c 0 -1.108 -0.892 -2 -2 -2 l -16 0 z m 16.295 4.801 0 9.5 c -0.3 0.092 -0.68 0.175 -1.139 0.25 -0.45 0.075 -0.924 0.111 -1.424 0.111 -0.517 0 -0.98 -0.078 -1.389 -0.236 c -0.408 -0.158 -0.757 -0.384 -1.049 -0.676 -0.283 -0.3 -0.506 -0.658 -0.664 -1.074 -0.15 -0.425 -0.225 -0.901 -0.225 -1.426 c 0 -0.517 0.063 -0.984 0.188 -1.4 0.133 -0.425 0.326 -0.788 0.576 -1.088 0.25 -0.3 0.554 -0.529 0.912 -0.688 0.358 -0.167 0.77 -0.25 1.236 -0.25 0.317 0 0.596 0.038 0.838 0.113 0.242 0.075 0.45 0.158 0.625 0.25 l 0 -3.137 1.514 -0.25 z m -16.09 1.037 1.463 0 c 0.183 0.317 0.388 0.704 0.613 1.162 c 0.225 0.458 0.454 0.941 0.688 1.449 0.233 0.5 0.463 1.014 0.688 1.539 0.233 0.517 0.445 0.996 0.637 1.438 0.192 -0.442 0.4 -0.921 0.625 -1.438 0.225 -0.525 0.454 -1.039 0.688 -1.539 0.233 -0.508 0.463 -0.991 0.688 -1.449 0.225 -0.458 0.43 -0.845 0.613 -1.162 l 1.424 0 c 0.075 0.633 0.146 1.309 0.213 2.025 0.067 0.708 0.126 1.437 0.176 2.187 0.058 0.742 0.107 1.492 0.148 2.25 0.05 0.75 0.092 1.483 0.125 2.199 l -1.549 0 c -0.033 -1.01 -0.075 -2.047 -0.125 -3.113 -0.042 -1.067 -0.11 -2.1 -0.201 -3.1 -0.092 0.192 -0.199 0.421 -0.324 0.688 -0.125 0.267 -0.259 0.558 -0.4 0.875 -0.142 0.308 -0.287 0.63 -0.437 0.963 -0.142 0.333 -0.282 0.658 -0.424 0.975 -0.133 0.308 -0.258 0.6 -0.375 0.875 -0.117 0.267 -0.217 0.496 -0.301 0.688 l -1.176 0 c -0.083 -0.192 -0.182 -0.424 -0.299 -0.699 -0.117 -0.275 -0.247 -0.567 -0.389 -0.875 -0.133 -0.317 -0.274 -0.641 -0.424 -0.975 -0.142 -0.333 -0.284 -0.655 -0.426 -0.963 -0.142 -0.308 -0.275 -0.597 -0.4 -0.863 c -0.125 -0.275 -0.233 -0.504 -0.324 -0.688 -0.092 1 -0.163 2.033 -0.213 3.1 c -0.042 1.067 -0.078 2.105 -0.111 3.113 l -1.551 0 c 0.033 -0.717 0.072 -1.458 0.113 -2.225 0.05 -0.767 0.098 -1.525 0.148 -2.275 0.058 -0.758 0.121 -1.491 0.188 -2.199 0.067 -0.708 0.138 -1.363 0.213 -1.963 z m 13.336 3.287 c -0.55 0 -0.955 0.188 -1.213 0.563 -0.25 0.375 -0.375 0.884 -0.375 1.525 0 0.667 0.158 1.191 0.475 1.574 0.317 0.375 0.754 0.563 1.313 0.563 0.242 0 0.447 -0.009 0.613 -0.025 0.175 -0.025 0.315 -0.049 0.424 -0.074 l 0 -3.75 c -0.133 -0.092 -0.312 -0.175 -0.537 -0.25 -0.217 -0.083 -0.449 -0.125 -0.699 -0.125 z" style="fill:#ececec;fill-opacity:1"/>
</svg>
