<svg viewBox="0 0 24 24" xmlns="http://www.w3.org/2000/svg">
 <path d="m 4 2 c -1.108 0 -2 0.892 -2 2 l 0 16 c 0 1.108 0.892 2 2 2 l 16 0 c 1.108 0 2 -0.892 2 -2 l 0 -16 c 0 -1.108 -0.892 -2 -2 -2 l -16 0 z m -0.725 5.588 1.287 0 c 0.333 0.35 0.693 0.767 1.076 1.25 0.383 0.475 0.767 0.97 1.15 1.486 0.392 0.517 0.767 1.037 1.125 1.563 0.367 0.517 0.691 1 0.975 1.451 l 0 -5.75 1.563 0 0 8.662 -1.338 0 c -0.283 -0.475 -0.599 -0.984 -0.949 -1.525 c -0.35 -0.55 -0.713 -1.1 -1.088 -1.65 -0.375 -0.558 -0.759 -1.095 -1.15 -1.611 -0.383 -0.525 -0.75 -0.995 -1.1 -1.412 l 0 6.199 -1.551 0 0 -8.662 z m 11.254 1.963 c 0.458 0 0.878 0.083 1.262 0.25 0.392 0.158 0.725 0.387 1 0.688 0.275 0.3 0.487 0.661 0.637 1.086 0.158 0.417 0.238 0.884 0.238 1.4 0 0.517 -0.075 0.987 -0.225 1.412 -0.15 0.425 -0.364 0.788 -0.639 1.088 -0.275 0.3 -0.608 0.535 -1 0.701 -0.383 0.167 -0.807 0.25 -1.273 0.25 -0.467 0 -0.892 -0.083 -1.275 -0.25 -0.383 -0.167 -0.713 -0.401 -0.988 -0.701 -0.275 -0.3 -0.492 -0.663 -0.65 -1.088 -0.15 -0.425 -0.225 -0.895 -0.225 -1.412 0 -0.517 0.075 -0.984 0.225 -1.4 0.158 -0.425 0.375 -0.786 0.65 -1.086 0.283 -0.3 0.617 -0.529 1 -0.688 0.383 -0.167 0.805 -0.25 1.264 -0.25 z m 0 1.313 c -0.5 0 -0.892 0.191 -1.176 0.574 -0.275 0.375 -0.412 0.887 -0.412 1.537 0 0.658 0.137 1.179 0.412 1.563 0.283 0.383 0.676 0.576 1.176 0.576 0.5 0 0.887 -0.193 1.162 -0.576 0.283 -0.383 0.424 -0.904 0.424 -1.563 0 -0.65 -0.14 -1.162 -0.424 -1.537 -0.275 -0.383 -0.662 -0.574 -1.162 -0.574 z m 3.826 3.555 2.213 0 0 0.639 -1.568 0 c -0.004 0.071 -0.011 0.152 -0.02 0.244 -0.004 0.088 -0.011 0.176 -0.02 0.268 -0.004 0.092 -0.009 0.18 -0.018 0.264 -0.008 0.083 -0.017 0.153 -0.025 0.211 0.617 0.033 1.072 0.176 1.363 0.426 0.296 0.246 0.443 0.583 0.443 1.012 0 0.196 -0.033 0.378 -0.1 0.545 -0.067 0.167 -0.169 0.311 -0.307 0.432 -0.137 0.121 -0.311 0.216 -0.52 0.287 -0.208 0.067 -0.451 0.1 -0.73 0.1 -0.113 0 -0.227 -0.009 -0.344 -0.025 -0.117 -0.017 -0.23 -0.038 -0.338 -0.063 -0.104 -0.021 -0.198 -0.043 -0.281 -0.068 -0.083 -0.025 -0.146 -0.048 -0.188 -0.068 l 0.145 -0.639 c 0.087 0.042 0.212 0.089 0.375 0.139 0.167 0.046 0.368 0.068 0.605 0.068 0.163 0 0.301 -0.017 0.418 -0.051 0.117 -0.038 0.21 -0.086 0.281 -0.148 0.075 -0.063 0.131 -0.134 0.164 -0.213 0.033 -0.083 0.049 -0.172 0.049 -0.264 0 -0.137 -0.026 -0.259 -0.08 -0.367 -0.054 -0.108 -0.152 -0.2 -0.289 -0.275 -0.133 -0.075 -0.314 -0.132 -0.543 -0.17 -0.225 -0.038 -0.51 -0.055 -0.855 -0.055 0.046 -0.4 0.08 -0.78 0.105 -1.139 0.025 -0.363 0.046 -0.725 0.063 -1.088 z" style="fill:#ececec;fill-opacity:1"/>
</svg>
