<svg xmlns="http://www.w3.org/2000/svg" viewBox="0 0 24 24">
 <path d="M 8,3 C 7.446,3 7,3.446 7,4 L 7,5 6.75,5 C 5.7805,5 5,5.7805 5,6.75 L 5,7 4,7 C 3.446,7 3,7.446 3,8 3,8.554 3.446,9 4,9 l 1,0 0,2 -1,0 c -0.554,0 -1,0.446 -1,1 0,0.554 0.446,1 1,1 l 1,0 0,2 -1,0 c -0.554,0 -1,0.446 -1,1 0,0.554 0.446,1 1,1 l 1,0 0,0.25 C 5,18.2195 5.7805,19 6.75,19 L 7,19 7,20 c 0,0.554 0.446,1 1,1 0.554,0 1,-0.446 1,-1 l 0,-1 2,0 0,1 c 0,0.554 0.446,1 1,1 0.554,0 1,-0.446 1,-1 l 0,-1 2,0 0,1 c 0,0.554 0.446,1 1,1 0.554,0 1,-0.446 1,-1 l 0,-1 0.25,0 C 18.2195,19 19,18.2195 19,17.25 l 0,-0.25 1,0 c 0.554,0 1,-0.446 1,-1 0,-0.554 -0.446,-1 -1,-1 l -1,0 0,-2 1,0 c 0.554,0 1,-0.446 1,-1 0,-0.554 -0.446,-1 -1,-1 l -1,0 0,-2 1,0 C 20.554,9 21,8.554 21,8 21,7.446 20.554,7 20,7 L 19,7 19,6.75 C 19,5.7805 18.2195,5 17.25,5 L 17,5 17,4 C 17,3.446 16.554,3 16,3 15.446,3 15,3.446 15,4 l 0,1 -2,0 0,-1 C 13,3.446 12.554,3 12,3 11.446,3 11,3.446 11,4 L 11,5 9,5 9,4 C 9,3.446 8.554,3 8,3 z m -0.15625,4 8.3125,0 C 16.617917,7 17,7.3820833 17,7.84375 l 0,8.3125 C 17,16.617917 16.617917,17 16.15625,17 l -8.3125,0 C 7.3820833,17 7,16.617917 7,16.15625 L 7,7.84375 C 7,7.3820833 7.3820833,7 7.84375,7 z" style="fill:#ececec;fill-opacity:1;stroke:none;fill-rule:evenodd"/>
 <path d="m 8.6,14 6.8,0 c 0.3324,0 0.6,0.2676 0.6,0.6 l 0,0.8 C 16,15.7324 15.7324,16 15.4,16 L 8.6,16 C 8.2676,16 8,15.7324 8,15.4 L 8,14.6 C 8,14.2676 8.2676,14 8.6,14 z" style="fill:#ececec;fill-opacity:1;stroke:none;fill-rule:evenodd"/>
</svg>
