<svg viewBox="0 0 24 24" xmlns="http://www.w3.org/2000/svg">
 <path d="m 4 2 c -1.108 0 -2 0.892 -2 2 l 0 16 c 0 1.108 0.892 2 2 2 l 16 0 c 1.108 0 2 -0.892 2 -2 l 0 -16 c 0 -1.108 -0.892 -2 -2 -2 l -16 0 z m 2.961 5.588 1.488 0 c 0.292 0.617 0.575 1.242 0.85 1.875 0.275 0.633 0.551 1.3 0.826 2 0.283 0.7 0.57 1.441 0.861 2.225 0.3 0.783 0.613 1.637 0.938 2.563 l -1.699 0 c -0.117 -0.342 -0.238 -0.678 -0.363 -1.012 -0.125 -0.333 -0.245 -0.675 -0.361 -1.025 l -3.65 0 c -0.117 0.35 -0.238 0.695 -0.363 1.037 l -0.35 1 l -1.637 0 c 0.325 -0.925 0.632 -1.779 0.924 -2.563 0.292 -0.783 0.575 -1.525 0.85 -2.225 0.283 -0.7 0.563 -1.367 0.838 -2 0.275 -0.633 0.558 -1.258 0.85 -1.875 z m 0.713 1.674 c -0.192 0.442 -0.412 0.98 -0.662 1.613 -0.242 0.633 -0.495 1.321 -0.762 2.063 l 2.85 0 c -0.267 -0.742 -0.525 -1.433 -0.775 -2.074 -0.25 -0.642 -0.467 -1.177 -0.65 -1.602 z m 7.82 0.313 c 0.1 0 0.216 0.009 0.35 0.025 0.133 0.008 0.267 0.026 0.4 0.051 0.133 0.017 0.262 0.041 0.387 0.074 0.125 0.025 0.226 0.051 0.301 0.076 l -0.262 1.273 c -0.125 -0.042 -0.3 -0.083 -0.525 -0.125 -0.217 -0.05 -0.472 -0.074 -0.764 -0.074 -0.167 0 -0.345 0.017 -0.537 0.051 -0.183 0.033 -0.312 0.061 -0.387 0.086 l 0 5.238 -1.514 0 0 -6.225 c 0.292 -0.108 0.655 -0.209 1.088 -0.301 0.442 -0.1 0.93 -0.15 1.463 -0.15 z m 3.086 4.744 c 0.242 0 0.45 0.03 0.625 0.088 0.175 0.058 0.319 0.142 0.432 0.25 0.117 0.104 0.202 0.229 0.256 0.375 0.058 0.142 0.088 0.298 0.088 0.469 0 0.2 -0.057 0.379 -0.17 0.537 -0.108 0.158 -0.249 0.28 -0.424 0.363 0.225 0.079 0.409 0.209 0.555 0.393 0.15 0.183 0.227 0.42 0.227 0.707 0 0.192 -0.035 0.37 -0.102 0.537 -0.067 0.163 -0.167 0.305 -0.305 0.426 -0.137 0.117 -0.313 0.21 -0.525 0.281 -0.208 0.067 -0.458 0.1 -0.75 0.1 -0.113 0 -0.229 -0.009 -0.35 -0.025 -0.117 -0.012 -0.23 -0.032 -0.338 -0.057 -0.104 -0.021 -0.2 -0.043 -0.287 -0.068 -0.087 -0.029 -0.155 -0.055 -0.201 -0.08 l 0.15 -0.645 c 0.087 0.042 0.214 0.09 0.381 0.145 0.167 0.05 0.373 0.074 0.619 0.074 0.329 0 0.567 -0.063 0.713 -0.188 0.146 -0.129 0.219 -0.299 0.219 -0.512 0 -0.137 -0.03 -0.252 -0.088 -0.344 -0.054 -0.092 -0.13 -0.165 -0.23 -0.219 -0.096 -0.058 -0.209 -0.098 -0.338 -0.119 -0.125 -0.025 -0.259 -0.037 -0.4 -0.037 l -0.256 0 0 -0.613 0.313 0 c 0.096 0 0.191 -0.009 0.287 -0.025 0.1 -0.021 0.19 -0.054 0.27 -0.1 0.079 -0.05 0.143 -0.114 0.193 -0.193 0.05 -0.079 0.074 -0.182 0.074 -0.307 0 -0.1 -0.019 -0.185 -0.057 -0.256 -0.038 -0.071 -0.086 -0.13 -0.148 -0.176 -0.058 -0.046 -0.128 -0.079 -0.207 -0.1 -0.079 -0.021 -0.163 -0.031 -0.25 -0.031 -0.188 0 -0.354 0.03 -0.5 0.088 -0.146 0.054 -0.274 0.117 -0.387 0.188 l -0.275 -0.563 c 0.058 -0.037 0.13 -0.077 0.213 -0.119 0.083 -0.042 0.173 -0.082 0.273 -0.119 0.104 -0.037 0.215 -0.067 0.332 -0.088 0.117 -0.025 0.24 -0.037 0.369 -0.037 z" style="fill:#ececec;fill-opacity:1"/>
</svg>
