<svg viewBox="0 0 24 24" xmlns="http://www.w3.org/2000/svg">
 <path style="fill:#ececec;fill-opacity:1" d="m 4 2 c -1.108 0 -2 0.892 -2 2 l 0 16 c 0 1.108 0.892 2 2 2 l 16 0 c 1.108 0 2 -0.892 2 -2 l 0 -16 c 0 -1.108 -0.892 -2 -2 -2 l -16 0 z m -0.137 5.588 1.576 0 0 3.574 c 0.275 -0.275 0.561 -0.567 0.861 -0.875 0.3 -0.317 0.597 -0.633 0.889 -0.949 0.3 -0.325 0.583 -0.637 0.85 -0.938 0.267 -0.3 0.508 -0.571 0.725 -0.813 l 1.889 0 c -0.275 0.317 -0.567 0.645 -0.875 0.986 -0.308 0.342 -0.626 0.689 -0.951 1.039 -0.325 0.342 -0.653 0.682 -0.986 1.023 -0.325 0.342 -0.646 0.668 -0.963 0.977 0.35 0.267 0.704 0.579 1.063 0.938 0.367 0.35 0.724 0.728 1.074 1.137 0.35 0.4 0.683 0.82 1 1.262 0.325 0.433 0.622 0.867 0.889 1.301 l -1.863 0 c -0.217 -0.333 -0.467 -0.684 -0.75 -1.051 -0.283 -0.367 -0.584 -0.721 -0.9 -1.063 -0.308 -0.342 -0.63 -0.666 -0.963 -0.975 -0.333 -0.308 -0.661 -0.574 -0.986 -0.799 l 0 3.887 -1.576 0 0 -8.662 z m 10.23 1.963 c 0.5 0 0.92 0.063 1.262 0.188 0.342 0.125 0.613 0.298 0.813 0.523 0.208 0.225 0.354 0.501 0.438 0.826 0.092 0.317 0.139 0.665 0.139 1.049 l 0 3.963 c -0.233 0.05 -0.587 0.109 -1.063 0.176 -0.467 0.075 -0.996 0.111 -1.588 0.111 -0.392 0 -0.749 -0.036 -1.074 -0.111 -0.325 -0.075 -0.605 -0.197 -0.838 -0.363 -0.225 -0.167 -0.404 -0.384 -0.537 -0.65 -0.125 -0.267 -0.188 -0.595 -0.188 -0.986 0 -0.375 0.069 -0.693 0.211 -0.951 0.15 -0.258 0.352 -0.467 0.602 -0.625 0.25 -0.167 0.536 -0.283 0.861 -0.35 0.333 -0.075 0.679 -0.111 1.037 -0.111 0.167 0 0.342 0.012 0.525 0.037 0.183 0.017 0.38 0.05 0.588 0.1 l 0 -0.25 c 0 -0.175 -0.021 -0.342 -0.063 -0.5 -0.042 -0.158 -0.116 -0.295 -0.225 -0.412 -0.1 -0.125 -0.237 -0.22 -0.412 -0.287 -0.167 -0.067 -0.38 -0.102 -0.639 -0.102 -0.35 0 -0.671 0.026 -0.963 0.076 -0.292 0.05 -0.528 0.107 -0.711 0.174 l -0.188 -1.225 c 0.192 -0.067 0.469 -0.133 0.836 -0.199 0.367 -0.067 0.759 -0.1 1.176 -0.1 z m 0.301 3.773 c -0.167 0 -0.339 0.014 -0.514 0.039 -0.167 0.025 -0.321 0.07 -0.463 0.137 -0.133 0.067 -0.241 0.162 -0.324 0.287 -0.083 0.117 -0.125 0.268 -0.125 0.451 0 0.358 0.113 0.608 0.338 0.75 0.225 0.133 0.529 0.199 0.912 0.199 0.467 0 0.821 -0.024 1.063 -0.074 l 0 -1.676 c -0.083 -0.025 -0.205 -0.049 -0.363 -0.074 -0.158 -0.025 -0.332 -0.039 -0.523 -0.039 z m 4.883 0.994 c 0.462 0 0.803 0.111 1.02 0.332 0.221 0.217 0.33 0.513 0.33 0.893 0 0.15 -0.031 0.299 -0.094 0.445 -0.063 0.142 -0.142 0.28 -0.242 0.418 -0.096 0.133 -0.207 0.265 -0.332 0.395 -0.125 0.125 -0.25 0.246 -0.375 0.367 -0.067 0.063 -0.141 0.139 -0.225 0.227 -0.083 0.087 -0.163 0.174 -0.238 0.262 -0.075 0.087 -0.139 0.173 -0.193 0.256 -0.054 0.079 -0.084 0.147 -0.088 0.201 l 1.926 0 0 0.637 -2.756 0 c -0.004 -0.033 -0.008 -0.073 -0.008 -0.119 l 0 -0.111 c 0 -0.2 0.031 -0.384 0.094 -0.551 0.067 -0.171 0.154 -0.329 0.258 -0.475 0.104 -0.146 0.22 -0.283 0.35 -0.412 0.129 -0.129 0.258 -0.258 0.387 -0.383 0.1 -0.096 0.195 -0.19 0.287 -0.281 0.092 -0.092 0.172 -0.18 0.238 -0.268 0.071 -0.092 0.126 -0.184 0.168 -0.275 0.042 -0.096 0.063 -0.193 0.063 -0.293 0 -0.217 -0.063 -0.371 -0.188 -0.463 -0.125 -0.092 -0.276 -0.139 -0.455 -0.139 -0.117 0 -0.226 0.017 -0.326 0.051 -0.1 0.033 -0.188 0.073 -0.268 0.119 -0.075 0.046 -0.143 0.093 -0.201 0.143 -0.058 0.046 -0.102 0.084 -0.131 0.113 l -0.375 -0.531 c 0.175 -0.167 0.38 -0.3 0.613 -0.4 0.238 -0.104 0.491 -0.156 0.762 -0.156 z"/>
</svg>
