<svg xmlns="http://www.w3.org/2000/svg" viewBox="0 0 24 24">
 <path d="m 4 2 c -1.108 0 -2 0.892 -2 2 l 0 16 c 0 1.108 0.892 2 2 2 l 16 0 c 1.108 0 2 -0.892 2 -2 l 0 -16 c 0 -1.108 -0.892 -2 -2 -2 l -16 0 z m 0.742 5.588 5.563 0 0 1.338 -3.986 0 0 2.137 3.549 0 0 1.313 -3.549 0 0 2.537 4.287 0 0 1.338 -5.863 0 0 -8.662 z m 9.35 1.963 c 0.383 0 0.75 0.036 1.1 0.111 0.35 0.067 0.614 0.135 0.789 0.201 l -0.275 1.225 c -0.167 -0.075 -0.38 -0.143 -0.639 -0.201 -0.258 -0.067 -0.557 -0.1 -0.898 -0.1 -0.308 0 -0.558 0.054 -0.75 0.162 -0.192 0.1 -0.289 0.26 -0.289 0.477 0 0.108 0.017 0.204 0.051 0.287 0.042 0.083 0.108 0.161 0.199 0.236 0.092 0.067 0.213 0.138 0.363 0.213 0.15 0.067 0.334 0.138 0.551 0.213 0.358 0.133 0.662 0.267 0.912 0.4 0.25 0.125 0.453 0.271 0.611 0.438 0.167 0.158 0.288 0.34 0.363 0.549 0.075 0.208 0.113 0.458 0.113 0.75 0 0.625 -0.235 1.101 -0.701 1.426 -0.458 0.317 -1.116 0.475 -1.975 0.475 -0.575 0 -1.037 -0.05 -1.387 -0.15 -0.35 -0.092 -0.597 -0.166 -0.738 -0.225 l 0.262 -1.262 c 0.225 0.092 0.492 0.178 0.801 0.262 0.317 0.083 0.674 0.125 1.074 0.125 0.4 0 0.692 -0.045 0.875 -0.137 0.183 -0.1 0.275 -0.267 0.275 -0.5 0 -0.217 -0.099 -0.395 -0.299 -0.537 -0.192 -0.142 -0.513 -0.296 -0.963 -0.463 -0.275 -0.1 -0.53 -0.204 -0.764 -0.313 -0.225 -0.117 -0.419 -0.25 -0.586 -0.4 -0.167 -0.15 -0.3 -0.329 -0.4 -0.537 -0.092 -0.217 -0.139 -0.479 -0.139 -0.787 0 -0.6 0.222 -1.072 0.664 -1.414 0.442 -0.35 1.04 -0.523 1.799 -0.523 z m 5.602 4.844 0.043 0.625 c -0.225 0.004 -0.435 0.028 -0.631 0.074 -0.196 0.042 -0.371 0.108 -0.525 0.199 -0.154 0.092 -0.288 0.212 -0.4 0.357 -0.108 0.146 -0.192 0.325 -0.25 0.537 0.204 -0.096 0.428 -0.145 0.67 -0.145 0.258 0 0.477 0.038 0.656 0.113 0.183 0.071 0.331 0.168 0.443 0.293 0.113 0.125 0.194 0.271 0.244 0.438 0.054 0.163 0.08 0.335 0.08 0.514 0 0.163 -0.03 0.329 -0.088 0.5 -0.054 0.171 -0.141 0.327 -0.262 0.469 -0.117 0.137 -0.264 0.252 -0.443 0.344 -0.179 0.087 -0.393 0.131 -0.639 0.131 -0.496 0 -0.874 -0.163 -1.137 -0.488 c -0.258 -0.329 -0.387 -0.78 -0.387 -1.355 c 0 -0.417 0.059 -0.785 0.18 -1.105 0.125 -0.325 0.3 -0.599 0.525 -0.82 0.229 -0.221 0.505 -0.387 0.826 -0.5 0.325 -0.117 0.69 -0.176 1.094 -0.18 z m -1.188 2.25 c -0.121 0 -0.239 0.01 -0.352 0.031 -0.113 0.021 -0.213 0.052 -0.305 0.094 -0.004 0.033 -0.009 0.07 -0.014 0.111 l 0 0.113 c 0 0.167 0.01 0.325 0.031 0.475 0.025 0.146 0.065 0.274 0.119 0.387 0.058 0.108 0.135 0.197 0.23 0.264 0.1 0.063 0.223 0.094 0.369 0.094 0.121 0 0.223 -0.026 0.307 -0.076 0.087 -0.05 0.159 -0.114 0.213 -0.193 0.054 -0.079 0.094 -0.164 0.119 -0.256 0.025 -0.096 0.037 -0.188 0.037 -0.275 0 -0.25 -0.061 -0.439 -0.182 -0.568 -0.121 -0.133 -0.312 -0.199 -0.574 -0.199 z" style="fill:#ececec;fill-opacity:1"/>
</svg>
