<svg viewBox="0 0 24 24" xmlns="http://www.w3.org/2000/svg">
 <path d="m 4 2 c -1.108 0 -2 0.892 -2 2 l 0 16 c 0 1.108 0.892 2 2 2 l 16 0 c 1.108 0 2 -0.892 2 -2 l 0 -16 c 0 -1.108 -0.892 -2 -2 -2 l -16 0 z m 10.646 4.801 0 5.711 c 0.192 -0.2 0.395 -0.412 0.611 -0.637 0.217 -0.233 0.43 -0.463 0.639 -0.688 0.208 -0.233 0.405 -0.454 0.588 -0.662 0.192 -0.217 0.353 -0.404 0.486 -0.563 l 1.787 0 c -0.417 0.467 -0.858 0.949 -1.324 1.449 -0.458 0.5 -0.92 0.988 -1.387 1.463 0.25 0.208 0.512 0.462 0.787 0.762 0.275 0.292 0.54 0.604 0.799 0.938 0.258 0.333 0.502 0.667 0.727 1 0.225 0.333 0.413 0.642 0.563 0.926 l -1.75 0 c -0.15 -0.258 -0.325 -0.529 -0.525 -0.813 -0.192 -0.283 -0.4 -0.558 -0.625 -0.824 -0.225 -0.267 -0.454 -0.517 -0.688 -0.75 -0.233 -0.242 -0.463 -0.447 -0.688 -0.613 l 0 3 -1.514 0 0 -9.449 1.514 -0.25 z m -9.539 1.037 6.912 0 0 1.361 -2.662 0 0 7.301 -1.588 0 0 -7.301 -2.662 0 0 -1.361 z" style="fill:#ececec;fill-opacity:1"/>
</svg>
