<svg viewBox="0 0 24 24" xmlns="http://www.w3.org/2000/svg">
 <path style="fill:#ececec;fill-opacity:1" d="m 4 2 c -1.108 0 -2 0.892 -2 2 l 0 16 c 0 1.108 0.892 2 2 2 l 16 0 c 1.108 0 2 -0.892 2 -2 l 0 -16 c 0 -1.108 -0.892 -2 -2 -2 l -16 0 z m 1.65 5.838 1.588 0 0 5.262 c 0 0.392 0.042 0.73 0.125 1.014 0.092 0.275 0.217 0.499 0.375 0.674 0.167 0.175 0.358 0.305 0.574 0.389 0.225 0.083 0.475 0.125 0.75 0.125 0.275 0 0.525 -0.042 0.75 -0.125 0.225 -0.083 0.418 -0.214 0.576 -0.389 0.167 -0.175 0.292 -0.399 0.375 -0.674 0.092 -0.283 0.137 -0.622 0.137 -1.014 l 0 -5.262 1.588 0 0 5.412 c 0 0.5 -0.071 0.958 -0.213 1.375 -0.133 0.417 -0.342 0.78 -0.625 1.088 -0.275 0.308 -0.629 0.55 -1.063 0.725 -0.433 0.167 -0.945 0.25 -1.537 0.25 -0.592 0 -1.1 -0.083 -1.525 -0.25 -0.425 -0.175 -0.779 -0.416 -1.063 -0.725 c -0.275 -0.308 -0.478 -0.671 -0.611 -1.088 -0.133 -0.417 -0.201 -0.875 -0.201 -1.375 l 0 -5.412 z m 8.193 2.125 4.963 0 0 1.063 c -0.167 0.175 -0.387 0.42 -0.662 0.736 -0.267 0.317 -0.555 0.671 -0.863 1.063 -0.308 0.383 -0.621 0.788 -0.938 1.213 -0.308 0.417 -0.586 0.818 -0.836 1.201 l 3.375 0 0 1.262 -5.201 0 0 -0.938 c 0.183 -0.333 0.412 -0.696 0.688 -1.088 0.275 -0.392 0.558 -0.782 0.85 -1.174 0.292 -0.4 0.58 -0.78 0.863 -1.139 0.292 -0.358 0.55 -0.671 0.775 -0.938 l -3.01 0 0 -1.262 z"/>
</svg>
