<svg xmlns="http://www.w3.org/2000/svg" viewBox="0 0 24 24">
 <path d="m 4 2 c -1.108 0 -2 0.892 -2 2 l 0 16 c 0 1.108 0.892 2 2 2 l 16 0 c 1.108 0 2 -0.892 2 -2 l 0 -16 c 0 -1.108 -0.892 -2 -2 -2 l -16 0 z m 4.959 5.637 c 0.542 0 1.021 0.063 1.437 0.188 0.425 0.117 0.758 0.247 1 0.389 l -0.488 1.275 c -0.283 -0.158 -0.596 -0.28 -0.937 -0.363 -0.333 -0.083 -0.679 -0.125 -1.037 -0.125 c -0.425 0 -0.758 0.087 -1 0.262 c -0.233 0.175 -0.35 0.422 -0.35 0.738 c 0 0.192 0.036 0.358 0.111 0.5 0.083 0.133 0.196 0.255 0.338 0.363 0.15 0.108 0.322 0.207 0.514 0.299 0.2 0.092 0.415 0.18 0.648 0.264 0.408 0.15 0.771 0.303 1.088 0.461 0.325 0.15 0.596 0.334 0.813 0.551 0.225 0.208 0.397 0.458 0.514 0.75 0.117 0.283 0.174 0.629 0.174 1.037 0 0.783 -0.28 1.393 -0.838 1.826 -0.55 0.425 -1.357 0.637 -2.424 0.637 -0.358 0 -0.688 -0.024 -0.988 -0.074 c -0.292 -0.042 -0.554 -0.097 -0.787 -0.164 -0.225 -0.067 -0.421 -0.133 -0.588 -0.199 -0.167 -0.075 -0.3 -0.141 -0.4 -0.199 l 0.463 -1.289 c 0.225 0.125 0.529 0.25 0.912 0.375 0.383 0.125 0.847 0.188 1.389 0.188 0.567 0 0.978 -0.095 1.236 -0.287 0.258 -0.192 0.389 -0.463 0.389 -0.813 0 -0.208 -0.047 -0.387 -0.139 -0.537 -0.083 -0.15 -0.208 -0.284 -0.375 -0.4 -0.158 -0.125 -0.353 -0.238 -0.586 -0.338 -0.233 -0.108 -0.501 -0.213 -0.801 -0.313 -0.3 -0.108 -0.592 -0.225 -0.875 -0.35 -0.275 -0.133 -0.522 -0.295 -0.738 -0.486 -0.208 -0.192 -0.378 -0.421 -0.512 -0.688 -0.125 -0.267 -0.188 -0.588 -0.188 -0.963 0 -0.783 0.271 -1.396 0.813 -1.838 0.542 -0.45 1.28 -0.676 2.213 -0.676 z m 3.275 2.326 1.613 0 c 0.083 0.35 0.182 0.728 0.299 1.137 0.125 0.408 0.259 0.825 0.4 1.25 0.142 0.417 0.291 0.833 0.449 1.25 0.158 0.417 0.318 0.804 0.477 1.162 0.267 -0.742 0.517 -1.528 0.75 -2.361 0.233 -0.842 0.445 -1.654 0.637 -2.438 l 1.563 0 c -0.675 2.483 -1.458 4.733 -2.35 6.75 -0.167 0.375 -0.339 0.696 -0.514 0.963 -0.175 0.267 -0.369 0.487 -0.586 0.662 -0.217 0.175 -0.46 0.3 -0.727 0.375 -0.267 0.083 -0.574 0.125 -0.924 0.125 -0.233 0 -0.468 -0.026 -0.701 -0.076 -0.225 -0.05 -0.395 -0.104 -0.512 -0.162 l 0.275 -1.213 c 0.3 0.117 0.595 0.176 0.887 0.176 0.392 0 0.695 -0.095 0.912 -0.287 0.225 -0.183 0.421 -0.472 0.588 -0.863 -0.475 -0.917 -0.933 -1.917 -1.375 -3 -0.433 -1.083 -0.82 -2.233 -1.162 -3.449 z" style="fill:#ececec;fill-opacity:1"/>
</svg>
