<svg xmlns="http://www.w3.org/2000/svg" viewBox="0 0 24 24">
 <path style="fill:#ececec;fill-opacity:1" d="m 4 2 c -1.108 0 -2 0.892 -2 2 l 0 16 c 0 1.108 0.892 2 2 2 l 16 0 c 1.108 0 2 -0.892 2 -2 l 0 -16 c 0 -1.108 -0.892 -2 -2 -2 l -16 0 z m 8.869 4.551 0 5.711 c 0.192 -0.2 0.397 -0.412 0.613 -0.637 0.217 -0.233 0.428 -0.463 0.637 -0.688 0.208 -0.233 0.405 -0.454 0.588 -0.662 0.192 -0.217 0.355 -0.404 0.488 -0.563 l 1.787 0 c -0.417 0.467 -0.858 0.949 -1.324 1.449 -0.458 0.5 -0.922 0.988 -1.389 1.463 0.25 0.208 0.512 0.462 0.787 0.762 0.275 0.292 0.542 0.604 0.801 0.938 0.258 0.333 0.5 0.667 0.725 1 0.225 0.333 0.413 0.642 0.563 0.926 l -1.75 0 c -0.15 -0.258 -0.325 -0.529 -0.525 -0.813 -0.192 -0.283 -0.4 -0.558 -0.625 -0.824 -0.225 -0.267 -0.454 -0.517 -0.688 -0.75 -0.233 -0.242 -0.463 -0.447 -0.688 -0.613 l 0 3 -1.512 0 0 -9.449 1.512 -0.25 z m -9.539 1.037 6.914 0 0 1.361 -2.664 0 0 7.301 -1.586 0 0 -7.301 -2.664 0 0 -1.361 z m 15.605 6.73 c 0.462 0 0.803 0.111 1.02 0.332 0.221 0.217 0.33 0.513 0.33 0.893 0 0.15 -0.031 0.299 -0.094 0.445 -0.063 0.142 -0.142 0.28 -0.242 0.418 -0.096 0.133 -0.207 0.265 -0.332 0.395 -0.125 0.125 -0.25 0.246 -0.375 0.367 -0.067 0.063 -0.141 0.139 -0.225 0.227 -0.083 0.087 -0.163 0.174 -0.238 0.262 -0.075 0.087 -0.139 0.173 -0.193 0.256 -0.054 0.079 -0.084 0.147 -0.088 0.201 l 1.926 0 0 0.637 -2.756 0 c -0.004 -0.033 -0.008 -0.073 -0.008 -0.119 l 0 -0.111 c 0 -0.2 0.031 -0.384 0.094 -0.551 0.067 -0.171 0.154 -0.329 0.258 -0.475 0.104 -0.146 0.22 -0.283 0.35 -0.412 0.129 -0.129 0.258 -0.258 0.387 -0.383 0.1 -0.096 0.195 -0.19 0.287 -0.281 0.092 -0.092 0.172 -0.18 0.238 -0.268 0.071 -0.092 0.126 -0.184 0.168 -0.275 0.042 -0.096 0.063 -0.193 0.063 -0.293 0 -0.217 -0.063 -0.371 -0.188 -0.463 -0.125 -0.092 -0.276 -0.139 -0.455 -0.139 -0.117 0 -0.226 0.017 -0.326 0.051 -0.1 0.033 -0.188 0.073 -0.268 0.119 -0.075 0.046 -0.143 0.093 -0.201 0.143 -0.058 0.046 -0.102 0.084 -0.131 0.113 l -0.375 -0.531 c 0.175 -0.167 0.38 -0.3 0.613 -0.4 0.238 -0.104 0.491 -0.156 0.762 -0.156 z"/>
</svg>
