<svg viewBox="0 0 24 24" xmlns="http://www.w3.org/2000/svg">
 <path style="fill:#ececec;fill-opacity:1" d="m 4 2 c -1.108 0 -2 0.892 -2 2 l 0 16 c 0 1.108 0.892 2 2 2 l 16 0 c 1.108 0 2 -0.892 2 -2 l 0 -16 c 0 -1.108 -0.892 -2 -2 -2 l -16 0 z m 1.631 5.5 c 0.725 0 1.388 0.087 1.988 0.262 0.6 0.167 1.112 0.434 1.537 0.801 0.433 0.358 0.767 0.817 1 1.375 0.233 0.55 0.35 1.208 0.35 1.975 0 0.75 -0.116 1.405 -0.35 1.963 -0.233 0.55 -0.567 1.012 -1 1.387 -0.425 0.367 -0.942 0.643 -1.551 0.826 -0.6 0.175 -1.267 0.262 -2 0.262 -0.35 0 -0.746 -0.015 -1.188 -0.049 c -0.442 -0.025 -0.862 -0.084 -1.262 -0.176 l 0 -8.412 c 0.4 -0.092 0.825 -0.151 1.275 -0.176 0.45 -0.025 0.849 -0.037 1.199 -0.037 z m 0.1 1.363 c -0.467 0 -0.8 0.012 -1 0.037 l 0 6.05 c 0.092 0.008 0.213 0.017 0.363 0.025 l 0.611 0 c 1.058 0 1.847 -0.265 2.363 -0.799 0.525 -0.542 0.787 -1.297 0.787 -2.264 0 -0.983 -0.253 -1.737 -0.762 -2.262 c -0.508 -0.525 -1.297 -0.787 -2.363 -0.787 z m 9.107 0.688 c 0.9 0 1.6 0.278 2.1 0.836 0.508 0.558 0.764 1.392 0.764 2.5 0 0.083 -0.005 0.181 -0.014 0.289 0 0.1 -0.003 0.19 -0.012 0.273 l -4.313 0 c 0.042 0.525 0.224 0.935 0.549 1.227 0.333 0.283 0.813 0.424 1.438 0.424 0.367 0 0.7 -0.033 1 -0.1 0.308 -0.067 0.552 -0.138 0.727 -0.213 l 0.199 1.238 c -0.083 0.042 -0.2 0.087 -0.35 0.137 -0.142 0.042 -0.308 0.08 -0.5 0.113 -0.183 0.042 -0.383 0.075 -0.6 0.1 -0.217 0.025 -0.439 0.037 -0.664 0.037 -0.575 0 -1.075 -0.083 -1.5 -0.25 -0.425 -0.175 -0.774 -0.413 -1.049 -0.713 c -0.275 -0.308 -0.48 -0.666 -0.613 -1.074 c -0.133 -0.417 -0.199 -0.872 -0.199 -1.363 0 -0.575 0.083 -1.078 0.25 -1.512 0.175 -0.433 0.404 -0.791 0.688 -1.074 0.283 -0.292 0.608 -0.509 0.975 -0.65 0.367 -0.15 0.742 -0.225 1.125 -0.225 z m 0.012 1.262 c -0.233 0 -0.436 0.045 -0.611 0.137 -0.175 0.083 -0.326 0.196 -0.451 0.338 -0.117 0.142 -0.207 0.305 -0.273 0.488 -0.067 0.183 -0.114 0.371 -0.139 0.563 l 2.813 0 c 0 -0.208 -0.03 -0.405 -0.088 -0.588 -0.058 -0.192 -0.145 -0.355 -0.262 -0.488 -0.108 -0.142 -0.245 -0.249 -0.412 -0.324 -0.158 -0.083 -0.351 -0.125 -0.576 -0.125 z m 5.168 3.506 c 0.508 0 0.89 0.165 1.148 0.494 0.262 0.325 0.395 0.785 0.395 1.381 0 0.842 -0.217 1.479 -0.65 1.912 -0.433 0.433 -1.098 0.652 -1.994 0.656 l -0.031 -0.631 c 0.25 0 0.476 -0.021 0.676 -0.063 0.204 -0.042 0.381 -0.108 0.531 -0.199 0.154 -0.092 0.283 -0.212 0.387 -0.357 0.104 -0.15 0.184 -0.332 0.238 -0.549 -0.1 0.046 -0.211 0.08 -0.332 0.105 -0.121 0.025 -0.237 0.037 -0.35 0.037 -0.258 0 -0.479 -0.033 -0.662 -0.1 -0.179 -0.071 -0.327 -0.166 -0.443 -0.287 -0.113 -0.125 -0.196 -0.269 -0.25 -0.432 -0.054 -0.163 -0.082 -0.338 -0.082 -0.525 0 -0.162 0.028 -0.326 0.082 -0.492 0.054 -0.171 0.139 -0.327 0.256 -0.469 0.117 -0.142 0.264 -0.256 0.443 -0.344 0.179 -0.092 0.393 -0.139 0.639 -0.139 z m 0.018 0.625 c -0.121 0 -0.225 0.026 -0.313 0.076 -0.083 0.05 -0.151 0.114 -0.205 0.193 -0.054 0.079 -0.094 0.164 -0.119 0.256 -0.025 0.092 -0.037 0.182 -0.037 0.27 0 0.254 0.059 0.445 0.18 0.574 0.125 0.129 0.32 0.193 0.582 0.193 0.121 0 0.239 -0.01 0.355 -0.031 0.117 -0.025 0.217 -0.06 0.301 -0.105 0.004 -0.046 0.006 -0.086 0.006 -0.119 l 0 -0.088 c 0 -0.167 -0.012 -0.323 -0.037 -0.469 -0.021 -0.15 -0.061 -0.278 -0.119 -0.387 -0.054 -0.113 -0.13 -0.201 -0.23 -0.264 -0.096 -0.067 -0.217 -0.1 -0.363 -0.1 z"/>
</svg>
