<svg viewBox="0 0 24 24" xmlns="http://www.w3.org/2000/svg">
 <path style="fill:#ececec;fill-opacity:1" d="m 4 2 c -1.108 0 -2 0.892 -2 2 l 0 16 c 0 1.108 0.892 2 2 2 l 16 0 c 1.108 0 2 -0.892 2 -2 l 0 -16 c 0 -1.108 -0.892 -2 -2 -2 l -16 0 z m 2.52 5.838 5.562 0 0 1.338 -3.988 0 0 2.137 3.551 0 0 1.313 -3.551 0 0 2.537 4.287 0 0 1.338 -5.861 0 0 -8.662 z m 9.348 1.963 c 0.383 0 0.752 0.036 1.102 0.111 0.35 0.067 0.612 0.135 0.787 0.201 l -0.275 1.225 c -0.167 -0.075 -0.378 -0.143 -0.637 -0.201 -0.258 -0.067 -0.559 -0.1 -0.9 -0.1 -0.308 0 -0.558 0.054 -0.75 0.162 -0.192 0.1 -0.287 0.26 -0.287 0.477 0 0.108 0.015 0.204 0.049 0.287 0.042 0.083 0.11 0.161 0.201 0.236 0.092 0.067 0.211 0.138 0.361 0.213 0.15 0.067 0.334 0.138 0.551 0.213 0.358 0.133 0.662 0.267 0.912 0.4 0.25 0.125 0.455 0.271 0.613 0.438 0.167 0.158 0.286 0.34 0.361 0.549 0.075 0.208 0.113 0.458 0.113 0.75 0 0.625 -0.235 1.101 -0.701 1.426 -0.458 0.317 -1.116 0.475 -1.975 0.475 -0.575 0 -1.037 -0.05 -1.387 -0.15 -0.35 -0.092 -0.597 -0.166 -0.738 -0.225 l 0.264 -1.262 c 0.225 0.092 0.49 0.178 0.799 0.262 0.317 0.083 0.676 0.125 1.076 0.125 0.4 0 0.692 -0.045 0.875 -0.137 0.183 -0.1 0.273 -0.267 0.273 -0.5 0 -0.217 -0.099 -0.395 -0.299 -0.537 -0.192 -0.142 -0.513 -0.296 -0.963 -0.463 -0.275 -0.1 -0.528 -0.204 -0.762 -0.313 -0.225 -0.117 -0.421 -0.25 -0.588 -0.4 -0.167 -0.15 -0.3 -0.329 -0.4 -0.537 -0.092 -0.217 -0.137 -0.479 -0.137 -0.787 0 -0.6 0.22 -1.072 0.662 -1.414 0.442 -0.35 1.04 -0.523 1.799 -0.523 z"/>
</svg>
