<svg viewBox="0 0 24 24" xmlns="http://www.w3.org/2000/svg">
 <path style="fill:#ececec;fill-opacity:1" d="m 4 2 c -1.108 0 -2 0.892 -2 2 l 0 16 c 0 1.108 0.892 2 2 2 l 16 0 c 1.108 0 2 -0.892 2 -2 l 0 -16 c 0 -1.108 -0.892 -2 -2 -2 l -16 0 z m 0.254 5.588 1.576 0 0 3.463 3.762 0 0 -3.463 1.576 0 0 8.662 -1.576 0 0 -3.838 -3.762 0 0 3.838 -1.576 0 0 -8.662 z m 11.461 1.986 c 0.1 0 0.216 0.009 0.35 0.025 0.133 0.008 0.267 0.026 0.4 0.051 0.133 0.017 0.262 0.041 0.387 0.074 0.125 0.025 0.226 0.051 0.301 0.076 l -0.264 1.273 c -0.125 -0.042 -0.3 -0.083 -0.525 -0.125 -0.217 -0.05 -0.47 -0.074 -0.762 -0.074 -0.167 0 -0.345 0.017 -0.537 0.051 -0.183 0.033 -0.314 0.061 -0.389 0.086 l 0 5.238 -1.512 0 0 -6.225 c 0.292 -0.108 0.655 -0.209 1.088 -0.301 0.442 -0.1 0.93 -0.15 1.463 -0.15 z m 3.453 4.844 0.531 0 0 4.332 -0.756 0 0 -3.318 c -0.113 0.088 -0.255 0.173 -0.426 0.256 -0.171 0.083 -0.334 0.153 -0.492 0.207 l -0.232 -0.576 c 0.242 -0.096 0.483 -0.219 0.725 -0.369 0.246 -0.15 0.463 -0.327 0.65 -0.531 z"/>
</svg>
