<svg viewBox="0 0 24 24" xmlns="http://www.w3.org/2000/svg">
 <path d="m 4 2 c -1.108 0 -2 0.892 -2 2 l 0 16 c 0 1.108 0.892 2 2 2 l 16 0 c 1.108 0 2 -0.892 2 -2 l 0 -16 c 0 -1.108 -0.892 -2 -2 -2 l -16 0 z m 4.078 5.838 1.488 0 c 0.292 0.617 0.575 1.242 0.85 1.875 0.275 0.633 0.551 1.3 0.826 2 0.283 0.7 0.57 1.441 0.861 2.225 0.3 0.783 0.613 1.637 0.938 2.563 l -1.699 0 c -0.117 -0.342 -0.238 -0.678 -0.363 -1.012 -0.125 -0.333 -0.245 -0.675 -0.361 -1.025 l -3.65 0 c -0.117 0.35 -0.238 0.695 -0.363 1.037 l -0.35 1 -1.637 0 c 0.325 -0.925 0.632 -1.779 0.924 -2.563 0.292 -0.783 0.575 -1.525 0.85 -2.225 0.283 -0.7 0.563 -1.367 0.838 -2 0.275 -0.633 0.558 -1.258 0.85 -1.875 z m 0.713 1.674 c -0.192 0.442 -0.412 0.98 -0.662 1.613 -0.242 0.633 -0.495 1.321 -0.762 2.063 l 2.85 0 c -0.267 -0.742 -0.525 -1.433 -0.775 -2.074 -0.25 -0.642 -0.467 -1.177 -0.65 -1.602 z m 4.25 0.451 1.613 0 c 0.092 0.367 0.196 0.763 0.313 1.188 0.125 0.417 0.253 0.837 0.387 1.262 0.142 0.417 0.284 0.825 0.426 1.225 0.15 0.392 0.287 0.746 0.412 1.063 0.125 -0.317 0.259 -0.671 0.4 -1.063 0.142 -0.4 0.279 -0.808 0.412 -1.225 0.142 -0.425 0.275 -0.845 0.4 -1.262 0.125 -0.425 0.233 -0.821 0.324 -1.188 l 1.563 0 c -0.358 1.275 -0.758 2.471 -1.199 3.588 -0.433 1.108 -0.859 2.091 -1.275 2.949 l -1.301 0 c -0.417 -0.858 -0.845 -1.841 -1.287 -2.949 -0.433 -1.117 -0.829 -2.313 -1.188 -3.588 z" style="fill:#ececec;fill-opacity:1"/>
</svg>
