<svg xmlns="http://www.w3.org/2000/svg" viewBox="0 0 24 24">
 <path style="fill:#ececec;fill-opacity:1" d="m 4 2 c -1.108 0 -2 0.892 -2 2 l 0 16 c 0 1.108 0.892 2 2 2 l 16 0 c 1.108 0 2 -0.892 2 -2 l 0 -16 c 0 -1.108 -0.892 -2 -2 -2 l -16 0 z m 8.674 4.551 0 3.236 c 0.167 -0.058 0.36 -0.109 0.576 -0.15 c 0.225 -0.042 0.445 -0.063 0.662 -0.063 0.525 0 0.959 0.077 1.301 0.227 0.35 0.142 0.628 0.345 0.836 0.611 0.208 0.258 0.354 0.571 0.438 0.938 0.092 0.367 0.139 0.775 0.139 1.225 l 0 3.676 -1.514 0 0 -3.438 c 0 -0.35 -0.024 -0.645 -0.074 -0.887 -0.042 -0.25 -0.116 -0.452 -0.225 -0.602 -0.1 -0.158 -0.237 -0.269 -0.412 -0.336 -0.175 -0.075 -0.392 -0.113 -0.65 -0.113 -0.2 0 -0.405 0.021 -0.613 0.063 -0.208 0.042 -0.363 0.08 -0.463 0.113 l 0 5.199 -1.512 0 0 -9.449 1.512 -0.25 z m -9.539 1.037 6.914 0 0 1.361 -2.664 0 0 7.301 -1.586 0 0 -7.301 -2.664 0 0 -1.361 z m 16.277 6.83 0.531 0 0 4.332 -0.756 0 0 -3.318 c -0.113 0.088 -0.255 0.173 -0.426 0.256 -0.171 0.083 -0.334 0.153 -0.492 0.207 l -0.232 -0.576 c 0.242 -0.096 0.483 -0.219 0.725 -0.369 0.246 -0.15 0.463 -0.327 0.65 -0.531 z"/>
</svg>
