<svg xmlns="http://www.w3.org/2000/svg" viewBox="0 0 24 24">
 <path d="m 4 2 c -1.108 0 -2 0.892 -2 2 l 0 16 c 0 1.108 0.892 2 2 2 l 16 0 c 1.108 0 2 -0.892 2 -2 l 0 -16 c 0 -1.108 -0.892 -2 -2 -2 l -16 0 z m 13.533 5.113 c 0.25 0 0.467 0.083 0.65 0.25 0.183 0.167 0.275 0.396 0.275 0.687 0 0.283 -0.092 0.507 -0.275 0.674 -0.183 0.167 -0.4 0.25 -0.65 0.25 -0.258 0 -0.479 -0.083 -0.662 -0.25 -0.183 -0.167 -0.275 -0.39 -0.275 -0.674 0 -0.292 0.092 -0.521 0.275 -0.688 0.183 -0.167 0.404 -0.25 0.662 -0.25 z m -11.322 0.725 1.463 0 c 0.183 0.317 0.388 0.704 0.613 1.162 c 0.225 0.458 0.454 0.941 0.688 1.449 0.233 0.5 0.463 1.014 0.688 1.539 0.233 0.517 0.445 0.996 0.637 1.438 0.192 -0.442 0.4 -0.921 0.625 -1.438 0.225 -0.525 0.454 -1.039 0.688 -1.539 0.233 -0.508 0.463 -0.991 0.688 -1.449 0.225 -0.458 0.43 -0.845 0.613 -1.162 l 1.424 0 c 0.075 0.633 0.146 1.309 0.213 2.025 0.067 0.708 0.126 1.437 0.176 2.187 0.058 0.742 0.109 1.492 0.15 2.25 0.05 0.75 0.092 1.483 0.125 2.199 l -1.551 0 c -0.033 -1.01 -0.075 -2.047 -0.125 -3.113 -0.042 -1.067 -0.108 -2.1 -0.199 -3.1 -0.092 0.192 -0.201 0.421 -0.326 0.688 -0.125 0.267 -0.259 0.558 -0.4 0.875 -0.142 0.308 -0.288 0.63 -0.438 0.963 -0.142 0.333 -0.282 0.658 -0.424 0.975 -0.133 0.308 -0.258 0.6 -0.375 0.875 -0.117 0.267 -0.217 0.496 -0.301 0.688 l -1.174 0 c -0.083 -0.192 -0.184 -0.424 -0.301 -0.699 -0.117 -0.275 -0.245 -0.567 -0.387 -0.875 -0.133 -0.317 -0.276 -0.641 -0.426 -0.975 -0.142 -0.333 -0.284 -0.655 -0.426 -0.963 -0.142 -0.308 -0.273 -0.597 -0.398 -0.863 c -0.125 -0.275 -0.235 -0.504 -0.326 -0.688 -0.092 1 -0.163 2.033 -0.213 3.1 c -0.042 1.067 -0.078 2.105 -0.111 3.113 l -1.551 0 c 0.033 -0.717 0.072 -1.458 0.113 -2.225 0.05 -0.767 0.1 -1.525 0.15 -2.275 0.058 -0.758 0.121 -1.491 0.188 -2.199 0.067 -0.708 0.136 -1.363 0.211 -1.963 z m 10.572 2.125 1.514 0 0 6.537 -1.514 0 0 -6.537 z" style="fill:#ececec;fill-opacity:1"/>
</svg>
