<svg viewBox="0 0 24 24" xmlns="http://www.w3.org/2000/svg">
 <path style="fill:#ececec;fill-opacity:1" d="m 4 2 c -1.108 0 -2 0.892 -2 2 l 0 16 c 0 1.108 0.892 2 2 2 l 16 0 c 1.108 0 2 -0.892 2 -2 l 0 -16 c 0 -1.108 -0.892 -2 -2 -2 l -16 0 z m 1.107 5.838 6.912 0 0 1.361 -2.662 0 0 7.301 -1.588 0 0 -7.301 -2.662 0 0 -1.361 z m 10.273 1.986 c 0.533 0 0.98 0.077 1.338 0.227 0.358 0.142 0.641 0.345 0.85 0.611 0.217 0.258 0.368 0.576 0.451 0.951 0.092 0.367 0.137 0.769 0.137 1.211 l 0 3.676 -1.512 0 0 -3.438 c 0 -0.35 -0.026 -0.645 -0.076 -0.887 -0.042 -0.25 -0.116 -0.452 -0.225 -0.602 -0.1 -0.158 -0.242 -0.269 -0.426 -0.336 -0.175 -0.075 -0.39 -0.113 -0.648 -0.113 -0.192 0 -0.393 0.012 -0.602 0.037 -0.208 0.025 -0.361 0.046 -0.461 0.063 l 0 5.275 -1.514 0 0 -6.324 c 0.292 -0.083 0.672 -0.163 1.139 -0.238 0.467 -0.075 0.982 -0.113 1.549 -0.113 z"/>
</svg>
