<svg viewBox="0 0 24 24" xmlns="http://www.w3.org/2000/svg">
 <path style="fill:#ececec;fill-opacity:1" d="m 4 2 c -1.108 0 -2 0.892 -2 2 l 0 16 c 0 1.108 0.892 2 2 2 l 16 0 c 1.108 0 2 -0.892 2 -2 l 0 -16 c 0 -1.108 -0.892 -2 -2 -2 l -16 0 z m 1.316 5.588 1.574 0 0 7.299 3.9 0 0 1.363 -5.475 0 0 -8.662 z m 8.03 0.15 0 1.975 2.326 0 0 1.262 -2.326 0 0 2.662 c 0 0.525 0.083 0.9 0.25 1.125 0.167 0.225 0.45 0.338 0.85 0.338 0.275 0 0.518 -0.03 0.727 -0.088 0.217 -0.058 0.387 -0.112 0.512 -0.162 l 0.25 1.201 c -0.175 0.075 -0.404 0.15 -0.688 0.225 -0.283 0.083 -0.617 0.125 -1 0.125 -0.467 0 -0.859 -0.063 -1.176 -0.188 -0.308 -0.125 -0.553 -0.304 -0.736 -0.537 -0.183 -0.242 -0.314 -0.53 -0.389 -0.863 -0.075 -0.342 -0.111 -0.729 -0.111 -1.162 l 0 -5.662 1.512 -0.25 z m 4.949 6.68 0.719 0 0 2.676 0.488 0 0 0.619 -0.488 0 0 1.037 -0.736 0 0 -1.037 -1.9 0 0 -0.537 c 0.083 -0.183 0.195 -0.395 0.332 -0.633 0.142 -0.238 0.298 -0.48 0.469 -0.73 0.171 -0.25 0.351 -0.497 0.543 -0.738 0.192 -0.242 0.383 -0.46 0.574 -0.656 z m -0.018 0.932 c -0.1 0.121 -0.204 0.251 -0.313 0.389 -0.104 0.137 -0.207 0.28 -0.307 0.43 -0.1 0.15 -0.195 0.305 -0.287 0.463 -0.092 0.154 -0.175 0.309 -0.25 0.463 l 1.156 0 0 -1.744 z"/>
</svg>
