<svg viewBox="0 0 24 24" xmlns="http://www.w3.org/2000/svg">
 <path d="m 4 2 c -1.108 0 -2 0.892 -2 2 l 0 16 c 0 1.108 0.892 2 2 2 l 16 0 c 1.108 0 2 -0.892 2 -2 l 0 -16 c 0 -1.108 -0.892 -2 -2 -2 l -16 0 z m 11.428 4.801 0 5.711 c 0.192 -0.2 0.395 -0.412 0.611 -0.637 0.217 -0.233 0.43 -0.463 0.639 -0.688 0.208 -0.233 0.405 -0.454 0.588 -0.662 0.192 -0.217 0.353 -0.404 0.486 -0.563 l 1.787 0 c -0.417 0.467 -0.858 0.949 -1.324 1.449 -0.458 0.5 -0.92 0.988 -1.387 1.463 0.25 0.208 0.512 0.462 0.787 0.762 0.275 0.292 0.54 0.604 0.799 0.938 0.258 0.333 0.502 0.667 0.727 1 0.225 0.333 0.413 0.642 0.563 0.926 l -1.75 0 c -0.15 -0.258 -0.325 -0.529 -0.525 -0.813 -0.192 -0.283 -0.4 -0.558 -0.625 -0.824 -0.225 -0.267 -0.454 -0.517 -0.688 -0.75 -0.233 -0.242 -0.463 -0.447 -0.688 -0.613 l 0 3 -1.514 0 0 -9.449 1.514 -0.25 z m -10.289 1.037 1.588 0 0 5.262 c 0 0.392 0.042 0.73 0.125 1.014 0.092 0.275 0.217 0.499 0.375 0.674 0.167 0.175 0.358 0.305 0.574 0.389 0.225 0.083 0.475 0.125 0.75 0.125 0.275 0 0.525 -0.042 0.75 -0.125 0.225 -0.083 0.416 -0.214 0.574 -0.389 0.167 -0.175 0.292 -0.399 0.375 -0.674 0.092 -0.283 0.139 -0.622 0.139 -1.014 l 0 -5.262 1.588 0 0 5.412 c 0 0.5 -0.071 0.958 -0.213 1.375 -0.133 0.417 -0.342 0.78 -0.625 1.088 -0.275 0.308 -0.629 0.55 -1.063 0.725 -0.433 0.167 -0.945 0.25 -1.537 0.25 -0.592 0 -1.1 -0.083 -1.525 -0.25 -0.425 -0.175 -0.779 -0.416 -1.063 -0.725 c -0.275 -0.308 -0.48 -0.671 -0.613 -1.088 -0.133 -0.417 -0.199 -0.875 -0.199 -1.375 l 0 -5.412 z" style="fill:#ececec;fill-opacity:1"/>
</svg>
