<svg xmlns="http://www.w3.org/2000/svg" viewBox="0 0 24 24">
 <path style="fill:#ececec;fill-opacity:1" d="m 4 2 c -1.108 0 -2 0.892 -2 2 l 0 16 c 0 1.108 0.892 2 2 2 l 16 0 c 1.108 0 2 -0.892 2 -2 l 0 -16 c 0 -1.108 -0.892 -2 -2 -2 l -16 0 z m 4.873 5.637 c 0.542 0 1.021 0.063 1.438 0.188 0.425 0.117 0.758 0.247 1 0.389 l -0.486 1.275 c -0.283 -0.158 -0.596 -0.28 -0.938 -0.363 -0.333 -0.083 -0.681 -0.125 -1.039 -0.125 c -0.425 0 -0.758 0.087 -1 0.262 c -0.233 0.175 -0.35 0.422 -0.35 0.738 c 0 0.192 0.038 0.358 0.113 0.5 0.083 0.133 0.196 0.255 0.338 0.363 0.15 0.108 0.32 0.207 0.512 0.299 0.2 0.092 0.417 0.18 0.65 0.264 0.408 0.15 0.771 0.303 1.088 0.461 0.325 0.15 0.596 0.334 0.813 0.551 0.225 0.208 0.395 0.458 0.512 0.75 0.117 0.283 0.176 0.629 0.176 1.037 0 0.783 -0.28 1.393 -0.838 1.826 -0.55 0.425 -1.359 0.637 -2.426 0.637 -0.358 0 -0.686 -0.024 -0.986 -0.074 c -0.292 -0.042 -0.556 -0.097 -0.789 -0.164 -0.225 -0.067 -0.419 -0.133 -0.586 -0.199 -0.167 -0.075 -0.3 -0.141 -0.4 -0.199 l 0.463 -1.289 c 0.225 0.125 0.529 0.25 0.912 0.375 0.383 0.125 0.845 0.188 1.387 0.188 0.567 0 0.98 -0.095 1.238 -0.287 0.258 -0.192 0.387 -0.463 0.387 -0.813 0 -0.208 -0.045 -0.387 -0.137 -0.537 -0.083 -0.15 -0.208 -0.284 -0.375 -0.4 -0.158 -0.125 -0.355 -0.238 -0.588 -0.338 -0.233 -0.108 -0.501 -0.213 -0.801 -0.313 -0.3 -0.108 -0.592 -0.225 -0.875 -0.35 -0.275 -0.133 -0.52 -0.295 -0.736 -0.486 -0.208 -0.192 -0.38 -0.421 -0.514 -0.688 -0.125 -0.267 -0.188 -0.588 -0.188 -0.963 0 -0.783 0.271 -1.396 0.813 -1.838 0.542 -0.45 1.28 -0.676 2.213 -0.676 z m 6.301 2.164 c 0.5 0 0.922 0.063 1.264 0.188 0.342 0.125 0.613 0.298 0.813 0.523 0.208 0.225 0.354 0.501 0.438 0.826 0.092 0.317 0.137 0.665 0.137 1.049 l 0 3.963 c -0.233 0.05 -0.587 0.109 -1.063 0.176 -0.467 0.075 -0.996 0.111 -1.588 0.111 -0.392 0 -0.749 -0.036 -1.074 -0.111 -0.325 -0.075 -0.605 -0.197 -0.838 -0.363 -0.225 -0.167 -0.404 -0.384 -0.537 -0.65 -0.125 -0.267 -0.188 -0.595 -0.188 -0.986 0 -0.375 0.071 -0.693 0.213 -0.951 0.15 -0.258 0.35 -0.467 0.6 -0.625 0.25 -0.167 0.536 -0.283 0.861 -0.35 0.333 -0.075 0.681 -0.111 1.039 -0.111 0.167 0 0.34 0.012 0.523 0.037 0.183 0.017 0.38 0.05 0.588 0.1 l 0 -0.25 c 0 -0.175 -0.021 -0.342 -0.063 -0.5 -0.042 -0.158 -0.116 -0.295 -0.225 -0.412 -0.1 -0.125 -0.237 -0.22 -0.412 -0.287 -0.167 -0.067 -0.38 -0.102 -0.639 -0.102 -0.35 0 -0.669 0.026 -0.961 0.076 -0.292 0.05 -0.53 0.107 -0.713 0.174 l -0.188 -1.225 c 0.192 -0.067 0.471 -0.133 0.838 -0.199 c 0.367 -0.067 0.757 -0.1 1.174 -0.1 z m 0.301 3.773 c -0.167 0 -0.339 0.014 -0.514 0.039 -0.167 0.025 -0.319 0.07 -0.461 0.137 -0.133 0.067 -0.243 0.162 -0.326 0.287 -0.083 0.117 -0.125 0.268 -0.125 0.451 0 0.358 0.113 0.608 0.338 0.75 0.225 0.133 0.529 0.199 0.912 0.199 0.467 0 0.821 -0.024 1.063 -0.074 l 0 -1.676 c -0.083 -0.025 -0.203 -0.049 -0.361 -0.074 c -0.158 -0.025 -0.334 -0.039 -0.525 -0.039 z"/>
</svg>
