<svg viewBox="0 0 24 24" xmlns="http://www.w3.org/2000/svg">
 <path style="fill:#ececec;fill-opacity:1" d="m 4 2 c -1.108 0 -2 0.892 -2 2 l 0 16 c 0 1.108 0.892 2 2 2 l 16 0 c 1.108 0 2 -0.892 2 -2 l 0 -16 c 0 -1.108 -0.892 -2 -2 -2 l -16 0 z m 3.146 5.387 c 0.542 0 1.021 0.063 1.438 0.188 0.425 0.117 0.758 0.247 1 0.389 l -0.488 1.275 c -0.283 -0.158 -0.596 -0.28 -0.938 -0.363 -0.333 -0.083 -0.679 -0.125 -1.037 -0.125 c -0.425 0 -0.758 0.087 -1 0.262 c -0.233 0.175 -0.35 0.422 -0.35 0.738 c 0 0.192 0.036 0.358 0.111 0.5 0.083 0.133 0.196 0.255 0.338 0.363 0.15 0.108 0.322 0.207 0.514 0.299 0.2 0.092 0.415 0.18 0.648 0.264 0.408 0.15 0.771 0.303 1.088 0.461 0.325 0.15 0.596 0.334 0.813 0.551 0.225 0.208 0.397 0.458 0.514 0.75 0.117 0.283 0.174 0.629 0.174 1.037 0 0.783 -0.28 1.393 -0.838 1.826 -0.55 0.425 -1.357 0.637 -2.424 0.637 -0.358 0 -0.688 -0.024 -0.988 -0.074 c -0.292 -0.042 -0.554 -0.097 -0.787 -0.164 -0.225 -0.067 -0.421 -0.133 -0.588 -0.199 -0.167 -0.075 -0.3 -0.141 -0.4 -0.199 l 0.463 -1.289 c 0.225 0.125 0.529 0.25 0.912 0.375 0.383 0.125 0.847 0.188 1.389 0.188 0.567 0 0.978 -0.095 1.236 -0.287 0.258 -0.192 0.389 -0.463 0.389 -0.813 0 -0.208 -0.047 -0.387 -0.139 -0.537 -0.083 -0.15 -0.208 -0.284 -0.375 -0.4 -0.158 -0.125 -0.353 -0.238 -0.586 -0.338 -0.233 -0.108 -0.501 -0.213 -0.801 -0.313 -0.3 -0.108 -0.592 -0.225 -0.875 -0.35 -0.275 -0.133 -0.522 -0.295 -0.738 -0.486 -0.208 -0.192 -0.378 -0.421 -0.512 -0.688 -0.125 -0.267 -0.188 -0.588 -0.188 -0.963 0 -0.783 0.271 -1.396 0.813 -1.838 0.542 -0.45 1.28 -0.676 2.213 -0.676 z m 3.326 2.326 1.611 0 c 0.092 0.367 0.196 0.763 0.313 1.188 0.125 0.417 0.255 0.837 0.389 1.262 0.142 0.417 0.282 0.825 0.424 1.225 0.15 0.392 0.287 0.746 0.412 1.063 0.125 -0.317 0.259 -0.671 0.4 -1.063 0.142 -0.4 0.279 -0.808 0.412 -1.225 0.142 -0.425 0.275 -0.845 0.4 -1.262 0.125 -0.425 0.235 -0.821 0.326 -1.188 l 1.563 0 c -0.358 1.275 -0.76 2.471 -1.201 3.588 -0.433 1.108 -0.859 2.091 -1.275 2.949 l -1.299 0 c -0.417 -0.858 -0.845 -1.841 -1.287 -2.949 -0.433 -1.117 -0.829 -2.313 -1.188 -3.588 z m 7.197 4.705 2.213 0 0 0.639 -1.568 0 c -0.004 0.071 -0.011 0.152 -0.02 0.244 -0.004 0.088 -0.009 0.176 -0.018 0.268 -0.004 0.092 -0.011 0.18 -0.02 0.264 -0.008 0.083 -0.017 0.153 -0.025 0.211 0.617 0.033 1.072 0.176 1.363 0.426 0.296 0.246 0.443 0.583 0.443 1.012 0 0.196 -0.033 0.378 -0.1 0.545 -0.067 0.167 -0.169 0.311 -0.307 0.432 -0.137 0.121 -0.311 0.216 -0.52 0.287 -0.208 0.067 -0.451 0.1 -0.73 0.1 -0.112 0 -0.227 -0.009 -0.344 -0.025 -0.117 -0.017 -0.23 -0.038 -0.338 -0.063 -0.104 -0.021 -0.198 -0.043 -0.281 -0.068 -0.083 -0.025 -0.146 -0.048 -0.188 -0.068 l 0.145 -0.639 c 0.087 0.042 0.212 0.089 0.375 0.139 0.167 0.046 0.368 0.068 0.605 0.068 0.163 0 0.303 -0.017 0.42 -0.051 0.117 -0.038 0.21 -0.086 0.281 -0.148 0.075 -0.063 0.129 -0.134 0.162 -0.213 0.033 -0.083 0.049 -0.172 0.049 -0.264 0 -0.137 -0.026 -0.259 -0.08 -0.367 -0.054 -0.108 -0.15 -0.2 -0.287 -0.275 -0.133 -0.075 -0.316 -0.132 -0.545 -0.17 -0.225 -0.038 -0.51 -0.055 -0.855 -0.055 0.046 -0.4 0.08 -0.78 0.105 -1.139 0.025 -0.363 0.046 -0.725 0.063 -1.088 z"/>
</svg>
