<svg xmlns="http://www.w3.org/2000/svg" viewBox="0 0 24 24">
 <path d="m 4 2 c -1.108 0 -2 0.892 -2 2 l 0 16 c 0 1.108 0.892 2 2 2 l 16 0 c 1.108 0 2 -0.892 2 -2 l 0 -16 c 0 -1.108 -0.892 -2 -2 -2 l -16 0 z m 6.115 5.637 c 0.358 0 0.683 0.03 0.975 0.088 0.292 0.05 0.545 0.109 0.762 0.176 0.217 0.067 0.395 0.138 0.537 0.213 0.142 0.075 0.242 0.129 0.301 0.162 l -0.463 1.287 c -0.2 -0.125 -0.486 -0.241 -0.861 -0.35 -0.367 -0.117 -0.768 -0.176 -1.201 -0.176 -0.375 0 -0.724 0.068 -1.049 0.201 -0.325 0.125 -0.61 0.316 -0.852 0.574 -0.233 0.258 -0.415 0.583 -0.549 0.975 -0.133 0.392 -0.201 0.847 -0.201 1.363 0 0.458 0.05 0.878 0.15 1.262 0.108 0.383 0.272 0.717 0.488 1 0.217 0.275 0.491 0.492 0.824 0.65 0.333 0.15 0.735 0.225 1.201 0.225 0.558 0 1.01 -0.054 1.361 -0.162 0.35 -0.117 0.621 -0.224 0.813 -0.324 l 0.426 1.287 c -0.1 0.067 -0.237 0.133 -0.412 0.199 -0.167 0.067 -0.368 0.135 -0.602 0.201 -0.233 0.058 -0.495 0.103 -0.787 0.137 -0.292 0.042 -0.604 0.063 -0.938 0.063 -0.65 0 -1.233 -0.101 -1.75 -0.301 -0.517 -0.2 -0.954 -0.492 -1.313 -0.875 c -0.358 -0.392 -0.633 -0.865 -0.824 -1.424 -0.192 -0.558 -0.287 -1.201 -0.287 -1.926 c 0 -0.725 0.108 -1.365 0.324 -1.924 0.225 -0.558 0.529 -1.031 0.912 -1.414 c 0.383 -0.392 0.833 -0.687 1.35 -0.887 0.517 -0.2 1.072 -0.301 1.664 -0.301 z m 6.082 2.164 c 0.383 0 0.75 0.036 1.1 0.111 0.35 0.067 0.614 0.135 0.789 0.201 l -0.275 1.225 c -0.167 -0.075 -0.38 -0.143 -0.639 -0.201 -0.258 -0.067 -0.557 -0.1 -0.898 -0.1 -0.308 0 -0.558 0.054 -0.75 0.162 -0.192 0.1 -0.289 0.26 -0.289 0.477 0 0.108 0.017 0.204 0.051 0.287 0.042 0.083 0.108 0.161 0.199 0.236 0.092 0.067 0.213 0.138 0.363 0.213 0.15 0.067 0.334 0.138 0.551 0.213 0.358 0.133 0.662 0.267 0.912 0.4 0.25 0.125 0.453 0.271 0.611 0.438 0.167 0.158 0.288 0.34 0.363 0.549 0.075 0.208 0.113 0.458 0.113 0.75 0 0.625 -0.235 1.101 -0.701 1.426 -0.458 0.317 -1.116 0.475 -1.975 0.475 -0.575 0 -1.037 -0.05 -1.387 -0.15 -0.35 -0.092 -0.597 -0.166 -0.738 -0.225 l 0.262 -1.262 c 0.225 0.092 0.492 0.178 0.801 0.262 0.317 0.083 0.674 0.125 1.074 0.125 0.4 0 0.692 -0.045 0.875 -0.137 0.183 -0.1 0.275 -0.267 0.275 -0.5 0 -0.217 -0.099 -0.395 -0.299 -0.537 -0.192 -0.142 -0.513 -0.296 -0.963 -0.463 -0.275 -0.1 -0.53 -0.204 -0.764 -0.313 -0.225 -0.117 -0.419 -0.25 -0.586 -0.4 -0.167 -0.15 -0.3 -0.329 -0.4 -0.537 -0.092 -0.217 -0.139 -0.479 -0.139 -0.787 0 -0.6 0.222 -1.072 0.664 -1.414 0.442 -0.35 1.04 -0.523 1.799 -0.523 z" style="fill:#ececec;fill-opacity:1"/>
</svg>
