<svg xmlns="http://www.w3.org/2000/svg" viewBox="0 0 24 24">
 <path style="fill:#ececec;fill-opacity:1" d="m 4 2 c -1.108 0 -2 0.892 -2 2 l 0 16 c 0 1.108 0.892 2 2 2 l 16 0 c 1.108 0 2 -0.892 2 -2 l 0 -16 c 0 -1.108 -0.892 -2 -2 -2 l -16 0 z m 8.736 4.551 0 3.236 c 0.167 -0.058 0.358 -0.109 0.574 -0.15 0.225 -0.042 0.445 -0.063 0.662 -0.063 0.525 0 0.959 0.077 1.301 0.227 0.35 0.142 0.63 0.345 0.838 0.611 0.208 0.258 0.354 0.571 0.438 0.938 0.092 0.367 0.137 0.775 0.137 1.225 l 0 3.676 -1.512 0 0 -3.438 c 0 -0.35 -0.026 -0.645 -0.076 -0.887 -0.042 -0.25 -0.116 -0.452 -0.225 -0.602 -0.1 -0.158 -0.237 -0.269 -0.412 -0.336 -0.175 -0.075 -0.392 -0.113 -0.65 -0.113 -0.2 0 -0.405 0.021 -0.613 0.063 -0.208 0.042 -0.361 0.08 -0.461 0.113 l 0 5.199 -1.514 0 0 -9.449 1.514 -0.25 z m -9.236 1.037 l 6.199 0 0 1.162 c -0.275 0.3 -0.608 0.692 -1 1.176 c -0.392 0.475 -0.796 0.996 -1.213 1.562 -0.417 0.558 -0.828 1.136 -1.236 1.736 c -0.4 0.592 -0.754 1.154 -1.063 1.688 l 4.648 0 0 1.338 -6.549 0 0 -0.988 c 0.167 -0.308 0.358 -0.642 0.574 -1 0.225 -0.367 0.463 -0.742 0.713 -1.125 0.25 -0.383 0.509 -0.77 0.775 -1.162 0.275 -0.392 0.546 -0.767 0.813 -1.125 c 0.267 -0.367 0.525 -0.712 0.775 -1.037 0.258 -0.333 0.5 -0.628 0.725 -0.887 l -4.162 0 0 -1.338 z m 14.83 6.83 2.213 0 0 0.639 -1.57 0 c -0.004 0.071 -0.009 0.152 -0.018 0.244 -0.004 0.088 -0.011 0.176 -0.02 0.268 -0.004 0.092 -0.009 0.18 -0.018 0.264 -0.008 0.083 -0.017 0.153 -0.025 0.211 0.617 0.033 1.07 0.176 1.361 0.426 0.296 0.246 0.445 0.583 0.445 1.012 0 0.196 -0.035 0.378 -0.102 0.545 -0.067 0.167 -0.167 0.311 -0.305 0.432 -0.137 0.121 -0.311 0.216 -0.52 0.287 -0.208 0.067 -0.451 0.1 -0.73 0.1 -0.113 0 -0.227 -0.009 -0.344 -0.025 -0.117 -0.017 -0.23 -0.038 -0.338 -0.063 -0.104 -0.021 -0.198 -0.043 -0.281 -0.068 -0.083 -0.025 -0.146 -0.048 -0.188 -0.068 l 0.143 -0.639 c 0.087 0.042 0.212 0.089 0.375 0.139 0.167 0.046 0.37 0.068 0.607 0.068 0.163 0 0.301 -0.017 0.418 -0.051 0.117 -0.038 0.21 -0.086 0.281 -0.148 0.075 -0.063 0.129 -0.134 0.162 -0.213 0.033 -0.083 0.051 -0.172 0.051 -0.264 0 -0.137 -0.028 -0.259 -0.082 -0.367 -0.054 -0.108 -0.15 -0.2 -0.287 -0.275 -0.133 -0.075 -0.314 -0.132 -0.543 -0.17 -0.225 -0.038 -0.512 -0.055 -0.857 -0.055 0.046 -0.4 0.082 -0.78 0.107 -1.139 0.025 -0.363 0.046 -0.725 0.063 -1.088 z"/>
</svg>
