<svg xmlns="http://www.w3.org/2000/svg" viewBox="0 0 24 24">
 <path d="M 4,2 C 2.892,2 2,2.892 2,4 l 0,16 c 0,1.108 0.892,2 2,2 l 16,0 c 1.108,0 2,-0.892 2,-2 L 22,4 C 22,2.892 21.108,2 20,2 L 4,2 Z m 4.738,5.838 1.486,0 c 0.292,0.617 0.577,1.242 0.852,1.875 0.275,0.633 0.549,1.3 0.824,2 0.283,0.7 0.572,1.441 0.863,2.225 0.3,0.783 0.613,1.637 0.938,2.563 l -1.701,0 c -0.117,-0.342 -0.236,-0.678 -0.361,-1.012 -0.125,-0.333 -0.247,-0.675 -0.363,-1.025 l -3.65,0 c -0.117,0.35 -0.236,0.695 -0.361,1.037 l -0.352,1 -1.637,0 c 0.325,-0.925 0.634,-1.779 0.926,-2.563 0.292,-0.783 0.575,-1.525 0.85,-2.225 0.283,-0.7 0.563,-1.367 0.838,-2 C 8.165,9.08 8.448,8.455 8.74,7.838 Z m 0.713,1.674 c -0.192,0.442 -0.414,0.98 -0.664,1.613 -0.242,0.633 -0.495,1.321 -0.762,2.063 l 2.85,0 C 10.608,12.446 10.35,11.755 10.1,11.114 9.85,10.472 9.635,9.937 9.452,9.512 Z m 7.818,0.313 c 0.1,0 0.218,0.009 0.352,0.025 0.133,0.008 0.265,0.026 0.398,0.051 0.133,0.017 0.264,0.041 0.389,0.074 0.125,0.025 0.224,0.051 0.299,0.076 l -0.262,1.273 c -0.125,-0.042 -0.3,-0.083 -0.525,-0.125 -0.217,-0.05 -0.47,-0.074 -0.762,-0.074 -0.167,0 -0.345,0.017 -0.537,0.051 -0.183,0.033 -0.314,0.061 -0.389,0.086 l 0,5.238 -1.512,0 0,-6.225 c 0.292,-0.108 0.655,-0.209 1.088,-0.301 0.442,-0.1 0.928,-0.15 1.461,-0.15 z" style="fill:#ececec;fill-opacity:1"/>
</svg>
