<svg xmlns="http://www.w3.org/2000/svg" viewBox="0 0 24 24">
 <path d="m 4 2 c -1.108 0 -2 0.892 -2 2 l 0 16 c 0 1.108 0.892 2 2 2 l 16 0 c 1.108 0 2 -0.892 2 -2 l 0 -16 c 0 -1.108 -0.892 -2 -2 -2 l -16 0 z m 0.914 5.588 1.574 0 0 7.299 3.9 0 0 1.363 -5.475 0 0 -8.662 z m 5.252 2.125 1.613 0 c 0.092 0.367 0.196 0.763 0.313 1.188 0.125 0.417 0.253 0.837 0.387 1.262 0.142 0.417 0.284 0.825 0.426 1.225 0.15 0.392 0.287 0.746 0.412 1.063 0.125 -0.317 0.259 -0.671 0.4 -1.063 0.142 -0.4 0.279 -0.808 0.412 -1.225 0.142 -0.425 0.275 -0.845 0.4 -1.262 0.125 -0.425 0.233 -0.821 0.324 -1.188 l 1.563 0 c -0.358 1.275 -0.758 2.471 -1.199 3.588 -0.433 1.108 -0.859 2.091 -1.275 2.949 l -1.299 0 c -0.417 -0.858 -0.847 -1.841 -1.289 -2.949 -0.433 -1.117 -0.829 -2.313 -1.188 -3.588 z m 8.531 4.705 0.719 0 0 2.676 0.486 0 0 0.619 -0.486 0 0 1.037 -0.738 0 0 -1.037 -1.9 0 0 -0.537 c 0.083 -0.183 0.195 -0.395 0.332 -0.633 0.142 -0.238 0.298 -0.48 0.469 -0.73 0.171 -0.25 0.351 -0.497 0.543 -0.738 0.192 -0.242 0.385 -0.46 0.576 -0.656 z m -0.02 0.932 c -0.1 0.121 -0.204 0.251 -0.313 0.389 -0.104 0.137 -0.207 0.28 -0.307 0.43 -0.1 0.15 -0.195 0.305 -0.287 0.463 -0.092 0.154 -0.175 0.309 -0.25 0.463 l 1.156 0 0 -1.744 z" style="fill:#ececec;fill-opacity:1"/>
</svg>
