<svg viewBox="0 0 24 24" xmlns="http://www.w3.org/2000/svg">
 <path d="m 4 2 c -1.108 0 -2 0.892 -2 2 l 0 16 c 0 1.108 0.892 2 2 2 l 16 0 c 1.108 0 2 -0.892 2 -2 l 0 -16 c 0 -1.108 -0.892 -2 -2 -2 l -16 0 z m 9.67 4.863 c 0.25 0 0.467 0.083 0.65 0.25 0.183 0.167 0.275 0.396 0.275 0.688 0 0.283 -0.092 0.507 -0.275 0.674 -0.183 0.167 -0.4 0.25 -0.65 0.25 -0.258 0 -0.479 -0.083 -0.662 -0.25 -0.183 -0.167 -0.275 -0.39 -0.275 -0.674 0 -0.292 0.092 -0.521 0.275 -0.688 0.183 -0.167 0.404 -0.25 0.662 -0.25 z m -7.572 0.725 5.475 0 0 1.338 -3.9 0 0 2.211 3.463 0 0 1.338 -3.463 0 0 3.775 -1.574 0 0 -8.662 z m 6.822 2.125 1.512 0 0 6.537 -1.512 0 0 -6.537 z m 4.404 4.705 0.531 0 0 4.332 -0.756 0 0 -3.318 c -0.113 0.088 -0.253 0.173 -0.424 0.256 -0.171 0.083 -0.336 0.153 -0.494 0.207 l -0.232 -0.576 c 0.242 -0.096 0.485 -0.219 0.727 -0.369 0.246 -0.15 0.461 -0.327 0.648 -0.531 z" style="fill:#ececec;fill-opacity:1"/>
</svg>
