<svg viewBox="0 0 24 24" xmlns="http://www.w3.org/2000/svg">
 <path d="m 4 2 c -1.108 0 -2 0.892 -2 2 l 0 16 c 0 1.108 0.892 2 2 2 l 16 0 c 1.108 0 2 -0.892 2 -2 l 0 -16 c 0 -1.108 -0.892 -2 -2 -2 l -16 0 z m -0.479 5.588 1.576 0 0 3.463 3.762 0 0 -3.463 1.576 0 0 8.662 -1.576 0 0 -3.838 -3.762 0 0 3.838 -1.576 0 0 -8.662 z m 8.06 2.125 1.611 0 c 0.083 0.35 0.184 0.728 0.301 1.137 0.125 0.408 0.259 0.825 0.4 1.25 0.142 0.417 0.291 0.833 0.449 1.25 0.158 0.417 0.316 0.804 0.475 1.162 0.267 -0.742 0.517 -1.528 0.75 -2.361 0.233 -0.842 0.447 -1.654 0.639 -2.438 l 1.563 0 c -0.675 2.483 -1.458 4.733 -2.35 6.75 -0.167 0.375 -0.339 0.696 -0.514 0.963 -0.175 0.267 -0.371 0.487 -0.588 0.662 -0.217 0.175 -0.458 0.3 -0.725 0.375 -0.267 0.083 -0.574 0.125 -0.924 0.125 -0.233 0 -0.468 -0.026 -0.701 -0.076 -0.225 -0.05 -0.395 -0.104 -0.512 -0.162 l 0.275 -1.213 c 0.3 0.117 0.595 0.176 0.887 0.176 0.392 0 0.695 -0.095 0.912 -0.287 0.225 -0.183 0.421 -0.472 0.588 -0.863 -0.475 -0.917 -0.933 -1.917 -1.375 -3 -0.433 -1.083 -0.82 -2.233 -1.162 -3.449 z m 9.332 4.682 0.043 0.625 c -0.225 0.004 -0.435 0.028 -0.631 0.074 -0.196 0.042 -0.371 0.108 -0.525 0.199 -0.154 0.092 -0.288 0.212 -0.4 0.357 -0.108 0.146 -0.192 0.325 -0.25 0.537 0.204 -0.096 0.428 -0.145 0.67 -0.145 0.258 0 0.477 0.038 0.656 0.113 0.183 0.071 0.331 0.168 0.443 0.293 0.113 0.125 0.194 0.271 0.244 0.438 0.054 0.163 0.08 0.335 0.08 0.514 0 0.163 -0.03 0.329 -0.088 0.5 -0.054 0.171 -0.141 0.327 -0.262 0.469 -0.117 0.137 -0.264 0.252 -0.443 0.344 -0.179 0.087 -0.393 0.131 -0.639 0.131 -0.496 0 -0.874 -0.163 -1.137 -0.488 c -0.258 -0.329 -0.387 -0.78 -0.387 -1.355 c 0 -0.417 0.059 -0.785 0.18 -1.105 0.125 -0.325 0.3 -0.599 0.525 -0.82 0.229 -0.221 0.505 -0.387 0.826 -0.5 0.325 -0.117 0.69 -0.176 1.094 -0.18 z m -1.188 2.25 c -0.121 0 -0.239 0.01 -0.352 0.031 -0.113 0.021 -0.213 0.052 -0.305 0.094 -0.004 0.033 -0.009 0.07 -0.014 0.111 l 0 0.113 c 0 0.167 0.01 0.325 0.031 0.475 0.025 0.146 0.065 0.274 0.119 0.387 0.058 0.108 0.135 0.197 0.23 0.264 0.1 0.063 0.223 0.094 0.369 0.094 0.121 0 0.223 -0.026 0.307 -0.076 0.087 -0.05 0.159 -0.114 0.213 -0.193 0.054 -0.079 0.094 -0.164 0.119 -0.256 0.025 -0.096 0.037 -0.188 0.037 -0.275 0 -0.25 -0.061 -0.439 -0.182 -0.568 -0.121 -0.133 -0.312 -0.199 -0.574 -0.199 z" style="fill:#ececec;fill-opacity:1"/>
</svg>
