<svg viewBox="0 0 24 24" xmlns="http://www.w3.org/2000/svg">
 <path style="fill:#ececec;fill-opacity:1" d="m 4 2 c -1.108 0 -2 0.892 -2 2 l 0 16 c 0 1.108 0.892 2 2 2 l 16 0 c 1.108 0 2 -0.892 2 -2 l 0 -16 c 0 -1.108 -0.892 -2 -2 -2 l -16 0 z m 8.736 4.551 0 3.236 c 0.167 -0.058 0.358 -0.109 0.574 -0.15 0.225 -0.042 0.445 -0.063 0.662 -0.063 0.525 0 0.959 0.077 1.301 0.227 0.35 0.142 0.63 0.345 0.838 0.611 0.208 0.258 0.354 0.571 0.438 0.938 0.092 0.367 0.137 0.775 0.137 1.225 l 0 3.676 -1.512 0 0 -3.438 c 0 -0.35 -0.026 -0.645 -0.076 -0.887 -0.042 -0.25 -0.116 -0.452 -0.225 -0.602 -0.1 -0.158 -0.237 -0.269 -0.412 -0.336 -0.175 -0.075 -0.392 -0.113 -0.65 -0.113 -0.2 0 -0.405 0.021 -0.613 0.063 -0.208 0.042 -0.361 0.08 -0.461 0.113 l 0 5.199 -1.514 0 0 -9.449 1.514 -0.25 z m -9.236 1.037 l 6.199 0 0 1.162 c -0.275 0.3 -0.608 0.692 -1 1.176 c -0.392 0.475 -0.796 0.996 -1.213 1.562 -0.417 0.558 -0.828 1.136 -1.236 1.736 c -0.4 0.592 -0.754 1.154 -1.063 1.688 l 4.648 0 0 1.338 -6.549 0 0 -0.988 c 0.167 -0.308 0.358 -0.642 0.574 -1 0.225 -0.367 0.463 -0.742 0.713 -1.125 0.25 -0.383 0.509 -0.77 0.775 -1.162 0.275 -0.392 0.546 -0.767 0.813 -1.125 c 0.267 -0.367 0.525 -0.712 0.775 -1.037 0.258 -0.333 0.5 -0.628 0.725 -0.887 l -4.162 0 0 -1.338 z m 16.16 6.83 0.719 0 0 2.676 0.488 0 0 0.619 -0.488 0 0 1.037 -0.736 0 0 -1.037 -1.9 0 0 -0.537 c 0.083 -0.183 0.195 -0.395 0.332 -0.633 0.142 -0.238 0.298 -0.48 0.469 -0.73 0.171 -0.25 0.351 -0.497 0.543 -0.738 0.192 -0.242 0.383 -0.46 0.574 -0.656 z m -0.018 0.932 c -0.1 0.121 -0.204 0.251 -0.313 0.389 -0.104 0.137 -0.207 0.28 -0.307 0.43 -0.1 0.15 -0.195 0.305 -0.287 0.463 -0.092 0.154 -0.175 0.309 -0.25 0.463 l 1.156 0 0 -1.744 z"/>
</svg>
