<svg xmlns="http://www.w3.org/2000/svg" viewBox="0 0 24 24">
 <path d="m 4 2 c -1.108 0 -2 0.892 -2 2 l 0 16 c 0 1.108 0.892 2 2 2 l 16 0 c 1.108 0 2 -0.892 2 -2 l 0 -16 c 0 -1.108 -0.892 -2 -2 -2 l -16 0 z m 3.121 5.5 c 0.525 0 1.01 0.042 1.461 0.125 0.45 0.075 0.839 0.203 1.164 0.387 0.333 0.183 0.59 0.427 0.773 0.727 0.183 0.3 0.275 0.67 0.275 1.111 0 0.408 -0.099 0.759 -0.299 1.051 -0.192 0.292 -0.463 0.524 -0.813 0.699 0.525 0.175 0.912 0.434 1.162 0.775 0.25 0.342 0.375 0.776 0.375 1.301 0 0.892 -0.325 1.562 -0.975 2.01 -0.65 0.442 -1.647 0.662 -2.988 0.662 -0.458 0 -0.92 -0.015 -1.387 -0.049 -0.467 -0.025 -0.877 -0.084 -1.227 -0.176 l 0 -8.412 c 0.183 -0.033 0.38 -0.063 0.588 -0.088 0.208 -0.033 0.422 -0.058 0.639 -0.074 0.217 -0.017 0.428 -0.031 0.637 -0.039 0.217 -0.008 0.422 -0.012 0.613 -0.012 z m 0.199 1.287 c -0.242 0 -0.459 0.005 -0.65 0.014 -0.183 0.008 -0.341 0.02 -0.475 0.037 l 0 2.275 1.113 0 c 0.6 0 1.07 -0.083 1.412 -0.25 0.342 -0.175 0.512 -0.484 0.512 -0.926 0 -0.417 -0.179 -0.712 -0.537 -0.887 -0.35 -0.175 -0.808 -0.264 -1.375 -0.264 z m 8 0.787 c 0.1 0 0.216 0.009 0.35 0.025 0.133 0.008 0.267 0.026 0.4 0.051 0.133 0.017 0.262 0.041 0.387 0.074 0.125 0.025 0.226 0.051 0.301 0.076 l -0.264 1.273 c -0.125 -0.042 -0.3 -0.083 -0.525 -0.125 -0.217 -0.05 -0.47 -0.074 -0.762 -0.074 -0.167 0 -0.345 0.017 -0.537 0.051 -0.183 0.033 -0.314 0.061 -0.389 0.086 l 0 5.238 -1.512 0 0 -6.225 c 0.292 -0.108 0.655 -0.209 1.088 -0.301 0.442 -0.1 0.93 -0.15 1.463 -0.15 z m -9.129 2.775 0 2.639 c 0.175 0.017 0.362 0.029 0.563 0.037 0.2 0.008 0.384 0.012 0.551 0.012 0.325 0 0.623 -0.021 0.898 -0.063 0.283 -0.042 0.527 -0.113 0.727 -0.213 0.208 -0.108 0.37 -0.249 0.486 -0.424 0.125 -0.175 0.188 -0.401 0.188 -0.676 0 -0.492 -0.179 -0.834 -0.537 -1.025 -0.358 -0.192 -0.855 -0.287 -1.488 -0.287 l -1.387 0 z m 12.301 1.969 c 0.462 0 0.803 0.111 1.02 0.332 0.221 0.217 0.33 0.513 0.33 0.893 0 0.15 -0.031 0.299 -0.094 0.445 -0.063 0.142 -0.142 0.28 -0.242 0.418 -0.096 0.133 -0.207 0.265 -0.332 0.395 -0.125 0.125 -0.25 0.246 -0.375 0.367 -0.067 0.063 -0.141 0.139 -0.225 0.227 -0.083 0.087 -0.163 0.174 -0.238 0.262 -0.075 0.087 -0.139 0.173 -0.193 0.256 -0.054 0.079 -0.084 0.147 -0.088 0.201 l 1.926 0 0 0.637 -2.756 0 c -0.004 -0.033 -0.008 -0.073 -0.008 -0.119 l 0 -0.111 c 0 -0.2 0.031 -0.384 0.094 -0.551 0.067 -0.171 0.154 -0.329 0.258 -0.475 0.104 -0.146 0.22 -0.283 0.35 -0.412 0.129 -0.129 0.258 -0.258 0.387 -0.383 0.1 -0.096 0.195 -0.19 0.287 -0.281 0.092 -0.092 0.172 -0.18 0.238 -0.268 0.071 -0.092 0.126 -0.184 0.168 -0.275 0.042 -0.096 0.063 -0.193 0.063 -0.293 0 -0.217 -0.063 -0.371 -0.188 -0.463 -0.125 -0.092 -0.276 -0.139 -0.455 -0.139 -0.117 0 -0.226 0.017 -0.326 0.051 -0.1 0.033 -0.188 0.073 -0.268 0.119 -0.075 0.046 -0.143 0.093 -0.201 0.143 -0.058 0.046 -0.102 0.084 -0.131 0.113 l -0.375 -0.531 c 0.175 -0.167 0.38 -0.3 0.613 -0.4 0.238 -0.104 0.491 -0.156 0.762 -0.156 z" style="fill:#ececec;fill-opacity:1"/>
</svg>
