
<!-- Created with Inkscape (http://www.inkscape.org/) -->
<svg viewBox="0 0 50 50" height="24" xmlns="http://www.w3.org/2000/svg" width="24">
 <path style="fill:#ececec;opacity:1;fill-opacity:1;stroke:none;fill-rule:nonzero" d="m 31.25 6.25 c -6.904 0 -12.5 5.596 -12.5 12.5 0.004 1.771 0.383 3.521 1.115 5.135 l -1.115 1.115 -6.25 -6.25 -6.25 0 0 6.25 6.25 6.25 -6.25 6.25 0 6.25 6.25 0 6.25 -6.25 6.25 6.25 6.25 0 0 -6.25 -6.25 -6.25 1.119 -1.119 c 1.612 0.731 3.36 1.112 5.131 1.119 6.904 0 12.5 -5.596 12.5 -12.5 0 -6.904 -5.596 -12.5 -12.5 -12.5 z m 3.125 6.25 c 1.725 0 3.125 1.4 3.125 3.125 0 1.725 -1.4 3.125 -3.125 3.125 -1.725 0 -3.125 -1.4 -3.125 -3.125 0 -1.725 1.4 -3.125 3.125 -3.125 z"/>
 <path style="fill:#ececec;fill-opacity:1" d="m 39.583 29.17 c -2.308 0 -4.167 1.898 -4.167 4.231 l 0 2.02 c -1.154 0 -2.083 0.929 -2.083 2.083 l 0 6.25 c 0 1.154 0.929 2.083 2.083 2.083 l 8.333 0 c 1.154 0 2.083 -0.929 2.083 -2.083 l 0 -6.25 c 0 -1.154 -0.929 -2.083 -2.083 -2.083 l 0 -2.02 c 0 -2.333 -1.858 -4.231 -4.167 -4.231 z m 0 2.083 c 1.154 0 2.083 0.921 2.083 2.083 l 0 2.083 -4.167 0 0 -2.083 c 0 -1.163 0.929 -2.083 2.083 -2.083 z"/>
</svg>
