<svg xmlns="http://www.w3.org/2000/svg" viewBox="0 0 15.273 24">
 <path d="m 7.658 3 c -2.323 -0.02 -4.508 1.735 -4.937 3.937 -0.429 2.202 0.734 4.267 2.906 5.062 l 0 6 c 0 2 1.13 3.02 2 3 0.87 -0.017 2 -1 2 -3 l 2 -1 -3 -1 3 -2 -2 -1 0 -1 c 2.186 -0.758 3.326 -2.759 2.938 -4.969 -0.389 -2.209 -2.584 -4.01 -4.907 -4.03 z m 0 2.969 c 0.585 0 1.031 0.447 1.031 1.031 0 0.585 -0.447 1.031 -1.031 1.031 -0.584 0 -1.031 -0.447 -1.031 -1.031 0 -0.585 0.447 -1.031 1.031 -1.031 z m 0 1 c 0.022 0 -0.031 0.053 -0.031 0.031 0 -0.022 0.053 0.031 0.031 0.031 -0.022 0 0.031 -0.053 0.031 -0.031 0 0.022 -0.053 -0.031 -0.031 -0.031 z" style="fill:#ef555c;opacity:1;fill-opacity:1;color:#000"/>
</svg>
