<svg xmlns="http://www.w3.org/2000/svg" width="24" viewBox="0 0 6.7733335 6.7733335" height="24">
 <path d="m 3.387 1.129 c -1.247 0 -2.258 1.01 -2.258 2.258 0 0.453 0.135 0.874 0.365 1.228 l 0.747 -1.497 0.017 -0.035 0 -0.023 l -0.235 -0.136 0.141 -0.244 c 0.029 -0.049 0.061 -0.096 0.095 -0.141 0.275 -0.367 0.716 -0.582 1.181 -0.564 0.361 0.013 0.637 0.252 0.885 0.5 l 0.956 -0.317 c -0.403 -0.619 -1.099 -1.029 -1.892 -1.029 m 1.893 1.03 -0.764 1.532 0 0.023 0.235 0.136 -0.141 0.244 c -0.029 0.049 -0.061 0.096 -0.095 0.141 c -0.275 0.367 -0.716 0.582 -1.181 0.564 -0.361 -0.013 -0.637 -0.252 -0.885 -0.5 l -0.955 0.318 c 0.403 0.619 1.099 1.029 1.892 1.029 1.247 0 2.258 -1.01 2.258 -2.258 0 -0.453 -0.135 -0.874 -0.365 -1.228 z" style="fill:#ececec;opacity:1;fill-opacity:1;stroke:none;fill-rule:nonzero"/>
 <g transform="matrix(0.28222222,0,0,0.28222222,-4.6776128,0.52916681)">
  <path d="m 28.721 6.125 c 1.309 0.048 2.5 0.737 3.203 1.818 l 1.389 -0.463 -1.572 3.146 -3.145 -1.574 1.277 -0.426 c -0.338 -0.294 -0.761 -0.485 -1.227 -0.502 -0.742 -0.027 -1.435 0.355 -1.807 0.998 l -1.732 -1 c 0.74 -1.282 2.134 -2.053 3.613 -1.998 z m -3.313 3.498 3.145 1.574 -1.277 0.426 c 0.338 0.294 0.761 0.485 1.227 0.502 0.742 0.027 1.435 -0.355 1.807 -0.998 l 1.732 1 c -0.74 1.282 -2.134 2.053 -3.613 1.998 -1.309 -0.048 -2.5 -0.737 -3.203 -1.818 l -1.389 0.463 z" style="fill:#ececec;opacity:1;fill-opacity:1;stroke:none;fill-rule:nonzero"/>
  <g transform="matrix(0.42297932,0,0,0.42297932,-11.083711,3.1945516)">
   <!-- color: #004794 -->
  </g>
 </g>
 <g transform="matrix(0.28222222,0,0,0.28222222,-4.9598351,0.81138907)" style="stroke-dasharray:none;stroke-opacity:1;stroke-miterlimit:4;stroke:#000;stroke-width:1">
  <g transform="matrix(0.42297932,0,0,0.42297932,-11.083711,3.1945516)" style="stroke:#000;stroke-width:2.364">
   <!-- color: #004794 -->
  </g>
 </g>
</svg>
