<svg xmlns="http://www.w3.org/2000/svg" viewBox="0 0 24 24">
 <g transform="translate(0.5532588,0.999999)" style="fill:#ececec;opacity:0.4;fill-opacity:1;stroke:none">
  <path d="m 16.447 16.472 c -0.458 0.119 -1.474 0.371 -2.225 0.475 -0.984 0.137 -2.122 0.213 -2.973 0.198 c -0.608 -0.011 -1.41 -0.139 -1.8 -0.291 -0.373 -0.153 -0.713 -0.356 -1 -0.61 l 0 4.757 -2 0 0 -16 2 0 0 6.181 c 0 0.729 0.043 1.348 0.128 1.857 0.102 0.509 0.254 0.924 0.458 1.246 0.22 0.322 0.5 0.56 0.839 0.712 0.356 0.136 1.149 0.25 1.658 0.25 0.22 0 1.191 -0.055 1.411 -0.072 0.237 -0.017 0.453 -0.034 0.657 -0.051 0.203 -0.017 0.343 -0.045 0.496 -0.062 0.153 -0.034 0.293 -0.048 0.344 -0.065 l 0 -9.997 2.01 0 z"/>
 </g>
</svg>
