<svg xmlns="http://www.w3.org/2000/svg" viewBox="0 0 21.818001 24">
 <g transform="translate(-27.898305,8.220339)">
  <path d="m 31.807 -4.22 c -0.554 0 -1 0.489 -1 1.094 l 0 9.813 c 0 0.605 0.446 1.094 1 1.094 l 14 0 c 0.554 0 1 -0.489 1 -1.094 l 0 -9.813 c 0 -0.604 -0.446 -1.093 -1 -1.093 l -14 0 z m 1 2 12 0 0 8 -12 0 0 -8 z m 3 11 0 1 -2 0 0 2 10 0 0 -2 -2 0 0 -1 -6 0 z" style="fill:#ececec;fill-opacity:1"/>
  <path d="m 36.31 2.78 c 0 0 0.497 -1 2.497 -1 2 0 2.497 1.042 2.497 1.042 m -6.497 -1.534 c 0 0 0.982 -1.55 4 -1.508 3.02 0.042 4 1.508 4 1.508 m -4.565 3.057 c 0 0 -0.021 -0.565 0.565 -0.565 0.577 0 0.482 0.565 0.482 0.565" style="stroke-opacity:1;fill:none;fill-opacity:1;stroke:#ececec;stroke-linecap:round"/>
 </g>
</svg>
