
<!-- Created with Inkscape (http://www.inkscape.org/) -->
<svg xmlns="http://www.w3.org/2000/svg" viewBox="0 0 24 24">
 <text style="font-size:12.666;font-family:Bitstream Vera Sans;fill:#ececec;opacity:0.4;fill-opacity:1" y="-12.687" x="877.23"><tspan y="-12.687" x="877.23"/>
 </text>
 <text style="font-size:12.666;font-family:Bitstream Vera Sans;fill:#ececec;opacity:0.4;fill-opacity:1" y="-53.43" x="901.19"><tspan y="-53.43" x="901.19"/>
 </text>
 <text style="font-size:12.666;font-family:Bitstream Vera Sans;fill:#ececec;opacity:0.4;fill-opacity:1" y="-83.51" x="-569.37"><tspan y="-83.51" x="-569.37"/>
 </text>
 <text style="font-size:12.666;font-family:Bitstream Vera Sans;fill:#ececec;opacity:0.4;fill-opacity:1" y="662.05" x="-2393.06"><tspan y="662.05" x="-2393.06"/>
 </text>
 <text style="font-size:12.666;font-family:Bitstream Vera Sans;fill:#ececec;opacity:0.4;fill-opacity:1" y="-468.83" x="-454.88"><tspan y="-468.83" x="-454.88"/>
 </text>
 <text style="font-size:12.666;font-family:Bitstream Vera Sans;fill:#ececec;opacity:0.4;fill-opacity:1" y="-882.3" x="352.72"><tspan y="-882.3" x="352.72"/>
 </text>
 <text style="font-size:12.666;font-family:Bitstream Vera Sans;fill:#ececec;opacity:0.4;fill-opacity:1" y="-923.04" x="376.68"><tspan y="-923.04" x="376.68"/>
 </text>
 <text style="font-size:12.666;font-family:Bitstream Vera Sans;fill:#ececec;opacity:0.4;fill-opacity:1" y="-930.25" x="-1114.78"><tspan y="-930.25" x="-1114.78"/>
 </text>
 <text style="font-size:12.666;font-family:Bitstream Vera Sans;fill:#ececec;opacity:0.4;fill-opacity:1" y="-1203.48" x="345.76"><tspan y="-1203.48" x="345.76"/>
 </text>
 <text style="font-size:12.666;font-family:Bitstream Vera Sans;fill:#ececec;opacity:0.4;fill-opacity:1" y="-576.79" x="1831.89"><tspan y="-576.79" x="1831.89"/>
 </text>
 <text style="font-size:12.666;font-family:Bitstream Vera Sans;fill:#ececec;opacity:0.4;fill-opacity:1" y="-617.53" x="1855.85"><tspan y="-617.53" x="1855.85"/>
 </text>
 <text style="font-size:12.666;font-family:Bitstream Vera Sans;fill:#ececec;opacity:0.4;fill-opacity:1" y="-624.74" x="364.38"><tspan y="-624.74" x="364.38"/>
 </text>
 <text style="font-size:12.666;font-family:Bitstream Vera Sans;fill:#ececec;opacity:0.4;fill-opacity:1" y="-897.98" x="1824.93"><tspan y="-897.98" x="1824.93"/>
 </text>
 <text style="font-size:12.666;font-family:Bitstream Vera Sans;fill:#ececec;opacity:0.4;fill-opacity:1" y="-672.84" x="-573.43"><tspan y="-672.84" x="-573.43"/>
 </text>
 <text style="font-size:12.666;font-family:Bitstream Vera Sans;fill:#ececec;opacity:0.4;fill-opacity:1" y="72.72" x="-2397.12"><tspan y="72.72" x="-2397.12"/>
 </text>
 <text style="font-size:12.666;font-family:Bitstream Vera Sans;fill:#ececec;opacity:0.4;fill-opacity:1" y="165.59" x="-682.36"><tspan y="165.59" x="-682.36"/>
 </text>
 <text style="font-size:12.666;font-family:Bitstream Vera Sans;fill:#ececec;opacity:0.4;fill-opacity:1" y="-13.592" x="426.66"><tspan y="-13.592" x="426.66"/>
 </text>
 <text style="font-size:12.666;font-family:Bitstream Vera Sans;fill:#ececec;opacity:0.4;fill-opacity:1" y="-54.33" x="450.62"><tspan y="-54.33" x="450.62"/>
 </text>
 <text style="font-size:12.666;font-family:Bitstream Vera Sans;fill:#ececec;opacity:0.4;fill-opacity:1" y="-61.54" x="-1040.84"><tspan y="-61.54" x="-1040.84"/>
 </text>
 <text style="font-size:12.666;font-family:Bitstream Vera Sans;fill:#ececec;opacity:0.4;fill-opacity:1" y="-334.78" x="419.7"><tspan y="-334.78" x="419.7"/>
 </text>
 <text style="font-size:12.666;font-family:Bitstream Vera Sans;fill:#ececec;opacity:0.4;fill-opacity:1" y="-64.26" x="-608.03"><tspan y="-64.26" x="-608.03"/>
 </text>
 <text style="font-size:12.666;font-family:Bitstream Vera Sans;fill:#ececec;opacity:0.4;fill-opacity:1" y="681.3" x="-2431.72"><tspan y="681.3" x="-2431.72"/>
 </text>
 <text style="font-size:12.666;font-family:Bitstream Vera Sans;fill:#ececec;opacity:0.4;fill-opacity:1" y="-925.79" x="-456.94"><tspan y="-925.79" x="-456.94"/>
 </text>
 <text style="font-size:12.666;font-family:Bitstream Vera Sans;fill:#ececec;opacity:0.4;fill-opacity:1" y="-1339.26" x="350.66"><tspan y="-1339.26" x="350.66"/>
 </text>
 <text style="font-size:12.666;font-family:Bitstream Vera Sans;fill:#ececec;opacity:0.4;fill-opacity:1" y="-1380" x="374.62"><tspan y="-1380" x="374.62"/>
 </text>
 <text style="font-size:12.666;font-family:Bitstream Vera Sans;fill:#ececec;opacity:0.4;fill-opacity:1" y="-1387.21" x="-1116.84"><tspan y="-1387.21" x="-1116.84"/>
 </text>
 <text style="font-size:12.666;font-family:Bitstream Vera Sans;fill:#ececec;opacity:0.4;fill-opacity:1" y="-1660.44" x="343.7"><tspan y="-1660.44" x="343.7"/>
 </text>
 <text style="font-size:12.666;font-family:Bitstream Vera Sans;fill:#ececec;opacity:0.4;fill-opacity:1" y="-1033.75" x="1829.83"><tspan y="-1033.75" x="1829.83"/>
 </text>
 <text style="font-size:12.666;font-family:Bitstream Vera Sans;fill:#ececec;opacity:0.4;fill-opacity:1" y="-1074.49" x="1853.79"><tspan y="-1074.49" x="1853.79"/>
 </text>
 <text style="font-size:12.666;font-family:Bitstream Vera Sans;fill:#ececec;opacity:0.4;fill-opacity:1" y="-1081.7" x="362.32"><tspan y="-1081.7" x="362.32"/>
 </text>
 <text style="font-size:12.666;font-family:Bitstream Vera Sans;fill:#ececec;opacity:0.4;fill-opacity:1" y="-1354.94" x="1822.87"><tspan y="-1354.94" x="1822.87"/>
 </text>
 <text style="font-size:12.666;font-family:Bitstream Vera Sans;fill:#ececec;opacity:0.4;fill-opacity:1" y="-1129.8" x="-575.49"><tspan y="-1129.8" x="-575.49"/>
 </text>
 <text style="font-size:12.666;font-family:Bitstream Vera Sans;fill:#ececec;opacity:0.4;fill-opacity:1" y="-384.24" x="-2399.18"><tspan y="-384.24" x="-2399.18"/>
 </text>
 <text style="font-size:12.666;font-family:Bitstream Vera Sans;fill:#ececec;opacity:0.4;fill-opacity:1" y="-291.37" x="-684.42"><tspan y="-291.37" x="-684.42"/>
 </text>
 <text style="font-size:12.666;font-family:Bitstream Vera Sans;fill:#ececec;opacity:0.4;fill-opacity:1" y="-50.46" x="155.59"><tspan y="-50.46" x="155.59"/>
 </text>
 <text style="font-size:12.666;font-family:Bitstream Vera Sans;fill:#ececec;opacity:0.4;fill-opacity:1" y="-91.2" x="179.55"><tspan y="-91.2" x="179.55"/>
 </text>
 <text style="font-size:12.666;font-family:Bitstream Vera Sans;fill:#ececec;opacity:0.4;fill-opacity:1" y="-285.23" x="-1090.26"><tspan y="-285.23" x="-1090.26"/>
 </text>
 <text style="font-size:12.666;font-family:Bitstream Vera Sans;fill:#ececec;opacity:0.4;fill-opacity:1" y="-698.7" x="-282.66"><tspan y="-698.7" x="-282.66"/>
 </text>
 <text style="font-size:12.666;font-family:Bitstream Vera Sans;fill:#ececec;opacity:0.4;fill-opacity:1" y="-739.44" x="-258.7"><tspan y="-739.44" x="-258.7"/>
 </text>
 <text style="font-size:12.666;font-family:Bitstream Vera Sans;fill:#ececec;opacity:0.4;fill-opacity:1" y="-746.65" x="-1750.16"><tspan y="-746.65" x="-1750.16"/>
 </text>
 <text style="font-size:12.666;font-family:Bitstream Vera Sans;fill:#ececec;opacity:0.4;fill-opacity:1" y="-1019.88" x="-289.62"><tspan y="-1019.88" x="-289.62"/>
 </text>
 <text style="font-size:12.666;font-family:Bitstream Vera Sans;fill:#ececec;opacity:0.4;fill-opacity:1" y="-393.19" x="1196.5"><tspan y="-393.19" x="1196.5"/>
 </text>
 <text style="font-size:12.666;font-family:Bitstream Vera Sans;fill:#ececec;opacity:0.4;fill-opacity:1" y="-433.93" x="1220.46"><tspan y="-433.93" x="1220.46"/>
 </text>
 <text style="font-size:12.666;font-family:Bitstream Vera Sans;fill:#ececec;opacity:0.4;fill-opacity:1" y="-441.14" x="-271"><tspan y="-441.14" x="-271"/>
 </text>
 <text style="font-size:12.666;font-family:Bitstream Vera Sans;fill:#ececec;opacity:0.4;fill-opacity:1" y="-714.38" x="1189.54"><tspan y="-714.38" x="1189.54"/>
 </text>
 <text style="font-size:12.666;font-family:Bitstream Vera Sans;fill:#ececec;opacity:0.4;fill-opacity:1" y="-489.23" x="-1208.82"><tspan y="-489.23" x="-1208.82"/>
 </text>
 <text style="font-size:12.666;font-family:Bitstream Vera Sans;fill:#ececec;opacity:0.4;fill-opacity:1" y="256.32" x="-3032.5"><tspan y="256.32" x="-3032.5"/>
 </text>
 <g style="fill:#ececec;opacity:0.4;fill-opacity:1" transform="matrix(0.90475 0 0 0.90475 -716.75 -699.79)">
  <text style="font-size:14;font-family:Bitstream Vera Sans;opacity:0.8" y="1159.42" x="-664.27"><tspan y="1159.42" x="-664.27"/>
  </text>
 </g>
 <text style="font-size:12.666;font-family:Bitstream Vera Sans;fill:#ececec;opacity:0.4;fill-opacity:1" y="-5.449" x="877.23"><tspan y="-5.449" x="877.23"/>
 </text>
 <text style="font-size:12.666;font-family:Bitstream Vera Sans;fill:#ececec;opacity:0.4;fill-opacity:1" y="-46.19" x="901.19"><tspan y="-46.19" x="901.19"/>
 </text>
 <text style="font-size:12.666;font-family:Bitstream Vera Sans;fill:#ececec;opacity:0.4;fill-opacity:1" y="-76.27" x="-569.37"><tspan y="-76.27" x="-569.37"/>
 </text>
 <text style="font-size:12.666;font-family:Bitstream Vera Sans;fill:#ececec;opacity:0.4;fill-opacity:1" y="669.28" x="-2393.06"><tspan y="669.28" x="-2393.06"/>
 </text>
 <text style="font-size:12.666;font-family:Bitstream Vera Sans;fill:#ececec;opacity:0.4;fill-opacity:1" y="-461.59" x="-454.88"><tspan y="-461.59" x="-454.88"/>
 </text>
 <text style="font-size:12.666;font-family:Bitstream Vera Sans;fill:#ececec;opacity:0.4;fill-opacity:1" y="-875.06" x="352.72"><tspan y="-875.06" x="352.72"/>
 </text>
 <text style="font-size:12.666;font-family:Bitstream Vera Sans;fill:#ececec;opacity:0.4;fill-opacity:1" y="-915.8" x="376.68"><tspan y="-915.8" x="376.68"/>
 </text>
 <text style="font-size:12.666;font-family:Bitstream Vera Sans;fill:#ececec;opacity:0.4;fill-opacity:1" y="-923.01" x="-1114.78"><tspan y="-923.01" x="-1114.78"/>
 </text>
 <text style="font-size:12.666;font-family:Bitstream Vera Sans;fill:#ececec;opacity:0.4;fill-opacity:1" y="-1196.25" x="345.76"><tspan y="-1196.25" x="345.76"/>
 </text>
 <text style="font-size:12.666;font-family:Bitstream Vera Sans;fill:#ececec;opacity:0.4;fill-opacity:1" y="-569.55" x="1831.89"><tspan y="-569.55" x="1831.89"/>
 </text>
 <text style="font-size:12.666;font-family:Bitstream Vera Sans;fill:#ececec;opacity:0.4;fill-opacity:1" y="-610.3" x="1855.85"><tspan y="-610.3" x="1855.85"/>
 </text>
 <text style="font-size:12.666;font-family:Bitstream Vera Sans;fill:#ececec;opacity:0.4;fill-opacity:1" y="-617.51" x="364.38"><tspan y="-617.51" x="364.38"/>
 </text>
 <text style="font-size:12.666;font-family:Bitstream Vera Sans;fill:#ececec;opacity:0.4;fill-opacity:1" y="-890.74" x="1824.93"><tspan y="-890.74" x="1824.93"/>
 </text>
 <text style="font-size:12.666;font-family:Bitstream Vera Sans;fill:#ececec;opacity:0.4;fill-opacity:1" y="-665.6" x="-573.43"><tspan y="-665.6" x="-573.43"/>
 </text>
 <text style="font-size:12.666;font-family:Bitstream Vera Sans;fill:#ececec;opacity:0.4;fill-opacity:1" y="79.956" x="-2397.12"><tspan y="79.956" x="-2397.12"/>
 </text>
 <text style="font-size:12.666;font-family:Bitstream Vera Sans;fill:#ececec;opacity:0.4;fill-opacity:1" y="172.83" x="-682.36"><tspan y="172.83" x="-682.36"/>
 </text>
 <text style="font-size:12.666;font-family:Bitstream Vera Sans;fill:#ececec;opacity:0.4;fill-opacity:1" y="-6.354" x="426.66"><tspan y="-6.354" x="426.66"/>
 </text>
 <text style="font-size:12.666;font-family:Bitstream Vera Sans;fill:#ececec;opacity:0.4;fill-opacity:1" y="-47.1" x="450.62"><tspan y="-47.1" x="450.62"/>
 </text>
 <text style="font-size:12.666;font-family:Bitstream Vera Sans;fill:#ececec;opacity:0.4;fill-opacity:1" y="-54.31" x="-1040.84"><tspan y="-54.31" x="-1040.84"/>
 </text>
 <text style="font-size:12.666;font-family:Bitstream Vera Sans;fill:#ececec;opacity:0.4;fill-opacity:1" y="-327.54" x="419.7"><tspan y="-327.54" x="419.7"/>
 </text>
 <text style="font-size:12.666;font-family:Bitstream Vera Sans;fill:#ececec;opacity:0.4;fill-opacity:1" y="-57.02" x="-608.03"><tspan y="-57.02" x="-608.03"/>
 </text>
 <text style="font-size:12.666;font-family:Bitstream Vera Sans;fill:#ececec;opacity:0.4;fill-opacity:1" y="688.53" x="-2431.72"><tspan y="688.53" x="-2431.72"/>
 </text>
 <text style="font-size:12.666;font-family:Bitstream Vera Sans;fill:#ececec;opacity:0.4;fill-opacity:1" y="-918.55" x="-456.94"><tspan y="-918.55" x="-456.94"/>
 </text>
 <text style="font-size:12.666;font-family:Bitstream Vera Sans;fill:#ececec;opacity:0.4;fill-opacity:1" y="-1332.02" x="350.66"><tspan y="-1332.02" x="350.66"/>
 </text>
 <text style="font-size:12.666;font-family:Bitstream Vera Sans;fill:#ececec;opacity:0.4;fill-opacity:1" y="-1372.76" x="374.62"><tspan y="-1372.76" x="374.62"/>
 </text>
 <text style="font-size:12.666;font-family:Bitstream Vera Sans;fill:#ececec;opacity:0.4;fill-opacity:1" y="-1379.97" x="-1116.84"><tspan y="-1379.97" x="-1116.84"/>
 </text>
 <text style="font-size:12.666;font-family:Bitstream Vera Sans;fill:#ececec;opacity:0.4;fill-opacity:1" y="-1653.21" x="343.7"><tspan y="-1653.21" x="343.7"/>
 </text>
 <text style="font-size:12.666;font-family:Bitstream Vera Sans;fill:#ececec;opacity:0.4;fill-opacity:1" y="-1026.52" x="1829.83"><tspan y="-1026.52" x="1829.83"/>
 </text>
 <text style="font-size:12.666;font-family:Bitstream Vera Sans;fill:#ececec;opacity:0.4;fill-opacity:1" y="-1067.26" x="1853.79"><tspan y="-1067.26" x="1853.79"/>
 </text>
 <text style="font-size:12.666;font-family:Bitstream Vera Sans;fill:#ececec;opacity:0.4;fill-opacity:1" y="-1074.47" x="362.32"><tspan y="-1074.47" x="362.32"/>
 </text>
 <text style="font-size:12.666;font-family:Bitstream Vera Sans;fill:#ececec;opacity:0.4;fill-opacity:1" y="-1347.7" x="1822.87"><tspan y="-1347.7" x="1822.87"/>
 </text>
 <text style="font-size:12.666;font-family:Bitstream Vera Sans;fill:#ececec;opacity:0.4;fill-opacity:1" y="-1122.56" x="-575.49"><tspan y="-1122.56" x="-575.49"/>
 </text>
 <text style="font-size:12.666;font-family:Bitstream Vera Sans;fill:#ececec;opacity:0.4;fill-opacity:1" y="-377" x="-2399.18"><tspan y="-377" x="-2399.18"/>
 </text>
 <text style="font-size:12.666;font-family:Bitstream Vera Sans;fill:#ececec;opacity:0.4;fill-opacity:1" y="-284.13" x="-684.42"><tspan y="-284.13" x="-684.42"/>
 </text>
 <text style="font-size:12.666;font-family:Bitstream Vera Sans;fill:#ececec;opacity:0.4;fill-opacity:1" y="-43.22" x="155.59"><tspan y="-43.22" x="155.59"/>
 </text>
 <text style="font-size:12.666;font-family:Bitstream Vera Sans;fill:#ececec;opacity:0.4;fill-opacity:1" y="-83.96" x="179.55"><tspan y="-83.96" x="179.55"/>
 </text>
 <text style="font-size:12.666;font-family:Bitstream Vera Sans;fill:#ececec;opacity:0.4;fill-opacity:1" y="-277.99" x="-1090.26"><tspan y="-277.99" x="-1090.26"/>
 </text>
 <text style="font-size:12.666;font-family:Bitstream Vera Sans;fill:#ececec;opacity:0.4;fill-opacity:1" y="-691.46" x="-282.66"><tspan y="-691.46" x="-282.66"/>
 </text>
 <text style="font-size:12.666;font-family:Bitstream Vera Sans;fill:#ececec;opacity:0.4;fill-opacity:1" y="-732.2" x="-258.7"><tspan y="-732.2" x="-258.7"/>
 </text>
 <text style="font-size:12.666;font-family:Bitstream Vera Sans;fill:#ececec;opacity:0.4;fill-opacity:1" y="-739.41" x="-1750.16"><tspan y="-739.41" x="-1750.16"/>
 </text>
 <text style="font-size:12.666;font-family:Bitstream Vera Sans;fill:#ececec;opacity:0.4;fill-opacity:1" y="-1012.64" x="-289.62"><tspan y="-1012.64" x="-289.62"/>
 </text>
 <text style="font-size:12.666;font-family:Bitstream Vera Sans;fill:#ececec;opacity:0.4;fill-opacity:1" y="-385.95" x="1196.5"><tspan y="-385.95" x="1196.5"/>
 </text>
 <text style="font-size:12.666;font-family:Bitstream Vera Sans;fill:#ececec;opacity:0.4;fill-opacity:1" y="-426.69" x="1220.46"><tspan y="-426.69" x="1220.46"/>
 </text>
 <text style="font-size:12.666;font-family:Bitstream Vera Sans;fill:#ececec;opacity:0.4;fill-opacity:1" y="-433.9" x="-271"><tspan y="-433.9" x="-271"/>
 </text>
 <text style="font-size:12.666;font-family:Bitstream Vera Sans;fill:#ececec;opacity:0.4;fill-opacity:1" y="-707.14" x="1189.54"><tspan y="-707.14" x="1189.54"/>
 </text>
 <text style="font-size:12.666;font-family:Bitstream Vera Sans;fill:#ececec;opacity:0.4;fill-opacity:1" y="-482" x="-1208.82"><tspan y="-482" x="-1208.82"/>
 </text>
 <text style="font-size:12.666;font-family:Bitstream Vera Sans;fill:#ececec;opacity:0.4;fill-opacity:1" y="263.56" x="-3032.5"><tspan y="263.56" x="-3032.5"/>
 </text>
 <g style="fill:#ececec;opacity:0.4;fill-opacity:1" transform="matrix(0.90475 0 0 0.90475 -716.75 -692.55)">
  <text style="font-size:14;font-family:Bitstream Vera Sans;opacity:0.8" y="1159.42" x="-664.27"><tspan y="1159.42" x="-664.27"/>
  </text>
 </g>
 <text style="font-size:12.666;font-family:Droid Sans;fill:#ececec;opacity:0.4;fill-opacity:1" y="-384.73" x="435.9"><tspan y="-384.73" x="435.9"/><tspan y="-368.89" x="435.9"/>
 </text>
 <text style="font-size:12.666;font-family:Bitstream Vera Sans;fill:#ececec;opacity:0.4;fill-opacity:1" y="-866.77" x="901.09"><tspan y="-866.77" x="901.09"/>
 </text>
 <text style="font-size:12.666;font-family:Bitstream Vera Sans;fill:#ececec;opacity:0.4;fill-opacity:1" y="-121.22" x="-922.6"><tspan y="-121.22" x="-922.6"/>
 </text>
 <text style="font-size:12.666;font-family:Bitstream Vera Sans;fill:#ececec;opacity:0.4;fill-opacity:1" y="-1151.77" x="1628.17"><tspan y="-1151.77" x="1628.17"/>
 </text>
 <text style="font-size:12.666;font-family:Bitstream Vera Sans;fill:#ececec;opacity:0.4;fill-opacity:1" y="-1192.51" x="1652.13"><tspan y="-1192.51" x="1652.13"/>
 </text>
 <text style="font-size:12.666;font-family:Bitstream Vera Sans;fill:#ececec;opacity:0.4;fill-opacity:1" y="-1199.72" x="160.67"><tspan y="-1199.72" x="160.67"/>
 </text>
 <text style="font-size:12.666;font-family:Bitstream Vera Sans;fill:#ececec;opacity:0.4;fill-opacity:1" y="-1472.95" x="1621.21"><tspan y="-1472.95" x="1621.21"/>
 </text>
 <path d="m 3 5 3 0 0 10 -3 0 z m 5 0 13 0 0 14 -3 0 0 -7 -2 0 0 7 -3 0 0 -7 -2 0 0 7 -3 0 z m -5 11 3 0 0 3 -3 0 z" style="fill:#ececec;opacity:0.4;fill-opacity:1"/>
</svg>
