
<!-- Created with Inkscape (http://www.inkscape.org/) -->
<svg xmlns="http://www.w3.org/2000/svg" viewBox="0 0 24 24">
 <text y="-12.687" x="877.23" style="font-size:12.666;font-family:Bitstream Vera Sans;fill:#ececec;opacity:0.4;fill-opacity:1"><tspan y="-12.687" x="877.23"/>
 </text>
 <text y="-53.43" x="901.19" style="font-size:12.666;font-family:Bitstream Vera Sans;fill:#ececec;opacity:0.4;fill-opacity:1"><tspan y="-53.43" x="901.19"/>
 </text>
 <text y="-83.51" x="-569.37" style="font-size:12.666;font-family:Bitstream Vera Sans;fill:#ececec;opacity:0.4;fill-opacity:1"><tspan y="-83.51" x="-569.37"/>
 </text>
 <text y="662.05" x="-2393.06" style="font-size:12.666;font-family:Bitstream Vera Sans;fill:#ececec;opacity:0.4;fill-opacity:1"><tspan y="662.05" x="-2393.06"/>
 </text>
 <text y="-468.83" x="-454.88" style="font-size:12.666;font-family:Bitstream Vera Sans;fill:#ececec;opacity:0.4;fill-opacity:1"><tspan y="-468.83" x="-454.88"/>
 </text>
 <text y="-882.3" x="352.72" style="font-size:12.666;font-family:Bitstream Vera Sans;fill:#ececec;opacity:0.4;fill-opacity:1"><tspan y="-882.3" x="352.72"/>
 </text>
 <text y="-923.04" x="376.68" style="font-size:12.666;font-family:Bitstream Vera Sans;fill:#ececec;opacity:0.4;fill-opacity:1"><tspan y="-923.04" x="376.68"/>
 </text>
 <text y="-930.25" x="-1114.78" style="font-size:12.666;font-family:Bitstream Vera Sans;fill:#ececec;opacity:0.4;fill-opacity:1"><tspan y="-930.25" x="-1114.78"/>
 </text>
 <text y="-1203.48" x="345.76" style="font-size:12.666;font-family:Bitstream Vera Sans;fill:#ececec;opacity:0.4;fill-opacity:1"><tspan y="-1203.48" x="345.76"/>
 </text>
 <text y="-576.79" x="1831.89" style="font-size:12.666;font-family:Bitstream Vera Sans;fill:#ececec;opacity:0.4;fill-opacity:1"><tspan y="-576.79" x="1831.89"/>
 </text>
 <text y="-617.53" x="1855.85" style="font-size:12.666;font-family:Bitstream Vera Sans;fill:#ececec;opacity:0.4;fill-opacity:1"><tspan y="-617.53" x="1855.85"/>
 </text>
 <text y="-624.74" x="364.38" style="font-size:12.666;font-family:Bitstream Vera Sans;fill:#ececec;opacity:0.4;fill-opacity:1"><tspan y="-624.74" x="364.38"/>
 </text>
 <text y="-897.98" x="1824.93" style="font-size:12.666;font-family:Bitstream Vera Sans;fill:#ececec;opacity:0.4;fill-opacity:1"><tspan y="-897.98" x="1824.93"/>
 </text>
 <text y="-672.84" x="-573.43" style="font-size:12.666;font-family:Bitstream Vera Sans;fill:#ececec;opacity:0.4;fill-opacity:1"><tspan y="-672.84" x="-573.43"/>
 </text>
 <text y="72.72" x="-2397.12" style="font-size:12.666;font-family:Bitstream Vera Sans;fill:#ececec;opacity:0.4;fill-opacity:1"><tspan y="72.72" x="-2397.12"/>
 </text>
 <text y="165.59" x="-682.36" style="font-size:12.666;font-family:Bitstream Vera Sans;fill:#ececec;opacity:0.4;fill-opacity:1"><tspan y="165.59" x="-682.36"/>
 </text>
 <text y="-13.592" x="426.66" style="font-size:12.666;font-family:Bitstream Vera Sans;fill:#ececec;opacity:0.4;fill-opacity:1"><tspan y="-13.592" x="426.66"/>
 </text>
 <text y="-54.33" x="450.62" style="font-size:12.666;font-family:Bitstream Vera Sans;fill:#ececec;opacity:0.4;fill-opacity:1"><tspan y="-54.33" x="450.62"/>
 </text>
 <text y="-61.54" x="-1040.84" style="font-size:12.666;font-family:Bitstream Vera Sans;fill:#ececec;opacity:0.4;fill-opacity:1"><tspan y="-61.54" x="-1040.84"/>
 </text>
 <text y="-334.78" x="419.7" style="font-size:12.666;font-family:Bitstream Vera Sans;fill:#ececec;opacity:0.4;fill-opacity:1"><tspan y="-334.78" x="419.7"/>
 </text>
 <text y="-64.26" x="-608.03" style="font-size:12.666;font-family:Bitstream Vera Sans;fill:#ececec;opacity:0.4;fill-opacity:1"><tspan y="-64.26" x="-608.03"/>
 </text>
 <text y="681.3" x="-2431.72" style="font-size:12.666;font-family:Bitstream Vera Sans;fill:#ececec;opacity:0.4;fill-opacity:1"><tspan y="681.3" x="-2431.72"/>
 </text>
 <text y="-925.79" x="-456.94" style="font-size:12.666;font-family:Bitstream Vera Sans;fill:#ececec;opacity:0.4;fill-opacity:1"><tspan y="-925.79" x="-456.94"/>
 </text>
 <text y="-1339.26" x="350.66" style="font-size:12.666;font-family:Bitstream Vera Sans;fill:#ececec;opacity:0.4;fill-opacity:1"><tspan y="-1339.26" x="350.66"/>
 </text>
 <text y="-1380" x="374.62" style="font-size:12.666;font-family:Bitstream Vera Sans;fill:#ececec;opacity:0.4;fill-opacity:1"><tspan y="-1380" x="374.62"/>
 </text>
 <text y="-1387.21" x="-1116.84" style="font-size:12.666;font-family:Bitstream Vera Sans;fill:#ececec;opacity:0.4;fill-opacity:1"><tspan y="-1387.21" x="-1116.84"/>
 </text>
 <text y="-1660.44" x="343.7" style="font-size:12.666;font-family:Bitstream Vera Sans;fill:#ececec;opacity:0.4;fill-opacity:1"><tspan y="-1660.44" x="343.7"/>
 </text>
 <text y="-1033.75" x="1829.83" style="font-size:12.666;font-family:Bitstream Vera Sans;fill:#ececec;opacity:0.4;fill-opacity:1"><tspan y="-1033.75" x="1829.83"/>
 </text>
 <text y="-1074.49" x="1853.79" style="font-size:12.666;font-family:Bitstream Vera Sans;fill:#ececec;opacity:0.4;fill-opacity:1"><tspan y="-1074.49" x="1853.79"/>
 </text>
 <text y="-1081.7" x="362.32" style="font-size:12.666;font-family:Bitstream Vera Sans;fill:#ececec;opacity:0.4;fill-opacity:1"><tspan y="-1081.7" x="362.32"/>
 </text>
 <text y="-1354.94" x="1822.87" style="font-size:12.666;font-family:Bitstream Vera Sans;fill:#ececec;opacity:0.4;fill-opacity:1"><tspan y="-1354.94" x="1822.87"/>
 </text>
 <text y="-1129.8" x="-575.49" style="font-size:12.666;font-family:Bitstream Vera Sans;fill:#ececec;opacity:0.4;fill-opacity:1"><tspan y="-1129.8" x="-575.49"/>
 </text>
 <text y="-384.24" x="-2399.18" style="font-size:12.666;font-family:Bitstream Vera Sans;fill:#ececec;opacity:0.4;fill-opacity:1"><tspan y="-384.24" x="-2399.18"/>
 </text>
 <text y="-291.37" x="-684.42" style="font-size:12.666;font-family:Bitstream Vera Sans;fill:#ececec;opacity:0.4;fill-opacity:1"><tspan y="-291.37" x="-684.42"/>
 </text>
 <text y="-50.46" x="155.59" style="font-size:12.666;font-family:Bitstream Vera Sans;fill:#ececec;opacity:0.4;fill-opacity:1"><tspan y="-50.46" x="155.59"/>
 </text>
 <text y="-91.2" x="179.55" style="font-size:12.666;font-family:Bitstream Vera Sans;fill:#ececec;opacity:0.4;fill-opacity:1"><tspan y="-91.2" x="179.55"/>
 </text>
 <text y="-285.23" x="-1090.26" style="font-size:12.666;font-family:Bitstream Vera Sans;fill:#ececec;opacity:0.4;fill-opacity:1"><tspan y="-285.23" x="-1090.26"/>
 </text>
 <text y="-698.7" x="-282.66" style="font-size:12.666;font-family:Bitstream Vera Sans;fill:#ececec;opacity:0.4;fill-opacity:1"><tspan y="-698.7" x="-282.66"/>
 </text>
 <text y="-739.44" x="-258.7" style="font-size:12.666;font-family:Bitstream Vera Sans;fill:#ececec;opacity:0.4;fill-opacity:1"><tspan y="-739.44" x="-258.7"/>
 </text>
 <text y="-746.65" x="-1750.16" style="font-size:12.666;font-family:Bitstream Vera Sans;fill:#ececec;opacity:0.4;fill-opacity:1"><tspan y="-746.65" x="-1750.16"/>
 </text>
 <text y="-1019.88" x="-289.62" style="font-size:12.666;font-family:Bitstream Vera Sans;fill:#ececec;opacity:0.4;fill-opacity:1"><tspan y="-1019.88" x="-289.62"/>
 </text>
 <text y="-393.19" x="1196.5" style="font-size:12.666;font-family:Bitstream Vera Sans;fill:#ececec;opacity:0.4;fill-opacity:1"><tspan y="-393.19" x="1196.5"/>
 </text>
 <text y="-433.93" x="1220.46" style="font-size:12.666;font-family:Bitstream Vera Sans;fill:#ececec;opacity:0.4;fill-opacity:1"><tspan y="-433.93" x="1220.46"/>
 </text>
 <text y="-441.14" x="-271" style="font-size:12.666;font-family:Bitstream Vera Sans;fill:#ececec;opacity:0.4;fill-opacity:1"><tspan y="-441.14" x="-271"/>
 </text>
 <text y="-714.38" x="1189.54" style="font-size:12.666;font-family:Bitstream Vera Sans;fill:#ececec;opacity:0.4;fill-opacity:1"><tspan y="-714.38" x="1189.54"/>
 </text>
 <text y="-489.23" x="-1208.82" style="font-size:12.666;font-family:Bitstream Vera Sans;fill:#ececec;opacity:0.4;fill-opacity:1"><tspan y="-489.23" x="-1208.82"/>
 </text>
 <text y="256.32" x="-3032.5" style="font-size:12.666;font-family:Bitstream Vera Sans;fill:#ececec;opacity:0.4;fill-opacity:1"><tspan y="256.32" x="-3032.5"/>
 </text>
 <g style="fill:#ececec;opacity:0.4;fill-opacity:1" transform="matrix(0.90475 0 0 0.90475 -716.75 -699.79)">
  <text y="1159.42" x="-664.27" style="font-size:14;font-family:Bitstream Vera Sans;opacity:0.8"><tspan y="1159.42" x="-664.27"/>
  </text>
 </g>
 <text y="-5.449" x="877.23" style="font-size:12.666;font-family:Bitstream Vera Sans;fill:#ececec;opacity:0.4;fill-opacity:1"><tspan y="-5.449" x="877.23"/>
 </text>
 <text y="-46.19" x="901.19" style="font-size:12.666;font-family:Bitstream Vera Sans;fill:#ececec;opacity:0.4;fill-opacity:1"><tspan y="-46.19" x="901.19"/>
 </text>
 <text y="-76.27" x="-569.37" style="font-size:12.666;font-family:Bitstream Vera Sans;fill:#ececec;opacity:0.4;fill-opacity:1"><tspan y="-76.27" x="-569.37"/>
 </text>
 <text y="669.28" x="-2393.06" style="font-size:12.666;font-family:Bitstream Vera Sans;fill:#ececec;opacity:0.4;fill-opacity:1"><tspan y="669.28" x="-2393.06"/>
 </text>
 <text y="-461.59" x="-454.88" style="font-size:12.666;font-family:Bitstream Vera Sans;fill:#ececec;opacity:0.4;fill-opacity:1"><tspan y="-461.59" x="-454.88"/>
 </text>
 <text y="-875.06" x="352.72" style="font-size:12.666;font-family:Bitstream Vera Sans;fill:#ececec;opacity:0.4;fill-opacity:1"><tspan y="-875.06" x="352.72"/>
 </text>
 <text y="-915.8" x="376.68" style="font-size:12.666;font-family:Bitstream Vera Sans;fill:#ececec;opacity:0.4;fill-opacity:1"><tspan y="-915.8" x="376.68"/>
 </text>
 <text y="-923.01" x="-1114.78" style="font-size:12.666;font-family:Bitstream Vera Sans;fill:#ececec;opacity:0.4;fill-opacity:1"><tspan y="-923.01" x="-1114.78"/>
 </text>
 <text y="-1196.25" x="345.76" style="font-size:12.666;font-family:Bitstream Vera Sans;fill:#ececec;opacity:0.4;fill-opacity:1"><tspan y="-1196.25" x="345.76"/>
 </text>
 <text y="-569.55" x="1831.89" style="font-size:12.666;font-family:Bitstream Vera Sans;fill:#ececec;opacity:0.4;fill-opacity:1"><tspan y="-569.55" x="1831.89"/>
 </text>
 <text y="-610.3" x="1855.85" style="font-size:12.666;font-family:Bitstream Vera Sans;fill:#ececec;opacity:0.4;fill-opacity:1"><tspan y="-610.3" x="1855.85"/>
 </text>
 <text y="-617.51" x="364.38" style="font-size:12.666;font-family:Bitstream Vera Sans;fill:#ececec;opacity:0.4;fill-opacity:1"><tspan y="-617.51" x="364.38"/>
 </text>
 <text y="-890.74" x="1824.93" style="font-size:12.666;font-family:Bitstream Vera Sans;fill:#ececec;opacity:0.4;fill-opacity:1"><tspan y="-890.74" x="1824.93"/>
 </text>
 <text y="-665.6" x="-573.43" style="font-size:12.666;font-family:Bitstream Vera Sans;fill:#ececec;opacity:0.4;fill-opacity:1"><tspan y="-665.6" x="-573.43"/>
 </text>
 <text y="79.956" x="-2397.12" style="font-size:12.666;font-family:Bitstream Vera Sans;fill:#ececec;opacity:0.4;fill-opacity:1"><tspan y="79.956" x="-2397.12"/>
 </text>
 <text y="172.83" x="-682.36" style="font-size:12.666;font-family:Bitstream Vera Sans;fill:#ececec;opacity:0.4;fill-opacity:1"><tspan y="172.83" x="-682.36"/>
 </text>
 <text y="-6.354" x="426.66" style="font-size:12.666;font-family:Bitstream Vera Sans;fill:#ececec;opacity:0.4;fill-opacity:1"><tspan y="-6.354" x="426.66"/>
 </text>
 <text y="-47.1" x="450.62" style="font-size:12.666;font-family:Bitstream Vera Sans;fill:#ececec;opacity:0.4;fill-opacity:1"><tspan y="-47.1" x="450.62"/>
 </text>
 <text y="-54.31" x="-1040.84" style="font-size:12.666;font-family:Bitstream Vera Sans;fill:#ececec;opacity:0.4;fill-opacity:1"><tspan y="-54.31" x="-1040.84"/>
 </text>
 <text y="-327.54" x="419.7" style="font-size:12.666;font-family:Bitstream Vera Sans;fill:#ececec;opacity:0.4;fill-opacity:1"><tspan y="-327.54" x="419.7"/>
 </text>
 <text y="-57.02" x="-608.03" style="font-size:12.666;font-family:Bitstream Vera Sans;fill:#ececec;opacity:0.4;fill-opacity:1"><tspan y="-57.02" x="-608.03"/>
 </text>
 <text y="688.53" x="-2431.72" style="font-size:12.666;font-family:Bitstream Vera Sans;fill:#ececec;opacity:0.4;fill-opacity:1"><tspan y="688.53" x="-2431.72"/>
 </text>
 <text y="-918.55" x="-456.94" style="font-size:12.666;font-family:Bitstream Vera Sans;fill:#ececec;opacity:0.4;fill-opacity:1"><tspan y="-918.55" x="-456.94"/>
 </text>
 <text y="-1332.02" x="350.66" style="font-size:12.666;font-family:Bitstream Vera Sans;fill:#ececec;opacity:0.4;fill-opacity:1"><tspan y="-1332.02" x="350.66"/>
 </text>
 <text y="-1372.76" x="374.62" style="font-size:12.666;font-family:Bitstream Vera Sans;fill:#ececec;opacity:0.4;fill-opacity:1"><tspan y="-1372.76" x="374.62"/>
 </text>
 <text y="-1379.97" x="-1116.84" style="font-size:12.666;font-family:Bitstream Vera Sans;fill:#ececec;opacity:0.4;fill-opacity:1"><tspan y="-1379.97" x="-1116.84"/>
 </text>
 <text y="-1653.21" x="343.7" style="font-size:12.666;font-family:Bitstream Vera Sans;fill:#ececec;opacity:0.4;fill-opacity:1"><tspan y="-1653.21" x="343.7"/>
 </text>
 <text y="-1026.52" x="1829.83" style="font-size:12.666;font-family:Bitstream Vera Sans;fill:#ececec;opacity:0.4;fill-opacity:1"><tspan y="-1026.52" x="1829.83"/>
 </text>
 <text y="-1067.26" x="1853.79" style="font-size:12.666;font-family:Bitstream Vera Sans;fill:#ececec;opacity:0.4;fill-opacity:1"><tspan y="-1067.26" x="1853.79"/>
 </text>
 <text y="-1074.47" x="362.32" style="font-size:12.666;font-family:Bitstream Vera Sans;fill:#ececec;opacity:0.4;fill-opacity:1"><tspan y="-1074.47" x="362.32"/>
 </text>
 <text y="-1347.7" x="1822.87" style="font-size:12.666;font-family:Bitstream Vera Sans;fill:#ececec;opacity:0.4;fill-opacity:1"><tspan y="-1347.7" x="1822.87"/>
 </text>
 <text y="-1122.56" x="-575.49" style="font-size:12.666;font-family:Bitstream Vera Sans;fill:#ececec;opacity:0.4;fill-opacity:1"><tspan y="-1122.56" x="-575.49"/>
 </text>
 <text y="-377" x="-2399.18" style="font-size:12.666;font-family:Bitstream Vera Sans;fill:#ececec;opacity:0.4;fill-opacity:1"><tspan y="-377" x="-2399.18"/>
 </text>
 <text y="-284.13" x="-684.42" style="font-size:12.666;font-family:Bitstream Vera Sans;fill:#ececec;opacity:0.4;fill-opacity:1"><tspan y="-284.13" x="-684.42"/>
 </text>
 <text y="-43.22" x="155.59" style="font-size:12.666;font-family:Bitstream Vera Sans;fill:#ececec;opacity:0.4;fill-opacity:1"><tspan y="-43.22" x="155.59"/>
 </text>
 <text y="-83.96" x="179.55" style="font-size:12.666;font-family:Bitstream Vera Sans;fill:#ececec;opacity:0.4;fill-opacity:1"><tspan y="-83.96" x="179.55"/>
 </text>
 <text y="-277.99" x="-1090.26" style="font-size:12.666;font-family:Bitstream Vera Sans;fill:#ececec;opacity:0.4;fill-opacity:1"><tspan y="-277.99" x="-1090.26"/>
 </text>
 <text y="-691.46" x="-282.66" style="font-size:12.666;font-family:Bitstream Vera Sans;fill:#ececec;opacity:0.4;fill-opacity:1"><tspan y="-691.46" x="-282.66"/>
 </text>
 <text y="-732.2" x="-258.7" style="font-size:12.666;font-family:Bitstream Vera Sans;fill:#ececec;opacity:0.4;fill-opacity:1"><tspan y="-732.2" x="-258.7"/>
 </text>
 <text y="-739.41" x="-1750.16" style="font-size:12.666;font-family:Bitstream Vera Sans;fill:#ececec;opacity:0.4;fill-opacity:1"><tspan y="-739.41" x="-1750.16"/>
 </text>
 <text y="-1012.64" x="-289.62" style="font-size:12.666;font-family:Bitstream Vera Sans;fill:#ececec;opacity:0.4;fill-opacity:1"><tspan y="-1012.64" x="-289.62"/>
 </text>
 <text y="-385.95" x="1196.5" style="font-size:12.666;font-family:Bitstream Vera Sans;fill:#ececec;opacity:0.4;fill-opacity:1"><tspan y="-385.95" x="1196.5"/>
 </text>
 <text y="-426.69" x="1220.46" style="font-size:12.666;font-family:Bitstream Vera Sans;fill:#ececec;opacity:0.4;fill-opacity:1"><tspan y="-426.69" x="1220.46"/>
 </text>
 <text y="-433.9" x="-271" style="font-size:12.666;font-family:Bitstream Vera Sans;fill:#ececec;opacity:0.4;fill-opacity:1"><tspan y="-433.9" x="-271"/>
 </text>
 <text y="-707.14" x="1189.54" style="font-size:12.666;font-family:Bitstream Vera Sans;fill:#ececec;opacity:0.4;fill-opacity:1"><tspan y="-707.14" x="1189.54"/>
 </text>
 <text y="-482" x="-1208.82" style="font-size:12.666;font-family:Bitstream Vera Sans;fill:#ececec;opacity:0.4;fill-opacity:1"><tspan y="-482" x="-1208.82"/>
 </text>
 <text y="263.56" x="-3032.5" style="font-size:12.666;font-family:Bitstream Vera Sans;fill:#ececec;opacity:0.4;fill-opacity:1"><tspan y="263.56" x="-3032.5"/>
 </text>
 <g style="fill:#ececec;opacity:0.4;fill-opacity:1" transform="matrix(0.90475 0 0 0.90475 -716.75 -692.55)">
  <text y="1159.42" x="-664.27" style="font-size:14;font-family:Bitstream Vera Sans;opacity:0.8"><tspan y="1159.42" x="-664.27"/>
  </text>
 </g>
 <text y="-384.73" x="435.9" style="font-size:12.666;font-family:Droid Sans;fill:#ececec;opacity:0.4;fill-opacity:1"><tspan y="-384.73" x="435.9"/><tspan y="-368.89" x="435.9"/>
 </text>
 <text y="-866.77" x="901.09" style="font-size:12.666;font-family:Bitstream Vera Sans;fill:#ececec;opacity:0.4;fill-opacity:1"><tspan y="-866.77" x="901.09"/>
 </text>
 <text y="-121.22" x="-922.6" style="font-size:12.666;font-family:Bitstream Vera Sans;fill:#ececec;opacity:0.4;fill-opacity:1"><tspan y="-121.22" x="-922.6"/>
 </text>
 <text y="-1151.77" x="1628.17" style="font-size:12.666;font-family:Bitstream Vera Sans;fill:#ececec;opacity:0.4;fill-opacity:1"><tspan y="-1151.77" x="1628.17"/>
 </text>
 <text y="-1192.51" x="1652.13" style="font-size:12.666;font-family:Bitstream Vera Sans;fill:#ececec;opacity:0.4;fill-opacity:1"><tspan y="-1192.51" x="1652.13"/>
 </text>
 <text y="-1199.72" x="160.67" style="font-size:12.666;font-family:Bitstream Vera Sans;fill:#ececec;opacity:0.4;fill-opacity:1"><tspan y="-1199.72" x="160.67"/>
 </text>
 <text y="-1472.95" x="1621.21" style="font-size:12.666;font-family:Bitstream Vera Sans;fill:#ececec;opacity:0.4;fill-opacity:1"><tspan y="-1472.95" x="1621.21"/>
 </text>
 <path style="fill:#ececec;opacity:1;fill-opacity:1" d="m 3 5 3 0 0 10 -3 0 z m 5 0 13 0 0 14 -3 0 0 -7 -2 0 0 7 -3 0 0 -7 -2 0 0 7 -3 0 z m -5 11 3 0 0 3 -3 0 z"/>
</svg>
