<svg viewBox="0 0 24 24" xmlns="http://www.w3.org/2000/svg">
 <path d="m 13 3.5 7 4 0 3 -7 -4 z" style="fill:#ececec;fill-opacity:0.4;stroke:none;fill-rule:evenodd"/>
 <path d="m 13 8.5 7 4 0 3 -7 -4 z" style="fill:#ececec;fill-opacity:0.4;stroke:none;fill-rule:evenodd"/>
 <path d="m 4 8.5 7 4 0 3 -7 -4 z" style="fill:#ececec;fill-opacity:0.4;stroke:none;fill-rule:evenodd"/>
 <path d="m 4 13.5 7 4 0 3 -7 -4 z" style="fill:#ececec;fill-opacity:0.4;stroke:none;fill-rule:evenodd"/>
 <path d="m 13 13.5 7 4 0 1.277 c 0 0.552 -0.448 1 -1 1 -0.174 0 -0.345 -0.046 -0.496 -0.133 c -1.83 -1.043 -3.671 -2.097 -5.504 -3.145 z" style="fill:#ececec;fill-opacity:0.4;stroke:none;fill-rule:evenodd"/>
 <path d="m 11 10.5 -7 -4 0 -1.277 c 0 -0.552 0.448 -1 1 -1 0.174 0 0.345 0.046 0.496 0.133 c 1.83 1.043 3.671 2.097 5.504 3.145 z" style="fill:#ececec;fill-opacity:0.4;stroke:none;fill-rule:evenodd"/>
</svg>
