<svg xmlns="http://www.w3.org/2000/svg" viewBox="0 0 24 24">
 <path d="m 8 4 -4 4 7 0 0 -4 z m 5 0 0 4 7 0 -4 -4 z m -9 6 0 10 7.25 0 c 0.008 -0.008 0.019 -0.021 0.027 -0.029 l 0.508 -0.508 c -0.037 -0.252 -0.162 -0.472 -0.162 -0.732 0 -2.911 2.402 -5.313 5.313 -5.313 1.14 0 2.194 0.377 3.064 1 l 0 -4.418" style="fill:#c28e5c"/>
 <g transform="matrix(1.3636364,0,0,1.3636364,15.020948,-14.499998)" style="fill:#3370d0;fill-opacity:1">
  <g transform="matrix(0.49988464,0,0,0.49988464,-37.411065,7.9950011)">
   <!-- color: #004794 -->
  </g>
 </g>
 <g transform="matrix(1.3636364,0,0,1.3636364,15.020948,-14.499999)" style="stroke-dasharray:none;stroke-opacity:1;fill:#4db147;stroke-miterlimit:4;fill-opacity:1;stroke:#000;stroke-width:4.4">
  <g transform="matrix(0.49988464,0,0,0.49988464,-37.411065,7.9950011)" style="stroke:#000;stroke-width:8.802">
   <!-- color: #004794 -->
  </g>
 </g>
 <path d="m 20.25 18.731 c 0 -1.831 -1.481 -3.313 -3.313 -3.313 -1.831 0 -3.313 1.483 -3.313 3.313 0 0.506 0.112 0.98 0.311 1.411 l -1.243 1.243 c -0.588 0.584 -0.588 0.59 0 1.178 0.584 0.584 0.59 0.584 1.178 0 l 1.139 -1.139 c 0.547 0.389 1.208 0.621 1.929 0.621 1.832 0 3.313 -1.483 3.313 -3.313 z m -1.657 -0.052 c 0.014 0.448 -0.155 0.883 -0.467 1.205 -0.312 0.322 -0.742 0.503 -1.19 0.503 -0.915 0 -1.656 -0.742 -1.656 -1.657 0 -0.915 0.741 -1.657 1.656 -1.657 0.895 -0.001 1.628 0.71 1.657 1.605 z" style="fill:#54cdee;fill-opacity:1;fill-rule:evenodd"/>
</svg>
