<svg xmlns="http://www.w3.org/2000/svg" viewBox="0 0 24 24">
 <g transform="translate(-181.0002,-249)" style="display:inline">
  <path d="m 12 1 l -3.117 4.721 l -4.766 -1.604 l 1.604 4.766 l -4.721 3.117 l 4.721 3.117 l -1.604 4.766 l 4.766 -1.604 l 3.117 4.721 l 3.117 -4.721 l 4.766 1.604 l -1.604 -4.766 l 4.721 -3.117 l -4.721 -3.117 l 1.604 -4.766 l -4.766 1.604 l -3.117 -4.721 z m 0 6.5 l 4 4 l 0 1.5 l -1.5 0 l -1.5 -1.5 l 0 4.5 l -2 0 l 0 -4.672 l -1.5 1.672 l -1.5 0 l 0 -1.5 l 4 -4 z" transform="translate(181.0002,249)" style="fill:#ececec;fill-opacity:1;stroke:none;fill-rule:evenodd"/>
 </g>
</svg>
