<svg xmlns="http://www.w3.org/2000/svg" viewBox="0 0 24 24">
 <path d="m 12 1 -3.137 4.727 -4.727 -1.59 1.59 4.727 -4.727 3.137 4.727 3.137 -1.59 4.727 4.727 -1.59 3.137 4.727 3.137 -4.727 4.727 1.59 -1.59 -4.727 4.727 -3.137 -4.727 -3.137 1.59 -4.727 -4.727 1.59 m -4.137 1.273 2 0 0 6 -2 0 z m 1 7.699 c 0.719 0 1.301 0.582 1.301 1.301 0 0.719 -0.582 1.301 -1.301 1.301 -0.719 0 -1.301 -0.582 -1.301 -1.301 0 -0.719 0.582 -1.301 1.301 -1.301" style="fill:#ef555c;fill-opacity:1;stroke:none;display:inline;fill-rule:evenodd"/>
</svg>
