<svg xmlns="http://www.w3.org/2000/svg" viewBox="0 0 24 24">
 <path d="m 12 4 c -4.432 0 -8 3.568 -8 8 0 4.432 3.568 8 8 8 4.432 0 8 -3.568 8 -8 c 0 -4.432 -3.568 -8 -8 -8 m -3.531 3.438 c 0.568 -0.053 1.145 0.408 1.438 1.125 0.018 0.041 0.048 0.081 0.063 0.125 0.077 0.228 0.119 0.467 0.125 0.688 0.003 0.11 -0.017 0.209 -0.031 0.313 -0.027 0.209 -0.068 0.395 -0.156 0.563 -0.089 0.166 -0.232 0.303 -0.375 0.406 -0.065 0.045 -0.144 0.096 -0.219 0.125 -0.084 0.032 -0.164 0.054 -0.25 0.063 c -0.185 0.017 -0.351 -0.013 -0.531 -0.094 -0.083 -0.035 -0.14 -0.071 -0.219 -0.125 -0.166 -0.112 -0.306 -0.254 -0.438 -0.438 -0.058 -0.08 -0.139 -0.157 -0.188 -0.25 -0.004 -0.008 0.004 -0.023 0 -0.031 -0.052 -0.101 -0.086 -0.199 -0.125 -0.313 -0.017 -0.05 -0.019 -0.106 -0.031 -0.156 -0.006 -0.014 -0.025 -0.017 -0.031 -0.031 -0.214 -0.847 0.066 -1.669 0.688 -1.906 0.084 -0.032 0.195 -0.054 0.281 -0.063 m 6.25 0.375 c 0.507 -0.076 1.045 0.296 1.313 0.906 0.077 0.174 0.14 0.359 0.156 0.531 0.01 0.137 -0.007 0.281 -0.031 0.406 -0.017 0.092 -0.058 0.169 -0.094 0.25 -0.004 0.009 0.004 0.023 0 0.031 -0.035 0.075 -0.075 0.156 -0.125 0.219 -0.018 0.022 -0.042 0.042 -0.063 0.063 -0.029 0.029 -0.061 0.038 -0.094 0.063 -0.058 0.046 -0.117 0.095 -0.188 0.125 -0.128 0.054 -0.269 0.07 -0.406 0.063 -0.01 -0.001 -0.021 0.001 -0.031 0 -0.138 -0.012 -0.274 -0.058 -0.406 -0.125 -0.007 -0.004 -0.024 0.004 -0.031 0 -0.14 -0.076 -0.258 -0.183 -0.375 -0.313 c -0.117 -0.129 -0.205 -0.294 -0.281 -0.469 -0.078 -0.177 -0.141 -0.354 -0.156 -0.531 c -0.01 -0.114 -0.015 -0.238 0 -0.344 0.002 0.021 0.028 0.041 0.031 0.063 c 0.044 -0.391 0.232 -0.734 0.563 -0.875 0.069 -0.029 0.146 -0.052 0.219 -0.063 m 0.344 0.563 c -0.315 0 -0.594 0.247 -0.594 0.563 0 0.316 0.278 0.594 0.594 0.594 0.315 0 0.563 -0.278 0.563 -0.594 0 -0.316 -0.247 -0.563 -0.563 -0.563 z m -6.06 0.188 c -0.099 -0.005 -0.214 0.027 -0.313 0.063 -0.396 0.142 -0.58 0.573 -0.438 0.969 0.142 0.396 0.573 0.611 0.969 0.469 0.396 -0.142 0.58 -0.604 0.438 -1 -0.107 -0.297 -0.36 -0.484 -0.656 -0.5 m 6.125 0.344 c 0.079 0 0.156 0.077 0.156 0.156 0 0.079 -0.077 0.125 -0.156 0.125 c -0.079 0 -0.125 -0.046 -0.125 -0.125 0 -0.079 0.046 -0.156 0.125 -0.156 m -6.06 0.344 c 0.099 -0.036 0.183 -0.005 0.219 0.094 0.036 0.099 0.005 0.214 -0.094 0.25 -0.099 0.036 -0.214 -0.026 -0.25 -0.125 c -0.036 -0.099 0.026 -0.183 0.125 -0.219 m 2.875 1.594 c 0.031 -0.001 0.039 0.029 0.063 0.031 0.019 -0.002 0.038 -0.032 0.063 -0.031 0.176 0.005 0.505 0.119 1.063 0.625 0.744 0.674 0.781 1.281 0.781 1.281 -0.119 0.06 -0.253 0.164 -0.375 0.281 -0.333 1.172 -0.618 1.625 -1.531 1.625 -0.979 0 -1.44 -0.514 -1.563 -1.656 -0.11 -0.099 -0.232 -0.194 -0.344 -0.25 0 0 0.038 -0.607 0.781 -1.281 0.558 -0.506 0.886 -0.62 1.063 -0.625 z" style="fill:#ececec;fill-opacity:1;fill-rule:evenodd"/>
</svg>
