<svg xmlns="http://www.w3.org/2000/svg" width="24" viewBox="0 0 6.7733335 6.7733335" height="24">
 <path d="m 3.394 1.129 c -1.241 0 -2.265 1.01 -2.265 2.25 0 1.241 1.024 2.265 2.265 2.265 1.241 0 2.25 -1.025 2.25 -2.265 0 -1.241 -1.01 -2.25 -2.25 -2.25 z m 0 0.441 c 1 0 1.809 0.807 1.809 1.809 0 1 -0.807 1.824 -1.809 1.824 -1 0 -1.824 -0.823 -1.824 -1.824 0 -1 0.822 -1.809 1.824 -1.809 z" style="fill:#ececec;fill-opacity:1;color:#000"/>
 <path d="m 2.822 2.258 0 2.258 1.693 -1.129 z" style="fill:#ececec;fill-opacity:1"/>
</svg>
