<svg xmlns="http://www.w3.org/2000/svg" viewBox="0 0 24 24">
 <path d="m 15.756 4.693 c 1.442 0.756 2.337 1.88 2.236 2.706 l -5.882 -3.084 c -0.018 -0.008 -0.036 -0.017 -0.054 -0.026 0.736 -0.495 2.258 -0.353 3.701 0.404 z" style="fill:#ececec;fill-opacity:1;fill-rule:evenodd"/>
 <rect transform="matrix(-0.88564913,-0.46435505,-0.53650623,0.84389636,0,0)" height="10.144" rx="0.83" y="-1.479" x="-19.28" width="2.079" style="fill:#ececec;fill-opacity:1;fill-rule:evenodd"/>
 <rect transform="matrix(-0.88564913,-0.46435505,-0.53650623,0.84389636,0,0)" height="10.144" rx="0.83" y="-1.479" x="-16.912" width="2.079" style="fill:#ececec;fill-opacity:1;fill-rule:evenodd"/>
 <rect transform="matrix(-0.88564913,-0.46435505,-0.53650623,0.84389636,0,0)" height="10.144" rx="0.83" y="-1.479" x="-14.543" width="2.079" style="fill:#ececec;fill-opacity:1;fill-rule:evenodd"/>
 <path d="m 12.21 16.584 c 0.004 -0.131 -5.866 -3.206 -5.99 -3.138 -0.123 0.068 -0.3 6.49 -0.18 6.553 0.12 0.063 6.166 -3.284 6.17 -3.415 z" style="fill:#ececec;fill-opacity:1;fill-rule:evenodd"/>
</svg>
