<svg xmlns="http://www.w3.org/2000/svg" viewBox="0 0 24 24">
 <path d="m 9.09 8.591 c -2.958 0 -5.357 2.399 -5.357 5.357 0 0.122 0.004 0.244 0.011 0.362 c -1.038 0.501 -1.748 1.508 -1.748 2.675 0 1.672 1.45 3.02 3.255 3.02 l 13.493 0 c 1.801 0 3.252 -1.343 3.252 -3.02 c 0 -1.239 -0.799 -2.303 -1.952 -2.765 0.029 -0.19 0.043 -0.38 0.043 -0.577 0 -2.12 -1.719 -3.839 -3.839 -3.839 -1.064 0 -2.03 0.433 -2.725 1.132 c -0.963 -1.418 -2.589 -2.346 -4.433 -2.346 m -2.217 1.633 c 0.58 0 1.049 0.448 1.049 0.999 0 0.551 -0.469 0.999 -1.049 0.999 -0.58 0 -1.049 -0.448 -1.049 -0.999 0 -0.551 0.469 -0.999 1.049 -0.999 z m 5.124 1.483 c 1.898 0 3.449 1.558 3.449 3.456 0 1.898 -1.551 3.456 -3.449 3.456 -1.898 0 -3.452 -1.558 -3.452 -3.456 0 -1.898 1.554 -3.456 3.452 -3.456 z m 0 1.486 c -1.096 0 -1.966 0.874 -1.966 1.97 0 1.099 0.87 1.97 1.966 1.97 1.092 0 1.966 -0.87 1.966 -1.97 0 -1.096 -0.874 -1.97 -1.966 -1.97 z" style="fill:#ececec;fill-opacity:1"/>
 <path d="m 18.387 9.733 -0.401 -0.38 -0.541 0.115 0.24 -0.498 -0.279 -0.48 l 0.548 0.072 0.372 -0.412 0.1 0.544 0.505 0.226 -0.487 0.265 z" style="fill:#ececec;fill-opacity:1"/>
 <path d="m 18.834 8.723 0.018 -0.258 -0.201 -0.165 0.254 -0.057 0.093 -0.244 0.136 0.222 0.258 0.014 -0.168 0.197 0.064 0.251 -0.24 -0.1 z" style="fill:#ececec;fill-opacity:1"/>
 <path d="m 19.07 10.227 -0.05 -0.394 -0.351 -0.183 0.358 -0.168 0.064 -0.39 0.272 0.29 0.39 -0.057 -0.19 0.344 0.175 0.355 -0.387 -0.075 z" style="fill:#ececec;fill-opacity:1"/>
</svg>
