<svg xmlns="http://www.w3.org/2000/svg" viewBox="0 0 24 24">
 <g transform="matrix(0.62499951,1.0825309,-1.0825309,0.62499951,17.648688,-8.2205774)" style="fill:#ececec;fill-opacity:1">
  <path d="m 11.75 6 c 1.716 0.002 3.349 0.739 4.486 2.023 0.087 -0.016 0.175 -0.023 0.264 -0.023 0.828 0 1.5 0.672 1.5 1.5 -0.001 0.394 -0.157 0.773 -0.434 1.053 0.12 0.473 0.182 0.959 0.184 1.447 -0.003 1.279 -0.414 2.524 -1.174 3.553 0.114 0.215 0.173 0.454 0.174 0.697 0 0.828 -0.672 1.5 -1.5 1.5 -0.342 0 -0.673 -0.118 -0.939 -0.332 -0.8 0.381 -1.675 0.58 -2.561 0.582 -2.142 -0.002 -4.121 -1.146 -5.191 -3 -0.02 0.001 -0.039 0.002 -0.059 0.002 -0.828 0 -1.5 -0.672 -1.5 -1.5 0.001 -0.539 0.291 -1.035 0.76 -1.301 -0.004 -0.066 -0.008 -0.133 -0.01 -0.199 0 -3.314 2.686 -6 6 -6 z m 0 1 c -2.761 0 -5 2.239 -5 5 l 0 0.021 c 0.453 0.078 0.845 0.358 1.064 0.762 l 3.461 -0.553 c 0.13 -0.712 0.75 -1.23 1.475 -1.23 0.28 0 0.554 0.079 0.791 0.227 l 1.543 -1.234 c -0.055 -0.158 -0.084 -0.325 -0.084 -0.492 0 -0.353 0.125 -0.695 0.352 -0.965 -0.942 -0.98 -2.243 -1.534 -3.602 -1.535 z m 3.959 3.773 -1.543 1.234 c 0.055 0.158 0.084 0.325 0.084 0.492 -0.001 0.324 -0.106 0.639 -0.301 0.898 l 0.934 1.398 c 0.12 -0.03 0.243 -0.046 0.367 -0.046 0.203 0 0.404 0.041 0.59 0.121 0.591 -0.841 0.909 -1.843 0.91 -2.871 -0.002 -0.339 -0.038 -0.676 -0.107 -1.01 -0.047 0.005 -0.095 0.008 -0.143 0.008 -0.28 0 -0.554 -0.079 -0.791 -0.227 z m -4.273 2.443 -3.461 0.555 c -0.061 0.328 -0.229 0.626 -0.479 0.848 0.909 1.478 2.519 2.379 4.254 2.381 0.701 -0.002 1.394 -0.152 2.033 -0.439 -0.022 -0.102 -0.033 -0.206 -0.033 -0.311 0.001 -0.324 0.106 -0.639 0.301 -0.898 l -0.934 -1.398 c -0.12 0.031 -0.243 0.046 -0.367 0.047 -0.548 -0.001 -1.052 -0.301 -1.315 -0.783 z"/>
 </g>
</svg>
