<svg xmlns="http://www.w3.org/2000/svg" viewBox="0 0 24 24">
 <path d="m 8.426 3.875 c -2.444 0 -4.426 1.984 -4.426 4.432 0 0.818 0.221 1.584 0.607 2.242 c -0.101 0.496 -0.154 1.01 -0.154 1.537 0 4.221 3.418 7.641 7.633 7.641 0.477 0 0.943 -0.043 1.396 -0.127 c 0.623 0.335 1.335 0.525 2.092 0.525 2.444 0 4.426 -1.984 4.426 -4.432 c 0 -0.707 -0.167 -1.376 -0.461 -1.969 0.115 -0.528 0.178 -1.076 0.178 -1.639 0 -4.22 -3.416 -7.643 -7.631 -7.643 -0.445 0 -0.883 0.038 -1.307 0.111 c -0.682 -0.43 -1.488 -0.68 -2.354 -0.68 m 0.928 3.385 3.146 1.572 -1.574 3.145 -0.426 -1.277 c -0.294 0.338 -0.485 0.761 -0.502 1.227 -0.027 0.742 0.355 1.435 0.998 1.807 l -1 1.732 c -1.282 -0.74 -2.053 -2.134 -1.998 -3.613 0.048 -1.309 0.737 -2.5 1.818 -3.203 l -0.463 -1.389 m 4.646 1.271 c 1.282 0.74 2.053 2.134 1.998 3.613 -0.048 1.309 -0.737 2.5 -1.818 3.203 l 0.463 1.389 -3.146 -1.572 1.574 -3.145 0.426 1.277 c 0.294 -0.338 0.485 -0.761 0.502 -1.227 c 0.027 -0.742 -0.355 -1.435 -0.998 -1.807 l 1 -1.732" style="fill:#ececec;opacity:1;fill-opacity:1;stroke:none;fill-rule:nonzero"/>
 <g transform="matrix(0.42297932,0,0,0.42297932,-11.083711,5.1945516)">
  <!-- color: #004794 -->
 </g>
</svg>
