<svg xmlns="http://www.w3.org/2000/svg" width="24" viewBox="0 0 6.7733335 6.7733335" height="24">
 <path d="m 3.387 1.129 c -1.251 0 -2.258 1.01 -2.258 2.258 0 1.251 1.01 2.258 2.258 2.258 1.251 0 2.258 -1.01 2.258 -2.258 0 -1.251 -1.01 -2.258 -2.258 -2.258 z m -0.6 1.385 c 0.67 -0.02 1.471 0.129 2.01 0.494 0.086 0.059 0.111 0.178 0.053 0.265 c -0.058 0.086 -0.17 0.111 -0.256 0.053 -0.626 -0.422 -1.699 -0.514 -2.328 -0.362 -0.102 0.024 -0.205 -0.04 -0.229 -0.141 -0.025 -0.101 0.04 -0.196 0.141 -0.22 0.181 -0.044 0.385 -0.082 0.609 -0.088 m 0.044 0.706 c 0.595 -0.011 1.218 0.155 1.667 0.467 0.071 0.05 0.084 0.141 0.035 0.212 c -0.05 0.071 -0.141 0.102 -0.212 0.053 -0.521 -0.364 -1.352 -0.518 -2 -0.362 -0.084 0.021 -0.165 -0.03 -0.185 -0.115 -0.02 -0.084 0.03 -0.165 0.115 -0.185 0.186 -0.045 0.384 -0.067 0.582 -0.071 m 0.018 0.653 c 0.535 -0.007 0.992 0.131 1.376 0.397 0.057 0.039 0.066 0.11 0.026 0.168 -0.04 0.057 -0.111 0.075 -0.168 0.035 c -0.455 -0.316 -1.055 -0.419 -1.764 -0.3 -0.068 0.011 -0.13 -0.037 -0.141 -0.106 -0.011 -0.068 0.037 -0.13 0.106 -0.141 0.194 -0.033 0.386 -0.051 0.564 -0.053" style="fill:#ececec;fill-opacity:1;fill-rule:evenodd"/>
</svg>
