<svg xmlns="http://www.w3.org/2000/svg" viewBox="0 0 24 24">
 <path d="m 17.523 3.273 c -2.363 0 -4.297 1.965 -4.297 4.363 0 2.398 1.934 4.367 4.297 4.367 2.359 0 4.293 -1.969 4.293 -4.367 0 -2.398 -1.934 -4.363 -4.293 -4.363 z m 0 1.465 c 1.586 0 2.852 1.285 2.852 2.898 0 1.613 -1.266 2.902 -2.852 2.902 -1.59 0 -2.855 -1.289 -2.855 -2.902 0 -1.613 1.266 -2.898 2.855 -2.898 z" style="fill:#ececec;fill-opacity:1"/>
 <path d="m 19.363 7.633 c 0 1.031 -0.824 1.871 -1.844 1.871 -1.016 0 -1.84 -0.84 -1.84 -1.871 0 -1.035 0.824 -1.871 1.84 -1.871 1.02 0 1.844 0.836 1.844 1.871 z" style="fill:#ececec;fill-opacity:1"/>
 <path d="m 13.84 9.504 0 5.613 3.066 0.621 2.621 -4.656 -2.738 0 z" style="fill:#ececec;fill-opacity:1"/>
 <path d="m 14.453 14.492 c -1.688 0 -3.07 1.402 -3.07 3.117 0 1.715 1.383 3.117 3.07 3.117 1.684 0 3.066 -1.402 3.066 -3.117 0 -1.715 -1.383 -3.117 -3.066 -3.117 z m 0 1.047 c 1.133 0 2.039 0.918 2.039 2.07 0 1.152 -0.906 2.07 -2.039 2.07 -1.137 0 -2.039 -0.918 -2.039 -2.07 0 -1.152 0.902 -2.07 2.039 -2.07 z" style="fill:#ececec;fill-opacity:1"/>
 <path d="m 5.25 10.125 c -1.688 0 -3.066 1.406 -3.066 3.121 0 1.711 1.379 3.117 3.066 3.117 1.688 0 3.07 -1.406 3.07 -3.117 c 0 -1.715 -1.383 -3.121 -3.07 -3.121 z m -0.004 1.25 c 1.227 0 1.84 0.621 1.84 1.871 0 1.246 -0.613 1.867 -1.84 1.867 -1.23 0 -1.844 -0.621 -1.844 -1.867 0 -1.25 0.613 -1.871 1.844 -1.871 z" style="fill:#ececec;fill-opacity:1"/>
 <path d="m 5.922 12.13 c -0.695 -0.301 -1.5 0.031 -1.793 0.738 -0.297 0.707 0.027 1.523 0.727 1.824 l 9.117 4.164 c 0.695 0.301 1.5 -0.031 1.797 -0.738 0.293 -0.707 -0.031 -1.523 -0.727 -1.824 z" style="fill:#ececec;fill-opacity:1"/>
</svg>
