<svg xmlns="http://www.w3.org/2000/svg" viewBox="0 0 24 24">
 <g transform="translate(0,-104)">
  <path d="m 12.811 109.7 c -0.549 0.001 -1.158 0.045 -1.828 0.131 -0.755 0.097 -1.595 0.246 -2.518 0.446 -0.825 0.189 -1.609 0.397 -2.35 0.624 -0.727 0.222 -1.42 0.47 -2.077 0.746 -1.315 0.541 -1.993 0.984 -2.035 1.33 -0.042 0.357 0.273 0.559 0.944 0.608 0.35 0.027 0.769 0.012 1.259 -0.049 0.168 -0.016 1.044 -0.13 1.044 -0.157 0 -0.032 0 0 -0.634 -0.241 -0.226 -0.086 -0.27 -0.081 -0.398 -0.139 -0.068 -0.031 -0.156 -0.046 -0.194 -0.11 -0.019 -0.031 -0.045 -0.066 -0.003 -0.109 0.32 -0.33 2.321 -0.993 2.763 -1.12 0.741 -0.216 0.769 -0.215 1.65 -0.415 1.748 -0.378 2.69 -0.613 3.655 -0.592 1.021 0.032 1.306 0.027 1.306 0.476 -0.031 0.222 -0.135 0.325 -0.24 0.465 -0.601 0.735 -2.146 1.605 -5.545 3.767 -0.028 0.027 -0.056 0.052 -0.084 0.073 -0.014 0.016 -0.021 0.032 -0.021 0.049 0 0.059 1.764 0.413 1.945 0.413 0.196 0 0.371 -0.043 0.525 -0.13 0.21 -0.135 0.504 -0.303 0.881 -0.503 0.392 -0.2 0.603 -0.326 1.176 -0.607 0.685 -0.335 1.371 -0.649 2.056 -0.941 0.685 -0.292 1.385 -0.57 2.098 -0.835 1.762 -0.632 1.953 -0.676 2.737 -0.842 0.391 -0.083 0.426 -0.089 0.635 -0.089 0.322 0 0.433 0.005 0.483 0.17 0.037 0.123 -0.077 0.195 -0.231 0.308 0 0 -1.691 1.084 -2.493 1.687 -0.319 0.24 -0.622 0.501 -0.92 0.767 -0.354 0.317 -0.693 0.651 -1.028 0.989 -0.358 0.362 -0.699 0.732 -1.049 1.111 -0.35 0.384 -0.664 0.741 -0.944 1.07 -0.28 0.335 -0.511 0.624 -0.692 0.868 -0.159 0.235 -0.248 0.397 -0.27 0.488 -0.747 0.368 -2.234 0.993 -3.813 2.901 2.665 -1.226 2.748 -1.421 4.196 -2.086 0.23 0.208 0.229 0.208 0.23 0.208 0.227 0.171 0.508 0.173 0.772 0.172 0.575 -0.004 0.937 -0.171 1.678 -0.398 0.66 -0.208 1.341 -0.473 2.194 -0.925 5.916 -3.137 0.593 -2.445 -4.01 -0.173 0.008 -0.083 0.046 -0.186 0.115 -0.308 0.154 -0.243 0.378 -0.532 0.671 -0.868 0.308 -0.335 0.664 -0.697 1.07 -1.086 0.42 -0.384 0.834 -0.757 1.259 -1.127 0.394 -0.343 0.788 -0.687 1.196 -1.014 0.315 -0.252 0.64 -0.491 0.965 -0.73 0.492 -0.361 0.987 -0.714 1.49 -1.062 0.505 -0.35 1.138 -0.575 1.511 -1.07 0.038 -0.05 0.058 -0.115 0.063 -0.178 0.006 -0.074 -0.005 -0.155 -0.042 -0.219 -0.074 -0.128 -0.208 -0.214 -0.336 -0.286 -0.135 -0.076 -0.289 -0.117 -0.441 -0.144 -0.165 -0.029 -0.308 -0.032 -0.504 -0.016 -1.231 0.076 -2.979 0.543 -5.245 1.403 -0.839 0.314 -1.609 0.616 -2.308 0.908 -0.685 0.292 -1.315 0.578 -1.888 0.859 -0.126 0.086 -0.238 0.13 -0.336 0.13 -0.056 0 -0.084 -0.012 -0.084 -0.032 0 -0.038 0.049 -0.087 0.147 -0.146 1.119 -0.724 1.993 -1.335 2.623 -1.832 0.643 -0.503 1.063 -0.9 1.259 -1.192 0.07 -0.124 0.105 -0.249 0.105 -0.373 0 -0.286 -0.161 -0.516 -0.483 -0.689 -0.35 -0.211 -0.832 -0.322 -1.448 -0.332 -0.068 -0.001 -0.137 -0.001 -0.207 -0.001 z m 5.592 8.2 c 0.324 0.003 0.059 0.417 -1.281 0.967 -0.971 0.398 -2.06 0.83 -3.097 0.848 -0.181 0 -0.289 -0.053 -0.323 -0.159 2.284 -1.015 4.215 -1.662 4.701 -1.656 z" style="fill:#3370d0;fill-opacity:1;stroke:none;fill-rule:evenodd"/>
 </g>
</svg>
