<svg xmlns="http://www.w3.org/2000/svg" viewBox="0 0 24 24">
 <path style="fill:#ececec;opacity:0.4;fill-opacity:1;stroke:none" d="m 21 5 c -0.554 0 -1 0.612 -1 1 l 0 10.9 2 2.1 0 -13 c 0 -0.388 -0.446 -1 -1 -1 z"/>
 <path style="visibility:visible;shape-rendering:auto;color-interpolation-filters:linearRGB;fill:#ececec;opacity:0.4;image-rendering:auto;fill-opacity:1;text-rendering:auto;stroke:none;display:inline;color:#000;fill-rule:nonzero;color-rendering:auto;color-interpolation:sRGB" d="m 4 5 c -1.091 0 -2 0.909 -2 2 l 0 10 c 0 1.091 0.909 2 2 2 l 13 0 c 1.091 0 2 -0.909 2 -2 l 0 -10 c 0 -1.091 -0.909 -2 -2 -2 l -13 0 z m 0 2 13 0 0 10 -13 0 0 -10 z"/>
</svg>
