<svg xmlns="http://www.w3.org/2000/svg" viewBox="0 0 24 24">
 <path d="m 6.5 4 c -1.376 0 -2.5 1.124 -2.5 2.5 l 0 11 c 0 1.376 1.124 2.5 2.5 2.5 l 11 0 c 1.376 0 2.5 -1.124 2.5 -2.5 l 0 -11 c 0 -1.376 -1.124 -2.5 -2.5 -2.5 l -11 0 z m 0 1 11 0 c 0.84 0 1.5 0.66 1.5 1.5 l 0 11 c 0 0.84 -0.66 1.5 -1.5 1.5 l -11 0 c -0.84 0 -1.5 -0.66 -1.5 -1.5 l 0 -11 c 0 -0.84 0.66 -1.5 1.5 -1.5" style="visibility:visible;fill:#353535;fill-opacity:1;stroke:none;display:inline;color:#000"/>
 <rect width="16" height="1" x="4" y="15" style="fill:#353535;fill-opacity:1;stroke:none"/>
 <rect y="-13" x="15" height="2" width="5" transform="matrix(0,1,-1,0,0,0)" style="fill:#353535;fill-opacity:1;stroke:none"/>
 <path d="m 8 6 1 0 c 0.01 0 0.021 0 0.031 0 0.255 0.011 0.51 0.129 0.687 0.312 l 2.28 2.279 2.311 -2.279 c 0.266 -0.23 0.447 -0.3 0.688 -0.31 l 1 0 0 1 c 0 0.286 -0.034 0.55 -0.25 0.75 l -2.28 2.28 2.249 2.249 c 0.188 0.19 0.281 0.45 0.281 0.72 l 0 1 -1 0 c -0.265 0 -0.53 -0.093 -0.719 -0.281 l -2.28 -2.279 -2.28 2.279 c -0.188 0.19 -0.454 0.28 -0.719 0.28 l -1 0 0 -1 c 0 -0.265 0.093 -0.53 0.281 -0.718 l 2.28 -2.249 -2.28 -2.279 c -0.21 -0.19 -0.303 -0.47 -0.281 -0.75 l 0 -1 z" style="fill:#ef555c;fill-opacity:1;color:#bebebe"/>
</svg>
