<svg xmlns="http://www.w3.org/2000/svg" viewBox="0 0 24 24">
 <path style="fill:#ececec;opacity:1;fill-opacity:1;stroke:none;color:#f2f2f2" d="m 12 7 -4 4 2 0 0 5 4 0 0 -5 2 0 z"/>
 <path style="visibility:visible;shape-rendering:auto;color-interpolation-filters:linearRGB;fill:#ececec;opacity:1;image-rendering:auto;fill-opacity:1;text-rendering:auto;stroke:none;display:inline;color:#000;fill-rule:nonzero;color-rendering:auto;color-interpolation:sRGB" d="m 12 4 c -4.412 0 -8 3.588 -8 8 0 4.412 3.588 8 8 8 4.412 0 8 -3.588 8 -8 0 -4.412 -3.588 -8 -8 -8 z m 0 1 c 3.872 0 7 3.128 7 7 0 3.872 -3.128 7 -7 7 c -3.872 0 -7 -3.128 -7 -7 0 -3.872 3.128 -7 7 -7 z"/>
</svg>
