<svg xmlns="http://www.w3.org/2000/svg" viewBox="0 0 24 24">
 <path d="m 12 7.25 c -1.787 0 -3.376 0.951 -4.252 2.369 l 0.377 0.145 c 0.819 -1.315 2.264 -2.17 3.875 -2.17 c 1.187 0 2.291 0.44 3.123 1.193 0.166 -0.022 0.326 -0.04 0.488 -0.059 c -0.172 -0.171 -0.355 -0.328 -0.551 -0.473 -0.127 -0.059 -0.26 -0.106 -0.385 -0.17 -0.301 -0.153 -0.526 -0.305 -0.879 -0.508 -0.563 -0.206 -1.165 -0.328 -1.797 -0.328 m 0 1.844 c -0.837 0 -1.617 0.335 -2.182 0.877 c 0.373 -0.115 0.751 -0.227 1.139 -0.332 0.627 -0.17 1.239 -0.31 1.844 -0.439 -0.256 -0.063 -0.521 -0.105 -0.801 -0.105 m 7.262 0.307 -1.184 4.111 0.254 0.098 -0.297 0.709 c -0.011 0.027 -0.028 0.05 -0.039 0.076 2.637 -1.275 4.248 -2.693 3.971 -3.74 c -0.179 -0.68 -1.151 -1.116 -2.705 -1.254 m -3.041 0.055 c -0.146 0.014 -0.302 0.039 -0.451 0.057 0.14 0.2 0.268 0.409 0.375 0.635 l 0.346 0.729 -0.547 0.213 1.096 0.611 0.322 -1.115 -0.471 0.182 -0.293 -0.643 c -0.107 -0.235 -0.235 -0.456 -0.377 -0.668 m -2.242 0.328 c -0.905 0.165 -1.829 0.362 -2.764 0.615 -0.735 0.199 -1.438 0.419 -2.115 0.65 l -0.238 0.588 2.734 1.471 -1.934 0.756 c 0.567 0.643 1.411 1.043 2.338 1.043 1.287 0 2.405 -0.737 2.869 -1.852 l 0.281 -0.674 0.102 0.039 -2.822 -1.57 1.904 -0.744 c -0.107 -0.12 -0.231 -0.221 -0.355 -0.322 m -7.02 2.533 -0.316 1.07 0.48 -0.172 0.283 0.635 c 0.664 1.488 2.122 2.569 3.799 2.834 0.425 -0.094 0.854 -0.196 1.291 -0.311 -0.163 0.018 -0.325 0.033 -0.492 0.033 -1.788 0 -3.408 -1.013 -4.148 -2.588 l -0.342 -0.727 0.516 -0.201 -1.07 -0.574 m -1.672 0.365 c -2.195 1.173 -3.505 2.421 -3.254 3.367 0.311 1.178 2.921 1.552 6.414 1.115 -0.818 -0.541 -1.518 -1.252 -2.025 -2.104 l -2.059 0.738 0.924 -3.117 z m 10.584 1.584 c -0.462 0.728 -1.118 1.301 -1.883 1.674 0.451 -0.14 0.889 -0.282 1.314 -0.434 0.362 -0.318 0.684 -0.683 0.943 -1.096 l -0.375 -0.145 z" style="fill:#ececec;opacity:1;fill-opacity:0.941;stroke:none;fill-rule:nonzero"/>
 <g transform="matrix(0.42307692,0,0,0.42307692,6.3606939,9.5192308)">
  <g transform="matrix(0.49988464,0,0,0.49988464,-37.411065,7.9950011)">
   <!-- color: #004794 -->
  </g>
 </g>
 <g transform="translate(0.99936959,0.99999998)">
  <g transform="matrix(0.34782609,0,0,0.34782609,2.6435901,2.6456559)" style="fill:#ececec;fill-opacity:1">
   <path transform="matrix(2.875,0,0,2.875,97.067647,-33.481261)" d="m -25.406 14.5 c 2.304 0 4.367 1.303 5.281 3.313 l 1.219 -0.469 -1 3.469 -3.313 -1.844 1.281 -0.5 c -0.621 -1.31 -1.954 -2.125 -3.469 -2.125 -1.573 0 -2.996 0.94 -3.563 2.344 l -1.781 -0.688 c 0.845 -2.104 2.985 -3.5 5.344 -3.5 z m -5.5 4.719 3.313 1.781 -1.281 0.5 c 0.613 1.305 1.964 2.156 3.469 2.156 1.576 0 2.979 -0.91 3.563 -2.313 l 1.781 0.688 c -0.877 2.103 -2.979 3.469 -5.344 3.469 -2.292 0 -4.387 -1.339 -5.281 -3.344 l -1.219 0.438 z"/>
  </g>
  <g transform="matrix(0.49988464,0,0,0.49988464,-37.411065,7.9950011)">
   <!-- color: #004794 -->
  </g>
 </g>
 <g transform="translate(8.0007713,7.9997246)" style="stroke-dasharray:none;stroke-opacity:1;stroke-miterlimit:4;stroke:#000;stroke-width:1.5">
  <g transform="matrix(0.49988464,0,0,0.49988464,-37.411065,7.9950011)" style="stroke-width:3">
   <!-- color: #004794 -->
  </g>
 </g>
</svg>
