<svg xmlns="http://www.w3.org/2000/svg" viewBox="0 0 24 24">
 <path d="m 12.355 6.896 0.008 0.131 -0.703 0.08 c -1.892 0.214 -3.528 1.562 -4.152 3.484 -0.022 0.067 -0.032 0.136 -0.051 0.203 0.131 -0.052 0.266 -0.102 0.4 -0.152 0.565 -1.666 1.977 -2.877 3.687 -3.098 l 0.797 -0.104 0.035 0.586 0.834 -0.775 c -0.224 -0.119 -0.454 -0.232 -0.658 -0.303 -0.04 -0.014 -0.14 -0.036 -0.197 -0.053 m -1.41 2.357 c -0.352 0.153 -0.664 0.383 -0.934 0.662 0.313 -0.094 0.624 -0.19 0.947 -0.277 0.003 -0.001 0.005 -0.001 0.008 -0.002 l -0.021 -0.383 z m 6.877 0.1 c -0.012 0 -0.027 0.002 -0.039 0.002 0.605 1.428 0.693 3.075 0.186 4.637 -0.057 0.176 -0.132 0.34 -0.203 0.508 2.77 -1.302 4.489 -2.769 4.203 -3.846 c -0.23 -0.872 -1.747 -1.349 -4.146 -1.301 m -1.715 0.115 c -0.133 0.014 -0.274 0.036 -0.41 0.053 0.733 1.133 0.955 2.553 0.518 3.9 -0.323 0.994 -0.962 1.819 -1.779 2.383 0.322 -0.105 0.628 -0.214 0.936 -0.324 0.518 -0.545 0.929 -1.207 1.172 -1.953 0.46 -1.417 0.257 -2.87 -0.436 -4.059 z m -2.074 0.305 c -0.565 0.102 -1.136 0.22 -1.717 0.357 l -1.252 1.164 -0.049 -0.836 c -0.573 0.159 -1.13 0.327 -1.668 0.506 -0.027 0.068 -0.063 0.127 -0.086 0.197 -0.394 1.212 -0.019 2.54 0.896 3.307 l 0.553 0.463 2.244 -2.146 0.119 2.072 c 0.787 -0.34 1.429 -1.017 1.715 -1.898 0.379 -1.167 0.069 -2.392 -0.756 -3.186 z m -6.383 1.812 c -0.121 0.048 -0.245 0.095 -0.363 0.145 -0.108 1.334 0.321 2.647 1.16 3.637 l 0.254 -0.314 c -0.807 -0.959 -1.193 -2.212 -1.051 -3.467 m -1.879 0.828 c -2.507 1.247 -4.01 2.616 -3.74 3.635 0.3 1.14 2.759 1.521 6.078 1.15 l -0.119 -0.1 c -1.396 -1.166 -2.161 -2.89 -2.219 -4.686 m 5.873 3.701 -0.643 0.615 c 0.219 -0.047 0.446 -0.108 0.668 -0.16 l -0.025 -0.455 z" style="fill:#ececec;opacity:1;fill-opacity:0.941;stroke:none;fill-rule:nonzero"/>
 <g transform="matrix(0.42307692,0,0,0.42307692,6.3606939,9.5192308)">
  <g transform="matrix(0.49988464,0,0,0.49988464,-37.411065,7.9950011)">
   <!-- color: #004794 -->
  </g>
 </g>
 <g transform="matrix(0.309017,-0.95105651,0.95105651,0.309017,-1.8486348,19.098054)">
  <g transform="matrix(0.34782609,0,0,0.34782609,2.6435901,2.6456559)" style="fill:#ececec;fill-opacity:1">
   <path transform="matrix(2.875,0,0,2.875,97.067647,-33.481261)" d="m -25.406 14.5 c 2.304 0 4.367 1.303 5.281 3.313 l 1.219 -0.469 -1 3.469 -3.313 -1.844 1.281 -0.5 c -0.621 -1.31 -1.954 -2.125 -3.469 -2.125 -1.573 0 -2.996 0.94 -3.563 2.344 l -1.781 -0.688 c 0.845 -2.104 2.985 -3.5 5.344 -3.5 z m -5.5 4.719 3.313 1.781 -1.281 0.5 c 0.613 1.305 1.964 2.156 3.469 2.156 1.576 0 2.979 -0.91 3.563 -2.313 l 1.781 0.688 c -0.877 2.103 -2.979 3.469 -5.344 3.469 -2.292 0 -4.387 -1.339 -5.281 -3.344 l -1.219 0.438 z"/>
  </g>
  <g transform="matrix(0.49988464,0,0,0.49988464,-37.411065,7.9950011)">
   <!-- color: #004794 -->
  </g>
 </g>
 <g transform="matrix(0.309017,-0.95105651,0.95105651,0.309017,5.3423705,14.368353)" style="stroke-dasharray:none;stroke-opacity:1;stroke-miterlimit:4;stroke:#000;stroke-width:1.5">
  <g transform="matrix(0.49988464,0,0,0.49988464,-37.411065,7.9950011)" style="stroke-width:3">
   <!-- color: #004794 -->
  </g>
 </g>
</svg>
