<svg xmlns="http://www.w3.org/2000/svg" viewBox="0 0 24 24">
 <path d="m 12.951 7.223 -0.021 0.402 c 0.798 0.198 1.523 0.608 2.105 1.174 0.151 -0.021 0.295 -0.037 0.443 -0.055 c -0.191 -0.212 -0.4 -0.403 -0.621 -0.578 -0.059 -0.029 -0.121 -0.05 -0.18 -0.08 -0.328 -0.167 -0.542 -0.32 -0.957 -0.553 -0.088 -0.049 -0.196 -0.108 -0.297 -0.164 -0.156 -0.055 -0.312 -0.107 -0.473 -0.146 m -2.811 0.08 -0.988 0.025 c -0.028 0.022 -0.055 0.04 -0.082 0.063 l 0.268 0.346 -0.518 0.465 c -0.759 0.685 -1.261 1.62 -1.471 2.635 0.132 -0.052 0.27 -0.103 0.404 -0.154 0.216 -0.779 0.631 -1.496 1.234 -2.063 l 0.586 -0.551 0.35 0.43 0.217 -1.195 m 1.234 1.602 -0.119 0.66 c 0.584 -0.153 1.157 -0.285 1.721 -0.402 -0.281 -0.115 -0.577 -0.186 -0.881 -0.207 l -0.721 -0.051 z m 6.447 0.449 c -0.053 0.001 -0.113 0.008 -0.166 0.01 0.105 0.231 0.21 0.462 0.289 0.707 0.485 1.494 0.392 3.046 -0.158 4.42 2.758 -1.3 4.466 -2.762 4.182 -3.836 c -0.23 -0.872 -1.747 -1.349 -4.146 -1.301 m -1.797 0.127 c -0.123 0.013 -0.252 0.034 -0.377 0.049 0.226 0.338 0.412 0.707 0.543 1.109 0.551 1.696 0.12 3.534 -1.148 4.732 l -0.387 0.367 c 0.318 -0.106 0.61 -0.221 0.914 -0.332 c 1.122 -1.288 1.513 -3.131 0.947 -4.873 -0.123 -0.378 -0.293 -0.726 -0.492 -1.053 m -2.094 0.312 c -0.89 0.163 -1.797 0.357 -2.715 0.605 -0.041 0.011 -0.078 0.024 -0.119 0.035 l -0.275 1.527 -0.947 -1.156 c -0.214 0.067 -0.441 0.127 -0.648 0.197 -0.186 0.597 -0.198 1.257 0.01 1.896 0.398 1.224 1.443 2.061 2.646 2.158 l 0.729 0.059 -0.006 0.109 0.623 -3.17 1.295 1.582 c 0.43 -0.732 0.532 -1.636 0.24 -2.533 c -0.167 -0.513 -0.462 -0.957 -0.832 -1.311 m -6.332 1.812 c -0.119 0.048 -0.237 0.094 -0.354 0.143 -0.015 0.574 0.053 1.155 0.236 1.721 0.543 1.672 1.862 2.849 3.439 3.281 0.033 -0.007 0.068 -0.016 0.102 -0.023 l 0.018 -0.348 c -1.496 -0.384 -2.734 -1.488 -3.23 -3.02 -0.188 -0.579 -0.25 -1.176 -0.211 -1.758 m -1.832 0.811 c -2.504 1.247 -4.01 2.615 -3.736 3.633 0.308 1.168 2.879 1.544 6.326 1.125 c -1.05 -0.799 -1.87 -1.915 -2.301 -3.242 -0.163 -0.5 -0.252 -1.01 -0.289 -1.516 m 8.318 3.055 -0.092 0.467 c 0.126 -0.039 0.257 -0.075 0.381 -0.115 l -0.289 -0.352 z" style="fill:#ececec;opacity:1;fill-opacity:0.941;stroke:none;fill-rule:nonzero"/>
 <g transform="matrix(0.42307692,0,0,0.42307692,6.3606939,9.5192308)">
  <g transform="matrix(0.49988464,0,0,0.49988464,-37.411065,7.9950011)">
   <!-- color: #004794 -->
  </g>
 </g>
 <g transform="matrix(0.30901699,0.95105652,-0.95105652,0.30901699,19.062357,-1.8607077)">
  <g transform="matrix(0.34782609,0,0,0.34782609,2.6435901,2.6456559)" style="fill:#ececec;fill-opacity:1">
   <path transform="matrix(2.875,0,0,2.875,97.067647,-33.481261)" d="m -25.406 14.5 c 2.304 0 4.367 1.303 5.281 3.313 l 1.219 -0.469 -1 3.469 -3.313 -1.844 1.281 -0.5 c -0.621 -1.31 -1.954 -2.125 -3.469 -2.125 -1.573 0 -2.996 0.94 -3.563 2.344 l -1.781 -0.688 c 0.845 -2.104 2.985 -3.5 5.344 -3.5 z m -5.5 4.719 3.313 1.781 -1.281 0.5 c 0.613 1.305 1.964 2.156 3.469 2.156 1.576 0 2.979 -0.91 3.563 -2.313 l 1.781 0.688 c -0.877 2.103 -2.979 3.469 -5.344 3.469 -2.292 0 -4.387 -1.339 -5.281 -3.344 l -1.219 0.438 z"/>
  </g>
  <g transform="matrix(0.49988464,0,0,0.49988464,-37.411065,7.9950011)">
   <!-- color: #004794 -->
  </g>
 </g>
 <g transform="matrix(0.30901699,0.95105652,-0.95105652,0.30901699,14.828732,8.6023939)" style="stroke-dasharray:none;stroke-opacity:1;stroke-miterlimit:4;stroke:#000;stroke-width:1.5">
  <g transform="matrix(0.49988464,0,0,0.49988464,-37.411065,7.9950011)" style="stroke-width:3">
   <!-- color: #004794 -->
  </g>
 </g>
</svg>
