<svg height="48" width="48" xmlns="http://www.w3.org/2000/svg" xmlns:xlink="http://www.w3.org/1999/xlink"><linearGradient id="a" gradientUnits="userSpaceOnUse" x1="70.025551" x2="66.525925" y1="568.447257" y2="490.271347"><stop offset="0" stop-color="#0a80fd"/><stop offset="1" stop-color="#56c5fa"/></linearGradient><linearGradient id="b" gradientTransform="matrix(1.0020883 0 0 .99999615 -.150321 -1.578513)" gradientUnits="userSpaceOnUse" x1="72.850105" x2="72.285057" y1="491.14539" y2="462.67584"><stop offset="0" stop-color="#2e3436"/><stop offset="1" stop-color="#555753"/></linearGradient><g transform="matrix(.36470036 0 0 .36470036 -2.293609 -164.57037)"><rect fill-opacity=".666667" height="106.81747" ry="5.026705" width="120.39567" x="11.898889" y="465.93271"/><rect fill="url(#a)" height="106.81747" ry="5.026705" width="120.39567" x="11.898878" y="464.37772"/><g fill-rule="evenodd"><path d="m18.537737 461.41437h107.117473c3.85647 0 6.71098 3.09818 6.71098 6.9466l.00048 14.95331v6.94661h-120.540399v-6.94661l.000081-14.95331c.00002-3.84842 2.854909-6.9466 6.711385-6.9466z" fill="url(#b)" stroke="url(#b)" stroke-linecap="round" stroke-linejoin="round" stroke-width=".106589"/><path d="m79.770627 489.28486h18.469492l14.434231-12.77017-14.434231-14.12428h-18.469492l13.085263 14.12428z" fill="#fff" fill-opacity=".947581"/><path d="m31.675661 489.28486h18.469491l14.434233-12.77017-14.434233-14.12428h-18.469491l13.085258 14.12428z" fill="#fff" fill-opacity=".947581"/><path d="m89.197325 529.94546-30.221625 18.26731v-36.53462z" fill="#e0f1fe" stroke="#e0f1ff" stroke-linecap="round" stroke-linejoin="round" stroke-width="3.516148"/></g></g></svg>