<svg xmlns="http://www.w3.org/2000/svg" viewBox="0 0 48 48">
 <g>
  <path d="m 41.14 6.861 c -1.147 -1.147 -4.243 0 -7.299 3.056 l -4.492 4.492 -19.309 -4.075 c -1.39 -0.262 -1.789 -0.27 -2.49 0.418 -1.644 1.644 -1.645 1.644 1.059 3.211 l 14.03 7.151 -7.728 7.728 -6.104 -1.171 c -0.714 -0.151 -0.702 -0.204 -1.15 0.244 l -0.443 0.443 c -0.675 0.675 0.338 1.474 0.338 1.474 l 6.286 4.326 4.326 6.286 c 0 0 0.799 1.013 1.474 0.338 l 0.443 -0.443 c 0.447 -0.448 0.394 -0.435 0.244 -1.15 l -1.171 -6.104 7.728 -7.728 7.151 14.03 c 1.567 2.704 1.567 2.703 3.211 1.059 0.688 -0.7 0.68 -1.1 0.418 -2.49 l -4.075 -19.309 4.492 -4.492 c 3.056 -3.056 4.204 -6.152 3.056 -7.299 z" style="fill:#71a6ce;fill-opacity:1;stroke:none"/>
 </g>
</svg>
