<svg xmlns="http://www.w3.org/2000/svg" viewBox="0 0 48 48">
 <g transform="matrix(1.25,0,0,-1.25,0,48)">
  <path d="m 26.42 28 c -3.29 0 -6.3 -2.421 -7.62 -5.6 l -10.2 0 c -3.495 0 -5.2 -1.452 -5.2 -3.2 c 0 -1.748 1.705 -3.2 5.2 -3.2 l 1.6 -4 1.82 5.6 3.58 -5.6 1.8 4 l 1.4 0 c 1.311 -3.179 4.324 -5.591 7.62 -5.6 4.577 0 8.58 3.985 8.58 8.8 c 0 5.6 -4 8.8 -8.58 8.8 m 2.98 -7.2 c 0.884 0 1.6 -0.716 1.6 -1.6 c 0 -0.884 -0.716 -1.6 -1.6 -1.6 c -0.884 0 -1.6 0.716 -1.6 1.6 0 0.884 0.716 1.6 1.6 1.6 z" style="fill:#6d6d6d;fill-opacity:1;stroke:none;fill-rule:nonzero"/>
 </g>
</svg>
