<svg xmlns="http://www.w3.org/2000/svg" width="48" height="48" viewBox="0 0 38.4 38.4">
 <path d="m 8.4 4.8 c -2 0 -3.6 1.588 -3.6 3.56 l 0 21.677 c 0 1.973 1.607 3.563 3.6 3.563 l 21.6 0 c 1.993 0 3.6 -1.59 3.6 -3.563 l 0 -21.675 c 0 -1.973 -1.607 -3.562 -3.6 -3.563" style="fill:#54cdee;fill-opacity:0.298"/>
 <path d="m 12 8.8 0 6.4 4.8 0 0 -1.6 4.8 0 0 3.2 -4.8 0 0 5.6 4.8 0 0 -0.8 4.8 0 0 -12.8 -14.4 0 z m 4.8 16 0 4.8 4.8 0 0 -4.8 -4.8 0 z" style="fill:#fff;opacity:1;fill-opacity:0.8;stroke:none;fill-rule:nonzero"/>
</svg>
