<svg xmlns="http://www.w3.org/2000/svg" viewBox="0 0 48 48">
 <path d="m 24.05 2 c -3.128 -0.012 -4.887 11.05 -7.425 12.87 c -2.537 1.824 -13.58 -0.039 -14.558 2.925 -0.978 2.965 9.01 8.04 9.966 11.02 0.954 2.972 -4.184 12.879 -1.661 14.723 2.524 1.845 10.453 -6.06 13.581 -6.05 3.127 0.012 10.946 8.06 13.483 6.24 c 2.538 -1.825 -2.542 -11.855 -1.563 -14.82 0.979 -2.964 11.02 -7.949 10.06 -10.92 -0.955 -2.973 -12.03 -1.177 -14.558 -3.02 -2.522 -1.845 -4.201 -12.956 -7.328 -12.968 z" style="fill:#808080;fill-opacity:1;color:#000"/>
</svg>
