<svg xmlns="http://www.w3.org/2000/svg" viewBox="0 0 48 48">
 <path d="m 15 7 -8 9 15 0 0 -9 z m 11 0 0 9 15 0 -8 -9 z m -19 12 0 22 20.834 0 c -0.444 -0.466 -0.834 -1.147 -0.834 -2.109 l 0 -1.777 c 0 -1.571 1.075 -2.44 1.703 -2.771 -0.05 -0.11 -0.129 -0.138 -0.174 -0.268 -0.236 -0.689 -0.361 -2.25 0.834 -3.342 l 1.242 -1.176 0.002 -0.004 c 1.18 -1.111 2.465 -0.893 3.1 -0.699 0.173 0.053 0.239 0.158 0.381 0.223 0.049 -0.021 0.105 -0.026 0.154 -0.047 0.051 -0.127 0.018 -0.227 0.092 -0.363 c 0.341 -0.626 1.236 -1.666 2.766 -1.666 l 1.801 0 c 0.929 0 1.621 0.385 2.1 0.826 l 0 -8.826" style="fill:#c28e5c"/>
 <g transform="matrix(1.3636364,0,0,1.3636364,23.363636,23.499999)" style="stroke-dasharray:none;stroke-opacity:1;fill:#4db147;stroke-miterlimit:4;fill-opacity:1;stroke:#000;stroke-width:4.4">
  <g transform="matrix(0.49988464,0,0,0.49988464,-37.411065,7.9950011)" style="stroke-width:8.802">
   <!-- color: #004794 -->
  </g>
 </g>
 <g transform="translate(62.304688,-4.054688)" style="fill:#d481e2;fill-opacity:1">
  <path d="m 37.1 30 c -0.103 0 -0.186 0.152 -0.186 0.34 l 0 0.998 c -1.133 0.185 -2.169 0.657 -3.039 1.334 c -0.021 -0.029 -0.029 -0.058 -0.059 -0.086 l -0.77 -0.73 c -0.141 -0.133 -0.311 -0.185 -0.383 -0.117 l -1.277 1.209 c -0.074 0.067 -0.018 0.229 0.123 0.361 l 0.77 0.73 c 0.06 0.057 0.126 0.091 0.188 0.115 c -0.568 0.814 -0.959 1.758 -1.123 2.775 l -0.986 0 c -0.198 0 -0.357 0.08 -0.357 0.184 l 0 1.777 c 0 0.101 0.16 0.184 0.357 0.184 l 0.988 0 c 0.164 1.016 0.552 1.959 1.119 2.771 c -0.061 0.024 -0.126 0.058 -0.186 0.115 l -0.77 0.73 c -0.141 0.133 -0.197 0.294 -0.123 0.361 l 1.277 1.209 c 0.072 0.067 0.242 0.015 0.383 -0.117 l 0.77 -0.73 c 0.03 -0.028 0.037 -0.057 0.059 -0.086 c 0.87 0.677 1.908 1.141 3.039 1.326 l 0 1.01 c 0 0.187 0.082 0.34 0.186 0.34 l 1.801 0 c 0.103 0 0.186 -0.152 0.186 -0.34 l 0 -1.01 c 1.131 -0.185 2.169 -0.65 3.039 -1.326 c 0.021 0.029 0.029 0.058 0.059 0.086 l 0.77 0.73 c 0.141 0.133 0.311 0.185 0.383 0.117 l 1.277 -1.209 c 0.074 -0.067 0.018 -0.229 -0.123 -0.361 l -0.77 -0.73 c -0.059 -0.057 -0.124 -0.091 -0.186 -0.115 c 0.567 -0.813 0.955 -1.755 1.119 -2.771 l 0.988 0 c 0.198 0 0.357 -0.083 0.357 -0.184 l 0 -1.777 c 0 -0.103 -0.16 -0.184 -0.357 -0.184 l -0.988 0 c -0.165 -1.017 -0.565 -1.953 -1.133 -2.766 c 0.065 -0.023 0.135 -0.064 0.199 -0.125 l 0.77 -0.73 c 0.141 -0.133 0.197 -0.294 0.123 -0.361 l -1.277 -1.209 c -0.072 -0.067 -0.242 -0.015 -0.383 0.117 l -0.77 0.73 c -0.035 0.033 -0.045 0.067 -0.068 0.102 c -0.869 -0.675 -1.899 -1.151 -3.03 -1.336 l 0 -1.012 c 0 -0.187 -0.082 -0.34 -0.186 -0.34 l -1.801 0 z m 0.689 3.918 l 0.006 0 l 0.004 0 c -0.012 0.001 0.057 0.002 0.201 0.002 c 2.271 0 4.084 1.811 4.084 4.082 c 0 2.271 -1.813 4.082 -4.084 4.082 c -2.271 0 -4.084 -1.811 -4.084 -4.082 c 0 -2.199 1.709 -3.974 3.873 -4.084 z m 0.211 2.678 c -0.819 0 -1.484 0.629 -1.484 1.406 c 0 0.775 0.665 1.404 1.484 1.404 c 0.819 0 1.484 -0.63 1.484 -1.404 c 0 -0.777 -0.665 -1.406 -1.484 -1.406 z" transform="translate(-62.304688,4.054688)" mix-blend-mode="normal" isolation="auto" white-space="normal" solid-opacity="1" solid-color="#000000" style="visibility:visible;shape-rendering:auto;color-interpolation-filters:linearRGB;opacity:1;image-rendering:auto;stroke:none;display:inline;color:#000;fill-rule:nonzero;color-rendering:auto;color-interpolation:sRGB"/>
 </g>
</svg>
