<svg xmlns="http://www.w3.org/2000/svg" viewBox="0 0 48 48">
 <path d="m 15 7 l -8 9 l 15 0 l 0 -9 l -7 0 z m 11 0 l 0 9 l 15 0 l -8 -9 l -7 0 z m -19 12 l 0 22 l 20.793 0 l 2.5 -2.5 l -3.535 -3.535 l 7.779 -7.777 l 3.535 3.535 l 1.414 -1.414 l 1.514 -1.516 l 0 -8.793 l -34 0 z" style="fill:#c28e5c"/>
 <path d="m 41.607 31.429 -3.536 3.536 -3.535 -3.535 -3.536 3.535 l 3.536 3.536 -3.535 3.536 3.535 3.535 3.535 -3.536 3.536 3.536 3.536 -3.535 -3.536 -3.536 3.536 -3.535 z" style="fill:#ee545b;fill-opacity:1"/>
</svg>
