<svg xmlns="http://www.w3.org/2000/svg" viewBox="0 0 48 48">
 <path d="m 15 7 -8 9 15 0 0 -9 z m 11 0 0 9 15 0 -8 -9 z m -19 12 0 22 20.314 0 c -0.825 -3.583 0.136 -7.507 2.908 -10.277 2.135 -2.136 4.956 -3.203 7.777 -3.203 c 1.01 0 2.02 0.142 3 0.416 l 0 -8.936" style="fill:#c28e5c"/>
 <g transform="matrix(0.4,0,0,0.4,28.4,28.900026)" style="fill:#ee545b;fill-opacity:1">
  <path d="m 13.395 38.848 -4.242 -4.242 25.453 -25.453 l 4.242 4.242 z"/>
  <path d="m 9.859 38.14 c 7.809 7.813 20.473 7.813 28.28 0 7.813 -7.809 7.813 -20.473 0 -28.28 -7.809 -7.813 -20.473 -7.813 -28.28 0 -7.813 7.809 -7.813 20.473 0 28.28 z m 4.242 -4.242 c -5.469 -5.465 -5.469 -14.332 0 -19.797 5.465 -5.469 14.332 -5.469 19.797 0 5.469 5.465 5.469 14.332 0 19.797 -5.465 5.469 -14.332 5.469 -19.797 0 z" style="fill-rule:evenodd"/>
 </g>
</svg>
