<svg xmlns="http://www.w3.org/2000/svg" viewBox="0 0 48 48">
 <path d="m 15 7 l -8 9 l 15 0 l 0 -9 l -7 0 z m 11 0 l 0 9 l 15 0 l -8 -9 l -7 0 z m -19 12 l 0 22 l 19.678 0 l 0.986 -3.328 l -0.506 -0.195 l 1.135 -2.822 c 0.132 -0.327 0.37 -0.579 0.531 -0.887 l 0.213 -0.723 l 0.162 0.088 c 1.946 -3.137 5.37 -5.131 9.164 -5.131 c 0.903 0 1.786 0.118 2.637 0.328 l 0 -9.33 l -34 0 z" style="fill:#c28e5c"/>
 <g transform="matrix(1.3636364,0,0,1.3636364,23.363636,23.5)" style="fill:#3370d0;fill-opacity:1">
  <g transform="matrix(0.34782609,0,0,0.34782609,2.6435901,2.6456559)">
   <path transform="matrix(2.875,0,0,2.875,97.067647,-33.481261)" d="m -25.406 14.5 c 2.304 0 4.367 1.303 5.281 3.313 l 1.219 -0.469 -1 3.469 -3.313 -1.844 1.281 -0.5 c -0.621 -1.31 -1.954 -2.125 -3.469 -2.125 -1.573 0 -2.996 0.94 -3.563 2.344 l -1.781 -0.688 c 0.845 -2.104 2.985 -3.5 5.344 -3.5 z m -5.5 4.719 3.313 1.781 -1.281 0.5 c 0.613 1.305 1.964 2.156 3.469 2.156 1.576 0 2.979 -0.91 3.563 -2.313 l 1.781 0.688 c -0.877 2.103 -2.979 3.469 -5.344 3.469 -2.292 0 -4.387 -1.339 -5.281 -3.344 l -1.219 0.438 z"/>
  </g>
  <g transform="matrix(0.49988464,0,0,0.49988464,-37.411065,7.9950011)">
   <!-- color: #004794 -->
  </g>
 </g>
 <g transform="matrix(1.3636364,0,0,1.3636364,23.363636,23.499999)" style="stroke-dasharray:none;stroke-opacity:1;fill:#4db147;stroke-miterlimit:4;fill-opacity:1;stroke:#000;stroke-width:4.4">
  <g transform="matrix(0.49988464,0,0,0.49988464,-37.411065,7.9950011)" style="stroke:#000;stroke-width:8.802">
   <!-- color: #004794 -->
  </g>
 </g>
</svg>
