<svg xmlns="http://www.w3.org/2000/svg" viewBox="0 0 48 48">
 <path d="m 24 2.01 c -3.096 0.108 -4.851 11.05 -7.375 12.865 -2.537 1.824 -13.581 -0.04 -14.559 2.924 -0.978 2.965 9.01 8.04 9.967 11.02 c 0.954 2.972 -4.183 12.879 -1.66 14.723 2.524 1.845 10.452 -6.06 13.58 -6.04 0.014 0 0.032 0.007 0.047 0.008 1.624 -11.831 1.438 -23.661 0 -35.492 z" style="fill:#dfdd41;fill-opacity:1;color:#000"/>
 <path d="m 24.05 2 c -0.017 0 -0.034 0.005 -0.051 0.006 l 0 35.492 c 3.155 0.086 10.91 8.05 13.436 6.232 c 2.538 -1.825 -2.541 -11.855 -1.563 -14.82 c 0.979 -2.964 11.02 -7.948 10.06 -10.92 c -0.955 -2.973 -12.03 -1.176 -14.557 -3.02 c -2.522 -1.845 -4.201 -12.957 -7.328 -12.969 z" style="fill:#808080;opacity:1;fill-opacity:1;stroke:none"/>
</svg>
