<svg xmlns="http://www.w3.org/2000/svg" viewBox="0 0 48 48" style="enable-background:new">
 <path d="m 23.413 7 c -9.06 0 -16.413 7.611 -16.413 17 0 9.389 7.348 17 16.413 17 2.49 0 4.848 -0.579 6.962 -1.607 c -5.582 -2.714 -9.45 -8.583 -9.45 -15.393 0 -6.809 3.868 -12.679 9.45 -15.393 c -2.114 -1.028 -4.472 -1.607 -6.962 -1.607" style="fill:#ececec;fill-opacity:1"/>
 <path d="m 23.2 25 c -0.31 0 -0.642 0.015 -0.979 0.058 c -5.385 0.693 -5.221 5.314 -5.221 5.314 -2.206 0.375 -4 2.299 -4 4.312 c 0 2.01 2.297 3.794 4.228 4.312 1.149 0.308 2.653 0 2.653 0 c 0.682 1.202 2.93 2 4.498 2 c 2.556 0 5.184 -0.848 5.789 -2 0 0 10.587 0.847 12.784 0 3.199 -1.233 2.199 -5.085 0.071 -6.388 -2.128 -1.303 -4.909 -0.392 -4.909 -0.392 0 0 -0.012 -2.653 -3.02 -3.92 -3.01 -1.268 -5.548 1.539 -5.548 1.539 0 0 -1.686 -4.806 -6.342 -4.835 z" style="fill:#d8d8d8;fill-opacity:1"/>
</svg>
