<svg xmlns="http://www.w3.org/2000/svg" viewBox="0 0 48 48" style="enable-background:new">
 <circle cx="24" cy="24" r="15" style="fill:#dfdd41;opacity:1;fill-opacity:1;stroke:none;fill-rule:nonzero"/>
 <g>
  <path d="m 24 3 1.5 4 -3 0 z" style="fill:#dfdd41;opacity:1;fill-opacity:1;stroke:none;fill-rule:nonzero"/>
  <path d="m 24 45 -1.5 -4 3 0 z" style="fill:#dfdd41;opacity:1;fill-opacity:1;stroke:none;fill-rule:nonzero"/>
  <path d="m 45 24 -4 1.5 0 -3 z" style="fill:#dfdd41;opacity:1;fill-opacity:1;stroke:none;fill-rule:nonzero"/>
  <path d="m 3 24 4 -1.5 0 3 z" style="fill:#dfdd41;opacity:1;fill-opacity:1;stroke:none;fill-rule:nonzero"/>
 </g>
 <g transform="matrix(0.70710678,0.70710678,-0.70710678,0.70710678,24,-9.9411255)">
  <path d="m 24 3 1.5 4 -3 0 z" style="fill:#dfdd41;opacity:1;fill-opacity:1;stroke:none;fill-rule:nonzero"/>
  <path d="m 24 45 -1.5 -4 3 0 z" style="fill:#dfdd41;opacity:1;fill-opacity:1;stroke:none;fill-rule:nonzero"/>
  <path d="m 45 24 -4 1.5 0 -3 z" style="fill:#dfdd41;opacity:1;fill-opacity:1;stroke:none;fill-rule:nonzero"/>
  <path d="m 3 24 4 -1.5 0 3 z" style="fill:#dfdd41;opacity:1;fill-opacity:1;stroke:none;fill-rule:nonzero"/>
 </g>
 <path d="m 23.2 25 c -0.31 0 -0.642 0.015 -0.979 0.058 c -5.385 0.693 -5.221 5.314 -5.221 5.314 -2.206 0.375 -4 2.299 -4 4.312 c 0 2.01 2.297 3.794 4.228 4.312 1.149 0.308 2.653 0 2.653 0 c 0.682 1.202 2.93 2 4.498 2 c 2.556 0 5.184 -0.848 5.789 -2 0 0 10.587 0.847 12.784 0 3.199 -1.233 2.199 -5.085 0.071 -6.388 -2.128 -1.303 -4.909 -0.392 -4.909 -0.392 0 0 -0.012 -2.653 -3.02 -3.92 -3.01 -1.268 -5.548 1.539 -5.548 1.539 0 0 -1.686 -4.806 -6.342 -4.835 z" style="fill:#ececec;fill-opacity:1"/>
</svg>
