<svg xmlns="http://www.w3.org/2000/svg" viewBox="0 0 32 32">
 <path d="m 5.336 0 c -0.687 0 -1.336 0.676 -1.336 1.394 l 0 29.21 c 0 0.676 0.687 1.394 1.336 1.394 l 21.327 0 c 0.648 0 1.336 -0.717 1.336 -1.394 l 0.001 -21.606 -9 -9 z" style="fill:#c19553;fill-opacity:1"/>
 <path d="m 4 24 0 6.668 c 0 0.648 0.688 1.332 1.332 1.332 l 21.336 0 c 0.645 0 1.332 -0.684 1.332 -1.332 l 0 -6.668 z" style="fill:#000;fill-opacity:0.196"/>
 <path d="m 11.55 29.497 c 0 0.299 -0.052 0.553 -0.16 0.758 -0.108 0.198 -0.256 0.359 -0.445 0.482 -0.184 0.116 -0.405 0.202 -0.661 0.258 -0.248 0.049 -0.521 0.071 -0.813 0.071 -0.232 0 -0.477 -0.015 -0.725 -0.041 c -0.252 -0.019 -0.501 -0.056 -0.745 -0.105 l 0 -4.835 c 0.2 -0.034 0.421 -0.06 0.657 -0.082 c 0.24 -0.026 0.477 -0.037 0.713 -0.037 c 0.397 0 0.721 0.037 0.974 0.12 0.252 0.075 0.449 0.176 0.589 0.306 0.144 0.123 0.24 0.262 0.293 0.418 0.052 0.153 0.076 0.31 0.076 0.467 0 0.235 -0.06 0.445 -0.188 0.628 -0.12 0.179 -0.28 0.325 -0.485 0.433 0.357 0.123 0.601 0.291 0.725 0.497 0.132 0.209 0.196 0.43 0.196 0.661 m -2.496 -0.676 0 1.353 c 0.072 0.011 0.152 0.019 0.236 0.022 0.092 0.008 0.18 0.011 0.268 0.011 0.12 0 0.236 -0.011 0.349 -0.026 0.116 -0.022 0.216 -0.056 0.301 -0.105 0.092 -0.052 0.164 -0.127 0.22 -0.217 0.06 -0.097 0.088 -0.217 0.088 -0.362 0 -0.243 -0.084 -0.411 -0.248 -0.516 -0.16 -0.105 -0.377 -0.161 -0.649 -0.161 l -0.565 0 m 0.409 -0.818 c 0.268 0 0.473 -0.056 0.609 -0.164 0.136 -0.112 0.204 -0.265 0.204 -0.456 0 -0.12 -0.02 -0.213 -0.06 -0.284 -0.04 -0.075 -0.092 -0.131 -0.16 -0.168 -0.072 -0.041 -0.148 -0.071 -0.24 -0.078 -0.092 -0.019 -0.188 -0.026 -0.284 -0.026 -0.08 0 -0.16 0.004 -0.248 0.008 -0.084 0.008 -0.16 0.015 -0.228 0.026 l 0 1.143 0.409 0" style="fill:#fff"/>
 <path d="m 21 9 7 7 0 -7 z" style="fill:#000;fill-opacity:0.196"/>
 <path d="m 15.819 26.699 c -0.826 1.154 -1.566 2.317 -2.257 3.481 l 2.335 0 0 0.825 -3.58 0 0 -0.574 c 0.684 -1.247 1.461 -2.455 2.203 -3.605 l -2.092 0 0 -0.821 3.391 0 0 0.694" style="fill:#fff"/>
 <path d="m 19 0 8.992 9 -7.613 0 c -0.673 0 -1.378 -0.713 -1.378 -1.386 z" style="fill:#fff;fill-opacity:0.392"/>
 <path d="m 16.7 31.01 0 -0.825 1.169 0 0 -3.353 -1.169 0 0 -0.821 3.289 0 0 0.821 -1.081 0 0 3.353 1.081 0 0 0.825 -3.289 0" style="fill:#fff"/>
 <rect width="3" height="3" x="9" style="fill:#f9f9f9;fill-opacity:1;stroke:none;fill-rule:evenodd"/>
 <path d="m 22.23 25.955 c 0.656 0 1.168 0.131 1.527 0.393 0.363 0.258 0.543 0.686 0.543 1.274 0 0.599 -0.184 1.03 -0.551 1.3 -0.359 0.266 -0.875 0.397 -1.543 0.397 l -0.367 0 0 1.686 -1.027 0 0 -4.93 c 0.102 -0.022 0.211 -0.041 0.336 -0.056 0.129 -0.015 0.254 -0.026 0.383 -0.034 0.129 -0.011 0.254 -0.019 0.375 -0.022 0.121 -0.008 0.23 -0.008 0.324 -0.008 m 0.117 0.862 c -0.059 0 -0.145 0.004 -0.258 0.008 -0.105 0 -0.187 0.008 -0.25 0.019 l 0 1.611 0.418 0 c 0.328 0 0.574 -0.06 0.742 -0.184 0.168 -0.131 0.25 -0.348 0.25 -0.656 0 -0.288 -0.082 -0.495 -0.25 -0.611 -0.16 -0.124 -0.379 -0.187 -0.652 -0.187" style="fill:#fff"/>
 <rect width="3" height="3" x="12" y="3" style="fill:#f9f9f9;fill-opacity:1;stroke:none;fill-rule:evenodd"/>
 <rect width="3" height="3" x="9" y="6" style="fill:#f9f9f9;fill-opacity:1;stroke:none;fill-rule:evenodd"/>
 <rect width="3" height="3" x="12" y="9" style="fill:#f9f9f9;fill-opacity:1;stroke:none;fill-rule:evenodd"/>
 <rect width="3" height="3" x="9" y="12" style="fill:#f9f9f9;fill-opacity:1;stroke:none;fill-rule:evenodd"/>
 <rect width="6" height="6" x="9" y="16" style="fill:#f9f9f9;fill-opacity:1;stroke:none;fill-rule:evenodd"/>
</svg>
