<svg xmlns="http://www.w3.org/2000/svg" viewBox="0 0 32 32">
 <path d="m 5.344 0 c -0.687 0 -1.344 0.689 -1.344 1.406 l 0 29.19 c 0 0.676 0.695 1.406 1.344 1.406 l 21.313 0 c 0.648 0 1.344 -0.73 1.344 -1.406 l 0 -21.594 0 -7.625 c 0 -0.673 -0.702 -1.375 -1.375 -1.375 l -7.625 0 -13.656 0 z" style="fill:#207145;fill-opacity:1"/>
 <path d="M 23,9 23,22 9,22 9,9 z m -1,1 -7,0 0,3 7,0 z m -8,0 -4,0 0,3 4,0 z m 8,4 -7,0 0,3 7,0 z m -8,0 -4,0 0,3 4,0 z m 8,4 -7,0 0,3 7,0 z m -8,0 -4,0 0,3 4,0 z" style="fill:#fff"/>
 <path d="m 4 24 0 6.668 c 0 0.648 0.688 1.332 1.332 1.332 l 21.336 0 c 0.645 0 1.332 -0.684 1.332 -1.332 l 0 -6.668 z" style="fill:#000;fill-opacity:0.196"/>
 <path d="m 10.236 27.97 c 0 0.284 0.009 0.55 0.031 0.799 0.031 0.244 0.08 0.457 0.151 0.639 0.075 0.182 0.182 0.324 0.315 0.43 0.133 0.106 0.315 0.16 0.541 0.16 0.217 0 0.39 -0.053 0.528 -0.16 0.138 -0.106 0.244 -0.248 0.315 -0.43 0.08 -0.191 0.129 -0.404 0.146 -0.648 0.031 -0.244 0.044 -0.506 0.044 -0.79 0 -0.279 -0.013 -0.541 -0.044 -0.785 -0.018 -0.253 -0.067 -0.466 -0.146 -0.648 -0.071 -0.182 -0.173 -0.324 -0.306 -0.43 -0.133 -0.106 -0.315 -0.16 -0.537 -0.16 -0.226 0 -0.408 0.053 -0.541 0.16 -0.133 0.106 -0.24 0.253 -0.315 0.439 -0.071 0.182 -0.12 0.395 -0.151 0.639 -0.022 0.244 -0.031 0.506 -0.031 0.785 m -1.322 0 c 0 -0.998 0.209 -1.752 0.626 -2.258 0.417 -0.515 0.994 -0.768 1.735 -0.768 0.768 0 1.349 0.253 1.752 0.768 0.399 0.506 0.603 1.26 0.603 2.258 0 1 -0.204 1.757 -0.612 2.271 c -0.413 0.506 -0.989 0.759 -1.735 0.759 -0.768 0 -1.358 -0.253 -1.766 -0.759 -0.399 -0.515 -0.603 -1.269 -0.603 -2.271" style="fill:#fff"/>
 <path d="m 18.932 25.07 0 0.958 -1.721 0 0 4.849 -1.309 0 0 -4.849 -1.721 0 0 -0.958 4.752 0" style="fill:#fff"/>
 <path d="m 21.651 30.03 c 0.217 0 0.395 -0.018 0.537 -0.053 0.146 -0.044 0.266 -0.102 0.35 -0.169 0.084 -0.075 0.138 -0.16 0.169 -0.244 0.035 -0.093 0.053 -0.191 0.053 -0.284 0 -0.12 -0.04 -0.222 -0.115 -0.319 -0.08 -0.093 -0.177 -0.173 -0.297 -0.244 -0.12 -0.071 -0.253 -0.138 -0.404 -0.195 -0.146 -0.062 -0.293 -0.12 -0.444 -0.169 -0.195 -0.062 -0.399 -0.133 -0.612 -0.217 -0.213 -0.08 -0.404 -0.182 -0.581 -0.306 -0.169 -0.129 -0.311 -0.28 -0.421 -0.461 -0.115 -0.186 -0.169 -0.417 -0.169 -0.692 0 -0.546 0.195 -0.972 0.59 -1.278 0.404 -0.306 0.949 -0.457 1.65 -0.457 0.399 0 0.75 0.04 1.043 0.12 0.306 0.08 0.559 0.173 0.763 0.271 l -0.382 0.892 c -0.173 -0.089 -0.373 -0.16 -0.59 -0.226 -0.213 -0.062 -0.457 -0.093 -0.741 -0.093 -0.692 0 -1.034 0.222 -1.034 0.665 0 0.115 0.035 0.213 0.106 0.302 0.067 0.08 0.155 0.155 0.262 0.226 0.111 0.062 0.235 0.12 0.368 0.169 0.142 0.049 0.279 0.098 0.413 0.142 0.204 0.067 0.417 0.146 0.634 0.231 0.226 0.084 0.43 0.195 0.612 0.337 0.191 0.138 0.346 0.315 0.466 0.528 0.12 0.204 0.182 0.466 0.182 0.785 0 0.546 -0.204 0.967 -0.603 1.269 c -0.395 0.293 -0.998 0.439 -1.806 0.439 c -0.546 0 -0.976 -0.049 -1.3 -0.151 -0.324 -0.106 -0.568 -0.204 -0.732 -0.288 l 0.382 -0.941 c 0.191 0.102 0.417 0.195 0.674 0.284 0.271 0.084 0.594 0.129 0.976 0.129" style="fill:#fff"/>
</svg>
