<svg xmlns="http://www.w3.org/2000/svg" viewBox="0 0 32 32">
 <path d="m 5.336 0 c -0.687 0 -1.336 0.676 -1.336 1.394 l 0 29.21 c 0 0.676 0.687 1.394 1.336 1.394 l 21.327 0 c 0.648 0 1.336 -0.717 1.336 -1.394 l 0.001 -21.606 l -9 -9 z" style="fill:#c19553;fill-opacity:1"/>
 <path d="m 4 24 0 6.668 c 0 0.648 0.688 1.332 1.332 1.332 l 21.336 0 c 0.645 0 1.332 -0.684 1.332 -1.332 l 0 -6.668 z" style="fill:#000;fill-opacity:0.196"/>
 <path d="m 21 9 7 7 0 -7 z" style="fill:#000;fill-opacity:0.196"/>
 <path d="m 17.11 31 -0.301 -1.187 -1.773 0 l -0.292 1.187 -1.295 0 c 0.526 -2.082 1.248 -4.088 1.88 -6 l 1.275 0 c 0.697 2.034 1.373 4.091 1.845 6 l -1.338 0 m -1.175 -4.836 c -0.271 0.824 -0.496 1.851 -0.667 2.662 l 1.326 0 c -0.146 -0.85 -0.424 -1.871 -0.659 -2.662" style="fill:#fff"/>
 <path d="m 19 0 8.992 9 -7.613 0 c -0.673 0 -1.378 -0.713 -1.378 -1.386 z" style="fill:#fff;fill-opacity:0.392"/>
 <path d="m 20.421 24.9 c 0.341 0 0.649 0.036 0.925 0.116 0.276 0.076 0.515 0.197 0.714 0.362 0.199 0.161 0.349 0.366 0.454 0.621 0.11 0.246 0.162 0.541 0.162 0.876 0 0.353 -0.069 0.67 -0.211 0.956 -0.142 0.286 -0.377 0.505 -0.706 0.652 c 0.538 0.8 0.93 1.655 1.315 2.516 l -1.246 0 c -0.309 -0.806 -0.751 -1.534 -1.148 -2.221 l -0.666 0 0 2.221 -1.14 0 0 -5.944 c 0.513 -0.127 1.025 -0.132 1.546 -0.156 m 1.051 1.966 c 0 -0.317 -0.097 -0.55 -0.292 -0.702 -0.191 -0.147 -0.446 -0.223 -0.759 -0.223 -0.124 -0.003 -0.29 0.021 -0.406 0.031 l 0 1.81 0.309 0 c 0.406 0 0.698 -0.076 0.877 -0.232 0.183 -0.161 0.272 -0.389 0.272 -0.684" style="fill:#fff"/>
 <rect width="3" height="3" x="9" style="fill:#f9f9f9;fill-opacity:1;stroke:none;fill-rule:evenodd"/>
 <rect width="3" height="3" x="12" y="3" style="fill:#f9f9f9;fill-opacity:1;stroke:none;fill-rule:evenodd"/>
 <rect width="3" height="3" x="9" y="6" style="fill:#f9f9f9;fill-opacity:1;stroke:none;fill-rule:evenodd"/>
 <rect width="3" height="3" x="12" y="9" style="fill:#f9f9f9;fill-opacity:1;stroke:none;fill-rule:evenodd"/>
 <rect width="3" height="3" x="9" y="12" style="fill:#f9f9f9;fill-opacity:1;stroke:none;fill-rule:evenodd"/>
 <rect width="6" height="6" x="9" y="16" style="fill:#f9f9f9;fill-opacity:1;stroke:none;fill-rule:evenodd"/>
 <path d="m 11.46 27.17 c 0.22 0.847 0.497 1.693 0.74 2.51 -0.014 -1.651 -0.023 -3.165 -0.029 -4.677 l 1.129 0 c -0.067 2.01 -0.199 4.045 -0.38 6 l -1.01 0 c -0.321 -0.899 -0.589 -1.775 -0.872 -2.629 -0.325 0.902 -0.606 1.765 -0.893 2.629 l -1.011 0 c -0.231 -1.995 -0.334 -4.04 -0.396 -6 l 1.129 0 c -0.022 1.562 -0.027 3.152 -0.038 4.677 0.247 -0.84 0.542 -1.752 0.768 -2.51" style="fill:#fff"/>
</svg>
