<svg xmlns="http://www.w3.org/2000/svg" viewBox="0 0 32 32">
 <path d="m 5.336 0 c -0.687 0 -1.336 0.676 -1.336 1.394 l 0 29.21 c 0 0.676 0.687 1.394 1.336 1.394 l 21.327 0 c 0.648 0 1.336 -0.717 1.336 -1.394 l 0.001 -21.606 l -9 -9 z" style="fill:#c19553;fill-opacity:1"/>
 <path d="m 4 24 0 6.668 c 0 0.648 0.688 1.332 1.332 1.332 l 21.336 0 c 0.645 0 1.332 -0.684 1.332 -1.332 l 0 -6.668 z" style="fill:#000;fill-opacity:0.196"/>
 <path d="m 21 9 7 7 0 -7 z" style="fill:#000;fill-opacity:0.196"/>
 <path d="m 12.901 25.83 c -0.282 0.427 -0.539 0.826 -0.772 1.202 -0.237 0.376 -0.453 0.734 -0.658 1.078 -0.2 0.335 -0.392 0.661 -0.576 0.977 -0.176 0.312 -0.343 0.619 -0.507 0.922 l 2.598 0 0 0.986 -3.987 0 0 -0.688 c 0.143 -0.275 0.298 -0.569 0.462 -0.872 0.163 -0.307 0.343 -0.638 0.547 -0.986 0.2 -0.349 0.421 -0.729 0.654 -1.138 0.241 -0.404 0.507 -0.849 0.792 -1.326 l -2.328 0 0 -0.991 3.774 0 0 0.835" style="fill:#fff"/>
 <path d="m 19 0 8.992 9 -7.613 0 c -0.673 0 -1.378 -0.713 -1.378 -1.386 z" style="fill:#fff;fill-opacity:0.392"/>
 <path d="m 14.991 28.01 c 0 0.291 0.008 0.563 0.029 0.818 0.025 0.25 0.074 0.468 0.139 0.654 0.069 0.186 0.167 0.332 0.29 0.441 0.127 0.109 0.322 0.164 0.53 0.164 0.204 0 0.417 -0.055 0.54 -0.164 0.131 -0.109 0.229 -0.254 0.294 -0.441 0.069 -0.195 0.114 -0.413 0.135 -0.663 0.025 -0.25 0.041 -0.518 0.041 -0.808 0 -0.286 -0.016 -0.554 -0.041 -0.804 -0.02 -0.259 -0.065 -0.477 -0.135 -0.663 -0.065 -0.186 -0.159 -0.332 -0.286 -0.441 -0.123 -0.109 -0.34 -0.164 -0.548 -0.164 -0.208 0 -0.404 0.055 -0.53 0.164 -0.123 0.109 -0.221 0.259 -0.29 0.45 -0.065 0.186 -0.114 0.404 -0.139 0.654 -0.02 0.25 -0.029 0.518 -0.029 0.804 m -1.189 0 c 0 -1.022 0.192 -1.794 0.576 -2.312 0.384 -0.527 0.919 -0.786 1.601 -0.786 0.711 0 1.25 0.259 1.622 0.786 0.372 0.518 0.56 1.29 0.56 2.312 0 1.027 -0.192 1.799 -0.568 2.326 -0.38 0.518 -0.911 0.777 -1.601 0.777 -0.711 0 -1.254 -0.259 -1.634 -0.777 c -0.372 -0.527 -0.556 -1.299 -0.556 -2.326" style="fill:#fff"/>
 <rect width="3" height="3" x="9" style="fill:#f9f9f9;fill-opacity:1;stroke:none;fill-rule:evenodd"/>
 <path d="m 19.971 28.01 c 0 0.291 0.008 0.563 0.029 0.818 0.025 0.25 0.074 0.468 0.139 0.654 0.069 0.186 0.167 0.332 0.29 0.441 0.127 0.109 0.34 0.164 0.548 0.164 0.204 0 0.417 -0.055 0.54 -0.164 0.131 -0.109 0.229 -0.254 0.294 -0.441 0.069 -0.195 0.114 -0.413 0.135 -0.663 0.025 -0.25 0.041 -0.518 0.041 -0.808 0 -0.286 -0.016 -0.554 -0.041 -0.804 -0.02 -0.259 -0.065 -0.477 -0.135 -0.663 -0.065 -0.186 -0.159 -0.332 -0.286 -0.441 -0.123 -0.109 -0.34 -0.164 -0.548 -0.164 -0.208 0 -0.422 0.055 -0.548 0.164 -0.123 0.109 -0.221 0.259 -0.29 0.45 -0.065 0.186 -0.114 0.404 -0.139 0.654 -0.02 0.25 -0.029 0.518 -0.029 0.804 m -1.171 0 c 0 -1.022 0.192 -1.794 0.576 -2.312 0.384 -0.527 0.919 -0.786 1.601 -0.786 0.711 0 1.25 0.259 1.622 0.786 0.372 0.518 0.56 1.29 0.56 2.312 0 1.027 -0.192 1.799 -0.568 2.326 -0.38 0.518 -0.911 0.777 -1.601 0.777 -0.711 0 -1.254 -0.259 -1.634 -0.777 c -0.372 -0.527 -0.556 -1.299 -0.556 -2.326" style="fill:#fff"/>
 <rect width="3" height="3" x="12" y="3" style="fill:#f9f9f9;fill-opacity:1;stroke:none;fill-rule:evenodd"/>
 <rect width="3" height="3" x="9" y="6" style="fill:#f9f9f9;fill-opacity:1;stroke:none;fill-rule:evenodd"/>
 <rect width="3" height="3" x="12" y="9" style="fill:#f9f9f9;fill-opacity:1;stroke:none;fill-rule:evenodd"/>
 <rect width="3" height="3" x="9" y="12" style="fill:#f9f9f9;fill-opacity:1;stroke:none;fill-rule:evenodd"/>
 <rect width="6" height="6" x="9" y="16" style="fill:#f9f9f9;fill-opacity:1;stroke:none;fill-rule:evenodd"/>
</svg>
