<svg xmlns="http://www.w3.org/2000/svg" viewBox="0 0 32 32">
 <path d="m 5.371 4 c -0.684 0 -1.371 0.687 -1.371 1.371 l 0 21.297 c 0 0.645 0.688 1.332 1.332 1.332 l 21.336 0 c 0.645 0 1.332 -0.688 1.332 -1.332 l 0 -21.336 c 0 -0.645 -0.688 -1.332 -1.332 -1.332 z" style="fill:#c19553"/>
 <path d="m 5.371 4 c -0.684 0 -1.371 0.687 -1.371 1.371 l 0 6.629 c 2.668 0 21.332 0 24 0 l 0 -6.668 c 0 -0.645 -0.688 -1.332 -1.332 -1.332 z" style="fill:#fff;fill-opacity:0.196"/>
 <path d="m 14 7 0 10 4 0 0 -10 z" style="fill:#fff;fill-opacity:0.392"/>
 <g transform="translate(0,-0.132031)" style="fill:#fff">
  <path d="m 10.292 24.426 c 0.031 0.004 0.066 0.008 0.105 0.008 0.035 0 0.07 0 0.102 0 0.266 0 0.484 -0.047 0.66 -0.137 0.184 -0.09 0.328 -0.211 0.434 -0.367 0.113 -0.16 0.191 -0.344 0.234 -0.555 0.051 -0.219 0.078 -0.457 0.078 -0.715 0 -0.227 -0.02 -0.445 -0.059 -0.656 -0.039 -0.215 -0.102 -0.402 -0.199 -0.566 -0.094 -0.16 -0.223 -0.289 -0.383 -0.387 -0.164 -0.102 -0.375 -0.152 -0.633 -0.152 -0.051 0 -0.105 0.004 -0.172 0.012 -0.063 0 -0.117 0.004 -0.168 0.016 l 0 3.5 m 2.789 -1.766 c 0 0.48 -0.07 0.891 -0.207 1.234 -0.133 0.336 -0.316 0.613 -0.555 0.824 -0.238 0.215 -0.527 0.371 -0.859 0.473 -0.324 0.094 -0.688 0.141 -1.082 0.141 -0.207 0 -0.414 -0.012 -0.613 -0.031 c -0.195 -0.02 -0.406 -0.047 -0.633 -0.094 l 0 -5.082 c 0.266 -0.051 0.512 -0.082 0.746 -0.102 0.23 -0.016 0.449 -0.023 0.648 -0.023 c 0.383 0 0.734 0.051 1.047 0.152 0.32 0.102 0.59 0.262 0.813 0.48 0.219 0.211 0.387 0.484 0.508 0.824 0.125 0.328 0.188 0.73 0.188 1.203"/>
  <path d="m 14 25.27 0 -5.207 3.535 0 0 0.859 -2.375 0 0 1.184 2.063 0 0 0.859 -2.063 0 0 1.445 2.582 0 0 0.859 -3.742 0"/>
  <path d="m 22.71 23.691 c 0 0.316 -0.063 0.578 -0.18 0.793 -0.121 0.207 -0.285 0.375 -0.492 0.504 -0.199 0.125 -0.441 0.215 -0.723 0.27 -0.277 0.051 -0.574 0.074 -0.895 0.074 -0.258 0 -0.527 -0.012 -0.805 -0.039 -0.273 -0.023 -0.527 -0.063 -0.796 -0.109 l 0 -5.059 c 0.509 -0.084 1 -0.099 1.488 -0.125 0.438 0 0.797 0.043 1.074 0.125 0.273 0.078 0.492 0.188 0.648 0.32 0.156 0.129 0.266 0.273 0.32 0.438 0.055 0.164 0.086 0.324 0.086 0.488 0 0.246 -0.07 0.465 -0.207 0.656 -0.133 0.191 -0.313 0.344 -0.539 0.453 0.395 0.129 0.664 0.305 0.801 0.523 0.145 0.219 0.219 0.449 0.219 0.688 m -2.754 -0.707 0 1.414 c 0.19 0.034 0.379 0.024 0.559 0.035 0.129 0 0.258 -0.008 0.387 -0.027 0.125 -0.02 0.234 -0.059 0.328 -0.109 0.102 -0.055 0.184 -0.129 0.246 -0.227 0.063 -0.102 0.094 -0.227 0.094 -0.379 0 -0.25 -0.094 -0.43 -0.273 -0.535 -0.176 -0.113 -0.414 -0.172 -0.715 -0.172 l -0.625 0 m 0.453 -0.855 c 0.297 0 0.52 -0.059 0.668 -0.168 0.152 -0.117 0.227 -0.277 0.227 -0.48 0 -0.125 -0.02 -0.223 -0.066 -0.293 -0.043 -0.078 -0.102 -0.141 -0.176 -0.18 -0.078 -0.043 -0.164 -0.07 -0.266 -0.082 -0.102 -0.016 -0.203 -0.027 -0.313 -0.027 -0.184 -0.004 -0.355 0.024 -0.527 0.035 l 0 1.195 0.453 0"/>
 </g>
</svg>
