<svg xmlns="http://www.w3.org/2000/svg" viewBox="0 0 32 32">
 <path d="m 5.336 0 c -0.687 0 -1.336 0.676 -1.336 1.394 l 0 29.21 c 0 0.676 0.687 1.394 1.336 1.394 l 21.327 0 c 0.648 0 1.336 -0.717 1.336 -1.394 l 0.001 -21.606 l -9 -9 z" style="fill:#c19553;fill-opacity:1"/>
 <path d="m 4 24 0 6.668 c 0 0.648 0.688 1.332 1.332 1.332 l 21.336 0 c 0.645 0 1.332 -0.684 1.332 -1.332 l 0 -6.668 z" style="fill:#000;fill-opacity:0.196"/>
 <path d="m 13.604 24.994 0 0.991 -1.652 0 0 5.01 -1.207 0 0 -5.01 -1.74 0 0 -0.991 4.6 0" style="fill:#fff"/>
 <path d="m 21 9 7 7 0 -7 z" style="fill:#000;fill-opacity:0.196"/>
 <path d="m 16.761 25.936 c -0.289 0 -0.532 0.05 -0.73 0.154 -0.194 0.1 -0.359 0.245 -0.491 0.432 -0.124 0.177 -0.219 0.395 -0.276 0.65 -0.054 0.25 -0.078 0.531 -0.078 0.836 0 0.713 0.116 1.235 0.347 1.576 0.227 0.332 0.565 0.5 1.015 0.5 0.07 0 0.149 -0.005 0.235 -0.009 0.087 -0.009 0.165 -0.018 0.235 -0.032 l 0 -2.167 1.213 0 0 2.966 c -0.144 0.05 -0.371 0.109 -0.681 0.173 -0.301 0.064 -0.668 0.095 -1.102 0.095 -0.384 0 -0.726 -0.064 -1.036 -0.191 -0.301 -0.136 -0.561 -0.332 -0.78 -0.586 -0.215 -0.263 -0.384 -0.586 -0.503 -0.972 -0.116 -0.391 -0.177 -0.84 -0.177 -1.354 0 -0.504 0.07 -0.949 0.21 -1.331 0.136 -0.391 0.322 -0.718 0.561 -0.981 0.235 -0.263 0.516 -0.459 0.838 -0.586 0.322 -0.136 0.664 -0.2 1.036 -0.2 0.235 0 0.446 0.018 0.627 0.055 0.194 0.032 0.355 0.073 0.495 0.118 0.136 0.045 0.248 0.091 0.334 0.141 0.091 0.055 0.161 0.091 0.206 0.118 l -0.314 0.94 c -0.144 -0.091 -0.322 -0.168 -0.532 -0.241 -0.21 -0.068 -0.429 -0.104 -0.652 -0.104" style="fill:#fff"/>
 <path d="m 19 0 8.992 9 -7.613 0 c -0.673 0 -1.378 -0.713 -1.378 -1.386 z" style="fill:#fff;fill-opacity:0.392"/>
 <path d="m 23 25.829 c -0.926 1.382 -1.753 2.779 -2.533 4.179 l 2.624 0 0 0.986 -4.02 0 0 -0.688 c 0.773 -1.498 1.643 -2.942 2.476 -4.321 l -2.348 0 0 -0.991 3.804 0 0 0.835" style="fill:#fff"/>
 <rect width="3" height="3" x="9" style="fill:#f9f9f9;fill-opacity:1;stroke:none;fill-rule:evenodd"/>
 <rect width="3" height="3" x="12" y="3" style="fill:#f9f9f9;fill-opacity:1;stroke:none;fill-rule:evenodd"/>
 <rect width="3" height="3" x="9" y="6" style="fill:#f9f9f9;fill-opacity:1;stroke:none;fill-rule:evenodd"/>
 <rect width="3" height="3" x="12" y="9" style="fill:#f9f9f9;fill-opacity:1;stroke:none;fill-rule:evenodd"/>
 <rect width="3" height="3" x="9" y="12" style="fill:#f9f9f9;fill-opacity:1;stroke:none;fill-rule:evenodd"/>
 <rect width="6" height="6" x="9" y="16" style="fill:#f9f9f9;fill-opacity:1;stroke:none;fill-rule:evenodd"/>
</svg>
