<svg xmlns="http://www.w3.org/2000/svg" viewBox="0 0 32 32">
 <defs>
  
 </defs>
 <path d="m 5.336 0 c -0.687 0 -1.336 0.676 -1.336 1.394 l 0 29.21 c 0 0.676 0.687 1.394 1.336 1.394 l 21.327 0 c 0.648 0 1.336 -0.717 1.336 -1.394 l 0.001 -21.606 -9 -9 z" style="fill:#a6a6a6;fill-opacity:1"/>
 <path d="m 21 9 7 7 0 -7 z" style="fill:#000;fill-opacity:0.196"/>
 <path d="m 19 0 8.992 9 -7.613 0 c -0.673 0 -1.378 -0.713 -1.378 -1.386 z" style="fill:#fff;fill-opacity:0.392"/>
 <path d="m 19.231 14.889 a 0.538 0.556 0 0 1 -0.538 0.556 0.538 0.556 0 0 1 -0.538 -0.556 0.538 0.556 0 0 1 0.538 -0.556 0.538 0.556 0 0 1 0.538 0.556 z m 1.077 1.111 a 0.538 0.556 0 0 1 -0.538 0.556 0.538 0.556 0 0 1 -0.538 -0.556 0.538 0.556 0 0 1 0.538 -0.556 0.538 0.556 0 0 1 0.538 0.556 z m 1.077 -1.111 a 0.538 0.556 0 0 1 -0.538 0.556 0.538 0.556 0 0 1 -0.538 -0.556 0.538 0.556 0 0 1 0.538 -0.556 0.538 0.556 0 0 1 0.538 0.556 z m -1.077 -1.111 a 0.538 0.556 0 0 1 -0.538 0.556 0.538 0.556 0 0 1 -0.538 -0.556 0.538 0.556 0 0 1 0.538 -0.556 0.538 0.556 0 0 1 0.538 0.556 z m -7 1.111 a 1.077 1.111 0 0 1 -1.077 1.111 1.077 1.111 0 0 1 -1.077 -1.111 1.077 1.111 0 0 1 1.077 -1.111 1.077 1.111 0 0 1 1.077 1.111 z m -0.952 -3.887 c -0.387 0.016 -0.706 0.187 -0.925 0.359 C 10.133 12.376 9 16.611 9 18.853 c 0 2.242 0.499 2.146 0.933 2.146 0.433 0 0.978 -0.307 1.454 -0.74 1.315 -1.194 1.92 -2.593 3.228 -2.593 l 2.77 0 c 1.307 0 1.913 1.399 3.228 2.593 0.476 0.433 1.021 0.74 1.454 0.74 0.433 0 0.933 0.095 0.933 -2.146 0 -2.242 -1.133 -6.477 -2.43 -7.493 -0.351 -0.275 -0.955 -0.548 -1.691 -0.188 -0.493 0.242 -0.934 0.383 -1.579 0.383 l -2.6 0 c -0.644 0 -1.085 -0.141 -1.579 -0.383 -0.276 -0.135 -0.533 -0.181 -0.766 -0.171 z" style="fill:#fff;opacity:1;fill-opacity:1;stroke:none;fill-rule:nonzero"/>
 <path d="m 4 24 0 6.668 c 0 0.648 0.688 1.332 1.332 1.332 l 21.336 0 c 0.645 0 1.332 -0.684 1.332 -1.332 l 0 -6.668" style="fill:#000;fill-opacity:0.196"/>
 <path d="m 12.03 31 q -0.412 -0.998 -0.902 -1.987 -0.48 -0.998 -1.039 -1.997 l 0 3.984 -1.088 0 0 -6 0.971 0 q 0.275 0.426 0.549 0.931 0.275 0.494 0.529 0.989 0.265 0.494 0.48 0.96 0.225 0.465 0.382 0.814 l 0 -3.693 1.088 0 l 0 6 -0.971 0 z" style="fill:#fff;fill-opacity:1;stroke:none"/>
 <path d="m 15.174 29.978 q 0.048 0.009 0.105 0.009 0.057 0 0.105 0 0.401 0 0.668 -0.151 0.277 -0.151 0.439 -0.416 0.172 -0.265 0.239 -0.625 0.076 -0.369 0.076 -0.804 0 -0.379 -0.057 -0.738 -0.057 -0.36 -0.2 -0.634 -0.143 -0.274 -0.391 -0.435 -0.248 -0.17 -0.64 -0.17 -0.076 0 -0.172 0.009 -0.095 0 -0.172 0.019 l 0 3.937 z m 2.826 -1.987 q 0 0.814 -0.21 1.391 -0.2 0.568 -0.563 0.927 -0.363 0.36 -0.869 0.53 q -0.496 0.161 -1.098 0.161 -0.315 0 -0.621 -0.038 -0.296 -0.028 -0.64 -0.104 l 0 -5.716 q 0.401 -0.085 0.754 -0.114 0.353 -0.028 0.659 -0.028 q 0.582 0 1.06 0.17 0.487 0.17 0.821 0.539 0.334 0.36 0.516 0.927 q 0.191 0.558 0.191 1.353" style="fill:#fff;fill-opacity:1;stroke:none"/>
 <path d="m 20.829 30.04 q 0.295 0 0.486 -0.056 0.2 -0.065 0.314 -0.167 0.114 -0.111 0.152 -0.241 0.048 -0.139 0.048 -0.279 0 -0.176 -0.105 -0.316 -0.105 -0.139 -0.267 -0.241 -0.162 -0.111 -0.362 -0.195 -0.2 -0.093 -0.4 -0.167 -0.267 -0.093 -0.552 -0.214 -0.286 -0.121 -0.524 -0.306 -0.229 -0.186 -0.381 -0.455 -0.152 -0.279 -0.152 -0.687 0 -0.808 0.533 -1.263 0.543 -0.455 1.486 -0.455 0.543 0 0.943 0.121 0.41 0.121 0.686 0.269 l -0.343 0.882 q -0.238 -0.13 -0.533 -0.223 -0.286 -0.093 -0.667 -0.093 -0.933 0 -0.933 0.659 0 0.167 0.095 0.297 0.095 0.121 0.238 0.223 0.152 0.093 0.333 0.167 0.19 0.074 0.371 0.139 0.276 0.102 0.571 0.232 0.305 0.121 0.552 0.334 0.257 0.204 0.419 0.52 q 0.162 0.307 0.162 0.78 0 0.808 -0.543 1.254 -0.533 0.437 -1.629 0.437 -0.733 0 -1.171 -0.149 -0.438 -0.158 -0.657 -0.288 l 0.343 -0.929 q 0.257 0.149 0.61 0.279 0.362 0.13 0.876 0.13 z" style="fill:#fff;fill-opacity:1;stroke:none"/>
</svg>
