<svg xmlns="http://www.w3.org/2000/svg" viewBox="0 0 32 32">
 <path d="m 5.336 0 c -0.687 0 -1.336 0.676 -1.336 1.394 l 0 29.21 c 0 0.676 0.687 1.394 1.336 1.394 l 21.327 0 c 0.648 0 1.336 -0.717 1.336 -1.394 l 0.001 -21.606 -9 -9 z" style="fill:#c19553;fill-opacity:1"/>
 <path d="m 4 24 0 6.668 c 0 0.648 0.688 1.332 1.332 1.332 l 21.336 0 c 0.645 0 1.332 -0.684 1.332 -1.332 l 0 -6.668 z" style="fill:#000;fill-opacity:0.196"/>
 <path d="m 21 9 7 7 0 -7 z" style="fill:#000;fill-opacity:0.196"/>
 <path d="m 13.5 25 0 0.986 -1.542 0 0 5.01 -1.228 0 0 -5.01 -1.73 0 l 0 -0.986 l 4.5 0" style="fill:#fff"/>
 <path d="m 19 0 8.992 9 -7.613 0 c -0.673 0 -1.378 -0.713 -1.378 -1.386 z" style="fill:#fff;fill-opacity:0.392"/>
 <path d="m 18.35 29.19 c 0 0.363 -0.064 0.672 -0.193 0.918 -0.129 0.245 -0.309 0.441 -0.532 0.59 c -0.219 0.141 -0.485 0.245 -0.789 0.313 -0.3 0.059 -0.626 0.086 -0.974 0.086 -0.283 0 -0.57 -0.018 -0.871 -0.05 -0.3 -0.027 -0.6 -0.068 -0.892 -0.127 l 0 -5.878 c 0.559 -0.102 1.107 -0.12 1.638 -0.145 0.48 0 0.866 0.045 1.166 0.145 0.3 0.091 0.536 0.213 0.708 0.372 0.172 0.15 0.287 0.318 0.347 0.509 0.064 0.186 0.094 0.377 0.094 0.568 0 0.286 -0.077 0.541 -0.227 0.763 -0.142 0.218 -0.335 0.395 -0.583 0.527 0.433 0.15 0.72 0.35 0.871 0.604 0.159 0.254 0.236 0.522 0.236 0.804 m -3.05 -0.843 0 1.665 c 0.206 0.034 0.471 0.028 0.666 0.041 0.142 0 0.283 -0.014 0.42 -0.032 0.133 -0.027 0.253 -0.068 0.356 -0.127 0.112 -0.064 0.197 -0.154 0.266 -0.263 0.069 -0.118 0.103 -0.263 0.103 -0.441 0 -0.295 -0.099 -0.525 -0.296 -0.647 -0.193 -0.132 -0.45 -0.195 -0.781 -0.195 l -0.734 0 m 0.55 -0.999 c 0.322 0 0.566 -0.064 0.729 -0.195 0.163 -0.136 0.244 -0.302 0.244 -0.534 0 -0.145 -0.021 -0.259 -0.069 -0.345 -0.051 -0.091 -0.116 -0.159 -0.197 -0.204 -0.081 -0.05 -0.176 -0.086 -0.287 -0.095 -0.107 -0.023 -0.219 -0.032 -0.339 -0.032 -0.199 -0.01 -0.444 0.017 -0.631 0.03 l 0 1.375 0.55 0" style="fill:#fff"/>
 <rect width="3" height="3" x="9" style="fill:#f9f9f9;fill-opacity:1;stroke:none;fill-rule:evenodd"/>
 <path d="m 22.998 25.833 c -0.948 1.382 -1.798 2.777 -2.597 4.177 l 2.69 0 0 0.99 -4.124 0 0 -0.689 c 0.791 -1.501 1.685 -2.947 2.538 -4.326 l -2.407 0 0 -0.986 3.9 0 0 0.833" style="fill:#fff"/>
 <rect width="3" height="3" x="12" y="3" style="fill:#f9f9f9;fill-opacity:1;stroke:none;fill-rule:evenodd"/>
 <rect width="3" height="3" x="9" y="6" style="fill:#f9f9f9;fill-opacity:1;stroke:none;fill-rule:evenodd"/>
 <rect width="3" height="3" x="12" y="9" style="fill:#f9f9f9;fill-opacity:1;stroke:none;fill-rule:evenodd"/>
 <rect width="3" height="3" x="9" y="12" style="fill:#f9f9f9;fill-opacity:1;stroke:none;fill-rule:evenodd"/>
 <rect width="6" height="6" x="9" y="16" style="fill:#f9f9f9;fill-opacity:1;stroke:none;fill-rule:evenodd"/>
</svg>
