<svg xmlns="http://www.w3.org/2000/svg" viewBox="0 0 32 32">
 <path d="m 5.336 0 c -0.687 0 -1.336 0.676 -1.336 1.394 l 0 29.21 c 0 0.676 0.687 1.394 1.336 1.394 l 21.327 0 c 0.648 0 1.336 -0.717 1.336 -1.394 l 0.001 -21.606 l -9 -9 z" style="fill:#e5b819;fill-opacity:1"/>
 <path d="m 21 9 7 7 0 -7 z" style="fill:#000;fill-opacity:0.196"/>
 <path d="m 19 0 8.992 9 -7.613 0 c -0.673 0 -1.378 -0.713 -1.378 -1.386 z" style="fill:#fff;fill-opacity:0.392"/>
 <g transform="matrix(2,0,0,1.9663864,0,-0.5630232)">
  <path d="m 8 6.389 c -1.887 0 -3.5 1.407 -3.5 3.306 c 0 1.653 1.165 2.892 2.411 3.306 -0.828 -0.569 -1.588 -1.653 -1.588 -2.892 c 0 -1.428 1.029 -2.479 2.227 -2.479 1.118 0 1.886 1.069 1.89 2.066 0 0.7 -0.572 1.275 -1.029 1.653 0.824 0 1.853 -0.684 1.853 -2.066 c 0 -1.24 -1.029 -2.892 -2.265 -2.892" style="fill:#fff;fill-opacity:1;stroke:none;fill-rule:evenodd"/>
  <path d="m 8 13 c 1.887 0 3.5 -1.407 3.5 -3.306 0 -1.653 -1.165 -2.892 -2.411 -3.306 0.828 0.569 1.588 1.653 1.588 2.892 0 1.428 -1.029 2.479 -2.227 2.479 -1.118 0 -1.886 -1.069 -1.89 -2.066 0 -0.7 0.572 -1.275 1.029 -1.653 -0.824 0 -1.853 0.684 -1.853 2.066 c 0 1.24 1.029 2.892 2.265 2.892" style="fill:#fff;fill-opacity:1;stroke:none;fill-rule:evenodd"/>
 </g>
</svg>
