<svg xmlns="http://www.w3.org/2000/svg" viewBox="0 0 32 32">
 <path d="m 5.336 0 c -0.687 0 -1.336 0.676 -1.336 1.394 l 0 29.21 c 0 0.676 0.687 1.394 1.336 1.394 l 21.327 0 c 0.648 0 1.336 -0.717 1.336 -1.394 l 0.001 -21.606 -9 -9 z" style="fill:#eb1b23;fill-opacity:1"/>
 <path d="m 21 9 7 7 0 -7 z" style="fill:#000;fill-opacity:0.196"/>
 <path d="m 19 0 8.992 9 -7.613 0 c -0.673 0 -1.378 -0.713 -1.378 -1.386 z" style="fill:#fff;fill-opacity:0.392"/>
 <path d="m 19.17 11.03 c -0.427 -0.048 -0.77 -0.048 -1.085 0.013 -0.315 0.061 -0.606 0.211 -0.779 0.4 -0.173 0.189 -0.227 0.374 -0.255 0.464 -0.61 1.198 -1.331 2.388 -1.991 3.406 -0.814 1.207 -1.765 2.612 -2.261 3.746 -0.302 0.692 -0.627 1.527 -0.947 2.397 c -0.665 1.822 -1.265 3.643 -1.848 5.474 0.949 0.066 0.949 0.06 1.682 0.066 c 0.539 -0.99 1.434 -1.932 2.183 -2.62 1.295 -1.182 3.163 -2.391 4.948 -2.661 l 0.601 -0.089 c 0.033 -1.867 0.204 -3.888 1.127 -5.525 0.378 -0.681 0.906 -1.221 1.395 -1.839 0.126 -0.101 0.027 -0.221 0.041 -0.332 -0.365 -1.813 -1.602 -2.712 -2.775 -2.895 -0.013 0.002 -0.025 -0.003 -0.036 -0.004 z" mix-blend-mode="normal" isolation="auto" white-space="normal" solid-opacity="1" solid-color="#000000" style="visibility:visible;shape-rendering:auto;color-interpolation-filters:linearRGB;fill:#f3ffff;opacity:1;image-rendering:auto;fill-opacity:1;stroke:none;display:inline;color:#000;fill-rule:evenodd;color-rendering:auto;color-interpolation:sRGB"/>
</svg>
