<svg xmlns="http://www.w3.org/2000/svg" viewBox="0 0 32 32">
 <path d="m 5.336 0 c -0.687 0 -1.336 0.676 -1.336 1.394 l 0 29.21 c 0 0.676 0.687 1.394 1.336 1.394 l 21.327 0 c 0.648 0 1.336 -0.717 1.336 -1.394 l 0.001 -21.606 l -9 -9 z" style="fill:#2f238f;fill-opacity:1"/>
 <path d="m 21 9 7 7 0 -7 z" style="fill:#000;fill-opacity:0.196"/>
 <path d="m 19 0 8.992 9 -7.613 0 c -0.673 0 -1.378 -0.713 -1.378 -1.386 z" style="fill:#fff;fill-opacity:0.392"/>
 <path d="m 16 11 c -3.855 0 -7 3.142 -7 6.998 0 3.856 3.145 7 7 7 3.855 0 7 -3.146 7 -7 0 -3.856 -3.145 -6.998 -7 -6.998 z m 0 1.747 c 2.907 0 5.249 2.342 5.249 5.251 0 2.912 -2.342 5.251 -5.249 5.251 -2.907 0 -5.249 -2.338 -5.249 -5.251 0 -2.908 2.342 -5.251 5.249 -5.251 z m -2 2.25 0 6 5 -3 z" style="fill:#fff"/>
</svg>
