<svg xmlns="http://www.w3.org/2000/svg" viewBox="0 0 32 32">
 <path d="m 5.344 0 c -0.687 0 -1.344 0.689 -1.344 1.406 l 0 29.19 c 0 0.676 0.695 1.406 1.344 1.406 l 21.313 0 c 0.648 0 1.344 -0.73 1.344 -1.406 l 0 -21.594 0 -7.625 c 0 -0.673 -0.702 -1.375 -1.375 -1.375 l -7.625 0 -13.656 0 z" style="fill:#d14626;fill-opacity:1"/>
 <path d="m 4 24 0 6.668 c 0 0.648 0.688 1.332 1.332 1.332 l 21.336 0 c 0.645 0 1.332 -0.684 1.332 -1.332 l 0 -6.668 z" style="fill:#000;fill-opacity:0.196"/>
 <path d="m 13.615 25.926 c -0.601 0 -1.07 0.213 -1.41 0.65 -0.336 0.43 -0.506 1.07 -0.506 1.918 0 0.852 0.163 1.493 0.488 1.93 0.333 0.43 0.812 0.645 1.438 0.645 0.604 0 1.076 -0.215 1.408 -0.645 0.329 -0.437 0.498 -1.078 0.498 -1.93 0 -0.848 -0.165 -1.488 -0.49 -1.918 -0.325 -0.437 -0.8 -0.65 -1.426 -0.65 z m -4.248 0.006 c -0.466 -0.009 -0.914 0.068 -1.367 0.127 l 0 4.941 l 0.988 0 0 -1.643 0.352 0 c 0.645 0 1.139 -0.134 1.486 -0.402 0.354 -0.272 0.529 -0.714 0.529 -1.32 0 -0.602 -0.176 -1.033 -0.523 -1.297 -0.348 -0.268 -0.833 -0.406 -1.465 -0.406 z m 6.34 0.068 l 0 1 1.363 0 0 4 1.037 0 0 -4 1.365 0 0 -1 z m 4.281 0.012 1.422 2.355 c -0.545 0.879 -1.049 1.735 -1.51 2.645 l 1.17 0 c 0.299 -0.67 0.631 -1.299 0.949 -1.914 0.348 0.647 0.629 1.278 0.912 1.914 l 1.168 0 c -0.392 -0.942 -0.929 -1.819 -1.473 -2.666 l 1.387 -2.334 -1.088 0 -0.906 1.602 -0.863 -1.602 z m -6.373 0.766 c 0.182 0 0.393 0.044 0.504 0.135 0.107 0.09 0.191 0.211 0.248 0.365 0.064 0.155 0.103 0.336 0.121 0.551 0.021 0.207 0.035 0.429 0.035 0.666 0 0.241 -0.014 0.465 -0.035 0.672 -0.018 0.207 -0.057 0.387 -0.121 0.549 -0.057 0.155 -0.145 0.277 -0.26 0.367 -0.107 0.09 -0.313 0.135 -0.492 0.135 -0.182 0 -0.397 -0.044 -0.504 -0.135 -0.111 -0.09 -0.197 -0.213 -0.258 -0.367 -0.057 -0.154 -0.1 -0.334 -0.121 -0.541 -0.018 -0.211 -0.025 -0.439 -0.025 -0.68 0 -0.237 0.008 -0.459 0.025 -0.666 0.021 -0.207 0.064 -0.388 0.121 -0.543 0.061 -0.158 0.147 -0.283 0.258 -0.373 0.107 -0.09 0.322 -0.135 0.504 -0.135 z m -4.139 0.037 c 0.264 0 0.472 0.063 0.629 0.188 0.16 0.12 0.24 0.33 0.24 0.625 0 0.311 -0.08 0.532 -0.24 0.664 -0.16 0.124 -0.403 0.189 -0.717 0.189 l -0.4 0 0 -1.643 c 0.17 -0.025 0.314 -0.015 0.488 -0.023 z" style="fill:#fff"/>
 <path d="m 8 11 5 0 0 3 -5 0 z" style="fill:#fff"/>
 <path d="m 8 16 5 0 0 3 -5 0 z" style="fill:#fff"/>
 <path d="m 20 9.993 0 4.01 4 0 c 0 -2.214 -1.791 -4.01 -4 -4.01 z" style="fill:#fff"/>
 <path d="m 19 11 c -2.21 0 -4 1.79 -4 4 c 0 2.21 1.792 4 4 4 c 2.21 0 3.998 -1.79 3.998 -4 l -3.998 0 z" style="fill:#fff"/>
</svg>
