<svg xmlns="http://www.w3.org/2000/svg" viewBox="0 0 32 32">
 <path d="m 5.336 0 c -0.687 0 -1.336 0.676 -1.336 1.394 l 0 29.21 c 0 0.676 0.687 1.394 1.336 1.394 l 21.327 0 c 0.648 0 1.336 -0.717 1.336 -1.394 l 0.001 -21.606 l -9 -9 z" style="fill:#c19553;fill-opacity:1"/>
 <path d="m 4 24 0 6.668 c 0 0.648 0.688 1.332 1.332 1.332 l 21.336 0 c 0.645 0 1.332 -0.684 1.332 -1.332 l 0 -6.668 z" style="fill:#000;fill-opacity:0.196"/>
 <path d="m 21 9 7 7 0 -7 z" style="fill:#000;fill-opacity:0.196"/>
 <path d="m 19 0 8.992 9 -7.613 0 c -0.673 0 -1.378 -0.713 -1.378 -1.386 z" style="fill:#fff;fill-opacity:0.392"/>
 <rect width="3" height="3" x="9" style="fill:#f9f9f9;fill-opacity:1;stroke:none;fill-rule:evenodd"/>
 <rect width="3" height="3" x="12" y="3" style="fill:#f9f9f9;fill-opacity:1;stroke:none;fill-rule:evenodd"/>
 <rect width="3" height="3" x="9" y="6" style="fill:#f9f9f9;fill-opacity:1;stroke:none;fill-rule:evenodd"/>
 <rect width="3" height="3" x="12" y="9" style="fill:#f9f9f9;fill-opacity:1;stroke:none;fill-rule:evenodd"/>
 <rect width="3" height="3" x="9" y="12" style="fill:#f9f9f9;fill-opacity:1;stroke:none;fill-rule:evenodd"/>
 <rect width="6" height="6" x="9" y="16" style="fill:#f9f9f9;fill-opacity:1;stroke:none;fill-rule:evenodd"/>
 <path d="m 11.457 31 c 0.026 -0.413 0.105 -0.848 0.246 -1.31 0.141 -0.466 0.303 -0.923 0.497 -1.376 0.202 -0.453 0.418 -0.879 0.651 -1.279 0.233 -0.409 0.453 -0.756 0.664 -1.046 l -3.02 0 0 -0.989 4.69 0 0 0.901 c -0.211 0.198 -0.435 0.479 -0.686 0.844 -0.246 0.36 -0.484 0.769 -0.708 1.231 -0.215 0.457 -0.409 0.949 -0.58 1.473 c -0.163 0.519 -0.264 1.033 -0.303 1.552 l -1.451 0" style="fill:#fff"/>
 <path d="m 20.933 25.831 c -1.08 1.375 -2.065 2.77 -2.985 4.18 l 3.09 0 0 0.989 -4.738 0 0 -0.69 c 0.918 -1.503 1.937 -2.946 2.914 -4.321 l -2.76 0 0 -0.989 4.479 0 0 0.831" style="fill:#fff"/>
</svg>
