<svg xmlns="http://www.w3.org/2000/svg" viewBox="0 0 32 32">
 <path d="m 5.336 0 c -0.687 0 -1.336 0.676 -1.336 1.394 l 0 29.21 c 0 0.676 0.687 1.394 1.336 1.394 l 21.327 0 c 0.648 0 1.336 -0.717 1.336 -1.394 l 0.001 -21.606 -9 -9 z" style="fill:#a33639;fill-opacity:1"/>
 <path d="m 4 24 0 6.668 c 0 0.648 0.688 1.332 1.332 1.332 l 21.336 0 c 0.645 0 1.332 -0.684 1.332 -1.332 l 0 -6.668 z" style="fill:#000;fill-opacity:0.196"/>
 <path d="m 21 9 7 7 0 -7 z" style="fill:#000;fill-opacity:0.196"/>
 <g transform="matrix(1.0731044,0,0,1.0731044,-0.94783357,-1.2204761)" style="fill:#fff">
  <path d="m 22.482 28.27 c 0 0.319 -0.059 0.585 -0.176 0.803 -0.117 0.21 -0.277 0.379 -0.48 0.513 -0.199 0.125 -0.438 0.214 -0.715 0.27 -0.27 0.052 -0.563 0.077 -0.879 0.077 -0.25 0 -0.512 -0.012 -0.785 -0.04 -0.27 -0.024 -0.539 -0.061 -0.805 -0.113 l 0 -5.126 c 0.219 -0.032 0.453 -0.061 0.715 -0.085 0.258 -0.028 0.512 -0.04 0.766 -0.04 0.434 0 0.781 0.04 1.055 0.125 0.27 0.081 0.484 0.19 0.637 0.327 0.156 0.129 0.262 0.279 0.316 0.44 0.055 0.165 0.082 0.331 0.082 0.496 0 0.25 -0.066 0.472 -0.203 0.666 -0.129 0.194 -0.305 0.347 -0.527 0.46 0.387 0.129 0.652 0.307 0.785 0.529 0.145 0.222 0.215 0.456 0.215 0.698 m -2.703 -0.714 0 1.433 c 0.082 0.012 0.168 0.02 0.262 0.024 0.098 0.008 0.191 0.008 0.285 0.008 0.129 0 0.258 -0.008 0.379 -0.024 0.125 -0.024 0.23 -0.061 0.324 -0.109 0.098 -0.061 0.18 -0.137 0.242 -0.234 0.059 -0.101 0.09 -0.23 0.09 -0.383 0 -0.254 -0.09 -0.436 -0.266 -0.545 -0.176 -0.113 -0.41 -0.17 -0.703 -0.17 l -0.613 0 m 0.445 -0.872 c 0.289 0 0.508 -0.057 0.656 -0.17 0.148 -0.121 0.223 -0.283 0.223 -0.488 0 -0.125 -0.023 -0.222 -0.066 -0.295 -0.043 -0.081 -0.102 -0.141 -0.176 -0.182 -0.074 -0.044 -0.16 -0.073 -0.258 -0.085 -0.098 -0.016 -0.199 -0.024 -0.305 -0.024 -0.086 0 -0.176 0 -0.27 0.008 -0.09 0.004 -0.176 0.012 -0.25 0.024 l 0 1.211 0.445 0"/>
 </g>
 <path d="m 19 0 8.992 9 -7.613 0 c -0.673 0 -1.378 -0.713 -1.378 -1.386 z" style="fill:#fff;fill-opacity:0.392"/>
 <g transform="matrix(0.93772881,0,0,0.93772881,0.9963399,-0.256407)" style="fill:#fff">
  <path d="m 16 12 c -2.945 0 -5.332 0.746 -5.332 1.668 l 0 1.332 c 0 0.922 2.387 1.668 5.332 1.668 2.945 0 5.332 -0.746 5.332 -1.668 l 0 -1.332 c 0 -0.922 -2.387 -1.668 -5.332 -1.668 z"/>
  <path d="m 15.984 17.332 c -2.391 0 -4.402 -0.488 -5.082 -1.164 -0.16 0.156 -0.234 0.324 -0.234 0.5 l 0 1.332 c 0 0.922 2.387 1.668 5.332 1.668 2.945 0 5.332 -0.746 5.332 -1.668 l 0 -1.332 c 0 -0.176 -0.094 -0.344 -0.25 -0.5 -0.68 0.676 -2.711 1.164 -5.098 1.164 z"/>
  <path d="m 15.984 20.332 c -2.391 0 -4.402 -0.488 -5.082 -1.164 -0.16 0.156 -0.234 0.324 -0.234 0.5 l 0 1.332 c 0 0.922 2.387 1.668 5.332 1.668 2.945 0 5.332 -0.746 5.332 -1.668 l 0 -1.332 c 0 -0.176 -0.094 -0.344 -0.25 -0.5 -0.68 0.676 -2.711 1.164 -5.098 1.164 z"/>
 </g>
 <path d="m 9.912 27.998 c 0 0.281 0.013 0.545 0.03 0.791 0.03 0.242 0.077 0.453 0.141 0.633 0.077 0.18 0.176 0.321 0.304 0.426 0.128 0.105 0.385 0.158 0.599 0.158 0.21 0 0.461 -0.053 0.59 -0.158 0.133 -0.105 0.235 -0.246 0.304 -0.426 0.073 -0.189 0.12 -0.4 0.141 -0.642 0.026 -0.242 0.039 -0.501 0.039 -0.782 0 -0.277 -0.013 -0.536 -0.039 -0.778 -0.021 -0.251 -0.069 -0.462 -0.141 -0.642 -0.069 -0.18 -0.167 -0.321 -0.295 -0.426 -0.128 -0.105 -0.38 -0.158 -0.598 -0.158 -0.214 0 -0.47 0.053 -0.599 0.158 -0.128 0.105 -0.227 0.251 -0.304 0.435 -0.064 0.18 -0.111 0.391 -0.141 0.633 -0.017 0.242 -0.03 0.501 -0.03 0.778 m -1.186 0 c 0 -0.989 0.201 -1.736 0.599 -2.237 c 0.398 -0.51 0.955 -0.76 1.661 -0.76 c 0.736 0 1.297 0.251 1.683 0.76 0.385 0.501 0.578 1.248 0.578 2.237 0 0.993 -0.197 1.741 -0.587 2.251 c -0.394 0.501 -0.946 0.752 -1.661 0.752 -0.736 0 -1.301 -0.251 -1.695 -0.752 -0.385 -0.51 -0.578 -1.257 -0.578 -2.251" style="fill:#fff"/>
 <path d="m 15.269 29.949 c 0.033 0.009 0.071 0.009 0.109 0.009 0.038 0 0.075 0 0.109 0 0.276 0 0.511 -0.048 0.695 -0.149 0.188 -0.097 0.343 -0.233 0.456 -0.409 0.117 -0.171 0.201 -0.374 0.247 -0.611 0.05 -0.242 0.08 -0.505 0.08 -0.791 0 -0.246 -0.021 -0.488 -0.059 -0.725 -0.042 -0.233 -0.113 -0.44 -0.209 -0.62 -0.1 -0.18 -0.234 -0.321 -0.406 -0.426 -0.172 -0.114 -0.394 -0.167 -0.666 -0.167 -0.05 0 -0.113 0 -0.176 0.009 -0.067 0 -0.126 0.004 -0.18 0.018 l 0 3.864 m 2.935 -1.952 c 0 0.532 -0.075 0.989 -0.218 1.367 -0.142 0.374 -0.335 0.677 -0.586 0.91 -0.251 0.237 -0.553 0.409 -0.904 0.519 -0.343 0.105 -0.72 0.158 -1.139 0.158 -0.218 0 -0.431 -0.009 -0.645 -0.035 -0.205 -0.018 -0.423 -0.053 -0.661 -0.101 l 0 -5.613 c 0.276 -0.057 0.536 -0.092 0.783 -0.11 0.243 -0.018 0.473 -0.031 0.682 -0.031 0.402 0 0.77 0.057 1.101 0.167 0.335 0.114 0.62 0.29 0.85 0.532 0.234 0.237 0.41 0.541 0.536 0.91 0.134 0.365 0.201 0.809 0.201 1.327" style="fill:#fff"/>
</svg>
