<svg xmlns="http://www.w3.org/2000/svg" viewBox="0 0 32 32">
 <path d="m 5.344 0 c -0.687 0 -1.344 0.689 -1.344 1.406 l 0 29.19 c 0 0.676 0.695 1.406 1.344 1.406 l 21.313 0 c 0.648 0 1.344 -0.73 1.344 -1.406 l 0 -21.594 0 -7.625 c 0 -0.673 -0.702 -1.375 -1.375 -1.375 l -7.625 0 -13.656 0 z" style="fill:#3468ce;fill-opacity:1"/>
 <rect width="6" height="5" x="10" y="10" style="fill:#f9f9f9;fill-opacity:1;stroke:none;fill-rule:evenodd"/>
 <rect width="5" height="1" x="17" y="10" style="fill:#f9f9f9;fill-opacity:1;stroke:none;fill-rule:evenodd"/>
 <rect width="5" height="1" x="17" y="12" style="fill:#f9f9f9;fill-opacity:1;stroke:none;fill-rule:evenodd"/>
 <rect width="5" height="1" x="17" y="14" style="fill:#f9f9f9;fill-opacity:1;stroke:none;fill-rule:evenodd"/>
 <rect width="12" height="1" x="10" y="16" style="fill:#f9f9f9;fill-opacity:1;stroke:none;fill-rule:evenodd"/>
 <rect width="12" height="1" x="10" y="18" style="fill:#f9f9f9;fill-opacity:1;stroke:none;fill-rule:evenodd"/>
 <rect width="12" height="1" x="10" y="20" style="fill:#f9f9f9;fill-opacity:1;stroke:none;fill-rule:evenodd"/>
 <path d="m 4 24 0 6.668 c 0 0.648 0.688 1.332 1.332 1.332 l 21.336 0 c 0.645 0 1.332 -0.684 1.332 -1.332 l 0 -6.668 z" style="fill:#000;fill-opacity:0.196"/>
 <path d="m 19.991 26 1.419 2.359 c -0.548 0.878 -1.049 1.73 -1.51 2.641 l 1.1 0 c 0.304 -0.67 0.7 -1.299 1.017 -1.916 c 0.348 0.647 0.691 1.281 0.978 1.916 l 1.105 0 c -0.497 -1 -0.989 -1.888 -1.477 -2.667 l 1.388 -2.333 -1.059 0 -0.935 1.597 -0.889 -1.597" style="fill:#fff"/>
 <path d="m 15.8 26 0 0.825 1.335 0 0 4.175 0.965 0 0 -4.175 1.392 0 0 -0.825 z" style="fill:#fff"/>
 <path d="m 9.187 25.902 c -0.411 -0.014 -0.816 0.074 -1.187 0.125 l 0 4.953 c 0.356 0.097 0.724 0.092 1.057 0.12 0.337 0 0.645 -0.047 0.925 -0.137 0.284 -0.101 0.523 -0.252 0.727 -0.461 0.204 -0.206 0.361 -0.473 0.475 -0.802 0.117 -0.334 0.176 -0.733 0.176 -1.206 0 -0.458 -0.054 -0.849 -0.16 -1.171 c -0.103 -0.326 -0.246 -0.593 -0.433 -0.802 -0.187 -0.213 -0.417 -0.37 -0.69 -0.467 -0.267 -0.101 -0.562 -0.151 -0.889 -0.151 m 0.087 0.882 c 0.22 0 0.401 0.047 0.538 0.148 0.14 0.093 0.25 0.217 0.33 0.376 0.08 0.159 0.137 0.34 0.167 0.546 0.033 0.209 0.049 0.423 0.049 0.64 0 0.252 -0.023 0.484 -0.067 0.697 -0.037 0.209 -0.103 0.389 -0.2 0.541 -0.09 0.155 -0.213 0.274 -0.367 0.36 -0.15 0.089 -0.337 0.133 -0.56 0.133 -0.059 0.007 -0.124 -0.006 -0.178 -0.009 l 0 -3.409 c 0.098 -0.022 0.193 -0.015 0.287 -0.022 z" style="fill:#fff"/>
 <path d="m 13.709 25.9 c -0.574 0 -1.02 0.218 -1.345 0.66 -0.321 0.434 -0.481 1.082 -0.481 1.939 0 0.861 0.154 1.508 0.465 1.95 0.318 0.434 0.775 0.652 1.372 0.652 0.577 0 1.027 -0.218 1.345 -0.652 0.314 -0.442 0.474 -1.089 0.474 -1.95 0 -0.857 -0.157 -1.504 -0.468 -1.939 c -0.311 -0.442 -0.765 -0.66 -1.363 -0.66 m 0 0.861 c 0.174 0 0.355 0.046 0.461 0.138 0.102 0.091 0.181 0.213 0.236 0.37 0.061 0.156 0.1 0.339 0.117 0.556 0.02 0.21 0.034 0.434 0.034 0.674 0 0.244 -0.014 0.468 -0.034 0.678 -0.017 0.21 -0.055 0.392 -0.117 0.556 -0.055 0.156 -0.136 0.278 -0.245 0.37 -0.102 0.091 -0.28 0.138 -0.451 0.138 -0.174 0 -0.353 -0.046 -0.456 -0.138 -0.106 -0.091 -0.187 -0.213 -0.245 -0.37 -0.055 -0.156 -0.096 -0.339 -0.117 -0.549 -0.017 -0.213 -0.024 -0.441 -0.024 -0.685 0 -0.24 0.007 -0.464 0.024 -0.674 0.02 -0.21 0.062 -0.393 0.117 -0.549 0.058 -0.16 0.139 -0.285 0.245 -0.377 0.102 -0.091 0.282 -0.138 0.456 -0.138 z" style="fill:#fff"/>
</svg>
