<svg xmlns="http://www.w3.org/2000/svg" viewBox="0 0 32 32">
 <path d="m 5.336 0 c -0.687 0 -1.336 0.676 -1.336 1.394 l 0 29.21 c 0 0.676 0.687 1.394 1.336 1.394 l 21.327 0 c 0.648 0 1.336 -0.717 1.336 -1.394 l 0.001 -21.606 -9 -9 z" style="fill:#678bb8;fill-opacity:1"/>
 <path d="m 21 9 7 7 0 -7 z" style="fill:#000;fill-opacity:0.196"/>
 <path d="m 19 0 8.992 9 -7.613 0 c -0.673 0 -1.378 -0.713 -1.378 -1.386 z" style="fill:#fff;fill-opacity:0.392"/>
 <path d="m 12.897 11.368 c -2.3 0 -5.193 2.175 -5.168 5.543 0.024 3.258 1.109 5.02 1.938 7.02 l 2.459 -1.021 c -0.563 -1.148 -1.302 -2.286 -1.563 -2.855 -0.732 -1.592 -0.979 -2.31 -0.917 -3.521 c 0.057 -1.172 0.448 -1.889 1.167 -2.584 0.716 -0.69 1.711 -1.039 2.896 -0.875 1.707 0.234 2.609 1.191 3.042 2.063 0.245 -0.034 0.495 -0.064 0.771 -0.063 0.216 0.002 0.433 0.017 0.646 0.063 -0.46 -1.813 -2.722 -3.772 -5.272 -3.772 z m 1.042 3.167 c -1.046 -0.069 -2.573 0.442 -2.563 2.042 0.006 1.514 0.955 2.649 2.084 3.105 -0.025 -0.381 0.002 -0.804 0.063 -1.229 -0.612 -0.333 -0.983 -0.924 -1.042 -1.75 -0.07 -0.918 0.841 -1.844 2.292 -1.375 0.234 0.076 0.242 -0.329 -0.021 -0.542 -0.171 -0.135 -0.464 -0.227 -0.813 -0.25 z m 3.584 1.209 c -0.184 -0.001 -0.357 0.006 -0.521 0.021 0.043 0.163 0.073 0.326 0.083 0.458 0.106 -0.007 0.221 -0.005 0.333 0 0.308 0.014 0.593 0.064 0.854 0.146 0.01 -0.172 0.005 -0.337 0 -0.5 -0.248 -0.077 -0.5 -0.123 -0.75 -0.125 z m -0.5 1.125 c -0.163 0.706 -0.659 1.571 -1.667 1.813 -0.024 0.145 -0.048 0.283 -0.042 0.375 0.013 0.193 0.053 0.461 0.167 0.75 1.728 -0.318 2.471 -1.53 2.709 -2.771 -0.231 -0.092 -0.495 -0.152 -0.813 -0.167 -0.123 -0.006 -0.246 -0.01 -0.354 0 z m -2.855 1.834 c -0.036 0.322 -0.062 0.642 -0.042 0.938 0.005 0.069 0.009 0.137 0.021 0.208 0.129 0.019 0.246 0.061 0.375 0.063 0.108 0.001 0.21 -0.016 0.313 -0.021 -0.102 -0.287 -0.172 -0.56 -0.188 -0.792 -0.007 -0.1 -0.009 -0.217 0 -0.333 -0.167 -0.009 -0.331 -0.033 -0.479 -0.063 z" style="fill:#fff;fill-opacity:1;stroke:none;fill-rule:nonzero"/>
 <path d="m 22.384 11.379 c 0.83 1.995 1.933 3.753 1.956 7.01 0.025 3.367 -2.884 5.545 -5.184 5.545 -2.784 0 -5.233 -2.334 -5.36 -4.266 -0.118 -1.745 0.507 -4.282 3.735 -4.264 1.541 0.011 3.143 1.341 3.151 3.321 0.011 2.135 -2.688 2.347 -3.367 1.802 -0.262 -0.212 -0.254 -0.63 -0.024 -0.554 1.454 0.469 2.349 -0.456 2.284 -1.376 -0.091 -1.251 -0.837 -1.993 -2.174 -2.055 -1.929 -0.092 -2.469 1.771 -2.419 2.529 0.06 0.919 0.867 2.81 3.378 3.154 1.185 0.164 2.17 -0.188 2.885 -0.88 0.716 -0.693 1.123 -1.407 1.18 -2.579 0.06 -1.211 -0.205 -1.922 -0.935 -3.514 -0.261 -0.57 -0.989 -1.714 -1.556 -2.862 l 2.451 -1.016 m -0.003 0" style="fill:#a9c1e3;fill-opacity:1;stroke:none;fill-rule:nonzero"/>
</svg>
