<svg xmlns="http://www.w3.org/2000/svg" viewBox="0 0 32 32">
 <path d="m 5.336 0 c -0.687 0 -1.336 0.676 -1.336 1.394 l 0 29.21 c 0 0.676 0.687 1.394 1.336 1.394 l 21.327 0 c 0.648 0 1.336 -0.717 1.336 -1.394 l 0.001 -21.606 -9 -9 z" style="fill:#d14626;fill-opacity:1"/>
 <path d="m 21 9 7 7 0 -7 z" style="fill:#000;fill-opacity:0.196"/>
 <path d="m 19 0 8.992 9 -7.613 0 c -0.673 0 -1.378 -0.713 -1.378 -1.386 z" style="fill:#fff;fill-opacity:0.392"/>
 <path d="m 4 24 0 6.668 c 0 0.648 0.688 1.332 1.332 1.332 l 21.336 0 c 0.645 0 1.332 -0.684 1.332 -1.332 l 0 -6.668 z" style="fill:#000;fill-opacity:0.196"/>
 <path d="m 8 12 5 0 0 3 -5 0 z" style="fill:#fff"/>
 <path d="m 8 17 5 0 0 3 -5 0 z" style="fill:#fff"/>
 <path d="m 20 10.993 0 4.01 l 4 0 c 0 -2.214 -1.791 -4.01 -4 -4.01 z" style="fill:#fff"/>
 <path d="m 19 12 c -2.21 0 -4 1.79 -4 4 c 0 2.21 1.792 4 4 4 c 2.21 0 3.998 -1.79 3.998 -4 l -3.998 0 z" style="fill:#fff"/>
 <path d="m 17.647 30.27 c 0.175 0 0.32 -0.015 0.436 -0.046 0.12 -0.038 0.215 -0.088 0.28 -0.145 0.069 -0.065 0.116 -0.137 0.138 -0.21 0.029 -0.084 0.044 -0.164 0.044 -0.244 0 -0.103 -0.033 -0.19 -0.095 -0.274 -0.062 -0.08 -0.142 -0.149 -0.24 -0.21 -0.098 -0.061 -0.207 -0.118 -0.324 -0.168 -0.12 -0.053 -0.24 -0.103 -0.36 -0.145 -0.16 -0.053 -0.327 -0.114 -0.498 -0.187 -0.171 -0.069 -0.327 -0.156 -0.473 -0.263 -0.135 -0.11 -0.251 -0.24 -0.342 -0.396 -0.091 -0.16 -0.138 -0.358 -0.138 -0.594 0 -0.469 0.16 -0.834 0.48 -1.097 0.327 -0.263 0.771 -0.392 1.338 -0.392 0.324 0 0.607 0.034 0.847 0.103 0.247 0.069 0.451 0.149 0.618 0.232 l -0.309 0.766 c -0.142 -0.076 -0.302 -0.137 -0.48 -0.194 -0.171 -0.053 -0.371 -0.08 -0.6 -0.08 -0.56 0 -0.84 0.19 -0.84 0.571 0 0.099 0.029 0.183 0.087 0.259 0.055 0.069 0.127 0.133 0.215 0.194 0.091 0.053 0.189 0.103 0.298 0.145 0.116 0.042 0.225 0.084 0.335 0.122 0.167 0.057 0.338 0.126 0.513 0.198 0.185 0.072 0.349 0.168 0.498 0.29 0.153 0.118 0.28 0.27 0.378 0.453 0.095 0.175 0.145 0.4 0.145 0.674 0 0.469 -0.164 0.83 -0.491 1.09 -0.32 0.251 -0.807 0.377 -1.462 0.377 -0.44 0 -0.793 -0.042 -1.055 -0.13 c -0.262 -0.091 -0.462 -0.175 -0.593 -0.248 l 0.309 -0.808 c 0.153 0.088 0.338 0.168 0.549 0.244 0.218 0.072 0.48 0.11 0.789 0.11" style="fill:#fff"/>
 <path d="m 23 31.01 c -0.115 -0.274 -0.256 -0.579 -0.424 -0.91 -0.16 -0.335 -0.332 -0.667 -0.512 -0.998 -0.176 0.316 -0.348 0.644 -0.523 0.99 -0.172 0.335 -0.321 0.644 -0.447 0.918 l -1.199 0 c 0.061 -0.149 0.149 -0.32 0.263 -0.526 0.118 -0.202 0.248 -0.423 0.386 -0.659 0.145 -0.236 0.294 -0.48 0.451 -0.724 0.157 -0.255 0.306 -0.495 0.447 -0.728 l -1.455 -2.35 1.195 0 0.882 1.596 0.928 -1.596 1.115 0 -1.421 2.328 c 0.16 0.232 0.321 0.472 0.474 0.724 0.157 0.255 0.302 0.499 0.432 0.743 0.141 0.236 0.26 0.457 0.363 0.667 0.099 0.206 0.183 0.377 0.241 0.526 l -1.195 0" style="fill:#fff"/>
 <path d="m 9.426 25.905 c 0.659 0 1.168 0.131 1.53 0.399 0.363 0.258 0.544 0.687 0.544 1.284 0 0.605 -0.181 1.041 -0.551 1.31 -0.363 0.269 -0.878 0.399 -1.551 0.399 l -0.366 0 0 1.702 -1.032 0 0 -4.975 c 0.101 -0.019 0.213 -0.041 0.335 -0.056 0.129 -0.015 0.258 -0.026 0.387 -0.034 0.129 -0.011 0.254 -0.019 0.376 -0.022 0.122 -0.008 0.23 -0.008 0.328 -0.008 m 0.115 0.87 c -0.059 0 -0.146 0.004 -0.258 0.008 -0.108 0 -0.192 0.008 -0.251 0.019 l 0 1.627 0.418 0 c 0.328 0 0.579 -0.063 0.746 -0.187 0.167 -0.131 0.251 -0.351 0.251 -0.661 0 -0.295 -0.084 -0.5 -0.251 -0.62 -0.164 -0.123 -0.38 -0.187 -0.655 -0.187" style="fill:#fff"/>
 <path d="m 13.426 25.905 c 0.659 0 1.168 0.131 1.53 0.399 c 0.363 0.258 0.544 0.687 0.544 1.284 c 0 0.605 -0.181 1.041 -0.551 1.31 -0.363 0.269 -0.878 0.399 -1.548 0.399 l -0.37 0 0 1.702 -1.032 0 0 -4.975 c 0.101 -0.019 0.213 -0.041 0.335 -0.056 0.129 -0.015 0.258 -0.026 0.387 -0.034 0.129 -0.011 0.254 -0.019 0.376 -0.022 0.122 -0.008 0.234 -0.008 0.328 -0.008 m 0.115 0.87 c -0.059 0 -0.146 0.004 -0.258 0.008 -0.108 0 -0.192 0.008 -0.251 0.019 l 0 1.627 0.418 0 c 0.328 0 0.579 -0.063 0.746 -0.187 0.167 -0.131 0.251 -0.351 0.251 -0.661 0 -0.295 -0.084 -0.5 -0.251 -0.62 -0.164 -0.123 -0.38 -0.187 -0.655 -0.187" style="fill:#fff"/>
</svg>
