<svg xmlns="http://www.w3.org/2000/svg" viewBox="0 0 32 32">
 <defs>
  
 </defs>
 <path d="m 5.336 0 c -0.687 0 -1.336 0.676 -1.336 1.394 l 0 29.21 c 0 0.676 0.687 1.394 1.336 1.394 l 21.327 0 c 0.648 0 1.336 -0.717 1.336 -1.394 l 0.001 -21.606 -9 -9 z" style="fill:#af5b63;fill-opacity:1"/>
 <path d="m 21 9 7 7 0 -7 z" style="fill:#000;fill-opacity:0.196"/>
 <path d="m 19 0 8.992 9 -7.613 0 c -0.673 0 -1.378 -0.713 -1.378 -1.386 z" style="fill:#fff;fill-opacity:0.392"/>
 <path d="m 14.988 10 c -1.536 -0.002 -3.074 0.578 -4.238 1.746 -2.329 2.336 -2.335 6.163 -0.006 8.5 1.974 1.979 5.02 2.282 7.316 0.906 l 3.586 3.447 c 0.566 0.551 1.458 0.533 1.998 -0.043 0.522 -0.557 0.435 -1.557 -0.041 -2.033 l -3.521 -3.375 c 1.419 -2.313 1.255 -5.284 -0.863 -7.402 -1.16 -1.16 -2.694 -1.744 -4.23 -1.746 z m 0.012 1 c 1.276 0 2.552 0.489 3.531 1.469 0 0 0 0.002 0 0.002 1.957 1.959 1.958 5.102 0 7.06 -1.958 1.959 -5.104 1.959 -7.06 0 -1.958 -1.958 -1.957 -5.101 0 -7.06 0 0 0 -0.002 0 -0.002 c 0.979 -0.979 2.255 -1.469 3.531 -1.469 m -3.137 2 c -0.293 0.306 -0.52 0.645 -0.707 1 l 1.844 0 0 -1 -1.137 0 z m 2.137 0 0 1 2 0 0 -1 -2 0 z m 3 0 0 1 1.842 0 c -0.187 -0.355 -0.416 -0.694 -0.709 -1 l -1.133 0 z m -6.229 2 c -0.079 0.329 -0.131 0.664 -0.131 1 l 1.359 0 0 -1 -1.229 0 z m 2.229 0 0 1 3 0 0 -1 -3 0 z m 4 0 0 1 2 0 0 -1 -2 0 z m -6.227 2 c 0.083 0.345 0.213 0.679 0.383 1 l 1.844 0 0 -1 -2.227 0 z m 3.227 0 0 1 2 0 0 -1 -2 0 z m 3 0 0 1 1.84 0 c 0.169 -0.322 0.302 -0.655 0.385 -1 l -2.225 0 z m -4 2 0 0.842 c 0.099 0.052 0.193 0.114 0.295 0.158 l 2.705 0 0 -1 -3 0 z m 4 0 0 0.842 c 0.381 -0.202 0.747 -0.444 1.07 -0.768 0.023 -0.023 0.038 -0.051 0.061 -0.074 l -1.131 0 z" style="fill:#f9f9f9;stroke:none"/>
</svg>
