<svg xmlns="http://www.w3.org/2000/svg" viewBox="0 0 32 32">
 <defs>
  
 </defs>
 <path d="m 5.336 0 c -0.687 0 -1.336 0.676 -1.336 1.394 l 0 29.21 c 0 0.676 0.687 1.394 1.336 1.394 l 21.327 0 c 0.648 0 1.336 -0.717 1.336 -1.394 l 0.001 -21.606 -9 -9 z" style="fill:#757d32;fill-opacity:1"/>
 <path d="m 21 9 7 7 0 -7 z" style="fill:#000;fill-opacity:0.196"/>
 <path d="m 19 0 8.992 9 -7.613 0 c -0.673 0 -1.378 -0.713 -1.378 -1.386 z" style="fill:#fff;fill-opacity:0.392"/>
 <path d="m 13 10 0.014 9.908 2.199 -2.242 l 1.759 3.335 1.589 -0.786 -1.564 -3.296 3.153 -0.001" style="visibility:visible;fill:#f9f9f9;fill-opacity:1;stroke:none;display:inline;color:#000;fill-rule:nonzero"/>
 <path d="m 4 24 0 6.668 c 0 0.648 0.688 1.332 1.332 1.332 l 21.336 0 c 0.645 0 1.332 -0.684 1.332 -1.332 l 0 -6.668" style="fill:#000;fill-opacity:0.196"/>
 <path d="m 11.631 31 -0.301 -1 -1.712 0 -0.29 1 -1.328 0 c 0.304 -1.183 0.612 -2.258 0.923 -3.228 0.311 -0.976 0.612 -1.9 0.902 -2.772 l 1.39 0 c 0.304 0.879 0.605 1.813 0.902 2.801 c 0.304 0.982 0.598 2.048 0.882 3.199 m -2.51 -4.837 c -0.069 0.226 -0.135 0.443 -0.197 0.649 l -0.166 0.601 c -0.048 0.194 -0.097 0.391 -0.145 0.591 c -0.041 0.2 -0.24 0.782 -0.281 0.995 l 1.5 0 c -0.041 -0.213 -0.171 -0.795 -0.212 -0.995 -0.041 -0.2 -0.09 -0.397 -0.145 -0.591 -0.048 -0.2 -0.104 -0.401 -0.166 -0.601 -0.055 -0.207 -0.118 -0.423 -0.187 -0.649 z" style="fill:#fff;fill-opacity:1;stroke:none"/>
 <path d="m 17.03 31 q -0.412 -0.998 -0.902 -1.987 -0.48 -0.998 -1.039 -1.997 l 0 3.984 -1.088 0 l 0 -6 0.971 0 q 0.275 0.426 0.549 0.931 0.275 0.494 0.529 0.989 0.265 0.494 0.48 0.96 0.225 0.465 0.382 0.814 l 0 -3.693 1.088 0 l 0 6 -0.971 0 z" style="fill:#fff;fill-opacity:1;stroke:none"/>
 <path d="m 19.5 31 0 -0.989 1.374 0 0 -4.02 -1.374 0 0 -0.989 4 0 0 0.989 -1.364 0 0 4.02 1.364 0 0 0.989 l -4 0" style="fill:#fff;fill-opacity:1;stroke:none"/>
</svg>
