<svg xmlns="http://www.w3.org/2000/svg" viewBox="0 0 32 32">
 <path d="m 5.336 0 c -0.687 0 -1.336 0.676 -1.336 1.394 l 0 29.21 c 0 0.676 0.687 1.394 1.336 1.394 l 21.327 0 c 0.648 0 1.336 -0.717 1.336 -1.394 l 0.001 -21.606 -9 -9 z" style="fill:#dcdcdc;fill-opacity:1"/>
 <path d="m 21 9 7 7 0 -7 z" style="fill:#000;fill-opacity:0.196"/>
 <path d="m 19 0 8.992 9 -7.613 0 c -0.673 0 -1.378 -0.713 -1.378 -1.386 z" style="fill:#fff;fill-opacity:0.392"/>
 <g transform="matrix(0.53968252,0,0,0.53968252,-6.2539684,-8.3492057)" style="fill:#999">
  <path transform="matrix(1.8529412,0,0,1.8529412,11.588236,15.470588)" d="m 14 10 0 4 4 0 0 -4 -4 0 z m 1 1 2 0 0 2 -2 0 0 -2 z" style="visibility:visible;fill:#888;fill-opacity:1;stroke:none;display:inline;color:#000;fill-rule:nonzero"/>
 </g>
 <g transform="matrix(0.53968252,0,0,0.53968252,-11.253968,-3.3492057)" style="fill:#999">
  <path transform="matrix(1.8529412,0,0,1.8529412,11.588236,15.470588)" d="m 14 10 0 4 4 0 0 -4 -4 0 z m 1 1 2 0 0 2 -2 0 0 -2 z" style="visibility:visible;fill:#888;fill-opacity:1;stroke:none;display:inline;color:#000;fill-rule:nonzero"/>
 </g>
 <g transform="matrix(0.53968252,0,0,0.53968252,-6.2539681,1.6507943)" style="fill:#999">
  <path transform="matrix(1.8529412,0,0,1.8529412,11.588236,15.470588)" d="m 14 10 0 4 4 0 0 -4 -4 0 z m 1 1 2 0 0 2 -2 0 0 -2 z" style="visibility:visible;fill:#888;fill-opacity:1;stroke:none;display:inline;color:#000;fill-rule:nonzero"/>
 </g>
 <g transform="matrix(0.53968252,0,0,0.53968252,-1.2539686,1.6507943)" style="fill:#999">
  <path d="m 37.529 34 0 7.412 7.412 0 0 -7.412 z" style="visibility:visible;fill:#888;fill-opacity:1;stroke:none;display:inline;color:#000;fill-rule:nonzero"/>
 </g>
 <g transform="matrix(0.53968252,0,0,0.53968252,-6.2539686,-3.3492057)" style="fill:#999">
  <path d="m 37.529 34 0 7.412 7.412 0 0 -7.412 z" style="visibility:visible;fill:#888;fill-opacity:1;stroke:none;display:inline;color:#000;fill-rule:nonzero"/>
 </g>
 <g transform="matrix(0.53968252,0,0,0.53968252,-11.253969,1.6507943)" style="fill:#999">
  <path d="m 37.529 34 0 7.412 7.412 0 0 -7.412 z" style="visibility:visible;fill:#888;fill-opacity:1;stroke:none;display:inline;color:#000;fill-rule:nonzero"/>
 </g>
 <g transform="matrix(0.53968252,0,0,0.53968252,-11.253969,-8.3492057)" style="fill:#999">
  <path d="m 37.529 34 0 7.412 7.412 0 0 -7.412 z" style="visibility:visible;fill:#888;fill-opacity:1;stroke:none;display:inline;color:#000;fill-rule:nonzero"/>
 </g>
 <g transform="matrix(0.53968252,0,0,0.53968252,-1.253968,-3.3492057)" style="fill:#999">
  <path transform="matrix(1.8529412,0,0,1.8529412,11.588236,15.470588)" d="m 14 10 0 4 4 0 0 -4 -4 0 z m 1 1 2 0 0 2 -2 0 0 -2 z" style="visibility:visible;fill:#888;fill-opacity:1;stroke:none;display:inline;color:#000;fill-rule:nonzero"/>
 </g>
</svg>
