<svg xmlns="http://www.w3.org/2000/svg" viewBox="0 0 32 32">
 <path d="m 5.336 0 c -0.687 0 -1.336 0.676 -1.336 1.394 l 0 29.21 c 0 0.676 0.687 1.394 1.336 1.394 l 21.327 0 c 0.648 0 1.336 -0.717 1.336 -1.394 l 0.001 -21.606 -9 -9 z" style="fill:#c19553;fill-opacity:1"/>
 <path d="m 4 24 0 6.668 c 0 0.648 0.688 1.332 1.332 1.332 l 21.336 0 c 0.645 0 1.332 -0.684 1.332 -1.332 l 0 -6.668 z" style="fill:#000;fill-opacity:0.196"/>
 <path d="m 21 9 7 7 0 -7 z" style="fill:#000;fill-opacity:0.196"/>
 <path d="m 15.78 26.699 c -0.849 1.154 -1.61 2.317 -2.32 3.481 l 2.4 0 0 0.825 -3.68 0 0 -0.574 c 0.703 -1.247 1.502 -2.455 2.265 -3.605 l -2.151 0 0 -0.821 3.486 0 0 0.694" style="fill:#fff"/>
 <path d="m 19 0 8.992 9 -7.613 0 c -0.673 0 -1.378 -0.713 -1.378 -1.386 z" style="fill:#fff;fill-opacity:0.392"/>
 <path d="m 16.7 31.01 0 -0.825 1.169 0 0 -3.353 -1.169 0 0 -0.821 3.289 0 0 0.821 -1.081 0 0 3.353 1.081 0 0 0.825 -3.289 0" style="fill:#fff"/>
 <rect width="3" height="3" x="9" style="fill:#f9f9f9;fill-opacity:1;stroke:none;fill-rule:evenodd"/>
 <path d="m 22.247 25.955 c 0.664 0 1.182 0.131 1.546 0.393 0.368 0.258 0.549 0.686 0.549 1.274 0 0.599 -0.186 1.03 -0.557 1.3 -0.364 0.266 -0.885 0.397 -1.561 0.397 l -0.372 0 0 1.686 -1.04 0 0 -4.93 c 0.103 -0.022 0.213 -0.041 0.34 -0.056 0.13 -0.015 0.257 -0.026 0.387 -0.034 0.13 -0.011 0.257 -0.019 0.379 -0.022 0.123 -0.008 0.233 -0.008 0.328 -0.008 m 0.119 0.862 c -0.059 0 -0.146 0.004 -0.261 0.008 -0.107 0 -0.19 0.008 -0.253 0.019 l 0 1.611 0.423 0 c 0.332 0 0.581 -0.06 0.751 -0.184 0.17 -0.131 0.253 -0.348 0.253 -0.656 0 -0.288 -0.083 -0.495 -0.253 -0.611 -0.162 -0.124 -0.383 -0.187 -0.66 -0.187" style="fill:#fff"/>
 <rect width="3" height="3" x="12" y="3" style="fill:#f9f9f9;fill-opacity:1;stroke:none;fill-rule:evenodd"/>
 <rect width="3" height="3" x="9" y="6" style="fill:#f9f9f9;fill-opacity:1;stroke:none;fill-rule:evenodd"/>
 <rect width="3" height="3" x="12" y="9" style="fill:#f9f9f9;fill-opacity:1;stroke:none;fill-rule:evenodd"/>
 <rect width="3" height="3" x="9" y="12" style="fill:#f9f9f9;fill-opacity:1;stroke:none;fill-rule:evenodd"/>
 <rect width="6" height="6" x="9" y="16" style="fill:#f9f9f9;fill-opacity:1;stroke:none;fill-rule:evenodd"/>
 <path d="m 11.242 31 -3.242 0 l 0 -5 1.069 0 0 4.176 2.173 0 0 0.824" style="fill:#fff"/>
</svg>
