<svg xmlns="http://www.w3.org/2000/svg" viewBox="0 0 32 32">
 <path d="m 5.344 0 c -0.687 0 -1.344 0.689 -1.344 1.406 l 0 29.19 c 0 0.676 0.695 1.406 1.344 1.406 l 21.313 0 c 0.648 0 1.344 -0.73 1.344 -1.406 l 0 -21.594 0 -7.625 c 0 -0.673 -0.702 -1.375 -1.375 -1.375 l -7.625 0 -13.656 0 z" style="fill:#d14626;fill-opacity:1"/>
 <path d="m 4 24 0 6.668 c 0 0.648 0.688 1.332 1.332 1.332 l 21.336 0 c 0.645 0 1.332 -0.684 1.332 -1.332 l 0 -6.668 z" style="fill:#000;fill-opacity:0.196"/>
 <path d="m 8 11 5 0 0 3 -5 0 z" style="fill:#fff"/>
 <g transform="matrix(1.0547745,0,0,1.1601208,-0.73882533,-3.6812672)" style="fill:#fff">
  <path d="m 20.379 24.723 c 0.727 0 1.289 0.137 1.688 0.406 0.398 0.266 0.602 0.699 0.602 1.305 0 0.609 -0.203 1.055 -0.609 1.328 -0.402 0.27 -0.969 0.406 -1.707 0.406 l -0.5 0 0 1.727 -1.043 0 0 -5.05 c 0.523 -0.1 1.045 -0.103 1.57 -0.125 m 0.129 0.887 c -0.198 -0.004 -0.459 0.015 -0.656 0.023 l 0 1.652 0.555 0 c 0.363 0 0.637 -0.066 0.82 -0.191 0.184 -0.133 0.277 -0.355 0.277 -0.668 0 -0.297 -0.094 -0.508 -0.277 -0.629 -0.176 -0.125 -0.418 -0.188 -0.719 -0.188"/>
 </g>
 <path d="m 8 16 5 0 0 3 -5 0 z" style="fill:#fff"/>
 <path d="m 20 9.993 0 4.01 4 0 c 0 -2.214 -1.791 -4.01 -4 -4.01 z" style="fill:#fff"/>
 <path d="m 19 11 c -2.21 0 -4 1.79 -4 4 c 0 2.21 1.792 4 4 4 c 2.21 0 3.998 -1.79 3.998 -4 l -3.998 0 z" style="fill:#fff"/>
 <path d="m 9.937 27.998 c 0 0.281 0.014 0.545 0.032 0.791 0.032 0.242 0.084 0.453 0.153 0.633 0.084 0.18 0.19 0.321 0.329 0.426 0.139 0.105 0.436 0.158 0.668 0.158 0.227 0 0.519 -0.053 0.658 -0.158 0.144 -0.105 0.255 -0.246 0.329 -0.426 0.079 -0.189 0.13 -0.4 0.153 -0.642 0.028 -0.242 0.042 -0.501 0.042 -0.782 0 -0.277 -0.014 -0.536 -0.042 -0.778 -0.023 -0.251 -0.074 -0.462 -0.153 -0.642 -0.074 -0.18 -0.181 -0.321 -0.32 -0.426 -0.139 -0.105 -0.43 -0.158 -0.667 -0.158 -0.232 0 -0.528 0.053 -0.668 0.158 -0.139 0.105 -0.246 0.251 -0.329 0.435 -0.07 0.18 -0.121 0.391 -0.153 0.633 -0.019 0.242 -0.032 0.501 -0.032 0.778 m -1.267 0 c 0 -0.989 0.218 -1.736 0.65 -2.237 c 0.432 -0.51 1.035 -0.76 1.8 -0.76 c 0.798 0 1.406 0.251 1.824 0.76 0.418 0.501 0.626 1.248 0.626 2.237 0 0.993 -0.213 1.741 -0.636 2.251 c -0.427 0.501 -1.025 0.752 -1.8 0.752 -0.798 0 -1.411 -0.251 -1.837 -0.752 -0.418 -0.51 -0.626 -1.257 -0.626 -2.251" style="fill:#fff"/>
 <path d="m 18.67 25 0 0.99 -1.682 0 0 5.01 -1.215 0 0 -5.01 -1.711 0 0 -0.99 4.609 0" style="fill:#fff"/>
</svg>
