<svg xmlns="http://www.w3.org/2000/svg" viewBox="0 0 32 32">
 <path d="m 5.336 0 c -0.687 0 -1.336 0.676 -1.336 1.394 l 0 29.21 c 0 0.676 0.687 1.394 1.336 1.394 l 21.327 0 c 0.648 0 1.336 -0.717 1.336 -1.394 l 0.001 -21.606 l -9 -9 z" style="fill:#04aa9c;fill-opacity:1"/>
 <path d="m 21 9 7 7 0 -7 z" style="fill:#000;fill-opacity:0.196"/>
 <path d="m 19 0 8.992 9 -7.613 0 c -0.673 0 -1.378 -0.713 -1.378 -1.386 z" style="fill:#fff;fill-opacity:0.392"/>
 <path d="m 20 11.386 c -0.422 0 -0.802 0.286 -1 0.614 l -4 0 c 0 0 -0.972 -0.075 -1.82 0.334 -0.853 0.409 -1.752 1.348 -1.752 2.911 0 1.563 0.9 2.502 1.752 2.911 0.4 0.194 0.797 0.276 1.107 0.327 l 0 0.241 -1.572 1.516 c -0.047 -0.013 -0.09 -0.034 -0.142 -0.034 -0.319 0 -0.573 0.245 -0.573 0.551 0 0.306 0.254 0.551 0.573 0.551 0.314 0 0.568 -0.245 0.568 -0.551 0 -0.052 -0.022 -0.09 -0.034 -0.138 l 1.572 -1.516 1.895 0 0 -0.551 0.568 0 c 0 0 0.603 0.013 1.18 0.293 0.581 0.28 1.107 0.719 1.107 1.912 0 1.193 -0.525 1.632 -1.107 1.912 c -0.577 0.28 -1.321 0.333 -1.321 0.333 l -4 0 c -0.198 -0.327 -0.578 -0.591 -1 -0.591 -0.633 0 -1.145 0.495 -1.145 1.102 0 0.607 0.512 1.102 1.145 1.102 0.422 0 0.802 -0.286 1 -0.614 l 4 0 c 0 0 0.972 0.075 1.82 -0.334 0.853 -0.409 1.752 -1.348 1.752 -2.911 0 -1.563 -0.9 -2.502 -1.752 -2.911 -0.848 -0.409 -1.679 -0.396 -1.679 -0.396 l -0.568 0 0 -0.172 1.572 -1.516 c 0.047 0.013 0.09 0.034 0.142 0.034 0.314 0 0.573 -0.245 0.573 -0.551 0 -0.306 -0.258 -0.551 -0.573 -0.551 -0.314 0 -0.573 0.245 -0.573 0.551 0 0.052 0.022 0.09 0.039 0.138 l -1.576 1.516 -1.89 0 0 0.465 c -0.189 -0.043 -0.396 -0.103 -0.607 -0.207 -0.581 -0.28 -1.107 -0.719 -1.107 -1.912 0 -1.193 0.525 -1.632 1.107 -1.912 c 0.577 -0.28 1.321 -0.333 1.321 -0.333 l 4 0 c 0.198 0.327 0.578 0.591 1 0.591 0.633 0 1.145 -0.495 1.145 -1.102 0 -0.607 -0.512 -1.102 -1.145 -1.102 z" style="fill:#fff"/>
</svg>
