<svg xmlns="http://www.w3.org/2000/svg" viewBox="0 0 32 32">
 <path d="m 5.336 0 c -0.687 0 -1.336 0.676 -1.336 1.394 l 0 29.21 c 0 0.676 0.687 1.394 1.336 1.394 l 21.327 0 c 0.648 0 1.336 -0.717 1.336 -1.394 l 0.001 -21.606 -9 -9 z" style="fill:#38a34e;fill-opacity:1"/>
 <path d="m 21 9 7 7 0 -7 z" style="fill:#000;fill-opacity:0.196"/>
 <path d="m 19 0 8.992 9 -7.613 0 c -0.673 0 -1.378 -0.713 -1.378 -1.386 z" style="fill:#fff;fill-opacity:0.392"/>
 <path d="m 11.645 11 c -0.352 0.033 -0.652 0.406 -0.645 0.802 l 0 8.415 c 0.004 0.414 0.333 0.787 0.703 0.784 l 8.612 0 c 0.363 -0.007 0.681 -0.373 0.685 -0.784 l 0 -8.415 c 0.007 -0.417 -0.315 -0.798 -0.685 -0.802 z m 0.355 1 l 8 0 0 5.701 -2.352 -2.658 -1.491 1.388 l -1.963 -2.461 -2.194 2.83" style="fill:#fff"/>
 <path d="m 4 24 0 6.668 c 0 0.648 0.688 1.332 1.332 1.332 l 21.336 0 c 0.645 0 1.332 -0.684 1.332 -1.332 l 0 -6.668 z" style="fill:#000;fill-opacity:0.196"/>
 <path d="m 12.9 25 0 1 -1.776 0 0 5 -1.229 0 0 -5 l -1.795 0 l 0 -1 4.8 0" style="fill:#fff"/>
 <path d="m 16.49 25.927 c -0.3 0 -0.548 0.05 -0.753 0.154 -0.2 0.1 -0.37 0.245 -0.505 0.432 -0.126 0.177 -0.222 0.395 -0.283 0.65 -0.057 0.25 -0.083 0.531 -0.083 0.836 0 0.713 0.117 1.235 0.357 1.576 0.235 0.332 0.583 0.5 1.044 0.5 0.074 0 0.152 -0.005 0.239 -0.009 0.091 -0.009 0.17 -0.018 0.244 -0.032 l 0 -2.167 1.249 0 0 2.966 c -0.148 0.05 -0.383 0.109 -0.701 0.173 -0.309 0.063 -0.688 0.095 -1.136 0.095 -0.392 0 -0.744 -0.064 -1.062 -0.191 c -0.313 -0.136 -0.579 -0.332 -0.801 -0.586 -0.222 -0.263 -0.396 -0.586 -0.518 -0.972 -0.122 -0.391 -0.183 -0.84 -0.183 -1.354 c 0 -0.504 0.07 -0.949 0.213 -1.331 0.144 -0.391 0.335 -0.718 0.579 -0.981 0.244 -0.263 0.531 -0.459 0.862 -0.586 c 0.331 -0.136 0.683 -0.2 1.062 -0.2 c 0.244 0 0.461 0.018 0.648 0.055 0.196 0.032 0.366 0.073 0.509 0.118 0.139 0.045 0.257 0.091 0.344 0.141 0.091 0.055 0.165 0.091 0.213 0.118 l -0.326 0.94 c -0.148 -0.091 -0.331 -0.168 -0.548 -0.241 -0.213 -0.068 -0.435 -0.104 -0.666 -0.104" style="fill:#fff"/>
 <path d="m 22.659 31 -0.302 -1.257 -1.657 0 l -0.297 1.257 -1.3 0 c 0.527 -2.079 1.195 -4.088 1.817 -6 l 1.313 0 c 0.682 2.036 1.303 4.089 1.77 6 l -1.344 0 m -1.117 -4.835 c -0.26 0.805 -0.475 1.779 -0.64 2.592 l 1.251 0 c -0.143 -0.85 -0.383 -1.798 -0.611 -2.592" style="fill:#fff"/>
</svg>
