<svg xmlns="http://www.w3.org/2000/svg" viewBox="0 0 32 32">
 <path d="m 5.371 4 c -0.684 0 -1.371 0.687 -1.371 1.371 l 0 21.297 c 0 0.645 0.688 1.332 1.332 1.332 l 21.336 0 c 0.645 0 1.332 -0.688 1.332 -1.332 l 0 -21.336 c 0 -0.645 -0.688 -1.332 -1.332 -1.332 z" style="fill:#c19553"/>
 <path d="m 5.371 4 c -0.684 0 -1.371 0.687 -1.371 1.371 l 0 6.629 c 2.668 0 21.332 0 24 0 l 0 -6.668 c 0 -0.645 -0.688 -1.332 -1.332 -1.332 z" style="fill:#fff;fill-opacity:0.196"/>
 <path d="m 14 7 0 10 4 0 0 -10 z" style="fill:#fff;fill-opacity:0.392"/>
 <path d="m 9.59 24.2 q 0.257 0 0.422 -0.046 0.174 -0.054 0.273 -0.139 0.099 -0.093 0.133 -0.201 0.041 -0.116 0.041 -0.232 0 -0.147 -0.091 -0.263 -0.091 -0.116 -0.232 -0.201 q -0.141 -0.093 -0.315 -0.163 -0.174 -0.077 -0.348 -0.139 -0.232 -0.077 -0.48 -0.178 -0.248 -0.101 -0.455 -0.255 -0.199 -0.155 -0.331 -0.379 -0.133 -0.232 -0.133 -0.573 q 0 -0.673 0.464 -1.053 0.472 -0.379 1.292 -0.379 0.472 0 0.82 0.101 0.356 0.101 0.596 0.224 l -0.298 0.735 q -0.207 -0.108 -0.464 -0.186 -0.248 -0.077 -0.58 -0.077 -0.812 0 -0.812 0.55 0 0.139 0.083 0.248 0.083 0.101 0.207 0.186 0.133 0.077 0.29 0.139 0.166 0.062 0.323 0.116 0.24 0.085 0.497 0.193 0.265 0.101 0.48 0.279 0.224 0.17 0.364 0.433 0.141 0.255 0.141 0.65 0 0.673 -0.472 1.045 -0.464 0.364 -1.416 0.364 -0.638 0 -1.019 -0.124 -0.381 -0.132 -0.571 -0.24 l 0.298 -0.774 q 0.224 0.124 0.53 0.232 0.315 0.108 0.762 0.108 z" style="fill:#fff;fill-opacity:1;stroke:none"/>
 <path d="m 14.962 25 c -0.547 -1.179 -1.206 -2.286 -1.834 -3.32 l 0 3.32 -1.028 0 0 -5 0.917 0 c 0.706 0.995 1.272 2.02 1.834 3.078 l 0 -3.078 1.028 0 0 5 z" style="fill:#fff;fill-opacity:1;stroke:none"/>
 <path d="m 19.469 24.999 -0.252 -1.155 -1.435 0 -0.244 1.155 -1.113 0 c 0.255 -0.985 0.513 -1.882 0.774 -2.69 0.261 -0.813 0.513 -1.583 0.757 -2.31 l 1.165 0 c 0.255 0.732 0.507 1.511 0.757 2.334 0.255 0.819 0.502 1.707 0.739 2.666 z m -0.957 -4.03 c -0.228 0.668 -0.39 1.397 -0.531 2.052 l 1.052 0 c -0.122 -0.708 -0.33 -1.391 -0.522 -2.052 z" style="fill:#fff;fill-opacity:1;stroke:none"/>
 <path d="m 22.408 19.949 c 0.651 0 1.157 0.132 1.516 0.395 0.359 0.258 0.538 0.683 0.538 1.275 0 0.597 -0.182 1.03 -0.547 1.299 -0.359 0.264 -0.87 0.395 -1.532 0.395 l -0.364 0 0 1.686 -1.019 0 0 -4.929 c 0.462 -0.101 0.982 -0.1 1.408 -0.121 z m 0.116 0.863 c -0.178 -0.003 -0.328 0.016 -0.505 0.024 l 0 1.613 0.414 0 c 0.326 0 0.571 -0.062 0.737 -0.186 0.166 -0.129 0.248 -0.347 0.248 -0.653 0 -0.29 -0.083 -0.495 -0.248 -0.613 -0.16 -0.124 -0.375 -0.186 -0.646 -0.186 z" style="fill:#fff;fill-opacity:1;stroke:none"/>
</svg>
