<svg xmlns="http://www.w3.org/2000/svg" viewBox="0 0 32 32">
 <path d="m 5.336 0 c -0.687 0 -1.336 0.676 -1.336 1.394 l 0 29.21 c 0 0.676 0.687 1.394 1.336 1.394 l 21.327 0 c 0.648 0 1.336 -0.717 1.336 -1.394 l 0.001 -21.606 -9 -9 z" style="fill:#eb1b23;fill-opacity:1"/>
 <path d="m 21 9 7 7 0 -7 z" style="fill:#000;fill-opacity:0.196"/>
 <path d="m 19 0 8.992 9 -7.613 0 c -0.673 0 -1.378 -0.713 -1.378 -1.386 z" style="fill:#fff;fill-opacity:0.392"/>
 <g transform="translate(0,1.000031)" style="fill:#fff">
  <path d="m 11.566 15.859 c 0.516 0.023 1.082 0.352 1.504 0.633 1.234 0.82 2.223 2.184 2.027 3.746 0.184 -0.297 0.195 -0.73 0.195 -1.074 0 -1.098 -0.59 -2.227 -1.336 -2.992 c -0.246 -0.258 -0.508 -0.551 -0.832 -0.707 l 3.676 -4.352 0.883 -1.043 c 0.066 -0.082 0.293 -0.266 0.242 -0.387 -0.043 -0.109 -0.254 -0.18 -0.355 -0.227 -0.113 -0.051 -0.316 -0.16 -0.445 -0.113 -0.125 0.047 -0.234 0.23 -0.32 0.332 l -0.676 0.789 -3.18 3.73 -0.941 1.102 c -0.148 0.176 -0.344 0.352 -0.441 0.563 z"/>
  <path d="m 9.484 17.13 c 1.262 -1.344 2.379 -2.844 3.59 -4.238 l 1.527 -1.809 c 0.352 -0.402 0.77 -0.813 1.051 -1.27 -0.184 -0.055 -0.602 -0.09 -0.777 0 -0.188 0.094 -0.344 0.352 -0.48 0.508 l -0.871 0.988 c -0.125 0.152 -0.277 0.387 -0.453 0.48 -0.258 0.129 -0.723 0.078 -1 0.086 l -1.027 0.082 c -0.766 0.055 -1.641 0.055 -2.02 0.879 -0.305 0.656 -0.258 1.598 -0.289 2.313 -0.063 1.5 -0.113 3.02 0.027 4.52 0.059 0.645 -0.012 1.461 0.316 2.035 0.32 0.563 0.938 0.684 1.52 0.738 1.129 0.105 2.48 0.074 3.391 -0.719 1.082 -0.941 0.93 -2.621 -0.055 -3.547 -1.074 -1.016 -3.047 -1.527 -4.445 -1.047 z"/>
  <path d="m 13.289 22.582 c 0.207 0.09 0.555 0.059 0.781 0.059 l 1.418 0.027 c 1.797 0 3.57 -0.113 5.363 -0.195 0.852 -0.039 1.813 -0.07 2.164 -1.02 0.227 -0.602 0.184 -1.371 0.227 -2 0.102 -1.469 0.141 -2.973 0.004 -4.438 -0.066 -0.684 0.016 -1.539 -0.281 -2.172 -0.457 -0.984 -1.844 -0.91 -2.754 -0.934 -0.227 -0.008 -0.645 -0.141 -0.852 -0.039 -0.156 0.074 -0.25 0.48 -0.324 0.633 l -0.805 1.777 c -0.953 2.105 -1.844 4.262 -2.875 6.328 -0.402 0.801 -1.125 1.813 -2.066 1.977 z"/>
 </g>
</svg>
