<svg xmlns="http://www.w3.org/2000/svg" viewBox="0 0 32 32">
 <path d="m 5.336 0 c -0.687 0 -1.336 0.676 -1.336 1.394 l 0 29.21 c 0 0.676 0.687 1.394 1.336 1.394 l 21.327 0 c 0.648 0 1.336 -0.717 1.336 -1.394 l 0.001 -21.606 l -9 -9 z" style="fill:#c19553;fill-opacity:1"/>
 <path d="m 4 24 0 6.668 c 0 0.648 0.688 1.332 1.332 1.332 l 21.336 0 c 0.645 0 1.332 -0.684 1.332 -1.332 l 0 -6.668 z" style="fill:#000;fill-opacity:0.196"/>
 <path d="m 21 9 7 7 0 -7 z" style="fill:#000;fill-opacity:0.196"/>
 <path d="m 10.01 31.1 c -0.719 0 -1.266 -0.225 -1.645 -0.678 -0.379 -0.45 -0.566 -1.09 -0.566 -1.924 0 -0.411 0.059 -0.781 0.172 -1.101 0.117 -0.324 0.273 -0.594 0.477 -0.815 0.211 -0.225 0.453 -0.392 0.734 -0.507 0.285 -0.118 0.594 -0.175 0.926 -0.175 c 0.184 0 0.344 0.015 0.488 0.046 0.148 0.027 0.273 0.061 0.387 0.099 0.109 0.038 0.199 0.076 0.27 0.118 0.078 0.046 0.133 0.076 0.172 0.099 l -0.262 0.789 c -0.125 -0.08 -0.281 -0.149 -0.461 -0.202 -0.176 -0.057 -0.379 -0.088 -0.609 -0.088 -0.156 0 -0.313 0.03 -0.469 0.088 -0.148 0.053 -0.281 0.149 -0.402 0.282 -0.113 0.13 -0.211 0.305 -0.289 0.522 -0.07 0.221 -0.105 0.495 -0.105 0.823 0 0.568 0.098 1.01 0.297 1.31 0.203 0.301 0.531 0.453 0.984 0.453 0.266 0 0.48 -0.03 0.652 -0.088 0.176 -0.061 0.313 -0.118 0.418 -0.179 l 0.254 0.781 c -0.141 0.088 -0.336 0.168 -0.582 0.244 c -0.242 0.069 -0.52 0.103 -0.84 0.103" style="fill:#fff"/>
 <path d="m 19 0 8.992 9 -7.613 0 c -0.673 0 -1.378 -0.713 -1.378 -1.386 z" style="fill:#fff;fill-opacity:0.392"/>
 <path d="m 13.549 25.945 c 0.611 0 1.082 0.133 1.417 0.397 0.335 0.259 0.504 0.683 0.504 1.274 0 0.595 -0.169 1.03 -0.511 1.297 -0.335 0.263 -0.813 0.397 -1.431 0.397 l -0.342 0 0 1.686 -0.953 0 0 -4.928 c 0.339 -0.082 0.684 -0.086 1.016 -0.111 0.114 -0.008 0.213 -0.011 0.302 -0.011 m 0.11 0.866 c -0.167 -0.004 -0.31 0.015 -0.475 0.023 l 0 1.613 0.386 0 c 0.305 0 0.537 -0.065 0.692 -0.187 0.155 -0.13 0.232 -0.347 0.232 -0.652 0 -0.29 -0.077 -0.496 -0.232 -0.614 -0.151 -0.122 -0.353 -0.183 -0.603 -0.183" style="fill:#fff"/>
 <rect width="3" height="3" x="9" style="fill:#f9f9f9;fill-opacity:1;stroke:none;fill-rule:evenodd"/>
 <path d="m 15.9 30.995 0 -0.825 1.145 0 0 -3.35 -1.145 0 0 -0.825 3.23 0 0 0.825 -1.066 0 0 3.35 1.066 0 0 0.825 -3.23 0" style="fill:#fff"/>
 <rect width="3" height="3" x="12" y="3" style="fill:#f9f9f9;fill-opacity:1;stroke:none;fill-rule:evenodd"/>
 <path d="m 20.821 28.498 c 0 0.244 0.009 0.472 0.032 0.686 0.023 0.21 0.069 0.392 0.133 0.549 0.073 0.156 0.169 0.278 0.289 0.37 0.124 0.091 0.372 0.137 0.578 0.137 0.197 0 0.44 -0.046 0.563 -0.137 0.128 -0.091 0.224 -0.213 0.288 -0.37 0.069 -0.164 0.114 -0.347 0.133 -0.556 0.027 -0.21 0.041 -0.434 0.041 -0.678 0 -0.24 -0.014 -0.465 -0.041 -0.674 -0.018 -0.217 -0.064 -0.4 -0.133 -0.556 -0.064 -0.156 -0.156 -0.278 -0.279 -0.37 -0.124 -0.091 -0.367 -0.137 -0.573 -0.137 -0.206 0 -0.454 0.046 -0.578 0.137 -0.119 0.091 -0.215 0.217 -0.289 0.377 -0.064 0.156 -0.11 0.339 -0.133 0.549 -0.023 0.21 -0.032 0.434 -0.032 0.674 m -1.121 0 c 0 -0.857 0.192 -1.505 0.568 -1.939 c 0.38 -0.442 0.907 -0.659 1.584 -0.659 c 0.701 0 1.232 0.217 1.598 0.659 c 0.366 0.434 0.55 1.082 0.55 1.939 0 0.861 -0.188 1.509 -0.559 1.95 -0.371 0.434 -0.902 0.651 -1.58 0.651 -0.701 0 -1.236 -0.217 -1.612 -0.651 -0.366 -0.442 -0.55 -1.09 -0.55 -1.95" style="fill:#fff"/>
 <rect width="3" height="3" x="9" y="6" style="fill:#f9f9f9;fill-opacity:1;stroke:none;fill-rule:evenodd"/>
 <rect width="3" height="3" x="12" y="9" style="fill:#f9f9f9;fill-opacity:1;stroke:none;fill-rule:evenodd"/>
 <rect width="3" height="3" x="9" y="12" style="fill:#f9f9f9;fill-opacity:1;stroke:none;fill-rule:evenodd"/>
 <rect width="6" height="6" x="9" y="16" style="fill:#f9f9f9;fill-opacity:1;stroke:none;fill-rule:evenodd"/>
</svg>
