<svg xmlns="http://www.w3.org/2000/svg" viewBox="0 0 32 32">
 <path d="m 5.336 0 c -0.687 0 -1.336 0.676 -1.336 1.394 l 0 29.21 c 0 0.676 0.687 1.394 1.336 1.394 l 21.327 0 c 0.648 0 1.336 -0.717 1.336 -1.394 l 0.001 -21.606 l -9 -9 z" style="fill:#5a68a4;fill-opacity:1"/>
 <path d="m 21 9 7 7 0 -7 z" style="fill:#000;fill-opacity:0.196"/>
 <path d="m 19 0 8.992 9 -7.613 0 c -0.673 0 -1.378 -0.713 -1.378 -1.386 z" style="fill:#fff;fill-opacity:0.392"/>
 <path d="m 24 18.5 c 0 3.038 -3.582 5.5 -8 5.5 -4.418 0 -8 -2.462 -8 -5.5 0 -3.038 3.582 -5.5 8 -5.5 c 4.418 0 8 2.462 8 5.5 z" style="fill:#fff;fill-rule:evenodd"/>
 <g transform="matrix(1,0,0,1.0315019,0,-0.06703384)" style="fill:#5a68a4">
  <path d="m 13.754 16.02 c 0.34 0 0.609 0.117 0.809 0.352 0.195 0.234 0.297 0.559 0.297 0.977 0 0.414 -0.082 0.816 -0.242 1.199 -0.16 0.383 -0.379 0.684 -0.656 0.91 -0.277 0.223 -0.582 0.336 -0.918 0.336 -0.195 0 -0.359 -0.039 -0.5 -0.121 -0.141 -0.078 -0.27 -0.215 -0.391 -0.41 l -0.027 0 c -0.027 0.348 -0.078 0.664 -0.152 0.961 l -0.25 1.105 -1.055 0 1.199 -5.238 0.805 0 -0.059 0.551 0.031 0 c 0.32 -0.414 0.691 -0.621 1.109 -0.621 m -0.422 0.797 c -0.16 0 -0.316 0.07 -0.465 0.219 -0.148 0.145 -0.266 0.34 -0.355 0.586 -0.09 0.242 -0.133 0.512 -0.133 0.809 0 0.172 0.043 0.313 0.129 0.418 0.086 0.102 0.203 0.156 0.355 0.156 0.156 0 0.309 -0.078 0.449 -0.227 0.145 -0.148 0.258 -0.355 0.344 -0.613 0.09 -0.266 0.133 -0.523 0.133 -0.777 0 -0.383 -0.152 -0.57 -0.457 -0.57"/>
  <path d="m 17.539 19.73 -1.055 0 0.48 -2.125 c 0.035 -0.148 0.055 -0.277 0.055 -0.387 0 -0.266 -0.125 -0.398 -0.379 -0.398 -0.215 0 -0.41 0.121 -0.586 0.371 -0.176 0.246 -0.313 0.59 -0.414 1.035 l -0.34 1.504 -1.059 0 1.16 -5.063 1.055 0 c -0.094 0.391 -0.164 0.691 -0.211 0.902 -0.051 0.211 -0.148 0.547 -0.301 1.01 l 0.027 0 c 0.145 -0.168 0.305 -0.301 0.484 -0.402 0.176 -0.102 0.383 -0.152 0.617 -0.152 0.32 0 0.57 0.094 0.746 0.273 0.176 0.18 0.266 0.438 0.266 0.777 0 0.156 -0.027 0.352 -0.082 0.586 l -0.465 2.07"/>
  <path d="m 20.23 16.02 c 0.34 0 0.609 0.117 0.805 0.352 0.199 0.234 0.297 0.559 0.297 0.977 0 0.414 -0.078 0.816 -0.242 1.199 -0.156 0.383 -0.375 0.684 -0.652 0.91 -0.281 0.223 -0.586 0.336 -0.918 0.336 -0.195 0 -0.363 -0.039 -0.504 -0.121 -0.141 -0.078 -0.27 -0.215 -0.387 -0.41 l -0.031 0 c -0.027 0.348 -0.078 0.664 -0.148 0.961 l -0.254 1.105 -1.055 0 1.199 -5.238 0.805 0 -0.059 0.551 0.031 0 c 0.324 -0.414 0.695 -0.621 1.113 -0.621 m -0.426 0.797 c -0.16 0 -0.313 0.07 -0.461 0.219 -0.148 0.145 -0.27 0.34 -0.359 0.586 -0.09 0.242 -0.133 0.512 -0.133 0.809 0 0.172 0.043 0.313 0.129 0.418 0.086 0.102 0.207 0.156 0.359 0.156 0.156 0 0.305 -0.078 0.449 -0.227 0.141 -0.148 0.254 -0.355 0.344 -0.613 0.086 -0.266 0.133 -0.523 0.133 -0.777 0 -0.383 -0.156 -0.57 -0.461 -0.57"/>
 </g>
</svg>
