<svg xmlns="http://www.w3.org/2000/svg" viewBox="0 0 32 32">
 <path d="m 5.336 0 c -0.687 0 -1.336 0.676 -1.336 1.394 l 0 29.21 c 0 0.676 0.687 1.394 1.336 1.394 l 21.327 0 c 0.648 0 1.336 -0.717 1.336 -1.394 l 0.001 -21.606 l -9 -9 z" style="fill:#4a80d6;fill-opacity:1"/>
 <path d="m 21 9 7 7 0 -7 z" style="fill:#000;fill-opacity:0.196"/>
 <path d="m 19 0 8.992 9 -7.613 0 c -0.673 0 -1.378 -0.713 -1.378 -1.386 z" style="fill:#fff;fill-opacity:0.392"/>
 <path d="m 11.499 12 c -0.831 0 -1.499 0.668 -1.499 1.498 l 0 8.999 c 0 0.83 0.668 1.503 1.499 1.503 l 9 0 c 0.831 0 1.499 -0.672 1.499 -1.503 l 0 -8.999 c 0 -0.83 -0.668 -1.498 -1.499 -1.498 z m 3.501 2 l 2 0 0 2 -2 0 z m -1 3 3 0 0 4 1 0 0 2 -4 0 0 -2 1 0 0 -2 -1 -0.002 z" style="fill:#fff"/>
</svg>
