<svg xmlns="http://www.w3.org/2000/svg" viewBox="0 0 32 32">
 <path d="m 5.336 0 c -0.687 0 -1.336 0.676 -1.336 1.394 l 0 29.21 c 0 0.676 0.687 1.394 1.336 1.394 l 21.327 0 c 0.648 0 1.336 -0.717 1.336 -1.394 l 0.001 -21.606 l -9 -9 z" style="fill:#c19553;fill-opacity:1"/>
 <path d="m 4 24 0 6.668 c 0 0.648 0.688 1.332 1.332 1.332 l 21.336 0 c 0.645 0 1.332 -0.684 1.332 -1.332 l 0 -6.668 z" style="fill:#000;fill-opacity:0.196"/>
 <path d="m 21 9 7 7 0 -7 z" style="fill:#000;fill-opacity:0.196"/>
 <path d="m 19 0 8.992 9 -7.613 0 c -0.673 0 -1.378 -0.713 -1.378 -1.386 z" style="fill:#fff;fill-opacity:0.392"/>
 <rect width="3" height="3" x="9" style="fill:#f9f9f9;fill-opacity:1;stroke:none;fill-rule:evenodd"/>
 <rect width="3" height="3" x="12" y="3" style="fill:#f9f9f9;fill-opacity:1;stroke:none;fill-rule:evenodd"/>
 <rect width="3" height="3" x="9" y="6" style="fill:#f9f9f9;fill-opacity:1;stroke:none;fill-rule:evenodd"/>
 <rect width="3" height="3" x="12" y="9" style="fill:#f9f9f9;fill-opacity:1;stroke:none;fill-rule:evenodd"/>
 <rect width="3" height="3" x="9" y="12" style="fill:#f9f9f9;fill-opacity:1;stroke:none;fill-rule:evenodd"/>
 <rect width="6" height="6" x="9" y="16" style="fill:#f9f9f9;fill-opacity:1;stroke:none;fill-rule:evenodd"/>
 <path d="m 12.633 30.993 -0.304 -1.286 -1.711 0 -0.291 1.286 -1.327 0 c 0.538 -2.079 1.188 -4.09 1.825 -6 l 1.393 0 c 0.691 2.036 1.309 4.087 1.781 6 l -1.367 0 m -1.142 -4.835 c -0.269 0.804 -0.463 1.751 -0.635 2.563 l 1.257 0 c -0.146 -0.849 -0.392 -1.77 -0.622 -2.563" style="fill:#fff"/>
 <path d="m 21.775 31.04 c -0.838 0 -1.477 -0.264 -1.916 -0.795 c -0.439 -0.527 -0.659 -1.278 -0.659 -2.257 c 0 -0.483 0.065 -0.916 0.199 -1.292 0.134 -0.38 0.321 -0.697 0.557 -0.956 0.24 -0.264 0.525 -0.46 0.85 -0.594 0.334 -0.139 0.692 -0.206 1.082 -0.206 0.212 0 0.399 0.018 0.565 0.054 0.171 0.031 0.321 0.072 0.448 0.116 0.13 0.045 0.232 0.089 0.317 0.139 0.09 0.054 0.155 0.089 0.199 0.116 l -0.305 0.925 c -0.146 -0.094 -0.325 -0.174 -0.537 -0.237 -0.203 -0.067 -0.439 -0.103 -0.708 -0.103 -0.183 0 -0.366 0.036 -0.545 0.103 -0.171 0.063 -0.33 0.174 -0.468 0.331 -0.134 0.152 -0.248 0.358 -0.338 0.612 -0.081 0.259 -0.122 0.581 -0.122 0.965 0 0.666 0.114 1.18 0.346 1.537 0.236 0.353 0.618 0.532 1.147 0.532 0.305 0 0.557 -0.036 0.757 -0.103 0.203 -0.072 0.366 -0.139 0.488 -0.21 l 0.297 0.916 c -0.167 0.103 -0.395 0.197 -0.679 0.282 -0.281 0.085 -0.606 0.125 -0.976 0.125" style="fill:#fff"/>
 <path d="m 16.298 24.95 c 0.349 0 0.66 0.037 0.943 0.114 0.279 0.078 0.521 0.201 0.722 0.36 0.205 0.164 0.357 0.374 0.463 0.625 0.111 0.246 0.164 0.538 0.164 0.876 0 0.351 -0.07 0.671 -0.213 0.958 -0.144 0.283 -0.381 0.502 -0.718 0.652 c 0.533 0.785 0.938 1.642 1.333 2.464 l -1.263 0 c -0.328 -0.785 -0.767 -1.492 -1.165 -2.172 l -0.627 0 0 2.172 -1.206 0 0 -5.895 c 0.41 -0.101 0.822 -0.112 1.226 -0.146 0.131 -0.009 0.242 -0.009 0.34 -0.009 m 1.07 1.966 c 0 -0.319 -0.098 -0.552 -0.295 -0.703 -0.197 -0.146 -0.455 -0.224 -0.775 -0.224 -0.125 -0.003 -0.245 0.022 -0.361 0.032 l 0 1.811 0.262 0 c 0.414 0 0.709 -0.078 0.894 -0.233 0.18 -0.164 0.275 -0.392 0.275 -0.684" style="fill:#fff"/>
</svg>
