<svg xmlns="http://www.w3.org/2000/svg" viewBox="0 0 32 32">
 <defs>
  
 </defs>
 <path d="m 5.336 0 c -0.687 0 -1.336 0.676 -1.336 1.394 l 0 29.21 c 0 0.676 0.687 1.394 1.336 1.394 l 21.327 0 c 0.648 0 1.336 -0.717 1.336 -1.394 l 0.001 -21.606 -9 -9 z" style="fill:#a6a6a6;fill-opacity:1"/>
 <path d="m 21 9 7 7 0 -7 z" style="fill:#000;fill-opacity:0.196"/>
 <path d="m 19 0 8.992 9 -7.613 0 c -0.673 0 -1.378 -0.713 -1.378 -1.386 z" style="fill:#fff;fill-opacity:0.392"/>
 <path d="m 19.231 14.889 a 0.538 0.556 0 0 1 -0.538 0.556 0.538 0.556 0 0 1 -0.538 -0.556 0.538 0.556 0 0 1 0.538 -0.556 0.538 0.556 0 0 1 0.538 0.556 z m 1.077 1.111 a 0.538 0.556 0 0 1 -0.538 0.556 0.538 0.556 0 0 1 -0.538 -0.556 0.538 0.556 0 0 1 0.538 -0.556 0.538 0.556 0 0 1 0.538 0.556 z m 1.077 -1.111 a 0.538 0.556 0 0 1 -0.538 0.556 0.538 0.556 0 0 1 -0.538 -0.556 0.538 0.556 0 0 1 0.538 -0.556 0.538 0.556 0 0 1 0.538 0.556 z m -1.077 -1.111 a 0.538 0.556 0 0 1 -0.538 0.556 0.538 0.556 0 0 1 -0.538 -0.556 0.538 0.556 0 0 1 0.538 -0.556 0.538 0.556 0 0 1 0.538 0.556 z m -7 1.111 a 1.077 1.111 0 0 1 -1.077 1.111 1.077 1.111 0 0 1 -1.077 -1.111 1.077 1.111 0 0 1 1.077 -1.111 1.077 1.111 0 0 1 1.077 1.111 z m -0.952 -3.887 c -0.387 0.016 -0.706 0.187 -0.925 0.359 C 10.133 12.376 9 16.611 9 18.853 c 0 2.242 0.499 2.146 0.933 2.146 0.433 0 0.978 -0.307 1.454 -0.74 1.315 -1.194 1.92 -2.593 3.228 -2.593 l 2.77 0 c 1.307 0 1.913 1.399 3.228 2.593 0.476 0.433 1.021 0.74 1.454 0.74 0.433 0 0.933 0.095 0.933 -2.146 0 -2.242 -1.133 -6.477 -2.43 -7.493 -0.351 -0.275 -0.955 -0.548 -1.691 -0.188 -0.493 0.242 -0.934 0.383 -1.579 0.383 l -2.6 0 c -0.644 0 -1.085 -0.141 -1.579 -0.383 -0.276 -0.135 -0.533 -0.181 -0.766 -0.171 z" style="fill:#fff;opacity:1;fill-opacity:1;stroke:none;fill-rule:nonzero"/>
 <path d="m 4 24 0 6.668 c 0 0.648 0.688 1.332 1.332 1.332 l 21.336 0 c 0.645 0 1.332 -0.684 1.332 -1.332 l 0 -6.668" style="fill:#000;fill-opacity:0.196"/>
 <path d="m 10.678 31 c -0.15 0 -0.309 -0.012 -0.478 -0.037 -0.163 -0.019 -0.322 -0.043 -0.478 -0.074 -0.15 -0.031 -0.289 -0.065 -0.42 -0.102 -0.13 -0.037 -0.231 -0.071 -0.302 -0.102 l 0.234 -0.957 c 0.15 0.062 0.341 0.127 0.576 0.195 0.241 0.068 0.527 0.102 0.859 0.102 0.41 0 0.696 -0.084 0.859 -0.251 0.169 -0.167 0.254 -0.668 0.254 -0.915 0 -0.303 -0.127 -0.514 -0.38 -0.632 -0.276 -0.091 -0.543 -0.235 -0.966 -0.235 l -0.371 0 0 -0.947 0.449 0 c 0.298 0.021 0.488 -0.045 0.702 -0.109 c 0.098 -0.056 0.176 -0.13 0.234 -0.223 0.082 -0.279 -0.007 -0.433 -0.107 -0.552 -0.13 -0.124 -0.312 -0.186 -0.546 -0.186 -0.228 0 -0.455 0.037 -0.683 0.111 -0.221 0.068 -0.413 0.155 -0.576 0.26 l -0.429 -0.836 c 0.176 -0.111 0.407 -0.223 0.693 -0.334 0.293 -0.118 0.621 -0.176 0.985 -0.176 0.338 0 0.631 0.04 0.878 0.121 0.254 0.081 0.462 0.195 0.624 0.344 0.163 0.142 0.283 0.313 0.361 0.511 0.078 0.198 0.117 0.119 0.117 0.348 0 0.229 -0.068 0.449 -0.205 0.659 -0.137 0.211 -0.319 0.372 -0.546 0.483 0.312 0.124 0.553 0.306 0.722 0.548 c 0.176 0.241 0.263 0.529 0.263 0.864 c 0 0.266 -0.046 0.804 -0.137 1.027 -0.091 0.223 -0.231 0.418 -0.42 0.585 -0.189 0.161 -0.429 0.288 -0.722 0.381 c -0.293 0.087 -0.641 0.13 -1.044 0.13" style="fill:#fff;fill-opacity:1;stroke:none"/>
 <path d="m 17.733 26.678 q 0 0.303 -0.115 0.588 -0.115 0.275 -0.305 0.54 -0.191 0.265 -0.43 0.512 -0.239 0.246 -0.487 0.474 -0.124 0.114 -0.286 0.275 -0.162 0.152 -0.305 0.322 -0.143 0.161 -0.248 0.332 -0.095 0.171 -0.095 0.313 l 2.539 0 l 0 0.967 -3.857 0 q -0.029 -0.095 -0.029 -0.237 0.01 -0.142 0.01 -0.199 0 -0.474 0.172 -0.872 0.181 -0.398 0.449 -0.73 0.277 -0.341 0.582 -0.626 0.315 -0.294 0.582 -0.559 0.277 -0.265 0.449 -0.512 0.181 -0.246 0.181 -0.502 0 -0.36 -0.22 -0.55 -0.22 -0.199 -0.554 -0.199 -0.277 0 -0.582 0.133 -0.305 0.133 -0.601 0.445 l -0.582 -0.815 q 0.382 -0.398 0.878 -0.588 0.506 -0.19 1 -0.19 q 0.363 0 0.697 0.104 0.334 0.104 0.592 0.313 0.258 0.209 0.411 0.531 0.153 0.313 0.153 0.73 z" style="fill:#fff;fill-opacity:1;stroke:none"/>
 <path d="m 22.609 31 q -0.199 -0.494 -0.492 -1.095 -0.282 -0.601 -0.596 -1.202 -0.303 0.572 -0.607 1.192 -0.303 0.611 -0.523 1.105 l -1.391 0 q 0.105 -0.262 0.303 -0.63 0.209 -0.368 0.45 -0.795 0.251 -0.426 0.523 -0.872 0.272 -0.456 0.523 -0.872 l -1.695 -2.83 1.391 0 1.025 1.919 1.077 -1.919 l 1.297 0 -1.653 2.801 q 0.282 0.417 0.554 0.872 0.272 0.456 0.502 0.892 0.241 0.426 0.418 0.805 q 0.178 0.368 0.282 0.63 l -1.391 0 z" style="fill:#fff;fill-opacity:1;stroke:none"/>
</svg>
