<svg xmlns="http://www.w3.org/2000/svg" viewBox="0 0 32 32">
 <path d="m 5.336 0 c -0.687 0 -1.336 0.676 -1.336 1.394 l 0 29.21 c 0 0.676 0.687 1.394 1.336 1.394 l 21.327 0 c 0.648 0 1.336 -0.717 1.336 -1.394 l 0.001 -21.606 l -9 -9 z" style="fill:#edaf02;fill-opacity:1"/>
 <path d="m 21 9 7 7 0 -7 z" style="fill:#000;fill-opacity:0.196"/>
 <path d="m 19 0 8.992 9 -7.613 0 c -0.673 0 -1.378 -0.713 -1.378 -1.386 z" style="fill:#fff;fill-opacity:0.392"/>
 <path d="m 4 24 0 6.668 c 0 0.648 0.688 1.332 1.332 1.332 l 21.336 0 c 0.645 0 1.332 -0.684 1.332 -1.332 l 0 -6.668 z" style="fill:#000;fill-opacity:0.196"/>
 <path d="m 10 22 0 -11 12 0 0 11 -7 0 0 -6 3 0 0 2 -1 0 0 2 3 0 0 -7 -8 0 0 9 z" style="fill:#fff"/>
 <g transform="matrix(1.0556532,0,0,1.0556532,-0.92951295,-0.66959459)" style="fill:#fff">
  <path d="m 21.258 25.26 c -0.273 0 -0.504 0.046 -0.688 0.142 -0.188 0.092 -0.34 0.225 -0.465 0.396 -0.117 0.162 -0.203 0.362 -0.258 0.595 -0.051 0.229 -0.074 0.487 -0.074 0.766 0 0.654 0.105 1.133 0.324 1.445 0.215 0.304 0.535 0.458 0.953 0.458 0.07 0 0.145 -0.004 0.223 -0.008 0.082 -0.008 0.156 -0.017 0.223 -0.029 l 0 -1.986 1.145 0 0 2.719 c -0.137 0.046 -0.352 0.1 -0.641 0.158 -0.285 0.058 -0.633 0.087 -1.039 0.087 c -0.359 0 -0.684 -0.058 -0.977 -0.175 -0.285 -0.125 -0.527 -0.304 -0.73 -0.537 -0.207 -0.242 -0.363 -0.537 -0.477 -0.891 -0.109 -0.358 -0.164 -0.77 -0.164 -1.241 0 -0.462 0.063 -0.87 0.195 -1.22 0.129 -0.358 0.305 -0.658 0.527 -0.899 0.223 -0.242 0.484 -0.421 0.789 -0.537 0.301 -0.125 0.629 -0.183 0.973 -0.183 0.223 0 0.422 0.017 0.594 0.05 0.18 0.029 0.336 0.067 0.465 0.108 0.129 0.042 0.234 0.083 0.316 0.129 0.086 0.05 0.152 0.083 0.195 0.108 l -0.297 0.862 c -0.137 -0.083 -0.305 -0.154 -0.504 -0.221 -0.195 -0.062 -0.402 -0.096 -0.609 -0.096"/>
 </g>
 <path d="m 9.912 27.998 c 0 0.281 0.013 0.545 0.03 0.791 0.03 0.242 0.077 0.453 0.141 0.633 0.077 0.18 0.176 0.321 0.304 0.426 0.128 0.105 0.385 0.158 0.599 0.158 0.21 0 0.461 -0.053 0.59 -0.158 0.133 -0.105 0.235 -0.246 0.304 -0.426 0.073 -0.189 0.12 -0.4 0.141 -0.642 0.026 -0.242 0.039 -0.501 0.039 -0.782 0 -0.277 -0.013 -0.536 -0.039 -0.778 -0.021 -0.251 -0.069 -0.462 -0.141 -0.642 -0.069 -0.18 -0.167 -0.321 -0.295 -0.426 -0.128 -0.105 -0.38 -0.158 -0.598 -0.158 -0.214 0 -0.47 0.053 -0.599 0.158 -0.128 0.105 -0.227 0.251 -0.304 0.435 -0.064 0.18 -0.111 0.391 -0.141 0.633 -0.017 0.242 -0.03 0.501 -0.03 0.778 m -1.186 0 c 0 -0.989 0.201 -1.736 0.599 -2.237 c 0.398 -0.51 0.955 -0.76 1.661 -0.76 c 0.736 0 1.297 0.251 1.683 0.76 0.385 0.501 0.578 1.248 0.578 2.237 0 0.993 -0.197 1.741 -0.587 2.251 c -0.394 0.501 -0.946 0.752 -1.661 0.752 -0.736 0 -1.302 -0.251 -1.695 -0.752 -0.385 -0.51 -0.578 -1.257 -0.578 -2.251" style="fill:#fff"/>
 <path d="m 15.269 29.949 c 0.033 0.009 0.071 0.009 0.109 0.009 0.038 0 0.075 0 0.109 0 0.276 0 0.511 -0.048 0.695 -0.149 0.188 -0.097 0.343 -0.233 0.456 -0.409 0.117 -0.171 0.201 -0.374 0.247 -0.611 0.05 -0.242 0.08 -0.505 0.08 -0.791 0 -0.246 -0.021 -0.488 -0.059 -0.725 -0.042 -0.233 -0.113 -0.44 -0.209 -0.62 -0.1 -0.18 -0.234 -0.321 -0.406 -0.426 -0.172 -0.114 -0.394 -0.167 -0.666 -0.167 -0.05 0 -0.113 0 -0.176 0.009 -0.067 0 -0.126 0.004 -0.18 0.018 l 0 3.864 m 2.935 -1.952 c 0 0.532 -0.075 0.989 -0.218 1.367 -0.142 0.374 -0.335 0.677 -0.586 0.91 -0.251 0.237 -0.553 0.409 -0.904 0.519 -0.343 0.105 -0.72 0.158 -1.139 0.158 -0.218 0 -0.431 -0.009 -0.645 -0.035 -0.205 -0.018 -0.423 -0.053 -0.661 -0.101 l 0 -5.613 c 0.276 -0.057 0.536 -0.092 0.783 -0.11 0.243 -0.018 0.473 -0.031 0.682 -0.031 0.402 0 0.77 0.057 1.101 0.167 0.335 0.114 0.62 0.29 0.85 0.532 0.234 0.237 0.41 0.541 0.536 0.91 0.134 0.365 0.201 0.809 0.201 1.327" style="fill:#fff"/>
</svg>
