<svg xmlns="http://www.w3.org/2000/svg" viewBox="0 0 32 32">
 <path d="m 5.344 0 c -0.687 0 -1.344 0.689 -1.344 1.406 l 0 29.19 c 0 0.676 0.695 1.406 1.344 1.406 l 21.313 0 c 0.648 0 1.344 -0.73 1.344 -1.406 l 0 -21.594 0 -7.625 c 0 -0.673 -0.702 -1.375 -1.375 -1.375 l -7.625 0 -13.656 0 z" style="fill:#207145;fill-opacity:1"/>
 <path d="M 23,11 23,24 9,24 9,11 z m -1,1 -7,0 0,3 7,0 z m -8,0 -4,0 0,3 4,0 z m 8,4 -7,0 0,3 7,0 z m -8,0 -4,0 0,3 4,0 z m 8,4 -7,0 0,3 7,0 z m -8,0 -4,0 0,3 4,0 z" style="fill:#fff"/>
</svg>
