<svg xmlns="http://www.w3.org/2000/svg" viewBox="0 0 32 32">
 <path d="m 5.336 0 c -0.687 0 -1.336 0.676 -1.336 1.394 l 0 29.21 c 0 0.676 0.687 1.394 1.336 1.394 l 21.327 0 c 0.648 0 1.336 -0.717 1.336 -1.394 l 0.001 -21.606 l -9 -9 z" style="fill:#ce5b00;fill-opacity:1"/>
 <path d="m 21 9 7 7 0 -7 z" style="fill:#000;fill-opacity:0.196"/>
 <path d="m 19 0 8.992 9 -7.613 0 c -0.673 0 -1.378 -0.713 -1.378 -1.386 z" style="fill:#fff;fill-opacity:0.392"/>
 <g transform="matrix(1.1463933,0,0,1.1463933,-2.244741,-1.4403975)" style="fill:#fff">
  <path d="m 15.684 10.668 c -0.219 0 -0.445 0.082 -0.629 0.223 -0.188 0.145 -0.309 0.332 -0.324 0.559 -0.016 0.223 0.07 0.449 0.242 0.605 l 0 0.016 c 0.402 0.348 0.82 0.707 1.227 1.063 l -4.547 0 c -0.324 0 -0.598 0.074 -0.809 0.242 -0.207 0.164 -0.344 0.41 -0.387 0.684 -0.086 0.535 0.297 1.145 0.918 1.145 l 1.984 0 -4.145 3.375 c 0 0 -0.004 -0.008 -0.016 0 -0.254 0.215 -0.434 0.508 -0.5 0.813 -0.066 0.301 -0.035 0.621 0.145 0.875 0.367 0.516 1.102 0.5 1.613 0.047 l 2.176 -1.957 c 0.004 0.227 0.059 0.586 0.148 0.891 0.176 0.625 0.48 1.211 0.902 1.719 0.43 0.523 0.953 0.945 1.563 1.242 0.641 0.313 1.332 0.461 2.051 0.461 0.719 0 1.406 -0.164 2.047 -0.477 0.609 -0.301 1.152 -0.719 1.582 -1.242 0.418 -0.512 0.707 -1.094 0.887 -1.719 0.09 -0.316 0.152 -0.648 0.176 -0.973 c 0.023 -0.316 0.012 -0.637 -0.031 -0.953 -0.078 -0.621 -0.266 -1.207 -0.566 -1.734 -0.234 -0.414 -0.543 -0.777 -0.887 -1.098 l 0.016 -0.016 l -0.176 -0.145 -4.03 -3.406 c 0 0 -0.016 -0.012 -0.016 -0.016 -0.004 0 -0.016 0 -0.016 0 -0.176 -0.145 -0.383 -0.223 -0.598 -0.223 z m 1.563 3.582 c 2.086 0 3.773 1.668 3.773 3.723 0 2.059 -1.688 3.727 -3.773 3.727 -2.082 0 -3.773 -1.668 -3.773 -3.727 0 -2.055 1.691 -3.723 3.773 -3.723 z" style="fill-rule:evenodd"/>
  <path d="m 18.332 18 c 0 0.617 -0.504 1.117 -1.129 1.117 -0.621 0 -1.129 -0.5 -1.129 -1.117 0 -0.613 0.508 -1.113 1.129 -1.113 0.625 0 1.129 0.5 1.129 1.113 z"/>
 </g>
</svg>
