<svg xmlns="http://www.w3.org/2000/svg" viewBox="0 0 32 32">
 <path d="m 5.371 4 c -0.684 0 -1.371 0.687 -1.371 1.371 l 0 21.297 c 0 0.645 0.688 1.332 1.332 1.332 l 21.336 0 c 0.645 0 1.332 -0.688 1.332 -1.332 l 0 -21.336 c 0 -0.645 -0.688 -1.332 -1.332 -1.332 z" style="fill:#c19553"/>
 <path d="m 5.371 4 c -0.684 0 -1.371 0.687 -1.371 1.371 l 0 6.629 c 2.668 0 21.332 0 24 0 l 0 -6.668 c 0 -0.645 -0.688 -1.332 -1.332 -1.332 z" style="fill:#fff;fill-opacity:0.196"/>
 <path d="m 14 7 0 10 4 0 0 -10 z" style="fill:#fff;fill-opacity:0.392"/>
 <g transform="scale(1.062002,0.94161779)" style="fill:#000;fill-opacity:1;stroke:none">
  <path d="m 11.562 26.684 -0.269 -1.196 -1.531 0 -0.26 1.196 -1.188 0 c 0.473 -1.936 1.071 -3.791 1.633 -5.56 l 1.243 0 c 0.62 1.881 1.172 3.785 1.596 5.56 z m -1.021 -4.482 c -0.241 0.741 -0.417 1.495 -0.566 2.225 l 1.123 0 c -0.132 -0.789 -0.35 -1.492 -0.557 -2.225 z" style="fill:#fff"/>
  <path d="m 14.785 21.06 c 0.707 0 1.255 0.147 1.644 0.44 0.389 0.287 0.584 0.761 0.584 1.419 0 0.665 -0.198 1.147 -0.593 1.446 -0.389 0.293 -0.943 0.44 -1.662 0.44 l -0.446 0 0 1.877 -1.055 0 0 -5.489 c 0.509 -0.112 1.017 -0.112 1.527 -0.135 z m 0.126 0.961 c -0.193 -0.003 -0.406 0.017 -0.598 0.027 l 0 1.797 0.499 0 c 0.353 0 0.62 -0.069 0.799 -0.207 0.18 -0.144 0.269 -0.386 0.269 -0.728 0 -0.323 -0.09 -0.551 -0.269 -0.683 -0.174 -0.138 -0.407 -0.207 -0.701 -0.207 z" style="fill:#fff"/>
  <path d="m 20.52 26.684 c -0.354 -1.02 -0.978 -1.797 -1.662 -2.542 l 0 2.542 -1.099 0 0 -5.56 1.099 0 0 2.309 c 0.588 -0.71 1.041 -1.49 1.469 -2.309 l 1.279 0 c -0.482 0.95 -1.117 1.773 -1.757 2.56 0.887 0.83 1.485 1.872 1.95 3 z" style="fill:#fff"/>
 </g>
</svg>
