<svg xmlns="http://www.w3.org/2000/svg" viewBox="0 0 32 32">
 <path d="m 5.336 0 c -0.687 0 -1.336 0.676 -1.336 1.394 l 0 29.21 c 0 0.676 0.687 1.394 1.336 1.394 l 21.327 0 c 0.648 0 1.336 -0.717 1.336 -1.394 l 0.001 -21.606 -9 -9 z" style="fill:#9b4a85;fill-opacity:1"/>
 <path d="m 21 9 7 7 0 -7 z" style="fill:#000;fill-opacity:0.196"/>
 <path d="m 19 0 8.992 9 -7.613 0 c -0.673 0 -1.378 -0.713 -1.378 -1.386 z" style="fill:#fff;fill-opacity:0.392"/>
 <path d="m 13.469 13.453 c -0.777 0.195 -1.43 0.91 -1.43 0.91 l 0.02 0.02 1.246 4.625 c -0.891 -0.484 -2.16 -0.363 -3.211 0.398 -1.359 0.98 -1.832 2.652 -1.047 3.73 0.789 1.082 2.523 1.156 3.883 0.176 c 1.07 -0.777 1.664 -1.996 1.449 -2.996 c -0.004 -0.031 -0.016 -0.063 -0.023 -0.094 l -1.195 -4.621 c 0.027 -0.039 0.379 -0.199 1.504 -0.277 1.195 -0.078 2 -1.992 2 -1.992 0 0 -1.344 0.516 -2.398 0.145 -0.266 -0.094 -0.543 -0.09 -0.801 -0.023 z" style="fill:#fff"/>
 <path d="m 18 14 0 -1 5 0 0 1 z" style="fill:#fff"/>
 <path d="m 15 17 0 1 8 0 0 -1 z" style="fill:#fff"/>
 <path d="m 17 16 0 -1 6 0 0 1 z" style="fill:#fff"/>
 <path d="m 16 19 0 1 7 0 0 -1 z" style="fill:#fff"/>
 <path d="m 16 21 0 1 7 0 0 -1 z" style="fill:#fff"/>
 <path d="m 15 23 0 1 8 0 0 -1 z" style="fill:#fff"/>
</svg>
