<svg xmlns="http://www.w3.org/2000/svg" viewBox="0 0 32 32">
 <path d="m 5.336 0 c -0.687 0 -1.336 0.676 -1.336 1.394 l 0 29.21 c 0 0.676 0.687 1.394 1.336 1.394 l 21.327 0 c 0.648 0 1.336 -0.717 1.336 -1.394 l 0.001 -21.606 -9 -9 z" style="fill:#38a34e;fill-opacity:1"/>
 <path d="m 21 9 7 7 0 -7 z" style="fill:#000;fill-opacity:0.196"/>
 <path d="m 19 0 8.992 9 -7.613 0 c -0.673 0 -1.378 -0.713 -1.378 -1.386 z" style="fill:#fff;fill-opacity:0.392"/>
 <path d="m 11.645 11 c -0.352 0.033 -0.652 0.406 -0.645 0.802 l 0 8.415 c 0.004 0.414 0.333 0.787 0.703 0.784 l 8.612 0 c 0.363 -0.007 0.681 -0.373 0.685 -0.784 l 0 -8.415 c 0.007 -0.417 -0.315 -0.798 -0.685 -0.802 z m 0.355 1 l 8 0 0 5.701 -2.352 -2.658 -1.491 1.388 l -1.963 -2.461 -2.194 2.83" style="fill:#fff"/>
 <path d="m 4 24 0 6.668 c 0 0.648 0.688 1.332 1.332 1.332 l 21.336 0 c 0.645 0 1.332 -0.684 1.332 -1.332 l 0 -6.668 z" style="fill:#000;fill-opacity:0.196"/>
 <path d="m 10.69 25 c 0.779 0 1.386 0.159 1.817 0.471 0.431 0.308 0.644 0.811 0.644 1.514 0 0.707 -0.217 1.224 -0.656 1.541 -0.426 0.313 -1.042 0.471 -1.833 0.471 l -0.439 0 0 2 l -1.222 0 0 -5.855 c 0.436 -0.095 0.873 -0.104 1.3 -0.131 0.148 -0.009 0.275 -0.014 0.39 -0.014 m 0.139 1.029 c -0.074 0 -0.176 0 -0.308 0.009 -0.127 0 -0.226 0.005 -0.299 0.018 l 0 1.917 0.496 0 c 0.39 0 0.685 -0.077 0.886 -0.222 0.197 -0.154 0.295 -0.412 0.295 -0.775 0 -0.344 -0.098 -0.589 -0.295 -0.73 -0.193 -0.145 -0.451 -0.218 -0.775 -0.218" style="fill:#fff"/>
 <path d="m 17.04 31 c -0.597 -1.411 -1.316 -2.744 -2.01 -3.983 l 0 3.983 -1.13 0 0 -6 1.01 0 c 0.776 1.2 1.402 2.428 2.01 3.694 l 0 -3.694 1.13 0 0 6 -1.01 0" style="fill:#fff"/>
 <path d="m 21.491 25.993 c -0.291 0 -0.537 0.048 -0.734 0.149 -0.201 0.097 -0.365 0.237 -0.496 0.418 -0.127 0.171 -0.221 0.382 -0.279 0.629 -0.053 0.242 -0.082 0.514 -0.082 0.809 0 0.69 0.119 1.196 0.349 1.525 0.234 0.321 0.574 0.484 1.021 0.484 0.074 0 0.156 -0.004 0.242 -0.009 0.086 -0.009 0.164 -0.018 0.238 -0.031 l 0 -2.097 1.218 0 0 2.87 c -0.144 0.048 -0.373 0.105 -0.685 0.167 -0.303 0.062 -0.673 0.092 -1.111 0.092 c -0.381 0 -0.73 -0.062 -1.042 -0.185 -0.303 -0.132 -0.566 -0.321 -0.783 -0.567 -0.217 -0.255 -0.39 -0.567 -0.508 -0.941 -0.119 -0.378 -0.176 -0.813 -0.176 -1.31 0 -0.488 0.07 -0.919 0.209 -1.288 0.139 -0.378 0.328 -0.695 0.566 -0.949 0.238 -0.255 0.517 -0.444 0.841 -0.567 c 0.324 -0.132 0.673 -0.193 1.046 -0.193 c 0.238 0 0.447 0.018 0.632 0.053 0.193 0.031 0.361 0.07 0.5 0.114 0.135 0.044 0.25 0.088 0.336 0.136 0.09 0.053 0.16 0.088 0.209 0.114 l -0.32 0.91 c -0.144 -0.088 -0.324 -0.163 -0.537 -0.233 -0.209 -0.066 -0.426 -0.101 -0.652 -0.101" style="fill:#fff"/>
</svg>
