<svg xmlns="http://www.w3.org/2000/svg" viewBox="0 0 32 32">
 <path d="m 5.371 4 c -0.684 0 -1.371 0.688 -1.371 1.371 l 0 21.297 c 0 0.645 0.688 1.332 1.332 1.332 l 21.336 0 c 0.645 0 1.332 -0.688 1.332 -1.332 l 0 -21.336 c 0 -0.645 -0.688 -1.332 -1.332 -1.332 Z" style="fill:#eee"/>
 <path d="m 15.551 8.07 c -1.336 0.43 -0.164 2.418 -2.078 3.391 c -2.184 1.113 -3.27 -1.695 -4.582 0.309 c -1.313 2.01 1.809 1.695 1.723 4.059 c -0.09 2.359 -3.18 1.859 -2.02 3.941 c 1.16 2.082 2.449 -0.652 4.547 0.598 c 2.098 1.246 0.09 3.555 2.563 3.633 c 2.473 0.074 0.637 -2.348 2.824 -3.461 c 2.184 -1.113 3.27 1.695 4.582 -0.309 c 1.313 -2.01 -1.809 -1.695 -1.723 -4.055 c 0.09 -2.363 3.18 -1.859 2.02 -3.945 c -1.16 -2.082 -2.449 0.652 -4.547 -0.594 c -2.098 -1.25 -0.09 -3.559 -2.563 -3.633 c -0.309 -0.012 -0.555 0.008 -0.746 0.066 m 0.023 6.01 c 1.105 -0.227 2.188 0.449 2.422 1.512 c 0.234 1.059 -0.469 2.102 -1.57 2.324 c -1.105 0.227 -2.188 -0.449 -2.422 -1.512 c -0.234 -1.059 0.469 -2.098 1.57 -2.324 Z" style="fill:#888"/>
 <path d="m 5.668 4 c -0.445 0 -0.785 0 -1.234 0.426 -0.434 0.395 -0.434 0.797 -0.434 1.242 l 0 20.707 c 0 0.434 -0.01 0.818 0.424 1.194 0.498 0.431 0.767 0.431 1.201 0.431 l 20.75 0 c 0.434 0 0.739 0 1.223 -0.438 c 0.412 -0.372 0.402 -0.754 0.402 -1.188 l 0 -20.75 c 0 -0.434 -0.008 -0.8 -0.418 -1.195 -0.445 -0.43 -0.773 -0.43 -1.207 -0.43 z m 0.332 1 20.02 0 c 0.195 0 0.449 0.117 0.645 0.313 0.195 0.195 0.313 0.449 0.313 0.645 l 0 20.06 c 0 0.195 -0.117 0.449 -0.313 0.645 -0.195 0.195 -0.449 0.313 -0.645 0.313 l -20.04 0 c -0.195 0 -0.449 -0.117 -0.645 -0.313 -0.195 -0.195 -0.312 -0.449 -0.313 -0.645 l -0.021 -20.02 c 0 -0.223 0.113 -0.492 0.313 -0.688 0.195 -0.199 0.465 -0.313 0.688 -0.313 z" style="fill:#aaa"/>
</svg>
