<svg xmlns="http://www.w3.org/2000/svg" viewBox="0 0 32 32">
 <path d="m 5.371 4 c -0.684 0 -1.371 0.687 -1.371 1.371 l 0 21.297 c 0 0.645 0.688 1.332 1.332 1.332 l 21.336 0 c 0.645 0 1.332 -0.688 1.332 -1.332 l 0 -21.336 c 0 -0.645 -0.688 -1.332 -1.332 -1.332 z" style="fill:#c19553"/>
 <path d="m 5.371 4 c -0.684 0 -1.371 0.687 -1.371 1.371 l 0 6.629 c 2.668 0 21.332 0 24 0 l 0 -6.668 c 0 -0.645 -0.688 -1.332 -1.332 -1.332 z" style="fill:#fff;fill-opacity:0.196"/>
 <path d="m 14 7 0 10 4 0 0 -10 z" style="fill:#fff;fill-opacity:0.392"/>
 <g transform="scale(1.062002,0.94161779)" style="fill:#000;fill-opacity:1;stroke:none">
  <path d="m 11.894 26.55 -0.283 -1.062 -1.612 0 -0.274 1.062 -1.251 0 c 0.498 -1.849 1.128 -3.621 1.719 -5.31 l 1.309 0 c 0.653 1.796 1.234 3.615 1.68 5.31 z m -1.075 -4.28 c -0.254 0.708 -0.439 1.459 -0.596 2.156 l 1.182 0 c -0.139 -0.754 -0.368 -1.456 -0.586 -2.156 z" style="fill:#fff"/>
  <path d="m 15.571 21.13 c -0.515 0.009 -1.028 0.021 -1.541 0.129 l 0 5.287 1.045 0 0 -1.807 0.469 0 c 0.725 0 1.185 -0.143 1.577 -0.425 0.399 -0.287 0.598 -0.751 0.598 -1.392 0 -0.634 -0.197 -1.088 -0.589 -1.367 -0.394 -0.28 -0.846 -0.438 -1.559 -0.425 z m 0.127 0.927 c 0.297 0.002 0.472 0.07 0.649 0.199 0.179 0.13 0.272 0.346 0.272 0.658 0 0.329 -0.09 0.564 -0.272 0.701 -0.18 0.135 -0.39 0.199 -0.746 0.199 l -0.526 0 0 -1.732 c 0.194 -0.01 0.429 -0.026 0.623 -0.025 z" style="fill:#fff"/>
  <path d="m 20.279 21.11 c -0.515 0.009 -1.028 0.021 -1.541 0.129 l 0 5.287 1.045 0 0 -1.807 0.469 0 c 0.725 0 1.185 -0.143 1.577 -0.425 0.399 -0.287 0.598 -0.751 0.598 -1.392 0 -0.634 -0.197 -1.088 -0.589 -1.367 -0.394 -0.28 -0.846 -0.438 -1.559 -0.425 z m 0.127 0.927 c 0.297 0.002 0.472 0.07 0.649 0.199 0.179 0.13 0.272 0.346 0.272 0.658 0 0.329 -0.09 0.564 -0.272 0.701 -0.18 0.135 -0.39 0.199 -0.746 0.199 l -0.526 0 0 -1.732 c 0.194 -0.01 0.429 -0.026 0.623 -0.025 z" style="fill:#fff"/>
 </g>
</svg>
