<svg xmlns="http://www.w3.org/2000/svg" viewBox="0 0 32 32">
 <path d="m 5.336 0 c -0.687 0 -1.336 0.676 -1.336 1.394 l 0 29.21 c 0 0.676 0.687 1.394 1.336 1.394 l 21.327 0 c 0.648 0 1.336 -0.717 1.336 -1.394 l 0.001 -21.606 l -9 -9 z" style="fill:#c19553;fill-opacity:1"/>
 <path d="m 4 24 0 6.668 c 0 0.648 0.688 1.332 1.332 1.332 l 21.336 0 c 0.645 0 1.332 -0.684 1.332 -1.332 l 0 -6.668 z" style="fill:#000;fill-opacity:0.196"/>
 <path d="m 21 9 7 7 0 -7 z" style="fill:#000;fill-opacity:0.196"/>
 <path d="m 12.5 25 0 0.989 -1.41 0 0 5.01 -1.184 0 0 -5.01 -1.406 0 0 -0.989 4 0" style="fill:#fff"/>
 <path d="m 19 0 8.992 9 -7.613 0 c -0.673 0 -1.378 -0.713 -1.378 -1.386 z" style="fill:#fff;fill-opacity:0.392"/>
 <rect width="3" height="3" x="9" style="fill:#f9f9f9;fill-opacity:1;stroke:none;fill-rule:evenodd"/>
 <path d="m 17.505 25.831 c -0.96 1.384 -1.836 2.776 -2.645 4.18 l 2.74 0 0 0.989 -4.2 0 0 -0.69 c 0.806 -1.499 1.715 -2.944 2.585 -4.321 l -2.541 0 0 -0.989 4.061 0 0 0.831" style="fill:#fff"/>
 <rect width="3" height="3" x="12" y="3" style="fill:#f9f9f9;fill-opacity:1;stroke:none;fill-rule:evenodd"/>
 <rect width="3" height="3" x="9" y="6" style="fill:#f9f9f9;fill-opacity:1;stroke:none;fill-rule:evenodd"/>
 <rect width="3" height="3" x="12" y="9" style="fill:#f9f9f9;fill-opacity:1;stroke:none;fill-rule:evenodd"/>
 <rect width="3" height="3" x="9" y="12" style="fill:#f9f9f9;fill-opacity:1;stroke:none;fill-rule:evenodd"/>
 <rect width="6" height="6" x="9" y="16" style="fill:#f9f9f9;fill-opacity:1;stroke:none;fill-rule:evenodd"/>
 <path d="m 19.304 27.998 c 0 0.291 0.009 0.563 0.033 0.818 0.028 0.25 0.084 0.468 0.159 0.654 0.08 0.186 0.232 0.332 0.372 0.441 0.145 0.109 0.39 0.164 0.629 0.164 0.234 0 0.479 -0.055 0.619 -0.164 0.15 -0.109 0.302 -0.254 0.377 -0.441 0.08 -0.195 0.131 -0.413 0.155 -0.663 0.028 -0.25 0.047 -0.518 0.047 -0.808 0 -0.286 -0.019 -0.554 -0.047 -0.804 -0.023 -0.259 -0.075 -0.477 -0.155 -0.663 -0.075 -0.186 -0.223 -0.332 -0.368 -0.441 -0.141 -0.109 -0.39 -0.164 -0.629 -0.164 -0.239 0 -0.484 0.055 -0.629 0.164 -0.141 0.109 -0.293 0.259 -0.372 0.45 -0.075 0.186 -0.131 0.404 -0.159 0.654 -0.023 0.25 -0.033 0.518 -0.033 0.804 m -1.304 0 c 0 -1.022 0.22 -1.794 0.661 -2.312 c 0.44 -0.527 1.054 -0.786 1.837 -0.786 c 0.815 0 1.434 0.259 1.86 0.786 c 0.426 0.518 0.642 1.29 0.642 2.312 0 1.027 -0.22 1.799 -0.651 2.326 -0.436 0.518 -1.045 0.777 -1.837 0.777 c -0.815 0 -1.439 -0.259 -1.874 -0.777 -0.426 -0.527 -0.637 -1.299 -0.637 -2.326" style="fill:#fff"/>
</svg>
