<svg xmlns="http://www.w3.org/2000/svg" viewBox="0 0 32 32">
 <path d="m 5.344 0 c -0.687 0 -1.344 0.689 -1.344 1.406 l 0 29.19 c 0 0.676 0.695 1.406 1.344 1.406 l 21.313 0 c 0.648 0 1.344 -0.73 1.344 -1.406 l 0 -21.594 0 -7.625 c 0 -0.673 -0.702 -1.375 -1.375 -1.375 l -7.625 0 -13.656 0 z" style="fill:#7099c3;fill-opacity:1"/>
 <path d="m 11 13 0 1 l 9.999 0 0 -1 z" style="fill:#fff"/>
 <path d="m 10.555 15.335 0 1.114 11.11 0 0 -1.114 z" style="fill:#fff"/>
 <path d="m 11 18 0 1 9.999 0 0 -1 z" style="fill:#fff"/>
 <path d="m 15.671 10.34 0 11.1 0.873 0 0 -11.1 z" style="fill:#fff"/>
 <g transform="matrix(1.0182376,0,0,1.0181853,-0.18379206,-2.4350831)" style="fill:none;stroke:#fff">
  <g style="stroke-width:2">
   <path d="m 20.441 33 c -1.998 -6 -1.998 -12 0 -18" transform="matrix(0.54545,0,0,0.54545,2.90922,4.90928)"/>
   <path d="m 27.466 33 c 2.01 -4.999 2.01 -12 0 -18" transform="matrix(0.54545,0,0,0.54545,2.90922,4.90928)"/>
  </g>
  <path d="m 33.06 27.317 c 0 5.03 -4.075 9.102 -9.102 9.102 -5.03 0 -9.102 -4.075 -9.102 -9.102 0 -5.03 4.075 -9.102 9.102 -9.102 5.03 0 9.102 4.075 9.102 9.102 z" transform="matrix(0.59913,0,0,0.59913,1.64887,1.63352)" style="stroke-linecap:round;stroke-width:1.821"/>
 </g>
 <path d="m 4 24 0 6.668 c 0 0.648 0.688 1.332 1.332 1.332 l 21.336 0 c 0.645 0 1.332 -0.684 1.332 -1.332 l 0 -6.668 z" style="fill:#000;fill-opacity:0.196"/>
 <g transform="matrix(1.044898,0,0,1.1743119,-0.6857153,-4.1009174)" style="fill:#fff">
  <path d="m 22.668 24.781 0 5.109 -1.053 0 0 -2.506 -1.723 0 0 2.506 -1 0 0 -5.109 1 0 0 1.76 1.723 0 0 -1.76 1.053 0"/>
 </g>
 <path d="m 10.167 27.998 c 0 0.281 0.014 0.545 0.032 0.791 0.032 0.242 0.084 0.453 0.153 0.633 0.084 0.18 0.19 0.321 0.329 0.426 0.139 0.105 0.436 0.158 0.668 0.158 0.227 0 0.519 -0.053 0.658 -0.158 0.144 -0.105 0.255 -0.246 0.329 -0.426 0.079 -0.189 0.13 -0.4 0.153 -0.642 0.028 -0.242 0.042 -0.501 0.042 -0.782 0 -0.277 -0.014 -0.536 -0.042 -0.778 -0.023 -0.251 -0.074 -0.462 -0.153 -0.642 -0.074 -0.18 -0.181 -0.321 -0.32 -0.426 -0.139 -0.105 -0.43 -0.158 -0.667 -0.158 -0.232 0 -0.528 0.053 -0.668 0.158 -0.139 0.105 -0.246 0.251 -0.329 0.435 -0.07 0.18 -0.121 0.391 -0.153 0.633 -0.019 0.242 -0.032 0.501 -0.032 0.778 m -1.267 0 c 0 -0.989 0.218 -1.736 0.65 -2.237 0.432 -0.51 1.035 -0.76 1.8 -0.76 c 0.798 0 1.406 0.251 1.824 0.76 0.418 0.501 0.626 1.248 0.626 2.237 0 0.993 -0.213 1.741 -0.636 2.251 c -0.427 0.501 -1.025 0.752 -1.8 0.752 -0.798 0 -1.411 -0.251 -1.837 -0.752 -0.418 -0.51 -0.626 -1.257 -0.626 -2.251" style="fill:#fff"/>
 <path d="m 18.559 25 0 0.99 -1.553 0 0 5.01 -1.136 0 0 -5.01 -1.62 0 0 -0.99 4.309 0" style="fill:#fff"/>
</svg>
