<svg xmlns="http://www.w3.org/2000/svg" viewBox="0 0 32 32">
 <path d="m 5.336 0 c -0.687 0 -1.336 0.676 -1.336 1.394 l 0 29.21 c 0 0.676 0.687 1.394 1.336 1.394 l 21.327 0 c 0.648 0 1.336 -0.717 1.336 -1.394 l 0.001 -21.606 l -9 -9 z" style="fill:#3398c3;fill-opacity:1"/>
 <path d="m 21 9 7 7 0 -7 z" style="fill:#000;fill-opacity:0.196"/>
 <path d="m 19 0 8.992 9 -7.613 0 c -0.673 0 -1.378 -0.713 -1.378 -1.386 z" style="fill:#fff;fill-opacity:0.392"/>
 <path d="m 23 12.5 c -1.099 1.593 -2.338 3 -4.949 3.697 c -0.303 -1.849 -1.913 -3.197 -3.801 -3.197 c -2.126 0 -3.85 1.7 -3.85 3.81 0.002 0.16 0.014 0.319 0.036 0.477 c -0.87 0.492 -1.436 1.387 -1.436 2.852 0 2.45 2.388 4.861 5.111 4.861 5.384 0 8.889 -5.556 8.889 -12.5 m -8.75 2.222 c 1.16 0 2.1 0.933 2.1 2.083 0 1.151 -0.94 2.083 -2.1 2.083 -1.16 0 -2.1 -0.933 -2.1 -2.083 0 -1.151 0.94 -2.083 2.1 -2.083 z m 5.111 5.107 c 0 0.386 -2.361 3.434 -4.761 3.434 -2.139 0 -3.361 -1.435 -3.361 -2.927 2.333 2.27 6.161 0.773 8.121 -0.507 z" style="fill:#fff;opacity:1;fill-opacity:1;stroke:none"/>
 <ellipse cx="14.88" cy="15.972" rx="1.12" ry="1.111" style="fill:#fff;opacity:1;fill-opacity:1;stroke:none"/>
</svg>
