<svg xmlns="http://www.w3.org/2000/svg" viewBox="0 0 32 32">
 <path d="m 5.371 4 c -0.684 0 -1.371 0.688 -1.371 1.371 l 0 21.297 c 0 0.645 0.688 1.332 1.332 1.332 l 21.336 0 c 0.645 0 1.332 -0.688 1.332 -1.332 l 0 -21.336 c 0 -0.645 -0.688 -1.332 -1.332 -1.332 z" style="fill:#c19553"/>
 <path d="m 5.371 4 c -0.684 0 -1.371 0.688 -1.371 1.371 l 0 6.629 c 2.668 0 21.332 0 24 0 l 0 -6.668 c 0 -0.645 -0.688 -1.332 -1.332 -1.332 z" style="fill:#fff;fill-opacity:0.196"/>
 <path d="m 14 7 0 10 4 0 0 -10 z" style="fill:#fff;fill-opacity:0.392"/>
 <g transform="translate(0,-0.182031)" style="fill:#fff">
  <path d="m 10.595 20 c 0.324 0 0.617 0.035 0.876 0.102 0.263 0.07 0.488 0.172 0.678 0.316 0.187 0.141 0.332 0.324 0.431 0.543 0.103 0.219 0.152 0.473 0.152 0.77 0 0.305 -0.065 0.582 -0.198 0.832 -0.137 0.25 -0.358 0.441 -0.667 0.574 0.505 0.693 0.878 1.441 1.242 2.195 l -1.181 0 c -0.29 -0.71 -0.711 -1.345 -1.086 -1.941 l -0.587 0 0 1.941 -1.124 0 0 -5.195 c 0.488 -0.107 0.972 -0.113 1.463 -0.137 m 0.998 1.723 c 0 -0.281 -0.091 -0.484 -0.274 -0.613 -0.183 -0.133 -0.427 -0.199 -0.724 -0.199 -0.117 0.003 -0.23 0.019 -0.339 0.027 l 0 1.586 0.248 0 c 0.385 0 0.663 -0.07 0.831 -0.207 0.171 -0.141 0.259 -0.34 0.259 -0.594"/>
  <path d="m 15.609 20 c 0.738 0 1.309 0.141 1.715 0.418 0.406 0.273 0.609 0.723 0.609 1.344 0 0.633 -0.203 1.09 -0.617 1.375 -0.406 0.277 -0.984 0.414 -1.734 0.414 l -0.41 0 0 1.781 -1.152 0 0 -5.203 c 0.529 -0.109 1.058 -0.106 1.59 -0.129 m 0.133 0.91 c -0.201 0.001 -0.369 0.018 -0.57 0.027 l 0 1.703 0.469 0 c 0.367 0 0.645 -0.066 0.832 -0.195 0.188 -0.137 0.281 -0.367 0.281 -0.691 0 -0.305 -0.094 -0.52 -0.281 -0.645 -0.18 -0.133 -0.426 -0.199 -0.73 -0.199"/>
  <path d="m 20.04 20.06 c 0.298 0.782 0.634 1.559 0.928 2.336 0.315 -0.791 0.642 -1.553 0.954 -2.336 l 1.017 0 c 0.207 1.787 0.284 3.551 0.35 5.273 l -1.148 0 0.08 -4.098 -0.808 1.948 -0.863 0 -0.778 -1.948 0.071 4.098 -1.148 0 c 0.072 -1.788 0.136 -3.533 0.338 -5.273"/>
 </g>
</svg>
