<svg xmlns="http://www.w3.org/2000/svg" viewBox="0 0 32 32">
 <path d="m 5.336 0 c -0.687 0 -1.336 0.676 -1.336 1.394 l 0 29.21 c 0 0.676 0.687 1.394 1.336 1.394 l 21.327 0 c 0.648 0 1.336 -0.717 1.336 -1.394 l 0.001 -21.606 l -9 -9 z" style="fill:#c19553;fill-opacity:1"/>
 <path d="m 4 24 0 6.668 c 0 0.648 0.688 1.332 1.332 1.332 l 21.336 0 c 0.645 0 1.332 -0.684 1.332 -1.332 l 0 -6.668 z" style="fill:#000;fill-opacity:0.196"/>
 <path d="m 21 9 7 7 0 -7 z" style="fill:#000;fill-opacity:0.196"/>
 <path d="m 19 0 8.992 9 -7.613 0 c -0.673 0 -1.378 -0.713 -1.378 -1.386 z" style="fill:#fff;fill-opacity:0.392"/>
 <rect width="3" height="3" x="9" style="fill:#f9f9f9;fill-opacity:1;stroke:none;fill-rule:evenodd"/>
 <rect width="3" height="3" x="12" y="3" style="fill:#f9f9f9;fill-opacity:1;stroke:none;fill-rule:evenodd"/>
 <rect width="3" height="3" x="9" y="6" style="fill:#f9f9f9;fill-opacity:1;stroke:none;fill-rule:evenodd"/>
 <rect width="3" height="3" x="12" y="9" style="fill:#f9f9f9;fill-opacity:1;stroke:none;fill-rule:evenodd"/>
 <rect width="3" height="3" x="9" y="12" style="fill:#f9f9f9;fill-opacity:1;stroke:none;fill-rule:evenodd"/>
 <rect width="6" height="6" x="9" y="16" style="fill:#f9f9f9;fill-opacity:1;stroke:none;fill-rule:evenodd"/>
 <path d="m 9.374 30.27 c 0.172 0 0.313 -0.015 0.422 -0.046 0.113 -0.038 0.203 -0.088 0.27 -0.145 0.066 -0.065 0.109 -0.137 0.133 -0.21 0.027 -0.084 0.039 -0.164 0.039 -0.244 0 -0.103 -0.031 -0.194 -0.09 -0.274 -0.059 -0.08 -0.137 -0.149 -0.23 -0.21 c -0.094 -0.065 -0.195 -0.118 -0.313 -0.168 -0.113 -0.053 -0.23 -0.103 -0.344 -0.145 -0.152 -0.053 -0.313 -0.114 -0.477 -0.187 -0.164 -0.069 -0.313 -0.156 -0.449 -0.263 -0.133 -0.11 -0.242 -0.24 -0.328 -0.396 -0.09 -0.16 -0.133 -0.358 -0.133 -0.594 c 0 -0.469 0.152 -0.834 0.461 -1.097 0.309 -0.263 0.738 -0.392 1.277 -0.392 0.313 0 0.586 0.034 0.813 0.103 0.238 0.069 0.434 0.149 0.594 0.232 l -0.297 0.766 c -0.137 -0.076 -0.289 -0.137 -0.461 -0.194 -0.164 -0.053 -0.355 -0.08 -0.574 -0.08 -0.535 0 -0.805 0.19 -0.805 0.571 0 0.099 0.027 0.183 0.082 0.259 0.055 0.069 0.125 0.133 0.207 0.194 0.086 0.053 0.184 0.103 0.289 0.145 0.109 0.042 0.215 0.084 0.316 0.118 0.16 0.061 0.324 0.13 0.496 0.202 0.172 0.072 0.332 0.168 0.473 0.29 0.148 0.118 0.27 0.27 0.363 0.453 0.094 0.175 0.141 0.4 0.141 0.674 0 0.469 -0.156 0.83 -0.469 1.09 c -0.309 0.251 -0.773 0.377 -1.406 0.377 -0.418 0 -0.758 -0.042 -1.01 -0.13 -0.25 -0.091 -0.441 -0.175 -0.566 -0.248 l 0.297 -0.808 c 0.145 0.088 0.32 0.168 0.523 0.244 0.207 0.072 0.461 0.11 0.754 0.11" style="fill:#fff"/>
 <path d="m 15.167 26 0 5 -0.952 0 0 -2.202 -1.264 0 0 2.202 -1.052 0 0 -5 1.052 0 0 1.972 1.264 0 0 -1.972 0.952 0" style="fill:#fff"/>
 <path d="m 19.05 31 -0.265 -1.154 -1.507 0 l -0.256 1.154 -1.168 0 c 0.466 -1.74 1.096 -3.408 1.647 -5 l 1.145 0 c 0.611 1.691 1.192 3.401 1.608 5 l -1.203 0 m -1 -4.03 c -0.245 0.682 -0.406 1.377 -0.556 2.053 l 1.103 0 c -0.13 -0.71 -0.346 -1.392 -0.547 -2.053" style="fill:#fff"/>
 <path d="m 22.243 26 c 0.289 0 0.555 0.034 0.789 0.098 0.234 0.064 0.438 0.163 0.605 0.295 0.172 0.132 0.301 0.302 0.387 0.51 0.094 0.204 0.141 0.442 0.141 0.718 0 0.291 -0.063 0.552 -0.18 0.786 -0.121 0.234 -0.32 0.412 -0.602 0.533 0.455 0.653 0.791 1.352 1.117 2.06 l -1.059 0 c -0.262 -0.662 -0.641 -1.255 -0.977 -1.818 l -0.527 0 0 1.818 -1.01 0 0 -4.872 c 0.438 -0.099 0.871 -0.106 1.313 -0.128 m 0.895 1.614 c 0 -0.261 -0.082 -0.45 -0.246 -0.574 -0.164 -0.121 -0.379 -0.181 -0.648 -0.181 -0.105 -0.003 -0.207 0.015 -0.305 0.023 l 0 1.485 0.223 0 c 0.344 0 0.594 -0.064 0.746 -0.193 0.152 -0.132 0.23 -0.317 0.23 -0.559" style="fill:#fff"/>
</svg>
