<svg xmlns="http://www.w3.org/2000/svg" viewBox="0 0 32 32">
 <path d="m 5.336 0 c -0.687 0 -1.336 0.676 -1.336 1.394 l 0 29.21 c 0 0.676 0.687 1.394 1.336 1.394 l 21.327 0 c 0.648 0 1.336 -0.717 1.336 -1.394 l 0.001 -21.606 -9 -9 z" style="fill:#e66f00;fill-opacity:1"/>
 <path d="m 21 9 7 7 0 -7 z" style="fill:#000;fill-opacity:0.196"/>
 <path d="m 19 0 8.992 9 -7.613 0 c -0.673 0 -1.378 -0.713 -1.378 -1.386 z" style="fill:#fff;fill-opacity:0.392"/>
 <g transform="matrix(1.3019455,0,0,1.3019455,-33.655593,1.3634433)" style="fill:#fff;fill-rule:evenodd"/>
 <g style="fill:#fff;fill-rule:evenodd">
  <path d="m 14.34 19.281 c 0 0 -0.484 0.266 0.344 0.355 c 1 0.109 1.516 0.094 2.621 -0.105 c 0 0 0.289 0.172 0.695 0.324 c -2.477 1 -5.605 -0.059 -3.66 -0.574"/>
  <path d="m 14.04 17.965 c 0 0 -0.543 0.383 0.285 0.465 c 1.074 0.105 1.918 0.113 3.383 -0.156 c 0 0 0.203 0.195 0.52 0.301 c -2.992 0.832 -6.332 0.066 -4.188 -0.609"/>
  <path d="m 16.59 15.738 c 0.609 0.664 -0.164 1.266 -0.164 1.266 c 0 0 1.551 -0.758 0.84 -1.707 c -0.664 -0.887 -1.176 -1.328 1.586 -2.848 c 0 0 -4.332 1.027 -2.262 3.289"/>
  <path d="m 19.863 20.254 c 0 0 0.359 0.277 -0.395 0.492 c -1.43 0.414 -5.949 0.535 -7.207 0.02 c -0.449 -0.188 0.395 -0.445 0.664 -0.5 c 0.277 -0.059 0.434 -0.047 0.434 -0.047 c -0.5 -0.336 -3.246 0.66 -1.391 0.945 c 5.05 0.773 9.207 -0.352 7.895 -0.91"/>
  <path d="m 14.57 16.605 c 0 0 -2.301 0.52 -0.813 0.707 c 0.625 0.078 1.875 0.059 3.043 -0.031 c 0.949 -0.078 1.906 -0.238 1.906 -0.238 c 0 0 -0.336 0.137 -0.578 0.293 c -2.336 0.582 -6.848 0.313 -5.551 -0.285 c 1.102 -0.504 1.992 -0.445 1.992 -0.445"/>
  <path d="m 18.695 18.793 c 2.375 -1.172 1.277 -2.297 0.512 -2.145 c -0.188 0.039 -0.27 0.07 -0.27 0.07 c 0 0 0.066 -0.105 0.203 -0.148 c 1.516 -0.504 2.68 1.492 -0.492 2.281 c 0 0 0.039 -0.031 0.047 -0.059"/>
  <path d="m 17.266 10 c 0 0 1.316 1.246 -1.246 3.164 c -2.055 1.539 -0.469 2.418 0 3.418 c -1.199 -1.023 -2.082 -1.93 -1.492 -2.77 c 0.867 -1.234 3.27 -1.832 2.738 -3.813"/>
  <path d="m 14.805 21.961 c 2.277 0.141 5.777 -0.074 5.863 -1.098 c 0 0 -0.16 0.387 -1.887 0.695 c -1.945 0.348 -4.344 0.305 -5.766 0.086 c 0 -0.004 0.293 0.227 1.789 0.316"/>
 </g>
 <path d="m 4 24 0 6.668 c 0 0.648 0.688 1.332 1.332 1.332 l 21.336 0 c 0.645 0 1.332 -0.684 1.332 -1.332 l 0 -6.668 z" style="fill:#000;fill-opacity:0.196"/>
 <g transform="matrix(1.089106,0,0,1.089106,-1.188863,-1.5628027)" style="fill:#fff">
  <path d="m 13.1 28.04 c 0 0.266 -0.035 0.519 -0.11 0.755 -0.067 0.232 -0.185 0.44 -0.354 0.618 -0.157 0.178 -0.37 0.319 -0.629 0.427 -0.26 0.1 -0.574 0.149 -0.948 0.149 -0.389 0 -0.712 -0.046 -0.971 -0.141 -0.26 -0.095 -0.48 -0.212 -0.661 -0.349 l 0.436 -0.867 c 0.157 0.095 0.326 0.187 0.511 0.274 0.193 0.091 0.385 0.133 0.586 0.133 0.295 0 0.535 -0.071 0.712 -0.22 0.185 -0.154 0.279 -0.436 0.279 -0.842 l 0 -2.684 -1.919 0 0 -0.904 3.067 0 0 3.651"/>
  <path d="m 16.864 29.891 -0.29 -1.088 -1.634 0 -0.277 1.088 -1.268 0 c 0.509 -1.913 1.136 -3.757 1.743 -5.509 l 1.327 0 c 0.665 1.865 1.249 3.754 1.705 5.509 l -1.306 0 m -1.092 -4.442 c -0.263 0.757 -0.444 1.699 -0.605 2.446 l 1.201 0 c -0.145 -0.78 -0.374 -1.721 -0.596 -2.446"/>
  <path d="m 20.03 24.29 c 0.321 0 0.615 0.034 0.874 0.105 0.263 0.071 0.487 0.184 0.677 0.331 0.189 0.151 0.332 0.344 0.429 0.574 0.104 0.226 0.155 0.494 0.155 0.804 0 0.323 -0.066 0.634 -0.201 0.898 -0.135 0.26 -0.356 0.461 -0.665 0.599 0.506 0.732 0.878 1.499 1.241 2.29 l -1.179 0 c -0.289 -0.743 -0.707 -1.391 -1.082 -2.02 l -0.653 0 0 2.02 -1.052 0 0 -5.458 c 0.379 -0.093 0.76 -0.103 1.137 -0.134 0.124 -0.008 0.228 -0.008 0.321 -0.008 m 0.994 1.806 c 0 -0.293 -0.093 -0.507 -0.274 -0.645 -0.182 -0.134 -0.421 -0.205 -0.719 -0.205 -0.117 -0.003 -0.296 0.02 -0.405 0.029 l 0 1.682 0.312 0 c 0.383 0 0.661 -0.071 0.831 -0.214 0.17 -0.151 0.255 -0.379 0.255 -0.647"/>
 </g>
</svg>
