<svg xmlns="http://www.w3.org/2000/svg" viewBox="0 0 32 32">
 <path d="m 5.336 0 c -0.687 0 -1.336 0.676 -1.336 1.394 l 0 29.21 c 0 0.676 0.687 1.394 1.336 1.394 l 21.327 0 c 0.648 0 1.336 -0.717 1.336 -1.394 l 0.001 -21.606 l -9 -9 z" style="fill:#c19553;fill-opacity:1"/>
 <path d="m 4 24 0 6.668 c 0 0.648 0.688 1.332 1.332 1.332 l 21.336 0 c 0.645 0 1.332 -0.684 1.332 -1.332 l 0 -6.668 z" style="fill:#000;fill-opacity:0.196"/>
 <path d="m 21 9 7 7 0 -7 z" style="fill:#000;fill-opacity:0.196"/>
 <path d="m 19 0 8.992 9 -7.613 0 c -0.673 0 -1.378 -0.713 -1.378 -1.386 z" style="fill:#fff;fill-opacity:0.392"/>
 <rect width="3" height="3" x="9" style="fill:#f9f9f9;fill-opacity:1;stroke:none;fill-rule:evenodd"/>
 <rect width="3" height="3" x="12" y="3" style="fill:#f9f9f9;fill-opacity:1;stroke:none;fill-rule:evenodd"/>
 <rect width="3" height="3" x="9" y="6" style="fill:#f9f9f9;fill-opacity:1;stroke:none;fill-rule:evenodd"/>
 <rect width="3" height="3" x="12" y="9" style="fill:#f9f9f9;fill-opacity:1;stroke:none;fill-rule:evenodd"/>
 <rect width="3" height="3" x="9" y="12" style="fill:#f9f9f9;fill-opacity:1;stroke:none;fill-rule:evenodd"/>
 <rect width="6" height="6" x="9" y="16" style="fill:#f9f9f9;fill-opacity:1;stroke:none;fill-rule:evenodd"/>
 <path d="m 9.574 30.27 c 0.172 0 0.313 -0.015 0.422 -0.046 0.113 -0.038 0.203 -0.088 0.27 -0.145 0.066 -0.065 0.109 -0.137 0.133 -0.21 0.027 -0.084 0.039 -0.164 0.039 -0.244 0 -0.103 -0.031 -0.194 -0.09 -0.274 -0.059 -0.08 -0.137 -0.149 -0.23 -0.21 -0.094 -0.065 -0.195 -0.118 -0.313 -0.168 c -0.113 -0.053 -0.23 -0.103 -0.344 -0.145 -0.152 -0.053 -0.313 -0.114 -0.477 -0.187 -0.164 -0.069 -0.313 -0.156 -0.449 -0.263 -0.133 -0.11 -0.242 -0.24 -0.328 -0.396 -0.09 -0.16 -0.133 -0.358 -0.133 -0.594 c 0 -0.469 0.152 -0.834 0.461 -1.097 0.309 -0.263 0.738 -0.392 1.277 -0.392 0.313 0 0.586 0.034 0.813 0.103 0.238 0.069 0.434 0.149 0.594 0.232 l -0.297 0.766 c -0.137 -0.076 -0.289 -0.137 -0.461 -0.194 -0.164 -0.053 -0.355 -0.08 -0.574 -0.08 -0.535 0 -0.805 0.19 -0.805 0.571 0 0.099 0.027 0.183 0.082 0.259 0.055 0.069 0.125 0.133 0.207 0.194 0.086 0.053 0.184 0.103 0.289 0.145 0.109 0.042 0.215 0.084 0.316 0.118 0.16 0.061 0.324 0.13 0.496 0.202 0.172 0.072 0.332 0.168 0.473 0.29 0.148 0.118 0.27 0.27 0.363 0.453 0.094 0.175 0.141 0.4 0.141 0.674 0 0.469 -0.156 0.83 -0.469 1.09 c -0.309 0.251 -0.773 0.377 -1.406 0.377 -0.418 0 -0.758 -0.042 -1.01 -0.13 -0.25 -0.091 -0.441 -0.175 -0.566 -0.248 l 0.297 -0.808 c 0.145 0.088 0.32 0.168 0.523 0.244 0.207 0.072 0.461 0.11 0.754 0.11" style="fill:#fff"/>
 <path d="m 11.9 31 0 -0.822 1.109 0 0 -3.352 -1.109 0 0 -0.826 3.227 0 0 0.826 -1.098 0 0 3.352 1.098 0 0 0.822 l -3.227 0" style="fill:#fff"/>
 <path d="m 19.495 26 0 0.826 -1.34 0 0 4.174 -1.016 0 0 -4.174 -1.34 0 0 -0.826 3.695 0" style="fill:#fff"/>
 <path d="m 22.98 31 c -0.275 -0.672 -0.586 -1.289 -0.961 -1.93 -0.386 0.608 -0.696 1.29 -0.999 1.93 l -1.12 0 c 0.425 -0.913 1.038 -1.856 1.513 -2.641 l -1.425 -2.359 1.14 0 0.891 1.64 0.932 -1.64 l 1.061 0 -1.387 2.336 c 0.589 0.861 1.049 1.739 1.475 2.664 l -1.12 0" style="fill:#fff"/>
</svg>
