<svg xmlns="http://www.w3.org/2000/svg" viewBox="0 0 32 32">
 <path d="m 5.336 0 c -0.687 0 -1.336 0.676 -1.336 1.394 l 0 29.21 c 0 0.676 0.687 1.394 1.336 1.394 l 21.327 0 c 0.648 0 1.336 -0.717 1.336 -1.394 l 0.001 -21.606 -9 -9 z" style="fill:#a33639;fill-opacity:1"/>
 <path d="m 21 9 7 7 0 -7 z" style="fill:#000;fill-opacity:0.196"/>
 <path d="m 19 0 8.992 9 -7.613 0 c -0.673 0 -1.378 -0.713 -1.378 -1.386 z" style="fill:#fff;fill-opacity:0.392"/>
 <g transform="matrix(1.1252748,0,0,1.1252748,-2.0043964,-1.5076938)" style="fill:#fff">
  <path d="m 16 12 c -2.945 0 -5.332 0.746 -5.332 1.668 l 0 1.332 c 0 0.922 2.387 1.668 5.332 1.668 2.945 0 5.332 -0.746 5.332 -1.668 l 0 -1.332 c 0 -0.922 -2.387 -1.668 -5.332 -1.668 z"/>
  <path d="m 15.984 17.332 c -2.391 0 -4.402 -0.488 -5.082 -1.164 -0.16 0.156 -0.234 0.324 -0.234 0.5 l 0 1.332 c 0 0.922 2.387 1.668 5.332 1.668 2.945 0 5.332 -0.746 5.332 -1.668 l 0 -1.332 c 0 -0.176 -0.094 -0.344 -0.25 -0.5 -0.68 0.676 -2.711 1.164 -5.098 1.164 z"/>
  <path d="m 15.984 20.332 c -2.391 0 -4.402 -0.488 -5.082 -1.164 -0.16 0.156 -0.234 0.324 -0.234 0.5 l 0 1.332 c 0 0.922 2.387 1.668 5.332 1.668 2.945 0 5.332 -0.746 5.332 -1.668 l 0 -1.332 c 0 -0.176 -0.094 -0.344 -0.25 -0.5 -0.68 0.676 -2.711 1.164 -5.098 1.164 z"/>
 </g>
</svg>
