<svg xmlns="http://www.w3.org/2000/svg" viewBox="0 0 32 32">
 <path d="m 5.336 0 c -0.687 0 -1.336 0.676 -1.336 1.394 l 0 29.21 c 0 0.676 0.687 1.394 1.336 1.394 l 21.327 0 c 0.648 0 1.336 -0.717 1.336 -1.394 l 0.001 -21.606 l -9 -9 z" style="fill:#c19553;fill-opacity:1"/>
 <path d="m 4 24 0 6.668 c 0 0.648 0.688 1.332 1.332 1.332 l 21.336 0 c 0.645 0 1.332 -0.684 1.332 -1.332 l 0 -6.668 z" style="fill:#000;fill-opacity:0.196"/>
 <path d="m 12.804 24.994 0 0.991 -1.652 0 0 5.01 -1.152 0 0 -5.01 -1.796 0 0 -0.991 4.6 0" style="fill:#fff"/>
 <path d="m 21 9 7 7 0 -7 z" style="fill:#000;fill-opacity:0.196"/>
 <path d="m 19 0 8.992 9 -7.613 0 c -0.673 0 -1.378 -0.713 -1.378 -1.386 z" style="fill:#fff;fill-opacity:0.392"/>
 <path d="m 23.13 25.829 c -0.926 1.382 -1.753 2.779 -2.533 4.179 l 2.624 0 0 0.986 -4.02 0 0 -0.688 c 0.773 -1.498 1.643 -2.942 2.476 -4.321 l -2.348 0 0 -0.991 3.804 0 0 0.835" style="fill:#fff"/>
 <rect width="3" height="3" x="9" style="fill:#f9f9f9;fill-opacity:1;stroke:none;fill-rule:evenodd"/>
 <rect width="3" height="3" x="12" y="3" style="fill:#f9f9f9;fill-opacity:1;stroke:none;fill-rule:evenodd"/>
 <rect width="3" height="3" x="9" y="6" style="fill:#f9f9f9;fill-opacity:1;stroke:none;fill-rule:evenodd"/>
 <rect width="3" height="3" x="12" y="9" style="fill:#f9f9f9;fill-opacity:1;stroke:none;fill-rule:evenodd"/>
 <rect width="3" height="3" x="9" y="12" style="fill:#f9f9f9;fill-opacity:1;stroke:none;fill-rule:evenodd"/>
 <rect width="6" height="6" x="9" y="16" style="fill:#f9f9f9;fill-opacity:1;stroke:none;fill-rule:evenodd"/>
 <path d="m 17.09 31 c -0.339 -0.807 -0.736 -1.566 -1.111 -2.296 -0.431 0.783 -0.788 1.528 -1.152 2.296 l -1.424 0 c 0.526 -1.102 1.209 -2.136 1.837 -3.172 l -1.728 -2.828 l 1.42 0 1.048 1.921 l 1.102 -1.921 l 1.325 0 -1.688 2.801 c 0.714 1.035 1.28 2.089 1.792 3.199 l -1.42 0" style="fill:#fff"/>
</svg>
