<svg xmlns="http://www.w3.org/2000/svg" viewBox="0 0 32 32">
 <path d="m 5.336 0 c -0.687 0 -1.336 0.676 -1.336 1.394 l 0 29.21 c 0 0.676 0.687 1.394 1.336 1.394 l 21.327 0 c 0.648 0 1.336 -0.717 1.336 -1.394 l 0.001 -21.606 l -9 -9 z" style="fill:#cc2929;fill-opacity:1"/>
 <path d="m 9.695 22.471 0.35 2.678 c 0 0 4.61 1.454 6.925 -5.149 l 4.03 0 l 0 -2.949 -2.512 0 c 0 0 1.173 -3.074 3.768 -3.336 0 -0.064 -0.281 -2.549 -0.281 -2.549 0 0 -4.279 -0.589 -6.879 5.752 -2.245 6.207 -5.402 5.554 -5.402 5.554 z" style="fill:#fff;fill-rule:evenodd"/>
 <path d="m 21 9 7 7 0 -7 z" style="fill:#000;fill-opacity:0.196"/>
 <path d="m 19 0 8.992 9 -7.613 0 c -0.673 0 -1.378 -0.713 -1.378 -1.386 z" style="fill:#fff;fill-opacity:0.392"/>
</svg>
