<svg xmlns="http://www.w3.org/2000/svg" viewBox="0 0 32 32">
 <defs>
  
 </defs>
 <path d="m 5.336 0 c -0.687 0 -1.336 0.676 -1.336 1.394 l 0 29.21 c 0 0.676 0.687 1.394 1.336 1.394 l 21.327 0 c 0.648 0 1.336 -0.717 1.336 -1.394 l 0.001 -21.606 -9 -9 z" style="fill:#a6a6a6;fill-opacity:1"/>
 <path d="m 21 9 7 7 0 -7 z" style="fill:#000;fill-opacity:0.196"/>
 <path d="m 19 0 8.992 9 -7.613 0 c -0.673 0 -1.378 -0.713 -1.378 -1.386 z" style="fill:#fff;fill-opacity:0.392"/>
 <path d="m 19.231 14.889 a 0.538 0.556 0 0 1 -0.538 0.556 0.538 0.556 0 0 1 -0.538 -0.556 0.538 0.556 0 0 1 0.538 -0.556 0.538 0.556 0 0 1 0.538 0.556 z m 1.077 1.111 a 0.538 0.556 0 0 1 -0.538 0.556 0.538 0.556 0 0 1 -0.538 -0.556 0.538 0.556 0 0 1 0.538 -0.556 0.538 0.556 0 0 1 0.538 0.556 z m 1.077 -1.111 a 0.538 0.556 0 0 1 -0.538 0.556 0.538 0.556 0 0 1 -0.538 -0.556 0.538 0.556 0 0 1 0.538 -0.556 0.538 0.556 0 0 1 0.538 0.556 z m -1.077 -1.111 a 0.538 0.556 0 0 1 -0.538 0.556 0.538 0.556 0 0 1 -0.538 -0.556 0.538 0.556 0 0 1 0.538 -0.556 0.538 0.556 0 0 1 0.538 0.556 z m -7 1.111 a 1.077 1.111 0 0 1 -1.077 1.111 1.077 1.111 0 0 1 -1.077 -1.111 1.077 1.111 0 0 1 1.077 -1.111 1.077 1.111 0 0 1 1.077 1.111 z m -0.952 -3.887 c -0.387 0.016 -0.706 0.187 -0.925 0.359 C 10.133 12.376 9 16.611 9 18.853 c 0 2.242 0.499 2.146 0.933 2.146 0.433 0 0.978 -0.307 1.454 -0.74 1.315 -1.194 1.92 -2.593 3.228 -2.593 l 2.77 0 c 1.307 0 1.913 1.399 3.228 2.593 0.476 0.433 1.021 0.74 1.454 0.74 0.433 0 0.933 0.095 0.933 -2.146 0 -2.242 -1.133 -6.477 -2.43 -7.493 -0.351 -0.275 -0.955 -0.548 -1.691 -0.188 -0.493 0.242 -0.934 0.383 -1.579 0.383 l -2.6 0 c -0.644 0 -1.085 -0.141 -1.579 -0.383 -0.276 -0.135 -0.533 -0.181 -0.766 -0.171 z" style="fill:#fff;opacity:1;fill-opacity:1;stroke:none;fill-rule:nonzero"/>
 <path d="m 4 24 0 6.668 c 0 0.648 0.688 1.332 1.332 1.332 l 21.336 0 c 0.645 0 1.332 -0.684 1.332 -1.332 l 0 -6.668" style="fill:#000;fill-opacity:0.196"/>
 <path d="m 13.609 25.994 q -0.403 0 -0.677 0.149 -0.275 0.149 -0.458 0.418 -0.174 0.26 -0.256 0.632 -0.073 0.362 -0.073 0.808 0 1.031 0.32 1.523 0.32 0.483 0.943 0.483 0.101 0 0.22 -0.009 0.119 -0.009 0.22 -0.028 l 0 -2.099 1.126 0 0 2.87 q -0.201 0.074 -0.632 0.167 q -0.421 0.093 -1.025 0.093 -0.531 0 -0.961 -0.186 -0.421 -0.195 -0.723 -0.567 -0.302 -0.381 -0.467 -0.938 -0.165 -0.567 -0.165 -1.31 q 0 -0.734 0.192 -1.291 0.192 -0.567 0.522 -0.947 0.33 -0.381 0.778 -0.567 0.449 -0.195 0.961 -0.195 0.33 0 0.586 0.056 0.265 0.046 0.458 0.111 0.192 0.065 0.311 0.139 0.128 0.074 0.192 0.111 l -0.293 0.91 q -0.201 -0.13 -0.494 -0.232 -0.293 -0.102 -0.604 -0.102 z" style="fill:#fff;fill-opacity:1;stroke:none"/>
 <path d="m 20 29.15 c 0 0.353 -0.061 0.65 -0.183 0.89 -0.122 0.233 -0.289 0.423 -0.501 0.568 -0.206 0.139 -0.453 0.24 -0.742 0.303 c -0.283 0.057 -0.588 0.085 -0.916 0.085 -0.263 0 -0.537 -0.016 -0.819 -0.047 -0.283 -0.025 -0.562 -0.066 -0.839 -0.123 l 0 -5.688 c 0.225 -0.038 0.472 -0.069 0.742 -0.095 0.27 -0.032 0.537 -0.047 0.8 -0.047 0.45 0 0.816 0.047 1.099 0.142 0.283 0.088 0.504 0.208 0.665 0.36 0.161 0.145 0.27 0.309 0.328 0.492 0.058 0.183 0.087 0.366 0.087 0.549 0 0.278 -0.071 0.524 -0.212 0.738 -0.135 0.215 -0.318 0.385 -0.549 0.511 0.405 0.145 0.678 0.341 0.819 0.587 0.148 0.246 0.222 0.505 0.222 0.776 z m -3 -0.795 0 1.59 c 0.084 0.013 0.199 0.022 0.296 0.028 0.103 0.006 0.202 0.009 0.299 0.009 0.135 0 0.267 -0.009 0.395 -0.028 0.129 -0.025 0.241 -0.066 0.337 -0.123 0.103 -0.063 0.186 -0.148 0.251 -0.256 0.064 -0.114 0.096 -0.256 0.096 -0.426 0 -0.284 -0.093 -0.486 -0.28 -0.606 -0.18 -0.126 -0.424 -0.189 -0.733 -0.189 l -0.662 0 z m 1.181 -1.415 c 0.175 -0.093 0.217 -0.413 0.156 -0.61 -0.045 -0.088 -0.106 -0.155 -0.183 -0.199 -0.077 -0.05 -0.167 -0.082 -0.27 -0.095 -0.103 -0.019 -0.209 -0.028 -0.318 -0.028 -0.09 0 -0.183 0.003 -0.28 0.009 c -0.096 0.006 -0.209 0.016 -0.286 0.028 l 0 0.95 l 0.489 0 c 0 0 0.564 0.039 0.692 -0.056 z" style="fill:#fff;fill-opacity:1;stroke:none"/>
</svg>
