<svg xmlns="http://www.w3.org/2000/svg" viewBox="0 0 32 32">
 <path d="m 5.336 0 c -0.687 0 -1.336 0.676 -1.336 1.394 l 0 29.21 c 0 0.676 0.687 1.394 1.336 1.394 l 21.327 0 c 0.648 0 1.336 -0.717 1.336 -1.394 l 0.001 -21.606 l -9 -9 z" style="fill:#6b7daa;fill-opacity:1"/>
 <path d="m 21 9 7 7 0 -7 z" style="fill:#000;fill-opacity:0.196"/>
 <path d="m 19 0 8.992 9 -7.613 0 c -0.673 0 -1.378 -0.713 -1.378 -1.386 z" style="fill:#fff;fill-opacity:0.392"/>
 <path d="m 18 12 2 0 c 2 0 2 2 2 2 l 0 3 c 0 0.785 -1 2 -1 2 l 0 1 2 1.429 l 0 1.571 -9 0 0 -1.422 3 -1.578 0 -1 c 0 0 -1 -1.215 -1 -2 l 0 -3 c 0 0 0 -2 2 -2 z m -5.112 1.571 1.112 0.047 0 3.086 c 0 0.785 1 2.296 1 2.296 l -2 1.644 0 1.356 -4 0 0 -0.595 3 -1.405 0 -0.872 c 0 0 -1.45 -1.654 -1.442 -2.44 l 0 -0.761 c 0 -2.356 2.329 -2.356 2.329 -2.356 z" style="fill:#fff"/>
</svg>
