<svg xmlns="http://www.w3.org/2000/svg" viewBox="0 0 32 32">
 <path d="m 5.336 0 c -0.687 0 -1.336 0.676 -1.336 1.394 l 0 29.21 c 0 0.676 0.687 1.394 1.336 1.394 l 21.327 0 c 0.648 0 1.336 -0.717 1.336 -1.394 l 0.001 -21.606 -9 -9 z" style="fill:#dcdcdc;fill-opacity:1"/>
 <path d="m 21 9 7 7 0 -7 z" style="fill:#000;fill-opacity:0.196"/>
 <path d="m 19 0 8.992 9 -7.613 0 c -0.673 0 -1.378 -0.713 -1.378 -1.386 z" style="fill:#fff;fill-opacity:0.392"/>
 <path d="m 16 11 c 0 0 4.995 -0.317 5 3 l 0 3 c 0 0 1 0.066 1 0.818 l 0 6.989 c 0 0.631 -0.613 1.193 -1.286 1.193 l -9.429 0 c -0.673 0 -1.286 -0.562 -1.286 -1.193 l 0 -6.989 c 0 -0.752 1 -0.818 1 -0.818 l 0 -3 c 0 -3 5 -3 5 -3 z m 0 2.045 c 0 0 -3 -0.116 -3 2.374 l 0 1.58 l 6 0 0 -1.568 c 0 -2.49 -3 -2.386 -3 -2.386 z" style="fill:#888;fill-opacity:1;color:#000"/>
</svg>
