<svg xmlns="http://www.w3.org/2000/svg" viewBox="0 0 32 32">
 <path d="m 5.336 0 c -0.687 0 -1.336 0.676 -1.336 1.394 l 0 29.21 c 0 0.676 0.687 1.394 1.336 1.394 l 21.327 0 c 0.648 0 1.336 -0.717 1.336 -1.394 l 0.001 -21.606 l -9 -9 z" style="fill:#13a553;fill-opacity:1"/>
 <path d="m 21 9 7 7 0 -7 z" style="fill:#000;fill-opacity:0.196"/>
 <path d="m 19 0 8.992 9 -7.613 0 c -0.673 0 -1.378 -0.713 -1.378 -1.386 z" style="fill:#fff;fill-opacity:0.392"/>
 <path d="m 12 14 0 1 11 0 0 -1 z" style="fill:#f9f9f9;fill-opacity:1"/>
 <path d="m 12 16 0 1 11 0 0 -1 z" style="fill:#f9f9f9;fill-opacity:1"/>
 <path d="m 12 18 0 1 11 0 0 -1 z" style="fill:#f9f9f9;fill-opacity:1"/>
 <path d="m 12 20 0 1 11 0 0 -1 z" style="fill:#f9f9f9;fill-opacity:1"/>
 <path d="m 12 22 0 1 11 0 0 -1 z" style="fill:#f9f9f9;fill-opacity:1"/>
 <path d="m 12 24 0 1 11 0 0 -1 z" style="fill:#f9f9f9;fill-opacity:1"/>
 <rect width="2" height="1" x="9" y="14" style="fill:#f9f9f9;fill-opacity:1;stroke:none"/>
 <rect width="2" height="1" x="9" y="16" style="fill:#f9f9f9;fill-opacity:1;stroke:none"/>
 <rect width="2" height="1" x="9" y="18" style="fill:#f9f9f9;fill-opacity:1;stroke:none"/>
 <rect width="2" height="1" x="9" y="20" style="fill:#f9f9f9;fill-opacity:1;stroke:none"/>
 <rect width="2" height="1" x="9" y="22" style="fill:#f9f9f9;fill-opacity:1;stroke:none"/>
 <rect width="2" height="1" x="9" y="24" style="fill:#f9f9f9;fill-opacity:1;stroke:none"/>
</svg>
