<svg xmlns="http://www.w3.org/2000/svg" viewBox="0 0 32 32">
 <path d="m 5.336 0 c -0.687 0 -1.336 0.676 -1.336 1.394 l 0 29.21 c 0 0.676 0.687 1.394 1.336 1.394 l 21.327 0 c 0.648 0 1.336 -0.717 1.336 -1.394 l 0.001 -21.606 -9 -9 z" style="fill:#d14626;fill-opacity:1"/>
 <path d="m 4 24 0 6.668 c 0 0.648 0.688 1.332 1.332 1.332 l 21.336 0 c 0.645 0 1.332 -0.684 1.332 -1.332 l 0 -6.668 z" style="fill:#000;fill-opacity:0.196"/>
 <g transform="matrix(1.0489172,0,0,1.0489172,-0.78852737,-0.3581414)" style="fill:#fff">
  <path d="m 10.4 24.17 c 0.292 0.906 0.546 1.724 0.812 2.561 0.285 -0.857 0.576 -1.712 0.857 -2.561 l 0.951 0 c 0.183 1.941 0.246 3.85 0.301 5.72 l -1.039 0 0.093 -4.443 -0.824 2.399 -0.675 0 -0.777 -2.399 0.085 4.443 -1.043 0 c 0.068 -1.938 0.117 -3.831 0.294 -5.72"/>
  <path d="m 16.558 25.07 c -0.27 0 -0.496 0.048 -0.68 0.147 -0.184 0.095 -0.34 0.234 -0.461 0.411 -0.117 0.169 -0.203 0.377 -0.258 0.619 -0.051 0.238 -0.074 0.507 -0.074 0.797 0 0.68 0.109 1.178 0.32 1.503 0.215 0.316 0.531 0.476 0.949 0.476 0.066 0 0.141 -0.004 0.223 -0.009 0.078 -0.009 0.152 -0.017 0.219 -0.03 l 0 -2.066 1.133 0 0 2.828 c -0.137 0.048 -0.348 0.104 -0.637 0.165 -0.281 0.061 -0.625 0.091 -1.027 0.091 -0.359 0 -0.68 -0.061 -0.969 -0.182 -0.281 -0.13 -0.523 -0.316 -0.727 -0.559 -0.203 -0.251 -0.359 -0.559 -0.469 -0.927 -0.109 -0.372 -0.164 -0.801 -0.164 -1.29 0 -0.481 0.063 -0.905 0.191 -1.269 0.129 -0.372 0.305 -0.684 0.523 -0.935 0.223 -0.251 0.484 -0.437 0.785 -0.559 0.301 -0.13 0.621 -0.191 0.965 -0.191 0.219 0 0.418 0.017 0.59 0.052 0.176 0.03 0.328 0.069 0.457 0.113 0.129 0.043 0.234 0.087 0.316 0.134 0.086 0.052 0.148 0.087 0.191 0.113 l -0.293 0.896 c -0.137 -0.087 -0.301 -0.16 -0.5 -0.23 -0.195 -0.065 -0.398 -0.1 -0.605 -0.1"/>
  <path d="m 20.383 24.17 c 0.727 0 1.285 0.151 1.688 0.45 0.398 0.294 0.598 0.774 0.598 1.444 0 0.674 -0.203 1.167 -0.609 1.47 -0.398 0.298 -0.965 0.45 -1.703 0.45 l -0.402 0 0 1.907 -1.133 0 0 -5.582 c 0.522 -0.111 1.038 -0.114 1.563 -0.138 m 0.129 0.981 c -0.198 -0.004 -0.361 0.017 -0.559 0.026 l 0 1.829 0.461 0 c 0.359 0 0.633 -0.074 0.816 -0.212 0.184 -0.147 0.277 -0.393 0.277 -0.739 0 -0.329 -0.094 -0.562 -0.277 -0.696 c -0.176 -0.138 -0.418 -0.208 -0.719 -0.208"/>
 </g>
 <path d="m 21 9 7 7 0 -7 z" style="fill:#000;fill-opacity:0.196"/>
 <path d="m 19 0 8.992 9 -7.613 0 c -0.673 0 -1.378 -0.713 -1.378 -1.386 z" style="fill:#fff;fill-opacity:0.392"/>
 <path d="m 8 12 5 0 0 3 -5 0 z" style="fill:#fff"/>
 <path d="m 8 17 5 0 0 3 -5 0 z" style="fill:#fff"/>
 <path d="m 20 10.993 0 4.01 l 4 0 c 0 -2.214 -1.791 -4.01 -4 -4.01 z" style="fill:#fff"/>
 <path d="m 19 12 c -2.21 0 -4 1.79 -4 4 c 0 2.21 1.792 4 4 4 c 2.21 0 3.998 -1.79 3.998 -4 l -3.998 0 z" style="fill:#fff"/>
</svg>
