<svg xmlns="http://www.w3.org/2000/svg" viewBox="0 0 32 32">
 <path d="m 5.336 0 c -0.687 0 -1.336 0.676 -1.336 1.394 l 0 29.21 c 0 0.676 0.687 1.394 1.336 1.394 l 21.327 0 c 0.648 0 1.336 -0.717 1.336 -1.394 l 0.001 -21.606 l -9 -9 z" style="fill:#dcdcdc;fill-opacity:1"/>
 <path d="m 21 9 7 7 0 -7 z" style="fill:#000;fill-opacity:0.196"/>
 <path d="m 19 0 8.992 9 -7.613 0 c -0.673 0 -1.378 -0.713 -1.378 -1.386 z" style="fill:#fff;fill-opacity:0.392"/>
 <g style="fill:#888">
  <path d="m 20.254 14.707 c 0.754 0.23 0.094 1.309 1.176 1.836 c 1.234 0.602 1.848 -0.922 2.59 0.168 c 0.742 1.086 -1.023 0.918 -0.977 2.195 c 0.051 1.277 1.801 1.01 1.145 2.137 c -0.656 1.125 -1.387 -0.355 -2.57 0.32 c -1.188 0.676 -0.051 1.926 -1.449 1.969 c -1.398 0.043 -0.359 -1.27 -1.598 -1.875 c -1.234 -0.602 -1.848 0.922 -2.59 -0.164 c -0.742 -1.09 1.023 -0.918 0.977 -2.199 c -0.051 -1.277 -1.801 -1.01 -1.145 -2.133 c 0.656 -1.129 1.387 0.352 2.57 -0.324 c 1.188 -0.676 0.051 -1.926 1.449 -1.969 c 0.176 -0.004 0.313 0.004 0.422 0.039 m -0.016 3.254 c -0.621 -0.121 -1.234 0.246 -1.367 0.82 c -0.133 0.57 0.266 1.137 0.891 1.258 c 0.621 0.121 1.234 -0.242 1.367 -0.816 c 0.133 -0.574 -0.266 -1.141 -0.891 -1.262 Z"/>
  <path d="m 14.254 9.371 c 0.754 0.23 0.094 1.309 1.176 1.836 c 1.234 0.605 1.848 -0.918 2.59 0.168 c 0.742 1.086 -1.023 0.918 -0.977 2.199 c 0.051 1.277 1.801 1 1.145 2.133 c -0.656 1.129 -1.387 -0.352 -2.57 0.324 c -1.188 0.676 -0.051 1.926 -1.449 1.969 c -1.398 0.039 -0.359 -1.27 -1.598 -1.875 c -1.234 -0.602 -1.848 0.918 -2.59 -0.168 c -0.742 -1.086 1.023 -0.918 0.977 -2.195 c -0.051 -1.277 -1.801 -1.01 -1.145 -2.137 c 0.656 -1.129 1.387 0.352 2.57 -0.324 c 1.188 -0.676 0.051 -1.926 1.449 -1.965 c 0.176 -0.008 0.313 0.004 0.422 0.035 m -0.016 3.258 c -0.621 -0.125 -1.234 0.242 -1.367 0.816 c -0.133 0.574 0.266 1.141 0.891 1.262 c 0.621 0.121 1.234 -0.246 1.367 -0.82 c 0.133 -0.574 -0.266 -1.137 -0.891 -1.258 Z"/>
  <path d="m 12.254 16.707 c 0.754 0.23 0.094 1.309 1.176 1.836 c 1.234 0.602 1.848 -0.922 2.59 0.168 c 0.742 1.086 -1.023 0.918 -0.977 2.195 c 0.051 1.277 1.801 1.01 1.145 2.137 c -0.656 1.125 -1.387 -0.355 -2.57 0.32 c -1.188 0.676 -0.051 1.926 -1.449 1.969 c -1.398 0.043 -0.359 -1.27 -1.598 -1.875 c -1.234 -0.602 -1.848 0.922 -2.59 -0.164 c -0.742 -1.09 1.023 -0.918 0.977 -2.199 c -0.051 -1.277 -1.801 -1.01 -1.145 -2.133 c 0.656 -1.129 1.387 0.352 2.57 -0.324 c 1.188 -0.676 0.051 -1.926 1.449 -1.969 c 0.176 -0.004 0.313 0.004 0.422 0.039 m -0.016 3.254 c -0.621 -0.121 -1.234 0.246 -1.367 0.82 c -0.133 0.57 0.266 1.137 0.891 1.258 c 0.621 0.121 1.234 -0.242 1.367 -0.816 c 0.133 -0.574 -0.266 -1.141 -0.891 -1.262 Z"/>
 </g>
</svg>
