<svg xmlns="http://www.w3.org/2000/svg" viewBox="0 0 32 32">
 <defs>
  
 </defs>
 <path d="m 5.336 0 c -0.687 0 -1.336 0.676 -1.336 1.394 l 0 29.21 c 0 0.676 0.687 1.394 1.336 1.394 l 21.327 0 c 0.648 0 1.336 -0.717 1.336 -1.394 l 0.001 -21.606 -9 -9 z" style="fill:#757d32;fill-opacity:1"/>
 <path d="m 21 9 7 7 0 -7 z" style="fill:#000;fill-opacity:0.196"/>
 <path d="m 19 0 8.992 9 -7.613 0 c -0.673 0 -1.378 -0.713 -1.378 -1.386 z" style="fill:#fff;fill-opacity:0.392"/>
 <path d="m 13 10 0.014 9.908 2.199 -2.242 l 1.759 3.335 1.589 -0.786 -1.564 -3.296 3.153 -0.001" style="visibility:visible;fill:#f9f9f9;fill-opacity:1;stroke:none;display:inline;color:#000;fill-rule:nonzero"/>
 <path d="m 4 24 0 6.668 c 0 0.648 0.688 1.332 1.332 1.332 l 21.336 0 c 0.645 0 1.332 -0.684 1.332 -1.332 l 0 -6.668" style="fill:#000;fill-opacity:0.196"/>
 <path d="m 11.434 31 q -1.186 0 -1.81 -0.78 q -0.624 -0.78 -0.624 -2.22 q 0 -0.715 0.19 -1.272 0.19 -0.557 0.525 -0.938 0.344 -0.39 0.805 -0.585 0.471 -0.204 1.023 -0.204 0.299 0 0.534 0.056 0.244 0.046 0.425 0.111 0.181 0.065 0.299 0.139 0.127 0.074 0.19 0.111 l -0.29 0.91 q -0.208 -0.139 -0.507 -0.232 -0.29 -0.102 -0.67 -0.102 -0.262 0 -0.516 0.102 -0.244 0.093 -0.443 0.325 -0.19 0.223 -0.317 0.604 -0.118 0.381 -0.118 0.947 0 0.985 0.326 1.514 0.335 0.52 1.086 0.52 0.434 0 0.715 -0.102 0.29 -0.102 0.462 -0.204 l 0.281 0.901 q -0.235 0.149 -0.643 0.279 -0.398 0.121 -0.923 0.121 z" style="fill:#fff;fill-opacity:1;stroke:none"/>
 <path d="m 15.981 31 q -0.569 0 -0.957 -0.152 q -0.379 -0.161 -0.607 -0.456 -0.227 -0.294 -0.322 -0.712 -0.095 -0.418 -0.095 -0.93 l 0 -3.75 1.175 0 0 3.674 q 0 0.37 0.038 0.627 0.038 0.247 0.123 0.399 0.095 0.152 0.256 0.218 0.161 0.066 0.408 0.066 0.246 0 0.408 -0.066 0.161 -0.066 0.256 -0.218 0.095 -0.161 0.133 -0.408 0.038 -0.256 0.038 -0.627 l 0 -3.665 1.166 0 0 3.75 q 0 0.513 -0.095 0.93 -0.095 0.418 -0.332 0.712 -0.237 0.294 -0.626 0.456 -0.389 0.152 -0.967 0.152 z" style="fill:#fff;fill-opacity:1;stroke:none"/>
 <path d="m 20.471 25 q 0.487 0 0.883 0.115 0.395 0.115 0.68 0.355 0.285 0.24 0.432 0.613 0.156 0.364 0.156 0.863 0 0.518 -0.202 0.939 -0.202 0.422 -0.671 0.642 0.156 0.249 0.331 0.556 0.175 0.297 0.34 0.633 0.166 0.326 0.313 0.661 q 0.156 0.326 0.267 0.623 l -1.186 0 q -0.211 -0.575 -0.497 -1.102 -0.276 -0.537 -0.598 -1.083 l -0.589 0 0 2.185 l -1.131 0 0 -5.847 q 0.166 -0.038 0.359 -0.067 0.202 -0.038 0.405 -0.048 0.202 -0.019 0.386 -0.029 0.184 -0.01 0.322 -0.01 z m 1 1.936 q 0 -0.47 -0.276 -0.69 -0.276 -0.22 -0.726 -0.22 -0.064 0 -0.156 0.01 -0.092 0 -0.184 0.019 l 0 1.783 0.248 0 q 0.579 0 0.837 -0.23 0.257 -0.24 0.257 -0.671 z" style="fill:#fff;fill-opacity:1;stroke:none"/>
</svg>
