<svg xmlns="http://www.w3.org/2000/svg" viewBox="0 0 32 32">
 <path d="m 5.336 0 c -0.687 0 -1.336 0.676 -1.336 1.394 l 0 29.21 c 0 0.676 0.687 1.394 1.336 1.394 l 21.327 0 c 0.648 0 1.336 -0.717 1.336 -1.394 l 0.001 -21.606 -9 -9 z" style="fill:#38a34e;fill-opacity:1"/>
 <path d="m 21 9 7 7 0 -7 z" style="fill:#000;fill-opacity:0.196"/>
 <path d="m 19 0 8.992 9 -7.613 0 c -0.673 0 -1.378 -0.713 -1.378 -1.386 z" style="fill:#fff;fill-opacity:0.392"/>
 <path d="m 11.645 11 c -0.352 0.033 -0.652 0.406 -0.645 0.802 l 0 8.415 c 0.004 0.414 0.333 0.787 0.703 0.784 l 8.612 0 c 0.363 -0.007 0.681 -0.373 0.685 -0.784 l 0 -8.415 c 0.007 -0.417 -0.315 -0.798 -0.685 -0.802 z m 0.355 1 l 8 0 0 5.701 -2.352 -2.658 -1.491 1.388 l -1.963 -2.461 -2.194 2.83" style="fill:#fff"/>
 <path d="m 4 24 0 6.668 c 0 0.648 0.688 1.332 1.332 1.332 l 21.336 0 c 0.645 0 1.332 -0.684 1.332 -1.332 l 0 -6.668 z" style="fill:#000;fill-opacity:0.196"/>
 <path d="m 10.629 24.947 c 0.751 0 1.335 0.157 1.748 0.471 c 0.417 0.31 0.624 0.821 0.624 1.526 c 0 0.718 -0.211 1.234 -0.632 1.557 -0.417 0.314 -1 0.476 -1.772 0.476 l -0.487 0 0 2.02 -1.11 0 0 -5.906 c 0.581 -0.118 1.088 -0.121 1.629 -0.143 m 0.131 1.032 c -0.205 -0.005 -0.445 0.02 -0.65 0.031 l 0 1.93 0.546 0 c 0.377 0 0.659 -0.072 0.85 -0.22 0.191 -0.157 0.286 -0.417 0.286 -0.785 0 -0.346 -0.095 -0.592 -0.286 -0.732 -0.183 -0.148 -0.433 -0.224 -0.747 -0.224" style="fill:#fff"/>
 <path d="m 22.11 31 c -0.332 -0.807 -0.72 -1.566 -1.088 -2.296 -0.422 0.783 -0.772 1.528 -1.128 2.296 l -1.394 0 c 0.514 -1.102 1.184 -2.136 1.798 -3.172 l -1.692 -2.828 1.39 0 1.026 1.921 1.079 -1.921 l 1.297 0 -1.652 2.801 c 0.699 1.035 1.253 2.089 1.754 3.199 l -1.39 0" style="fill:#fff"/>
 <path d="m 16.177 31.05 c -0.836 0 -1.474 -0.264 -1.916 -0.795 c -0.442 -0.527 -0.661 -1.278 -0.661 -2.257 c 0 -0.483 0.068 -0.916 0.203 -1.291 0.131 -0.38 0.319 -0.697 0.554 -0.956 0.243 -0.264 0.526 -0.46 0.852 -0.594 c 0.335 -0.139 0.693 -0.206 1.083 -0.206 c 0.211 0 0.398 0.018 0.566 0.054 0.171 0.031 0.323 0.072 0.45 0.116 0.127 0.045 0.235 0.089 0.315 0.139 0.092 0.054 0.159 0.089 0.203 0.116 l -0.307 0.925 c -0.147 -0.094 -0.327 -0.174 -0.538 -0.237 -0.203 -0.067 -0.438 -0.103 -0.709 -0.103 -0.183 0 -0.366 0.036 -0.546 0.103 -0.171 0.063 -0.327 0.174 -0.47 0.331 -0.131 0.152 -0.243 0.358 -0.335 0.612 -0.084 0.259 -0.123 0.581 -0.123 0.965 0 0.666 0.116 1.18 0.343 1.542 0.239 0.349 0.621 0.527 1.151 0.527 0.307 0 0.558 -0.036 0.757 -0.103 0.203 -0.072 0.366 -0.139 0.49 -0.21 l 0.295 0.916 c -0.163 0.103 -0.39 0.197 -0.677 0.286 c -0.283 0.08 -0.609 0.121 -0.98 0.121" style="fill:#fff"/>
</svg>
