<svg xmlns="http://www.w3.org/2000/svg" viewBox="0 0 32 32">
 <path d="m 5.336 0 c -0.687 0 -1.336 0.676 -1.336 1.394 l 0 29.21 c 0 0.676 0.687 1.394 1.336 1.394 l 21.327 0 c 0.648 0 1.336 -0.717 1.336 -1.394 l 0.001 -21.606 -9 -9 z" style="fill:#38a34e;fill-opacity:1"/>
 <path d="m 21 9 7 7 0 -7 z" style="fill:#000;fill-opacity:0.196"/>
 <path d="m 19 0 8.992 9 -7.613 0 c -0.673 0 -1.378 -0.713 -1.378 -1.386 z" style="fill:#fff;fill-opacity:0.392"/>
 <path d="m 4 24 0 6.668 c 0 0.648 0.688 1.332 1.332 1.332 l 21.336 0 c 0.645 0 1.332 -0.684 1.332 -1.332 l 0 -6.668" style="fill:#000;fill-opacity:0.196"/>
 <path d="m 10.871 25 c 0.325 0 0.619 0.038 0.883 0.115 0.264 0.077 0.49 0.195 0.68 0.355 0.19 0.16 0.334 0.364 0.432 0.613 c 0.104 0.243 0.133 0.585 0.133 0.917 0 0.345 -0.045 0.759 -0.179 1.04 -0.135 0.281 -0.508 0.313 -0.821 0.46 c 0.539 0.928 0.761 1.5 1 2.5 l -1 0 c -0.25 -0.76 -0.612 -1.443 -1 -2 l -1 0 0 2 -1 0 0 -5.847 c 0.11 -0.026 0.23 -0.048 0.359 -0.067 0.135 -0.026 0.27 -0.042 0.405 -0.048 0.135 -0.013 0.264 -0.022 0.386 -0.029 c 0.123 -0.006 0.63 -0.01 0.722 -0.01 m 1 1.125 c -0.184 -0.147 -0.703 -0.125 -1 -0.125 l -0.871 0 l 0 2 0.379 0 c 0.386 0 1.324 0.028 1.496 -0.125 c 0.172 -0.16 0.125 -0.587 0.125 -0.875 c 0 -0.352 0.017 -0.659 -0.125 -0.875 z" style="fill:#fff;fill-opacity:1;stroke:none"/>
 <path d="m 16.996 27 0.829 2.7 0.175 -4.7 l 1 0 c -0.077 1.998 -0.316 4.138 -0.5 6 l -1 0 c -0.348 -0.912 -0.668 -1.789 -1 -2.65 -0.34 0.916 -0.682 1.776 -1 2.65 l -1 0 c -0.254 -1.981 -0.435 -4.133 -0.5 -6 l 1 0 l 0.175 4.7 0.825 -2.7 l 1 0 z" style="fill:#fff;fill-opacity:1;stroke:none"/>
 <path d="m 23.998 26.678 c 0 0.202 -0.038 0.398 -0.115 0.588 -0.519 1.039 -1.506 1.72 -2.327 2.455 -0.064 0.114 -0.095 0.218 -0.095 0.313 l 2.539 0 0 0.967 l -4 0 c 0 0 0.11 -1 0.25 -1.3 0.658 -1.058 2.074 -1.414 2.75 -2.937 0 -0.24 -0.034 -0.423 -0.18 -0.55 c -0.146 -0.133 -0.331 -0.213 -0.554 -0.213 c -0.185 0 -0.879 0.058 -1.083 0.147 -0.204 0.088 -0.404 0.237 -0.601 0.445 l -0.582 -0.815 c 0.255 -0.265 0.547 -0.461 0.878 -0.588 c 0.337 -0.126 0.671 -0.19 1 -0.19 c 0.242 0 0.739 0.035 0.962 0.104 0.513 0.122 0.854 0.327 1 0.844 c 0.102 0.209 0.155 0.452 0.155 0.73" style="fill:#fff;fill-opacity:1;stroke:none"/>
 <g transform="matrix(0.40082111,0,0,0.40065477,6.3788233,6.3732701)" style="fill:#fff;fill-opacity:1">
  <!-- color: #3d3d3d -->
  <g style="fill:#fff">
   <path transform="matrix(2.4970249,0,0,2.4976141,-15.947859,-15.944531)" d="m 16.09 10.01 c -1.647 0.023 -3.248 0.7 -4.391 1.936 l 2.873 2.887 1.518 -4.822 z m 1.471 0.318 -1.18 3.76 3.197 -0.537 1.809 -0.352 c -0.806 -1.417 -2.181 -2.47 -3.826 -2.871 z m -6.859 2.74 c -0.732 1.377 -0.908 3.01 -0.428 4.537 l 4.135 -0.676 -0.652 -0.793 -3.055 -3.068 z m 11.11 1.627 -3.807 0.639 3.182 3.779 c 0.768 -1.324 1.01 -2.908 0.625 -4.418 z m -4.236 2.459 -1.816 4.334 -0.205 0.508 c 1.698 0.073 3.373 -0.574 4.588 -1.795 l -2.566 -3.047 z m -2.098 1.121 -4.715 0.77 c 0.763 1.194 1.94 2.098 3.334 2.523 l 1.381 -3.293 z" style="fill:#fff;stroke:none;fill-rule:nonzero"/>
  </g>
 </g>
</svg>
