<svg xmlns="http://www.w3.org/2000/svg" viewBox="0 0 32 32">
 <path d="m 5.336 0 c -0.687 0 -1.336 0.676 -1.336 1.394 l 0 29.21 c 0 0.676 0.687 1.394 1.336 1.394 l 21.327 0 c 0.648 0 1.336 -0.717 1.336 -1.394 l 0.001 -21.606 -9 -9 z" style="fill:#38a34e;fill-opacity:1"/>
 <path d="m 21 9 7 7 0 -7 z" style="fill:#000;fill-opacity:0.196"/>
 <path d="m 19 0 8.992 9 -7.613 0 c -0.673 0 -1.378 -0.713 -1.378 -1.386 z" style="fill:#fff;fill-opacity:0.392"/>
 <path d="m 4 24 0 6.668 c 0 0.648 0.688 1.332 1.332 1.332 l 21.336 0 c 0.645 0 1.332 -0.684 1.332 -1.332 l 0 -6.668" style="fill:#000;fill-opacity:0.196"/>
 <path d="m 10.584 30 c 0.267 0 0.49 -0.063 0.668 -0.164 0.185 -0.101 0.331 -0.24 0.439 -0.416 0.115 -0.177 0.194 -0.385 0.239 -0.625 c 0.051 -0.246 0.07 -0.514 0.07 -0.804 c 0 -0.252 -0.013 -0.498 -0.051 -0.738 -0.038 -0.24 -0.105 -0.451 -0.2 -0.634 -0.095 -0.183 -0.226 -0.328 -0.391 -0.435 c -0.165 -0.114 -0.379 -0.183 -0.64 -0.183 l -0.717 0 0 4 m 3 -2.01 c 0 0.543 -0.07 1.01 -0.21 1.391 -0.134 0.379 -0.321 0.688 -0.563 0.927 -0.242 0.24 -0.531 0.416 -0.869 0.53 c -0.331 0.107 -0.697 0.161 -1.098 0.161 l -1.26 0 0 -6 1.413 0 c 0.388 0 0.741 0.057 1.06 0.17 0.325 0.114 0.598 0.293 0.821 0.539 0.223 0.24 0.395 0.549 0.516 0.927 c 0.127 0.372 0.191 0.823 0.191 1.353" style="fill:#fff;fill-opacity:1;stroke:none"/>
 <path d="m 17 31 -2 -4 0 4 -1 0 0 -6 1 0 l 2 4 l 0 -4 1 0 l 0 6" style="fill:#fff;fill-opacity:1;stroke:none"/>
 <path d="m 21.472 26 c -0.268 0 -0.495 0.043 -0.678 0.142 -0.183 0.099 -0.336 0.238 -0.458 0.418 -0.116 0.173 -0.201 0.384 -0.256 0.632 c -0.049 0.241 -0.081 0.511 -0.081 0.808 c 0 0.687 0.114 1.195 0.328 1.523 c 0.214 0.322 0.528 0.477 0.943 0.477 l 0.729 -0.031 0 -1.969 l 1 0 0 2.74 c -0.134 0.05 -0.372 0.105 -0.659 0.167 c -0.281 0.062 -0.622 0.093 -1.025 0.093 -0.354 0 -0.674 -0.062 -0.961 -0.186 -0.281 -0.13 -0.522 -0.319 -0.723 -0.567 -0.201 -0.254 -0.357 -0.567 -0.467 -0.938 -0.11 -0.378 -0.165 -0.814 -0.165 -1.31 c 0 -0.489 0.064 -0.92 0.192 -1.291 0.128 -0.378 0.302 -0.693 0.522 -0.947 0.22 -0.254 0.479 -0.443 0.778 -0.567 c 0.299 -0.13 0.619 -0.195 0.961 -0.195 c 0.22 0 0.415 0.019 0.586 0.056 0.177 0.031 0.33 0.068 0.458 0.111 0.128 0.043 0.232 0.09 0.311 0.139 l 0.192 0.111 -0.293 0.91 c -0.134 -0.087 -0.299 -0.164 -0.494 -0.232 -0.195 -0.068 -0.533 -0.096 -0.74 -0.096" style="fill:#fff;fill-opacity:1;stroke:none"/>
 <g transform="matrix(0.40082111,0,0,0.40065477,6.3788233,6.3732701)" style="fill:#fff;fill-opacity:1">
  <!-- color: #3d3d3d -->
  <g style="fill:#fff">
   <path transform="matrix(2.4970249,0,0,2.4976141,-15.947859,-15.944531)" d="m 16.09 10.01 c -1.647 0.023 -3.248 0.7 -4.391 1.936 l 2.873 2.887 1.518 -4.822 z m 1.471 0.318 -1.18 3.76 3.197 -0.537 1.809 -0.352 c -0.806 -1.417 -2.181 -2.47 -3.826 -2.871 z m -6.859 2.74 c -0.732 1.377 -0.908 3.01 -0.428 4.537 l 4.135 -0.676 -0.652 -0.793 -3.055 -3.068 z m 11.11 1.627 -3.807 0.639 3.182 3.779 c 0.768 -1.324 1.01 -2.908 0.625 -4.418 z m -4.236 2.459 -1.816 4.334 -0.205 0.508 c 1.698 0.073 3.373 -0.574 4.588 -1.795 l -2.566 -3.047 z m -2.098 1.121 -4.715 0.77 c 0.763 1.194 1.94 2.098 3.334 2.523 l 1.381 -3.293 z" style="fill:#fff;stroke:none;fill-rule:nonzero"/>
  </g>
 </g>
</svg>
