<svg xmlns="http://www.w3.org/2000/svg" viewBox="0 0 32 32">
 <path d="m 5.336 0 c -0.687 0 -1.336 0.676 -1.336 1.394 l 0 29.21 c 0 0.676 0.687 1.394 1.336 1.394 l 21.327 0 c 0.648 0 1.336 -0.717 1.336 -1.394 l 0.001 -21.606 -9 -9 z" style="fill:#888;fill-opacity:1"/>
 <path d="m 21 9 7 7 0 -7 z" style="fill:#000;fill-opacity:0.196"/>
 <path d="m 19 0 8.992 9 -7.613 0 c -0.673 0 -1.378 -0.713 -1.378 -1.386 z" style="fill:#fff;fill-opacity:0.392"/>
 <g transform="translate(0,-1.667969)" style="fill:#fff">
  <path d="m 12 14.668 0 4 c 0 -0.738 0.598 -1.336 1.332 -1.336 0.738 0 1.336 0.598 1.336 1.336 c 0 0.734 -0.598 1.332 -1.336 1.332 -0.734 0 -1.332 -0.598 -1.332 -1.332 l 0 4 4 0 c -0.738 0 -1.332 -0.598 -1.332 -1.336 c 0 -0.734 0.594 -1.332 1.332 -1.332 c 0.738 0 1.332 0.598 1.332 1.332 0 0.738 -0.594 1.336 -1.332 1.336 l 4 0 0 -8 z"/>
  <path d="m 17.332 13.332 c 0 0.738 -0.598 1.336 -1.332 1.336 -0.738 0 -1.332 -0.598 -1.332 -1.336 c 0 -0.734 0.594 -1.332 1.332 -1.332 c 0.734 0 1.332 0.598 1.332 1.332 z"/>
  <path d="m 22.668 18.668 c 0 0.734 -0.598 1.332 -1.336 1.332 -0.734 0 -1.332 -0.598 -1.332 -1.332 c 0 -0.738 0.598 -1.336 1.332 -1.336 0.738 0 1.336 0.598 1.336 1.336 z"/>
 </g>
 <path d="m 4 24 0 6.668 c 0 0.648 0.688 1.332 1.332 1.332 l 21.336 0 c 0.645 0 1.332 -0.684 1.332 -1.332 l 0 -6.668 z" style="fill:#000;fill-opacity:0.196"/>
 <g transform="matrix(1.0612185,0,0,1.0612185,-1.055667,-0.7271786)" style="fill:#fff">
  <path d="m 10.383 27.07 c 0 0.265 0.008 0.514 0.028 0.746 0.024 0.228 0.069 0.427 0.133 0.596 0.069 0.17 0.165 0.302 0.286 0.402 0.121 0.099 0.347 0.149 0.549 0.149 0.198 0 0.42 -0.05 0.541 -0.149 0.125 -0.099 0.222 -0.232 0.286 -0.402 0.069 -0.178 0.113 -0.377 0.133 -0.605 0.024 -0.228 0.036 -0.472 0.036 -0.737 0 -0.261 -0.012 -0.505 -0.036 -0.733 -0.02 -0.236 -0.064 -0.435 -0.133 -0.605 -0.064 -0.17 -0.157 -0.302 -0.278 -0.402 -0.121 -0.099 -0.348 -0.149 -0.549 -0.149 -0.202 0 -0.428 0.05 -0.549 0.149 -0.121 0.099 -0.218 0.236 -0.286 0.41 -0.064 0.17 -0.109 0.369 -0.133 0.596 -0.02 0.228 -0.028 0.472 -0.028 0.733 m -1.124 0 c 0 -0.932 0.189 -1.636 0.56 -2.108 0.375 -0.48 0.895 -0.717 1.56 -0.717 0.689 0 1.217 0.236 1.576 0.717 0.363 0.472 0.544 1.176 0.544 2.108 0 0.936 -0.185 1.64 -0.552 2.121 -0.367 0.472 -0.887 0.708 -1.56 0.708 -0.689 0 -1.217 -0.236 -1.584 -0.708 c -0.363 -0.48 -0.544 -1.185 -0.544 -2.121"/>
  <path d="m 16.969 29.891 c -0.293 -0.759 -0.637 -1.473 -0.961 -2.161 -0.366 0.739 -0.676 1.438 -0.992 2.161 l -1.227 0 c 0.455 -1.036 1.042 -2.01 1.586 -2.987 l -1.492 -2.667 1.223 0 0.902 1.811 0.949 -1.811 1.141 0 -1.453 2.641 c 0.618 0.973 1.103 1.966 1.547 3.01 l -1.223 0"/>
  <path d="m 22.479 24.24 0 0.934 -1.598 0 0 4.72 -1.046 0 0 -4.72 -1.406 0 0 -0.934 4.05 0"/>
 </g>
</svg>
