<svg xmlns="http://www.w3.org/2000/svg" viewBox="0 0 32 32">
 <path d="m 5.336 0 c -0.687 0 -1.336 0.676 -1.336 1.394 l 0 29.21 c 0 0.676 0.687 1.394 1.336 1.394 l 21.327 0 c 0.648 0 1.336 -0.717 1.336 -1.394 l 0.001 -21.606 -9 -9 z" style="fill:#7ec545;fill-opacity:1"/>
 <path d="m 21 9 7 7 0 -7 z" style="fill:#000;fill-opacity:0.196"/>
 <path d="m 19 0 8.992 9 -7.613 0 c -0.673 0 -1.378 -0.713 -1.378 -1.386 z" style="fill:#fff;fill-opacity:0.392"/>
 <g transform="matrix(0.49993751,0,0,0.49993751,4.0002499,5.9967503)">
  <!-- color: #4fb215 -->
  <g>
   <path d="m 29.2,28.551 c 0,-1.688 0,-7.098 0,-7.098 l -1.434,0 0,-2.367 c 2.148,0 1.434,0 2.508,-4.055 l 2.863,0 0,4.055 2.867,0 0,2.367 -2.867,0 0,6.082 c 0,0.633 0.141,1.105 0.418,1.426 0.273,0.316 0.641,0.48 1.094,0.48 0.574,0.051 1.355,-0.215 1.355,-0.215 l 0,2.363 c -0.07,0.051 -3.527,1.043 -5.371,0 C 28.84,30.577 29.199,28.55 29.199,28.55 m 0,0" style="fill:#fff;fill-opacity:1;stroke:none;fill-rule:nonzero"/>
   <path d="m 19.2 12.01 c -2.422 0 -4.227 0.867 -5.418 2.602 -1.188 1.719 -1.781 4.207 -1.781 7.465 0 3.328 0.594 5.855 1.781 7.605 0.828 1.219 1.941 2.01 3.332 2.375 0 0 0.281 -0.012 0.305 0.27 0.48 3.68 2.914 3.684 5.688 3.684 0 0 0.359 0 0.359 -0.336 l 0 -2.027 c 0 -0.34 -0.359 -0.34 -0.359 -0.34 -1.387 0 -1.746 0.086 -2.113 -1.227 0.477 -0.109 0.902 -0.258 1.316 -0.453 0.914 -0.449 1.668 -1.102 2.258 -1.965 0.598 -0.867 1.035 -1.938 1.32 -3.211 0.297 -1.27 0.441 -2.727 0.441 -4.375 0 -3.293 -0.602 -5.797 -1.813 -7.5 -1.207 -1.711 -2.984 -2.566 -5.316 -2.566 m -0.02 1.915 c 0.512 0 1.026 0.202 1.356 0.552 0.189 0.201 0.374 0.418 0.52 0.738 0.101 0.221 0.199 0.474 0.269 0.75 0.188 0.747 0.346 1.381 0.424 2.456 0.078 1.074 0.16 2.293 0.16 3.656 0 1.371 -0.082 2.605 -0.16 3.695 -0.078 1.086 -0.237 1.733 -0.424 2.499 -0.07 0.285 -0.171 0.55 -0.269 0.785 -0.013 0.031 -0.026 0.063 -0.043 0.094 -0.147 0.273 -0.305 0.469 -0.477 0.659 -0.328 0.363 -0.848 0.575 -1.356 0.575 -0.504 0 -1.034 -0.206 -1.352 -0.575 -0.322 -0.373 -0.61 -0.882 -0.799 -1.612 -0.192 -0.742 -0.351 -1.378 -0.427 -2.448 -0.076 -1.078 -0.173 -2.309 -0.173 -3.676 0 -1.355 0.093 -2.563 0.173 -3.625 0.08 -1.059 0.236 -1.686 0.427 -2.405 0.191 -0.719 0.482 -1.223 0.799 -1.573 0.318 -0.35 0.844 -0.552 1.352 -0.552" style="fill:#fff;fill-opacity:1;stroke:none;fill-rule:nonzero"/>
  </g>
 </g>
</svg>
