<svg xmlns="http://www.w3.org/2000/svg" viewBox="0 0 32 32">
 <path d="m 5.336 0 c -0.687 0 -1.336 0.676 -1.336 1.394 l 0 29.21 c 0 0.676 0.687 1.394 1.336 1.394 l 21.327 0 c 0.648 0 1.336 -0.717 1.336 -1.394 l 0.001 -21.606 l -9 -9 z" style="fill:#c3b15f;fill-opacity:1"/>
 <path d="m 21 9 7 7 0 -7 z" style="fill:#000;fill-opacity:0.196"/>
 <path d="m 19 0 8.992 9 -7.613 0 c -0.673 0 -1.378 -0.713 -1.378 -1.386 z" style="fill:#fff;fill-opacity:0.392"/>
 <path d="m 14.482 10 c -5.499 0 -0.518 11.631 2.093 12.13 c -0.517 -8.552 -1.648 -11.245 -1.325 -11.488 0.323 -0.243 1.685 3.483 2.439 11.491 2.44 -1.125 4.29 -12.133 -1.708 -12.133 m 1.708 12.132 c -0.444 0.122 -0.846 0.071 -1.114 -0.003 l 0.542 3.824 0.864 2.047 0 -1.671 z" style="fill:#fff;opacity:1;fill-opacity:1;stroke:none"/>
</svg>
