<svg xmlns="http://www.w3.org/2000/svg" viewBox="0 0 32 32">
 <path d="m 5.336 0 c -0.687 0 -1.336 0.676 -1.336 1.394 l 0 29.21 c 0 0.676 0.687 1.394 1.336 1.394 l 21.327 0 c 0.648 0 1.336 -0.717 1.336 -1.394 l 0.001 -21.606 l -9 -9 z" style="fill:#dcdcdc;fill-opacity:1"/>
 <path d="m 21 9 7 7 0 -7 z" style="fill:#000;fill-opacity:0.196"/>
 <path d="m 19 0 8.992 9 -7.613 0 c -0.673 0 -1.378 -0.713 -1.378 -1.386 z" style="fill:#fff;fill-opacity:0.392"/>
 <g transform="matrix(1.0912095,0,0,1.0898747,-0.46111505,-1.9290517)" style="fill:#888">
  <path d="m 21.5 18.508 q 0 1.131 -0.361 2.074 -0.361 0.935 -1.021 1.469 -0.66 0.534 -1.532 0.534 -0.581 0 -1.029 -0.275 -0.448 -0.283 -0.644 -0.739 l -0.126 0 q -0.849 1.014 -2.161 1.014 -1.391 0 -2.192 -0.833 -0.801 -0.841 -0.801 -2.294 0 -1.658 1.053 -2.671 1.053 -1.013 2.75 -1.013 0.676 0 1.485 0.134 0.817 0.126 1.343 0.306 l -0.181 3.842 q 0 1.092 0.597 1.092 0.503 0 0.801 -0.731 0.299 -0.739 0.299 -1.925 0 -1.265 -0.526 -2.231 -0.526 -0.974 -1.485 -1.485 -0.951 -0.511 -2.176 -0.511 -1.587 0 -2.758 0.652 -1.171 0.652 -1.799 1.886 -0.621 1.226 -0.621 2.836 0 2.168 1.155 3.331 1.163 1.155 3.363 1.155 0.833 0 1.831 -0.181 0.998 -0.189 1.964 -0.542 l 0 1.508 q -1.681 0.715 -3.732 0.715 -2.986 0 -4.659 -1.571 -1.666 -1.571 -1.666 -4.368 0 -1.941 0.849 -3.52 0.856 -1.587 2.428 -2.483 1.579 -0.904 3.63 -0.904 1.728 0 3.088 0.707 1.359 0.707 2.098 2.01 0.739 1.304 0.739 3.01 z m -8.05 0.982 q 0 1.658 1.351 1.658 0.707 0 1.076 -0.495 0.369 -0.503 0.448 -1.626 l 0.102 -1.736 q -0.401 -0.086 -0.904 -0.086 -0.982 0 -1.532 0.613 -0.542 0.613 -0.542 1.673 z"/>
 </g>
</svg>
