<svg xmlns="http://www.w3.org/2000/svg" viewBox="0 0 32 32">
 <path d="m 5.336 0 c -0.687 0 -1.336 0.676 -1.336 1.394 l 0 29.21 c 0 0.676 0.687 1.394 1.336 1.394 l 21.327 0 c 0.648 0 1.336 -0.717 1.336 -1.394 l 0.001 -21.606 l -9 -9 z" style="fill:#2d2d2d;fill-opacity:1"/>
 <path d="m 21 9 7 7 0 -7 z" style="fill:#000;fill-opacity:0.196"/>
 <path d="m 19 0 8.992 9 -7.613 0 c -0.673 0 -1.378 -0.713 -1.378 -1.386 z" style="fill:#fff;fill-opacity:0.392"/>
 <path d="m 10 18.393 c 0 -0.781 0.149 -1.552 0.444 -2.313 0.299 -0.766 0.725 -1.452 1.284 -2.056 0.571 -0.6 1.262 -1.09 2.079 -1.461 c 0.813 -0.371 1.745 -0.562 2.796 -0.562 c 1.231 0 2.29 0.262 3.187 0.776 0.905 0.519 1.569 1.195 2 2.023 l -2.062 1.319 c -0.154 -0.362 -0.356 -0.662 -0.602 -0.904 -0.246 -0.252 -0.514 -0.447 -0.813 -0.595 -0.286 -0.143 -0.585 -0.248 -0.892 -0.305 -0.312 -0.071 -0.611 -0.109 -0.897 -0.109 -0.633 0 -1.191 0.129 -1.67 0.381 -0.479 0.252 -0.879 0.581 -1.204 0.99 -0.308 0.4 -0.549 0.857 -0.716 1.376 -0.154 0.505 -0.233 1.01 -0.233 1.514 0 0.566 0.088 1.114 0.273 1.642 0.193 0.519 0.457 0.976 0.796 1.371 0.347 0.4 0.765 0.719 1.244 0.957 0.479 0.243 1 0.362 1.574 0.362 0.295 0 0.602 -0.033 0.91 -0.105 0.312 -0.076 0.611 -0.19 0.892 -0.347 0.299 -0.152 0.571 -0.352 0.818 -0.595 0.246 -0.252 0.448 -0.552 0.602 -0.9 l 2.193 1.171 c -0.207 0.481 -0.51 0.909 -0.91 1.285 -0.391 0.357 -0.835 0.666 -1.341 0.919 -0.505 0.252 -1.037 0.443 -1.596 0.576 c -0.554 0.133 -1.103 0.2 -1.648 0.2 -0.958 0 -1.837 -0.19 -2.642 -0.576 -0.791 -0.386 -1.477 -0.885 -2.057 -1.499 -0.571 -0.628 -1.02 -1.333 -1.341 -2.114 -0.312 -0.795 -0.466 -1.599 -0.466 -2.418" style="fill:#dcdcdc"/>
</svg>
