<svg xmlns="http://www.w3.org/2000/svg" viewBox="0 0 32 32">
 <path d="m 5.336 0 c -0.687 0 -1.336 0.676 -1.336 1.394 l 0 29.21 c 0 0.676 0.687 1.394 1.336 1.394 l 21.327 0 c 0.648 0 1.336 -0.717 1.336 -1.394 l 0.001 -21.606 l -9 -9 z" style="fill:#dcdcdc;fill-opacity:1"/>
 <path d="m 21 9 7 7 0 -7 z" style="fill:#000;fill-opacity:0.196"/>
 <path d="m 19 0 8.992 9 -7.613 0 c -0.673 0 -1.378 -0.713 -1.378 -1.386 z" style="fill:#fff;fill-opacity:0.392"/>
 <g transform="matrix(0.56408269,0,0,0.5274681,-3.272983,2.2722063)" style="fill:#3e3e3e;fill-opacity:1;stroke:none">
  <path d="m 28.849 39.3 -3.545 0 0 -8.6 c 0 -1.511 0.029 -2.126 -0.342 -2.711 -0.361 -0.595 -0.886 -0.925 -1.828 -0.925 -0.714 0 -1.336 0.23 -1.663 0.464 -0.372 0.266 -0.581 0.564 -0.815 1.022 -0.234 0.458 -0.4 1.023 -0.497 1.696 -0.097 0.673 -0.174 1.573 -0.174 2.31 l 0 6.743 -3.546 0 0 -22.751 3.546 0 0 9.443 c 0.478 -0.848 1.144 -1.457 1.885 -1.828 0.741 -0.38 1.237 -0.554 2.172 -0.554 0.809 0 1.077 0.101 1.73 0.335 0.663 0.224 1.228 0.58 1.696 1.067 0.468 0.487 0.829 1.111 1.082 1.872 0.253 0.751 0.299 1.652 0.299 2.705 z"/>
 </g>
 <path d="m 20 19 -2 0 0 1 0 1 -1 0 0 -2 -2 0 0 -1 2 0 0 -2 1 0 0 2 2 0" style="fill:#3e3e3e;fill-opacity:1"/>
 <path d="m 26 18 0 1 -2 0 0 2 -1 0 0 -2 -2 0 0 -1 2 0 0 -2 1 0 0 2 1 0" style="fill:#3e3e3e;fill-opacity:1"/>
</svg>
