<svg xmlns="http://www.w3.org/2000/svg" viewBox="0 0 32 32">
 <path d="m 5.336 0 c -0.687 0 -1.336 0.676 -1.336 1.394 l 0 29.21 c 0 0.676 0.687 1.394 1.336 1.394 l 21.327 0 c 0.648 0 1.336 -0.717 1.336 -1.394 l 0.001 -21.606 -9 -9 z" style="fill:#2d2d2d;fill-opacity:1"/>
 <path d="m 21 9 7 7 0 -7 z" style="fill:#000;fill-opacity:0.196"/>
 <path d="m 19 0 8.992 9 -7.613 0 c -0.673 0 -1.378 -0.713 -1.378 -1.386 z" style="fill:#fff;fill-opacity:0.392"/>
 <path d="m 22 18.5 c 0 5.331 -3.398 7.5 -6 7.5 l -6 0 0 -15 6 0 c 2.602 0 6 2.169 6 7.5 m -3 0 c 0 -3 -1.5 -4.5 -4 -4.5 l -2 0 0 9 2 0 c 2.5 0 4 -1.5 4 -4.5" style="fill:#dcdcdc;fill-opacity:1;stroke:none"/>
</svg>
