<?xml version="1.0" encoding="UTF-8" standalone="no"?>
<svg
   xmlns:dc="http://purl.org/dc/elements/1.1/"
   xmlns:cc="http://creativecommons.org/ns#"
   xmlns:rdf="http://www.w3.org/1999/02/22-rdf-syntax-ns#"
   xmlns:svg="http://www.w3.org/2000/svg"
   xmlns="http://www.w3.org/2000/svg"
   xmlns:sodipodi="http://sodipodi.sourceforge.net/DTD/sodipodi-0.dtd"
   xmlns:inkscape="http://www.inkscape.org/namespaces/inkscape"
   viewBox="0 0 32 32"
   id="svg2"
   version="1.1"
   inkscape:version="0.91 r13725"
   sodipodi:docname="text-x-nim.svg">
  <metadata
     id="metadata16">
    <rdf:RDF>
      <cc:Work
         rdf:about="">
        <dc:format>image/svg+xml</dc:format>
        <dc:type
           rdf:resource="http://purl.org/dc/dcmitype/StillImage" />
        <dc:title />
      </cc:Work>
    </rdf:RDF>
  </metadata>
  <defs
     id="defs14" />
  <sodipodi:namedview
     pagecolor="#ffffff"
     bordercolor="#666666"
     borderopacity="1"
     objecttolerance="10"
     gridtolerance="10"
     guidetolerance="10"
     inkscape:pageopacity="0"
     inkscape:pageshadow="2"
     inkscape:window-width="1600"
     inkscape:window-height="880"
     id="namedview12"
     showgrid="false"
     inkscape:zoom="55.333502"
     inkscape:cx="16"
     inkscape:cy="13.999981"
     inkscape:window-x="0"
     inkscape:window-y="20"
     inkscape:window-maximized="1"
     inkscape:current-layer="svg2" />
  <path
     d="m 5.336 0 c -0.687 0 -1.336 0.676 -1.336 1.394 l 0 29.21 c 0 0.676 0.687 1.394 1.336 1.394 l 21.327 0 c 0.648 0 1.336 -0.717 1.336 -1.394 l 0.001 -21.606 -9 -9 z"
     style="fill:#efc743;fill-opacity:1"
     id="path4" />
  <path
     d="m 21 9 7 7 0 -7 z"
     style="fill:#000;fill-opacity:0.196"
     id="path6" />
  <path
     d="m 19 0 8.992 9 -7.613 0 c -0.673 0 -1.378 -0.713 -1.378 -1.386 z"
     style="fill:#fff;fill-opacity:0.392"
     id="path8" />
  <path
     style="fill:#ffffff;fill-opacity:1"
     d="m 15.524378,23.989928 c -1.130294,-0.09727 -2.25273,-0.417368 -3.22284,-0.919082 -0.880377,-0.455302 -1.552644,-1.02204 -1.982315,-1.671153 C 9.5846542,19.824449 9.4577474,19.215874 8.7313358,17.171259 8.7083214,17.113918 8.0774122,14.50395 8.0838976,14.49284 c 0.375638,0.151155 0.659794,0.271422 1.062431,0.439096 L 9.336124,14.746998 c 0.266259,-0.259446 0.541927,-0.460153 0.937565,-0.682619 l 0.12071,-0.06788 c 0.2259,-0.488077 0.480741,-0.978228 0.722573,-1.449959 0.416228,0.312687 0.738338,0.566533 1.173721,0.904521 0.01003,0.0077 0.13459,-0.01555 0.340297,-0.06347 0.865176,-0.20159 1.325824,-0.269607 1.905393,-0.281346 l 0.313156,-0.0063 c 0.38178,-0.367748 0.765342,-0.733763 1.148592,-1.099908 0.406182,0.385837 0.713419,0.682173 1.148592,1.099879 l 0.313151,0.0063 c 0.57487,0.01164 1.032424,0.07829 1.861186,0.271077 0.176156,0.041 0.332292,0.07687 0.346971,0.07977 0.452061,-0.309299 0.728377,-0.53976 1.219808,-0.916599 0.25997,0.508469 0.445823,0.902043 0.713612,1.455144 l 0.08755,0.04863 c 0.400438,0.222341 0.70586,0.44336 0.971451,0.702993 l 0.189948,0.185683 c 0.377154,-0.157359 0.736737,-0.3066 1.065752,-0.443416 -0.229846,0.954366 -0.455972,1.905581 -0.64698,2.668399 -0.496267,1.387575 -0.87533,2.509404 -1.421975,3.961552 -0.510563,0.947235 -1.526385,1.749118 -2.904014,2.292419 -0.701968,0.276832 -1.436507,0.460374 -2.211079,0.552489 -0.272212,0.0324 -0.9596,0.04694 -1.20773,0.02556 z m 0.474133,-5.541988 c 1.074518,0.595216 1.912988,1.074157 3.050902,1.712007 0.609093,-0.141321 0.925196,-0.253164 1.663853,-0.473498 0.430384,-0.51575 0.81961,-1.058128 1.168478,-1.620772 -0.04393,-0.129404 -0.184853,-0.402828 -0.282091,-0.547444 C 21.04221,16.689204 19.943365,15.975706 18.59727,15.568737 17.275095,15.169 15.770185,15.086983 14.34999,15.337269 c -1.854224,0.326772 -3.409745,1.22164 -4.046266,2.327763 -0.07891,0.13713 -0.171317,0.334378 -0.197298,0.421155 0.327088,0.588136 0.757271,1.056806 1.175829,1.599355 0.548202,0.168745 1.102046,0.325606 1.653144,0.480272 1.072053,-0.599719 1.971197,-1.110429 3.063112,-1.717874 z"
     id="path4849"
     inkscape:connector-curvature="0"
     sodipodi:nodetypes="csccccscccccccccccccccsccccscccccccsssscccc" />
</svg>
