<svg xmlns="http://www.w3.org/2000/svg" viewBox="0 0 32 32">
 <path d="m 5.336 0 c -0.687 0 -1.336 0.676 -1.336 1.394 l 0 29.21 c 0 0.676 0.687 1.394 1.336 1.394 l 21.327 0 c 0.648 0 1.336 -0.717 1.336 -1.394 l 0.001 -21.606 -9 -9 z" style="fill:#366994;fill-opacity:1"/>
 <path d="m 21 9 7 7 0 -7 z" style="fill:#000;fill-opacity:0.196"/>
 <path d="m 19 0 8.992 9 -7.613 0 c -0.673 0 -1.378 -0.713 -1.378 -1.386 z" style="fill:#fff;fill-opacity:0.392"/>
 <g transform="translate(0,0.99973442)" style="fill:#fff">
  <path d="m 16.14 10 c -0.543 0.004 -1.066 0.047 -1.523 0.125 -1.34 0.234 -1.625 0.305 -1.625 1.207 l 0 2 3.336 0 0 0.668 -4.672 0 c -0.918 0 -1.52 0.563 -1.77 1.605 -0.293 1.195 -0.305 1.938 0 3.188 0.223 0.926 0.852 1.875 1.77 1.875 l 0.668 0 0 -2 c 0 -1.035 0.93 -2 2 -2 l 3.336 0 c 0.883 0 1.336 -0.457 1.336 -1.336 l 0 -3.332 c 0 -0.852 -0.352 -1.734 -1.211 -1.875 -0.543 -0.09 -1.105 -0.129 -1.645 -0.125 z m -1.148 1.332 c 0.371 0 0.668 0.301 0.668 0.668 0 0.367 -0.297 0.668 -0.668 0.668 -0.367 0 -0.668 -0.301 -0.668 -0.668 0 -0.367 0.301 -0.668 0.668 -0.668 z"/>
  <path d="m 15.855 24 c 0.543 -0.004 1.066 -0.047 1.523 -0.125 1.34 -0.234 1.625 -0.305 1.625 -1.207 l 0 -2 -3.336 0 0 -0.668 4.672 0 c 0.918 0 1.52 -0.563 1.77 -1.605 0.293 -1.195 0.305 -1.938 0 -3.188 -0.223 -0.926 -0.852 -1.875 -1.77 -1.875 l -0.668 0 0 2 c 0 1.035 -0.93 2 -2 2 l -3.336 0 c -0.883 0 -1.336 0.457 -1.336 1.336 l 0 3.332 c 0 0.852 0.352 1.734 1.211 1.875 0.543 0.09 1.105 0.129 1.645 0.125 z m 1.148 -1.332 c -0.371 0 -0.668 -0.301 -0.668 -0.668 0 -0.367 0.297 -0.668 0.668 -0.668 0.367 0 0.668 0.301 0.668 0.668 0 0.367 -0.301 0.668 -0.668 0.668 z"/>
 </g>
</svg>
