<svg xmlns="http://www.w3.org/2000/svg" viewBox="0 0 32 32">
 <path d="m 5.336 0 c -0.687 0 -1.336 0.676 -1.336 1.394 l 0 29.21 c 0 0.676 0.687 1.394 1.336 1.394 l 21.327 0 c 0.648 0 1.336 -0.717 1.336 -1.394 l 0.001 -21.606 l -9 -9 z" style="fill:#b2542c;fill-opacity:1"/>
 <path d="m 21 9 7 7 0 -7 z" style="fill:#000;fill-opacity:0.196"/>
 <path d="m 19 0 8.992 9 -7.613 0 c -0.673 0 -1.378 -0.713 -1.378 -1.386 z" style="fill:#fff;fill-opacity:0.392"/>
 <path d="m 15.482 11 l -0.543 1.068 c -0.366 0.056 -0.727 0.14 -1.08 0.252 l -0.953 -0.721 l -0.967 0.477 l -0.008 1.195 c -0.275 0.19 -0.538 0.398 -0.783 0.625 l -1.164 -0.246 l -0.711 0.898 l 0.523 1.07 c -0.141 0.258 -0.266 0.524 -0.373 0.797 l -1.168 0.266 l -0.254 1.176 l 0.938 0.734 c -0.011 0.136 -0.017 0.272 -0.02 0.408 c 0.001 0.138 0.005 0.275 0.014 0.412 l -0.934 0.73 l 0.26 1.176 l 1.16 0.264 c 0.11 0.272 0.237 0.537 0.381 0.793 l -0.525 1.074 l 0.711 0.9 l 1.166 -0.248 c 0.244 0.229 0.505 0.44 0.779 0.633 l 0.008 1.193 l 0.961 0.477 l 0.953 -0.721 c 0.354 0.11 0.717 0.191 1.084 0.244 l 0.541 1.064 l 1.039 0.008 l 0.543 -1.068 c 0.366 -0.056 0.727 -0.14 1.08 -0.252 l 0.953 0.721 l 0.967 -0.477 l 0.008 -1.195 c 0.275 -0.19 0.538 -0.398 0.783 -0.625 l 1.164 0.246 l 0.711 -0.898 l -0.523 -1.07 c 0.141 -0.258 0.266 -0.524 0.373 -0.797 l 1.168 -0.266 l 0.254 -1.176 l -0.938 -0.734 c 0.011 -0.136 0.017 -0.272 0.02 -0.408 c -0.001 -0.138 -0.005 -0.275 -0.014 -0.412 l 0.934 -0.73 l -0.26 -1.176 l -1.16 -0.264 c -0.11 -0.272 -0.237 -0.537 -0.381 -0.793 l 0.525 -1.074 l -0.711 -0.9 l -1.166 0.248 c -0.244 -0.229 -0.505 -0.44 -0.779 -0.633 l -0.008 -1.193 l -0.961 -0.477 l -0.953 0.721 c -0.354 -0.11 -0.717 -0.191 -1.084 -0.244 l -0.541 -1.064 l -1.039 -0.008 z m 0.518 2 a 6 6 0 0 1 6 6 a 6 6 0 0 1 -6 6 a 6 6 0 0 1 -6 -6 a 6 6 0 0 1 6 -6 z" style="fill:#fff;opacity:1;fill-opacity:1;stroke:none"/>
 <path d="m 15.77 15 c 2.239 0 3.83 0.828 3.83 2.625 0 1.526 -1.227 1.986 -1.9 2.105 0.546 0.143 0.772 0.55 1.07 1.47 c 0.259 0.8 0.612 0.8 1.23 0.8 l 0 1 -1.5 0 c -0.787 0 -0.912 -0.633 -1.2 -1.4 -0.498 -1.324 -0.701 -1.35 -1.6 -1.35 l -0.7 0 0 1.75 1 0 l 0 1 l -4 0 0 -1 1 0 l 0 -6 l -1 0 0 -1 z m -0.77 4 0.87 0 c 1.421 -0.015 1.93 -0.646 1.93 -1.375 0 -0.972 -0.845 -1.375 -1.74 -1.375 l -1.06 0 z" style="fill:#fff;fill-opacity:1;stroke:none"/>
</svg>
