<svg xmlns="http://www.w3.org/2000/svg" viewBox="0 0 32 32">
 <path d="m 5.336 0 c -0.687 0 -1.336 0.676 -1.336 1.394 l 0 29.21 c 0 0.676 0.687 1.394 1.336 1.394 l 21.327 0 c 0.648 0 1.336 -0.717 1.336 -1.394 l 0.001 -21.606 l -9 -9 z" style="fill:#ef6f29;fill-opacity:1"/>
 <path d="m 21 9 7 7 0 -7 z" style="fill:#000;fill-opacity:0.196"/>
 <path d="m 19 0 8.992 9 -7.613 0 c -0.673 0 -1.378 -0.713 -1.378 -1.386 z" style="fill:#fff;fill-opacity:0.392"/>
 <g transform="matrix(0.58330903,0,0,0.58339335,2.0002916,4.9994605)" style="fill:#fff">
  <!-- color: #eeeeee -->
  <g style="fill:#fff">
   <path d="m 15.988 14.492 c -3.766 4.04 -2.852 11.574 2.031 16.828 4.887 5.25 11.898 6.227 15.66 2.184 3.762 -4.04 2.852 -11.578 -2.035 -16.824 -4.887 -5.254 -11.898 -6.23 -15.66 -2.187 m 3.414 1.68 c 2.957 -3.18 8.05 -2.488 11.798 1.543 3.75 4.03 4.567 9.875 1.606 13.05 -2.953 3.18 -8.224 2.488 -11.97 -1.539 -3.75 -4.03 -4.391 -9.871 -1.438 -13.05" style="fill:#fff;stroke:none;fill-rule:nonzero"/>
   <path d="m 29.75 15.427 2.216 0 c 0.335 0 0.606 0.272 0.606 0.606 l 0 2.216 c 0 0.335 -0.272 0.606 -0.606 0.606 l -2.216 0 c -0.335 0 -0.606 -0.272 -0.606 -0.606 l 0 -2.216 c 0 -0.335 0.272 -0.606 0.606 -0.606 m 0 0" style="fill:#fff;fill-opacity:1;stroke:none;fill-rule:nonzero"/>
   <path d="m 13.216,20.574 4.425,0 c 0.674,0 1.216,0.543 1.216,1.212 l 0,4.428 c 0,0.67 -0.543,1.212 -1.216,1.212 l -4.425,0 C 12.542,27.426 12,26.883 12,26.214 l 0,-4.428 c 0,-0.67 0.543,-1.212 1.216,-1.212 m 0,0" style="fill:#fff;fill-opacity:1;stroke:none;fill-rule:nonzero"/>
   <path d="m 31.77 29.15 3.319 0 c 0.502 0 0.912 0.406 0.912 0.908 l 0 3.322 c 0 0.502 -0.409 0.908 -0.912 0.908 l -3.319 0 c -0.502 0 -0.912 -0.406 -0.912 -0.908 l 0 -3.322 c 0 -0.502 0.409 -0.908 0.912 -0.908 m 0 0" style="fill:#fff;fill-opacity:1;stroke:none;fill-rule:nonzero"/>
  </g>
 </g>
</svg>
