<svg xmlns="http://www.w3.org/2000/svg" viewBox="0 0 32 32">
 <path d="m 5.336 0 c -0.687 0 -1.336 0.676 -1.336 1.394 l 0 29.21 c 0 0.676 0.687 1.394 1.336 1.394 l 21.327 0 c 0.648 0 1.336 -0.717 1.336 -1.394 l 0.001 -21.606 l -9 -9 z" style="fill:#dcdcdc;fill-opacity:1"/>
 <path d="m 21 9 7 7 0 -7 z" style="fill:#000;fill-opacity:0.196"/>
 <path d="m 19 0 8.992 9 -7.613 0 c -0.673 0 -1.378 -0.713 -1.378 -1.386 z" style="fill:#fff;fill-opacity:0.392"/>
 <g transform="matrix(1.0497949,0,0,1.0501026,-0.79671876,0.79753835)" style="fill:#888">
  <path d="m 16 10.668 c -3.684 0 -6.668 2.984 -6.668 6.664 c 0 3.684 2.984 6.668 6.668 6.668 c 3.684 0 6.668 -2.984 6.668 -6.668 0 -3.68 -2.984 -6.664 -6.668 -6.664 z m 0 1.332 c 2.945 0 5.332 2.387 5.332 5.332 0 2.945 -2.387 5.336 -5.332 5.336 -2.945 0 -5.332 -2.391 -5.332 -5.336 c 0 -2.945 2.387 -5.332 5.332 -5.332 z"/>
  <path d="m 16.11 14.707 c -0.699 0 -1.238 0.234 -1.621 0.703 -0.383 0.465 -0.574 1.113 -0.574 1.945 0 1.738 0.73 2.605 2.195 2.605 0.613 0 1.359 -0.137 2.23 -0.41 l 0 1.383 c -0.715 0.266 -1.52 0.398 -2.402 0.398 -1.273 0 -2.246 -0.34 -2.922 -1.027 c -0.676 -0.688 -1.012 -1.672 -1.012 -2.957 c 0 -0.809 0.164 -1.52 0.496 -2.125 0.332 -0.609 0.805 -1.078 1.426 -1.398 0.621 -0.328 1.352 -0.492 2.184 -0.492 0.852 0 1.703 0.184 2.563 0.551 l -0.602 1.34 c -0.324 -0.137 -0.656 -0.258 -0.984 -0.363 -0.332 -0.102 -0.656 -0.152 -0.977 -0.152"/>
 </g>
</svg>
