<svg xmlns="http://www.w3.org/2000/svg" viewBox="0 0 32 32">
 <path d="m 5.336 0 c -0.687 0 -1.336 0.676 -1.336 1.394 l 0 29.21 c 0 0.676 0.687 1.394 1.336 1.394 l 21.327 0 c 0.648 0 1.336 -0.717 1.336 -1.394 l 0.001 -21.606 l -9 -9 z" style="fill:#2d2d2d;fill-opacity:1"/>
 <path d="m 21 9 7 7 0 -7 z" style="fill:#000;fill-opacity:0.196"/>
 <path d="m 19 0 8.992 9 -7.613 0 c -0.673 0 -1.378 -0.713 -1.378 -1.386 z" style="fill:#fff;fill-opacity:0.392"/>
 <path d="m 8 18.595 c 0 -0.521 0.094 -1.035 0.277 -1.543 0.184 -0.511 0.449 -0.968 0.797 -1.371 0.355 -0.4 0.785 -0.727 1.289 -0.974 0.508 -0.248 1.086 -0.375 1.738 -0.375 0.766 0 1.426 0.175 1.98 0.517 0.563 0.346 0.977 0.797 1.242 1.349 l -1.281 0.879 c -0.094 -0.241 -0.219 -0.441 -0.371 -0.603 -0.156 -0.168 -0.324 -0.298 -0.508 -0.397 -0.176 -0.095 -0.363 -0.165 -0.555 -0.203 -0.195 -0.048 -0.379 -0.073 -0.555 -0.073 -0.395 0 -0.742 0.086 -1.039 0.254 -0.297 0.168 -0.547 0.387 -0.746 0.66 -0.195 0.267 -0.344 0.571 -0.449 0.914 -0.094 0.34 -0.145 0.676 -0.145 1.012 0 0.378 0.059 0.743 0.172 1.095 0.117 0.346 0.285 0.651 0.492 0.914 0.219 0.267 0.477 0.479 0.773 0.638 0.297 0.162 0.621 0.241 0.977 0.241 0.184 0 0.375 -0.022 0.566 -0.07 0.195 -0.051 0.379 -0.127 0.555 -0.232 0.188 -0.102 0.355 -0.235 0.508 -0.397 0.152 -0.168 0.277 -0.368 0.375 -0.6 l 1.363 0.781 c -0.129 0.321 -0.32 0.606 -0.566 0.854 -0.242 0.241 -0.52 0.448 -0.836 0.616 -0.313 0.168 -0.641 0.295 -0.988 0.384 c -0.344 0.089 -0.688 0.133 -1.023 0.133 -0.598 0 -1.145 -0.127 -1.641 -0.384 -0.492 -0.257 -0.918 -0.59 -1.281 -1 -0.352 -0.419 -0.629 -0.889 -0.832 -1.409 -0.191 -0.53 -0.289 -1.066 -0.289 -1.612" style="fill:#dcdcdc"/>
 <path d="m 20 19 -2 0 0 1 0 1 -1 0 0 -2 -2 0 0 -1 2 0 0 -2 1 0 0 2 2 0" style="fill:#dcdcdc"/>
 <path d="m 26 18 0 1 -2 0 0 2 -1 0 0 -2 -2 0 0 -1 2 0 0 -2 1 0 0 2 1 0" style="fill:#dcdcdc"/>
</svg>
