<svg xmlns="http://www.w3.org/2000/svg" viewBox="0 0 32 32">
 <path d="m 5.344 0 c -0.687 0 -1.344 0.689 -1.344 1.406 l 0 29.19 c 0 0.676 0.695 1.406 1.344 1.406 l 21.313 0 c 0.648 0 1.344 -0.73 1.344 -1.406 l 0 -21.594 0 -7.625 c 0 -0.673 -0.702 -1.375 -1.375 -1.375 l -7.625 0 -13.656 0 z" style="fill:#dda06a;fill-opacity:1"/>
 <path d="m 4 24 0 6.668 c 0 0.648 0.688 1.332 1.332 1.332 l 21.336 0 c 0.645 0 1.332 -0.684 1.332 -1.332 l 0 -6.668" style="fill:#000;fill-opacity:0.196"/>
 <path d="m 12 8 0 12 1 0 0 -5 9 0 l -3.5 -3 3.5 -3 -9 0 0 -1" style="fill:#fff;opacity:1;fill-opacity:1;stroke:none"/>
 <path d="m 10.577 25 c 0.775 0 1.374 0.159 1.8 0.471 0.426 0.308 0.64 0.811 0.64 1.514 0 0.707 -0.213 1.224 -0.648 1.541 -0.426 0.313 -1.033 0.471 -1.825 0.471 l -0.544 0 0 2 l -1.1 0 l 0 -5.855 c 0.558 -0.116 1.118 -0.12 1.677 -0.145 m 0.135 1.029 c -0.211 -0.004 -0.502 0.018 -0.713 0.027 l 0 1.917 0.606 0 c 0.385 0 0.681 -0.077 0.878 -0.222 0.197 -0.154 0.295 -0.412 0.295 -0.775 0 -0.344 -0.098 -0.589 -0.295 -0.73 -0.193 -0.145 -0.447 -0.218 -0.771 -0.218" style="fill:#fff"/>
 <path d="m 14.963 27.998 c 0 0.281 0.008 0.545 0.029 0.791 0.025 0.242 0.076 0.453 0.143 0.633 0.071 0.18 0.172 0.321 0.303 0.426 0.126 0.105 0.346 0.158 0.56 0.158 0.21 0 0.432 -0.053 0.558 -0.158 0.134 -0.105 0.235 -0.246 0.303 -0.426 0.076 -0.189 0.122 -0.4 0.143 -0.642 0.025 -0.242 0.042 -0.501 0.042 -0.782 0 -0.277 -0.017 -0.536 -0.042 -0.778 -0.021 -0.251 -0.067 -0.462 -0.143 -0.642 -0.067 -0.18 -0.164 -0.321 -0.29 -0.426 -0.13 -0.105 -0.357 -0.158 -0.571 -0.158 -0.214 0 -0.434 0.053 -0.561 0.158 -0.13 0.105 -0.231 0.251 -0.303 0.435 -0.067 0.18 -0.118 0.391 -0.143 0.633 -0.021 0.242 -0.029 0.501 -0.029 0.778 m -1.213 0 c 0 -0.989 0.197 -1.736 0.592 -2.237 c 0.399 -0.51 0.95 -0.76 1.655 -0.76 c 0.735 0 1.294 0.251 1.676 0.76 0.382 0.501 0.576 1.248 0.576 2.237 0 0.993 -0.197 1.741 -0.584 2.251 c -0.391 0.501 -0.945 0.752 -1.655 0.752 -0.735 0 -1.298 -0.251 -1.689 -0.752 -0.382 -0.51 -0.571 -1.257 -0.571 -2.251" style="fill:#fff"/>
 <path d="m 22.9 24.995 0 1.01 l -1.7 0 0 4.995 -1.15 0 0 -4.995 -1.6 0 0 -1.01 4.45 0" style="fill:#fff"/>
</svg>
