<svg xmlns="http://www.w3.org/2000/svg" viewBox="0 0 32 32">
 <path d="m 5.336 0 c -0.687 0 -1.336 0.676 -1.336 1.394 l 0 29.21 c 0 0.676 0.687 1.394 1.336 1.394 l 21.327 0 c 0.648 0 1.336 -0.717 1.336 -1.394 l 0.001 -21.606 l -9 -9 z" style="fill:#dc322f;fill-opacity:1"/>
 <path d="m 21 9 7 7 0 -7 z" style="fill:#000;fill-opacity:0.196"/>
 <path d="m 19 0 8.992 9 -7.613 0 c -0.673 0 -1.378 -0.713 -1.378 -1.386 z" style="fill:#fff;fill-opacity:0.392"/>
 <path d="m 10 12 c -0.554 0 -1 0.446 -1 1 l 0 4 c 0 0.554 0.446 1 1 1 l 12 0 c 0.554 0 1 -0.446 1 -1 l 0 -4 c 0 -0.554 -0.446 -1 -1 -1 z m 0 1 8 0 0 4 -8 0 z m 9 1 3 0 -1.5 2 z" style="fill:#fff;opacity:1;fill-opacity:1;stroke:none"/>
 <path d="m 10.199 20 c -0.665 0 -1.199 0.534 -1.199 1.199 l 0 3.602 c 0 0.665 0.534 1.199 1.199 1.199 l 3.602 0 c 0.665 0 1.199 -0.534 1.199 -1.199 l 0 -3.602 c 0 -0.665 -0.534 -1.199 -1.199 -1.199 m -0.193 1 0.643 0.666 -3.215 3.334 -1.336 -1.334 0.643 -0.666 l 0.694 0.666 z" style="fill:#fff;opacity:1;fill-opacity:1;stroke:none"/>
 <path d="m 20 20 a 3 3 0 0 0 -3 3 3 3 0 0 0 3 3 3 3 0 0 0 3 -3 3 3 0 0 0 -3 -3 z m 0 1 a 2 2 0 0 1 2 2 2 2 0 0 1 -2 2 2 2 0 0 1 -2 -2 2 2 0 0 1 2 -2 z m 0 1 a 1 1 0 0 0 -1 1 1 1 0 0 0 1 1 1 1 0 0 0 1 -1 1 1 0 0 0 -1 -1 z" style="fill:#fff;opacity:1;fill-opacity:1;stroke:none"/>
</svg>
