<svg xmlns="http://www.w3.org/2000/svg" viewBox="0 0 32 32">
 <defs>
  
 </defs>
 <path d="m 5.336 0 c -0.687 0 -1.336 0.676 -1.336 1.394 l 0 29.21 c 0 0.676 0.687 1.394 1.336 1.394 l 21.327 0 c 0.648 0 1.336 -0.717 1.336 -1.394 l 0.001 -21.606 -9 -9 z" style="fill:#0ca1a6;fill-opacity:1"/>
 <path d="m 21 9 7 7 0 -7 z" style="fill:#000;fill-opacity:0.196"/>
 <path d="m 19 0 8.992 9 -7.613 0 c -0.673 0 -1.378 -0.713 -1.378 -1.386 z" style="fill:#fff;fill-opacity:0.392"/>
 <path d="m 23 17.5 c 0 -1.926 -1.553 -3.5 -3.441 -3.5 l 0 0 c -0.177 0 -0.354 0.021 -0.531 0.041 l 0 0 c -1.475 0.228 -2.458 1.346 -3.03 2.195 l 0 0 c -0.551 -0.849 -1.553 -1.988 -3.03 -2.195 l 0 0 c -0.177 -0.021 -0.354 -0.041 -0.531 -0.041 l 0 0 c -1.907 0 -3.441 1.574 -3.441 3.5 l 0 0 c 0 1.926 1.553 3.5 3.441 3.5 l 0 0 c 0.177 0 0.354 -0.021 0.531 -0.041 l 0 0 c 1.475 -0.228 2.458 -1.346 3.03 -2.195 l 0 0 c 0.551 0.87 1.534 1.988 3.03 2.195 l 0 0 c 0.177 0.021 0.354 0.041 0.531 0.041 l 0 0 c 1.888 0 3.441 -1.553 3.441 -3.5 l 0 0 z m -10.185 2.237 c -0.118 0.021 -0.236 0.021 -0.374 0.021 l 0 0 c -1.258 0 -2.261 -1.015 -2.261 -2.257 l 0 0 c 0 -1.243 1.022 -2.257 2.261 -2.257 l 0 0 c 0.118 0 0.236 0.021 0.374 0.021 l 0 0 c 1.396 0.207 2.242 1.657 2.537 2.237 l 0 0 c -0.295 0.58 -1.14 2.03 -2.537 2.237 l 0 0 z m 3.834 -2.237 c 0.295 -0.58 1.14 -2.03 2.537 -2.237 l 0 0 c 0.118 -0.021 0.236 -0.021 0.374 -0.021 l 0 0 c 1.258 0 2.261 1.015 2.261 2.257 l 0 0 c 0 1.243 -1.022 2.257 -2.261 2.257 l 0 0 c -0.118 0 -0.236 0 -0.374 -0.021 l 0 0 c -1.396 -0.207 -2.242 -1.657 -2.537 -2.237 l 0 0 z" style="fill:#fff"/>
 <path d="m 11 17 0 0 0 1 3 0 0 0 0 -1 0 0 z" style="fill:#fff"/>
 <path d="m 18 17 0 1 0 0 1 0 0 0 0 1 0 0 1 0 0 -1 1 0 0 -1 -1 0 0 -1 -1 0 0 1 z" style="fill:#fff"/>
</svg>
