<svg xmlns="http://www.w3.org/2000/svg" viewBox="0 0 32 32">
 <path d="m 5.336 0 c -0.687 0 -1.336 0.676 -1.336 1.394 l 0 29.21 c 0 0.676 0.687 1.394 1.336 1.394 l 21.327 0 c 0.648 0 1.336 -0.717 1.336 -1.394 l 0.001 -21.606 -9 -9 z" style="fill:#2d2d2d;fill-opacity:1"/>
 <path d="m 21 9 7 7 0 -7 z" style="fill:#000;fill-opacity:0.196"/>
 <path d="m 19 0 8.992 9 -7.613 0 c -0.673 0 -1.378 -0.713 -1.378 -1.386 z" style="fill:#fff;fill-opacity:0.392"/>
 <path d="m 21.449 12.933 c -1.207 0 -1.819 0.429 -2.301 1.023 -0.482 0.594 -0.769 1.385 -1.098 2.065 -0.221 0.457 -0.717 2.155 -1.175 3.758 -0.381 1.326 -0.722 2.635 -1.291 3.804 -0.406 0.627 -1.059 0.98 -1.717 0.98 -0.231 0 -0.461 -0.044 -0.683 -0.13 0.781 1.116 2.579 2.927 4.681 -0.089 1.452 -2.091 1.938 -6.592 2.972 -8.287 1.303 -2.155 1.961 -1.648 2.123 -1.467 0.03 -0.176 0.045 -0.358 0.037 -0.535 -0.014 -0.325 -0.093 -0.573 -0.28 -0.756 -0.187 -0.186 -0.539 -0.36 -1.272 -0.36 l 0.002 -0.006 z m -9.828 1.9 c 0.31 0.362 0.559 0.821 0.71 1.362 0.335 1.211 0.399 2.714 0.475 4.04 0.039 0.663 0.078 1.278 0.139 1.761 0.051 0.754 0.338 1.267 0.925 1.32 0.71 -0.036 0.929 -0.892 1.141 -1.524 -0.32 -0.139 -0.783 -0.909 -1.141 -3.86 -0.206 -1.703 -1.415 -2.642 -2.249 -3.095 z m -1.913 0.304 c -0.153 0 -0.283 0.044 -0.386 0.118 -0.137 0.097 -0.256 0.258 -0.31 0.589 -0.079 0.503 0.257 1.061 0.571 1.503 0 0 0 -0.627 0.605 -0.937 0.329 -0.169 0.735 0.105 1.043 0.392 -0.021 -0.09 -0.043 -0.179 -0.066 -0.264 -0.247 -0.888 -0.836 -1.313 -1.292 -1.387 l -0.164 -0.014 z" style="fill:#fff;fill-opacity:1;stroke:none;fill-rule:nonzero"/>
</svg>
