<svg xmlns="http://www.w3.org/2000/svg" viewBox="0 0 32 32">
 <path d="m 5.336 0 c -0.687 0 -1.336 0.676 -1.336 1.394 l 0 29.21 c 0 0.676 0.687 1.394 1.336 1.394 l 21.327 0 c 0.648 0 1.336 -0.717 1.336 -1.394 l 0.001 -21.606 l -9 -9 z" style="fill:#dcdcdc;fill-opacity:1"/>
 <path d="m 21 9 7 7 0 -7 z" style="fill:#000;fill-opacity:0.196"/>
 <path d="m 19 0 8.992 9 -7.613 0 c -0.673 0 -1.378 -0.713 -1.378 -1.386 z" style="fill:#fff;fill-opacity:0.392"/>
 <path d="m 14.625 21.19 0 -0.477 c 0 -0.688 0.121 -1.254 0.363 -1.695 0.238 -0.445 0.688 -0.914 1.344 -1.41 0.906 -0.676 1.48 -1.184 1.715 -1.523 0.238 -0.344 0.359 -0.754 0.359 -1.234 0 -0.602 -0.223 -1.063 -0.66 -1.387 -0.438 -0.328 -1.063 -0.492 -1.887 -0.492 -0.527 0 -1.043 0.055 -1.543 0.168 -0.5 0.105 -1.078 0.301 -1.727 0.59 l -0.59 -1.191 c 1.262 -0.582 2.582 -0.871 3.961 -0.871 1.277 0 2.27 0.273 2.977 0.828 0.707 0.551 1.063 1.332 1.063 2.336 0 0.43 -0.066 0.809 -0.199 1.137 -0.129 0.324 -0.32 0.633 -0.574 0.926 -0.254 0.289 -0.801 0.758 -1.641 1.402 -0.676 0.508 -1.125 0.926 -1.344 1.262 -0.215 0.336 -0.324 0.781 -0.324 1.34 l 0 0.293 -1.293 0 m -0.488 2.617 c 0 -0.797 0.398 -1.199 1.203 -1.199 0.387 0 0.684 0.105 0.891 0.309 0.215 0.207 0.32 0.504 0.32 0.891 0 0.379 -0.105 0.672 -0.32 0.883 c -0.215 0.207 -0.512 0.309 -0.891 0.309 -0.348 0 -0.637 -0.09 -0.863 -0.273 -0.227 -0.188 -0.34 -0.492 -0.34 -0.918" style="fill:#888"/>
</svg>
