<svg xmlns="http://www.w3.org/2000/svg" viewBox="0 0 32 32">
 <path d="m 5.336 0 c -0.687 0 -1.336 0.676 -1.336 1.394 l 0 29.21 c 0 0.676 0.687 1.394 1.336 1.394 l 21.327 0 c 0.648 0 1.336 -0.717 1.336 -1.394 l 0.001 -21.606 -9 -9 z" style="fill:#a60ed7;fill-opacity:1"/>
 <path d="m 21 9 7 7 0 -7 z" style="fill:#000;fill-opacity:0.196"/>
 <path d="m 19 0 8.992 9 -7.613 0 c -0.673 0 -1.378 -0.713 -1.378 -1.386 z" style="fill:#fff;fill-opacity:0.392"/>
 <path d="m 4 24 0 6.668 c 0 0.648 0.688 1.332 1.332 1.332 l 21.336 0 c 0.645 0 1.332 -0.684 1.332 -1.332 l 0 -6.668 z" style="fill:#000;fill-opacity:0.196"/>
 <path d="m 15.5 9.158 -2 8.579 l -1.224 -3.737 -2.276 0 l 0 1 1.644 0 1.957 5.994 0.229 0.006 1.98 -8.588 1.578 5.193 c 0.422 -1.607 0.85 -3.215 1.274 -4.822 0.938 2.165 -0.018 0.042 0.938 2.217 l 2.4 0 0 -1 -1.739 0 -1.6 -5 c -0.424 1.596 -0.851 3.191 -1.275 4.784 z" style="fill:#fff;fill-opacity:1;stroke:none;fill-rule:nonzero"/>
 <path d="m 10.121 27.943 q 0 0.426 0.027 0.804 0.036 0.369 0.126 0.644 0.099 0.274 0.269 0.435 0.17 0.161 0.457 0.161 0.278 0 0.448 -0.161 0.179 -0.161 0.269 -0.435 0.099 -0.284 0.126 -0.653 0.036 -0.369 0.036 -0.795 0 -0.426 -0.036 -0.795 -0.027 -0.379 -0.126 -0.653 -0.09 -0.274 -0.26 -0.435 -0.17 -0.161 -0.457 -0.161 -0.287 0 -0.457 0.161 -0.17 0.161 -0.269 0.445 -0.09 0.274 -0.126 0.644 -0.027 0.369 -0.027 0.795 z m -1.121 0 q 0 -1.514 0.529 -2.281 0.529 -0.776 1.471 -0.776 0.978 0 1.489 0.776 q 0.511 0.767 0.511 2.281 0 1.514 -0.52 2.29 -0.52 0.767 -1.471 0.767 -0.978 0 -1.498 -0.767 -0.511 -0.776 -0.511 -2.29" style="fill:#fff;fill-opacity:1;stroke:none"/>
 <path d="m 15.821 31 q -0.253 -0.669 -0.537 -1.512 -0.284 -0.843 -0.537 -1.677 -0.253 -0.843 -0.453 -1.59 -0.2 -0.746 -0.295 -1.221 l 1.368 0 q 0.063 0.465 0.189 1.086 0.126 0.611 0.274 1.27 0.158 0.649 0.326 1.289 0.179 0.63 0.347 1.134 0.168 -0.494 0.337 -1.124 0.168 -0.64 0.316 -1.289 0.147 -0.659 0.274 -1.279 q 0.126 -0.62 0.211 -1.086 l 1.358 0 q -0.126 0.582 -0.316 1.299 -0.179 0.717 -0.421 1.512 -0.232 0.785 -0.516 1.609 q -0.284 0.814 -0.589 1.58 l -1.337 0 z" style="fill:#fff;fill-opacity:1;stroke:none"/>
 <path d="m 20 31 0 -6 4 0 0 0.989 -3 0 0 1.017 2 0 0 0.989 -2 0 l 0 3.01" style="fill:#fff;fill-opacity:1;stroke:none"/>
</svg>
