<svg xmlns="http://www.w3.org/2000/svg" viewBox="0 0 32 32">
 <path d="m 5.336 0 c -0.687 0 -1.336 0.676 -1.336 1.394 l 0 29.21 c 0 0.676 0.687 1.394 1.336 1.394 l 21.327 0 c 0.648 0 1.336 -0.717 1.336 -1.394 l 0.001 -21.606 -9 -9 z" style="fill:#f05617;fill-opacity:1"/>
 <path d="m 21 9 7 7 0 -7 z" style="fill:#000;fill-opacity:0.196"/>
 <path d="m 19 0 8.992 9 -7.613 0 c -0.673 0 -1.378 -0.713 -1.378 -1.386 z" style="fill:#fff;fill-opacity:0.392"/>
 <path d="m 4 24 0 6.668 c 0 0.648 0.688 1.332 1.332 1.332 l 21.336 0 c 0.645 0 1.332 -0.684 1.332 -1.332 l 0 -6.668 z" style="fill:#000;fill-opacity:0.196"/>
 <path d="m 15.5 9.158 -2 8.579 l -1.224 -3.737 -2.276 0 l 0 1 1.644 0 1.957 5.994 0.229 0.006 1.98 -8.588 1.578 5.193 c 0.422 -1.607 0.85 -3.215 1.274 -4.822 0.938 2.165 -0.018 0.042 0.938 2.217 l 2.4 0 0 -1 -1.739 0 -1.6 -5 c -0.424 1.596 -0.851 3.191 -1.275 4.784 z" style="fill:#fff;fill-opacity:1;stroke:none;fill-rule:nonzero"/>
 <path d="m 13 25 0 6 -1.2 0 0 -3.01 -1.6 0 l 0 3.01 -1.2 0 l 0 -6 1.2 0 0 2.01 1.6 0 l 0 -2.01" style="fill:#fff;fill-opacity:1;stroke:none"/>
 <path d="m 15.174 29.978 q 0.048 0.009 0.105 0.009 0.057 0 0.105 0 0.401 0 0.668 -0.151 0.277 -0.151 0.439 -0.416 0.172 -0.265 0.239 -0.625 0.076 -0.369 0.076 -0.804 0 -0.379 -0.057 -0.738 -0.057 -0.36 -0.2 -0.634 -0.143 -0.274 -0.391 -0.435 -0.248 -0.17 -0.64 -0.17 -0.076 0 -0.172 0.009 -0.095 0 -0.172 0.019 l 0 3.937 z m 2.826 -1.987 q 0 0.814 -0.21 1.391 -0.2 0.568 -0.563 0.927 -0.363 0.36 -0.869 0.53 -0.496 0.161 -1.098 0.161 -0.315 0 -0.621 -0.038 q -0.296 -0.028 -0.64 -0.104 l 0 -5.716 q 0.401 -0.085 0.754 -0.114 0.353 -0.028 0.659 -0.028 0.582 0 1.06 0.17 0.487 0.17 0.821 0.539 0.334 0.36 0.516 0.927 q 0.191 0.558 0.191 1.353" style="fill:#fff;fill-opacity:1;stroke:none"/>
 <path d="m 20.17 29.978 q 0.048 0.009 0.105 0.009 0.057 0 0.105 0 0.401 0 0.668 -0.151 0.277 -0.151 0.439 -0.416 0.172 -0.265 0.239 -0.625 0.076 -0.369 0.076 -0.804 0 -0.379 -0.057 -0.738 -0.057 -0.36 -0.2 -0.634 -0.143 -0.274 -0.391 -0.435 -0.248 -0.17 -0.64 -0.17 -0.076 0 -0.172 0.009 -0.095 0 -0.172 0.019 l 0 3.937 z m 2.826 -1.987 q 0 0.814 -0.21 1.391 -0.2 0.568 -0.563 0.927 -0.363 0.36 -0.869 0.53 -0.496 0.161 -1.098 0.161 -0.315 0 -0.621 -0.038 q -0.296 -0.028 -0.64 -0.104 l 0 -5.716 q 0.401 -0.085 0.754 -0.114 0.353 -0.028 0.659 -0.028 0.582 0 1.06 0.17 0.487 0.17 0.821 0.539 0.334 0.36 0.516 0.927 q 0.191 0.558 0.191 1.353" style="fill:#fff;fill-opacity:1;stroke:none"/>
</svg>
