<svg xmlns="http://www.w3.org/2000/svg" viewBox="0 0 32 32">
 <path d="m 5.336 0 c -0.687 0 -1.336 0.676 -1.336 1.394 l 0 29.21 c 0 0.676 0.687 1.394 1.336 1.394 l 21.327 0 c 0.648 0 1.336 -0.717 1.336 -1.394 l 0.001 -21.606 l -9 -9 z" style="fill:#d14626;fill-opacity:1"/>
 <path d="m 21 9 7 7 0 -7 z" style="fill:#000;fill-opacity:0.196"/>
 <path d="m 19 0 8.992 9 -7.613 0 c -0.673 0 -1.378 -0.713 -1.378 -1.386 z" style="fill:#fff;fill-opacity:0.392"/>
 <path d="m 4 24 0 6.668 c 0 0.648 0.688 1.332 1.332 1.332 l 21.336 0 c 0.645 0 1.332 -0.684 1.332 -1.332 l 0 -6.668 z" style="fill:#000;fill-opacity:0.196"/>
 <path d="m 8 12 5 0 0 3 -5 0 z" style="fill:#fff"/>
 <g transform="matrix(1.0495115,0,0,1.0495115,-0.79407292,-0.37597039)" style="fill:#fff">
  <path d="m 10.418 28.923 c 0.031 0.009 0.148 0.009 0.187 0.009 l 0.102 0 c 0.266 0 0.488 -0.047 0.664 -0.145 0.184 -0.094 0.328 -0.226 0.438 -0.397 0.113 -0.166 0.191 -0.363 0.238 -0.593 0.051 -0.235 0.074 -0.491 0.074 -0.768 0 -0.239 -0.02 -0.474 -0.055 -0.704 -0.039 -0.226 -0.105 -0.427 -0.199 -0.602 -0.098 -0.175 -0.227 -0.311 -0.391 -0.414 -0.164 -0.111 -0.375 -0.162 -0.637 -0.162 -0.051 0 -0.105 0 -0.168 0.009 -0.066 0 -0.203 0.004 -0.254 0.017 l 0 3.75 m 2.89 -1.894 c 0 0.516 -0.07 0.96 -0.211 1.327 -0.133 0.363 -0.32 0.657 -0.559 0.883 -0.242 0.23 -0.527 0.397 -0.863 0.503 -0.328 0.102 -0.691 0.154 -1.09 0.154 -0.211 0 -0.414 -0.009 -0.617 -0.034 -0.195 -0.017 -0.406 -0.051 -0.637 -0.098 l 0 -5.448 c 0.266 -0.055 0.516 -0.09 0.75 -0.107 0.234 -0.017 0.453 -0.03 0.656 -0.03 0.383 0 0.734 0.055 1.051 0.162 0.324 0.111 0.594 0.282 0.816 0.516 0.223 0.226 0.391 0.525 0.512 0.883 0.125 0.354 0.191 0.785 0.191 1.288"/>
  <path d="m 15.688 24.17 c 0.746 0 1.324 0.151 1.734 0.449 0.41 0.294 0.617 0.773 0.617 1.443 0 0.674 -0.207 1.167 -0.625 1.469 -0.41 0.298 -0.996 0.449 -1.754 0.449 l -0.513 0 0 1.906 -1.073 0 0 -5.579 c 0.537 -0.111 1.076 -0.114 1.613 -0.138 m 0.133 0.981 c -0.203 -0.004 -0.472 0.017 -0.673 0.026 l 0 1.828 0.568 0 c 0.375 0 0.656 -0.073 0.844 -0.212 0.191 -0.147 0.285 -0.393 0.285 -0.739 0 -0.328 -0.094 -0.562 -0.285 -0.696 c -0.184 -0.138 -0.43 -0.207 -0.738 -0.207"/>
  <path d="m 20.504 28.983 c 0.195 0 0.359 -0.017 0.484 -0.05 0.133 -0.042 0.238 -0.096 0.313 -0.159 0.074 -0.071 0.125 -0.151 0.152 -0.23 0.031 -0.092 0.047 -0.18 0.047 -0.268 0 -0.113 -0.035 -0.214 -0.105 -0.302 -0.066 -0.088 -0.156 -0.163 -0.266 -0.23 -0.105 -0.071 -0.227 -0.13 -0.359 -0.184 -0.133 -0.059 -0.266 -0.113 -0.398 -0.159 -0.176 -0.059 -0.359 -0.126 -0.551 -0.205 -0.188 -0.075 -0.363 -0.172 -0.52 -0.289 -0.152 -0.121 -0.277 -0.264 -0.379 -0.436 -0.102 -0.176 -0.152 -0.394 -0.152 -0.653 0 -0.515 0.176 -0.917 0.531 -1.206 0.359 -0.289 0.852 -0.431 1.48 -0.431 0.359 0 0.672 0.038 0.938 0.113 0.27 0.075 0.5 0.163 0.684 0.255 l -0.344 0.842 c -0.156 -0.084 -0.332 -0.151 -0.531 -0.214 -0.188 -0.059 -0.41 -0.088 -0.664 -0.088 -0.617 0 -0.93 0.209 -0.93 0.628 0 0.109 0.035 0.201 0.098 0.285 0.063 0.075 0.141 0.147 0.234 0.214 0.102 0.059 0.215 0.113 0.332 0.159 0.129 0.046 0.25 0.092 0.371 0.13 0.184 0.067 0.375 0.142 0.57 0.222 0.203 0.08 0.383 0.184 0.551 0.318 0.168 0.13 0.309 0.297 0.414 0.498 0.109 0.193 0.164 0.44 0.164 0.741 0 0.515 -0.18 0.913 -0.543 1.198 -0.352 0.276 -0.895 0.415 -1.621 0.415 -0.484 0 -0.875 -0.046 -1.164 -0.142 -0.293 -0.101 -0.512 -0.193 -0.656 -0.272 l 0.34 -0.888 c 0.172 0.096 0.375 0.184 0.609 0.268 0.238 0.08 0.531 0.121 0.871 0.121"/>
 </g>
 <path d="m 8 17 5 0 0 3 -5 0 z" style="fill:#fff"/>
 <path d="m 20 10.993 0 4.01 l 4 0 c 0 -2.214 -1.791 -4.01 -4 -4.01 z" style="fill:#fff"/>
 <path d="m 19 12 c -2.21 0 -4 1.79 -4 4 c 0 2.21 1.792 4 4 4 c 2.21 0 3.998 -1.79 3.998 -4 l -3.998 0 z" style="fill:#fff"/>
</svg>
