<svg xmlns="http://www.w3.org/2000/svg" viewBox="0 0 32 32">
 <path d="m 5.344 0 c -0.687 0 -1.344 0.689 -1.344 1.406 l 0 29.19 c 0 0.676 0.695 1.406 1.344 1.406 l 21.313 0 c 0.648 0 1.344 -0.73 1.344 -1.406 l 0 -21.594 0 -7.625 c 0 -0.673 -0.702 -1.375 -1.375 -1.375 l -7.625 0 -13.656 0 z" style="fill:#207145;fill-opacity:1"/>
 <path d="m 23 9 0 13 -14 0 0 -13 z m -1 1 -7 0 l 0 3 l 7 0 z m -8 0 -4 0 l 0 3 4 0 z m 8 4 l -7 0 0 3 7 0 z m -8 0 -4 0 0 3 4 0 z m 8 4 -7 0 0 3 7 0 z m -8 0 -4 0 0 3 4 0 z" style="fill:#fff"/>
 <path d="m 4 24 0 6.668 c 0 0.648 0.688 1.332 1.332 1.332 l 21.336 0 c 0.645 0 1.332 -0.684 1.332 -1.332 l 0 -6.668 z" style="fill:#000;fill-opacity:0.196"/>
 <path d="m 9 31 0 -6 3.675 0 0 0.989 -2.475 0 0 1.116 2.1 0 0 0.989 -2.1 0 0 1.916 2.693 0 l 0 0.989 -3.893 0" style="fill:#fff"/>
 <path d="m 18.01 25 0 1 -1.706 0 0 5 -1.23 0 0 -5 -1.595 0 0 -1 4.532 0" style="fill:#fff"/>
 <path d="m 23 25 0 1 -1.706 0 0 5 -1.23 0 0 -5 -1.525 0 0 -1 l 4.462 0" style="fill:#fff"/>
</svg>
