<svg xmlns="http://www.w3.org/2000/svg" viewBox="0 0 32 32">
 <path d="m 5.336 0 c -0.687 0 -1.336 0.676 -1.336 1.394 l 0 29.21 c 0 0.676 0.687 1.394 1.336 1.394 l 21.327 0 c 0.648 0 1.336 -0.717 1.336 -1.394 l 0.001 -21.606 -9 -9 z" style="fill:#d14626;fill-opacity:1"/>
 <path d="m 21 9 7 7 0 -7 z" style="fill:#000;fill-opacity:0.196"/>
 <path d="m 19 0 8.992 9 -7.613 0 c -0.673 0 -1.378 -0.713 -1.378 -1.386 z" style="fill:#fff;fill-opacity:0.392"/>
 <path d="m 4 24 0 6.668 c 0 0.648 0.688 1.332 1.332 1.332 l 21.336 0 c 0.645 0 1.332 -0.684 1.332 -1.332 l 0 -6.668 z" style="fill:#000;fill-opacity:0.196"/>
 <path d="m 8 12 5 0 0 3 -5 0 z" style="fill:#fff"/>
 <g transform="matrix(1.0497949,0,0,1.0497949,-0.79671876,-0.49384768)" style="fill:#fff">
  <path d="m 10.93 24.285 c 0.738 0 1.309 0.147 1.715 0.448 0.406 0.289 0.609 0.77 0.609 1.44 0 0.678 -0.203 1.168 -0.617 1.47 -0.406 0.301 -0.984 0.448 -1.738 0.448 l -0.471 0 0 1.909 -1.095 0 0 -5.581 c 0.532 -0.111 1.065 -0.114 1.598 -0.134 m 0.129 0.976 c -0.201 -0.004 -0.43 0.019 -0.631 0.029 l 0 1.826 0.53 0 c 0.367 0 0.648 -0.071 0.836 -0.209 0.188 -0.147 0.281 -0.394 0.281 -0.741 0 -0.331 -0.094 -0.561 -0.281 -0.695 -0.184 -0.138 -0.426 -0.209 -0.734 -0.209"/>
  <path d="m 15.621 24.285 c 0.738 0 1.309 0.147 1.715 0.448 0.406 0.289 0.609 0.77 0.609 1.44 0 0.678 -0.203 1.168 -0.617 1.47 -0.406 0.301 -0.984 0.448 -1.734 0.448 l -0.47 0 0 1.909 -1.1 0 0 -5.581 c 0.533 -0.111 1.062 -0.114 1.598 -0.134 m 0.129 0.976 c -0.201 -0.004 -0.425 0.019 -0.626 0.029 l 0 1.826 0.525 0 c 0.367 0 0.648 -0.071 0.836 -0.209 0.188 -0.147 0.281 -0.394 0.281 -0.741 0 -0.331 -0.094 -0.561 -0.281 -0.695 c -0.184 -0.138 -0.426 -0.209 -0.734 -0.209"/>
  <path d="m 22.687 24.285 0 0.94 -1.638 0 0 4.776 -1.162 0 0 -4.776 -1.486 0 0 -0.94 4.287 0"/>
 </g>
 <path d="m 8 17 5 0 0 3 -5 0 z" style="fill:#fff"/>
 <path d="m 20 10.993 0 4.01 l 4 0 c 0 -2.214 -1.791 -4.01 -4 -4.01 z" style="fill:#fff"/>
 <path d="m 19 12 c -2.21 0 -4 1.79 -4 4 c 0 2.21 1.792 4 4 4 c 2.21 0 3.998 -1.79 3.998 -4 l -3.998 0 z" style="fill:#fff"/>
</svg>
