<svg xmlns="http://www.w3.org/2000/svg" viewBox="0 0 32 32">
 <path d="m 5.344 0 c -0.687 0 -1.344 0.689 -1.344 1.406 l 0 29.19 c 0 0.676 0.695 1.406 1.344 1.406 l 21.312 0 c 0.648 0 1.344 -0.73 1.344 -1.406 l 0 -21.594 0 -7.625 c 0 -0.673 -0.702 -1.375 -1.375 -1.375 l -7.625 0 -13.656 0 z" style="fill:#3468ce;fill-opacity:1"/>
 <rect width="6" height="5" x="10" y="10" style="fill:#f9f9f9;fill-opacity:1;stroke:none;fill-rule:evenodd"/>
 <rect width="5" height="1" x="17" y="10" style="fill:#f9f9f9;fill-opacity:1;stroke:none;fill-rule:evenodd"/>
 <rect width="5" height="1" x="17" y="12" style="fill:#f9f9f9;fill-opacity:1;stroke:none;fill-rule:evenodd"/>
 <rect width="5" height="1" x="17" y="14" style="fill:#f9f9f9;fill-opacity:1;stroke:none;fill-rule:evenodd"/>
 <rect width="12" height="1" x="10" y="16" style="fill:#f9f9f9;fill-opacity:1;stroke:none;fill-rule:evenodd"/>
 <rect width="12" height="1" x="10" y="18" style="fill:#f9f9f9;fill-opacity:1;stroke:none;fill-rule:evenodd"/>
 <rect width="12" height="1" x="10" y="20" style="fill:#f9f9f9;fill-opacity:1;stroke:none;fill-rule:evenodd"/>
 <path d="m 4 24 0 6.668 c 0 0.648 0.688 1.332 1.332 1.332 l 21.336 0 c 0.645 0 1.332 -0.684 1.332 -1.332 l 0 -6.668 z" style="fill:#000;fill-opacity:0.196"/>
 <g transform="matrix(1.0512595,0,0,1.0512595,-0.82991688,-0.42690971)" style="fill:#fff">
  <path d="m 10.388 28.923 c 0.031 0.009 0.156 0.009 0.191 0.009 l 0.105 0 c 0.259 0 0.476 -0.047 0.651 -0.145 0.178 -0.094 0.321 -0.226 0.426 -0.396 0.112 -0.166 0.19 -0.362 0.232 -0.592 0.05 -0.234 0.077 -0.49 0.077 -0.767 0 -0.239 -0.019 -0.473 -0.058 -0.703 -0.035 -0.226 -0.101 -0.426 -0.194 -0.601 -0.093 -0.175 -0.221 -0.311 -0.383 -0.413 -0.159 -0.111 -0.368 -0.162 -0.624 -0.162 -0.05 0 -0.105 0 -0.167 0.009 -0.062 0 -0.207 0.004 -0.257 0.017 l 0 3.744 m 2.844 -1.891 c 0 0.52 -0.07 0.958 -0.205 1.325 -0.132 0.362 -0.314 0.656 -0.55 0.882 -0.236 0.23 -0.515 0.396 -0.844 0.507 -0.325 0.098 -0.682 0.149 -1.073 0.149 -0.201 0 -0.403 -0.009 -0.604 -0.034 -0.19 -0.017 -0.399 -0.051 -0.624 -0.098 l 0 -5.439 c 0.263 -0.051 0.507 -0.089 0.736 -0.106 0.229 -0.017 0.445 -0.03 0.643 -0.03 0.38 0 0.72 0.055 1.03 0.166 0.318 0.106 0.585 0.277 0.802 0.511 0.217 0.23 0.383 0.524 0.503 0.882 0.124 0.354 0.186 0.784 0.186 1.286"/>
  <path d="m 15 27.04 c 0 0.268 0.008 0.518 0.028 0.753 0.024 0.23 0.072 0.431 0.136 0.602 0.068 0.171 0.164 0.305 0.288 0.406 0.12 0.1 0.348 0.151 0.552 0.151 0.2 0 0.394 -0.05 0.514 -0.151 0.128 -0.1 0.224 -0.234 0.288 -0.406 0.072 -0.18 0.116 -0.38 0.136 -0.61 0.024 -0.23 0.04 -0.477 0.04 -0.744 0 -0.263 -0.016 -0.51 -0.04 -0.74 -0.02 -0.238 -0.064 -0.439 -0.136 -0.61 -0.064 -0.171 -0.156 -0.305 -0.276 -0.406 -0.124 -0.1 -0.322 -0.151 -0.526 -0.151 -0.204 0 -0.432 0.05 -0.552 0.151 -0.124 0.1 -0.22 0.238 -0.288 0.414 -0.064 0.171 -0.112 0.372 -0.136 0.602 -0.02 0.23 -0.028 0.477 -0.028 0.74 m -1.134 0 c 0 -0.941 0.188 -1.652 0.564 -2.128 0.38 -0.485 0.903 -0.723 1.575 -0.723 0.699 0 1.231 0.238 1.595 0.723 0.364 0.477 0.548 1.187 0.548 2.128 0 0.945 -0.188 1.656 -0.556 2.141 -0.372 0.477 -0.899 0.715 -1.575 0.715 -0.699 0 -1.235 -0.238 -1.607 -0.715 -0.364 -0.485 -0.544 -1.196 -0.544 -2.141"/>
  <path d="m 22.478 24.19 0 0.942 -1.541 0 0 4.766 -1.096 0 0 -4.766 -1.444 0 0 -0.942 4.081 0"/>
 </g>
</svg>
