<svg xmlns="http://www.w3.org/2000/svg" viewBox="0 0 32 32">
 <path d="m 5.344 0 c -0.687 0 -1.344 0.689 -1.344 1.406 l 0 29.19 c 0 0.676 0.695 1.406 1.344 1.406 l 21.312 0 c 0.648 0 1.344 -0.73 1.344 -1.406 l 0 -21.594 0 -7.625 c 0 -0.673 -0.702 -1.375 -1.375 -1.375 l -7.625 0 -13.656 0 z" style="fill:#207145;fill-opacity:1"/>
 <path d="m 23 9 0 13 -14 0 0 -13 z m -1 1 -7 0 0 3 7 0 z m -8 0 -4 0 0 3 4 0 z m 8 4 -7 0 0 3 7 0 z m -8 0 -4 0 0 3 4 0 z m 8 4 -7 0 0 3 7 0 z m -8 0 -4 0 0 3 4 0 z" style="fill:#fff"/>
 <path d="m 4 24 0 6.668 c 0 0.648 0.688 1.332 1.332 1.332 l 21.336 0 c 0.645 0 1.332 -0.684 1.332 -1.332 l 0 -6.668 z" style="fill:#000;fill-opacity:0.196"/>
 <path d="m 12.445 31 c -0.318 -0.808 -0.69 -1.566 -1.04 -2.299 -0.398 0.786 -0.735 1.532 -1.079 2.299 l -1.327 0 c 0.492 -1.103 1.126 -2.136 1.716 -3.169 l -1.613 -2.831 1.327 0 0.976 1.916 1.027 -1.916 l 1.237 0 -1.575 2.8 c 0.671 1.033 1.194 2.088 1.678 3.2 l -1.327 0" style="fill:#fff"/>
 <path d="m 18.675 31 -3.719 0 0 -6 1.185 0 0 5.01 2.534 0 0 0.989" style="fill:#fff"/>
 <path d="m 22.8 25 0 0.989 -1.558 0 0 5.01 -1.185 0 0 -5.01 -1.562 0 0 -0.989 4.306 0" style="fill:#fff"/>
</svg>
