<svg xmlns="http://www.w3.org/2000/svg" viewBox="0 0 32 32">
 <path d="m 5.336 0 c -0.687 0 -1.336 0.676 -1.336 1.394 l 0 29.21 c 0 0.676 0.687 1.394 1.336 1.394 l 21.327 0 c 0.648 0 1.336 -0.717 1.336 -1.394 l 0.001 -21.606 -9 -9 z" style="fill:#3468ce;fill-opacity:1"/>
 <path d="m 21 9 7 7 0 -7 z" style="fill:#000;fill-opacity:0.196"/>
 <path d="m 19 0 8.992 9 -7.613 0 c -0.673 0 -1.378 -0.713 -1.378 -1.386 z" style="fill:#fff;fill-opacity:0.392"/>
 <rect width="6" height="5" x="10" y="11" style="fill:#f9f9f9;fill-opacity:1;stroke:none;fill-rule:evenodd"/>
 <rect width="5" height="1" x="17" y="11" style="fill:#f9f9f9;fill-opacity:1;stroke:none;fill-rule:evenodd"/>
 <path d="m 4 24 0 6.668 c 0 0.648 0.687 1.332 1.332 1.332 l 21.336 0 c 0.645 0 1.332 -0.684 1.332 -1.332 l 0 -6.668 z" style="fill:#000;fill-opacity:0.196"/>
 <rect width="5" height="1" x="17" y="13" style="fill:#f9f9f9;fill-opacity:1;stroke:none;fill-rule:evenodd"/>
 <g transform="matrix(1.0663281,0,0,1.0663281,-1.0924783,-0.88046776)" style="fill:#fff">
  <path d="m 20.551 28.999 c 0.191 0 0.352 -0.016 0.473 -0.049 0.133 -0.041 0.234 -0.095 0.309 -0.157 0.074 -0.07 0.121 -0.148 0.148 -0.227 0.031 -0.091 0.047 -0.177 0.047 -0.264 0 -0.111 -0.035 -0.21 -0.105 -0.297 -0.066 -0.087 -0.152 -0.161 -0.258 -0.227 -0.105 -0.07 -0.223 -0.128 -0.352 -0.181 -0.133 -0.058 -0.262 -0.111 -0.391 -0.157 c -0.172 -0.058 -0.352 -0.124 -0.539 -0.202 -0.184 -0.074 -0.355 -0.169 -0.512 -0.284 -0.148 -0.12 -0.27 -0.26 -0.371 -0.429 c -0.098 -0.173 -0.148 -0.387 -0.148 -0.643 0 -0.507 0.176 -0.903 0.52 -1.187 0.355 -0.284 0.836 -0.425 1.449 -0.425 0.352 0 0.66 0.037 0.918 0.111 0.266 0.074 0.488 0.161 0.668 0.251 l -0.332 0.829 c -0.156 -0.082 -0.328 -0.148 -0.52 -0.21 -0.188 -0.058 -0.402 -0.087 -0.652 -0.087 -0.605 0 -0.906 0.206 -0.906 0.618 0 0.107 0.031 0.198 0.09 0.28 0.063 0.074 0.141 0.144 0.234 0.21 0.098 0.058 0.207 0.111 0.324 0.157 0.125 0.045 0.242 0.091 0.359 0.128 0.18 0.066 0.367 0.14 0.559 0.218 0.199 0.078 0.379 0.181 0.539 0.313 0.168 0.128 0.301 0.293 0.406 0.491 0.105 0.19 0.16 0.433 0.16 0.73 0 0.507 -0.176 0.899 -0.531 1.179 -0.344 0.272 -0.875 0.408 -1.586 0.408 -0.477 0 -0.855 -0.045 -1.141 -0.14 -0.285 -0.099 -0.5 -0.19 -0.641 -0.268 l 0.336 -0.874 c 0.164 0.095 0.363 0.181 0.594 0.264 0.234 0.078 0.52 0.12 0.852 0.12"/>
 </g>
 <rect width="5" height="1" x="17" y="15" style="fill:#f9f9f9;fill-opacity:1;stroke:none;fill-rule:evenodd"/>
 <rect width="12" height="1" x="10" y="17" style="fill:#f9f9f9;fill-opacity:1;stroke:none;fill-rule:evenodd"/>
 <rect width="12" height="1" x="10" y="19" style="fill:#f9f9f9;fill-opacity:1;stroke:none;fill-rule:evenodd"/>
 <rect width="12" height="1" x="10" y="21" style="fill:#f9f9f9;fill-opacity:1;stroke:none;fill-rule:evenodd"/>
 <path d="m 11.46 27.17 c 0.22 0.847 0.497 1.693 0.74 2.51 -0.014 -1.651 -0.023 -3.165 -0.029 -4.677 l 1.129 0 c -0.067 2.01 -0.199 4.045 -0.38 6 l -1.01 0 c -0.321 -0.899 -0.589 -1.775 -0.872 -2.629 -0.325 0.902 -0.606 1.765 -0.893 2.629 l -1.011 0 c -0.231 -1.995 -0.334 -4.04 -0.396 -6 l 1.129 0 c -0.022 1.562 -0.027 3.152 -0.038 4.677 0.247 -0.84 0.542 -1.752 0.768 -2.51" style="fill:#fff"/>
 <path d="m 15.793 25 c 0.76 0 1.352 0.154 1.767 0.47 0.419 0.303 0.629 0.809 0.629 1.512 0 0.712 -0.214 1.226 -0.637 1.543 -0.419 0.316 -1.015 0.47 -1.787 0.47 l -0.475 0 0 2 -1.136 0 0 -5.859 c 0.422 -0.094 0.851 -0.103 1.266 -0.132 0.14 -0.009 0.267 -0.009 0.374 -0.009 m 0.136 1.024 c -0.07 0 -0.168 0.004 -0.3 0.009 -0.123 0 -0.269 0.009 -0.339 0.022 l 0 1.916 0.532 0 c 0.382 0 0.666 -0.075 0.859 -0.22 0.197 -0.154 0.292 -0.413 0.292 -0.778 0 -0.347 -0.095 -0.589 -0.292 -0.73 -0.185 -0.145 -0.436 -0.22 -0.752 -0.22" style="fill:#fff"/>
</svg>
