<svg xmlns="http://www.w3.org/2000/svg" viewBox="0 0 32 32">
 <path d="m 5.344 0 c -0.687 0 -1.344 0.689 -1.344 1.406 l 0 29.19 c 0 0.676 0.695 1.406 1.344 1.406 l 21.313 0 c 0.648 0 1.344 -0.73 1.344 -1.406 l 0 -21.594 0 -7.625 c 0 -0.673 -0.702 -1.375 -1.375 -1.375 l -7.625 0 -13.656 0 z" style="fill:#3468ce;fill-opacity:1"/>
 <rect width="6" height="5" x="10" y="10" style="fill:#f9f9f9;fill-opacity:1;stroke:none;fill-rule:evenodd"/>
 <rect width="5" height="1" x="17" y="10" style="fill:#f9f9f9;fill-opacity:1;stroke:none;fill-rule:evenodd"/>
 <rect width="5" height="1" x="17" y="12" style="fill:#f9f9f9;fill-opacity:1;stroke:none;fill-rule:evenodd"/>
 <rect width="5" height="1" x="17" y="14" style="fill:#f9f9f9;fill-opacity:1;stroke:none;fill-rule:evenodd"/>
 <rect width="12" height="1" x="10" y="16" style="fill:#f9f9f9;fill-opacity:1;stroke:none;fill-rule:evenodd"/>
 <rect width="12" height="1" x="10" y="18" style="fill:#f9f9f9;fill-opacity:1;stroke:none;fill-rule:evenodd"/>
 <rect width="12" height="1" x="10" y="20" style="fill:#f9f9f9;fill-opacity:1;stroke:none;fill-rule:evenodd"/>
 <path d="m 4 24 0 6.668 c 0 0.648 0.688 1.332 1.332 1.332 l 21.336 0 c 0.645 0 1.332 -0.684 1.332 -1.332 l 0 -6.668 z" style="fill:#000;fill-opacity:0.196"/>
 <g transform="matrix(1.0519309,0,0,1.0519309,-0.84513621,-0.55792591)" style="fill:#fff">
  <path d="m 11.698 26.356 c 0.209 0.805 0.472 1.61 0.703 2.386 -0.014 -1.57 -0.022 -3.01 -0.027 -4.446 l 1.073 0 c -0.063 1.915 -0.189 3.845 -0.361 5.704 l -0.957 0 c -0.305 -0.854 -0.56 -1.687 -0.829 -2.499 -0.309 0.857 -0.576 1.678 -0.849 2.499 l -0.961 0 c -0.22 -1.897 -0.318 -3.843 -0.377 -5.704 l 1.073 0 c -0.021 1.485 -0.025 2.997 -0.036 4.446 0.235 -0.798 0.515 -1.666 0.73 -2.386"/>
  <path d="m 15.77 24.296 c 0.723 0 1.285 0.146 1.68 0.447 0.398 0.288 0.598 0.769 0.598 1.437 0 0.677 -0.203 1.166 -0.605 1.467 -0.398 0.301 -0.965 0.447 -1.699 0.447 l -0.451 0 0 1.905 -1.08 0 0 -5.57 c 0.401 -0.089 0.809 -0.098 1.203 -0.125 0.133 -0.008 0.254 -0.008 0.355 -0.008 m 0.129 0.974 c -0.066 0 -0.16 0.004 -0.285 0.008 -0.117 0 -0.256 0.008 -0.322 0.021 l 0 1.822 0.506 0 c 0.363 0 0.633 -0.071 0.816 -0.209 0.188 -0.146 0.277 -0.393 0.277 -0.74 0 -0.33 -0.09 -0.56 -0.277 -0.694 c -0.176 -0.138 -0.414 -0.209 -0.715 -0.209"/>
  <path d="m 22.668 24.359 0 0.928 -1.523 0 0 4.713 -1.137 0 0 -4.713 -1.473 0 0 -0.928 4.133 0"/>
 </g>
</svg>
