<svg xmlns="http://www.w3.org/2000/svg" viewBox="0 0 32 32">
 <path d="m 5.336 0 c -0.687 0 -1.336 0.676 -1.336 1.394 l 0 29.21 c 0 0.676 0.687 1.394 1.336 1.394 l 21.327 0 c 0.648 0 1.336 -0.717 1.336 -1.394 l 0.001 -21.606 -9 -9" style="fill:#dc322f;fill-opacity:1"/>
 <path d="m 10.293 12 c -0.281 0.031 -0.293 0.168 -0.293 0.668 l 0 2.328 l 12 0 0 -2.328 c 0 -0.668 0 -0.668 -0.668 -0.668 l -10.664 0 c -0.168 0 -0.281 -0.008 -0.375 0 z m -0.293 3.996 0 7.332 c 0 0.668 0 0.668 0.668 0.668 l 10.664 0 c 0.668 0 0.668 0 0.668 -0.668 l 0 -7.332 m -4.132 1 c 0.434 0 0.82 0.109 1.145 0.313 0.328 0.203 0.574 0.488 0.75 0.875 0.176 0.387 0.27 0.844 0.27 1.375 0 1.152 -0.238 2.02 -0.727 2.582 c -0.492 0.57 -1.238 0.855 -2.23 0.855 -0.352 0 -0.609 -0.027 -0.793 -0.063 l 0 -0.98 c 0.227 0.059 0.461 0.086 0.711 0.086 0.418 0 0.75 -0.07 1.02 -0.188 0.27 -0.125 0.48 -0.305 0.625 -0.563 0.145 -0.262 0.227 -0.629 0.25 -1.086 l -0.063 0 c -0.156 0.254 -0.336 0.422 -0.543 0.523 -0.203 0.102 -0.441 0.164 -0.75 0.164 -0.512 0 -0.93 -0.172 -1.227 -0.5 -0.297 -0.328 -0.438 -0.77 -0.438 -1.352 0 -0.629 0.184 -1.137 0.539 -1.5 c 0.363 -0.367 0.84 -0.543 1.461 -0.543 m -3.905 0 1.043 0 0 5.982 -1.25 0 0.02 -4.539 -1.105 0.938 -0.602 -0.75 z m 3.757 1 c -0.172 0.035 -0.328 0.117 -0.438 0.25 c -0.145 0.176 -0.207 0.441 -0.207 0.773 c 0 0.281 0.055 0.5 0.188 0.664 0.133 0.164 0.336 0.25 0.605 0.25 0.25 0 0.465 -0.086 0.645 -0.25 0.18 -0.164 0.27 -0.348 0.27 -0.563 0 -0.316 -0.078 -0.594 -0.25 -0.813 c -0.164 -0.219 -0.383 -0.313 -0.645 -0.313 c -0.066 0 -0.109 -0.012 -0.168 0 z" style="fill:#fff"/>
 <path d="m 21 9 7 7 0 -7 z" style="fill:#000;fill-opacity:0.196"/>
 <path d="m 19 0 8.992 9 -7.613 0 c -0.673 0 -1.378 -0.713 -1.378 -1.386" style="fill:#fff;fill-opacity:0.392"/>
</svg>
