<svg xmlns="http://www.w3.org/2000/svg" viewBox="0 0 16 16">
 <path d="m 7.509 14.162 c -2.606 -0.176 -4.895 -2.231 -5.54 -4.719 -0.598 -2.574 0.586 -5.481 2.895 -6.825 1.485 -0.887 3.348 -1 4.993 -0.535 c 2.031 0.621 3.578 2.43 4.118 4.442 0.488 1.86 0.137 3.965 -1.156 5.43 -1.176 1.457 -3.051 2.301 -4.926 2.227 -0.129 -0.004 -0.258 -0.008 -0.383 -0.02 z m 1.551 -0.293 c 0.469 -0.039 0.387 -0.184 -0.039 -0.219 -0.758 -0.148 -1.578 -0.152 -2.313 0.105 0.645 0.313 1.504 0.23 2.227 0.137 z m -2.301 -0.41 c 0.336 -0.34 -0.016 -1.152 -0.305 -1.473 -0.652 -0.336 -1.156 -0.879 -1.754 -1.289 -0.449 -0.164 -0.887 0.148 -1.32 0.254 c -0.004 0.43 -0.031 0.914 0.348 1.211 0.621 0.613 1.371 1.152 2.215 1.395 0.273 0.012 0.559 -0.004 0.816 -0.098 z m 3.575 0.02 c 1.082 -0.469 2.094 -1.215 2.707 -2.235 0.219 -0.293 0.379 -0.809 -0.191 -0.637 -0.723 0.453 -1.375 1.012 -2.11 1.442 -0.449 0.356 -0.774 0.84 -1.09 1.305 0.109 0.258 0.473 0.195 0.684 0.125 z m 0.734 -1.875 c 0.543 -0.445 1.328 -0.731 1.613 -1.406 c 0.129 -0.531 0.141 -1.082 0.195 -1.625 -0.543 -0.481 -1.207 -0.805 -1.86 -1.113 -0.641 0.051 -1.16 0.621 -1.672 0.992 -0.27 0.148 -0.199 0.484 -0.273 0.742 -0.098 0.602 -0.211 1.203 -0.277 1.809 c 0.504 0.371 1.07 0.715 1.684 0.859 0.223 0.004 0.406 -0.148 0.59 -0.258 z m -3.879 0.094 c 0.492 -0.188 1.145 -0.328 1.375 -0.848 0.172 -0.731 0.266 -1.477 0.359 -2.223 -0.492 -0.465 -1.016 -0.953 -1.656 -1.195 -0.551 -0.008 -1.02 0.383 -1.512 0.594 -0.664 0.184 -0.895 0.781 -0.922 1.402 c -0.195 0.617 0.027 1.25 0.586 1.586 0.488 0.359 1.113 0.934 1.77 0.684 z m -4.121 -0.859 c -0.398 -0.738 -0.676 -1.547 -0.785 -2.375 -0.395 0.078 -0.035 1.047 0.074 1.442 0.184 0.531 0.469 1.024 0.766 1.504 0.055 -0.199 0.086 -0.395 -0.055 -0.57 m -0.172 -3.285 c 0.176 -0.246 0.449 -0.441 0.559 -0.727 0.184 -0.859 0.484 -1.692 0.914 -2.461 -0.016 -0.496 -0.574 -0.797 -0.852 -0.25 -0.785 1.012 -1.406 2.246 -1.434 3.551 -0.105 0.449 0.285 0.774 0.512 0.242 0.098 -0.117 0.199 -0.234 0.301 -0.356 m 10.157 0.617 c 0.332 -0.438 0.793 -0.957 0.676 -1.551 -0.211 -1.125 -0.789 -2.192 -1.676 -2.922 -0.266 -0.113 -0.746 -0.523 -0.934 -0.137 c -0.27 0.523 -0.945 1.016 -0.703 1.664 0.207 0.641 0.363 1.313 0.664 1.914 0.563 0.438 1.211 0.777 1.863 1.063 z m -7.458 -0.289 c 0.516 -0.262 1.02 -0.551 1.524 -0.836 0.172 -0.594 0.387 -1.172 0.582 -1.754 0.031 -0.633 -0.535 -1.086 -0.91 -1.527 -0.371 -0.594 -1 -0.137 -1.457 0.078 -1 0.539 -1.234 1.719 -1.578 2.703 c 0.047 0.371 0.387 0.676 0.633 0.953 0.34 0.344 0.727 0.797 1.207 0.383 z m 3.711 -3.188 c 0.27 -0.039 0.566 -0.012 0.816 -0.09 0.371 -0.398 0.699 -0.863 0.852 -1.391 -0.188 -0.527 -0.805 -0.77 -1.301 -0.949 -0.633 -0.188 -1.313 -0.281 -1.973 -0.207 -0.473 0.242 -1.324 0.945 -0.844 1.488 c 0.352 0.418 0.727 0.816 1.109 1.207 0.449 0.008 0.895 -0.031 1.34 -0.059 z" style="fill:#9c9c37;stroke:#9c9c37;stroke-width:0.062"/>
</svg>
