<svg xmlns="http://www.w3.org/2000/svg" width="16" height="16" viewBox="0 0 12.8 12.8">
 <path d="m 6.131 2.654 0.537 0 c 0.073 0 0.131 0.068 0.131 0.15 l 0 0.483 c 0 0.083 -0.058 0.15 -0.131 0.15 l -0.537 0 c -0.073 0 -0.131 -0.066 -0.131 -0.15 l 0 -0.483 c 0 -0.082 0.058 -0.15 0.131 -0.15" style="fill:#b477d0"/>
 <path d="m 6.06 2.132 0.625 0 c 0.21 0 0.379 0.169 0.379 0.379 0 0.208 -0.169 0.379 -0.379 0.379 l -0.625 0 c -0.21 0 -0.379 -0.171 -0.379 -0.379 0 -0.21 0.169 -0.379 0.379 -0.379 z" style="fill:#b477d0"/>
 <path d="m 6.201 1.484 0.4 0 c 0.395 0 0.715 0.219 0.715 0.49 l 0 0.051 c 0 0.27 -0.32 0.489 -0.715 0.489 l -0.4 0 c -0.395 0 -0.716 -0.219 -0.716 -0.489 l 0 -0.051 c 0 -0.272 0.321 -0.49 0.716 -0.49 z" style="fill:#b477d0;stroke:#b477d0;stroke-linejoin:round;stroke-width:0.302"/>
 <path d="m 6.338 4.267 0.124 0 c 0.112 0 0.204 0.068 0.204 0.154 l 0 0.492 c 0 0.084 -0.092 0.154 -0.204 0.154 l -0.124 0 c -0.112 0 -0.204 -0.07 -0.204 -0.154 l 0 -0.492 c 0 -0.086 0.092 -0.154 0.204 -0.154 z" style="fill:#b477d0"/>
 <path d="m 6.338 9.36 0.124 0 c 0.112 0 0.204 0.069 0.204 0.154 l 0 0.493 c 0 0.084 -0.092 0.154 -0.204 0.154 l -0.124 0 c -0.112 0 -0.204 -0.069 -0.204 -0.154 l 0 -0.493 c 0 -0.084 0.092 -0.154 0.204 -0.154 z" style="fill:#b477d0"/>
 <path d="m 3.467 7.262 0 -0.123 c 0 -0.112 0.069 -0.205 0.155 -0.205 l 0.491 0 c 0.084 0 0.154 0.093 0.154 0.205 l 0 0.123 c 0 0.114 -0.069 0.205 -0.154 0.205 l -0.491 0 c -0.085 0 -0.155 -0.091 -0.155 -0.205 z" style="fill:#b477d0"/>
 <path d="m 8.533 7.262 0 -0.123 c 0 -0.112 0.07 -0.205 0.154 -0.205 l 0.492 0 c 0.086 0 0.154 0.093 0.154 0.205 l 0 0.123 c 0 0.114 -0.068 0.205 -0.154 0.205 l -0.492 0 c -0.084 0 -0.154 -0.091 -0.154 -0.205 z" style="fill:#b477d0"/>
 <path d="m 6.345 4.964 c -0.082 0 -0.165 0.004 -0.249 0.013 -0.026 0.001 -0.049 0.017 -0.06 0.04 -0.012 0.023 -0.009 0.051 0.007 0.072 0.017 0.02 0.043 0.03 0.068 0.026 0.634 -0.069 1.198 0.122 1.659 0.564 0.017 0.021 0.044 0.029 0.069 0.022 0.026 -0.007 0.046 -0.027 0.051 -0.053 0.005 -0.025 -0.004 -0.052 -0.025 -0.068 c -0.427 -0.409 -0.947 -0.618 -1.52 -0.616" style="fill:#b477d0"/>
 <path d="m 6.547 5.372 c -0.035 0.005 -0.06 0.034 -0.06 0.069 0.001 0.035 0.027 0.064 0.063 0.068 0.353 0.046 0.635 0.174 0.901 0.411 0.029 0.025 0.073 0.022 0.098 -0.007 0.026 -0.029 0.023 -0.073 -0.005 -0.098 c -0.285 -0.253 -0.599 -0.396 -0.975 -0.444 c -0.008 -0.001 -0.014 -0.001 -0.021 0 z" style="fill:#b477d0"/>
 <path d="m 6.289 4.589 c -0.229 0.007 -0.462 0.044 -0.695 0.113 -0.025 0.005 -0.044 0.025 -0.051 0.049 -0.007 0.026 0.003 0.052 0.021 0.069 0.02 0.017 0.047 0.022 0.07 0.013 0.884 -0.263 1.764 -0.043 2.419 0.605 0.027 0.027 0.072 0.027 0.099 0 0.027 -0.027 0.026 -0.072 0 -0.098 c -0.517 -0.512 -1.174 -0.772 -1.863 -0.753" style="fill:#b477d0"/>
 <path d="m 8.655 3.575 -0.135 0.534 0.525 0.404 0.505 -0.296 c 0 -0.262 -0.671 -0.717 -0.895 -0.642 z" style="fill:#b477d0;fill-rule:evenodd"/>
 <path d="m 8.65 5.287 c -0.047 -0.053 -2.872 2.24 -2.872 2.24 l 0.107 0.135 c 0 0 2.811 -2.322 2.766 -2.375 z" style="fill:#b477d0;fill-rule:evenodd"/>
 <circle cx="6.4" cy="7.2" r="3.6" style="stroke-dasharray:none;stroke-opacity:1;fill:none;opacity:1;stroke-miterlimit:4;fill-opacity:1;stroke:#b477d0;fill-rule:nonzero;stroke-linecap:butt;stroke-linejoin:miter;stroke-width:0.8;stroke-dashoffset:0"/>
</svg>
