<svg xmlns="http://www.w3.org/2000/svg" viewBox="0 0 16 16">
 <path d="m 12.309 2.946 c -0.773 0.316 -3.262 1.355 -3.324 1.383 -0.699 -0.57 -1.602 -1.012 -2.543 -1.063 -2.273 -0.145 -4.367 1.879 -4.371 4.121 c -0.102 2.02 0.82 3.883 1.652 5.668 0.695 -0.293 3.227 -1.348 3.293 -1.375 0.68 0.57 1.555 0.992 2.469 1.059 2.238 0.188 4.32 -1.746 4.434 -3.934 0.164 -2.047 -0.781 -3.941 -1.574 -5.773 -0.012 -0.027 -0.023 -0.059 -0.035 -0.086 z" style="fill:none;stroke:#6996af;stroke-width:0.495"/>
 <g transform="translate(0.08230787,0.08232527)" style="fill:#6996af">
  <path d="m 4.156 11.664 c -0.492 -1.188 -1.141 -2.234 -1.156 -4.18 -0.016 -2 1.707 -3.305 3.066 -3.305 c 1.648 0 3.098 1.391 3.172 2.543 c 0.07 1.039 -0.301 2.551 -2.211 2.539 -0.91 -0.004 -1.859 -0.797 -1.863 -1.977 -0.004 -1.273 1.59 -1.398 1.992 -1.074 c 0.156 0.125 0.152 0.375 0.012 0.332 c -0.859 -0.281 -1.387 0.27 -1.348 0.82 0.051 0.742 0.496 1.184 1.285 1.223 1.141 0.055 1.461 -1.059 1.434 -1.508 -0.035 -0.547 -0.516 -1.676 -2 -1.879 -0.703 -0.098 -1.285 0.113 -1.707 0.523 -0.426 0.41 -0.664 0.84 -0.699 1.535 -0.035 0.723 0.121 1.148 0.555 2.098 0.152 0.336 0.586 1.02 0.918 1.703"/>
  <path d="m 11.676 4.18 c 0.492 1.191 1.145 2.238 1.156 4.18 0.016 2.01 -1.707 3.305 -3.066 3.305 -1.645 0 -3.098 -1.391 -3.172 -2.543 c -0.07 -1.039 0.301 -2.551 2.211 -2.539 0.91 0.004 1.859 0.797 1.863 1.98 0.008 1.27 -1.59 1.395 -1.992 1.07 -0.156 -0.125 -0.148 -0.375 -0.012 -0.328 0.859 0.277 1.391 -0.273 1.348 -0.82 -0.051 -0.746 -0.492 -1.188 -1.285 -1.227 -1.141 -0.051 -1.461 1.059 -1.434 1.508 c 0.039 0.547 0.516 1.676 2 1.879 0.703 0.098 1.285 -0.109 1.711 -0.523 c 0.422 -0.41 0.66 -0.836 0.695 -1.535 0.039 -0.723 -0.121 -1.145 -0.551 -2.094 -0.156 -0.34 -0.586 -1.023 -0.922 -1.707"/>
 </g>
</svg>
