<svg xmlns="http://www.w3.org/2000/svg" viewBox="0 0 16 16">
 <g transform="matrix(0.33333769,0,0,0.33333769,-0.15253898,-335.45844)">
  <path d="m 20 6 0 20.736 a 4.136 6.204 75 0 0 -5.158 -0.285 4.136 6.204 75 0 0 -4.922 5.602 4.136 6.204 75 0 0 7.06 2.389 4.136 6.204 75 0 0 5.01 -4.807 l 0.004 0 0 -15.254 13 1.734 0 15.869 a 4.136 6.204 75 0 0 -5.158 -0.285 4.136 6.204 75 0 0 -4.922 5.602 4.136 6.204 75 0 0 7.06 2.389 4.136 6.204 75 0 0 5.01 -4.809 l 0.004 0.002 0 -26.605 -17 -2.277 m 2 4.621 13 1.734 0 1.76 -13 -1.734 0 -1.76 z" transform="translate(0.45762712,1006.3622)" style="fill:#4c7686"/>
 </g>
</svg>
