<svg xmlns="http://www.w3.org/2000/svg" viewBox="0 0 16 16">
 <path d="m 2.5 6 c -0.276 0 -0.5 0.224 -0.5 0.5 c 0 1.333 0 2.667 0 4 0 0.823 0.677 1.5 1.5 1.5 1.667 0 3.333 0 5 0 0.643 0 1.246 -0.32 1.58 -0.863 0.334 -0.543 0.334 -1.231 0 -1.773 c -0.334 -0.543 -0.937 -0.863 -1.58 -0.863 l -0.75 0 c -0.269 0 -0.516 -0.142 -0.65 -0.375 -0.134 -0.233 -0.134 -0.517 0 -0.75 0.134 -0.233 0.382 -0.375 0.65 -0.375 l 1.75 0 c 0.276 0 0.5 -0.224 0.5 -0.5 0 -0.276 -0.224 -0.5 -0.5 -0.5 l -1.75 0 c -0.624 0 -1.203 0.334 -1.516 0.875 c -0.312 0.541 -0.312 1.209 0 1.75 c 0.312 0.541 0.891 0.875 1.516 0.875 l 0.75 0 c 0.31 0 0.586 0.156 0.729 0.387 0.142 0.231 0.142 0.496 0 0.727 c -0.142 0.231 -0.419 0.387 -0.729 0.387 -1.667 0 -3.333 0 -5 0 -0.282 0 -0.5 -0.218 -0.5 -0.5 0 -1.333 0 -2.667 0 -4 0 -0.276 -0.224 -0.5 -0.5 -0.5" style="fill:#d07d86;opacity:1;fill-opacity:1;stroke:none;fill-rule:nonzero"/>
 <path d="m 5.75 4 c -0.961 0 -1.75 0.789 -1.75 1.75 0 1.25 0 2.5 0 3.75 0 0.276 0.224 0.5 0.5 0.5 0.276 0 0.5 -0.224 0.5 -0.5 0 -1.25 0 -2.5 0 -3.75 0 -0.42 0.33 -0.75 0.75 -0.75 l 6.75 0 c 0.282 0 0.5 0.218 0.5 0.5 0 0.282 -0.218 0.5 -0.5 0.5 -0.823 0 -1.5 0.677 -1.5 1.5 l 0 2 c 0 0.276 0.224 0.5 0.5 0.5 0.276 0 0.5 -0.224 0.5 -0.5 l 0 -2 c 0 -0.282 0.218 -0.5 0.5 -0.5 0.823 0 1.5 -0.677 1.5 -1.5 0 -0.823 -0.677 -1.5 -1.5 -1.5" style="fill:#d07d86;opacity:1;fill-opacity:1;stroke:none;fill-rule:nonzero"/>
</svg>
