<svg xmlns="http://www.w3.org/2000/svg" viewBox="0 0 16 16">
 <path d="m 2.486 2 c -0.265 0 -0.486 0.199 -0.486 0.439 l 0 9.121 c 0 0.24 0.221 0.439 0.486 0.439 l 6.03 0 c 0.265 0 0.486 -0.199 0.486 -0.439 l 0 -9.121 c 0 -0.24 -0.221 -0.439 -0.486 -0.439 l -6.03 0 z m 2.01 3.242 c 0.256 0 0.512 0.098 0.707 0.293 c 0.195 0.195 0.293 0.451 0.293 0.707 c 0 -0.256 0.098 -0.512 0.293 -0.707 c 0.39 -0.39 1.024 -0.39 1.414 0 c 0.391 0.391 0.39 1.024 0 1.414 l -1.707 1.809 l -1.705 -1.807 c 0 0 -0.002 -0.002 -0.002 -0.002 c -0.39 -0.39 -0.391 -1.023 0 -1.414 c 0.195 -0.195 0.451 -0.293 0.707 -0.293 z" style="fill:#f9b081"/>
 <path d="m 8.879 3.389 c -0.256 -0.066 -0.52 0.068 -0.58 0.3 l -2.347 8.806 c -0.06 0.232 0.1 0.481 0.356 0.548 l 5.812 1.567 c 0.256 0.07 0.516 -0.068 0.58 -0.3 l 2.343 -8.802 c 0.064 -0.236 -0.096 -0.485 -0.352 -0.552 m -3.607 1.845 0.862 2.586 -2.031 1.811 -0.862 -2.586" style="fill:#f9b081"/>
</svg>
