<svg xmlns="http://www.w3.org/2000/svg" xmlns:xlink="http://www.w3.org/1999/xlink" viewBox="0 0 16 16">
 <defs>
  <filter width="16" x="0" y="0" height="16" filterUnits="objectBoundingBox" id="alpha">
   <feColorMatrix values="0 0 0 0 1 0 0 0 0 1 0 0 0 0 1 0 0 0 1 0" in="SourceGraphic" type="matrix"/>
  </filter>
  <g id="surface9">
   <path d="m 25.676 21.281 l 1.371 0" transform="scale(.33333)" style="fill:none;stroke:url(#linear0);stroke-linecap:round;stroke-width:0.681"/>
  </g>
  <g id="surface6">
   <path d="m 27.727 25.441 l 0 3.984 c 1.254 1.066 2.063 2.648 2.063 4.43 c 0 0.105 0 0.27 0 0.375 l -2.063 0 l 0 2.707 l 1.359 0 l 0 0.703 l 1.406 0 l 0 -0.703 l 1.313 0 l 0 -7.922 c -0.961 -1.559 -2.391 -2.813 -4.078 -3.574 Z" transform="scale(.33333)" style="fill:#6fac63;stroke:#6fac63;fill-rule:evenodd;stroke-linecap:round;stroke-width:0.681"/>
  </g>
  <linearGradient gradientTransform="matrix(.68089 0 0 .68085 19.21267 9.36186)" id="linear0" x1="9.531" gradientUnits="userSpaceOnUse" x2="11.468">
   <stop style="stop-color:#fff"/>
   <stop offset="1" style="stop-color:#fff;stop-opacity:0"/>
  </linearGradient>
  <mask id="mask0">
   <g style="filter:url(#alpha)">
    <rect width="16" height="16" style="fill:#000;fill-opacity:0.102"/>
   </g>
  </mask>
  <mask id="mask1">
   <g style="filter:url(#alpha)">
    <rect width="16" height="16" style="fill:#000;fill-opacity:0.537"/>
   </g>
  </mask>
 </defs>
 <g style="fill:#6fac63;fill-rule:evenodd">
  <g style="stroke:#6fac63;stroke-width:0.681">
   <path d="m 31.805 12.422 l 3.41 0 c 0 -0.891 -2.191 -1.805 -3.41 -2.039 Z" transform="scale(.33333)"/>
   <g style="stroke-linecap:round">
    <path d="m 31.13 16.512 l 2.73 0 l 0 1.359 l -2.73 0 Z" transform="scale(.33333)" style="stroke-miterlimit:10"/>
    <path d="m 12.08 37.641 l 23.836 0 l 0 -3.41 l -2.73 0 c 0.012 -0.105 0 -0.27 0 -0.375 c 0 -5.074 -4.113 -9.199 -9.188 -9.199 c -5.074 0 -9.188 4.125 -9.188 9.199 c 0 0.105 0.012 0.27 0.012 0.375 l -2.742 0 m 6.129 -0.375 c 0 -3.199 2.59 -5.789 5.789 -5.789 c 3.199 0 5.789 2.59 5.789 5.789 c 0 0.105 0 0.27 0 0.375 l -11.578 0 c 0 -0.105 0 -0.27 0 -0.375 Z" transform="scale(.33333)" style="stroke-linejoin:round"/>
   </g>
  </g>
  <path d="m 5.05 10.809 l 0.316 0.094 c 0.02 -0.074 0.043 -0.148 0.066 -0.223 l -0.328 -0.09 m 0.219 -0.563 l 0.309 0.184 c 0.035 -0.063 0.07 -0.129 0.113 -0.191 l -0.313 -0.191 l -0.105 0.199 m 0.453 -0.68 l 0.277 0.289 c 0.051 -0.055 0.105 -0.105 0.16 -0.156 l -0.281 -0.297 m 0.461 -0.367 l 0.203 0.383 c 0.063 -0.039 0.129 -0.074 0.191 -0.105 l -0.211 -0.391 m 0.531 -0.234 l 0.113 0.445 c 0.07 -0.02 0.137 -0.035 0.207 -0.047 l -0.113 -0.457 m 0.574 0.398 c 0.035 0 0.07 -0.008 0.105 -0.008 c 0.035 0 0.07 0.008 0.105 0.008 l 0 -0.477 l -0.211 0 m 0.672 0.535 c 0.07 0.012 0.137 0.027 0.207 0.047 l 0.113 -0.445 l -0.207 -0.059 m 0.527 0.684 c 0.063 0.031 0.129 0.066 0.191 0.105 l 0.203 -0.383 l -0.184 -0.113 m 0.363 0.777 c 0.055 0.051 0.109 0.102 0.164 0.156 l 0.273 -0.289 l -0.156 -0.164 m 0.191 0.836 c 0.043 0.063 0.078 0.129 0.113 0.191 l 0.309 -0.184 l -0.109 -0.199 m 0 0.852 c 0.023 0.074 0.047 0.148 0.066 0.223 l 0.316 -0.094 l -0.055 -0.219 Z"/>
  <path d="m 4.824 12.434 l 0.227 0 l 0 -0.453 l -0.227 0 m 0.453 0.453 l 0.227 0 l 0 -0.684 l -0.227 0 m 0.453 0.684 l 0.227 0 l 0 -0.453 l -0.227 0 m 0.453 0.453 l 0.227 0 l 0 -0.684 l -0.227 0 m 0.453 0.684 l 0.227 0 l 0 -0.453 l -0.227 0 m 0.457 0.453 l 0.227 0 l 0 -0.684 l -0.227 0 m 0.453 0.684 l 0.227 0 l 0 -0.453 l -0.227 0 m 0.453 0.453 l 0.227 0 l 0 -0.684 l -0.227 0 m 0.453 0.684 l 0.227 0 l 0 -0.453 l -0.227 0 m 0.453 0.453 l 0.23 0 l 0 -0.684 l -0.23 0 m 0.457 0.684 l 0.227 0 l 0 -0.453 l -0.227 0 m 0.453 0.453 l 0.227 0 l 0 -0.684 l -0.227 0 m 0.453 0.684 l 0.227 0 l 0 -0.453 l -0.227 0 m 0.453 0.453 l 0.227 0 l 0 -0.684 l -0.227 0 m 0.453 0.684 l 0.23 0 l 0 -0.453 l -0.23 0 Z"/>
 </g>
 <use xlink:href="#surface6" style="mask:url(#mask0)"/>
 <g style="fill:#6fac63;fill-rule:evenodd">
  <g style="stroke:#6fac63;stroke-width:0.681">
   <path d="m 28.406 35.578 l 1.395 0 l 0 4.078 l -1.395 0 Z" transform="scale(.33333)" style="stroke-linecap:round;stroke-linejoin:round"/>
   <path d="m 31.13 6.34 l -4.758 0 c -1.395 0 -7.512 1.383 -7.512 1.383 c -0.598 0.34 -0.668 0.961 -0.668 2.027 l 7.488 0 c 0 -0.82 0.527 -0.691 1.371 -0.691 l 0 25.2 l 4.078 0 l 0 -24.492 c 1.535 0 4.09 -1.02 4.09 -2.062 l -4.09 0 Z" transform="scale(.33333)"/>
  </g>
  <path d="m 7.086 4.48 l 0 0.234 c 0 0.125 -0.098 0.223 -0.219 0.223 l -0.543 0 c 0 0 -0.148 -0.105 -0.148 -0.223 l 0 -0.234 Z"/>
  <path d="m 33.504 15.832 l 0.703 0 c 0.176 0 0.328 0.141 0.328 0.328 l 0 2.063 c 0 0.188 -0.152 0.328 -0.328 0.328 l -0.703 0 c -0.188 0 -0.328 -0.141 -0.328 -0.328 l 0 -2.063 c 0 -0.188 0.141 -0.328 0.328 -0.328 Z" transform="scale(.33333)" style="stroke-miterlimit:10;stroke:#6fac63;stroke-linecap:round;stroke-width:0.681"/>
  <path d="m 8.902 5.391 l 0 0.227 l 0.227 0 l 0 -0.227 m -0.227 0.453 l 0 0.227 l 0.227 0 l 0 -0.227 m -0.227 0.453 l 0 0.227 l 0.227 0 l 0 -0.227 m -0.227 0.453 l 0 0.23 l 0.227 0 l 0 -0.23 Z" style="fill-opacity:0.157"/>
  <path d="m 10.262 5.391 l 0 0.227 l 0.227 0 l 0 -0.227 m -0.227 0.453 l 0 0.227 l 0.227 0 l 0 -0.227 m -0.227 0.453 l 0 0.227 l 0.227 0 l 0 -0.227 m -0.227 0.453 l 0 0.23 l 0.227 0 l 0 -0.23 Z" style="fill-opacity:0.102"/>
 </g>
 <use xlink:href="#surface9" style="mask:url(#mask1)"/>
 <g style="fill:#6fac63;fill-rule:evenodd">
  <path d="m 10.262 4.711 l 0.227 0 l 0 0.227 l -0.227 0 Z" style="fill-opacity:0.533"/>
  <path d="m 18.13 13.148 c 0 1.066 0.07 1.676 0.656 2.027 l 7.172 1.383 c 0.258 0.117 0.34 0.34 0.34 0.68 l 0 3.398 l -0.68 0 c -0.375 0 -0.68 0.305 -0.68 0.68 c 0 0.375 0.305 0.68 0.68 0.68 l 2.051 0 l 0 -8.168 l -1.371 0 c -0.691 0 -0.68 -0.059 -0.68 -0.68 m 4.77 0.68 l 0 8.168 l 1.359 0 l 0 -8.168 Z" transform="scale(.33333)" style="stroke-miterlimit:10;stroke:#6fac63;stroke-linecap:round;stroke-width:0.681"/>
 </g>
</svg>
