<svg xmlns="http://www.w3.org/2000/svg" viewBox="0 0 16 16">
 <path d="m 2.391 1.5 c -0.217 0 -0.391 0.184 -0.391 0.415 l 0 12.17 c 0 0.231 0.174 0.415 0.391 0.415 l 2.217 0 c 0.218 0 0.393 -0.184 0.393 -0.415 l 0 -12.17 c 0 -0.231 -0.174 -0.415 -0.393 -0.415 z m 0.109 1 2 0 0 5 -2 0 z m 1 8.75 c 0.414 0 0.75 0.336 0.75 0.75 0 0.414 -0.336 0.75 -0.75 0.75 -0.414 0 -0.75 -0.336 -0.75 -0.75 0 -0.414 0.336 -0.75 0.75 -0.75 z" style="fill:#b2a445"/>
 <path d="m 6.347 1.5 c -0.191 0 -0.347 0.184 -0.347 0.415 l 0 12.17 c 0 0.231 0.155 0.415 0.347 0.415 l 1.305 0 c 0.195 0 0.349 -0.184 0.349 -0.415 l 0 -12.17 c 0 -0.231 -0.154 -0.415 -0.349 -0.415 z m 0.153 1 1 0 0 5 -1 0 z m 0.5 9 c 0.276 0 0.5 0.224 0.5 0.5 0 0.276 -0.224 0.5 -0.5 0.5 -0.276 0 -0.5 -0.224 -0.5 -0.5 0 -0.276 0.224 -0.5 0.5 -0.5 z" style="fill:#b2a445"/>
 <path d="m 8.733 1.938 c -0.231 0.062 -0.371 0.29 -0.311 0.513 l 3.15 11.746 c 0.06 0.223 0.295 0.35 0.526 0.288 l 1.575 -0.422 c 0.235 -0.063 0.373 -0.29 0.313 -0.513 l -3.15 -11.746 c -0.06 -0.223 -0.293 -0.351 -0.528 -0.288 z m 0.323 0.948 1.449 -0.388 1.294 4.826 -1.449 0.388 z m 2.989 8.251 c 0.4 -0.107 0.811 0.13 0.919 0.53 0.107 0.4 -0.13 0.811 -0.53 0.918 -0.4 0.107 -0.811 -0.13 -0.919 -0.53 -0.107 -0.4 0.13 -0.811 0.53 -0.918 z" style="fill:#b2a445"/>
</svg>
