<svg xmlns="http://www.w3.org/2000/svg" viewBox="0 0 16 16">
 <path d="m 6.137 13.157 c 0.398 -0.047 -0.066 -0.379 -0.199 -0.445 -0.254 -0.129 -0.461 -0.273 -0.621 -0.512 -0.254 -0.383 -0.379 -0.895 -0.484 -1.336 -0.074 -0.297 -0.129 -0.473 0.063 -0.727 0.188 -0.25 -0.137 -0.461 0.066 -0.727 0.336 -0.449 0.477 -1.039 0.809 -1.484 0.094 -0.125 0.059 -0.242 0.195 -0.254 0.066 -0.008 0.23 0.125 0.289 0.16 0.164 0.113 0.363 0.164 0.527 0.27 0.078 0.055 0.234 0.016 0.301 0.066 0.195 0.152 0.148 0.625 0.129 0.863 -0.031 0.344 -0.305 0.453 -0.305 0.781 0 0.398 0.086 0.672 -0.039 1.078 -0.074 0.234 -0.254 0.504 -0.281 0.742 -0.027 0.188 0.008 0.184 0.066 0.363 0.063 0.215 0.082 0.402 0.281 0.5 0.117 0.055 0.582 0.074 0.648 -0.055 0.129 -0.254 -0.363 -0.344 -0.445 -0.5 -0.18 -0.336 0.242 -1.203 0.402 -1.496 0.09 -0.156 0.262 -0.285 0.324 -0.441 0.086 -0.215 -0.086 -0.363 -0.059 -0.527 0.051 -0.32 0.188 -0.66 0.289 -0.969 0.234 -0.719 0.563 0.371 0.699 0.648 0.055 0.105 0.094 0.223 0.148 0.336 0.066 0.129 -0.078 0.242 -0.039 0.402 0.035 0.152 0.211 0.238 0.309 0.352 0.148 0.172 0.25 0.395 0.332 0.605 0.164 0.445 0.223 1.219 0.531 1.574 0.043 0.055 0.168 0.023 0.215 0.07 0.105 0.105 -0.027 0.219 0.184 0.289 0.16 0.055 0.566 0.113 0.719 0.02 0.293 -0.176 -0.074 -0.395 -0.254 -0.578 -0.258 -0.258 -0.555 -0.492 -0.758 -0.797 -0.262 -0.398 -0.316 -0.852 -0.371 -1.313 -0.023 -0.223 0.219 -0.332 0.012 -0.602 -0.07 -0.082 -0.273 -0.07 -0.273 -0.16 0 -0.277 -0.008 -0.559 0 -0.836 0.012 -0.336 0.008 -0.891 0.332 -1.105 0.426 -0.285 0.973 -0.359 1.379 -0.664 0.406 -0.309 0.781 -0.586 1.027 -1.07 0.125 -0.258 0.191 -0.508 0.297 -0.77 0.074 -0.195 0.051 -0.129 0.172 -0.242 0.074 -0.066 0.18 -0.113 0.258 -0.191 0.207 -0.195 0.246 -0.391 0.594 -0.309 0.137 0.035 0.363 0.293 0.441 0.133 0.051 -0.098 0.02 -0.191 -0.004 -0.293 -0.039 -0.156 0.145 -0.203 0.141 -0.352 -0.008 -0.254 -0.414 -0.516 -0.625 -0.559 -0.27 -0.055 -0.563 0.059 -0.844 0.004 -0.23 -0.043 -0.426 -0.168 -0.648 -0.219 -0.227 -0.059 -0.434 -0.078 -0.633 0.059 -0.09 0.063 -0.121 0.176 -0.199 0.242 -0.07 0.055 -0.125 0.039 -0.203 0.094 -0.23 0.168 -0.25 0.414 0.148 0.34 -0.168 0.691 -0.98 2.551 -1.887 1.59 -0.422 -0.449 -0.813 -0.949 -1.215 -1.414 -0.352 -0.414 -0.555 -0.879 -1.156 -0.797 -0.594 0.078 -1 0.484 -1.457 0.82 -0.375 0.277 -0.816 0.34 -1.215 0.566 -0.418 0.242 -0.797 0.652 -0.941 1.117 -0.207 0.676 -0.09 1.328 -0.457 1.969 -0.223 0.391 -0.543 0.66 -0.824 0.984 -0.148 0.172 -0.25 0.414 -0.199 0.645 0.031 0.164 0.148 0.191 0.148 0.379 0 0.328 -0.02 0.652 -0.004 0.977 0.012 0.293 0.035 0.578 0.078 0.867 0.035 0.246 0.125 0.316 0.207 0.5 0.121 0.273 0.102 0.391 0.391 0.5 0.164 0.059 0.445 0.184 0.621 0.176 0.25 -0.012 0.289 -0.219 0.094 -0.445 -0.125 -0.145 -0.359 -0.191 -0.496 -0.352 -0.41 -0.457 -0.586 -1.832 -0.246 -2.316 0.145 -0.203 0.324 -0.203 0.336 -0.512 0.016 -0.273 -0.098 -0.371 0.152 -0.621 0.789 -0.402 0.871 -0.691 1.129 -0.551 0.313 0.168 0.066 1.121 0 1.387 -0.121 0.477 -0.594 0.703 -0.281 1.187 0.223 0.344 0.324 0.699 0.477 1.105 0.137 0.363 0.125 0.879 0.344 1.184 0.043 0.059 0.109 0.09 0.148 0.148 0.027 0.043 0.074 0.164 0.094 0.188 0.09 0.105 0.113 0.133 0.258 0.191 0.262 0.098 0.578 0.066 0.859 0.066" style="fill:#d56f7f;fill-rule:evenodd"/>
</svg>
