<svg xmlns="http://www.w3.org/2000/svg" viewBox="0 0 16 16">
 <path d="m 6.313 4 c -0.813 0 -1.146 0.073 -1.405 0.149 -0.404 0.119 -0.817 0.331 -1.076 0.663 c -1.516 1.946 -2.502 6.555 -2.229 7.06 0.273 0.505 2.73 -0.501 4.02 -2.439 0.098 -0.145 0.277 -0.432 0.277 -0.432 l 4.205 0 c 0 0 0.18 0.287 0.277 0.432 1.288 1.938 3.745 2.944 4.02 2.439 0.273 -0.503 -0.712 -5.112 -2.229 -7.06 -0.259 -0.332 -0.672 -0.545 -1.076 -0.663 -0.26 -0.076 -0.592 -0.149 -1.405 -0.149 z m 4.197 1.284 c 0.219 0.008 0.407 0.158 0.464 0.37 0.072 0.267 -0.086 0.542 -0.354 0.613 -0.267 0.071 -0.541 -0.087 -0.612 -0.355 -0.071 -0.267 0.087 -0.541 0.354 -0.612 0.048 -0.013 0.098 -0.019 0.148 -0.017 z m -5.51 -0.284 1 0 l 0 1 1 0 0 1 -1 0 0 1 -1 0 0 -1 -1 0 0 -1 1 0 z m 6.735 0.991 c 0.219 0.008 0.407 0.159 0.464 0.371 0.071 0.267 -0.087 0.541 -0.354 0.612 -0.267 0.072 -0.542 -0.086 -0.613 -0.354 -0.072 -0.267 0.087 -0.542 0.354 -0.613 0.048 -0.013 0.098 -0.019 0.148 -0.017 z m -1.933 0.518 c 0.219 0.008 0.407 0.159 0.464 0.371 0.071 0.267 -0.087 0.541 -0.354 0.612 -0.267 0.071 -0.541 -0.087 -0.612 -0.354 -0.071 -0.267 0.087 -0.541 0.354 -0.612 0.048 -0.013 0.098 -0.019 0.148 -0.018 z m 1.175 0.708 c 0.238 -0.015 0.453 0.14 0.515 0.37 0.071 0.267 -0.087 0.541 -0.354 0.612 -0.267 0.071 -0.541 -0.087 -0.612 -0.354 -0.071 -0.267 0.087 -0.541 0.354 -0.612 0.032 -0.009 0.065 -0.014 0.099 -0.017 z" style="fill:#d64c62"/>
</svg>
