<svg xmlns="http://www.w3.org/2000/svg" viewBox="0 0 16 16">
 <g transform="matrix(1.0957023,0,0,1.0957023,-0.67487858,-0.67392242)" style="fill:#e660c1;fill-rule:evenodd">
  <path d="m 6.293 11.297 c 0 0 -0.473 0.277 0.336 0.371 0.98 0.109 1.48 0.094 2.563 -0.109 0 0 0.285 0.176 0.68 0.332 -2.422 1.039 -5.48 -0.063 -3.578 -0.594"/>
  <path d="m 5.996 9.941 c 0 0 -0.527 0.395 0.281 0.477 1.047 0.109 1.875 0.117 3.305 -0.156 0 0 0.199 0.199 0.508 0.309 -2.926 0.855 -6.188 0.07 -4.094 -0.629"/>
  <path d="m 8.492 7.645 c 0.598 0.688 -0.156 1.309 -0.156 1.309 0 0 1.516 -0.785 0.816 -1.762 -0.648 -0.914 -1.145 -1.367 1.551 -2.934 0 0 -4.234 1.059 -2.211 3.387"/>
  <path d="m 11.695 12.301 c 0 0 0.348 0.289 -0.387 0.512 -1.398 0.422 -5.816 0.551 -7.04 0.016 -0.441 -0.191 0.383 -0.457 0.645 -0.516 0.273 -0.059 0.426 -0.047 0.426 -0.047 -0.488 -0.348 -3.172 0.68 -1.363 0.973 4.941 0.801 9 -0.359 7.723 -0.938"/>
  <path d="m 6.52 8.539 c 0 0 -2.246 0.535 -0.797 0.73 0.617 0.082 1.836 0.063 2.977 -0.031 c 0.93 -0.078 1.863 -0.246 1.863 -0.246 c 0 0 -0.328 0.141 -0.566 0.301 c -2.281 0.602 -6.691 0.32 -5.422 -0.293 1.074 -0.52 1.945 -0.461 1.945 -0.461"/>
  <path d="m 10.555 10.793 c 2.32 -1.203 1.246 -2.363 0.5 -2.207 -0.184 0.039 -0.266 0.07 -0.266 0.07 c 0 0 0.066 -0.105 0.195 -0.152 1.484 -0.52 2.621 1.535 -0.477 2.352 0 0 0.035 -0.031 0.047 -0.063"/>
  <path d="m 9.152 1.73 c 0 0 1.289 1.289 -1.219 3.266 -2.01 1.586 -0.457 2.488 0 3.52 c -1.172 -1.055 -2.031 -1.984 -1.453 -2.852 0.844 -1.273 3.191 -1.891 2.672 -3.934"/>
  <path d="m 6.746 14.06 c 2.23 0.145 5.652 -0.078 5.734 -1.133 0 0 -0.156 0.398 -1.844 0.715 c -1.902 0.359 -4.246 0.32 -5.637 0.09 c 0 0 0.285 0.234 1.746 0.328"/>
 </g>
</svg>
