<svg xmlns="http://www.w3.org/2000/svg" width="16" height="16" viewBox="0 0 12.8 12.8">
 <g transform="matrix(0.33334311,0,0,0.33334311,-5.8046562e-5,5.246645e-4)">
  <path d="m 16.25 5.416 c -1.072 0.013 -1.766 0.084 -1.766 0.084 l -0.172 0.02 -0.145 0.096 c -0.294 0.196 -0.448 0.635 -0.416 0.908 0.032 0.273 0.132 0.443 0.223 0.588 0.088 0.14 0.115 0.153 0.189 0.238 l 0.154 4.262 -4.199 16.486 c -0.78 2.582 -0.965 4.199 -0.936 5.219 0.015 0.512 0.085 0.876 0.166 1.133 0.081 0.257 0.23 0.475 0.23 0.475 l 0.053 0.068 0.068 0.055 c 2.619 2.028 5.675 2.305 8.371 2.1 -0.015 -0.416 0.002 -0.874 0.105 -1.43 -2.497 0.204 -5.217 -0.017 -7.496 -1.721 -0.035 -0.117 -0.085 -0.33 -0.096 -0.719 -0.023 -0.809 0.128 -2.298 0.887 -4.803 l 0.004 -0.016 4.25 -16.697 -0.172 -4.836 c 0.546 -0.041 1.825 -0.035 3.594 0.113 l -0.453 4.617 3.045 14.08 0.902 -2.471 -2.531 -11.693 0.434 -4.398 c 0.099 -0.157 0.318 -0.274 0.338 -0.408 0.046 -0.32 -0.031 -0.576 -0.031 -0.576 l -0.119 -0.439 -0.449 -0.07 c -1.511 -0.233 -2.961 -0.279 -4.03 -0.266" transform="scale(0.8,0.8)" mix-blend-mode="normal" isolation="auto" white-space="normal" solid-opacity="1" solid-color="#000000" style="visibility:visible;shape-rendering:auto;color-interpolation-filters:linearRGB;fill:#5b93d7;opacity:1;image-rendering:auto;fill-opacity:1;stroke:none;display:inline;color:#000;fill-rule:evenodd;color-rendering:auto;color-interpolation:sRGB"/>
  <path d="m 11.986 28.5 -0.004 0.023 c -0.005 0.02 -0.01 0.034 -0.01 0.049 -0.752 2.48 -0.895 3.937 -0.875 4.693 0.01 0.278 0.034 0.439 0.059 0.547 2.16 1.539 4.72 1.704 7.113 1.484 0.189 -0.808 0.514 -1.755 1.037 -2.883 l 1.418 -3.891 c -3.855 1.74 -6.771 1.088 -8.738 -0.023 z" transform="scale(0.8,0.8)" style="fill:#adc3e2;fill-rule:evenodd"/>
 </g>
 <path d="m 7.115 2.029 -0.093 0.02 -0.157 0.359 0.117 0.065 c 0.001 0.008 0.002 0.018 0.002 0.018 l 0 0.006 0.037 1.04 0.007 0.021 c 0.011 0.038 0.015 0.037 0.02 0.042 0 -0.006 -0.037 0.076 -0.074 0.139 -0.04 0.068 -0.077 0.127 -0.077 0.127 l -0.011 0.017 -1.736 4.762 0.007 -0.015 c -0.321 0.687 -0.374 1.134 -0.327 1.429 c 0.023 0.148 0.072 0.256 0.121 0.329 0.046 0.068 0.101 0.107 0.107 0.113 1.447 1.211 3.28 0.823 4.125 0.688 0.967 -0.155 1.164 -1.077 1.164 -1.077 l 0.007 -0.033 -0.006 -0.034 c -0.334 -1.91 -1.551 -6.409 -1.568 -6.474 l 0.116 -0.939 -0.001 -0.016 c -0.004 -0.086 0.031 -0.114 0.031 -0.114 l 0.064 -0.066 -0.014 -0.092 c -0.021 -0.14 -0.138 -0.238 -0.222 -0.267 -0.083 -0.029 -0.156 -0.022 -0.156 -0.022 l -0.001 0 c -0.995 -0.112 -1.481 -0.025 -1.481 -0.025 m 0.233 0.369 c 0.077 -0.014 0.339 -0.079 1.237 0.029 l 0.006 0.001 c -0.037 0.069 -0.078 0.083 -0.072 0.206 l 0.001 -0.032 -0.123 0.995 0.01 0.035 c 0 0 1.225 4.548 1.561 6.435 -0.008 0.044 -0.119 0.636 -0.846 0.753 l -0.001 0 c -0.872 0.14 -2.535 0.485 -3.834 -0.609 l -0.008 -0.007 -0.008 -0.006 c 0 0 0.006 0.009 -0.012 -0.019 -0.019 -0.028 -0.047 -0.081 -0.062 -0.177 -0.03 -0.193 -0.004 -0.568 0.297 -1.213 l 0.004 -0.007 1.726 -4.734 c 0.009 -0.015 0.035 -0.054 0.072 -0.118 0.044 -0.075 0.089 -0.138 0.117 -0.24 0.021 -0.079 0.011 -0.158 -0.01 -0.211 -0.003 -0.009 -0.006 -0.012 -0.01 -0.02 l -0.035 -0.968 0 0.012 c 0 0 0 -0.05 -0.01 -0.105 z" mix-blend-mode="normal" isolation="auto" white-space="normal" solid-opacity="1" solid-color="#000000" style="visibility:visible;shape-rendering:auto;color-interpolation-filters:linearRGB;fill:#5b93d7;opacity:1;image-rendering:auto;fill-opacity:1;stroke:none;display:inline;color:#000;fill-rule:evenodd;color-rendering:auto;color-interpolation:sRGB"/>
 <path d="m 5.897 8.222 -0.217 0.595 c -0.003 0.009 -0.007 0.018 -0.01 0.027 c -0.294 0.629 -0.311 0.979 -0.286 1.137 c 0.012 0.077 0.033 0.109 0.039 0.118 1.227 1.035 2.779 0.707 3.665 0.565 0.538 -0.086 0.665 -0.479 0.693 -0.596 c -0.077 -0.43 -0.201 -0.997 -0.344 -1.617 -1.594 0.395 -2.757 0.145 -3.539 -0.229" style="fill:#adc3e2;fill-rule:evenodd"/>
</svg>
