<svg xmlns="http://www.w3.org/2000/svg" viewBox="0 0 16 16">
 <g transform="matrix(1,0,0,0.99991165,0.08325509,0.08468388)" style="fill:#a98bc7">
  <path d="m 7.734 1.73 c -3.66 0 -6.336 2.828 -5.969 6.293 0.309 2.926 2.684 5.379 5.617 6.078 c -0.504 -0.82 -0.828 -1.738 -0.93 -2.707 -0.367 -3.469 2.309 -6.266 5.973 -6.266 0.574 0 1.129 0.07 1.676 0.199 -1.289 -2.117 -3.723 -3.598 -6.367 -3.598 m 0 1.297 c 1.148 0 2.254 0.355 3.203 0.941 c -3.574 0.691 -6.141 3.852 -5.766 7.539 -1.141 -0.941 -1.973 -2.219 -2.125 -3.625 -0.289 -2.738 1.691 -4.855 4.688 -4.855"/>
  <path d="m 4.695 4.074 c 0.645 0 1.168 0.629 1.168 1.406 l 0 4.977 c 0 0.773 -0.523 1.402 -1.168 1.402 -0.648 0 -1.172 -0.629 -1.172 -1.402 l 0 -4.977 c 0 -0.777 0.523 -1.406 1.172 -1.406 z"/>
  <path d="m 3.926 4.941 c 0.625 0 1.137 0.629 1.137 1.406 l 0 2.664 c 0 0.777 -0.512 1.406 -1.137 1.406 -0.629 0 -1.137 -0.629 -1.137 -1.406 l 0 -2.664 c 0 -0.777 0.508 -1.406 1.137 -1.406 z"/>
  <path d="m 5.398 3.434 c 0.645 0 1.168 0.629 1.168 1.406 l 0 1.93 c 0 0.777 -0.523 1.406 -1.168 1.406 -0.645 0 -1.168 -0.629 -1.168 -1.406 l 0 -1.93 c 0 -0.777 0.523 -1.406 1.168 -1.406 z"/>
  <path d="m 5.953 2.313 1.676 0 c 0.777 0 1.406 0.629 1.406 1.406 l 0 1.035 c 0 0.773 -0.629 1.402 -1.406 1.402 l -1.676 0 c -0.773 0 -1.402 -0.629 -1.402 -1.402 l 0 -1.035 c 0 -0.777 0.629 -1.406 1.402 -1.406 z"/>
  <path d="m 6.617 4.621 c 0.449 0 0.816 0.609 0.816 1.359 0 0.754 -0.367 1.363 -0.816 1.363 -0.453 0 -0.816 -0.609 -0.816 -1.363 0 -0.75 0.363 -1.359 0.816 -1.359 z"/>
  <path d="m 9.316 2.922 0.266 0 c 0.777 0 1.406 0.445 1.406 0.996 0 0.547 -0.629 0.992 -1.406 0.992 l -0.266 0 c -0.773 0 -1.402 -0.445 -1.402 -0.992 0 -0.551 0.629 -0.996 1.402 -0.996 z"/>
 </g>
</svg>
