<svg xmlns="http://www.w3.org/2000/svg" viewBox="0 0 16 16">
 <path d="m 9.861 13.157 c -0.398 -0.047 0.07 -0.379 0.203 -0.445 0.254 -0.129 0.461 -0.273 0.617 -0.512 0.254 -0.383 0.379 -0.895 0.484 -1.336 0.074 -0.297 0.129 -0.473 -0.059 -0.727 -0.191 -0.25 0.133 -0.461 -0.066 -0.727 -0.336 -0.449 -0.477 -1.039 -0.813 -1.484 -0.094 -0.125 -0.059 -0.242 -0.195 -0.254 -0.063 -0.008 -0.23 0.125 -0.289 0.16 -0.164 0.113 -0.363 0.164 -0.523 0.27 -0.082 0.055 -0.238 0.016 -0.305 0.066 -0.191 0.152 -0.148 0.625 -0.129 0.863 0.031 0.344 0.305 0.453 0.305 0.781 0 0.398 -0.082 0.672 0.043 1.078 0.07 0.234 0.25 0.504 0.281 0.742 0.023 0.188 -0.012 0.184 -0.066 0.363 -0.066 0.215 -0.082 0.402 -0.285 0.5 -0.113 0.055 -0.582 0.074 -0.645 -0.055 -0.129 -0.254 0.359 -0.344 0.441 -0.5 0.18 -0.336 -0.242 -1.203 -0.402 -1.496 -0.09 -0.156 -0.262 -0.285 -0.324 -0.441 -0.086 -0.215 0.09 -0.363 0.063 -0.527 -0.055 -0.32 -0.191 -0.66 -0.289 -0.969 -0.238 -0.719 -0.566 0.371 -0.703 0.648 -0.055 0.105 -0.094 0.223 -0.148 0.336 -0.063 0.129 0.078 0.242 0.039 0.402 -0.035 0.152 -0.211 0.238 -0.309 0.352 -0.148 0.172 -0.25 0.395 -0.328 0.605 -0.168 0.445 -0.227 1.219 -0.535 1.574 -0.043 0.055 -0.164 0.023 -0.215 0.07 -0.105 0.105 0.027 0.219 -0.18 0.289 -0.16 0.055 -0.57 0.113 -0.723 0.02 -0.293 -0.176 0.074 -0.395 0.258 -0.578 0.254 -0.258 0.555 -0.492 0.754 -0.797 0.262 -0.398 0.32 -0.852 0.371 -1.313 0.023 -0.223 -0.219 -0.332 -0.008 -0.602 0.066 -0.082 0.27 -0.07 0.27 -0.16 0 -0.277 0.008 -0.559 0 -0.836 -0.012 -0.336 -0.008 -0.891 -0.332 -1.105 -0.426 -0.285 -0.969 -0.359 -1.379 -0.664 -0.406 -0.309 -0.777 -0.586 -1.023 -1.07 -0.129 -0.258 -0.195 -0.508 -0.297 -0.77 -0.074 -0.195 -0.055 -0.129 -0.176 -0.242 -0.07 -0.066 -0.176 -0.113 -0.258 -0.191 -0.207 -0.195 -0.242 -0.391 -0.59 -0.309 -0.141 0.035 -0.367 0.293 -0.445 0.133 -0.051 -0.098 -0.02 -0.191 0.008 -0.293 0.039 -0.156 -0.148 -0.203 -0.145 -0.352 0.008 -0.254 0.418 -0.516 0.629 -0.559 0.266 -0.055 0.559 0.059 0.844 0.004 0.227 -0.043 0.426 -0.168 0.645 -0.219 0.23 -0.059 0.438 -0.078 0.633 0.059 0.09 0.063 0.125 0.176 0.203 0.242 0.066 0.055 0.125 0.039 0.199 0.094 0.234 0.168 0.25 0.414 -0.145 0.34 0.164 0.691 0.977 2.551 1.883 1.59 0.426 -0.449 0.813 -0.949 1.215 -1.414 0.352 -0.414 0.559 -0.879 1.16 -0.797 0.59 0.078 0.996 0.484 1.453 0.82 0.375 0.277 0.816 0.34 1.215 0.566 0.422 0.242 0.797 0.652 0.941 1.117 0.211 0.676 0.09 1.328 0.461 1.969 0.223 0.391 0.539 0.66 0.82 0.984 0.152 0.172 0.254 0.414 0.203 0.645 -0.035 0.164 -0.148 0.191 -0.148 0.379 0 0.328 0.016 0.652 0 0.977 -0.012 0.293 -0.035 0.578 -0.074 0.867 -0.039 0.246 -0.129 0.316 -0.211 0.5 -0.121 0.273 -0.102 0.391 -0.391 0.5 -0.164 0.059 -0.441 0.184 -0.621 0.176 -0.25 -0.012 -0.285 -0.219 -0.094 -0.445 0.125 -0.145 0.359 -0.191 0.5 -0.352 0.406 -0.457 0.582 -1.832 0.242 -2.316 -0.141 -0.203 -0.324 -0.203 -0.336 -0.512 -0.012 -0.273 0.102 -0.371 -0.148 -0.621 -0.793 -0.402 -0.875 -0.691 -1.133 -0.551 -0.313 0.168 -0.066 1.121 0 1.387 0.121 0.477 0.594 0.703 0.285 1.187 -0.223 0.344 -0.328 0.699 -0.48 1.105 -0.137 0.363 -0.125 0.879 -0.344 1.184 -0.043 0.059 -0.109 0.09 -0.148 0.148 -0.027 0.043 -0.07 0.164 -0.094 0.188 -0.09 0.105 -0.109 0.133 -0.258 0.191 -0.258 0.098 -0.578 0.066 -0.859 0.066" style="fill:#6fbed5;fill-rule:evenodd"/>
</svg>
