<svg xmlns="http://www.w3.org/2000/svg" width="16" height="16" viewBox="0 0 12.8 12.8">
 <path d="m 2.109 2 8.583 0 c 0.06 0 0.109 0.048 0.109 0.109 l 0 8.583 c 0 0.06 -0.048 0.109 -0.109 0.109 l -8.583 0 c -0.06 0 -0.109 -0.048 -0.109 -0.109 l 0 -8.583 c 0 -0.06 0.048 -0.109 0.109 -0.109" style="stroke-dasharray:none;fill:none;stroke-miterlimit:4;stroke:#ca9a69;stroke-linecap:round;stroke-width:0.8"/>
 <path d="m 2.4 1.733 0 9.467 0.4 0 0 -2.8 0.4 0 0 -0.4 -0.4 0 0 -1.2 1.2 0 0 -0.4 -1.2 0 0 -1.2 1.2 0 0 -0.4 -1.2 0 0 -1.2 0.4 0 0 -0.4 -0.4 0 0 -1.467 z" mix-blend-mode="normal" isolation="auto" white-space="normal" solid-opacity="1" solid-color="#000000" style="visibility:visible;shape-rendering:auto;color-interpolation-filters:linearRGB;fill:#ca9a69;opacity:1;image-rendering:auto;fill-opacity:0.6;stroke:none;display:inline;color:#000;fill-rule:nonzero;color-rendering:auto;color-interpolation:sRGB"/>
 <rect width="0.8" height="0.8" x="4" y="3.2" rx="0.133" style="fill:#ca9a69;opacity:1;fill-opacity:1;stroke:none;fill-rule:nonzero"/>
 <rect width="4" height="0.8" x="5.6" y="3.2" rx="0.111" ry="0.133" style="fill:#ca9a69;opacity:1;fill-opacity:1;stroke:none;fill-rule:nonzero"/>
 <rect width="0.8" height="0.8" x="4.8" y="4.8" rx="0.133" style="fill:#ca9a69;opacity:1;fill-opacity:1;stroke:none;fill-rule:nonzero"/>
 <rect width="3.2" height="0.8" x="6.4" y="4.8" rx="0.089" ry="0.133" style="fill:#ca9a69;opacity:1;fill-opacity:1;stroke:none;fill-rule:nonzero"/>
 <rect width="0.8" height="0.8" x="4.8" y="6.4" rx="0.133" style="fill:#ca9a69;opacity:1;fill-opacity:1;stroke:none;fill-rule:nonzero"/>
 <rect width="3.2" height="0.8" x="6.4" y="6.4" rx="0.089" ry="0.133" style="fill:#ca9a69;opacity:1;fill-opacity:1;stroke:none;fill-rule:nonzero"/>
 <rect width="0.8" height="0.8" x="4" y="8" rx="0.133" style="fill:#ca9a69;opacity:1;fill-opacity:1;stroke:none;fill-rule:nonzero"/>
 <rect width="4" height="0.8" x="5.6" y="8" rx="0.111" ry="0.133" style="fill:#ca9a69;opacity:1;fill-opacity:1;stroke:none;fill-rule:nonzero"/>
</svg>
