<svg xmlns="http://www.w3.org/2000/svg" viewBox="0 0 16 16">
 <path d="m 7.996 4 c -0.136 0 -0.268 0.013 -0.396 0.021 -1.61 0.06 -2.854 0.481 -3.715 0.924 -0.929 0.481 -1.474 1.018 -1.474 1.018 -0.307 0.319 -0.302 0.895 0.004 1.21 0.307 0.315 0.865 0.319 1.176 0.009 0 0 0.23 -0.234 0.745 -0.537 -0.149 0.426 -0.226 0.878 -0.226 1.355 0 2.198 1.751 4 3.885 4 2.138 0 3.885 -1.802 3.885 -4 0 -0.477 -0.072 -0.929 -0.226 -1.355 0.515 0.302 0.745 0.537 0.745 0.537 0.311 0.319 0.873 0.319 1.184 0.004 0.311 -0.319 0.307 -0.899 -0.004 -1.218 0 0 -0.541 -0.537 -1.474 -1.014 c -0.86 -0.443 -2.104 -0.869 -3.71 -0.929 -0.132 -0.017 -0.264 -0.017 -0.4 -0.017 m 0 1.248 c 1.235 0 2.948 0.584 2.948 2.743 0 1.887 -1.167 3.01 -2.948 3.01 -1.755 0 -2.922 -1.146 -2.922 -3.01 0 -1.917 1.687 -2.743 2.922 -2.743 z" style="fill:#4cb29c"/>
 <path d="m 8.625 8 c 0 0.345 -0.279 0.625 -0.625 0.625 -0.346 0 -0.625 -0.28 -0.625 -0.625 0 -0.345 0.279 -0.625 0.625 -0.625 0.346 0 0.625 0.28 0.625 0.625" style="stroke-dasharray:none;fill:none;stroke-miterlimit:4;stroke:#4cb29c;stroke-linecap:round;stroke-linejoin:round;stroke-width:2"/>
</svg>
