<svg xmlns="http://www.w3.org/2000/svg" viewBox="0 0 16 16">
 <path d="m 3 2 0 8 1 0 0 -8" style="fill:#ec86ab"/>
 <path d="m 4.75 10.265 c 0 0.687 -0.559 1.245 -1.25 1.245 -0.687 0 -1.25 -0.559 -1.25 -1.245 0 -0.691 0.563 -1.255 1.25 -1.255 0.691 0 1.25 0.563 1.25 1.255 z" style="fill:#ec86ab"/>
 <path d="m 7 14 0 -10.5 -1 0 l 0 10.5" style="fill:#ec86ab"/>
 <path d="m 5.25 3.25 c 0 -0.691 0.559 -1.25 1.25 -1.25 0.691 0 1.25 0.559 1.25 1.25 0 0.691 -0.559 1.25 -1.25 1.25 -0.691 0 -1.25 -0.559 -1.25 -1.25 z" style="fill:#ec86ab"/>
 <path d="m 9 2 0 7.5 1 0 0 -7.5 z" style="fill:#ec86ab"/>
 <path d="m 10.75 9.757 c 0 0.693 -0.56 1.252 -1.248 1.252 c -0.693 0 -1.252 -0.56 -1.252 -1.252 0 -0.688 0.56 -1.248 1.252 -1.248 0.688 0 1.248 0.56 1.248 1.248" style="fill:#ec86ab"/>
 <path d="m 13 14 0 -5.5 -1 0 0 5.5 z" style="fill:#ec86ab"/>
 <path d="m 11.25 8.05 c 0 -0.691 0.559 -1.25 1.25 -1.25 0.691 0 1.25 0.559 1.25 1.25 0 0.687 -0.559 1.25 -1.25 1.25 -0.691 0 -1.25 -0.563 -1.25 -1.25 z" style="fill:#ec86ab"/>
</svg>
