<svg xmlns="http://www.w3.org/2000/svg" viewBox="0 0 16 16">
 <g transform="translate(0.08314737,0.0839845)" style="fill:#6f8bc0">
  <path d="m 11.918 1.73 c -2.594 0 -3.078 3.668 -1.621 3.668 1.461 0 4.215 -3.668 1.621 -3.668 z"/>
  <path d="m 7.613 4.941 c 0.773 0.047 1.629 -2.937 0.168 -2.754 -1.461 0.191 -0.945 2.707 -0.168 2.754"/>
  <path d="m 4.051 6.801 c 0.555 -0.242 0.07 -2.602 -0.867 -1.957 -0.938 0.641 0.316 2.199 0.867 1.957"/>
  <path d="m 5.609 5.566 c 0.656 -0.137 0.691 -2.812 -0.48 -2.332 -1.172 0.48 -0.18 2.465 0.48 2.332"/>
  <path d="m 9.04 11.555 c 0.117 0.887 -0.656 1.32 -1.406 0.75 -2.402 -1.813 3.977 -2.719 3.555 -5.199 -0.348 -2.055 -6.711 -1.422 -7.438 1.797 -0.492 2.18 2.02 5.199 4.637 5.199 1.289 0 2.777 -1.152 3.055 -2.617 0.211 -1.113 -2.5 -0.668 -2.402 0.07 z"/>
 </g>
</svg>
