<svg xmlns="http://www.w3.org/2000/svg" viewBox="0 0 16 16">
 <path d="m 5.836 2 c -0.183 0.022 -0.337 0.206 -0.336 0.403 l 0 3.196 c 0 0.21 0.178 0.401 0.374 0.401 l 4.252 0 c 0.196 0 0.374 -0.191 0.374 -0.401 l 0 -3.196 c 0 -0.21 -0.178 -0.403 -0.374 -0.403 z" style="fill:#c0956e"/>
 <path d="m 2.336 10 c -0.182 0.02 -0.337 0.205 -0.336 0.403 l 0 3.194 c 0 0.21 0.18 0.403 0.376 0.403 l 4.248 0 c 0.196 0 0.376 -0.193 0.376 -0.403 l 0 -3.194 c 0 -0.212 -0.18 -0.403 -0.376 -0.403 z" style="fill:#c0956e"/>
 <path d="m 9.337 10 c -0.183 0.02 -0.337 0.205 -0.337 0.403 l 0 3.194 c 0 0.21 0.18 0.403 0.376 0.403 l 4.25 0 c 0.196 0 0.374 -0.193 0.374 -0.403 l 0 -3.194 c 0 -0.212 -0.178 -0.403 -0.374 -0.403 z" style="fill:#c0956e"/>
 <path d="m 7.5 6.5 0 0.5 -3.5 0 l 0 2 1 0 0 -1 6 0 0 1 1 0 l 0 -2 -3.5 0 0 -0.5" style="fill:#c0956e"/>
</svg>
