<svg xmlns="http://www.w3.org/2000/svg" viewBox="0 0 16 16">
 <path d="m 7 2.031 c 0 -0.295 -0.224 -0.531 -0.5 -0.531 -0.276 0 -0.5 0.236 -0.5 0.531 l 0 1.969 1 0" style="fill:#555"/>
 <path d="m 6 13.966 c 0 0.295 0.224 0.534 0.5 0.534 0.276 0 0.5 -0.24 0.5 -0.534 l 0 -1.966 -1 0" style="fill:#555"/>
 <path d="m 10 2.031 c 0 -0.295 -0.222 -0.531 -0.501 -0.531 -0.277 0 -0.499 0.236 -0.499 0.531 l 0 1.969 1 0" style="fill:#555"/>
 <path d="m 9 13.966 c 0 0.295 0.222 0.534 0.501 0.534 0.277 0 0.499 -0.24 0.499 -0.534 l 0 -1.966 -1 0" style="fill:#555"/>
 <path d="m 10.186 11 c 0.447 0 0.814 -0.363 0.814 -0.813 l 0 -4.375 c 0 -0.45 -0.367 -0.813 -0.814 -0.813 l -4.374 0 c -0.447 0 -0.812 0.363 -0.812 0.813 l 0 4.375 c 0 0.45 0.365 0.813 0.812 0.813" style="fill:#555"/>
 <path d="m 13.969 7 c 0.295 0 0.531 -0.224 0.531 -0.5 0 -0.276 -0.236 -0.5 -0.531 -0.5 l -1.969 0 0 1" style="fill:#555"/>
 <path d="m 2.034 6 c -0.295 0 -0.534 0.224 -0.534 0.5 0 0.276 0.24 0.5 0.534 0.5 l 1.966 0 0 -1" style="fill:#555"/>
 <path d="m 13.969 10 c 0.295 0 0.531 -0.222 0.531 -0.501 0 -0.277 -0.236 -0.499 -0.531 -0.499 l -1.969 0 l 0 1 z" style="fill:#555"/>
 <path d="m 2.034 9 c -0.295 0 -0.534 0.222 -0.534 0.501 0 0.277 0.24 0.499 0.534 0.499 l 1.966 0 0 -1" style="fill:#555"/>
</svg>
