<?xml version="1.0"?>
<svg xmlns="http://www.w3.org/2000/svg" xmlns:xlink="http://www.w3.org/1999/xlink" version="1.1" id="Capa_1" x="0px" y="0px" viewBox="0 0 369.2 369.2" style="enable-background:new 0 0 369.2 369.2;" xml:space="preserve" width="512px" height="512px"><g><g>
	<g>
		<g>
			<path d="M334.188,234.4c-1.2-40-18.4-76.4-45.2-102.4c-28.4-25.2-64.8-41.2-105.2-41.2c-41.2,0-78.4,16.8-105.2,43.6     c-26.8,26.8-43.6,64-43.6,104.8v0.4c0,6,4.8,10.4,10.4,10.4c6,0,10.4-4.8,10.4-10.4c0-6.8,2.8-12.8,7.2-17.2     c4.4-4.4,10.4-7.2,17.2-7.2c6.8,0,12.8,2.8,17.2,7.2c4.4,4.4,7.2,10.4,7.2,17.2c0,6,4.8,10.4,10.4,10.4c6,0,10.4-4.8,10.4-10.4     c0-6.8,2.8-12.8,7.2-17.2c4.4-4.4,10.4-7.2,17.2-7.2c6.8,0,12.8,2.8,17.2,7.2c4.4,4.4,7.2,10.4,7.2,17.2v98.8c0,0.4,0,0.8,0,0.8     c0,8.4,3.2,15.6,8.8,21.2c5.6,5.6,12.8,8.8,21.2,8.8c8.4,0,15.6-3.2,21.2-8.8c5.6-5.6,8.8-12.8,8.8-21.2c0-6-4.8-10.4-10.4-10.4     c-6,0-10.4,4.8-10.4,10.4c0,2.4-1.2,4.8-2.8,6.4c-1.6,1.6-4,2.4-6.4,2.4c-2.4,0-4.8-1.2-6.4-2.8c-1.6-1.6-2.4-4-2.4-6.4     c0-0.4,0-0.8,0-0.8v-98.8c0-6.8,2.8-12.8,7.2-17.2c4.4-4.4,10.4-7.2,17.2-7.2c6.8,0,12.8,2.8,17.2,7.2c4.4,4.4,7.2,10.4,7.2,17.2     c0,6,4.8,10.4,10.4,10.4c5.6,0,10.4-4.8,10.4-10.4c0-6.8,2.8-12.8,7.2-17.2c4.4-4.4,10.4-7.2,17.2-7.2c6,0,11.6,2.4,16,6     c4.4,4,7.2,9.2,8,15.2c0.8,5.2,5.2,9.6,10.8,9.2C329.788,245.2,334.588,240.4,334.188,234.4z" data-original="#000000" class="active-path" data-old_color="#000000" style="--darkreader-inline-" data-darkreader-inline-fill="" fill="#FFFFFF"/>
			<path d="M148.588,82.8c5.6,0,10.4-4.8,10.4-10.4v-62c0-5.6-4.8-10.4-10.4-10.4c-6,0-10.4,4.8-10.4,10.4v62     C138.188,78,142.988,82.8,148.588,82.8z" data-original="#000000" class="active-path" data-old_color="#000000" style="--darkreader-inline-" data-darkreader-inline-fill="" fill="#FFFFFF"/>
			<path d="M78.188,118.4c5.6,0,10.4-4.8,10.4-10.4V16.4c0-5.6-4.8-10.4-10.4-10.4c-6,0-10.4,4.8-10.4,10.4V108     C67.788,113.6,72.588,118.4,78.188,118.4z" data-original="#000000" class="active-path" data-old_color="#000000" style="--darkreader-inline-" data-darkreader-inline-fill="" fill="#FFFFFF"/>
			<path d="M114.188,91.2c5.6,0,10.4-4.8,10.4-10.4V51.6c0-5.6-4.8-10.4-10.4-10.4c-5.6,0-10.4,4.4-10.4,10.4v29.2     C103.788,86.4,108.588,91.2,114.188,91.2z" data-original="#000000" class="active-path" data-old_color="#000000" style="--darkreader-inline-" data-darkreader-inline-fill="" fill="#FFFFFF"/>
			<path d="M182.988,76.8c5.6,0,10.4-4.8,10.4-10.4V37.2c0-6-4.8-10.4-10.4-10.4c-5.6,0-10.4,4.8-10.4,10.4v29.2     C172.588,72,177.388,76.8,182.988,76.8z" data-original="#000000" class="active-path" data-old_color="#000000" style="--darkreader-inline-" data-darkreader-inline-fill="" fill="#FFFFFF"/>
			<path d="M218.588,82.8c5.6,0,10.4-4.8,10.4-10.4V20v-9.6c0.8-5.6-4-10.4-10-10.4s-10.8,4.8-10.8,10.4v62     C208.188,78,212.988,82.8,218.588,82.8z" data-original="#000000" class="active-path" data-old_color="#000000" style="--darkreader-inline-" data-darkreader-inline-fill="" fill="#FFFFFF"/>
			<path d="M289.388,118.4c5.6,0,10.4-4.8,10.4-10.4V16.4c0-5.6-4.4-10.4-10.4-10.4c-5.6,0-10.4,4.8-10.4,10.4V108     C278.988,113.6,283.788,118.4,289.388,118.4z" data-original="#000000" class="active-path" data-old_color="#000000" style="--darkreader-inline-" data-darkreader-inline-fill="" fill="#FFFFFF"/>
			<path d="M253.388,91.2c5.6,0,10.4-4.8,10.4-10.4V51.6c0-6-4.4-10.4-10.4-10.4c-5.6,0-10.4,4.8-10.4,10.4v29.2     C242.988,86.4,247.788,91.2,253.388,91.2z" data-original="#000000" class="active-path" data-old_color="#000000" style="--darkreader-inline-" data-darkreader-inline-fill="" fill="#FFFFFF"/>
		</g>
	</g>
</g></g> </svg>
