<?xml version="1.0" encoding="UTF-8" standalone="no"?>
<svg
   xmlns:dc="http://purl.org/dc/elements/1.1/"
   xmlns:cc="http://creativecommons.org/ns#"
   xmlns:rdf="http://www.w3.org/1999/02/22-rdf-syntax-ns#"
   xmlns:svg="http://www.w3.org/2000/svg"
   xmlns="http://www.w3.org/2000/svg"
   xmlns:sodipodi="http://sodipodi.sourceforge.net/DTD/sodipodi-0.dtd"
   xmlns:inkscape="http://www.inkscape.org/namespaces/inkscape"
   height="240"
   width="240"
   version="1.1"
   id="svg29"
   sodipodi:docname="menu2.svg"
   inkscape:version="0.92.4 5da689c313, 2019-01-14">
  <metadata
     id="metadata35">
    <rdf:RDF>
      <cc:Work
         rdf:about="">
        <dc:format>image/svg+xml</dc:format>
        <dc:type
           rdf:resource="http://purl.org/dc/dcmitype/StillImage" />
        <dc:title></dc:title>
      </cc:Work>
    </rdf:RDF>
  </metadata>
  <defs
     id="defs33" />
  <sodipodi:namedview
     pagecolor="#ffffff"
     bordercolor="#666666"
     borderopacity="1"
     objecttolerance="10"
     gridtolerance="10"
     guidetolerance="10"
     inkscape:pageopacity="0"
     inkscape:pageshadow="2"
     inkscape:window-width="1321"
     inkscape:window-height="740"
     id="namedview31"
     showgrid="false"
     inkscape:zoom="0.30729167"
     inkscape:cx="-699.16019"
     inkscape:cy="-124.28709"
     inkscape:window-x="45"
     inkscape:window-y="28"
     inkscape:window-maximized="0"
     inkscape:current-layer="svg29"
     inkscape:pagecheckerboard="true" />
  <linearGradient
     id="a"
     gradientUnits="userSpaceOnUse"
     x1="394.27609"
     x2="394.27609"
     y1="544.80457"
     y2="498.95551"
     gradientTransform="matrix(1.0833334,0,0,1.0833334,-410.89293,-359.17403)">
    <stop
       offset="0"
       stop-color="#3889e9"
       id="stop2" />
    <stop
       offset="1"
       stop-color="#5ea5fb"
       id="stop4" />
  </linearGradient>
  <linearGradient
     id="b"
     gradientUnits="userSpaceOnUse"
     x1="408.69653"
     x2="408.2634"
     y1="546.47272"
     y2="501.12332"
     gradientTransform="matrix(1.0833334,0,0,1.0833334,-410.89293,-359.17403)">
    <stop
       offset="0"
       stop-color="#4d4d4d"
       id="stop7" />
    <stop
       offset="1"
       stop-color="#808080"
       id="stop9" />
  </linearGradient>
  <linearGradient
     id="c"
     gradientUnits="userSpaceOnUse"
     x1="408.94928"
     x2="408.51636"
     y1="546.20947"
     y2="500.88101"
     gradientTransform="matrix(1.0833334,0,0,1.0833334,-410.89293,-535.17403)">
    <stop
       offset="0"
       stop-color="#ccc"
       id="stop12" />
    <stop
       offset="1"
       stop-color="#f2f2f2"
       id="stop14" />
  </linearGradient>
  <circle
     style="fill:url(#a);stroke-width:1.08333337"
     id="circle17"
     r="0"
     cy="206.19594"
     cx="18.013336" />
  <g
     id="g825"
     transform="matrix(4.0133777,0,0,4.0133777,-7.3290556,-715.88144)">
    <circle
       cx="31.726158"
       cy="208.2738"
       r="24.916668"
       id="circle19"
       style="fill:url(#b);stroke-width:1.08333337" />
    <path
       d="m 19.525299,210.26402 4.33589,-4.33589 3.876254,-0.76606 c 4.933403,-6.71066 14.371241,-10.066 17.787858,-10.066 0,3.41662 -3.355333,12.85446 -10.065999,17.78786 l -0.766057,3.87625 -4.33589,4.33589 -1.087797,-5.40836 c -2.160286,0 -2.160286,0 -3.248094,-1.0878 -1.087796,-1.08781 -1.087796,-1.08781 -1.087796,-3.24809 z m 4.33589,4.33589 2.160275,2.16027 -4.075424,4.09076 h -2.175604 v -2.17561 z m -2.175604,-2.16029 1.89982,0.26046 -3.769003,3.75368 v -2.1756 z m 6.23571,4.59635 0.260455,1.89982 -1.838536,1.86918 H 24.16761 Z m 7.216257,-13.85032 a 2.2981734,2.2981734 0 0 0 -2.298172,2.29817 2.2981734,2.2981734 0 0 0 2.298172,2.29817 2.2981734,2.2981734 0 0 0 2.298173,-2.29817 2.2981734,2.2981734 0 0 0 -2.298173,-2.29817 z"
       id="path23"
       inkscape:connector-curvature="0"
       style="fill:#ffffff;stroke-width:1.08333337" />
  </g>
</svg>
