<svg xmlns="http://www.w3.org/2000/svg" xmlns:svg="http://www.w3.org/2000/svg" id="svg4" width="240" height="240" version="1.1" viewBox="0 0 240 240"><metadata id="metadata10"/><path id="path2" d="m 120,172.38095 a 19.047619,19.047619 0 0 0 19.04762,-19.04762 c 0,-10.57143 -8.57143,-19.04762 -19.04762,-19.04762 A 19.047619,19.047619 0 0 0 100.95238,153.33333 19.047619,19.047619 0 0 0 120,172.38095 m 57.14285,-85.71428 a 19.047619,19.047619 0 0 1 19.04762,19.04762 v 95.23809 A 19.047619,19.047619 0 0 1 177.14285,220 H 62.857146 a 19.047619,19.047619 0 0 1 -19.04762,-19.04762 v -95.23809 c 0,-10.57143 8.57143,-19.04762 19.04762,-19.04762 h 9.52381 V 67.61905 A 47.619048,47.619048 0 0 1 120,20 47.619048,47.619048 0 0 1 167.61904,67.61905 v 19.04762 h 9.52381 M 120,39.04762 A 28.571429,28.571429 0 0 0 91.428575,67.61905 V 86.66667 H 148.57142 V 67.61905 A 28.571429,28.571429 0 0 0 120,39.04762 Z" style="fill:#fff;stroke-width:9.52380943"/></svg>