<svg xmlns="http://www.w3.org/2000/svg" xmlns:svg="http://www.w3.org/2000/svg" id="svg881" width="512" height="512" version="1.1" viewBox="0 0 135.467 135.467"><metadata id="metadata878"/><g id="layer1" transform="translate(0,-161.53332)"><g id="g11" transform="translate(1.0333333e-6,-8.4666667)"><ellipse id="path1490" cx="32.932" cy="237.583" rx="21.682" ry="22.235" style="opacity:.95;fill:#fff;fill-opacity:1;stroke-width:.59687734"/><path style="opacity:.95;fill:#fff;fill-opacity:1;stroke-width:2.2001276" id="path4" d="M 102.39996,206.45586 H 33.066612 c -16.726639,0 -30.3332774,14.03015 -30.3332774,31.27751 0,17.24725 13.6066384,31.27741 30.3332774,31.27741 h 69.333348 c 16.72664,0 30.33337,-14.03016 30.33337,-31.27741 0,-17.24736 -13.60673,-31.27751 -30.33337,-31.27751 z m 0,58.08676 H 33.066612 c -14.336849,0 -26.0000004,-12.02625 -26.0000004,-26.80925 0,-14.78309 11.6631514,-26.80928 26.0000004,-26.80928 h 69.333348 c 14.33685,0 26,12.02619 26,26.80928 0,14.783 -11.66315,26.80925 -26,26.80925 z"/></g></g></svg>