<svg width="193.75" xmlns="http://www.w3.org/2000/svg" height="22" viewBox="0 0 155 22" xmlns:xlink="http://www.w3.org/1999/xlink">
<g style="fill:#888;fill-opacity:.078">
<path d="M 13.710938 5.34375 C 13.710938 6.785156 12.542969 7.957031 11.101562 7.957031 C 9.660156 7.957031 8.492188 6.785156 8.492188 5.34375 C 8.492188 3.898438 9.660156 2.730469 11.101562 2.730469 C 12.542969 2.730469 13.710938 3.898438 13.710938 5.34375 Z "/>
<path d="M 13.710938 16.65625 C 13.710938 18.101562 12.542969 19.269531 11.101562 19.269531 C 9.660156 19.269531 8.492188 18.101562 8.492188 16.65625 C 8.492188 15.214844 9.660156 14.042969 11.101562 14.042969 C 12.542969 14.042969 13.710938 15.214844 13.710938 16.65625 Z "/>
<path d="M 17.300781 10.433594 C 16.050781 11.15625 14.457031 10.726562 13.734375 9.476562 C 13.015625 8.226562 13.441406 6.628906 14.691406 5.910156 C 15.9375 5.1875 17.535156 5.613281 18.253906 6.863281 C 18.976562 8.113281 18.546875 9.710938 17.300781 10.433594 Z "/>
<path d="M 7.515625 16.089844 C 6.265625 16.8125 4.671875 16.382812 3.949219 15.136719 C 3.230469 13.886719 3.65625 12.289062 4.90625 11.566406 C 6.152344 10.84375 7.75 11.273438 8.46875 12.523438 C 9.191406 13.773438 8.761719 15.371094 7.515625 16.089844 Z "/>
<path d="M 14.691406 16.089844 C 13.441406 15.371094 13.015625 13.773438 13.734375 12.523438 C 14.457031 11.273438 16.050781 10.84375 17.300781 11.566406 C 18.546875 12.289062 18.976562 13.886719 18.253906 15.136719 C 17.535156 16.386719 15.9375 16.8125 14.691406 16.089844 Z "/>
<path d="M 4.90625 10.433594 C 3.65625 9.710938 3.230469 8.113281 3.949219 6.863281 C 4.671875 5.613281 6.265625 5.1875 7.515625 5.910156 C 8.761719 6.628906 9.191406 8.226562 8.46875 9.476562 C 7.75 10.726562 6.152344 11.15625 4.90625 10.433594 Z "/>
</g>
<path style="fill:#959595;fill-opacity:.784" d="M 35.84375 5.34375 C 35.84375 6.785156 34.675781 7.957031 33.234375 7.957031 C 31.792969 7.957031 30.625 6.785156 30.625 5.34375 C 30.625 3.898438 31.792969 2.730469 33.234375 2.730469 C 34.675781 2.730469 35.84375 3.898438 35.84375 5.34375 Z "/>
<g style="fill:#888;fill-opacity:.078">
<path d="M 35.84375 16.65625 C 35.84375 18.101562 34.675781 19.269531 33.234375 19.269531 C 31.792969 19.269531 30.625 18.101562 30.625 16.65625 C 30.625 15.214844 31.792969 14.042969 33.234375 14.042969 C 34.675781 14.042969 35.84375 15.214844 35.84375 16.65625 Z "/>
<path d="M 39.433594 10.433594 C 38.183594 11.15625 36.589844 10.726562 35.867188 9.476562 C 35.148438 8.226562 35.574219 6.628906 36.824219 5.910156 C 38.070312 5.1875 39.667969 5.613281 40.386719 6.863281 C 41.105469 8.113281 40.679688 9.710938 39.433594 10.433594 Z "/>
<path d="M 29.648438 16.089844 C 28.398438 16.8125 26.804688 16.386719 26.082031 15.136719 C 25.363281 13.886719 25.789062 12.289062 27.039062 11.566406 C 28.285156 10.84375 29.882812 11.273438 30.601562 12.523438 C 31.324219 13.773438 30.894531 15.371094 29.648438 16.089844 Z "/>
<path d="M 36.824219 16.089844 C 35.574219 15.371094 35.148438 13.773438 35.867188 12.523438 C 36.589844 11.273438 38.183594 10.84375 39.433594 11.566406 C 40.679688 12.289062 41.105469 13.886719 40.386719 15.136719 C 39.667969 16.386719 38.070312 16.8125 36.824219 16.089844 Z "/>
</g>
<g style="fill:#959595;fill-opacity:.392">
<path d="M 27.039062 10.433594 C 25.789062 9.710938 25.363281 8.113281 26.082031 6.863281 C 26.804688 5.613281 28.398438 5.1875 29.648438 5.910156 C 30.894531 6.628906 31.324219 8.226562 30.601562 9.476562 C 29.882812 10.726562 28.285156 11.15625 27.039062 10.433594 Z "/>
<path d="M 57.976562 5.34375 C 57.976562 6.785156 56.808594 7.957031 55.367188 7.957031 C 53.925781 7.957031 52.757812 6.785156 52.757812 5.34375 C 52.757812 3.898438 53.925781 2.730469 55.367188 2.730469 C 56.808594 2.730469 57.976562 3.898438 57.976562 5.34375 Z "/>
</g>
<path style="fill:#888;fill-opacity:.078" d="M 57.976562 16.65625 C 57.976562 18.101562 56.808594 19.269531 55.367188 19.269531 C 53.925781 19.269531 52.757812 18.101562 52.757812 16.65625 C 52.757812 15.214844 53.925781 14.042969 55.367188 14.042969 C 56.808594 14.042969 57.976562 15.214844 57.976562 16.65625 Z "/>
<path style="fill:#959595;fill-opacity:.784" d="M 61.566406 10.433594 C 60.316406 11.15625 58.722656 10.726562 58 9.476562 C 57.28125 8.226562 57.707031 6.628906 58.957031 5.910156 C 60.203125 5.1875 61.800781 5.613281 62.519531 6.863281 C 63.238281 8.113281 62.8125 9.710938 61.566406 10.433594 Z "/>
<g style="fill:#888;fill-opacity:.078">
<path d="M 51.78125 16.089844 C 50.53125 16.8125 48.9375 16.386719 48.214844 15.136719 C 47.496094 13.886719 47.921875 12.289062 49.171875 11.566406 C 50.417969 10.84375 52.015625 11.273438 52.734375 12.523438 C 53.457031 13.773438 53.027344 15.371094 51.78125 16.089844 Z "/>
<path d="M 58.957031 16.089844 C 57.707031 15.371094 57.28125 13.773438 58 12.523438 C 58.71875 11.273438 60.316406 10.84375 61.5625 11.566406 C 62.8125 12.289062 63.238281 13.886719 62.519531 15.136719 C 61.800781 16.386719 60.203125 16.8125 58.957031 16.089844 Z "/>
<path d="M 49.171875 10.433594 C 47.921875 9.710938 47.496094 8.113281 48.214844 6.863281 C 48.9375 5.613281 50.53125 5.1875 51.78125 5.910156 C 53.027344 6.628906 53.453125 8.226562 52.734375 9.476562 C 52.015625 10.726562 50.417969 11.15625 49.171875 10.433594 Z "/>
<path d="M 80.109375 5.34375 C 80.109375 6.785156 78.941406 7.957031 77.5 7.957031 C 76.058594 7.957031 74.890625 6.785156 74.890625 5.34375 C 74.890625 3.898438 76.058594 2.730469 77.5 2.730469 C 78.941406 2.730469 80.109375 3.898438 80.109375 5.34375 Z "/>
<path d="M 80.109375 16.65625 C 80.109375 18.101562 78.941406 19.269531 77.5 19.269531 C 76.058594 19.269531 74.890625 18.101562 74.890625 16.65625 C 74.890625 15.214844 76.058594 14.042969 77.5 14.042969 C 78.941406 14.042969 80.109375 15.214844 80.109375 16.65625 Z "/>
</g>
<path style="fill:#959595;fill-opacity:.392" d="M 83.695312 10.433594 C 82.449219 11.15625 80.851562 10.726562 80.132812 9.476562 C 79.414062 8.226562 79.839844 6.628906 81.085938 5.910156 C 82.335938 5.1875 83.929688 5.613281 84.652344 6.863281 C 85.371094 8.113281 84.945312 9.710938 83.695312 10.433594 Z "/>
<path style="fill:#888;fill-opacity:.078" d="M 73.914062 16.089844 C 72.664062 16.8125 71.070312 16.386719 70.347656 15.136719 C 69.628906 13.886719 70.054688 12.289062 71.304688 11.566406 C 72.550781 10.84375 74.148438 11.273438 74.867188 12.523438 C 75.585938 13.773438 75.160156 15.371094 73.914062 16.089844 Z "/>
<path style="fill:#959595;fill-opacity:.784" d="M 81.085938 16.089844 C 79.839844 15.371094 79.414062 13.773438 80.132812 12.523438 C 80.851562 11.273438 82.449219 10.84375 83.695312 11.566406 C 84.945312 12.289062 85.371094 13.886719 84.652344 15.136719 C 83.929688 16.386719 82.335938 16.8125 81.085938 16.089844 Z "/>
<g style="fill:#888;fill-opacity:.078">
<path d="M 71.304688 10.433594 C 70.054688 9.710938 69.628906 8.113281 70.347656 6.863281 C 71.070312 5.613281 72.664062 5.1875 73.914062 5.910156 C 75.160156 6.628906 75.585938 8.226562 74.867188 9.476562 C 74.148438 10.726562 72.550781 11.15625 71.304688 10.433594 Z "/>
<path d="M 102.242188 5.34375 C 102.242188 6.785156 101.074219 7.957031 99.632812 7.957031 C 98.191406 7.957031 97.023438 6.785156 97.023438 5.34375 C 97.023438 3.898438 98.191406 2.730469 99.632812 2.730469 C 101.074219 2.730469 102.242188 3.898438 102.242188 5.34375 Z "/>
</g>
<path style="fill:#959595;fill-opacity:.784" d="M 102.242188 16.65625 C 102.242188 18.101562 101.074219 19.269531 99.632812 19.269531 C 98.191406 19.269531 97.023438 18.101562 97.023438 16.65625 C 97.023438 15.214844 98.191406 14.042969 99.632812 14.042969 C 101.074219 14.042969 102.242188 15.214844 102.242188 16.65625 Z "/>
<g style="fill:#888;fill-opacity:.078">
<path d="M 105.828125 10.433594 C 104.582031 11.15625 102.984375 10.726562 102.265625 9.476562 C 101.546875 8.226562 101.972656 6.628906 103.21875 5.910156 C 104.46875 5.1875 106.0625 5.613281 106.785156 6.863281 C 107.503906 8.113281 107.078125 9.710938 105.828125 10.433594 Z "/>
<path d="M 96.042969 16.089844 C 94.796875 16.8125 93.199219 16.386719 92.480469 15.136719 C 91.761719 13.886719 92.1875 12.289062 93.4375 11.566406 C 94.683594 10.84375 96.28125 11.273438 97 12.523438 C 97.71875 13.773438 97.292969 15.371094 96.042969 16.089844 Z "/>
</g>
<path style="fill:#959595;fill-opacity:.392" d="M 103.21875 16.089844 C 101.972656 15.371094 101.542969 13.773438 102.265625 12.523438 C 102.984375 11.273438 104.582031 10.84375 105.828125 11.566406 C 107.078125 12.289062 107.503906 13.886719 106.785156 15.136719 C 106.0625 16.386719 104.46875 16.8125 103.21875 16.089844 Z "/>
<g style="fill:#888;fill-opacity:.078">
<path d="M 93.4375 10.433594 C 92.1875 9.710938 91.761719 8.113281 92.480469 6.863281 C 93.199219 5.613281 94.796875 5.1875 96.042969 5.910156 C 97.292969 6.628906 97.71875 8.226562 97 9.476562 C 96.28125 10.726562 94.683594 11.15625 93.4375 10.433594 Z "/>
<path d="M 124.375 5.34375 C 124.375 6.785156 123.207031 7.957031 121.765625 7.957031 C 120.324219 7.957031 119.15625 6.785156 119.15625 5.34375 C 119.15625 3.898438 120.324219 2.730469 121.765625 2.730469 C 123.207031 2.730469 124.375 3.898438 124.375 5.34375 Z "/>
<path d="M 124.375 16.65625 C 124.375 18.101562 123.207031 19.269531 121.765625 19.269531 C 120.324219 19.269531 119.15625 18.101562 119.15625 16.65625 C 119.15625 15.214844 120.324219 14.042969 121.765625 14.042969 C 123.207031 14.042969 124.375 15.214844 124.375 16.65625 Z "/>
<path d="M 127.960938 10.433594 C 126.714844 11.15625 125.117188 10.726562 124.398438 9.476562 C 123.675781 8.226562 124.105469 6.628906 125.351562 5.910156 C 126.601562 5.1875 128.195312 5.613281 128.917969 6.863281 C 129.636719 8.113281 129.210938 9.710938 127.960938 10.433594 Z "/>
</g>
<path style="fill:#959595;fill-opacity:.392" d="M 118.175781 16.089844 C 116.929688 16.8125 115.332031 16.386719 114.613281 15.136719 C 113.894531 13.886719 114.320312 12.289062 115.566406 11.566406 C 116.816406 10.84375 118.410156 11.273438 119.132812 12.523438 C 119.851562 13.773438 119.425781 15.371094 118.175781 16.089844 Z "/>
<path style="fill:#888;fill-opacity:.078" d="M 125.351562 16.089844 C 124.105469 15.371094 123.675781 13.773438 124.398438 12.523438 C 125.117188 11.273438 126.714844 10.84375 127.960938 11.566406 C 129.210938 12.289062 129.636719 13.886719 128.917969 15.136719 C 128.195312 16.386719 126.601562 16.8125 125.351562 16.089844 Z "/>
<g style="fill:#959595;fill-opacity:.784">
<path d="M 115.566406 10.433594 C 114.320312 9.710938 113.894531 8.113281 114.613281 6.863281 C 115.332031 5.613281 116.929688 5.1875 118.175781 5.910156 C 119.425781 6.628906 119.851562 8.226562 119.132812 9.476562 C 118.410156 10.726562 116.816406 11.15625 115.566406 10.433594 Z "/>
<path d="M 146.507812 5.34375 C 146.507812 6.785156 145.339844 7.957031 143.898438 7.957031 C 142.457031 7.957031 141.289062 6.785156 141.289062 5.34375 C 141.289062 3.898438 142.457031 2.730469 143.898438 2.730469 C 145.339844 2.730469 146.507812 3.898438 146.507812 5.34375 Z "/>
</g>
<g style="fill:#888;fill-opacity:.078">
<path d="M 146.507812 16.65625 C 146.507812 18.101562 145.339844 19.269531 143.898438 19.269531 C 142.457031 19.269531 141.289062 18.101562 141.289062 16.65625 C 141.289062 15.214844 142.457031 14.042969 143.898438 14.042969 C 145.339844 14.042969 146.507812 15.214844 146.507812 16.65625 Z "/>
<path d="M 150.09375 10.433594 C 148.847656 11.15625 147.25 10.726562 146.53125 9.476562 C 145.808594 8.226562 146.238281 6.628906 147.484375 5.910156 C 148.734375 5.1875 150.328125 5.613281 151.050781 6.863281 C 151.769531 8.113281 151.34375 9.710938 150.09375 10.433594 Z "/>
<path d="M 140.308594 16.089844 C 139.0625 16.8125 137.464844 16.386719 136.746094 15.136719 C 136.027344 13.886719 136.453125 12.289062 137.699219 11.566406 C 138.949219 10.84375 140.542969 11.273438 141.265625 12.523438 C 141.984375 13.773438 141.558594 15.371094 140.308594 16.089844 Z "/>
<path d="M 147.484375 16.089844 C 146.238281 15.371094 145.808594 13.773438 146.53125 12.523438 C 147.25 11.273438 148.847656 10.84375 150.09375 11.566406 C 151.34375 12.289062 151.769531 13.886719 151.050781 15.136719 C 150.328125 16.386719 148.734375 16.8125 147.484375 16.089844 Z "/>
</g>
<path style="fill:#959595;fill-opacity:.392" d="M 137.699219 10.433594 C 136.453125 9.710938 136.023438 8.113281 136.746094 6.863281 C 137.464844 5.613281 139.0625 5.1875 140.308594 5.910156 C 141.558594 6.628906 141.984375 8.226562 141.265625 9.476562 C 140.542969 10.726562 138.949219 11.15625 137.699219 10.433594 Z "/>
</svg>
