<svg viewBox="0 0 48 48" xmlns="http://www.w3.org/2000/svg">
 <rect height="10" y="8" x="2" width="24" style="fill:#1976d2;fill-opacity:1;stroke:none"/>
 <path style="fill:#1976d2;fill-opacity:1;stroke:none" d="M 5,9 C 5,8 5,7 6.273,7 l 4.455,0 c 1.273,0 1.273,1 1.273,2 z"/>
 <path style="fill:#95989f;fill-opacity:1;stroke:none" d="m 4 10 21 0 0 5 -21 0 z"/>
 <rect height="13" y="9" x="6" width="18" style="fill:#d8d8da;fill-opacity:1;stroke:none"/>
 <rect height="12" y="11" x="5" width="18" style="fill:#f9f9f9;fill-opacity:1;stroke:none"/>
 <path style="fill:#42a5f5;fill-opacity:1;stroke:none" d="M 0,12 27.902439,12 25,27 2,27 Z"/>
 <path style="fill:#fff;opacity:0.5;fill-opacity:1;stroke:none" d="m 6.273 7 c -0.83 0 -1.116 0.427 -1.217 1 l -3.057 0 l 0 4 l -2 0 l 2 15 l 23 0 l 2.902 -15 l -1.902 0 l 0 -4 l -14.06 0 c -0.101 -0.573 -0.385 -1 -1.215 -1 l -4.455 0 z"/>
 <path style="fill:#1976d2;fill-opacity:1;stroke:none" d="m 25 24 c 0 -1 0 -2 1.273 -2 l 4.455 0 c 1.273 0 1.273 1 1.273 2 z"/>
 <rect height="10" y="23" x="22" width="24" style="fill:#1976d2;fill-opacity:1;stroke:none"/>
 <path style="fill:#95989f;fill-opacity:1;stroke:none" d="m 24 25 21 0 0 5 -21 0 z"/>
 <rect height="13" y="24" x="26" width="18" style="fill:#d8d8da;fill-opacity:1;stroke:none"/>
 <rect height="12" y="26" x="25" width="18" style="fill:#f9f9f9;fill-opacity:1;stroke:none"/>
 <path style="fill:#42a5f5;fill-opacity:1;stroke:none" d="m 20 27 27.902 0 -2.902 15 -23 0 z"/>
</svg>
