<?xml version="1.0" encoding="UTF-8" standalone="no"?>
<svg
   xmlns:dc="http://purl.org/dc/elements/1.1/"
   xmlns:cc="http://creativecommons.org/ns#"
   xmlns:rdf="http://www.w3.org/1999/02/22-rdf-syntax-ns#"
   xmlns:svg="http://www.w3.org/2000/svg"
   xmlns="http://www.w3.org/2000/svg"
   xmlns:sodipodi="http://sodipodi.sourceforge.net/DTD/sodipodi-0.dtd"
   xmlns:inkscape="http://www.inkscape.org/namespaces/inkscape"
   width="48"
   viewBox="0 0 13.546667 13.546667"
   height="48"
   id="svg2"
   version="1.1"
   inkscape:version="0.91 r"
   sodipodi:docname="calendar-02.svg">
  <metadata
     id="metadata17">
    <rdf:RDF>
      <cc:Work
         rdf:about="">
        <dc:format>image/svg+xml</dc:format>
        <dc:type
           rdf:resource="http://purl.org/dc/dcmitype/StillImage" />
      </cc:Work>
    </rdf:RDF>
  </metadata>
  <defs
     id="defs15" />
  <sodipodi:namedview
     pagecolor="#ffffff"
     bordercolor="#666666"
     borderopacity="1"
     objecttolerance="10"
     gridtolerance="10"
     guidetolerance="10"
     inkscape:pageopacity="0"
     inkscape:pageshadow="2"
     inkscape:window-width="1366"
     inkscape:window-height="747"
     id="namedview13"
     showgrid="true"
     inkscape:zoom="2.4583333"
     inkscape:cx="-46.220169"
     inkscape:cy="64.085495"
     inkscape:window-x="0"
     inkscape:window-y="21"
     inkscape:window-maximized="1"
     inkscape:current-layer="svg2">
    <inkscape:grid
       type="xygrid"
       id="grid4145" />
  </sodipodi:namedview>
  <g
     transform="matrix(0.28222222,0,0,0.28222222,-9.4977623,-2.1106094)"
     style="font-style:normal;font-variant:normal;font-weight:normal;font-stretch:normal;font-size:20px;line-height:125%;font-family:'Droid Sans';-inkscape-font-specification:'Droid Sans';letter-spacing:0px;word-spacing:0px;fill:#000000;fill-opacity:1;stroke:none;stroke-width:1px;stroke-linecap:butt;stroke-linejoin:miter;stroke-opacity:1"
     id="flowRoot4147" />
  <g
     style="font-style:normal;font-variant:normal;font-weight:normal;font-stretch:normal;font-size:5.64444447px;line-height:125%;font-family:'Droid Sans';-inkscape-font-specification:'Droid Sans';letter-spacing:0px;word-spacing:0px;fill:#000000;fill-opacity:1;stroke:none;stroke-width:1px;stroke-linecap:butt;stroke-linejoin:miter;stroke-opacity:1"
     id="flowRoot4147-2" />
  <g
     id="g4182"
     transform="matrix(3.0000006,0,0,3.0000006,-1.0060385e-4,4.6996235e-7)">
    <path
       sodipodi:nodetypes="scccccccccccccccccccsccsccccsscccccc"
       style="color:#000000;fill:#cacaca"
       inkscape:connector-curvature="0"
       id="path4"
       d="m 0.84668897,0.141111 2.214e-5,0.3292591 -0.42337785,0 c -0.0846667,2e-8 -0.14111113,0.0705556 -0.1410577,0.14111113 l -1.98e-5,3.76296927 c -3.363e-5,0.07055 0.0705219,0.1411056 0.1410775,0.141104 l 3.66888944,0 c 0.070556,1.6e-6 0.1411111,-0.070554 0.1410452,-0.1410773 L 4.233366,0.61148123 C 4.2333338,0.54092568 4.1627782,0.47037012 4.0922227,0.4703701 l -0.4232485,0 0,-0.32925913 C 3.6688893,-1.3457406e-7 3.6688893,-1.3457406e-7 3.5277781,-1.3457406e-7 l -0.3762637,0 c -0.1411111,0 -0.1411111,0 -0.1411111,0.14111113457406 l 0,0.28222226 -1.5051848,0 0,-0.28222226 c 0,-0.14111113457406 0,-0.14111113457406 -0.1411112,-0.14111113457406 l -0.37632952,0 c -0.14111113,0 -0.1410983,3.1901e-10 -0.14108881,0.14111113457406 z m 0.18815913,0.047037 0.2822222,0 0,0.56444434 c 0,0.23428788 -0.2822222,0.23428788 -0.2822222,0 z m 2.1637033,0 0.2822222,0 0,0.56444434 c 0,0.23428819 -0.2822222,0.23428819 -0.2822222,0 z M 0.56441076,1.411111 l 3.38666864,0 0,2.8222883 -3.38666864,-5.36e-5 z" />
    <g
       transform="matrix(0.28222222,0,0,0.28222222,-9.4977623,-11.141722)"
       style="font-style:normal;font-variant:normal;font-weight:normal;font-stretch:normal;font-size:20px;line-height:125%;font-family:'Droid Sans';-inkscape-font-specification:'Droid Sans';letter-spacing:0px;word-spacing:0px;fill:#000000;fill-opacity:1;stroke:none;stroke-width:1px;stroke-linecap:butt;stroke-linejoin:miter;stroke-opacity:1"
       id="flowRoot4147-9" />
    <g
       transform="scale(1.1417405,0.87585576)"
       style="font-style:normal;font-variant:normal;font-weight:normal;font-stretch:normal;font-size:1.60710132px;line-height:125%;font-family:Ubuntu;-inkscape-font-specification:Ubuntu;letter-spacing:0px;word-spacing:0px;fill:#3798d6;fill-opacity:1;stroke:none;stroke-width:1px;stroke-linecap:butt;stroke-linejoin:miter;stroke-opacity:1"
       id="text4155">
      <path
         d="m 2.5865306,4.2965312 -1.1828737,0 0,-0.2592435 0.4147895,-0.4473457 q 0.078376,-0.084405 0.1422825,-0.1555461 0.063907,-0.071141 0.1097263,-0.1386651 0.04582,-0.067524 0.071141,-0.1374593 0.025322,-0.069935 0.025322,-0.1507229 0,-0.089228 -0.05426,-0.1386651 -0.053055,-0.049437 -0.1434882,-0.049437 -0.095257,0 -0.1832791,0.047026 -0.088022,0.047025 -0.1844849,0.133842 L 1.3988338,2.7603629 q 0.05426,-0.049437 0.1133436,-0.094051 0.059083,-0.04582 0.1302246,-0.080788 0.071141,-0.034968 0.1567519,-0.055466 0.085611,-0.021704 0.1917196,-0.021704 0.1266073,0 0.2266873,0.034968 0.1012858,0.034968 0.172427,0.10008 0.071141,0.063907 0.1085206,0.1555461 0.038585,0.09164 0.038585,0.206189 0,0.1036974 -0.036173,0.1989543 -0.036173,0.094051 -0.098874,0.1856907 -0.062701,0.090434 -0.1458998,0.1808675 -0.081993,0.089228 -0.1760444,0.1820733 l -0.2122179,0.2134237 0,0.016881 0.718647,0 0,0.3135037 z"
         style="font-style:normal;font-variant:normal;font-weight:bold;font-stretch:normal;font-size:2.46944475px;font-family:'droid sans';-inkscape-font-specification:'droid sans Bold';text-align:center;letter-spacing:-0.02822223px;word-spacing:0.05644445px;text-anchor:middle;fill:#3798d6;fill-opacity:1"
         id="path4153" />
    </g>
  </g>
</svg>
