<?xml version="1.0" encoding="UTF-8" standalone="no"?>
<svg
   xmlns:dc="http://purl.org/dc/elements/1.1/"
   xmlns:cc="http://creativecommons.org/ns#"
   xmlns:rdf="http://www.w3.org/1999/02/22-rdf-syntax-ns#"
   xmlns:svg="http://www.w3.org/2000/svg"
   xmlns="http://www.w3.org/2000/svg"
   xmlns:sodipodi="http://sodipodi.sourceforge.net/DTD/sodipodi-0.dtd"
   xmlns:inkscape="http://www.inkscape.org/namespaces/inkscape"
   width="48"
   viewBox="0 0 48 48"
   height="48"
   id="svg2"
   version="1.1"
   inkscape:version="0.48.5 r10040"
   sodipodi:docname="gnome-fs-loading-icon.svg">
  <metadata
     id="metadata12">
    <rdf:RDF>
      <cc:Work
         rdf:about="">
        <dc:format>image/svg+xml</dc:format>
        <dc:type
           rdf:resource="http://purl.org/dc/dcmitype/StillImage" />
      </cc:Work>
    </rdf:RDF>
  </metadata>
  <defs
     id="defs10" />
  <sodipodi:namedview
     pagecolor="#ffffff"
     bordercolor="#666666"
     borderopacity="1"
     objecttolerance="10"
     gridtolerance="10"
     guidetolerance="10"
     inkscape:pageopacity="0"
     inkscape:pageshadow="2"
     inkscape:window-width="1920"
     inkscape:window-height="1023"
     id="namedview8"
     showgrid="false"
     inkscape:zoom="54.843234"
     inkscape:cx="13.720274"
     inkscape:cy="24"
     inkscape:window-x="0"
     inkscape:window-y="28"
     inkscape:window-maximized="1"
     inkscape:current-layer="svg2" />
  <path
     style="opacity:0.5;fill:#f5c14e;line-height:normal;color:#000;fill-opacity:1"
     d="M 7,4 C 7,4 4,4 4,7 L 4.0000107,9.0010178 8,8.9999998 l 0,-1 1.0000107,0.00102 0,-4 L 7,4 z m 14,0 0,4 6,0 0,-4 z m 10,0 0,4 5,0 0,-4 z m 8.000011,0.00102 0,4 L 40,8 40,9 44.000011,9.00102 44,7 C 44,7 44,4 41,4 z M 12,4 l 0,4 5,0 0,-4 z m 27.999989,7.99898 0,5 L 44,17 44,12 z M 4,12 4.0000107,17.001018 8,17 7.9999893,11.998982 z m 35.999989,8.99898 0,7 L 44,28 44,21 z m 0,11 0,4 L 44,36 44,32 z M 4,21 l 0,6 3.9999893,-0.001 0,-6 z m 0,10 0,5 3.9999893,-10e-4 0,-5 z m 1.07e-5,8.001018 L 4,41 c 0,3 3,3 3,3 l 2.0000107,0.001 L 8.9999997,40 7.999989,39.998982 8,39 z M 40,38.999998 39.999989,39.99898 39,40 39.000011,44.001018 41,44 c 3,0 3,-3 3,-3 l 1.1e-5,-1.998982 z M 11.999989,39.998982 12,44 l 5,0 -1.1e-5,-4.001018 z m 9,0 L 21,44 l 6,0 -1.1e-5,-4.001018 z m 10,0 L 31,44 l 5,0 -1.1e-5,-4.001018 z"
     id="path4" />
  <path
     style="fill:none;stroke:#e9a439;stroke-linejoin:round;stroke-linecap:round;stroke-width:2;stroke-opacity:1;opacity:0.8"
     d="m 24,12 0,12 6,6"
     id="path6" />
</svg>
