<svg xmlns="http://www.w3.org/2000/svg" viewBox="0 0 48 48">
 <g transform="translate(0,-1004.3622)">
  <rect width="38" height="15" x="5" y="1014.36" style="fill:#388e3c;fill-opacity:1;stroke:none"/>
  <path d="m 10 1016.36 c 0 -2 0 -4 2 -4 l 7 0 c 2 0 2 2 2 4 z" style="fill:#388e3c;fill-opacity:1;stroke:none"/>
  <path d="m 9 1017.36 31 0 0 7 -31 0 z" style="fill:#95989f;fill-opacity:1;stroke:none"/>
  <rect y="1016.36" x="11" height="20" width="28" style="fill:#d8d8da;fill-opacity:1;stroke:none"/>
  <rect width="28" height="20" x="10" y="1019.36" style="fill:#f9f9f9;fill-opacity:1;stroke:none"/>
  <path d="m 2 1020.36 44 0 -4 24 -37 0 z" style="fill:#66bb6a;fill-opacity:1;stroke:none"/>
  <path d="m 16.628 1031.07 c -0.899 0 -1.628 0.719 -1.628 1.605 0 0.887 0.729 1.605 1.628 1.605 0.899 0 1.628 -0.719 1.628 -1.605 0 -0.887 -0.729 -1.605 -1.628 -1.605 z m 11.626 7.296 c -0.779 0.443 -1.045 1.425 -0.596 2.192 0.45 0.768 1.445 1.031 2.224 0.588 0.779 -0.443 1.045 -1.425 0.596 -2.193 -0.45 -0.767 -1.445 -1.031 -2.224 -0.587 z m -8.089 -5.691 c 0 -1.587 0.8 -2.988 2.022 -3.836 l -1.19 -1.966 c -1.425 0.939 -2.485 2.374 -2.925 4.054 0.514 0.413 0.843 1.043 0.843 1.748 0 0.705 -0.329 1.335 -0.843 1.748 0.44 1.681 1.5 3.116 2.925 4.054 l 1.19 -1.966 c -1.223 -0.848 -2.022 -2.25 -2.022 -3.837 z m 4.756 -4.689 c 2.485 0 4.523 1.878 4.737 4.274 l 2.321 -0.033 c -0.114 -1.768 -0.898 -3.356 -2.102 -4.524 -0.619 0.231 -1.334 0.196 -1.952 -0.156 -0.619 -0.352 -1.01 -0.946 -1.114 -1.591 -0.602 -0.164 -1.235 -0.254 -1.89 -0.254 -1.126 0 -2.19 0.261 -3.135 0.722 l 1.131 1.999 c 0.609 -0.279 1.288 -0.436 2 -0.436 z m 0 9.379 c -0.716 0 -1.395 -0.157 -2 -0.436 l -1.131 1.999 c 0.945 0.461 2.01 0.722 3.135 0.722 0.655 0 1.288 -0.09 1.89 -0.254 0.106 -0.645 0.495 -1.239 1.114 -1.592 0.618 -0.352 1.333 -0.387 1.952 -0.156 1.204 -1.167 1.987 -2.755 2.101 -4.524 l -2.321 -0.033 c -0.213 2.396 -2.252 4.274 -4.737 4.274 z m 3.332 -10.381 c 0.779 0.443 1.774 0.18 2.224 -0.587 0.45 -0.768 0.183 -1.749 -0.596 -2.193 -0.779 -0.443 -1.774 -0.18 -2.224 0.588 -0.45 0.767 -0.183 1.749 0.596 2.192 z" style="fill:#103612;opacity:0.4;fill-opacity:1;color:#000"/>
 </g>
</svg>
