<svg xmlns="http://www.w3.org/2000/svg" viewBox="0 0 48 48">
 <rect width="24" height="10" x="2" y="8" style="fill:#388e3c;fill-opacity:1;stroke:none"/>
 <path d="m 5 9 c 0 -1 0 -2 1.273 -2 l 4.455 0 c 1.273 0 1.273 1 1.273 2 z" style="fill:#388e3c;fill-opacity:1;stroke:none"/>
 <path d="m 4 10 21 0 0 5 -21 0 z" style="fill:#95989f;fill-opacity:1;stroke:none"/>
 <rect y="9" x="6" height="13" width="18" style="fill:#d8d8da;fill-opacity:1;stroke:none"/>
 <rect width="18" height="12" x="5" y="11" style="fill:#f9f9f9;fill-opacity:1;stroke:none"/>
 <path d="M 0,12 27.902439,12 25,27 2,27 z" style="fill:#66bb6a;fill-opacity:1;stroke:none"/>
 <path d="m 6.281 7 c -0.824 0 -1.116 0.433 -1.219 1 l -3.063 0 0 4 -2 0 2 15 23 0 2.906 -15 -1.906 0 0 -4 -14.06 0 c -0.102 -0.567 -0.395 -1 -1.219 -1 z" style="fill:#000;fill-opacity:0.102;stroke:none"/>
 <rect width="24" height="10" x="22" y="23" style="fill:#388e3c;fill-opacity:1;stroke:none"/>
 <path d="m 25 24 c 0 -1 0 -2 1.273 -2 l 4.455 0 c 1.273 0 1.273 1 1.273 2 z" style="fill:#388e3c;fill-opacity:1;stroke:none"/>
 <path d="m 24 25 21 0 0 5 -21 0 z" style="fill:#95989f;fill-opacity:1;stroke:none"/>
 <rect y="24" x="26" height="13" width="18" style="fill:#d8d8da;fill-opacity:1;stroke:none"/>
 <rect width="18" height="12" x="25" y="26" style="fill:#f9f9f9;fill-opacity:1;stroke:none"/>
 <path d="m 20 27 27.902 0 -2.902 15 -23 0 z" style="fill:#66bb6a;fill-opacity:1;stroke:none"/>
</svg>
