<svg xmlns="http://www.w3.org/2000/svg" viewBox="0 0 48 48">
 <g transform="translate(0,-1004.3622)">
  <rect width="38" height="15" x="5" y="1014.36" style="fill:#ec407a;fill-opacity:1;stroke:none"/>
  <path d="m 10 1016.36 c 0 -2 0 -4 2 -4 l 7 0 c 2 0 2 2 2 4 z" style="fill:#ec407a;fill-opacity:1;stroke:none"/>
  <path d="m 9 1017.36 31 0 0 7 -31 0 z" style="fill:#95989f;fill-opacity:1;stroke:none"/>
  <rect y="1016.36" x="11" height="20" width="28" style="fill:#d8d8da;fill-opacity:1;stroke:none"/>
  <rect width="28" height="20" x="10" y="1019.36" style="fill:#f9f9f9;fill-opacity:1;stroke:none"/>
  <path d="m 2 1020.36 44 0 -4 24 -37 0 z" style="fill:#f06292;fill-opacity:1;stroke:none"/>
  <path d="m 23 1025.36 c -3.994 0.097 -7 3 -7 6 0 3 2 3 3 3 1 0 2 0 2 2 0 2 1 3 3 3 7 0 8 -5 8 -7 0 -3 -3 -7 -9 -7 z m -2 2 c 0.552 0 1 0.448 1 1 0 0.552 -0.448 1 -1 1 -0.552 0 -1 -0.448 -1 -1 0 -0.552 0.448 -1 1 -1 z m 4 0 c 0.552 0 1 0.448 1 1 0 0.552 -0.448 1 -1 1 -0.552 0 -1 -0.448 -1 -1 0 -0.552 0.448 -1 1 -1 z m 4 2 c 0.552 0 1 0.448 1 1 0 0.552 -0.448 1 -1 1 -0.552 0 -1 -0.448 -1 -1 0 -0.552 0.448 -1 1 -1 z m -11 1 c 0.552 0 1 0.448 1 1 0 0.552 -0.448 1 -1 1 -0.552 0 -1 -0.448 -1 -1 0 -0.552 0.448 -1 1 -1 z m 6.5 5 c 0.828 0 1.5 0.672 1.5 1.5 0 0.828 -0.672 1.5 -1.5 1.5 -0.828 0 -1.5 -0.672 -1.5 -1.5 0 -0.828 0.672 -1.5 1.5 -1.5 z" style="fill:#c64077;opacity:1;fill-opacity:1;stroke:none"/>
 </g>
</svg>
