<svg xmlns="http://www.w3.org/2000/svg" viewBox="0 0 48 48">
 <g transform="translate(0,-1004.3622)">
  <rect width="38" height="15" x="5" y="1014.36" style="fill:#ec407a;fill-opacity:1;stroke:none"/>
  <path d="m 10 1016.36 c 0 -2 0 -4 2 -4 l 7 0 c 2 0 2 2 2 4 z" style="fill:#ec407a;fill-opacity:1;stroke:none"/>
  <path d="m 9 1017.36 31 0 0 7 -31 0 z" style="fill:#95989f;fill-opacity:1;stroke:none"/>
  <rect y="1016.36" x="11" height="20" width="28" style="fill:#d8d8da;fill-opacity:1;stroke:none"/>
  <rect width="28" height="20" x="10" y="1019.36" style="fill:#f9f9f9;fill-opacity:1;stroke:none"/>
  <path d="m 2 1020.36 44 0 -4 24 -37 0 z" style="fill:#f06292;fill-opacity:1;stroke:none"/>
  <path d="m 24 1024.61 c -0.25 0 -0.5 0.25 -1 0.75 l -5 5 c -2.203 2 -3 2 0 2 l 0 6 c 0 1.108 0.892 2 2 2 l 2 0 0 -6 4 0 0 6 2 0 c 1.108 0 2 -0.892 2 -2 l 0 -6 c 3 0 2.288 0 0 -2 l 0 -4 c 0 -0.554 0 -1 -1 -1 -1 0 -1 0.446 -1 1 l 0 2 -3 -3 c -0.5 -0.5 -0.75 -0.75 -1 -0.75 z" style="fill:#c64077;opacity:1;fill-opacity:1"/>
 </g>
</svg>
