<svg xmlns="http://www.w3.org/2000/svg" viewBox="0 0 48 48">
 <g transform="translate(0,-1004.3622)">
  <rect width="38" height="15" x="5" y="1014.36" style="fill:#512da8;fill-opacity:1;stroke:none"/>
  <path d="m 10 1016.36 c 0 -2 0 -4 2 -4 l 7 0 c 2 0 2 2 2 4 z" style="fill:#512da8;fill-opacity:1;stroke:none"/>
  <path d="m 9 1017.36 31 0 0 7 -31 0 z" style="fill:#95989f;fill-opacity:1;stroke:none"/>
  <rect y="1016.36" x="11" height="20" width="28" style="fill:#d8d8da;fill-opacity:1;stroke:none"/>
  <rect width="28" height="20" x="10" y="1019.36" style="fill:#f9f9f9;fill-opacity:1;stroke:none"/>
  <path d="m 2 1020.36 44 0 -4 24 -37 0 z" style="fill:#7e57c2;fill-opacity:1;stroke:none"/>
  <path d="m 20.999 1037.93 c -0.039 1.38 -1.19 2.467 -2.571 2.428 -1.381 -0.042 -2.468 -1.191 -2.427 -2.571 0.039 -1.38 1.19 -2.467 2.571 -2.427 1.381 0.042 2.468 1.191 2.427 2.57 m 0 0" style="fill:#54398d;opacity:1;fill-opacity:1;stroke:none;fill-rule:nonzero"/>
  <path d="m 27 1040.36 c -0.159 -6.522 -6.447 -10.537 -11 -11 l 0 3 c 3.666 0.301 7.959 3.723 8 8" style="fill:#54398d;opacity:1;fill-opacity:1;stroke:none;fill-rule:nonzero"/>
  <path d="m 32 1040.36 c 0 -9.604 -8.625 -15.696 -16 -16 l 0 3 c 6.764 0.747 13.03 6.277 13 13" style="fill:#54398d;opacity:1;fill-opacity:1;stroke:none;fill-rule:nonzero"/>
 </g>
</svg>
