<svg xmlns="http://www.w3.org/2000/svg" viewBox="0 0 48 48">
 <g transform="translate(0,-1004.3622)">
  <rect width="38" height="15" x="5" y="1014.36" style="fill:#ffb300;fill-opacity:1;stroke:none"/>
  <path d="m 10 1016.36 c 0 -2 0 -4 2 -4 l 7 0 c 2 0 2 2 2 4 z" style="fill:#ffb300;fill-opacity:1;stroke:none"/>
  <path d="m 9 1017.36 31 0 0 7 -31 0 z" style="fill:#95989f;fill-opacity:1;stroke:none"/>
  <rect y="1016.36" x="11" height="20" width="28" style="fill:#d8d8da;fill-opacity:1;stroke:none"/>
  <rect width="28" height="20" x="10" y="1019.36" style="fill:#f9f9f9;fill-opacity:1;stroke:none"/>
  <path d="m 2 1020.36 44 0 -4 24 -37 0 z" style="fill:#ffca28;fill-opacity:1;stroke:none"/>
  <path d="m 20 1024.36 c -0.554 0 -1 0.446 -1 1 l 10 0 c 0 -0.554 -0.446 -1 -1 -1 z m -1 2 0 12 10 0 0 -12 z m 2 2 6 0 0 1 -6 0 z m 0 2 6 0 0 1 -6 0 z m 3 3 c 0.552 0 1 0.448 1 1 0 0.552 -0.448 1 -1 1 -0.552 0 -1 -0.448 -1 -1 0 -0.552 0.448 -1 1 -1 z m -5 6 c 0 0.554 0.446 1 1 1 l 8 0 c 0.554 0 1 -0.446 1 -1 z" style="fill:#745100;opacity:0.4;fill-opacity:1;stroke:none;fill-rule:evenodd"/>
 </g>
</svg>
