<svg xmlns="http://www.w3.org/2000/svg" viewBox="0 0 64 64">
 <path d="m 31.696 11.02 c 0 0 -3.928 0.29 -6.547 1.274 -2.619 0.984 -4.307 2.128 -7.857 4.747 -3.55 2.619 -1.862 3.123 -1.862 3.123 0.948 0.108 2.178 0.069 3.02 -0.506 1.074 -0.733 3.418 -2.618 5.389 -3.424 2.479 -1.014 5.178 -1.68 7.857 -1.68 2.678 0 5.378 0.666 7.857 1.68 1.97 0.806 4.314 2.691 5.389 3.424 0.843 0.575 2.072 0.615 3.02 0.506 0 0 1.688 -0.504 -1.862 -3.123 -3.55 -2.619 -5.238 -3.763 -7.857 -4.747 -2.619 -0.984 -6.547 -1.274 -6.547 -1.274 z" style="fill:#faae40;fill-opacity:1;stroke:none;fill-rule:evenodd"/>
 <path transform="scale(-1,-1)" d="m -11.333 -31.651 a 20.667 20.667 0 0 1 -10.333 17.898 20.667 20.667 0 0 1 -20.667 0 20.667 20.667 0 0 1 -10.333 -17.898" style="stroke-dasharray:none;stroke-opacity:1;fill:none;opacity:1;stroke-miterlimit:4;fill-opacity:1;stroke:#515151;fill-rule:nonzero;stroke-linecap:butt;stroke-linejoin:miter;stroke-width:2;stroke-dashoffset:0"/>
 <path d="m 10.333 31.651 0.333 4 2 0 -0.333 -4 z" style="fill:#faae40;fill-opacity:1;stroke:none;fill-rule:evenodd"/>
 <rect width="9.333" height="21.333" x="10.186" y="33.778" rx="2.667" transform="matrix(0.9961947,-0.08715574,0.08715574,0.9961947,0,0)" style="fill:#515151;opacity:1;fill-opacity:1;stroke:none;fill-rule:nonzero"/>
 <path d="m 10.667 35.651 1.511 17.267 1.328 -0.116 -0.116 -1.328 1.328 -0.116 -1.394 -15.939 z" style="fill:#515151;fill-opacity:1;stroke:none;fill-rule:evenodd"/>
 <rect width="2.667" height="21.333" x="10.186" y="33.778" transform="matrix(0.9961947,-0.08715574,0.08715574,0.9961947,0,0)" style="fill:#faae40;opacity:1;fill-opacity:1;stroke:none;fill-rule:nonzero"/>
 <path d="m 53.667 31.651 -0.333 4 -2 0 0.333 -4 z" style="fill:#faae40;fill-opacity:1;stroke:none;fill-rule:evenodd"/>
 <rect rx="2.667" y="28.2" x="-53.57" height="21.333" width="9.333" transform="matrix(-0.99619438,-0.08715941,-0.08715207,0.99619502,0,0)" style="fill:#515151;opacity:1;fill-opacity:1;stroke:none;fill-rule:nonzero"/>
 <path d="m 53.33 35.651 -1.511 17.267 -1.328 -0.116 0.116 -1.328 -1.328 -0.116 1.394 -15.939 z" style="fill:#515151;fill-opacity:1;stroke:none;fill-rule:evenodd"/>
 <rect y="28.2" x="-53.57" height="21.333" width="2.667" transform="matrix(-0.99619438,-0.08715941,-0.08715207,0.99619502,0,0)" style="fill:#faae40;opacity:1;fill-opacity:1;stroke:none;fill-rule:nonzero"/>
 <path d="m 32 5.651 c -0.564 -0.007 -1.022 0.452 -1.013 1.016 0.009 0.551 0.462 0.992 1.013 0.984 13.267 0 24 10.733 24 24 0 4 -0.599 11.213 -1.833 11.469 -0.87 0.18 -2.167 0.531 -2.167 0.531 l 0 2 c 0 0 3.463 -0.431 4.274 -1.623 0.524 -0.77 1.731 -4.377 1.726 -12.377 0 -14.348 -11.652 -26 -26 -26 z" mix-blend-mode="normal" isolation="auto" white-space="normal" solid-opacity="1" solid-color="#000000" style="visibility:visible;shape-rendering:auto;color-interpolation-filters:linearRGB;fill:#515151;opacity:1;image-rendering:auto;fill-opacity:1;stroke:none;display:inline;color:#000;fill-rule:nonzero;color-rendering:auto;color-interpolation:sRGB"/>
 <rect width="4" height="2.748" x="32" y="6.237" rx="0.933" style="fill:#515151;opacity:1;fill-opacity:1;stroke:none;fill-rule:nonzero"/>
</svg>
