<svg xmlns="http://www.w3.org/2000/svg" width="64" height="64" viewBox="0 0 48 48">
 <defs>
  <linearGradient id="linear0" gradientUnits="userSpaceOnUse" y1="-7" x2="0" y2="23" gradientTransform="matrix(1.125,0,0,1.125,-2.999998,-3)">
   <stop style="stop-color:#829495;stop-opacity:1"/>
   <stop offset="1" style="stop-color:#667678;stop-opacity:1"/>
  </linearGradient>
 </defs>
 <g>
  <path d="m 21.75 6 c -1.246 0 -2.25 1 -2.25 2.25 l 0 0.75 l -2.25 0 c -1.246 0 -2.25 1 -2.25 2.25 l 0 28.5 c 0 1.246 1 2.25 2.25 2.25 l 13.5 0 c 1.246 0 2.25 -1 2.25 -2.25 l 0 -28.5 c 0 -1.246 -1 -2.25 -2.25 -2.25 l -2.25 0 l 0 -0.75 c 0 -1.246 -1 -2.25 -2.25 -2.25 m -4.5 0" style="fill:url(#linear0);stroke:none;fill-rule:nonzero"/>
  <path d="m 17.25 33.75 l 13.5 0 c 1.242 0 2.25 1.01 2.25 2.25 l 0 3.75 c 0 1.242 -1.01 2.25 -2.25 2.25 l -13.5 0 c -1.242 0 -2.25 -1.01 -2.25 -2.25 l 0 -3.75 c 0 -1.242 1.01 -2.25 2.25 -2.25 m 0 0" style="fill:#6fa6ce;fill-opacity:1;stroke:none;fill-rule:nonzero"/>
  <path d="m 17.25 9 l 13.5 0 c 1.242 0 2.25 1.01 2.25 2.25 l 0 28.5 c 0 1.242 -1.01 2.25 -2.25 2.25 l -13.5 0 c -1.242 0 -2.25 -1.01 -2.25 -2.25 l 0 -28.5 c 0 -1.242 1.01 -2.25 2.25 -2.25 m 0 0" style="fill:#6fa6ce;fill-opacity:0.2;stroke:none;fill-rule:nonzero"/>
  <path d="m 24 6 l 3 0 l 0 3 l -3 0 m 0 -3" style="fill:#fff;fill-opacity:0.2;stroke:none;fill-rule:nonzero"/>
  <path d="m 27 9 l 3 0 l 0 33 l -3 0 m 0 -33" style="fill:#fff;fill-opacity:0.2;stroke:none;fill-rule:nonzero"/>
  <path d="m 28.5 13.5 l -12 13.5 l 7.5 0 l -4.5 10.5 l 12 -15 l -5.625 0 m 2.625 -9" style="fill:#fff;fill-opacity:1;stroke:none;fill-rule:evenodd"/>
 </g>
</svg>
