<svg xmlns="http://www.w3.org/2000/svg" width="64" height="64" viewBox="0 0 48 48">
 <defs>
  <linearGradient id="linear0" gradientUnits="userSpaceOnUse" y1="-7" x2="0" y2="23" gradientTransform="matrix(1.125,0,0,1.125,-2.999998,-3)">
   <stop style="stop-color:#829495;stop-opacity:1"/>
   <stop offset="1" style="stop-color:#667678;stop-opacity:1"/>
  </linearGradient>
 </defs>
 <g>
  <path d="m 21.75 6 c -1.246 0 -2.25 1 -2.25 2.25 l 0 0.75 l -2.25 0 c -1.246 0 -2.25 1 -2.25 2.25 l 0 28.5 c 0 1.246 1 2.25 2.25 2.25 l 13.5 0 c 1.246 0 2.25 -1 2.25 -2.25 l 0 -28.5 c 0 -1.246 -1 -2.25 -2.25 -2.25 l -2.25 0 l 0 -0.75 c 0 -1.246 -1 -2.25 -2.25 -2.25 m -4.5 0" style="fill:url(#linear0);stroke:none;fill-rule:nonzero"/>
  <path d="m 17.25 9 l 13.5 0 c 1.242 0 2.25 1.01 2.25 2.25 l 0 28.5 c 0 1.242 -1.01 2.25 -2.25 2.25 l -13.5 0 c -1.242 0 -2.25 -1.01 -2.25 -2.25 l 0 -28.5 c 0 -1.242 1.01 -2.25 2.25 -2.25 m 0 0" style="fill:#6fa6ce;fill-opacity:0.2;stroke:none;fill-rule:nonzero"/>
  <path d="m 24 6 l 3 0 l 0 3 l -3 0 m 0 -3" style="fill:#fff;fill-opacity:0.2;stroke:none;fill-rule:nonzero"/>
  <path d="m 27 9 l 3 0 l 0 33 l -3 0 m 0 -33" style="fill:#fff;fill-opacity:0.2;stroke:none;fill-rule:nonzero"/>
  <path d="m 21.641 28.5 l 0 -0.805 c 0 -0.723 0.172 -1.352 0.508 -1.887 c 0.336 -0.535 0.953 -1.105 1.852 -1.707 c 0.863 -0.566 1.434 -1.023 1.703 -1.379 c 0.281 -0.355 0.422 -0.75 0.422 -1.188 c 0 -0.488 -0.199 -0.863 -0.594 -1.121 c -0.395 -0.254 -0.945 -0.383 -1.656 -0.383 c -1.234 0 -2.641 0.371 -4.219 1.109 l -1.348 -2.477 c 1.836 -0.941 3.781 -1.414 5.84 -1.414 c 1.695 0 3.039 0.375 4.04 1.121 c 1 0.746 1.508 1.738 1.508 2.984 c 0 0.828 -0.207 1.543 -0.617 2.148 c -0.414 0.602 -1.195 1.281 -2.348 2.035 c -0.789 0.535 -1.289 0.941 -1.504 1.219 c -0.207 0.277 -0.309 0.645 -0.309 1.098 l 0 0.645 l -3.273 0" style="fill:#fff;fill-opacity:1;stroke:none;fill-rule:nonzero"/>
  <path d="m 21.441 31.852 c 0 -0.625 0.16 -1.094 0.484 -1.414 c 0.328 -0.32 0.801 -0.48 1.422 -0.48 c 0.602 0 1.063 0.164 1.387 0.488 c 0.332 0.328 0.5 0.797 0.5 1.406 c 0 0.59 -0.168 1.055 -0.5 1.395 c -0.332 0.336 -0.793 0.504 -1.387 0.504 c -0.605 0 -1.078 -0.164 -1.41 -0.492 c -0.332 -0.332 -0.496 -0.801 -0.496 -1.406" style="fill:#fff;fill-opacity:1;stroke:none;fill-rule:nonzero"/>
 </g>
</svg>
