<svg xmlns="http://www.w3.org/2000/svg" width="64" height="64" viewBox="0 0 48 48">
 <g>
  <path d="m 15 16.874 l -2.186 14.22 l 19.936 0 l -2.75 -14.227 m -15 0.008" transform="matrix(1.03125,0,0,1.03125,-4.25462,-3.193967)" style="stroke-opacity:1;fill:none;stroke-miterlimit:4;stroke:#fff;stroke-linecap:butt;stroke-linejoin:miter;stroke-width:0.5"/>
  <path d="m 12.739 31.582 l 0 3.03 l 20.09 0 l 0 -3.03 m -20.09 0" transform="matrix(1.03125,0,0,1.03125,-4.25462,-3.193967)" style="stroke-opacity:1;fill:none;stroke-miterlimit:4;stroke:#fff;stroke-linecap:butt;stroke-linejoin:miter;stroke-width:0.5"/>
  <path d="m 24.861 1036.35 l -9.148 0 l 0 -0.928 c 2.966 0 6.424 0 9.148 0 m 0 0.928" transform="matrix(1.03125,0,0,1.03125,-5.509146,-1037.15007)" style="stroke-opacity:1;fill:none;stroke-miterlimit:4;stroke:#fff;stroke-linecap:butt;stroke-linejoin:miter;stroke-width:0.4"/>
  <path d="m 26.585 1036.35 l 4.508 0 l 0 -0.648 l -4.508 0 m 0 0.648" transform="matrix(1.03125,0,0,1.03125,-5.509146,-1037.15007)" style="stroke-opacity:1;fill:none;stroke-miterlimit:4;stroke:#fff;stroke-linecap:butt;stroke-linejoin:miter;stroke-width:0.4"/>
  <path d="m 11.957 11.977 l 3 0 c 0.828 0 1.5 0.672 1.5 1.5 c 0 0.828 -0.672 1.5 -1.5 1.5 l -3 0 c -0.828 0 -1.5 -0.672 -1.5 -1.5 c 0 -0.828 0.672 -1.5 1.5 -1.5 m 0 0" style="fill:#647a82;fill-opacity:1;stroke:none;fill-rule:nonzero"/>
  <path d="m 9.41 13.477 l 29.18 0 c 1.055 0 1.91 0.855 1.91 1.91 l 0 17.18 c 0 1.055 -0.855 1.91 -1.91 1.91 l -29.18 0 c -1.055 0 -1.91 -0.855 -1.91 -1.91 l 0 -17.18 c 0 -1.055 0.855 -1.91 1.91 -1.91 m 0 0" style="fill:#586e75;fill-opacity:1;stroke:none;fill-rule:nonzero"/>
  <path d="m 34.535 13.477 l 4.5 0 l 0 21 l -4.5 0 m 0 -21" style="fill:#ede7d5;fill-opacity:0.29;stroke:none;fill-rule:nonzero"/>
  <path d="m 36 24 c 0 6.629 -5.371 12 -12 12 c -6.629 0 -12 -5.371 -12 -12 c 0 -6.629 5.371 -12 12 -12 c 6.629 0 12 5.371 12 12 m 0 0" style="fill:#063642;fill-opacity:1;stroke:none;fill-rule:nonzero"/>
  <path d="m 31.48 24 c 0 4.137 -3.352 7.492 -7.488 7.492 c -4.137 0 -7.492 -3.355 -7.492 -7.492 c 0 -4.137 3.355 -7.492 7.492 -7.492 c 4.137 0 7.488 3.355 7.488 7.492 m 0 0" style="fill:#ede7d5;fill-opacity:1;stroke:none;fill-rule:nonzero"/>
  <path d="m 27.988 17.68 c 1.219 1.332 1.949 3.082 1.949 5.03 c 0 4.141 -3.352 7.492 -7.488 7.492 c -1.457 0 -2.793 -0.41 -3.941 -1.133 c 1.367 1.48 3.328 2.422 5.5 2.422 c 4.137 0 7.492 -3.355 7.492 -7.492 c 0 -2.664 -1.414 -4.992 -3.512 -6.32 m 0 0" style="fill:#829495;fill-opacity:0.592;stroke:none;fill-rule:nonzero"/>
  <path d="m 38.28 15.82 c 0 0.852 -0.691 1.539 -1.539 1.539 c -0.852 0 -1.539 -0.688 -1.539 -1.539 c 0 -0.848 0.688 -1.539 1.539 -1.539 c 0.848 0 1.539 0.691 1.539 1.539 m 0 0" style="fill:#ede7d5;fill-opacity:1;stroke:none;fill-rule:nonzero"/>
 </g>
</svg>
