<svg xmlns="http://www.w3.org/2000/svg" width="64" height="64" viewBox="0 0 48 48">
 <g>
  <path d="m 12.563 7.5 l 22.875 0 c 1.141 0 2.063 0.922 2.063 2.063 l 0 28.875 c 0 1.141 -0.922 2.063 -2.063 2.063 l -22.875 0 c -1.141 0 -2.063 -0.922 -2.063 -2.063 l 0 -28.875 c 0 -1.141 0.922 -2.063 2.063 -2.063 m 0 0" style="fill:#829495;fill-opacity:1;stroke:none;fill-rule:nonzero"/>
  <path d="m 30.01 7.5 l 4.5 0 l 0 33 l -4.5 0 m 0 -33" style="fill:#fcf5e3;fill-opacity:0.463;stroke:none;fill-rule:nonzero"/>
  <path d="m 24.09 11.965 c -1.453 -0.016 -2.926 0.316 -4.297 1.043 c -4.395 2.328 -6.03 7.77 -3.699 12.164 c 1.93 3.641 5.984 5.402 9.828 4.582 l -1.676 -5.91 c -0.055 0.004 -0.102 0.031 -0.156 0.031 c -1.676 0 -3.035 -1.355 -3.035 -3.03 c 0 -1.676 1.359 -3.035 3.035 -3.035 c 1.672 0 3.03 1.359 3.03 3.035 c 0 0.75 -0.277 1.43 -0.727 1.957 l 3.887 4.645 c 2.816 -2.719 3.629 -7.078 1.703 -10.711 c -1.598 -3.02 -4.703 -4.734 -7.895 -4.77 m 0 0" style="fill:#063642;fill-opacity:1;stroke:none;fill-rule:nonzero"/>
  <path d="m 26.805 26.719 l 3.094 9.281 l 3.094 0 l 0 -2.063 m -6.188 -7.219" style="fill:#063642;fill-opacity:1;stroke:none;fill-rule:nonzero"/>
  <path d="m 15.527 23.621 c 0.805 2.531 2.738 4.629 5.316 5.637 l 2.121 -5.645 c -0.309 -0.121 -0.582 -0.293 -0.848 -0.52 c -0.426 -0.367 -0.734 -0.824 -0.902 -1.32 m -5.688 1.848" style="fill:#93a1a1;fill-opacity:0.494;stroke:none;fill-rule:nonzero"/>
  <path d="m 15.27 18.992 c -0.566 2.594 0.059 5.379 1.789 7.543 l 4.652 -3.828 c -0.203 -0.262 -0.355 -0.547 -0.469 -0.875 c -0.188 -0.531 -0.227 -1.082 -0.121 -1.598 m -5.852 -1.242" style="fill:#268bd1;fill-opacity:0.247;stroke:none;fill-rule:nonzero"/>
  <path d="m 32.523 17.969 c -0.824 -2.523 -2.77 -4.605 -5.359 -5.598 l -2.078 5.66 c 0.309 0.117 0.586 0.289 0.852 0.512 c 0.426 0.363 0.738 0.82 0.91 1.316 m 5.676 -1.891" style="fill:#93a1a1;fill-opacity:0.494;stroke:none;fill-rule:nonzero"/>
  <path d="m 32.816 22.598 c 0.547 -2.598 -0.098 -5.379 -1.844 -7.527 l -4.629 3.859 c 0.207 0.258 0.363 0.543 0.48 0.871 c 0.188 0.527 0.23 1.082 0.129 1.594 m 5.863 1.203" style="fill:#268bd1;fill-opacity:0.192;stroke:none;fill-rule:nonzero"/>
 </g>
</svg>
