<svg xmlns="http://www.w3.org/2000/svg" width="64" height="64" viewBox="0 0 48 48">
 <g>
  <path d="m 24 7.5 c -9.113 0 -16.5 7.387 -16.5 16.5 c 0 9.113 7.387 16.5 16.5 16.5 c 9.113 0 16.5 -7.387 16.5 -16.5 c 0 -9.113 -7.387 -16.5 -16.5 -16.5 m 0 11.344 c 2.84 0 5.156 2.316 5.156 5.156 c 0 2.84 -2.316 5.156 -5.156 5.156 c -2.84 0 -5.156 -2.316 -5.156 -5.156 c 0 -2.84 2.316 -5.156 5.156 -5.156 m 0 1.031 c -2.285 0 -4.125 1.84 -4.125 4.125 c 0 2.285 1.84 4.125 4.125 4.125 c 2.285 0 4.125 -1.84 4.125 -4.125 c 0 -2.285 -1.84 -4.125 -4.125 -4.125 m 0 1.547 c 1.426 0 2.578 1.152 2.578 2.578 c 0 1.426 -1.152 2.578 -2.578 2.578 c -1.426 0 -2.578 -1.152 -2.578 -2.578 c 0 -1.426 1.152 -2.578 2.578 -2.578 m 0 0" style="fill:#ede7d5;fill-opacity:1;stroke:none;fill-rule:nonzero"/>
  <path d="m 22.21 22.16 c 0.402 -0.387 0.918 -0.648 1.473 -0.719 l -0.199 -1.516 c -0.891 0.109 -1.703 0.5 -2.344 1.121 m -0.719 -0.73 c 0.801 -0.77 1.836 -1.266 2.941 -1.406 l -1.434 -11.258 c -3.547 0.453 -6.863 2.035 -9.418 4.512 m 7.91 8.152" style="fill:#647a82;fill-opacity:0.255;stroke:none;fill-rule:nonzero"/>
  <path d="m 26.406 24.895 c -0.195 0.523 -0.547 0.98 -1.02 1.285 l 0.832 1.281 c 0.758 -0.484 1.32 -1.188 1.633 -2.023 m 0.961 0.352 c -0.391 1.039 -1.109 1.934 -2.047 2.535 l 6.145 9.543 c 3.01 -1.938 5.316 -4.793 6.559 -8.129 m -10.656 -3.949" style="fill:#fffdfb;fill-opacity:0.463;stroke:none;fill-rule:nonzero"/>
  <path d="m 25.848 25.781 c -0.387 0.402 -0.895 0.68 -1.449 0.77 l 0.254 1.508 c 0.887 -0.141 1.684 -0.559 2.305 -1.203 m 0.742 0.707 c -0.773 0.797 -1.789 1.328 -2.891 1.508 l 1.82 11.199 c 3.531 -0.574 6.789 -2.27 9.258 -4.832 m -8.188 -7.875" style="fill:#647a82;fill-opacity:0.255;stroke:none;fill-rule:nonzero"/>
  <path d="m 21.609 23.06 c 0.207 -0.523 0.566 -0.973 1.047 -1.266 l -0.809 -1.297 c -0.766 0.469 -1.344 1.16 -1.672 1.992 m -0.953 -0.371 c 0.41 -1.031 1.145 -1.914 2.094 -2.5 l -5.965 -9.652 c -3.039 1.879 -5.402 4.691 -6.707 8 m 10.578 4.148" style="fill:#fffdfb;fill-opacity:0.427;stroke:none;fill-rule:nonzero"/>
  <path d="m 24 18 c -3.313 0 -6 2.688 -6 6 c 0 3.313 2.688 6 6 6 c 3.313 0 6 -2.688 6 -6 c 0 -3.313 -2.688 -6 -6 -6 m 0 1.5 c 2.484 0 4.5 2.02 4.5 4.5 c 0 2.484 -2.02 4.5 -4.5 4.5 c -2.484 0 -4.5 -2.02 -4.5 -4.5 c 0 -2.484 2.02 -4.5 4.5 -4.5 m 0 0" style="fill:#647a82;fill-opacity:1;stroke:none;fill-rule:nonzero"/>
  <path d="m 8.184 29.996 l 13.273 0 c 0.082 0 0.164 -0.012 0.246 0 c 0.098 0.016 0.129 0.152 0.164 0.246 c 0.109 0.293 0.18 0.605 0.258 0.914 c 0.199 0.75 0.457 1.488 0.684 2.23 c 0.234 0.762 0.434 1.527 0.633 2.297 c 0.094 0.352 0.168 0.699 0.191 1.063 c 0.004 0.047 0.039 0.094 0.066 0.094 c 0.02 -0.066 0.043 -0.129 0.07 -0.191 c 0.066 -0.148 0.148 -0.289 0.234 -0.426 c 0.168 -0.273 0.359 -0.531 0.535 -0.797 c 0.203 -0.301 0.395 -0.609 0.602 -0.906 c 0.441 -0.641 0.91 -1.254 1.367 -1.879 c 0.469 -0.641 0.941 -1.277 1.41 -1.918 c 0.102 -0.137 0.207 -0.273 0.301 -0.414 c 0.074 -0.113 0.152 -0.246 0.273 -0.289 c 0.223 -0.082 0.484 -0.043 0.715 -0.031 c 0.68 0.035 1.363 0.012 2.047 0.012 l 2.184 0 c 0.727 0 1.453 0 2.184 0 c 0.355 0 0.715 -0.012 1.074 0.023 c 0.328 0.031 0.656 0.074 0.98 0.141 c 1.199 0.238 2.426 0.742 3.316 1.73 c 0.414 0.465 0.758 1.039 0.914 1.688 c 0.145 0.605 0.117 1.246 -0.039 1.848 c -0.309 1.207 -1.07 2.254 -1.973 2.953 c -0.563 0.43 -1.125 0.828 -1.75 1.137 c -0.613 0.305 -1.25 0.535 -1.902 0.695 c -1.375 0.34 -2.785 0.281 -4.184 0.281 l -3.277 0 c 0.031 -0.379 0.145 -0.75 0.219 -1.121 c 0.082 -0.402 0.168 -0.809 0.254 -1.215 c 0.168 -0.816 0.34 -1.637 0.508 -2.457 c 0.098 -0.465 0.188 -0.934 0.281 -1.402 c 0.043 -0.227 0.09 -0.445 0.141 -0.668 c 0.027 -0.117 0.051 -0.289 0.121 -0.383 c 0.035 -0.051 0.121 -0.055 0.172 -0.063 c 0.109 -0.012 0.223 -0.012 0.332 -0.012 c 0.262 0.012 0.523 0.016 0.785 0.016 l 2.246 0 c -0.043 0.398 -0.145 0.785 -0.23 1.18 c -0.09 0.414 -0.172 0.84 -0.258 1.258 c -0.18 0.852 -0.363 1.703 -0.516 2.563 c 0.672 0 1.34 0.027 2 -0.082 c 0.34 -0.055 0.691 -0.164 1.016 -0.289 c 0.301 -0.109 0.59 -0.25 0.863 -0.426 c 0.828 -0.539 1.492 -1.473 1.531 -2.602 c 0.016 -0.477 -0.098 -0.957 -0.359 -1.336 c -0.32 -0.469 -0.816 -0.723 -1.305 -0.879 c -1.223 -0.398 -2.539 -0.25 -3.797 -0.246 c -0.363 0 -0.727 0 -1.09 0.016 c -0.176 0 -0.352 0 -0.527 0 c -0.176 0 -0.379 -0.027 -0.555 0.012 c -0.148 0.027 -0.25 0.234 -0.344 0.352 c -0.129 0.168 -0.258 0.328 -0.383 0.492 c -0.246 0.316 -0.492 0.629 -0.738 0.945 c -0.98 1.258 -1.953 2.523 -2.93 3.785 c -0.77 0.996 -1.531 1.996 -2.309 2.984 c -0.473 0.598 -0.961 1.184 -1.406 1.805 c -0.043 0.063 -0.105 0.129 -0.133 0.207 c 0 0 0 0.012 0 0.012 c -0.051 0 -0.055 0.016 -0.066 -0.047 c -0.016 -0.086 -0.035 -0.176 -0.059 -0.262 c -0.051 -0.188 -0.113 -0.371 -0.176 -0.555 c -0.262 -0.766 -0.484 -1.547 -0.727 -2.32 c -0.488 -1.594 -0.984 -3.191 -1.477 -4.785 c -0.152 -0.492 -0.309 -0.984 -0.457 -1.473 c -0.078 -0.238 -0.152 -0.477 -0.227 -0.711 c -0.039 -0.129 -0.098 -0.508 -0.262 -0.508 c 0 0.223 0.055 0.426 0.117 0.641 c 0.074 0.285 0.117 0.574 0.141 0.875 c 0.063 0.738 -0.004 1.496 -0.258 2.188 c -0.473 1.281 -1.508 2.262 -2.527 2.961 c -1.078 0.73 -2.285 1.184 -3.516 1.406 c -0.668 0.125 -1.332 0.164 -2 0.16 c -0.723 0 -1.438 -0.012 -2.16 -0.012 l -2.719 0 c 0 -0.188 0.074 -0.395 0.117 -0.578 c 0.09 -0.391 0.168 -0.789 0.25 -1.188 c 0.34 -1.633 0.68 -3.27 1.023 -4.902 c 0.035 -0.184 0.074 -0.359 0.113 -0.539 c 0.012 -0.066 -0.004 -0.098 0.063 -0.098 l 3.52 0 c -0.348 1.664 -0.691 3.332 -1.035 5 c 0.695 0 1.395 0.039 2.082 -0.094 c 0.344 -0.063 0.68 -0.176 1.01 -0.301 c 0.27 -0.105 0.531 -0.215 0.777 -0.375 c 0.918 -0.586 1.668 -1.727 1.551 -2.98 c -0.129 -1.391 -1.418 -1.918 -2.473 -2.047 c -0.637 -0.082 -1.277 -0.063 -1.918 -0.059 c -0.73 0 -1.461 0 -2.195 0 l -1.012 0 c -0.051 0 -0.18 0.027 -0.18 -0.031 c 0 -0.152 0.063 -0.324 0.094 -0.469 c 0.133 -0.613 0.266 -1.223 0.398 -1.836" style="fill:#268bd1;fill-opacity:1;stroke:none;fill-rule:nonzero"/>
 </g>
</svg>
