<svg xmlns="http://www.w3.org/2000/svg" width="64" height="64" viewBox="0 0 48 48">
 <g>
  <path d="m 24 7.5 c -9.113 0 -16.5 7.387 -16.5 16.5 c 0 9.113 7.387 16.5 16.5 16.5 c 9.113 0 16.5 -7.387 16.5 -16.5 c 0 -9.113 -7.387 -16.5 -16.5 -16.5 m 0 11.344 c 2.84 0 5.156 2.316 5.156 5.156 c 0 2.84 -2.316 5.156 -5.156 5.156 c -2.84 0 -5.156 -2.316 -5.156 -5.156 c 0 -2.84 2.316 -5.156 5.156 -5.156 m 0 1.031 c -2.285 0 -4.125 1.84 -4.125 4.125 c 0 2.285 1.84 4.125 4.125 4.125 c 2.285 0 4.125 -1.84 4.125 -4.125 c 0 -2.285 -1.84 -4.125 -4.125 -4.125 m 0 1.547 c 1.426 0 2.578 1.152 2.578 2.578 c 0 1.426 -1.152 2.578 -2.578 2.578 c -1.426 0 -2.578 -1.152 -2.578 -2.578 c 0 -1.426 1.152 -2.578 2.578 -2.578 m 0 0" style="fill:#ede7d5;fill-opacity:1;stroke:none;fill-rule:nonzero"/>
  <path d="m 22.21 22.16 c 0.402 -0.387 0.918 -0.648 1.473 -0.719 l -0.199 -1.516 c -0.891 0.109 -1.703 0.5 -2.344 1.121 m -0.719 -0.73 c 0.801 -0.77 1.836 -1.266 2.941 -1.406 l -1.434 -11.258 c -3.547 0.453 -6.863 2.035 -9.418 4.512 m 7.91 8.152" style="fill:#647a82;fill-opacity:0.255;stroke:none;fill-rule:nonzero"/>
  <path d="m 26.406 24.895 c -0.195 0.523 -0.547 0.98 -1.02 1.285 l 0.832 1.281 c 0.758 -0.484 1.32 -1.188 1.633 -2.023 m 0.961 0.352 c -0.391 1.039 -1.109 1.934 -2.047 2.535 l 6.145 9.543 c 3.01 -1.938 5.316 -4.793 6.559 -8.129 m -10.656 -3.949" style="fill:#fffdfb;fill-opacity:0.463;stroke:none;fill-rule:nonzero"/>
  <path d="m 25.848 25.781 c -0.387 0.402 -0.895 0.68 -1.449 0.77 l 0.254 1.508 c 0.887 -0.141 1.684 -0.559 2.305 -1.203 m 0.742 0.707 c -0.773 0.797 -1.789 1.328 -2.891 1.508 l 1.82 11.199 c 3.531 -0.574 6.789 -2.27 9.258 -4.832 m -8.188 -7.875" style="fill:#647a82;fill-opacity:0.255;stroke:none;fill-rule:nonzero"/>
  <path d="m 21.609 23.06 c 0.207 -0.523 0.566 -0.973 1.047 -1.266 l -0.809 -1.297 c -0.766 0.469 -1.344 1.16 -1.672 1.992 m -0.953 -0.371 c 0.41 -1.031 1.145 -1.914 2.094 -2.5 l -5.965 -9.652 c -3.039 1.879 -5.402 4.691 -6.707 8 m 10.578 4.148" style="fill:#fffdfb;fill-opacity:0.427;stroke:none;fill-rule:nonzero"/>
  <path d="m 24 18 c -3.313 0 -6 2.688 -6 6 c 0 3.313 2.688 6 6 6 c 3.313 0 6 -2.688 6 -6 c 0 -3.313 -2.688 -6 -6 -6 m 0 1.5 c 2.484 0 4.5 2.02 4.5 4.5 c 0 2.484 -2.02 4.5 -4.5 4.5 c -2.484 0 -4.5 -2.02 -4.5 -4.5 c 0 -2.484 2.02 -4.5 4.5 -4.5 m 0 0" style="fill:#647a82;fill-opacity:1;stroke:none;fill-rule:nonzero"/>
  <path d="m 28.25 9.551 c 0.742 -0.113 1.539 -0.047 2.25 0.297 c 2.84 1.363 5.262 0.305 5.262 0.305 c 0 0 -1.906 4.621 -5.266 4.488 c -3.176 -0.125 -3.648 0.746 -3.738 0.852 l 1.926 13.379 c 0.012 0.09 0.031 0.172 0.039 0.262 c 0.301 2.883 -1.711 6.133 -4.938 7.988 c -4.09 2.355 -8.922 1.621 -10.797 -1.648 c -1.871 -3.266 -0.094 -7.855 4 -10.211 c 3.168 -1.82 6.781 -1.758 9.121 -0.133 l -2.086 -13.355 l -0.066 -0.098 c 0 0 2.063 -1.809 4.293 -2.125 m 0 0" style="fill:#d23681;fill-opacity:1;stroke:none;fill-rule:nonzero"/>
 </g>
</svg>
