<svg xmlns="http://www.w3.org/2000/svg" width="64" height="64" viewBox="0 0 48 48">
 <g>
  <path d="m 24.18 6.563 c 5.91 0 10.703 4.98 10.703 11.121 l 0 13.348 c 0 6.145 -4.793 11.125 -10.703 11.125 c -5.914 0 -10.707 -4.98 -10.707 -11.125 l 0 -13.348 c 0 -6.141 4.793 -11.121 10.707 -11.121 m 0 0" style="fill:#586e75;fill-opacity:1;stroke:none;fill-rule:nonzero"/>
  <path d="m 22.5 5.25 l 0 17.25 l -10.5 0 l 0 -6.363 c 0 -5.637 4.734 -10.176 10.5 -10.887 m 3 0 c 5.668 0.793 10.5 5.316 10.5 10.887 l 0 6.363 l -10.5 0 m -13.5 3 l 24 0 l 0 6.215 c 0 6.141 -5.48 11.04 -12 11.04 c -6.52 0 -12 -4.895 -12 -11.04 m 0 -6.215" style="fill:#829495;fill-opacity:1;stroke:none;fill-rule:nonzero"/>
  <path d="m 31.5 7.719 l 0 14.781 l 2.25 0 l 0 -12.602 c -0.645 -0.813 -1.402 -1.547 -2.25 -2.18 m 0 17.781 l 0 14.809 c 0.852 -0.633 1.609 -1.371 2.25 -2.191 l 0 -12.617 m -2.25 0" style="fill:#fcf5e3;fill-opacity:0.247;stroke:none;fill-rule:nonzero"/>
 </g>
</svg>
