<svg xmlns="http://www.w3.org/2000/svg" viewBox="0 0 64 64">
 <g transform="matrix(1.9999 0 0 1.9999 0 -2041.96)">
  <path d="m 16 1033.26 -0.313 1 -5.688 16.1 2 0 4 -3.5 4 3.5 2 0 -5.688 -16.1 z m 0 2.187 0.729 2.313 -0.729 0.583 -0.729 -0.583 z m -0.938 2.979 0.417 0.333 -0.708 0.562 z m 1.875 0 0.292 0.917 -0.708 -0.583 z m -0.938 0.75 1.458 1.167 -1.458 1.104 -1.458 -1.104 z m -1.75 1.792 1.188 0.896 -1.938 1.458 z m 3.521 0 0.729 2.354 -1.938 -1.458 z m -1.771 1.313 2.729 2.063 -2.729 1.583 -2.729 -1.583 z m -3.02 2.646 2.354 1.375 -3.333 2.063 z m 6.04 0 0.979 3.438 -3.333 -2.063 z" style="visibility:visible;fill:#2d2d2d;fill-opacity:1;stroke:none;display:inline;color:#000"/>
  <path d="m 28 13 c 0 1.657 -1.343 3 -3 3 -1.657 0 -3 -1.343 -3 -3 0 -1.657 1.343 -3 3 -3 1.657 0 3 1.343 3 3 z" style="fill:#2d2d2d;fill-opacity:1;stroke:none;fill-rule:evenodd" transform="matrix(0.66667 0 0 0.66667 -0.667 1025.03)"/>
  <path d="m 16 1029.03 c -2.577 0 -4.667 2.089 -4.667 4.667 0 1.519 0.73 2.877 1.854 3.729 l 0.458 -1.375 c -0.603 -0.603 -0.979 -1.434 -0.979 -2.354 0 -1.841 1.492 -3.333 3.333 -3.333 1.841 0 3.333 1.492 3.333 3.333 0 0.92 -0.376 1.751 -0.979 2.354 l 0.458 1.375 c 1.124 -0.852 1.854 -2.21 1.854 -3.729 0 -2.577 -2.089 -4.667 -4.667 -4.667 z" style="fill:#a6e3ff;fill-opacity:0.558;stroke:none;fill-rule:evenodd"/>
  <path d="m 16 1026.36 c -4.05 0 -7.333 3.283 -7.333 7.333 0 2.715 1.475 5.086 3.667 6.354 l 0.417 -1.313 c -1.653 -1.069 -2.75 -2.927 -2.75 -5.04 0 -3.314 2.686 -6 6 -6 3.314 0 6 2.686 6 6 0 2.115 -1.097 3.973 -2.75 5.04 l 0.417 1.313 c 2.192 -1.268 3.667 -3.64 3.667 -6.354 0 -4.05 -3.283 -7.333 -7.333 -7.333 z" style="fill:#a6e3ff;fill-opacity:0.558;stroke:none;fill-rule:evenodd"/>
  <path d="m 16 1023.7 c -5.523 0 -10 4.477 -10 10 0 3.897 2.227 7.266 5.479 8.917 l 0.417 -1.292 c -2.711 -1.465 -4.562 -4.328 -4.562 -7.625 0 -4.786 3.88 -8.667 8.667 -8.667 4.786 0 8.667 3.88 8.667 8.667 0 3.297 -1.852 6.16 -4.563 7.625 l 0.417 1.292 c 3.252 -1.65 5.479 -5.02 5.479 -8.917 0 -5.523 -4.477 -10 -10 -10 z" style="fill:#a6e3ff;fill-opacity:0.558;stroke:none;fill-rule:evenodd"/>
 </g>
</svg>
