<svg xmlns="http://www.w3.org/2000/svg" viewBox="0 0 64 64" style="enable-background:new">
 <rect width="2" height="22" x="18" y="26" style="fill:#1a1a1a;opacity:1;fill-opacity:1;stroke:none"/>
 <path d="m 6 44 52 0 0 14 -52 0 z" style="fill:#999;stroke:none"/>
 <rect y="49" x="10" height="4" width="6" style="fill:#1a1a1a;fill-opacity:1;stroke:none"/>
 <path d="m 21.4 24.767 a 2.333 2.333 0 0 1 -2.333 2.333 2.333 2.333 0 0 1 -2.333 -2.333 2.333 2.333 0 0 1 2.333 -2.333 2.333 2.333 0 0 1 2.333 2.333 z" style="fill:#1a1a1a;opacity:1;fill-opacity:1;stroke:none"/>
 <circle cx="37.75" cy="51" r="1.75" style="fill:#ffeb42;opacity:1;fill-opacity:1;stroke:none"/>
 <rect width="4" height="14" x="48" y="44" style="fill:#fff;opacity:0.4;fill-opacity:1;stroke:none"/>
 <circle cx="44.75" cy="51" r="1.75" style="fill:#ffeb42;opacity:1;fill-opacity:1;stroke:none"/>
 <circle cx="51.75" cy="51" r="1.75" style="fill:#ffeb42;opacity:1;fill-opacity:1;stroke:none"/>
 <path d="m 39.835 10.295 -2.172 1.521 c 2.559 3.671 4.07 8.128 4.07 12.951 0 4.824 -1.534 9.263 -4.099 12.93 l 2.18 1.526 c 2.873 -4.102 4.586 -9.07 4.586 -14.456 0 -5.382 -1.696 -10.365 -4.565 -14.471 z m -4.367 3.057 -2.172 1.518 c 1.953 2.805 3.104 6.211 3.104 9.896 0 3.686 -1.157 7.086 -3.112 9.888 l 2.177 1.523 c 2.265 -3.237 3.602 -7.167 3.602 -11.412 0 -4.243 -1.337 -8.174 -3.599 -11.414 z m -28.435 3.057 c -1.655 2.374 -2.633 5.251 -2.633 8.357 c 0 3.106 0.979 5.983 2.635 8.354 l 2.164 -1.513 c -1.345 -1.938 -2.133 -4.295 -2.133 -6.841 c 0 -2.546 0.791 -4.9 2.135 -6.839 z m 24.07 0 -2.169 1.518 c 1.345 1.939 2.135 4.292 2.135 6.839 0 2.546 -0.787 4.903 -2.133 6.841 l 2.164 1.513 c 1.656 -2.371 2.635 -5.248 2.635 -8.354 0 -3.105 -0.978 -5.983 -2.633 -8.357 z m -19.701 3.057 c -1.047 1.508 -1.667 3.333 -1.667 5.3 0 1.968 0.639 3.778 1.688 5.284 l 2.156 -1.508 c -0.741 -1.069 -1.177 -2.366 -1.177 -3.776 0 -1.407 0.435 -2.706 1.172 -3.779 z m 15.333 0 -2.172 1.521 c 0.737 1.073 1.172 2.371 1.172 3.779 0 1.41 -0.436 2.707 -1.177 3.776 l 2.156 1.508 c 1.048 -1.506 1.688 -3.316 1.688 -5.284 0 -1.967 -0.62 -3.792 -1.667 -5.3 z" mix-blend-mode="normal" isolation="auto" white-space="normal" solid-opacity="1" solid-color="#000000" style="visibility:visible;shape-rendering:auto;color-interpolation-filters:linearRGB;fill:#a6e3ff;opacity:1;image-rendering:auto;fill-opacity:0.557;stroke:none;display:inline;color:#000;fill-rule:nonzero;color-rendering:auto;color-interpolation:sRGB"/>
 <path d="m 44.21 7.233 -2.18 1.526 c 3.166 4.537 5.04 10.05 5.04 16.01 0 5.96 -1.87 11.471 -5.04 16.01 l 2.18 1.526 c 3.476 -4.972 5.523 -11.01 5.523 -17.534 0 -6.519 -2.047 -12.562 -5.523 -17.534 z" mix-blend-mode="normal" isolation="auto" white-space="normal" solid-opacity="1" solid-color="#000000" style="visibility:visible;shape-rendering:auto;color-interpolation-filters:linearRGB;fill:#a6e3ff;opacity:1;image-rendering:auto;fill-opacity:0.557;stroke:none;display:inline;color:#000;fill-rule:nonzero;color-rendering:auto;color-interpolation:sRGB"/>
</svg>
