<svg xmlns="http://www.w3.org/2000/svg" width="64" height="64" viewBox="0 0 48 48">
 <g>
  <path d="m 13.09 8.184 l 21.82 0 l 0 24 l -21.82 0 m 0 -24" style="fill:#5aa9e0;fill-opacity:1;stroke:none;fill-rule:nonzero"/>
  <path d="m 14.59 31.637 l 18.82 0 c 0.828 0 1.5 0.672 1.5 1.5 l 0 5.727 c 0 0.828 -0.672 1.5 -1.5 1.5 l -18.82 0 c -0.828 0 -1.5 -0.672 -1.5 -1.5 l 0 -5.727 c 0 -0.828 0.672 -1.5 1.5 -1.5 m 0 0" style="fill:#a9adb7;fill-opacity:1;stroke:none;fill-rule:nonzero"/>
  <path d="m 30.547 8.184 l -14.184 24 l 18.547 0 l 0 -24 m -4.363 0" style="fill:#fcf5e3;fill-opacity:0.188;stroke:none;fill-rule:evenodd"/>
  <path d="m 13.637 6 c -0.887 0 -1.637 0.746 -1.637 1.633 l 0 31.641 c 0 0.074 0.082 0.738 0.441 1.125 c 0.363 0.387 0.852 0.637 1.57 0.852 c 1.438 0.426 3.941 0.75 8.898 0.75 l 2.18 0 c 4.418 0 6.934 -0.344 8.453 -0.75 c 0.762 -0.203 1.277 -0.41 1.672 -0.684 c 0.395 -0.27 0.785 -0.563 0.785 -1.293 l 0 -31.641 c 0 -0.887 -0.75 -1.633 -1.637 -1.633 m -19.363 3 l 18 0 l 0 21 l -18 0 m 0.375 2.25 c 0.621 0 1.125 0.504 1.125 1.125 c 0 0.621 -0.504 1.125 -1.125 1.125 c -0.621 0 -1.125 -0.504 -1.125 -1.125 c 0 -0.621 0.504 -1.125 1.125 -1.125 m 3 0 c 0.621 0 1.125 0.504 1.125 1.125 c 0 0.621 -0.504 1.125 -1.125 1.125 c -0.621 0 -1.125 -0.504 -1.125 -1.125 c 0 -0.621 0.504 -1.125 1.125 -1.125 m 3 0 c 0.621 0 1.125 0.504 1.125 1.125 c 0 0.621 -0.504 1.125 -1.125 1.125 c -0.621 0 -1.125 -0.504 -1.125 -1.125 c 0 -0.621 0.504 -1.125 1.125 -1.125 m 5.25 0 c 0.621 0 1.125 0.504 1.125 1.125 c 0 0.621 -0.504 1.125 -1.125 1.125 c -0.621 0 -1.125 -0.504 -1.125 -1.125 c 0 -0.621 0.504 -1.125 1.125 -1.125 m 3 0 c 0.621 0 1.125 0.504 1.125 1.125 c 0 0.621 -0.504 1.125 -1.125 1.125 c -0.621 0 -1.125 -0.504 -1.125 -1.125 c 0 -0.621 0.504 -1.125 1.125 -1.125 m 3 0 c 0.621 0 1.125 0.504 1.125 1.125 c 0 0.621 -0.504 1.125 -1.125 1.125 c -0.621 0 -1.125 -0.504 -1.125 -1.125 c 0 -0.621 0.504 -1.125 1.125 -1.125 m -17.25 3 c 0.621 0 1.125 0.504 1.125 1.125 c 0 0.621 -0.504 1.125 -1.125 1.125 c -0.621 0 -1.125 -0.504 -1.125 -1.125 c 0 -0.621 0.504 -1.125 1.125 -1.125 m 3 0 c 0.621 0 1.125 0.504 1.125 1.125 c 0 0.621 -0.504 1.125 -1.125 1.125 c -0.621 0 -1.125 -0.504 -1.125 -1.125 c 0 -0.621 0.504 -1.125 1.125 -1.125 m 5.625 0 c 1.242 0 2.25 1.01 2.25 2.25 c 0 1.242 -1.01 2.25 -2.25 2.25 c -1.242 0 -2.25 -1.01 -2.25 -2.25 c 0 -1.242 1.01 -2.25 2.25 -2.25 m 5.625 0 c 0.621 0 1.125 0.504 1.125 1.125 c 0 0.621 -0.504 1.125 -1.125 1.125 c -0.621 0 -1.125 -0.504 -1.125 -1.125 c 0 -0.621 0.504 -1.125 1.125 -1.125 m 3 0 c 0.621 0 1.125 0.504 1.125 1.125 c 0 0.621 -0.504 1.125 -1.125 1.125 c -0.621 0 -1.125 -0.504 -1.125 -1.125 c 0 -0.621 0.504 -1.125 1.125 -1.125 m 0 0" style="fill:#063642;fill-opacity:1;stroke:none;fill-rule:nonzero"/>
  <path d="m 33 6 l -3 0 l 0 35.805 l 3 -0.438 m 0 -35.37" style="fill:#ede7d5;fill-opacity:0.149;stroke:none;fill-rule:nonzero"/>
 </g>
</svg>
