<svg xmlns="http://www.w3.org/2000/svg" viewBox="0 0 48 48">
 <ellipse cx="-42.5" cy="24.5" rx="3.5" ry="1.5" transform="scale(-1,1)" style="fill:#d0a000;opacity:1;fill-opacity:1;stroke:none;fill-rule:nonzero"/>
 <path d="m 6 24 a 18 15.5 0 0 0 36 0 18 15.5 0 1 0 -36 0 z" style="visibility:visible;fill:#ffda5e;fill-opacity:1;stroke:none;display:inline;color:#000;fill-rule:nonzero"/>
 <path d="m 34 18 a 2.5 2.5 0 0 1 2.5 2.5 2.5 2.5 0 0 1 -0.117 0.746 A 2.5 2.5 0 0 0 34 19.5 2.5 2.5 0 0 0 31.617 21.254 2.5 2.5 0 0 1 31.5 20.5 2.5 2.5 0 0 1 34 18" style="fill:#656565;opacity:1;fill-opacity:1;stroke:none;fill-rule:nonzero"/>
 <path d="m 22 18 a 2.5 2.5 0 0 1 2.5 2.5 2.5 2.5 0 0 1 -0.117 0.746 A 2.5 2.5 0 0 0 22 19.5 2.5 2.5 0 0 0 19.617 21.254 2.5 2.5 0 0 1 19.5 20.5 2.5 2.5 0 0 1 22 18" style="fill:#656565;opacity:1;fill-opacity:1;stroke:none;fill-rule:nonzero"/>
 <path d="m 34.9 28 c -0.569 2.886 -3.485 4.999 -6.9 5 -3.413 -0.003 -6.326 -2.116 -6.895 -5 l 0.963 0 a 6 3.5 0 0 0 5.932 3 6 3.5 0 0 0 5.932 -3 l 0.969 0 z" style="fill:#656565;opacity:1;fill-opacity:1;stroke:none;fill-rule:nonzero"/>
 <ellipse ry="1.5" rx="3.5" cy="26.5" cx="-13.5" transform="scale(-1,1)" style="fill:#d0a000;opacity:1;fill-opacity:1;stroke:none;fill-rule:nonzero"/>
</svg>
