<!-- Generator: Adobe Illustrator 16.0.0, SVG Export Plug-In . SVG Version: 6.00 Build 0)  -->
<svg xmlns="http://www.w3.org/2000/svg" viewBox="0 0 48 48" style="enable-background:new 0 0 128 128">
 <path d="m 42 24 a 18 15.5 0 0 1 -36 0 18 15.5 0 1 1 36 0 z" style="visibility:visible;fill:#ffce3e;fill-opacity:1;stroke:none;display:inline;color:#000;fill-rule:nonzero"/>
 <path d="m 23.21 27.384 c 0.268 0.129 0.614 0.205 1.01 0.161 0.639 -0.069 0.866 -0.277 1.09 -0.532 0.359 -0.409 0.491 -0.976 -0.035 -1.285 -0.435 -0.252 -1.364 -0.268 -1.968 -0.145 -1.468 0.29 -0.976 1.386 -0.094 1.801 z" style="fill:#2f2f2f"/>
 <path d="m 29.881 31.32 c -1.996 -0.37 -6.271 -0.394 -9.08 -0.217 -6.76 0.424 -4.497 2.029 -0.432 2.64 1.233 0.185 2.835 0.299 4.637 0.236 2.949 -0.101 3.995 -0.407 5.03 -0.78 1.665 -0.599 2.263 -1.43 -0.162 -1.879 z" style="fill:#de7136;fill-opacity:1"/>
 <path d="M 24.523 8.506 A 18 15.5 0 0 0 6.98 19 A 5 5 0 0 0 2.67 21.5 A 5 5 0 0 0 2.67 26.5 A 5 5 0 0 0 6.99 29 A 18 15.5 0 0 0 41.03 29 A 5 5 0 0 0 45.33 26.5 A 5 5 0 0 0 45.33 21.5 A 5 5 0 0 0 41.02 19 A 18 15.5 0 0 0 24.523 8.506 z M 17.441 15.994 C 19.696 16.1 21.728 18.08 24.01 18.01 C 26.436 18.08 28.585 15.83 31.02 15.998 C 31.588 16.04 32.19 16.02 32.738 16.189 C 34.27 16.665 35.36 17.859 35.967 19.252 C 36.531 20.551 36.34 21.87 35.924 23.18 C 35.596 24.2 35.582 25.571 35.734 26.625 C 35.88 27.626 36.452 28.56 36.514 29.561 C 36.677 32.31 34.3 34.15 31.92 35.19 C 29.569 36.22 26.686 36.607 24 36.561 C 21.314 36.607 18.431 36.22 16.08 35.19 C 13.7 34.15 11.321 32.3 11.496 29.561 C 11.558 28.557 12.13 27.623 12.275 26.625 C 12.428 25.574 12.414 24.2 12.09 23.18 C 11.675 21.867 11.473 20.551 12.04 19.252 C 12.653 17.859 13.732 16.665 15.271 16.189 C 15.817 16.02 16.42 16.04 16.984 15.998 C 17.14 15.988 17.291 15.987 17.441 15.994 z" style="fill:#855c52"/>
 <circle cx="18" cy="20.5" r="2.5" style="fill:#656565;opacity:1;fill-opacity:1;stroke:none;fill-rule:nonzero"/>
 <circle r="2.5" cy="20.5" cx="30" style="fill:#656565;opacity:1;fill-opacity:1;stroke:none;fill-rule:nonzero"/>
 <path d="m 6 26.5 a 2 2.5 0 0 1 -1.732 -1.25 2 2.5 0 0 1 0 -2.5 A 2 2.5 0 0 1 6 21.5 L 6 24" style="fill:#ffce3e;opacity:1;fill-opacity:1;stroke:none;fill-rule:nonzero"/>
 <path d="m -42 26.5 a 2 2.5 0 0 1 -1.732 -1.25 2 2.5 0 0 1 0 -2.5 A 2 2.5 0 0 1 -42 21.5 l 0 2.5 z" transform="scale(-1,1)" style="fill:#ffce3e;opacity:1;fill-opacity:1;stroke:none;fill-rule:nonzero"/>
</svg>
