<svg xmlns="http://www.w3.org/2000/svg" viewBox="0 0 48 48">
 <path d="m 42 24 a 18 15.5 0 0 1 -36 0 18 15.5 0 1 1 36 0 z" style="visibility:visible;fill:#ffda5e;fill-opacity:1;stroke:none;display:inline;color:#000;fill-rule:nonzero"/>
 <path d="m 18 18 a 2.5 2.5 0 0 0 -2.5 2.5 2.5 2.5 0 0 0 0.117 0.746 A 2.5 2.5 0 0 1 18 19.5 2.5 2.5 0 0 1 20.383 21.254 2.5 2.5 0 0 0 20.5 20.5 2.5 2.5 0 0 0 18 18" style="fill:#656565;opacity:1;fill-opacity:1;stroke:none;fill-rule:nonzero"/>
 <circle cx="30" cy="20.5" r="2.5" style="fill:#656565;opacity:1;fill-opacity:1;stroke:none;fill-rule:nonzero"/>
 <g transform="matrix(0.00541266,0.003125,-0.003125,0.00541266,28.787727,24.795738)" style="fill:#f66;fill-opacity:1">
  <path d="m 297.3 550.87 c -13.775 -15.436 -48.17 -45.53 -76.43 -66.874 -83.74 -63.24 -95.14 -72.39 -129.14 -103.7 -62.685 -57.72 -89.31 -115.71 -89.21 -194.34 0.045 -38.38 2.661 -53.17 13.41 -75.8 18.237 -38.39 45.1 -66.909 79.45 -84.35 24.325 -12.356 36.32 -17.845 76.944 -18.07 c 42.493 -0.235 51.44 4.72 76.43 18.452 30.425 16.714 61.74 52.44 68.21 77.81 l 3.998 15.672 9.86 -21.585 c 55.716 -121.97 233.6 -120.15 295.5 3.03 19.638 39.08 21.794 122.51 4.38 169.51 -22.715 61.31 -65.38 108.05 -164.01 179.68 -64.68 46.974 -137.88 118.05 -142.98 128.03 -5.915 11.588 -0.282 1.816 -26.408 -27.461 z"/>
 </g>
 <path d="m 22.39 27.951 c 1.25 -1.25 2.66 -1.416 3.309 -0.508 0.385 0.538 -0.919 1.127 -0.919 1.758 0 0.631 0.649 0.491 0.851 0.979 c -0.631 1.82 -2.631 0.82 -3.241 0.271 c 0.929 4.805 5.529 0.433 3.716 -1.284 2.5 -3.75 -2.227 -4.03 -3.716 -1.216 z" style="fill:#656565;opacity:1;fill-opacity:1;stroke:none"/>
</svg>
