<svg xmlns="http://www.w3.org/2000/svg" viewBox="0 0 48 48">
 <path d="m 42 24 a 18 15.5 0 0 1 -36 0 18 15.5 0 1 1 36 0 z" style="visibility:visible;fill:#ffda5e;fill-opacity:1;stroke:none;display:inline;color:#000;fill-rule:nonzero"/>
 <path d="m 17.1 28 c 0.569 2.886 3.485 4.999 6.9 5 c 3.413 -0.003 6.326 -2.116 6.895 -5 l -0.963 0 a 6 3.5 0 0 1 -5.932 3 6 3.5 0 0 1 -5.932 -3 l -0.969 0 z" style="fill:#656565;opacity:1;fill-opacity:1;stroke:none;fill-rule:nonzero"/>
 <g transform="matrix(0.0125,0,0,0.0125,13.968692,16.8079)" style="fill:#f66;fill-opacity:1">
  <path d="m 297.3 550.87 c -13.775 -15.436 -48.17 -45.53 -76.43 -66.874 -83.74 -63.24 -95.14 -72.39 -129.14 -103.7 -62.685 -57.72 -89.31 -115.71 -89.21 -194.34 0.045 -38.38 2.661 -53.17 13.41 -75.8 18.237 -38.39 45.1 -66.909 79.45 -84.35 24.325 -12.356 36.32 -17.845 76.944 -18.07 c 42.493 -0.235 51.44 4.72 76.43 18.452 30.425 16.714 61.74 52.44 68.21 77.81 l 3.998 15.672 9.86 -21.585 c 55.716 -121.97 233.6 -120.15 295.5 3.03 19.638 39.08 21.794 122.51 4.38 169.51 -22.715 61.31 -65.38 108.05 -164.01 179.68 -64.68 46.974 -137.88 118.05 -142.98 128.03 -5.915 11.588 -0.282 1.816 -26.408 -27.461 z"/>
 </g>
 <g transform="matrix(0.0125,0,0,0.0125,25.968692,16.8079)" style="fill:#f66;fill-opacity:1">
  <path d="m 297.3 550.87 c -13.775 -15.436 -48.17 -45.53 -76.43 -66.874 -83.74 -63.24 -95.14 -72.39 -129.14 -103.7 -62.685 -57.72 -89.31 -115.71 -89.21 -194.34 0.045 -38.38 2.661 -53.17 13.41 -75.8 18.237 -38.39 45.1 -66.909 79.45 -84.35 24.325 -12.356 36.32 -17.845 76.944 -18.07 c 42.493 -0.235 51.44 4.72 76.43 18.452 30.425 16.714 61.74 52.44 68.21 77.81 l 3.998 15.672 9.86 -21.585 c 55.716 -121.97 233.6 -120.15 295.5 3.03 19.638 39.08 21.794 122.51 4.38 169.51 -22.715 61.31 -65.38 108.05 -164.01 179.68 -64.68 46.974 -137.88 118.05 -142.98 128.03 -5.915 11.588 -0.282 1.816 -26.408 -27.461 z"/>
 </g>
</svg>
