<svg xmlns="http://www.w3.org/2000/svg" viewBox="0 0 48 48">
 <path d="m 42 24 a 18 15.5 0 0 1 -36 0 18 15.5 0 1 1 36 0 z" style="visibility:visible;fill:#ff685e;fill-opacity:1;stroke:none;display:inline;color:#000;fill-rule:nonzero"/>
 <path d="M 16.668 18.385 A 2.5 2.5 0 0 0 15.5 20.5 2.5 2.5 0 0 0 18 23 2.5 2.5 0 0 0 20.496 20.596 l -3.828 -2.211 z" style="fill:#656565;opacity:1;fill-opacity:1;stroke:none;fill-rule:nonzero"/>
 <path d="m 31.33 18.387 -3.826 2.211 a 2.5 2.5 0 0 0 2.496 2.402 2.5 2.5 0 0 0 2.5 -2.5 2.5 2.5 0 0 0 -1.17 -2.113" style="fill:#656565;opacity:1;fill-opacity:1;stroke:none;fill-rule:nonzero"/>
 <path d="M 29.932 28 A 6 3.5 0 0 1 24 31 l 0 2 c 3.413 -0.003 6.326 -2.116 6.895 -5 l -0.963 0 z" style="fill:#656565;opacity:1;fill-opacity:1;stroke:none;fill-rule:nonzero"/>
 <path d="m 11 14 -2 -4 6 1 z" style="fill:#ff685e;fill-opacity:1;stroke:none;fill-rule:evenodd"/>
 <path d="m 37 14 2 -4 -6 1 z" style="fill:#ff685e;fill-opacity:1;stroke:none;fill-rule:evenodd"/>
</svg>
