<svg xmlns="http://www.w3.org/2000/svg" viewBox="0 0 64 64">
 <path d="m 58.14 32 c 0 14.437 -11.703 26.14 -26.14 26.14 -14.437 0 -26.14 -11.703 -26.14 -26.14 0 -14.437 11.703 -26.14 26.14 -26.14 14.437 0 26.14 11.703 26.14 26.14 z" style="fill:#fff;stroke:#777;stroke-width:1.056"/>
 <path d="m 32.16 13.332 c -9.266 0 -16.828 7.844 -17.391 17.73 l -5.434 0 l 8.738 14.15 l 8.734 -14.15 l -6.215 0 c 0.535 -6.414 5.504 -11.422 11.566 -11.422 c 2.242 0 4.367 0.688 6.141 1.875 l 2.988 -5.371 c -2.652 -1.766 -5.785 -2.813 -9.129 -2.813 m 13.773 5.457 l -8.734 14.15 l 6.215 0 c -0.535 6.414 -5.504 11.422 -11.566 11.422 c -2.242 0 -4.367 -0.688 -6.141 -1.875 l -2.988 5.371 c 2.652 1.766 5.785 2.813 9.129 2.813 c 9.266 0 16.828 -7.844 17.391 -17.73 l 5.434 0 Z" style="fill:#dc322f;fill-opacity:1"/>
</svg>
