<svg xmlns="http://www.w3.org/2000/svg" viewBox="0 0 64 64">
 <path d="m 25.933 35.19 c 0 6.909 -5.487 12.509 -12.255 12.509 c -6.768 0 -12.255 -5.6 -12.255 -12.509 c 0 -6.909 5.487 -12.509 12.255 -12.509 c 6.768 0 12.255 5.6 12.255 12.509 Z" transform="matrix(2.13305 0 0 2.08969 2.82425 -41.52879)" style="fill:#fff;stroke:#777;stroke-width:0.5"/>
 <path d="m 29 12 c -1.108 0 -2 0.892 -2 2 l 0 20 c 0 1.108 0.892 2 2 2 l 6 0 c 1.108 0 2 -0.892 2 -2 l 0 -20 c 0 -1.108 -0.892 -2 -2 -2 l -6 0 z m 0 30 c -1.108 0 -2 0.892 -2 2 l 0 6 c 0 1.108 0.892 2 2 2 l 6 0 c 1.108 0 2 -0.892 2 -2 l 0 -6 c 0 -1.108 -0.892 -2 -2 -2 l -6 0 z" style="fill:#dc322f;opacity:1;fill-opacity:1;stroke:none"/>
</svg>
