<svg width="64" xmlns="http://www.w3.org/2000/svg" height="64" viewBox="0 0 64 64" xmlns:xlink="http://www.w3.org/1999/xlink">
<path style="fill:#fff;stroke:#777;stroke-width:.5" d="M 25.932953 35.186401 C 25.932953 42.095309 20.446393 47.695712 13.677926 47.695712 C 6.90946 47.695712 1.4229 42.095309 1.4229 35.186401 C 1.4229 28.277492 6.90946 22.677089 13.677926 22.677089 C 20.446393 22.677089 25.932953 28.277492 25.932953 35.186401 Z " transform="matrix(2.13305 0 0 2.08969 2.82425 -41.52879)"/>
<path style="fill:#dc322f" d="M 24.871094 12 L 24.871094 36.003906 C 23.152344 35.34375 20.90625 35.230469 18.589844 35.847656 C 14.261719 36.996094 11.359375 40.222656 12.121094 43.042969 C 12.882812 45.863281 17.015625 47.222656 21.34375 46.074219 C 25.023438 45.097656 27.65625 42.621094 27.902344 40.171875 L 27.929688 40.171875 L 27.929688 22.515625 L 43.605469 24.425781 L 43.605469 41.519531 C 41.890625 40.859375 39.644531 40.746094 37.328125 41.363281 C 32.996094 42.511719 30.09375 45.738281 30.859375 48.558594 C 31.621094 51.378906 35.75 52.738281 40.078125 51.589844 C 43.757812 50.613281 46.394531 48.136719 46.636719 45.6875 L 46.667969 45.6875 L 46.667969 14.84375 Z "/>
</svg>
