<svg width="64" xmlns="http://www.w3.org/2000/svg" height="64" viewBox="0 0 64 64" xmlns:xlink="http://www.w3.org/1999/xlink">
<path style="fill:#fff;stroke:#777;stroke-width:.792" d="M 43.605469 24 C 43.602539 34.825195 34.825195 43.602539 24 43.602539 C 13.174805 43.602539 4.397461 34.825195 4.394531 24 C 4.394531 13.171875 13.171875 4.394531 24 4.394531 C 34.828125 4.394531 43.605469 13.171875 43.605469 24 Z " transform="scale(1.33333)"/>
<path style="fill:#427fec;fill-rule:evenodd" d="M 32 16 C 27.488281 16 23.871094 19.574219 23.871094 24 C 23.878906 24.472656 23.914062 25.152344 23.957031 25.726562 C 23.183594 26.070312 23.128906 27.648438 23.785156 29.273438 C 24.042969 29.917969 24.375 30.410156 24.734375 30.816406 C 24.824219 31.273438 24.800781 31.480469 24.90625 32 C 25.210938 32.953125 26.402344 34.820312 27.503906 36.363281 C 27.609375 37.546875 27.722656 38.742188 27.503906 40.089844 C 24.332031 42.855469 16.160156 44.046875 16.171875 46.910156 L 16 48 L 48 48 L 47.828125 46.910156 C 47.8125 44.457031 39.628906 42.953125 36.496094 40.089844 C 36.371094 38.996094 36.347656 37.898438 36.410156 36.816406 C 37.414062 35.191406 38.753906 33.0625 39.09375 32 C 39.214844 31.460938 39.257812 31.097656 39.351562 30.636719 C 39.652344 30.253906 39.910156 29.820312 40.128906 29.273438 C 40.753906 27.730469 40.710938 26.261719 40.042969 25.816406 C 40.082031 25.195312 40.113281 24.535156 40.128906 24 C 40.128906 19.574219 36.511719 16 32 16 Z "/>
</svg>
