<svg width="64" xmlns="http://www.w3.org/2000/svg" height="64" viewBox="0 0 64 64" xmlns:xlink="http://www.w3.org/1999/xlink">
<path style="fill:#fff;stroke:#777;stroke-width:.5" d="M 25.932953 35.186401 C 25.932953 42.095309 20.446393 47.695712 13.677926 47.695712 C 6.90946 47.695712 1.4229 42.095309 1.4229 35.186401 C 1.4229 28.277492 6.90946 22.677089 13.677926 22.677089 C 20.446393 22.677089 25.932953 28.277492 25.932953 35.186401 Z " transform="matrix(2.13305 0 0 2.08969 2.82425 -41.52879)"/>
<path style="fill:#dc322f" d="M 34.40625 16.359375 C 32.074219 16.945312 30.117188 19.085938 30.117188 19.085938 L 30.179688 19.152344 L 33.910156 33.015625 C 31.242188 31.570312 27.429688 31.933594 24.277344 34.214844 C 20.199219 37.160156 18.78125 42.179688 21.140625 45.414062 C 23.503906 48.648438 28.707031 48.878906 32.785156 45.929688 C 35.996094 43.609375 37.785156 39.949219 37.140625 36.941406 C 37.121094 36.847656 37.089844 36.761719 37.066406 36.667969 L 33.484375 22.808594 C 33.566406 22.6875 34.613281 22.207031 37.996094 21.976562 C 41.578125 21.734375 44 16 44 16 C 44 16 39.972656 17.542969 36.804688 16.425781 C 36.011719 16.144531 35.179688 16.160156 34.402344 16.355469 Z "/>
</svg>
