<svg width="64" xmlns="http://www.w3.org/2000/svg" height="64" viewBox="0 0 64 64" xmlns:xlink="http://www.w3.org/1999/xlink">
<path style="fill:#fff;stroke:#777;stroke-width:.792" d="M 43.605469 24 C 43.602539 29.132812 41.490234 34.233398 37.860352 37.860352 C 34.233398 41.490234 29.132812 43.602539 24 43.602539 C 18.867188 43.602539 13.766602 41.490234 10.139648 37.860352 C 6.509766 34.233398 4.397461 29.132812 4.394531 24 C 4.394531 18.867188 6.506836 13.766602 10.136719 10.136719 C 13.766602 6.506836 18.867188 4.394531 24 4.394531 C 29.132812 4.394531 34.233398 6.506836 37.863281 10.136719 C 41.493164 13.766602 43.605469 18.867188 43.605469 24 Z " transform="scale(1.33333)"/>
<g style="fill-opacity:.941;fill:#53a93e">
<path d="M 32.183594 49.320312 C 33.066406 49.257812 33.917969 48.882812 34.550781 48.277344 L 45.519531 36.917969 C 46.214844 36.261719 46.636719 35.335938 46.664062 34.390625 C 46.730469 32.914062 45.773438 31.441406 44.371094 30.863281 C 42.972656 30.285156 41.21875 30.640625 40.175781 31.714844 L 32.007812 39.8125 L 23.441406 31.351562 C 22.003906 30.207031 19.675781 30.328125 18.375 31.617188 C 17.070312 32.90625 16.976562 35.175781 18.175781 36.558594 L 29.207031 48.277344 C 29.980469 49.023438 31.097656 49.414062 32.183594 49.320312 Z "/>
<path d="M 32.328125 31.597656 C 34.144531 31.492188 35.679688 30.335938 35.609375 29.125 L 35.609375 17.0625 C 35.609375 15.808594 33.890625 14.667969 32 14.667969 C 30.109375 14.667969 28.390625 15.808594 28.390625 17.0625 L 28.390625 29.125 C 28.324219 30.40625 30.070312 31.601562 32 31.597656 C 32.109375 31.601562 32.21875 31.601562 32.328125 31.597656 Z "/>
</g>
</svg>
