<svg width="64" xmlns="http://www.w3.org/2000/svg" height="64" viewBox="0 0 64 64" xmlns:xlink="http://www.w3.org/1999/xlink">
<path style="fill:#fff;stroke:#777;stroke-width:.5" d="M 25.932953 35.186401 C 25.932953 42.095309 20.446393 47.695712 13.677926 47.695712 C 6.90946 47.695712 1.4229 42.095309 1.4229 35.186401 C 1.4229 28.277492 6.90946 22.677089 13.677926 22.677089 C 20.446393 22.677089 25.932953 28.277492 25.932953 35.186401 Z " transform="matrix(2.13305 0 0 2.08969 2.82425 -41.52879)"/>
<path style="fill:#dc322f" d="M 32 14.667969 C 22.425781 14.667969 14.667969 22.425781 14.667969 32 C 14.667969 41.574219 22.425781 49.332031 32 49.332031 C 41.574219 49.332031 49.332031 41.574219 49.332031 32 C 49.332031 22.425781 41.574219 14.667969 32 14.667969 Z M 32 19 C 39.179688 19 45 24.820312 45 32 C 45 39.179688 39.179688 45 32 45 C 24.820312 45 19 39.179688 19 32 C 19 24.820312 24.820312 19 32 19 Z M 31.863281 21.167969 C 30.746094 21.167969 29.832031 22.078125 29.832031 23.199219 L 29.832031 32.136719 C 29.832031 33.253906 30.746094 34.167969 31.863281 34.167969 C 31.910156 34.167969 31.953125 34.167969 32 34.167969 L 39.582031 34.167969 C 40.785156 34.167969 41.75 33.199219 41.75 32 C 41.75 30.800781 40.785156 29.832031 39.582031 29.832031 L 34.167969 29.832031 L 34.167969 23.199219 C 34.167969 22.078125 33.253906 21.167969 32.136719 21.167969 Z "/>
</svg>
