<svg width="64" xmlns="http://www.w3.org/2000/svg" height="64" viewBox="0 0 64 64" xmlns:xlink="http://www.w3.org/1999/xlink">
<defs>

<filter width="100%" x="0" y="0" height="100%" filterUnits="objectBoundingBox" id="alpha">
<feColorMatrix values="0 0 0 0 1 0 0 0 0 1 0 0 0 0 1 0 0 0 1 0" in="SourceGraphic" type="matrix"/>
</filter>
<g style="clip-path:url(#clip1)" id="surface6">
<path style="stroke-opacity:.941;fill:#53a93e;stroke:#859900;fill-opacity:.941;stroke-width:.792" d="M 43.605469 24 C 43.602539 34.825195 34.825195 43.602539 24 43.602539 C 13.174805 43.602539 4.397461 34.825195 4.394531 24 C 4.394531 13.171875 13.171875 4.394531 24 4.394531 C 34.828125 4.394531 43.605469 13.171875 43.605469 24 Z " transform="scale(1.33333)"/>
</g>
<mask id="mask0">
<g style="filter:url(#alpha)">
<rect width="64" x="0" y="0" height="64" style="fill:#000;fill-opacity:.502"/>
</g>
</mask>
</defs>
<use style="mask:url(#mask0)" xlink:href="#surface6"/>
<path style="fill:#fff" d="M 32.15625 13.332031 C 22.890625 13.332031 15.328125 21.175781 14.765625 31.0625 L 9.332031 31.0625 L 18.070312 45.210938 L 26.804688 31.0625 L 20.589844 31.0625 C 21.125 24.648438 26.09375 19.640625 32.15625 19.640625 C 34.398438 19.640625 36.523438 20.328125 38.296875 21.515625 L 41.285156 16.144531 C 38.632812 14.378906 35.5 13.332031 32.15625 13.332031 Z M 45.929688 18.789062 L 37.195312 32.9375 L 43.410156 32.9375 C 42.875 39.351562 37.90625 44.359375 31.84375 44.359375 C 29.601562 44.359375 27.476562 43.671875 25.703125 42.484375 L 22.714844 47.855469 C 25.367188 49.621094 28.5 50.667969 31.84375 50.667969 C 41.109375 50.667969 48.671875 42.824219 49.234375 32.9375 L 54.667969 32.9375 Z "/>
</svg>
