<svg width="64" xmlns="http://www.w3.org/2000/svg" height="64" viewBox="0 0 64 64" xmlns:xlink="http://www.w3.org/1999/xlink">
<path style="fill:#fff;stroke:#777;stroke-width:.792" d="M 43.605469 24 C 43.602539 34.825195 34.825195 43.602539 24 43.602539 C 13.174805 43.602539 4.397461 34.825195 4.394531 24 C 4.394531 13.171875 13.171875 4.394531 24 4.394531 C 34.828125 4.394531 43.605469 13.171875 43.605469 24 Z " transform="scale(1.33333)"/>
<path style="fill:#53a93e;fill-opacity:.941" d="M 44.476562 13.339844 C 44.054688 13.382812 43.621094 13.644531 43.28125 14.050781 L 35.667969 22.214844 C 35.339844 22.605469 35.148438 23.082031 35.148438 23.632812 C 35.148438 23.808594 35.195312 23.976562 35.230469 24.140625 C 34.527344 25.054688 34.710938 26.074219 34.710938 29.265625 C 34.710938 30.199219 32.828125 31.242188 32.359375 31.242188 C 32.335938 31.242188 32.34375 31.242188 32.320312 31.242188 C 30.820312 31.242188 25.925781 31.523438 24.425781 34.183594 C 22.929688 36.84375 17.332031 48.894531 17.332031 50.667969 C 19.578125 50.667969 35.90625 40.144531 36.742188 39.152344 C 37.757812 37.957031 37.238281 35.539062 36.582031 33.929688 C 36.589844 33.921875 36.582031 33.886719 36.582031 33.878906 C 36.601562 33.820312 36.601562 33.75 36.542969 33.625 C 36.191406 32.867188 36.027344 32.101562 36.027344 31.039062 C 36.027344 28.355469 36.222656 26.996094 36.742188 26.324219 C 36.785156 26.265625 36.820312 26.183594 36.863281 26.121094 C 37.679688 26.269531 38.816406 25.769531 39.332031 25.15625 L 46.070312 17.347656 C 46.75 16.539062 46.910156 15.363281 46.230469 14.554688 L 45.671875 13.898438 C 45.332031 13.496094 44.894531 13.296875 44.476562 13.339844 Z "/>
</svg>
