<svg width="64" xmlns="http://www.w3.org/2000/svg" height="64" viewBox="0 0 64 64" xmlns:xlink="http://www.w3.org/1999/xlink">
<path style="fill:#fff;stroke:#777;stroke-width:.5" d="M 25.932953 35.186401 C 25.932953 42.095309 20.446393 47.695712 13.677926 47.695712 C 6.90946 47.695712 1.4229 42.095309 1.4229 35.186401 C 1.4229 28.277492 6.90946 22.677089 13.677926 22.677089 C 20.446393 22.677089 25.932953 28.277492 25.932953 35.186401 Z " transform="matrix(2.13305 0 0 2.08969 2.82425 -41.52879)"/>
<g style="fill:#dc322f">
<path d="M 32 42.710938 L 32 46.269531 L 26.320312 50 "/>
<path d="M 32 42.710938 L 32 46.269531 L 37.679688 50 "/>
<path d="M 16.324219 44.171875 L 16.449219 21.742188 L 47.546875 21.804688 L 47.675781 44.105469 Z "/>
<path d="M 15.367188 19.828125 L 48.632812 19.828125 L 48.632812 23.886719 L 15.367188 23.886719 Z "/>
</g>
</svg>
