<svg width="64" xmlns="http://www.w3.org/2000/svg" height="64" viewBox="0 0 64 64" xmlns:xlink="http://www.w3.org/1999/xlink">
<g style="stroke:#777">
<path style="fill:#fff;stroke-width:.5" d="M 25.932953 35.186401 C 25.932953 42.095309 20.446393 47.695712 13.677926 47.695712 C 6.90946 47.695712 1.4229 42.095309 1.4229 35.186401 C 1.4229 28.277492 6.90946 22.677089 13.677926 22.677089 C 20.446393 22.677089 25.932953 28.277492 25.932953 35.186401 Z " transform="matrix(2.13305 0 0 2.08969 2.82425 -41.52879)"/>
<path style="fill:#bebebe" d="M 22.412109 12.500977 C 21.960938 12.500977 21.591797 12.875977 21.591797 13.335938 L 21.591797 14.956055 C 20.783203 15.172852 20.009766 15.498047 19.303711 15.911133 L 18.149414 14.756836 C 17.988281 14.592773 17.791992 14.507812 17.581055 14.504883 C 17.370117 14.504883 17.15625 14.581055 16.995117 14.739258 L 14.739258 16.995117 C 14.419922 17.317383 14.431641 17.824219 14.756836 18.149414 L 15.911133 19.303711 C 15.498047 20.009766 15.172852 20.783203 14.956055 21.591797 L 13.335938 21.591797 C 12.875977 21.591797 12.500977 21.960938 12.500977 22.412109 L 12.500977 25.587891 C 12.500977 26.039062 12.875977 26.408203 13.335938 26.408203 L 14.956055 26.408203 C 15.172852 27.216797 15.498047 27.990234 15.911133 28.696289 L 14.756836 29.850586 C 14.431641 30.175781 14.419922 30.682617 14.739258 31.004883 L 16.995117 33.260742 C 17.317383 33.580078 17.824219 33.568359 18.149414 33.243164 L 19.303711 32.088867 C 20.009766 32.501953 20.783203 32.827148 21.591797 33.043945 L 21.591797 34.664062 C 21.591797 35.124023 21.960938 35.499023 22.412109 35.499023 L 25.587891 35.499023 C 26.039062 35.499023 26.408203 35.124023 26.408203 34.664062 L 26.408203 33.043945 C 27.216797 32.827148 27.990234 32.501953 28.696289 32.088867 L 29.850586 33.243164 C 30.175781 33.568359 30.682617 33.580078 31.004883 33.260742 L 33.260742 31.004883 C 33.580078 30.682617 33.568359 30.175781 33.243164 29.850586 L 32.088867 28.696289 C 32.501953 27.990234 32.827148 27.216797 33.043945 26.408203 L 34.664062 26.408203 C 35.124023 26.408203 35.499023 26.041992 35.499023 25.587891 L 35.499023 22.412109 C 35.499023 21.960938 35.124023 21.591797 34.664062 21.591797 L 33.043945 21.591797 C 32.827148 20.783203 32.501953 20.009766 32.088867 19.303711 L 33.243164 18.149414 C 33.568359 17.824219 33.580078 17.317383 33.260742 16.995117 L 31.004883 14.739258 C 30.682617 14.419922 30.175781 14.431641 29.850586 14.756836 L 28.696289 15.911133 C 27.990234 15.498047 27.216797 15.172852 26.408203 14.956055 L 26.408203 13.335938 C 26.408203 12.875977 26.039062 12.500977 25.587891 12.500977 Z M 24 20.522461 C 25.918945 20.522461 27.477539 22.081055 27.477539 24 C 27.477539 25.918945 25.918945 27.477539 24 27.477539 C 22.081055 27.477539 20.522461 25.918945 20.522461 24 C 20.522461 22.081055 22.081055 20.522461 24 20.522461 Z " transform="scale(1.33333)"/>
</g>
</svg>
