<?xml version="1.0" encoding="UTF-8" standalone="no"?>
<svg
   xmlns:dc="http://purl.org/dc/elements/1.1/"
   xmlns:cc="http://creativecommons.org/ns#"
   xmlns:rdf="http://www.w3.org/1999/02/22-rdf-syntax-ns#"
   xmlns:svg="http://www.w3.org/2000/svg"
   xmlns="http://www.w3.org/2000/svg"
   xmlns:sodipodi="http://sodipodi.sourceforge.net/DTD/sodipodi-0.dtd"
   xmlns:inkscape="http://www.inkscape.org/namespaces/inkscape"
   sodipodi:docname="drawing.svg"
   inkscape:version="1.0 (4035a4fb49, 2020-05-01)"
   id="svg838"
   version="1.1"
   viewBox="0 0 63.499999 63.500002"
   height="240"
   width="240">
  <defs
     id="defs832" />
  <sodipodi:namedview
     inkscape:window-maximized="0"
     inkscape:window-y="50"
     inkscape:window-x="-136"
     inkscape:window-height="662"
     inkscape:window-width="1490"
     inkscape:pagecheckerboard="true"
     units="px"
     showgrid="false"
     inkscape:document-rotation="0"
     inkscape:current-layer="layer1"
     inkscape:document-units="mm"
     inkscape:cy="560"
     inkscape:cx="400"
     inkscape:zoom="0.35"
     inkscape:pageshadow="2"
     inkscape:pageopacity="0.0"
     borderopacity="1.0"
     bordercolor="#666666"
     pagecolor="#ffffff"
     id="base" />
  <metadata
     id="metadata835">
    <rdf:RDF>
      <cc:Work
         rdf:about="">
        <dc:format>image/svg+xml</dc:format>
        <dc:type
           rdf:resource="http://purl.org/dc/dcmitype/StillImage" />
        <dc:title></dc:title>
      </cc:Work>
    </rdf:RDF>
  </metadata>
  <g
     id="layer1"
     inkscape:groupmode="layer"
     inkscape:label="Layer 1">
    <g
       transform="matrix(0.10335286,0,0,0.10335286,5.2916678,5.2916678)"
       style="fill:#ffffff;fill-opacity:1"
       id="g1403">
      <path
         style="fill:#ffffff;fill-opacity:1"
         d="M 394.66797,0 H 117.33203 C 52.652344,0 0,52.628906 0,117.33203 0,182.03906 52.652344,234.66797 117.33203,234.66797 H 394.66797 C 459.34766,234.66797 512,182.03906 512,117.33203 512,52.628906 459.34766,0 394.66797,0 Z M 117.33203,170.66797 C 87.914062,170.66797 64,146.73047 64,117.33203 64,87.9375 87.914062,64 117.33203,64 c 29.42188,0 53.33594,23.9375 53.33594,53.33203 0,29.39844 -23.91406,53.33594 -53.33594,53.33594 z m 0,0"
         id="path2" />
      <path
         style="fill:#ffffff;fill-opacity:1"
         d="M 394.66797,277.33203 H 117.33203 C 52.652344,277.33203 0,329.96094 0,394.66797 0,459.37109 52.652344,512 117.33203,512 H 394.66797 C 459.34766,512 512,459.37109 512,394.66797 512,329.96094 459.34766,277.33203 394.66797,277.33203 Z m 0,170.66797 c -29.42188,0 -53.33594,-23.9375 -53.33594,-53.33203 0,-29.39844 23.91406,-53.33594 53.33594,-53.33594 29.41797,0 53.33203,23.9375 53.33203,53.33594 C 448,424.0625 424.08594,448 394.66797,448 Z m 0,0"
         id="path4" />
    </g>
  </g>
</svg>
