<?xml version="1.0" encoding="UTF-8" standalone="no"?>
<svg
   xmlns:dc="http://purl.org/dc/elements/1.1/"
   xmlns:cc="http://creativecommons.org/ns#"
   xmlns:rdf="http://www.w3.org/1999/02/22-rdf-syntax-ns#"
   xmlns:svg="http://www.w3.org/2000/svg"
   xmlns="http://www.w3.org/2000/svg"
   xmlns:sodipodi="http://sodipodi.sourceforge.net/DTD/sodipodi-0.dtd"
   xmlns:inkscape="http://www.inkscape.org/namespaces/inkscape"
   inkscape:version="1.0 (4035a4fb49, 2020-05-01)"
   height="240"
   width="240"
   sodipodi:docname="technology.svg"
   xml:space="preserve"
   viewBox="0 0 239.99999 239.99999"
   y="0px"
   x="0px"
   id="Layer_1"
   version="1.1"><metadata
   id="metadata90"><rdf:RDF><cc:Work
       rdf:about=""><dc:format>image/svg+xml</dc:format><dc:type
         rdf:resource="http://purl.org/dc/dcmitype/StillImage" /><dc:title></dc:title></cc:Work></rdf:RDF></metadata><defs
   id="defs88" /><sodipodi:namedview
   inkscape:current-layer="Layer_1"
   inkscape:window-maximized="0"
   inkscape:window-y="28"
   inkscape:window-x="45"
   inkscape:cy="249.34781"
   inkscape:cx="44.809353"
   inkscape:zoom="0.61363547"
   inkscape:pagecheckerboard="true"
   showgrid="false"
   id="namedview86"
   inkscape:window-height="740"
   inkscape:window-width="1321"
   inkscape:pageshadow="2"
   inkscape:pageopacity="0"
   guidetolerance="10"
   gridtolerance="10"
   objecttolerance="10"
   borderopacity="1"
   bordercolor="#666666"
   pagecolor="#ffffff" />
<g
   style="fill:#fffffa;fill-opacity:1;opacity:0.8"
   transform="matrix(0.42613576,0,0,0.42613576,20,19.999787)"
   id="g53">
	<g
   style="fill:#fffffa;fill-opacity:1"
   id="g51">
		<path
   style="fill:#fffffa;fill-opacity:1"
   id="path49"
   d="m 465.069,173.152 0.244,-0.305 C 448.222,159.243 427.088,142.408 405,124.8 V 85.334 C 405,61.77 385.897,42.667 362.333,42.667 H 302.188 C 280.769,25.495 265.709,13.345 263.343,11.248 254.869,3.753 244.768,0.004 234.671,0 224.565,-0.004 214.463,3.746 206,11.248 203.634,13.346 188.574,25.495 167.155,42.667 H 106.667 C 83.103,42.667 64,61.77 64,85.334 v 40.003 c -21.846,17.415 -43.059,34.044 -59.979,47.51 l 0.243,0.305 C 1.777,175.152 0,177.923 0,181.195 v 245.452 c 0,23.576 19.112,42.688 42.688,42.688 h 383.979 c 23.564,0 42.667,-19.102 42.667,-42.667 V 181.195 c 0,-3.272 -1.778,-6.043 -4.265,-8.043 z M 220.146,27.225 c 5.667,-5.003 18.75,-9.12 29.052,0.01 1.65,1.46 8.645,7.148 18.924,15.432 h -66.908 c 10.285,-8.287 17.282,-13.98 18.932,-15.442 z m -81.479,79.442 h 191.667 c 5.896,0 10.667,4.771 10.667,10.667 0,5.896 -4.771,10.667 -10.667,10.667 H 138.667 c -5.896,0 -10.667,-4.771 -10.667,-10.667 0,-5.896 4.771,-10.667 10.667,-10.667 z m 0,64 h 191.667 c 5.896,0 10.667,4.771 10.667,10.667 0,5.896 -4.771,10.667 -10.667,10.667 H 138.667 c -5.896,0 -10.667,-4.771 -10.667,-10.667 0,-5.896 4.771,-10.667 10.667,-10.667 z M 288,245.334 c 0,5.896 -4.771,10.667 -10.667,10.667 h -86 c -5.896,0 -10.667,-4.771 -10.667,-10.667 0,-5.896 4.771,-10.667 10.667,-10.667 h 86 c 5.896,0 10.667,4.771 10.667,10.667 z m -38.802,89.82 c -2.573,2.283 -7.938,6.117 -14.865,6.117 -5.063,0 -9.948,-2.052 -14.531,-6.117 C 178.438,298.507 63.305,208.606 27.927,181.092 c 8.322,-6.626 20.974,-16.703 35.74,-28.471 v 24.214 c 0,3.281 1.51,6.385 4.094,8.406 43.469,33.979 122.021,95.844 159.771,128.417 2,1.729 4.49,2.594 6.969,2.594 2.479,0 4.958,-0.865 6.958,-2.583 C 279.021,281.294 357.48,219.617 400.896,185.721 403.49,183.7 405,180.596 405,177.315 V 152.09 c 15.044,11.99 27.953,22.272 36.397,28.996 -35.476,27.544 -151.083,117.663 -192.199,154.068 z" />
	</g>
</g>
<g
   style="opacity:0.8"
   id="g55">
</g>
<g
   style="opacity:0.8"
   id="g57">
</g>
<g
   style="opacity:0.8"
   id="g59">
</g>
<g
   style="opacity:0.8"
   id="g61">
</g>
<g
   style="opacity:0.8"
   id="g63">
</g>
<g
   style="opacity:0.8"
   id="g65">
</g>
<g
   style="opacity:0.8"
   id="g67">
</g>
<g
   style="opacity:0.8"
   id="g69">
</g>
<g
   style="opacity:0.8"
   id="g71">
</g>
<g
   style="opacity:0.8"
   id="g73">
</g>
<g
   style="opacity:0.8"
   id="g75">
</g>
<g
   style="opacity:0.8"
   id="g77">
</g>
<g
   style="opacity:0.8"
   id="g79">
</g>
<g
   style="opacity:0.8"
   id="g81">
</g>
<g
   style="opacity:0.8"
   id="g83">
</g>
</svg>
