<?xml version="1.0"?>
<svg xmlns="http://www.w3.org/2000/svg" xmlns:xlink="http://www.w3.org/1999/xlink" version="1.1" id="Capa_1" x="0px" y="0px" viewBox="0 0 332 332" style="enable-background:new 0 0 332 332;" xml:space="preserve" width="512px" height="512px"><g><g>
	<g>
		<path d="M312.4,150.6c-12-12-29.2-19.6-47.6-19.6c-9.6,0-19.2,2-27.6,6c-8.8,4-16.4,9.6-22.8,16.8c-3.6,4.4-10.4,4.8-14.4,0.8    c-4.4-3.6-4.8-10.4-0.8-14.4c8.4-9.6,18.4-16.8,29.6-22c2.4-1.2,4.8-2,7.2-2.8c-6.8-13.2-16.8-24.4-28.8-32.4    c-14.8-10.4-32.8-16.4-52-16.4c-22.4,0-43.2,8-59.2,22c-16,13.6-27.2,33.2-30.4,55.2c-0.4,2.8-2,5.6-4.4,7.2h-0.4    c-1.2,0.8-2.8,1.2-4.4,1.2c-15.6,0-30,6.4-40,16.4C6,179,0,193,0,208.6c0,15.6,6.4,30,16.4,40c8.8,10.4,23.2,16.8,38.8,16.8h209.6    c18.8,0,35.6-7.6,47.6-19.6s19.6-29.2,19.6-47.6C332,179.4,324.4,162.6,312.4,150.6z" data-original="#000000" class="active-path" data-old_color="#000000" style="--darkreader-inline-" data-darkreader-inline-fill="" fill="#FFFFFF"/>
	</g>
</g></g> </svg>
