<?xml version="1.0"?>
<svg xmlns="http://www.w3.org/2000/svg" xmlns:xlink="http://www.w3.org/1999/xlink" version="1.1" id="Capa_1" x="0px" y="0px" viewBox="0 0 448.005 448.005" style="enable-background:new 0 0 448.005 448.005;" xml:space="preserve" width="512px" height="512px"><g><g>
	<g>
		<path d="M436.874,68.559L394.57,55.055c-38.176-12.288-80.32-8.256-115.424,10.976c-33.984,18.656-76.256,18.688-110.272,0    c-35.04-19.232-77.12-23.264-115.456-10.976L11.146,68.559C2.698,71.247-1.942,80.239,0.778,88.687    c2.688,8.384,11.648,13.024,20.096,10.336l42.272-13.536c30.048-9.536,62.944-6.464,90.336,8.576    c21.76,11.936,46.144,17.888,70.528,17.888c24.384,0,48.736-5.952,70.496-17.856c27.424-15.072,60.32-18.176,90.304-8.576    l42.304,13.504c8.576,2.752,17.44-1.984,20.128-10.368C449.93,80.239,445.29,71.247,436.874,68.559z" data-original="#000000" class="active-path" data-old_color="#000000" style="--darkreader-inline-" data-darkreader-inline-fill="" fill="#FFFFFF"/>
	</g>
</g><g>
	<g>
		<path d="M436.874,164.559l-42.304-13.504c-38.176-12.224-80.32-8.256-115.424,10.976c-33.984,18.656-76.256,18.688-110.272,0    c-35.072-19.264-77.152-23.296-115.456-10.976l-42.272,13.504c-8.448,2.688-13.088,11.68-10.368,20.128    c2.688,8.384,11.648,12.992,20.096,10.336l42.272-13.536c30.048-9.536,62.944-6.464,90.336,8.576    c21.76,11.936,46.144,17.888,70.528,17.888c24.384,0,48.736-5.952,70.496-17.856c27.424-15.072,60.32-18.176,90.304-8.576    l42.304,13.504c8.576,2.752,17.44-1.952,20.128-10.368S445.29,167.247,436.874,164.559z" data-original="#000000" class="active-path" data-old_color="#000000" style="--darkreader-inline-" data-darkreader-inline-fill="" fill="#FFFFFF"/>
	</g>
</g><g>
	<g>
		<path d="M436.842,260.559l-42.24-13.472c-38.304-12.384-80.288-8.32-115.456,10.944c-33.984,18.624-76.256,18.624-110.272,0    c-35.104-19.264-77.152-23.264-115.424-10.976l-42.272,13.504c-8.416,2.688-13.056,11.68-10.368,20.128    c2.688,8.384,11.648,12.96,20.096,10.368l42.272-13.504c29.952-9.664,62.88-6.496,90.304,8.512    c21.76,11.936,46.144,17.888,70.528,17.888c24.384,0,48.736-5.952,70.496-17.856c27.424-15.04,60.32-18.24,90.304-8.544    l42.272,13.504c8.512,2.624,17.408-1.984,20.128-10.368C449.898,272.239,445.258,263.247,436.842,260.559z" data-original="#000000" class="active-path" data-old_color="#000000" style="--darkreader-inline-" data-darkreader-inline-fill="" fill="#FFFFFF"/>
	</g>
</g><g>
	<g>
		<path d="M436.842,356.527l-42.24-13.472c-38.304-12.352-80.288-8.32-115.456,10.944c-33.952,18.624-76.256,18.656-110.272,0    c-35.072-19.232-77.184-23.168-115.456-10.976l-42.272,13.504c-8.416,2.688-13.056,11.68-10.368,20.128    c2.688,8.384,11.648,12.928,20.096,10.368l42.272-13.504c29.984-9.6,62.88-6.496,90.336,8.544    c21.76,11.936,46.144,17.888,70.528,17.888c24.384,0,48.736-5.952,70.496-17.888c27.424-15.04,60.32-18.208,90.304-8.544    l42.272,13.504c8.512,2.624,17.408-1.984,20.128-10.368C449.898,368.207,445.258,359.215,436.842,356.527z" data-original="#000000" class="active-path" data-old_color="#000000" style="--darkreader-inline-" data-darkreader-inline-fill="" fill="#FFFFFF"/>
	</g>
</g></g> </svg>
