<?xml version="1.0"?>
<svg xmlns="http://www.w3.org/2000/svg" xmlns:xlink="http://www.w3.org/1999/xlink" version="1.1" id="Capa_1" x="0px" y="0px" viewBox="0 0 302.4 302.4" style="enable-background:new 0 0 302.4 302.4;" xml:space="preserve" width="512px" height="512px" class=""><g><g>
	<g>
		<g>
			<path d="M204.8,97.6C191.2,84,172,75.2,151.2,75.2s-40,8.4-53.6,22.4c-13.6,13.6-22.4,32.8-22.4,53.6s8.8,40,22.4,53.6     c13.6,13.6,32.8,22.4,53.6,22.4s40-8.4,53.6-22.4c13.6-13.6,22.4-32.8,22.4-53.6S218.8,111.2,204.8,97.6z" data-original="#000000" class="active-path" data-old_color="#000000" style="--darkreader-inline-" data-darkreader-inline-fill="" fill="#FFFFFF"/>
			<path d="M151.2,51.6c5.6,0,10.4-4.8,10.4-10.4V10.4c0-5.6-4.8-10.4-10.4-10.4c-5.6,0-10.4,4.8-10.4,10.4v30.8     C140.8,46.8,145.6,51.6,151.2,51.6z" data-original="#000000" class="active-path" data-old_color="#000000" style="--darkreader-inline-" data-darkreader-inline-fill="" fill="#FFFFFF"/>
			<path d="M236.4,80.8l22-22c4-4,4-10.4,0-14.4s-10.4-4-14.4,0l-22,22c-4,4-4,10.4,0,14.4C225.6,84.8,232,84.8,236.4,80.8z" data-original="#000000" class="active-path" data-old_color="#000000" style="--darkreader-inline-" data-darkreader-inline-fill="" fill="#FFFFFF"/>
			<path d="M292,140.8h-30.8c-5.6,0-10.4,4.8-10.4,10.4c0,5.6,4.8,10.4,10.4,10.4H292c5.6,0,10.4-4.8,10.4-10.4     C302.4,145.6,297.6,140.8,292,140.8z" data-original="#000000" class="active-path" data-old_color="#000000" style="--darkreader-inline-" data-darkreader-inline-fill="" fill="#FFFFFF"/>
			<path d="M236,221.6c-4-4-10.4-4-14.4,0s-4,10.4,0,14.4l22,22c4,4,10.4,4,14.4,0s4-10.4,0-14.4L236,221.6z" data-original="#000000" class="active-path" data-old_color="#000000" style="--darkreader-inline-" data-darkreader-inline-fill="" fill="#FFFFFF"/>
			<path d="M151.2,250.8c-5.6,0-10.4,4.8-10.4,10.4V292c0,5.6,4.8,10.4,10.4,10.4c5.6,0,10.4-4.8,10.4-10.4v-30.8     C161.6,255.6,156.8,250.8,151.2,250.8z" data-original="#000000" class="active-path" data-old_color="#000000" style="--darkreader-inline-" data-darkreader-inline-fill="" fill="#FFFFFF"/>
			<path d="M66,221.6l-22,22c-4,4-4,10.4,0,14.4s10.4,4,14.4,0l22-22c4-4,4-10.4,0-14.4C76.8,217.6,70.4,217.6,66,221.6z" data-original="#000000" class="active-path" data-old_color="#000000" style="--darkreader-inline-" data-darkreader-inline-fill="" fill="#FFFFFF"/>
			<path d="M51.6,151.2c0-5.6-4.8-10.4-10.4-10.4H10.4c-5.6,0-10.4,4.8-10.4,10.4s4.8,10.4,10.4,10.4h30.8     C46.8,161.6,51.6,156.8,51.6,151.2z" data-original="#000000" class="active-path" data-old_color="#000000" style="--darkreader-inline-" data-darkreader-inline-fill="" fill="#FFFFFF"/>
			<path d="M66,80.8c4,4,10.4,4,14.4,0s4-10.4,0-14.4l-22-22c-4-4-10.4-4-14.4,0s-4,10.4,0,14.4L66,80.8z" data-original="#000000" class="active-path" data-old_color="#000000" style="--darkreader-inline-" data-darkreader-inline-fill="" fill="#FFFFFF"/>
		</g>
	</g>
</g></g> </svg>
