<svg xmlns="http://www.w3.org/2000/svg" xmlns:xlink="http://www.w3.org/1999/xlink" viewBox="0 0 24 24">
 <defs>
  <path id="SVGCleanerId_0" d="m 14 12 20 0 c 1.105 0 2 0.895 2 2 l 0 20 c 0 1.105 -0.895 2 -2 2 l -20 0 c -1.105 0 -2 -0.895 -2 -2 l 0 -20 c 0 -1.105 0.895 -2 2 -2 m 0 0"/>
 </defs>
 <use height="24" width="24" xlink:href="#SVGCleanerId_0" transform="matrix(0.60416667,0,0,0.60416667,-2.5000001,-2.5000001)" style="stroke-dasharray:none;stroke-opacity:1;fill:none;stroke-miterlimit:4;stroke:#af8566;stroke-linecap:butt;stroke-linejoin:miter;stroke-width:2.483"/>
 <use height="24" width="24" xlink:href="#SVGCleanerId_0" transform="matrix(0.58333333,0,0,0.58333333,-1.9999999,-1.9999999)" style="fill:#fff4ab;fill-opacity:1;stroke:none;fill-rule:nonzero"/>
 <path d="m 5 15 14 0 0 1 -14 0 z" style="fill:#e4d66a;fill-opacity:1;stroke:none;fill-rule:nonzero"/>
 <path d="m 5 12 14 0 0 1 -14 0" style="fill:#e4d66a;fill-opacity:1;stroke:none;fill-rule:nonzero"/>
 <path d="m 5 9 14 0 0 1 -14 0" style="fill:#e4d66a;fill-opacity:1;stroke:none;fill-rule:nonzero"/>
 <path d="m 9 5 1 0 0 14 -1 0 z" style="fill:#e6b2a9;fill-opacity:1;stroke:none;fill-rule:nonzero"/>
 <g transform="matrix(-0.49999884,0,0,-0.49999884,23.000003,23.499975)" style="fill-rule:evenodd">
  <path transform="matrix(2.0000046,0,0,2.0000046,-24.000048,0.99981232)" d="m 23 6 a 5 5 0 0 1 -10 0 5 5 0 1 1 10 0 z" style="fill:#268bd2"/>
  <path d="m 14 18 -4 0 0 -5.25 4 0 l 0 5.25" transform="matrix(1.0000023,0,0,1.3333364,8.0000186e-6,-4.0000595)" style="fill:#fff;fill-opacity:0.9"/>
  <path transform="matrix(1.24868,0,0,1.15686,-2.44444,-0.82353)" d="m 13.169 8.492 c 0 0.955 -0.717 1.729 -1.602 1.729 -0.885 0 -1.602 -0.774 -1.602 -1.729 0 -0.955 0.717 -1.729 1.602 -1.729 0.885 0 1.602 0.774 1.602 1.729 z" style="fill:#fff;fill-opacity:0.9"/>
 </g>
</svg>
