<svg width="24" xmlns="http://www.w3.org/2000/svg" height="24" viewBox="0 0 24 24">
<path style="fill:#6c71c4;fill-rule:evenodd" d="m 5,2 12,0 c 2,0 2,0 2,2 l 0,14 c 0,2 0,2 -2,2 L 5,20 C 3,20 3,20 3,18 L 3,4 C 3,2 3,2 5,2 z"/>
<path style="fill:#2d2d2d;fill-opacity:.533;color:#bebebe" d="m 8.2249547,6.5688748 c -0.442903,1.555936 -0.453114,3.7101212 0.337254,4.7727082 0.332197,0.504033 0.7854853,1.166889 0.430198,1.770103 -0.656769,0.941081 -1.751616,1.448749 -2.748491,1.961464 -0.338653,0.03428 -0.216323,0.344956 -0.238999,0.574085 -5.44e-4,0.182223 -0.0554,0.420211 0.2151,0.334885 l 4.3975843,0 0.764798,0 4.397586,0 c 0.270501,0.08532 0.215641,-0.152662 0.215099,-0.334885 -0.02268,-0.229129 0.09966,-0.539792 -0.238999,-0.574085 -0.996876,-0.512715 -2.09172,-1.020383 -2.748491,-1.961464 -0.355286,-0.603214 0.098,-1.26607 0.430199,-1.770103 0.834921,-1.156709 0.943491,-3.6734192 0.334599,-4.8079792 C 13.222223,5.5500008 12.666667,5.0377958 11,4.9999998 9.330678,5.0664598 8.7777777,5.5500008 8.2249547,6.5688748 z"/>
<path style="fill:#859900" d="m 22,14 -4,0 0,-4 -4,0 0,4 -4,0 0,4 4,0 0,4 4,0 0,-4 4,0 z"/>
</svg>
