<svg xmlns="http://www.w3.org/2000/svg" viewBox="0 0 24 24">
 <path d="m 21 13 a 9 9 0 0 1 -18 0 9 9 0 1 1 18 0 z" style="fill:#fff;fill-rule:evenodd"/>
 <path d="m 11.984 6.484 c -0.551 0.008 -0.992 0.465 -0.984 1.016 l 0 5.5 c 0 0.234 0.082 0.461 0.234 0.641 l 2.5 3 c 0.223 0.301 0.59 0.449 0.957 0.395 0.367 -0.059 0.672 -0.313 0.793 -0.664 0.121 -0.352 0.035 -0.742 -0.219 -1.012 l -2.266 -2.719 0 -5.141 c 0.004 -0.27 -0.102 -0.531 -0.293 -0.723 -0.191 -0.191 -0.453 -0.297 -0.723 -0.293 z" style="fill:#268bd2"/>
 <path d="m 12 3 c -5.512 0 -10 4.488 -10 10 0 5.512 4.488 10 10 10 5.512 0 10 -4.488 10 -10 0 -5.512 -4.488 -10 -10 -10 m 0 2 c 4.43 0 8 3.57 8 8 0 4.43 -3.57 8 -8 8 c -4.43 0 -8 -3.57 -8 -8 0 -4.43 3.57 -8 8 -8" style="fill:#aaa"/>
 <path d="m 2.808 5.222 c -0.392 0.392 -0.392 1.022 0 1.414 c 0.471 0.471 0.943 0.943 1.414 1.414 1.179 -1.179 2.357 -2.357 3.536 -3.536 -0.471 -0.471 -0.943 -0.943 -1.414 -1.414 c -0.392 -0.392 -1.022 -0.392 -1.414 0 z" style="fill:#aaa;opacity:1;fill-opacity:1;stroke:none"/>
 <rect width="4" height="3" x="10" y="1" rx="1" style="fill:#aaa;opacity:1;fill-opacity:1;stroke:none"/>
 <path d="m 21.19 5.222 c 0.392 0.392 0.392 1.022 0 1.414 -0.471 0.471 -0.943 0.943 -1.414 1.414 -1.179 -1.179 -2.357 -2.357 -3.536 -3.536 0.471 -0.471 0.943 -0.943 1.414 -1.414 0.392 -0.392 1.022 -0.392 1.414 0 z" style="fill:#aaa;opacity:1;fill-opacity:1;stroke:none"/>
</svg>
