<svg xmlns="http://www.w3.org/2000/svg" viewBox="0 0 24 24">
 <path d="m 16.5 10.5 4 0 0 4 -4 0 z" style="fill:#fff;stroke-miterlimit:10;stroke:#888;stroke-width:1"/>
 <path d="m 3.5 4.5 4 0 0 4 -4 0 z" style="fill:#fff;stroke-miterlimit:10;stroke:#888;stroke-width:1"/>
 <path d="m 3.5 15.5 4 0 0 4 -4 0 z" style="fill:#fff;stroke-miterlimit:10;stroke:#888;stroke-width:1"/>
 <path d="m 10 6 0 1 1 0 0 2 -1 0 0 1 4 0 0 -1 -1 0 0 -2 1 0 0 -1 z" style="fill:#268bd2;fill-opacity:1;stroke:none"/>
 <path d="m 10 14 0 1 1 0 0 2 -1 0 0 1 4 0 0 -1 -1 0 0 -2 1 0 0 -1 z" style="fill:#268bd2;fill-opacity:1;stroke:none"/>
</svg>
