<svg xmlns="http://www.w3.org/2000/svg" viewBox="0 0 24 24">
 <path d="m 17.467 6.826 -3.641 3.641 c 0.3 0.162 0.545 0.407 0.707 0.707 l 3.641 -3.641 c -0.3 -0.162 -0.545 -0.407 -0.707 -0.707 z" style="visibility:visible;shape-rendering:auto;color-interpolation-filters:linearRGB;fill:#3daee9;opacity:1;image-rendering:auto;fill-opacity:1;text-rendering:auto;stroke:none;display:inline;color:#000;fill-rule:evenodd;color-rendering:auto;color-interpolation:sRGB"/>
 <path d="m 14.533 12.826 c -0.162 0.3 -0.407 0.545 -0.707 0.707 l 3.641 3.641 c 0.162 -0.3 0.407 -0.545 0.707 -0.707 z" style="visibility:visible;shape-rendering:auto;color-interpolation-filters:linearRGB;fill:#3daee9;opacity:1;image-rendering:auto;fill-opacity:1;text-rendering:auto;stroke:none;display:inline;color:#000;fill-rule:evenodd;color-rendering:auto;color-interpolation:sRGB"/>
 <path d="m 6.719 8.301 c -0.06 0.343 -0.219 0.65 -0.448 0.894 l 5.01 2.505 c 0.06 -0.343 0.219 -0.65 0.448 -0.894 z" style="visibility:visible;shape-rendering:auto;color-interpolation-filters:linearRGB;fill:#3daee9;opacity:1;image-rendering:auto;fill-opacity:1;text-rendering:auto;stroke:none;display:inline;color:#000;fill-rule:evenodd;color-rendering:auto;color-interpolation:sRGB"/>
 <path d="m 11.32 12.461 -5.171 3.231 c 0.253 0.222 0.438 0.514 0.53 0.847 l 5.171 -3.231 c -0.253 -0.222 -0.438 -0.514 -0.53 -0.847 z" style="visibility:visible;shape-rendering:auto;color-interpolation-filters:linearRGB;fill:#3daee9;opacity:1;image-rendering:auto;fill-opacity:1;text-rendering:auto;stroke:none;display:inline;color:#000;fill-rule:evenodd;color-rendering:auto;color-interpolation:sRGB"/>
 <rect width="6" transform="matrix(0 -1 1 0 0 0)" x="-15.5" height="1" y="5" style="fill:#3daee9;opacity:1;fill-opacity:1;stroke:none;fill-rule:nonzero"/>
 <circle r="1.5" cx="5" cy="17" style="stroke-dasharray:none;stroke-opacity:1;fill:#fff;opacity:1;stroke-miterlimit:4;fill-opacity:1;stroke:#888;stroke-linecap:butt;stroke-linejoin:miter;stroke-width:1;stroke-dashoffset:0"/>
 <circle r="1.5" cx="5" cy="8" style="stroke-dasharray:none;stroke-opacity:1;fill:#fff;opacity:1;stroke-miterlimit:4;fill-opacity:1;stroke:#888;stroke-linecap:butt;stroke-linejoin:miter;stroke-width:1;stroke-dashoffset:0"/>
 <circle r="1.5" cx="13" cy="12" style="stroke-dasharray:none;stroke-opacity:1;fill:#fff;opacity:1;stroke-miterlimit:4;fill-opacity:1;stroke:#888;stroke-linecap:butt;stroke-linejoin:miter;stroke-width:1;stroke-dashoffset:0"/>
 <circle r="1.5" cx="19" cy="6" style="stroke-dasharray:none;stroke-opacity:1;fill:#fff;opacity:1;stroke-miterlimit:4;fill-opacity:1;stroke:#888;stroke-linecap:butt;stroke-linejoin:miter;stroke-width:1;stroke-dashoffset:0"/>
 <circle r="1.5" cx="19" cy="18" style="stroke-dasharray:none;stroke-opacity:1;fill:#fff;opacity:1;stroke-miterlimit:4;fill-opacity:1;stroke:#888;stroke-linecap:butt;stroke-linejoin:miter;stroke-width:1;stroke-dashoffset:0"/>
</svg>
