<svg xmlns="http://www.w3.org/2000/svg" viewBox="0 0 24 24">
 <rect width="1" height="18" x="6" y="-21" transform="matrix(0,1,-1,0,0,0)" style="fill:#268bd2;opacity:1;fill-opacity:1;stroke:none;fill-rule:nonzero"/>
 <rect y="-21" x="17" height="18" width="1" transform="matrix(0,1,-1,0,0,0)" style="fill:#268bd2;opacity:1;fill-opacity:1;stroke:none;fill-rule:nonzero"/>
 <path transform="matrix(1.1547005,0,0,-0.99999998,-20.448358,39.00175)" d="m 35.895 31 -1.732 -3 3.464 0 z" style="fill:#268bd2;opacity:1;fill-opacity:1;stroke:none;fill-rule:nonzero"/>
 <path d="m 35.895 31 -1.732 -3 3.464 0 z" transform="matrix(1.1547005,0,0,0.99999998,-20.448358,-15.001751)" style="fill:#268bd2;opacity:1;fill-opacity:1;stroke:none;fill-rule:nonzero"/>
 <rect width="6" height="11" x="3.5" y="-17.5" transform="matrix(0,1,-1,0,0,0)" style="fill:#fff;opacity:1;fill-opacity:1;stroke:none;fill-rule:nonzero"/>
 <rect y="-16.5" x="14.5" height="9" width="6" transform="matrix(0,1,-1,0,0,0)" style="fill:#fff;opacity:1;fill-opacity:1;stroke:none;fill-rule:nonzero"/>
 <path d="m 6 3 0 7 12 0 0 -7 z m 1 1 10 0 0 5 -10 0 m 0 5 0 7 10 0 0 -7 z m 1 1 8 0 0 5 -8 0 z" style="fill:#888;opacity:1;fill-opacity:1;stroke:none"/>
</svg>
