<svg xmlns="http://www.w3.org/2000/svg" viewBox="0 0 24 24">
 <rect width="1" height="18" x="9" y="3" style="fill:#268bd2;opacity:1;fill-opacity:1;stroke:none;fill-rule:nonzero"/>
 <rect y="3" x="14" height="18" width="1" style="fill:#268bd2;opacity:1;fill-opacity:1;stroke:none;fill-rule:nonzero"/>
 <path transform="matrix(0,-1.1547005,-0.99999998,0,47.00175,44.448358)" d="m 35.895 31 -1.732 -3 3.464 0 z" style="fill:#268bd2;opacity:1;fill-opacity:1;stroke:none;fill-rule:nonzero"/>
 <path d="m 35.895 31 -1.732 -3 3.464 0 z" transform="matrix(0,-1.1547005,0.99999998,0,-23.00175,44.448358)" style="fill:#268bd2;opacity:1;fill-opacity:1;stroke:none;fill-rule:nonzero"/>
 <rect width="6" height="11" x="3.5" y="6.5" style="fill:#fff;opacity:1;fill-opacity:1;stroke:none;fill-rule:nonzero"/>
 <rect y="7.5" x="14.5" height="9" width="6" style="fill:#fff;opacity:1;fill-opacity:1;stroke:none;fill-rule:nonzero"/>
 <path d="m 3 18 7 0 0 -12 -7 0 m 1 11 0 -10 5 0 0 10 m 5 0 7 0 0 -10 -7 0 z m 1 -1 0 -8 5 0 0 8 z" style="fill:#888;opacity:1;fill-opacity:1;stroke:none"/>
</svg>
