<svg width="24" xmlns="http://www.w3.org/2000/svg" height="24" viewBox="0 0 24 24">
<g style="fill-rule:evenodd" transform="translate(0 1)">
<path style="fill:#aaa;fill-opacity:.94" d="m 8,1 8,0 c 2,0 2,-0.2 2,2 l 0,8 c 0,2 0,2 -2,2 L 8,13 C 6,13 6,13 6,11 L 6,3 C 6,1 6,1 8,1 z"/>
<path style="fill:#ccc" d="m 4,7 16,0 c 2,0 2,0 2,2 l 0,6 c 0,2 0,2 -2,2 L 4,17 C 2,17 2,17 2,15 L 2,9 C 2,7 2,7 4,7 z"/>
</g>
<g transform="translate(0 1)">
<path style="fill:#dc322f" d="m 6,11 12,0 0,10 -12,0 z"/>
</g>
<g style="fill-rule:evenodd">
<path style="fill:#fff" d="m 19,12.5 a 5.5,6.5 0 1 1 -11,0 5.5,6.5 0 1 1 11,0 z" transform="matrix(1.091 0 0 .9231 -2.729 .4612)"/>
<path style="fill:#555" d="m 19,12.5 a 5.5,6.5 0 1 1 -11,0 5.5,6.5 0 1 1 11,0 z" transform="matrix(.7273 0 0 .6154 2.181 4.308)"/>
<path style="fill:#eee" d="m 19,12.5 a 5.5,6.5 0 1 1 -11,0 5.5,6.5 0 1 1 11,0 z" transform="matrix(.2727 0 0 .2308 9.818 7.615)"/>
</g>
</svg>
