<svg width="24" xmlns="http://www.w3.org/2000/svg" height="24" viewBox="0 0 24 24">
<g style="fill-rule:evenodd">
<path style="fill:#268bd2" d="m 7,2 10,0 c 3,0 4,1 4,4 l 0,12 c 0,3 -1,4 -4,4 L 7,22 C 4,22 3,21 3,18 L 3,6 C 3,3 4,2 7,2 z"/>
<path style="fill:#fff;fill-opacity:.1" d="m 7,2 10,0 c 3,0 4,1 4,4 l 0,8 c 0,3 -1,4 -4,4 L 7,18 C 4,18 3,17 3,14 L 3,6 C 3,3 4,2 7,2 z"/>
</g>
<g style="color:#000">
<path style="fill:#fff" d="M 10 5 L 10 6 L 14 6 L 14 5 L 10 5 z M 10 7 L 10 9 L 14 9 L 14 7 L 10 7 z M 7.5 10 L 12 15 L 16.5 10 L 14 10 L 10 10 L 9 10 L 7.5 10 z "/>
<path style="fill:#268bd2;fill-opacity:.1" d="M 10 5 L 10 6 L 14 6 L 14 5 L 10 5 z M 10 7 L 10 9 L 14 9 L 14 7 L 10 7 z M 7.5 10 L 12 15 L 16.5 10 L 14 10 L 10 10 L 9 10 L 7.5 10 z "/>
</g>
</svg>
