<svg width="24" xmlns="http://www.w3.org/2000/svg" height="24" viewBox="0 0 24 24">
<g style="fill:#2aa198;fill-rule:evenodd">
<path d="M 11 2.6875 C 6.58 2.6875 3 6.2645 3 10.6875 C 3 15.1075 6.58 18.6875 11 18.6875 C 12.22 18.6875 13.36625 18.4175 14.40625 17.9375 L 17.40625 20.9375 C 18.81625 22.3575 18.83 22.3575 20.25 20.9375 C 21.66 19.5275 21.66 19.51375 20.25 18.09375 L 17.5 15.34375 C 18.44 14.02375 19 12.4275 19 10.6875 C 19 6.2645 15.42 2.6875 11 2.6875 z M 10.875 6.6875 A 4 3.999 0 0 1 15 10.6875 A 4 3.999 0 0 1 7 10.6875 A 4 3.999 0 0 1 10.875 6.6875 z "/>
<path style="fill:#fff" d="m 7,10.686 a 4,3.999 0 0 0 8,0 4,3.999 0 1 0 -8,0 z"/>
<path style="fill-opacity:.1" d="m 7,10.686 a 4,3.999 0 0 0 8,0 4,3.999 0 1 0 -8,0 z"/>
</g>
</svg>
