<svg xmlns="http://www.w3.org/2000/svg" viewBox="0 0 24 24">
 <rect width="4" height="14" x="-14" y="-19" transform="scale(-1,-1)" style="fill:#cecece;opacity:1;fill-opacity:1;stroke:none;fill-rule:nonzero"/>
 <rect transform="scale(-1,-1)" y="-19" x="-19" height="14" width="4" style="fill:#79d073;opacity:1;fill-opacity:1;stroke:none;fill-rule:nonzero"/>
 <path d="m 4 4 c 0 5.333 0 10.667 0 16 5.333 0 10.667 0 16 0 c 0 -5.333 0 -10.667 0 -16 -5.333 0 -10.667 0 -16 0 m 1 1 4 0 0 4 -4 0 m 5 -4 4 0 0 4 -4 0 z m 5 0 4 0 0 4 -4 0 z m -10 5 4 0 0 4 -4 0 z m 5 0 4 0 0 4 -4 0 z m 5 0 4 0 0 4 -4 0 z m -10 5 4 0 0 4 -4 0 z m 5 0 4 0 0 4 -4 0 z m 5 0 4 0 0 4 -4 0 z" style="fill:#888;opacity:1;fill-opacity:1;stroke:none;fill-rule:nonzero"/>
</svg>
