<svg width="24" xmlns="http://www.w3.org/2000/svg" viewBox="0 0 24 24" height="24">
<path style="fill:#268bd2;line-height:normal;color:#000" d="m 5,5 0,3 c 3,0 6,0 9,0 0.713593,0 0.880651,0.354986 1,1 l 0,2 c -2.666667,0 -5.3333333,0 -8,0 -1.5320951,-10e-7 -2.8926755,0.443357 -3.75,1.4375 -0.8573245,0.994143 -1.2606499,2.243696 -1.25,3.46875 0.01,1.225054 0.4586422,2.453982 1.3125,3.4375 C 4.1663579,20.327268 5.4862156,21 7,21 c 5.565631,0 10.047988,0 15,0 0,-3.96875 0,-7.9375 0,-11.90625 C 22,6.315372 20,5 17,5 12.621927,5 9.1930279,5 5,5 z m 5.09375,9 4.90625,0 0,4 -4.90625,0 C 9.0737517,18 8.0625,18 8.0625,16 c 0,-2 1.0112517,-2 2.03125,-2 z"/>
</svg>
