<svg width="24" xmlns="http://www.w3.org/2000/svg" viewBox="0 0 24 24" height="24">
<g style="fill:#268bd2">
<g style="line-height:normal;color:#000">
<path d="m 7.9999995,3.0000035 0,3 9.0000005,0 c 0.68505,0 2.067,0.4639692 2,0.9999999 l 0,1 -8,0 c -4.0000005,0 -5.0000006,1.9999996 -4.9998006,4.7999996 -2e-4,2.2 0.9998001,4.2 4.7999336,4.2 l 9.599883,0 1.599984,0 0,-1.4 0,-8.3999996 C 22,4.9119266 19.888333,3.0000035 17.20005,3.0000035 z M 11,11.000003 l 8,0 0,3 -8,0 c -1.0000005,0 -2.0000005,0 -2.0000005,-1.439692 0,-1.560308 1,-1.560308 2.0000005,-1.560308 z"/>
<path d="m 1.9999997,19 0,3 L 22,22 22,19 1.9999997,19 z"/>
</g>
<path d="m 8.068785e-4,23.998571 c -4.869523e-5,2e-6 -9.49557e-5,2e-5 -1.2855523e-4,5e-5 L 5.5025551e-5,23.99917 C 1.9477935e-5,23.999201 0,23.999243 0,23.999286 c 0,4.4e-5 1.9477935e-5,8.6e-5 5.5025551e-5,1.17e-4 l 6.23297719e-4,5.49e-4 c 7.304254e-5,6.4e-5 1.9185888e-4,6.4e-5 2.6490157e-4,0 7.304516e-5,-6.5e-5 7.304516e-5,-1.69e-4 0,-2.34e-4 l -4.9084694e-4,-4.32e-4 4.9084694e-4,-4.32e-4 c 5.551253e-5,-4.7e-5 7.206516e-5,-1.2e-4 4.187777e-5,-1.82e-4 -3.019079e-5,-6.3e-5 -1.0079872e-4,-1.03e-4 -1.7822411e-4,-1.01e-4 z"/>
<path d="M 0,20.508475 4,24 5,24 5,17 4,17 z"/>
</g>
</svg>
