<svg width="24" xmlns="http://www.w3.org/2000/svg" viewBox="0 0 24 24" height="24">
<g transform="matrix(1.60214 0 0 1.6 -352.29518 -1129.4)">
<path style="fill:#268bd2;line-height:normal;color:#000" d="m 224.25968,709 0,1.875 6,0 c 0.42816,0 0.83415,0.39233 0.70907,0.84375 l -0.2091,1.03125 -5.25164,0 c -1.83854,0 -3.25815,1.60237 -3.63301,3 -0.18743,0.69881 -0.16219,1.47883 0.25,2.15625 0.41219,0.67742 1.24797,1.09375 2.15625,1.09375 l 6,0 0.75,0 0.21875,-0.71875 1.65625,-6 C 233.34093,710.71247 232.1802,709 230.5,709 z m 1.24833,5.625 4.71906,0 -0.81684,2.5 -5.15055,0 c -0.39787,0 -0.40302,-0.2087 -0.44718,-0.28125 -0.0442,-0.0726 -0.0808,-0.29256 0,-0.59375 0.16157,-0.60237 0.85079,-1.625 1.69551,-1.625 z"/>
</g>
</svg>
