<svg xmlns="http://www.w3.org/2000/svg" viewBox="0 0 24 24">
 <path d="m 7,2 10,0 c 3,0 4,1 4,4 l 0,12 c 0,3 -1,4 -4,4 L 7,22 C 4,22 3,21 3,18 L 3,6 C 3,3 4,2 7,2 Z" style="fill:#268bd2;fill-rule:evenodd"/>
 <path d="m 7,2 10,0 c 3,0 4,1 4,4 l 0,8 c 0,3 -1,4 -4,4 L 7,18 C 4,18 3,17 3,14 L 3,6 C 3,3 4,2 7,2 Z" style="fill:#fff;fill-opacity:0.3;fill-rule:evenodd"/>
 <path d="M 12,12 8.5,16.5 5,12 l 2,0 0,-4 3,0 0,4 z" style="fill:#fff;fill-opacity:0.902"/>
 <path d="M 19,8 15.5,12.5 12,8 l 2,0 0,-4 3,0 0,4 z" style="fill:#fff;fill-opacity:0.902"/>
</svg>
