<svg width="24" xmlns="http://www.w3.org/2000/svg" height="24" viewBox="0 0 24 24">
<path style="fill:#cb4b16;fill-rule:evenodd" d="M 22,12 C 22,17.524088 17.520833,22 12,22 6.4791666,22 2,17.524088 2,12 2,6.4791666 6.4759116,2 12,2 17.524088,2 22,6.4791666 22,12 z"/>
<path style="fill:#fff;fill-opacity:.902" d="M 11.251302,6.2773433 C 4.6074217,11.189453 4.5227867,9.8548175 4.5227867,11.208984 4.5227867,11.912109 4.7571617,12 7,12 l 0,5 c 0,1 0,1 1,1 l 2,0 c 1,0 1,0 1,-1 l 0,-4 c 1.246745,0 0.753255,0 2,0 l 0,4 c 0,1 0,1 1,1 l 2,0 c 1,0 1,0 1,-1 l 0,-5 c 2.242838,0 2.477213,-0.08789 2.477213,-0.791016 0,-1.3574215 -0.05534,0.0033 -6.728515,-4.9316407 C 12,5.5742183 12,5.5742183 11.251302,6.2773433 z"/>
</svg>
