<svg xmlns="http://www.w3.org/2000/svg" viewBox="0 0 24 24">
 <path d="m 21 1 0 22 -18 0 0 -22" style="fill:#dc322f"/>
 <path d="m 9 7.711 c -0.478 1.697 -0.489 4.047 0.364 5.207 c 0.359 0.55 0.848 1.273 0.465 1.931 -0.709 1.027 -1.892 1.58 -2.968 2.14 -0.366 0.037 -0.234 0.376 -0.258 0.626 -0.001 0.199 -0.06 0.458 0.232 0.365 l 4.749 0 0.826 0 4.749 0 c 0.292 0.093 0.233 -0.167 0.232 -0.365 -0.024 -0.25 0.108 -0.589 -0.258 -0.626 -1.077 -0.559 -2.259 -1.113 -2.968 -2.14 -0.384 -0.658 0.106 -1.381 0.465 -1.931 0.902 -1.262 1.019 -4.01 0.361 -5.245 c -0.594 -1.073 -1.194 -1.632 -2.994 -1.673 -1.803 0.073 -2.4 0.6 -2.997 1.711" style="fill:#fff;fill-opacity:0.902;color:#bebebe"/>
</svg>
