<svg xmlns="http://www.w3.org/2000/svg" viewBox="0 0 24 24">
 <g transform="matrix(1,0,0,0.99976,0,1.00504)" style="fill-rule:evenodd">
  <path d="m 8,1 8,0 c 2,0 2,-0.2 2,2 l 0,8 c 0,2 0,2 -2,2 L 8,13 C 6,13 6,13 6,11 L 6,3 C 6,1 6,1 8,1 Z" style="fill:#aaa;fill-opacity:0.94"/>
  <path d="m 4,7 16,0 c 2,0 2,0 2,2 l 0,6 c 0,2 0,2 -2,2 L 4,17 C 2,17 2,17 2,15 L 2,9 C 2,7 2,7 4,7 Z" style="fill:#ccc"/>
 </g>
 <g transform="matrix(1,0,0,0.99976,0,1.00504)">
  <path d="m 6 11 12 0 0 10 -12 0 z" style="fill:#dc322f"/>
 </g>
 <path d="m 23 6 a 5 5 0 0 1 -10 0 5 5 0 1 1 10 0 z" style="fill:#268bd2;fill-rule:evenodd"/>
 <g transform="matrix(0.5,0,0,0.66666667,12,-2.4999301)">
  <path d="m 14 18 -4 0 0 -6 4 0 0 6" style="fill:#fff;fill-opacity:0.9"/>
 </g>
 <g transform="matrix(0.49999884,0,0,0.49999884,11.999996,-0.499905)" style="fill-rule:evenodd">
  <path d="m 13.169 7.627 c 0 0.955 -0.717 1.729 -1.602 1.729 -0.885 0 -1.602 -0.774 -1.602 -1.729 0 -0.955 0.717 -1.729 1.602 -1.729 0.885 0 1.602 0.774 1.602 1.729 z" transform="matrix(1.24868,0,0,1.15686,-2.44444,-0.82353)" style="fill:#fff;fill-opacity:0.9"/>
 </g>
</svg>
