<svg width="24" xmlns="http://www.w3.org/2000/svg" height="24" viewBox="0 0 24 24">
<g style="fill:#268bd2" transform="translate(.00043 1.5)">
<path d="M 20.131728,4.4895922 18.010408,2.3682719 C 15.889088,0.24695173 14.474874,1.661165 13.060661,3.075379 L 4.5753786,11.56066 c -1.414213,1.414214 -2.828427,2.828427 -0.707107,4.949747 l 2.1213209,2.121321 c 2.1213202,2.12132 3.535534,0.707106 4.9497475,-0.707107 L 19.204916,9.483869 C 20.619129,8.0696547 22.253048,6.6109125 20.131728,4.4895922 z M 17.303301,7.3180193 8.8180195,15.803301 c 0,0 -0.7071068,0.707107 -1.7637901,-0.349577 C 5.9895926,14.389087 6.6966996,13.68198 6.6966996,13.68198 L 15.181981,5.196699 c -0.06058,0.060578 0.707106,-0.7071069 1.795049,0.3808357 1.033378,1.0333778 0.326271,1.7404846 0.326271,1.7404846 z"/>
<path d="M 22.253048,2.3682719 16.596194,8.0251261 C 15.181981,9.4393397 13.06066,7.3180193 14.474874,5.9038058 l 5.656854,-5.65685428 c 1.414214,-1.41421352 3.535534,0.70710678 2.12132,2.12132038 z"/>
<path d="M 9.5251263,15.096194 3.8682721,20.753048 C 2.4540585,22.167262 0.33273818,20.045941 1.7469517,18.631728 L 7.403806,12.974874 c 1.4142135,-1.414214 3.535534,0.707106 2.1213203,2.12132 z"/>
</g>
<g style="fill-opacity:.1" transform="translate(-11.99957 1.5)">
<path d="M 34.253048,2.3682719 28.596194,8.0251261 C 27.181981,9.4393397 25.06066,7.3180193 26.474874,5.9038058 l 5.656854,-5.65685428 c 1.414214,-1.41421352 3.535534,0.70710678 2.12132,2.12132038 z"/>
<path d="m 21.525126,15.096194 -5.656854,5.656854 c -1.414213,1.414214 -3.535534,-0.707107 -2.12132,-2.12132 l 5.656854,-5.656854 c 1.414213,-1.414214 3.535534,0.707106 2.12132,2.12132 z"/>
</g>
<g transform="translate(1.00043 1)">
<path style="fill:#cb4b16" d="m 8,14 14,0 -7,8 z"/>
</g>
</svg>
