<svg xmlns="http://www.w3.org/2000/svg" viewBox="0 0 24 24">
 <path d="m 7 4.852 c -0.797 2.829 -0.816 6.746 0.607 8.678 c 0.598 0.916 1.414 2.122 0.774 3.218 -1.182 1.711 -3.153 2.634 -4.947 3.566 -0.61 0.062 -0.389 0.627 -0.43 1.044 -0.001 0.331 -0.1 0.764 0.387 0.609 l 7.916 0 1.377 0 7.916 0 c 0.487 0.155 0.388 -0.278 0.387 -0.609 -0.041 -0.417 0.179 -0.981 -0.43 -1.044 -1.794 -0.932 -3.765 -1.855 -4.947 -3.566 -0.64 -1.097 0.176 -2.302 0.774 -3.218 1.503 -2.103 1.698 -6.679 0.602 -8.742 c -0.99 -1.788 -1.99 -2.72 -4.99 -2.788 -3 0.121 -4 1 -4.995 2.852 z" style="fill:#6c71c4;color:#bebebe"/>
 <path d="m 11 16 12 0 0 4 -12 0 z" style="fill:#dc322f"/>
</svg>
