<svg viewBox="0 0 24 24" xmlns="http://www.w3.org/2000/svg">
 <g transform="matrix(1 0 0 1 1 1)" style="fill:#268bd2">
  <path d="m 2 6 c -2 0 -2 0 -2 2 l 0 12 c 0 2 0 2 2 2 l 18 0 c 2 0 2 0 2 -2 0 -4.426 0 -9.441 0 -12 0 -2 0 -2 -2 -2 z"/>
  <path d="m 2,22 18,0 c 2,0 2,0 2,-2 L 22,8 0,20 c 0,2 0,2 2,2 z"/>
 </g>
 <g transform="matrix(1 0 0 1 1 1)">
  <path style="fill-opacity:0.1" d="m 2,22 18,0 c 2,0 2,0 2,-2 L 22,8 0,20 c 0,2 0,2 2,2 z"/>
  <path style="fill:#268bd2" d="M 20,22 2,22 C 0,22 0,22 0,20 L 0,8 22,20 c 0,2 0,2 -2,2 z"/>
  <path style="fill:#fff;fill-opacity:0.102" d="M 0,8 11,14 22,8 C 22,6 22,6 20,6 L 2,6 C 0,6 0,6 0,8 z"/>
  <path style="fill:#f27d0c" d="m 10,4 c -3,12 3,11 8,15 1,-3 0,-3 0,-4 0,0 1,-2 3,1 C 21,14 25,9 18,3 18,6 16,6 16,6 15,5 15,4 15,3 15,2 15,0 15,0 13,1 12,3 12,5 l 0,2 c 0,0 -1,0 -2,-3 z"/>
  <path style="fill:#dc322f;fill-rule:evenodd" d="m 13.749 21.359 c 0 0.176 0.023 0.379 0.063 0.605 0.32 0.047 0.59 0.031 0.828 0 0.078 0 0.152 0.012 0.223 0 0.238 -0.027 0.469 -0.113 0.672 -0.285 0.066 -0.059 0.125 -0.113 0.188 -0.191 0.375 -0.348 0.727 -0.723 1.086 -1.086 l 1.082 -1.082 c 0.355 0.363 0.723 0.719 1.082 1.082 0.359 0.363 0.715 0.73 1.082 1.086 0.055 0.074 0.129 0.137 0.191 0.191 0.074 0.066 0.145 0.117 0.223 0.16 0.148 0.074 0.313 0.105 0.477 0.125 c 0.105 0.016 0.211 0.035 0.32 0.035 c 0.051 0 0.105 0 0.16 0 0.184 -0.008 0.359 -0.031 0.539 -0.035 0.027 -0.18 0.031 -0.355 0.035 -0.508 0 -0.031 0 -0.066 0 -0.098 -0.004 -0.07 -0.027 -0.125 -0.035 -0.191 0 -0.012 0.004 -0.02 0 -0.031 -0.012 -0.328 -0.055 -0.637 -0.285 -0.895 -0.059 -0.066 -0.113 -0.125 -0.191 -0.191 l -2.164 -2.168 2.164 -2.168 c 0.074 -0.055 0.137 -0.133 0.191 -0.191 0.066 -0.074 0.117 -0.145 0.16 -0.223 0.074 -0.145 0.105 -0.293 0.125 -0.449 0.023 -0.176 0.039 -0.355 0.035 -0.543 -0.004 -0.152 -0.008 -0.324 -0.035 -0.508 -0.332 -0.059 -0.598 -0.063 -0.828 -0.031 -0.086 0 -0.168 0.016 -0.254 0.031 -0.305 0.047 -0.609 0.172 -0.828 0.477 c -0.375 0.348 -0.723 0.723 -1.082 1.086 l -1.082 1.086 -2.168 -2.172 c -0.063 -0.078 -0.121 -0.133 -0.188 -0.191 -0.074 -0.063 -0.148 -0.117 -0.227 -0.16 -0.129 -0.066 -0.266 -0.105 -0.41 -0.125 -0.012 -0.004 -0.023 0 -0.035 0 -0.293 -0.07 -0.629 -0.059 -1.051 0 -0.055 0.336 -0.059 0.598 -0.031 0.828 0.012 0.082 0.008 0.18 0.031 0.254 0.012 0.035 0.023 0.066 0.031 0.098 0.059 0.27 0.172 0.535 0.449 0.734 0.348 0.375 0.719 0.723 1.082 1.082 0.363 0.359 0.719 0.73 1.082 1.086 -0.363 0.348 -0.727 0.695 -1.082 1.055 -0.008 0.004 0.004 0.023 0 0.031 -0.363 0.359 -0.734 0.711 -1.082 1.082 -0.078 0.055 -0.137 0.133 -0.191 0.191 -0.039 0.043 -0.066 0.082 -0.098 0.129 -0.016 0.023 -0.051 0.039 -0.063 0.063 -0.004 0.012 0.004 0.023 0 0.035 -0.066 0.129 -0.105 0.27 -0.129 0.414 0 0.02 0.004 0.043 0 0.063 -0.031 0.129 -0.063 0.262 -0.063 0.414 z"/>
 </g>
</svg>
