<svg width="24" xmlns="http://www.w3.org/2000/svg" height="24" viewBox="0 0 24 24">
<g style="fill-rule:evenodd" transform="translate(1.00017 1)">
<path style="fill:#859900" d="M 11.042543,7.8539947 4.1675426,13.353994 c -1.378907,1.378906 -1.375,1.375 0,2.75 l 6.8750004,5.5 c 0.957031,0.767582 0.957031,0.482666 0.957031,-1.415042 0.01953,-0.6875 0.04297,-1.459958 0,-2.459958 0.01563,0 -0.01563,0 0,0 C 18.831606,17.728994 22.042969,8.5429683 22,3 c -2.707031,2.7929693 -5.875425,8.814933 -10.000426,8.728994 0,-0.984374 0.01953,-1.335936 0,-1.9999994 0,-1 0,-2.5543472 -0.957031,-1.8749999 z"/>
<path style="fill-opacity:.1" d="M 11.042543,7.8539947 4.1675426,13.353994 c -1.378907,1.378906 -1.375,1.375 0,2.75 l 6.8750004,5.5 c 0.957031,0.767582 0.957031,0.482666 0.957031,-1.415042 0.01953,-0.6875 0.04297,-1.459958 0,-2.459958 0.01563,0 -0.01563,0 0,0 C 18.831606,17.728994 22.042969,8.5429683 22,3 c -2.707031,2.7929693 -5.875425,8.814933 -10.000426,8.728994 0,-0.984374 0.01953,-1.335936 0,-1.9999994 0,-1 0,-2.5543472 -0.957031,-1.8749999 z"/>
<path style="fill:#859900" d="M 11.042543,3.1099945 4.1675426,8.6099944 c -1.378907,1.3789058 -1.375,1.3749998 0,2.7499996 l 6.8750004,5.5 c 0.957031,0.767582 0.957031,0.482666 0.957031,-1.415042 0.01953,-0.6875 0.04297,-1.459958 0,-2.459958 0.01563,0 -0.01563,0 0,0 6.832032,0 10.04297,-4.3749996 10.000001,-9.9179685 -2.707031,2.7929689 -5.875,4.003907 -10.000001,3.917969 0,-0.9843741 0.01953,-1.3359371 0,-2.0000001 0,-1 0,-2.5543472 -0.957031,-1.8749999 z"/>
</g>
</svg>
