<svg xmlns="http://www.w3.org/2000/svg" width="24" height="24">
 <path d="m 5.000007,5.0000437 14,0 c 3.968772,0 4,0 4,4 l 0,6.0000003 c 0,4 0,4 -4,4 -2,0 -2,0 -3.53906,0 0.516714,0.441885 0.887979,1.095639 0.618197,1.810379 -0.286477,1.038111 -1.784267,1.296268 -2.426854,0.44638 -1.197394,-1.207566 -1.861658,-2.390162 -3.027283,-3.62879 1.235416,-1.306497 1.964229,-2.56267 3.237035,-3.832319 0.835946,-0.773025 2.384056,-0.07948 2.318362,1.07224 0.02698,0.598552 -0.346096,0.752046 -0.735082,1.13211 1.554685,0 1.554685,0 3.554685,0 1,0 1,0 1,-1 l 0,-6.0000003 c 0,-1.0009001 0,-1 -1,-1 -3.151416,0 -14,0 -14,0 -1,0 -1,-9.001e-4 -1,1 l 0,6.0000003 c 0,1 0,1 1,1 l 2,0 c 1,0 1,0 1.0115653,1.030206 -0.011872,0.322195 -0.00511,0.658801 -0.011565,0.969794 0,1 3.63e-5,1 -1,1 l -2,0 c -4,0 -4,0 -4,-4 l 0,-6.0000003 c 0,-4 -0.0309021,-4 4,-4 z" fill="#268bd2" color="#bebebe"/>
</svg>
