
<!-- Created with Inkscape (http://www.inkscape.org/) -->
<svg xmlns="http://www.w3.org/2000/svg" viewBox="0 0 24 24">
 <rect y="6.5" x="5" style="fill:#3daee9;opacity:1;fill-opacity:1;stroke:none;fill-rule:nonzero" width="1" height="11"/>
 <rect y="-17.5" x="5" transform="matrix(0 1 -1 0 0 0)" style="fill:#3daee9;opacity:1;fill-opacity:1;stroke:none;fill-rule:nonzero" width="1" height="11"/>
 <circle cy="5" cx="5" style="stroke-dasharray:none;stroke-opacity:1;fill:none;opacity:1;stroke-miterlimit:4;stroke:#313131;stroke-linecap:butt;stroke-linejoin:round;stroke-width:1;stroke-dashoffset:0" r="1.5"/>
 <rect y="6.5" x="18" style="fill:#3daee9;opacity:1;fill-opacity:1;stroke:none;fill-rule:nonzero" width="1" height="6.5"/>
 <rect y="3.5" x="17.5" style="stroke-dasharray:none;stroke-opacity:1;fill:none;opacity:1;stroke-miterlimit:4;stroke:#313131;stroke-linecap:butt;stroke-linejoin:miter;stroke-width:1;stroke-dashoffset:0" width="3" height="3"/>
 <rect y="-13" x="18" transform="matrix(0 1 -1 0 0 0)" style="fill:#3daee9;opacity:1;fill-opacity:1;stroke:none;fill-rule:nonzero" width="1" height="6.5"/>
 <rect y="17.5" x="3.5" style="stroke-dasharray:none;stroke-opacity:1;fill:none;opacity:1;stroke-miterlimit:4;stroke:#313131;stroke-linecap:butt;stroke-linejoin:miter;stroke-width:1;stroke-dashoffset:0" width="3" height="3"/>
 <path style="fill:#859900" d="m 23 17 -3 0 0 -3 -3 0 0 3 -3 0 0 3 3 0 0 3 3 0 0 -3 3 0 z"/>
</svg>
