
<!-- Created with Inkscape (http://www.inkscape.org/) -->
<svg xmlns="http://www.w3.org/2000/svg" viewBox="0 0 24 24">
 <rect style="fill:#3daee9;opacity:1;fill-opacity:1;stroke:none;fill-rule:nonzero" width="1" height="11" x="5" y="6.5"/>
 <rect style="fill:#3daee9;opacity:1;fill-opacity:1;stroke:none;fill-rule:nonzero" width="1" height="11" x="5" transform="matrix(0 1 -1 0 0 0)" y="-17.5"/>
 <circle r="1.5" style="stroke-dasharray:none;stroke-opacity:1;fill:none;opacity:1;stroke-miterlimit:4;stroke:#313131;stroke-linecap:butt;stroke-linejoin:round;stroke-width:1;stroke-dashoffset:0" cx="5" cy="5"/>
 <rect style="fill:#3daee9;opacity:1;fill-opacity:1;stroke:none;fill-rule:nonzero" width="1" height="6.5" x="18" y="6.5"/>
 <rect style="stroke-dasharray:none;stroke-opacity:1;fill:none;opacity:1;stroke-miterlimit:4;stroke:#313131;stroke-linecap:butt;stroke-linejoin:miter;stroke-width:1;stroke-dashoffset:0" width="3" height="3" x="17.5" y="3.5"/>
 <rect style="fill:#3daee9;opacity:1;fill-opacity:1;stroke:none;fill-rule:nonzero" width="1" height="6.5" transform="matrix(0 1 -1 0 0 0)" x="18" y="-13"/>
 <rect style="stroke-dasharray:none;stroke-opacity:1;fill:none;opacity:1;stroke-miterlimit:4;stroke:#313131;stroke-linecap:butt;stroke-linejoin:miter;stroke-width:1;stroke-dashoffset:0" width="3" height="3" x="3.5" y="17.5"/>
 <path d="m 22.743 20.621 -2.121 -2.121 2.121 -2.121 -2.121 -2.121 -2.121 2.121 -2.121 -2.121 -2.121 2.121 2.121 2.121 -2.121 2.121 2.121 2.121 2.121 -2.121 l 2.121 2.121 z" style="fill:#dc322f;fill-opacity:1"/>
</svg>
