<svg viewBox="0 0 24 24" xmlns="http://www.w3.org/2000/svg">
 <rect style="fill:#3daee9;opacity:1;fill-opacity:1;stroke:none;fill-rule:nonzero" y="-10.5" x="4" height="5.5" width="1" transform="matrix(0 1 -1 0 0 0)"/>
 <rect style="fill:#3daee9;opacity:1;fill-opacity:1;stroke:none;fill-rule:nonzero" y="-9" x="19" height="3.25" transform="matrix(0 1 -1 0 0 0)" width="1"/>
 <rect style="stroke-dasharray:none;stroke-opacity:1;fill:none;opacity:1;stroke-miterlimit:4;stroke:#313131;stroke-linecap:butt;stroke-linejoin:miter;stroke-width:1;stroke-dashoffset:0" y="18.5" x="3.5" height="2" width="2"/>
 <path style="fill:#cb4b16" d="m 12 14 3 -4 -6 0 z"/>
 <rect style="fill:#3daee9;opacity:1;fill-opacity:1;stroke:none;fill-rule:nonzero" y="-18.25" x="19" height="3.25" width="1" transform="matrix(0 1 -1 0 0 0)"/>
 <rect style="stroke-dasharray:none;stroke-opacity:1;fill:none;opacity:1;stroke-miterlimit:4;stroke:#313131;stroke-linecap:butt;stroke-linejoin:miter;stroke-width:1;stroke-dashoffset:0" y="18.5" x="18.5" height="2" width="2"/>
 <rect style="fill:#3daee9;opacity:1;fill-opacity:1;stroke:none;fill-rule:nonzero" y="-19" x="4" height="5.5" transform="matrix(0 1 -1 0 0 0)" width="1"/>
 <rect transform="matrix(1 0 0 -1 0 0)" height="3" y="-5.5" x="10.5" width="3" style="stroke-dasharray:none;stroke-opacity:1;fill:none;opacity:1;stroke-miterlimit:4;stroke:#313131;stroke-linecap:butt;stroke-linejoin:miter;stroke-width:1;stroke-dashoffset:0"/>
</svg>
