<svg xmlns="http://www.w3.org/2000/svg" viewBox="0 0 24 24">
 <g transform="matrix(0.55556,0,0,0.55556,-1.33336,11.99992)">
  <path d="m 8.06 -18 c -1.029 0 -2.057 1.029 -2.057 2.057 l 0 31.943 c 0 0.971 1.029 2 2 2 l 32 0 c 0.971 0 2 -1.029 2 -2 l 0 -32 c 0 -0.971 -1.029 -2 -2 -2 z" style="fill:#c19553"/>
 </g>
 <g transform="matrix(0.55556,0,0,0.55556,-1.33336,-1.33341)" style="fill:#fff">
  <path d="m 8.06 6 c -1.029 0 -2.057 1.029 -2.057 2.057 l 0 10.543 c 4 0 32 0 36 0 l 0 -10.6 c 0 -0.971 -1.029 -2 -2 -2 z" style="fill-opacity:0.196"/>
  <path d="m 20.4 9.6 0 16.2 l 7.2 0 0 -16.2 z" style="fill-opacity:0.392"/>
 </g>
 <g transform="matrix(0.5,0,0,0.5,12.5,11.5)">
  <path d="m 21 13 c 0 5.522 -4.478 10 -10 10 -5.522 0 -10 -4.478 -10 -10 0 -5.522 4.478 -10 10 -10 5.522 0 10 4.478 10 10 z" style="fill:#859900;fill-rule:evenodd"/>
 </g>
 <g transform="matrix(0.466665,0,0,0.48,12.866665,12.72)" style="fill:#fff;fill-opacity:0.902">
  <path d="m 17.09 8.507 c -1.055 -2.287 -3.416 -3.757 -6.076 -3.757 -2.72 0 -5.21 1.609 -6.19 3.999 l 2.063 0.753 c 0.653 -1.598 2.312 -2.667 4.126 -2.667 1.751 0 3.299 0.955 4.02 2.447 l -1.506 0.568 3.849 2.092 1.126 -3.963 z"/>
  <path d="m 11.01 15.169 c -1.737 0 -3.317 -0.987 -4.02 -2.468 l 1.481 -0.54 -3.807 -2.049 -1.165 3.86 1.42 -0.518 c 1.033 2.28 3.452 3.796 6.094 3.796 c 2.731 0 5.149 -1.545 6.161 -3.935 l -2.053 -0.771 c -0.675 1.594 -2.287 2.624 -4.109 2.624 z"/>
 </g>
</svg>
