<svg xmlns="http://www.w3.org/2000/svg" viewBox="0 0 24 24">
 <path d="m 3.143 2 c -0.571 0 -1.143 0.571 -1.143 1.143 l 0 17.746 c 0 0.54 0.571 1.111 1.111 1.111 l 17.778 0 c 0.54 0 1.111 -0.571 1.111 -1.111 l 0 -17.778 c 0 -0.54 -0.571 -1.111 -1.111 -1.111 z" style="fill:#c19553"/>
 <path d="m 3.143 2 c -0.571 0 -1.143 0.571 -1.143 1.143 l 0 5.857 c 2.222 0 17.778 0 20 0 l 0 -5.889 c 0 -0.54 -0.571 -1.111 -1.111 -1.111 z" style="fill:#fff;fill-opacity:0.196"/>
 <path d="m 10 4 0 9 4 0 0 -9 z" style="fill:#fff;fill-opacity:0.392"/>
 <path d="m 18.774 14 c -0.745 -0.003 -1.164 2.63 -1.768 3.064 -0.604 0.434 -3.233 -0.009 -3.466 0.696 -0.233 0.706 2.146 1.915 2.373 2.623 0.227 0.708 -0.996 3.066 -0.395 3.505 0.601 0.439 2.489 -1.442 3.234 -1.439 0.745 0.003 2.606 1.92 3.21 1.486 0.604 -0.435 -0.605 -2.823 -0.372 -3.529 0.233 -0.706 2.623 -1.893 2.396 -2.6 -0.227 -0.708 -2.865 -0.28 -3.466 -0.72 -0.601 -0.439 -1 -3.085 -1.745 -3.088 z" style="fill:#f1c40f;fill-opacity:1;color:#000"/>
</svg>
