<svg xmlns="http://www.w3.org/2000/svg" viewBox="0 0 24 24">
 <path d="m 3.143 2 c -0.571 0 -1.143 0.571 -1.143 1.143 l 0 17.746 c 0 0.54 0.571 1.111 1.111 1.111 l 17.778 0 c 0.54 0 1.111 -0.571 1.111 -1.111 l 0 -17.778 c 0 -0.54 -0.571 -1.111 -1.111 -1.111 z" style="fill:#c19553"/>
 <path d="m 3.143 2 c -0.571 0 -1.143 0.571 -1.143 1.143 l 0 5.857 c 2.222 0 17.778 0 20 0 l 0 -5.889 c 0 -0.54 -0.571 -1.111 -1.111 -1.111 z" style="fill:#fff;fill-opacity:0.196"/>
 <path d="m 10 4 0 9 4 0 0 -9 z" style="fill:#fff;fill-opacity:0.392"/>
 <path d="m 24 19 a 5 5 0 0 1 -10 0 5 5 0 1 1 10 0 z" style="fill:#dc322f;fill-opacity:1;fill-rule:evenodd"/>
 <g transform="matrix(-0.5,0,0,-0.66666667,25,27.500009)">
  <path d="m 14 18 -4 0 0 -6 4 0 0 6" style="fill:#fff;fill-opacity:0.9"/>
 </g>
 <g transform="matrix(-0.49999884,0,0,-0.49999884,25.000004,25.499984)" style="fill-rule:evenodd">
  <path d="m 13.169 7.627 c 0 0.955 -0.717 1.729 -1.602 1.729 -0.885 0 -1.602 -0.774 -1.602 -1.729 0 -0.955 0.717 -1.729 1.602 -1.729 0.885 0 1.602 0.774 1.602 1.729 z" transform="matrix(1.24868,0,0,1.15686,-2.44444,-0.82353)" style="fill:#fff;fill-opacity:0.9"/>
 </g>
</svg>
