<svg xmlns="http://www.w3.org/2000/svg" viewBox="0 0 24 24">
 <g transform="matrix(0.81818182,0,0,0.81249997,0.99999998,-3.874999)" style="fill:#268bd2">
  <path d="m 2 6 c -2 0 -2 0 -2 2 l 0 12 c 0 2 0 2 2 2 l 18 0 c 2 0 2 0 2 -2 0 -4.426 0 -9.441 0 -12 0 -2 0 -2 -2 -2 z"/>
  <path d="m 2,22 18,0 c 2,0 2,0 2,-2 L 22,8 0,20 c 0,2 0,2 2,2 z"/>
 </g>
 <path d="m 2.636 14 14.727 0 c 1.636 0 1.636 0 1.636 -1.625 l 0 -9.75 -18 9.75 c 0 1.625 0 1.625 1.636 1.625" style="fill-opacity:0.1"/>
 <path d="m 17.364 14 -14.727 0 c -1.636 0 -1.636 0 -1.636 -1.625 l 0 -9.75 l 18 9.75 c 0 1.625 0 1.625 -1.636 1.625" style="fill:#268bd2"/>
 <path d="m 1 2.625 9 4.875 9 -4.875 c 0 -1.625 0 -1.625 -1.636 -1.625 l -14.727 0 c -1.636 0 -1.636 0 -1.636 1.625 z" style="fill:#fff;fill-opacity:0.102"/>
 <g transform="matrix(0.81818182,0,0,0.81249997,5,5.1250007)" style="fill:#268bd2">
  <path d="m 2 6 c -2 0 -2 0 -2 2 l 0 12 c 0 2 0 2 2 2 l 18 0 c 2 0 2 0 2 -2 0 -4.426 0 -9.441 0 -12 0 -2 0 -2 -2 -2 z"/>
  <path d="m 2,22 18,0 c 2,0 2,0 2,-2 L 22,8 0,20 c 0,2 0,2 2,2 z"/>
 </g>
 <path d="m 6.636 23 14.727 0 c 1.636 0 1.636 0 1.636 -1.625 l 0 -9.75 -18 9.75 c 0 1.625 0 1.625 1.636 1.625" style="fill-opacity:0.1"/>
 <path d="M 21.363637,23 6.6363637,23 C 5,23 5,23 5,21.375001 l 0,-9.75 18,9.75 C 23,23 23,23 21.363637,23 Z" style="fill:#268bd2"/>
 <path d="M 5,11.625001 14,16.5 23,11.625001 C 23,10 23,10 21.363637,10 L 6.6363637,10 C 5,10 5,10 5,11.625001 Z" style="fill:#fff;fill-opacity:0.102"/>
 <path d="m 20.562 7.457 c 1.027 4.615 0.75 4.04 -3.078 2.098 -4.02 2.119 -3.875 2.297 -3.047 -2.143 -3.613 -3.125 -3.199 -2.845 1.188 -3.421 1.977 -4.14 1.809 -3.843 3.789 0.028 4.629 0.536 4.52 0.353 1.148 3.438 z" style="fill:#cb4b16;fill-rule:evenodd"/>
</svg>
