<svg xmlns="http://www.w3.org/2000/svg" viewBox="0 0 24 24">
 <path d="m 18,5 c 1,0 1,0 1,1 l 0,14 c 0,1 0,1 -1,1 L 6,21 C 5,21 5,21 5,20 L 5,6 C 5,5 5,5 6,5" style="fill:#e6b07f;fill-opacity:1;stroke:none;fill-rule:evenodd"/>
 <path d="m 17 5 -10 0 l 0 14 10 0" style="fill:#fff;fill-opacity:1;stroke:none;fill-rule:nonzero"/>
 <path d="m 8 3 0 3.071 8 0 l 0 -3.071" style="fill:#aaa;fill-opacity:1;stroke:none;fill-rule:nonzero"/>
 <path d="m 11 12.982 3.529 -3.529 1.512 1.512 -5.04 5.04 c -1.034 -1.034 -1.991 -1.997 -3.02 -3.03 l 1.512 -1.506" style="fill:#888"/>
</svg>
