<svg width="24" xmlns="http://www.w3.org/2000/svg" height="24" viewBox="0 0 24 24">
<g transform="translate(1 .99887)">
<path style="fill:#888" d="m 5.1562495,5 c -0.2002833,0 -0.375,0.1747156 -0.375,0.375 l 0,0.9375 C 4.3380676,6.4275571 3.9460233,6.6448858 3.5625,6.875 L 2.8593753,6.125 c -0.1406248,-0.1406247 -0.375,-0.1406247 -0.5156248,0 L 1.125,7.3437505 c -0.14062473,0.1406248 -0.14062473,0.375 0,0.5156248 L 1.875,8.5625 C 1.6448858,8.9460233 1.4275571,9.3380676 1.3125,9.7812495 l -0.9375,0 C 0.17471564,9.7812495 0,9.9559662 0,10.15625 l 0,1.687501 c 0,0.200283 0.17471564,0.375 0.375,0.375 l 0.9375,0 c 0.1150571,0.443181 0.3323858,0.835226 0.5625,1.218749 l -0.75,0.703125 c -0.14062473,0.140624 -0.14062473,0.375 0,0.515624 L 2.3437505,15.875 c 0.1406248,0.140625 0.375,0.140625 0.5156248,0 L 3.5625,15.125 c 0.3835233,0.230114 0.7755676,0.447443 1.2187495,0.5625 l 0,0.9375 c 0,0.200284 0.1747167,0.375 0.375,0.375 l 1.687501,0 c 0.2002833,0 0.375,-0.174716 0.375,-0.375 l 0,-0.9375 C 7.6619324,15.572443 8.0539767,15.355114 8.4375,15.125 l 0.7031247,0.75 c 0.1406248,0.140625 0.375,0.140625 0.5156248,0 L 10.875,14.656249 c 0.140625,-0.140624 0.140625,-0.375 0,-0.515624 L 10.125,13.4375 c 0.230114,-0.383523 0.447443,-0.775568 0.5625,-1.218749 l 0.9375,0 c 0.200284,0 0.375,-0.174717 0.375,-0.375 L 12,10.15625 C 12,9.9559662 11.825284,9.7812495 11.625,9.7812495 l -0.9375,0 C 10.572443,9.3380676 10.355114,8.9460233 10.125,8.5625 l 0.75,-0.7031247 c 0.140625,-0.1406248 0.140625,-0.375 0,-0.5156248 L 9.6562495,6.125 c -0.1406248,-0.1406247 -0.375,-0.1406247 -0.5156248,0 L 8.4375,6.875 C 8.0539767,6.6448858 7.6619324,6.4275571 7.2187505,6.3125 l 0,-0.9375 C 7.2187505,5.1747156 7.0440338,5 6.8437505,5 z M 6,9.5 c 0.826704,0 1.5,0.673296 1.5,1.5 0,0.826704 -0.673296,1.5 -1.5,1.5 C 5.173296,12.5 4.5,11.826704 4.5,11 4.5,10.173296 5.173296,9.5 6,9.5 z"/>
<path style="fill-opacity:.102" d="m 5.1562495,5 c -0.2002833,0 -0.375,0.1747156 -0.375,0.375 l 0,0.9375 C 4.3380676,6.4275571 3.9460233,6.6448858 3.5625,6.875 L 2.8593753,6.125 c -0.1406248,-0.1406247 -0.375,-0.1406247 -0.5156248,0 L 1.125,7.3437505 c -0.1406247,0.1406248 -0.1406247,0.375 0,0.5156248 L 1.875,8.5625 C 1.6448858,8.9460233 1.4275571,9.3380676 1.3125,9.7812495 l -0.9375,0 C 0.1747156,9.7812495 0,9.9559662 0,10.15625 l 0,1.687501 c 0,0.200283 0.1747156,0.375 0.375,0.375 l 0.9375,0 c 0.1150571,0.443181 0.3323858,0.835226 0.5625,1.218749 l -0.75,0.703125 c -0.1406247,0.140624 -0.1406247,0.375 0,0.515624 L 2.3437505,15.875 c 0.1406248,0.140625 0.375,0.140625 0.5156248,0 L 3.5625,15.125 c 0.3835233,0.230114 0.7755676,0.447443 1.2187495,0.5625 l 0,0.9375 c 0,0.200284 0.1747167,0.375 0.375,0.375 l 1.687501,0 c 0.2002833,0 0.375,-0.174716 0.375,-0.375 l 0,-0.9375 C 7.6619324,15.572443 8.0539767,15.355114 8.4375,15.125 l 0.7031247,0.75 c 0.1406248,0.140625 0.375,0.140625 0.5156248,0 L 10.875,14.656249 c 0.140625,-0.140624 0.140625,-0.375 0,-0.515624 L 10.125,13.4375 c 0.230114,-0.383523 0.447443,-0.775568 0.5625,-1.218749 l 0.9375,0 c 0.200284,0 0.375,-0.174717 0.375,-0.375 L 12,10.15625 C 12,9.9559662 11.825284,9.7812495 11.625,9.7812495 l -0.9375,0 C 10.572443,9.3380676 10.355114,8.9460233 10.125,8.5625 l 0.75,-0.7031247 c 0.140625,-0.1406248 0.140625,-0.375 0,-0.5156248 L 9.6562495,6.125 c -0.1406248,-0.1406247 -0.375,-0.1406247 -0.5156248,0 L 8.4375,6.875 C 8.0539767,6.6448858 7.6619324,6.4275571 7.2187505,6.3125 l 0,-0.9375 C 7.2187505,5.1747156 7.0440338,5 6.8437505,5 z M 6,9.5 c 0.826704,0 1.5,0.673296 1.5,1.5 0,0.826704 -0.673296,1.5 -1.5,1.5 C 5.173296,12.5 4.5,11.826704 4.5,11 4.5,10.173296 5.173296,9.5 6,9.5 z"/>
</g>
<g transform="translate(11 -4.00113)">
<path style="fill:#888" d="m 5.1562495,5 c -0.2002833,0 -0.375,0.1747156 -0.375,0.375 l 0,0.9375 C 4.3380676,6.4275571 3.9460233,6.6448858 3.5625,6.875 L 2.8593753,6.125 c -0.1406248,-0.1406247 -0.375,-0.1406247 -0.5156248,0 L 1.125,7.3437505 c -0.14062473,0.1406248 -0.14062473,0.375 0,0.5156248 L 1.875,8.5625 C 1.6448858,8.9460233 1.4275571,9.3380676 1.3125,9.7812495 l -0.9375,0 C 0.17471564,9.7812495 0,9.9559662 0,10.15625 l 0,1.687501 c 0,0.200283 0.17471564,0.375 0.375,0.375 l 0.9375,0 c 0.1150571,0.443181 0.3323858,0.835226 0.5625,1.218749 l -0.75,0.703125 c -0.14062473,0.140624 -0.14062473,0.375 0,0.515624 L 2.3437505,15.875 c 0.1406248,0.140625 0.375,0.140625 0.5156248,0 L 3.5625,15.125 c 0.3835233,0.230114 0.7755676,0.447443 1.2187495,0.5625 l 0,0.9375 c 0,0.200284 0.1747167,0.375 0.375,0.375 l 1.687501,0 c 0.2002833,0 0.375,-0.174716 0.375,-0.375 l 0,-0.9375 C 7.6619324,15.572443 8.0539767,15.355114 8.4375,15.125 l 0.7031247,0.75 c 0.1406248,0.140625 0.375,0.140625 0.5156248,0 L 10.875,14.656249 c 0.140625,-0.140624 0.140625,-0.375 0,-0.515624 L 10.125,13.4375 c 0.230114,-0.383523 0.447443,-0.775568 0.5625,-1.218749 l 0.9375,0 c 0.200284,0 0.375,-0.174717 0.375,-0.375 L 12,10.15625 C 12,9.9559662 11.825284,9.7812495 11.625,9.7812495 l -0.9375,0 C 10.572443,9.3380676 10.355114,8.9460233 10.125,8.5625 l 0.75,-0.7031247 c 0.140625,-0.1406248 0.140625,-0.375 0,-0.5156248 L 9.6562495,6.125 c -0.1406248,-0.1406247 -0.375,-0.1406247 -0.5156248,0 L 8.4375,6.875 C 8.0539767,6.6448858 7.6619324,6.4275571 7.2187505,6.3125 l 0,-0.9375 C 7.2187505,5.1747156 7.0440338,5 6.8437505,5 z M 6,9.5 c 0.826704,0 1.5,0.673296 1.5,1.5 0,0.826704 -0.673296,1.5 -1.5,1.5 C 5.173296,12.5 4.5,11.826704 4.5,11 4.5,10.173296 5.173296,9.5 6,9.5 z"/>
<path style="fill-opacity:.102" d="m 5.1562495,5 c -0.2002833,0 -0.375,0.1747156 -0.375,0.375 l 0,0.9375 C 4.3380676,6.4275571 3.9460233,6.6448858 3.5625,6.875 L 2.8593753,6.125 c -0.1406248,-0.1406247 -0.375,-0.1406247 -0.5156248,0 L 1.125,7.3437505 c -0.1406247,0.1406248 -0.1406247,0.375 0,0.5156248 L 1.875,8.5625 C 1.6448858,8.9460233 1.4275571,9.3380676 1.3125,9.7812495 l -0.9375,0 C 0.1747156,9.7812495 0,9.9559662 0,10.15625 l 0,1.687501 c 0,0.200283 0.1747156,0.375 0.375,0.375 l 0.9375,0 c 0.1150571,0.443181 0.3323858,0.835226 0.5625,1.218749 l -0.75,0.703125 c -0.1406247,0.140624 -0.1406247,0.375 0,0.515624 L 2.3437505,15.875 c 0.1406248,0.140625 0.375,0.140625 0.5156248,0 L 3.5625,15.125 c 0.3835233,0.230114 0.7755676,0.447443 1.2187495,0.5625 l 0,0.9375 c 0,0.200284 0.1747167,0.375 0.375,0.375 l 1.687501,0 c 0.2002833,0 0.375,-0.174716 0.375,-0.375 l 0,-0.9375 C 7.6619324,15.572443 8.0539767,15.355114 8.4375,15.125 l 0.7031247,0.75 c 0.1406248,0.140625 0.375,0.140625 0.5156248,0 L 10.875,14.656249 c 0.140625,-0.140624 0.140625,-0.375 0,-0.515624 L 10.125,13.4375 c 0.230114,-0.383523 0.447443,-0.775568 0.5625,-1.218749 l 0.9375,0 c 0.200284,0 0.375,-0.174717 0.375,-0.375 L 12,10.15625 C 12,9.9559662 11.825284,9.7812495 11.625,9.7812495 l -0.9375,0 C 10.572443,9.3380676 10.355114,8.9460233 10.125,8.5625 l 0.75,-0.7031247 c 0.140625,-0.1406248 0.140625,-0.375 0,-0.5156248 L 9.6562495,6.125 c -0.1406248,-0.1406247 -0.375,-0.1406247 -0.5156248,0 L 8.4375,6.875 C 8.0539767,6.6448858 7.6619324,6.4275571 7.2187505,6.3125 l 0,-0.9375 C 7.2187505,5.1747156 7.0440338,5 6.8437505,5 z M 6,9.5 c 0.826704,0 1.5,0.673296 1.5,1.5 0,0.826704 -0.673296,1.5 -1.5,1.5 C 5.173296,12.5 4.5,11.826704 4.5,11 4.5,10.173296 5.173296,9.5 6,9.5 z"/>
</g>
<g transform="translate(1 .99887)">
<path style="fill:#888" d="m 13.648471,8.0015648 c -0.0518,-0.00398 -0.07571,0.019906 -0.131488,0.043795 l -1.884654,0.744511 c -0.215161,0.091571 -0.306804,0.3941535 -0.219146,0.6131278 l 0.394462,1.0948704 c -0.434307,0.32647 -0.733142,0.672847 -1.0519,1.09487 L 9.6600158,11.110996 c -0.2151609,-0.09157 -0.5219648,0.04379 -0.6136079,0.262769 l -0.7450962,1.795588 c -0.087658,0.218973 0.047814,0.477761 0.2629756,0.569332 l 1.0957285,0.481743 c -0.07172,0.521556 -0.075704,1.039131 0,1.576612 l -1.0957285,0.481744 c -0.215162,0.09157 -0.306805,0.262768 -0.2191462,0.481743 l 0.7012668,1.883176 c 0.091643,0.218974 0.398447,0.310546 0.6136079,0.218974 L 10.755745,18.42473 c 0.326727,0.433966 0.717205,0.776362 1.139559,1.094869 l -0.482121,1.094871 c -0.08766,0.218974 0.004,0.521556 0.219146,0.613128 l 1.884654,0.744511 c 0.219146,0.09157 0.394463,-0.04379 0.482122,-0.262769 l 0.48212,-1.09487 c 0.52595,0.07565 1.043931,0.07565 1.57785,0 l 0.438293,1.09487 c 0.09164,0.218975 0.398446,0.310545 0.613608,0.218975 l 1.796996,-0.700717 c 0.219145,-0.09157 0.354617,-0.394154 0.262974,-0.613128 l -0.48212,-1.094871 c 0.434307,-0.32647 0.780956,-0.672847 1.095729,-1.094869 l 1.139559,0.437947 c 0.219146,0.09157 0.438292,0 0.525949,-0.218974 l 0.788925,-1.883176 c 0.09164,-0.218975 0,-0.390173 -0.219145,-0.481743 L 20.880284,15.79704 c 0.07571,-0.525536 0.0797,-1.039131 0,-1.576612 l 1.095729,-0.481743 c 0.219146,-0.09157 0.354619,-0.262769 0.262975,-0.481743 l -0.788925,-1.883177 c -0.08766,-0.218974 -0.350633,-0.35434 -0.569779,-0.262769 l -1.095729,0.481743 c -0.322741,-0.433967 -0.669391,-0.776362 -1.095729,-1.09487 l 0.48212,-1.1824594 c 0.09164,-0.2189743 -0.04383,-0.4339675 -0.262974,-0.5255387 l -1.796996,-0.744511 c -0.215162,-0.091571 -0.521966,0.043794 -0.613608,0.2627683 l -0.438293,1.0948705 c -0.521965,-0.075646 -1.039946,-0.075646 -1.57785,0 L 13.999105,8.3081282 C 13.931365,8.1448933 13.80785,8.009528 13.648471,8.0015648 z m 1.621679,4.2043012 c 1.549959,0 2.805067,1.254125 2.805067,2.802868 0,1.548744 -1.255108,2.802868 -2.805067,2.802868 -1.545974,0 -2.805067,-1.254124 -2.805067,-2.802868 0,-1.548743 1.259093,-2.802868 2.805067,-2.802868 z"/>
</g>
</svg>
