<svg style="enable-background:new" viewBox="0 0 24 24" xmlns="http://www.w3.org/2000/svg">
 <rect style="stroke-dasharray:none;stroke-opacity:1;fill:#ffde85;opacity:1;stroke-miterlimit:4;fill-opacity:1;stroke:#af8566;fill-rule:nonzero;stroke-linecap:square;stroke-linejoin:miter;stroke-width:1;stroke-dashoffset:4" transform="matrix(0.86603 -0.5 0.5 0.86603 0 0)" height="7" x="-5.108" y="12.892" width="19"/>
 <rect style="fill:#4d4d4d;opacity:1;fill-opacity:1;stroke:none;fill-rule:nonzero" transform="matrix(0.86603 -0.5 0.5 0.86603 0 0)" height="2" x="-1.608" y="12.392" width="1"/>
 <rect style="fill:#4d4d4d;opacity:1;fill-opacity:1;stroke:none;fill-rule:nonzero" transform="matrix(0.86603 -0.5 0.5 0.86603 0 0)" height="2" x="7.392" y="12.392" width="1"/>
 <rect style="fill:#4d4d4d;opacity:1;fill-opacity:1;stroke:none;fill-rule:nonzero" transform="matrix(0.86603 -0.5 0.5 0.86603 0 0)" height="4" x="10.392" y="12.392" width="1"/>
 <rect style="fill:#4d4d4d;opacity:1;fill-opacity:1;stroke:none;fill-rule:nonzero" transform="matrix(0.86603 -0.5 0.5 0.86603 0 0)" height="4" x="1.392" y="12.392" width="1"/>
 <rect style="fill:#4d4d4d;opacity:1;fill-opacity:1;stroke:none;fill-rule:nonzero" transform="matrix(0.86603 -0.5 0.5 0.86603 0 0)" height="2" x="4.392" y="12.392" width="1"/>
</svg>
