<svg xmlns="http://www.w3.org/2000/svg" viewBox="0 0 24 24">
 <path style="fill:#c3c3c3;opacity:1;fill-opacity:1;stroke:none" d="M 3,3 3,5 4,5 4,4 5,4 5,3 Z M 7,3 7,4 9,4 9,3 Z m 4,0 0,1 2,0 0,-1 z m 4,0 0,1 2,0 0,-1 z m 4,0 0,1 1,0 0,1 1,0 0,-2 z M 3,7 3,9 4,9 4,7 m 16,0 0,2 1,0 0,-2 z m -17,4 0,2 1,0 0,-2 z m 17,0 0,2 1,0 0,-2 z m 0,4 0,2 1,0 0,-2 z m 0,4 0,1 -1,0 0,1 2,0 0,-2 z m -9,1 0,1 2,0 0,-1 z m 4,0 0,1 2,0 0,-1 z"/>
 <rect height="6" width="6" y="14.5" x="-9.5" style="stroke-dasharray:none;stroke-opacity:1;fill:#fff;opacity:1;stroke-miterlimit:23.7;fill-opacity:1;stroke:#888;fill-rule:nonzero;stroke-linecap:butt;stroke-linejoin:miter;stroke-width:1;stroke-dashoffset:0" transform="matrix(-1 0 0 1 0 0)"/>
 <path style="stroke-opacity:1;fill:none;stroke:#6c71c4;stroke-linecap:butt;stroke-linejoin:miter;stroke-width:1" d="m 11.5 12.5 7.07 -7.07"/>
 <path style="fill:#6c71c4;fill-opacity:1;stroke:none;fill-rule:evenodd" d="m 11 9.464 0 3.535 3.535 0 z"/>
 <path style="fill:#6c71c4;fill-opacity:1;stroke:none;fill-rule:evenodd" d="m 19 8.536 0 -3.535 -3.535 0 z"/>
</svg>
