<svg xmlns="http://www.w3.org/2000/svg" viewBox="0 0 24 24">
 <path d="m 2 3 0 3.612 0 14.403 1 0.985 17.991 0 1 -0.985 0 -14.403 0 -3.612 -10 0" style="visibility:visible;fill:#dc322f;fill-opacity:1;stroke:none;display:inline;color:#000;fill-rule:nonzero"/>
 <path d="m 3 6.5 0 13.5 18 0 0 -13.5" style="visibility:visible;fill:#f4f4f4;fill-opacity:1;stroke:none;display:inline;color:#000;fill-rule:nonzero"/>
 <path d="m 4.05 10.25 c -0.166 0 -0.3 0.134 -0.3 0.3 l 0 2.4 c 0 0.166 0.134 0.3 0.3 0.3 l 11.4 0 c 0.166 0 0.3 -0.134 0.3 -0.3 l 0 -2.4 c 0 -0.166 -0.134 -0.3 -0.3 -0.3 z" mix-blend-mode="normal" isolation="auto" white-space="normal" solid-opacity="1" solid-color="#000000" style="visibility:visible;shape-rendering:auto;color-interpolation-filters:linearRGB;fill:#c28e5c;opacity:1;image-rendering:auto;fill-opacity:1;stroke:none;display:inline;color:#000;fill-rule:nonzero;color-rendering:auto;color-interpolation:sRGB"/>
 <path d="m 2.67 2 -0.67 0.352 0 1.148 5.836 0 6.55 0 7.615 0 0 -1.148 -0.67 -0.352 -6.945 0 -6.55 0 z" style="visibility:visible;fill:#dc7876;fill-opacity:1;stroke:none;display:inline;color:#000;fill-rule:nonzero"/>
 <rect width="1.5" height="4" x="5" y="1" style="visibility:visible;fill:#e4e4e4;fill-opacity:1;stroke:none;display:inline;color:#000;fill-rule:nonzero"/>
 <rect width="1.5" height="1.5" x="18" y="17" rx="0.375" style="fill:#777f8a;opacity:1;fill-opacity:1;stroke:none;fill-rule:nonzero"/>
 <rect width="1.5" height="1.5" x="13.5" y="17" rx="0.375" style="fill:#777f8a;opacity:1;fill-opacity:1;stroke:none;fill-rule:nonzero"/>
 <rect width="1.5" height="1.5" x="9" y="17" rx="0.375" style="fill:#777f8a;opacity:1;fill-opacity:1;stroke:none;fill-rule:nonzero"/>
 <rect width="1.5" height="1.5" x="18" y="8" rx="0.375" style="fill:#777f8a;opacity:1;fill-opacity:1;stroke:none;fill-rule:nonzero"/>
 <rect width="1.5" height="1.5" x="13.5" y="8" rx="0.375" style="fill:#777f8a;opacity:1;fill-opacity:1;stroke:none;fill-rule:nonzero"/>
 <rect width="1.5" height="1.5" x="9" y="8" rx="0.375" style="fill:#777f8a;opacity:1;fill-opacity:1;stroke:none;fill-rule:nonzero"/>
 <rect width="1.5" height="1.5" x="18" y="11" rx="0.375" style="fill:#777f8a;opacity:1;fill-opacity:1;stroke:none;fill-rule:nonzero"/>
 <g transform="translate(1,1)">
  <rect rx="0.375" y="10" x="12.5" height="1.5" width="1.5" style="fill:#777f8a;opacity:1;fill-opacity:1;stroke:none;fill-rule:nonzero"/>
  <rect rx="0.375" y="10" x="8" height="1.5" width="1.5" style="fill:#777f8a;opacity:1;fill-opacity:1;stroke:none;fill-rule:nonzero"/>
 </g>
 <rect width="1.5" height="1.5" x="18" y="14" rx="0.375" style="fill:#777f8a;opacity:1;fill-opacity:1;stroke:none;fill-rule:nonzero"/>
 <rect width="1.5" height="1.5" x="13.5" y="14" rx="0.375" style="fill:#777f8a;opacity:1;fill-opacity:1;stroke:none;fill-rule:nonzero"/>
 <rect width="1.5" height="1.5" x="9" y="14" rx="0.375" style="fill:#777f8a;opacity:1;fill-opacity:1;stroke:none;fill-rule:nonzero"/>
 <rect width="1.5" height="1.5" x="4.5" y="17" rx="0.375" style="fill:#777f8a;opacity:1;fill-opacity:1;stroke:none;fill-rule:nonzero"/>
 <rect width="1.5" height="1.5" x="4.5" y="8" rx="0.375" style="fill:#777f8a;opacity:1;fill-opacity:1;stroke:none;fill-rule:nonzero"/>
 <rect width="1.5" height="1.5" x="4.5" y="11" rx="0.375" style="fill:#777f8a;opacity:1;fill-opacity:1;stroke:none;fill-rule:nonzero"/>
 <rect width="1.5" height="1.5" x="4.5" y="14" rx="0.375" style="fill:#777f8a;opacity:1;fill-opacity:1;stroke:none;fill-rule:nonzero"/>
 <rect width="1.5" height="4" x="17.5" y="1" style="visibility:visible;fill:#e4e4e4;fill-opacity:1;stroke:none;display:inline;color:#000;fill-rule:nonzero"/>
</svg>
