<svg xmlns="http://www.w3.org/2000/svg" viewBox="0 0 24 24">
 <g transform="translate(2,1)">
  <path d="m 3 1 c -3 0 -3 2 -3 2.965 l 0 17.04 20 0 0 -17 c 0 -1 0 -3 -3 -3" style="fill:#fff"/>
  <path d="m 3 1 c -3 0 -3 2 -3 2.965 l 0 17.04 20 0 0 -17 c 0 -1 0 -3 -3 -3 m -14 1 14 0 c 2 0 2.062 1 2 2 l 0 16 -18 0 0 -16 c 0 -1 0 -2 2 -2" style="fill:#888"/>
  <path d="m 1 8 6 0 0 12 -6 0" style="fill-opacity:0.102"/>
 </g>
 <g transform="translate(2,1)" style="fill:#888;fill-opacity:0.902">
  <path d="m 1 7 0 1 18 0 0 -1"/>
  <path d="m 7 8 0 12 1 0 0 -12"/>
 </g>
 <path d="m 24 15 -4 0 0 -4.375 -4 0.033 0 4.342 -4 0 0 4 4 0 0 4 4 0 0 -4 4 0 z" style="fill:#859900"/>
</svg>
