<svg width="24" xmlns="http://www.w3.org/2000/svg" height="24" viewBox="0 0 24 24">
<g transform="translate(1 -1)">
<path style="fill:#859900;fill-rule:evenodd" d="M 21,13 C 21,18.522017 16.522017,23 11,23 5.4779827,23 0.99999999,18.522017 0.99999999,13 0.99999999,7.4779827 5.4779827,3 11,3 16.522017,3 21,7.4779827 21,13 z"/>
</g>
<g style="fill:#fff;fill-opacity:.902" transform="matrix(.93333 0 0 .96 1.73333 1.44)">
<path d="M 17.090199,8.5071018 C 16.035511,6.2201709 13.674005,4.75 11.014205,4.75 8.2940345,4.75 5.8046873,6.3586645 4.8245736,8.74858 l 2.06321,0.75284 c 0.6534091,-1.5980109 2.31179,-2.6669027 4.1264214,-2.6669027 1.75071,0 3.299005,0.9552554 4.016335,2.4467327 L 13.524858,9.8494318 17.37429,11.941051 18.5,7.9779827 z"/>
<path d="m 11.014205,15.169035 c -1.7365059,0 -3.3167614,-0.987217 -4.0234377,-2.46804 L 8.4715909,12.161222 4.6647727,10.112216 3.5,13.972301 4.9204545,13.453835 C 5.9538354,15.733665 8.3721591,17.25 11.014205,17.25 c 2.730823,0 5.149148,-1.544745 6.161221,-3.934659 l -2.052557,-0.770596 c -0.674715,1.59446 -2.286932,2.62429 -4.108664,2.62429 z"/>
</g>
</svg>
