<svg width="24" xmlns="http://www.w3.org/2000/svg" height="24" viewBox="0 0 24 24">
<path style="fill:#dc322f;fill-rule:evenodd" d="m 4.9999281,18.997648 c 1.9640548,-0.06283 2.0110115,0.0037 3,-1 0.7071068,-0.707107 3.2682909,-3.296888 3.9753979,-4.003995 1.414214,1.414214 2.610388,2.589782 4.024602,4.003995 1.011012,1.003674 0.983024,1.024893 3,1 -0.01698,-1.975107 0.01101,-1.996326 -1,-3 -1.414213,-1.414214 -2.610388,-2.589781 -4.024602,-4.003995 1.117071,-1.148269 2.610389,-2.5817914 4.024602,-3.996005 1.011012,-0.9963256 1.032461,-0.9527929 1,-3 -1.967539,0.047207 -1.988988,0.00367 -3,1 C 14.585714,7.4118615 12.891479,9.0774995 11.975326,9.9936525 10.561113,8.5794389 9.4141417,7.4118615 7.9999281,5.997648 c -0.9889885,-0.9963256 -1.0126404,-0.9378121 -3,-1 -0.01264,2.0621879 0.011012,2.0036744 1,3 0.7071067,0.7071068 3.2682922,3.288898 3.975399,3.996005 -1.4142136,1.414214 -2.5611855,2.589781 -3.975399,4.003995 -0.9889885,1.003674 -1.0359452,0.93717 -1,3 z"/>
</svg>
