<svg xmlns="http://www.w3.org/2000/svg" viewBox="0 0 16 16">
 <path d="M 1,5 C 0.446,5 0,5.446 0,6 l 0,5 c 0,0.554 0.446,1 1,1 l 1,0 c 0,0.554 0.446,1 1,1 l 1,0 c 0.554,0 1,-0.446 1,-1 l 6,0 c 0,0.554 0.446,1 1,1 l 1,0 c 0.554,0 1,-0.446 1,-1 l 1,0 c 0.554,0 1,-0.446 1,-1 L 16,6 C 16,5.446 15.554,5 15,5 L 1,5 Z M 1.5,6 C 1.777,6 2,6.446 2,7 l 0,3 C 2,10.554 1.777,11 1.5,11 1.223,11 1,10.554 1,10 L 1,7 C 1,6.446 1.223,6 1.5,6 Z m 2,0 C 3.777,6 4,6.446 4,7 l 0,3 C 4,10.554 3.777,11 3.5,11 3.223,11 3,10.554 3,10 L 3,7 C 3,6.446 3.223,6 3.5,6 Z m 2,0 C 5.777,6 6,6.446 6,7 l 0,3 C 6,10.554 5.777,11 5.5,11 5.223,11 5,10.554 5,10 L 5,7 C 5,6.446 5.223,6 5.5,6 Z m 7,0 A 2.5,2.5 0 0 1 15,8.5 2.5,2.5 0 0 1 12.5,11 2.5,2.5 0 0 1 10,8.5 2.5,2.5 0 0 1 12.5,6 Z m 0,1 A 1.5,1.5 0 0 0 11,8.5 1.5,1.5 0 0 0 12.5,10 1.5,1.5 0 0 0 14,8.5 1.5,1.5 0 0 0 12.5,7 Z" style="fill:#bebebe;opacity:1;fill-opacity:1;stroke:none;fill-rule:nonzero"/>
</svg>
