<svg xmlns="http://www.w3.org/2000/svg" viewBox="0 0 16 16">
 <g transform="matrix(.08 0 0 .08 -2.24 14.4)" style="fill:#bebebe">
  <path d="m 101.85 -142 c -2.815 0 -5.555 0.416 -8.197 0.97 -8.724 1.302 -19.268 4.36 -30.25 11.637 -27.21 18.02 -38.778 101.58 -34.546 109.39 4.232 7.81 42.31 -7.782 62.26 -37.821 1.484 -2.235 2.979 -4.526 4.294 -6.982 2.078 0.335 4.263 0.391 6.441 0.391 l 55.04 0 c 1.401 0 2.542 -0.062 3.904 -0.192 1.267 2.349 2.675 4.644 4.099 6.788 19.951 30.04 58.03 45.631 62.26 37.821 4.232 -7.81 -7.34 -91.37 -34.546 -109.39 -7.803 -5.169 -15.373 -8.232 -22.25 -10.09 -0.616 -0.168 -1.153 -0.242 -1.757 -0.391 -3.721 -1.165 -7.592 -2.134 -11.711 -2.134 l -6.831 0 -48.21 0 z m 68.897 18.62 c 0.747 -0.13 1.587 -0.093 2.342 0 1.01 0.124 1.994 0.434 2.928 0.97 3.734 2.142 4.888 6.956 2.732 10.667 -2.156 3.711 -6.805 5.05 -10.54 2.91 -3.734 -2.142 -5.084 -6.957 -2.928 -10.668 1.213 -2.087 3.224 -3.492 5.465 -3.879 z m -91.15 2.522 7.222 0 0 15.71 15.614 0 0 6.982 -15.614 0 0 15.711 -7.222 0 0 -15.711 -15.614 0 0 -6.982 15.614 0 0 -15.71 z m 111.64 7.952 c 1.01 0.124 1.994 0.434 2.928 0.97 3.734 2.142 5.084 6.956 2.928 10.667 -2.156 3.711 -7 5.05 -10.735 2.91 -3.734 -2.142 -4.888 -6.957 -2.732 -10.668 1.617 -2.783 4.593 -4.251 7.612 -3.879 z m -30.838 7.37 c 0.747 -0.13 1.587 -0.093 2.342 0 1.01 0.124 1.994 0.434 2.928 0.97 3.734 2.142 4.888 6.956 2.732 10.667 -2.156 3.711 -6.805 5.05 -10.54 2.91 -3.734 -2.142 -5.084 -6.957 -2.928 -10.668 1.213 -2.087 3.224 -3.492 5.465 -3.879 z m 18.347 10.473 c 0.729 -0.13 1.392 -0.093 2.147 0 1.01 0.124 1.994 0.434 2.928 0.97 3.734 2.142 5.084 6.956 2.928 10.667 -2.156 3.711 -7 5.05 -10.735 2.91 -3.734 -2.142 -4.888 -6.957 -2.732 -10.668 1.213 -2.087 3.278 -3.492 5.465 -3.879 z"/>
 </g>
</svg>
