<svg xmlns="http://www.w3.org/2000/svg" viewBox="0 0 16 16">
 <g transform="matrix(.5 0 0 .5 -4 -506.1811)" style="fill:#bebebe">
  <path d="m 24 8 c -8.837 0 -16 7.163 -16 16 0 8.837 7.163 16 16 16 8.837 0 16 -7.163 16 -16 0 -8.837 -7.163 -16 -16 -16 m 0 11 c 2.756 0 5 2.244 5 5 0 2.756 -2.244 5 -5 5 -2.756 0 -5 -2.244 -5 -5 0 -2.756 2.244 -5 5 -5 z m 0 1 c -2.215 0 -4 1.785 -4 4 0 2.215 1.785 4 4 4 2.215 0 4 -1.785 4 -4 0 -2.215 -1.785 -4 -4 -4 z m 0 1.5 c 1.381 0 2.5 1.119 2.5 2.5 0 1.381 -1.119 2.5 -2.5 2.5 -1.381 0 -2.5 -1.119 -2.5 -2.5 0 -1.381 1.119 -2.5 2.5 -2.5 z" transform="translate(0 1004.3622)"/>
 </g>
</svg>
