<svg xmlns="http://www.w3.org/2000/svg" viewBox="0 0 16 16" style="enable-background:new">
 <g transform="matrix(1 0 0 1 -445 139)" style="display:inline">
  <path d="m 448,-138 c 0,0 -2,0 -2,2 l 0,11 c 0,0.554 0.446,1 1,1 l 12,0 c 0.554,0 1,-0.446 1,-1 l 0,-11 c 0,0 0,-2 -2,-2 l -10,0 z m 0,1 c -0.277,0 -0.538,0.101 -0.719,0.281 0.181,-0.181 0.442,-0.281 0.719,-0.281 z m 10,0 c 0.277,0 0.538,0.101 0.719,0.281 C 458.538,-136.9 458.277,-137 458,-137 Z m -10,1 1,0 0,3 8,0 0,-3 1,0 0,10 -10,0 0,-10 z" style="fill:#bebebe;fill-opacity:1;stroke:none"/>
 </g>
</svg>
