<svg xmlns="http://www.w3.org/2000/svg" viewBox="0 0 16 16">
 <g transform="matrix(.5 0 0 .5 -4 -506.1811)" style="fill:#bebebe">
  <path d="m 18.656 8 c -1.46 0 -2.656 1.196 -2.656 2.656 l 0 26.656 c 0 1.46 1.196 2.688 2.656 2.688 l 10.656 0 c 1.46 0 2.688 -1.227 2.688 -2.688 l 0 -26.656 c 0 -1.46 -1.227 -2.656 -2.688 -2.656 l -10.656 0 m 1 2 8.688 0 c 0.923 0 1.656 0.733 1.656 1.656 l 0 12.781 c 0 0.923 -0.733 1.656 -1.656 1.656 l -8.688 0 c -0.923 0 -1.656 -0.733 -1.656 -1.656 l 0 -12.781 c 0 -0.923 0.733 -1.656 1.656 -1.656 m 4.344 18 c 2.761 0 5 2.239 5 5 0 2.761 -2.239 5 -5 5 -2.761 0 -5 -2.239 -5 -5 0 -2.761 2.239 -5 5 -5 z" transform="translate(0 1004.3622)" style="color:#000"/>
  <path d="m 25 33 c 0 0.552 -0.448 1 -1 1 -0.552 0 -1 -0.448 -1 -1 0 -0.552 0.448 -1 1 -1 0.552 0 1 0.448 1 1 z" transform="matrix(2 0 0 2 -24 971.3622)"/>
 </g>
</svg>
