<svg xmlns="http://www.w3.org/2000/svg" viewBox="0 0 16 16">
 <g transform="translate(950.71429 952.42857)">
  <path d="m -939.81 -952.43 c -0.351 0 -0.634 0.283 -0.634 0.634 l 0 1.836 -5.103 0 c -0.705 0 -1.272 0.567 -1.272 1.272 l 0 10.986 c 0 0.705 0.567 1.272 1.272 1.272 l 5.656 0 c 0.705 0 1.272 -0.567 1.272 -1.272 l 0 -10.986 c 0 -0.439 -0.221 -0.823 -0.557 -1.052 l 0 -2.056 c 0 -0.352 -0.283 -0.634 -0.634 -0.634 z m -5.257 3.751 4.695 0 c 0.283 0 0.511 0.241 0.511 0.542 l 0 3.474 c 0 0.301 -0.228 0.543 -0.511 0.543 l -4.695 0 c -0.283 0 -0.511 -0.242 -0.511 -0.543 l 0 -3.474 c 0 -0.301 0.228 -0.542 0.511 -0.542 z m -0.077 5.301 1.137 0 c 0.069 0 0.123 0.043 0.123 0.098 l 0 0.747 c 0 0.054 -0.055 0.099 -0.123 0.099 l -1.137 0 c -0.069 0 -0.124 -0.045 -0.124 -0.099 l 0 -0.747 c 0 -0.054 0.056 -0.098 0.124 -0.098 z m 1.856 0 1.137 0 c 0.069 0 0.123 0.043 0.123 0.098 l 0 0.747 c 0 0.054 -0.055 0.099 -0.123 0.099 l -1.137 0 c -0.069 0 -0.123 -0.045 -0.123 -0.099 l 0 -0.747 c 0 -0.054 0.055 -0.098 0.123 -0.098 z m 1.856 0 1.137 0 c 0.069 0 0.124 0.043 0.124 0.098 l 0 0.747 c 0 0.054 -0.056 0.099 -0.124 0.099 l -1.137 0 c -0.069 0 -0.123 -0.045 -0.123 -0.099 l 0 -0.747 c 0 -0.054 0.055 -0.098 0.123 -0.098 z m -3.713 1.386 1.137 0 c 0.069 0 0.123 0.043 0.123 0.098 l 0 0.747 c 0 0.054 -0.055 0.098 -0.123 0.098 l -1.137 0 c -0.069 0 -0.124 -0.043 -0.124 -0.098 l 0 -0.747 c 0 -0.054 0.056 -0.098 0.124 -0.098 z m 1.856 0 1.137 0 c 0.069 0 0.123 0.043 0.123 0.098 l 0 0.747 c 0 0.054 -0.055 0.098 -0.123 0.098 l -1.137 0 c -0.069 0 -0.123 -0.043 -0.123 -0.098 l 0 -0.747 c 0 -0.054 0.055 -0.098 0.123 -0.098 z m 1.856 0 1.137 0 c 0.069 0 0.124 0.043 0.124 0.098 l 0 0.747 c 0 0.054 -0.056 0.098 -0.124 0.098 l -1.137 0 c -0.069 0 -0.123 -0.043 -0.123 -0.098 l 0 -0.747 c 0 -0.054 0.055 -0.098 0.123 -0.098 z m -3.713 1.385 1.137 0 c 0.069 0 0.123 0.045 0.123 0.099 l 0 0.747 c 0 0.054 -0.055 0.098 -0.123 0.098 l -1.137 0 c -0.069 0 -0.124 -0.043 -0.124 -0.098 l 0 -0.747 c 0 -0.054 0.056 -0.099 0.124 -0.099 z m 1.856 0 1.137 0 c 0.069 0 0.123 0.045 0.123 0.099 l 0 0.747 c 0 0.054 -0.055 0.098 -0.123 0.098 l -1.137 0 c -0.069 0 -0.123 -0.043 -0.123 -0.098 l 0 -0.747 c 0 -0.054 0.055 -0.099 0.123 -0.099 z m 1.856 0 1.137 0 c 0.069 0 0.124 0.045 0.124 0.099 l 0 0.747 c 0 0.054 -0.056 0.098 -0.124 0.098 l -1.137 0 c -0.069 0 -0.123 -0.043 -0.123 -0.098 l 0 -0.747 c 0 -0.054 0.055 -0.099 0.123 -0.099 z m -3.713 1.386 1.137 0 c 0.069 0 0.123 0.043 0.123 0.098 l 0 0.747 c 0 0.054 -0.055 0.099 -0.123 0.099 l -1.137 0 c -0.069 0 -0.124 -0.045 -0.124 -0.099 l 0 -0.747 c 0 -0.054 0.056 -0.098 0.124 -0.098 z m 1.856 0 1.137 0 c 0.069 0 0.123 0.043 0.123 0.098 l 0 0.747 c 0 0.054 -0.055 0.099 -0.123 0.099 l -1.137 0 c -0.069 0 -0.123 -0.045 -0.123 -0.099 l 0 -0.747 c 0 -0.054 0.055 -0.098 0.123 -0.098 z m 1.856 0 1.137 0 c 0.069 0 0.124 0.043 0.124 0.098 l 0 0.747 c 0 0.054 -0.056 0.099 -0.124 0.099 l -1.137 0 c -0.069 0 -0.123 -0.045 -0.123 -0.099 l 0 -0.747 c 0 -0.054 0.055 -0.098 0.123 -0.098 z" style="fill:#bebebe"/>
 </g>
</svg>
