<svg xmlns="http://www.w3.org/2000/svg" viewBox="0 0 16 16" style="enable-background:new">
 <defs>
  <filter id="filter7554" style="color-interpolation-filters:sRGB">
   <feBlend in2="BackgroundImage" mode="darken"/>
  </filter>
 </defs>
 <g transform="translate(-485.0002,119.0033)" style="display:inline;filter:url(#filter7554)">
  <path d="M 5.01 0.004 A 1 1 0 0 0 4.293 0.297 A 1 1 0 0 0 4.293 1.711 A 1 1 0 0 0 5.258 1.969 L 6.293 3 L 3 3 C 1 3 1 5 1 5 L 1 14 C 1 14 1 16 3 16 L 13 16 C 13 16 15 16 15 14 L 15 5 C 15 5 15 3 13 3 L 9.709 3 L 10.744 1.969 A 1 1 0 0 0 11.709 1.711 A 1 1 0 0 0 11.709 0.297 A 1 1 0 0 0 11.02 0.004 A 1 1 0 0 0 10.295 0.297 A 1 1 0 0 0 10.04 1.264 L 8.293 3 L 7.707 3 L 5.965 1.262 A 1 1 0 0 0 5.707 0.297 A 1 1 0 0 0 5.01 0.004 z M 3 5 L 13 5 L 13 12 L 3 12 L 3 5 z M 11 14 L 12 14 L 12 15 L 11 15 L 11 14 z" transform="translate(485.0002,-119.0033)" style="fill:#bebebe;fill-opacity:1;stroke:none"/>
 </g>
</svg>
