<?xml version="1.0" encoding="UTF-8" standalone="no"?>
<svg
   xmlns:dc="http://purl.org/dc/elements/1.1/"
   xmlns:cc="http://creativecommons.org/ns#"
   xmlns:rdf="http://www.w3.org/1999/02/22-rdf-syntax-ns#"
   xmlns:svg="http://www.w3.org/2000/svg"
   xmlns="http://www.w3.org/2000/svg"
   xmlns:sodipodi="http://sodipodi.sourceforge.net/DTD/sodipodi-0.dtd"
   xmlns:inkscape="http://www.inkscape.org/namespaces/inkscape"
   width="16"
   viewBox="0 0 4.5155557 4.5155557"
   height="16"
   id="svg2"
   version="1.1"
   inkscape:version="0.91 r"
   sodipodi:docname="calendar-29.svg">
  <metadata
     id="metadata17">
    <rdf:RDF>
      <cc:Work
         rdf:about="">
        <dc:format>image/svg+xml</dc:format>
        <dc:type
           rdf:resource="http://purl.org/dc/dcmitype/StillImage" />
        <dc:title />
      </cc:Work>
    </rdf:RDF>
  </metadata>
  <defs
     id="defs15" />
  <sodipodi:namedview
     pagecolor="#ffffff"
     bordercolor="#666666"
     borderopacity="1"
     objecttolerance="10"
     gridtolerance="10"
     guidetolerance="10"
     inkscape:pageopacity="0"
     inkscape:pageshadow="2"
     inkscape:window-width="1366"
     inkscape:window-height="747"
     id="namedview13"
     showgrid="true"
     inkscape:zoom="16"
     inkscape:cx="8.52647"
     inkscape:cy="2.9812453"
     inkscape:window-x="0"
     inkscape:window-y="21"
     inkscape:window-maximized="1"
     inkscape:current-layer="svg2"
     showguides="false">
    <inkscape:grid
       type="xygrid"
       id="grid4145"
       originx="0"
       originy="0"
       spacingy="0.28222223"
       spacingx="0.28222223" />
  </sodipodi:namedview>
  <path
     d="m 0.84677197,0.141111 0,0.33866671 -0.42343871,0 c -0.0846667,2e-8 -0.14111113,0.0705556 -0.1410577,0.14111113 l -1.98e-5,3.75356166 c -3.363e-5,0.07055 0.0705219,0.1411056 0.1410775,0.141104 l 3.66888944,0 c 0.070556,1.6e-6 0.1411111,-0.070554 0.1410452,-0.1410773 L 4.233366,0.62088884 C 4.2333338,0.55033329 4.1627782,0.47977773 4.0922227,0.47977771 l -0.4232485,0 0,-0.33866674 C 3.6688893,-1.3457406e-7 3.6688893,-1.3457406e-7 3.5277781,-1.3457406e-7 l -0.3668889,0 c -0.1411111,0 -0.1411111,0 -0.1411111,0.14111113457406 l 0,0.28222226 -1.5240002,0 0,-0.28222226 c 0,-0.14111113457406 0,-0.14111113457406 -0.1411112,-0.14111113457406 l -0.36688892,0 c -0.14111113,0 -0.14100581,0 -0.14100581,0.14111113457406 z m 0.18785473,0.0468489 0.2731911,0 0,0.56553 c 0,0.23428788 -0.2731911,0.23428788 -0.2731911,0 z m 2.1731114,-1e-8 0.2731911,0 0,0.5655297 c 0,0.23428819 -0.2731911,0.23428819 -0.2731911,0 z M 0.56441076,1.411111 l 3.38666864,0 0,2.8222883 -3.38666864,-5.36e-5 z"
     id="path4"
     inkscape:connector-curvature="0"
     style="color:#000000;fill:#cacaca"
     sodipodi:nodetypes="scccccccccccccccccccsccsccccsscccccc" />
  <g
     transform="matrix(0.28222222,0,0,0.28222222,-9.4977623,-11.141722)"
     style="font-style:normal;font-variant:normal;font-weight:normal;font-stretch:normal;font-size:20px;line-height:125%;font-family:'Droid Sans';-inkscape-font-specification:'Droid Sans';letter-spacing:0px;word-spacing:0px;fill:#000000;fill-opacity:1;stroke:none;stroke-width:1px;stroke-linecap:butt;stroke-linejoin:miter;stroke-opacity:1"
     id="flowRoot4147" />
  <g
     transform="scale(1.1417405,0.87585576)"
     style="font-style:normal;font-variant:normal;font-weight:normal;font-stretch:normal;font-size:1.60710132px;line-height:125%;font-family:Ubuntu;-inkscape-font-specification:Ubuntu;letter-spacing:0px;word-spacing:0px;fill:#3798d6;fill-opacity:1;stroke:none;stroke-width:1px;stroke-linecap:butt;stroke-linejoin:miter;stroke-opacity:1"
     id="text4155">
    <path
       d="m 1.9205797,4.2965312 -1.18287363,0 0,-0.2592435 L 1.1524956,3.589942 q 0.078376,-0.084405 0.1422825,-0.1555461 0.063906,-0.071141 0.1097263,-0.1386651 0.04582,-0.067524 0.071141,-0.1374593 0.025322,-0.069935 0.025322,-0.1507229 0,-0.089228 -0.05426,-0.1386651 -0.053055,-0.049437 -0.1434882,-0.049437 -0.095257,0 -0.1832791,0.047026 -0.088022,0.047025 -0.18448493,0.133842 L 0.73288293,2.7603629 q 0.0542603,-0.049437 0.11334366,-0.094051 0.0590834,-0.04582 0.13022462,-0.080788 0.0711412,-0.034968 0.15675189,-0.055466 0.085611,-0.021704 0.1917196,-0.021704 0.1266072,0 0.2266873,0.034968 0.1012858,0.034968 0.172427,0.10008 0.071141,0.063907 0.1085205,0.1555461 0.038585,0.09164 0.038585,0.206189 0,0.1036974 -0.036174,0.1989543 -0.036173,0.094051 -0.098874,0.1856907 -0.062701,0.090434 -0.1458999,0.1808675 -0.081993,0.089228 -0.1760444,0.1820733 l -0.2122179,0.2134237 0,0.016881 0.718647,0 0,0.3135037 z"
       style="font-style:normal;font-variant:normal;font-weight:bold;font-stretch:normal;font-size:2.46944475px;font-family:'droid sans';-inkscape-font-specification:'droid sans Bold';text-align:center;letter-spacing:-0.02822223px;word-spacing:0.05644445px;text-anchor:middle;fill:#3798d6;fill-opacity:1"
       id="path4142" />
    <path
       d="m 3.2428351,3.2860846 q 0,0.1266072 -0.014469,0.2532145 -0.013264,0.1254015 -0.049437,0.2399509 -0.034968,0.1145495 -0.096463,0.2146295 -0.060289,0.098874 -0.1543403,0.1712213 -0.092845,0.072347 -0.2242757,0.1145494 -0.1302246,0.040997 -0.306269,0.040997 -0.025322,0 -0.055466,-0.00121 -0.030145,-0.00121 -0.061495,-0.00362 -0.030145,-0.00121 -0.059083,-0.00482 -0.028939,-0.00241 -0.050643,-0.00723 l 0,-0.2990343 q 0.044614,0.012058 0.095257,0.019292 0.051849,0.00603 0.1049031,0.00603 0.1627808,0 0.267684,-0.039791 0.1049032,-0.040997 0.1663981,-0.1133437 0.061495,-0.073553 0.086816,-0.1748386 0.026527,-0.1012858 0.032556,-0.22307 l -0.015675,0 q -0.024116,0.043408 -0.057878,0.080788 -0.033762,0.037379 -0.079582,0.065112 -0.04582,0.027733 -0.1036974,0.043408 -0.057878,0.015675 -0.1290189,0.015675 -0.1145494,0 -0.2061889,-0.037379 Q 2.240829,3.6092346 2.1769225,3.5380933 2.1142217,3.4669521 2.0804598,3.3632547 2.0466978,3.2595573 2.0466978,3.1257154 q 0,-0.1434883 0.039791,-0.2568319 0.040997,-0.1133437 0.1157552,-0.1917196 0.074759,-0.079582 0.1808676,-0.1217842 0.1073147,-0.042202 0.2399509,-0.042202 0.1302246,0 0.2435683,0.047026 0.1133436,0.04582 0.1965427,0.1410766 0.083199,0.095257 0.1314304,0.2411568 0.048231,0.1458998 0.048231,0.3436483 z m -0.612538,-0.473873 q -0.049437,0 -0.090434,0.018087 -0.040997,0.018087 -0.071141,0.056672 -0.028939,0.037379 -0.04582,0.096463 -0.015675,0.057878 -0.015675,0.1374593 0,0.1278131 0.05426,0.2025717 0.05426,0.074758 0.1639866,0.074758 0.055466,0 0.1012858,-0.021704 0.04582,-0.021704 0.078376,-0.056672 0.032556,-0.034968 0.049437,-0.078376 0.018087,-0.043408 0.018087,-0.088022 0,-0.061495 -0.015675,-0.1217842 Q 2.842515,2.9701693 2.8111646,2.9219379 2.78102,2.8725008 2.7352003,2.8423562 2.6905863,2.8122116 2.6302971,2.8122116 Z"
       style="font-style:normal;font-variant:normal;font-weight:bold;font-stretch:normal;font-size:2.46944475px;font-family:'droid sans';-inkscape-font-specification:'droid sans Bold';text-align:center;letter-spacing:-0.02822223px;word-spacing:0.05644445px;text-anchor:middle;fill:#3798d6;fill-opacity:1"
       id="path4144" />
  </g>
</svg>
