<svg xmlns="http://www.w3.org/2000/svg" viewBox="0 0 16 16">
 <g transform="translate(0,-1036.3622)">
  <path d="m 4.999 1049.93 c -0.039 1.38 -1.19 2.467 -2.571 2.428 -1.381 -0.042 -2.468 -1.191 -2.427 -2.571 0.039 -1.38 1.19 -2.467 2.571 -2.427 1.381 0.042 2.468 1.191 2.427 2.57 m 0 0" style="fill:#f2bb64;opacity:1;fill-opacity:1;stroke:none;fill-rule:nonzero"/>
  <path d="m 11 1052.36 c -0.159 -6.522 -6.447 -10.537 -11 -11 l 0 3 c 3.666 0.301 7.959 3.723 8 8" style="fill:#f2bb64;opacity:1;fill-opacity:1;stroke:none;fill-rule:nonzero"/>
  <path d="m 16 1052.36 c 0 -9.604 -8.625 -15.696 -16 -16 l 0 3 c 6.764 0.747 13.03 6.277 13 13" style="fill:#f2bb64;opacity:1;fill-opacity:1;stroke:none;fill-rule:nonzero"/>
 </g>
</svg>
