<svg xmlns="http://www.w3.org/2000/svg" viewBox="0 0 16 16">
 <g transform="translate(0,-1036.3622)">
  <path d="m 2 1043.36 0 7 c 0 1.108 0.892 2 2 2 l 2 0 0 -6 4 0 0 6 2 0 c 1.108 0 2 -0.892 2 -2 l 0 -7 z" style="fill:#f2bb64;fill-opacity:1"/>
  <path d="m 2 1042.36 c -2.203 2 -3 2 0 2 l 12 0 c 3 0 2.288 0 0 -2 l -5 -5 c -1 -1 -1 -1 -2 0 z" style="fill:#f2bb64;fill-opacity:1;stroke:none"/>
  <path d="m 13 1037.36 c 1 0 1 0.446 1 1 l 0 4 -2 0 0 -4 c 0 -0.554 0 -1 1 -1 z" style="fill:#f2bb64;fill-opacity:1;stroke:none"/>
 </g>
</svg>
