<svg xmlns="http://www.w3.org/2000/svg" viewBox="0 0 16 16">
 <g transform="translate(0,-1036.3622)">
  <path d="m 13.166 1037.76 c -0.592 0.01 -1.175 0.398 -1.268 1.12 -0.149 1.157 0.97 0.723 1.865 0.723 0.895 0 1.193 1.88 0.97 2.892 -0.224 1.012 -2.603 3.403 -7.981 1.012 -4.428 -1.968 -6.639 0.652 -6.751 0.705 0.419 3.91 3.836 8.151 7.981 8.151 4.429 0 8.02 -4.672 8.02 -8.964 0 -0.493 -0.059 -0.978 -0.149 -1.446 -0.082 -0.236 -0.163 -0.472 -0.224 -0.687 -0.108 -0.385 -0.231 -0.71 -0.336 -1.012 -0.005 -0.01 0.005 -0.026 0 -0.036 -0.424 -0.912 -1.018 -1.737 -1.753 -2.422 -0.003 -0.01 -0.015 0.01 -0.019 0 -0.115 -0.028 -0.236 -0.038 -0.354 -0.036 z" style="fill:#f2bb64;opacity:1;fill-opacity:1;color:#000"/>
  <path d="m 10 1041.36 c 0 0.552 -0.448 1 -1 1 -0.552 0 -1 -0.448 -1 -1 0 -0.552 0.448 -1 1 -1 0.552 0 1 0.448 1 1 z" style="fill:#f2bb64;opacity:1;fill-opacity:1;color:#000"/>
  <path d="m 7 1037.86 c 0 0.276 -0.224 0.5 -0.5 0.5 -0.276 0 -0.5 -0.224 -0.5 -0.5 0 -0.276 0.224 -0.5 0.5 -0.5 0.276 0 0.5 0.224 0.5 0.5 z" style="fill:#f2bb64;opacity:1;fill-opacity:1;color:#000"/>
 </g>
</svg>
