<svg xmlns="http://www.w3.org/2000/svg" viewBox="0 0 16 16">
 <g transform="translate(0,-1036.3622)">
  <path d="m 1.5 1042.88 c -0.828 0 -1.5 0.662 -1.5 1.479 c 0 0.816 0.671 1.478 1.5 1.478 0.828 0 1.499 -0.662 1.499 -1.478 0 -0.817 -0.671 -1.479 -1.499 -1.479 z m 10.707 6.72 c -0.717 0.408 -0.963 1.312 -0.549 2.02 0.414 0.707 1.331 0.949 2.048 0.541 0.717 -0.408 0.963 -1.312 0.549 -2.02 -0.414 -0.707 -1.331 -0.949 -2.048 -0.541 z m -7.45 -5.242 c 0 -1.461 0.736 -2.752 1.863 -3.533 l -1.096 -1.811 c -1.312 0.864 -2.289 2.186 -2.694 3.734 0.474 0.381 0.776 0.96 0.776 1.61 0 0.65 -0.303 1.229 -0.776 1.61 0.405 1.548 1.382 2.87 2.694 3.734 l 1.096 -1.811 c -1.126 -0.781 -1.863 -2.072 -1.863 -3.533 z m 4.38 -4.319 c 2.288 0 4.166 1.73 4.362 3.936 l 2.137 -0.03 c -0.105 -1.629 -0.827 -3.091 -1.936 -4.166 -0.57 0.212 -1.229 0.18 -1.798 -0.144 -0.57 -0.324 -0.928 -0.872 -1.026 -1.466 -0.554 -0.151 -1.137 -0.234 -1.74 -0.234 -1.037 0 -2.02 0.24 -2.887 0.665 l 1.042 1.841 c 0.561 -0.257 1.186 -0.402 1.845 -0.402 z m 0 8.638 c -0.66 0 -1.284 -0.145 -1.845 -0.402 l -1.042 1.841 c 0.87 0.425 1.85 0.665 2.887 0.665 0.603 0 1.186 -0.083 1.74 -0.234 0.098 -0.594 0.456 -1.141 1.026 -1.466 0.569 -0.324 1.228 -0.356 1.798 -0.144 1.109 -1.075 1.83 -2.538 1.935 -4.166 l -2.137 -0.03 c -0.197 2.206 -2.074 3.936 -4.362 3.936 z m 3.069 -9.561 c 0.717 0.408 1.634 0.166 2.048 -0.541 0.414 -0.707 0.169 -1.611 -0.549 -2.02 -0.717 -0.408 -1.634 -0.166 -2.048 0.541 -0.414 0.707 -0.168 1.611 0.549 2.02 z" style="fill:#f2bb64;opacity:1;fill-opacity:1;color:#000"/>
 </g>
</svg>
