<svg xmlns="http://www.w3.org/2000/svg" width="16" height="16" viewBox="0 0 12.8 12.8">
 <g transform="matrix(0.94912455,0,0,0.31637485,-0.16930959,1.5435635)">
  <path d="m 2.707 2.707 7.586 0 0 7.586 -7.586 0 z" style="fill:#f8f8f8"/>
 </g>
 <path d="m 3.2 3.2 5.6 0 0 0.8 -5.6 0 z" style="fill:#ccc"/>
 <path d="m 12 6 0 1 -2 0 c 0 -0.547 -0.39 -1 -1 -1 z" transform="scale(0.8,0.8)" style="fill:#f8f8f8;fill-opacity:1;stroke:none"/>
 <path transform="scale(0.8,0.8)" d="m 11 6 0 1 -1 0 c 0 -0.547 -0.39 -1 -1 -1 z" style="fill:#ccc;fill-opacity:1;stroke:none"/>
 <path d="m 0.8 2.4 0 4 11.2 0 0 -4 z" style="fill:#ea9036;fill-opacity:1;stroke:none"/>
 <path d="m 2.4 2.4 c 0 -0.4 0 -0.8 0.582 -0.8 l 2.036 0 c 0.582 0 0.582 0.4 0.582 0.8 z" style="fill:#ea9036;fill-opacity:1;stroke:none"/>
 <rect width="9.6" height="3.2" x="1.6" y="3.2" style="fill:#d8d8da;fill-opacity:1;stroke:none;fill-rule:evenodd"/>
 <path d="m 0 5.6 12.8 0 l -0.8 5.6 -11.2 0 z" style="fill:#f2bb64;fill-opacity:1;stroke:none"/>
 <rect width="9" height="2" x="4" y="5" transform="scale(0.8,0.8)" style="fill:#f9f9f9;opacity:1;fill-opacity:1;stroke:none;fill-rule:evenodd"/>
</svg>
