<svg xmlns="http://www.w3.org/2000/svg" viewBox="0 0 16 16">
 <g transform="translate(0,-1036.3622)">
  <path d="m 4 1036.36 c -0.554 0 -1 0.446 -1 1 l 10 0 c 0 -0.554 -0.446 -1 -1 -1 z m -1 2 0 12 10 0 0 -12 z m 2 2 6 0 0 1 -6 0 z m 0 2 6 0 0 1 -6 0 z m 3 3 c 0.552 0 1 0.448 1 1 0 0.552 -0.448 1 -1 1 -0.552 0 -1 -0.448 -1 -1 0 -0.552 0.448 -1 1 -1 z m -5 6 c 0 0.554 0.446 1 1 1 l 8 0 c 0.554 0 1 -0.446 1 -1 z" style="fill:#f2bb64;opacity:1;fill-opacity:1;stroke:none;fill-rule:evenodd"/>
 </g>
</svg>
