<svg xmlns="http://www.w3.org/2000/svg" viewBox="0 0 16 16">
 <g transform="translate(0,-1036.3622)">
  <path d="m 1.535 1037.06 c -0.514 0.01 -1 0.064 -1.489 0.233 -0.154 1.042 0.1 2.123 0.379 3.121 0.712 2.29 2.032 4.464 3.97 5.922 0.071 0.067 0.172 0.083 0.146 0.204 -0.01 0.507 -0.001 1.037 0 1.546 0.021 0.89 0.557 1.739 1.343 2.159 0.932 0.491 1.863 0.945 2.802 1.429 0.432 0.229 1.032 -0.034 1.168 -0.496 0.083 -0.304 0.025 -0.623 0.029 -0.933 -0.003 -0.654 -0.084 -1.31 -0.058 -1.955 0.855 -0.106 1.714 -0.52 2.218 -1.225 0.45 -0.602 0.61 -1.381 0.555 -2.129 0.914 -0.163 1.857 -0.301 2.773 -0.467 0.542 -0.108 0.778 -0.813 0.438 -1.254 -0.666 -0.844 -1.336 -1.671 -2.01 -2.509 -0.547 -0.653 -1.404 -1.016 -2.247 -0.904 -0.572 0.092 -1.158 0.215 -1.722 0.321 -1.822 -1.734 -4.271 -2.696 -6.742 -2.976 -0.508 -0.046 -1.033 -0.096 -1.547 -0.088 z m 3.094 1.896 c 0.597 -0.054 1.196 0.112 1.693 0.525 0.994 0.827 1.148 2.303 0.321 3.296 -0.827 0.993 -2.305 1.148 -3.298 0.321 -0.994 -0.827 -1.148 -2.303 -0.321 -3.296 0.414 -0.497 1.01 -0.791 1.605 -0.846 z m 0.058 0.788 c -0.398 0.036 -0.775 0.223 -1.051 0.554 -0.552 0.663 -0.459 1.636 0.204 2.188 0.663 0.552 1.637 0.458 2.189 -0.204 0.552 -0.663 0.459 -1.636 -0.204 -2.188 -0.332 -0.276 -0.74 -0.387 -1.138 -0.35 z m 9.486 6.359 c -0.204 -0.019 -0.408 0.136 -0.438 0.35 -0.261 1.184 -1.103 2.212 -2.218 2.684 -0.29 0.092 -0.355 0.48 -0.117 0.671 0.49 0.408 1.055 0.879 1.547 1.284 0.239 0.203 0.551 -0.01 0.555 -0.321 -0.008 -0.248 -0.036 -0.513 -0.058 -0.758 0.61 0.13 1.206 0.304 1.81 0.438 0.284 0.059 0.554 -0.283 0.438 -0.554 -0.238 -0.571 -0.485 -1.124 -0.73 -1.692 0.247 -0.029 0.484 -0.05 0.73 -0.088 0.304 -0.06 0.423 -0.502 0.175 -0.7 -0.492 -0.414 -0.99 -0.814 -1.489 -1.225 -0.058 -0.046 -0.136 -0.081 -0.204 -0.088 z" style="fill:#f2bb64;fill-opacity:1;stroke:none;fill-rule:nonzero"/>
 </g>
</svg>
