<?xml version="1.0" encoding="UTF-8" standalone="no"?>
<svg
   xmlns:dc="http://purl.org/dc/elements/1.1/"
   xmlns:cc="http://creativecommons.org/ns#"
   xmlns:rdf="http://www.w3.org/1999/02/22-rdf-syntax-ns#"
   xmlns:svg="http://www.w3.org/2000/svg"
   xmlns="http://www.w3.org/2000/svg"
   xmlns:sodipodi="http://sodipodi.sourceforge.net/DTD/sodipodi-0.dtd"
   xmlns:inkscape="http://www.inkscape.org/namespaces/inkscape"
   width="16.25"
   height="16.25"
   viewBox="0 0 13 13"
   id="svg2"
   version="1.1"
   inkscape:version="0.48.5 r10040"
   sodipodi:docname="gnome-fs-loading-icon.svg">
  <metadata
     id="metadata12">
    <rdf:RDF>
      <cc:Work
         rdf:about="">
        <dc:format>image/svg+xml</dc:format>
        <dc:type
           rdf:resource="http://purl.org/dc/dcmitype/StillImage" />
      </cc:Work>
    </rdf:RDF>
  </metadata>
  <defs
     id="defs10" />
  <sodipodi:namedview
     pagecolor="#ffffff"
     bordercolor="#666666"
     borderopacity="1"
     objecttolerance="10"
     gridtolerance="10"
     guidetolerance="10"
     inkscape:pageopacity="0"
     inkscape:pageshadow="2"
     inkscape:window-width="1920"
     inkscape:window-height="1023"
     id="namedview8"
     showgrid="false"
     inkscape:zoom="48.504808"
     inkscape:cx="4.6201928"
     inkscape:cy="8.125"
     inkscape:window-x="0"
     inkscape:window-y="28"
     inkscape:window-maximized="1"
     inkscape:current-layer="svg2" />
  <path
     style="fill:#f5c14e;fill-opacity:1;opacity:0.5"
     d="M 1.894531 1.082031 C 1.894531 1.082031 1.082031 1.082031 1.082031 1.894531 L 1.082031 2.4375 L 2.167969 2.4375 L 2.167969 2.167969 L 2.4375 2.167969 L 2.4375 1.082031 Z M 5.6875 1.082031 L 5.6875 2.167969 L 7.3125 2.167969 L 7.3125 1.082031 Z M 8.394531 1.082031 L 8.394531 2.167969 L 9.75 2.167969 L 9.75 1.082031 Z M 10.5625 1.082031 L 10.5625 2.167969 L 10.832031 2.167969 L 10.832031 2.4375 L 11.917969 2.4375 L 11.917969 1.894531 C 11.917969 1.894531 11.917969 1.082031 11.105469 1.082031 Z M 3.25 1.082031 L 3.25 2.167969 L 4.605469 2.167969 L 4.605469 1.082031 Z M 10.832031 3.25 L 10.832031 4.605469 L 11.917969 4.605469 L 11.917969 3.25 Z M 1.082031 3.25 L 1.082031 4.605469 L 2.167969 4.605469 L 2.167969 3.25 Z M 10.832031 5.6875 L 10.832031 7.582031 L 11.917969 7.582031 L 11.917969 5.6875 Z M 10.832031 8.667969 L 10.832031 9.75 L 11.917969 9.75 L 11.917969 8.667969 Z M 1.082031 5.6875 L 1.082031 7.3125 L 2.167969 7.3125 L 2.167969 5.6875 Z M 1.082031 8.394531 L 1.082031 9.75 L 2.167969 9.75 L 2.167969 8.394531 Z M 1.082031 10.5625 L 1.082031 11.105469 C 1.082031 11.917969 1.894531 11.917969 1.894531 11.917969 L 2.4375 11.917969 L 2.4375 10.832031 L 2.167969 10.832031 L 2.167969 10.5625 Z M 10.832031 10.5625 L 10.832031 10.832031 L 10.5625 10.832031 L 10.5625 11.917969 L 11.105469 11.917969 C 11.917969 11.917969 11.917969 11.105469 11.917969 11.105469 L 11.917969 10.5625 Z M 3.25 10.832031 L 3.25 11.917969 L 4.605469 11.917969 L 4.605469 10.832031 Z M 5.6875 10.832031 L 5.6875 11.917969 L 7.3125 11.917969 L 7.3125 10.832031 Z M 8.394531 10.832031 L 8.394531 11.917969 L 9.75 11.917969 L 9.75 10.832031 Z "
     id="path4" />
  <path
     style="fill:none;stroke:#e9a439;stroke-linejoin:round;stroke-linecap:round;stroke-width:2;stroke-opacity:1;opacity:0.8"
     d="M 24 12 L 24 24 L 30 30 "
     transform="scale(.27083)"
     id="path6" />
</svg>
