<svg xmlns="http://www.w3.org/2000/svg" width="16" height="16.25" viewBox="0 0 12.8 13">
 <path style="fill:#388e3c;fill-opacity:1;stroke:none" d="m 0.8 2.6 0 2.4 6.4 0 0 -2.4 z"/>
 <path style="fill:#388e3c;fill-opacity:1;stroke:none" d="m 1.6,2.6 c 0,-0.4 0,-0.8 0.582,-0.8 l 2.036,0 C 4.8,1.8 4.8,2.2 4.8,2.6 Z"/>
 <rect y="3.4" x="1.6" width="4.8" height="1.6" style="fill:#d8d8da;fill-opacity:1;stroke:none;fill-rule:evenodd"/>
 <path style="fill:#66bb6a;fill-opacity:1;stroke:none" d="m 0 4.2 8 0 -0.8 4 -6.4 0 z"/>
 <path style="fill:#fff;opacity:0.5;fill-opacity:1;stroke:none" transform="matrix(0.8 0 0 0.8 0 0)" d="m 2.727 2.25 c -0.728 0 -0.727 0.5 -0.727 1 l -1 0 l 0 2 l -1 0 l 1 5 l 8 0 l 1 -5 l -1 0 l 0 -2 l -3 0 c 0 -0.5 0.001 -1 -0.727 -1 l -2.547 0 z"/>
 <path style="fill:#388e3c;fill-opacity:1;stroke:none" d="M 5.6,6.6 5.6,9 12,9 12,6.6 z"/>
 <path style="fill:#388e3c;fill-opacity:1;stroke:none" d="m 6.4 6.6 c 0 -0.4 0 -0.8 0.582 -0.8 l 2.036 0 c 0.582 0 0.582 0.4 0.582 0.8 z"/>
 <rect y="7.4" x="6.4" width="4.8" height="1.6" style="fill:#d8d8da;fill-opacity:1;stroke:none;fill-rule:evenodd"/>
 <path style="fill:#66bb6a;fill-opacity:1;stroke:none" d="m 4.8 8.2 8 0 -0.8 4 -6.4 0 z"/>
</svg>
