<?xml version="1.0" encoding="UTF-8" standalone="no"?>


<svg
   xmlns:dc="http://purl.org/dc/elements/1.1/"
   xmlns:cc="http://creativecommons.org/ns#"
   xmlns:rdf="http://www.w3.org/1999/02/22-rdf-syntax-ns#"
   xmlns:svg="http://www.w3.org/2000/svg"
   xmlns="http://www.w3.org/2000/svg"
   xmlns:xlink="http://www.w3.org/1999/xlink"
   xmlns:sodipodi="http://sodipodi.sourceforge.net/DTD/sodipodi-0.dtd"
   xmlns:inkscape="http://www.inkscape.org/namespaces/inkscape"
   width="16"
   height="16"
   id="svg2"
   version="1.1"
   inkscape:version="0.48.5 r10040"
   sodipodi:docname="folder-steam.svg">
  <defs
     id="defs4">
    <linearGradient
       id="linearGradient3855">
      <stop
         style="stop-color:#000000;stop-opacity:1;"
         offset="0"
         id="stop3857" />
      <stop
         style="stop-color:#000000;stop-opacity:0.29411766;"
         offset="1"
         id="stop3859" />
    </linearGradient>
    <linearGradient
       id="linearGradient3833">
      <stop
         id="stop3835"
         offset="0"
         style="stop-color:#fdfeff;stop-opacity:1;" />
      <stop
         id="stop3837"
         offset="1"
         style="stop-color:#dfe4e4;stop-opacity:1;" />
    </linearGradient>
    <linearGradient
       id="linearGradient3823">
      <stop
         style="stop-color:#49b7ef;stop-opacity:1;"
         offset="0"
         id="stop3825" />
      <stop
         style="stop-color:#1d8de2;stop-opacity:1;"
         offset="1"
         id="stop3827" />
    </linearGradient>
    <linearGradient
       id="linearGradient3956">
      <stop
         style="stop-color:#f8f4e1;stop-opacity:1;"
         offset="0"
         id="stop3958" />
      <stop
         style="stop-color:#eae5c8;stop-opacity:1;"
         offset="1"
         id="stop3960" />
    </linearGradient>
    <linearGradient
       id="linearGradient3915">
      <stop
         style="stop-color:#f8f4e1;stop-opacity:1;"
         offset="0"
         id="stop3917" />
      <stop
         style="stop-color:#ad9e57;stop-opacity:1;"
         offset="1"
         id="stop3919" />
    </linearGradient>
    <linearGradient
       inkscape:collect="always"
       id="linearGradient3861">
      <stop
         style="stop-color:#000000;stop-opacity:1;"
         offset="0"
         id="stop3863" />
      <stop
         style="stop-color:#000000;stop-opacity:0;"
         offset="1"
         id="stop3865" />
    </linearGradient>
    <linearGradient
       id="linearGradient3844">
      <stop
         style="stop-color:#000000;stop-opacity:0.39215687;"
         offset="0"
         id="stop3846" />
      <stop
         style="stop-color:#000000;stop-opacity:0;"
         offset="1"
         id="stop3848" />
    </linearGradient>
    <linearGradient
       id="linearGradient3810">
      <stop
         style="stop-color:#f2c66f;stop-opacity:1;"
         offset="0"
         id="stop3812" />
      <stop
         style="stop-color:#fbd68f;stop-opacity:1;"
         offset="1"
         id="stop3814" />
    </linearGradient>
    <linearGradient
       inkscape:collect="always"
       xlink:href="#linearGradient3810"
       id="linearGradient3816"
       x1="24"
       y1="1046.3622"
       x2="24"
       y2="1014.3622"
       gradientUnits="userSpaceOnUse" />
    <radialGradient
       inkscape:collect="always"
       xlink:href="#linearGradient3844"
       id="radialGradient3850"
       cx="24.075672"
       cy="41.38316"
       fx="24.075672"
       fy="41.38316"
       r="21.075672"
       gradientTransform="matrix(1,0,0,0.11307633,0,36.703704)"
       gradientUnits="userSpaceOnUse" />
    <linearGradient
       inkscape:collect="always"
       xlink:href="#linearGradient3810"
       id="linearGradient3856"
       gradientUnits="userSpaceOnUse"
       x1="24"
       y1="1046.3622"
       x2="24"
       y2="1014.3622"
       gradientTransform="translate(0,-3)" />
    <linearGradient
       inkscape:collect="always"
       xlink:href="#linearGradient3810"
       id="linearGradient3858"
       gradientUnits="userSpaceOnUse"
       x1="24"
       y1="1046.3622"
       x2="24"
       y2="1014.3622"
       gradientTransform="translate(0,-1004.3622)" />
    <linearGradient
       inkscape:collect="always"
       xlink:href="#linearGradient3861"
       id="linearGradient3867"
       x1="1.9952807"
       y1="28.5625"
       x2="46.004719"
       y2="28.5625"
       gradientUnits="userSpaceOnUse" />
    <linearGradient
       inkscape:collect="always"
       xlink:href="#linearGradient3915"
       id="linearGradient3921"
       x1="35"
       y1="8"
       x2="38"
       y2="5"
       gradientUnits="userSpaceOnUse" />
    <linearGradient
       inkscape:collect="always"
       xlink:href="#linearGradient3915"
       id="linearGradient3933"
       gradientUnits="userSpaceOnUse"
       x1="35"
       y1="8"
       x2="38"
       y2="5"
       gradientTransform="matrix(1.0436562,0,0,1.2222222,26.301501,1003.2511)" />
    <linearGradient
       inkscape:collect="always"
       xlink:href="#linearGradient3915"
       id="linearGradient3954"
       x1="35"
       y1="11"
       x2="44"
       y2="5"
       gradientUnits="userSpaceOnUse"
       gradientTransform="translate(22,1004.3622)" />
    <linearGradient
       inkscape:collect="always"
       xlink:href="#linearGradient3823"
       id="linearGradient3829"
       x1="21"
       y1="14"
       x2="20"
       y2="24"
       gradientUnits="userSpaceOnUse" />
    <linearGradient
       inkscape:collect="always"
       xlink:href="#linearGradient3833"
       id="linearGradient3839"
       gradientUnits="userSpaceOnUse"
       x1="21"
       y1="14"
       x2="20"
       y2="26" />
    <linearGradient
       inkscape:collect="always"
       xlink:href="#linearGradient3855"
       id="linearGradient3862"
       x1="22"
       y1="15"
       x2="20"
       y2="30"
       gradientUnits="userSpaceOnUse" />
    <clipPath
       id="clipPath-069049578">
      <g
         id="g3352"
         transform="translate(0,-1004.3622)">
        <path
           id="path3354"
           transform="matrix(15.333333,0,0,11.5,414.99999,878.8622)"
           d="m -24,13 c 0,1.105 -0.672,2 -1.5,2 -0.828,0 -1.5,-0.895 -1.5,-2 0,-1.105 0.672,-2 1.5,-2 0.828,0 1.5,0.895 1.5,2 z"
           inkscape:connector-curvature="0"
           style="fill:#1890d0" />
      </g>
    </clipPath>
    <clipPath
       id="clipPath-059275953">
      <g
         id="g3347"
         transform="translate(0,-1004.3622)">
        <path
           id="path3349"
           transform="matrix(15.333333,0,0,11.5,414.99999,878.8622)"
           d="m -24,13 c 0,1.105 -0.672,2 -1.5,2 -0.828,0 -1.5,-0.895 -1.5,-2 0,-1.105 0.672,-2 1.5,-2 0.828,0 1.5,0.895 1.5,2 z"
           inkscape:connector-curvature="0"
           style="fill:#1890d0" />
      </g>
    </clipPath>
    <linearGradient
       gradientTransform="matrix(0,-1,1,0,-1.5e-6,47.999998)"
       gradientUnits="userSpaceOnUse"
       x2="47"
       x1="1"
       id="linearGradient3764">
      <stop
         id="stop3342"
         stop-opacity="1"
         stop-color="#d6740a" />
      <stop
         id="stop3344"
         stop-opacity="1"
         stop-color="#e87e0b"
         offset="1" />
    </linearGradient>
    <clipPath
       id="clipPath-483879499">
      <g
         id="g3401"
         transform="translate(0,-1004.3622)">
        <path
           id="path3403"
           transform="matrix(15.333333,0,0,11.5,414.99999,878.8622)"
           d="m -24,13 c 0,1.105 -0.672,2 -1.5,2 -0.828,0 -1.5,-0.895 -1.5,-2 0,-1.105 0.672,-2 1.5,-2 0.828,0 1.5,0.895 1.5,2 z"
           inkscape:connector-curvature="0"
           style="fill:#1890d0" />
      </g>
    </clipPath>
    <clipPath
       id="clipPath-478329641">
      <g
         id="g3396"
         transform="translate(0,-1004.3622)">
        <path
           id="path3398"
           transform="matrix(15.333333,0,0,11.5,414.99999,878.8622)"
           d="m -24,13 c 0,1.105 -0.672,2 -1.5,2 -0.828,0 -1.5,-0.895 -1.5,-2 0,-1.105 0.672,-2 1.5,-2 0.828,0 1.5,0.895 1.5,2 z"
           inkscape:connector-curvature="0"
           style="fill:#1890d0" />
      </g>
    </clipPath>
    <linearGradient
       gradientTransform="matrix(0,-1,1,0,-1.5e-6,47.999998)"
       gradientUnits="userSpaceOnUse"
       x2="47"
       x1="1"
       id="linearGradient3764-2">
      <stop
         id="stop3391"
         stop-opacity="1"
         stop-color="#333" />
      <stop
         id="stop3393"
         stop-opacity="1"
         stop-color="#3d3d3d"
         offset="1" />
    </linearGradient>
  </defs>
  <sodipodi:namedview
     id="base"
     pagecolor="#ffffff"
     bordercolor="#666666"
     borderopacity="1.0"
     inkscape:pageopacity="0.0"
     inkscape:pageshadow="2"
     inkscape:zoom="24.932586"
     inkscape:cx="4.8417894"
     inkscape:cy="4.9053481"
     inkscape:document-units="px"
     inkscape:current-layer="layer1"
     showgrid="true"
     inkscape:window-width="1280"
     inkscape:window-height="998"
     inkscape:window-x="0"
     inkscape:window-y="0"
     inkscape:window-maximized="1">
    <inkscape:grid
       type="xygrid"
       id="grid2990"
       empspacing="5"
       visible="true"
       enabled="true"
       snapvisiblegridlinesonly="true" />
  </sodipodi:namedview>
  <metadata
     id="metadata7">
    <rdf:RDF>
      <cc:Work
         rdf:about="">
        <dc:format>image/svg+xml</dc:format>
        <dc:type
           rdf:resource="http://purl.org/dc/dcmitype/StillImage" />
        <dc:title />
      </cc:Work>
    </rdf:RDF>
  </metadata>
  <g
     inkscape:label="Body"
     inkscape:groupmode="layer"
     id="layer1"
     transform="translate(0,-1036.3622)">
    <path
       style="opacity:1;fill:#7e57c2;fill-opacity:1;fill-rule:nonzero;stroke:none"
       d="M 12.5 1.3125 C 10.574536 1.3125 9 2.8273 9 4.6875 C 9 5.3118377 9.1903968 5.9018139 9.5 6.40625 L 9.5 10.0625 C 9.1186557 10.138639 8.7663529 10.30681 8.46875 10.53125 L 5 9.03125 C 5 7.70455 3.8747164 6.625 2.5 6.625 C 1.1277451 6.625 -5.9211895e-16 7.70385 0 9.03125 C 0 10.36045 1.1271297 11.46875 2.5 11.46875 C 3.0567601 11.46875 3.5828475 11.270041 4 10.96875 L 7.5 12.5 C 7.5360845 13.799478 8.6496108 14.84375 10 14.84375 C 11.374716 14.84375 12.5 13.7667 12.5 12.4375 C 12.5 11.883667 12.296533 11.377821 11.96875 10.96875 L 12 10.96875 L 13.84375 7.8125 C 13.856906 7.8070854 13.861925 7.786816 13.875 7.78125 C 15.109004 7.2559384 16 6.0685421 16 4.6875 C 16 2.8291 14.423003 1.3125 12.5 1.3125 z M 12.5 2.4375 C 13.793489 2.4375 14.8125 3.4377 14.8125 4.6875 C 14.8125 5.9398 13.792873 6.9375 12.5 6.9375 C 11.204665 6.9375 10.1875 5.9398 10.1875 4.6875 C 10.1875 3.4377 11.204665 2.4375 12.5 2.4375 z M 12.5 3.25 C 11.672955 3.25 11 3.8844 11 4.6875 C 11 5.4874 11.672955 6.125 12.5 6.125 C 13.329507 6.125 14 5.488 14 4.6875 C 14 3.885 13.329507 3.25 12.5 3.25 z M 2.5 7.59375 C 3.3211024 7.59375 3.7893505 7.9142488 3.9375 8.5625 L 3.0625 8.1875 C 2.4951372 7.9542 1.8343561 8.1988 1.59375 8.75 C 1.3531438 9.2983 1.6201371 9.92555 2.1875 10.15625 L 2.84375 10.46875 C 2.7341941 10.483851 2.6252259 10.5 2.5 10.5 C 1.5000385 10.5 1 9.99975 1 9.03125 C 1 8.06505 1.5000385 7.59375 2.5 7.59375 z M 10 10.8125 C 10.925502 10.8125 11.65625 11.5434 11.65625 12.4375 C 11.65625 13.3316 10.925502 14.03125 10 14.03125 C 9.2484407 14.03125 8.613934 13.564114 8.40625 12.90625 L 9.59375 13.40625 C 10.161113 13.63945 10.821894 13.3628 11.0625 12.8125 C 11.303106 12.2642 11.036112 11.63705 10.46875 11.40625 L 9.375 10.9375 C 9.5665978 10.863722 9.7798249 10.8125 10 10.8125 z "
       transform="translate(0,1036.3622)"
       id="path3447" />
  </g>
</svg>
