<?xml version="1.0" encoding="UTF-8" standalone="no"?>


<svg
   xmlns:dc="http://purl.org/dc/elements/1.1/"
   xmlns:cc="http://creativecommons.org/ns#"
   xmlns:rdf="http://www.w3.org/1999/02/22-rdf-syntax-ns#"
   xmlns:svg="http://www.w3.org/2000/svg"
   xmlns="http://www.w3.org/2000/svg"
   xmlns:sodipodi="http://sodipodi.sourceforge.net/DTD/sodipodi-0.dtd"
   xmlns:inkscape="http://www.inkscape.org/namespaces/inkscape"
   width="16"
   height="16"
   id="svg2"
   version="1.1"
   inkscape:version="0.48.5 r10040"
   sodipodi:docname="folder-recent.svg"
   inkscape:export-filename="/media/Data/Main/Visuals/Icons/Numix/Desktop/repos/numix-wiki/Gjorgi/Numix-folders/48/New/folder-144.png"
   inkscape:export-xdpi="270"
   inkscape:export-ydpi="270">
  <defs
     id="defs4" />
  <sodipodi:namedview
     id="base"
     pagecolor="#ffffff"
     bordercolor="#666666"
     borderopacity="1.0"
     inkscape:pageopacity="0.0"
     inkscape:pageshadow="2"
     inkscape:zoom="65.782651"
     inkscape:cx="4.063793"
     inkscape:cy="14.151377"
     inkscape:document-units="px"
     inkscape:current-layer="layer1"
     showgrid="true"
     inkscape:window-width="1920"
     inkscape:window-height="1052"
     inkscape:window-x="0"
     inkscape:window-y="28"
     inkscape:window-maximized="1"
     showguides="true"
     inkscape:guide-bbox="true">
    <inkscape:grid
       type="xygrid"
       id="grid2985"
       empspacing="5"
       visible="true"
       enabled="true"
       snapvisiblegridlinesonly="true" />
  </sodipodi:namedview>
  <metadata
     id="metadata7">
    <rdf:RDF>
      <cc:Work
         rdf:about="">
        <dc:format>image/svg+xml</dc:format>
        <dc:type
           rdf:resource="http://purl.org/dc/dcmitype/StillImage" />
        <dc:title />
      </cc:Work>
    </rdf:RDF>
  </metadata>
  <g
     inkscape:label="Layer 1"
     inkscape:groupmode="layer"
     id="layer1"
     transform="translate(0,-1036.3622)">
    <path
       id="path4105"
       d="m 1,1036.3622 0,5 5,0 -1.71875,-1.7188 c 1.022639,-0.8028 2.318003,-1.2812 3.718749,-1.2812 3.313708,0 6,2.6863 6,6 0,3.3137 -2.686292,6 -6,6 -3.313708,0 -5.999999,-2.6863 -5.999999,-6 0,-0.7007 0.122984,-1.3749 0.34375,-2 l -2.09375,0 c -0.163705,0.6377 -0.25,1.3112 -0.25,2 0,4.4183 3.581722,8 7.999999,8 4.418278,0 8,-3.5817 8,-8 0,-4.4183 -3.581722,-8 -8,-8 -1.956871,0 -3.766194,0.6769 -5.156249,1.8437 L 1,1036.3622 z m 6.90625,2.9687 a 1.0001,1.0001 0 0 0 -0.125,0.031 1.0001,1.0001 0 0 0 -0.78125,1 l 0,3.6875 a 1.0001,1.0001 0 0 0 0,0.094 1.0001,1.0001 0 0 0 0.125,0.75 1.0001,1.0001 0 0 0 0.03125,0.031 1.0001,1.0001 0 0 0 0.03125,0.062 1.0001,1.0001 0 0 0 0.03125,0.031 1.0001,1.0001 0 0 0 0.03125,0.031 1.0001,1.0001 0 0 0 0.03125,0.031 1.0001,1.0001 0 0 0 0.03125,0.031 1.0001,1.0001 0 0 0 0.0625,0.031 1.0001,1.0001 0 0 0 0.03125,0.031 1.0001,1.0001 0 0 0 0.03125,0.031 1.0001,1.0001 0 0 0 0.0625,0.031 1.0001,1.0001 0 0 0 0.125,0.062 l 2.468749,1.4375 a 1.0077822,1.0077822 0 1 0 1,-1.75 l -2.09375,-1.2188 0,-3.4062 a 1.0001,1.0001 0 0 0 -1.093749,-1.0313 z"
       style="line-height:normal;color:#000000;fill:#ef5350;fill-opacity:1"
       inkscape:connector-curvature="0" />
  </g>
</svg>
