<?xml version="1.0" encoding="UTF-8" standalone="no"?>


<svg
   xmlns:dc="http://purl.org/dc/elements/1.1/"
   xmlns:cc="http://creativecommons.org/ns#"
   xmlns:rdf="http://www.w3.org/1999/02/22-rdf-syntax-ns#"
   xmlns:svg="http://www.w3.org/2000/svg"
   xmlns="http://www.w3.org/2000/svg"
   xmlns:sodipodi="http://sodipodi.sourceforge.net/DTD/sodipodi-0.dtd"
   xmlns:inkscape="http://www.inkscape.org/namespaces/inkscape"
   width="16"
   height="16"
   id="svg2"
   version="1.1"
   inkscape:version="0.48.5 r10040"
   sodipodi:docname="folder-saved-search.svg"
   inkscape:export-filename="/media/Data/Main/Visuals/Icons/Numix/Desktop/repos/numix-wiki/Gjorgi/Numix-folders/48/New/folder-144.png"
   inkscape:export-xdpi="270"
   inkscape:export-ydpi="270">
  <defs
     id="defs4" />
  <sodipodi:namedview
     id="base"
     pagecolor="#ffffff"
     bordercolor="#666666"
     borderopacity="1.0"
     inkscape:pageopacity="0.0"
     inkscape:pageshadow="2"
     inkscape:zoom="65.782651"
     inkscape:cx="4.063793"
     inkscape:cy="7.4626832"
     inkscape:document-units="px"
     inkscape:current-layer="layer1"
     showgrid="true"
     inkscape:window-width="1920"
     inkscape:window-height="1052"
     inkscape:window-x="0"
     inkscape:window-y="28"
     inkscape:window-maximized="1"
     showguides="true"
     inkscape:guide-bbox="true">
    <inkscape:grid
       type="xygrid"
       id="grid2985"
       empspacing="5"
       visible="true"
       enabled="true"
       snapvisiblegridlinesonly="true" />
  </sodipodi:namedview>
  <metadata
     id="metadata7">
    <rdf:RDF>
      <cc:Work
         rdf:about="">
        <dc:format>image/svg+xml</dc:format>
        <dc:type
           rdf:resource="http://purl.org/dc/dcmitype/StillImage" />
        <dc:title />
      </cc:Work>
    </rdf:RDF>
  </metadata>
  <g
     inkscape:label="Layer 1"
     inkscape:groupmode="layer"
     id="layer1"
     transform="translate(0,-1036.3622)">
    <path
       id="path4156"
       d="m 14.376129,1037.9793 c -2.165149,-2.1659 -5.6659882,-2.1524 -7.8311432,0.016 -1.841065,1.8416 -2.116968,4.6448 -0.829968,6.7756 l -5.34124405,5.3431 c -0.498365,0.4985 -0.498365,1.2958 0,1.7943 l 0.08032,0.08 c 0.498366,0.4986 1.29543505,0.4986 1.79380105,0 l 5.3412439,-5.343 c 2.1330801,1.2904 4.9459303,1.0249 6.7869943,-0.8168 2.165156,-2.1657 2.165153,-5.6812 0,-7.847 z m -1.218176,1.2184 c 1.489202,1.4898 1.489187,3.9204 0,5.4099 -1.475261,1.4758 -3.8623362,1.4752 -5.3546282,0.027 l -0.04017,-0.04 c -0.01332,-0.016 -0.02712,-0.027 -0.04017,-0.041 -1.44964,-1.4924 -1.435761,-3.8667 0.04017,-5.3428 1.489186,-1.4899 3.9055892,-1.5033 5.3947902,-0.016 z"
       style="line-height:normal;color:#000000;fill:#ef5350;fill-opacity:1"
       inkscape:connector-curvature="0" />
  </g>
</svg>
