<?xml version="1.0" encoding="utf-8"?>
<!-- Generator: Adobe Illustrator 16.0.0, SVG Export Plug-In . SVG Version: 6.00 Build 0)  -->
<!DOCTYPE svg PUBLIC "-//W3C//DTD SVG 1.1//EN" "http://www.w3.org/Graphics/SVG/1.1/DTD/svg11.dtd">
<svg version="1.1" id="Capa_1" xmlns="http://www.w3.org/2000/svg" xmlns:xlink="http://www.w3.org/1999/xlink" x="0px" y="0px"
	 width="595.279px" height="841.891px" viewBox="0 0 595.279 841.891" enable-background="new 0 0 595.279 841.891"
	 xml:space="preserve">
<path fill="#FDFCFD" d="M345.937,145.104c-6.905-3.294-15.04-2.421-20.993,2.381L131.914,301.9H39.686
	C17.819,301.9,0,319.719,0,341.585v158.742c0,21.906,17.818,39.686,39.686,39.686h92.229l192.989,154.415
	c3.611,2.857,8.017,4.326,12.422,4.326c2.937,0,5.873-0.675,8.611-1.984c6.866-3.294,11.231-10.239,11.231-17.858v-515.91
	C357.168,155.382,352.803,148.437,345.937,145.104z"/>
<path fill="#FDFCFD" d="M457.612,280.629c-7.818-7.699-20.358-7.58-28.058,0.159c-7.699,7.818-7.619,20.358,0.159,28.097
	c30.002,29.605,46.511,69.41,46.511,112.071c0,42.662-16.509,82.467-46.511,112.071c-7.778,7.659-7.858,20.24-0.159,28.058
	c3.89,3.929,9.009,5.874,14.088,5.874c5.04,0,10.08-1.905,13.97-5.755c37.622-37.026,58.298-86.871,58.298-140.248
	C515.909,367.58,495.234,317.734,457.612,280.629z"/>
<path fill="#FDFCFD" d="M513.608,224.712c-7.818-7.738-20.358-7.659-28.098,0.119c-7.698,7.778-7.619,20.359,0.119,28.058
	c45.122,44.726,69.966,104.412,69.966,168.067s-24.844,123.303-69.966,168.028c-7.738,7.738-7.817,20.318-0.119,28.097
	c3.929,3.89,9.009,5.834,14.089,5.834c5.04,0,10.119-1.905,14.009-5.755c52.702-52.186,81.672-121.873,81.672-196.204
	C595.28,346.625,566.31,276.938,513.608,224.712z"/>
</svg>
