<svg xmlns="http://www.w3.org/2000/svg" width="24" height="24" viewBox="0 0 18 18">
 <g>
  <path d="m 15.75 9 c 0 3.211 -3.02 5.813 -6.75 5.813 c -3.727 0 -6.75 -2.602 -6.75 -5.813 c 0 -3.211 3.02 -5.813 6.75 -5.813 c 3.727 0 6.75 2.602 6.75 5.813 m 0 0" style="fill:#ffd95d;fill-opacity:1;stroke:none;fill-rule:nonzero"/>
  <path d="m 6.25 6.895 c -0.273 0.172 -0.438 0.473 -0.438 0.793 c 0 0.52 0.418 0.938 0.938 0.938 c 0.504 0 0.918 -0.398 0.938 -0.902 m -1.438 -0.828" style="fill:#646464;fill-opacity:1;stroke:none;fill-rule:nonzero"/>
  <path d="m 11.75 6.895 l -1.438 0.828 c 0.02 0.504 0.434 0.902 0.938 0.902 c 0.52 0 0.938 -0.418 0.938 -0.938 c 0 -0.32 -0.168 -0.621 -0.438 -0.793 m 0 0" style="fill:#646464;fill-opacity:1;stroke:none;fill-rule:nonzero"/>
  <path d="m 11.223 10.5 c -0.156 0.645 -1.105 1.125 -2.223 1.125 l 0 0.75 c 1.281 0 2.371 -0.793 2.586 -1.875 m -0.363 0" style="fill:#646464;fill-opacity:1;stroke:none;fill-rule:nonzero"/>
  <path d="m 10.5 6.375 l 1.875 0 c 0.414 0 0.75 0.336 0.75 0.75 l 0 1.5 c 0 0.414 -0.336 0.75 -0.75 0.75 l -1.875 0 c -0.414 0 -0.75 -0.336 -0.75 -0.75 l 0 -1.5 c 0 -0.414 0.336 -0.75 0.75 -0.75 m 0 0" style="fill:#454545;fill-opacity:1;stroke:none;fill-rule:nonzero"/>
  <path d="m 12.938 7.875 c -0.105 0 -0.188 0.082 -0.188 0.188 c 0 0.105 0.082 0.188 0.188 0.188 l 2.754 0 c -0.023 -0.125 -0.047 -0.25 -0.078 -0.375 m -2.676 0" style="fill:#454545;fill-opacity:1;stroke:none;fill-rule:nonzero"/>
  <path d="m 7.305 3.379 c -0.141 0.031 -0.281 0.066 -0.418 0.109 l 3.426 3.426 c 0.074 0.074 0.191 0.074 0.266 0 c 0.074 -0.074 0.074 -0.191 0 -0.266 m -3.273 -3.27" style="fill:#454545;fill-opacity:1;stroke:none;fill-rule:nonzero"/>
 </g>
</svg>
