<svg xmlns="http://www.w3.org/2000/svg" width="24" height="24" viewBox="0 0 18 18">
 <g>
  <path d="m 15.75 9 c 0 3.211 -3.02 5.813 -6.75 5.813 c -3.727 0 -6.75 -2.602 -6.75 -5.813 c 0 -3.211 3.02 -5.813 6.75 -5.813 c 3.727 0 6.75 2.602 6.75 5.813 m 0 0" style="fill:#ffd95d;fill-opacity:1;stroke:none;fill-rule:nonzero"/>
  <path d="m 9.75 11.813 c 0 -0.934 -0.336 -1.688 -0.75 -1.688 c -0.414 0 -0.75 0.754 -0.75 1.688 c 0 0.934 0.336 1.688 0.75 1.688 c 0.414 0 0.75 -0.754 0.75 -1.688 m 0 0" style="fill:#646464;fill-opacity:1;stroke:none;fill-rule:nonzero"/>
  <path d="m 5.438 7.875 l 2.25 0 c 0.105 0 0.188 0.082 0.188 0.188 c 0 0.105 -0.082 0.188 -0.188 0.188 l -2.25 0 c -0.105 0 -0.188 -0.082 -0.188 -0.188 c 0 -0.105 0.082 -0.188 0.188 -0.188 m 0 0" style="fill:#646464;fill-opacity:1;stroke:none;fill-rule:nonzero"/>
  <path d="m 10.313 7.875 l 2.25 0 c 0.105 0 0.188 0.082 0.188 0.188 c 0 0.105 -0.082 0.188 -0.188 0.188 l -2.25 0 c -0.105 0 -0.188 -0.082 -0.188 -0.188 c 0 -0.105 0.082 -0.188 0.188 -0.188 m 0 0" style="fill:#646464;fill-opacity:1;stroke:none;fill-rule:nonzero"/>
 </g>
</svg>
