<svg xmlns="http://www.w3.org/2000/svg" width="24" height="24" viewBox="0 0 18 18">
 <g>
  <path d="m 15.75 9 c 0 3.211 -3.02 5.813 -6.75 5.813 c -3.727 0 -6.75 -2.602 -6.75 -5.813 c 0 -3.211 3.02 -5.813 6.75 -5.813 c 3.727 0 6.75 2.602 6.75 5.813 m 0 0" style="fill:#ffd95d;fill-opacity:1;stroke:none;fill-rule:nonzero"/>
  <path d="m 11.223 10.5 c -0.156 0.645 -1.105 1.125 -2.223 1.125 l 0 0.75 c 1.281 0 2.371 -0.793 2.586 -1.875 m -0.363 0" style="fill:#646464;fill-opacity:1;stroke:none;fill-rule:nonzero"/>
  <path d="m 6.06 5.934 c -0.387 0 -0.633 0.027 -0.637 0.027 c -0.008 0 -0.863 0.074 -1.313 0.469 c -0.27 0.234 -0.309 0.59 -0.309 0.602 c 0 0.004 -0.031 0.211 -0.023 0.656 c 0.012 0.57 0.25 0.984 0.309 1.059 c 0.008 0.008 0.016 0.02 0.023 0.031 c 0.133 0.176 0.539 0.719 1.945 0.719 c 1.254 0 1.652 -0.508 1.676 -0.539 c 0.023 -0.027 0.512 -0.57 0.672 -1.457 l 1.195 0 c 0.16 0.887 0.648 1.43 0.672 1.457 c 0.023 0.031 0.422 0.539 1.676 0.539 c 1.406 0 1.813 -0.543 1.945 -0.719 c 0.008 -0.012 0.016 -0.023 0.023 -0.031 c 0.059 -0.074 0.297 -0.488 0.309 -1.059 c 0.008 -0.445 -0.023 -0.652 -0.023 -0.656 c 0 -0.012 -0.039 -0.367 -0.309 -0.602 c -0.449 -0.395 -1.305 -0.469 -1.313 -0.469 c -0.004 0 -0.25 -0.027 -0.637 -0.027 l -0.051 0 c -0.082 0 -0.5 0.004 -0.945 0.059 c -0.055 0.004 -0.109 0.012 -0.16 0.02 l -0.207 0.031 c -0.375 0.07 -0.637 0.168 -0.785 0.289 c -0.18 0.148 -0.215 0.352 -0.223 0.418 l -1.141 0 c -0.008 -0.066 -0.043 -0.27 -0.223 -0.418 c -0.148 -0.121 -0.41 -0.219 -0.781 -0.289 l -0.211 -0.031 c -0.051 -0.008 -0.105 -0.016 -0.16 -0.02 c -0.445 -0.055 -0.863 -0.059 -0.945 -0.059 m -0.051 0" style="fill:#033143;fill-opacity:1;stroke:none;fill-rule:nonzero"/>
 </g>
</svg>
