<svg xmlns="http://www.w3.org/2000/svg" viewBox="0 0 32 32">
 <path d="M 21.75 10.44 C 21.68 10.74 21.4 11 21.1 11 l -5.08 0 C 15.46 11 15 11.46 15 12.02 l 0 0.96 c 0 0.56 0.46 1.02 1.02 1.02 l 4.31 0 c 0.39 0 0.72 0.38 0.64 0.79 -0.13 0.43 -0.57 2.42 -0.62 2.65 C 20.32 17.69 20.1 18 19.66 18 l -3.45 0 c -0.72 0.02 -0.87 0.03 -1.3 0.56 -0.43 0.52 -3.85 4.3 -3.85 4.3 C 11.03 22.91 11 22.89 11 22.84 L 11 7.69 C 11 7.31 11.31 7 11.69 7 l 10 0 c 0.36 0 0.72 0.36 0.625 0.82 z M 10.28 4 C 8.53 4 8 5.33 8 6.17 L 8 26.5 c 0 1 0.51 1.3 0.79 1.41 0.28 0.11 1.02 0.2 1.54 -0.33 0 0 6.08 -6.36 6.18 -6.47 C 16.61 21 16.66 21 16.72 21 l 3.84 0 C 22.2 21 22.52 19.87 22.7 19.2 22.85 18.6 24.54 9.67 25.1 7.1 25.46 5.06 24.95 4 23.1 4" fill="#fa4778"/>
</svg>
