<svg xmlns="http://www.w3.org/2000/svg" viewBox="0 0 32 32">
 <path d="m 18.272 8.564 c -1.626 0.606 -2.653 2.165 -2.537 3.871 l 0.039 0.66 -0.651 -0.081 c -2.366 -0.309 -4.434 -1.358 -6.189 -3.119 l -0.858 -0.874 -0.222 0.646 c -0.469 1.438 -0.169 2.958 0.807 3.98 c 0.519 0.563 0.403 0.645 -0.495 0.307 -0.312 -0.107 -0.585 -0.188 -0.611 -0.147 -0.09 0.095 0.222 1.317 0.469 1.801 0.338 0.674 1.027 1.331 1.781 1.722 l 0.638 0.307 -0.754 0.014 c -0.73 0 -0.754 0.014 -0.677 0.296 0.26 0.874 1.288 1.801 2.432 2.206 l 0.807 0.282 -0.701 0.429 c -1.041 0.619 -2.263 0.967 -3.482 0.995 c -0.585 0.013 -1.067 0.068 -1.067 0.109 c 0 0.134 1.586 0.886 2.51 1.182 2.769 0.874 6.06 0.497 8.531 -0.995 1.755 -1.062 3.512 -3.173 4.331 -5.217 0.442 -1.089 0.885 -3.079 0.885 -4.03 0 -0.618 0.037 -0.699 0.767 -1.438 0.429 -0.429 0.833 -0.901 0.91 -1.035 0.132 -0.255 0.118 -0.255 -0.546 -0.027 -1.106 0.402 -1.262 0.35 -0.714 -0.255 0.403 -0.429 0.883 -1.209 0.883 -1.438 0 -0.041 -0.195 0.025 -0.416 0.147 -0.235 0.134 -0.754 0.336 -1.144 0.457 l -0.703 0.228 -0.638 -0.443 c -0.35 -0.242 -0.844 -0.511 -1.104 -0.592 -0.664 -0.188 -1.678 -0.161 -2.276 0.054" style="fill:#00abec"/>
</svg>
