<svg xmlns="http://www.w3.org/2000/svg" viewBox="0 0 32 32">
 <path d="m 9.457 25 c 1.102 -5.727 -1.867 -7.634 -4.654 -5.465 l -1.263 -0.784 2.235 -2.531 0.049 -1.206 2.138 -1.365 -0.536 -1.367 c 0.917 0.401 1.766 0.341 2.097 1.287 1.977 0.24 3.873 2.292 3.784 3.656 1.232 -3.576 2.958 -5.485 -2.19 -8.06 l -0.161 -1.365 3.224 0.823 1.021 -0.542 1.524 0.943 1.099 -0.823 c -0.313 0.784 0.388 1 -0.193 1.667 1.638 1.365 1.125 5.649 1.302 7.417 0.458 -1.388 1.529 -2.935 3.388 -3.36 0.146 -0.844 1.334 -0.841 2.01 -1.445 l -0.221 1.346 1.88 1.284 0.023 1.227 2.445 2.714 -1.714 0.823 c -4.063 -3.136 -5.24 0.988 -4.02 5.124" style="fill:#791918;stroke:none"/>
</svg>
