<svg width="48" xmlns="http://www.w3.org/2000/svg" viewBox="0 0 48 48" height="48">
<path style="fill:#c19553" d="M 8,1 C 6.9714285,1 6,1.9714285 6,3 l 0,42 c 0,0.971429 1.0285714,2 2,2 l 32,0 c 0.971429,0 2,-1.028571 2,-2 L 42,14 29,1 z"/>
<path style="fill-opacity:.196" d="M 29,12 29.0625,12.0625 29.21875,12 29,12 z m 2,2 11,11 0,-11 -11,0 z"/>
<path style="fill:#fff;fill-opacity:.392" d="m 29,1 13,13 -11,0 c -0.971429,0 -2,-1.028571 -2,-2 L 29,1 z"/>
<path style="fill-opacity:.196" d="m 6,35 0,10 c 0,0.971429 1.0285714,2 2,2 l 32,0 c 0.971429,0 2,-1.028571 2,-2 l 0,-10 z"/>
<g style="fill:#fff">
<g>
<path d="m 18,1 0,4 4,0 0,-4 -4,0 z m 0,4 -4,0 0,4 4,0 0,-4 z m 0,4 0,4 4,0 0,-4 -4,0 z m 0,4 -4,0 0,4 4,0 0,-4 z m 0,4 0,4 4,0 0,-4 -4,0 z m -4,6 0,8 8,0 0,-8 -4,0 -4,0 z"/>
</g>
<g style="word-spacing:0;line-height:125%;letter-spacing:0" transform="scale(1.05317 .94951)">
<path d="m 19.273345,39.060316 0,1.3555 -2.166142,0 0,6.870523 -1.647862,0 0,-6.870523 -2.166142,0 0,-1.3555 5.980146,0"/>
<path d="m 25.838217,44.801256 c -7e-6,0.496133 -0.08417,0.912527 -0.252496,1.249186 -0.168335,0.327801 -0.398681,0.593585 -0.691039,0.797353 -0.283508,0.194908 -0.624597,0.33666 -1.023269,0.425255 -0.389821,0.07973 -0.810645,0.119602 -1.262475,0.119603 -0.363241,-1e-6 -0.739769,-0.02215 -1.129583,-0.06645 -0.389819,-0.03544 -0.775206,-0.09302 -1.156162,-0.172759 l 0,-7.986817 c 0.310081,-0.05315 0.65117,-0.09745 1.023269,-0.132893 0.372096,-0.04429 0.739764,-0.06644 1.103005,-0.06645 0.62016,9e-6 1.12515,0.06645 1.51497,0.199339 0.389813,0.12404 0.695464,0.29237 0.916956,0.50499 0.221482,0.203775 0.372093,0.434121 0.451833,0.691039 0.07973,0.256931 0.119598,0.513856 0.119603,0.770774 -5e-6,0.389823 -0.09746,0.735342 -0.292362,1.036559 -0.186055,0.301227 -0.438549,0.540432 -0.757485,0.717617 0.558141,0.203772 0.934668,0.478416 1.129583,0.823931 0.203761,0.345523 0.305645,0.708761 0.305652,1.089716 m -3.880451,-1.116294 0,2.232588 c 0.115171,0.01772 0.239204,0.03101 0.372098,0.03987 0.141749,0.0089 0.279071,0.01329 0.411966,0.01329 0.186046,1e-6 0.367665,-0.01329 0.544858,-0.03987 0.177185,-0.03544 0.332226,-0.09302 0.465122,-0.17276 0.141747,-0.08859 0.25692,-0.208196 0.34552,-0.358808 0.08859,-0.159469 0.132887,-0.358807 0.132892,-0.598015 -5e-6,-0.398674 -0.128467,-0.682177 -0.385387,-0.85051 -0.24807,-0.177186 -0.584729,-0.26578 -1.009981,-0.265784 l -0.877088,0 m 0.637883,-1.3555 c 0.416391,5e-6 0.730903,-0.08859 0.943534,-0.265784 0.212623,-0.186044 0.318937,-0.438538 0.318941,-0.757485 -4e-6,-0.194902 -0.03101,-0.349943 -0.09303,-0.465123 -0.06202,-0.124026 -0.146185,-0.21705 -0.252495,-0.279073 -0.106317,-0.07087 -0.23035,-0.115166 -0.372098,-0.132892 -0.141755,-0.02657 -0.287936,-0.03986 -0.438544,-0.03987 -0.124035,7e-6 -0.252498,0.0044 -0.385387,0.01329 -0.132895,0.0089 -0.252497,0.02216 -0.358809,0.03987 l 0,1.887068 0.637883,0"/>
<path d="m 32.163882,40.203188 c -0.380963,0.584732 -0.730912,1.134019 -1.049848,1.647863 -0.318945,0.513854 -0.615738,1.005555 -0.890377,1.475102 -0.274648,0.460697 -0.536002,0.9081 -0.784064,1.342211 -0.239208,0.425257 -0.469555,0.846081 -0.691039,1.262475 l 3.534931,0 0,1.3555 -5.421999,0 0,-0.943534 c 0.194908,-0.380956 0.403105,-0.779632 0.624593,-1.19603 0.221485,-0.425252 0.46955,-0.877085 0.744196,-1.355499 0.274641,-0.478408 0.571434,-0.996687 0.890377,-1.554838 0.327798,-0.558142 0.686606,-1.165015 1.076426,-1.820622 l -3.162832,0 0,-1.3555 5.129636,0 0,1.142872"/>
</g>
</g>
</svg>
