<svg xmlns="http://www.w3.org/2000/svg" viewBox="0 0 48 48">
 <path d="m 8 1 c -1.029 0 -2 0.971 -2 2 l 0 42 c 0 0.971 1.029 2 2 2 l 32 0 c 0.971 0 2 -1.029 2 -2 l 0 -31 -13 -13 z" style="fill:#9a773c"/>
 <path d="m 29 12 0.063 0.063 0.156 -0.063 -0.219 0 z m 2 2 11 11 0 -11 -11 0 z" style="fill-opacity:0.196"/>
 <path d="m 29 1 13 13 -11 0 c -0.971 0 -2 -1.029 -2 -2 l 0 -11 z" style="fill:#fff;fill-opacity:0.392"/>
 <path d="m 16.275 16 c -1.171 0 -2.942 2.308 -2.02 3.135 l 4.831 4.317 c 0.183 -0.365 0.417 -0.738 0.742 -1.092 0.355 -0.385 0.697 -0.636 1.012 -0.848 l -3.638 -4.82 c -0.381 -0.408 -0.449 -0.691 -0.93 -0.691 m 8.893 5.488 c -0.252 0 -0.519 0.009 -0.771 0.016 -1.052 0.006 -2.155 0.189 -3.131 0.547 -0.698 0.567 -1.183 1.192 -1.645 1.94 -0.922 2.552 0.177 6.849 4.221 7.848 4.584 1.128 4.829 -0.092 6.793 1.254 1.974 1.342 0.869 3.376 1.805 2.811 0.481 -0.286 2 -2.424 1.437 -5.912 -0.614 -3.737 -2.213 -5.727 -3.823 -7.086 -1.248 -1.056 -3.098 -1.416 -4.883 -1.416 z" style="fill:#fff;fill-opacity:1;stroke:none;fill-rule:nonzero"/>
</svg>
