<svg width="48" xmlns="http://www.w3.org/2000/svg" viewBox="0 0 48 48" height="48">
<path style="fill:#c19553" d="M 8.0571429,6 C 7.0285714,6 6,7.0285714 6,8.0571429 L 6,40 c 0,0.971429 1.0285714,2 2,2 l 32,0 c 0.971429,0 2,-1.028571 2,-2 L 42,8 C 42,7.0285714 40.971429,6 40,6 z"/>
<g style="fill:#fff">
<path style="fill-opacity:.196" d="M 8.0571429,6 C 7.0285714,6 6,7.0285714 6,8.0571429 L 6,18 c 4,0 32,0 36,0 L 42,8 C 42,7.0285714 40.971429,6 40,6 z"/>
<path style="fill-opacity:.392" d="m 21,10 0,16 6,0 0,-16 z"/>
</g>
</svg>
