<svg xmlns="http://www.w3.org/2000/svg" viewBox="0 0 48 48">
 <defs>
  
 </defs>
 <path d="m 8 1 c -1.029 0 -2 0.971 -2 2 l 0 42 c 0 0.971 1.029 2 2 2 l 32 0 c 0.971 0 2 -1.029 2 -2 l 0 -31 -13 -13 z" style="fill:#a6a6a6;fill-opacity:1"/>
 <path d="m 29 12 0.063 0.063 0.156 -0.063 -0.219 0 z m 2 2 11 11 0 -11 -11 0 z" style="fill-opacity:0.196"/>
 <path d="m 29 1 13 13 -11 0 c -0.971 0 -2 -1.029 -2 -2 l 0 -11 z" style="fill:#fff;fill-opacity:0.392"/>
 <path d="m 28.615 22.27 a 0.769 0.794 0 0 1 -0.769 0.794 0.769 0.794 0 0 1 -0.769 -0.794 0.769 0.794 0 0 1 0.769 -0.794 0.769 0.794 0 0 1 0.769 0.794 z m 1.538 1.587 a 0.769 0.794 0 0 1 -0.769 0.794 0.769 0.794 0 0 1 -0.769 -0.794 0.769 0.794 0 0 1 0.769 -0.794 0.769 0.794 0 0 1 0.769 0.794 z m 1.538 -1.587 a 0.769 0.794 0 0 1 -0.769 0.794 0.769 0.794 0 0 1 -0.769 -0.794 0.769 0.794 0 0 1 0.769 -0.794 0.769 0.794 0 0 1 0.769 0.794 z m -1.538 -1.587 a 0.769 0.794 0 0 1 -0.769 0.794 0.769 0.794 0 0 1 -0.769 -0.794 0.769 0.794 0 0 1 0.769 -0.794 0.769 0.794 0 0 1 0.769 0.794 z m -10 1.587 a 1.538 1.587 0 0 1 -1.538 1.587 1.538 1.587 0 0 1 -1.538 -1.587 1.538 1.587 0 0 1 1.538 -1.587 1.538 1.587 0 0 1 1.538 1.587 z m -1.36 -5.553 c -0.553 0.023 -1.01 0.268 -1.322 0.513 C 15.618 18.68 14 24.731 14 27.933 c 0 3.202 0.714 3.066 1.333 3.066 0.619 0 1.397 -0.439 2.078 -1.057 1.878 -1.706 2.743 -3.704 4.611 -3.704 l 3.957 0 c 1.868 0 2.733 1.998 4.611 3.704 0.68 0.618 1.459 1.057 2.078 1.057 0.619 0 1.333 0.136 1.333 -3.066 0 -3.202 -1.618 -9.253 -3.472 -10.704 -0.502 -0.393 -1.365 -0.783 -2.416 -0.268 -0.705 0.346 -1.335 0.547 -2.255 0.547 l -3.714 0 c -0.921 0 -1.55 -0.201 -2.255 -0.547 -0.394 -0.193 -0.762 -0.259 -1.094 -0.245 z" style="fill:#fff;opacity:1;fill-opacity:1;stroke:none;fill-rule:nonzero"/>
 <path d="m 6 35 0 10 c 0 0.971 1.029 2 2 2 l 32 0 c 0.971 0 2 -1.029 2 -2 l 0 -10 z" style="fill-opacity:0.196"/>
 <g transform="translate(-1,0)">
  <path d="m 19.544 45 q -0.618 -1.331 -1.353 -2.649 -0.721 -1.331 -1.559 -2.662 l 0 5.312 -1.632 0 l 0 -8 1.456 0 q 0.412 0.569 0.824 1.241 0.412 0.659 0.794 1.318 0.397 0.659 0.721 1.279 0.338 0.62 0.574 1.086 l 0 -4.924 1.632 0 l 0 8 -1.456 0 z" style="fill:#fff;fill-opacity:1;stroke:none"/>
  <path d="m 24.861 41.14 q -0.279 0 -0.572 0.05 -0.293 0.05 -0.484 0.138 -0.015 0.113 -0.029 0.226 0 0.113 0 0.239 0 0.365 0.059 0.704 0.059 0.327 0.205 0.591 0.147 0.264 0.396 0.428 0.264 0.151 0.645 0.151 0.308 0 0.528 -0.126 0.22 -0.126 0.352 -0.314 0.147 -0.189 0.205 -0.415 0.073 -0.226 0.073 -0.44 0 -0.591 -0.308 -0.906 -0.308 -0.327 -1.071 -0.327 z m 0.235 -1.283 q 0.792 0 1.335 0.201 0.557 0.201 0.91 0.541 0.352 0.34 0.499 0.792 q 0.161 0.453 0.161 0.956 q 0 0.453 -0.176 0.918 -0.161 0.465 -0.513 0.855 -0.352 0.39 -0.895 0.642 -0.543 0.239 -1.291 0.239 -1.526 0 -2.333 -0.805 q -0.792 -0.818 -0.792 -2.541 q 0 -1.132 0.381 -2 0.396 -0.868 1.115 -1.459 0.719 -0.591 1.731 -0.893 1.012 -0.302 2.244 -0.302 l 0.103 1.321 q -0.587 0.013 -1.144 0.101 -0.557 0.088 -1.027 0.302 -0.469 0.201 -0.822 0.528 -0.337 0.327 -0.499 0.818 0.279 -0.101 0.543 -0.151 0.264 -0.063 0.469 -0.063 z" style="fill:#fff;fill-opacity:1;stroke:none"/>
  <path d="m 32.455 38.99 q -0.241 0.297 -0.496 0.633 -0.254 0.336 -0.509 0.711 -0.241 0.362 -0.469 0.737 -0.228 0.375 -0.402 0.737 l 1.875 0 0 -2.817 z m 1.647 -1.99 l 0 4.808 0.897 0 0 1.305 -0.897 0 0 1.887 -1.647 0 0 -1.887 -3.455 0 0 -1.163 q 0.254 -0.504 0.656 -1.137 0.402 -0.646 0.884 -1.318 0.482 -0.672 1.018 -1.318 q 0.536 -0.659 1.071 -1.176 l 1.473 0 z" style="fill:#fff;fill-opacity:1;stroke:none"/>
 </g>
</svg>
