<svg xmlns="http://www.w3.org/2000/svg" viewBox="0 0 48 48">
 <path d="m 8 1 c -1.029 0 -2 0.971 -2 2 l 0 42 c 0 0.971 1.029 2 2 2 l 32 0 c 0.971 0 2 -1.029 2 -2 l 0 -31 -13 -13 z" style="fill:#c19553"/>
 <path d="m 29 12 0.063 0.063 0.156 -0.063 -0.219 0 z m 2 2 11 11 0 -11 -11 0 z" style="fill-opacity:0.196"/>
 <path d="m 29 1 13 13 -11 0 c -0.971 0 -2 -1.029 -2 -2 l 0 -11 z" style="fill:#fff;fill-opacity:0.392"/>
 <path d="m 6 35 0 10 c 0 0.971 1.029 2 2 2 l 32 0 c 0.971 0 2 -1.029 2 -2 l 0 -10 z" style="fill-opacity:0.196"/>
 <g style="fill:#fff">
  <g style="fill:#fff">
   <path d="m 18 1 0 4 4 0 0 -4 -4 0 z m 0 4 -4 0 0 4 4 0 0 -4 z m 0 4 0 4 4 0 0 -4 -4 0 z m 0 4 -4 0 0 4 4 0 0 -4 z m 0 4 0 4 4 0 0 -4 -4 0 z m -4 6 0 8 8 0 0 -8 -4 0 -4 0 z" style="fill:#fff"/>
  </g>
  <g transform="scale(.9982 1.0018)" style="fill:#fff">
   <path d="m 35.985 38.04 c -1.227 1.842 -2.338 3.698 -3.366 5.56 l 3.484 0 0 1.316 -5.344 0 0 -0.916 c 1.023 -1.992 2.182 -3.917 3.287 -5.754 l -3.117 0 0 -1.316 5.05 0 0 1.109" style="fill:#fff"/>
  </g>
 </g>
 <path d="m 22.95 45 -4.7 0 0 -8 1.6 0 0 6.7 3.1 0 0 1.3" style="fill:#fff"/>
 <path d="m 26.28 36.94 c 0.443 0 0.845 0.051 1.204 0.155 0.36 0.103 0.669 0.262 0.928 0.476 0.259 0.215 0.456 0.489 0.59 0.824 0.142 0.326 0.213 0.712 0.213 1.159 0 0.464 -0.092 0.884 -0.276 1.262 -0.184 0.378 -0.489 0.665 -0.916 0.863 0.717 1.14 1.242 2.191 1.728 3.322 l -1.618 0 c -0.398 -1.061 -0.996 -2.029 -1.515 -2.936 l -0.777 0 0 2.936 -1.589 0 0 -7.854 c 0.524 -0.127 1.07 -0.153 1.588 -0.193 0.167 -0.009 0.314 -0.013 0.439 -0.013 m 1.367 2.601 c 0 -0.421 -0.125 -0.73 -0.376 -0.927 -0.251 -0.197 -0.581 -0.296 -0.991 -0.296 -0.161 -0.002 -0.289 0.026 -0.438 0.039 l 0 2.395 0.313 0 c 0.527 0 0.907 -0.103 1.142 -0.309 0.234 -0.215 0.351 -0.515 0.351 -0.901" style="fill:#fff"/>
 <path d="m 17.3 37 0 1.3 -2 0 0 6.7 -1.6 0 0 -6.7 -2.04 0 0 -1.3 5.64 0" style="fill:#fff"/>
</svg>
