<svg xmlns="http://www.w3.org/2000/svg" viewBox="0 0 48 48">
 <path d="m 8 1 c -1.029 0 -2 0.971 -2 2 l 0 42 c 0 0.971 1.029 2 2 2 l 32 0 c 0.971 0 2 -1.029 2 -2 l 0 -31 -13 -13 z" style="fill:#e6b81a"/>
 <path d="m 29 12 0.063 0.063 0.156 -0.063 -0.219 0 z m 2 2 11 11 0 -11 -11 0 z" style="fill-opacity:0.196"/>
 <path d="m 29 1 13 13 -11 0 c -0.971 0 -2 -1.029 -2 -2 l 0 -11 z" style="fill:#fff;fill-opacity:0.392"/>
 <g transform="matrix(1,0,0,1.0058823,0,-1.2235292)">
  <path d="m 24 19.11 c -5.391 0 -10 4.02 -10 9.444 0 4.722 3.329 8.264 6.889 9.444 -2.365 -1.627 -4.536 -4.722 -4.536 -8.264 0 -4.079 2.941 -7.083 6.363 -7.083 3.195 0 5.389 3.054 5.401 5.903 0 2 -1.634 3.644 -2.941 4.722 2.353 0 5.294 -1.955 5.294 -5.903 0 -3.542 -2.941 -8.264 -6.471 -8.264 z" style="fill:#fff;fill-opacity:1;stroke:none;fill-rule:evenodd"/>
  <path d="m 24 38 c 5.391 0 10 -4.02 10 -9.444 0 -4.722 -3.329 -8.264 -6.889 -9.444 2.365 1.627 4.536 4.722 4.536 8.264 0 4.079 -2.941 7.083 -6.363 7.083 -3.195 0 -5.389 -3.054 -5.401 -5.903 0 -2 1.634 -3.644 2.941 -4.722 -2.353 0 -5.294 1.955 -5.294 5.903 c 0 3.542 2.941 8.264 6.471 8.264" style="fill:#fff;fill-opacity:1;stroke:none;fill-rule:evenodd"/>
 </g>
</svg>
