<svg width="48" xmlns="http://www.w3.org/2000/svg" viewBox="0 0 48 48" height="48">
<path style="fill:#ce6b20" d="M 8,1 C 6.9714285,1 6,1.9714285 6,3 l 0,42 c 0,0.971429 1.0285714,2 2,2 l 32,0 c 0.971429,0 2,-1.028571 2,-2 L 42,14 29,1 z"/>
<path style="fill-opacity:.196" d="M 29,12 29.0625,12.0625 29.21875,12 29,12 z m 2,2 11,11 0,-11 -11,0 z"/>
<path style="fill:#fff;fill-opacity:.392" d="m 29,1 13,13 -11,0 c -0.971429,0 -2,-1.028571 -2,-2 L 29,1 z"/>
<path style="fill:#fff" d="m 24,14 c -0.813478,0 -1.500024,0.454778 -1.8125,1.10145 C 21.568228,14.685878 20.704779,14.608089 20,14.985507 c -0.699042,0.374348 -1.070615,1.097471 -1,1.797102 -0.754286,-0.0655 -1.533907,0.27915 -1.9375,0.927536 -0.406904,0.653708 -0.323037,1.454587 0.125001,2.028985 C 16.490308,20.028963 16,20.66576 16,21.42029 c 1e-6,0.754529 0.490307,1.391327 1.187501,1.68116 -0.448039,0.574398 -0.531904,1.375277 -0.124999,2.028985 0.403592,0.648387 1.183211,0.993033 1.937498,0.927537 -0.07061,0.699628 0.300958,1.422754 1.000001,1.7971 0.313356,0.167805 0.659318,0.233731 0.999999,0.231883 L 21,36 24,33.217391 27.000001,36 l 0,-7.913045 c 0.34068,0.0019 0.686644,-0.06407 0.999999,-0.231883 0.699042,-0.374346 1.070615,-1.097472 1,-1.797101 0.754287,0.0655 1.533907,-0.279149 1.937499,-0.927536 0.406905,-0.653708 0.32304,-1.454587 -0.125,-2.028985 C 31.509693,22.811617 32,22.174819 32,21.42029 c 0,-0.75453 -0.490307,-1.391327 -1.1875,-1.68116 0.448037,-0.574397 0.531904,-1.375277 0.125002,-2.028985 -0.403595,-0.648387 -1.183213,-0.993034 -1.937501,-0.927536 0.0706,-0.699629 -0.300958,-1.422754 -1,-1.797102 C 27.295222,14.608089 26.431772,14.685879 25.8125,15.10145 25.500025,14.454778 24.813478,14 24,14 z m 0,2.753623 c 2.761424,0 5.000001,2.07636 5,4.637682 0,2.56132 -2.238577,4.637681 -5,4.637681 -2.761423,1e-6 -5,-2.07636 -5,-4.63768 -1e-6,-2.561322 2.238576,-4.637683 5,-4.637683 z m 0,0.927538 c -2.209139,0 -4.000001,1.661089 -4,3.710145 0,2.049055 1.790862,3.710144 4,3.710144 2.209138,0 4,-1.661089 4,-3.710144 0,-2.049056 -1.790862,-3.710145 -4,-3.710145 z"/>
</svg>
