<svg xmlns="http://www.w3.org/2000/svg" viewBox="0 0 48 48">
 <path d="m 8 1 c -1.029 0 -2 0.971 -2 2 l 0 42 c 0 0.971 1.029 2 2 2 l 32 0 c 0.971 0 2 -1.029 2 -2 l 0 -31 -13 -13 z" style="fill:#39a34f"/>
 <path d="m 29 12 0.063 0.063 0.156 -0.063 -0.219 0 z m 2 2 11 11 0 -11 -11 0 z" style="fill-opacity:0.196"/>
 <path d="m 29 1 13 13 -11 0 c -0.971 0 -2 -1.029 -2 -2 l 0 -11 z" style="fill:#fff;fill-opacity:0.392"/>
 <path d="m 6 35 0 10 c 0 0.971 1.029 2 2 2 l 32 0 c 0.971 0 2 -1.029 2 -2 l 0 -10 z" style="fill-opacity:0.196"/>
 <g style="fill:#fff">
  <g>
   <path d="m 17.04 16 c -0.563 0.054 -1.045 0.648 -1.035 1.281 0 4.49 0 8.979 0 13.469 0.006 0.663 0.538 1.26 1.129 1.25 l 13.772 0 c 0.583 -0.01 1.092 -0.597 1.098 -1.25 l 0 -13.469 c 0.008 -0.663 -0.506 -1.274 -1.098 -1.281 c -4.622 0 -9.244 0 -13.866 0 z m 0.973 2 11.984 0 0 8.594 -3.357 -4.125 -2.384 2.219 -3.137 -3.938 -3.106 3.188 z" style="color:#000"/>
  </g>
  <g transform="scale(1.06834 .93603)">
   <path d="m 16.875 41.01 c -0.388 0 -0.714 0.071 -0.979 0.212 -0.265 0.141 -0.485 0.34 -0.662 0.595 -0.168 0.247 -0.291 0.547 -0.37 0.9 -0.071 0.344 -0.106 0.728 -0.106 1.151 0 0.979 0.154 1.702 0.463 2.17 0.309 0.459 0.763 0.688 1.363 0.688 0.097 0 0.203 -0.004 0.318 -0.013 0.115 -0.009 0.22 -0.022 0.318 -0.04 l 0 -2.99 1.627 0 0 4.088 c -0.194 0.071 -0.498 0.15 -0.913 0.238 -0.406 0.088 -0.9 0.132 -1.482 0.132 -0.512 0 -0.975 -0.088 -1.389 -0.265 -0.406 -0.185 -0.754 -0.454 -1.045 -0.807 -0.291 -0.362 -0.516 -0.807 -0.675 -1.336 -0.159 -0.538 -0.238 -1.16 -0.238 -1.865 0 -0.697 0.093 -1.31 0.278 -1.839 0.185 -0.538 0.437 -0.988 0.754 -1.349 0.318 -0.362 0.692 -0.631 1.125 -0.807 0.432 -0.185 0.895 -0.278 1.389 -0.278 0.318 0 0.6 0.026 0.847 0.079 0.256 0.044 0.476 0.097 0.662 0.159 0.185 0.062 0.335 0.128 0.45 0.198 0.123 0.071 0.216 0.123 0.278 0.159 l -0.423 1.297 c -0.194 -0.123 -0.432 -0.234 -0.714 -0.331 -0.282 -0.097 -0.573 -0.146 -0.873 -0.146"/>
   <path d="m 20.08 47.971 0 -1.349 1.786 0 0 -5.491 -1.786 0 0 -1.349 5.199 0 0 1.349 -1.773 0 0 5.491 1.773 0 0 1.349 -5.199 0"/>
   <path d="m 26.811 47.971 0 -8.189 5.01 0 0 1.349 -3.387 0 0 1.985 2.964 0 0 1.349 -2.964 0 0 3.506 -1.627 0"/>
  </g>
 </g>
</svg>
