<svg xmlns="http://www.w3.org/2000/svg" viewBox="0 0 48 48">
 <defs>
  
 </defs>
 <path d="m 8 1 c -1.029 0 -2 0.971 -2 2 l 0 42 c 0 0.971 1.029 2 2 2 l 32 0 c 0.971 0 2 -1.029 2 -2 l 0 -31 -13 -13 z" style="fill:#757d32;fill-opacity:1"/>
 <path d="m 29 12 0.063 0.063 0.156 -0.063 -0.219 0 z m 2 2 11 11 0 -11 -11 0 z" style="fill-opacity:0.196"/>
 <path d="m 29 1 13 13 -11 0 c -0.971 0 -2 -1.029 -2 -2 l 0 -11 z" style="fill:#fff;fill-opacity:0.392"/>
 <path d="m 19.9 14 -1.4 14.848 3.579 -3.047 1.625 5.199 2.75 -0.867 -1.625 -5.199 4.671 0.447" style="visibility:visible;fill:#f9f9f9;fill-opacity:1;stroke:none;display:inline;color:#000;fill-rule:nonzero"/>
 <path d="m 6 35 0 10 c 0 0.971 1.029 2 2 2 l 32 0 c 0.971 0 2 -1.029 2 -2 l 0 -10 z" style="fill-opacity:0.196"/>
 <path d="m 18.08 45 -0.421 -1.848 -2.396 0 l -0.407 1.848 -1.859 0 q 0.639 -2.365 1.293 -4.304 0.654 -1.952 1.263 -3.696 l 1.946 0 q 0.639 1.758 1.263 3.735 q 0.639 1.964 1.234 4.265 l -1.917 0 z m -1.598 -6.449 q -0.145 0.452 -0.276 0.866 -0.116 0.401 -0.232 0.801 -0.102 0.388 -0.203 0.788 -0.087 0.401 -0.174 0.827 l 1.757 0 q -0.087 -0.426 -0.174 -0.827 -0.087 -0.401 -0.203 -0.788 -0.102 -0.401 -0.232 -0.801 -0.116 -0.414 -0.261 -0.866 z" style="fill:#fff;fill-opacity:1;stroke:none"/>
 <path d="m 25.544 45 q -0.618 -1.331 -1.353 -2.649 -0.721 -1.331 -1.559 -2.662 l 0 5.312 -1.632 0 l 0 -8 1.456 0 q 0.412 0.569 0.824 1.241 0.412 0.659 0.794 1.318 0.397 0.659 0.721 1.279 0.338 0.62 0.574 1.086 l 0 -4.924 1.632 0 l 0 8 -1.456 0 z" style="fill:#fff;fill-opacity:1;stroke:none"/>
 <path d="m 28 45 0 -1.318 2.061 0 0 -5.363 -2.061 0 l 0 -1.318 l 6 0 0 1.318 -2.046 0 0 5.363 2.046 0 l 0 1.318 -6 0" style="fill:#fff;fill-opacity:1;stroke:none"/>
</svg>
