<svg width="48" xmlns="http://www.w3.org/2000/svg" viewBox="0 0 48 48" height="48">
<path style="fill:#c19553" d="M 8,1 C 6.9714285,1 6,1.9714285 6,3 l 0,42 c 0,0.971429 1.0285714,2 2,2 l 32,0 c 0.971429,0 2,-1.028571 2,-2 L 42,14 29,1 z"/>
<path style="fill-opacity:.196" d="M 29,12 29.0625,12.0625 29.21875,12 29,12 z m 2,2 11,11 0,-11 -11,0 z"/>
<path style="fill:#fff;fill-opacity:.392" d="m 29,1 13,13 -11,0 c -0.971429,0 -2,-1.028571 -2,-2 L 29,1 z"/>
<path style="fill-opacity:.196" d="m 6,35 0,10 c 0,0.971429 1.0285714,2 2,2 l 32,0 c 0.971429,0 2,-1.028571 2,-2 l 0,-10 z"/>
<g style="fill:#fff">
<g>
<path d="m 18,1 0,4 4,0 0,-4 -4,0 z m 0,4 -4,0 0,4 4,0 0,-4 z m 0,4 0,4 4,0 0,-4 -4,0 z m 0,4 -4,0 0,4 4,0 0,-4 z m 0,4 0,4 4,0 0,-4 -4,0 z m -4,6 0,8 8,0 0,-8 -4,0 -4,0 z"/>
</g>
<g style="word-spacing:0;line-height:125%;letter-spacing:0" transform="scale(1.06309 .94065)">
<path d="m 19.093495,39.518653 0,1.342851 -2.145928,0 0,6.806411 -1.632485,0 0,-6.806411 -2.145929,0 0,-1.342851 5.924342,0"/>
<path d="m 23.53017,40.743018 c -0.386184,6e-6 -0.710925,0.07022 -0.974226,0.210643 -0.263307,0.140435 -0.482727,0.337913 -0.65826,0.592434 -0.166761,0.245756 -0.289637,0.544167 -0.368626,0.895234 -0.07022,0.3423 -0.105323,0.724091 -0.105321,1.145373 -2e-6,0.974228 0.153592,1.693925 0.460782,2.159093 0.307185,0.456396 0.75919,0.684592 1.356016,0.684591 0.09654,1e-6 0.201862,-0.0044 0.315965,-0.01317 0.114094,-0.0088 0.219416,-0.02194 0.315965,-0.0395 l 0,-2.975336 1.61932,0 0,4.068048 c -0.193096,0.07022 -0.495895,0.149206 -0.908399,0.236974 -0.403738,0.08777 -0.895238,0.131652 -1.474503,0.131652 -0.509058,0 -0.96984,-0.08777 -1.382347,-0.263304 -0.403734,-0.184313 -0.750418,-0.452005 -1.040051,-0.803078 -0.289635,-0.359847 -0.513444,-0.803075 -0.671425,-1.329685 -0.157983,-0.535383 -0.236974,-1.154147 -0.236974,-1.856294 0,-0.693363 0.09216,-1.30335 0.276469,-1.829964 0.184312,-0.535378 0.434451,-0.982995 0.750417,-1.342851 0.315963,-0.359841 0.688977,-0.627533 1.119042,-0.803077 0.430061,-0.184305 0.890843,-0.276461 1.382347,-0.276469 0.315961,8e-6 0.596818,0.02634 0.842573,0.07899 0.254522,0.04389 0.473942,0.09655 0.65826,0.157982 0.184308,0.06145 0.333513,0.127272 0.447617,0.197478 0.12287,0.07022 0.215026,0.122883 0.27647,0.157983 l -0.421287,1.29019 c -0.193095,-0.122869 -0.430069,-0.232579 -0.710921,-0.32913 -0.280862,-0.09654 -0.570497,-0.144811 -0.868903,-0.144817"/>
<path d="m 31.863744,40.650861 c -0.377408,0.579276 -0.724091,1.123437 -1.040051,1.632485 -0.315969,0.50906 -0.609992,0.996172 -0.882069,1.461338 -0.272084,0.456397 -0.531,0.899626 -0.776747,1.329686 -0.236976,0.421289 -0.465173,0.838186 -0.68459,1.250694 l 3.501944,0 0,1.342851 -5.371404,0 0,-0.934729 c 0.193089,-0.377401 0.399344,-0.772357 0.618765,-1.184869 0.219419,-0.421284 0.465169,-0.8689 0.737252,-1.342851 0.272078,-0.473943 0.566101,-0.987385 0.882068,-1.540329 0.324739,-0.552933 0.680199,-1.154143 1.066382,-1.803633 l -3.133319,0 0,-1.342851 5.081769,0 0,1.132208"/>
</g>
</g>
</svg>
