<svg xmlns="http://www.w3.org/2000/svg" viewBox="0 0 48 48">
 <path d="m 8 1 c -1.029 0 -2 0.971 -2 2 l 0 42 c 0 0.971 1.029 2 2 2 l 32 0 c 0.971 0 2 -1.029 2 -2 l 0 -31 -13 -13 z" style="fill:#c19553"/>
 <path d="m 29 12 0.063 0.063 0.156 -0.063 -0.219 0 z m 2 2 11 11 0 -11 -11 0 z" style="fill-opacity:0.196"/>
 <path d="m 29 1 13 13 -11 0 c -0.971 0 -2 -1.029 -2 -2 l 0 -11 z" style="fill:#fff;fill-opacity:0.392"/>
 <path d="m 6 35 0 10 c 0 0.971 1.029 2 2 2 l 32 0 c 0.971 0 2 -1.029 2 -2 l 0 -10 z" style="fill-opacity:0.196"/>
 <g style="fill:#fff">
  <g>
   <path d="m 18 1 0 4 4 0 0 -4 -4 0 z m 0 4 -4 0 0 4 4 0 0 -4 z m 0 4 0 4 4 0 0 -4 -4 0 z m 0 4 -4 0 0 4 4 0 0 -4 z m 0 4 0 4 4 0 0 -4 -4 0 z m -4 6 0 8 8 0 0 -8 -4 0 -4 0 z"/>
  </g>
  <g transform="scale(.9982 1.0018)">
   <path d="m 23.262 38.04 c -1.227 1.842 -2.338 3.698 -3.366 5.56 l 3.484 0 0 1.316 -5.344 0 0 -0.916 c 1.023 -1.992 2.182 -3.917 3.287 -5.754 l -3.117 0 0 -1.316 5.055 0 0 1.109"/>
   <path d="m 24.617 44.919 0 -1.316 1.53 0 0 -5.354 -1.53 0 0 -1.316 4.758 0 0 1.316 -1.825 0 0 5.354 1.825 0 0 1.316 -4.758 0"/>
   <path d="m 32.797 36.874 c 0.991 0 1.76 0.206 2.306 0.617 0.546 0.403 0.819 1.066 0.819 1.989 0 0.932 -0.277 1.607 -0.832 2.027 -0.546 0.411 -1.323 0.617 -2.331 0.617 l -0.554 0 0 2.795 -1.55 0 0 -7.857 c 0.713 -0.152 1.426 -0.163 2.142 -0.189 m 0.176 1.347 c -0.271 -0.004 -0.499 0.024 -0.769 0.038 l 0 2.518 0.63 0 c 0.496 0 0.87 -0.097 1.122 -0.29 0.252 -0.201 0.378 -0.541 0.378 -1.02 0 -0.453 -0.126 -0.772 -0.378 -0.957 -0.244 -0.193 -0.571 -0.29 -0.983 -0.29"/>
  </g>
 </g>
 <path d="m 16.963 45 -4.863 0 l 0 -8 1.55 0 0 6.682 3.313 0 0 1.318" style="fill:#fff"/>
</svg>
