<svg width="48" xmlns="http://www.w3.org/2000/svg" viewBox="0 0 48 48" height="48">
<path style="fill:#c19553" d="M 8,1 C 6.9714285,1 6,1.9714285 6,3 l 0,42 c 0,0.971429 1.0285714,2 2,2 l 32,0 c 0.971429,0 2,-1.028571 2,-2 L 42,14 29,1 z"/>
<path style="fill-opacity:.196" d="M 29,12 29.0625,12.0625 29.21875,12 29,12 z m 2,2 11,11 0,-11 -11,0 z"/>
<path style="fill:#fff;fill-opacity:.392" d="m 29,1 13,13 -11,0 c -0.971429,0 -2,-1.028571 -2,-2 L 29,1 z"/>
<path style="fill-opacity:.196" d="m 6,35 0,10 c 0,0.971429 1.0285714,2 2,2 l 32,0 c 0.971429,0 2,-1.028571 2,-2 l 0,-10 z"/>
<g style="fill:#fff">
<g>
<path d="m 18,1 0,4 4,0 0,-4 -4,0 z m 0,4 -4,0 0,4 4,0 0,-4 z m 0,4 0,4 4,0 0,-4 -4,0 z m 0,4 -4,0 0,4 4,0 0,-4 z m 0,4 0,4 4,0 0,-4 -4,0 z m -4,6 0,8 8,0 0,-8 -4,0 -4,0 z"/>
</g>
<g style="word-spacing:0;line-height:125%;letter-spacing:0" transform="scale(1.03392 .96719)">
<path d="m 19.48657,38.347508 0,1.347729 -2.153723,0 0,6.831134 -1.638416,0 0,-6.831134 -2.153723,0 0,-1.347729 5.945862,0"/>
<path d="m 24.560372,46.526371 -0.383178,-1.889463 -2.180149,0 -0.369965,1.889463 -1.691267,0 c 0.387581,-1.611988 0.779567,-3.078632 1.175959,-4.399938 0.396389,-1.330105 0.779566,-2.589746 1.149533,-3.778925 l 1.770546,0 c 0.387577,1.197988 0.770755,2.470841 1.149533,3.818564 0.387576,1.338923 0.761945,2.792355 1.123107,4.360299 l -1.744119,0 m -1.453433,-6.5933 c -0.08809,0.30831 -0.171772,0.603401 -0.251048,0.885273 -0.07047,0.273074 -0.140941,0.546143 -0.211408,0.819207 -0.06166,0.264266 -0.123324,0.53293 -0.184982,0.805995 -0.05286,0.273073 -0.105707,0.554951 -0.158557,0.845634 l 1.598777,0 c -0.05286,-0.290683 -0.105709,-0.572561 -0.158557,-0.845634 -0.05286,-0.273065 -0.114516,-0.541729 -0.184982,-0.805995 -0.06167,-0.273064 -0.132134,-0.546133 -0.211409,-0.819207 -0.07047,-0.281872 -0.149751,-0.576963 -0.237834,-0.885273"/>
<path d="m 29.250996,38.255017 c 0.466857,8e-6 0.889673,0.05286 1.268451,0.158556 0.378769,0.105712 0.70469,0.268673 0.977764,0.488882 0.273063,0.220224 0.480067,0.502102 0.621012,0.845634 0.149742,0.334736 0.224615,0.731126 0.224621,1.189172 -6e-6,0.475674 -0.0969,0.907299 -0.290686,1.294877 -0.193797,0.387586 -0.515314,0.682676 -0.964551,0.885272 0.149743,0.229029 0.308299,0.484481 0.475669,0.766356 0.167359,0.273071 0.33032,0.563758 0.488882,0.87206 0.15855,0.299496 0.308298,0.603396 0.449242,0.911698 0.149742,0.299496 0.277468,0.585778 0.383178,0.858847 l -1.70448,0 C 30.977494,45.99785 30.739659,45.491352 30.466594,45.006873 30.20233,44.513589 29.916048,44.015899 29.607748,43.513801 l -0.845634,0 0,3.01257 -1.625202,0 0,-8.059946 c 0.158555,-0.03523 0.330325,-0.06606 0.515308,-0.09249 0.19379,-0.03523 0.38758,-0.05725 0.581373,-0.06607 0.193789,-0.01761 0.378771,-0.03082 0.554947,-0.03964 0.176171,-0.0088 0.330323,-0.0132 0.462456,-0.01321 m 1.44022,2.669031 c -4e-6,-0.43162 -0.132134,-0.748732 -0.396391,-0.951338 -0.264264,-0.202593 -0.612207,-0.303893 -1.043829,-0.3039 -0.06166,7e-6 -0.136537,0.0044 -0.224621,0.01321 -0.08809,6e-6 -0.176176,0.0088 -0.264261,0.02643 l 0,2.457622 0.356752,0 c 0.554944,5e-6 0.955738,-0.105699 1.202385,-0.317112 0.246639,-0.220212 0.369961,-0.528516 0.369965,-0.924912"/>
</g>
</g>
</svg>
