<svg xmlns="http://www.w3.org/2000/svg" viewBox="0 0 48 48">
 <path d="m 8 1 c -1.029 0 -2 0.971 -2 2 l 0 42 c 0 0.971 1.029 2 2 2 l 32 0 c 0.971 0 2 -1.029 2 -2 l 0 -31 -13 -13 z" style="fill:#7c9c35;fill-opacity:1"/>
 <path d="m 29 12 0.063 0.063 0.156 -0.063 -0.219 0 z m 2 2 11 11 0 -11 -11 0 z" style="fill-opacity:0.196"/>
 <path d="m 29 1 13 13 -11 0 c -0.971 0 -2 -1.029 -2 -2 l 0 -11 z" style="fill:#fff;fill-opacity:0.392"/>
 <path d="m 15.578 17 c -0.321 0 -0.578 0.269 -0.578 0.602 l 0 5.797 c 0 0.333 0.257 0.602 0.578 0.602 l 6.844 0 c 0.321 0 0.578 -0.269 0.578 -0.602 l 0 -5.797 c 0 -0.333 -0.257 -0.602 -0.578 -0.602 l -6.844 0 z m 9.928 0 a 0.499 0.5 0 1 0 0 1 l 5.988 0 a 0.499 0.5 0 1 0 0 -1 l -5.988 0 z m 0 3 a 0.499 0.5 0 1 0 0 1 l 5.988 0 a 0.499 0.5 0 1 0 0 -1 l -5.988 0 z m 0 3 a 0.499 0.5 0 1 0 0 1 l 5.988 0 a 0.499 0.5 0 1 0 0 -1 l -5.988 0 z m -10 3 a 0.5 0.5 0 1 0 0 1 l 15.988 0 a 0.5 0.5 0 1 0 0 -1 l -15.988 0 z m 0 3 a 0.5 0.5 0 1 0 0 1 l 15.988 0 a 0.5 0.5 0 1 0 0 -1 l -15.988 0 z m 0 3 a 0.5 0.5 0 1 0 0 1 l 15.988 0 a 0.5 0.5 0 1 0 0 -1 l -15.988 0 z m 0 3 a 0.5 0.5 0 1 0 0 1 l 15.988 0 a 0.5 0.5 0 1 0 0 -1 l -15.988 0 z" style="fill:#fff"/>
</svg>
