<svg width="48" xmlns="http://www.w3.org/2000/svg" viewBox="0 0 48 48" height="48">
<path style="fill:#795a8b" d="M 8 1 C 6.9714285 1 6 1.9714285 6 3 L 6 14 L 6 45 C 6 45.971429 7.0285714 47 8 47 L 40 47 C 40.971429 47 42 45.971429 42 45 L 42 14 L 42 3 C 42 1.9714285 41.028571 1 40 1 L 29 1 L 19 1 L 8 1 z "/>
<path style="fill-opacity:.196" d="m 6,35 0,10 c 0,0.971429 1.028571,2 2,2 l 32,0 c 0.971429,0 2,-1.028571 2,-2 l 0,-10 z"/>
<g style="fill:#fff">
<path d="m 18,16.5 0,10 -3,0 3,5 2,0 0,-13 c 4.264338,0 8.883273,0 13,0 l 0,-2 z M 23.783048,19.766667 21.737593,21.9 25.317138,25.633333 21.737593,29.366667 23.783048,31.5 27.362593,27.766667 30.942138,31.5 32.987593,29.366667 29.408048,25.633333 32.987593,21.9 30.942138,19.766667 27.362593,23.5 z"/>
<g style="word-spacing:0;line-height:125%;letter-spacing:0" transform="scale(1.06834 .93603)">
<path d="m 14.758257,43.801795 c -2e-6,0.396909 0.01323,0.771764 0.03969,1.124565 0.03528,0.343987 0.09702,0.643871 0.185223,0.899652 0.09702,0.255785 0.22932,0.458647 0.396905,0.608588 0.167579,0.149943 0.392492,0.224914 0.674739,0.224912 0.27342,2e-6 0.493922,-0.07497 0.661508,-0.224912 0.176398,-0.149941 0.3087,-0.352803 0.396905,-0.608588 0.09702,-0.264601 0.158758,-0.568895 0.185223,-0.912882 0.03528,-0.343981 0.05292,-0.714426 0.05292,-1.111335 -4e-6,-0.3969 -0.01764,-0.767345 -0.05292,-1.111334 -0.02646,-0.352799 -0.08821,-0.657093 -0.185223,-0.912882 -0.0882,-0.255777 -0.216097,-0.458639 -0.383675,-0.608588 -0.167586,-0.149935 -0.392498,-0.224906 -0.674738,-0.224913 -0.282247,7e-6 -0.50716,0.07498 -0.674739,0.224913 -0.167585,0.149949 -0.299886,0.357221 -0.396905,0.621818 -0.0882,0.255789 -0.149944,0.555673 -0.185223,0.899652 -0.02646,0.343989 -0.03969,0.714434 -0.03969,1.111334 m -1.653772,0 c 0,-1.411213 0.260193,-2.474035 0.78058,-3.188471 0.520386,-0.723242 1.243634,-1.084866 2.169749,-1.084874 0.961388,8e-6 1.693457,0.361632 2.196208,1.084874 0.502741,0.714436 0.754114,1.777258 0.75412,3.188471 -6e-6,1.411221 -0.255789,2.478454 -0.76735,3.201702 -0.511572,0.714429 -1.23482,1.071644 -2.169748,1.071644 -0.961395,0 -1.697874,-0.357215 -2.209439,-1.071644 -0.502747,-0.723248 -0.75412,-1.790481 -0.75412,-3.201702"/>
<path d="m 25.646688,39.713672 0,1.349478 -2.156518,0 0,6.839999 -1.640541,0 0,-6.839999 -2.156518,0 0,-1.349478 5.953577,0"/>
<path d="m 26.810944,47.903149 0,-8.189477 5.014235,0 0,1.349478 -3.386924,0 0,1.984525 2.963558,0 0,1.349478 -2.963558,0 0,3.505996 -1.627311,0"/>
</g>
</g>
</svg>
