<svg xmlns="http://www.w3.org/2000/svg" viewBox="0 0 48 48">
 <path d="m 8 1 c -1.029 0 -2 0.971 -2 2 l 0 42 c 0 0.971 1.029 2 2 2 l 32 0 c 0.971 0 2 -1.029 2 -2 l 0 -31 -13 -13 z" style="fill:#e76f00"/>
 <path d="m 29 12 0.063 0.063 0.156 -0.063 -0.219 0 z m 2 2 11 11 0 -11 -11 0 z" style="fill-opacity:0.196"/>
 <path d="m 29 1 13 13 -11 0 c -0.971 0 -2 -1.029 -2 -2 l 0 -11 z" style="fill:#fff;fill-opacity:0.392"/>
 <path d="m 21.508 29.92 c 0 0 -0.725 0.4 0.516 0.535 1.504 0.163 2.273 0.139 3.931 -0.158 0 0 0.436 0.259 1.044 0.484 -3.716 1.51 -8.41 -0.087 -5.491 -0.861" style="fill:#fff;fill-rule:evenodd"/>
 <path d="m 21.05 27.95 c 0 0 -0.814 0.571 0.429 0.693 1.607 0.157 2.876 0.17 5.072 -0.231 0 0 0.304 0.292 0.781 0.452 -4.493 1.246 -9.497 0.098 -6.282 -0.914" style="fill:#fff;fill-rule:evenodd"/>
 <path d="m 24.882 24.607 c 0.916 1 -0.241 1.899 -0.241 1.899 0 0 2.325 -1.138 1.257 -2.563 -0.997 -1.329 -1.762 -1.989 2.378 -4.266 0 0 -6.498 1.539 -3.395 4.93" style="fill:#fff;fill-rule:evenodd"/>
 <path d="m 29.797 31.378 c 0 0 0.537 0.419 -0.591 0.744 -2.145 0.616 -8.927 0.802 -10.811 0.025 -0.677 -0.279 0.593 -0.667 0.992 -0.749 0.417 -0.086 0.655 -0.07 0.655 -0.07 -0.753 -0.503 -4.869 0.988 -2.09 1.415 7.576 1.165 13.811 -0.525 11.846 -1.365" style="fill:#fff;fill-rule:evenodd"/>
 <path d="m 21.857 25.908 c 0 0 -3.45 0.777 -1.222 1.059 0.941 0.119 2.816 0.092 4.563 -0.046 1.428 -0.114 2.861 -0.357 2.861 -0.357 0 0 -0.503 0.204 -0.868 0.44 -3.503 0.874 -10.271 0.467 -8.323 -0.426 1.648 -0.755 2.988 -0.67 2.988 -0.67" style="fill:#fff;fill-rule:evenodd"/>
 <path d="m 28.05 29.19 c 3.561 -1.755 1.915 -3.441 0.765 -3.214 -0.282 0.056 -0.407 0.104 -0.407 0.104 0 0 0.105 -0.155 0.304 -0.223 2.274 -0.758 4.02 2.236 -0.734 3.421 0 0 0.055 -0.047 0.072 -0.088" style="fill:#fff;fill-rule:evenodd"/>
 <path d="m 25.899 16 c 0 0 1.972 1.871 -1.871 4.748 -3.082 2.308 -0.703 3.624 -0.001 5.127 -1.799 -1.539 -3.119 -2.894 -2.233 -4.155 1.3 -1.851 4.901 -2.748 4.105 -5.72" style="fill:#fff;fill-rule:evenodd"/>
 <path d="m 22.21 33.943 c 3.418 0.208 8.668 -0.115 8.792 -1.649 0 0 -0.239 0.581 -2.825 1.043 -2.918 0.521 -6.516 0.46 -8.651 0.126 0 0 0.437 0.343 2.684 0.48" style="fill:#fff;fill-rule:evenodd"/>
</svg>
