<svg xmlns="http://www.w3.org/2000/svg" viewBox="0 0 48 48">
 <path d="m 8 1 c -1.029 0 -2 0.971 -2 2 l 0 42 c 0 0.971 1.029 2 2 2 l 32 0 c 0.971 0 2 -1.029 2 -2 l 0 -31 -13 -13 z" style="fill:#c19553"/>
 <path d="m 29 12 0.063 0.063 0.156 -0.063 -0.219 0 z m 2 2 11 11 0 -11 -11 0 z" style="fill-opacity:0.196"/>
 <path d="m 29 1 13 13 -11 0 c -0.971 0 -2 -1.029 -2 -2 l 0 -11 z" style="fill:#fff;fill-opacity:0.392"/>
 <path d="m 6 35 0 10 c 0 0.971 1.029 2 2 2 l 32 0 c 0.971 0 2 -1.029 2 -2 l 0 -10 z" style="fill-opacity:0.196"/>
 <g style="fill:#fff">
  <g>
   <path d="m 18 1 0 4 4 0 0 -4 -4 0 z m 0 4 -4 0 0 4 4 0 0 -4 z m 0 4 0 4 4 0 0 -4 -4 0 z m 0 4 -4 0 0 4 4 0 0 -4 z m 0 4 0 4 4 0 0 -4 -4 0 z m -4 6 0 8 8 0 0 -8 -4 0 -4 0 z"/>
  </g>
  <g transform="scale(1.04431 .95757)">
   <path d="m 24.345 46.994 -0.399 -1.932 -2.268 0 -0.385 1.932 -1.759 0 c 0.705 -2.907 1.578 -5.704 2.419 -8.365 l 1.841 0 c 0.919 2.832 1.736 5.697 2.363 8.365 l -1.814 0 m -1.512 -6.744 c -0.349 1.118 -0.629 2.333 -0.838 3.433 l 1.663 0 c -0.194 -1.187 -0.521 -2.329 -0.825 -3.433"/>
   <path d="m 28.947 38.536 c 0.472 0 0.899 0.054 1.281 0.162 0.383 0.108 0.712 0.274 0.988 0.5 0.276 0.225 0.485 0.513 0.627 0.865 0.151 0.342 0.227 0.747 0.227 1.216 0 0.486 -0.098 0.927 -0.294 1.324 -0.196 0.396 -0.52 0.699 -0.974 0.905 0.151 0.234 0.311 0.495 0.48 0.784 0.169 0.279 0.334 0.576 0.494 0.892 0.16 0.307 0.311 0.617 0.454 0.932 0.151 0.307 0.28 0.599 0.387 0.878 l -1.722 0 c -0.205 -0.541 -0.445 -1.058 -0.721 -1.554 -0.267 -0.504 -0.556 -1.012 -0.867 -1.527 l -0.854 0 0 3.081 -1.642 0 0 -8.242 c 0.713 -0.166 1.418 -0.187 2.135 -0.217 m 1.455 2.73 c 0 -0.441 -0.133 -0.765 -0.4 -0.973 -0.267 -0.208 -0.618 -0.311 -1.054 -0.311 -0.171 -0.002 -0.335 0.027 -0.494 0.041 l 0 2.513 0.36 0 c 0.561 0 0.965 -0.108 1.214 -0.324 0.249 -0.225 0.374 -0.541 0.374 -0.946"/>
  </g>
 </g>
 <path d="m 17.855 45 c -0.447 -1.08 -0.964 -2.091 -1.457 -3.063 -0.559 1.043 -1.036 2.039 -1.513 3.063 l -1.864 0 c 0.693 -1.479 1.582 -2.852 2.411 -4.227 l -2.271 -3.773 1.864 0 1.373 2.559 1.443 -2.559 l 1.738 0 -2.215 3.735 c 0.925 1.37 1.686 2.767 2.355 4.265 l -1.864 0" style="fill:#fff"/>
</svg>
