<svg width="48" xmlns="http://www.w3.org/2000/svg" viewBox="0 0 48 48" height="48">
<path style="fill:#a4373a" d="M 8,1 C 6.9714285,1 6,1.9714285 6,3 l 0,42 c 0,0.971429 1.0285714,2 2,2 l 32,0 c 0.971429,0 2,-1.028571 2,-2 L 42,14 29,1 z"/>
<path style="fill-opacity:.196" d="M 29,12 29.0625,12.0625 29.21875,12 29,12 z m 2,2 11,11 0,-11 -11,0 z"/>
<path style="fill:#fff;fill-opacity:.392" d="m 29,1 13,13 -11,0 c -0.971429,0 -2,-1.028571 -2,-2 L 29,1 z"/>
<g style="fill:#fff" transform="matrix(.16031 0 0 .16031 3.48 33.6186)">
<path d="m 128,-109.90253 c -27.56062,0 -49.902534,6.98168 -49.902534,15.594542 v 12.475633 c 0,8.61267 22.341324,15.594541 49.902534,15.594541 27.56043,0 49.90253,-6.981871 49.90253,-15.594541 v -12.475633 c 0,-8.612862 -22.3421,-15.594542 -49.90253,-15.594542 z"/>
<path d="m 127.84269,-59.999997 c -22.34444,0 -41.179922,-4.589279 -47.538596,-10.916179 -1.484406,1.476998 -2.206628,3.048538 -2.206628,4.678362 v 12.475634 c 0,8.612865 22.341324,15.594541 49.902534,15.594541 27.56043,0 49.90253,-6.981676 49.90253,-15.594541 v -12.475634 c 0,-1.629824 -0.88031,-3.201364 -2.36472,-4.678362 -6.35847,6.3269 -25.35068,10.916179 -47.69512,10.916179 z"/>
<path d="m 127.84269,-31.929822 c -22.34444,0 -41.179922,-4.589474 -47.538596,-10.916179 -1.484406,1.476803 -2.206628,3.048538 -2.206628,4.678362 v 12.475634 c 0,8.61267 22.341324,15.594541 49.902534,15.594541 27.56043,0 49.90253,-6.981871 49.90253,-15.594541 v -12.475634 c 0,-1.629824 -0.88031,-3.201559 -2.36472,-4.678362 -6.35847,6.326705 -25.35068,10.916179 -47.69512,10.916179 z"/>
</g>
<path style="fill-opacity:.196" d="m 5.999998,35 0,10 c 0,0.971429 1.028571,2 2,2 l 32.000004,0 c 0.97143,0 2,-1.028571 2,-2 l 0,-10 z"/>
<g style="fill:#fff;word-spacing:0;line-height:125%;letter-spacing:0" transform="matrix(.85276 0 0 1.08245 5.74154 3.32648)">
<path d="m 11.343243,38.350376 -0.331777,-1.636002 -1.8876944,0 -0.320336,1.636002 -1.4643936,0 c 0.3355898,-1.395749 0.6749931,-2.665651 1.0182111,-3.809711 0.3432158,-1.15168 0.6749922,-2.242347 0.99533,-3.272005 l 1.5330369,0 c 0.335586,1.037285 0.667363,2.139393 0.99533,3.306326 0.335585,1.159315 0.659735,2.417777 0.972449,3.77539 l -1.510156,0 M 10.08478,32.641529 c -0.07627,0.266953 -0.1487303,0.522458 -0.217371,0.766519 -0.061019,0.236443 -0.1220353,0.472881 -0.1830492,0.709316 -0.053392,0.228815 -0.106781,0.46144 -0.160168,0.697875 -0.045765,0.236441 -0.091527,0.480507 -0.1372869,0.732196 l 1.3843091,0 c -0.04577,-0.251689 -0.09153,-0.495755 -0.137286,-0.732196 -0.04577,-0.236435 -0.09915,-0.46906 -0.160169,-0.697875 -0.05339,-0.236435 -0.114408,-0.472873 -0.183049,-0.709316 -0.06102,-0.244061 -0.129663,-0.499566 -0.20593,-0.766519"/>
<path d="m 16.342774,38.499104 c -0.999146,-1e-6 -1.76185,-0.320336 -2.288115,-0.961009 -0.526267,-0.64067 -0.7894,-1.552102 -0.789399,-2.734297 -10e-7,-0.587279 0.08008,-1.109731 0.240252,-1.567359 0.160167,-0.457617 0.381351,-0.842783 0.663553,-1.155498 0.289826,-0.320329 0.62923,-0.560581 1.018211,-0.720756 0.396604,-0.167788 0.827532,-0.251685 1.292785,-0.251693 0.251689,8e-6 0.476687,0.02289 0.674994,0.06864 0.205926,0.03814 0.385161,0.0839 0.537707,0.137287 0.152536,0.0534 0.278382,0.110599 0.377539,0.171608 0.106773,0.06102 0.186857,0.106786 0.240252,0.137287 l -0.366098,1.121177 c -0.175427,-0.1144 -0.388984,-0.209739 -0.640672,-0.286015 -0.24407,-0.08389 -0.526271,-0.12584 -0.846603,-0.125846 -0.221188,6e-6 -0.438558,0.04196 -0.652113,0.125846 -0.205933,0.07628 -0.392795,0.20975 -0.560588,0.40042 -0.16017,0.183055 -0.293643,0.430934 -0.40042,0.743638 -0.09915,0.312713 -0.148729,0.701692 -0.148727,1.166938 -2e-6,0.80847 0.137285,1.430074 0.41186,1.864814 0.282199,0.427116 0.739821,0.640673 1.372869,0.640672 0.366095,1e-6 0.667363,-0.04195 0.903806,-0.125846 0.24406,-0.0839 0.43855,-0.167794 0.583469,-0.251693 l 0.354658,1.109736 c -0.198309,0.122033 -0.469069,0.236439 -0.812281,0.343217 -0.335595,0.09915 -0.724574,0.148727 -1.166939,0.148728"/>
<path d="m 22.063062,38.499104 c -0.999146,-1e-6 -1.761851,-0.320336 -2.288115,-0.961009 -0.526267,-0.64067 -0.7894,-1.552102 -0.7894,-2.734297 0,-0.587279 0.08008,-1.109731 0.240252,-1.567359 0.160167,-0.457617 0.381352,-0.842783 0.663553,-1.155498 0.289827,-0.320329 0.62923,-0.560581 1.018212,-0.720756 0.396603,-0.167788 0.827531,-0.251685 1.292784,-0.251693 0.251689,8e-6 0.476687,0.02289 0.674994,0.06864 0.205926,0.03814 0.385162,0.0839 0.537707,0.137287 0.152536,0.0534 0.278383,0.110599 0.377539,0.171608 0.106774,0.06102 0.186858,0.106786 0.240252,0.137287 l -0.366098,1.121177 C 23.489315,32.630095 23.275758,32.534756 23.02407,32.45848 22.78,32.374589 22.4978,32.33264 22.177467,32.332634 c -0.221187,6e-6 -0.438558,0.04196 -0.652112,0.125846 -0.205933,0.07628 -0.392796,0.20975 -0.560589,0.40042 -0.16017,0.183055 -0.293643,0.430934 -0.40042,0.743638 -0.09915,0.312713 -0.148729,0.701692 -0.148727,1.166938 -2e-6,0.80847 0.137285,1.430074 0.411861,1.864814 0.282198,0.427116 0.73982,0.640673 1.372868,0.640672 0.366095,10e-7 0.667363,-0.04195 0.903806,-0.125846 0.244061,-0.0839 0.43855,-0.167794 0.583469,-0.251693 l 0.354658,1.109736 c -0.198308,0.122033 -0.469068,0.236439 -0.812281,0.343217 -0.335594,0.09915 -0.724573,0.148727 -1.166938,0.148728"/>
<path d="m 26.421921,37.206319 c 0.03813,0.0076 0.08008,0.01144 0.125846,0.01144 0.04576,10e-7 0.08771,10e-7 0.125846,0 0.320334,10e-7 0.58728,-0.06101 0.80084,-0.183049 0.221182,-0.122031 0.396603,-0.289826 0.526267,-0.503385 0.137283,-0.213556 0.232621,-0.465248 0.286014,-0.755078 0.06101,-0.297452 0.09152,-0.621602 0.09153,-0.972449 -4e-6,-0.305078 -0.02288,-0.602533 -0.06864,-0.892365 -0.04577,-0.289823 -0.12585,-0.545329 -0.240252,-0.766518 -0.114409,-0.221179 -0.270763,-0.396601 -0.469063,-0.526267 -0.198307,-0.137281 -0.453813,-0.205924 -0.766519,-0.20593 -0.06102,6e-6 -0.129662,0.0038 -0.20593,0.01144 -0.07627,6e-6 -0.144916,0.0076 -0.20593,0.02288 l 0,4.759279 m 3.38641,-2.402521 c -6e-6,0.655929 -0.0839,1.216517 -0.251693,1.681764 -0.160173,0.457625 -0.385171,0.83135 -0.674994,1.121177 -0.289832,0.289828 -0.636862,0.503385 -1.041092,0.640672 -0.39661,0.12966 -0.835165,0.19449 -1.315666,0.19449 -0.251695,0 -0.499574,-0.01525 -0.743638,-0.04576 -0.236439,-0.02288 -0.491945,-0.06483 -0.766518,-0.125846 l 0,-6.910107 c 0.320335,-0.06864 0.621603,-0.114399 0.903805,-0.137287 0.282199,-0.02287 0.545332,-0.03431 0.7894,-0.03432 0.465247,8e-6 0.888548,0.06865 1.269904,0.205931 0.388975,0.137293 0.716938,0.354664 0.983889,0.652112 0.266942,0.289834 0.472872,0.663559 0.617791,1.121177 0.152536,0.45 0.228806,0.995334 0.228812,1.636002"/>
<path d="m 35.482856,36.210989 c -6e-6,0.427116 -0.07246,0.785587 -0.217371,1.075414 -0.144919,0.282201 -0.343222,0.511013 -0.59491,0.686434 -0.24407,0.167795 -0.537711,0.289828 -0.880924,0.366099 -0.335594,0.06864 -0.697878,0.102965 -1.086855,0.102965 -0.312711,0 -0.636861,-0.01907 -0.972449,-0.0572 -0.335591,-0.03051 -0.667368,-0.08008 -0.99533,-0.148728 l 0,-6.875785 c 0.266946,-0.04575 0.560587,-0.08389 0.880924,-0.114406 0.320335,-0.03813 0.636857,-0.0572 0.949568,-0.0572 0.533891,8e-6 0.968632,0.05721 1.304226,0.171609 0.335586,0.106786 0.598719,0.251699 0.789399,0.434742 0.190672,0.175428 0.320331,0.373731 0.38898,0.59491 0.06864,0.22119 0.10296,0.442374 0.102965,0.663553 -5e-6,0.335595 -0.0839,0.63305 -0.251693,0.892365 -0.160172,0.259324 -0.377543,0.465254 -0.652112,0.617791 0.480499,0.175426 0.804648,0.411864 0.972448,0.709316 0.175417,0.297457 0.263128,0.610166 0.263134,0.938127 m -3.340648,-0.961009 0,1.922017 c 0.09915,0.01526 0.205928,0.0267 0.320336,0.03432 0.12203,0.0076 0.240249,0.01144 0.354658,0.01144 0.160165,1e-6 0.316519,-0.01144 0.469063,-0.03432 0.152538,-0.03051 0.286011,-0.08008 0.40042,-0.148728 0.12203,-0.07627 0.221181,-0.179234 0.297455,-0.308895 0.07627,-0.137286 0.114402,-0.308894 0.114406,-0.514826 -4e-6,-0.343215 -0.110596,-0.58728 -0.331777,-0.732197 -0.21356,-0.152538 -0.503388,-0.228808 -0.869483,-0.228812 l -0.755078,0 m 0.549147,-1.166938 c 0.358469,4e-6 0.629229,-0.07627 0.812281,-0.228812 0.183046,-0.160163 0.27457,-0.377534 0.274574,-0.652112 -4e-6,-0.16779 -0.0267,-0.301263 -0.08008,-0.400421 -0.05339,-0.106773 -0.12585,-0.186857 -0.217371,-0.240252 -0.09153,-0.06101 -0.198306,-0.09915 -0.320336,-0.114405 -0.122036,-0.02288 -0.247882,-0.03432 -0.377539,-0.03432 -0.106781,6e-6 -0.217373,0.0038 -0.331777,0.01144 -0.114408,0.0076 -0.217373,0.01907 -0.308895,0.03432 l 0,1.624562 0.549147,0"/>
</g>
</svg>
