<svg xmlns="http://www.w3.org/2000/svg" viewBox="0 0 48 48">
 <path style="fill:#ff6501" d="m 8 1 c -1.029 0 -2 0.971 -2 2 l 0 42 c 0 0.971 1.029 2 2 2 l 32 0 c 0.971 0 2 -1.029 2 -2 l 0 -31 -13 -13 z"/>
 <path style="fill-opacity:0.196" d="m 29 12 0.063 0.063 0.156 -0.063 -0.219 0 z m 2 2 11 11 0 -11 -11 0 z"/>
 <path style="fill:#fff;fill-opacity:0.392" d="m 29 1 13 13 -11 0 c -0.971 0 -2 -1.029 -2 -2 l 0 -11 z"/>
 <path style="fill:#fff;opacity:1;fill-opacity:1;stroke:none;fill-rule:nonzero" d="m 14,16 0,4 2,0 c 7.756,0 14,6.244 14,14 l 0,2 4,0 0,-2 C 34,24.083 25.92,16 16,16 l -2,0 z m 0,8 0,4 2,0 c 3.337,0 6,2.663 6,6 l 0,2 4,0 0,-2 C 26,28.501 21.499,24 16,24 l -2,0 z m 2.5,7 A 2.5,2.5 0 0 0 14,33.5 2.5,2.5 0 0 0 16.5,36 2.5,2.5 0 0 0 19,33.5 2.5,2.5 0 0 0 16.5,31 Z"/>
</svg>
