<svg width="48" xmlns="http://www.w3.org/2000/svg" viewBox="0 0 48 48" height="48">
<path style="fill:#c19553" d="M 8,1 C 6.9714285,1 6,1.9714285 6,3 l 0,42 c 0,0.971429 1.0285714,2 2,2 l 32,0 c 0.971429,0 2,-1.028571 2,-2 L 42,14 29,1 z"/>
<path style="fill-opacity:.196" d="M 29,12 29.0625,12.0625 29.21875,12 29,12 z m 2,2 11,11 0,-11 -11,0 z"/>
<path style="fill:#fff;fill-opacity:.392" d="m 29,1 13,13 -11,0 c -0.971429,0 -2,-1.028571 -2,-2 L 29,1 z"/>
<path style="fill-opacity:.196" d="m 6,35 0,10 c 0,0.971429 1.0285714,2 2,2 l 32,0 c 0.971429,0 2,-1.028571 2,-2 l 0,-10 z"/>
<g style="fill:#fff">
<g>
<path d="m 18,1 0,4 4,0 0,-4 -4,0 z m 0,4 -4,0 0,4 4,0 0,-4 z m 0,4 0,4 4,0 0,-4 -4,0 z m 0,4 -4,0 0,4 4,0 0,-4 z m 0,4 0,4 4,0 0,-4 -4,0 z m -4,6 0,8 8,0 0,-8 -4,0 -4,0 z"/>
</g>
<g style="word-spacing:0;line-height:125%;letter-spacing:0" transform="scale(1.09406 .91403)">
<path d="m 16.712084,49.232578 c 0.02828,-0.603292 0.127255,-1.239577 0.296933,-1.908856 0.169674,-0.678702 0.372342,-1.347979 0.608006,-2.007833 0.245085,-0.659847 0.509025,-1.281992 0.791822,-1.866437 0.282789,-0.59386 0.551443,-1.102888 0.805961,-1.527085 l -3.676315,0 0,-1.442247 5.712428,0 0,1.31499 c -0.25452,0.292227 -0.5326,0.702277 -0.834241,1.230151 -0.301651,0.527887 -0.589158,1.126466 -0.86252,1.795739 -0.263945,0.669282 -0.499606,1.385691 -0.706983,2.14923 -0.19796,0.754118 -0.320503,1.508233 -0.367632,2.262348 l -1.767459,0"/>
<path d="m 28.207639,41.696132 c -0.405343,0.622153 -0.777688,1.206592 -1.117034,1.75332 -0.339357,0.546739 -0.655143,1.069906 -0.947358,1.569503 -0.292224,0.490179 -0.570304,0.966215 -0.834241,1.428107 -0.254518,0.452472 -0.499605,0.900228 -0.735263,1.34327 l 3.761153,0 0,1.442246 -5.768987,0 0,-1.003917 c 0.207381,-0.405336 0.428902,-0.829525 0.664565,-1.27257 0.235659,-0.452467 0.4996,-0.933216 0.791821,-1.442247 0.292218,-0.509024 0.608004,-1.060471 0.947359,-1.654342 0.348775,-0.59386 0.730546,-1.239571 1.145313,-1.937135 l -3.365242,0 0,-1.442247 5.457914,0 0,1.216012"/>
</g>
</g>
</svg>
