<svg xmlns="http://www.w3.org/2000/svg" viewBox="0 0 48 48">
 <path d="m 8 1 c -1.029 0 -2 0.971 -2 2 l 0 42 c 0 0.971 1.029 2 2 2 l 32 0 c 0.971 0 2 -1.029 2 -2 l 0 -31 -13 -13 z" style="fill:#c19553"/>
 <path d="m 29 12 0.063 0.063 0.156 -0.063 -0.219 0 z m 2 2 11 11 0 -11 -11 0 z" style="fill-opacity:0.196"/>
 <path d="m 29 1 13 13 -11 0 c -0.971 0 -2 -1.029 -2 -2 l 0 -11 z" style="fill:#fff;fill-opacity:0.392"/>
 <path d="m 6 35 0 10 c 0 0.971 1.029 2 2 2 l 32 0 c 0.971 0 2 -1.029 2 -2 l 0 -10 z" style="fill-opacity:0.196"/>
 <g style="fill:#fff">
  <g style="fill:#fff">
   <path d="m 18 1 0 4 4 0 0 -4 -4 0 z m 0 4 -4 0 0 4 4 0 0 -4 z m 0 4 0 4 4 0 0 -4 -4 0 z m 0 4 -4 0 0 4 4 0 0 -4 z m 0 4 0 4 4 0 0 -4 -4 0 z m -4 6 0 8 8 0 0 -8 -4 0 -4 0 z" style="fill:#fff"/>
  </g>
  <g transform="scale(1.06309 .94065)" style="fill:#fff">
   <path d="m 31.863 40.516 c -1.234 1.953 -2.363 3.928 -3.407 5.922 l 3.526 0 0 1.401 -5.409 0 0 -0.976 c 1.041 -2.132 2.212 -4.177 3.327 -6.128 l -3.155 0 0 -1.401 5.117 0 0 1.182" style="fill:#fff"/>
  </g>
 </g>
 <path d="m 23.266 36.931 c 0.493 0 0.939 0.051 1.338 0.155 0.4 0.103 0.744 0.262 1.032 0.477 0.288 0.214 0.506 0.49 0.655 0.825 0.158 0.326 0.237 0.713 0.237 1.16 0 0.464 -0.102 0.885 -0.307 1.263 -0.205 0.378 -0.543 0.666 -1.017 0.864 0.764 1.051 1.347 2.177 1.895 3.326 l -1.798 0 c -0.451 -1.073 -1.083 -2.038 -1.658 -2.939 l -0.892 0 0 2.939 -1.715 0 0 -7.863 c 0.745 -0.158 1.481 -0.179 2.23 -0.207 m 1.519 2.604 c 0 -0.421 -0.139 -0.73 -0.418 -0.928 -0.279 -0.198 -0.645 -0.297 -1.101 -0.297 -0.179 -0.002 -0.35 0.026 -0.516 0.039 l 0 2.397 0.376 0 c 0.586 0 1.01 -0.103 1.268 -0.309 0.26 -0.214 0.391 -0.516 0.391 -0.902" style="fill:#fff"/>
 <path d="m 19.444 45 -5.444 0 l 0 -8 1.735 0 0 6.682 3.709 0 0 1.318" style="fill:#fff"/>
</svg>
