<svg width="48" xmlns="http://www.w3.org/2000/svg" viewBox="0 0 48 48" height="48">
<path style="fill:#c19553" d="M 8,1 C 6.9714285,1 6,1.9714285 6,3 l 0,42 c 0,0.971429 1.0285714,2 2,2 l 32,0 c 0.971429,0 2,-1.028571 2,-2 L 42,14 29,1 z"/>
<path style="fill-opacity:.196" d="M 29,12 29.0625,12.0625 29.21875,12 29,12 z m 2,2 11,11 0,-11 -11,0 z"/>
<path style="fill:#fff;fill-opacity:.392" d="m 29,1 13,13 -11,0 c -0.971429,0 -2,-1.028571 -2,-2 L 29,1 z"/>
<path style="fill-opacity:.196" d="m 6,35 0,10 c 0,0.971429 1.0285714,2 2,2 l 32,0 c 0.971429,0 2,-1.028571 2,-2 l 0,-10 z"/>
<g style="fill:#fff">
<g>
<path d="m 18,1 0,4 4,0 0,-4 -4,0 z m 0,4 -4,0 0,4 4,0 0,-4 z m 0,4 0,4 4,0 0,-4 -4,0 z m 0,4 -4,0 0,4 4,0 0,-4 z m 0,4 0,4 4,0 0,-4 -4,0 z m -4,6 0,8 8,0 0,-8 -4,0 -4,0 z"/>
</g>
<g style="word-spacing:0;line-height:125%;letter-spacing:0" transform="scale(1.04431 .95757)">
<path d="m 15.541265,38.63963 c 0.471551,9e-6 0.898618,0.05339 1.281204,0.160151 0.382577,0.106775 0.711775,0.271374 0.987594,0.493797 0.275809,0.222439 0.484894,0.50715 0.627256,0.854136 0.151247,0.338101 0.226874,0.738477 0.22688,1.201128 -6e-6,0.480456 -0.09788,0.916421 -0.293609,1.307895 -0.195745,0.391483 -0.520495,0.68954 -0.974249,0.894173 0.151248,0.231332 0.311399,0.489352 0.480451,0.774061 0.169043,0.275817 0.333642,0.569425 0.493798,0.880827 0.160144,0.302508 0.311397,0.609463 0.453759,0.920865 0.151247,0.302507 0.280257,0.591667 0.38703,0.867481 l -1.721617,0 C 17.285121,46.46031 17.044896,45.948719 16.769085,45.459369 16.502164,44.961126 16.213004,44.458432 15.901604,43.951286 l -0.854136,0 0,3.042858 -1.641542,0 0,-8.14098 c 0.16015,-0.03558 0.333646,-0.06672 0.520489,-0.09342 0.195738,-0.03558 0.391477,-0.05782 0.587218,-0.06673 0.195738,-0.01779 0.38258,-0.03113 0.560527,-0.04004 0.177942,-0.0089 0.333644,-0.01334 0.467105,-0.01335 m 1.4547,2.695866 c -4e-6,-0.435959 -0.133463,-0.75626 -0.400376,-0.960903 -0.266921,-0.204629 -0.618362,-0.306948 -1.054324,-0.306955 -0.06228,7e-6 -0.13791,0.0045 -0.226879,0.01335 -0.08898,7e-6 -0.177948,0.0089 -0.266918,0.02669 l 0,2.482332 0.360339,0 c 0.560523,4e-6 0.965347,-0.106763 1.214474,-0.320301 0.249118,-0.222426 0.37368,-0.53383 0.373684,-0.934211"/>
<path d="m 24.149351,46.994144 -0.38703,-1.908459 -2.202069,0 -0.373684,1.908459 -1.708271,0 c 0.391478,-1.628194 0.787405,-3.109584 1.187782,-4.444174 0.400374,-1.343478 0.787404,-2.615783 1.161091,-3.816919 l 1.788346,0 c 0.391474,1.210033 0.778504,2.495684 1.161091,3.856957 0.391473,1.352384 0.769605,2.820428 1.134399,4.404136 l -1.761655,0 m -1.468046,-6.659588 c -0.08897,0.31141 -0.173499,0.609467 -0.253571,0.894173 -0.07118,0.27582 -0.142359,0.551634 -0.213534,0.827444 -0.06228,0.266922 -0.124564,0.538288 -0.186842,0.814098 -0.05339,0.275818 -0.10677,0.56053 -0.160151,0.854136 l 1.61485,0 c -0.05339,-0.293606 -0.106771,-0.578318 -0.16015,-0.854136 -0.05339,-0.27581 -0.115668,-0.547176 -0.186842,-0.814098 -0.06228,-0.27581 -0.133463,-0.551624 -0.213534,-0.827444 -0.07118,-0.284706 -0.151257,-0.582763 -0.240226,-0.894173"/>
<path d="m 28.887134,38.63963 c 0.471551,9e-6 0.898618,0.05339 1.281204,0.160151 0.382577,0.106775 0.711775,0.271374 0.987594,0.493797 0.275809,0.222439 0.484894,0.50715 0.627256,0.854136 0.151247,0.338101 0.226874,0.738477 0.22688,1.201128 -6e-6,0.480456 -0.09788,0.916421 -0.293609,1.307895 -0.195745,0.391483 -0.520494,0.68954 -0.974249,0.894173 0.151248,0.231332 0.311399,0.489352 0.480451,0.774061 0.169043,0.275817 0.333642,0.569425 0.493798,0.880827 0.160144,0.302508 0.311397,0.609463 0.453759,0.920865 0.151247,0.302507 0.280257,0.591667 0.38703,0.867481 l -1.721617,0 C 30.63099,46.46031 30.390765,45.948719 30.114954,45.459369 29.848033,44.961126 29.558873,44.458432 29.247473,43.951286 l -0.854136,0 0,3.042858 -1.641542,0 0,-8.14098 c 0.16015,-0.03558 0.333646,-0.06672 0.520489,-0.09342 0.195738,-0.03558 0.391477,-0.05782 0.587218,-0.06673 0.195738,-0.01779 0.38258,-0.03113 0.560527,-0.04004 0.177942,-0.0089 0.333644,-0.01334 0.467105,-0.01335 m 1.4547,2.695866 c -4e-6,-0.435959 -0.133463,-0.75626 -0.400376,-0.960903 -0.266921,-0.204629 -0.618362,-0.306948 -1.054324,-0.306955 -0.06228,7e-6 -0.13791,0.0045 -0.226879,0.01335 -0.08897,7e-6 -0.177948,0.0089 -0.266918,0.02669 l 0,2.482332 0.360339,0 c 0.560523,4e-6 0.965347,-0.106763 1.214474,-0.320301 0.249118,-0.222426 0.37368,-0.53383 0.373684,-0.934211"/>
</g>
</g>
</svg>
