<svg width="48" xmlns="http://www.w3.org/2000/svg" viewBox="0 0 48 48" height="48">
<path style="fill:#207245" d="M 8 1 C 6.9714285 1 6 1.9714285 6 3 L 6 14 L 6 45 C 6 45.971429 7.0285714 47 8 47 L 40 47 C 40.971429 47 42 45.971429 42 45 L 42 14 L 42 3 C 42 1.9714285 41.028571 1 40 1 L 29 1 L 19 1 L 8 1 z "/>
<g style="fill:#fff" transform="matrix(-.2 0 0 .22916 49.20536 38.16603)">
<path style="line-height:normal;color:#000" d="m 76.026806,-105.45497 c 0,30.716158 0,60.642554 0,87.275562 35.103874,0 69.641104,0 100.000004,0 0,-30.716158 0,-60.642554 0,-87.275562 -34.71345,0 -70.24444,0 -100.000004,0 z m 9.999998,8.727556 45.000006,0 0,17.455111 -45.000006,0 z m 55.000006,0 25,0 0,17.455111 -25,0 z m -55.000006,26.182667 45.000006,0 0,17.455112 -45.000006,0 z m 55.000006,0 25,0 0,17.455112 -25,0 z m -55.000006,26.182668 45.000006,0 0,17.455111 -45.000006,0 z m 55.000006,0 25,0 0,17.455111 -25,0 z"/>
</g>
</svg>
