<svg xmlns="http://www.w3.org/2000/svg" viewBox="0 0 48 48">
 <path d="m 8 1 c -1.029 0 -2 0.971 -2 2 l 0 11 l 0 31 c 0 0.971 1.029 2 2 2 l 32 0 c 0.971 0 2 -1.029 2 -2 l 0 -31 l 0 -11 c 0 -1.029 -0.971 -2 -2 -2 l -11 0 l -10 0 l -11 0 z" style="fill:#3468ce"/>
 <rect ry="0.601" height="7" rx="0.579" y="16" x="15" width="8" style="fill:#f9f9f9;fill-opacity:1"/>
 <path d="m 25.5 16.5 7 0" style="stroke-opacity:1;fill:#f9f9f9;fill-opacity:1;stroke:#f9f9f9;stroke-linecap:round;stroke-linejoin:round;stroke-width:1;stroke-dashoffset:0.774"/>
 <path d="m 15.5 25.5 17 0" style="stroke-opacity:1;fill:#f9f9f9;fill-opacity:1;stroke:#f9f9f9;stroke-linecap:round;stroke-linejoin:round;stroke-width:1;stroke-dashoffset:0.774"/>
 <path d="m 15.5 28.5 17 0" style="stroke-opacity:1;fill:#f9f9f9;fill-opacity:1;stroke:#f9f9f9;stroke-linecap:round;stroke-linejoin:round;stroke-width:1;stroke-dashoffset:0.774"/>
 <path d="m 15.5 31.5 17 0" style="stroke-opacity:1;fill:#f9f9f9;fill-opacity:1;stroke:#f9f9f9;stroke-linecap:round;stroke-linejoin:round;stroke-width:1;stroke-dashoffset:0.774"/>
 <path d="m 25.5 19.5 7 0" style="stroke-opacity:1;fill:#f9f9f9;fill-opacity:1;stroke:#f9f9f9;stroke-linecap:round;stroke-linejoin:round;stroke-width:1;stroke-dashoffset:0.774"/>
 <path d="m 25.5 22.5 7 0" style="stroke-opacity:1;fill:#f9f9f9;fill-opacity:1;stroke:#f9f9f9;stroke-linecap:round;stroke-linejoin:round;stroke-width:1;stroke-dashoffset:0.774"/>
 <path d="m 15.5 34.5 17 0" style="stroke-opacity:1;fill:#f9f9f9;fill-opacity:1;stroke:#f9f9f9;stroke-linecap:round;stroke-linejoin:round;stroke-width:1;stroke-dashoffset:0.774"/>
</svg>
