<svg xmlns="http://www.w3.org/2000/svg" viewBox="0 0 48 48">
 <defs>
  
 </defs>
 <path d="m 8 1 c -1.029 0 -2 0.971 -2 2 l 0 42 c 0 0.971 1.029 2 2 2 l 32 0 c 0.971 0 2 -1.029 2 -2 l 0 -31 -13 -13 z" style="fill:#a6a6a6;fill-opacity:1"/>
 <path d="m 29 12 0.063 0.063 0.156 -0.063 -0.219 0 z m 2 2 11 11 0 -11 -11 0 z" style="fill-opacity:0.196"/>
 <path d="m 29 1 13 13 -11 0 c -0.971 0 -2 -1.029 -2 -2 l 0 -11 z" style="fill:#fff;fill-opacity:0.392"/>
 <path d="m 28.615 22.27 a 0.769 0.794 0 0 1 -0.769 0.794 0.769 0.794 0 0 1 -0.769 -0.794 0.769 0.794 0 0 1 0.769 -0.794 0.769 0.794 0 0 1 0.769 0.794 z m 1.538 1.587 a 0.769 0.794 0 0 1 -0.769 0.794 0.769 0.794 0 0 1 -0.769 -0.794 0.769 0.794 0 0 1 0.769 -0.794 0.769 0.794 0 0 1 0.769 0.794 z m 1.538 -1.587 a 0.769 0.794 0 0 1 -0.769 0.794 0.769 0.794 0 0 1 -0.769 -0.794 0.769 0.794 0 0 1 0.769 -0.794 0.769 0.794 0 0 1 0.769 0.794 z m -1.538 -1.587 a 0.769 0.794 0 0 1 -0.769 0.794 0.769 0.794 0 0 1 -0.769 -0.794 0.769 0.794 0 0 1 0.769 -0.794 0.769 0.794 0 0 1 0.769 0.794 z m -10 1.587 a 1.538 1.587 0 0 1 -1.538 1.587 1.538 1.587 0 0 1 -1.538 -1.587 1.538 1.587 0 0 1 1.538 -1.587 1.538 1.587 0 0 1 1.538 1.587 z m -1.36 -5.553 c -0.553 0.023 -1.01 0.268 -1.322 0.513 C 15.618 18.68 14 24.731 14 27.933 c 0 3.202 0.714 3.066 1.333 3.066 0.619 0 1.397 -0.439 2.078 -1.057 1.878 -1.706 2.743 -3.704 4.611 -3.704 l 3.957 0 c 1.868 0 2.733 1.998 4.611 3.704 0.68 0.618 1.459 1.057 2.078 1.057 0.619 0 1.333 0.136 1.333 -3.066 0 -3.202 -1.618 -9.253 -3.472 -10.704 -0.502 -0.393 -1.365 -0.783 -2.416 -0.268 -0.705 0.346 -1.335 0.547 -2.255 0.547 l -3.714 0 c -0.921 0 -1.55 -0.201 -2.255 -0.547 -0.394 -0.193 -0.762 -0.259 -1.094 -0.245 z" style="fill:#fff;opacity:1;fill-opacity:1;stroke:none;fill-rule:nonzero"/>
 <path d="m 6 35 0 10 c 0 0.971 1.029 2 2 2 l 32 0 c 0.971 0 2 -1.029 2 -2 l 0 -10 z" style="fill-opacity:0.196"/>
 <g transform="translate(-1,0)">
  <path d="m 19.544 45 q -0.618 -1.331 -1.353 -2.649 -0.721 -1.331 -1.559 -2.662 l 0 5.312 -1.632 0 l 0 -8 1.456 0 q 0.412 0.569 0.824 1.241 0.412 0.659 0.794 1.318 0.397 0.659 0.721 1.279 0.338 0.62 0.574 1.086 l 0 -4.924 1.632 0 l 0 8 -1.456 0 z" style="fill:#fff;fill-opacity:1;stroke:none"/>
  <path d="m 23.761 43.637 q 0.072 0.013 0.158 0.013 0.086 0 0.158 0 0.601 0 1 -0.202 0.415 -0.202 0.659 -0.555 0.258 -0.353 0.358 -0.833 0.115 -0.492 0.115 -1.073 0 -0.505 -0.086 -0.984 -0.086 -0.479 -0.301 -0.845 -0.215 -0.366 -0.587 -0.58 -0.372 -0.227 -0.959 -0.227 -0.115 0 -0.258 0.013 -0.143 0 -0.258 0.025 l 0 5.249 z m 4.239 -2.65 q 0 1.085 -0.315 1.855 -0.301 0.757 -0.845 1.237 -0.544 0.479 -1.303 0.707 q -0.745 0.215 -1.647 0.215 -0.473 0 -0.931 -0.05 -0.444 -0.038 -0.959 -0.139 l 0 -7.621 q 0.601 -0.114 1.131 -0.151 q 0.53 -0.038 0.988 -0.038 q 0.874 0 1.589 0.227 0.73 0.227 1.232 0.719 0.501 0.479 0.773 1.237 q 0.286 0.744 0.286 1.804" style="fill:#fff;fill-opacity:1;stroke:none"/>
  <path d="m 31.743 43.724 q 0.443 0 0.729 -0.074 0.3 -0.087 0.471 -0.223 0.171 -0.149 0.229 -0.322 0.071 -0.186 0.071 -0.372 0 -0.235 -0.157 -0.421 -0.157 -0.186 -0.4 -0.322 -0.243 -0.149 -0.543 -0.26 -0.3 -0.124 -0.6 -0.223 -0.4 -0.124 -0.829 -0.285 -0.429 -0.161 -0.786 -0.409 -0.343 -0.248 -0.571 -0.607 -0.229 -0.372 -0.229 -0.916 0 -1.077 0.8 -1.684 q 0.814 -0.607 2.229 -0.607 q 0.814 0 1.414 0.161 0.614 0.161 1.029 0.359 l -0.514 1.176 q -0.357 -0.173 -0.8 -0.297 -0.429 -0.124 -1 -0.124 -1.4 0 -1.4 0.879 0 0.223 0.143 0.396 0.143 0.161 0.357 0.297 0.229 0.124 0.5 0.223 0.286 0.099 0.557 0.186 0.414 0.136 0.857 0.31 0.457 0.161 0.829 0.446 0.386 0.272 0.629 0.693 q 0.243 0.409 0.243 1.04 0 1.077 -0.814 1.672 -0.8 0.582 -2.443 0.582 q -1.1 0 -1.757 -0.198 q -0.657 -0.211 -0.986 -0.384 l 0.514 -1.238 q 0.386 0.198 0.914 0.372 0.543 0.173 1.314 0.173 z" style="fill:#fff;fill-opacity:1;stroke:none"/>
 </g>
</svg>
