<svg xmlns="http://www.w3.org/2000/svg" viewBox="0 0 48 48">
 <path d="m 8.06 6 c -1.029 0 -2.057 1.029 -2.057 2.057 l 0 31.943 c 0 0.971 1.029 2 2 2 l 32 0 c 0.971 0 2 -1.029 2 -2 l 0 -32 c 0 -0.971 -1.029 -2 -2 -2 z" style="fill:#c19553"/>
 <g style="fill:#fff">
  <path d="m 8.06 6 c -1.029 0 -2.057 1.029 -2.057 2.057 l 0 9.943 c 4 0 32 0 36 0 l 0 -10 c 0 -0.971 -1.029 -2 -2 -2 z" style="fill-opacity:0.196"/>
  <path d="m 21 10 0 16 6 0 0 -16 z" style="fill-opacity:0.392"/>
 </g>
 <g transform="scale(1.035999,0.96525192)" style="fill:#fff;fill-opacity:1;stroke:none">
  <path d="m 17.858 39.37 -0.407 -1.811 -2.336 0 -0.393 1.811 -1.787 0 c 0.721 -2.879 1.612 -5.651 2.471 -8.288 l 1.881 0 c 0.939 2.807 1.774 5.646 2.415 8.288 z m -1.554 -6.703 c -0.357 1.108 -0.666 2.437 -0.879 3.526 l 1.744 0 c -0.198 -1.175 -0.555 -2.433 -0.865 -3.526 z" style="fill:#fff"/>
  <path d="m 22.786 30.956 c 1.042 0 1.849 0.219 2.423 0.658 0.574 0.43 0.861 1.138 0.861 2.123 0 0.994 -0.291 1.716 -0.874 2.164 -0.574 0.439 -1.39 0.658 -2.449 0.658 l -0.583 0 0 2.809 -1.628 0 0 -8.211 c 0.58 -0.13 1.165 -0.152 1.734 -0.188 0.194 -0.009 0.366 -0.013 0.516 -0.013 z m 0.185 1.438 c -0.285 -0.003 -0.524 0.025 -0.808 0.04 l 0 2.688 0.662 0 c 0.521 0 0.914 -0.103 1.178 -0.309 0.265 -0.215 0.397 -0.578 0.397 -1.088 0 -0.484 -0.132 -0.824 -0.397 -1.021 -0.256 -0.206 -0.6 -0.309 -1.033 -0.309 z" style="fill:#fff"/>
  <path d="m 31.415 39.37 c -0.537 -1.487 -1.468 -2.696 -2.532 -3.789 l 0 3.789 -1.711 0 0 -8.288 1.711 0 0 3.441 c 0.884 -1.071 1.61 -2.218 2.24 -3.441 l 1.934 0 c -0.729 1.403 -1.678 2.644 -2.657 3.816 1.343 1.253 2.274 2.8 2.95 4.472 z" style="fill:#fff"/>
 </g>
</svg>
