<svg xmlns="http://www.w3.org/2000/svg" viewBox="0 0 48 48">
 <path d="m 8 1 c -1.029 0 -2 0.971 -2 2 l 0 42 c 0 0.971 1.029 2 2 2 l 32 0 c 0.971 0 2 -1.029 2 -2 l 0 -31 -13 -13 z" style="fill:#39a34f"/>
 <path d="m 29 12 0.063 0.063 0.156 -0.063 -0.219 0 z m 2 2 11 11 0 -11 -11 0 z" style="fill-opacity:0.196"/>
 <path d="m 29 1 13 13 -11 0 c -0.971 0 -2 -1.029 -2 -2 l 0 -11 z" style="fill:#fff;fill-opacity:0.392"/>
 <path d="m 6 35 0 10 c 0 0.971 1.029 2 2 2 l 32 0 c 0.971 0 2 -1.029 2 -2 l 0 -10 z" style="fill-opacity:0.196"/>
 <g style="fill:#fff">
  <g>
   <path d="m 17.04 16 c -0.563 0.054 -1.045 0.648 -1.035 1.281 0 4.49 0 8.979 0 13.469 0.006 0.663 0.538 1.26 1.129 1.25 l 13.772 0 c 0.583 -0.01 1.092 -0.597 1.098 -1.25 l 0 -13.469 c 0.008 -0.663 -0.506 -1.274 -1.098 -1.281 c -4.622 0 -9.244 0 -13.866 0 z m 0.973 2 11.984 0 0 8.594 -3.357 -4.125 -2.384 2.219 -3.137 -3.938 -3.106 3.188 z" style="color:#000"/>
  </g>
  <g transform="scale(1.04959 .95275)">
   <path d="m 19.19 39.02 0 1.326 -2.119 0 0 6.72 -1.612 0 0 -6.72 -2.119 0 0 -1.326 5.849 0"/>
   <path d="m 23.568 40.23 c -0.381 0 -0.702 0.069 -0.962 0.208 -0.26 0.139 -0.477 0.334 -0.65 0.585 -0.165 0.243 -0.286 0.537 -0.364 0.884 -0.069 0.338 -0.104 0.715 -0.104 1.131 0 0.962 0.152 1.672 0.455 2.132 0.303 0.451 0.75 0.676 1.339 0.676 0.095 0 0.199 -0.004 0.312 -0.013 0.113 -0.009 0.217 -0.022 0.312 -0.039 l 0 -2.938 1.599 0 0 4.02 c -0.191 0.069 -0.49 0.147 -0.897 0.234 -0.399 0.087 -0.884 0.13 -1.456 0.13 -0.503 0 -0.958 -0.087 -1.365 -0.26 -0.399 -0.182 -0.741 -0.446 -1.027 -0.793 -0.286 -0.355 -0.507 -0.793 -0.663 -1.313 -0.156 -0.529 -0.234 -1.139 -0.234 -1.833 0 -0.685 0.091 -1.287 0.273 -1.807 0.182 -0.529 0.429 -0.971 0.741 -1.326 0.312 -0.355 0.68 -0.62 1.105 -0.793 0.425 -0.182 0.88 -0.273 1.365 -0.273 0.312 0 0.589 0.026 0.832 0.078 0.251 0.043 0.468 0.095 0.65 0.156 0.182 0.061 0.329 0.126 0.442 0.195 0.121 0.069 0.212 0.121 0.273 0.156 l -0.416 1.274 c -0.191 -0.121 -0.425 -0.23 -0.702 -0.325 -0.277 -0.095 -0.563 -0.143 -0.858 -0.143"/>
   <path d="m 30.678 47.06 -0.377 -1.859 -2.145 0 -0.364 1.859 -1.664 0 c 0.381 -1.586 0.767 -3.03 1.157 -4.328 0.39 -1.308 0.767 -2.548 1.131 -3.717 l 1.742 0 c 0.381 1.178 0.758 2.431 1.131 3.756 0.381 1.317 0.75 2.747 1.105 4.289 l -1.716 0 m -1.43 -6.486 c -0.087 0.303 -0.169 0.594 -0.247 0.871 -0.069 0.269 -0.139 0.537 -0.208 0.806 -0.061 0.26 -0.121 0.524 -0.182 0.793 -0.052 0.269 -0.104 0.546 -0.156 0.832 l 1.573 0 c -0.052 -0.286 -0.104 -0.563 -0.156 -0.832 -0.052 -0.269 -0.113 -0.533 -0.182 -0.793 -0.061 -0.269 -0.13 -0.537 -0.208 -0.806 -0.069 -0.277 -0.147 -0.568 -0.234 -0.871"/>
  </g>
 </g>
</svg>
