<svg width="48" xmlns="http://www.w3.org/2000/svg" viewBox="0 0 48 48" height="48">
<path style="fill:#c19553" d="M 8,1 C 6.9714285,1 6,1.9714285 6,3 l 0,42 c 0,0.971429 1.0285714,2 2,2 l 32,0 c 0.971429,0 2,-1.028571 2,-2 L 42,14 29,1 z"/>
<path style="fill-opacity:.196" d="M 29,12 29.0625,12.0625 29.21875,12 29,12 z m 2,2 11,11 0,-11 -11,0 z"/>
<path style="fill:#fff;fill-opacity:.392" d="m 29,1 13,13 -11,0 c -0.971429,0 -2,-1.028571 -2,-2 L 29,1 z"/>
<path style="fill-opacity:.196" d="m 6,35 0,10 c 0,0.971429 1.0285714,2 2,2 l 32,0 c 0.971429,0 2,-1.028571 2,-2 l 0,-10 z"/>
<g style="fill:#fff">
<g>
<path d="m 18,1 0,4 4,0 0,-4 -4,0 z m 0,4 -4,0 0,4 4,0 0,-4 z m 0,4 0,4 4,0 0,-4 -4,0 z m 0,4 -4,0 0,4 4,0 0,-4 z m 0,4 0,4 4,0 0,-4 -4,0 z m -4,6 0,8 8,0 0,-8 -4,0 -4,0 z"/>
</g>
<g style="word-spacing:0;line-height:125%;letter-spacing:0" transform="scale(.99794 1.00206)">
<path d="m 15.349157,44.907409 c -1.079305,0 -1.903198,-0.346035 -2.471684,-1.038107 -0.568488,-0.69207 -0.852731,-1.676623 -0.852731,-2.953662 0,-0.634395 0.08651,-1.198762 0.259527,-1.693104 0.173017,-0.49433 0.411946,-0.910397 0.716788,-1.2482 0.313079,-0.346029 0.679711,-0.605555 1.0999,-0.77858 0.428422,-0.181249 0.893922,-0.271878 1.396501,-0.271886 0.271881,8e-6 0.51493,0.02472 0.729147,0.07415 0.222447,0.0412 0.416062,0.09064 0.580845,0.148301 0.164774,0.05768 0.300717,0.119472 0.407828,0.185376 0.11534,0.06592 0.201849,0.115353 0.259527,0.148301 l -0.395469,1.211125 c -0.189501,-0.123578 -0.420192,-0.226564 -0.692072,-0.30896 -0.26365,-0.09062 -0.568491,-0.135936 -0.914523,-0.135943 -0.238933,7e-6 -0.473743,0.04532 -0.70443,0.135943 -0.222454,0.0824 -0.424308,0.226577 -0.605562,0.432545 -0.17302,0.19774 -0.317202,0.465505 -0.432545,0.803297 -0.107108,0.337801 -0.160661,0.757987 -0.160659,1.260559 -2e-6,0.873331 0.148299,1.544804 0.444903,2.014422 0.304838,0.461382 0.799174,0.692073 1.48301,0.692071 0.395465,2e-6 0.720903,-0.04531 0.976315,-0.135942 0.263641,-0.09063 0.473734,-0.181256 0.63028,-0.271885 l 0.383111,1.198766 c -0.214219,0.131824 -0.506701,0.255408 -0.877448,0.370753 -0.362518,0.107106 -0.782704,0.160659 -1.260559,0.160659"/>
<path d="m 20.63856,37.010379 c 0.972192,8e-6 1.726055,0.201862 2.261591,0.605563 0.535526,0.395476 0.803292,1.046352 0.803298,1.95263 -6e-6,0.914527 -0.271891,1.577762 -0.815656,1.989706 -0.535536,0.403711 -1.297638,0.605565 -2.286308,0.605562 l -0.54377,0 0,2.58291 -1.520086,0 0,-7.550994 c 0.1483,-0.03295 0.313079,-0.06179 0.494337,-0.08651 0.189494,-0.02471 0.37899,-0.04119 0.568487,-0.04943 0.189494,-0.01647 0.37487,-0.02883 0.556129,-0.03708 0.181254,-0.0082 0.341914,-0.01235 0.481978,-0.01236 m 0.173018,1.322351 c -0.09063,7e-6 -0.218334,0.0041 -0.383111,0.01236 -0.156542,6e-6 -0.280126,0.0082 -0.370752,0.02472 l 0,2.471684 0.617921,0 c 0.486094,4e-6 0.852727,-0.09474 1.099899,-0.284243 0.247164,-0.197731 0.370748,-0.531408 0.370753,-1.001032 -5e-6,-0.444898 -0.123589,-0.757977 -0.370753,-0.93924 -0.238933,-0.18949 -0.560252,-0.284237 -0.963957,-0.284244"/>
<path d="m 24.716839,44.74675 0,-1.260559 1.668387,0 0,-5.128744 -1.668387,0 0,-1.260559 4.856859,0 0,1.260559 -1.656028,0 0,5.128744 1.656028,0 0,1.260559 -4.856859,0"/>
<path d="m 32.107173,40.91564 c -2e-6,0.370756 0.01236,0.720911 0.03707,1.050466 0.03295,0.321321 0.09063,0.601445 0.173018,0.840372 0.09063,0.238931 0.21421,0.428427 0.370752,0.568487 0.156538,0.140064 0.366631,0.210095 0.63028,0.210093 0.255404,2e-6 0.461377,-0.07003 0.617921,-0.210093 0.164775,-0.14006 0.288359,-0.329556 0.370752,-0.568487 0.09063,-0.247166 0.148297,-0.53141 0.173018,-0.852731 0.03295,-0.321316 0.04943,-0.667351 0.04943,-1.038107 -4e-6,-0.370749 -0.01648,-0.716784 -0.04943,-1.038107 -0.02472,-0.329553 -0.08239,-0.613796 -0.173018,-0.852731 -0.08239,-0.238924 -0.201858,-0.428419 -0.358394,-0.568488 -0.156543,-0.140055 -0.366636,-0.210086 -0.630279,-0.210093 -0.263649,7e-6 -0.473742,0.07004 -0.63028,0.210093 -0.156542,0.140069 -0.280126,0.333684 -0.370752,0.580846 -0.08239,0.238935 -0.140064,0.519059 -0.173018,0.840373 -0.02472,0.321323 -0.03708,0.667358 -0.03707,1.038107 m -1.544803,0 c 0,-1.318226 0.243049,-2.311018 0.729147,-2.978379 0.486096,-0.675586 1.161689,-1.013383 2.026781,-1.013391 0.898041,8e-6 1.581873,0.337805 2.051497,1.013391 0.469615,0.667361 0.704425,1.660153 0.70443,2.978379 -5e-6,1.318234 -0.238935,2.315145 -0.716788,2.990737 -0.477863,0.667355 -1.153456,1.001032 -2.026781,1.001032 -0.898047,0 -1.585998,-0.333677 -2.063856,-1.001032 -0.46962,-0.675592 -0.70443,-1.672503 -0.70443,-2.990737"/>
</g>
</g>
</svg>
