<svg width="48" xmlns="http://www.w3.org/2000/svg" viewBox="0 0 48 48" height="48">
<path style="fill:#3866a0" d="M 8,1 C 6.9714285,1 6,1.9714285 6,3 l 0,42 c 0,0.971429 1.0285714,2 2,2 l 32,0 c 0.971429,0 2,-1.028571 2,-2 L 42,14 29,1 z"/>
<path style="fill-opacity:.196" d="M 29,12 29.0625,12.0625 29.21875,12 29,12 z m 2,2 11,11 0,-11 -11,0 z"/>
<path style="fill:#fff;fill-opacity:.392" d="m 29,1 13,13 -11,0 c -0.971429,0 -2,-1.028571 -2,-2 L 29,1 z"/>
<g style="fill:#fff;line-height:normal;color:#000" transform="translate(1 -1)">
<path d="M 15.000137,18.027131 C 15.000137,19.829362 15,21.197769 15,23 c 0,1 0,2 1,2 1,0 1,-1 1,-2 l 0,-3 3,0 c 1,0 2,0 2,-1 0,-1 -1,-1 -2,-1 -1.999956,0.01247 -2.99987,0.02713 -4.999863,0.02713 z"/>
<path d="M 30.999863,18.027131 C 30.999863,19.829362 31,21.197769 31,23 c 0,1 0,2 -1,2 -1,0 -1,-1 -1,-2 l 0,-3 -3,0 c -1,0 -2,0 -2,-1 0,-1 1,-1 2,-1 1.999956,0.01247 2.99987,0.02713 4.999863,0.02713 z"/>
<path d="M 30.972869,33.999863 C 29.170638,33.999863 27.802231,34 26,34 c -1,0 -2,0 -2,-1 0,-1 1,-1 2,-1 l 3,0 0,-3 c 0,-1 0,-2 1,-2 1,0 1,1 1,2 -0.01247,1.999956 -0.02713,2.99987 -0.02713,4.999863 z"/>
<path d="M 15.027131,33.999863 C 16.829362,33.999863 18.197769,34 20,34 c 1,0 2,0 2,-1 0,-1 -1,-1 -2,-1 l -3,0 0,-3 c 0,-1 0,-2 -1,-2 -1,0 -1,1 -1,2 0.01247,1.999956 0.02713,2.99987 0.02713,4.999863 z"/>
</g>
<path style="fill-opacity:.196" d="m 6,35 0,10 c 0,0.971429 1.028571,2 2,2 l 32,0 c 0.971429,0 2,-1.028571 2,-2 l 0,-10 z"/>
<g style="fill:#fff;word-spacing:0;line-height:125%;letter-spacing:0" transform="scale(1.05536 .94754)">
<path d="m 14.899256,43.269924 c -2e-6,0.392089 0.01307,0.762392 0.03921,1.110909 0.03485,0.339811 0.09584,0.636053 0.182974,0.888728 0.09584,0.252679 0.226536,0.453078 0.392085,0.601198 0.165545,0.148123 0.387726,0.222183 0.666546,0.222182 0.2701,10e-7 0.487925,-0.07406 0.653476,-0.222182 0.174256,-0.14812 0.304951,-0.348519 0.392086,-0.601198 0.09584,-0.261388 0.15683,-0.561987 0.182973,-0.901797 0.03485,-0.339804 0.05227,-0.705751 0.05228,-1.09784 -4e-6,-0.392081 -0.01743,-0.758028 -0.05228,-1.09784 -0.02614,-0.348515 -0.08713,-0.649114 -0.182973,-0.901797 -0.08713,-0.252671 -0.213473,-0.45307 -0.379016,-0.601198 -0.165551,-0.148115 -0.387733,-0.222175 -0.666546,-0.222182 -0.27882,7e-6 -0.501001,0.07407 -0.666546,0.222182 -0.165549,0.148128 -0.296245,0.352883 -0.392085,0.614267 -0.08713,0.252684 -0.148124,0.548926 -0.182974,0.888728 -0.02614,0.339812 -0.03921,0.705759 -0.03921,1.09784 m -1.633691,0 c 0,-1.394077 0.257034,-2.443994 0.771102,-3.149755 0.514066,-0.714459 1.228533,-1.071693 2.143402,-1.071701 0.949714,8e-6 1.672894,0.357242 2.169541,1.071701 0.496636,0.705761 0.744956,1.755678 0.744963,3.149755 -7e-6,1.394085 -0.252684,2.448359 -0.758033,3.162824 -0.50536,0.705755 -1.219826,1.058632 -2.143402,1.058632 -0.94972,0 -1.677257,-0.352877 -2.18261,-1.058632 -0.496642,-0.714465 -0.744963,-1.768739 -0.744963,-3.162824"/>
<path d="m 21.760755,46.014524 c 0.04356,0.0087 0.09148,0.01307 0.143765,0.01307 0.05228,2e-6 0.100197,2e-6 0.143765,0 0.365943,2e-6 0.670899,-0.0697 0.914866,-0.209112 0.252674,-0.139407 0.453073,-0.331093 0.601198,-0.575059 0.15683,-0.243962 0.265743,-0.531491 0.326738,-0.862589 0.0697,-0.339804 0.104552,-0.710107 0.104557,-1.110909 -5e-6,-0.348516 -0.02614,-0.688324 -0.07842,-1.019423 -0.05228,-0.331089 -0.14377,-0.622975 -0.27446,-0.875658 -0.1307,-0.252671 -0.309316,-0.45307 -0.535851,-0.601198 -0.226542,-0.156828 -0.518427,-0.235245 -0.875658,-0.235251 -0.06971,6e-6 -0.148124,0.0044 -0.235251,0.01307 -0.08713,7e-6 -0.16555,0.0087 -0.235252,0.02614 l 0,5.436922 m 3.868579,-2.7446 c -6e-6,0.749323 -0.09585,1.389728 -0.28753,1.92122 -0.182979,0.522782 -0.440012,0.94972 -0.771101,1.280813 -0.3311,0.331095 -0.727542,0.575059 -1.189327,0.731893 -0.45308,0.148122 -0.954078,0.222182 -1.502995,0.222182 -0.287532,0 -0.570704,-0.01743 -0.849519,-0.05228 -0.270105,-0.02614 -0.561991,-0.07406 -0.875658,-0.143765 l 0,-7.893991 c 0.365945,-0.07841 0.710109,-0.130688 1.032492,-0.156835 0.32238,-0.02613 0.622978,-0.0392 0.901797,-0.03921 0.531491,8e-6 1.015063,0.07843 1.450717,0.235251 0.44436,0.156842 0.819019,0.405163 1.123979,0.744963 0.30495,0.331101 0.540201,0.758039 0.705755,1.280813 0.174254,0.514073 0.261384,1.137053 0.26139,1.868942"/>
<path d="m 28.086404,39.231441 c 0.06099,0.182982 0.13505,0.418233 0.222182,0.705755 0.09584,0.287536 0.196041,0.596848 0.300599,0.927936 0.104554,0.3311 0.20911,0.666551 0.313669,1.006353 0.104553,0.339813 0.204752,0.653481 0.300599,0.941006 0.104553,-0.322377 0.213465,-0.653471 0.326738,-0.993284 0.113265,-0.348515 0.222178,-0.679609 0.326738,-0.993284 0.104552,-0.322375 0.200395,-0.622973 0.287529,-0.901797 0.08713,-0.278809 0.165543,-0.509703 0.235252,-0.692685 l 1.333091,0 c 0.06099,0.705762 0.11762,1.394089 0.169904,2.064985 0.06098,0.670907 0.108907,1.337452 0.143765,1.999637 0.04356,0.653479 0.07841,1.315668 0.104556,1.986567 0.02613,0.662191 0.04791,1.341805 0.06535,2.038846 l -1.476857,0 0.07842,-6.286441 -0.993284,3.424215 -1.176257,0 -0.954075,-3.424215 0.06535,6.286441 -1.476856,0 c 0.02614,-0.662189 0.05228,-1.350516 0.07842,-2.064985 0.03485,-0.714464 0.0697,-1.424574 0.104556,-2.130332 0.03485,-0.705749 0.07406,-1.38972 0.117626,-2.051915 0.05228,-0.662182 0.108912,-1.276449 0.169904,-1.842803 l 1.333091,0"/>
</g>
</svg>
