<svg width="48" xmlns="http://www.w3.org/2000/svg" viewBox="0 0 48 48" height="48">
<path style="fill:#eee" d="M 8.0571429,6 C 7.0285714,6 6,7.0285714 6,8.0571429 L 6,40 c 0,0.971429 1.0285714,2 2,2 l 32,0 c 0.971429,0 2,-1.028571 2,-2 L 42,8 C 42,7.0285714 40.971429,6 40,6 z"/>
<path style="fill:#aaa;line-height:normal;color:#000" d="M 8.5,6 C 7.8333333,6 7.2348174,6.3276826 6.78125,6.78125 6.3276826,7.2348174 6,7.8333333 6,8.5 L 6,39.5625 C 6,40.211193 6.3063418,40.806342 6.75,41.25 7.1936582,41.693658 7.7888072,42 8.4375,42 l 31.125,0 C 40.211193,42 40.806342,41.693658 41.25,41.25 41.693658,40.806342 42,40.211193 42,39.5625 L 42,8.4375 C 42,7.7888072 41.693658,7.1936582 41.25,6.75 40.806342,6.3063418 40.211193,6 39.5625,6 L 8.5,6 z m 0,1 31.0625,0 c 0.295751,0 0.676297,0.1762971 0.96875,0.46875 C 40.823703,7.7612029 41,8.1417484 41,8.4375 l 0,31.125 c 0,0.295751 -0.176297,0.676297 -0.46875,0.96875 C 40.238797,40.823703 39.858251,41 39.5625,41 L 8.4375,41 C 8.1417484,41 7.7612029,40.823703 7.46875,40.53125 7.1762971,40.238797 7,39.858251 7,39.5625 L 7,8.5 C 7,8.1666667 7.1723174,7.7651826 7.46875,7.46875 7.7651826,7.1723174 8.1666667,7 8.5,7 z"/>
<g transform="matrix(.66667 -.66667 .66667 .66667 -6.66667 25.33333)">
<path style="fill:#888" d="m 15,13 8,0 0,8 -8,0 z"/>
<path style="fill:#888" d="m 25,13 8,0 0,8 -8,0 z"/>
<path style="fill:#888" d="m 25,23 8,0 0,8 -8,0 z"/>
<path style="fill:#888" d="m 15,23 8,0 0,8 -8,0 z"/>
</g>
</svg>
