<svg xmlns="http://www.w3.org/2000/svg" viewBox="0 0 48 48">
 <path d="m 8 1 c -1.029 0 -2 0.971 -2 2 l 0 42 c 0 0.971 1.029 2 2 2 l 32 0 c 0.971 0 2 -1.029 2 -2 l 0 -31 -13 -13 z" style="fill:#eb1c24"/>
 <path d="m 29 12 0.063 0.063 0.156 -0.063 -0.219 0 z m 2 2 11 11 0 -11 -11 0 z" style="fill-opacity:0.196"/>
 <path d="m 29 1 13 13 -11 0 c -0.971 0 -2 -1.029 -2 -2 l 0 -11 z" style="fill:#fff;fill-opacity:0.392"/>
 <path d="m 28.22 17.713 c -0.569 -0.064 -1.027 -0.065 -1.446 0.017 -0.419 0.082 -0.808 0.282 -1.039 0.534 -0.231 0.252 -0.303 0.499 -0.339 0.619 -0.813 1.597 -1.775 3.184 -2.655 4.541 -1.086 1.609 -2.354 3.483 -3.01 4.995 -0.402 0.923 -0.836 2.036 -1.263 3.196 c -0.887 2.43 -1.687 4.858 -2.464 7.299 1.266 0.088 1.266 0.08 2.243 0.088 c 0.719 -1.32 1.912 -2.576 2.91 -3.493 1.727 -1.576 4.218 -3.188 6.597 -3.547 l 0.801 -0.119 c 0.044 -2.489 0.272 -5.184 1.502 -7.367 0.504 -0.908 1.208 -1.628 1.86 -2.452 0.168 -0.135 0.036 -0.295 0.054 -0.443 -0.487 -2.417 -2.136 -3.616 -3.7 -3.86 -0.017 0.003 -0.033 -0.004 -0.048 -0.006 z" mix-blend-mode="normal" isolation="auto" white-space="normal" solid-opacity="1" solid-color="#000000" style="visibility:visible;shape-rendering:auto;color-interpolation-filters:linearRGB;fill:#f3ffff;opacity:1;image-rendering:auto;fill-opacity:1;stroke:none;display:inline;color:#000;fill-rule:evenodd;color-rendering:auto;color-interpolation:sRGB"/>
</svg>
