<svg xmlns="http://www.w3.org/2000/svg" viewBox="0 0 48 48">
 <path d="m 8 1 c -1.029 0 -2 0.971 -2 2 l 0 42 c 0 0.971 1.029 2 2 2 l 32 0 c 0.971 0 2 -1.029 2 -2 l 0 -31 -13 -13 z" style="fill:#c19553"/>
 <path d="m 29 12 0.063 0.063 0.156 -0.063 -0.219 0 z m 2 2 11 11 0 -11 -11 0 z" style="fill-opacity:0.196"/>
 <path d="m 29 1 13 13 -11 0 c -0.971 0 -2 -1.029 -2 -2 l 0 -11 z" style="fill:#fff;fill-opacity:0.392"/>
 <path d="m 6 35 0 10 c 0 0.971 1.029 2 2 2 l 32 0 c 0.971 0 2 -1.029 2 -2 l 0 -10 z" style="fill-opacity:0.196"/>
 <g style="fill:#fff">
  <g>
   <path d="m 18 1 0 4 4 0 0 -4 -4 0 z m 0 4 -4 0 0 4 4 0 0 -4 z m 0 4 0 4 4 0 0 -4 -4 0 z m 0 4 -4 0 0 4 4 0 0 -4 z m 0 4 0 4 4 0 0 -4 -4 0 z m -4 6 0 8 8 0 0 -8 -4 0 -4 0 z"/>
  </g>
  <g transform="scale(1.05731 .94579)">
   <path d="m 17.874 47.41 -0.384 -1.893 -2.184 0 -0.371 1.893 -1.694 0 c 0.388 -1.615 0.781 -3.084 1.178 -4.408 0.397 -1.333 0.781 -2.594 1.152 -3.786 l 1.774 0 c 0.388 1.2 0.772 2.475 1.152 3.826 0.388 1.341 0.763 2.797 1.125 4.368 l -1.747 0 m -1.456 -6.605 c -0.088 0.309 -0.172 0.605 -0.252 0.887 -0.071 0.274 -0.141 0.547 -0.212 0.821 -0.062 0.265 -0.124 0.534 -0.185 0.807 -0.053 0.274 -0.106 0.556 -0.159 0.847 l 1.602 0 c -0.053 -0.291 -0.106 -0.574 -0.159 -0.847 -0.053 -0.274 -0.115 -0.543 -0.185 -0.807 -0.062 -0.274 -0.132 -0.547 -0.212 -0.821 -0.071 -0.282 -0.15 -0.578 -0.238 -0.887"/>
   <path d="m 22.573 39.12 c 0.468 0 0.891 0.053 1.271 0.159 0.379 0.106 0.706 0.269 0.98 0.49 0.274 0.221 0.481 0.503 0.622 0.847 0.15 0.335 0.225 0.732 0.225 1.191 0 0.477 -0.097 0.909 -0.291 1.297 -0.194 0.388 -0.516 0.684 -0.966 0.887 0.15 0.229 0.309 0.485 0.477 0.768 0.168 0.274 0.331 0.565 0.49 0.874 0.159 0.3 0.309 0.604 0.45 0.913 0.15 0.3 0.278 0.587 0.384 0.86 l -1.708 0 c -0.203 -0.529 -0.441 -1.037 -0.715 -1.522 -0.265 -0.494 -0.552 -0.993 -0.86 -1.496 l -0.847 0 0 3.02 -1.628 0 0 -8.07 c 0.159 -0.035 0.331 -0.066 0.516 -0.093 0.194 -0.035 0.388 -0.057 0.582 -0.066 0.194 -0.018 0.379 -0.031 0.556 -0.04 0.176 -0.009 0.331 -0.013 0.463 -0.013 m 1.443 2.674 c 0 -0.432 -0.132 -0.75 -0.397 -0.953 -0.265 -0.203 -0.613 -0.304 -1.046 -0.304 -0.062 0 -0.137 0.004 -0.225 0.013 -0.088 0 -0.176 0.009 -0.265 0.026 l 0 2.462 0.357 0 c 0.556 0 0.957 -0.106 1.205 -0.318 0.247 -0.221 0.371 -0.529 0.371 -0.927"/>
  </g>
 </g>
 <path d="m 32 45 c -1.204 0 -2.123 -0.347 -2.757 -1.04 -0.634 -0.693 -0.951 -1.68 -0.951 -2.96 0 -0.636 0.096 -1.201 0.289 -1.697 0.193 -0.495 0.459 -0.912 0.799 -1.251 0.349 -0.347 0.758 -0.607 1.227 -0.78 0.478 -0.182 0.997 -0.272 1.558 -0.272 0.303 0 0.574 0.025 0.813 0.074 0.248 0.041 0.464 0.091 0.648 0.149 0.184 0.058 0.335 0.12 0.455 0.186 0.129 0.066 0.225 0.116 0.289 0.149 l -0.441 1.214 c -0.211 -0.124 -0.469 -0.227 -0.772 -0.31 -0.294 -0.091 -0.634 -0.136 -1.02 -0.136 -0.266 0 -0.528 0.045 -0.786 0.136 -0.248 0.083 -0.473 0.227 -0.675 0.433 -0.193 0.198 -0.354 0.466 -0.482 0.805 -0.119 0.338 -0.179 0.76 -0.179 1.263 0 0.875 0.165 1.548 0.496 2.02 0.34 0.462 0.891 0.693 1.654 0.693 0.441 0 0.804 -0.045 1.089 -0.136 0.294 -0.091 0.528 -0.182 0.703 -0.272 l 0.427 1.201 c -0.239 0.132 -0.565 0.256 -0.979 0.372 -0.404 0.107 -0.873 0.161 -1.406 0.161" style="fill:#fff"/>
</svg>
