<svg xmlns="http://www.w3.org/2000/svg" viewBox="0 0 48 48">
 <defs>
  
 </defs>
 <path d="m 8 1 c -1.029 0 -2 0.971 -2 2 l 0 42 c 0 0.971 1.029 2 2 2 l 32 0 c 0.971 0 2 -1.029 2 -2 l 0 -31 -13 -13 z" style="fill:#a6a6a6;fill-opacity:1"/>
 <path d="m 29 12 0.063 0.063 0.156 -0.063 -0.219 0 z m 2 2 11 11 0 -11 -11 0 z" style="fill-opacity:0.196"/>
 <path d="m 29 1 13 13 -11 0 c -0.971 0 -2 -1.029 -2 -2 l 0 -11 z" style="fill:#fff;fill-opacity:0.392"/>
 <path d="m 28.615 22.27 a 0.769 0.794 0 0 1 -0.769 0.794 0.769 0.794 0 0 1 -0.769 -0.794 0.769 0.794 0 0 1 0.769 -0.794 0.769 0.794 0 0 1 0.769 0.794 z m 1.538 1.587 a 0.769 0.794 0 0 1 -0.769 0.794 0.769 0.794 0 0 1 -0.769 -0.794 0.769 0.794 0 0 1 0.769 -0.794 0.769 0.794 0 0 1 0.769 0.794 z m 1.538 -1.587 a 0.769 0.794 0 0 1 -0.769 0.794 0.769 0.794 0 0 1 -0.769 -0.794 0.769 0.794 0 0 1 0.769 -0.794 0.769 0.794 0 0 1 0.769 0.794 z m -1.538 -1.587 a 0.769 0.794 0 0 1 -0.769 0.794 0.769 0.794 0 0 1 -0.769 -0.794 0.769 0.794 0 0 1 0.769 -0.794 0.769 0.794 0 0 1 0.769 0.794 z m -10 1.587 a 1.538 1.587 0 0 1 -1.538 1.587 1.538 1.587 0 0 1 -1.538 -1.587 1.538 1.587 0 0 1 1.538 -1.587 1.538 1.587 0 0 1 1.538 1.587 z m -1.36 -5.553 c -0.553 0.023 -1.01 0.268 -1.322 0.513 C 15.618 18.68 14 24.731 14 27.933 c 0 3.202 0.714 3.066 1.333 3.066 0.619 0 1.397 -0.439 2.078 -1.057 1.878 -1.706 2.743 -3.704 4.611 -3.704 l 3.957 0 c 1.868 0 2.733 1.998 4.611 3.704 0.68 0.618 1.459 1.057 2.078 1.057 0.619 0 1.333 0.136 1.333 -3.066 0 -3.202 -1.618 -9.253 -3.472 -10.704 -0.502 -0.393 -1.365 -0.783 -2.416 -0.268 -0.705 0.346 -1.335 0.547 -2.255 0.547 l -3.714 0 c -0.921 0 -1.55 -0.201 -2.255 -0.547 -0.394 -0.193 -0.762 -0.259 -1.094 -0.245 z" style="fill:#fff;opacity:1;fill-opacity:1;stroke:none;fill-rule:nonzero"/>
 <path d="m 6 35 0 10 c 0 0.971 1.029 2 2 2 l 32 0 c 0.971 0 2 -1.029 2 -2 l 0 -10 z" style="fill-opacity:0.196"/>
 <path d="m 16.743 43.724 q 0.443 0 0.729 -0.074 0.3 -0.087 0.471 -0.223 0.171 -0.149 0.229 -0.322 0.071 -0.186 0.071 -0.372 0 -0.235 -0.157 -0.421 -0.157 -0.186 -0.4 -0.322 -0.243 -0.149 -0.543 -0.26 -0.3 -0.124 -0.6 -0.223 -0.4 -0.124 -0.829 -0.285 -0.429 -0.161 -0.786 -0.409 -0.343 -0.248 -0.571 -0.607 -0.229 -0.372 -0.229 -0.916 0 -1.077 0.8 -1.684 0.814 -0.607 2.229 -0.607 0.814 0 1.414 0.161 0.614 0.161 1.029 0.359 l -0.514 1.176 q -0.357 -0.173 -0.8 -0.297 -0.429 -0.124 -1 -0.124 -1.4 0 -1.4 0.879 0 0.223 0.143 0.396 0.143 0.161 0.357 0.297 0.229 0.124 0.5 0.223 0.286 0.099 0.557 0.186 0.414 0.136 0.857 0.31 0.457 0.161 0.829 0.446 0.386 0.272 0.629 0.693 q 0.243 0.409 0.243 1.04 q 0 1.077 -0.814 1.672 -0.8 0.582 -2.443 0.582 -1.1 0 -1.757 -0.198 q -0.657 -0.211 -0.986 -0.384 l 0.514 -1.238 q 0.386 0.198 0.914 0.372 0.543 0.173 1.314 0.173 z" style="fill:#fff;fill-opacity:1;stroke:none"/>
 <path d="m 22.824 37 q 0.093 0.271 0.225 0.698 0.145 0.426 0.304 0.918 0.159 0.491 0.317 0.995 0.159 0.504 0.304 0.931 0.159 -0.478 0.33 -0.982 0.172 -0.517 0.33 -0.982 0.159 -0.478 0.291 -0.892 q 0.132 -0.414 0.238 -0.685 l 1.348 0 q 0.093 1.047 0.172 2.042 0.093 0.995 0.145 1.977 0.066 0.969 0.106 1.964 q 0.04 0.982 0.066 2.02 l -1.493 0 0.079 -6.216 -1 3.386 -1.189 0 l -0.965 -3.386 0.066 6.216 -1.493 0 q 0.04 -0.982 0.079 -2.042 0.053 -1.06 0.106 -2.107 0.053 -1.047 0.119 -2.029 q 0.079 -0.982 0.172 -1.822 l 1.348 0 z" style="fill:#fff;fill-opacity:1;stroke:none"/>
 <path d="m 30.743 43.724 q 0.443 0 0.729 -0.074 0.3 -0.087 0.471 -0.223 0.171 -0.149 0.229 -0.322 0.071 -0.186 0.071 -0.372 0 -0.235 -0.157 -0.421 -0.157 -0.186 -0.4 -0.322 -0.243 -0.149 -0.543 -0.26 -0.3 -0.124 -0.6 -0.223 -0.4 -0.124 -0.829 -0.285 -0.429 -0.161 -0.786 -0.409 -0.343 -0.248 -0.571 -0.607 -0.229 -0.372 -0.229 -0.916 0 -1.077 0.8 -1.684 0.814 -0.607 2.229 -0.607 0.814 0 1.414 0.161 0.614 0.161 1.029 0.359 l -0.514 1.176 q -0.357 -0.173 -0.8 -0.297 -0.429 -0.124 -1 -0.124 -1.4 0 -1.4 0.879 0 0.223 0.143 0.396 0.143 0.161 0.357 0.297 0.229 0.124 0.5 0.223 0.286 0.099 0.557 0.186 0.414 0.136 0.857 0.31 0.457 0.161 0.829 0.446 0.386 0.272 0.629 0.693 q 0.243 0.409 0.243 1.04 q 0 1.077 -0.814 1.672 -0.8 0.582 -2.443 0.582 -1.1 0 -1.757 -0.198 q -0.657 -0.211 -0.986 -0.384 l 0.514 -1.238 q 0.386 0.198 0.914 0.372 0.543 0.173 1.314 0.173 z" style="fill:#fff;fill-opacity:1;stroke:none"/>
</svg>
