<svg xmlns="http://www.w3.org/2000/svg" viewBox="0 0 48 48">
 <path d="m 8 1 c -1.029 0 -2 0.971 -2 2 l 0 42 c 0 0.971 1.029 2 2 2 l 32 0 c 0.971 0 2 -1.029 2 -2 l 0 -31 -13 -13 z" style="fill:#7099c4"/>
 <path d="m 29 12 0.063 0.063 0.156 -0.063 -0.219 0 z m 2 2 11 11 0 -11 -11 0 z" style="fill-opacity:0.196"/>
 <path d="m 29 1 13 13 -11 0 c -0.971 0 -2 -1.029 -2 -2 l 0 -11 z" style="fill:#fff;fill-opacity:0.392"/>
 <path d="m 6 35 0 10 c 0 0.971 1.029 2 2 2 l 32 0 c 0.971 0 2 -1.029 2 -2 l 0 -10 z" style="fill-opacity:0.196"/>
 <path d="m 16.636 19.909 0 1.636 14.727 0 0 -1.636 z" style="fill:#fff;color:#000"/>
 <path d="m 15.818 23.18 0 1.636 16.363 0 0 -1.636 z" style="fill:#fff;color:#000"/>
 <path d="m 16.636 26.454 0 1.636 14.727 0 0 -1.636 z" style="fill:#fff;color:#000"/>
 <path d="m 23.18 15.818 0 16.363 1.636 0 0 -16.363 z" style="fill:#fff;color:#000"/>
 <path d="m 21.09 31.363 c -1.636 -4.909 -1.636 -9.818 0 -14.727" style="fill:none;stroke:#fff;stroke-width:1.636"/>
 <path d="m 26.839 31.363 c 1.636 -4.091 1.636 -9.818 0 -14.727" style="fill:none;stroke:#fff;stroke-width:1.636"/>
 <path d="m 32.18 24 c 0 4.519 -3.663 8.182 -8.182 8.182 -4.519 0 -8.182 -3.663 -8.182 -8.182 0 -4.519 3.663 -8.182 8.182 -8.182 4.519 0 8.182 3.663 8.182 8.182 z" style="fill:none;stroke:#fff;stroke-linecap:round;stroke-width:1.637"/>
 <path d="m 15.751 41 c 0 0.372 0.014 0.722 0.042 1.053 0.037 0.322 0.103 0.603 0.196 0.842 0.103 0.239 0.243 0.429 0.42 0.57 0.177 0.14 0.415 0.211 0.714 0.211 0.289 0 0.523 -0.07 0.7 -0.211 0.187 -0.14 0.327 -0.33 0.42 -0.57 0.103 -0.248 0.168 -0.533 0.196 -0.854 0.037 -0.322 0.056 -0.669 0.056 -1.04 0 -0.372 -0.019 -0.718 -0.056 -1.04 -0.028 -0.33 -0.093 -0.615 -0.196 -0.854 -0.093 -0.239 -0.229 -0.429 -0.406 -0.57 -0.177 -0.14 -0.416 -0.211 -0.714 -0.211 -0.299 0 -0.537 0.07 -0.714 0.211 -0.177 0.14 -0.317 0.334 -0.42 0.582 -0.093 0.239 -0.159 0.52 -0.196 0.842 -0.028 0.322 -0.042 0.669 -0.042 1.04 m -1.751 0 c 0 -1.321 0.275 -2.316 0.826 -2.985 0.551 -0.677 1.317 -1.015 2.297 -1.015 1.018 0 1.793 0.338 2.325 1.015 0.532 0.669 0.798 1.664 0.798 2.985 0 1.321 -0.271 2.32 -0.812 2.997 -0.542 0.669 -1.307 1 -2.297 1 -1.018 0 -1.797 -0.334 -2.339 -1 -0.532 -0.677 -0.798 -1.676 -0.798 -2.997" style="fill:#fff"/>
 <path d="m 23.1 43.6 c 0.047 0.008 0.098 0.012 0.154 0.012 0.056 0 0.107 0 0.154 0 0.392 0 0.719 -0.066 0.98 -0.198 0.271 -0.132 0.486 -0.314 0.644 -0.545 0.168 -0.231 0.285 -0.504 0.35 -0.817 0.075 -0.322 0.112 -0.673 0.112 -1.053 0 -0.33 -0.028 -0.652 -0.084 -0.966 -0.056 -0.314 -0.154 -0.59 -0.294 -0.83 -0.14 -0.239 -0.331 -0.429 -0.574 -0.57 -0.243 -0.149 -0.556 -0.223 -0.938 -0.223 -0.075 0 -0.159 0.004 -0.252 0.012 -0.093 0 -0.177 0.008 -0.252 0.025 l 0 5.152 m 4.146 -2.601 c 0 0.71 -0.103 1.317 -0.308 1.82 -0.196 0.495 -0.472 0.9 -0.826 1.214 -0.355 0.314 -0.78 0.545 -1.275 0.693 -0.486 0.14 -1.022 0.211 -1.611 0.211 -0.308 0 -0.612 -0.017 -0.91 -0.05 -0.289 -0.025 -0.602 -0.07 -0.938 -0.136 l 0 -7.48 c 0.392 -0.074 0.761 -0.124 1.106 -0.149 0.345 -0.025 0.668 -0.037 0.966 -0.037 0.57 0 1.088 0.074 1.555 0.223 0.476 0.149 0.878 0.384 1.204 0.706 0.327 0.314 0.579 0.718 0.756 1.214 0.187 0.487 0.28 1.077 0.28 1.771" style="fill:#fff"/>
 <path d="m 34 37.17 0 7.666 -1.723 0 0 -3.381 -2.297 0 0 3.381 -1.723 0 0 -7.666 1.723 0 0 3.02 2.297 0 0 -3.02 1.723 0" style="fill:#fff"/>
</svg>
