<svg xmlns="http://www.w3.org/2000/svg" viewBox="0 0 48 48">
 <path d="m 8 1 c -1.029 0 -2 0.971 -2 2 l 0 42 c 0 0.971 1.029 2 2 2 l 32 0 c 0.971 0 2 -1.029 2 -2 l 0 -31 -13 -13 z" style="fill:#dcdcdc"/>
 <path d="m 29 12 0.063 0.063 0.156 -0.063 -0.219 0 z m 2 2 11 11 0 -11 -11 0 z" style="fill-opacity:0.196"/>
 <path d="m 29 1 13 13 -11 0 c -0.971 0 -2 -1.029 -2 -2 l 0 -11 z" style="fill:#fff;fill-opacity:0.392"/>
 <g transform="matrix(0.66667,-0.66667,0.66667,0.66667,-6.66682,28.33328)">
  <path d="m 15 13 8 0 0 8 -8 0 z" style="fill:#888"/>
  <path d="m 25 13 8 0 0 8 -8 0 z" style="fill:#888"/>
  <path d="m 25 23 8 0 0 8 -8 0 z" style="fill:#888"/>
  <path d="m 15 23 8 0 0 8 -8 0 z" style="fill:#888"/>
 </g>
</svg>
