<svg xmlns="http://www.w3.org/2000/svg" viewBox="0 0 48 48">
 <path d="m 8.267 7.172 c -1.029 0 -2.057 1.029 -2.057 2.057 l 0 31.943 c 0 0.971 1.029 2 2 2 l 32 0 c 0.971 0 2 -1.029 2 -2 l 0 -32 c 0 -0.971 -1.029 -2 -2 -2 z" style="fill:#c19553"/>
 <g style="fill:#fff">
  <path d="m 8.06 6 c -1.029 0 -2.057 1.029 -2.057 2.057 l 0 9.943 c 4 0 32 0 36 0 l 0 -10 c 0 -0.971 -1.029 -2 -2 -2 z" style="fill-opacity:0.196"/>
  <path d="m 21 10 0 16 6 0 0 -16 z" style="fill-opacity:0.392"/>
 </g>
 <path d="m 12 38 0 -8 4.757 0 0 1.318 -3.213 0 0 1.939 2.812 0 0 1.318 -2.812 0 0 3.425 z" style="fill:#fff;fill-opacity:1;stroke:none"/>
 <path d="m 23.383 38 -5.183 0 0 -8 1.652 0 0 6.682 3.531 0 0 1.318 z" style="fill:#fff;fill-opacity:1;stroke:none"/>
 <path d="m 28.903 38 -0.4 -1.848 -2.276 0 l -0.386 1.848 -1.766 0 c 0.706 -2.773 1.583 -5.452 2.428 -8 l 1.849 0 c 0.924 2.715 1.745 5.456 2.373 8 m -3.339 -6.449 c -0.352 1.072 -0.632 2.234 -0.842 3.283 l 1.669 0 c -0.194 -1.13 -0.523 -2.225 -0.828 -3.283 z" style="fill:#fff;fill-opacity:1;stroke:none"/>
 <path d="m 36.949 30 0 1.318 -2.155 0 0 6.682 -1.639 0 0 -6.682 -2.155 0 0 -1.318 5.949 0 z" style="fill:#fff;fill-opacity:1;stroke:none"/>
</svg>
