<svg xmlns="http://www.w3.org/2000/svg" viewBox="0 0 48 48">
 <path d="m 8.06 6 c -1.029 0 -2.057 1.029 -2.057 2.057 l 0 31.943 c 0 0.971 1.029 2 2 2 l 32 0 c 0.971 0 2 -1.029 2 -2 l 0 -32 c 0 -0.971 -1.029 -2 -2 -2 z" style="fill:#c19553"/>
 <g style="fill:#fff">
  <path d="m 8.06 6 c -1.029 0 -2.057 1.029 -2.057 2.057 l 0 9.943 c 4 0 32 0 36 0 l 0 -10 c 0 -0.971 -1.029 -2 -2 -2 z" style="fill-opacity:0.196"/>
  <path d="m 21 10 0 16 6 0 0 -16 z" style="fill-opacity:0.392"/>
 </g>
 <path d="m 14.385 36.724 q 0.385 0 0.634 -0.074 0.261 -0.087 0.41 -0.223 0.149 -0.149 0.199 -0.322 0.062 -0.186 0.062 -0.372 0 -0.235 -0.137 -0.421 -0.137 -0.186 -0.348 -0.322 -0.211 -0.149 -0.472 -0.26 -0.261 -0.124 -0.522 -0.223 -0.348 -0.124 -0.72 -0.285 -0.373 -0.161 -0.683 -0.409 -0.298 -0.248 -0.497 -0.607 -0.199 -0.372 -0.199 -0.916 0 -1.077 0.696 -1.684 0.708 -0.607 1.938 -0.607 0.708 0 1.23 0.161 0.534 0.161 0.894 0.359 l -0.447 1.176 q -0.311 -0.173 -0.696 -0.297 -0.373 -0.124 -0.87 -0.124 -1.217 0 -1.217 0.879 0 0.223 0.124 0.396 0.124 0.161 0.311 0.297 0.199 0.124 0.435 0.223 0.248 0.099 0.484 0.186 0.36 0.136 0.745 0.31 0.398 0.161 0.72 0.446 0.335 0.272 0.547 0.693 0.211 0.409 0.211 1.04 0 1.077 -0.708 1.672 q -0.696 0.582 -2.124 0.582 -0.957 0 -1.528 -0.198 -0.571 -0.211 -0.857 -0.384 l 0.447 -1.238 q 0.335 0.198 0.795 0.372 0.472 0.173 1.143 0.173 z" style="fill:#fff;fill-opacity:1;stroke:none"/>
 <path d="m 22.293 38 c -0.837 -1.866 -1.774 -3.666 -2.751 -5.312 l 0 5.312 -1.542 0 l 0 -8 1.375 0 c 1.062 1.605 1.805 3.139 2.638 4.824 l 0 -4.824 1.654 0 0 8 z" style="fill:#fff;fill-opacity:1;stroke:none"/>
 <path d="m 28.701 38 -0.366 -1.848 -2.084 0 l -0.354 1.848 -1.617 0 c 0.646 -2.772 1.449 -5.451 2.223 -8 l 1.693 0 c 0.847 2.716 1.598 5.456 2.172 8 z m -1.389 -6.449 c -0.322 1.073 -0.579 2.234 -0.77 3.283 l 1.528 0 c -0.177 -1.13 -0.479 -2.225 -0.758 -3.283" style="fill:#fff;fill-opacity:1;stroke:none"/>
 <path d="m 33.21 29.9 c 0.977 0 1.735 0.211 2.273 0.634 0.538 0.414 0.807 1.096 0.807 2.044 0 0.958 -0.273 1.652 -0.82 2.083 -0.538 0.423 -1.304 0.634 -2.298 0.634 l -0.547 0 0 2.704 -1.528 0 0 -7.906 c 0.702 -0.156 1.405 -0.167 2.112 -0.194 z m 0.174 1.385 c -0.091 0 -0.219 0.004 -0.385 0.013 -0.157 0 -0.282 0.009 -0.373 0.026 l 0 2.588 0.621 0 c 0.489 0 0.857 -0.099 1.106 -0.298 0.248 -0.207 0.373 -0.556 0.373 -1.048 0 -0.466 -0.124 -0.794 -0.373 -0.983 -0.24 -0.198 -0.563 -0.298 -0.969 -0.298 z" style="fill:#fff;fill-opacity:1;stroke:none"/>
</svg>
