<svg xmlns="http://www.w3.org/2000/svg" viewBox="0 0 48 48">
 <path d="m 8 1 c -1.029 0 -2 0.971 -2 2 l 0 42 c 0 0.971 1.029 2 2 2 l 32 0 c 0.971 0 2 -1.029 2 -2 l 0 -31 -13 -13 z" style="fill:#207245"/>
 <path d="m 29 12 0.063 0.063 0.156 -0.063 -0.219 0 z m 2 2 11 11 0 -11 -11 0 z" style="fill-opacity:0.196"/>
 <path d="m 29 1 13 13 -11 0 c -0.971 0 -2 -1.029 -2 -2 l 0 -11 z" style="fill:#fff;fill-opacity:0.392"/>
 <path d="m 6 35 0 10 c 0 0.971 1.029 2 2 2 l 32 0 c 0.971 0 2 -1.029 2 -2 l 0 -10 z" style="fill-opacity:0.196"/>
 <path d="m 34 18 c 0 7.04 0.001 7.897 0.001 14 -7.02 0 -13.928 0 -20 0 0 -7.04 0.001 -7.897 0.001 -14 6.942 0 14.05 0 19.998 0 z m -2 2 -8.999 0 0 4 8.999 0 z m -10.999 0 -5 0 0 4 5 0 z m 10.999 6 -8.999 0 0 4 8.999 0 z m -10.999 0 -5 0 0 4 5 0 z" style="fill:#fff;color:#000"/>
 <g transform="matrix(0.87399784,0,0,0.87399784,-0.23581594,5.6700943)">
  <path d="m 18.762 44.839 c -0.175 -0.421 -0.391 -0.888 -0.649 -1.399 -0.248 -0.512 -0.511 -1.024 -0.787 -1.536 -0.267 0.487 -0.534 0.995 -0.801 1.523 -0.267 0.52 -0.497 0.991 -0.69 1.412 l -1.836 0 c 0.092 -0.223 0.225 -0.491 0.4 -0.805 0.184 -0.314 0.382 -0.652 0.594 -1.015 0.221 -0.363 0.451 -0.735 0.69 -1.115 0.239 -0.388 0.469 -0.76 0.69 -1.115 l -2.236 -3.616 1.836 0 1.353 2.452 1.422 -2.452 1.712 0 -2.181 3.579 c 0.248 0.355 0.492 0.727 0.732 1.115 0.239 0.388 0.46 0.768 0.663 1.139 0.212 0.363 0.396 0.706 0.552 1.028 0.156 0.314 0.281 0.582 0.373 0.805 l -1.836 0" style="fill:#fff"/>
  <path d="m 27.1 44.839 -5.369 0 0 -7.666 1.712 0 0 6.402 3.658 0 0 1.263" style="fill:#fff"/>
  <path d="m 30.853 43.724 c 0.285 0 0.52 -0.025 0.704 -0.074 0.193 -0.058 0.345 -0.132 0.455 -0.223 0.11 -0.099 0.184 -0.206 0.221 -0.322 0.046 -0.124 0.069 -0.248 0.069 -0.372 0 -0.157 -0.051 -0.297 -0.152 -0.421 -0.101 -0.124 -0.23 -0.231 -0.386 -0.322 -0.156 -0.099 -0.331 -0.186 -0.524 -0.26 -0.193 -0.083 -0.386 -0.157 -0.58 -0.223 -0.258 -0.083 -0.525 -0.177 -0.801 -0.285 -0.276 -0.107 -0.529 -0.244 -0.759 -0.409 -0.221 -0.165 -0.405 -0.367 -0.552 -0.607 -0.147 -0.248 -0.221 -0.553 -0.221 -0.916 0 -0.718 0.258 -1.28 0.773 -1.684 0.524 -0.405 1.242 -0.607 2.153 -0.607 0.524 0 0.98 0.054 1.366 0.161 0.396 0.107 0.727 0.227 0.994 0.359 l -0.497 1.176 c -0.23 -0.116 -0.488 -0.215 -0.773 -0.297 -0.276 -0.083 -0.598 -0.124 -0.966 -0.124 -0.902 0 -1.353 0.293 -1.353 0.879 0 0.149 0.046 0.281 0.138 0.396 0.092 0.107 0.207 0.206 0.345 0.297 0.147 0.083 0.308 0.157 0.483 0.223 0.184 0.066 0.363 0.128 0.538 0.186 0.267 0.091 0.543 0.194 0.828 0.31 0.294 0.107 0.561 0.256 0.801 0.446 0.248 0.182 0.451 0.413 0.607 0.693 0.156 0.272 0.235 0.619 0.235 1.04 0 0.718 -0.262 1.276 -0.787 1.672 -0.515 0.388 -1.302 0.582 -2.36 0.582 -0.709 0 -1.274 -0.066 -1.698 -0.198 -0.423 -0.14 -0.741 -0.268 -0.952 -0.384 l 0.497 -1.238 c 0.248 0.132 0.543 0.256 0.883 0.372 0.35 0.116 0.773 0.173 1.27 0.173" style="fill:#fff"/>
  <path d="m 39.624 44.816 c -0.175 -0.421 -0.391 -0.888 -0.649 -1.399 -0.248 -0.512 -0.511 -1.024 -0.787 -1.536 -0.267 0.487 -0.534 0.995 -0.801 1.523 -0.267 0.52 -0.497 0.991 -0.69 1.412 l -1.836 0 c 0.092 -0.223 0.225 -0.491 0.4 -0.805 0.184 -0.314 0.382 -0.652 0.594 -1.015 0.221 -0.363 0.451 -0.735 0.69 -1.115 0.239 -0.388 0.469 -0.76 0.69 -1.115 l -2.236 -3.616 1.836 0 1.353 2.452 1.422 -2.452 1.712 0 -2.181 3.579 c 0.248 0.355 0.492 0.727 0.732 1.115 0.239 0.388 0.46 0.768 0.663 1.139 0.212 0.363 0.396 0.706 0.552 1.028 0.156 0.314 0.281 0.582 0.373 0.805 l -1.836 0" style="fill:#fff"/>
 </g>
</svg>
