<svg width="48" xmlns="http://www.w3.org/2000/svg" viewBox="0 0 48 48" height="48">
<path style="fill:#05aa9d" d="M 8,1 C 6.9714285,1 6,1.9714285 6,3 l 0,42 c 0,0.971429 1.0285714,2 2,2 l 32,0 c 0.971429,0 2,-1.028571 2,-2 L 42,14 29,1 z"/>
<path style="fill-opacity:.196" d="M 29,12 29.0625,12.0625 29.21875,12 29,12 z m 2,2 11,11 0,-11 -11,0 z"/>
<path style="fill:#fff;fill-opacity:.392" d="m 29,1 13,13 -11,0 c -0.971429,0 -2,-1.028571 -2,-2 L 29,1 z"/>
<path style="fill:#fff;line-height:normal;color:#000" d="m 29.444449,18.000003 c -0.575247,0 -1.067661,0.302327 -1.336806,0.749999 l -5.663196,0 c 0,0 -1.126989,-0.01914 -2.284722,0.539064 -1.157734,0.558191 -2.381945,1.835935 -2.381945,3.960936 0,2.125 1.224211,3.402744 2.381945,3.960937 0.549181,0.264784 1.088611,0.376677 1.506945,0.445311 l 0,0.328127 -2.13889,2.062499 c -0.06583,-0.01746 -0.122851,-0.04687 -0.194444,-0.04687 -0.429556,0 -0.777778,0.335787 -0.777778,0.750001 0,0.41421 0.348222,0.749996 0.777778,0.749996 0.429556,0 0.777777,-0.335786 0.777777,-0.749999 0,-0.06904 -0.0305,-0.124014 -0.04861,-0.187501 l 2.13889,-2.0625 2.576389,0 0,-0.749999 0.777778,0 c 0,0 0.817455,0.01914 1.604167,0.398437 0.786712,0.379306 1.506946,0.976563 1.506946,2.601563 0,1.624998 -0.720234,2.222254 -1.506946,2.60156 -0.786714,0.379308 -1.604169,0.398439 -1.604169,0.398439 l -5.663197,0 C 19.623214,33.302328 19.130802,33 18.555554,33 c -0.85911,0 -1.555556,0.671575 -1.555556,1.500001 0,0.828426 0.696446,1.499999 1.555556,1.499999 0.575248,0 1.06766,-0.302328 1.336806,-0.749999 l 5.663196,0 c 0,0 1.126989,0.01914 2.284723,-0.539064 1.157733,-0.558192 2.381945,-1.835938 2.381945,-3.960936 0,-2.125 -1.224212,-3.402745 -2.381945,-3.960937 -1.157734,-0.558193 -2.284723,-0.539062 -2.284723,-0.539062 l -0.777777,0 0,-0.234376 2.138888,-2.0625 c 0.06583,0.01746 0.122851,0.04687 0.194444,0.04687 0.429556,0 0.777779,-0.335786 0.777779,-0.750001 0,-0.414208 -0.348223,-0.749994 -0.777779,-0.749994 -0.429555,0 -0.777777,0.335786 -0.777777,0.75 0,0.06904 0.0305,0.124013 0.04861,0.187499 l -2.13889,2.062501 -2.57639,0 0,0.632812 c -0.256293,-0.05901 -0.535701,-0.141099 -0.826388,-0.28125 -0.786709,-0.379307 -1.506943,-0.976562 -1.506943,-2.601562 0,-1.625 0.720234,-2.222255 1.506946,-2.601562 C 21.626989,20.269131 22.444444,20.25 22.444444,20.25 l 5.663197,0 c 0.269145,0.447674 0.76156,0.750002 1.336806,0.750002 0.85911,0 1.555555,-0.671573 1.555555,-1.5 0,-0.828427 -0.696445,-1.5 -1.555555,-1.5 z"/>
</svg>
