<svg xmlns="http://www.w3.org/2000/svg" viewBox="0 0 48 48">
 <path d="m 8 1 c -1.029 0 -2 0.971 -2 2 l 0 42 c 0 0.971 1.029 2 2 2 l 32 0 c 0.971 0 2 -1.029 2 -2 l 0 -31 -13 -13 z" style="fill:#c19553"/>
 <path d="m 29 12 0.063 0.063 0.156 -0.063 -0.219 0 z m 2 2 11 11 0 -11 -11 0 z" style="fill-opacity:0.196"/>
 <path d="m 29 1 13 13 -11 0 c -0.971 0 -2 -1.029 -2 -2 l 0 -11 z" style="fill:#fff;fill-opacity:0.392"/>
 <path d="m 6 35 0 10 c 0 0.971 1.029 2 2 2 l 32 0 c 0.971 0 2 -1.029 2 -2 l 0 -10 z" style="fill-opacity:0.196"/>
 <g style="fill:#fff">
  <g>
   <path d="m 18 1 0 4 4 0 0 -4 -4 0 z m 0 4 -4 0 0 4 4 0 0 -4 z m 0 4 0 4 4 0 0 -4 -4 0 z m 0 4 -4 0 0 4 4 0 0 -4 z m 0 4 0 4 4 0 0 -4 -4 0 z m -4 6 0 8 8 0 0 -8 -4 0 -4 0 z"/>
  </g>
  <g transform="scale(1.09406 .91403)">
   <path d="m 28.21 41.696 c -1.313 2 -2.518 4.04 -3.634 6.094 l 3.761 0 0 1.442 -5.769 0 0 -1 c 1.114 -2.199 2.36 -4.301 3.549 -6.306 l -3.365 0 0 -1.442 5.458 0 0 1.216"/>
  </g>
 </g>
 <path d="m 22.05 45 c -0.467 -1.08 -1.01 -2.092 -1.523 -3.063 -0.583 1.043 -1.082 2.039 -1.582 3.063 l -1.948 0 c 0.724 -1.479 1.653 -2.852 2.519 -4.226 l -2.372 -3.774 1.948 0 1.435 2.559 1.508 -2.559 1.816 0 -2.314 3.735 c 0.967 1.37 1.761 2.767 2.46 4.265 l -1.948 0" style="fill:#fff"/>
</svg>
