<svg xmlns="http://www.w3.org/2000/svg" viewBox="0 0 48 48">
 <path d="m 8 1 c -1.029 0 -2 0.971 -2 2 l 0 42 c 0 0.971 1.029 2 2 2 l 32 0 c 0.971 0 2 -1.029 2 -2 l 0 -31 -13 -13 z" style="fill:#39a34f"/>
 <path d="m 29 12 0.063 0.063 0.156 -0.063 -0.219 0 z m 2 2 11 11 0 -11 -11 0 z" style="fill-opacity:0.196"/>
 <path d="m 29 1 13 13 -11 0 c -0.971 0 -2 -1.029 -2 -2 l 0 -11 z" style="fill:#fff;fill-opacity:0.392"/>
 <path d="m 6 35 0 10 c 0 0.971 1.029 2 2 2 l 32 0 c 0.971 0 2 -1.029 2 -2 l 0 -10 z" style="fill-opacity:0.196"/>
 <g style="fill:#fff">
  <g>
   <path d="m 17.04 16 c -0.563 0.054 -1.045 0.648 -1.035 1.281 0 4.49 0 8.979 0 13.469 0.006 0.663 0.538 1.26 1.129 1.25 l 13.772 0 c 0.583 -0.01 1.092 -0.597 1.098 -1.25 l 0 -13.469 c 0.008 -0.663 -0.506 -1.274 -1.098 -1.281 c -4.622 0 -9.244 0 -13.866 0 z m 0.973 2 11.984 0 0 8.594 -3.357 -4.125 -2.384 2.219 -3.137 -3.938 -3.106 3.188 z" style="color:#000"/>
  </g>
  <g transform="matrix(1.02442 0 0 .97617 0 .1)">
   <path d="m 16.696 37.801 0 1.35 -2.158 0 0 6.845 -1.642 0 0 -6.845 -2.158 0 0 -1.35 5.958 0"/>
   <path d="m 17.742 45.996 0 -1.35 1.787 0 0 -5.494 -1.787 0 0 -1.35 5.203 0 0 1.35 -1.774 0 0 5.494 1.774 0 0 1.35 -5.203 0"/>
   <path d="m 24.481 45.996 0 -8.195 5.02 0 0 1.35 -3.389 0 0 1.986 2.966 0 0 1.35 -2.966 0 0 3.508 -1.628 0"/>
   <path d="m 31.1 45.996 0 -8.195 5.02 0 0 1.35 -3.389 0 0 1.986 2.966 0 0 1.35 -2.966 0 0 3.508 -1.628 0"/>
  </g>
 </g>
</svg>
