<svg xmlns="http://www.w3.org/2000/svg" viewBox="0 0 48 48">
 <path d="m 8 1 c -1.029 0 -2 0.971 -2 2 l 0 42 c 0 0.971 1.029 2 2 2 l 32 0 c 0.971 0 2 -1.029 2 -2 l 0 -31 -13 -13 z" style="fill:#dcdcdc;fill-opacity:1"/>
 <path d="m 29 12 0.063 0.063 0.156 -0.063 -0.219 0 z m 2 2 11 11 0 -11 -11 0 z" style="fill-opacity:0.196"/>
 <path d="m 29 1 13 13 -11 0 c -0.971 0 -2 -1.029 -2 -2 l 0 -11 z" style="fill:#fff;fill-opacity:0.392"/>
 <g transform="matrix(0.67999999,0,0,0.67999999,-4.04,-6.1199996)" style="fill:#888;fill-opacity:1">
  <path transform="matrix(1.4705883,0,0,1.4705883,5.9411766,8.9999995)" d="m 22 17 0 5 5 0 0 -5 -5 0 z m 1 1 3 0 0 3 -3 0 0 -3 z" style="visibility:visible;fill:#888;stroke:none;display:inline;color:#000;fill-rule:nonzero"/>
 </g>
 <g transform="matrix(0.67999999,0,0,0.67999999,-11.04,0.87999993)" style="fill:#888;fill-opacity:1">
  <path transform="matrix(1.4705883,0,0,1.4705883,5.9411766,8.9999995)" d="m 22 17 0 5 5 0 0 -5 -5 0 z m 1 1 3 0 0 3 -3 0 0 -3 z" style="visibility:visible;fill:#888;stroke:none;display:inline;color:#000;fill-rule:nonzero"/>
 </g>
 <g transform="matrix(0.67999999,0,0,0.67999999,-4.0399997,7.8799999)" style="fill:#888;fill-opacity:1">
  <path transform="matrix(1.4705883,0,0,1.4705883,5.9411766,8.9999995)" d="m 22 17 0 5 5 0 0 -5 -5 0 z m 1 1 3 0 0 3 -3 0 0 -3 z" style="visibility:visible;fill:#888;stroke:none;display:inline;color:#000;fill-rule:nonzero"/>
 </g>
 <g transform="matrix(0.67460315,0,0,0.67460315,-3.3174596,1.0634929)" style="fill:#888;fill-opacity:1">
  <path d="m 37.529 34 0 7.412 7.412 0 0 -7.412 z" style="visibility:visible;fill:#888;stroke:none;display:inline;color:#000;fill-rule:nonzero"/>
 </g>
 <g transform="matrix(0.67460315,0,0,0.67460315,3.6825404,8.0634929)" style="fill:#888;fill-opacity:1">
  <path d="m 37.529 34 0 7.412 7.412 0 0 -7.412 z" style="visibility:visible;fill:#888;stroke:none;display:inline;color:#000;fill-rule:nonzero"/>
 </g>
 <g transform="matrix(0.67460315,0,0,0.67460315,-10.31746,8.0634929)" style="fill:#888;fill-opacity:1">
  <path d="m 37.529 34 0 7.412 7.412 0 0 -7.412 z" style="visibility:visible;fill:#888;stroke:none;display:inline;color:#000;fill-rule:nonzero"/>
 </g>
 <g transform="matrix(0.67460315,0,0,0.67460315,-10.31746,-5.9365071)" style="fill:#888;fill-opacity:1">
  <path d="m 37.529 34 0 7.412 7.412 0 0 -7.412 z" style="visibility:visible;fill:#888;stroke:none;display:inline;color:#000;fill-rule:nonzero"/>
 </g>
 <g transform="matrix(0.67999999,0,0,0.67999999,2.9600003,0.87999993)" style="fill:#888;fill-opacity:1">
  <path transform="matrix(1.4705883,0,0,1.4705883,5.9411766,8.9999995)" d="m 22 17 0 5 5 0 0 -5 -5 0 z m 1 1 3 0 0 3 -3 0 0 -3 z" style="visibility:visible;fill:#888;stroke:none;display:inline;color:#000;fill-rule:nonzero"/>
 </g>
</svg>
