<svg xmlns="http://www.w3.org/2000/svg" viewBox="0 0 48 48">
 <defs>
  
 </defs>
 <path d="m 8 1 c -1.029 0 -2 0.971 -2 2 l 0 42 c 0 0.971 1.029 2 2 2 l 32 0 c 0.971 0 2 -1.029 2 -2 l 0 -31 -13 -13 z" style="fill:#55649b;fill-opacity:1"/>
 <path d="m 29 12 0.063 0.063 0.156 -0.063 -0.219 0 z m 2 2 11 11 0 -11 -11 0 z" style="fill-opacity:0.196"/>
 <path d="m 29 1 13 13 -11 0 c -0.971 0 -2 -1.029 -2 -2 l 0 -11 z" style="fill:#fff;fill-opacity:0.392"/>
 <g transform="translate(0,1)">
  <path d="m 15 32 4 -4 0 7 l -4 0 m 5 -6 3 3 0 3 -3 0 z m 4 6 0 -3 3 -3 0 6 z m 4 -7 4 -4 0 11 -4 0 z m -9 -1 -5 5 0 -2 5 -5 l 4.5 4.5 7.5 -7.5 l -2 -2 5 0 l 0 5 -2 -2 -8.5 8.5" style="fill:#f9f9f9"/>
  <g transform="matrix(0.88426256,0,0,0.82508313,-3.1428571,-4.7916046)" style="fill:#f9f9f9;fill-opacity:1;stroke:none">
   <path d="m 29.565 33.683 -2.262 0 0 -1.212 3.393 0 c 1.131 0 1.131 -1.212 1.131 -1.212 0 0 0 -1.212 -1.131 -1.212 l -2.262 0 c -1.131 0 -1.131 -1.212 -1.131 -1.212 l 0 -2.424 c 0 0 0 -1.212 1.131 -1.212 l 1.131 0 0 -1.212 1.131 0 0 1.208 2.262 0.004 0 1.212 -3.393 0 c -1.131 0 -1.131 1.212 -1.131 1.212 0 0 -0.018 1.217 1.131 1.212 l 2.262 0 c 0 0 1.131 0 1.131 1.212 0 1.068 0 1.356 0 2.424 0 1.212 -1.131 1.212 -1.131 1.212 l -1.131 0 0 1.212 -1.131 0 z"/>
  </g>
 </g>
</svg>
