<svg xmlns="http://www.w3.org/2000/svg" viewBox="0 0 48 48">
 <path d="m 8 1 c -1.029 0 -2 0.971 -2 2 l 0 42 c 0 0.971 1.029 2 2 2 l 32 0 c 0.971 0 2 -1.029 2 -2 l 0 -31 -13 -13 z" style="fill:#3866a0"/>
 <path d="m 29 12 0.063 0.063 0.156 -0.063 -0.219 0 z m 2 2 11 11 0 -11 -11 0 z" style="fill-opacity:0.196"/>
 <path d="m 29 1 13 13 -11 0 c -0.971 0 -2 -1.029 -2 -2 l 0 -11 z" style="fill:#fff;fill-opacity:0.392"/>
 <g transform="translate(1,3)" style="fill:#fff;color:#000">
  <path d="m 15 18.03 c 0 1.802 0 3.171 0 4.973 c 0 1 0 2 1 2 1 0 1 -1 1 -2 l 0 -3 3 0 c 1 0 2 0 2 -1 0 -1 -1 -1 -2 -1 -2 0.012 -3 0.027 -5 0.027 z"/>
  <path d="m 31 18.03 c 0 1.802 0 3.171 0 4.973 c 0 1 0 2 -1 2 -1 0 -1 -1 -1 -2 l 0 -3 -3 0 c -1 0 -2 0 -2 -1 0 -1 1 -1 2 -1 2 0.012 3 0.027 5 0.027 z"/>
  <path d="m 30.973 34 c -1.802 0 -3.171 0 -4.973 0 c -1 0 -2 0 -2 -1 0 -1 1 -1 2 -1 l 3 0 0 -3 c 0 -1 0 -2 1 -2 1 0 1 1 1 2 -0.012 2 -0.027 3 -0.027 5 z"/>
  <path d="m 15.03 34 c 1.802 0 3.171 0 4.973 0 c 1 0 2 0 2 -1 0 -1 -1 -1 -2 -1 l -3 0 0 -3 c 0 -1 0 -2 -1 -2 -1 0 -1 1 -1 2 0.012 2 0.027 3 0.027 5 z"/>
 </g>
</svg>
