<svg xmlns="http://www.w3.org/2000/svg" viewBox="0 0 48 48">
 <path d="m 8 1 c -1.029 0 -2 0.971 -2 2 l 0 42 c 0 0.971 1.029 2 2 2 l 32 0 c 0.971 0 2 -1.029 2 -2 l 0 -31 -13 -13 z" style="fill:#3398c3;fill-opacity:1"/>
 <path d="m 29 12 0.063 0.063 0.156 -0.063 -0.219 0 z m 2 2 11 11 0 -11 -11 0 z" style="fill-opacity:0.196"/>
 <path d="m 29 1 13 13 -11 0 c -0.971 0 -2 -1.029 -2 -2 l 0 -11 z" style="fill:#fff;fill-opacity:0.392"/>
 <path d="m 34 18 c -1.571 2.294 -3.34 4.321 -7.07 5.323 -0.433 -2.662 -2.732 -4.618 -5.43 -4.617 -3.038 0 -5.5 2.462 -5.5 5.5 0.003 0.23 0.019 0.46 0.051 0.688 c -1.242 0.708 -2.051 1.998 -2.051 4.106 0 3.528 3.412 7 7.301 7 7.691 0 12.699 -8 12.699 -18 m -12.5 3.2 c 1.657 0 3 1.343 3 3 0 1.657 -1.343 3 -3 3 -1.657 0 -3 -1.343 -3 -3 0 -1.657 1.343 -3 3 -3 z m 7.301 7.355 c 0 0.556 -3.467 4.945 -6.801 4.945 -3.056 0 -4.801 -2.067 -4.801 -4.215 3.333 3.268 8.802 1.113 11.602 -0.73 z" style="fill:#fff;opacity:1;fill-opacity:1;stroke:none"/>
 <circle cx="22.4" cy="23" r="1.6" style="fill:#fff;opacity:1;fill-opacity:1;stroke:none"/>
</svg>
