<svg xmlns="http://www.w3.org/2000/svg" viewBox="0 0 48 48">
 <defs>
  
 </defs>
 <path d="m 8 1 c -1.029 0 -2 0.971 -2 2 l 0 42 c 0 0.971 1.029 2 2 2 l 32 0 c 0.971 0 2 -1.029 2 -2 l 0 -31 -13 -13 z" style="fill:#a6a6a6;fill-opacity:1"/>
 <path d="m 29 12 0.063 0.063 0.156 -0.063 -0.219 0 z m 2 2 11 11 0 -11 -11 0 z" style="fill-opacity:0.196"/>
 <path d="m 29 1 13 13 -11 0 c -0.971 0 -2 -1.029 -2 -2 l 0 -11 z" style="fill:#fff;fill-opacity:0.392"/>
 <path d="m 23.998 15 c -6.06 0 -10.998 4.926 -10.998 11 0 6.075 4.94 11 10.998 11 6.06 0 11 -4.926 11 -11 0 -6.075 -4.941 -11 -11 -11 m 0 1.388 c 5.341 0 9.642 4.304 9.642 9.612 0 5.307 -4.299 9.612 -9.642 9.612 -5.338 0 -9.638 -4.304 -9.638 -9.612 0 -5.307 4.3 -9.612 9.638 -9.612 z m 0.313 1.37 c -0.776 0 -1.552 0.297 -2.147 0.891 l -5.521 5.517 c -1.19 1.188 -1.19 3.1 0 4.289 1.19 1.188 3.105 1.188 4.295 0 l 5.519 -5.517 c 1.19 -1.188 1.19 -3.1 0 -4.289 -0.593 -0.594 -1.369 -0.891 -2.145 -0.891 z m 0 0.434 c 0.666 0 1.333 0.254 1.842 0.762 1.019 1.016 1.019 2.664 0 3.68 -1.021 1.016 -2.669 1.016 -3.683 0 -1.016 -1.014 -1.016 -2.661 0 -3.68 0.509 -0.508 1.175 -0.762 1.842 -0.762 z m 4.908 4.464 c -0.776 0 -1.552 0.297 -2.147 0.891 l -5.523 5.517 c -1.19 1.188 -1.19 3.1 0 4.289 1.19 1.188 3.107 1.188 4.297 0 l 5.521 -5.515 c 1.19 -1.188 1.19 -3.103 0 -4.291 -0.595 -0.594 -1.372 -0.891 -2.147 -0.891 z m 0 0.438 c 0.666 0 1.334 0.253 1.844 0.76 1.016 1.022 1.016 2.662 0 3.679 -1.019 1.014 -2.666 1.014 -3.683 0 -1.016 -1.022 -1.016 -2.662 0 -3.679 0.508 -0.507 1.173 -0.76 1.84 -0.76 z m -10.429 0.614 c 0.666 0 1.332 0.254 1.842 0.762 1.016 1.014 1.016 2.659 0 3.679 -1.024 1.016 -2.67 1.016 -3.681 0 -1.019 -1.016 -1.019 -2.662 0 -3.679 0.508 -0.508 1.173 -0.762 1.84 -0.762 z m 4.908 4.899 c 0.665 0 1.33 0.254 1.836 0.762 1.019 1.016 1.019 2.662 0 3.679 -1.016 1.022 -2.663 1.022 -3.676 0 -1.019 -1.014 -1.019 -2.659 0 -3.679 0.508 -0.508 1.174 -0.762 1.84 -0.762 z" style="fill:#fff;fill-opacity:1;stroke:none;fill-rule:nonzero"/>
</svg>
