<svg width="48" xmlns="http://www.w3.org/2000/svg" viewBox="0 0 48 48" height="48">
<path style="fill:#eeaf02" d="M 8 1 C 6.9714285 1 6 1.9714285 6 3 L 6 14 L 6 45 C 6 45.971429 7.0285714 47 8 47 L 40 47 C 40.971429 47 42 45.971429 42 45 L 42 14 L 42 3 C 42 1.9714285 41.028571 1 40 1 L 29 1 L 19 1 L 8 1 z "/>
<path style="fill:#fff" d="m 15,32 0,-15 18,0 0,15 -10,0 0,-8 5,0 0,3 -2,0 0,2 4,0 0,-9 -12,0 0,12 z"/>
<path style="fill-opacity:.196" d="m 6,35 0,10 c 0,0.971429 1.028571,2 2,2 l 32,0 c 0.971429,0 2,-1.028571 2,-2 l 0,-10 z"/>
<g style="fill:#fff;word-spacing:0;line-height:125%;letter-spacing:0" transform="scale(1.06013 .94328)">
<path d="m 14.847029,43.465209 c -2e-6,0.393858 0.01313,0.765832 0.03939,1.115923 0.03501,0.341343 0.09627,0.638923 0.183799,0.892738 0.09627,0.25382 0.227559,0.455123 0.393856,0.603911 0.166291,0.148791 0.389476,0.223186 0.669553,0.223185 0.271319,10e-7 0.490128,-0.07439 0.656426,-0.223185 0.175042,-0.148788 0.306327,-0.350091 0.393855,-0.603911 0.09627,-0.262568 0.157538,-0.564523 0.183799,-0.905867 0.035,-0.341338 0.05251,-0.708936 0.05251,-1.102794 -5e-6,-0.393851 -0.01751,-0.761449 -0.05251,-1.102795 -0.02626,-0.350088 -0.08753,-0.652043 -0.183799,-0.905867 -0.08753,-0.253811 -0.214436,-0.455115 -0.380727,-0.603911 -0.166298,-0.148783 -0.389482,-0.223178 -0.669554,-0.223185 -0.280077,7e-6 -0.503262,0.0744 -0.669553,0.223185 -0.166297,0.148796 -0.297582,0.354476 -0.393856,0.61704 -0.08753,0.253823 -0.148791,0.551402 -0.183799,0.892738 -0.02626,0.341346 -0.03939,0.708944 -0.03939,1.102795 m -1.641064,0 c 0,-1.400369 0.258194,-2.455025 0.774582,-3.163971 0.516387,-0.717683 1.234078,-1.076529 2.153075,-1.076537 0.954001,8e-6 1.680444,0.358854 2.179333,1.076537 0.498877,0.708946 0.748318,1.763602 0.748324,3.163971 -6e-6,1.400376 -0.253823,2.459408 -0.761453,3.177098 -0.507641,0.70894 -1.225332,1.063409 -2.153075,1.063409 -0.954007,0 -1.684827,-0.354469 -2.192461,-1.063409 -0.498884,-0.71769 -0.748325,-1.776722 -0.748325,-3.177098"/>
<path d="m 25.65179,39.4085 0,1.339108 -2.139947,0 0,6.787438 -1.627935,0 0,-6.787438 -2.139946,0 0,-1.339108 5.907828,0"/>
<path d="m 30.076096,40.629451 c -0.385106,7e-6 -0.708942,0.07003 -0.971509,0.210056 -0.262573,0.140044 -0.481381,0.336972 -0.656425,0.590783 -0.166297,0.245071 -0.28883,0.542651 -0.367599,0.892738 -0.07002,0.341347 -0.10503,0.722073 -0.105028,1.142181 -2e-6,0.971512 0.153164,1.689203 0.459498,2.153075 0.306329,0.455123 0.757074,0.682683 1.352236,0.682682 0.09627,10e-7 0.2013,-0.0044 0.315084,-0.01313 0.113777,-0.0088 0.218805,-0.02188 0.315085,-0.03939 l 0,-2.967043 1.614806,0 0,4.056709 c -0.192557,0.07002 -0.494513,0.14879 -0.905867,0.236313 -0.402612,0.08752 -0.892743,0.131285 -1.470393,0.131285 -0.507638,0 -0.967136,-0.08752 -1.378493,-0.26257 -0.402609,-0.183799 -0.748326,-0.450745 -1.037152,-0.800839 -0.288828,-0.358844 -0.512012,-0.800837 -0.669554,-1.325979 -0.157542,-0.53389 -0.236313,-1.150929 -0.236313,-1.851119 0,-0.69143 0.0919,-1.299717 0.275699,-1.824863 0.183798,-0.533886 0.433239,-0.980255 0.748325,-1.339108 0.315082,-0.358838 0.687056,-0.625784 1.115923,-0.800838 0.428861,-0.183791 0.888359,-0.275691 1.378493,-0.275699 0.31508,8e-6 0.595154,0.02626 0.840224,0.07877 0.253813,0.04377 0.472621,0.09628 0.656426,0.157542 0.183793,0.06127 0.332583,0.126917 0.446369,0.196928 0.122527,0.07003 0.214426,0.12254 0.275698,0.157542 l -0.420112,1.286593 c -0.192557,-0.122526 -0.42887,-0.23193 -0.708939,-0.328212 -0.28008,-0.09627 -0.568906,-0.144407 -0.866482,-0.144414"/>
</g>
</svg>
