<svg xmlns="http://www.w3.org/2000/svg" viewBox="0 0 48 48">
 <path d="m 8 1 c -1.029 0 -2 0.971 -2 2 l 0 42 c 0 0.971 1.029 2 2 2 l 32 0 c 0.971 0 2 -1.029 2 -2 l 0 -31 -13 -13 z" style="fill:#39a34f"/>
 <path d="m 29 12 0.063 0.063 0.156 -0.063 -0.219 0 z m 2 2 11 11 0 -11 -11 0 z" style="fill-opacity:0.196"/>
 <path d="m 29 1 13 13 -11 0 c -0.971 0 -2 -1.029 -2 -2 l 0 -11 z" style="fill:#fff;fill-opacity:0.392"/>
 <path d="m 6 35 0 10 c 0 0.971 1.029 2 2 2 l 32 0 c 0.971 0 2 -1.029 2 -2 l 0 -10 z" style="fill-opacity:0.196"/>
 <g style="fill:#fff">
  <g>
   <path d="m 17.04 16 c -0.563 0.054 -1.045 0.648 -1.035 1.281 0 4.49 0 8.979 0 13.469 0.006 0.663 0.538 1.26 1.129 1.25 l 13.772 0 c 0.583 -0.01 1.092 -0.597 1.098 -1.25 l 0 -13.469 c 0.008 -0.663 -0.506 -1.274 -1.098 -1.281 c -4.622 0 -9.244 0 -13.866 0 z m 0.973 2 11.984 0 0 8.594 -3.357 -4.125 -2.384 2.219 -3.137 -3.938 -3.106 3.188 z" style="color:#000"/>
  </g>
  <g transform="scale(1.07023 .93438)">
   <path d="m 15.334 39.691 c 1.043 0 1.851 0.216 2.425 0.649 0.574 0.424 0.861 1.122 0.861 2.094 0 0.981 -0.292 1.692 -0.875 2.134 -0.574 0.433 -1.392 0.649 -2.452 0.649 l -0.583 0 0 2.77 -1.63 0 0 -8.098 c 0.159 -0.035 0.336 -0.066 0.53 -0.093 0.203 -0.026 0.406 -0.044 0.61 -0.053 0.203 -0.018 0.402 -0.031 0.596 -0.04 0.194 -0.009 0.367 -0.013 0.517 -0.013 m 0.186 1.418 c -0.097 0 -0.234 0.004 -0.411 0.013 -0.168 0 -0.3 0.009 -0.398 0.027 l 0 2.651 0.663 0 c 0.521 0 0.914 -0.102 1.18 -0.305 0.265 -0.212 0.398 -0.57 0.398 -1.074 0 -0.477 -0.133 -0.813 -0.398 -1.01 -0.256 -0.203 -0.601 -0.305 -1.034 -0.305"/>
   <path d="m 23.697 47.988 c -0.371 -0.91 -0.778 -1.816 -1.219 -2.717 -0.433 -0.91 -0.901 -1.82 -1.405 -2.73 l 0 5.447 -1.471 0 0 -8.204 1.312 0 c 0.247 0.389 0.495 0.813 0.742 1.272 0.247 0.451 0.486 0.901 0.716 1.352 0.239 0.451 0.455 0.888 0.649 1.312 0.203 0.424 0.376 0.795 0.517 1.113 l 0 -5.05 1.471 0 0 8.204 -1.312 0"/>
   <path d="m 29.754 41.02 c -0.389 0 -0.716 0.071 -0.981 0.212 -0.265 0.141 -0.486 0.34 -0.663 0.596 -0.168 0.247 -0.292 0.548 -0.371 0.901 -0.071 0.345 -0.106 0.729 -0.106 1.153 0 0.981 0.155 1.705 0.464 2.174 0.309 0.459 0.764 0.689 1.365 0.689 0.097 0 0.203 -0.004 0.318 -0.013 0.115 -0.009 0.221 -0.022 0.318 -0.04 l 0 -2.995 1.63 0 0 4.095 c -0.194 0.071 -0.499 0.15 -0.914 0.239 -0.406 0.088 -0.901 0.133 -1.484 0.133 -0.512 0 -0.976 -0.088 -1.392 -0.265 -0.406 -0.186 -0.755 -0.455 -1.047 -0.808 -0.292 -0.362 -0.517 -0.808 -0.676 -1.339 -0.159 -0.539 -0.239 -1.162 -0.239 -1.869 0 -0.698 0.093 -1.312 0.278 -1.842 0.186 -0.539 0.437 -0.99 0.755 -1.352 0.318 -0.362 0.694 -0.632 1.127 -0.808 0.433 -0.186 0.897 -0.278 1.392 -0.278 0.318 0 0.601 0.027 0.848 0.08 0.256 0.044 0.477 0.097 0.663 0.159 0.186 0.062 0.336 0.128 0.451 0.199 0.124 0.071 0.216 0.124 0.278 0.159 l -0.424 1.299 c -0.194 -0.124 -0.433 -0.234 -0.716 -0.331 -0.283 -0.097 -0.574 -0.146 -0.875 -0.146"/>
  </g>
 </g>
</svg>
