<svg width="48" xmlns="http://www.w3.org/2000/svg" viewBox="0 0 48 48" height="48">
<path style="fill:#6c7daa" d="M 8,1 C 6.9714285,1 6,1.9714285 6,3 l 0,42 c 0,0.971429 1.0285714,2 2,2 l 32,0 c 0.971429,0 2,-1.028571 2,-2 L 42,14 29,1 z"/>
<path style="fill-opacity:.196" d="M 29,12 29.0625,12.0625 29.21875,12 29,12 z m 2,2 11,11 0,-11 -11,0 z"/>
<path style="fill:#fff;fill-opacity:.392" d="m 29,1 13,13 -11,0 c -0.971429,0 -2,-1.028571 -2,-2 L 29,1 z"/>
<path style="fill:#fff;line-height:normal;color:#000" d="m 27.33333,18 2.222225,0 c 3.333331,0 3.333331,3.428547 3.333331,3.428547 l 0,3.392935 c 0,1.142871 -2.222219,3.464228 -2.222219,3.464228 l 0,1.142871 L 34,31.714258 34,34 l -6.111114,0 -6.111111,0 0,-2.285742 4.44445,-2.285677 0,-1.142871 c 0,0 -2.229551,-2.321357 -2.222225,-3.464228 l 0,-3.392935 C 24,21.428547 23.999987,18 27.33333,18 z m -7.777774,2.285742 2.222219,0 0,4.53574 C 21.777775,25.964353 24,28.28571 24,28.28571 l -4.444444,2.285741 0,2.285678 L 14,32.821775 l 0,-1.142871 4.444444,-2.250063 0,-1.142807 c 0,0 -2.229544,-2.321485 -2.222219,-3.464227 l 0,-1.107193 c 0,-3.428613 3.333319,-3.428613 3.333331,-3.428613 z"/>
</svg>
