<svg width="48" xmlns="http://www.w3.org/2000/svg" viewBox="0 0 48 48" height="48">
<path style="fill:#cc2a2a" d="M 8,1 C 6.9714285,1 6,1.9714285 6,3 l 0,42 c 0,0.971429 1.0285714,2 2,2 l 32,0 c 0.971429,0 2,-1.028571 2,-2 L 42,14 29,1 z"/>
<path style="fill-opacity:.196" d="M 29,12 29.0625,12.0625 29.21875,12 29,12 z m 2,2 11,11 0,-11 -11,0 z"/>
<path style="fill:#fff;fill-opacity:.392" d="m 29,1 13,13 -11,0 c -0.971429,0 -2,-1.028571 -2,-2 L 29,1 z"/>
<path style="fill:#fff;fill-rule:evenodd" d="m 16.000535,30.415307 0.44692,3.411942 c 0,0 5.871345,1.84961 8.820656,-6.555466 l 5.131914,0 0,-3.757232 -3.199946,0 c 0,0 1.492696,-3.917741 4.799921,-4.250631 0,-0.08321 -0.357539,-3.245571 -0.357539,-3.245571 0,0 -5.452469,-0.748968 -8.759856,7.323294 C 20.022332,31.24761 16,30.415232 16,30.415232 z"/>
</svg>
