<svg width="48" xmlns="http://www.w3.org/2000/svg" viewBox="0 0 48 48" height="48">
<path style="fill:#dcdcdc" d="M 8,1 C 6.9714285,1 6,1.9714285 6,3 l 0,42 c 0,0.971429 1.0285714,2 2,2 l 32,0 c 0.971429,0 2,-1.028571 2,-2 L 42,14 29,1 z"/>
<path style="fill-opacity:.196" d="M 29,12 29.0625,12.0625 29.21875,12 29,12 z m 2,2 11,11 0,-11 -11,0 z"/>
<path style="fill:#fff;fill-opacity:.392" d="m 29,1 13,13 -11,0 c -0.971429,0 -2,-1.028571 -2,-2 L 29,1 z"/>
<g style="fill:#888" transform="matrix(.03651 0 0 .03557 21.0921 -23.03741)">
<path d="m 56.158741,1617.7293 0,-135.3604 -128.289364,0 22.332934,-38.6818 41.0541297,0 -59.4999537,-103.0569 -130.156187,0 28.36488,16.3764 -37.90806,65.6587 101.79851,176.3202 9.684027,16.7732 2.4043,4.1644 z"/>
<path d="m 290.22673,1300.6731 -117.22554,67.6802 64.14468,111.1018 -44.66589,0 -20.52706,-35.5539 -59.49992,103.0569 65.07809,112.7186 -6e-5,-32.7529 75.81613,0 101.79852,-176.3202 9.68401,-16.7732 2.40432,-4.1644 z"/>
<path d="m -101.71339,1228.6175 117.225538,67.6802 64.14467,-111.1018 22.332952,38.6818 -20.527092,35.5539 118.999892,0 65.07813,-112.7186 -28.36481,16.3766 -37.90807,-65.6587 -203.597073,0 -19.368019,0 -4.80864,0 z"/>
</g>
</svg>
