<svg width="48" xmlns="http://www.w3.org/2000/svg" viewBox="0 0 48 48" height="48">
<path style="fill:#e76f00" d="M 8,1 C 6.9714285,1 6,1.9714285 6,3 l 0,42 c 0,0.971429 1.0285714,2 2,2 l 32,0 c 0.971429,0 2,-1.028571 2,-2 L 42,14 29,1 z"/>
<path style="fill-opacity:.196" d="M 29,12 29.0625,12.0625 29.21875,12 29,12 z m 2,2 11,11 0,-11 -11,0 z"/>
<path style="fill:#fff;fill-opacity:.392" d="m 29,1 13,13 -11,0 c -0.971429,0 -2,-1.028571 -2,-2 L 29,1 z"/>
<g style="fill:#fff;fill-rule:evenodd" transform="matrix(.09491 0 0 .09 -30.31759 4.21465)">
<path d="m 546.0508,274.50818 c 0,0 -7.64293,4.44458 5.43921,5.94857 15.84864,1.80802 23.9487,1.54873 41.41401,-1.75681 0,0 4.5918,2.87914 11.00457,5.37285 -39.15262,16.77999 -88.61009,-0.97193 -57.85779,-9.56461"/>
<path d="m 541.26655,252.61139 c 0,0 -8.57228,6.34532 4.51956,7.69945 16.93002,1.74657 30.30002,1.88942 53.43527,-2.56541 0,0 3.19991,3.24409 8.23159,5.01815 -47.33785,13.84209 -100.0637,1.09161 -66.18642,-10.15219"/>
<path d="m 581.59919,215.46717 c 9.64719,11.10687 -2.5347,21.10166 -2.5347,21.10166 0,0 24.49585,-12.64536 13.24602,-28.48038 -10.50701,-14.76712 -18.56448,-22.10432 25.05541,-47.40207 0,0 -68.46884,17.1002 -35.76673,54.78079"/>
<path d="m 633.38168,290.70436 c 0,0 5.65591,4.66021 -6.22895,8.26547 -22.59942,6.84612 -94.06117,8.91343 -113.91294,0.27277 -7.1362,-3.10447 6.2462,-7.41267 10.45579,-8.31668 4.39018,-0.95199 6.89901,-0.77464 6.89901,-0.77464 -7.93618,-5.59063 -51.29623,10.9775 -22.02476,15.72235 79.82758,12.94563 145.51804,-5.82944 124.81185,-15.16927"/>
<path d="m 549.72617,229.92379 c 0,0 -36.34999,8.63365 -12.87244,11.76885 9.91295,1.32718 29.67416,1.02692 48.08123,-0.51535 15.04327,-1.26895 30.14854,-3.96697 30.14854,-3.96697 0,0 -5.30444,2.27162 -9.14208,4.89201 -36.91279,9.70801 -108.22144,5.19173 -87.6926,-4.73838 17.36128,-8.39215 31.47735,-7.44016 31.47735,-7.44016"/>
<path d="m 614.93364,266.37208 c 37.52354,-19.49849 20.17413,-38.23637 8.06447,-35.71193 -2.96811,0.61777 -4.29153,1.15306 -4.29153,1.15306 0,0 1.10186,-1.72608 3.20639,-2.47323 23.95679,-8.42234 42.38111,24.84062 -7.73349,38.01481 0,5.4e-4 0.58057,-0.51858 0.75416,-0.98271"/>
<path d="m 592.31051,119.83717 c 0,0 20.78113,20.78793 -19.71,52.7539 -32.46978,25.64221 -7.40412,40.26271 -0.0135,56.96723 -18.95314,-17.10019 -32.86222,-32.15356 -23.53092,-46.16384 13.69614,-20.56584 51.63909,-30.53691 43.2544,-63.55729"/>
<path d="m 553.41341,319.20846 c 36.01793,2.30558 91.32754,-1.2792 92.63748,-18.32172 0,0 -2.518,6.46069 -29.76688,11.5915 -30.74206,5.78524 -68.65805,5.10979 -91.14642,1.40211 5.4e-4,-5.4e-4 4.60366,3.8101 28.27582,5.32811"/>
</g>
<path style="fill-opacity:.196" d="m 6,35 0,10 c 0,0.971429 1.028571,2 2,2 l 32,0 c 0.971429,0 2,-1.028571 2,-2 l 0,-10 z"/>
<g style="fill:#fff;word-spacing:0;line-height:125%;letter-spacing:0" transform="matrix(.98726 0 0 .89425 -6.45966 8.46079)">
<path d="m 26.267593,37.779967 c -6e-6,0.420003 -0.05601,0.816669 -0.168,1.19 -0.102672,0.373335 -0.280005,0.700001 -0.532,0.98 -0.242671,0.280001 -0.560004,0.504 -0.952,0.672 -0.392004,0.158667 -0.868003,0.238 -1.428,0.238 -0.588002,0 -1.078002,-0.07467 -1.47,-0.224 -0.392001,-0.149333 -0.723334,-0.331333 -0.994,-0.546 l 0.658,-1.372 c 0.233332,0.149335 0.489999,0.294002 0.77,0.434 0.289331,0.140001 0.583331,0.210001 0.882,0.21 0.447997,10e-7 0.80733,-0.116665 1.078,-0.35 0.279996,-0.242665 0.419996,-0.685998 0.42,-1.33 l 0,-4.242 -2.898,0 0,-1.428 4.634,0 0,5.768"/>
<path d="m 32.161593,40.677967 -0.406,-2.002 -2.31,0 -0.392,2.002 -1.792,0 c 0.410667,-1.707998 0.825999,-3.261997 1.246,-4.662 0.419999,-1.409327 0.825998,-2.743993 1.218,-4.004 l 1.876,0 c 0.410662,1.269341 0.816662,2.618006 1.218,4.046 0.410661,1.41867 0.807327,2.958668 1.19,4.62 l -1.848,0 m -1.54,-6.986 c -0.09334,0.326673 -0.182003,0.63934 -0.266,0.938 -0.07467,0.289339 -0.149336,0.578672 -0.224,0.868 -0.06534,0.280005 -0.130669,0.564671 -0.196,0.854 -0.056,0.289337 -0.112002,0.588004 -0.168,0.896 l 1.694,0 c -0.056,-0.307996 -0.112004,-0.606663 -0.168,-0.896 -0.056,-0.289329 -0.121337,-0.573995 -0.196,-0.854 -0.06534,-0.289328 -0.140003,-0.578661 -0.224,-0.868 -0.07467,-0.29866 -0.15867,-0.611327 -0.252,-0.938"/>
<path d="m 37.131593,31.913967 c 0.494664,9e-6 0.942663,0.05601 1.344,0.168 0.401329,0.112009 0.746662,0.284675 1.036,0.518 0.289328,0.233341 0.508661,0.532008 0.658,0.896 0.158661,0.354674 0.237994,0.774673 0.238,1.26 -6e-6,0.504005 -0.102672,0.961338 -0.308,1.372 -0.205339,0.410671 -0.546005,0.723337 -1.022,0.938 0.158662,0.24267 0.326662,0.513337 0.504,0.812 0.177328,0.289336 0.349995,0.597336 0.518,0.924 0.167994,0.317335 0.326661,0.639335 0.476,0.966 0.15866,0.317334 0.293994,0.620667 0.406,0.91 l -1.806,0 c -0.214671,-0.559999 -0.466671,-1.096665 -0.756,-1.61 -0.280004,-0.522664 -0.583337,-1.049997 -0.91,-1.582 l -0.896,0 0,3.192 -1.722,0 0,-8.54 c 0.167999,-0.03733 0.349999,-0.06999 0.546,-0.098 0.205332,-0.03732 0.410665,-0.06066 0.616,-0.07 0.205332,-0.01866 0.401331,-0.03266 0.588,-0.042 0.186664,-0.0093 0.349998,-0.01399 0.49,-0.014 m 1.526,2.828 c -4e-6,-0.457327 -0.140004,-0.793327 -0.42,-1.008 -0.280003,-0.214659 -0.64867,-0.321993 -1.106,-0.322 -0.06534,7e-6 -0.144669,0.0047 -0.238,0.014 -0.09334,7e-6 -0.186669,0.0093 -0.28,0.028 l 0,2.604 0.378,0 c 0.587997,5e-6 1.012663,-0.111995 1.274,-0.336 0.261329,-0.233328 0.391996,-0.559994 0.392,-0.98"/>
</g>
</svg>
