<svg xmlns="http://www.w3.org/2000/svg" viewBox="0 0 48 48">
 <path d="m 8 1 c -1.029 0 -2 0.971 -2 2 l 0 42 c 0 0.971 1.029 2 2 2 l 32 0 c 0.971 0 2 -1.029 2 -2 l 0 -31 -13 -13 z" style="fill:#302490"/>
 <path d="m 29 12 0.063 0.063 0.156 -0.063 -0.219 0 z m 2 2 11 11 0 -11 -11 0 z" style="fill-opacity:0.196"/>
 <path d="m 29 1 13 13 -11 0 c -0.971 0 -2 -1.029 -2 -2 l 0 -11 z" style="fill:#fff;fill-opacity:0.392"/>
 <path d="M 24 16 A 10 10 0 0 0 14 26 A 10 10 0 0 0 24 36 A 10 10 0 0 0 34 26 A 10 10 0 0 0 24 16 z M 24 18 A 8 8 0 0 1 32 26 A 8 8 0 0 1 24 34 A 8 8 0 0 1 16 26 A 8 8 0 0 1 24 18 z M 21 21 L 21 31 L 29 26 L 21 21 z" style="fill:#fff"/>
</svg>
