<svg width="48" xmlns="http://www.w3.org/2000/svg" viewBox="0 0 48 48" height="48">
<path style="fill:#c19553" d="M 8,1 C 6.9714285,1 6,1.9714285 6,3 l 0,42 c 0,0.971429 1.0285714,2 2,2 l 32,0 c 0.971429,0 2,-1.028571 2,-2 L 42,14 29,1 z"/>
<path style="fill-opacity:.196" d="M 29,12 29.0625,12.0625 29.21875,12 29,12 z m 2,2 11,11 0,-11 -11,0 z"/>
<path style="fill:#fff;fill-opacity:.392" d="m 29,1 13,13 -11,0 c -0.971429,0 -2,-1.028571 -2,-2 L 29,1 z"/>
<path style="fill-opacity:.196" d="m 6,35 0,10 c 0,0.971429 1.0285714,2 2,2 l 32,0 c 0.971429,0 2,-1.028571 2,-2 l 0,-10 z"/>
<g style="fill:#fff">
<g>
<path d="m 18,1 0,4 4,0 0,-4 -4,0 z m 0,4 -4,0 0,4 4,0 0,-4 z m 0,4 0,4 4,0 0,-4 -4,0 z m 0,4 -4,0 0,4 4,0 0,-4 z m 0,4 0,4 4,0 0,-4 -4,0 z m -4,6 0,8 8,0 0,-8 -4,0 -4,0 z"/>
</g>
<g style="word-spacing:0;line-height:125%;letter-spacing:0" transform="scale(1.05731 .94579)">
<path d="m 17.874081,47.407085 -0.383876,-1.892907 -2.184125,0 -0.370639,1.892907 -1.694351,0 c 0.388288,-1.614926 0.780989,-3.084245 1.178103,-4.40796 0.397112,-1.332531 0.780988,-2.594468 1.15163,-3.785815 l 1.773773,0 c 0.388285,1.200172 0.772161,2.475346 1.15163,3.825527 0.388283,1.341364 0.763334,2.797445 1.125155,4.368248 l -1.7473,0 m -1.456083,-6.605321 c -0.08825,0.308872 -0.172085,0.604501 -0.251505,0.886887 -0.0706,0.273572 -0.141199,0.547139 -0.211794,0.820701 -0.06178,0.264747 -0.123549,0.533901 -0.18532,0.807464 -0.05295,0.273571 -0.105899,0.555963 -0.158845,0.847176 l 1.601691,0 c -0.05295,-0.291213 -0.105901,-0.573605 -0.158845,-0.847176 -0.05295,-0.273563 -0.114726,-0.542717 -0.18532,-0.807464 -0.06178,-0.273562 -0.132375,-0.547129 -0.211794,-0.820701 -0.0706,-0.282386 -0.150024,-0.578015 -0.238268,-0.886887"/>
<path d="m 22.573258,39.12065 c 0.467708,8e-6 0.891295,0.05296 1.270763,0.158845 0.37946,0.105905 0.705975,0.269163 0.979547,0.489773 0.273562,0.220627 0.480943,0.503018 0.622145,0.847176 0.150014,0.335347 0.225025,0.73246 0.225031,1.191341 -6e-6,0.476541 -0.09708,0.908953 -0.291217,1.297237 -0.19415,0.388293 -0.516253,0.683922 -0.96631,0.886887 0.150016,0.229447 0.308861,0.485364 0.476537,0.767753 0.167664,0.273569 0.330922,0.564786 0.489773,0.87365 0.15884,0.300042 0.30886,0.604496 0.450062,0.913361 0.150014,0.300042 0.277973,0.586846 0.383876,0.860412 l -1.707588,0 c -0.202974,-0.529484 -0.441241,-1.036906 -0.714804,-1.522268 -0.264746,-0.494184 -0.55155,-0.992781 -0.860413,-1.495794 l -0.847175,0 0,3.018062 -1.628166,0 0,-8.074641 c 0.158845,-0.03529 0.330927,-0.06618 0.516248,-0.09266 0.194143,-0.03529 0.388287,-0.05735 0.582433,-0.06619 0.194142,-0.01764 0.379462,-0.03088 0.555959,-0.03971 0.176492,-0.0088 0.330925,-0.01323 0.463299,-0.01324 m 1.442846,2.673897 c -4e-6,-0.432406 -0.132376,-0.750096 -0.397114,-0.953072 -0.264746,-0.202962 -0.613323,-0.304447 -1.045732,-0.304454 -0.06178,7e-6 -0.136786,0.0044 -0.225031,0.01324 -0.08825,7e-6 -0.176497,0.0088 -0.264742,0.02647 l 0,2.462104 0.357402,0 c 0.555955,4e-6 0.957481,-0.105893 1.204577,-0.317691 0.247089,-0.220614 0.370636,-0.52948 0.37064,-0.926599"/>
<path d="m 32.156931,44.667002 c -6e-6,0.397116 -0.05295,0.772167 -0.158845,1.125155 -0.09708,0.352991 -0.264748,0.661857 -0.503011,0.926598 -0.229448,0.264743 -0.529489,0.476537 -0.900124,0.635382 -0.370643,0.150021 -0.820704,0.225031 -1.350186,0.225031 -0.555961,0 -1.01926,-0.0706 -1.389897,-0.211794 -0.37064,-0.141196 -0.683919,-0.313278 -0.939835,-0.516248 l 0.622144,-1.297237 c 0.220617,0.141198 0.463298,0.277981 0.728042,0.410351 0.273565,0.132372 0.551544,0.198558 0.833938,0.198556 0.423585,2e-6 0.763337,-0.110308 1.019258,-0.330928 0.264738,-0.229441 0.397109,-0.648616 0.397114,-1.257526 l 0,-4.010846 -2.740084,0 0,-1.350186 4.381486,0 0,5.453692"/>
</g>
</g>
</svg>
