<svg xmlns="http://www.w3.org/2000/svg" viewBox="0 0 48 48">
 <path d="m 8 1 c -1.029 0 -2 0.971 -2 2 l 0 42 c 0 0.971 1.029 2 2 2 l 32 0 c 0.971 0 2 -1.029 2 -2 l 0 -31 -13 -13 z" style="fill:#d24726"/>
 <path d="m 29 12 0.063 0.063 0.156 -0.063 -0.219 0 z m 2 2 11 11 0 -11 -11 0 z" style="fill-opacity:0.196"/>
 <path d="m 29 1 13 13 -11 0 c -0.971 0 -2 -1.029 -2 -2 l 0 -11 z" style="fill:#fff;fill-opacity:0.392"/>
 <path d="m 6 35 0 10 c 0 0.971 1.029 2 2 2 l 32 0 c 0.971 0 2 -1.029 2 -2 l 0 -10 z" style="fill-opacity:0.196"/>
 <path d="m 14.09 38 c 0.968 0 1.719 0.183 2.253 0.548 0.533 0.358 0.8 0.946 0.8 1.766 0 0.827 -0.271 1.427 -0.813 1.8 -0.533 0.365 -1.293 0.548 -2.278 0.548 l -0.542 0 0 2.336 -1.514 0 0 -6.83 c 0.148 -0.03 0.312 -0.056 0.492 -0.078 0.189 -0.022 0.378 -0.037 0.566 -0.045 0.189 -0.015 0.373 -0.026 0.554 -0.034 0.181 -0.008 0.341 -0.011 0.48 -0.011 m 0.172 1.196 c -0.09 0 -0.217 0.004 -0.382 0.011 -0.156 0 -0.279 0.008 -0.369 0.022 l 0 2.236 0.616 0 c 0.484 0 0.849 -0.086 1.096 -0.257 0.246 -0.179 0.369 -0.481 0.369 -0.905 0 -0.402 -0.123 -0.686 -0.369 -0.85 -0.238 -0.171 -0.558 -0.257 -0.96 -0.257" style="fill:#fff"/>
 <path d="m 20.248 38 c 0.968 0 1.719 0.183 2.253 0.548 0.533 0.358 0.8 0.946 0.8 1.766 0 0.827 -0.271 1.427 -0.813 1.8 -0.533 0.365 -1.293 0.548 -2.278 0.548 l -0.542 0 0 2.336 -1.514 0 0 -6.83 c 0.148 -0.03 0.312 -0.056 0.492 -0.078 0.189 -0.022 0.378 -0.037 0.566 -0.045 0.189 -0.015 0.373 -0.026 0.554 -0.034 0.181 -0.008 0.341 -0.011 0.48 -0.011 m 0.172 1.196 c -0.09 0 -0.218 0.004 -0.382 0.011 -0.156 0 -0.279 0.008 -0.369 0.022 l 0 2.236 0.616 0 c 0.484 0 0.849 -0.086 1.096 -0.257 0.246 -0.179 0.369 -0.481 0.369 -0.905 0 -0.402 -0.123 -0.686 -0.369 -0.85 -0.238 -0.171 -0.558 -0.257 -0.96 -0.257" style="fill:#fff"/>
 <path d="m 29.494 38 0 1.153 -2.01 0 0 5.847 -1.527 0 0 -5.847 -2.01 0 0 -1.153 5.54 0" style="fill:#fff"/>
 <path d="m 12 17 7 0 0 5 -7 0 z" style="fill:#fff"/>
 <path d="m 12 25 7 0 0 5 l -7 0 z" style="fill:#fff"/>
 <path d="m 30 17 0 6 6 0 c 0 -3.314 -2.686 -6 -6 -6 z" style="fill:#fff"/>
 <path d="m 29 18 c -4 0 -7 2.91 -7 6.5 0 3.59 2.91 6.5 6.5 6.5 3.59 0 6.5 -3 6.5 -7 l -6 0 z" style="fill:#fff"/>
 <path d="m 34.394 45 c -0.153 -0.379 -0.342 -0.799 -0.567 -1.26 -0.217 -0.461 -0.447 -0.921 -0.688 -1.382 -0.233 0.438 -0.467 0.895 -0.7 1.371 -0.233 0.468 -0.435 0.892 -0.604 1.271 l -1.606 0 c 0.08 -0.201 0.197 -0.442 0.35 -0.725 0.161 -0.282 0.334 -0.587 0.519 -0.914 0.193 -0.327 0.394 -0.661 0.604 -1 0.209 -0.349 0.41 -0.684 0.604 -1 l -1.956 -3.255 l 1.606 0 1.183 2.207 1.244 -2.207 1.497 0 -1.908 3.221 c 0.217 0.32 0.431 0.654 0.64 1 0.209 0.349 0.402 0.691 0.58 1.026 0.185 0.327 0.346 0.635 0.483 0.925 c 0.137 0.282 0.245 0.524 0.326 0.725 l -1.606 0" style="fill:#fff"/>
</svg>
