<svg xmlns="http://www.w3.org/2000/svg" viewBox="0 0 48 48">
 <path d="m 8 1 c -1.029 0 -2 0.971 -2 2 l 0 42 c 0 0.971 1.029 2 2 2 l 32 0 c 0.971 0 2 -1.029 2 -2 l 0 -31 -13 -13 z" style="fill:#39a34f"/>
 <path d="m 29 12 0.063 0.063 0.156 -0.063 -0.219 0 z m 2 2 11 11 0 -11 -11 0 z" style="fill-opacity:0.196"/>
 <path d="m 29 1 13 13 -11 0 c -0.971 0 -2 -1.029 -2 -2 l 0 -11 z" style="fill:#fff;fill-opacity:0.392"/>
 <path d="m 6 35 0 10 c 0 0.971 1.029 2 2 2 l 32 0 c 0.971 0 2 -1.029 2 -2 l 0 -10 z" style="fill-opacity:0.196"/>
 <g style="fill:#fff">
  <g>
   <path d="m 17.04 16 c -0.563 0.054 -1.045 0.648 -1.035 1.281 0 4.49 0 8.979 0 13.469 0.006 0.663 0.538 1.26 1.129 1.25 l 13.772 0 c 0.583 -0.01 1.092 -0.597 1.098 -1.25 l 0 -13.469 c 0.008 -0.663 -0.506 -1.274 -1.098 -1.281 c -4.622 0 -9.244 0 -13.866 0 z m 0.973 2 11.984 0 0 8.594 -3.357 -4.125 -2.384 2.219 -3.137 -3.938 -3.106 3.188 z" style="color:#000"/>
  </g>
  <g transform="scale(1.06683 .93736)">
   <path d="m 15.369 39.565 c 1.039 0 1.845 0.216 2.418 0.647 0.572 0.423 0.859 1.119 0.859 2.087 0 0.978 -0.291 1.687 -0.872 2.127 -0.573 0.432 -1.387 0.647 -2.444 0.647 l -0.581 0 0 2.761 -1.625 0 0 -8.07 c 0.159 -0.035 0.335 -0.066 0.528 -0.092 0.203 -0.026 0.405 -0.044 0.608 -0.053 0.203 -0.018 0.401 -0.031 0.595 -0.04 0.194 -0.009 0.366 -0.013 0.515 -0.013 m 0.185 1.414 c -0.097 0 -0.233 0.004 -0.41 0.013 -0.167 0 -0.299 0.009 -0.396 0.026 l 0 2.642 0.661 0 c 0.52 0 0.912 -0.101 1.176 -0.304 0.264 -0.211 0.396 -0.568 0.396 -1.07 0 -0.476 -0.132 -0.81 -0.396 -1 -0.255 -0.203 -0.599 -0.304 -1.03 -0.304"/>
   <path d="m 22.08 46.647 c 0.273 0 0.498 -0.026 0.674 -0.079 0.185 -0.062 0.33 -0.141 0.436 -0.238 0.106 -0.106 0.176 -0.22 0.211 -0.343 0.044 -0.132 0.066 -0.264 0.066 -0.396 0 -0.167 -0.048 -0.317 -0.145 -0.449 -0.097 -0.132 -0.22 -0.247 -0.37 -0.343 -0.15 -0.106 -0.317 -0.198 -0.502 -0.277 -0.185 -0.088 -0.37 -0.167 -0.555 -0.238 -0.247 -0.088 -0.502 -0.189 -0.766 -0.304 -0.264 -0.114 -0.506 -0.26 -0.727 -0.436 -0.211 -0.176 -0.388 -0.392 -0.528 -0.647 -0.141 -0.264 -0.211 -0.59 -0.211 -0.978 0 -0.766 0.247 -1.365 0.74 -1.797 0.502 -0.432 1.189 -0.647 2.061 -0.647 0.502 0 0.938 0.057 1.308 0.172 0.379 0.115 0.696 0.242 0.951 0.383 l -0.476 1.255 c -0.22 -0.123 -0.467 -0.229 -0.74 -0.317 -0.264 -0.088 -0.573 -0.132 -0.925 -0.132 -0.863 0 -1.295 0.313 -1.295 0.938 0 0.159 0.044 0.299 0.132 0.423 0.088 0.115 0.198 0.22 0.33 0.317 0.141 0.088 0.295 0.167 0.462 0.238 0.176 0.07 0.348 0.137 0.515 0.198 0.255 0.097 0.52 0.207 0.793 0.33 0.282 0.115 0.537 0.273 0.766 0.476 0.238 0.194 0.432 0.44 0.581 0.74 0.15 0.291 0.225 0.661 0.225 1.11 0 0.766 -0.251 1.361 -0.753 1.784 -0.493 0.414 -1.246 0.621 -2.259 0.621 -0.678 0 -1.22 -0.07 -1.625 -0.211 -0.405 -0.15 -0.709 -0.286 -0.912 -0.41 l 0.476 -1.321 c 0.238 0.141 0.52 0.273 0.846 0.396 0.335 0.123 0.74 0.185 1.215 0.185"/>
   <path d="m 27.96 46.514 c 0.044 0.009 0.092 0.013 0.145 0.013 0.053 0 0.101 0 0.145 0 0.37 0 0.678 -0.07 0.925 -0.211 0.255 -0.141 0.458 -0.335 0.608 -0.581 0.159 -0.247 0.269 -0.537 0.33 -0.872 0.07 -0.343 0.106 -0.718 0.106 -1.123 0 -0.352 -0.026 -0.696 -0.079 -1.03 -0.053 -0.335 -0.145 -0.63 -0.277 -0.885 -0.132 -0.255 -0.313 -0.458 -0.542 -0.608 -0.229 -0.159 -0.524 -0.238 -0.885 -0.238 -0.07 0 -0.15 0.004 -0.238 0.013 -0.088 0 -0.167 0.009 -0.238 0.026 l 0 5.496 m 3.911 -2.774 c 0 0.757 -0.097 1.405 -0.291 1.942 -0.185 0.528 -0.445 0.96 -0.779 1.295 -0.335 0.335 -0.735 0.581 -1.202 0.74 -0.458 0.15 -0.964 0.225 -1.519 0.225 -0.291 0 -0.577 -0.018 -0.859 -0.053 -0.273 -0.026 -0.568 -0.075 -0.885 -0.145 l 0 -7.98 c 0.37 -0.079 0.718 -0.132 1.044 -0.159 0.326 -0.026 0.63 -0.04 0.912 -0.04 0.537 0 1.026 0.079 1.466 0.238 0.449 0.159 0.828 0.41 1.136 0.753 0.308 0.335 0.546 0.766 0.713 1.295 0.176 0.52 0.264 1.149 0.264 1.889"/>
  </g>
 </g>
</svg>
