<svg xmlns="http://www.w3.org/2000/svg" viewBox="0 0 48 48">
 <path d="m 8 1 c -1.029 0 -2 0.971 -2 2 l 0 42 c 0 0.971 1.029 2 2 2 l 32 0 c 0.971 0 2 -1.029 2 -2 l 0 -31 -13 -13 z" style="fill:#207245"/>
 <path d="m 29 12 0.063 0.063 0.156 -0.063 -0.219 0 z m 2 2 11 11 0 -11 -11 0 z" style="fill-opacity:0.196"/>
 <path d="m 29 1 13 13 -11 0 c -0.971 0 -2 -1.029 -2 -2 l 0 -11 z" style="fill:#fff;fill-opacity:0.392"/>
 <path d="m 34 18 c 0 7.04 0 13.897 0 20 -7.02 0 -13.928 0 -20 0 0 -7.04 0 -13.897 0 -20 6.943 0 14.05 0 20 0 z m -2 2 -9 0 0 4 9 0 z m -11 0 -5 0 0 4 5 0 z m 11 6 -9 0 0 4 9 0 z m -11 0 -5 0 0 4 5 0 z m 11 6 -9 0 0 4 9 0 z m -11 0 -5 0 0 4 5 0 z" style="fill:#fff;color:#000"/>
</svg>
