<svg width="48" xmlns="http://www.w3.org/2000/svg" viewBox="0 0 48 48" height="48">
<path style="fill:#dcdcdc" d="M 8,1 C 6.9714285,1 6,1.9714285 6,3 l 0,42 c 0,0.971429 1.0285714,2 2,2 l 32,0 c 0.971429,0 2,-1.028571 2,-2 L 42,14 29,1 z"/>
<path style="fill-opacity:.196" d="M 29,12 29.0625,12.0625 29.21875,12 29,12 z m 2,2 11,11 0,-11 -11,0 z"/>
<path style="fill:#fff;fill-opacity:.392" d="m 29,1 13,13 -11,0 c -0.971429,0 -2,-1.028571 -2,-2 L 29,1 z"/>
<g style="fill:#555;word-spacing:0;line-height:125%;letter-spacing:0" transform="scale(.95409 1.04811)">
<path d="m 20.307974,29.567432 c -4e-6,0.581217 0.165244,1.002884 0.495744,1.265003 0.33619,0.262116 0.826235,0.398873 1.470139,0.410271 l 0,1.196624 c -1.082665,-0.0114 -1.920301,-0.259271 -2.512911,-0.743616 -0.592617,-0.48435 -0.888924,-1.165285 -0.888921,-2.042809 l 0,-2.589836 c -3e-6,-0.592611 -0.179496,-1.014278 -0.538481,-1.265003 -0.358989,-0.256415 -0.880375,-0.384625 -1.564159,-0.384629 l 0,-1.205171 c 0.740766,-0.01139 1.276398,-0.148148 1.606896,-0.410272 0.330493,-0.262111 0.495741,-0.666684 0.495744,-1.213718 l 0,-2.615479 c -3e-6,-0.883212 0.3077,-1.569846 0.92311,-2.059903 0.615403,-0.490034 1.441642,-0.735057 2.478722,-0.735069 l 0,1.188077 c -1.310594,0.0342 -1.965887,0.601172 -1.965883,1.700916 l 0,2.521458 c -4e-6,1.225121 -0.635354,1.948793 -1.906051,2.171018 l 0,0.102568 c 1.270697,0.222234 1.906047,0.945906 1.906051,2.171018 l 0,2.538552"/>
<path d="m 31.889586,24.755294 c -1.270704,-0.222225 -1.906054,-0.945897 -1.906052,-2.171018 l 0,-2.521458 c -2e-6,-1.099744 -0.646749,-1.666716 -1.94024,-1.700916 l 0,-1.188077 c 1.048469,1.2e-5 1.871859,0.247884 2.470174,0.743616 0.604006,0.495756 0.906011,1.179541 0.906015,2.051356 l 0,2.615479 c -4e-6,0.552733 0.168093,0.960154 0.504292,1.222266 0.336189,0.256425 0.87467,0.390333 1.615442,0.401724 l 0,1.205171 c -0.695187,4e-6 -1.222271,0.128214 -1.581253,0.384629 -0.358991,0.250725 -0.538485,0.672392 -0.538481,1.265003 l 0,2.589836 c -4e-6,0.871826 -0.293461,1.549912 -0.880373,2.034262 -0.58122,0.490043 -1.413158,0.740764 -2.495816,0.752163 l 0,-1.196624 c 0.6325,-0.0114 1.113998,-0.148155 1.444496,-0.410271 0.330494,-0.262119 0.495742,-0.683786 0.495744,-1.265003 l 0,-2.538552 c -2e-6,-0.649593 0.156698,-1.145337 0.470103,-1.487233 0.313398,-0.341888 0.792047,-0.569817 1.435949,-0.683785 l 0,-0.102568"/>
</g>
</svg>
