<svg xmlns="http://www.w3.org/2000/svg" viewBox="0 0 48 48">
 <path d="m 8 1 c -1.029 0 -2 0.971 -2 2 l 0 11 l 0 31 c 0 0.971 1.029 2 2 2 l 32 0 c 0.971 0 2 -1.029 2 -2 l 0 -31 l 0 -11 c 0 -1.029 -0.971 -2 -2 -2 l -11 0 l -10 0 l -11 0 z" style="fill:#d24726"/>
 <path d="m 6 35 0 10 c 0 0.971 1.029 2 2 2 l 32 0 c 0.971 0 2 -1.029 2 -2 l 0 -10 z" style="fill-opacity:0.196"/>
 <path d="m 20.521 38.04 c -0.857 0 -1.526 0.295 -2.01 0.883 -0.482 0.582 -0.722 1.447 -0.722 2.596 0 1.149 0.231 2.02 0.696 2.606 c 0.473 0.582 1.156 0.873 2.045 0.873 c 0.865 0 1.535 -0.292 2.01 -0.873 0.473 -0.589 0.71 -1.457 0.71 -2.606 0 -1.149 -0.233 -2.01 -0.698 -2.596 -0.465 -0.589 -1.142 -0.883 -2.032 -0.883 z m -6.44 0.075 c -0.139 0 -0.298 0.005 -0.477 0.012 -0.18 0.007 -0.363 0.018 -0.55 0.032 -0.188 0.007 -0.376 0.021 -0.564 0.042 -0.18 0.022 -0.342 0.048 -0.489 0.076 l 0 6.581 1.505 0 0 -2.253 0.539 0 c 0.979 0 1.736 -0.175 2.266 -0.527 0.539 -0.359 0.807 -0.937 0.807 -1.734 0 -0.79 -0.265 -1.357 -0.795 -1.702 -0.53 -0.352 -1.278 -0.528 -2.241 -0.528 z m 9.805 0.076 0 1.099 1.996 0 0 5.569 1.517 0 0 -5.569 1.996 0 0 -1.099 -5.509 0 z m 6.494 0.032 1.945 3.146 c -0.192 0.309 -0.392 0.631 -0.6 0.968 -0.208 0.33 -0.408 0.654 -0.6 0.97 -0.184 0.316 -0.356 0.61 -0.516 0.883 -0.152 0.273 -0.268 0.506 -0.348 0.7 l 1.597 0 c 0.168 -0.366 0.368 -0.776 0.6 -1.228 0.232 -0.46 0.464 -0.901 0.696 -1.325 0.24 0.445 0.469 0.892 0.685 1.337 0.224 0.445 0.412 0.85 0.564 1.216 l 1.597 0 c -0.08 -0.194 -0.188 -0.427 -0.324 -0.7 -0.136 -0.28 -0.297 -0.578 -0.481 -0.894 -0.176 -0.323 -0.368 -0.655 -0.576 -0.992 -0.208 -0.337 -0.421 -0.66 -0.637 -0.968 l 1.898 -3.114 -1.488 0 -1.237 2.134 -1.177 -2.134 -1.597 0 z m -9.86 0.97 c 0.261 0 0.468 0.06 0.623 0.182 0.155 0.122 0.273 0.288 0.355 0.496 0.09 0.208 0.147 0.455 0.172 0.742 0.033 0.28 0.049 0.582 0.049 0.905 0 0.323 -0.017 0.625 -0.049 0.905 -0.024 0.28 -0.082 0.527 -0.172 0.742 -0.082 0.208 -0.204 0.374 -0.367 0.496 -0.155 0.122 -0.359 0.183 -0.612 0.183 -0.261 0 -0.47 -0.061 -0.625 -0.183 -0.155 -0.122 -0.277 -0.288 -0.367 -0.496 -0.082 -0.208 -0.139 -0.452 -0.172 -0.732 -0.024 -0.287 -0.037 -0.592 -0.037 -0.916 0 -0.323 0.013 -0.625 0.037 -0.905 0.033 -0.28 0.09 -0.524 0.172 -0.732 0.09 -0.215 0.212 -0.384 0.367 -0.506 0.155 -0.122 0.364 -0.182 0.625 -0.182 z m -6.268 0.075 c 0.4 0 0.718 0.083 0.955 0.248 0.245 0.158 0.367 0.431 0.367 0.819 0 0.409 -0.122 0.699 -0.367 0.871 -0.245 0.165 -0.607 0.248 -1.089 0.248 l -0.613 0 0 -2.154 c 0.09 -0.014 0.214 -0.022 0.369 -0.022 0.163 -0.007 0.289 -0.01 0.379 -0.01 z" style="fill:#fff"/>
 <path d="m 12 16 7 0 0 5 -7 0 z" style="fill:#fff"/>
 <path d="m 12 24 7 0 0 5 l -7 0 z" style="fill:#fff"/>
 <path d="m 30 16 0 6 6 0 c 0 -3.314 -2.686 -6 -6 -6 z" style="fill:#fff"/>
 <path d="m 29 17 c -4 0 -7 2.91 -7 6.5 0 3.59 2.91 6.5 6.5 6.5 3.59 0 6.5 -3 6.5 -7 l -6 0 z" style="fill:#fff"/>
</svg>
