<svg xmlns="http://www.w3.org/2000/svg" viewBox="0 0 48 48">
 <path d="m 8 1 c -1.029 0 -2 0.971 -2 2 l 0 42 c 0 0.971 1.029 2 2 2 l 32 0 c 0.971 0 2 -1.029 2 -2 l 0 -31 -13 -13 z" style="fill:#dcdcdc"/>
 <path d="m 29 12 0.063 0.063 0.156 -0.063 -0.219 0 z m 2 2 11 11 0 -11 -11 0 z" style="fill-opacity:0.196"/>
 <path d="m 29 1 13 13 -11 0 c -0.971 0 -2 -1.029 -2 -2 l 0 -11 z" style="fill:#fff;fill-opacity:0.392"/>
 <path d="m 24 16 c -4.971 0 -9 4.03 -9 9 0 4.971 6 15 9 15 3 0 9 -10.03 9 -15 0 -4.971 -4.03 -9 -9 -9 z m 0 4 c 2.761 0 5 2.239 5 5 0 2.761 -2.239 5 -5 5 -2.761 0 -5 -2.239 -5 -5 0 -2.761 2.239 -5 5 -5 z" style="fill:#888;fill-opacity:1;stroke:none;fill-rule:evenodd"/>
</svg>
