<svg xmlns="http://www.w3.org/2000/svg" viewBox="0 0 48 48">
 <path d="m 8 1 c -1.029 0 -2 0.971 -2 2 l 0 42 c 0 0.971 1.029 2 2 2 l 32 0 c 0.971 0 2 -1.029 2 -2 l 0 -31 -13 -13 z" style="fill:#ce5c00"/>
 <path d="m 29 12 0.063 0.063 0.156 -0.063 -0.219 0 z m 2 2 11 11 0 -11 -11 0 z" style="fill-opacity:0.196"/>
 <path d="m 29 1 13 13 -11 0 c -0.971 0 -2 -1.029 -2 -2 l 0 -11 z" style="fill:#fff;fill-opacity:0.392"/>
 <path d="m 23.524 16 c -0.33 0 -0.666 0.12 -0.944 0.334 -0.279 0.214 -0.461 0.5 -0.484 0.836 -0.023 0.336 0.106 0.674 0.363 0.907 l 0 0.023 c 0.603 0.523 1.231 1.063 1.839 1.6 l -6.822 0 c -0.485 0 -0.896 0.111 -1.21 0.358 -0.314 0.247 -0.514 0.616 -0.581 1.027 -0.131 0.804 0.443 1.719 1.379 1.719 l 2.976 0 -6.218 5.061 c 0.001 0 -0.006 -0.013 -0.024 0 -0.38 0.32 -0.648 0.764 -0.75 1.217 -0.102 0.453 -0.052 0.933 0.218 1.313 0.549 0.773 1.651 0.753 2.419 0.072 l 3.266 -2.936 c 0.005 0.343 0.087 0.877 0.218 1.337 0.268 0.94 0.725 1.815 1.355 2.578 0.645 0.783 1.433 1.417 2.347 1.862 0.962 0.468 1.995 0.694 3.072 0.692 1.077 0 2.112 -0.245 3.072 -0.716 0.913 -0.449 1.726 -1.077 2.371 -1.862 0.628 -0.766 1.063 -1.638 1.331 -2.578 0.136 -0.476 0.231 -0.971 0.266 -1.456 0.034 -0.477 0.013 -0.956 -0.048 -1.432 -0.12 -0.93 -0.398 -1.808 -0.847 -2.602 -0.352 -0.623 -0.82 -1.165 -1.331 -1.647 l 0.024 -0.023 -0.266 -0.215 -6.05 -5.109 c 0 0 -0.022 -0.022 -0.024 -0.023 -0.003 0 -0.021 0 -0.024 0 -0.262 -0.217 -0.57 -0.335 -0.895 -0.334 z m 2.347 5.371 c 3.127 0 5.661 2.501 5.661 5.586 0 3.085 -2.535 5.586 -5.661 5.586 -3.127 0 -5.661 -2.501 -5.661 -5.586 0 -3.085 2.535 -5.586 5.661 -5.586 z" style="fill:#fff;color:#000;fill-rule:evenodd"/>
 <path d="m 27.5 27.01 c 0 0.923 -0.758 1.671 -1.693 1.671 -0.935 0 -1.693 -0.748 -1.693 -1.671 0 -0.923 0.758 -1.671 1.693 -1.671 0.935 0 1.693 0.748 1.693 1.671 z" style="fill:#fff"/>
</svg>
