<svg width="48" xmlns="http://www.w3.org/2000/svg" viewBox="0 0 48 48" height="48" xmlns:xlink="http://www.w3.org/1999/xlink">
<path style="fill:#eee" d="M 8.0571429,6 C 7.0285714,6 6,7.0285714 6,8.0571429 L 6,40 c 0,0.971429 1.0285714,2 2,2 l 32,0 c 0.971429,0 2,-1.028571 2,-2 L 42,8 C 42,7.0285714 40.971429,6 40,6 z"/>
<path style="fill:#888" d="m 23.325321,12.106843 c -2.004383,0.640655 -0.246334,3.623889 -3.114649,5.085151 -3.278073,1.670015 -4.907729,-2.544354 -6.876557,0.464265 -1.968827,3.008618 2.717244,2.542048 2.585204,6.083115 -0.132089,3.541063 -4.769313,2.78897 -3.029185,5.913657 1.74013,3.124687 3.672482,-0.976192 6.818515,0.894859 3.146032,1.871052 0.138413,5.333325 3.847371,5.449394 3.708956,0.116084 0.955239,-3.518244 4.23331,-5.188258 3.27807,-1.670015 4.907725,2.544355 6.876555,-0.464265 1.968828,-3.008618 -2.717242,-2.542049 -2.585206,-6.083115 0.132091,-3.541063 4.769316,-2.78897 3.029187,-5.913656 -1.740132,-3.124687 -3.672482,0.976192 -6.818514,-0.894859 -3.146033,-1.871052 -0.138413,-5.333326 -3.847371,-5.449395 -0.463621,-0.01445 -0.832317,0.01158 -1.11866,0.103107 z m 0.03795,9.015829 c 1.654397,-0.337834 3.28062,0.676749 3.632273,2.266135 0.351655,1.589386 -0.704429,3.151707 -2.358825,3.489542 -1.654397,0.337834 -3.280621,-0.676749 -3.632274,-2.266135 -0.351653,-1.589386 0.70443,-3.151707 2.358826,-3.489542 z"/>
<path style="fill:#aaa;line-height:normal;color:#000" d="M 8.5,6 C 7.8333333,6 7.2348174,6.3276826 6.78125,6.78125 6.3276826,7.2348174 6,7.8333333 6,8.5 L 6,39.5625 C 6,40.211193 6.3063418,40.806342 6.75,41.25 7.1936582,41.693658 7.7888072,42 8.4375,42 l 31.125,0 C 40.211193,42 40.806342,41.693658 41.25,41.25 41.693658,40.806342 42,40.211193 42,39.5625 L 42,8.4375 C 42,7.7888072 41.693658,7.1936582 41.25,6.75 40.806342,6.3063418 40.211193,6 39.5625,6 L 8.5,6 z m 0,1 31.0625,0 c 0.295751,0 0.676297,0.1762971 0.96875,0.46875 C 40.823703,7.7612029 41,8.1417484 41,8.4375 l 0,31.125 c 0,0.295751 -0.176297,0.676297 -0.46875,0.96875 C 40.238797,40.823703 39.858251,41 39.5625,41 L 8.4375,41 C 8.1417484,41 7.7612029,40.823703 7.46875,40.53125 7.1762971,40.238797 7,39.858251 7,39.5625 L 7,8.5 C 7,8.1666667 7.1723174,7.7651826 7.46875,7.46875 7.7651826,7.1723174 8.1666667,7 8.5,7 z"/>
</svg>
