<svg xmlns="http://www.w3.org/2000/svg" viewBox="0 0 48 48">
 <defs>
  
 </defs>
 <path d="m 8 1 c -1.029 0 -2 0.971 -2 2 l 0 42 c 0 0.971 1.029 2 2 2 l 32 0 c 0.971 0 2 -1.029 2 -2 l 0 -31 -13 -13 z" style="fill:#dcdcdc"/>
 <path d="m 29 12 0.063 0.063 0.156 -0.063 -0.219 0 z m 2 2 11 11 0 -11 -11 0 z" style="fill-opacity:0.196"/>
 <path d="m 29 1 13 13 -11 0 c -0.971 0 -2 -1.029 -2 -2 l 0 -11 z" style="fill:#fff;fill-opacity:0.392"/>
 <path d="m 28.643 17 c -2.959 0 -5.357 2.398 -5.357 5.357 0 0.925 0.235 1.797 0.647 2.556 0.002 0.002 -0.002 0.009 0 0.011 l -9.933 9.933 0 2.143 l 2.143 0 0.714 -0.714 0 -1.429 1.429 0 0.714 -0.714 1.429 0 0.714 -0.714 0 -1.429 0.714 -0.714 1.429 0 0 -1.429 2.79 -2.79 c 0.003 0.002 0.008 -0.002 0.011 0 0.759 0.412 1.631 0.647 2.556 0.647 2.959 0 5.357 -2.398 5.357 -5.357 l 0 -0.022 c -0.01 -2.952 -2.405 -5.335 -5.357 -5.335 z m 1.071 2.857 c 0.787 0 1.426 0.641 1.429 1.429 0 0.789 -0.64 1.429 -1.429 1.429 -0.789 0 -1.429 -0.64 -1.429 -1.429 0 -0.789 0.64 -1.429 1.429 -1.429 z" style="fill:#888;fill-opacity:1"/>
</svg>
