<svg xmlns="http://www.w3.org/2000/svg" viewBox="0 0 48 48">
 <path d="m 8 1 c -1.029 0 -2 0.971 -2 2 l 0 42 c 0 0.971 1.029 2 2 2 l 32 0 c 0.971 0 2 -1.029 2 -2 l 0 -31 -13 -13 z" style="fill:#ffc522;fill-opacity:1"/>
 <path d="m 29 12 0.063 0.063 0.156 -0.063 -0.219 0 z m 2 2 11 11 0 -11 -11 0 z" style="fill-opacity:0.196"/>
 <path d="m 29 1 13 13 -11 0 c -0.971 0 -2 -1.029 -2 -2 l 0 -11 z" style="fill:#fff;fill-opacity:0.392"/>
 <path d="m 12 16 7 0 0 5 -7 0 z" style="fill:#fff"/>
 <path d="m 12 24 7 0 0 5 -7 0 z" style="fill:#fff"/>
 <path d="m 12 32 24 0 0 2 l -24 0 z" style="fill:#fff"/>
 <path d="m 30 16 0 6 6 0 c 0 -3.314 -2.686 -6 -6 -6 z" style="fill:#fff"/>
 <path d="m 29 17 c -4 0 -7 2.91 -7 6.5 0 3.59 2.91 6.5 6.5 6.5 3.59 0 6.5 -3 6.5 -7 l -6 0 z" style="fill:#fff"/>
</svg>
