<svg width="48" xmlns="http://www.w3.org/2000/svg" viewBox="0 0 48 48" height="48">
<path style="fill:#dcdcdc" d="M 8,1 C 6.9714285,1 6,1.9714285 6,3 l 0,42 c 0,0.971429 1.0285714,2 2,2 l 32,0 c 0.971429,0 2,-1.028571 2,-2 L 42,14 29,1 z"/>
<path style="fill-opacity:.196" d="M 29,12 29.0625,12.0625 29.21875,12 29,12 z m 2,2 11,11 0,-11 -11,0 z"/>
<path style="fill:#fff;fill-opacity:.392" d="m 29,1 13,13 -11,0 c -0.971429,0 -2,-1.028571 -2,-2 L 29,1 z"/>
<g transform="matrix(-1 0 0 1 48.5 -1)">
<path style="fill:#888" d="m 18.118659,23.057902 c -1.132912,0.347022 -0.139232,1.962936 -1.760453,2.754451 -1.852825,0.904589 -2.773935,-1.378189 -3.88675,0.251477 -1.112816,1.629664 1.535835,1.376939 1.461202,3.295013 -0.07466,1.918071 -2.695699,1.510689 -1.712147,3.203222 0.98355,1.692536 2.07575,-0.528769 3.853942,0.484715 1.778192,1.013484 0.07824,2.888878 2.1746,2.95175 2.096368,0.06288 0.53992,-1.905713 2.392742,-2.810301 1.852822,-0.904591 2.773931,1.378188 3.886748,-0.251477 1.112817,-1.629664 -1.535832,-1.37694 -1.461202,-3.295013 0.07466,-1.918071 2.6957,-1.510687 1.712148,-3.203222 -0.983552,-1.692535 -2.07575,0.528768 -3.853943,-0.484714 -1.778192,-1.013485 -0.07824,-2.888879 -2.174602,-2.95175 -0.262046,-0.0079 -0.470439,0.0063 -0.632285,0.05586 z m 0.02144,4.883563 c 0.935094,-0.182991 1.854264,0.366572 2.053025,1.227488 0.198762,0.860915 -0.398156,1.70717 -1.333249,1.890164 -0.935095,0.182992 -1.854264,-0.366572 -2.053025,-1.227487 -0.19876,-0.860917 0.398157,-1.707172 1.333249,-1.890165 z"/>
<path style="fill:#888" d="m 27.118659,15.057902 c -1.132912,0.347022 -0.139232,1.962936 -1.760453,2.754451 -1.852825,0.904589 -2.773935,-1.378189 -3.88675,0.251477 -1.112816,1.629664 1.535835,1.376939 1.461202,3.295013 -0.07466,1.918071 -2.695699,1.510689 -1.712147,3.203222 0.98355,1.692536 2.07575,-0.528769 3.853942,0.484715 1.778192,1.013484 0.07824,2.888878 2.1746,2.95175 2.096368,0.06288 0.53992,-1.905713 2.392742,-2.810301 1.852822,-0.904591 2.773931,1.378188 3.886748,-0.251477 1.112817,-1.629664 -1.535832,-1.37694 -1.461202,-3.295013 0.07466,-1.918071 2.6957,-1.510687 1.712148,-3.203222 -0.983552,-1.692535 -2.07575,0.528768 -3.853943,-0.484714 -1.778192,-1.013485 -0.07824,-2.888879 -2.174602,-2.95175 -0.262046,-0.0079 -0.470439,0.0063 -0.632285,0.05586 z m 0.02144,4.883563 c 0.935094,-0.182991 1.854264,0.366572 2.053025,1.227488 0.198762,0.860915 -0.398156,1.70717 -1.333249,1.890164 -0.935095,0.182992 -1.854264,-0.366572 -2.053025,-1.227487 -0.19876,-0.860917 0.398157,-1.707172 1.333249,-1.890165 z"/>
<path style="fill:#888" d="m 30.118659,26.057901 c -1.132912,0.347022 -0.139232,1.962936 -1.760453,2.754451 -1.852825,0.904589 -2.773935,-1.378189 -3.88675,0.251477 -1.112816,1.629664 1.535835,1.376939 1.461202,3.295013 -0.07466,1.918071 -2.695699,1.510689 -1.712147,3.203222 0.98355,1.692536 2.07575,-0.528769 3.853942,0.484715 1.778192,1.013484 0.07824,2.888878 2.1746,2.95175 2.096368,0.06288 0.53992,-1.905713 2.392742,-2.810301 1.852822,-0.904591 2.773931,1.378188 3.886748,-0.251477 1.112817,-1.629664 -1.535832,-1.37694 -1.461202,-3.295013 0.07466,-1.918071 2.6957,-1.510687 1.712148,-3.203222 -0.983552,-1.692535 -2.07575,0.528768 -3.853943,-0.484714 -1.778192,-1.013485 -0.07824,-2.888879 -2.174602,-2.95175 -0.262046,-0.0079 -0.470439,0.0063 -0.632285,0.05586 z m 0.02144,4.883563 c 0.935094,-0.182991 1.854264,0.366572 2.053025,1.227488 0.198762,0.860915 -0.398156,1.70717 -1.333249,1.890164 -0.935095,0.182992 -1.854264,-0.366572 -2.053025,-1.227487 -0.19876,-0.860917 0.398157,-1.707172 1.333249,-1.890165 z"/>
</g>
</svg>
