<svg xmlns="http://www.w3.org/2000/svg" viewBox="0 0 48 48">
 <path d="m 8 1 c -1.029 0 -2 0.971 -2 2 l 0 42 c 0 0.971 1.029 2 2 2 l 32 0 c 0.971 0 2 -1.029 2 -2 l 0 -31 -13 -13 z" style="fill:#39a34f"/>
 <path d="m 29 12 0.063 0.063 0.156 -0.063 -0.219 0 z m 2 2 11 11 0 -11 -11 0 z" style="fill-opacity:0.196"/>
 <path d="m 29 1 13 13 -11 0 c -0.971 0 -2 -1.029 -2 -2 l 0 -11 z" style="fill:#fff;fill-opacity:0.392"/>
 <path d="m 6 35 0 10 c 0 0.971 1.029 2 2 2 l 32 0 c 0.971 0 2 -1.029 2 -2 l 0 -10 z" style="fill-opacity:0.196"/>
 <g style="fill:#fff">
  <g>
   <path d="m 17.04 16 c -0.563 0.054 -1.045 0.648 -1.035 1.281 l 0 13.469 c 0.006 0.663 0.538 1.26 1.129 1.25 l 13.772 0 c 0.583 -0.01 1.092 -0.597 1.098 -1.25 l 0 -13.469 c 0.008 -0.663 -0.506 -1.274 -1.098 -1.281 c -4.622 0 -9.244 0 -13.866 0 z m 0.973 2 11.984 0 0 8.594 -3.357 -4.125 -2.384 2.219 -3.137 -3.938 -3.106 3.188 z" style="color:#000"/>
  </g>
  <g transform="scale(1.05725 .94585)">
   <path d="m 15.55 39.04 c 1.068 0 1.896 0.223 2.485 0.668 0.588 0.436 0.882 1.154 0.882 2.153 0 1.01 -0.299 1.774 -0.896 2.228 -0.588 0.445 -1.426 0.668 -2.512 0.668 l -0.597 0 0 2.814 -1.67 0 0 -8.328 c 0.77 -0.161 1.536 -0.181 2.308 -0.204 m 0.19 1.458 c -0.292 -0.003 -0.537 0.025 -0.828 0.041 l 0 2.76 0.679 0 c 0.534 0 0.937 -0.104 1.208 -0.313 0.272 -0.218 0.407 -0.62 0.407 -1.138 0 -0.491 -0.136 -0.836 -0.407 -1.036 -0.262 -0.209 -0.615 -0.313 -1.059 -0.313"/>
  </g>
 </g>
 <path d="m 32.53 45 c -0.455 -1.078 -0.981 -2.09 -1.486 -3.063 -0.57 1.044 -1.056 2.04 -1.543 3.063 l -1.9 0 c 0.703 -1.475 1.612 -2.85 2.458 -4.226 l -2.315 -3.774 1.9 0 1.4 2.559 1.472 -2.559 1.772 0 -2.258 3.735 c 0.947 1.376 1.721 2.773 2.401 4.265 l -1.9 0" style="fill:#fff"/>
 <path d="m 24.518 45.08 c -1.186 0 -2.091 -0.353 -2.715 -1.06 c -0.624 -0.707 -0.937 -1.712 -0.937 -3.02 c 0 -0.648 0.095 -1.224 0.285 -1.728 0.19 -0.505 0.452 -0.929 0.787 -1.274 0.344 -0.353 0.747 -0.618 1.208 -0.795 0.471 -0.185 0.982 -0.278 1.534 -0.278 0.299 0 0.566 0.025 0.801 0.076 0.244 0.042 0.457 0.093 0.638 0.151 0.181 0.059 0.33 0.122 0.448 0.189 0.127 0.067 0.222 0.118 0.285 0.151 l -0.434 1.236 c -0.208 -0.126 -0.462 -0.231 -0.76 -0.315 -0.29 -0.093 -0.624 -0.139 -1 -0.139 -0.262 0 -0.52 0.046 -0.774 0.139 -0.244 0.084 -0.466 0.231 -0.665 0.442 -0.19 0.202 -0.348 0.475 -0.475 0.82 -0.118 0.345 -0.176 0.774 -0.176 1.287 0 0.892 0.163 1.577 0.489 2.056 0.335 0.471 0.878 0.707 1.629 0.707 0.434 0 0.792 -0.046 1.072 -0.139 0.29 -0.093 0.52 -0.185 0.692 -0.278 l 0.421 1.224 c -0.235 0.135 -0.557 0.261 -0.964 0.378 -0.398 0.109 -0.86 0.164 -1.385 0.164" style="fill:#fff"/>
</svg>
