<svg width="48" xmlns="http://www.w3.org/2000/svg" viewBox="0 0 48 48" height="48">
<defs/>
<path style="fill:#9a773c" d="M 8,1 C 6.9714285,1 6,1.9714285 6,3 l 0,42 c 0,0.971429 1.0285714,2 2,2 l 32,0 c 0.971429,0 2,-1.028571 2,-2 L 42,14 29,1 z"/>
<path style="fill-opacity:.196" d="M 29,12 29.0625,12.0625 29.21875,12 29,12 z m 2,2 11,11 0,-11 -11,0 z"/>
<path style="fill:#fff;fill-opacity:.392" d="m 29,1 13,13 -11,0 c -0.971429,0 -2,-1.028571 -2,-2 L 29,1 z"/>
<g style="fill:#fff" transform="matrix(.47869 0 0 .48595 13.85359 14.7107)">
<path style="color:#000" d="m 36.943886,6.7968089 c -0.157078,0.077222 -0.296498,0.3277294 -0.432188,0.7348984 -0.361839,1.085785 -2.90791,8.5865417 -17.33072,8.9484697 C 12.298633,16.651365 9.3703212,10.60099 9.3703212,10.60099 l -0.1728749,7.781278 c 0,0 0.7397713,1.734074 -0.7347189,3.544803 C 8.3825784,21.801792 8.334663,21.660029 8.2466337,21.538008 7.7159378,20.802389 7.093816,20.183401 6.4314461,19.722376 5.6703811,19.192657 4.8787477,18.842912 4.0976334,18.728102 c -0.9005432,-0.132364 -1.7715733,0.0627 -2.4634688,0.561981 -0.69210616,0.499428 -1.09501379,1.264576 -1.25334389,2.161466 -0.13725792,0.777524 -0.0896357,1.618044 0.17287499,2.5073 0.22849391,0.774024 0.5932276,1.55551 1.1236876,2.291155 0.5603944,0.777156 1.258548,1.465348 1.9880627,1.945319 0.8227411,0.541308 1.6949827,0.858408 2.5499063,0.907816 0.2645554,0.01529 0.5348545,-0.04961 0.7779375,-0.08646 5.5372972,4.390835 16.5282672,8.488388 23.8135332,3.804181 0.157588,0.05364 0.316997,0.118164 0.475406,0.172917 0.0039,0.075 -0.01968,0.149333 0,0.216147 l 0.34575,-0.129688 c 0.06152,0.01956 0.110043,0.06801 0.172875,0.08646 0.01346,0.004 0.02968,-0.0039 0.04322,0 l 0.129657,0.129687 3.284625,1.167192 c -0.13475,1.140796 0.429353,2.435897 1.858407,2.982823 2.573572,0.984956 4.970156,2.247925 4.970156,2.247925 -1.227624,-4.168174 -1.675536,-7.513794 -4.883719,-7.219297 -0.596913,0.0548 -1.047941,0.299617 -1.383,0.64844 l -2.895657,-1.85886 -0.129656,0 -0.04322,-0.04323 c 3.899384,-3.8385 6.1796,-11.05294 4.797282,-23.603209 -0.08,-0.627178 -0.343267,-0.9500602 -0.605062,-0.8213571 z"/>
</g>
</svg>
