<svg xmlns="http://www.w3.org/2000/svg" viewBox="0 0 48 48">
 <path d="m 8 1 c -1.029 0 -2 0.971 -2 2 l 0 42 c 0 0.971 1.029 2 2 2 l 32 0 c 0.971 0 2 -1.029 2 -2 l 0 -31 -13 -13 z" style="fill:#39a34f"/>
 <path d="m 29 12 0.063 0.063 0.156 -0.063 -0.219 0 z m 2 2 11 11 0 -11 -11 0 z" style="fill-opacity:0.196"/>
 <path d="m 29 1 13 13 -11 0 c -0.971 0 -2 -1.029 -2 -2 l 0 -11 z" style="fill:#fff;fill-opacity:0.392"/>
 <g transform="matrix(0.53367457,0,0,0.5335119,11.192071,11.191446)" style="fill:#fff;fill-opacity:1">
  <!-- color: #3d3d3d -->
  <g style="fill:#fff">
   <path d="M 27.08,9.641 23.471,19.793 37.705,17.43 C 35.603,13.438 31.721,10.5 27.08,9.641 m 0,0" style="fill:#fff;stroke:none;fill-rule:nonzero"/>
   <path d="m 38.15 19.449 -10.738 1.988 9.199 10.98 c 2.457 -3.797 3.09 -8.586 1.527 -12.969 m 0.012 0" style="fill:#fff;stroke:none;fill-rule:nonzero"/>
   <path d="m 35.07 33.809 -7.121 -8.164 -5.05 13.344 c 4.566 0.195 9.09 -1.656 12.156 -5.18 m 0.012 0" style="fill:#fff;stroke:none;fill-rule:nonzero"/>
   <path d="m 20.922 38.36 3.617 -10.152 -14.242 2.363 c 2.109 3.996 5.996 6.934 10.625 7.789 m 0 0" style="fill:#fff;stroke:none;fill-rule:nonzero"/>
   <path d="M 9.852,28.559 20.586,26.571 11.387,15.591 C 8.934,19.392 8.297,24.177 9.86,28.56 m -0.008,0" style="fill:#fff;stroke:none;fill-rule:nonzero"/>
   <path d="m 12.926 14.207 7.121 8.164 5.05 -13.344 c -4.563 -0.195 -9.09 1.656 -12.152 5.18 m -0.016 0" style="fill:#fff;stroke:none;fill-rule:nonzero"/>
  </g>
 </g>
 <path d="m 6 35 0 10 c 0 0.971 1.029 2 2 2 l 32 0 c 0.971 0 2 -1.029 2 -2 l 0 -10 z" style="fill-opacity:0.196"/>
 <path d="m 19.331 45 q -0.238 -0.659 -0.59 -1.46 -0.339 -0.801 -0.715 -1.603 -0.364 0.763 -0.728 1.59 -0.364 0.814 -0.628 1.473 l -1.669 0 q 0.126 -0.349 0.364 -0.84 0.251 -0.491 0.54 -1.06 0.301 -0.569 0.628 -1.163 0.326 -0.607 0.628 -1.163 l -2.033 -3.774 1.669 0 1.23 2.559 1.293 -2.559 l 1.556 0 -1.983 3.735 q 0.339 0.556 0.665 1.163 0.326 0.607 0.603 1.189 0.289 0.569 0.502 1.073 q 0.213 0.491 0.339 0.84 l -1.669 0 z" style="fill:#fff;fill-opacity:1;stroke:none"/>
 <path d="m 24.1 45 q -0.28 0 -0.598 -0.05 -0.305 -0.037 -0.598 -0.099 -0.28 -0.062 -0.524 -0.136 q -0.244 -0.074 -0.378 -0.136 l 0.293 -1.276 q 0.28 0.124 0.72 0.26 0.451 0.136 1.073 0.136 0.768 0 1.073 -0.334 0.317 -0.334 0.317 -0.83 0 -0.607 -0.476 -0.842 -0.476 -0.248 -1.207 -0.248 l -0.463 0 0 -1.263 0.561 0 q 0.232 0 0.463 -0.05 0.232 -0.05 0.415 -0.161 0.183 -0.111 0.293 -0.297 0.122 -0.186 0.122 -0.471 0 -0.421 -0.256 -0.656 -0.244 -0.248 -0.683 -0.248 -0.427 0 -0.854 0.149 -0.415 0.136 -0.72 0.347 l -0.537 -1.115 q 0.329 -0.223 0.866 -0.446 q 0.549 -0.235 1.232 -0.235 0.634 0 1.098 0.161 0.476 0.161 0.78 0.458 0.305 0.285 0.451 0.681 0.146 0.396 0.146 0.854 0 0.458 -0.256 0.879 -0.256 0.421 -0.683 0.644 0.585 0.248 0.902 0.731 q 0.329 0.483 0.329 1.152 q 0 0.533 -0.171 0.978 -0.171 0.446 -0.524 0.78 -0.354 0.322 -0.902 0.508 -0.549 0.173 -1.305 0.173 z" style="fill:#fff;fill-opacity:1;stroke:none"/>
 <path d="m 28 45 0 -8 5 0 0 1.318 -3.377 0 0 1.682 2.955 0 0 1.375 -2.955 0 0 3.625 z" style="fill:#fff;fill-opacity:1;stroke:none"/>
</svg>
