<svg xmlns="http://www.w3.org/2000/svg" viewBox="0 0 48 48">
 <path d="m 8 1 c -1.029 0 -2 0.971 -2 2 l 0 42 c 0 0.971 1.029 2 2 2 l 32 0 c 0.971 0 2 -1.029 2 -2 l 0 -31 -13 -13 z" style="fill:#39a34f"/>
 <path d="m 29 12 0.063 0.063 0.156 -0.063 -0.219 0 z m 2 2 11 11 0 -11 -11 0 z" style="fill-opacity:0.196"/>
 <path d="m 29 1 13 13 -11 0 c -0.971 0 -2 -1.029 -2 -2 l 0 -11 z" style="fill:#fff;fill-opacity:0.392"/>
 <g transform="matrix(0.53367457,0,0,0.5335119,11.192071,11.191446)" style="fill:#fff;fill-opacity:1">
  <!-- color: #3d3d3d -->
  <g style="fill:#fff">
   <path d="M 27.08,9.641 23.471,19.793 37.705,17.43 C 35.603,13.438 31.721,10.5 27.08,9.641 m 0,0" style="fill:#fff;stroke:none;fill-rule:nonzero"/>
   <path d="m 38.15 19.449 -10.738 1.988 9.199 10.98 c 2.457 -3.797 3.09 -8.586 1.527 -12.969 m 0.012 0" style="fill:#fff;stroke:none;fill-rule:nonzero"/>
   <path d="m 35.07 33.809 -7.121 -8.164 -5.05 13.344 c 4.566 0.195 9.09 -1.656 12.156 -5.18 m 0.012 0" style="fill:#fff;stroke:none;fill-rule:nonzero"/>
   <path d="m 20.922 38.36 3.617 -10.152 -14.242 2.363 c 2.109 3.996 5.996 6.934 10.625 7.789 m 0 0" style="fill:#fff;stroke:none;fill-rule:nonzero"/>
   <path d="M 9.852,28.559 20.586,26.571 11.387,15.591 C 8.934,19.392 8.297,24.177 9.86,28.56 m -0.008,0" style="fill:#fff;stroke:none;fill-rule:nonzero"/>
   <path d="m 12.926 14.207 7.121 8.164 5.05 -13.344 c -4.563 -0.195 -9.09 1.656 -12.152 5.18 m -0.016 0" style="fill:#fff;stroke:none;fill-rule:nonzero"/>
  </g>
 </g>
 <path d="m 6 35 0 10 c 0 0.971 1.029 2 2 2 l 32 0 c 0.971 0 2 -1.029 2 -2 l 0 -10 z" style="fill-opacity:0.196"/>
 <path d="m 16.401,41 q 0,0.557 0.034,1.053 0.045,0.483 0.157,0.842 0.123,0.359 0.336,0.57 0.213,0.211 0.572,0.211 0.348,0 0.561,-0.211 0.224,-0.211 0.336,-0.57 0.123,-0.372 0.157,-0.854 0.045,-0.483 0.045,-1.04 0,-0.557 -0.045,-1.04 -0.034,-0.495 -0.157,-0.854 -0.112,-0.359 -0.325,-0.57 -0.213,-0.211 -0.572,-0.211 -0.359,0 -0.572,0.211 -0.213,0.211 -0.336,0.582 -0.112,0.359 -0.157,0.842 -0.034,0.483 -0.034,1.04 z M 15,41 Q 15,39.019 15.661,38.015 16.322,37 17.5,37 q 1.222,0 1.861,1.015 0.639,1 0.639,2.985 0,1.981 -0.65,2.997 -0.65,1 -1.839,1 -1.222,0 -1.872,-1 Q 15,42.982 15,41" style="fill:#fff;fill-opacity:1;stroke:none"/>
 <path d="m 22.839 37 q 0.609 0 1.103 0.153 0.494 0.153 0.851 0.473 0.356 0.319 0.54 0.818 0.195 0.486 0.195 1.15 0 0.69 -0.253 1.252 -0.253 0.562 -0.839 0.856 0.195 0.332 0.414 0.741 0.218 0.396 0.425 0.843 0.207 0.435 0.391 0.882 0.195 0.435 0.333 0.831 l -1.483 0 q -0.264 -0.767 -0.621 -1.47 -0.345 -0.716 -0.747 -1.444 l -0.736 0 0 2.914 -1.414 0 0 -7.796 q 0.207 -0.051 0.448 -0.089 0.253 -0.051 0.506 -0.064 0.253 -0.026 0.483 -0.038 0.23 -0.013 0.402 -0.013 z m 1.253 2.581 q 0 -0.626 -0.345 -0.92 -0.345 -0.294 -0.908 -0.294 -0.08 0 -0.195 0.013 -0.115 0 -0.23 0.026 l 0 2.377 0.31 0 q 0.724 0 1.046 -0.307 0.322 -0.319 0.322 -0.895 z" style="fill:#fff;fill-opacity:1;stroke:none"/>
 <path d="m 27 45 0 -8 5 0 0 1.318 -3.377 0 0 1.682 2.955 0 0 1.41 -2.955 0 0 3.59 z" style="fill:#fff;fill-opacity:1;stroke:none"/>
</svg>
