<svg xmlns="http://www.w3.org/2000/svg" viewBox="0 0 48 48">
 <path d="m 8 1 c -1.029 0 -2 0.971 -2 2 l 0 42 c 0 0.971 1.029 2 2 2 l 32 0 c 0.971 0 2 -1.029 2 -2 l 0 -31 -13 -13 z" style="fill:#39a34f"/>
 <path d="m 29 12 0.063 0.063 0.156 -0.063 -0.219 0 z m 2 2 11 11 0 -11 -11 0 z" style="fill-opacity:0.196"/>
 <path d="m 29 1 13 13 -11 0 c -0.971 0 -2 -1.029 -2 -2 l 0 -11 z" style="fill:#fff;fill-opacity:0.392"/>
 <g transform="matrix(0.53367457,0,0,0.5335119,11.192071,11.191446)" style="fill:#fff;fill-opacity:1">
  <!-- color: #3d3d3d -->
  <g style="fill:#fff">
   <path d="M 27.08,9.641 23.471,19.793 37.705,17.43 C 35.603,13.438 31.721,10.5 27.08,9.641 m 0,0" style="fill:#fff;stroke:none;fill-rule:nonzero"/>
   <path d="m 38.15 19.449 -10.738 1.988 9.199 10.98 c 2.457 -3.797 3.09 -8.586 1.527 -12.969 m 0.012 0" style="fill:#fff;stroke:none;fill-rule:nonzero"/>
   <path d="m 35.07 33.809 -7.121 -8.164 -5.05 13.344 c 4.566 0.195 9.09 -1.656 12.156 -5.18 m 0.012 0" style="fill:#fff;stroke:none;fill-rule:nonzero"/>
   <path d="m 20.922 38.36 3.617 -10.152 -14.242 2.363 c 2.109 3.996 5.996 6.934 10.625 7.789 m 0 0" style="fill:#fff;stroke:none;fill-rule:nonzero"/>
   <path d="M 9.852,28.559 20.586,26.571 11.387,15.591 C 8.934,19.392 8.297,24.177 9.86,28.56 m -0.008,0" style="fill:#fff;stroke:none;fill-rule:nonzero"/>
   <path d="m 12.926 14.207 7.121 8.164 5.05 -13.344 c -4.563 -0.195 -9.09 1.656 -12.152 5.18 m -0.016 0" style="fill:#fff;stroke:none;fill-rule:nonzero"/>
  </g>
 </g>
 <path d="m 6 35 0 10 c 0 0.971 1.029 2 2 2 l 32 0 c 0.971 0 2 -1.029 2 -2 l 0 -10 z" style="fill-opacity:0.196"/>
 <path d="m 16.468 43.637 q 0.06 0.013 0.131 0.013 0.072 0 0.131 0 0.501 0 0.835 -0.202 0.346 -0.202 0.549 -0.555 0.215 -0.353 0.298 -0.833 0.095 -0.492 0.095 -1.073 0 -0.505 -0.072 -0.984 -0.072 -0.479 -0.251 -0.845 -0.179 -0.366 -0.489 -0.58 -0.31 -0.227 -0.8 -0.227 -0.095 0 -0.215 0.013 -0.119 0 -0.215 0.025 l 0 5.249 z m 3.532 -2.65 q 0 1.085 -0.263 1.855 -0.251 0.757 -0.704 1.237 -0.453 0.479 -1.086 0.707 q -0.621 0.215 -1.372 0.215 -0.394 0 -0.776 -0.05 -0.37 -0.038 -0.8 -0.139 l 0 -7.621 q 0.501 -0.114 0.943 -0.151 0.442 -0.038 0.823 -0.038 0.728 0 1.325 0.227 0.609 0.227 1.026 0.719 0.418 0.479 0.644 1.237 q 0.239 0.744 0.239 1.804" style="fill:#fff;fill-opacity:1;stroke:none"/>
 <path d="m 24.787 45 q -0.515 -1.331 -1.127 -2.649 -0.6 -1.331 -1.299 -2.662 l 0 5.312 -1.36 0 l 0 -8 1.213 0 q 0.343 0.569 0.686 1.241 0.343 0.659 0.662 1.318 0.331 0.659 0.6 1.279 0.282 0.62 0.478 1.086 l 0 -4.924 1.36 0 l 0 8 -1.213 0 z" style="fill:#fff;fill-opacity:1;stroke:none"/>
 <path d="m 30.26 38.33 q -0.503 0 -0.847 0.198 -0.343 0.198 -0.572 0.557 -0.217 0.347 -0.32 0.842 -0.092 0.483 -0.092 1.077 0 1.375 0.4 2.031 0.4 0.644 1.178 0.644 0.126 0 0.275 -0.012 0.149 -0.012 0.275 -0.037 l 0 -2.799 1.407 0 0 3.827 q -0.252 0.099 -0.789 0.223 -0.526 0.124 -1.281 0.124 -0.664 0 -1.201 -0.248 q -0.526 -0.26 -0.904 -0.755 -0.378 -0.508 -0.584 -1.251 -0.206 -0.755 -0.206 -1.746 q 0 -0.978 0.24 -1.721 0.24 -0.755 0.652 -1.263 0.412 -0.508 0.973 -0.755 0.561 -0.26 1.201 -0.26 0.412 0 0.732 0.074 0.332 0.062 0.572 0.149 0.24 0.087 0.389 0.186 q 0.16 0.099 0.24 0.149 l -0.366 1.214 q -0.252 -0.173 -0.618 -0.31 -0.366 -0.136 -0.755 -0.136" style="fill:#fff;fill-opacity:1;stroke:none"/>
</svg>
