<svg xmlns="http://www.w3.org/2000/svg" viewBox="0 0 48 48">
 <defs>
  
 </defs>
 <path d="m 8 1 c -1.029 0 -2 0.971 -2 2 l 0 42 c 0 0.971 1.029 2 2 2 l 32 0 c 0.971 0 2 -1.029 2 -2 l 0 -31 -13 -13 z" style="fill:#757d32;fill-opacity:1"/>
 <path d="m 29 12 0.063 0.063 0.156 -0.063 -0.219 0 z m 2 2 11 11 0 -11 -11 0 z" style="fill-opacity:0.196"/>
 <path d="m 29 1 13 13 -11 0 c -0.971 0 -2 -1.029 -2 -2 l 0 -11 z" style="fill:#fff;fill-opacity:0.392"/>
 <path d="m 19.9 14 -1.4 14.848 3.579 -3.047 1.625 5.199 2.75 -0.867 -1.625 -5.199 4.671 0.447" style="visibility:visible;fill:#f9f9f9;fill-opacity:1;stroke:none;display:inline;color:#000;fill-rule:nonzero"/>
 <path d="m 6 35 0 10 c 0 0.971 1.029 2 2 2 l 32 0 c 0.971 0 2 -1.029 2 -2 l 0 -10 z" style="fill-opacity:0.196"/>
 <path d="m 16.652 45 q -1.778 0 -2.715 -1.04 q -0.937 -1.04 -0.937 -2.96 q 0 -0.954 0.285 -1.697 0.285 -0.743 0.787 -1.251 0.516 -0.52 1.208 -0.78 0.706 -0.272 1.534 -0.272 0.448 0 0.801 0.074 0.367 0.062 0.638 0.149 0.271 0.087 0.448 0.186 0.19 0.099 0.285 0.149 l -0.434 1.214 q -0.312 -0.186 -0.76 -0.31 -0.434 -0.136 -1 -0.136 -0.394 0 -0.774 0.136 -0.367 0.124 -0.665 0.433 -0.285 0.297 -0.475 0.805 -0.176 0.508 -0.176 1.263 0 1.313 0.489 2.02 0.502 0.693 1.629 0.693 0.652 0 1.072 -0.136 0.434 -0.136 0.692 -0.272 l 0.421 1.201 q -0.353 0.198 -0.964 0.372 -0.597 0.161 -1.385 0.161 z" style="fill:#fff;fill-opacity:1;stroke:none"/>
 <path d="m 22.972 45 q -0.853 0 -1.436 -0.203 q -0.569 -0.215 -0.91 -0.608 -0.341 -0.392 -0.483 -0.949 -0.142 -0.557 -0.142 -1.241 l 0 -5 1.763 0 0 4.899 q 0 0.494 0.057 0.835 0.057 0.329 0.185 0.532 0.142 0.203 0.384 0.291 0.242 0.089 0.611 0.089 0.37 0 0.611 -0.089 0.242 -0.089 0.384 -0.291 0.142 -0.215 0.199 -0.544 0.057 -0.342 0.057 -0.835 l 0 -4.886 1.749 0 0 5 q 0 0.684 -0.142 1.241 -0.142 0.557 -0.498 0.949 -0.355 0.392 -0.938 0.608 -0.583 0.203 -1.45 0.203 z" style="fill:#fff;fill-opacity:1;stroke:none"/>
 <path d="m 29.21 37 q 0.731 0 1.324 0.153 0.593 0.153 1.021 0.473 0.428 0.319 0.648 0.818 0.234 0.486 0.234 1.15 0 0.69 -0.303 1.252 -0.303 0.562 -1.01 0.856 0.234 0.332 0.497 0.741 0.262 0.396 0.51 0.843 q 0.248 0.435 0.469 0.882 0.234 0.435 0.4 0.831 l -1.779 0 q -0.317 -0.767 -0.745 -1.47 -0.414 -0.716 -0.897 -1.444 l -0.883 0 0 2.914 l -1.697 0 0 -7.796 q 0.248 -0.051 0.538 -0.089 0.303 -0.051 0.607 -0.064 0.303 -0.026 0.579 -0.038 0.276 -0.013 0.483 -0.013 z m 1.503 2.581 q 0 -0.626 -0.414 -0.92 -0.414 -0.294 -1.09 -0.294 -0.097 0 -0.234 0.013 -0.138 0 -0.276 0.026 l 0 2.377 0.372 0 q 0.869 0 1.255 -0.307 0.386 -0.319 0.386 -0.895 z" style="fill:#fff;fill-opacity:1;stroke:none"/>
</svg>
