<svg xmlns="http://www.w3.org/2000/svg" viewBox="0 0 48 48">
 <path d="m 8 1 c -1.029 0 -2 0.971 -2 2 l 0 42 c 0 0.971 1.029 2 2 2 l 32 0 c 0.971 0 2 -1.029 2 -2 l 0 -31 -13 -13 z" style="fill:#39a34f"/>
 <path d="m 29 12 0.063 0.063 0.156 -0.063 -0.219 0 z m 2 2 11 11 0 -11 -11 0 z" style="fill-opacity:0.196"/>
 <path d="m 29 1 13 13 -11 0 c -0.971 0 -2 -1.029 -2 -2 l 0 -11 z" style="fill:#fff;fill-opacity:0.392"/>
 <path d="m 6 35 0 10 c 0 0.971 1.029 2 2 2 l 32 0 c 0.971 0 2 -1.029 2 -2 l 0 -10 z" style="fill-opacity:0.196"/>
 <g style="fill:#fff">
  <g>
   <path d="m 17.04 16 c -0.563 0.054 -1.045 0.648 -1.035 1.281 l 0 13.469 c 0.006 0.663 0.538 1.26 1.129 1.25 l 13.772 0 c 0.583 -0.01 1.092 -0.597 1.098 -1.25 l 0 -13.469 c 0.008 -0.663 -0.506 -1.274 -1.098 -1.281 c -4.622 0 -9.244 0 -13.866 0 z m 0.973 2 11.984 0 0 8.594 -3.357 -4.125 -2.384 2.219 -3.137 -3.938 -3.106 3.188 z" style="color:#000"/>
  </g>
  <g transform="scale(1.05725 .94585)">
   <path d="m 27.654 39.12 c 0.415 1.251 0.807 2.502 1.215 3.744 0.433 -1.266 0.823 -2.493 1.257 -3.744 l 1.424 0 c 0.282 2.863 0.434 5.695 0.517 8.458 l -1.578 0 0.084 -6.572 -1.098 3.401 -1.188 0 -1.051 -3.401 0.07 6.572 -1.578 0 c 0.108 -2.867 0.223 -5.665 0.503 -8.458 l 1.424 0"/>
   <path d="m 21.869 39.04 c 1.014 0 1.8 0.223 2.359 0.668 0.559 0.436 0.838 1.154 0.838 2.153 0 1.01 -0.284 1.74 -0.851 2.194 -0.559 0.445 -1.353 0.668 -2.384 0.668 l -0.567 0 0 2.849 -1.585 0 0 -8.328 c 0.731 -0.161 1.458 -0.181 2.191 -0.204 m 0.18 1.458 c -0.277 -0.003 -0.51 0.025 -0.786 0.041 l 0 2.726 0.644 0 c 0.507 0 0.889 -0.104 1.147 -0.313 0.258 -0.218 0.387 -0.586 0.387 -1.104 0 -0.491 -0.129 -0.836 -0.387 -1.036 -0.249 -0.209 -0.584 -0.313 -1.01 -0.313"/>
  </g>
 </g>
 <path d="m 18.213 45 c -0.435 -1.078 -0.938 -2.09 -1.421 -3.063 -0.545 1.044 -1.01 2.04 -1.475 3.063 l -1.817 0 c 0.672 -1.475 1.541 -2.85 2.35 -4.226 l -2.213 -3.774 1.817 0 1.339 2.559 1.407 -2.559 1.694 0 -2.158 3.735 c 0.906 1.376 1.645 2.773 2.295 4.265 l -1.817 0" style="fill:#fff"/>
</svg>
