<svg xmlns="http://www.w3.org/2000/svg" viewBox="0 0 48 48">
 <path d="m 8 1 c -1.029 0 -2 0.971 -2 2 l 0 42 c 0 0.971 1.029 2 2 2 l 32 0 c 0.971 0 2 -1.029 2 -2 l 0 -31 -13 -13 z" style="fill:#39a34f"/>
 <path d="m 29 12 0.063 0.063 0.156 -0.063 -0.219 0 z m 2 2 11 11 0 -11 -11 0 z" style="fill-opacity:0.196"/>
 <path d="m 29 1 13 13 -11 0 c -0.971 0 -2 -1.029 -2 -2 l 0 -11 z" style="fill:#fff;fill-opacity:0.392"/>
 <g transform="matrix(0.53367457,0,0,0.5335119,11.192071,11.191446)" style="fill:#fff;fill-opacity:1">
  <!-- color: #3d3d3d -->
  <g>
   <path d="M 27.08,9.641 23.471,19.793 37.705,17.43 C 35.603,13.438 31.721,10.5 27.08,9.641 m 0,0" style="stroke:none;fill-rule:nonzero"/>
   <path d="m 38.15 19.449 -10.738 1.988 9.199 10.98 c 2.457 -3.797 3.09 -8.586 1.527 -12.969 m 0.012 0" style="stroke:none;fill-rule:nonzero"/>
   <path d="m 35.07 33.809 -7.121 -8.164 -5.05 13.344 c 4.566 0.195 9.09 -1.656 12.156 -5.18 m 0.012 0" style="stroke:none;fill-rule:nonzero"/>
   <path d="m 20.922 38.36 3.617 -10.152 -14.242 2.363 c 2.109 3.996 5.996 6.934 10.625 7.789 m 0 0" style="stroke:none;fill-rule:nonzero"/>
   <path d="M 9.852,28.559 20.586,26.571 11.387,15.591 C 8.934,19.392 8.297,24.177 9.86,28.56 m -0.008,0" style="stroke:none;fill-rule:nonzero"/>
   <path d="m 12.926 14.207 7.121 8.164 5.05 -13.344 c -4.563 -0.195 -9.09 1.656 -12.152 5.18 m -0.016 0" style="stroke:none;fill-rule:nonzero"/>
  </g>
 </g>
 <path d="m 6 35 0 10 c 0 0.971 1.029 2 2 2 l 32 0 c 0.971 0 2 -1.029 2 -2 l 0 -10 z" style="fill-opacity:0.196"/>
 <path d="m 19.775 37 0 8 -1.732 0 0 -3.591 -2.31 0 0 3.591 l -1.732 0 l 0 -8 1.732 0 0 3.091 2.31 0 0 -3.091 1.732 0" style="fill:#fff"/>
 <path d="m 22.574 43.669 c 0.104 0.02 0.291 0.008 0.399 0.013 0.381 0 0.699 -0.068 0.953 -0.204 0.263 -0.136 0.472 -0.324 0.627 -0.562 0.164 -0.239 0.277 -0.519 0.34 -0.843 0.072 -0.332 0.109 -0.694 0.109 -1.086 0 -0.34 -0.027 -0.673 -0.081 -0.996 -0.055 -0.324 -0.149 -0.609 -0.286 -0.856 -0.136 -0.247 -0.323 -0.443 -0.559 -0.588 -0.236 -0.154 -0.54 -0.23 -0.912 -0.23 -0.171 -0.005 -0.43 0.025 -0.591 0.038 l 0 5.314 m 4.131 -2.682 c 0 0.732 -0.1 1.359 -0.3 1.878 -0.191 0.511 -0.459 0.928 -0.803 1.252 -0.345 0.324 -0.758 0.562 -1.239 0.716 c -0.472 0.145 -0.994 0.218 -1.566 0.218 -0.3 0 -0.595 -0.017 -0.885 -0.051 -0.281 -0.025 -0.585 -0.073 -0.912 -0.14 l 0 -7.716 c 0.381 -0.076 0.74 -0.128 1.076 -0.154 0.336 -0.025 0.649 -0.039 0.94 -0.039 0.553 0 1.058 0.076 1.511 0.23 0.463 0.154 0.853 0.396 1.171 0.728 0.317 0.324 0.563 0.741 0.735 1.252 0.181 0.503 0.272 1.111 0.272 1.827" style="fill:#fff"/>
 <path d="m 30.13 36.95 c 0.492 0 0.938 0.051 1.338 0.154 0.4 0.103 0.743 0.261 1.031 0.476 0.288 0.214 0.506 0.489 0.655 0.823 0.158 0.326 0.237 0.712 0.237 1.157 0 0.463 -0.102 0.883 -0.307 1.26 -0.204 0.377 -0.544 0.664 -1.017 0.862 0.764 1.049 1.348 2.173 1.895 3.318 l -1.798 0 c -0.45 -1.07 -1.083 -2.032 -1.659 -2.932 l -0.892 0 0 2.932 -1.714 0 0 -7.844 c 0.744 -0.158 1.481 -0.178 2.23 -0.206 m 1.519 2.598 c 0 -0.42 -0.139 -0.729 -0.418 -0.926 -0.279 -0.197 -0.646 -0.296 -1.101 -0.296 -0.178 -0.002 -0.35 0.026 -0.516 0.039 l 0 2.392 0.376 0 c 0.585 0 1.01 -0.103 1.268 -0.309 0.26 -0.214 0.39 -0.514 0.39 -0.9" style="fill:#fff"/>
</svg>
