<svg xmlns="http://www.w3.org/2000/svg" viewBox="0 0 48 48">
 <path d="m 8 1 c -1.029 0 -2 0.971 -2 2 l 0 42 c 0 0.971 1.029 2 2 2 l 32 0 c 0.971 0 2 -1.029 2 -2 l 0 -31 -13 -13 z" style="fill:#39a34f"/>
 <path d="m 29 12 0.063 0.063 0.156 -0.063 -0.219 0 z m 2 2 11 11 0 -11 -11 0 z" style="fill-opacity:0.196"/>
 <path d="m 29 1 13 13 -11 0 c -0.971 0 -2 -1.029 -2 -2 l 0 -11 z" style="fill:#fff;fill-opacity:0.392"/>
 <g transform="matrix(0.53367457,0,0,0.5335119,11.192071,11.191446)" style="fill:#fff;fill-opacity:1">
  <!-- color: #3d3d3d -->
  <g style="fill:#fff">
   <path d="M 27.08,9.641 23.471,19.793 37.705,17.43 C 35.603,13.438 31.721,10.5 27.08,9.641 m 0,0" style="fill:#fff;stroke:none;fill-rule:nonzero"/>
   <path d="m 38.15 19.449 -10.738 1.988 9.199 10.98 c 2.457 -3.797 3.09 -8.586 1.527 -12.969 m 0.012 0" style="fill:#fff;stroke:none;fill-rule:nonzero"/>
   <path d="m 35.07 33.809 -7.121 -8.164 -5.05 13.344 c 4.566 0.195 9.09 -1.656 12.156 -5.18 m 0.012 0" style="fill:#fff;stroke:none;fill-rule:nonzero"/>
   <path d="m 20.922 38.36 3.617 -10.152 -14.242 2.363 c 2.109 3.996 5.996 6.934 10.625 7.789 m 0 0" style="fill:#fff;stroke:none;fill-rule:nonzero"/>
   <path d="M 9.852,28.559 20.586,26.571 11.387,15.591 C 8.934,19.392 8.297,24.177 9.86,28.56 m -0.008,0" style="fill:#fff;stroke:none;fill-rule:nonzero"/>
   <path d="m 12.926 14.207 7.121 8.164 5.05 -13.344 c -4.563 -0.195 -9.09 1.656 -12.152 5.18 m -0.016 0" style="fill:#fff;stroke:none;fill-rule:nonzero"/>
  </g>
 </g>
 <path d="m 6 35 0 10 c 0 0.971 1.029 2 2 2 l 32 0 c 0.971 0 2 -1.029 2 -2 l 0 -10 z" style="fill-opacity:0.196"/>
 <path d="m 16.839 37 q 0.609 0 1.103 0.153 0.494 0.153 0.851 0.473 0.356 0.319 0.54 0.818 0.195 0.486 0.195 1.15 0 0.69 -0.253 1.252 -0.253 0.562 -0.839 0.856 0.195 0.332 0.414 0.741 0.218 0.396 0.425 0.843 0.207 0.435 0.391 0.882 q 0.195 0.435 0.333 0.831 l -1.483 0 q -0.264 -0.767 -0.621 -1.47 -0.345 -0.716 -0.747 -1.444 l -0.736 0 0 2.914 l -1.414 0 0 -7.796 q 0.207 -0.051 0.448 -0.089 0.253 -0.051 0.506 -0.064 0.253 -0.026 0.483 -0.038 0.23 -0.013 0.402 -0.013 z m 1.253 2.581 q 0 -0.626 -0.345 -0.92 -0.345 -0.294 -0.908 -0.294 -0.08 0 -0.195 0.013 -0.115 0 -0.23 0.026 l 0 2.377 0.31 0 q 0.724 0 1.046 -0.307 0.322 -0.319 0.322 -0.895 z" style="fill:#fff;fill-opacity:1;stroke:none"/>
 <path d="m 24.01 39.83 q 0.044 0.246 0.132 0.607 0.088 0.362 0.187 0.801 0.11 0.439 0.231 0.943 0.132 0.504 0.253 1.034 0 -0.672 -0.011 -1.435 -0.011 -0.775 -0.022 -1.577 -0.011 -0.801 -0.022 -1.616 q -0.011 -0.827 -0.011 -1.59 l 1.256 0 q -0.033 0.982 -0.066 2.029 -0.033 1.034 -0.077 2.068 -0.044 1.021 -0.11 2.02 q -0.055 0.995 -0.132 1.887 l -1.123 0 q -0.242 -0.814 -0.485 -1.745 -0.242 -0.943 -0.485 -1.796 -0.242 0.814 -0.507 1.771 q -0.264 0.956 -0.485 1.771 l -1.123 0 q -0.088 -0.892 -0.154 -1.887 -0.066 -1.01 -0.121 -2.029 q -0.044 -1.034 -0.077 -2.068 -0.033 -1.047 -0.055 -2.02 l 1.256 0 q -0.011 0.763 -0.022 1.577 -0.011 0.814 -0.022 1.628 -0.011 0.801 -0.022 1.577 -0.011 0.763 -0.011 1.435 0.099 -0.414 0.22 -0.905 0.132 -0.491 0.242 -0.969 0.121 -0.478 0.22 -0.879 0.099 -0.401 0.154 -0.633 l 0.991 0 z" style="fill:#fff;fill-opacity:1;stroke:none"/>
 <path d="m 31.666 39.24 q 0 0.404 -0.143 0.784 -0.143 0.367 -0.382 0.72 -0.239 0.354 -0.537 0.682 -0.298 0.329 -0.609 0.632 -0.155 0.152 -0.358 0.367 -0.203 0.202 -0.382 0.43 -0.179 0.215 -0.31 0.442 -0.119 0.227 -0.119 0.417 l 3.174 0 0 1.289 -4.821 0 q -0.036 -0.126 -0.036 -0.316 0.012 -0.19 0.012 -0.265 0 -0.632 0.215 -1.163 0.227 -0.531 0.561 -0.973 0.346 -0.455 0.728 -0.834 0.394 -0.392 0.728 -0.746 0.346 -0.354 0.561 -0.682 0.227 -0.329 0.227 -0.67 0 -0.48 -0.274 -0.733 -0.274 -0.265 -0.692 -0.265 -0.346 0 -0.728 0.177 -0.382 0.177 -0.752 0.594 l -0.728 -1.087 q 0.477 -0.531 1.098 -0.784 q 0.632 -0.253 1.253 -0.253 q 0.453 0 0.871 0.139 0.418 0.139 0.74 0.417 0.322 0.278 0.513 0.708 0.191 0.417 0.191 0.973 z" style="fill:#fff;fill-opacity:1;stroke:none"/>
</svg>
