<svg xmlns="http://www.w3.org/2000/svg" viewBox="0 0 48 48">
 <path d="m 8 1 c -1.029 0 -2 0.971 -2 2 l 0 42 c 0 0.971 1.029 2 2 2 l 32 0 c 0.971 0 2 -1.029 2 -2 l 0 -31 -13 -13 z" style="fill:#39a34f"/>
 <path d="m 29 12 0.063 0.063 0.156 -0.063 -0.219 0 z m 2 2 11 11 0 -11 -11 0 z" style="fill-opacity:0.196"/>
 <path d="m 29 1 13 13 -11 0 c -0.971 0 -2 -1.029 -2 -2 l 0 -11 z" style="fill:#fff;fill-opacity:0.392"/>
 <path d="m 6 35 0 10 c 0 0.971 1.029 2 2 2 l 32 0 c 0.971 0 2 -1.029 2 -2 l 0 -10 z" style="fill-opacity:0.196"/>
 <g style="fill:#fff">
  <g>
   <path d="m 17.04 16 c -0.563 0.054 -1.045 0.648 -1.035 1.281 l 0 13.469 c 0.006 0.663 0.538 1.26 1.129 1.25 l 13.772 0 c 0.583 -0.01 1.092 -0.597 1.098 -1.25 l 0 -13.469 c 0.008 -0.663 -0.506 -1.274 -1.098 -1.281 c -4.622 0 -9.244 0 -13.866 0 z m 0.973 2 11.984 0 0 8.594 -3.357 -4.125 -2.384 2.219 -3.137 -3.938 -3.106 3.188 z" style="color:#000"/>
  </g>
 </g>
 <path d="m 15.638 41 c 0 0.372 0.014 0.722 0.042 1.053 0.037 0.322 0.102 0.603 0.195 0.842 0.102 0.239 0.241 0.429 0.417 0.57 0.176 0.14 0.412 0.211 0.709 0.211 0.287 0 0.519 -0.07 0.695 -0.211 0.185 -0.14 0.324 -0.33 0.417 -0.57 0.102 -0.248 0.167 -0.533 0.195 -0.854 0.037 -0.322 0.056 -0.669 0.056 -1.04 0 -0.372 -0.019 -0.718 -0.056 -1.04 -0.028 -0.33 -0.093 -0.615 -0.195 -0.854 -0.093 -0.239 -0.227 -0.429 -0.403 -0.57 -0.176 -0.14 -0.412 -0.211 -0.709 -0.211 -0.297 0 -0.533 0.07 -0.709 0.211 -0.176 0.14 -0.315 0.334 -0.417 0.582 -0.093 0.239 -0.158 0.52 -0.195 0.842 -0.028 0.322 -0.042 0.669 -0.042 1.04 m -1.738 0 c 0 -1.321 0.273 -2.316 0.82 -2.985 0.547 -0.677 1.307 -1.015 2.28 -1.015 1.01 0 1.779 0.339 2.308 1.015 0.528 0.669 0.792 1.664 0.792 2.985 0 1.321 -0.269 2.32 -0.806 2.997 c -0.538 0.669 -1.297 1 -2.28 1 -1.01 0 -1.784 -0.334 -2.322 -1 -0.528 -0.677 -0.792 -1.676 -0.792 -2.997" style="fill:#fff"/>
 <path d="m 23.507 36.9 c 0.487 0 0.929 0.052 1.324 0.155 0.395 0.104 0.736 0.263 1.021 0.479 0.285 0.216 0.501 0.492 0.648 0.828 0.156 0.328 0.234 0.716 0.234 1.165 0 0.466 -0.101 0.889 -0.303 1.268 -0.202 0.38 -0.538 0.669 -1.01 0.867 c 0.738 1.041 1.381 2.287 1.876 3.338 l -1.779 0 c -0.446 -1.078 -1.072 -2.045 -1.641 -2.95 l -0.883 0 0 2.95 -1.697 0 0 -7.893 c 0.737 -0.159 1.466 -0.179 2.207 -0.207 m 1.503 2.614 c 0 -0.423 -0.138 -0.733 -0.414 -0.932 -0.276 -0.198 -0.639 -0.298 -1.09 -0.298 -0.176 -0.002 -0.346 0.026 -0.51 0.039 l 0 2.407 0.372 0 c 0.579 0 0.998 -0.104 1.255 -0.311 0.257 -0.216 0.386 -0.518 0.386 -0.906" style="fill:#fff"/>
 <path d="m 32.651 45 -0.406 -1.848 -2.311 0 l -0.392 1.848 -1.793 0 c 0.719 -2.78 1.608 -5.455 2.465 -8 l 1.877 0 c 0.936 2.709 1.769 5.448 2.409 8 l -1.849 0 m -1.54 -6.449 c -0.356 1.069 -0.641 2.231 -0.854 3.283 l 1.695 0 c -0.198 -1.135 -0.531 -2.227 -0.84 -3.283" style="fill:#fff"/>
</svg>
