<svg xmlns="http://www.w3.org/2000/svg" viewBox="0 0 48 48">
 <path d="m 8 1 c -1.029 0 -2 0.971 -2 2 l 0 42 c 0 0.971 1.029 2 2 2 l 32 0 c 0.971 0 2 -1.029 2 -2 l 0 -31 -13 -13 z" style="fill:#2d2d2d;fill-opacity:1"/>
 <path d="m 29 12 0.063 0.063 0.156 -0.063 -0.219 0 z m 2 2 11 11 0 -11 -11 0 z" style="fill-opacity:0.196"/>
 <path d="m 29 1 13 13 -11 0 c -0.971 0 -2 -1.029 -2 -2 l 0 -11 z" style="fill:#fff;fill-opacity:0.392"/>
 <path d="m 21.02 15 c -0.433 0.622 -0.784 2.754 0.468 3.808 1.479 1.262 1.794 2.779 1.794 5.076 0 3.231 -2.549 5.818 -0.754 8.884 -5.01 -4.417 0.038 -11.05 -3.771 -13.73 1.508 4.04 -3.771 6.461 -3.759 10.38 -0.012 4.158 3 6.581 6.626 6.572 c -2.581 -1.123 -3.754 -4.515 -3.621 -6.452 1.815 4.404 4.525 6.461 9.05 6.461 -1.745 -2.439 -2.03 -2.748 -2.13 -4.3 c 0.009 -1.432 0.548 -1.751 1.491 -3.543 2.372 -3.985 1.287 -8.01 -1.941 -9.884 -0.657 -0.351 -0.833 -0.448 -2.03 -0.95 -0.689 -0.344 -1.376 -1.092 -1.423 -2.322 m 8.091 6.748 c 2.392 3.278 -0.333 5.94 -1.582 7.947 -1.025 1.577 -0.038 4.187 1.034 6.304 0.094 -1.789 1.208 -3.02 2.11 -3.66 2.76 -2.224 2.849 -5.133 1.385 -7.72 -0.919 -1.42 -1.732 -1.88 -2.946 -2.871 m 0 0" style="fill:#ef9815;fill-opacity:1;stroke:none;fill-rule:nonzero"/>
</svg>
