<svg xmlns="http://www.w3.org/2000/svg" viewBox="0 0 48 48">
 <path d="m 8 1 c -1.029 0 -2 0.971 -2 2 l 0 42 c 0 0.971 1.029 2 2 2 l 32 0 c 0.971 0 2 -1.029 2 -2 l 0 -31 -13 -13 z" style="fill:#f09828;fill-opacity:1"/>
 <path d="m 29 12 0.063 0.063 0.156 -0.063 -0.219 0 z m 2 2 11 11 0 -11 -11 0 z" style="fill-opacity:0.196"/>
 <path d="m 29 1 13 13 -11 0 c -0.971 0 -2 -1.029 -2 -2 l 0 -11 z" style="fill:#fff;fill-opacity:0.392"/>
 <path d="m 21.293 36.991 c 0.578 -0.077 -0.102 -0.658 -0.294 -0.775 -0.369 -0.221 -0.67 -0.474 -0.902 -0.891 -0.367 -0.67 -0.531 -1.558 -0.687 -2.327 -0.104 -0.522 -0.206 -0.826 0.071 -1.269 0.275 -0.44 -0.194 -0.803 0.097 -1.269 0.488 -0.78 0.694 -1.813 1.177 -2.585 0.137 -0.219 0.088 -0.423 0.284 -0.446 0.095 -0.011 0.339 0.216 0.422 0.281 0.239 0.193 0.531 0.284 0.765 0.471 0.118 0.094 0.343 0.026 0.441 0.116 0.282 0.264 0.216 1.084 0.187 1.504 -0.043 0.599 -0.443 0.786 -0.443 1.362 0 0.695 0.104 1.169 -0.078 1.882 -0.104 0.409 -0.367 0.874 -0.41 1.291 -0.036 0.329 0.017 0.321 0.097 0.633 0.095 0.372 0.137 0.704 0.431 0.871 0.168 0.094 0.939 0.133 1.034 -0.094 0.187 -0.446 -0.526 -0.599 -0.647 -0.871 -0.261 -0.585 0.278 -2.1 0.512 -2.608 0.13 -0.275 0.36 -0.497 0.453 -0.775 0.126 -0.375 -0.128 -0.63 -0.088 -0.917 0.078 -0.559 0.275 -1.152 0.422 -1.691 0.343 -1.252 0.819 0.65 1.018 1.13 0.081 0.187 0.137 0.394 0.216 0.587 0.095 0.227 -0.114 0.423 -0.057 0.704 0.052 0.264 0.308 0.412 0.45 0.61 0.216 0.304 0.365 0.687 0.481 1.059 0.242 0.775 0.327 2.126 0.774 2.747 0.064 0.091 0.244 0.04 0.313 0.119 0.156 0.182 -0.04 0.383 0.265 0.505 0.234 0.094 0.827 0.196 1.049 0.034 0.426 -0.309 -0.107 -0.69 -0.372 -1.01 -0.374 -0.446 -0.808 -0.854 -1.099 -1.385 -0.384 -0.698 -0.464 -1.484 -0.54 -2.29 -0.036 -0.389 0.315 -0.582 0.012 -1.047 -0.097 -0.148 -0.393 -0.128 -0.393 -0.281 0 -0.485 -0.012 -0.973 0 -1.456 0.014 -0.587 0.012 -1.555 0.481 -1.927 0.623 -0.499 1.414 -0.63 2.01 -1.164 0.592 -0.534 1.134 -1.016 1.492 -1.867 0.185 -0.446 0.282 -0.883 0.431 -1.34 0.109 -0.338 0.078 -0.224 0.253 -0.423 0.104 -0.116 0.258 -0.199 0.374 -0.329 0.301 -0.346 0.355 -0.687 0.862 -0.542 0.201 0.06 0.533 0.511 0.647 0.236 0.073 -0.176 0.028 -0.338 -0.01 -0.517 -0.057 -0.267 0.213 -0.355 0.206 -0.61 -0.012 -0.44 -0.604 -0.902 -0.912 -0.976 -0.388 -0.094 -0.815 0.108 -1.227 0.011 -0.332 -0.077 -0.621 -0.292 -0.94 -0.386 -0.334 -0.102 -0.635 -0.136 -0.921 0.105 -0.13 0.111 -0.18 0.309 -0.294 0.423 -0.097 0.094 -0.182 0.068 -0.294 0.165 -0.336 0.289 -0.362 0.718 0.216 0.587 -0.244 1.206 -1.426 4.45 -2.745 2.773 -0.616 -0.783 -1.182 -1.652 -1.764 -2.466 -0.514 -0.718 -0.812 -1.527 -1.686 -1.388 -0.862 0.136 -1.452 0.846 -2.12 1.433 -0.545 0.482 -1.187 0.587 -1.764 0.988 -0.613 0.423 -1.161 1.135 -1.371 1.95 -0.306 1.178 -0.13 2.313 -0.668 3.431 -0.324 0.678 -0.786 1.152 -1.196 1.714 -0.22 0.304 -0.367 0.721 -0.294 1.127 0.05 0.281 0.216 0.332 0.216 0.658 0 0.57 -0.043 1.135 -0.021 1.706 0.019 0.508 0.052 1 0.111 1.507 0.052 0.434 0.204 0.556 0.322 0.877 0.175 0.474 0.147 0.681 0.568 0.868 0.239 0.105 0.647 0.318 0.902 0.307 0.367 -0.02 0.419 -0.383 0.137 -0.775 -0.182 -0.255 -0.502 -0.338 -0.706 -0.613 -0.594 -0.797 -0.85 -3.196 -0.353 -4.04 0.206 -0.352 0.45 -0.355 0.469 -0.891 0.019 -0.48 -0.107 -0.647 0.255 -1.081 1.151 -0.704 1.234 -1.206 1.608 -0.965 0.455 0.295 0.097 1.955 0 2.421 -0.175 0.834 -0.864 1.226 -0.412 2.069 0.324 0.602 0.476 1.223 0.696 1.927 0.199 0.633 0.182 1.538 0.5 2.066 0.062 0.102 0.159 0.159 0.216 0.258 0.043 0.074 0.107 0.287 0.137 0.329 0.133 0.184 0.161 0.233 0.374 0.329 0.379 0.173 0.843 0.116 1.253 0.116" style="fill:#fff;fill-rule:evenodd"/>
</svg>
