<svg xmlns="http://www.w3.org/2000/svg" viewBox="0 0 48 48">
 <path d="m 8 1 c -1.029 0 -2 0.971 -2 2 l 0 42 c 0 0.971 1.029 2 2 2 l 32 0 c 0.971 0 2 -1.029 2 -2 l 0 -31 -13 -13 z" style="fill:#dcdcdc"/>
 <path d="m 29 12 0.063 0.063 0.156 -0.063 -0.219 0 z m 2 2 11 11 0 -11 -11 0 z" style="fill-opacity:0.196"/>
 <path d="m 29 1 13 13 -11 0 c -0.971 0 -2 -1.029 -2 -2 l 0 -11 z" style="fill:#fff;fill-opacity:0.392"/>
 <g transform="scale(1.0078875,0.99217427)" style="fill:#888">
  <path d="m 33.734 27.13 q 0 1.775 -0.559 3.255 -0.559 1.467 -1.58 2.306 -1.021 0.838 -2.37 0.838 -0.899 0 -1.592 -0.432 -0.693 -0.444 -0.996 -1.159 l -0.194 0 q -1.312 1.59 -3.342 1.59 -2.151 0 -3.39 -1.307 -1.239 -1.319 -1.239 -3.6 0 -2.601 1.628 -4.192 1.628 -1.59 4.253 -1.59 1.045 0 2.297 0.21 1.264 0.197 2.078 0.481 l -0.279 6.03 q 0 1.714 0.924 1.714 0.778 0 1.239 -1.147 0.462 -1.159 0.462 -3.02 0 -1.985 -0.814 -3.501 -0.814 -1.529 -2.297 -2.33 -1.47 -0.801 -3.366 -0.801 -2.455 0 -4.265 1.023 -1.811 1.023 -2.783 2.959 -0.96 1.923 -0.96 4.451 0 3.403 1.786 5.227 1.798 1.812 5.201 1.812 1.288 0 2.831 -0.284 1.543 -0.296 3.038 -0.851 l 0 2.367 q -2.6 1.122 -5.772 1.122 -4.618 0 -7.206 -2.466 -2.576 -2.466 -2.576 -6.855 0 -3.045 1.312 -5.523 1.325 -2.49 3.755 -3.896 2.442 -1.418 5.614 -1.418 2.673 0 4.776 1.11 2.102 1.11 3.244 3.156 1.142 2.047 1.142 4.722 z m -12.443 1.541 q 0 2.601 2.09 2.601 1.094 0 1.665 -0.777 0.571 -0.789 0.693 -2.552 l 0.158 -2.725 q -0.62 -0.136 -1.397 -0.136 -1.519 0 -2.37 0.962 -0.838 0.962 -0.838 2.626 z"/>
 </g>
</svg>
