<svg xmlns="http://www.w3.org/2000/svg" viewBox="0 0 48 48">
 <path d="m 8 1 c -1.029 0 -2 0.971 -2 2 l 0 42 c 0 0.971 1.029 2 2 2 l 32 0 c 0.971 0 2 -1.029 2 -2 l 0 -31 -13 -13 z" style="fill:#2d2d2d"/>
 <path d="m 29 12 0.063 0.063 0.156 -0.063 -0.219 0 z m 2 2 11 11 0 -11 -11 0 z" style="fill-opacity:0.196"/>
 <path d="m 29 1 13 13 -11 0 c -0.971 0 -2 -1.029 -2 -2 l 0 -11 z" style="fill:#fff;fill-opacity:0.392"/>
 <path d="m 16 27.867 c 0 -0.963 0.198 -1.911 0.595 -2.844 0.397 -0.948 0.967 -1.793 1.709 -2.533 0.759 -0.741 1.683 -1.341 2.77 -1.8 1.087 -0.459 2.33 -0.689 3.728 -0.689 1.64 0 3.055 0.319 4.246 0.956 1.208 0.637 2.097 1.467 2.667 2.489 l -2.744 1.622 c -0.207 -0.444 -0.475 -0.815 -0.803 -1.111 -0.328 -0.311 -0.69 -0.556 -1.087 -0.733 -0.38 -0.178 -0.777 -0.304 -1.191 -0.378 -0.414 -0.089 -0.811 -0.133 -1.191 -0.133 -0.846 0 -1.588 0.156 -2.227 0.467 -0.639 0.311 -1.174 0.719 -1.605 1.222 -0.414 0.489 -0.734 1.052 -0.958 1.689 -0.207 0.622 -0.311 1.244 -0.311 1.867 0 0.696 0.121 1.37 0.362 2.022 0.259 0.637 0.613 1.2 1.061 1.689 0.466 0.489 1.018 0.881 1.657 1.178 0.639 0.296 1.338 0.444 2.097 0.444 0.397 0 0.803 -0.044 1.217 -0.133 0.414 -0.089 0.811 -0.23 1.191 -0.422 0.397 -0.193 0.759 -0.437 1.087 -0.733 0.328 -0.311 0.595 -0.681 0.803 -1.111 l 2.926 1.444 c -0.276 0.593 -0.682 1.119 -1.217 1.578 -0.518 0.444 -1.113 0.822 -1.786 1.133 -0.673 0.311 -1.381 0.548 -2.123 0.711 -0.742 0.163 -1.476 0.244 -2.201 0.244 -1.277 0 -2.451 -0.237 -3.521 -0.711 -1.053 -0.474 -1.968 -1.089 -2.744 -1.844 -0.759 -0.77 -1.355 -1.637 -1.786 -2.6 -0.414 -0.978 -0.621 -1.97 -0.621 -2.978" style="fill:#dcdcdc"/>
</svg>
