<svg xmlns="http://www.w3.org/2000/svg" viewBox="0 0 48 48">
 <path d="m 8 1 c -1.029 0 -2 0.971 -2 2 l 0 42 c 0 0.971 1.029 2 2 2 l 32 0 c 0.971 0 2 -1.029 2 -2 l 0 -31 -13 -13 z" style="fill:#f7ce6b;fill-opacity:1"/>
 <path d="m 31 14 11 11 0 -11" style="fill-opacity:0.196"/>
 <path d="m 29 1 13 13 -11 0 c -0.971 0 -2 -1.029 -2 -2 l 0 -11 z" style="fill:#fff;fill-opacity:0.392"/>
 <path d="m 20.312 35.428 c -1.066 -0.549 -1.902 -2.01 -1.343 -3.151 0.472 -0.961 2.077 -1.224 2.161 -2.445 0.079 -1.156 0.992 -2.101 2.149 -2.11 1.212 -0.009 2.661 -0.155 3.559 0.799 0.689 0.732 0.494 2.397 1.564 2.779 0.921 0.328 1.734 1.251 1.511 2.371 -0.236 1.184 -1.222 1.843 -2.334 2.01 -2.418 0.361 -4.93 0.576 -7.262 -0.248 m -4.02 -5.855 c -1.203 -0.839 -1.34 -2.48 -1.284 -3.864 0.021 -0.512 0.026 -2.266 0.404 -1.777 0.383 0.496 0.282 0.894 1.056 0.749 1.172 -0.22 1.615 1.51 2.523 2.189 0.816 0.61 0.789 2.183 -0.213 2.702 -0.773 0.401 -1.733 0.456 -2.48 -0.005 m 13.07 -0.071 c -1.085 -0.442 -1.078 -2.05 -0.145 -2.743 0.868 -0.645 1.197 -2.165 2.591 -2.022 0.416 0.043 0.339 -2.01 0.68 -0.984 0.353 1.063 0.407 2.218 0.491 3.331 0.092 1.214 -0.669 2.6 -1.95 2.773 -0.576 0.078 -1.19 -0.011 -1.67 -0.359 m -8.927 -4.764 c -1.284 -0.633 -1.544 -2.551 -0.728 -3.657 0.675 -0.914 0.454 -2.613 1.398 -3.05 0.547 -0.254 -0.399 1.513 0.652 1.606 1.489 0.133 0.68 1.843 1.18 2.771 0.565 1.048 0.356 2.48 -0.956 2.621 -0.526 0.056 -1.097 0.013 -1.548 -0.291 m 4.435 -0.115 c -0.801 -0.578 -0.46 -1.675 -0.251 -2.473 0.216 -0.822 -0.473 -2.629 0.693 -2.562 1.374 0.078 0.177 -1.751 0.697 -1.565 1 0.358 1 2.096 1.755 3.01 0.753 0.912 0.86 2.564 -0.121 3.436 -0.775 0.689 -1.927 0.642 -2.777 0.154" style="fill:#555;fill-opacity:1;stroke:none;fill-rule:nonzero"/>
</svg>
