<svg xmlns="http://www.w3.org/2000/svg" viewBox="0 0 48 48">
 <path d="m 8 1 c -1.029 0 -2 0.971 -2 2 l 0 11 l 0 31 c 0 0.971 1.029 2 2 2 l 32 0 c 0.971 0 2 -1.029 2 -2 l 0 -31 l 0 -11 c 0 -1.029 -0.971 -2 -2 -2 l -11 0 l -10 0 l -11 0 z" style="fill:#dda06a;fill-opacity:1"/>
 <path d="m 6 35 0 10 c 0 0.971 1.029 2 2 2 l 32 0 c 0.971 0 2 -1.029 2 -2 l 0 -10 z" style="fill:#000;fill-opacity:0.196"/>
 <path d="m 18 11 0 19 2 0 0 -8 12 0 -5.5 -4.5 5.5 -4.5 l -12 0 0 -2" style="fill:#fff;opacity:1;fill-opacity:1;stroke:none"/>
 <path d="m 16.393 36.9 c -0.8 0.022 -1.594 0.04 -2.393 0.193 l 0 7.906 l 1.73 0 l 0 -2.705 l 0.619 0 c 1.126 0 1.996 -0.21 2.605 -0.633 c 0.619 -0.431 0.928 -1.126 0.928 -2.084 c 0 -0.949 -0.304 -1.631 -0.914 -2.045 c -0.61 -0.423 -1.469 -0.633 -2.576 -0.633 z m 7.646 0 c -1.032 0 -1.84 0.347 -2.42 1.041 c -0.58 0.685 -0.869 1.705 -0.869 3.059 c 0 1.354 0.279 2.378 0.84 3.072 c 0.57 0.685 1.391 1.027 2.463 1.027 c 1.042 0 1.85 -0.342 2.42 -1.027 c 0.57 -0.694 0.854 -1.718 0.854 -3.072 c 0 -1.354 -0.279 -2.373 -0.84 -3.059 c -0.56 -0.694 -1.376 -1.041 -2.447 -1.041 z m 3.826 0.1 l 0 1.318 l 2.295 0 l 0 6.682 l 1.746 0 l 0 -6.682 l 2.293 0 l 0 -1.318 l -6.334 0 z m -3.826 1.258 c 0.315 0 0.616 0.073 0.803 0.217 c 0.187 0.144 0.329 0.339 0.428 0.584 c 0.108 0.245 0.178 0.537 0.207 0.875 c 0.039 0.33 0.059 0.686 0.059 1.066 c 0 0.381 -0.019 0.736 -0.059 1.066 c -0.029 0.33 -0.099 0.621 -0.207 0.875 c -0.098 0.245 -0.245 0.44 -0.441 0.584 c -0.187 0.144 -0.484 0.217 -0.789 0.217 c -0.315 0 -0.618 -0.073 -0.805 -0.217 c -0.187 -0.144 -0.333 -0.339 -0.441 -0.584 c -0.098 -0.245 -0.168 -0.533 -0.207 -0.863 c -0.029 -0.338 -0.045 -0.697 -0.045 -1.078 c 0 -0.381 0.015 -0.736 0.045 -1.066 c 0.039 -0.33 0.109 -0.618 0.207 -0.863 c 0.108 -0.254 0.255 -0.452 0.441 -0.596 c 0.187 -0.144 0.49 -0.217 0.805 -0.217 z m -7.449 0.027 c 0.46 0 0.826 0.098 1.098 0.297 c 0.281 0.19 0.422 0.519 0.422 0.984 c 0 0.492 -0.14 0.84 -0.422 1.047 c -0.281 0.198 -0.698 0.299 -1.252 0.299 l -0.705 0 l 0 -2.588 c 0.302 -0.015 0.557 -0.042 0.859 -0.039 z" style="fill:#fff"/>
</svg>
