<?xml version="1.0" encoding="UTF-8" standalone="no"?>
<svg
   xmlns:dc="http://purl.org/dc/elements/1.1/"
   xmlns:cc="http://creativecommons.org/ns#"
   xmlns:rdf="http://www.w3.org/1999/02/22-rdf-syntax-ns#"
   xmlns:svg="http://www.w3.org/2000/svg"
   xmlns="http://www.w3.org/2000/svg"
   xmlns:sodipodi="http://sodipodi.sourceforge.net/DTD/sodipodi-0.dtd"
   xmlns:inkscape="http://www.inkscape.org/namespaces/inkscape"
   width="48"
   viewBox="0 0 48 48"
   height="48"
   id="svg2"
   version="1.1"
   inkscape:version="0.91 r13725"
   sodipodi:docname="text-x-nim.svg">
  <metadata
     id="metadata16">
    <rdf:RDF>
      <cc:Work
         rdf:about="">
        <dc:format>image/svg+xml</dc:format>
        <dc:type
           rdf:resource="http://purl.org/dc/dcmitype/StillImage" />
        <dc:title />
      </cc:Work>
    </rdf:RDF>
  </metadata>
  <defs
     id="defs14" />
  <sodipodi:namedview
     pagecolor="#ffffff"
     bordercolor="#666666"
     borderopacity="1"
     objecttolerance="10"
     gridtolerance="10"
     guidetolerance="10"
     inkscape:pageopacity="0"
     inkscape:pageshadow="2"
     inkscape:window-width="1600"
     inkscape:window-height="880"
     id="namedview12"
     showgrid="false"
     inkscape:zoom="13.854167"
     inkscape:cx="24"
     inkscape:cy="24"
     inkscape:window-x="0"
     inkscape:window-y="20"
     inkscape:window-maximized="1"
     inkscape:current-layer="svg2" />
  <path
     style="fill:#efc743;fill-opacity:1"
     d="M 8,1 C 6.9714285,1 6,1.9714285 6,3 l 0,42 c 0,0.971429 1.0285714,2 2,2 l 32,0 c 0.971429,0 2,-1.028571 2,-2 L 42,14 29,1 z"
     id="path4" />
  <path
     style="fill-opacity:.196"
     d="M 29,12 29.0625,12.0625 29.21875,12 29,12 z m 2,2 11,11 0,-11 -11,0 z"
     id="path6" />
  <path
     style="fill:#fff;fill-opacity:.392"
     d="m 29,1 13,13 -11,0 c -0.971429,0 -2,-1.028571 -2,-2 L 29,1 z"
     id="path8" />
  <path
     style="fill:#ffffff;fill-opacity:1"
     d="m 23.286571,34.984824 c -1.695442,-0.145908 -3.379093,-0.62605 -4.834259,-1.37862 -1.320564,-0.682953 -2.328963,-1.533061 -2.97347,-2.506728 -1.10265,-2.362572 -1.290966,-3.276162 -2.381829,-6.342647 -0.03452,-0.08601 -0.980885,-4.000961 -0.971157,-4.017627 0.563441,0.226772 0.989701,0.407113 1.593646,0.658645 l 0.284693,-0.277408 c 0.399388,-0.389169 0.812889,-0.690229 1.406345,-1.023928 l 0.181065,-0.101816 c 0.344049,-0.729644 0.714181,-1.470635 1.08386,-2.174938 0.624344,0.469022 1.107484,0.849838 1.76058,1.356781 0.0151,0.01153 0.201885,-0.02332 0.510445,-0.0952 1.297765,-0.302384 1.988734,-0.40441 2.858087,-0.422018 l 0.469735,-0.0095 c 0.572971,-0.551293 1.147596,-1.101049 1.722887,-1.649816 0.60926,0.578763 1.070133,1.023264 1.722887,1.649817 l 0.469726,0.0095 c 0.862304,0.01747 1.548634,0.117427 2.791777,0.406615 0.264235,0.06149 0.498438,0.115315 0.520456,0.119667 0.678862,-0.463001 1.091227,-0.811297 1.829712,-1.374898 0.389934,0.762711 0.668734,1.353068 1.070417,2.182715 l 0.131329,0.07294 c 0.600656,0.333512 1.058788,0.66504 1.457176,1.054488 l 0.284921,0.278526 c 0.565762,-0.235952 1.10507,-0.459977 1.598618,-0.665125 -0.346541,1.431164 -0.682328,2.858777 -0.970462,4.002606 -0.750856,2.078938 -1.302068,3.768205 -2.132963,5.942325 -0.765844,1.420851 -2.289574,2.623674 -4.356017,3.438625 -1.052952,0.415249 -2.15476,0.690561 -3.316616,0.828734 -0.408319,0.0486 -1.4394,0.0704 -1.811596,0.03834 z m 0.711196,-8.312975 c 1.612119,0.892227 2.868945,1.612172 4.576352,2.568008 0.913641,-0.211984 1.387788,-0.379746 2.495777,-0.710247 0.629683,-0.783417 1.245584,-1.575124 1.752721,-2.431165 -0.0659,-0.194102 -0.277283,-0.604237 -0.42314,-0.821162 -0.836165,-1.243542 -2.48443,-2.313788 -4.503571,-2.924242 -1.983263,-0.599605 -4.240624,-0.722629 -6.370916,-0.347202 -2.781335,0.490159 -5.114615,1.832461 -6.069395,3.491643 -0.118368,0.205696 -0.256976,0.501567 -0.295948,0.631733 0.49085,0.882359 1.135772,1.585025 1.763747,2.399027 0.823098,0.250422 1.652028,0.491932 2.479714,0.720407 1.608734,-0.898394 2.95583,-1.667357 4.594659,-2.5768 z"
     id="path4849"
     inkscape:connector-curvature="0"
     sodipodi:nodetypes="csccccscccccccccccccccsccccsccccccccssscccc" />
</svg>
