<svg xmlns="http://www.w3.org/2000/svg" viewBox="0 0 48 48">
 <path d="m 8 1 c -1.029 0 -2 0.971 -2 2 l 0 42 c 0 0.971 1.029 2 2 2 l 32 0 c 0.971 0 2 -1.029 2 -2 l 0 -31 -13 -13 z" style="fill:#2d2d2d;fill-opacity:1"/>
 <path d="m 29 12 0.063 0.063 0.156 -0.063 -0.219 0 z m 2 2 11 11 0 -11 -11 0 z" style="fill-opacity:0.196"/>
 <path d="m 29 1 13 13 -11 0 c -0.971 0 -2 -1.029 -2 -2 l 0 -11 z" style="fill:#fff;fill-opacity:0.392"/>
 <path d="m 31.784 20.4 c -1.725 0 -2.599 0.611 -3.287 1.456 -0.688 0.845 -1.099 1.971 -1.569 2.939 -0.316 0.651 -1.024 3.068 -1.678 5.35 -0.544 1.887 -1.032 3.75 -1.844 5.414 -0.58 0.892 -1.513 1.395 -2.452 1.395 -0.33 0 -0.659 -0.062 -0.975 -0.185 1.115 1.589 3.685 4.166 6.687 -0.127 2.074 -2.976 2.768 -9.384 4.246 -11.796 1.862 -3.068 2.801 -2.346 3.03 -2.089 0.043 -0.251 0.065 -0.51 0.052 -0.761 -0.019 -0.462 -0.132 -0.816 -0.399 -1.077 -0.267 -0.265 -0.77 -0.512 -1.816 -0.512 l 0.003 -0.008 z m -14.04 2.705 c 0.443 0.515 0.799 1.169 1.014 1.938 0.479 1.724 0.571 3.863 0.678 5.746 0.055 0.944 0.111 1.819 0.199 2.506 0.072 1.073 0.483 1.803 1.321 1.879 1.014 -0.051 1.327 -1.27 1.631 -2.17 -0.457 -0.198 -1.119 -1.294 -1.631 -5.495 -0.294 -2.424 -2.02 -3.761 -3.212 -4.405 z m -2.733 0.433 c -0.219 0 -0.404 0.063 -0.551 0.168 -0.195 0.139 -0.366 0.367 -0.444 0.839 -0.113 0.716 0.366 1.51 0.815 2.14 0 0 0 -0.892 0.864 -1.334 0.47 -0.241 1.05 0.149 1.49 0.558 -0.029 -0.129 -0.062 -0.255 -0.095 -0.376 -0.352 -1.265 -1.194 -1.869 -1.846 -1.975 l -0.235 -0.02 z" style="fill:#fff;fill-opacity:1;stroke:none;fill-rule:nonzero"/>
</svg>
