<svg xmlns="http://www.w3.org/2000/svg" viewBox="0 0 48 48">
 <path d="m 8 1 c -1.029 0 -2 0.971 -2 2 l 0 42 c 0 0.971 1.029 2 2 2 l 32 0 c 0.971 0 2 -1.029 2 -2 l 0 -31 -13 -13 z" style="fill:#dda06a;fill-opacity:1"/>
 <path d="m 29 12 0.063 0.063 0.156 -0.063 -0.219 0 z m 2 2 11 11 0 -11 -11 0 z" style="fill-opacity:0.196"/>
 <path d="m 29 1 13 13 -11 0 c -0.971 0 -2 -1.029 -2 -2 l 0 -11 z" style="fill:#fff;fill-opacity:0.392"/>
 <path d="m 6 35 0 10 c 0 0.971 1.029 2 2 2 l 32 0 c 0.971 0 2 -1.029 2 -2 l 0 -10 z" style="fill:#000;fill-opacity:0.196"/>
 <path d="m 19.507 36.9 c -0.849 0 -1.678 0.073 -2.507 0.192 l 0 7.908 l 1.813 0 0 -2.814 0.651 0 c 1.18 0 2.09 -0.207 2.73 -0.622 0.649 -0.422 0.974 -1.103 0.974 -2.041 0 -0.929 -0.318 -1.597 -0.958 -2 -0.639 -0.414 -1.542 -0.621 -2.702 -0.622 z m 0.207 1.358 c 0.482 0 0.866 0.097 1.151 0.292 0.295 0.186 0.444 0.506 0.444 0.963 0 0.482 -0.149 0.823 -0.444 1.026 -0.295 0.194 -0.732 0.292 -1.313 0.292 l -0.739 0 0 -2.536 c 0.314 -0.034 0.583 -0.027 0.901 -0.036 z" style="fill:#fff;fill-opacity:1"/>
 <path d="m 18 14 0 19 2 0 0 -8 12 0 -5.5 -4.5 5.5 -4.5 l -12 0 0 -2" style="fill:#fff;opacity:1;fill-opacity:1;stroke:none"/>
 <path d="m 27.505 36.9 c -1.13 0 -2.01 0.349 -2.646 1.043 -0.635 0.685 -0.953 1.705 -0.953 3.059 0 1.354 0.305 2.376 0.918 3.07 0.624 0.685 1.525 1.029 2.698 1.029 1.141 0 2.024 -0.343 2.648 -1.029 0.624 -0.694 0.936 -1.716 0.936 -3.07 0 -1.354 -0.307 -2.373 -0.921 -3.059 c -0.613 -0.694 -1.507 -1.043 -2.68 -1.043 m 0 1.36 c 0.344 0 0.689 0.07 0.894 0.214 0.204 0.144 0.36 0.339 0.468 0.585 0.118 0.245 0.194 0.536 0.226 0.875 0.043 0.33 0.065 0.687 0.065 1.068 0 0.381 -0.022 0.736 -0.065 1.066 -0.032 0.33 -0.108 0.621 -0.226 0.875 -0.108 0.245 -0.27 0.441 -0.485 0.585 -0.204 0.144 -0.543 0.216 -0.876 0.216 -0.344 0 -0.689 -0.072 -0.894 -0.216 -0.204 -0.144 -0.364 -0.339 -0.483 -0.585 -0.108 -0.245 -0.183 -0.531 -0.226 -0.861 -0.032 -0.338 -0.05 -0.699 -0.05 -1.079 0 -0.381 0.017 -0.738 0.05 -1.068 0.043 -0.33 0.119 -0.618 0.226 -0.863 0.118 -0.254 0.278 -0.452 0.483 -0.596 0.204 -0.144 0.549 -0.214 0.894 -0.214 z" style="fill:#fff;fill-opacity:1"/>
</svg>
