<svg xmlns="http://www.w3.org/2000/svg" viewBox="0 0 48 48">
 <path d="m 8 1 c -1.029 0 -2 0.971 -2 2 l 0 42 c 0 0.971 1.029 2 2 2 l 32 0 c 0.971 0 2 -1.029 2 -2 l 0 -31 -13 -13 z" style="fill:#dcdcdc;fill-opacity:1"/>
 <path d="m 29 12 0.063 0.063 0.156 -0.063 -0.219 0 z m 2 2 11 11 0 -11 -11 0 z" style="fill-opacity:0.196"/>
 <path d="m 29 1 13 13 -11 0 c -0.971 0 -2 -1.029 -2 -2 l 0 -11 z" style="fill:#fff;fill-opacity:0.392"/>
 <g transform="matrix(0.7755988,0,0,0.7252547,-1.7500653,5.4998314)" style="fill:#3e3e3e;fill-opacity:1;stroke:none">
  <path d="m 29.332 39.3 -3.868 0 0 -8.6 c 0 -1.179 0.016 -2.123 -0.354 -2.707 -0.361 -0.595 -0.712 -0.928 -1.654 -0.928 -0.714 0 -1.336 0.23 -1.663 0.464 -0.372 0.266 -0.581 0.564 -0.815 1.022 -0.234 0.458 -0.4 1.023 -0.497 1.696 -0.097 0.673 -0.174 1.422 -0.174 2.31 l 0 6.743 -3.868 0 0 -23.44 3.868 0 0 10.132 c 0.478 -0.848 1.144 -1.457 1.885 -1.828 0.741 -0.38 1.198 -0.615 2.134 -0.615 0.809 0 1.333 0.101 1.986 0.335 0.663 0.224 1.171 0.641 1.639 1.128 0.468 0.487 0.829 1.111 1.082 1.872 0.253 0.751 0.299 1.652 0.299 2.705 z"/>
 </g>
 <path d="m 38 27 0 2 -2 0 0 2 -2 0 0 -2 -2 0 0 -2 2 0 0 -2 2 0 0 2 2 0" style="fill:#3e3e3e;fill-opacity:1"/>
 <path d="m 30 27 0 2 -2 0 l 0 2 l -2 0 0 -2 -2 0 0 -2 2 0 0 -2 l 2 0 l 0 2 2 0" style="fill:#3e3e3e;fill-opacity:1"/>
</svg>
