<svg width="48" xmlns="http://www.w3.org/2000/svg" viewBox="0 0 48 48" height="48">
<path style="fill:#dcdcdc" d="M 8,1 C 6.9714285,1 6,1.9714285 6,3 l 0,42 c 0,0.971429 1.0285714,2 2,2 l 32,0 c 0.971429,0 2,-1.028571 2,-2 L 42,14 29,1 z"/>
<path style="fill-opacity:.196" d="M 29,12 29.0625,12.0625 29.21875,12 29,12 z m 2,2 11,11 0,-11 -11,0 z"/>
<path style="fill:#fff;fill-opacity:.392" d="m 29,1 13,13 -11,0 c -0.971429,0 -2,-1.028571 -2,-2 L 29,1 z"/>
<g transform="translate(0 2)">
<path style="fill:#888" d="m 24,14 c -5.522848,0 -10,4.477152 -10,10 0,5.522848 4.477152,10 10,10 5.522848,0 10,-4.477152 10,-10 0,-5.522848 -4.477152,-10 -10,-10 z m 0,2 c 4.418278,0 8,3.581722 8,8 0,4.418278 -3.581722,8 -8,8 -4.418278,0 -8,-3.581722 -8,-8 0,-4.418278 3.581722,-8 8,-8 z"/>
</g>
<g style="fill:#888">
<path d="m 25,21.5 a 1.5,1.5 0 1 1 -3,0 1.5,1.5 0 1 1 3,0 z" transform="matrix(1.33333 0 0 1.33333 -7.33333 -6.66667)"/>
<path d="m 23,25 2,0 c 1,0 1,-0.0037 1,1 l 0,5 c 0,1 0.0037,1 -1,1 l -2,0 c -1,0 -1,0.0037 -1,-1 l 0,-5 c 0,-1 -0.0037,-1 1,-1 z"/>
</g>
</svg>
