<svg width="48" xmlns="http://www.w3.org/2000/svg" viewBox="0 0 48 48" height="48">
<path style="fill:#a4373a" d="M 8,1 C 6.9714285,1 6,1.9714285 6,3 l 0,42 c 0,0.971429 1.0285714,2 2,2 l 32,0 c 0.971429,0 2,-1.028571 2,-2 L 42,14 29,1 z"/>
<path style="fill-opacity:.196" d="M 29,12 29.0625,12.0625 29.21875,12 29,12 z m 2,2 11,11 0,-11 -11,0 z"/>
<path style="fill:#fff;fill-opacity:.392" d="m 29,1 13,13 -11,0 c -0.971429,0 -2,-1.028571 -2,-2 L 29,1 z"/>
<g style="fill:#fff" transform="matrix(.16031 0 0 .16031 3.48 33.6186)">
<path d="m 128,-109.90253 c -27.56062,0 -49.902534,6.98168 -49.902534,15.594542 v 12.475633 c 0,8.61267 22.341324,15.594541 49.902534,15.594541 27.56043,0 49.90253,-6.981871 49.90253,-15.594541 v -12.475633 c 0,-8.612862 -22.3421,-15.594542 -49.90253,-15.594542 z"/>
<path d="m 127.84269,-59.999997 c -22.34444,0 -41.179922,-4.589279 -47.538596,-10.916179 -1.484406,1.476998 -2.206628,3.048538 -2.206628,4.678362 v 12.475634 c 0,8.612865 22.341324,15.594541 49.902534,15.594541 27.56043,0 49.90253,-6.981676 49.90253,-15.594541 v -12.475634 c 0,-1.629824 -0.88031,-3.201364 -2.36472,-4.678362 -6.35847,6.3269 -25.35068,10.916179 -47.69512,10.916179 z"/>
<path d="m 127.84269,-31.929822 c -22.34444,0 -41.179922,-4.589474 -47.538596,-10.916179 -1.484406,1.476803 -2.206628,3.048538 -2.206628,4.678362 v 12.475634 c 0,8.61267 22.341324,15.594541 49.902534,15.594541 27.56043,0 49.90253,-6.981871 49.90253,-15.594541 v -12.475634 c 0,-1.629824 -0.88031,-3.201559 -2.36472,-4.678362 -6.35847,6.326705 -25.35068,10.916179 -47.69512,10.916179 z"/>
</g>
<path style="fill-opacity:.196" d="m 5.999998,35 0,10 c 0,0.971429 1.028571,2 2,2 l 32.000004,0 c 0.97143,0 2,-1.028571 2,-2 l 0,-10 z"/>
<g style="fill:#fff;word-spacing:0;line-height:125%;letter-spacing:0" transform="matrix(1.00604 0 0 .71162 -11.11748 12.91186)">
<path d="m 27.65478,41.451864 c 0.28933,2e-6 0.52733,-0.028 0.714,-0.084 0.195996,-0.06533 0.349996,-0.149331 0.462,-0.252 0.111996,-0.111998 0.186662,-0.233331 0.224,-0.364 0.04666,-0.139997 0.07,-0.279997 0.07,-0.42 -4e-6,-0.17733 -0.05134,-0.335997 -0.154,-0.476 -0.102671,-0.139997 -0.233337,-0.26133 -0.392,-0.364 -0.15867,-0.111996 -0.336004,-0.209996 -0.532,-0.294 -0.196003,-0.09333 -0.392003,-0.177329 -0.588,-0.252 -0.261336,-0.09333 -0.532002,-0.200662 -0.812,-0.322 -0.280002,-0.121329 -0.536668,-0.275328 -0.77,-0.462 -0.224001,-0.186661 -0.410667,-0.415328 -0.56,-0.686 -0.149334,-0.279994 -0.224,-0.625327 -0.224,-1.036 0,-0.811992 0.261333,-1.446658 0.784,-1.904 0.531998,-0.457324 1.259998,-0.685991 2.184,-0.686 0.531996,9e-6 0.993996,0.06068 1.386,0.182 0.401328,0.121342 0.737328,0.256676 1.008,0.406 l -0.504,1.33 c -0.233338,-0.130659 -0.494671,-0.242659 -0.784,-0.336 -0.280004,-0.09333 -0.606671,-0.139992 -0.98,-0.14 -0.914669,8e-6 -1.372002,0.331341 -1.372,0.994 -2e-6,0.168007 0.04666,0.31734 0.14,0.448 0.09333,0.12134 0.209997,0.23334 0.35,0.336 0.149331,0.09334 0.312664,0.177339 0.49,0.252 0.186663,0.07467 0.368663,0.144672 0.546,0.21 0.270663,0.102672 0.550662,0.219339 0.84,0.35 0.298662,0.121339 0.569328,0.289338 0.812,0.504 0.251994,0.205338 0.457328,0.466671 0.616,0.784 0.158661,0.308004 0.237994,0.700003 0.238,1.176 -6e-6,0.812002 -0.266006,1.442001 -0.798,1.89 -0.522672,0.438667 -1.320671,0.658 -2.394,0.658 -0.718669,0 -1.292668,-0.07467 -1.722,-0.224 -0.429334,-0.158666 -0.751334,-0.303333 -0.966,-0.434 l 0.504,-1.4 c 0.251999,0.149336 0.550665,0.289335 0.896,0.42 0.354665,0.130668 0.783997,0.196002 1.288,0.196"/>
<path d="m 31.78478,38.413864 c 0,-1.493327 0.275333,-2.617993 0.826,-3.374 0.550665,-0.765324 1.315998,-1.147991 2.296,-1.148 1.017329,9e-6 1.791995,0.382676 2.324,1.148 0.531994,0.756007 0.797994,1.880673 0.798,3.374 -6e-6,1.30667 -0.210006,2.338002 -0.63,3.094 -0.420005,0.746668 -1.026671,1.199334 -1.82,1.358 0.102663,0.233333 0.349996,0.424667 0.742,0.574 0.401328,0.158666 0.947328,0.298666 1.638,0.42 l -0.364,1.232 c -1.092005,-0.149335 -1.918004,-0.401335 -2.478,-0.756 -0.55067,-0.345334 -0.877336,-0.844667 -0.98,-1.498 -0.756002,-0.186666 -1.339334,-0.648666 -1.75,-1.386 -0.401334,-0.746664 -0.602,-1.75933 -0.602,-3.038 m 1.75,0 c -2e-6,0.420004 0.014,0.812004 0.042,1.176 0.03733,0.364003 0.102665,0.686003 0.196,0.966 0.102664,0.270669 0.242664,0.485335 0.42,0.644 0.177331,0.158668 0.41533,0.238002 0.714,0.238 0.28933,2e-6 0.522663,-0.07933 0.7,-0.238 0.186663,-0.158665 0.326662,-0.373331 0.42,-0.644 0.102662,-0.279997 0.167995,-0.601997 0.196,-0.966 0.03733,-0.363996 0.056,-0.755996 0.056,-1.176 -5e-6,-0.419995 -0.01867,-0.811994 -0.056,-1.176 -0.02801,-0.373327 -0.09334,-0.695327 -0.196,-0.966 -0.09334,-0.270659 -0.228671,-0.485326 -0.406,-0.644 -0.177337,-0.158659 -0.415337,-0.237992 -0.714,-0.238 -0.29867,8e-6 -0.536669,0.07934 -0.714,0.238 -0.177336,0.158674 -0.317336,0.378007 -0.42,0.658 -0.09333,0.270673 -0.158669,0.588006 -0.196,0.952 -0.028,0.364006 -0.042,0.756005 -0.042,1.176"/>
<path d="m 44.84678,42.711864 -5.446,0 0,-8.666 1.736,0 0,7.238 3.71,0 0,1.428"/>
</g>
</svg>
