<svg xmlns="http://www.w3.org/2000/svg" viewBox="0 0 48 48">
 <path d="m 8 1 c -1.029 0 -2 0.971 -2 2 l 0 42 c 0 0.971 1.029 2 2 2 l 32 0 c 0.971 0 2 -1.029 2 -2 l 0 -31 -13 -13 z" style="fill:#f05617;fill-opacity:1"/>
 <path d="m 29 12 0.063 0.063 0.156 -0.063 -0.219 0 z m 2 2 11 11 0 -11 -11 0 z" style="fill-opacity:0.196"/>
 <path d="m 29 1 13 13 -11 0 c -0.971 0 -2 -1.029 -2 -2 l 0 -11 z" style="fill:#fff;fill-opacity:0.392"/>
 <path d="m 6 35 0 10 c 0 0.971 1.029 2 2 2 l 32 0 c 0.971 0 2 -1.029 2 -2 l 0 -10 z" style="fill-opacity:0.196"/>
 <path d="m 23.941 14.343 c -1.149 4.391 -2.342 8.773 -3.512 13.156 -1.828 -5.05 -0.027 -0.024 -1.827 -5.05 l -3.601 0 0 1.801 2.701 0 2.701 8.08 0.343 0.009 c 0.918 -4.25 2.159 -8.429 3.284 -12.625 l 0 -0.016 c 0.696 2.532 1.378 5.068 2.053 7.604 0.633 -2.385 1.275 -4.77 1.911 -7.155 1.407 3.212 -0.027 -0.014 1.408 3.213 l 3.6 0 -0.002 -1.81 -2.701 0 c -2.303 -6.86 0 0 -2.307 -7.01 -0.636 2.368 -1.277 4.734 -1.913 7.098 -0.644 -2.434 -1.301 -4.868 -1.969 -7.295 l 0.002 0.002 z" style="fill:#fff;fill-opacity:1;stroke:none;fill-rule:nonzero"/>
 <path d="m 14.549 45 q -0.354 -0.892 -0.752 -2.02 -0.398 -1.124 -0.752 -2.236 -0.354 -1.124 -0.634 -2.12 -0.28 -0.995 -0.413 -1.628 l 1.916 0 q 0.088 0.62 0.265 1.447 0.177 0.814 0.383 1.693 0.221 0.866 0.457 1.719 0.251 0.84 0.486 1.512 0.236 -0.659 0.472 -1.499 0.236 -0.853 0.442 -1.719 0.206 -0.879 0.383 -1.706 q 0.177 -0.827 0.295 -1.447 l 1.901 0 q -0.177 0.775 -0.442 1.732 -0.251 0.956 -0.589 2.02 -0.324 1.047 -0.722 2.145 q -0.398 1.086 -0.825 2.107 l -1.872 0 z" style="fill:#fff;fill-opacity:1;stroke:none"/>
 <path d="m 20.824 37 q 0.093 0.271 0.225 0.698 0.145 0.426 0.304 0.918 0.159 0.491 0.317 0.995 0.159 0.504 0.304 0.931 0.159 -0.478 0.33 -0.982 0.172 -0.517 0.33 -0.982 0.159 -0.478 0.291 -0.892 q 0.132 -0.414 0.238 -0.685 l 1.348 0 q 0.093 1.047 0.172 2.042 0.093 0.995 0.145 1.977 0.066 0.969 0.106 1.964 q 0.04 0.982 0.066 2.02 l -1.493 0 0.079 -6.216 -1 3.386 -1.189 0 -0.965 -3.386 l 0.066 6.216 -1.493 0 q 0.04 -0.982 0.079 -2.042 0.053 -1.06 0.106 -2.107 0.053 -1.047 0.119 -2.029 q 0.079 -0.982 0.172 -1.822 l 1.348 0 z" style="fill:#fff;fill-opacity:1;stroke:none"/>
 <path d="m 27.468 43.637 q 0.06 0.013 0.131 0.013 0.072 0 0.131 0 0.501 0 0.835 -0.202 0.346 -0.202 0.549 -0.555 0.215 -0.353 0.298 -0.833 0.095 -0.492 0.095 -1.073 0 -0.505 -0.072 -0.984 -0.072 -0.479 -0.251 -0.845 -0.179 -0.366 -0.489 -0.58 -0.31 -0.227 -0.8 -0.227 -0.095 0 -0.215 0.013 -0.119 0 -0.215 0.025 l 0 5.249 z m 3.532 -2.65 q 0 1.085 -0.263 1.855 -0.251 0.757 -0.704 1.237 -0.453 0.479 -1.086 0.707 q -0.621 0.215 -1.372 0.215 -0.394 0 -0.776 -0.05 -0.37 -0.038 -0.8 -0.139 l 0 -7.621 q 0.501 -0.114 0.943 -0.151 q 0.442 -0.038 0.823 -0.038 q 0.728 0 1.325 0.227 0.609 0.227 1.026 0.719 0.418 0.479 0.644 1.237 q 0.239 0.744 0.239 1.804" style="fill:#fff;fill-opacity:1;stroke:none"/>
 <path d="m 35.435 45 q -0.124 -0.452 -0.36 -0.969 -0.225 -0.53 -0.507 -1.021 -0.282 -0.504 -0.597 -0.931 -0.304 -0.439 -0.586 -0.737 l 0 3.658 -1.385 0 l 0 -8 1.385 0 0 3.321 q 0.248 -0.362 0.518 -0.801 0.27 -0.439 0.507 -0.879 0.248 -0.439 0.45 -0.866 q 0.203 -0.426 0.338 -0.775 l 1.565 0 q -0.158 0.349 -0.383 0.801 -0.214 0.439 -0.495 0.931 -0.282 0.478 -0.608 0.982 -0.315 0.504 -0.664 0.969 0.349 0.388 0.709 0.892 0.36 0.504 0.676 1.086 0.327 0.569 0.586 1.176 q 0.259 0.595 0.417 1.163 l -1.565 0 z" style="fill:#fff;fill-opacity:1;stroke:none"/>
</svg>
