<svg xmlns="http://www.w3.org/2000/svg" viewBox="0 0 48 48">
 <path d="m 8 1 c -1.029 0 -2 0.971 -2 2 l 0 42 c 0 0.971 1.029 2 2 2 l 32 0 c 0.971 0 2 -1.029 2 -2 l 0 -31 -13 -13 z" style="fill:#a60ed7;fill-opacity:1"/>
 <path d="m 29 12 0.063 0.063 0.156 -0.063 -0.219 0 z m 2 2 11 11 0 -11 -11 0 z" style="fill-opacity:0.196"/>
 <path d="m 29 1 13 13 -11 0 c -0.971 0 -2 -1.029 -2 -2 l 0 -11 z" style="fill:#fff;fill-opacity:0.392"/>
 <path d="m 6 35 0 10 c 0 0.971 1.029 2 2 2 l 32 0 c 0.971 0 2 -1.029 2 -2 l 0 -10 z" style="fill-opacity:0.196"/>
 <path d="m 23.941 14.343 c -1.149 4.391 -2.342 8.773 -3.512 13.156 -1.828 -5.05 -0.027 -0.024 -1.827 -5.05 l -3.601 0 0 1.801 2.701 0 2.701 8.08 0.343 0.009 c 0.918 -4.25 2.159 -8.429 3.284 -12.625 l 0 -0.016 c 0.696 2.532 1.378 5.068 2.053 7.604 0.633 -2.385 1.275 -4.77 1.911 -7.155 1.407 3.212 -0.027 -0.014 1.408 3.213 l 3.6 0 -0.002 -1.81 -2.701 0 c -2.303 -6.86 0 0 -2.307 -7.01 -0.636 2.368 -1.277 4.734 -1.913 7.098 -0.644 -2.434 -1.301 -4.868 -1.969 -7.295 l 0.002 0.002 z" style="fill:#fff;fill-opacity:1;stroke:none;fill-rule:nonzero"/>
 <g>
  <path d="m 14.962 41 q 0 0.557 0.047 1.053 0.063 0.483 0.22 0.842 0.173 0.359 0.471 0.57 0.298 0.211 0.8 0.211 0.487 0 0.785 -0.211 0.314 -0.211 0.471 -0.57 0.173 -0.372 0.22 -0.854 0.063 -0.483 0.063 -1.04 0 -0.557 -0.063 -1.04 -0.047 -0.495 -0.22 -0.854 -0.157 -0.359 -0.455 -0.57 -0.298 -0.211 -0.8 -0.211 -0.502 0 -0.8 0.211 -0.298 0.211 -0.471 0.582 -0.157 0.359 -0.22 0.842 q -0.047 0.483 -0.047 1.04 m -1.962 0 q 0 -1.981 0.926 -2.985 0.926 -1.015 2.574 -1.015 1.711 0 2.605 1.015 0.895 1 0.895 2.985 0 1.981 -0.91 2.997 -0.91 1 -2.574 1 -1.711 0 -2.621 -1 -0.895 -1.015 -0.895 -2.997" style="fill:#fff;fill-opacity:1;stroke:none"/>
  <path d="m 23.549 45 q -0.354 -0.892 -0.752 -2.02 -0.398 -1.124 -0.752 -2.236 -0.354 -1.124 -0.634 -2.12 -0.28 -0.995 -0.413 -1.628 l 1.916 0 q 0.088 0.62 0.265 1.447 0.177 0.814 0.383 1.693 0.221 0.866 0.457 1.719 0.251 0.84 0.486 1.512 0.236 -0.659 0.472 -1.499 0.236 -0.853 0.442 -1.719 0.206 -0.879 0.383 -1.706 0.177 -0.827 0.295 -1.447 l 1.901 0 q -0.177 0.775 -0.442 1.732 -0.251 0.956 -0.589 2.02 -0.324 1.047 -0.722 2.145 -0.398 1.086 -0.825 2.107 l -1.872 0 z" style="fill:#fff;fill-opacity:1;stroke:none"/>
  <path d="m 29 45 0 -8 6 0 0 1.318 -4.053 0 0 1.523 3.546 0 0 1.318 -3.546 0 0 3.841 z" style="fill:#fff;fill-opacity:1;stroke:none"/>
 </g>
</svg>
