<svg xmlns="http://www.w3.org/2000/svg" viewBox="0 0 48 48">
 <path d="m 8 1 c -1.029 0 -2 0.971 -2 2 l 0 42 c 0 0.971 1.029 2 2 2 l 32 0 c 0.971 0 2 -1.029 2 -2 l 0 -31 -13 -13 z" style="fill:#14aae9;fill-opacity:1"/>
 <path d="m 29 12 0.063 0.063 0.156 -0.063 -0.219 0 z m 2 2 11 11 0 -11 -11 0 z" style="fill-opacity:0.196"/>
 <path d="m 29 1 13 13 -11 0 c -0.971 0 -2 -1.029 -2 -2 l 0 -11 z" style="fill:#fff;fill-opacity:0.392"/>
 <path d="m 6 35 0 10 c 0 0.971 1.029 2 2 2 l 32 0 c 0.971 0 2 -1.029 2 -2 l 0 -10 z" style="fill-opacity:0.196"/>
 <path d="m 23.941 14.343 c -1.149 4.391 -2.342 8.773 -3.512 13.156 -1.828 -5.05 -0.027 -0.024 -1.827 -5.05 l -3.601 0 0 1.801 2.701 0 2.701 8.08 0.343 0.009 c 0.918 -4.25 2.159 -8.429 3.284 -12.625 l 0 -0.016 c 0.696 2.532 1.378 5.068 2.053 7.604 0.633 -2.385 1.275 -4.77 1.911 -7.155 1.407 3.212 -0.027 -0.014 1.408 3.213 l 3.6 0 -0.002 -1.81 -2.701 0 c -2.303 -6.86 0 0 -2.307 -7.01 -0.636 2.368 -1.277 4.734 -1.913 7.098 -0.644 -2.434 -1.301 -4.868 -1.969 -7.295 l 0.002 0.002 z" style="fill:#fff;fill-opacity:1;stroke:none;fill-rule:nonzero"/>
 <g>
  <path d="m 14.185 45 q -0.303 -0.892 -0.644 -2.02 -0.341 -1.124 -0.644 -2.236 -0.303 -1.124 -0.543 -2.12 -0.24 -0.995 -0.354 -1.628 l 1.642 0 q 0.076 0.62 0.227 1.447 0.152 0.814 0.328 1.693 0.189 0.866 0.392 1.719 0.215 0.84 0.417 1.512 0.202 -0.659 0.404 -1.499 0.202 -0.853 0.379 -1.719 0.177 -0.879 0.328 -1.706 q 0.152 -0.827 0.253 -1.447 l 1.629 0 q -0.152 0.775 -0.379 1.732 -0.215 0.956 -0.505 2.02 -0.278 1.047 -0.619 2.145 q -0.341 1.086 -0.707 2.107 l -1.604 0 z" style="fill:#fff;fill-opacity:1;stroke:none"/>
  <path d="m 24 42.539 q 0 0.707 -0.229 1.186 -0.229 0.467 -0.627 0.757 -0.386 0.278 -0.928 0.404 q -0.53 0.114 -1.145 0.114 -0.494 0 -1.024 -0.063 -0.53 -0.05 -1.048 -0.164 l 0 -7.584 q 0.422 -0.076 0.928 -0.126 0.506 -0.063 1 -0.063 0.843 0 1.373 0.189 0.53 0.177 0.831 0.479 0.301 0.29 0.41 0.656 0.108 0.366 0.108 0.732 0 0.555 -0.265 0.984 -0.253 0.429 -0.687 0.681 0.759 0.29 1.024 0.782 q 0.277 0.492 0.277 1.035 m -3.518 -1.06 0 2.12 q 0.157 0.025 0.337 0.038 0.193 0.013 0.373 0.013 0.253 0 0.494 -0.038 0.241 -0.05 0.422 -0.164 0.193 -0.126 0.313 -0.341 0.12 -0.227 0.12 -0.568 0 -0.568 -0.349 -0.808 -0.337 -0.252 -0.916 -0.252 l -0.795 0 z m 0.578 -1.287 q 0.566 0 0.855 -0.252 0.289 -0.265 0.289 -0.719 0 -0.278 -0.084 -0.442 -0.084 -0.177 -0.229 -0.265 -0.145 -0.101 -0.337 -0.126 -0.193 -0.038 -0.398 -0.038 -0.169 0 -0.349 0.013 -0.181 0.013 -0.325 0.038 l 0 1.792 0.578 0 z" style="fill:#fff;fill-opacity:1;stroke:none"/>
  <path d="m 26.401 41 q 0 0.557 0.034 1.053 0.045 0.483 0.157 0.842 0.123 0.359 0.336 0.57 0.213 0.211 0.572 0.211 0.348 0 0.561 -0.211 0.224 -0.211 0.336 -0.57 0.123 -0.372 0.157 -0.854 q 0.045 -0.483 0.045 -1.04 q 0 -0.557 -0.045 -1.04 -0.034 -0.495 -0.157 -0.854 -0.112 -0.359 -0.325 -0.57 -0.213 -0.211 -0.572 -0.211 -0.359 0 -0.572 0.211 -0.213 0.211 -0.336 0.582 -0.112 0.359 -0.157 0.842 q -0.034 0.483 -0.034 1.04 m -1.401 0 q 0 -1.981 0.661 -2.985 0.661 -1.015 1.839 -1.015 1.222 0 1.861 1.015 0.639 1 0.639 2.985 0 1.981 -0.65 2.997 -0.65 1 -1.839 1 -1.222 0 -1.872 -1 -0.639 -1.015 -0.639 -2.997" style="fill:#fff;fill-opacity:1;stroke:none"/>
  <path d="m 35.33 45 q -0.238 -0.659 -0.59 -1.46 -0.339 -0.801 -0.715 -1.603 -0.364 0.763 -0.728 1.59 -0.364 0.814 -0.628 1.473 l -1.669 0 q 0.126 -0.349 0.364 -0.84 0.251 -0.491 0.54 -1.06 0.301 -0.569 0.628 -1.163 0.326 -0.607 0.628 -1.163 l -2.033 -3.774 1.669 0 1.23 2.559 1.293 -2.559 l 1.556 0 -1.983 3.735 q 0.339 0.556 0.665 1.163 0.326 0.607 0.603 1.189 0.289 0.569 0.502 1.073 q 0.213 0.491 0.339 0.84 l -1.669 0 z" style="fill:#fff;fill-opacity:1;stroke:none"/>
 </g>
</svg>
