<svg width="48" xmlns="http://www.w3.org/2000/svg" viewBox="0 0 48 48" height="48">
<path style="fill:#207245" d="M 8,1 C 6.9714285,1 6,1.9714285 6,3 l 0,42 c 0,0.971429 1.0285714,2 2,2 l 32,0 c 0.971429,0 2,-1.028571 2,-2 L 42,14 29,1 z"/>
<path style="fill-opacity:.196" d="M 29,12 29.0625,12.0625 29.21875,12 29,12 z m 2,2 11,11 0,-11 -11,0 z"/>
<path style="fill:#fff;fill-opacity:.392" d="m 29,1 13,13 -11,0 c -0.971429,0 -2,-1.028571 -2,-2 L 29,1 z"/>
<path style="fill-opacity:.196" d="m 6,35 0,10 c 0,0.971429 1.028571,2 2,2 l 32,0 c 0.971429,0 2,-1.028571 2,-2 l 0,-10 z"/>
<g style="fill:#fff">
<g transform="matrix(-.19998 0 0 .22916 49.20338 38.1654)">
<path style="line-height:normal;color:#000" d="m 76.026806,-87.998825 c 0,30.716158 -0.0039,34.460917 -0.0039,61.093925 35.103874,0 69.648974,0 100.007874,0 0,-30.716158 -0.004,-34.460917 -0.004,-61.093925 -34.71345,0 -70.24444,0 -100,0 z m 9.999998,8.727556 45.000006,0 0,17.455111 -45.000006,0 z m 55.000006,0 25,0 0,17.455111 -25,0 z m -55.000006,26.182667 45.000006,0 0,17.455112 -45.000006,0 z m 55.000006,0 25,0 0,17.455112 -25,0 z"/>
</g>
<g style="word-spacing:0;line-height:125%;letter-spacing:0" transform="scale(1.05573 .94721)">
<path d="m 17.771337,47.337955 c -0.165609,-0.444516 -0.370435,-0.93697 -0.614479,-1.477364 -0.235336,-0.54039 -0.483742,-1.080783 -0.745219,-1.621178 -0.252767,0.514247 -0.505532,1.050282 -0.758293,1.608104 -0.252767,0.54911 -0.470667,1.045922 -0.653701,1.490438 l -1.738845,0 c 0.08716,-0.235332 0.213542,-0.518602 0.379147,-0.849811 0.17432,-0.331207 0.361714,-0.688563 0.562183,-1.072069 0.209183,-0.383502 0.427083,-0.775723 0.653701,-1.176662 0.226614,-0.409649 0.444514,-0.801869 0.653701,-1.176662 l -2.117991,-3.817613 1.738844,0 1.281254,2.588656 1.346624,-2.588656 1.621178,0 -2.065695,3.778391 c 0.235328,0.374793 0.466302,0.767013 0.692923,1.176662 0.226611,0.409655 0.435795,0.810592 0.627553,1.20281 0.200463,0.383506 0.374783,0.74522 0.522961,1.085143 0.148166,0.331209 0.265832,0.614479 0.352998,0.849811 l -1.738844,0"/>
<path d="m 25.668044,47.337955 -5.085793,0 0,-8.092817 1.621178,0 0,6.759268 3.464615,0 0,1.333549"/>
<path d="m 29.224177,46.161294 c 0.270193,1e-6 0.492451,-0.02615 0.666775,-0.07844 0.183032,-0.06101 0.326846,-0.139455 0.431443,-0.235333 0.104588,-0.10459 0.174316,-0.217898 0.209184,-0.339924 0.04358,-0.130738 0.06537,-0.261478 0.06537,-0.392221 -4e-6,-0.165602 -0.04794,-0.313774 -0.143814,-0.444516 -0.09588,-0.130738 -0.217905,-0.244046 -0.366073,-0.339925 -0.148176,-0.104589 -0.31378,-0.196107 -0.496812,-0.274554 -0.18304,-0.08716 -0.366076,-0.165601 -0.549109,-0.235332 -0.244051,-0.08716 -0.496815,-0.187391 -0.758293,-0.300703 -0.261482,-0.113304 -0.501173,-0.257118 -0.719071,-0.431443 -0.209186,-0.174315 -0.383506,-0.387857 -0.522961,-0.640626 -0.139457,-0.261476 -0.209185,-0.583968 -0.209184,-0.967478 -10e-7,-0.758286 0.244047,-1.350975 0.732145,-1.778066 0.496811,-0.427077 1.176659,-0.640619 2.039547,-0.640627 0.496808,8e-6 0.928251,0.05666 1.294327,0.169962 0.374784,0.113316 0.68856,0.239698 0.94133,0.379147 l -0.470665,1.242031 c -0.217905,-0.122017 -0.461953,-0.226609 -0.732145,-0.313776 -0.261485,-0.08715 -0.566545,-0.130733 -0.915181,-0.13074 -0.854172,7e-6 -1.281256,0.309425 -1.281254,0.928255 -2e-6,0.156894 0.04358,0.29635 0.13074,0.418369 0.08716,0.113313 0.196108,0.217905 0.326851,0.313776 0.139453,0.08717 0.291983,0.165609 0.45759,0.235332 0.174317,0.06973 0.344279,0.135103 0.509887,0.196111 0.25276,0.09588 0.51424,0.204831 0.784441,0.32685 0.278908,0.113313 0.531672,0.270201 0.758293,0.470665 0.235327,0.191756 0.427079,0.435804 0.575257,0.732145 0.148166,0.287631 0.222252,0.653703 0.222258,1.098217 -6e-6,0.758295 -0.248412,1.346625 -0.745219,1.764993 -0.488101,0.409652 -1.23332,0.614479 -2.235657,0.614479 -0.671135,0 -1.207169,-0.06973 -1.608104,-0.209185 -0.400938,-0.148172 -0.70164,-0.28327 -0.902108,-0.405294 l 0.470665,-1.307402 c 0.235331,0.139458 0.514243,0.270198 0.836737,0.392221 0.331207,0.122025 0.732143,0.183037 1.20281,0.183036"/>
</g>
</g>
</svg>
