<svg xmlns="http://www.w3.org/2000/svg" viewBox="0 0 48 48">
 <path d="m 8 1 c -1.029 0 -2 0.971 -2 2 l 0 42 c 0 0.971 1.029 2 2 2 l 32 0 c 0.971 0 2 -1.029 2 -2 l 0 -31 -13 -13 z" style="fill:#3468ce"/>
 <path d="m 29 12 0.063 0.063 0.156 -0.063 -0.219 0 z m 2 2 11 11 0 -11 -11 0 z" style="fill-opacity:0.196"/>
 <path d="m 29 1 13 13 -11 0 c -0.971 0 -2 -1.029 -2 -2 l 0 -11 z" style="fill:#fff;fill-opacity:0.392"/>
 <path d="m 6 35 0 10 c 0 0.971 1.029 2 2 2 l 32 0 c 0.971 0 2 -1.029 2 -2 l 0 -10 z" style="fill-opacity:0.196"/>
 <g transform="scale(1.06834 .93603)" style="fill:#fff">
  <path d="m 14.732 46.58 c 0.044 0.009 0.093 0.013 0.146 0.013 0.053 0 0.101 0 0.146 0 0.37 0 0.679 -0.071 0.926 -0.212 0.256 -0.141 0.459 -0.335 0.609 -0.582 0.159 -0.247 0.269 -0.538 0.331 -0.873 0.071 -0.344 0.106 -0.719 0.106 -1.125 0 -0.353 -0.026 -0.697 -0.079 -1.032 -0.053 -0.335 -0.146 -0.631 -0.278 -0.886 -0.132 -0.256 -0.313 -0.459 -0.542 -0.609 -0.229 -0.159 -0.525 -0.238 -0.886 -0.238 -0.071 0 -0.15 0.004 -0.238 0.013 -0.088 0 -0.168 0.009 -0.238 0.026 l 0 5.504 m 3.916 -2.778 c 0 0.759 -0.097 1.407 -0.291 1.945 -0.185 0.529 -0.445 0.961 -0.781 1.297 -0.335 0.335 -0.736 0.582 -1.204 0.741 -0.459 0.15 -0.966 0.225 -1.521 0.225 -0.291 0 -0.578 -0.018 -0.86 -0.053 -0.273 -0.026 -0.569 -0.075 -0.886 -0.146 l 0 -7.991 c 0.37 -0.079 0.719 -0.132 1.045 -0.159 0.326 -0.026 0.631 -0.04 0.913 -0.04 0.538 0 1.028 0.079 1.469 0.238 0.45 0.159 0.829 0.41 1.138 0.754 0.309 0.335 0.547 0.767 0.714 1.297 0.176 0.52 0.265 1.151 0.265 1.892"/>
  <path d="m 21.02 43.802 c 0 0.397 0.013 0.772 0.04 1.125 0.035 0.344 0.097 0.644 0.185 0.9 0.097 0.256 0.229 0.459 0.397 0.609 0.168 0.15 0.392 0.225 0.675 0.225 0.273 0 0.494 -0.075 0.662 -0.225 0.176 -0.15 0.309 -0.353 0.397 -0.609 0.097 -0.265 0.159 -0.569 0.185 -0.913 0.035 -0.344 0.053 -0.714 0.053 -1.111 0 -0.397 -0.018 -0.767 -0.053 -1.111 -0.026 -0.353 -0.088 -0.657 -0.185 -0.913 -0.088 -0.256 -0.216 -0.459 -0.384 -0.609 -0.168 -0.15 -0.392 -0.225 -0.675 -0.225 -0.282 0 -0.507 0.075 -0.675 0.225 -0.168 0.15 -0.3 0.357 -0.397 0.622 -0.088 0.256 -0.15 0.556 -0.185 0.9 -0.026 0.344 -0.04 0.714 -0.04 1.111 m -1.654 0 c 0 -1.411 0.26 -2.474 0.781 -3.188 0.52 -0.723 1.244 -1.085 2.17 -1.085 0.961 0 1.693 0.362 2.196 1.085 0.503 0.714 0.754 1.777 0.754 3.188 0 1.411 -0.256 2.478 -0.767 3.202 -0.512 0.714 -1.235 1.072 -2.17 1.072 -0.961 0 -1.698 -0.357 -2.209 -1.072 -0.503 -0.723 -0.754 -1.79 -0.754 -3.202"/>
  <path d="m 29.536 48.07 c -1.155 0 -2.037 -0.37 -2.646 -1.111 -0.609 -0.741 -0.913 -1.795 -0.913 -3.162 0 -0.679 0.093 -1.283 0.278 -1.813 0.185 -0.529 0.441 -0.975 0.767 -1.336 0.335 -0.37 0.728 -0.648 1.177 -0.834 0.459 -0.194 0.957 -0.291 1.495 -0.291 0.291 0 0.551 0.026 0.781 0.079 0.238 0.044 0.445 0.097 0.622 0.159 0.176 0.062 0.322 0.128 0.437 0.198 0.123 0.071 0.216 0.123 0.278 0.159 l -0.423 1.297 c -0.203 -0.132 -0.45 -0.243 -0.741 -0.331 -0.282 -0.097 -0.609 -0.146 -0.979 -0.146 -0.256 0 -0.507 0.049 -0.754 0.146 -0.238 0.088 -0.454 0.243 -0.648 0.463 -0.185 0.212 -0.34 0.498 -0.463 0.86 -0.115 0.362 -0.172 0.811 -0.172 1.349 0 0.935 0.159 1.654 0.476 2.157 0.326 0.494 0.856 0.741 1.588 0.741 0.423 0 0.772 -0.049 1.045 -0.146 0.282 -0.097 0.507 -0.194 0.675 -0.291 l 0.41 1.283 c -0.229 0.141 -0.542 0.273 -0.939 0.397 -0.388 0.115 -0.838 0.172 -1.349 0.172"/>
 </g>
 <rect ry="0.601" height="7" rx="0.579" y="16" x="15" width="8" style="fill:#f9f9f9;fill-opacity:1"/>
 <path d="m 25.5 16.5 6 0" style="stroke-opacity:1;fill:#f9f9f9;fill-opacity:1;stroke:#f9f9f9;stroke-linecap:round;stroke-linejoin:round;stroke-dashoffset:0.774"/>
 <path d="m 15.5 25.5 16 0" style="stroke-opacity:1;fill:#f9f9f9;fill-opacity:1;stroke:#f9f9f9;stroke-linecap:round;stroke-linejoin:round;stroke-dashoffset:0.774"/>
 <path d="m 15.5 28.5 16 0" style="stroke-opacity:1;fill:#f9f9f9;fill-opacity:1;stroke:#f9f9f9;stroke-linecap:round;stroke-linejoin:round;stroke-dashoffset:0.774"/>
 <path d="m 15.5 31.5 16 0" style="stroke-opacity:1;fill:#f9f9f9;fill-opacity:1;stroke:#f9f9f9;stroke-linecap:round;stroke-linejoin:round;stroke-dashoffset:0.774"/>
 <path d="m 25.5 19.5 6 0" style="stroke-opacity:1;fill:#f9f9f9;fill-opacity:1;stroke:#f9f9f9;stroke-linecap:round;stroke-linejoin:round;stroke-dashoffset:0.774"/>
 <path d="m 25.5 22.5 6 0" style="stroke-opacity:1;fill:#f9f9f9;fill-opacity:1;stroke:#f9f9f9;stroke-linecap:round;stroke-linejoin:round;stroke-dashoffset:0.774"/>
</svg>
