<svg width="48" xmlns="http://www.w3.org/2000/svg" viewBox="0 0 48 48" height="48">
<path style="fill:#207245" d="M 8 1 C 6.9714285 1 6 1.9714285 6 3 L 6 14 L 6 45 C 6 45.971429 7.0285714 47 8 47 L 40 47 C 40.971429 47 42 45.971429 42 45 L 42 14 L 42 3 C 42 1.9714285 41.028571 1 40 1 L 29 1 L 19 1 L 8 1 z "/>
<path style="fill-opacity:.196" d="m 6,35 0,10 c 0,0.971429 1.028571,2 2,2 l 32,0 c 0.971429,0 2,-1.028571 2,-2 l 0,-10 z"/>
<g style="fill:#fff">
<g transform="matrix(-.19998 0 0 .22916 49.20338 38.1654)">
<path style="line-height:normal;color:#000" d="m 76.030529,-92.361415 c 0,30.716158 -0.0039,34.460917 -0.0039,61.093925 35.103871,0 69.648971,0 100.007871,0 0,-30.716158 -0.004,-34.460917 -0.004,-61.093925 -34.71345,0 -70.24444,0 -99.999997,0 z m 9.999998,8.727556 45.000003,0 0,17.455111 -45.000003,0 z m 55.000003,0 25,0 0,17.455111 -25,0 z m -55.000003,26.182667 45.000003,0 0,17.455112 -45.000003,0 z m 55.000003,0 25,0 0,17.455112 -25,0 z"/>
</g>
<g style="word-spacing:0;line-height:125%;letter-spacing:0" transform="scale(1.02812 .97265)">
<path d="M 18.201253,46.265503 C 18.03294,45.813727 17.824769,45.313231 17.576739,44.764012 17.33756,44.214797 17.085097,43.66558 16.81935,43.116359 c -0.256895,0.522646 -0.513787,1.067434 -0.770676,1.634366 -0.256895,0.558077 -0.478353,1.063002 -0.664376,1.514778 l -1.767241,0 c 0.08858,-0.239175 0.217029,-0.527071 0.385338,-0.863689 0.177166,-0.336616 0.367621,-0.699808 0.571364,-1.089577 0.212599,-0.389766 0.434057,-0.788391 0.664376,-1.195878 0.230315,-0.416339 0.451774,-0.814964 0.664376,-1.195877 l -2.152579,-3.879958 1.767241,0 1.302177,2.63093 1.368616,-2.63093 1.647653,0 -2.099429,3.840095 c 0.239171,0.380913 0.473917,0.779539 0.704239,1.195878 0.230312,0.416345 0.442912,0.823829 0.637801,1.222452 0.203736,0.389769 0.380903,0.75739 0.531501,1.102865 0.150586,0.336618 0.270173,0.624514 0.358763,0.863689 l -1.767241,0"/>
<path d="m 26.226919,46.265503 -5.168848,0 0,-8.224979 1.647654,0 0,6.869651 3.521194,0 0,1.355328"/>
<path d="m 33.069995,38.040524 0,1.355328 -2.165867,0 0,6.869651 -1.647653,0 0,-6.869651 -2.165867,0 0,-1.355328 5.979387,0"/>
</g>
</g>
</svg>
