<svg xmlns="http://www.w3.org/2000/svg" viewBox="0 0 48 48">
 <path d="m 8 1 c -1.029 0 -2 0.971 -2 2 l 0 11 l 0 31 c 0 0.971 1.029 2 2 2 l 32 0 c 0.971 0 2 -1.029 2 -2 l 0 -31 l 0 -11 c 0 -1.029 -0.971 -2 -2 -2 l -11 0 l -10 0 l -11 0 z" style="fill:#3468ce"/>
 <path d="m 6 35 0 10 c 0 0.971 1.029 2 2 2 l 32 0 c 0.971 0 2 -1.029 2 -2 l 0 -10 z" style="fill-opacity:0.196"/>
 <g transform="scale(1.06608 .93802)" style="fill:#fff">
  <path d="m 14.756 46.48 c 0.044 0.009 0.092 0.013 0.145 0.013 0.053 0 0.101 0 0.145 0 0.37 0 0.678 -0.07 0.924 -0.211 0.255 -0.141 0.458 -0.334 0.607 -0.581 0.158 -0.246 0.268 -0.537 0.33 -0.871 0.07 -0.343 0.106 -0.717 0.106 -1.122 0 -0.352 -0.026 -0.695 -0.079 -1.03 -0.053 -0.334 -0.145 -0.629 -0.277 -0.885 -0.132 -0.255 -0.312 -0.458 -0.541 -0.607 -0.229 -0.158 -0.524 -0.238 -0.885 -0.238 -0.07 0 -0.15 0.004 -0.238 0.013 -0.088 0 -0.167 0.009 -0.238 0.026 l 0 5.492 m 3.908 -2.772 c 0 0.757 -0.097 1.404 -0.29 1.941 -0.185 0.528 -0.444 0.959 -0.779 1.294 -0.334 0.334 -0.735 0.581 -1.201 0.739 -0.458 0.15 -0.964 0.224 -1.518 0.224 -0.29 0 -0.576 -0.018 -0.858 -0.053 -0.273 -0.026 -0.568 -0.075 -0.885 -0.145 l 0 -7.974 c 0.37 -0.079 0.717 -0.132 1.043 -0.158 0.326 -0.026 0.629 -0.04 0.911 -0.04 0.537 0 1.025 0.079 1.465 0.238 0.449 0.158 0.827 0.409 1.135 0.753 0.308 0.334 0.546 0.766 0.713 1.294 0.176 0.519 0.264 1.149 0.264 1.888"/>
  <path d="m 21.03 43.709 c 0 0.396 0.013 0.77 0.04 1.122 0.035 0.343 0.097 0.643 0.185 0.898 0.097 0.255 0.229 0.458 0.396 0.607 0.167 0.15 0.392 0.224 0.673 0.224 0.273 0 0.493 -0.075 0.66 -0.224 0.176 -0.15 0.308 -0.352 0.396 -0.607 0.097 -0.264 0.158 -0.568 0.185 -0.911 0.035 -0.343 0.053 -0.713 0.053 -1.109 0 -0.396 -0.018 -0.766 -0.053 -1.109 -0.026 -0.352 -0.088 -0.656 -0.185 -0.911 -0.088 -0.255 -0.216 -0.458 -0.383 -0.607 -0.167 -0.15 -0.392 -0.224 -0.673 -0.224 -0.282 0 -0.506 0.075 -0.673 0.224 -0.167 0.15 -0.299 0.356 -0.396 0.621 -0.088 0.255 -0.15 0.554 -0.185 0.898 -0.026 0.343 -0.04 0.713 -0.04 1.109 m -1.65 0 c 0 -1.408 0.26 -2.469 0.779 -3.182 0.519 -0.722 1.241 -1.083 2.165 -1.083 0.959 0 1.69 0.361 2.192 1.083 0.502 0.713 0.753 1.774 0.753 3.182 0 1.408 -0.255 2.473 -0.766 3.195 -0.51 0.713 -1.232 1.069 -2.165 1.069 -0.959 0 -1.694 -0.356 -2.205 -1.069 -0.502 -0.722 -0.753 -1.787 -0.753 -3.195"/>
  <path d="m 31.893 39.63 0 1.347 -2.152 0 0 6.826 -1.637 0 0 -6.826 -2.152 0 0 -1.347 5.941 0"/>
 </g>
 <rect ry="0.601" height="7" rx="0.579" y="15" x="15" width="8" style="fill:#f9f9f9;fill-opacity:1"/>
 <path d="m 25.5 15.5 6 0" style="stroke-opacity:1;fill:#f9f9f9;fill-opacity:1;stroke:#f9f9f9;stroke-linecap:round;stroke-linejoin:round;stroke-dashoffset:0.774"/>
 <path d="m 15.5 24.5 16 0" style="stroke-opacity:1;fill:#f9f9f9;fill-opacity:1;stroke:#f9f9f9;stroke-linecap:round;stroke-linejoin:round;stroke-dashoffset:0.774"/>
 <path d="m 15.5 27.5 16 0" style="stroke-opacity:1;fill:#f9f9f9;fill-opacity:1;stroke:#f9f9f9;stroke-linecap:round;stroke-linejoin:round;stroke-dashoffset:0.774"/>
 <path d="m 15.5 30.5 16 0" style="stroke-opacity:1;fill:#f9f9f9;fill-opacity:1;stroke:#f9f9f9;stroke-linecap:round;stroke-linejoin:round;stroke-dashoffset:0.774"/>
 <path d="m 25.5 18.5 6 0" style="stroke-opacity:1;fill:#f9f9f9;fill-opacity:1;stroke:#f9f9f9;stroke-linecap:round;stroke-linejoin:round;stroke-dashoffset:0.774"/>
 <path d="m 25.5 21.5 6 0" style="stroke-opacity:1;fill:#f9f9f9;fill-opacity:1;stroke:#f9f9f9;stroke-linecap:round;stroke-linejoin:round;stroke-dashoffset:0.774"/>
</svg>
