<svg xmlns="http://www.w3.org/2000/svg" viewBox="0 0 48 48">
 <path d="m 8 1 c -1.029 0 -2 0.971 -2 2 l 0 42 c 0 0.971 1.029 2 2 2 l 32 0 c 0.971 0 2 -1.029 2 -2 l 0 -31 -13 -13 z" style="fill:#d24726"/>
 <path d="m 29 12 0.063 0.063 0.156 -0.063 -0.219 0 z m 2 2 11 11 0 -11 -11 0 z" style="fill-opacity:0.196"/>
 <path d="m 29 1 13 13 -11 0 c -0.971 0 -2 -1.029 -2 -2 l 0 -11 z" style="fill:#fff;fill-opacity:0.392"/>
 <path d="m 6 35 0 10 c 0 0.971 1.029 2 2 2 l 32 0 c 0.971 0 2 -1.029 2 -2 l 0 -10 z" style="fill-opacity:0.196"/>
 <g transform="scale(1.04945 .95288)" style="fill:#fff">
  <path d="m 15.62 38.83 c 1.055 0 1.873 0.219 2.454 0.657 0.581 0.429 0.872 1.136 0.872 2.119 0 0.992 -0.295 1.712 -0.885 2.159 -0.581 0.438 -1.408 0.657 -2.481 0.657 l -0.59 0 0 2.803 -1.65 0 0 -8.194 c 0.161 -0.036 0.34 -0.067 0.536 -0.094 0.206 -0.027 0.411 -0.045 0.617 -0.054 0.206 -0.018 0.407 -0.031 0.604 -0.04 0.197 -0.009 0.371 -0.013 0.523 -0.013 m 0.188 1.435 c -0.098 0 -0.237 0.005 -0.416 0.013 -0.17 0 -0.304 0.009 -0.402 0.027 l 0 2.682 0.671 0 c 0.528 0 0.925 -0.103 1.194 -0.308 0.268 -0.215 0.402 -0.577 0.402 -1.086 0 -0.483 -0.134 -0.823 -0.402 -1.019 -0.259 -0.206 -0.608 -0.308 -1.046 -0.308"/>
  <path d="m 22.326 38.83 c 1.055 0 1.873 0.219 2.454 0.657 0.581 0.429 0.872 1.136 0.872 2.119 0 0.992 -0.295 1.712 -0.885 2.159 -0.581 0.438 -1.408 0.657 -2.481 0.657 l -0.59 0 0 2.803 -1.65 0 0 -8.194 c 0.161 -0.036 0.34 -0.067 0.536 -0.094 0.206 -0.027 0.411 -0.045 0.617 -0.054 0.206 -0.018 0.407 -0.031 0.604 -0.04 0.197 -0.009 0.371 -0.013 0.523 -0.013 m 0.188 1.435 c -0.098 0 -0.237 0.005 -0.416 0.013 -0.17 0 -0.304 0.009 -0.402 0.027 l 0 2.682 0.671 0 c 0.528 0 0.925 -0.103 1.194 -0.308 0.268 -0.215 0.402 -0.577 0.402 -1.086 0 -0.483 -0.134 -0.823 -0.402 -1.019 -0.259 -0.206 -0.608 -0.308 -1.046 -0.308"/>
  <path d="m 32.398 38.923 0 1.368 -2.186 0 0 6.934 -1.663 0 0 -6.934 -2.186 0 0 -1.368 6.04 0"/>
 </g>
 <path d="m 12 17 7 0 0 5 -7 0 z" style="fill:#fff"/>
 <path d="m 12 25 7 0 0 5 l -7 0 z" style="fill:#fff"/>
 <path d="m 30 17 0 6 6 0 c 0 -3.314 -2.686 -6 -6 -6 z" style="fill:#fff"/>
 <path d="m 29 18 c -4 0 -7 2.91 -7 6.5 0 3.59 2.91 6.5 6.5 6.5 3.59 0 6.5 -3 6.5 -7 l -6 0 z" style="fill:#fff"/>
</svg>
