<svg xmlns="http://www.w3.org/2000/svg" viewBox="0 0 48 48">
 <path d="m 8 1 c -1.029 0 -2 0.971 -2 2 l 0 11 l 0 31 c 0 0.971 1.029 2 2 2 l 32 0 c 0.971 0 2 -1.029 2 -2 l 0 -31 l 0 -11 c 0 -1.029 -0.971 -2 -2 -2 l -11 0 l -10 0 l -11 0 z" style="fill:#d24726"/>
 <path d="m 6 35 0 10 c 0 0.971 1.029 2 2 2 l 32 0 c 0.971 0 2 -1.029 2 -2 l 0 -10 z" style="fill-opacity:0.196"/>
 <g transform="scale(1.05613 .94685)" style="fill:#fff">
  <path d="m 14.895 46.09 c 0.044 0.009 0.093 0.013 0.147 0.013 0.053 0 0.102 0 0.147 0 0.373 0 0.684 -0.071 0.933 -0.213 0.258 -0.142 0.462 -0.338 0.613 -0.586 0.16 -0.249 0.271 -0.542 0.333 -0.88 0.071 -0.346 0.107 -0.724 0.107 -1.133 0 -0.355 -0.027 -0.702 -0.08 -1.039 -0.053 -0.338 -0.147 -0.635 -0.28 -0.893 -0.133 -0.258 -0.315 -0.462 -0.546 -0.613 -0.231 -0.16 -0.529 -0.24 -0.893 -0.24 -0.071 0 -0.151 0.004 -0.24 0.013 -0.089 0 -0.169 0.009 -0.24 0.027 l 0 5.544 m 3.945 -2.799 c 0 0.764 -0.098 1.417 -0.293 1.959 -0.187 0.533 -0.449 0.968 -0.786 1.306 -0.338 0.338 -0.742 0.586 -1.213 0.746 -0.462 0.151 -0.973 0.227 -1.533 0.227 -0.293 0 -0.582 -0.018 -0.866 -0.053 -0.275 -0.027 -0.573 -0.076 -0.893 -0.147 l 0 -8.05 c 0.373 -0.08 0.724 -0.133 1.053 -0.16 0.329 -0.027 0.635 -0.04 0.92 -0.04 0.542 0 1.035 0.08 1.479 0.24 0.453 0.16 0.835 0.413 1.146 0.76 0.311 0.338 0.551 0.773 0.72 1.306 0.178 0.524 0.267 1.159 0.267 1.906"/>
  <path d="m 22.18 39.08 c 1.048 0 1.861 0.218 2.439 0.653 0.577 0.426 0.866 1.128 0.866 2.106 0 0.986 -0.293 1.701 -0.88 2.146 -0.577 0.435 -1.399 0.653 -2.465 0.653 l -0.586 0 0 2.785 -1.639 0 0 -8.143 c 0.16 -0.036 0.338 -0.067 0.533 -0.093 0.204 -0.027 0.409 -0.044 0.613 -0.053 0.204 -0.018 0.404 -0.031 0.6 -0.04 0.195 -0.009 0.369 -0.013 0.52 -0.013 m 0.187 1.426 c -0.098 0 -0.235 0.004 -0.413 0.013 -0.169 0 -0.302 0.009 -0.4 0.027 l 0 2.665 0.666 0 c 0.524 0 0.92 -0.102 1.186 -0.307 0.267 -0.213 0.4 -0.573 0.4 -1.079 0 -0.48 -0.133 -0.817 -0.4 -1.013 c -0.258 -0.204 -0.604 -0.306 -1.039 -0.306"/>
  <path d="m 32.19 39.17 0 1.359 -2.172 0 0 6.89 -1.652 0 0 -6.89 -2.172 0 0 -1.359 5.997 0"/>
 </g>
 <path d="m 12 16 7 0 0 5 -7 0 z" style="fill:#fff"/>
 <path d="m 12 24 7 0 0 5 l -7 0 z" style="fill:#fff"/>
 <path d="m 30 16 0 6 6 0 c 0 -3.314 -2.686 -6 -6 -6 z" style="fill:#fff"/>
 <path d="m 29 17 c -4 0 -7 2.91 -7 6.5 0 3.59 2.91 6.5 6.5 6.5 3.59 0 6.5 -3 6.5 -7 l -6 0 z" style="fill:#fff"/>
</svg>
