<svg xmlns="http://www.w3.org/2000/svg" viewBox="0 0 48 48">
 <path d="m 8 1 c -1.029 0 -2 0.971 -2 2 l 0 42 c 0 0.971 1.029 2 2 2 l 32 0 c 0.971 0 2 -1.029 2 -2 l 0 -31 -13 -13 z" style="fill:#3468ce"/>
 <path d="m 29 12 0.063 0.063 0.156 -0.063 -0.219 0 z m 2 2 11 11 0 -11 -11 0 z" style="fill-opacity:0.196"/>
 <path d="m 29 1 13 13 -11 0 c -0.971 0 -2 -1.029 -2 -2 l 0 -11 z" style="fill:#fff;fill-opacity:0.392"/>
 <path d="m 6 35 0 10 c 0 0.971 1.029 2 2 2 l 32 0 c 0.971 0 2 -1.029 2 -2 l 0 -10 z" style="fill-opacity:0.196"/>
 <g transform="scale(1.06013 .94328)" style="fill:#fff">
  <path d="m 16.603 42.41 c 0 0 0.699 2.196 1.024 3.318 -0.014 -2.134 -0.068 -4.3 -0.08 -6.382 l 1.555 0 c -0.073 2.116 -0.194 4.253 -0.337 6.277 -0.045 0.674 -0.098 1.313 -0.161 1.917 l -1.365 0 c -0.196 -0.551 -0.392 -1.142 -0.589 -1.772 -0.196 -0.639 -0.392 -1.247 -0.589 -1.825 -0.196 0.551 -0.401 1.151 -0.615 1.799 -0.214 0.648 -0.41 1.247 -0.589 1.799 l -1.365 0 c -0.316 -2.733 -0.441 -5.512 -0.523 -8.194 l 1.553 0 c -0.031 2.14 -0.08 4.293 -0.094 6.382 0.341 -1.166 1.068 -3.318 1.068 -3.318"/>
  <path d="m 22.332 39.32 c 0.997 0 1.771 0.214 2.32 0.643 0.549 0.42 0.824 1.112 0.824 2.074 0 0.972 -0.279 1.676 -0.837 2.114 -0.549 0.429 -1.331 0.643 -2.345 0.643 l -0.558 0 0 2.744 -1.521 0 0 -8.02 c 0.152 -0.035 0.321 -0.066 0.507 -0.092 0.194 -0.026 0.35 -0.044 0.545 -0.053 0.194 -0.017 0.385 -0.031 0.571 -0.039 0.186 -0.009 0.351 -0.013 0.494 -0.013 m 0.177 1.405 c -0.093 0 -0.224 0.004 -0.393 0.013 -0.161 0 -0.287 0.009 -0.38 0.026 l 0 2.626 0.634 0 c 0.499 0 0.875 -0.101 1.128 -0.302 0.254 -0.21 0.38 -0.565 0.38 -1.063 0 -0.473 -0.127 -0.805 -0.38 -0.998 -0.245 -0.201 -0.575 -0.302 -0.989 -0.302"/>
  <path d="m 29.08 46.35 c 0.271 0 0.495 -0.026 0.67 -0.079 0.184 -0.061 0.328 -0.14 0.433 -0.236 0.105 -0.105 0.175 -0.219 0.21 -0.341 0.044 -0.131 0.066 -0.263 0.066 -0.394 0 -0.166 -0.048 -0.315 -0.144 -0.446 -0.096 -0.131 -0.219 -0.245 -0.368 -0.341 -0.149 -0.105 -0.315 -0.197 -0.499 -0.276 -0.184 -0.088 -0.368 -0.166 -0.551 -0.236 -0.245 -0.088 -0.499 -0.188 -0.761 -0.302 -0.263 -0.114 -0.503 -0.258 -0.722 -0.433 -0.21 -0.175 -0.385 -0.389 -0.525 -0.643 -0.14 -0.263 -0.21 -0.586 -0.21 -0.972 0 -0.761 0.245 -1.357 0.735 -1.785 0.499 -0.429 1.182 -0.643 2.048 -0.643 0.499 0 0.932 0.057 1.3 0.171 0.376 0.114 0.691 0.241 0.945 0.381 l -0.473 1.247 c -0.219 -0.123 -0.464 -0.228 -0.735 -0.315 -0.263 -0.088 -0.569 -0.131 -0.919 -0.131 -0.858 0 -1.287 0.311 -1.287 0.932 0 0.158 0.044 0.298 0.131 0.42 0.088 0.114 0.197 0.219 0.328 0.315 0.14 0.088 0.293 0.166 0.459 0.236 0.175 0.07 0.346 0.136 0.512 0.197 0.254 0.096 0.516 0.206 0.788 0.328 0.28 0.114 0.534 0.271 0.761 0.473 0.236 0.193 0.429 0.438 0.578 0.735 0.149 0.289 0.223 0.656 0.223 1.103 0 0.761 -0.249 1.352 -0.748 1.772 -0.49 0.411 -1.238 0.617 -2.245 0.617 -0.674 0 -1.212 -0.07 -1.615 -0.21 -0.403 -0.149 -0.705 -0.284 -0.906 -0.407 l 0.473 -1.313 c 0.236 0.14 0.516 0.271 0.84 0.394 0.333 0.123 0.735 0.184 1.208 0.184"/>
 </g>
 <rect ry="0.601" height="7" rx="0.579" y="16" x="15" width="8" style="fill:#f9f9f9;fill-opacity:1"/>
 <path d="m 25.5 16.5 6 0" style="stroke-opacity:1;fill:#f9f9f9;fill-opacity:1;stroke:#f9f9f9;stroke-linecap:round;stroke-linejoin:round;stroke-dashoffset:0.774"/>
 <path d="m 15.5 25.5 16 0" style="stroke-opacity:1;fill:#f9f9f9;fill-opacity:1;stroke:#f9f9f9;stroke-linecap:round;stroke-linejoin:round;stroke-dashoffset:0.774"/>
 <path d="m 15.5 28.5 16 0" style="stroke-opacity:1;fill:#f9f9f9;fill-opacity:1;stroke:#f9f9f9;stroke-linecap:round;stroke-linejoin:round;stroke-dashoffset:0.774"/>
 <path d="m 15.5 31.5 16 0" style="stroke-opacity:1;fill:#f9f9f9;fill-opacity:1;stroke:#f9f9f9;stroke-linecap:round;stroke-linejoin:round;stroke-dashoffset:0.774"/>
 <path d="m 25.5 19.5 6 0" style="stroke-opacity:1;fill:#f9f9f9;fill-opacity:1;stroke:#f9f9f9;stroke-linecap:round;stroke-linejoin:round;stroke-dashoffset:0.774"/>
 <path d="m 25.5 22.5 6 0" style="stroke-opacity:1;fill:#f9f9f9;fill-opacity:1;stroke:#f9f9f9;stroke-linecap:round;stroke-linejoin:round;stroke-dashoffset:0.774"/>
</svg>
