<svg xmlns="http://www.w3.org/2000/svg" viewBox="0 0 48 48">
 <path d="m 8 1 c -1.029 0 -2 0.971 -2 2 l 0 42 c 0 0.971 1.029 2 2 2 l 32 0 c 0.971 0 2 -1.029 2 -2 l 0 -31 -13 -13 z" style="fill:#d24726"/>
 <path d="m 29 12 0.063 0.063 0.156 -0.063 -0.219 0 z m 2 2 11 11 0 -11 -11 0 z" style="fill-opacity:0.196"/>
 <path d="m 29 1 13 13 -11 0 c -0.971 0 -2 -1.029 -2 -2 l 0 -11 z" style="fill:#fff;fill-opacity:0.392"/>
 <path d="m 6 35 0 10 c 0 0.971 1.029 2 2 2 l 32 0 c 0.971 0 2 -1.029 2 -2 l 0 -10 z" style="fill-opacity:0.196"/>
 <g transform="scale(1.07175 .93305)" style="fill:#fff">
  <path d="m 14.695 46.729 c 0.044 0.009 0.093 0.013 0.146 0.013 0.053 0 0.102 0 0.146 0 0.372 0 0.681 -0.071 0.929 -0.212 0.257 -0.142 0.46 -0.336 0.611 -0.584 0.159 -0.248 0.27 -0.54 0.332 -0.876 0.071 -0.345 0.106 -0.721 0.106 -1.128 0 -0.354 -0.027 -0.699 -0.08 -1.035 -0.053 -0.336 -0.146 -0.633 -0.279 -0.889 -0.133 -0.257 -0.314 -0.46 -0.544 -0.611 -0.23 -0.159 -0.526 -0.239 -0.889 -0.239 -0.071 0 -0.15 0.004 -0.239 0.013 -0.088 0 -0.168 0.009 -0.239 0.027 l 0 5.521 m 3.929 -2.787 c 0 0.761 -0.097 1.411 -0.292 1.951 -0.186 0.531 -0.447 0.964 -0.783 1.301 -0.336 0.336 -0.739 0.584 -1.208 0.743 -0.46 0.15 -0.969 0.226 -1.526 0.226 -0.292 0 -0.58 -0.018 -0.863 -0.053 -0.274 -0.027 -0.571 -0.075 -0.889 -0.146 l 0 -8.02 c 0.372 -0.08 0.721 -0.133 1.049 -0.159 0.327 -0.027 0.633 -0.04 0.916 -0.04 0.54 0 1.031 0.08 1.473 0.239 0.451 0.159 0.832 0.411 1.141 0.757 0.31 0.336 0.549 0.77 0.717 1.301 0.177 0.522 0.265 1.155 0.265 1.898"/>
  <path d="m 21.955 39.748 c 1.044 0 1.854 0.217 2.429 0.65 0.575 0.425 0.863 1.124 0.863 2.097 0 0.982 -0.292 1.694 -0.876 2.137 -0.575 0.434 -1.394 0.65 -2.455 0.65 l -0.584 0 0 2.774 -1.633 0 0 -8.109 c 0.159 -0.035 0.336 -0.066 0.531 -0.093 0.204 -0.027 0.407 -0.044 0.611 -0.053 0.204 -0.018 0.403 -0.031 0.597 -0.04 0.195 -0.009 0.367 -0.013 0.518 -0.013 m 0.186 1.42 c -0.097 0 -0.234 0.004 -0.411 0.013 -0.168 0 -0.301 0.009 -0.398 0.027 l 0 2.654 0.664 0 c 0.522 0 0.916 -0.102 1.181 -0.305 0.265 -0.212 0.398 -0.571 0.398 -1.075 0 -0.478 -0.133 -0.814 -0.398 -1.01 -0.257 -0.204 -0.602 -0.305 -1.035 -0.305"/>
  <path d="m 28.698 46.862 c 0.274 0 0.5 -0.027 0.677 -0.08 0.186 -0.062 0.332 -0.142 0.438 -0.239 0.106 -0.106 0.177 -0.221 0.212 -0.345 0.044 -0.133 0.066 -0.265 0.066 -0.398 0 -0.168 -0.049 -0.319 -0.146 -0.451 -0.097 -0.133 -0.221 -0.248 -0.372 -0.345 -0.15 -0.106 -0.319 -0.199 -0.504 -0.279 -0.186 -0.088 -0.372 -0.168 -0.557 -0.239 -0.248 -0.088 -0.504 -0.19 -0.77 -0.305 -0.265 -0.115 -0.509 -0.261 -0.73 -0.438 -0.212 -0.177 -0.389 -0.394 -0.531 -0.65 -0.142 -0.265 -0.212 -0.593 -0.212 -0.982 0 -0.77 0.248 -1.371 0.743 -1.805 0.504 -0.434 1.195 -0.65 2.071 -0.65 0.504 0 0.942 0.058 1.314 0.173 0.38 0.115 0.699 0.243 0.956 0.385 l -0.478 1.261 c -0.221 -0.124 -0.469 -0.23 -0.743 -0.319 -0.265 -0.088 -0.575 -0.133 -0.929 -0.133 -0.867 0 -1.301 0.314 -1.301 0.942 0 0.159 0.044 0.301 0.133 0.425 0.088 0.115 0.199 0.221 0.332 0.319 0.142 0.088 0.296 0.168 0.465 0.239 0.177 0.071 0.35 0.137 0.518 0.199 0.257 0.097 0.522 0.208 0.796 0.332 0.283 0.115 0.54 0.274 0.77 0.478 0.239 0.195 0.434 0.442 0.584 0.743 0.15 0.292 0.226 0.664 0.226 1.115 0 0.77 -0.252 1.367 -0.757 1.792 -0.496 0.416 -1.252 0.624 -2.27 0.624 -0.681 0 -1.225 -0.071 -1.633 -0.212 -0.407 -0.15 -0.712 -0.288 -0.916 -0.411 l 0.478 -1.327 c 0.239 0.142 0.522 0.274 0.849 0.398 0.336 0.124 0.743 0.186 1.221 0.186"/>
 </g>
 <path d="m 12 17 7 0 0 5 -7 0 z" style="fill:#fff"/>
 <path d="m 12 25 7 0 0 5 l -7 0 z" style="fill:#fff"/>
 <path d="m 30 17 0 6 6 0 c 0 -3.314 -2.686 -6 -6 -6 z" style="fill:#fff"/>
 <path d="m 29 18 c -4 0 -7 2.91 -7 6.5 0 3.59 2.91 6.5 6.5 6.5 3.59 0 6.5 -3 6.5 -7 l -6 0 z" style="fill:#fff"/>
</svg>
