<svg width="48" xmlns="http://www.w3.org/2000/svg" viewBox="0 0 48 48" height="48" xmlns:xlink="http://www.w3.org/1999/xlink">
<defs/>
<path style="fill:#cd9a66" d="M 8,1 C 6.9714285,1 6,1.9714285 6,3 l 0,42 c 0,0.971429 1.0285714,2 2,2 l 32,0 c 0.971429,0 2,-1.028571 2,-2 L 42,14 29,1 z"/>
<path style="fill-opacity:.196" d="M 29,12 29.0625,12.0625 29.21875,12 29,12 z m 2,2 11,11 0,-11 -11,0 z"/>
<path style="fill:#fff;fill-opacity:.392" d="m 29,1 13,13 -11,0 c -0.971429,0 -2,-1.028571 -2,-2 L 29,1 z"/>
<path style="fill:#fff;line-height:normal;color:#000" d="m 23.000003,17.999882 2.000002,0 c 2.999997,0 2.999997,3.428149 2.999997,3.428149 l 0,3.392398 c 0,1.142752 -1.999998,3.463866 -1.999998,3.463866 l 0,1.142717 L 30,31.676728 30,33.96209 23.500004,34 18,34 l 0,-2.285398 4.000004,-2.285433 0,-1.142681 c 0,0 -2.006588,-2.32115 -1.999997,-3.463831 l 0,-3.392468 c 0,0 -1.7e-5,-3.428114 2.999996,-3.428114 z"/>
</svg>
