<svg xmlns="http://www.w3.org/2000/svg" viewBox="0 0 48 48">
 <path d="m 8 1 c -1.029 0 -2 0.971 -2 2 l 0 42 c 0 0.971 1.029 2 2 2 l 32 0 c 0.971 0 2 -1.029 2 -2 l 0 -31 -13 -13 z" style="fill:#dc322f"/>
 <path d="m 29 12 0.063 0.063 0.156 -0.063 -0.219 0 z m 2 2 11 11 0 -11 -11 0 z" style="fill-opacity:0.196"/>
 <path d="m 29 1 13 13 -11 0 c -0.971 0 -2 -1.029 -2 -2 l 0 -11 z" style="fill:#fff;fill-opacity:0.392"/>
 <path d="m 15.438 18.01 c -0.422 0.047 -0.438 0.25 -0.438 1 l 0 2.999 18 0 0 -2.999 c 0 -1 0 -1 -1 -1 l -16 0 c -0.25 0 -0.422 -0.016 -0.563 0 z m -0.438 4.998 0 11.995 c 0 1 0 1 1 1 l 16 0 c 1 0 1 0 1 -1 l 0 -11.995 z m 12.25 1.999 c 0.655 0 1.23 0.164 1.719 0.469 0.493 0.304 0.862 0.732 1.125 1.312 0.263 0.576 0.406 1.261 0.406 2.062 0 1.728 -0.358 3.02 -1.094 3.874 -0.735 0.852 -1.853 1.281 -3.344 1.281 -0.525 0 -0.917 -0.038 -1.188 -0.094 l 0 -1.468 c 0.339 0.084 0.691 0.125 1.063 0.125 0.626 0 1.127 -0.101 1.531 -0.281 0.404 -0.184 0.723 -0.455 0.938 -0.843 0.214 -0.392 0.343 -0.94 0.375 -1.624 l -0.094 0 c -0.234 0.376 -0.505 0.629 -0.813 0.781 -0.307 0.152 -0.664 0.25 -1.125 0.25 -0.772 0 -1.399 -0.262 -1.844 -0.75 -0.444 -0.492 -0.656 -1.158 -0.656 -2.03 0 -0.94 0.275 -1.705 0.813 -2.249 0.541 -0.548 1.258 -0.812 2.188 -0.812 z m -6.906 -0.004 1.656 0 l 0 9 -2 0 0 -6.9 -1.594 1.372 l -0.906 -1.125 m 9.531 -0.843 c -0.259 0.05 -0.493 0.177 -0.656 0.375 -0.218 0.264 -0.313 0.66 -0.313 1.156 0 0.424 0.083 0.752 0.281 1 0.198 0.248 0.502 0.375 0.906 0.375 0.38 0 0.698 -0.131 0.969 -0.375 0.271 -0.248 0.406 -0.523 0.406 -0.843 0 -0.476 -0.12 -0.89 -0.375 -1.218 -0.251 -0.328 -0.577 -0.469 -0.969 -0.469 -0.097 0 -0.164 -0.017 -0.25 0 z" style="fill:#fff"/>
</svg>
