<svg xmlns="http://www.w3.org/2000/svg" viewBox="0 0 24 24">
 <path d="m 21.8 12 c 0 5.414 -4.387 9.801 -9.801 9.801 -5.414 0 -9.801 -4.387 -9.801 -9.801 0 -5.414 4.387 -9.801 9.801 -9.801 5.414 0 9.801 4.387 9.801 9.801 z" style="fill:#fff;stroke:#777;stroke-width:0.396"/>
 <path d="m 12.06 5 c -3.477 0 -6.312 2.941 -6.523 6.648 l -2.035 0 l 3.277 5.305 l 3.273 -5.305 l -2.332 0 c 0.203 -2.406 2.066 -4.281 4.34 -4.281 c 0.84 0 1.637 0.254 2.301 0.703 l 1.125 -2.02 c -0.996 -0.664 -2.172 -1.055 -3.426 -1.055 m 5.164 2.047 l -3.273 5.305 l 2.332 0 c -0.203 2.406 -2.066 4.281 -4.34 4.281 c -0.84 0 -1.637 -0.254 -2.301 -0.703 l -1.125 2.02 c 0.996 0.664 2.172 1.055 3.426 1.055 c 3.477 0 6.313 -2.941 6.523 -6.648 l 2.035 0 Z" style="fill:#dc322f;fill-opacity:1"/>
</svg>
