<svg xmlns="http://www.w3.org/2000/svg" viewBox="0 0 24 24">
 <path d="m 25.931 35.19 c 0 6.909 -5.484 12.507 -12.253 12.507 c -6.768 0 -12.253 -5.598 -12.253 -12.507 c 0 -6.909 5.484 -12.507 12.253 -12.507 c 6.768 0 12.253 5.598 12.253 12.507 Z" transform="matrix(.7999 0 0 .78363 1.05909 -15.57329)" style="fill:#fff;stroke:#777;stroke-width:0.5"/>
 <path d="m 10.5 4 c -0.277 0 -0.5 0.223 -0.5 0.5 l 0 9 c 0 0.277 0.223 0.5 0.5 0.5 l 3 0 c 0.277 0 0.5 -0.223 0.5 -0.5 l 0 -9 c 0 -0.277 -0.223 -0.5 -0.5 -0.5 l -3 0 z m 0 12 c -0.277 0 -0.5 0.223 -0.5 0.5 l 0 3 c 0 0.277 0.223 0.5 0.5 0.5 l 3 0 c 0.277 0 0.5 -0.223 0.5 -0.5 l 0 -3 c 0 -0.277 -0.223 -0.5 -0.5 -0.5 l -3 0 z" style="fill:#dc322f;opacity:1;fill-opacity:1;stroke:none"/>
</svg>
