<svg width="24" xmlns="http://www.w3.org/2000/svg" height="24" viewBox="0 0 24 24" xmlns:xlink="http://www.w3.org/1999/xlink">
<path style="fill:#fff;stroke:#777;stroke-width:.5" d="M 25.930511 35.186401 C 25.930511 42.095309 20.446393 47.69322 13.677926 47.69322 C 6.90946 47.69322 1.425342 42.095309 1.425342 35.186401 C 1.425342 28.277492 6.90946 22.679581 13.677926 22.679581 C 20.446393 22.679581 25.930511 28.277492 25.930511 35.186401 Z " transform="matrix(.7999 0 0 .78363 1.05909 -15.57329)"/>
<path style="fill:#dc322f" d="M 9.328125 4.5 L 9.328125 13.5 C 8.683594 13.253906 7.839844 13.210938 6.972656 13.441406 C 5.347656 13.875 4.257812 15.082031 4.546875 16.140625 C 4.832031 17.199219 6.378906 17.707031 8.003906 17.277344 C 9.382812 16.910156 10.371094 15.984375 10.460938 15.0625 L 10.472656 15.0625 L 10.472656 8.445312 L 16.351562 9.160156 L 16.351562 15.570312 C 15.707031 15.324219 14.867188 15.28125 13.996094 15.511719 C 12.375 15.941406 11.285156 17.152344 11.570312 18.210938 C 11.859375 19.269531 13.40625 19.777344 15.03125 19.347656 C 16.410156 18.980469 17.398438 18.050781 17.488281 17.132812 L 17.5 17.132812 L 17.5 5.566406 Z "/>
</svg>
