<svg width="24" xmlns="http://www.w3.org/2000/svg" height="24" viewBox="0 0 24 24" xmlns:xlink="http://www.w3.org/1999/xlink">
<path style="fill:#fff;stroke:#777;stroke-width:.792" d="M 43.601562 24 C 43.601562 34.828125 34.828125 43.601562 24 43.601562 C 13.171875 43.601562 4.398438 34.828125 4.398438 24 C 4.390625 13.171875 13.171875 4.390625 24 4.390625 C 34.828125 4.390625 43.609375 13.171875 43.601562 24 Z " transform="scale(.5)"/>
<path style="fill:#dc322f" d="M 11.410156 18.519531 C 11.085938 18.171875 10.28125 17.492188 9.617188 17.011719 C 7.65625 15.582031 7.386719 15.375 6.589844 14.667969 C 5.121094 13.363281 4.496094 12.054688 4.5 10.277344 C 4.5 9.410156 4.5625 9.078125 4.8125 8.566406 C 5.242188 7.699219 5.871094 7.054688 6.675781 6.660156 C 7.246094 6.378906 7.527344 6.257812 8.480469 6.25 C 9.476562 6.246094 9.6875 6.359375 10.273438 6.667969 C 10.984375 7.046875 11.71875 7.851562 11.871094 8.425781 L 11.964844 8.78125 L 12.195312 8.292969 C 13.5 5.539062 17.671875 5.578125 19.121094 8.359375 C 19.582031 9.242188 19.632812 11.128906 19.226562 12.191406 C 18.691406 13.574219 17.691406 14.632812 15.378906 16.25 C 13.863281 17.308594 12.148438 18.917969 12.027344 19.140625 C 11.890625 19.402344 12.023438 19.183594 11.410156 18.519531 Z "/>
</svg>
