<svg width="24" xmlns="http://www.w3.org/2000/svg" height="24" viewBox="0 0 24 24" xmlns:xlink="http://www.w3.org/1999/xlink">
<path style="fill:#fff;stroke:#777;stroke-width:.792" d="M 43.601562 24 C 43.601562 34.828125 34.828125 43.601562 24 43.601562 C 13.171875 43.601562 4.398438 34.828125 4.398438 24 C 4.390625 13.171875 13.171875 4.390625 24 4.390625 C 34.828125 4.390625 43.609375 13.171875 43.601562 24 Z " transform="scale(.5)"/>
<path style="fill:#dc322f" d="M 12 6 C 11.257812 6 10.660156 6.535156 10.660156 7.199219 L 10.660156 9.898438 L 8.019531 8.550781 C 7.378906 8.21875 6.550781 8.425781 6.175781 9 C 5.804688 9.574219 6.039062 10.316406 6.679688 10.648438 L 9.277344 12 L 6.679688 13.351562 C 6.039062 13.683594 5.804688 14.425781 6.175781 15 C 6.550781 15.574219 7.378906 15.78125 8.019531 15.449219 L 10.660156 14.101562 L 10.660156 16.800781 C 10.660156 17.464844 11.257812 18 12 18 C 12.742188 18 13.339844 17.464844 13.339844 16.800781 L 13.339844 14.101562 L 15.980469 15.449219 C 16.621094 15.78125 17.449219 15.574219 17.824219 15 C 18.195312 14.425781 17.960938 13.683594 17.320312 13.351562 L 14.722656 12 L 17.320312 10.648438 C 17.960938 10.316406 18.195312 9.574219 17.824219 9 C 17.449219 8.425781 16.621094 8.21875 15.980469 8.550781 L 13.339844 9.898438 L 13.339844 7.199219 C 13.339844 6.535156 12.742188 6 12 6 Z "/>
</svg>
