<svg width="24" xmlns="http://www.w3.org/2000/svg" height="24" viewBox="0 0 24 24" xmlns:xlink="http://www.w3.org/1999/xlink">
<path style="fill:#fff;stroke:#777;stroke-width:.792" d="M 43.601562 24 C 43.601562 34.828125 34.828125 43.601562 24 43.601562 C 13.171875 43.601562 4.398438 34.828125 4.398438 24 C 4.390625 13.171875 13.171875 4.390625 24 4.390625 C 34.828125 4.390625 43.609375 13.171875 43.601562 24 Z " transform="scale(.5)"/>
<path style="fill:#53a93e;fill-opacity:.941" d="M 12.9375 17.820312 L 12.9375 19.5 L 11.0625 19.5 L 11.0625 17.851562 C 9.96875 17.730469 9.113281 17.359375 8.488281 16.742188 C 7.863281 16.117188 7.535156 15.296875 7.5 14.277344 L 10.527344 14.292969 C 10.539062 14.664062 10.683594 14.957031 10.960938 15.171875 C 11.242188 15.386719 11.585938 15.496094 12 15.496094 C 12.355469 15.496094 12.667969 15.414062 12.9375 15.25 C 13.25 15.074219 13.40625 14.832031 13.40625 14.527344 C 13.40625 14.074219 12.902344 13.679688 11.898438 13.339844 C 10.40625 12.835938 9.472656 12.46875 9.105469 12.230469 C 8.101562 11.613281 7.601562 10.738281 7.601562 9.597656 C 7.601562 8.664062 7.929688 7.878906 8.585938 7.242188 C 9.222656 6.636719 10.046875 6.269531 11.0625 6.148438 L 11.0625 4.5 L 12.9375 4.5 L 12.9375 6.148438 C 15.113281 6.507812 16.210938 7.691406 16.230469 9.707031 L 13.269531 9.707031 C 13.269531 9.316406 13.148438 8.996094 12.902344 8.75 C 12.65625 8.492188 12.324219 8.367188 11.898438 8.367188 C 11.566406 8.367188 11.273438 8.453125 11.03125 8.628906 C 10.75 8.8125 10.613281 9.058594 10.613281 9.367188 C 10.613281 9.757812 11.117188 10.132812 12.132812 10.492188 C 13.617188 10.992188 14.566406 11.378906 14.976562 11.644531 C 15.992188 12.273438 16.5 13.132812 16.5 14.234375 C 16.5 15.207031 16.164062 16.019531 15.496094 16.667969 C 14.859375 17.273438 14.007812 17.65625 12.9375 17.820312 "/>
</svg>
