<svg width="24" xmlns="http://www.w3.org/2000/svg" height="24" viewBox="0 0 24 24" xmlns:xlink="http://www.w3.org/1999/xlink">
<path style="stroke-opacity:.941;fill:#53a93e;stroke:#859900;fill-opacity:.941;stroke-width:.792" d="M 43.601562 24 C 43.601562 34.828125 34.828125 43.601562 24 43.601562 C 13.171875 43.601562 4.398438 34.828125 4.398438 24 C 4.390625 13.171875 13.171875 4.390625 24 4.390625 C 34.828125 4.390625 43.609375 13.171875 43.601562 24 Z " transform="scale(.5)"/>
<path style="fill:#fff" d="M 12.058594 5 C 8.582031 5 5.746094 7.941406 5.535156 11.648438 L 3.5 11.648438 L 6.777344 16.953125 L 10.050781 11.648438 L 7.71875 11.648438 C 7.921875 9.242188 9.785156 7.367188 12.058594 7.367188 C 12.898438 7.367188 13.695312 7.621094 14.359375 8.070312 L 15.484375 6.054688 C 14.488281 5.390625 13.3125 5 12.058594 5 Z M 17.222656 7.046875 L 13.949219 12.351562 L 16.28125 12.351562 C 16.078125 14.757812 14.214844 16.632812 11.941406 16.632812 C 11.101562 16.632812 10.304688 16.378906 9.640625 15.929688 L 8.515625 17.945312 C 9.511719 18.609375 10.6875 19 11.941406 19 C 15.417969 19 18.253906 16.058594 18.464844 12.351562 L 20.5 12.351562 Z "/>
</svg>
