<svg width="24" xmlns="http://www.w3.org/2000/svg" height="24" viewBox="0 0 24 24" xmlns:xlink="http://www.w3.org/1999/xlink">
<path style="fill:#fff;stroke:#777;stroke-width:.792" d="M 43.601562 24 C 43.601562 34.828125 34.828125 43.601562 24 43.601562 C 13.171875 43.601562 4.398438 34.828125 4.398438 24 C 4.390625 13.171875 13.171875 4.390625 24 4.390625 C 34.828125 4.390625 43.609375 13.171875 43.601562 24 Z " transform="scale(.5)"/>
<path style="fill:#427fec;fill-rule:evenodd" d="M 12 6 C 10.308594 6 8.953125 7.339844 8.953125 9 C 8.957031 9.175781 8.96875 9.433594 8.984375 9.648438 C 8.695312 9.777344 8.671875 10.367188 8.917969 10.976562 C 9.015625 11.21875 9.140625 11.402344 9.277344 11.558594 C 9.308594 11.726562 9.300781 11.804688 9.339844 12 C 9.453125 12.359375 9.902344 13.058594 10.3125 13.636719 C 10.355469 14.082031 10.394531 14.527344 10.3125 15.035156 C 9.125 16.070312 6.058594 16.515625 6.066406 17.589844 L 6 18 L 18 18 L 17.933594 17.589844 C 17.929688 16.671875 14.859375 16.109375 13.6875 15.035156 C 13.640625 14.625 13.628906 14.210938 13.652344 13.808594 C 14.03125 13.195312 14.535156 12.398438 14.660156 12 C 14.703125 11.796875 14.722656 11.664062 14.757812 11.488281 C 14.871094 11.34375 14.964844 11.183594 15.046875 10.976562 C 15.28125 10.398438 15.265625 9.847656 15.015625 9.683594 C 15.03125 9.449219 15.042969 9.199219 15.046875 9 C 15.046875 7.339844 13.691406 6 12 6 Z "/>
</svg>
