<svg width="24" xmlns="http://www.w3.org/2000/svg" height="24" viewBox="0 0 24 24" xmlns:xlink="http://www.w3.org/1999/xlink">
<path style="fill:#fff;stroke:#777;stroke-width:.792" d="M 43.601562 24 C 43.601562 29.132812 41.492188 34.234375 37.859375 37.859375 C 34.234375 41.492188 29.132812 43.601562 24 43.601562 C 18.867188 43.601562 13.765625 41.492188 10.140625 37.859375 C 6.507812 34.234375 4.398438 29.132812 4.398438 24 C 4.398438 18.867188 6.507812 13.765625 10.140625 10.132812 C 13.765625 6.507812 18.867188 4.390625 24 4.390625 C 29.132812 4.390625 34.234375 6.507812 37.859375 10.132812 C 41.492188 13.765625 43.601562 18.867188 43.601562 24 Z " transform="scale(.5)"/>
<g style="fill-opacity:.941;fill:#53a93e">
<path d="M 12.070312 18.496094 C 12.398438 18.472656 12.71875 18.332031 12.957031 18.105469 L 17.070312 13.84375 C 17.332031 13.597656 17.488281 13.25 17.5 12.898438 C 17.523438 12.34375 17.164062 11.789062 16.640625 11.574219 C 16.113281 11.355469 15.457031 11.488281 15.066406 11.894531 L 12.003906 14.929688 L 8.792969 11.757812 C 8.253906 11.328125 7.378906 11.375 6.890625 11.855469 C 6.402344 12.339844 6.367188 13.191406 6.816406 13.707031 L 10.953125 18.105469 C 11.242188 18.382812 11.664062 18.53125 12.070312 18.496094 Z "/>
<path d="M 12.121094 11.847656 C 12.804688 11.808594 13.378906 11.375 13.355469 10.921875 L 13.355469 6.398438 C 13.355469 5.929688 12.707031 5.5 12 5.5 C 11.292969 5.5 10.644531 5.929688 10.644531 6.398438 L 10.644531 10.921875 C 10.621094 11.402344 11.277344 11.851562 12 11.847656 C 12.039062 11.851562 12.082031 11.851562 12.121094 11.847656 Z "/>
</g>
</svg>
