<svg xmlns="http://www.w3.org/2000/svg" viewBox="0 0 24 24">
 <path d="m 25.931 35.19 c 0 6.909 -5.484 12.507 -12.253 12.507 c -6.768 0 -12.253 -5.598 -12.253 -12.507 c 0 -6.909 5.484 -12.507 12.253 -12.507 c 6.768 0 12.253 5.598 12.253 12.507 Z" transform="matrix(.7999 0 0 .78363 1.05909 -15.57329)" style="fill:#fff;stroke:#777;stroke-width:0.5"/>
 <g transform="matrix(1,0,0,1.0000115,0,-0.39863782)" style="fill:#427fec">
  <path d="m 5.684 7 c -0.379 0 -0.684 0.328 -0.684 0.734 l 0 8.535 c 0 0.402 0.305 0.73 0.684 0.73 l 12.633 0 c 0.379 0 0.684 -0.328 0.684 -0.73 l 0 -8.535 c 0 -0.406 -0.305 -0.734 -0.684 -0.734 l -12.633 0 z m 11.02 1 l 0.602 0 c 0.388 0 0.699 0.311 0.699 0.699 l 0 0.602 c 0 0.388 -0.311 0.699 -0.699 0.699 l -0.602 0 c -0.388 0 -0.699 -0.311 -0.699 -0.699 l 0 -0.602 c 0 -0.388 0.311 -0.699 0.699 -0.699 z m -4.699 1 a 3 3 0 0 1 3 3 a 3 3 0 0 1 -3 3 a 3 3 0 0 1 -3 -3 a 3 3 0 0 1 3 -3 z" transform="matrix(1,0,0,0.9999885,0,0.39863324)"/>
  <path d="m 6.852 6.399 1.996 0 c 0.277 0 0.5 0.223 0.5 0.5 0 0.277 -0.223 0.5 -0.5 0.5 l -1.996 0 c -0.277 0 -0.504 -0.223 -0.504 -0.5 0 -0.277 0.227 -0.5 0.504 -0.5 z"/>
 </g>
</svg>
