<svg width="24" xmlns="http://www.w3.org/2000/svg" height="24" viewBox="0 0 24 24" xmlns:xlink="http://www.w3.org/1999/xlink">
<path style="fill:#fff;stroke:#777;stroke-width:.792" d="M 43.601562 24 C 43.601562 34.828125 34.828125 43.601562 24 43.601562 C 13.171875 43.601562 4.398438 34.828125 4.398438 24 C 4.390625 13.171875 13.171875 4.390625 24 4.390625 C 34.828125 4.390625 43.609375 13.171875 43.601562 24 Z " transform="scale(.5)"/>
<path style="fill:#53a93e;fill-opacity:.941" d="M 16.679688 5.003906 C 16.519531 5.019531 16.359375 5.117188 16.230469 5.269531 L 13.375 8.332031 C 13.253906 8.476562 13.179688 8.65625 13.179688 8.863281 C 13.179688 8.929688 13.199219 8.992188 13.210938 9.054688 C 12.949219 9.394531 13.015625 9.777344 13.015625 10.972656 C 13.015625 11.324219 12.308594 11.714844 12.132812 11.714844 C 12.125 11.714844 12.128906 11.714844 12.121094 11.714844 C 11.558594 11.714844 9.722656 11.820312 9.160156 12.820312 C 8.597656 13.816406 6.5 18.335938 6.5 19 C 7.34375 19 13.464844 15.054688 13.777344 14.683594 C 14.160156 14.234375 13.964844 13.328125 13.71875 12.722656 C 13.71875 12.722656 13.71875 12.707031 13.71875 12.703125 C 13.726562 12.683594 13.726562 12.65625 13.703125 12.609375 C 13.574219 12.324219 13.507812 12.039062 13.507812 11.640625 C 13.507812 10.632812 13.582031 10.125 13.777344 9.871094 C 13.792969 9.851562 13.808594 9.820312 13.824219 9.792969 C 14.128906 9.851562 14.554688 9.664062 14.75 9.433594 L 17.277344 6.503906 C 17.53125 6.203125 17.589844 5.761719 17.335938 5.457031 L 17.125 5.210938 C 17 5.058594 16.835938 4.984375 16.679688 5.003906 Z "/>
</svg>
