<svg width="24" xmlns="http://www.w3.org/2000/svg" height="24" viewBox="0 0 24 24" xmlns:xlink="http://www.w3.org/1999/xlink">
<g style="stroke:#777">
<path style="fill:#fff;stroke-width:.792" d="M 43.601562 24 C 43.601562 34.828125 34.828125 43.601562 24 43.601562 C 13.171875 43.601562 4.398438 34.828125 4.398438 24 C 4.390625 13.171875 13.171875 4.390625 24 4.390625 C 34.828125 4.390625 43.609375 13.171875 43.601562 24 Z " transform="scale(.5)"/>
<g style="fill:#b2b2b2">
<path d="M 17.427277 10.503409 L 12.503679 17.070859 L 22.358691 17.070859 L 22.358691 10.503409 Z " transform="matrix(.49983 0 0 .50855 .00426 .41245)"/>
<path d="M 25.641089 10.503409 L 25.641089 17.070859 L 35.496101 17.070859 L 30.572503 10.503409 Z " transform="matrix(.49983 0 0 .50855 .00426 .41245)"/>
<path d="M 12.503679 20.717859 L 12.503679 35.496542 L 35.496101 35.496542 L 35.496101 20.717859 Z " transform="matrix(.49983 0 0 .50855 .00426 .19451)"/>
</g>
</g>
</svg>
