<svg xmlns="http://www.w3.org/2000/svg" viewBox="0 0 22 22">
 <g transform="matrix(0.5,0,0,0.5,-0.99975,-0.99925)" style="fill:#fc0">
  <path d="m 19.98,17.906 c 0.723,0.34 4.363,-0.371 4.738,-0.051 0.375,0.324 -0.918,1.551 -0.191,2.09 1.727,1.285 6.289,1.664 10.387,0.152 l 1.551,4.266 c -2.25,1.242 -5.621,1.961 -9.934,1.551 L 37.859,37.32 33.664,41.097 24.949,31.945 C 21.422,38.121 16.812,40.539 13.187,42.75 L 10.14,37.945 c 14.383,-9.08 6.41,-13.148 9.898,-18.336 0.277,-0.414 -0.531,-1.305 -0.059,-1.703 z"/>
  <path d="m 29.652 12.11 c 0 3.789 -3.07 6.863 -6.859 6.863 -3.793 0 -6.863 -3.074 -6.863 -6.863 0 -3.789 3.07 -6.863 6.863 -6.863 3.789 0 6.859 3.074 6.859 6.863 z"/>
 </g>
</svg>
