<svg xmlns="http://www.w3.org/2000/svg" viewBox="0 0 22 22">
 <path d="M 15.74 4.6 15.31 6.58 C 15.26 6.8 15.05 7 14.79 7 L 10.76 7 C 10.34 7 10 7.35 10 7.76 l 0 0.48 C 10 8.66 10.35 9 10.76 9 l 3.45 0 c 0.3 0 0.54 0.28 0.48 0.59 C 14.63 9.91 14.3 11.4 14.26 11.58 14.24 11.77 14 12 13.74 12 l -2.59 0 C 10.61 12 10.5 12 10.18 12.42 9.86 12.81 7 16.57 7 16.57 7 12.547 7 8.523 7 4.5 7 4.22 7.21 4 7.5 4 l 7.77 0 c 0.27 0 0.54 0.26 0.47 0.6 M 6.71 2 C 5.39 2 5 3 5 3.63 l 0 15.25 c 0 0.75 0.38 0.97 0.59 1.06 0.21 0.09 0.76 0.15 1.16 -0.25 0 0 4.56 -5.52 4.63 -5.6 C 11.45 14 11.49 14 11.54 14 l 2.88 0 c 1.23 0 1.47 -0.85 1.6 -1.37 C 16.1 12.2 17.4 6.25 17.79 4.3 18.1 2.79 17.7 2 16.31 2" fill="#fa4778"/>
</svg>
