<!-- Generator: Adobe Illustrator 18.1.1, SVG Export Plug-In . SVG Version: 6.00 Build 0)  -->
<svg xmlns="http://www.w3.org/2000/svg" viewBox="0 0 22 22" style="enable-background:new 0 0 400 400">
 <path d="m 4.187 5.133 c -0.862 0.995 -1.526 2.186 -1.889 3.538 -0.189 0.706 -0.283 1.415 -0.296 2.115 c -0.004 0.137 -0.003 0.275 -0.001 0.413 0.012 0.705 0.106 1.419 0.297 2.13 0.362 1.352 1.025 2.543 1.888 3.538 l 1.85 -2.487 c -0.368 -0.544 -0.659 -1.154 -0.84 -1.827 -0.115 -0.43 -0.174 -0.86 -0.192 -1.286 c -0.004 -0.093 -0.009 -0.186 -0.009 -0.28 0 -0.055 0.004 -0.11 0.006 -0.165 c 0.013 -0.454 0.073 -0.914 0.196 -1.374 0.18 -0.673 0.47 -1.283 0.839 -1.827 l -1.849 -2.487" mix-blend-mode="normal" isolation="auto" white-space="normal" solid-opacity="1" solid-color="#000000" style="visibility:visible;shape-rendering:auto;color-interpolation-filters:linearRGB;fill:#fbbc05;opacity:1;image-rendering:auto;fill-opacity:1;stroke:none;display:inline;color:#000;fill-rule:nonzero;color-rendering:auto;color-interpolation:sRGB"/>
 <path d="m 5.33 12.982 -2.43 1.924 c 1.461 3.01 4.539 5.094 8.092 5.094 c 0.723 0 1.424 -0.093 2.098 -0.256 0.012 -0.003 0.024 -0.005 0.036 -0.008 0.004 -0.001 0.008 -0.002 0.012 -0.003 0.12 -0.03 0.239 -0.062 0.357 -0.097 0.173 -0.049 0.344 -0.103 0.515 -0.163 0.012 -0.004 0.024 -0.007 0.035 -0.011 0.002 -0.001 0.004 -0.001 0.006 -0.002 0.491 -0.175 0.973 -0.396 1.44 -0.666 1.212 -0.7 2.191 -1.649 2.929 -2.739 l -2.881 -1.143 c -0.422 0.488 -0.927 0.918 -1.517 1.264 -0.018 0.01 -0.035 0.021 -0.053 0.031 -0.295 0.169 -0.597 0.31 -0.905 0.423 -0.154 0.056 -0.309 0.105 -0.465 0.148 -0.013 0.004 -0.027 0.007 -0.04 0.011 -0.134 0.036 -0.27 0.067 -0.405 0.094 c -0.376 0.074 -0.763 0.116 -1.162 0.116 -2.635 0 -4.849 -1.672 -5.662 -4.02" mix-blend-mode="normal" isolation="auto" white-space="normal" solid-opacity="1" solid-color="#000000" style="visibility:visible;shape-rendering:auto;color-interpolation-filters:linearRGB;fill:#34a853;opacity:1;image-rendering:auto;fill-opacity:1;stroke:none;display:inline;color:#000;fill-rule:nonzero;color-rendering:auto;color-interpolation:sRGB"/>
 <path d="m 11 9.5 0 3 5.811 0 c -0.381 1.493 -1.317 2.755 -2.579 3.559 l 2.43 1.923 c 2.033 -1.653 3.339 -4.17 3.339 -6.981 0 -0.512 -0.054 -1.01 -0.137 -1.5 -2.954 0 -5.909 0 -8.863 0" mix-blend-mode="normal" isolation="auto" white-space="normal" solid-opacity="1" solid-color="#000000" style="visibility:visible;shape-rendering:auto;color-interpolation-filters:linearRGB;fill:#4285f4;opacity:1;image-rendering:auto;fill-opacity:1;stroke:none;display:inline;color:#000;fill-rule:nonzero;color-rendering:auto;color-interpolation:sRGB"/>
 <path d="m 10.992 2 c -3.553 0 -6.631 2.088 -8.092 5.094 l 2.43 1.924 c 0.813 -2.346 3.03 -4.02 5.662 -4.02 c 1.537 0 2.929 0.573 3.987 1.513 l 2.108 -2.108 c -1.607 -1.486 -3.746 -2.404 -6.096 -2.404" mix-blend-mode="normal" isolation="auto" white-space="normal" solid-opacity="1" solid-color="#000000" style="visibility:visible;shape-rendering:auto;color-interpolation-filters:linearRGB;fill:#ea4335;opacity:1;image-rendering:auto;fill-opacity:1;stroke:none;display:inline;color:#000;fill-rule:nonzero;color-rendering:auto;color-interpolation:sRGB"/>
</svg>
