<svg xmlns="http://www.w3.org/2000/svg" viewBox="0 0 22 22">
 <defs>
  <linearGradient id="a" x1="1" x2="0" y1="48" gradientUnits="userSpaceOnUse" gradientTransform="rotate(-90 24 24)">
   <stop stop-color="#e2262b"/>
   <stop offset="1" stop-color="#e4383e"/>
  </linearGradient>
 </defs>
 <path d="M17.586 31.926c-.52-.07-1.445-.37-2.062-.668-4.02-1.926-5.664-6.777-3.684-10.863 2.262-4.672 8.434-5.863 12.148-2.344 1.074 1.018 1.55 1.885 3.168 5.73 1.688 4.02 2 4.65 2.547 5.187.586.57 1.13.762 2.168.762 1.71 0 2.928-1.056 2.928-2.528 0-1.245-.438-1.644-2.672-2.437-3.402-1.227-4.504-2.336-4.508-4.563 0-1.188.3-1.98 1.066-2.8 1.098-1.173 2.992-1.56 4.668-.978.716.254 2.212 1.578 2.212 1.957 0 .184-.867.746-1.348.88-.254.065-.473-.02-.766-.3-.594-.57-.996-.748-1.707-.748-1.226 0-1.987.74-1.987 1.93s.484 1.59 2.902 2.407c3.332 1.124 4.316 2.14 4.336 4.49.02 2.03-.894 3.496-2.714 4.363-.828.39-1.11.44-2.46.44-1.93-.003-2.798-.358-3.88-1.577-.727-.82-1.465-2.36-3.828-7.977-.98-2.33-2.238-3.47-4.336-3.92-1.063-.226-2.543-.015-3.508.493-.94.492-1.992 1.602-2.488 2.617-.41.823-.45 1.054-.45 2.487 0 1.367.056 1.69.4 2.44.52 1.146 1.542 2.204 2.667 2.774.813.41 1.066.463 2.363.463 1.246 0 1.566-.06 2.31-.414.847-.415 1.987-1.43 2.452-2.19l.242-.397.477 1.09c.267.602.48 1.168.48 1.27 0 .3-1.077 1.285-2.065 1.898-1.5.927-3.222 1.274-5.062 1.024m-.004-.004" transform="translate(-5.618 -5.624) scale(.6925)" fill="url(#a)"/>
</svg>
