<svg xmlns="http://www.w3.org/2000/svg" xmlns:svg="http://www.w3.org/2000/svg" id="Capa_1" width="240" height="240" enable-background="new 0 0 515.556 515.556" version="1.1" viewBox="0 0 240 240"><metadata id="metadata13"/><g id="g6" transform="matrix(0.3879307,0,0,0.3879307,20,20)" style="opacity:.8"><path id="path2" d="m 290,32.222 c -113.405,0 -207.262,84.222 -222.981,193.333 H 0 l 96.667,96.667 96.667,-96.667 H 132.146 C 147.118,152.111 212.202,96.666 290,96.666 c 88.832,0 161.111,72.28 161.111,161.111 0,88.831 -72.279,161.112 -161.111,161.112 -51.684,0 -100.6,-25.079 -130.84,-67.056 l -52.298,37.635 c 42.323,58.78 110.78,93.866 183.138,93.866 124.373,0 225.556,-101.198 225.556,-225.556 C 515.556,133.42 414.373,32.222 290,32.222 Z" class="active-path" data-old_color="#000000" data-original="#000000" style="fill:#fff"/><path id="path4" d="M 257.778,161.111 V 292.14 l 96.195,57.711 33.166,-55.256 -64.917,-38.956 v -94.527 z" class="active-path" data-old_color="#000000" data-original="#000000" style="fill:#fff"/></g></svg>