<svg xmlns="http://www.w3.org/2000/svg" viewBox="0 0 24 24">
 <path d="m 13.641 6.629 c -1.174 0.438 -1.916 1.564 -1.832 2.796 l 0.028 0.477 -0.47 -0.059 c -1.709 -0.224 -3.203 -0.981 -4.47 -2.253 l -0.62 -0.632 -0.16 0.467 c -0.339 1.039 -0.122 2.137 0.583 2.875 0.375 0.407 0.291 0.466 -0.358 0.222 -0.225 -0.077 -0.423 -0.136 -0.442 -0.106 -0.065 0.069 0.16 0.952 0.339 1.301 0.244 0.487 0.742 0.962 1.287 1.244 l 0.461 0.222 -0.545 0.01 c -0.527 0 -0.545 0.01 -0.489 0.214 0.188 0.632 0.931 1.301 1.757 1.593 l 0.583 0.204 -0.507 0.31 c -0.752 0.447 -1.635 0.699 -2.515 0.719 -0.423 0.009 -0.771 0.049 -0.771 0.078 0 0.096 1.146 0.64 1.813 0.854 2 0.632 4.377 0.359 6.162 -0.719 1.268 -0.767 2.537 -2.292 3.128 -3.768 0.32 -0.787 0.639 -2.224 0.639 -2.914 0 -0.446 0.027 -0.505 0.554 -1.039 0.31 -0.31 0.602 -0.651 0.657 -0.748 0.095 -0.185 0.085 -0.185 -0.394 -0.019 -0.799 0.291 -0.912 0.253 -0.516 -0.185 0.291 -0.31 0.638 -0.874 0.638 -1.039 0 -0.029 -0.141 0.018 -0.301 0.106 -0.17 0.097 -0.545 0.243 -0.826 0.33 l -0.508 0.165 -0.461 -0.32 c -0.253 -0.175 -0.61 -0.369 -0.798 -0.428 c -0.48 -0.136 -1.212 -0.116 -1.644 0.039 z" style="fill:#00abec"/>
</svg>
