<svg xmlns="http://www.w3.org/2000/svg" width="24" viewBox="0 0 6.7733335 6.7733335" height="24">
 <path d="m 2.345 2.542 c -0.118 0 -0.232 0.017 -0.299 0.095 -0.103 0.119 -0.063 0.356 -0.063 0.5 0 0.22 -0.015 0.454 0.03 0.671 0.048 0.232 0.217 0.484 0.408 0.642 0.139 0.114 0.286 0.195 0.458 0.261 0.167 0.058 0.328 0.085 0.497 0.087 0.155 0 0.31 -0.016 0.456 -0.063 0.15 -0.048 0.301 -0.116 0.426 -0.205 0.131 -0.101 0.236 -0.2 0.319 -0.325 0.061 -0.093 0.112 -0.194 0.149 -0.297 0.093 -0.255 0.067 -0.554 0.067 -0.82 0 -0.12 0.032 -0.336 -0.049 -0.438 -0.122 -0.153 -0.392 -0.099 -0.593 -0.099 l -1.543 0 c -0.076 0 -0.17 -0.01 -0.261 -0.01 z m 1.711 0.654 c 0.032 0 0.066 0.009 0.102 0.03 0.081 0.048 0.106 0.165 0.05 0.237 -0.053 0.067 -0.131 0.121 -0.197 0.177 l -0.341 0.296 c -0.075 0.067 -0.153 0.162 -0.264 0.172 -0.111 0.01 -0.184 -0.072 -0.256 -0.137 l -0.357 -0.31 c -0.074 -0.06 -0.176 -0.128 -0.228 -0.206 -0.072 -0.11 0.011 -0.241 0.143 -0.258 0.084 -0.011 0.143 0.036 0.202 0.083 l 0.333 0.288 c 0.034 0.029 0.091 0.107 0.139 0.114 0.054 0.007 0.136 -0.098 0.171 -0.128 l 0.248 -0.212 c 0.071 -0.064 0.156 -0.146 0.254 -0.147 z" style="fill:#ee4055"/>
 <g transform="matrix(0.00849706,0,0,0.00848364,-3.4359605,1.1267098)">
  <path d="m 672.97 87.89 36 -20.691 c 29.384 -13.49 60.752 -20.309 93 -20.309 l 0 -30 c -34.06 2.688 -66.25 7.03 -98 20.719 -8.07 3.481 -25.338 8.627 -29.972 16.494 -4.416 7.497 -1.028 25.15 -1.028 33.787 z" style="fill:#51bbb7"/>
  <path d="m 801.97 16.89 0 30 c 30.987 0 61.751 6.339 90 19.309 l 39 21.691 c 0 -8.623 3.687 -28.21 -1.028 -35.471 -4.649 -7.164 -21.306 -12.09 -28.972 -15.379 -30.898 -13.269 -65.4 -20.13 -99 -20.15 z" style="fill:#ef4155"/>
  <path d="m 930.97 52.89 c 0 9.62 -3.161 25.846 0.603 34.7 2.463 5.795 11.53 10.361 16.12 14.511 11.311 10.236 22.14 21.435 31.09 33.828 24.544 33.978 43.12 77.35 43.19 119.96 0.076 47.39 -9.709 91.84 -36.1 132 -9.534 14.508 -21.14 27.875 -33.81 39.711 -5.53 5.164 -17.523 11.617 -20.487 18.589 -3.664 8.618 -0.603 24.341 -0.603 33.7 28.17 -10.662 54.32 -40.57 71.895 -64 65.57 -87.43 65.57 -211.57 0 -299 -17.574 -23.43 -43.724 -53.34 -71.895 -64 z" style="fill:#fbb74b"/>
  <path d="m 671.97 53.89 c -31.521 21.264 -58.59 45.815 -79.31 78 -56.01 87.01 -50.675 202.53 11.181 285 17.681 23.573 42.07 49.2 69.13 62 0 -9.06 2.98 -24.365 -0.603 -32.7 -2.907 -6.76 -14.1 -12.276 -19.397 -17.339 -13.02 -12.445 -25.01 -25.881 -34.921 -40.961 -26.485 -40.3 -39.29 -88.85 -35.989 -137 3.06 -44.679 21.03 -88.46 49.33 -123 l 24.576 -25.714 15.972 -13.75 c 3.572 -5.889 2.638 -28.316 0.028 -34.536 z" style="fill:#83edb9"/>
  <path d="m 672.97 445.89 c 0 8.414 -3.278 25.478 1.028 32.787 4.634 7.867 21.899 13.01 29.972 16.494 31.753 13.692 63.936 18.03 98 20.719 l 0 -29 c -33.15 0 -66.11 -7.06 -96 -21.756 -9.838 -4.837 -23.2 -10.443 -30 -19.244 l -3 0 z" style="fill:#51bbb7"/>
  <path d="m 801.97 486.89 0 29 c 33.604 -0.022 68.1 -6.881 99 -20.15 7.666 -3.293 24.323 -8.215 28.972 -15.379 4.604 -7.095 1.028 -26.06 1.028 -34.471 l -39 21.691 c -28.25 12.97 -59.01 19.309 -90 19.309 m 173 -41 1 1 -1 -1 z" style="fill:#ef4155"/>
 </g>
</svg>
