<svg width="211.25" xmlns="http://www.w3.org/2000/svg" height="24" viewBox="0 0 169 24" xmlns:xlink="http://www.w3.org/1999/xlink">
<g style="fill:#888;fill-opacity:.078">
<path d="M 14.949219 5.828125 C 14.949219 7.402344 13.675781 8.679688 12.105469 8.679688 C 10.535156 8.679688 9.261719 7.402344 9.261719 5.828125 C 9.261719 4.253906 10.535156 2.976562 12.105469 2.976562 C 13.675781 2.976562 14.949219 4.253906 14.949219 5.828125 Z "/>
<path d="M 14.949219 18.171875 C 14.949219 19.746094 13.675781 21.023438 12.105469 21.023438 C 10.535156 21.023438 9.261719 19.746094 9.261719 18.171875 C 9.261719 16.597656 10.535156 15.320312 12.105469 15.320312 C 13.675781 15.320312 14.949219 16.597656 14.949219 18.171875 Z "/>
<path d="M 18.863281 11.382812 C 17.5 12.167969 15.761719 11.703125 14.976562 10.339844 C 14.191406 8.976562 14.65625 7.234375 16.015625 6.445312 C 17.378906 5.660156 19.117188 6.125 19.902344 7.488281 C 20.6875 8.851562 20.222656 10.59375 18.863281 11.382812 Z "/>
<path d="M 8.191406 17.554688 C 6.832031 18.339844 5.09375 17.875 4.308594 16.511719 C 3.519531 15.148438 3.988281 13.402344 5.347656 12.617188 C 6.707031 11.828125 8.449219 12.296875 9.234375 13.660156 C 10.019531 15.023438 9.554688 16.765625 8.191406 17.554688 Z "/>
<path d="M 16.015625 17.554688 C 14.65625 16.765625 14.191406 15.023438 14.976562 13.660156 C 15.761719 12.296875 17.5 11.832031 18.863281 12.617188 C 20.222656 13.40625 20.6875 15.148438 19.902344 16.511719 C 19.117188 17.875 17.378906 18.339844 16.015625 17.554688 Z "/>
<path d="M 5.347656 11.382812 C 3.988281 10.59375 3.519531 8.851562 4.308594 7.488281 C 5.09375 6.125 6.832031 5.660156 8.191406 6.445312 C 9.554688 7.234375 10.019531 8.976562 9.234375 10.339844 C 8.449219 11.703125 6.707031 12.167969 5.347656 11.382812 Z "/>
</g>
<path style="fill:#959595;fill-opacity:.784" d="M 39.082031 5.828125 C 39.082031 7.402344 37.808594 8.679688 36.238281 8.679688 C 34.664062 8.679688 33.390625 7.402344 33.390625 5.828125 C 33.390625 4.253906 34.664062 2.976562 36.238281 2.976562 C 37.808594 2.976562 39.082031 4.253906 39.082031 5.828125 Z "/>
<g style="fill:#888;fill-opacity:.078">
<path d="M 39.082031 18.171875 C 39.082031 19.746094 37.808594 21.023438 36.238281 21.023438 C 34.664062 21.023438 33.390625 19.746094 33.390625 18.171875 C 33.390625 16.597656 34.664062 15.320312 36.238281 15.320312 C 37.808594 15.320312 39.082031 16.597656 39.082031 18.171875 Z "/>
<path d="M 42.992188 11.382812 C 41.632812 12.167969 39.894531 11.703125 39.105469 10.339844 C 38.320312 8.976562 38.789062 7.234375 40.148438 6.445312 C 41.507812 5.660156 43.25 6.125 44.035156 7.488281 C 44.820312 8.851562 44.355469 10.59375 42.992188 11.382812 Z "/>
<path d="M 32.324219 17.554688 C 30.964844 18.339844 29.222656 17.875 28.4375 16.511719 C 27.652344 15.148438 28.117188 13.40625 29.480469 12.617188 C 30.839844 11.832031 32.582031 12.296875 33.367188 13.660156 C 34.152344 15.023438 33.683594 16.765625 32.324219 17.554688 Z "/>
<path d="M 40.148438 17.554688 C 38.789062 16.765625 38.320312 15.023438 39.105469 13.660156 C 39.894531 12.296875 41.632812 11.828125 42.992188 12.617188 C 44.355469 13.40625 44.820312 15.148438 44.035156 16.511719 C 43.25 17.875 41.507812 18.339844 40.148438 17.554688 Z "/>
</g>
<g style="fill:#959595;fill-opacity:.392">
<path d="M 29.480469 11.382812 C 28.117188 10.59375 27.652344 8.851562 28.4375 7.488281 C 29.222656 6.125 30.964844 5.660156 32.324219 6.445312 C 33.683594 7.234375 34.152344 8.976562 33.367188 10.339844 C 32.582031 11.703125 30.839844 12.167969 29.480469 11.382812 Z "/>
<path d="M 63.214844 5.828125 C 63.214844 7.402344 61.9375 8.679688 60.367188 8.679688 C 58.796875 8.679688 57.523438 7.402344 57.523438 5.828125 C 57.523438 4.253906 58.796875 2.976562 60.367188 2.976562 C 61.9375 2.976562 63.214844 4.253906 63.214844 5.828125 Z "/>
</g>
<path style="fill:#888;fill-opacity:.078" d="M 63.214844 18.171875 C 63.214844 19.746094 61.9375 21.023438 60.367188 21.023438 C 58.796875 21.023438 57.523438 19.746094 57.523438 18.171875 C 57.523438 16.597656 58.796875 15.320312 60.367188 15.320312 C 61.9375 15.320312 63.214844 16.597656 63.214844 18.171875 Z "/>
<path style="fill:#959595;fill-opacity:.784" d="M 67.125 11.382812 C 65.765625 12.167969 64.023438 11.703125 63.238281 10.339844 C 62.453125 8.976562 62.917969 7.234375 64.28125 6.445312 C 65.640625 5.660156 67.378906 6.125 68.167969 7.488281 C 68.953125 8.851562 68.484375 10.59375 67.125 11.382812 Z "/>
<g style="fill:#888;fill-opacity:.078">
<path d="M 56.457031 17.554688 C 55.097656 18.339844 53.355469 17.875 52.570312 16.511719 C 51.785156 15.148438 52.25 13.40625 53.613281 12.617188 C 54.972656 11.832031 56.710938 12.296875 57.496094 13.660156 C 58.285156 15.023438 57.816406 16.765625 56.457031 17.554688 Z "/>
<path d="M 64.28125 17.554688 C 62.917969 16.765625 62.453125 15.023438 63.238281 13.660156 C 64.023438 12.296875 65.765625 11.828125 67.125 12.617188 C 68.484375 13.40625 68.953125 15.148438 68.167969 16.511719 C 67.378906 17.875 65.640625 18.339844 64.28125 17.554688 Z "/>
<path d="M 53.613281 11.382812 C 52.25 10.59375 51.785156 8.851562 52.570312 7.488281 C 53.355469 6.125 55.09375 5.660156 56.457031 6.445312 C 57.816406 7.234375 58.285156 8.976562 57.496094 10.339844 C 56.710938 11.703125 54.972656 12.167969 53.613281 11.382812 Z "/>
<path d="M 87.34375 5.828125 C 87.34375 7.402344 86.070312 8.679688 84.5 8.679688 C 82.929688 8.679688 81.65625 7.402344 81.65625 5.828125 C 81.65625 4.253906 82.929688 2.976562 84.5 2.976562 C 86.070312 2.976562 87.34375 4.253906 87.34375 5.828125 Z "/>
<path d="M 87.34375 18.171875 C 87.34375 19.746094 86.070312 21.023438 84.5 21.023438 C 82.929688 21.023438 81.65625 19.746094 81.65625 18.171875 C 81.65625 16.597656 82.929688 15.320312 84.5 15.320312 C 86.070312 15.320312 87.34375 16.597656 87.34375 18.171875 Z "/>
</g>
<path style="fill:#959595;fill-opacity:.392" d="M 91.257812 11.382812 C 89.894531 12.167969 88.15625 11.703125 87.371094 10.339844 C 86.585938 8.976562 87.050781 7.234375 88.410156 6.445312 C 89.773438 5.660156 91.511719 6.125 92.296875 7.488281 C 93.082031 8.851562 92.617188 10.59375 91.257812 11.382812 Z "/>
<path style="fill:#888;fill-opacity:.078" d="M 80.589844 17.554688 C 79.226562 18.339844 77.488281 17.875 76.703125 16.511719 C 75.917969 15.148438 76.382812 13.40625 77.742188 12.617188 C 79.105469 11.832031 80.84375 12.296875 81.628906 13.660156 C 82.414062 15.023438 81.949219 16.765625 80.589844 17.554688 Z "/>
<path style="fill:#959595;fill-opacity:.784" d="M 88.410156 17.554688 C 87.050781 16.765625 86.585938 15.023438 87.371094 13.660156 C 88.15625 12.296875 89.894531 11.828125 91.257812 12.617188 C 92.617188 13.40625 93.082031 15.148438 92.296875 16.511719 C 91.511719 17.875 89.773438 18.339844 88.410156 17.554688 Z "/>
<g style="fill:#888;fill-opacity:.078">
<path d="M 77.742188 11.382812 C 76.382812 10.59375 75.917969 8.851562 76.703125 7.488281 C 77.488281 6.125 79.226562 5.660156 80.589844 6.445312 C 81.949219 7.234375 82.414062 8.976562 81.628906 10.339844 C 80.84375 11.703125 79.105469 12.167969 77.742188 11.382812 Z "/>
<path d="M 111.476562 5.828125 C 111.476562 7.402344 110.203125 8.679688 108.632812 8.679688 C 107.058594 8.679688 105.785156 7.402344 105.785156 5.828125 C 105.785156 4.253906 107.058594 2.976562 108.632812 2.976562 C 110.203125 2.976562 111.476562 4.253906 111.476562 5.828125 Z "/>
</g>
<path style="fill:#959595;fill-opacity:.784" d="M 111.476562 18.171875 C 111.476562 19.746094 110.203125 21.023438 108.632812 21.023438 C 107.058594 21.023438 105.785156 19.746094 105.785156 18.171875 C 105.785156 16.597656 107.058594 15.320312 108.632812 15.320312 C 110.203125 15.320312 111.476562 16.597656 111.476562 18.171875 Z "/>
<g style="fill:#888;fill-opacity:.078">
<path d="M 115.386719 11.382812 C 114.027344 12.167969 112.289062 11.703125 111.503906 10.339844 C 110.71875 8.976562 111.183594 7.234375 112.542969 6.445312 C 113.90625 5.660156 115.644531 6.125 116.429688 7.488281 C 117.214844 8.851562 116.75 10.59375 115.386719 11.382812 Z "/>
<path d="M 104.71875 17.554688 C 103.359375 18.339844 101.621094 17.875 100.832031 16.511719 C 100.046875 15.148438 100.515625 13.40625 101.875 12.617188 C 103.234375 11.832031 104.976562 12.296875 105.761719 13.660156 C 106.546875 15.023438 106.082031 16.765625 104.71875 17.554688 Z "/>
</g>
<path style="fill:#959595;fill-opacity:.392" d="M 112.542969 17.554688 C 111.183594 16.765625 110.714844 15.023438 111.503906 13.660156 C 112.289062 12.296875 114.027344 11.828125 115.386719 12.617188 C 116.75 13.40625 117.214844 15.148438 116.429688 16.511719 C 115.644531 17.875 113.902344 18.339844 112.542969 17.554688 Z "/>
<g style="fill:#888;fill-opacity:.078">
<path d="M 101.875 11.382812 C 100.515625 10.59375 100.046875 8.851562 100.832031 7.488281 C 101.621094 6.125 103.359375 5.660156 104.71875 6.445312 C 106.082031 7.234375 106.546875 8.976562 105.761719 10.339844 C 104.976562 11.703125 103.234375 12.167969 101.875 11.382812 Z "/>
<path d="M 135.609375 5.828125 C 135.609375 7.402344 134.335938 8.679688 132.761719 8.679688 C 131.191406 8.679688 129.917969 7.402344 129.917969 5.828125 C 129.917969 4.253906 131.191406 2.976562 132.761719 2.976562 C 134.335938 2.976562 135.609375 4.253906 135.609375 5.828125 Z "/>
<path d="M 135.609375 18.171875 C 135.609375 19.746094 134.335938 21.023438 132.761719 21.023438 C 131.191406 21.023438 129.917969 19.746094 129.917969 18.171875 C 129.917969 16.597656 131.191406 15.320312 132.761719 15.320312 C 134.335938 15.320312 135.609375 16.597656 135.609375 18.171875 Z "/>
<path d="M 139.519531 11.382812 C 138.160156 12.167969 136.417969 11.703125 135.632812 10.339844 C 134.847656 8.976562 135.316406 7.234375 136.675781 6.445312 C 138.035156 5.660156 139.777344 6.125 140.5625 7.488281 C 141.347656 8.851562 140.882812 10.59375 139.519531 11.382812 Z "/>
</g>
<path style="fill:#959595;fill-opacity:.392" d="M 128.851562 17.554688 C 127.492188 18.339844 125.75 17.875 124.964844 16.511719 C 124.179688 15.148438 124.644531 13.40625 126.007812 12.617188 C 127.367188 11.832031 129.105469 12.296875 129.894531 13.660156 C 130.679688 15.023438 130.210938 16.765625 128.851562 17.554688 Z "/>
<path style="fill:#888;fill-opacity:.078" d="M 136.675781 17.554688 C 135.316406 16.765625 134.847656 15.023438 135.632812 13.660156 C 136.417969 12.296875 138.160156 11.828125 139.519531 12.617188 C 140.882812 13.40625 141.347656 15.148438 140.5625 16.511719 C 139.777344 17.875 138.035156 18.339844 136.675781 17.554688 Z "/>
<g style="fill:#959595;fill-opacity:.784">
<path d="M 126.007812 11.382812 C 124.644531 10.59375 124.179688 8.851562 124.964844 7.488281 C 125.75 6.125 127.492188 5.660156 128.851562 6.445312 C 130.210938 7.234375 130.679688 8.976562 129.894531 10.339844 C 129.105469 11.703125 127.367188 12.167969 126.007812 11.382812 Z "/>
<path d="M 159.738281 5.828125 C 159.738281 7.402344 158.464844 8.679688 156.894531 8.679688 C 155.324219 8.679688 154.050781 7.402344 154.050781 5.828125 C 154.050781 4.253906 155.324219 2.976562 156.894531 2.976562 C 158.464844 2.976562 159.738281 4.253906 159.738281 5.828125 Z "/>
</g>
<g style="fill:#888;fill-opacity:.078">
<path d="M 159.738281 18.171875 C 159.738281 19.746094 158.464844 21.023438 156.894531 21.023438 C 155.324219 21.023438 154.050781 19.746094 154.050781 18.171875 C 154.050781 16.597656 155.324219 15.320312 156.894531 15.320312 C 158.464844 15.320312 159.738281 16.597656 159.738281 18.171875 Z "/>
<path d="M 163.652344 11.382812 C 162.292969 12.167969 160.550781 11.703125 159.765625 10.339844 C 158.980469 8.976562 159.445312 7.234375 160.808594 6.445312 C 162.167969 5.660156 163.90625 6.125 164.695312 7.488281 C 165.480469 8.851562 165.011719 10.59375 163.652344 11.382812 Z "/>
<path d="M 152.984375 17.554688 C 151.621094 18.339844 149.882812 17.875 149.097656 16.511719 C 148.3125 15.148438 148.777344 13.40625 150.136719 12.617188 C 151.5 11.832031 153.238281 12.296875 154.023438 13.660156 C 154.808594 15.023438 154.34375 16.765625 152.984375 17.554688 Z "/>
<path d="M 160.808594 17.554688 C 159.445312 16.765625 158.980469 15.023438 159.765625 13.660156 C 160.550781 12.296875 162.292969 11.828125 163.652344 12.617188 C 165.011719 13.40625 165.480469 15.148438 164.691406 16.511719 C 163.90625 17.875 162.167969 18.339844 160.808594 17.554688 Z "/>
</g>
<path style="fill:#959595;fill-opacity:.392" d="M 150.136719 11.382812 C 148.777344 10.59375 148.3125 8.851562 149.097656 7.488281 C 149.882812 6.125 151.621094 5.660156 152.984375 6.445312 C 154.34375 7.234375 154.808594 8.976562 154.023438 10.339844 C 153.238281 11.703125 151.5 12.167969 150.136719 11.382812 Z "/>
</svg>
