<svg xmlns="http://www.w3.org/2000/svg" viewBox="0 0 16 16">
 <g transform="translate(-513.00061,-108)" style="display:inline">
  <path d="m 525 118 0 2 -2 0 0 2 2 0 0 2 2 0 0 -2 2 0 0 -2 -2 0 0 -2 z" style="fill:#bebebe;color:#bebebe"/>
  <path d="m 2.75 0 c -1.75 0 -1.75 0 -1.75 1.777 l 0 12.445 c 0 1.778 0 1.777 1.75 1.777 l 8.25 0 l 0 -1 l -2 0 l 0 -3 l -1 0 l -4.4 0 c -0.003 -0.306 0.009 -0.613 0.4 -0.832 c 0.872 -0.456 1.669 -0.884 2.244 -1.721 c 0.311 -0.536 -0.086 -1.124 -0.377 -1.572 c -0.692 -0.945 -0.682 -2.859 -0.295 -4.242 c 0.484 -0.906 0.967 -1.335 2.428 -1.395 c 1.461 0.059 1.944 0.489 2.428 1.395 c 0.388 1.383 0.397 3.298 -0.295 4.242 c -0.291 0.448 -0.688 1.036 -0.377 1.572 c 0.344 0.5 0.773 0.849 1.244 1.15 l 0 -0.598 l 0 -1 l 4 0 l 0 -7.223 c 0 -1.778 0 -1.777 -1.75 -1.777 l -10.5 0 z" transform="translate(513.00061,108)" style="fill:#bebebe;fill-opacity:1;fill-rule:evenodd"/>
 </g>
</svg>
