<svg xmlns="http://www.w3.org/2000/svg" viewBox="0 0 16 16">
 <g transform="translate(-261.0002 -647)">
  <path d="m 269 647.69 c -1 -0.004 -1.563 3.54 -2.375 4.125 -0.812 0.585 -4.344 -0.013 -4.656 0.938 -0.313 0.95 2.882 2.578 3.188 3.531 0.305 0.952 -1.338 4.128 -0.531 4.719 0.807 0.591 3.343 -1.942 4.344 -1.938 1 0.004 3.501 2.585 4.313 2 0.812 -0.585 -0.813 -3.8 -0.5 -4.75 0.313 -0.95 3.524 -2.548 3.219 -3.5 -0.305 -0.953 -3.849 -0.377 -4.656 -0.969 -0.807 -0.591 -1.344 -4.152 -2.344 -4.156 z m -1 4.313 2 0 0 2 2 0 0 2 -2 0 0 2 -2 0 0 -2 -2 0 0 -2 2 0 z" style="fill:#bebebe;color:#000"/>
 </g>
</svg>
