<svg xmlns="http://www.w3.org/2000/svg" viewBox="0 0 16 16.000001">
 <path d="m 9.845 7.537 a 2.5 3.25 60 0 0 -0.707 0.059 l 0.756 1.309 c 0.277 0.48 0.113 1.088 -0.367 1.365 l -0.648 0.375 C 8.399 10.922 7.788 10.759 7.511 10.279 L 6.755 8.971 A 2.5 3.25 60 0 0 6.263 11.865 2.5 3.25 60 0 0 9.02 12.887 L 10.814 16 13.992 16 11.4 11.512 A 2.5 3.25 60 0 0 11.892 8.615 2.5 3.25 60 0 0 9.845 7.537" style="fill:#bebebe;opacity:1;fill-opacity:1;stroke:none;fill-rule:nonzero"/>
 <path d="m 2 1 l 0 0.5 l 0 13.5 l 6.648 0 l -0.49 -0.85 c -0.344 -0.02 -0.684 -0.07 -1.01 -0.15 l -4.148 0 l 0 -12 l 9 0 l 0 4.805 c 0.396 0.258 0.737 0.593 1 1 l 0 -6.807 l -11 0 z m 11 10.215 c -0.028 0.061 -0.046 0.125 -0.076 0.186 l 0.076 0.133 l 0 -0.318 z m -1.752 2.785 l 0.359 0.625 l 0.002 0 l -0.361 -0.625 z" mix-blend-mode="normal" isolation="auto" white-space="normal" solid-opacity="1" solid-color="#000000" style="visibility:visible;shape-rendering:auto;color-interpolation-filters:linearRGB;fill:#bebebe;opacity:1;image-rendering:auto;fill-opacity:1;stroke:none;display:inline;color:#000;fill-rule:nonzero;color-rendering:auto;color-interpolation:sRGB"/>
</svg>
