<svg xmlns="http://www.w3.org/2000/svg" viewBox="0 0 16 16">
 <g transform="translate(-40 -668)" style="fill:#bebebe">
  <g style="color:#000">
   <path d="m 43.5 676.99 c -1.905 0 -3.492 1.575 -3.492 3.513 0 1.938 1.588 3.513 3.492 3.513 1.905 0 3.492 -1.575 3.492 -3.513 0 -1.938 -1.588 -3.513 -3.492 -3.513 z m 0 2.026 c 0.857 0 1.508 0.664 1.508 1.487 0 0.823 -0.651 1.487 -1.508 1.487 -0.857 0 -1.508 -0.664 -1.508 -1.487 0 -0.823 0.651 -1.487 1.508 -1.487 z"/>
   <path d="m 52.5 676.99 c -1.905 0 -3.492 1.575 -3.492 3.513 0 1.938 1.588 3.513 3.492 3.513 1.905 0 3.492 -1.575 3.492 -3.513 0 -1.938 -1.588 -3.513 -3.492 -3.513 z m 0 2.026 c 0.857 0 1.508 0.664 1.508 1.487 0 0.823 -0.651 1.487 -1.508 1.487 -0.857 0 -1.508 -0.664 -1.508 -1.487 0 -0.823 0.651 -1.487 1.508 -1.487 z"/>
  </g>
  <path d="m 43.1 668 c -1.06 0.554 -1.407 1.759 -0.794 2.719 l 4.42 7.281 l -1.746 2.368 1.414 2.085 1.61 -2.484 1.579 2.484 1.401 -1.997 l -1.702 -2.456 4.42 -7.281 c 0.612 -0.96 0.266 -2.165 -0.794 -2.719 l -4.904 8 -4.904 -8 z"/>
 </g>
</svg>
