<svg xmlns="http://www.w3.org/2000/svg" viewBox="0 0 16 16">
 <g transform="translate(-201.0002 -767)" style="fill:#bebebe;color:#000">
  <path d="m 211.88 767.06 a 1 1 0 0 0 -0.688 0.5 l -3.313 5.625 a 1.01 1.01 0 1 0 1.75 1 l 3.313 -5.625 a 1 1 0 0 0 -1.063 -1.5 z"/>
  <path d="m 206.53 771.72 4.947 3.054 c 0.604 0.315 0.687 0.892 0.209 1.509 l -0.625 0.813 -6.594 -3.875 0.551 -1.061 c 0.289 -0.585 0.755 -0.816 1.511 -0.439 z"/>
  <path d="m 204.56 774.58 c 0 0 -2.855 3.036 -1.333 4.699 1.688 1.844 4.758 1.767 5.863 1.723 l 4.01 0 c -1.875 -0.375 -3.837 -1.816 -2.903 -3.245 z"/>
 </g>
</svg>
