<svg xmlns="http://www.w3.org/2000/svg" viewBox="0 0 16 16">
 <g transform="translate(-241.0002 -647)">
  <path d="m 243.93 648 c -0.508 0.039 -0.942 0.517 -0.933 1.027 l 0 12.945 c -0.008 0.54 0.487 1.035 1.026 1.027 l 9.948 0 c 0.539 0.008 1.034 -0.487 1.026 -1.027 l 0 -9.958 c -0.004 -0.267 -0.118 -0.531 -0.311 -0.716 l -2.984 -2.987 c -0.185 -0.193 -0.448 -0.307 -0.715 -0.311 l -6.964 0 c -0.031 -0.001 -0.062 -0.001 -0.093 0 z m 1.088 2.054 5.969 0 0 1.992 -5.969 0 z m 0 3.983 7.958 0 0 1.992 -7.958 0 z m 0 3.983 7.958 0 0 1.992 -7.958 0 z" style="fill:#bebebe;color:#bebebe"/>
 </g>
</svg>
