<svg xmlns="http://www.w3.org/2000/svg" viewBox="0 0 16 16">
 <g transform="matrix(-1 0 0 1 57 -760)">
  <path d="m 126 540 -6 6 6 6 9.04 0 c 0.53 -0.022 0.965 -0.492 0.965 -1 l 0 -10 c 0 -0.531 -0.346 -1 -1.01 -1 l -8.991 0 z m 1 3 1 0 c 0.01 0 0.021 0 0.031 0 0.255 0.011 0.51 0.129 0.688 0.313 l 1.281 1.281 1.313 -1.281 c 0.266 -0.231 0.447 -0.306 0.688 -0.313 l 1 0 0 1 c 0 0.286 -0.034 0.551 -0.25 0.75 l -1.281 1.281 1.25 1.25 c 0.188 0.188 0.281 0.453 0.281 0.719 l 0 1 -1 0 c -0.265 0 -0.531 -0.093 -0.719 -0.281 l -1.281 -1.281 l -1.281 1.281 c -0.188 0.188 -0.453 0.281 -0.719 0.281 l -1 0 0 -1 c 0 -0.265 0.093 -0.531 0.281 -0.719 l 1.281 -1.25 -1.281 -1.281 c -0.211 -0.195 -0.303 -0.469 -0.281 -0.75 l 0 -1 z" transform="translate(-79 222)" style="fill:#bebebe;color:#000"/>
 </g>
</svg>
