<svg xmlns="http://www.w3.org/2000/svg" viewBox="0 0 16 16">
 <g transform="translate(-301.00019 -647)" style="fill:#bebebe;color:#000">
  <path d="m 307 647.05 0 2 6 0 c 0.428 0 1 0.614 1 1 l 0 1 -5 0 c -0.919 0 -1.736 0.384 -2.25 0.969 -0.514 0.585 -0.756 1.311 -0.75 2.031 0.006 0.721 0.269 1.453 0.781 2.031 0.512 0.579 1.31 0.969 2.219 0.969 l 6 0 1 0 0 -1 0 -6 c 0 -1.634 -1.32 -3 -3 -3 l -6 0 z m 2 6 5 0 0 2 -5 0 c -0.398 0 -0.567 -0.11 -0.719 -0.281 -0.152 -0.171 -0.279 -0.439 -0.281 -0.719 -0.002 -0.279 0.105 -0.554 0.25 -0.719 0.145 -0.165 0.328 -0.281 0.75 -0.281 z"/>
  <path d="m 305 662 -1 0 c -0.265 0 -0.531 -0.093 -0.719 -0.281 l -2 -2 -0.281 -0.281 0 -0.875 0.281 -0.281 2 -2 c 0.188 -0.188 0.453 -0.281 0.719 -0.281 l 1 0 0 1 c 0 0.265 -0.093 0.531 -0.281 0.719 l -1.281 1.281 1.281 1.281 c 0.188 0.188 0.281 0.453 0.281 0.719 l 0 1 z"/>
  <path d="m 303,658 0,2 12.9375,0 0,-2 L 303,658 z"/>
 </g>
</svg>
