<svg xmlns="http://www.w3.org/2000/svg" viewBox="0 0 16 16">
 <g transform="translate(-220.0002 -706)">
  <path d="m 224.5 709 0 2 6 0 c 0.428 0 0.594 0.267 0.469 0.719 l -0.344 1.281 l -5.25 0 c -1.839 0 -3.125 1.352 -3.5 2.75 -0.187 0.699 -0.162 1.479 0.25 2.156 0.412 0.677 1.248 1.094 2.156 1.094 l 6 0 0.75 0 0.219 -0.719 1.656 -6 c 0.435 -1.569 -0.726 -3.281 -2.406 -3.281 l -6 0 z m 0.875 6 4.688 0 -0.563 2 -5.219 0 c -0.398 0 -0.425 -0.084 -0.469 -0.156 -0.044 -0.073 -0.081 -0.293 0 -0.594 0.162 -0.602 0.718 -1.25 1.563 -1.25 z" style="fill:#bebebe;color:#000"/>
 </g>
</svg>
