<svg xmlns="http://www.w3.org/2000/svg" viewBox="0 0 16 16">
 <path d="m 5.828 3 l 2 2 l 2.172 0 c 0.428 0 1 0.614 1 1 l 0 1 l -1.172 0 l 3.172 3.172 l 0 -4.172 c 0 -1.634 -1.32 -3 -3 -3 l -4.172 0 z m -1.287 4.369 c -0.303 0.16 -0.578 0.357 -0.791 0.6 c -0.514 0.585 -0.756 1.311 -0.75 2.031 c 0.006 0.721 0.269 1.453 0.781 2.031 c 0.512 0.579 1.31 0.969 2.219 0.969 l 4.172 0 l -2 -2 l -2.172 0 c -0.398 0 -0.567 -0.11 -0.719 -0.281 c -0.152 -0.171 -0.279 -0.439 -0.281 -0.719 c -0.002 -0.279 0.105 -0.554 0.25 -0.719 c 0.145 -0.165 0.328 -0.281 0.75 -0.281 l 0.172 0 l -1.631 -1.631 z" style="fill:#bebebe;color:#000"/>
 <rect width="2" height="18" x="-1" y="2.314" transform="matrix(0.70710678,-0.70710678,0.70710678,0.70710678,0,0)" style="fill:#bebebe;opacity:1;fill-opacity:1;stroke:none;fill-rule:nonzero"/>
</svg>
