<svg xmlns="http://www.w3.org/2000/svg" viewBox="0 0 16 16">
 <g transform="translate(-41.0002 -827)">
  <path d="m 49 830 c -0.177 0 -0.407 0.057 -0.531 0.125 l -6.844 3.875 c -0.537 0.219 -0.78 0.963 -0.5 1.469 0.28 0.506 1.028 0.647 1.5 0.313 l 0.375 -0.219 0 5.75 c -0.002 0.357 0.327 0.69 0.688 0.688 l 2.625 0 c 0.361 0.002 0.69 -0.331 0.688 -0.688 l 0 -4.313 4 0 0 4.281 c -0.002 0.346 0.306 0.705 0.656 0.719 1.503 0.017 0.889 0 2.656 0 0.361 0.002 0.69 -0.331 0.688 -0.688 l 0 -5.781 0.438 0.25 c 0.47 0.266 1.17 0.093 1.438 -0.375 0.268 -0.468 0.064 -1.14 -0.406 -1.406 l -6.844 -3.875 c -0.187 -0.104 -0.448 -0.125 -0.625 -0.125 z" style="fill:#bebebe;color:#000"/>
 </g>
</svg>
