<svg xmlns="http://www.w3.org/2000/svg" viewBox="0 0 16 16">
 <path d="m 8 4 c -2.209 0 -4 1.791 -4 4 0 0.357 0.069 0.702 0.156 1.031 l 4.875 -4.875 c -0.329 -0.088 -0.675 -0.156 -1.031 -0.156 z m 3.844 2.969 -4.875 4.875 c 0.329 0.088 0.675 0.156 1.031 0.156 c 2.209 0 4 -1.791 4 -4 0 -0.357 -0.069 -0.702 -0.156 -1.031 z" style="fill:#ef555c;fill-opacity:1;color:#bebebe"/>
 <path d="m 13.656 0.938 -12.719 12.719 1.406 1.406 12.719 -12.719 -1.406 -1.406 z m -5.656 1.063 c -3.314 0 -6 2.686 -6 6 0 0.927 0.218 1.81 0.594 2.594 l 1.563 -1.563 c -0.088 -0.329 -0.156 -0.675 -0.156 -1.031 0 -2.209 1.791 -4 4 -4 0.357 0 0.702 0.069 1.031 0.156 l 1.563 -1.563 c -0.784 -0.375 -1.667 -0.594 -2.594 -0.594 z m 5.406 3.406 -1.563 1.563 c 0.088 0.329 0.156 0.675 0.156 1.031 c 0 2.209 -1.791 4 -4 4 -0.357 0 -0.702 -0.069 -1.031 -0.156 l -1.563 1.563 c 0.784 0.375 1.667 0.594 2.594 0.594 3.314 0 6 -2.686 6 -6 0 -0.927 -0.218 -1.81 -0.594 -2.594 z" style="fill:#bebebe;color:#000"/>
</svg>
