<svg xmlns="http://www.w3.org/2000/svg" viewBox="0 0 16 16">
 <g transform="translate(-41.0002 -807)" style="fill:#bebebe">
  <g style="color:#000">
   <path d="m 43 807 0 9 12 0 0 -9 z m 2 2 8 0 0 5 -8 0 z"/>
   <path d="m 46 812 c 2.321 1 3.045 -1.66 6 0 l 0 1 -6 0 z" style="opacity:0.35"/>
  </g>
  <path d="m 52 818.04 -1 0 c -0.257 0 -0.529 0.13 -0.72 0.313 l -1.283 1.283 -1.283 -1.283 c -0.19 -0.183 -0.462 -0.313 -0.72 -0.313 l -1 0 0 1 c 0 0.31 0.09 0.553 0.282 0.751 l 2.722 2.659 2.722 -2.659 c 0.191 -0.198 0.282 -0.441 0.282 -0.751 l 0 -1 z" style="color:#bebebe"/>
 </g>
</svg>
