<svg xmlns="http://www.w3.org/2000/svg" viewBox="0 0 16 16">
 <g transform="translate(-360.00021 -666)" style="fill:#bebebe">
  <path d="m 361 666 0 2 c 0.552 0 1 0.448 1 1 0 0.552 -0.448 1 -1 1 l 0 1 c 0.552 0 1 0.448 1 1 0 0.552 -0.448 1 -1 1 l 0 1 c 0.552 0 1 0.448 1 1 0 0.552 -0.448 1 -1 1 l 0 1 c 0.552 0 1 0.448 1 1 0 0.552 -0.448 1 -1 1 l 0 2 2 0 c 0 -0.552 0.448 -1 1 -1 0.552 0 1 0.448 1 1 l 1 0 c 0 -0.552 0.448 -1 1 -1 0.552 0 1 0.448 1 1 l 1 0 c 0 -0.552 0.448 -1 1 -1 0.552 0 1 0.448 1 1 l 1 0 c 0 -0.552 0.448 -1 1 -1 0.552 0 1 0.448 1 1 l 2 0 0 -2 c -0.552 0 -1 -0.448 -1 -1 0 -0.552 0.448 -1 1 -1 l 0 -1 c -0.552 0 -1 -0.448 -1 -1 0 -0.552 0.448 -1 1 -1 l 0 -1 c -0.552 0 -1 -0.448 -1 -1 0 -0.552 0.448 -1 1 -1 l 0 -1 c -0.552 0 -1 -0.448 -1 -1 0 -0.552 0.448 -1 1 -1 l 0 -2 -2 0 c 0 0.552 -0.448 1 -1 1 -0.552 0 -1 -0.448 -1 -1 l -1 0 c 0 0.552 -0.448 1 -1 1 -0.552 0 -1 -0.448 -1 -1 l -1 0 c 0 0.552 -0.448 1 -1 1 -0.552 0 -1 -0.448 -1 -1 l -1 0 c 0 0.552 -0.448 1 -1 1 -0.552 0 -1 -0.448 -1 -1 l -2 0 z m 2 2 11 0 0 11 -2 0 0 -2.813 c 0 -1.11 -0.912 -2.01 -2 -2.094 l 0 0.938 -2.938 0 0 -0.938 c -1.088 0.081 -2.063 0.984 -2.063 2.094 l 0 2.813 -2 0 0 -11 z"/>
  <path d="m 52 342.5 a 2.5 2.5 0 1 1 -5 0 2.5 2.5 0 1 1 5 0 z" transform="translate(319.00017 328.99978)" style="color:#bebebe"/>
 </g>
</svg>
