<svg xmlns="http://www.w3.org/2000/svg" viewBox="0 0 16 16">
 <path d="m 10.5,6 5,0 C 15.777,6 16,6.223 16,6.5 l 0,1 C 16,7.777 15.777,8 15.5,8 l -5,0 C 10.223,8 10,7.777 10,7.5 l 0,-1 C 10,6.223 10.223,6 10.5,6 z m -5,4 5,0 c 0.277,0 0.5,0.223 0.5,0.5 l 0,1 c 0,0.277 -0.223,0.5 -0.5,0.5 l -5,0 C 5.223,12 5,11.777 5,11.5 l 0,-1 C 5,10.223 5.223,10 5.5,10 z m -5,-6 5,0 C 5.777,4 6,4.223 6,4.5 l 0,1 C 6,5.777 5.777,6 5.5,6 l -5,0 C 0.223,6 0,5.777 0,5.5 l 0,-1 C 0,4.223 0.223,4 0.5,4 z M 9,2 9,14 C 9,14.554 8.554,15 8,15 7.446,15 7,14.554 7,14 L 7,2 C 7,1.446 7.446,1 8,1 8.554,1 9,1.446 9,2 z m 5,0 0,12 c 0,0.554 -0.446,1 -1,1 -0.554,0 -1,-0.446 -1,-1 L 12,2 c 0,-0.554 0.446,-1 1,-1 0.554,0 1,0.446 1,1 z M 4,2 4,14 C 4,14.554 3.554,15 3,15 2.446,15 2,14.554 2,14 L 2,2 C 2,1.446 2.446,1 3,1 3.554,1 4,1.446 4,2 z" style="fill:#bebebe;color:#bebebe"/>
</svg>
