<svg xmlns="http://www.w3.org/2000/svg" viewBox="0 0 16 16">
 <path d="m 2.01 4 c 0.179 0.008 0.354 0.059 0.505 0.156 l 5.05 3 c 0.285 0.18 0.441 0.512 0.441 0.844 0 0.332 -0.157 0.664 -0.441 0.844 l -5.05 3 c -0.15 0.097 -0.326 0.148 -0.505 0.156 l -0.158 0 -0.851 0 0 -8 0.851 0 z" style="fill:#bebebe;color:#000"/>
 <path d="m 9.01 4 c 0.179 0.008 0.354 0.059 0.505 0.156 l 5.05 3 c 0.285 0.18 0.441 0.512 0.441 0.844 0 0.332 -0.157 0.664 -0.441 0.844 l -5.05 3 c -0.15 0.097 -0.326 0.148 -0.505 0.156 l -0.158 0 -0.851 0 0 -8 0.851 0 z" style="fill:#bebebe;color:#000"/>
</svg>
