<svg xmlns="http://www.w3.org/2000/svg" viewBox="0 0 16 16">
 <g transform="translate(-261.00015 -667)" style="fill:#bebebe;color:#000">
  <path d="m 268 670 0 10 2 0 0 -10 -2 0 z"/>
  <path d="m 265 677 0 1 c 0 0.265 0.093 0.531 0.281 0.719 l 3.719 3.719 c 0 0 2.479 -2.479 3.719 -3.719 0.188 -0.188 0.281 -0.453 0.281 -0.719 l 0 -1 -1 0 c -0.265 0 -0.531 0.093 -0.719 0.281 l -2.281 2.281 -2.281 -2.281 c -0.188 -0.188 -0.453 -0.281 -0.719 -0.281 z"/>
  <path d="m 265 673 0 -1 c 0 -0.265 0.093 -0.531 0.281 -0.719 l 3.719 -3.719 c 0 0 2.479 2.479 3.719 3.719 0.188 0.188 0.281 0.453 0.281 0.719 l 0 1 -1 0 c -0.265 0 -0.531 -0.093 -0.719 -0.281 l -2.281 -2.281 -2.281 2.281 c -0.188 0.188 -0.453 0.281 -0.719 0.281 z"/>
 </g>
</svg>
