<svg xmlns="http://www.w3.org/2000/svg" viewBox="0 0 16 16">
 <g transform="translate(-241.00015 -667)" style="fill:#bebebe">
  <path d="m 244 674 0 2 10 0 0 -2 -10 0 z" style="color:#000"/>
  <g style="color:#bebebe">
   <path d="m 251 671 0 1 c 0 0.257 0.13 0.528 0.313 0.719 l 2.281 2.281 -2.281 2.281 c -0.183 0.19 -0.313 0.462 -0.313 0.719 l 0 1 1 0 c 0.309 0 0.552 -0.09 0.75 -0.281 l 3.656 -3.719 -3.656 -3.719 c -0.198 -0.191 -0.441 -0.281 -0.75 -0.281 z"/>
   <path d="m 247 671 0 1 c 0 0.257 -0.13 0.528 -0.313 0.719 l -2.281 2.281 l 2.281 2.281 c 0.183 0.19 0.313 0.462 0.313 0.719 l 0 1 -1 0 c -0.309 0 -0.552 -0.09 -0.75 -0.281 l -3.656 -3.719 3.656 -3.719 c 0.198 -0.191 0.441 -0.281 0.75 -0.281 z"/>
  </g>
 </g>
</svg>
