<svg xmlns="http://www.w3.org/2000/svg" viewBox="0 0 16 16">
 <g transform="translate(-281.00015 -667)" style="fill:#bebebe;color:#000">
  <path d="m 283 676 0 1 c 0 0.265 0.093 0.531 0.281 0.719 l 3.719 3.719 c 0 0 2.479 -2.479 3.719 -3.719 0.188 -0.188 0.281 -0.453 0.281 -0.719 l 0 -1 -1 0 c -0.265 0 -0.531 0.093 -0.719 0.281 l -2.281 2.281 -2.281 -2.281 c -0.188 -0.188 -0.453 -0.281 -0.719 -0.281 z"/>
  <path d="m 289.5 670 c -1.921 0 -3.5 1.579 -3.5 3.5 l 0 5.5 2 0 0 -5.5 c 0 -0.84 0.66 -1.5 1.5 -1.5 l 4.5 0 0 -2 -4.5 0 z"/>
 </g>
</svg>
