<svg xmlns="http://www.w3.org/2000/svg" viewBox="0 0 16 16">
 <g style="fill:#bebebe">
  <g transform="translate(-401.0002 -57)">
   <path d="m 409 59 c -3.303 0 -6 2.697 -6 6 0 3.303 2.697 6 6 6 3.303 0 6 -2.697 6 -6 0 -3.303 -2.697 -6 -6 -6 z m 0 1 c 2.761 0 5 2.239 5 5 0 2.761 -2.239 5 -5 5 -2.761 0 -5 -2.239 -5 -5 0 -2.761 2.239 -5 5 -5 z"/>
  </g>
  <g transform="translate(-401.0002 -57)" style="color:#000">
   <path d="m 409 61 c -2.209 0 -4 1.791 -4 4 0 2.209 1.791 4 4 4 2.209 0 4 -1.791 4 -4 0 -2.209 -1.791 -4 -4 -4 z m 0 1 c 1.657 0 3 1.343 3 3 0 1.657 -1.343 3 -3 3 -1.657 0 -3 -1.343 -3 -3 0 -1.657 1.343 -3 3 -3 z" style="opacity:0.5"/>
   <rect width="3" x="401" y="64" rx="1" height="2"/>
   <rect width="2" x="408" y="57" rx="1" height="3"/>
   <rect width="3" x="414" y="64" rx="1" height="2"/>
   <rect width="2" x="408" y="70" rx="1" height="3"/>
   <path d="m 170 682 a 2 2 0 1 1 -4 0 2 2 0 1 1 4 0 z" transform="translate(241.0002 -617)"/>
  </g>
 </g>
</svg>
