<svg xmlns="http://www.w3.org/2000/svg" viewBox="0 0 16 16.0243" height="16.02">
 <g style="fill:#bebebe">
  <path d="m 5.5 0.375 c -3.202 1.059 -5.5 4.102 -5.5 7.625 c 0 4.39 3.58 8.03 8 8.03 c 4.42 0 8 -3.642 8 -8.03 c 0 -3.522 -2.299 -6.565 -5.5 -7.625 l 0 2.156 c 2.042 0.962 3.5 3.03 3.5 5.469 c 0 3.367 -2.69 6.06 -6 6.06 c -3.31 0 -6 -2.695 -6 -6.06 c 0 -2.459 1.444 -4.548 3.5 -5.5 l 0 -2.125 z" style="color:#000"/>
  <rect width="2" x="-9" y="0.024" rx="0.837" ry="0" height="8" transform="scale(-1 1)"/>
 </g>
</svg>
