<svg xmlns="http://www.w3.org/2000/svg" viewBox="0 0 16 16">
 <g style="fill:#bebebe;display:block">
  <path d="m 11.438 0 c -0.133 0 -0.25 0.117 -0.25 0.25 l 0 0.625 c -0.296 0.076 -0.556 0.223 -0.813 0.375 l -0.469 -0.5 c -0.094 -0.094 -0.25 -0.094 -0.344 0 l -0.813 0.813 c -0.094 0.094 -0.094 0.25 0 0.344 l 0.5 0.469 c -0.152 0.257 -0.299 0.516 -0.375 0.813 l -0.625 0 c -0.133 0 -0.25 0.117 -0.25 0.25 l 0 1.125 c 0 0.133 0.117 0.25 0.25 0.25 l 0.625 0 c 0.076 0.296 0.223 0.556 0.375 0.813 l -0.5 0.469 c -0.094 0.094 -0.094 0.25 0 0.344 l 0.813 0.813 c 0.094 0.094 0.25 0.094 0.344 0 l 0.469 -0.5 c 0.257 0.152 0.516 0.299 0.813 0.375 l 0 0.625 c 0 0.133 0.117 0.25 0.25 0.25 l 1.125 0 c 0.133 0 0.25 -0.117 0.25 -0.25 l 0 -0.625 c 0.296 -0.076 0.556 -0.223 0.813 -0.375 l 0.469 0.5 c 0.094 0.094 0.25 0.094 0.344 0 l 0.813 -0.813 c 0.094 -0.094 0.094 -0.25 0 -0.344 l -0.5 -0.469 c 0.152 -0.257 0.299 -0.516 0.375 -0.813 l 0.625 0 c 0.133 0 0.25 -0.117 0.25 -0.25 l 0 -1.125 c 0 -0.133 -0.117 -0.25 -0.25 -0.25 l -0.625 0 c -0.076 -0.296 -0.223 -0.556 -0.375 -0.813 l 0.5 -0.469 c 0.094 -0.094 0.094 -0.25 0 -0.344 l -0.813 -0.813 c -0.094 -0.094 -0.25 -0.094 -0.344 0 l -0.469 0.5 c -0.257 -0.152 -0.516 -0.299 -0.813 -0.375 l 0 -0.625 c 0 -0.133 -0.117 -0.25 -0.25 -0.25 l -1.125 0 z m 0.563 3 c 0.552 0 1 0.448 1 1 0 0.552 -0.448 1 -1 1 -0.552 0 -1 -0.448 -1 -1 0 -0.552 0.448 -1 1 -1 z"/>
  <path d="m 3.438 4 c -0.133 0 -0.25 0.117 -0.25 0.25 l 0 0.625 c -0.296 0.076 -0.556 0.223 -0.813 0.375 l -0.469 -0.5 c -0.094 -0.094 -0.25 -0.094 -0.344 0 l -0.813 0.813 c -0.094 0.094 -0.094 0.25 0 0.344 l 0.5 0.469 c -0.152 0.257 -0.299 0.516 -0.375 0.813 l -0.625 0 c -0.133 0 -0.25 0.117 -0.25 0.25 l 0 1.125 c 0 0.133 0.117 0.25 0.25 0.25 l 0.625 0 c 0.076 0.296 0.223 0.556 0.375 0.813 l -0.5 0.469 c -0.094 0.094 -0.094 0.25 0 0.344 l 0.813 0.813 c 0.094 0.094 0.25 0.094 0.344 0 l 0.469 -0.5 c 0.257 0.152 0.516 0.299 0.813 0.375 l 0 0.625 c 0 0.133 0.117 0.25 0.25 0.25 l 1.125 0 c 0.133 0 0.25 -0.117 0.25 -0.25 l 0 -0.625 c 0.296 -0.076 0.556 -0.223 0.813 -0.375 l 0.469 0.5 c 0.094 0.094 0.25 0.094 0.344 0 l 0.813 -0.813 c 0.094 -0.094 0.094 -0.25 0 -0.344 l -0.5 -0.469 c 0.152 -0.257 0.299 -0.516 0.375 -0.813 l 0.625 0 c 0.133 0 0.25 -0.117 0.25 -0.25 l 0 -1.125 c 0 -0.133 -0.117 -0.25 -0.25 -0.25 l -0.625 0 c -0.076 -0.296 -0.223 -0.556 -0.375 -0.813 l 0.5 -0.469 c 0.094 -0.094 0.094 -0.25 0 -0.344 l -0.813 -0.813 c -0.094 -0.094 -0.25 -0.094 -0.344 0 l -0.469 0.5 c -0.257 -0.152 -0.516 -0.299 -0.813 -0.375 l 0 -0.625 c 0 -0.133 -0.117 -0.25 -0.25 -0.25 l -1.125 0 z m 0.563 3 c 0.552 0 1 0.448 1 1 0 0.552 -0.448 1 -1 1 -0.552 0 -1 -0.448 -1 -1 0 -0.552 0.448 -1 1 -1 z"/>
  <path d="m 9.85 6.01 c -0.037 -0.002 -0.055 0.015 -0.094 0.031 l -1.344 0.531 c -0.155 0.064 -0.221 0.282 -0.156 0.438 l 0.281 0.781 c -0.309 0.232 -0.524 0.479 -0.75 0.781 l -0.781 -0.344 c -0.155 -0.064 -0.373 0.032 -0.438 0.188 l -0.531 1.281 c -0.064 0.155 0.032 0.342 0.188 0.406 l 0.781 0.344 c -0.053 0.374 -0.054 0.742 0 1.125 l -0.781 0.344 c -0.155 0.064 -0.221 0.188 -0.156 0.344 l 0.5 1.344 c 0.064 0.155 0.282 0.221 0.438 0.156 l 0.781 -0.313 c 0.232 0.309 0.511 0.555 0.813 0.781 l -0.344 0.781 c -0.064 0.155 0.001 0.373 0.156 0.438 l 1.344 0.531 c 0.155 0.064 0.279 -0.032 0.344 -0.188 l 0.344 -0.781 c 0.374 0.053 0.742 0.055 1.125 0 l 0.313 0.781 c 0.064 0.155 0.282 0.221 0.438 0.156 l 1.281 -0.5 c 0.155 -0.064 0.252 -0.282 0.188 -0.438 l -0.344 -0.781 c 0.309 -0.232 0.555 -0.479 0.781 -0.781 l 0.813 0.313 c 0.155 0.064 0.311 -0.001 0.375 -0.156 l 0.563 -1.344 c 0.064 -0.155 -0.001 -0.279 -0.156 -0.344 l -0.813 -0.344 c 0.053 -0.374 0.054 -0.742 0 -1.125 l 0.781 -0.344 c 0.155 -0.064 0.252 -0.188 0.188 -0.344 l -0.563 -1.344 c -0.064 -0.155 -0.251 -0.252 -0.406 -0.188 l -0.781 0.344 c -0.232 -0.309 -0.479 -0.555 -0.781 -0.781 l 0.344 -0.844 c 0.064 -0.155 -0.032 -0.311 -0.188 -0.375 l -1.281 -0.531 c -0.155 -0.064 -0.373 0.032 -0.438 0.188 l -0.313 0.781 c -0.374 -0.053 -0.742 -0.055 -1.125 0 l -0.344 -0.781 c -0.048 -0.116 -0.139 -0.212 -0.25 -0.219 z m 1.156 3 c 1.105 0 2 0.895 2 2 0 1.105 -0.895 2 -2 2 -1.105 0 -2 -0.895 -2 -2 0 -1.105 0.895 -2 2 -2 z"/>
 </g>
</svg>
