<svg xmlns="http://www.w3.org/2000/svg" viewBox="0 0 16 16" style="enable-background:new">
 <g transform="translate(-586.0002,-41)" style="display:inline">
  <path d="m 594 43 0 8.03 0 1 1 0 2 0 c 0.939 0 1.782 -0.382 2.313 -0.969 0.53 -0.586 0.76 -1.333 0.75 -2.063 -0.01 -0.73 -0.286 -1.454 -0.813 -2.031 c -0.527 -0.577 -1.329 -0.969 -2.25 -0.969 l -1 0 0 -3 -2 0 z m 2 5 1 0 c 0.422 0 0.62 0.135 0.781 0.313 0.162 0.177 0.278 0.443 0.281 0.719 0.004 0.276 -0.098 0.52 -0.25 0.688 -0.152 0.168 -0.354 0.313 -0.813 0.313 l -1 0 l 0 -2.031 z" style="visibility:visible;fill:#bebebe;fill-opacity:1;stroke:none;color:#000"/>
  <path d="m 588 43 0 2 2 0 c 1 0 1 1 1 1 l 0 0 -1 0 c -0.919 0 -1.736 0.384 -2.25 0.969 -0.514 0.585 -0.756 1.311 -0.75 2.031 0.006 0.721 0.269 1.453 0.781 2.031 c 0.512 0.579 1.31 0.969 2.219 0.969 l 2 0 1 0 0 -1 0 -5 c 0 -2 -1 -3 -3 -3 z m 2 5 1 0 0 2 -1 0 c -0.398 0 -0.567 -0.11 -0.719 -0.281 c -0.152 -0.171 -0.279 -0.439 -0.281 -0.719 c -0.002 -0.279 0.105 -0.554 0.25 -0.719 c 0.145 -0.165 0.328 -0.281 0.75 -0.281" style="fill:#bebebe;color:#000"/>
  <path d="m 586.82 55.34 1.979 -1.686 1.979 1.686 1.979 -1.686 1.979 1.686 1.979 -1.686 1.979 1.686 1.979 -1.686" style="stroke-dasharray:none;stroke-opacity:1;fill:none;stroke-miterlimit:4;fill-opacity:1;stroke:#bebebe;fill-rule:evenodd;stroke-linecap:butt;stroke-linejoin:miter;stroke-width:1"/>
 </g>
</svg>
