<svg xmlns="http://www.w3.org/2000/svg" viewBox="0 0 24 24">
 <rect width="8" height="14" x="8" y="2" rx="4" ry="4.5" style="fill:#d6d6d6;opacity:1;fill-opacity:1;stroke:none;fill-rule:nonzero"/>
 <path d="m 8 12 -1.75 0.997 0.013 -1" style="fill:#373737;opacity:1;fill-opacity:1;stroke:none;fill-rule:nonzero"/>
 <path d="m 16 12 1.75 0.997 -0.013 -1" style="fill:#373737;opacity:1;fill-opacity:1;stroke:none;fill-rule:nonzero"/>
 <path d="m 6.277 11.706 a 0.571 0.571 0 0 0 -0.563 0.579 c 0 2.245 1.199 4.322 3.143 5.444 1.944 1.122 4.342 1.122 6.286 0 1.944 -1.122 3.143 -3.199 3.143 -5.444 a 0.571 0.571 0 1 0 -1.143 0 c 0 1.838 -0.979 3.535 -2.571 4.454 -1.592 0.919 -3.551 0.919 -5.143 0 -1.592 -0.919 -2.571 -2.616 -2.571 -4.454 a 0.571 0.571 0 0 0 -0.58 -0.579 z" mix-blend-mode="normal" isolation="auto" white-space="normal" solid-opacity="1" solid-color="#000000" style="visibility:visible;shape-rendering:auto;color-interpolation-filters:linearRGB;fill:#547181;opacity:1;image-rendering:auto;fill-opacity:1;stroke:none;display:inline;color:#000;fill-rule:nonzero;color-rendering:auto;color-interpolation:sRGB"/>
 <path d="m 11.429 18.457 c -0.221 1.655 -1.494 2.688 -2.857 3.543 l 6.857 0 c -1.363 -0.855 -2.636 -1.888 -2.857 -3.543 z" style="fill:#547181;fill-opacity:1;stroke:none;fill-rule:evenodd"/>
 <path d="m 8 11.5 c 0 2.493 1.784 4.5 4 4.5 2.216 0 4 -2.01 4 -4.5 l -8 0 z" style="fill:#547181;opacity:1;fill-opacity:1;stroke:none;fill-rule:nonzero"/>
 <path d="m 8 11 0 0.5 c 0 0.172 0.028 0.334 0.045 0.5 l 7.91 0 c 0.016 -0.166 0.045 -0.328 0.045 -0.5 l 0 -0.5 -8 0" style="fill:#373737;opacity:1;fill-opacity:1;stroke:none;fill-rule:nonzero"/>
 <path d="M 14,6 C 13.446,6 13,6.223 13,6.5 13,6.777 13.446,7 14,7 l 2,0 0,-1 -2,0 z" style="fill:#828282;opacity:1;fill-opacity:1;stroke:none;fill-rule:nonzero"/>
 <path d="M 14,8 C 13.446,8 13,8.223 13,8.5 13,8.777 13.446,9 14,9 l 2,0 0,-1 -2,0 z" style="fill:#828282;opacity:1;fill-opacity:1;stroke:none;fill-rule:nonzero"/>
 <path d="m 13 2.158 0 13.684 c 0.792 -0.229 1.479 -0.719 2 -1.389 l 0 -10.906 c -0.521 -0.67 -1.208 -1.16 -2 -1.389" style="fill:#fff;opacity:0.2;fill-opacity:1;stroke:none;fill-rule:nonzero"/>
 <path d="m 15 16.453 c -0.139 0.1 -0.278 0.2 -0.428 0.287 c -0.495 0.286 -1.028 0.472 -1.572 0.58 l 0 1.162 c 0.692 -0.111 1.367 -0.338 2 -0.682 l 0 -1.348 z" style="fill:#fff;opacity:0.2;fill-opacity:1;stroke:none;fill-rule:nonzero"/>
 <path d="m 13 19.723 0 2.277 l 2 0 0 -0.295 c -0.81 -0.546 -1.55 -1.17 -2 -1.982" style="fill:#fff;opacity:0.2;fill-opacity:1;stroke:none;fill-rule:nonzero"/>
 <path d="m 8 8 0 1 l 2 0 c 0.554 0 1 -0.223 1 -0.5 0 -0.277 -0.446 -0.5 -1 -0.5 l -2 0" style="fill:#828282;opacity:1;fill-opacity:1;stroke:none;fill-rule:nonzero"/>
 <path d="m 8 6 0 1 l 2 0 c 0.554 0 1 -0.223 1 -0.5 0 -0.277 -0.446 -0.5 -1 -0.5 l -2 0" style="fill:#828282;opacity:1;fill-opacity:1;stroke:none;fill-rule:nonzero"/>
</svg>
