<svg xmlns="http://www.w3.org/2000/svg" viewBox="0 0 24 24">
 <path d="M 20,15 6,15 6,7 20,7 z" style="fill:#a6b44a;fill-opacity:1;stroke:none"/>
 <path d="m 7 8 0 2 5 0 0 -2 z" style="fill:#073642;stroke:none"/>
 <path d="m 14 8 0 2 5 0 0 -2 z" style="fill:#073642;stroke:none"/>
 <path d="m 7 11 0 1 12 0 0 -1 z" style="fill:#073642;stroke:none"/>
 <path d="m 7 13 0 1 12 0 0 -1 z" style="fill:#073642;stroke:none"/>
 <rect width="1" height="2" x="4" y="7" style="fill:#859900;fill-opacity:1;stroke:none"/>
 <rect width="1" height="2" x="4" y="10" style="fill:#268bd2;fill-opacity:1;stroke:none"/>
 <rect width="1" height="2" x="4" y="13" style="fill:#dc322f;fill-opacity:1;stroke:none"/>
 <path d="m 6 4 -1 0 0 14 -1 0 0 1 2 0 z" style="fill:#657b83;fill-opacity:1;stroke:none"/>
 <rect width="2" height="8" x="17" y="7" style="fill:#fdf6e3;fill-opacity:0.337;stroke:none"/>
</svg>
