<svg xmlns="http://www.w3.org/2000/svg" viewBox="0 0 24 24">
 <g transform="translate(0,-24)">
  <path d="m 12.761 29.01 c -1.328 0 -2.448 0.721 -3.069 1.747 -0.452 -0.218 -0.942 -0.372 -1.482 -0.372 -1.851 0 -3.354 1.437 -3.354 3.208 0 1.771 1.503 3.208 3.354 3.208 1.159 0 2.123 -0.605 2.725 -1.461 0.543 0.316 1.145 0.544 1.827 0.544 0.438 0 0.84 -0.106 1.228 -0.243 0.244 0.398 0.565 0.724 0.958 0.988 -0.003 0.06 -0.03 0.111 -0.03 0.172 0 1.771 1.503 3.208 3.354 3.208 1.851 0 3.354 -1.437 3.354 -3.208 0 -1.086 -0.603 -1.998 -1.467 -2.578 0.003 -0.06 0.03 -0.111 0.03 -0.172 0 -1.771 -1.503 -3.208 -3.354 -3.208 -0.298 0 -0.563 0.102 -0.838 0.172 -0.572 -1.173 -1.793 -2.01 -3.234 -2.01 z" style="fill:#7e7e7e;fill-opacity:1;stroke:none"/>
  <path d="m 14.917 34.74 c -1.088 0 -1.969 0.711 -2.261 1.661 -0.332 -0.167 -0.692 -0.286 -1.093 -0.286 -1.322 0 -2.396 1.027 -2.396 2.292 0 0.265 0.078 0.508 0.165 0.745 -0.658 0.353 -1.123 1 -1.123 1.776 0 1.138 0.966 2.062 2.156 2.062 0.085 0 9.02 0 9.104 0 1.19 0 2.156 -0.924 2.156 -2.062 0 -0.773 -0.465 -1.423 -1.123 -1.776 0.087 -0.237 0.165 -0.479 0.165 -0.745 0 -1.265 -1.073 -2.292 -2.396 -2.292 -0.401 0 -0.761 0.12 -1.093 0.286 -0.292 -0.951 -1.173 -1.661 -2.261 -1.661 z" style="fill:#c4c5c2;fill-opacity:1;stroke:none"/>
  <path d="m 9.106 32.751 c -1.092 0 -1.976 0.711 -2.269 1.661 -0.333 -0.167 -0.694 -0.286 -1.097 -0.286 -1.327 0 -2.404 1.027 -2.404 2.292 0 0.265 0.078 0.508 0.165 0.745 c -0.66 0.353 -1.127 1 -1.127 1.776 c 0 1.138 0.969 2.062 2.163 2.062 0.085 0 9.05 0 9.135 0 1.194 0 2.163 -0.924 2.163 -2.062 0 -0.773 -0.466 -1.423 -1.127 -1.776 0.087 -0.237 0.165 -0.479 0.165 -0.745 0 -1.265 -1.077 -2.292 -2.404 -2.292 -0.402 0 -0.763 0.12 -1.097 0.286 -0.293 -0.951 -1.177 -1.661 -2.269 -1.661 z" style="fill:#dadada;fill-opacity:1;stroke:none"/>
 </g>
</svg>
