<svg xmlns="http://www.w3.org/2000/svg" viewBox="0 0 24 24">
 <g transform="translate(1,1)">
  <path d="m 15.03 12 0 -5.5 c 0 0 0 -0.5 -0.5 -0.5 l -1 0 c 0 0 -0.5 0 -0.5 0.5 l 0 1 c 0 0 0 0.5 -0.5 0.5 l -3 0 c 0 0 -0.5 0 -0.5 -0.5 l 0 -1.5 1 0 0 0.5 c 0 0 0 0.5 0.5 0.5 l 1 0 c 0 0 0.5 0 0.5 -0.5 l 0 -1 c 0 0 0 -0.5 0.5 -0.5 l 3 0 c 0 0 0.5 0 0.5 0.5 l 0 6.5 z" style="fill:#93a1a1;fill-opacity:1;stroke:none"/>
  <rect y="9" x="3" height="8" width="16" rx="1.068" style="fill:#b6bdbd;fill-opacity:1;stroke:none"/>
  <g transform="matrix(0.5,0,0,0.54545455,-1,-550.37197)" style="fill:#6f8a93;fill-opacity:1">
   <path d="m 10 1027.35 0 2.75 3 0 0 -2.75 z m 4 0 0 2.75 3 0 0 -2.75 z m 4 0 0 2.75 3 0 0 -2.75 z m 4 0 0 2.75 3 0 0 -2.75 z m 4 0 0 2.75 3 0 0 -2.75 z m 4 0 0 2.75 3 0 0 -2.75 z m 4 0 0 2.75 4 0 0 -2.75 z m 2 2.75 0 4.125 2 0 0 -4.875 z m -26 1.375 0 2.75 5 0 0 -2.75 z m 6 0 0 2.75 3 0 0 -2.75 z m 4 0 0 2.75 3 0 0 -2.75 z m 4 0 0 2.75 3 0 0 -2.75 z m 4 0 0 2.75 3 0 0 -2.75 z m 4 0 0 2.75 3 0 0 -2.75 z m -22 4.125 0 2.75 3 0 0 -2.75 z m 4 0 0 2.75 15 0 0 -2.75 z m 16 0 0 2.75 3 0 0 -2.75 z m 4 0 0 2.75 4 0 0 -2.75 z" style="color:#000"/>
  </g>
  <rect y="9" x="16" height="8" width="2" style="fill:#fdf6e3;opacity:0.329;fill-opacity:1;stroke:none"/>
 </g>
</svg>
