<svg xmlns="http://www.w3.org/2000/svg" viewBox="0 0 24 24">
 <g style="fill:#909ea9">
  <path d="m 6.75 4 c -0.059 0.012 -0.117 0.031 -0.172 0.063 l -2.344 1.453 c -0.141 0.09 -0.234 0.254 -0.234 0.422 l 0 13.08 c 0 0.262 0.238 0.5 0.5 0.5 l 1.844 0 c 0.008 0.258 0.242 0.484 0.5 0.484 l 10.313 0 c 0.258 0 0.492 -0.227 0.5 -0.484 l 1.844 0 c 0.262 0 0.5 -0.238 0.5 -0.5 l 0 -13.08 c 0 -0.168 -0.094 -0.332 -0.234 -0.422 l -2.344 -1.453 c -0.082 -0.047 -0.172 -0.066 -0.266 -0.063 l -10.313 0 c -0.031 -0.004 -0.063 -0.004 -0.094 0 m 0.25 1 l 10.5 0 l 1.5 1 l 0 12.5 l -1.5 0 l 0 -5 l -11 0 l 0 5 l -1.5 0 l 0 -12.5 m 2 9.5 l 10 0 l 0 0.5 l -10 0 m 0 1.5 l 10 0 l 0 0.5 l -10 0 Z"/>
  <path d="m 11.25 4.5 l -1.75 0 l 0 1.5 l 7 0 l 0 -1.5 Z"/>
  <path d="m 7 12.5 l 0 -3.5 l 7 0 l 0 3.5 Z"/>
  <path d="m 15 9 l 0 3.5 l 2 0 l 0 -3.5 Z"/>
 </g>
</svg>
