<svg xmlns="http://www.w3.org/2000/svg" viewBox="0 0 24 24">
 <defs>
  <linearGradient gradientTransform="matrix(0 -1.0833 1.0357 0 -.5893 51.542)" id="linear0" x1="19.885" gradientUnits="userSpaceOnUse" x2="18.962">
   <stop style="stop-color:#6c6cab"/>
   <stop offset="1" style="stop-color:#ababcf"/>
  </linearGradient>
  <linearGradient gradientTransform="translate(0 2)" id="linear1" y1="13.962" y2="33.04" gradientUnits="userSpaceOnUse" x2="0">
   <stop style="stop-color:#fff;stop-opacity:0.451"/>
   <stop offset="1" style="stop-color:#fff;stop-opacity:0"/>
  </linearGradient>
  <radialGradient cx="24.22" cy="45.26" gradientTransform="matrix(.561 0 0 .03506 -1.5868 16.413)" id="radial0" r="21.39" gradientUnits="userSpaceOnUse">
   <stop style="stop-color:#000;stop-opacity:0.302"/>
   <stop offset="1" style="stop-color:#000;stop-opacity:0"/>
  </radialGradient>
  <radialGradient cx="10.125" cy="15.833" gradientTransform="matrix(1.6034 .01259 -.00619 .788 -6.011 9.3958)" id="radial1" r="23" gradientUnits="userSpaceOnUse">
   <stop style="stop-color:#b8b2ec"/>
   <stop offset="1" style="stop-color:#8080b4"/>
  </radialGradient>
 </defs>
 <g style="fill-rule:evenodd">
  <path d="m 24 18 c 0 0.414 -5.371 0.75 -12 0.75 c -6.629 0 -12 -0.336 -12 -0.75 c 0 -0.414 5.371 -0.75 12 -0.75 c 6.629 0 12 0.336 12 0.75 Z" style="fill:url(#radial0)"/>
  <path d="m 6 35.492 l 39.27 0 c 0.813 0.039 1.227 -0.094 1.227 -0.883 l 0 -2.523 c 0 -0.766 -1.047 -0.781 -1.047 -0.781 l 0.031 -12.586 c 0 0 1.023 0.063 1.023 -0.766 l 0 -2.453 l -44 0 c -0.469 0 -1 0.531 -1 1 l 0 16 Z" transform="scale(.5)" style="fill:url(#radial1);stroke:#60608f;stroke-linejoin:round"/>
 </g>
 <g style="fill:none">
  <path d="m 45 31.5 l -27.547 0 c -0.531 0 -0.953 -0.43 -0.953 -0.969 l 0 -11.06 c 0 -0.539 0.422 -0.969 0.953 -0.969 l 27.547 0" transform="scale(.5)" style="stroke:url(#linear0)"/>
  <path d="m 2.5 16.438 l 0 15.563 c 1.289 0.852 2.523 1.711 3.813 2.563 l 39.25 0 l 0 -2.281 c -0.781 0.039 -1.211 -0.75 -1.063 -1.445 c 0.023 -4.102 -0.008 -8.203 0.055 -12.305 c -0.047 -0.75 1.078 -0.5 1.01 -1.039 l -0.063 -0.992 c -14.09 0 -28.898 -0.063 -43 -0.063 Z" transform="scale(.5)" style="stroke:url(#linear1);stroke-linejoin:round;stroke-width:0.951"/>
 </g>
 <g style="fill-rule:evenodd">
  <path d="m 4.5 11.77 c -1.059 0 -1.922 -0.012 -1.922 0.031 c 0 0.043 0.863 0.094 1.922 0.094 c 1.059 0 1.922 -0.051 1.922 -0.094 c 0 -0.043 -0.863 -0.031 -1.922 -0.031 m 0 0.285 c -0.793 0 -1.438 -0.016 -1.438 0.016 c 0 0.031 0.645 0.09 1.438 0.09 c 0.793 0 1.438 -0.059 1.438 -0.09 c 0 -0.031 -0.645 -0.016 -1.438 -0.016 m 0 0.348 c -0.582 0 -1.055 -0.012 -1.055 0.012 c 0 0.027 0.473 0.086 1.055 0.086 c 0.582 0 1.055 -0.059 1.055 -0.086 c 0 -0.023 -0.473 -0.012 -1.055 -0.012 m -1.121 -0.836 c 0.219 -0.027 0.324 -0.117 0.371 -0.25 c 0.043 -0.129 0.133 -0.215 0.289 -0.211 c 0.152 0.008 0.18 0.074 0.152 0.156 c -0.027 0.082 -0.02 0.133 -0.039 0.207 c -0.043 0.164 0.734 0.152 0.695 0 c -0.02 -0.074 -0.016 -0.125 -0.039 -0.207 c -0.027 -0.082 0 -0.148 0.152 -0.156 c 0.156 -0.004 0.246 0.082 0.289 0.211 c 0.047 0.133 0.152 0.223 0.371 0.25 c 0.215 0.023 0.469 0.016 0.684 0.02 c 0.215 0.004 0.297 -0.043 0.023 -0.066 c -0.277 -0.027 -0.641 -0.133 -0.711 -0.273 c -0.07 -0.137 -0.141 -0.203 -0.395 -0.219 c -0.527 -0.035 -0.895 -0.035 -1.445 0 c -0.254 0.016 -0.324 0.082 -0.395 0.219 c -0.07 0.141 -0.434 0.246 -0.711 0.273 c -0.273 0.023 -0.191 0.07 0.023 0.066 c 0.215 -0.004 0.469 0.004 0.684 -0.02 Z" style="fill:#444459"/>
  <path d="m 15.266 13.98 l -0.387 0 c -0.105 0 -0.191 0.09 -0.191 0.199 l 0 0.621 c 0 0.109 0.086 0.199 0.191 0.199 l 0.387 0 c 0.102 0 0.188 -0.09 0.188 -0.199 l 0 -0.621 c 0 -0.109 -0.086 -0.199 -0.188 -0.199 m -0.023 0.754 c 0 0.086 -0.039 0.156 -0.086 0.156 l -0.172 0 c -0.047 0 -0.086 -0.07 -0.086 -0.156 l 0 -0.492 c 0 -0.086 0.039 -0.156 0.086 -0.156 l 0.172 0 c 0.047 0 0.086 0.07 0.086 0.156 m 3.02 0.047 l -0.363 0 c -0.047 0 -0.086 -0.105 -0.086 -0.203 l 0 -0.059 c 0 -0.102 0.039 -0.184 0.086 -0.184 l 0.535 0 l 0 -0.121 l -0.637 0 c -0.105 0 -0.191 0.102 -0.191 0.23 l 0 0.207 c 0 0.125 0.086 0.25 0.191 0.25 l 0.371 0 c 0.047 0 0.086 0.082 0.086 0.184 l 0 0.102 c 0 0.098 -0.039 0.18 -0.086 0.18 l -0.559 0 l 0 0.125 l 0.652 0 c 0.105 0 0.191 -0.105 0.191 -0.23 l 0 -0.25 c 0 -0.129 -0.086 -0.23 -0.191 -0.23 m -5.52 -0.109 l 0 0.621 c 0 0.109 0.09 0.199 0.199 0.199 l 0.473 0 l 0 -0.109 l -0.359 0 c -0.047 0 -0.086 -0.07 -0.086 -0.156 l 0 -0.195 l 0.438 0 l 0 -0.098 l -0.438 0 l 0 -0.195 c 0 -0.09 0.039 -0.16 0.086 -0.16 l 0.359 0 l 0 -0.105 l -0.473 0 c -0.109 0 -0.199 0.09 -0.199 0.199 m 7.18 0 l 0 0.621 c 0 0.109 0.094 0.199 0.203 0.199 l 0.469 0 l 0 -0.109 l -0.355 0 c -0.047 0 -0.09 -0.07 -0.09 -0.156 l 0 -0.492 c 0 -0.086 0.043 -0.156 0.09 -0.156 l 0.355 0 l 0 -0.105 l -0.469 0 c -0.109 0 -0.203 0.09 -0.203 0.199 m -5.938 0.543 l -0.18 -0.742 l -0.215 0 l 0 1.02 l 0.148 0 l 0 -0.707 l 0.168 0.707 l 0.16 0 l 0.16 -0.668 l 0 0.668 l 0.227 0 l 0 -1.02 l -0.289 0 m -2.168 0.672 l -0.227 -0.934 l -0.27 0 l 0 1.281 l 0.184 0 l 0 -0.887 l 0.215 0.887 l 0.199 0 l 0.215 -0.902 l 0 0.902 l 0.27 0 l 0 -1.281 l -0.359 0 m 4.129 0.641 l 0 -0.18 c 0 -0.109 -0.086 -0.199 -0.191 -0.199 l -0.484 0 l 0 1.02 l 0.195 0 l 0 -0.914 l 0.223 0 c 0.047 0 0.086 0.07 0.086 0.16 l 0 0.051 c 0 0.086 -0.039 0.156 -0.086 0.156 l -0.047 0 l 0 0.012 l -0.09 0 l 0.227 0.535 l 0.168 0 l -0.184 -0.438 c 0.102 -0.008 0.184 -0.094 0.184 -0.199 m 3.066 0.637 l 0.195 0 l 0 -1.02 l -0.195 0 m -0.918 0.172 l 0.262 0 l 0 0.848 l 0.195 0 l 0 -0.848 l 0.262 0 l 0 -0.172 l -0.719 0 m 3 0 l -0.195 0 l -0.297 0.355 l 0 -0.355 l -0.195 0 l 0 1.02 l 0.195 0 l 0 -0.438 l 0.297 0.438 l 0.195 0 l -0.383 -0.563 m -4.242 -0.059 l -0.172 -0.398 l -0.195 0 l 0.25 0.578 l 0 0.441 l 0.195 0 l 0 -0.445 l 0.223 -0.574 l -0.145 0 Z" style="fill:#393959"/>
  <g style="fill:#444459">
   <path d="m 6.16 9.535 l 0 0.121 l 0.031 0 c 0.027 0 0.035 0.008 0.035 0.02 c 0 0.008 -0.004 0.02 -0.012 0.035 l -0.125 0.188 c -0.016 0.027 -0.031 0.023 -0.047 0.004 l -0.117 -0.184 c -0.008 -0.012 -0.016 -0.023 -0.016 -0.035 c 0 -0.016 0.012 -0.027 0.043 -0.027 l 0.031 0 l 0 -0.117 l -0.434 0 l 0 0.117 c 0.109 0 0.102 0.016 0.141 0.078 l 0.234 0.371 l 0 0.184 c 0 0.051 -0.016 0.066 -0.066 0.066 l -0.074 0 l 0 0.117 l 0.477 0 l 0 -0.117 l -0.074 0 c -0.047 0 -0.063 -0.016 -0.063 -0.066 l 0 -0.184 l 0.195 -0.305 c 0.074 -0.133 0.082 -0.145 0.137 -0.145 l 0.043 0 l 0 -0.117 l -0.34 0 m -3.477 0.215 c 0 -0.074 0.094 -0.125 0.207 -0.125 c 0.09 0 0.195 0.051 0.242 0.117 c 0.027 0.035 0.059 0.059 0.066 0.125 l 0.094 0 l 0 -0.336 l -0.102 0 c 0 0.078 -0.023 0.078 -0.043 0.055 c -0.082 -0.063 -0.164 -0.082 -0.262 -0.082 c -0.238 0 -0.387 0.121 -0.387 0.313 c 0 0.184 0.117 0.234 0.281 0.27 l 0.141 0.035 c 0.172 0.039 0.223 0.055 0.223 0.125 c 0 0.07 -0.051 0.117 -0.207 0.121 c -0.102 0 -0.215 -0.043 -0.262 -0.105 c -0.027 -0.035 -0.055 -0.055 -0.078 -0.141 l -0.094 0 l 0 0.348 l 0.105 0 c 0.004 -0.051 0.016 -0.09 0.039 -0.07 c 0.078 0.059 0.207 0.098 0.293 0.098 c 0.254 0 0.391 -0.113 0.391 -0.316 c 0 -0.391 -0.648 -0.227 -0.648 -0.43 m 2.414 -0.094 l 0.059 0 c 0.051 0 0.07 0.016 0.07 0.066 l -0.004 0.371 l -0.414 -0.555 l -0.34 0 l 0 0.117 l 0.066 0 c 0.051 0 0.066 0.016 0.066 0.066 l 0 0.57 c 0 0.047 -0.016 0.066 -0.066 0.066 l -0.066 0 l 0 0.113 l 0.395 0 l 0 -0.113 l -0.066 0 c -0.051 0 -0.066 -0.02 -0.066 -0.066 l 0 -0.473 l 0.48 0.652 l 0.148 0 l 0 -0.75 c 0 -0.051 0.02 -0.066 0.07 -0.066 l 0.051 0 l 0 -0.117 l -0.383 0 m -1.148 -0.043 c -0.305 0 -0.492 0.191 -0.492 0.5 c 0 0.301 0.188 0.492 0.484 0.492 c 0.312 0 0.496 -0.188 0.496 -0.508 c 0 -0.289 -0.195 -0.484 -0.488 -0.484 m -0.008 0.871 c -0.168 0 -0.266 -0.137 -0.266 -0.379 c 0 -0.234 0.102 -0.371 0.273 -0.371 c 0.168 0 0.262 0.141 0.262 0.383 c 0 0.234 -0.098 0.367 -0.27 0.367 Z"/>
   <path d="m 3.414 14.375 l -0.914 0.836 l 0.914 0.84 Z"/>
  </g>
 </g>
 <g style="fill:#393959">
  <path d="m 4.27 15.645 c 0.09 -0.109 0.301 -0.383 0.301 -0.637 c 0 -0.203 -0.125 -0.34 -0.277 -0.34 c -0.098 0 -0.18 0.031 -0.281 0.07 l 0.016 0.25 c 0.047 -0.043 0.129 -0.094 0.188 -0.094 c 0.078 0 0.129 0.063 0.129 0.16 c 0 0.176 -0.184 0.398 -0.277 0.531 l -0.07 0.098 l 0 0.211 l 0.582 0 l 0 -0.211 l -0.34 0 m 0.703 -0.57 c -0.027 0 -0.055 0 -0.082 0.004 l 0 -0.223 l 0.336 0 l 0 -0.203 l -0.523 0 l 0 0.641 c 0.055 -0.02 0.105 -0.035 0.152 -0.035 c 0.066 0 0.188 0.039 0.188 0.211 c 0 0.082 -0.047 0.199 -0.172 0.199 c -0.059 0 -0.105 -0.023 -0.176 -0.063 l -0.012 0.215 c 0.066 0.035 0.113 0.055 0.23 0.055 c 0.238 0 0.355 -0.203 0.355 -0.402 c 0 -0.258 -0.105 -0.402 -0.297 -0.402 m 0.719 0.016 c -0.027 0 -0.102 0.004 -0.164 0.102 l -0.004 0 c 0.008 -0.172 0.039 -0.352 0.203 -0.352 c 0.059 0 0.121 0.031 0.16 0.051 l 0.012 -0.207 c -0.074 -0.031 -0.129 -0.051 -0.203 -0.051 c -0.285 0 -0.375 0.328 -0.375 0.668 c 0 0.262 0.055 0.578 0.324 0.578 c 0.27 0 0.301 -0.309 0.301 -0.383 c 0 -0.266 -0.121 -0.406 -0.254 -0.406 m -0.059 0.598 c -0.098 0 -0.098 -0.148 -0.098 -0.184 c 0 -0.063 0 -0.211 0.098 -0.211 c 0.086 0 0.098 0.137 0.098 0.188 c 0 0.063 -0.008 0.207 -0.098 0.207 m 0.945 -0.141 l -0.113 -0.563 l -0.246 0 l 0 0.875 l 0.148 0 l 0 -0.691 l 0.004 0 l 0.148 0.691 l 0.109 0 l 0.156 -0.691 l 0 0.691 l 0.148 0 l 0 -0.875 l -0.234 0 m 0.691 0.422 l 0 -0.004 c 0.039 -0.004 0.125 -0.063 0.125 -0.199 c 0 -0.094 -0.043 -0.219 -0.191 -0.219 l -0.258 0 l 0 0.875 l 0.25 0 c 0.039 0 0.215 -0.02 0.215 -0.242 c 0 -0.137 -0.063 -0.191 -0.141 -0.211 m -0.168 -0.281 l 0.043 0 c 0.082 0 0.094 0.074 0.094 0.105 c 0 0.02 0 0.109 -0.094 0.109 l -0.043 0 m 0.047 0.371 l -0.047 0 l 0 -0.227 l 0.066 0 c 0.051 0 0.086 0.039 0.086 0.113 c 0 0.113 -0.082 0.113 -0.105 0.113 Z"/>
  <path d="m 14.5 10.191 l 0.18 0 l 0 0.793 l 0.191 0 l 0 -0.793 l 0.18 0 l 0 -0.176 l -0.551 0 m 0.949 -0.016 c -0.238 0 -0.348 0.215 -0.348 0.5 c 0 0.285 0.109 0.5 0.348 0.5 c 0.234 0 0.348 -0.215 0.348 -0.5 c 0 -0.285 -0.113 -0.5 -0.348 -0.5 m 0 0.836 c -0.113 0 -0.152 -0.152 -0.152 -0.336 c 0 -0.188 0.039 -0.336 0.152 -0.336 c 0.109 0 0.148 0.148 0.148 0.336 c 0 0.184 -0.039 0.336 -0.148 0.336 m 0.949 -0.82 l -0.551 0 l 0 0.176 l 0.18 0 l 0 0.793 l 0.191 0 l 0 -0.793 l 0.18 0 m 0.234 -0.176 l -0.273 0.969 l 0.184 0 l 0.059 -0.219 l 0.254 0 l 0.051 0.219 l 0.199 0 l -0.262 -0.969 l -0.215 0 m 0.008 0.59 l 0.098 -0.402 l 0.086 0.402 m 0.563 -0.59 l -0.195 0 l 0 0.969 l 0.465 0 l 0 -0.176 l -0.27 0 m 0.891 -0.027 c 0.074 -0.086 0.254 -0.309 0.254 -0.508 c 0 -0.164 -0.105 -0.273 -0.234 -0.273 c -0.086 0 -0.156 0.023 -0.242 0.055 l 0.012 0.203 c 0.043 -0.039 0.109 -0.078 0.164 -0.078 c 0.066 0 0.109 0.051 0.109 0.129 c 0 0.145 -0.16 0.32 -0.238 0.426 l -0.063 0.078 l 0 0.172 l 0.5 0 l 0 -0.172 l -0.293 0 m 0.652 -0.457 c -0.023 0 -0.047 0 -0.07 0.004 l 0 -0.18 l 0.285 0 l 0 -0.164 l -0.445 0 l 0 0.516 c 0.047 -0.016 0.09 -0.027 0.129 -0.027 c 0.059 0 0.164 0.031 0.164 0.168 c 0 0.066 -0.043 0.16 -0.148 0.16 c -0.051 0 -0.09 -0.02 -0.152 -0.047 l -0.012 0.172 c 0.059 0.023 0.098 0.043 0.199 0.043 c 0.203 0 0.305 -0.164 0.305 -0.324 c 0 -0.207 -0.094 -0.32 -0.254 -0.32 m 0.66 0.008 c -0.02 0 -0.086 0.008 -0.137 0.082 l -0.004 0 c 0.004 -0.137 0.031 -0.281 0.172 -0.281 c 0.051 0 0.102 0.027 0.137 0.043 l 0.012 -0.168 c -0.063 -0.023 -0.109 -0.039 -0.176 -0.039 c -0.242 0 -0.32 0.262 -0.32 0.535 c 0 0.211 0.047 0.465 0.277 0.465 c 0.23 0 0.258 -0.25 0.258 -0.309 c 0 -0.211 -0.102 -0.328 -0.219 -0.328 m -0.047 0.484 c -0.086 0 -0.086 -0.121 -0.086 -0.148 c 0 -0.055 0 -0.172 0.086 -0.172 c 0.074 0 0.082 0.109 0.082 0.152 c 0 0.051 -0.008 0.168 -0.082 0.168 m 0.879 -0.098 l -0.102 -0.418 l -0.215 0 l 0 0.652 l 0.133 0 l 0 -0.516 l 0.133 0.516 l 0.094 0 l 0.141 -0.516 l 0 0.516 l 0.133 0 l 0 -0.652 l -0.207 0 m 0.609 0.313 c 0.035 -0.004 0.113 -0.047 0.113 -0.148 c 0 -0.07 -0.043 -0.164 -0.172 -0.164 l -0.227 0 l 0 0.652 l 0.219 0 c 0.035 0 0.191 -0.016 0.191 -0.18 c 0 -0.105 -0.055 -0.145 -0.125 -0.16 m -0.148 -0.207 l 0.039 0 c 0.07 0 0.082 0.055 0.082 0.078 c 0 0.012 -0.004 0.082 -0.086 0.082 l -0.035 0 m 0.043 0.273 l -0.043 0 l 0 -0.168 l 0.055 0 c 0.051 0 0.078 0.027 0.078 0.086 c 0 0.082 -0.07 0.082 -0.09 0.082 Z"/>
 </g>
</svg>
