<svg xmlns="http://www.w3.org/2000/svg" viewBox="0 0 24 24">
 <g transform="translate(1,1.0000003)">
  <g transform="matrix(0.5,0,0,0.5,-1,-503.1811)" style="fill:#eee8d5">
   <path transform="translate(0,1004.3622)" d="m 24 8 c -8.837 0 -16 7.163 -16 16 0 8.837 7.163 16 16 16 8.837 0 16 -7.163 16 -16 0 -8.837 -7.163 -16 -16 -16 m 0 11 c 2.756 0 5 2.244 5 5 0 2.756 -2.244 5 -5 5 -2.756 0 -5 -2.244 -5 -5 0 -2.756 2.244 -5 5 -5 z m 0 1 c -2.215 0 -4 1.785 -4 4 0 2.215 1.785 4 4 4 2.215 0 4 -1.785 4 -4 0 -2.215 -1.785 -4 -4 -4 z m 0 1.5 c 1.381 0 2.5 1.119 2.5 2.5 0 1.381 -1.119 2.5 -2.5 2.5 -1.381 0 -2.5 -1.119 -2.5 -2.5 0 -1.381 1.119 -2.5 2.5 -2.5 z"/>
  </g>
  <path d="m 10.134 10.11 c 0.195 -0.189 0.445 -0.315 0.715 -0.349 l -0.097 -0.735 c -0.432 0.054 -0.826 0.243 -1.137 0.544 l 0.519 0.539 m -0.866 -0.894 c 0.388 -0.373 0.889 -0.615 1.426 -0.683 l -0.696 -5.458 c -1.719 0.219 -3.327 0.987 -4.567 2.187 l 3.837 3.954 z" style="fill:#657b83;opacity:0.256"/>
  <path d="m 12.167 11.433 c -0.094 0.254 -0.266 0.476 -0.495 0.623 l 0.404 0.621 c 0.367 -0.234 0.641 -0.575 0.791 -0.981 l -0.7 -0.263 z m 1.167 0.433 c -0.189 0.504 -0.538 0.938 -0.992 1.231 l 2.98 4.626 c 1.457 -0.939 2.577 -2.324 3.178 -3.941 l -5.166 -1.915 z" style="fill:#fffefb;opacity:0.464;fill-opacity:1"/>
  <path d="m 11.896 11.863 c -0.188 0.195 -0.434 0.331 -0.703 0.373 l 0.123 0.731 c 0.43 -0.068 0.817 -0.271 1.117 -0.583 l -0.537 -0.521 m 0.896 0.863 c -0.375 0.386 -0.868 0.645 -1.401 0.732 l 0.884 5.431 c 1.711 -0.279 3.291 -1.101 4.488 -2.344 l -3.971 -3.819 z" style="fill:#657b83;opacity:0.256"/>
  <path d="m 9.842 10.545 c 0.099 -0.252 0.275 -0.471 0.507 -0.614 l -0.392 -0.629 c -0.371 0.227 -0.652 0.563 -0.81 0.966 l 0.695 0.276 z m -1.158 -0.455 c 0.199 -0.5 0.555 -0.928 1.016 -1.212 l -2.892 -4.681 c -1.474 0.911 -2.621 2.275 -3.252 3.881 l 5.129 2.01 z" style="fill:#fffefb;opacity:0.426;fill-opacity:1"/>
  <path d="m 11 8 c -1.657 0 -3 1.343 -3 3 0 1.657 1.343 3 3 3 1.657 0 3 -1.343 3 -3 0 -1.657 -1.343 -3 -3 -3 z m 0 1 c 1.105 0 2 0.895 2 2 0 1.105 -0.895 2 -2 2 -1.105 0 -2 -0.895 -2 -2 0 -1.105 0.895 -2 2 -2 z" style="fill:#839496;fill-opacity:1;stroke:none"/>
 </g>
 <path d="m 5.173 15.997 3.825 0 1.904 0 c 0.035 0 0.071 -0.006 0.106 0 0.042 0.006 0.055 0.066 0.07 0.106 0.048 0.126 0.078 0.262 0.113 0.394 0.086 0.325 0.196 0.643 0.295 0.963 0.101 0.328 0.187 0.66 0.273 0.992 0.039 0.152 0.072 0.301 0.082 0.458 0.002 0.02 0.016 0.041 0.029 0.041 0.008 -0.028 0.019 -0.056 0.031 -0.083 0.029 -0.064 0.064 -0.126 0.1 -0.185 0.073 -0.118 0.155 -0.228 0.233 -0.344 0.087 -0.13 0.17 -0.263 0.259 -0.392 0.192 -0.275 0.393 -0.541 0.591 -0.81 0.203 -0.276 0.406 -0.552 0.608 -0.828 0.044 -0.06 0.089 -0.117 0.13 -0.179 0.032 -0.048 0.065 -0.105 0.118 -0.125 0.097 -0.035 0.21 -0.017 0.308 -0.013 0.294 0.015 0.589 0.005 0.883 0.005 l 0.942 0 c 0.314 0 0.629 0 0.942 0 0.154 0 0.309 -0.005 0.464 0.009 0.142 0.013 0.283 0.033 0.424 0.061 0.518 0.103 1.048 0.32 1.431 0.747 0.18 0.201 0.328 0.448 0.394 0.728 0.063 0.262 0.05 0.539 -0.016 0.797 -0.134 0.522 -0.462 0.974 -0.852 1.275 -0.243 0.187 -0.486 0.359 -0.755 0.492 -0.265 0.13 -0.54 0.23 -0.822 0.3 -0.594 0.147 -1.202 0.12 -1.806 0.12 l -1.414 0 c 0.013 -0.164 0.061 -0.323 0.094 -0.483 0.036 -0.175 0.072 -0.35 0.108 -0.524 0.073 -0.354 0.147 -0.708 0.22 -1.062 0.041 -0.201 0.081 -0.403 0.121 -0.605 0.019 -0.097 0.039 -0.192 0.061 -0.288 0.012 -0.05 0.022 -0.125 0.053 -0.166 0.015 -0.021 0.051 -0.024 0.073 -0.026 0.048 -0.006 0.097 -0.006 0.144 -0.006 0.113 0.006 0.226 0.006 0.339 0.006 l 0.97 0 c -0.02 0.173 -0.064 0.34 -0.1 0.509 -0.039 0.18 -0.075 0.362 -0.112 0.544 -0.076 0.367 -0.156 0.734 -0.222 1.105 0.29 0 0.579 0.012 0.866 -0.034 0.146 -0.024 0.299 -0.071 0.439 -0.125 0.129 -0.048 0.254 -0.109 0.372 -0.185 0.358 -0.232 0.645 -0.636 0.662 -1.123 0.007 -0.206 -0.042 -0.413 -0.155 -0.576 -0.139 -0.202 -0.353 -0.311 -0.564 -0.379 -0.527 -0.171 -1.096 -0.109 -1.638 -0.106 -0.157 0 -0.314 0 -0.471 0.006 -0.075 0 -0.151 0 -0.227 0 -0.077 0 -0.164 -0.011 -0.239 0.006 -0.065 0.012 -0.109 0.101 -0.15 0.153 -0.055 0.071 -0.11 0.141 -0.165 0.212 -0.106 0.136 -0.212 0.272 -0.319 0.407 -0.424 0.542 -0.843 1.089 -1.264 1.634 -0.332 0.43 -0.661 0.863 -0.997 1.289 -0.203 0.258 -0.414 0.51 -0.606 0.778 -0.019 0.026 -0.046 0.056 -0.057 0.089 -0.001 0 -0.001 0.006 -0.001 0.006 -0.021 0 -0.023 0.007 -0.028 -0.02 -0.007 -0.039 -0.016 -0.076 -0.027 -0.114 -0.021 -0.081 -0.048 -0.16 -0.075 -0.239 -0.113 -0.33 -0.209 -0.669 -0.313 -1 -0.212 -0.688 -0.425 -1.377 -0.638 -2.065 c -0.066 -0.212 -0.133 -0.424 -0.199 -0.636 -0.033 -0.103 -0.065 -0.205 -0.097 -0.308 -0.017 -0.055 -0.041 -0.218 -0.113 -0.218 c 0 0.097 0.023 0.184 0.049 0.276 0.033 0.124 0.052 0.248 0.062 0.378 0.026 0.319 -0.002 0.646 -0.111 0.944 -0.204 0.553 -0.651 0.978 -1.091 1.278 -0.464 0.316 -0.986 0.511 -1.518 0.609 -0.288 0.053 -0.575 0.071 -0.865 0.069 -0.311 0 -0.621 -0.006 -0.931 -0.006 l -0.947 0 -0.227 0 c 0 -0.081 0.032 -0.17 0.05 -0.249 0.039 -0.17 0.072 -0.342 0.107 -0.513 0.148 -0.706 0.294 -1.412 0.442 -2.117 0.016 -0.078 0.032 -0.155 0.049 -0.232 0.006 -0.028 -0.001 -0.042 0.028 -0.042 l 0.057 0 0.114 0 0.456 0 0.892 0 c -0.149 0.719 -0.298 1.439 -0.446 2.158 0.3 0 0.603 0.017 0.899 -0.039 0.149 -0.027 0.294 -0.076 0.436 -0.131 0.116 -0.045 0.229 -0.092 0.335 -0.16 0.396 -0.254 0.719 -0.745 0.669 -1.286 -0.056 -0.602 -0.612 -0.829 -1.066 -0.885 -0.275 -0.035 -0.553 -0.026 -0.829 -0.026 -0.316 0 -0.631 0 -0.947 0 l -0.362 0 -0.076 0 c -0.021 0 -0.076 0.013 -0.076 -0.013 0 -0.065 0.027 -0.139 0.04 -0.202 0.057 -0.264 0.114 -0.528 0.171 -0.792" style="fill:#268bd2"/>
</svg>
