<svg xmlns="http://www.w3.org/2000/svg" viewBox="0 0 24 24">
 <g transform="translate(0,-1028.3622)">
  <path d="m 12 1038.03 -0.734 0.75 -3.766 11.578 1.5 0 3 -2.25 3 2.25 1.5 0 -3.766 -11.578 z m 0 1.641 0.547 1.734 -0.547 0.438 -0.547 -0.438 z m -0.703 2.234 0.313 0.25 -0.531 0.422 z m 1.406 0 0.219 0.688 -0.531 -0.438 z m -0.703 0.563 l 1.094 0.875 -1.094 0.828 -1.094 -0.828 z m -1.313 1.344 0.891 0.672 -1.453 1.094 z m 2.641 0 0.547 1.766 -1.453 -1.094 z m -1.328 0.984 2.047 1.547 -2.047 1.188 -2.047 -1.188 z m -2.266 1.984 1.766 1.031 -2.5 1.547 z m 4.531 0 0.734 2.578 -2.5 -1.547 z" style="visibility:visible;fill:#2d2d2d;fill-opacity:1;stroke:none;display:inline;color:#000"/>
  <path d="m 28 13 a 3 3 0 1 1 -6 0 3 3 0 1 1 6 0 z" transform="matrix(0.5,0,0,0.5,-0.5,1031.8622)" style="fill:#2d2d2d;fill-opacity:1;stroke:none;fill-rule:evenodd"/>
  <path d="m 12 1034.86 c -1.933 0 -3.5 1.567 -3.5 3.5 0 1.139 0.548 2.158 1.391 2.797 l 0.344 -1.031 c -0.452 -0.453 -0.734 -1.075 -0.734 -1.766 c 0 -1.381 1.119 -2.5 2.5 -2.5 1.381 0 2.5 1.119 2.5 2.5 0 0.69 -0.282 1.313 -0.734 1.766 l 0.344 1.031 c 0.843 -0.639 1.391 -1.658 1.391 -2.797 0 -1.933 -1.567 -3.5 -3.5 -3.5 z" style="fill:#a6e3ff;fill-opacity:0.558;stroke:none;fill-rule:evenodd"/>
  <path d="m 12 1032.86 c -3.038 0 -5.5 2.463 -5.5 5.5 0 2.036 1.106 3.815 2.75 4.766 l 0.313 -0.984 c -1.24 -0.801 -2.063 -2.195 -2.063 -3.781 c 0 -2.485 2.01 -4.5 4.5 -4.5 2.485 0 4.5 2.01 4.5 4.5 0 1.586 -0.823 2.98 -2.063 3.781 l 0.313 0.984 c 1.644 -0.951 2.75 -2.73 2.75 -4.766 0 -3.037 -2.462 -5.5 -5.5 -5.5 z" style="fill:#a6e3ff;fill-opacity:0.558;stroke:none;fill-rule:evenodd"/>
  <path d="m 12 1030.86 c -4.142 0 -7.5 3.358 -7.5 7.5 0 2.922 1.67 5.45 4.109 6.688 l 0.313 -0.969 c -2.033 -1.099 -3.422 -3.246 -3.422 -5.719 c 0 -3.59 2.91 -6.5 6.5 -6.5 3.59 0 6.5 2.91 6.5 6.5 0 2.473 -1.389 4.62 -3.422 5.719 l 0.313 0.969 c 2.439 -1.238 4.109 -3.765 4.109 -6.688 0 -4.142 -3.358 -7.5 -7.5 -7.5 z" style="fill:#a6e3ff;fill-opacity:0.558;stroke:none;fill-rule:evenodd"/>
 </g>
</svg>
