<svg xmlns="http://www.w3.org/2000/svg" viewBox="0 0 24 24">
 <path d="m 2.598 3.957 c -0.344 0.062 -0.617 0.395 -0.617 0.742 l 0 14.352 c 0.004 0.387 0.355 0.734 0.742 0.742 l 18.305 0 c 0.387 -0.008 0.738 -0.355 0.742 -0.742 l 0 -12.309 c -0.004 -0.387 -0.355 -0.734 -0.742 -0.742 l -7.172 0 l 0 -1.301 c -0.008 -0.387 -0.355 -0.734 -0.742 -0.742 l -10.391 0 c -0.043 -0.004 -0.082 -0.004 -0.125 0 m 8.781 5 l 0.496 0 c 2.184 0 3.957 1.777 3.957 3.961 c 0 2.184 -1.773 3.957 -4.453 3.957 c -1.688 0 -3.461 -1.773 -3.461 -3.957 c 0 -2.184 1.773 -3.961 3.461 -3.961 m 0.063 0.559 c -0.152 0.02 -0.316 0.051 -0.461 0.09 l -0.465 0.777 c 0.039 0.004 0.07 0 0.121 0.031 c 0.25 0.141 0.363 0.258 0.434 0.277 c 0.07 0.016 0.383 -0.414 0.156 0.063 c -0.23 0.473 -0.324 0.637 -0.59 0.742 c -0.016 0.004 -0.043 -0.008 -0.063 0 c -0.066 0.078 -0.16 0.176 -0.277 0.277 c -0.25 0.223 -0.371 0.242 -0.371 0.465 c 0 0.219 0.02 0.414 -0.152 0.707 c -0.176 0.301 -0.324 0.305 -0.25 0.527 c 0.074 0.223 0.129 0.605 0 0.434 c -0.125 -0.172 -0.055 -0.508 -0.152 -0.309 c -0.09 0.172 -0.293 0.223 -0.313 0.402 c 0 0.023 -0.004 0.059 0 0.094 c 0.066 0.215 0.438 -0.078 0.438 0.09 c 0 0.176 -0.324 0.164 -0.25 0.313 c 0.074 0.145 0.367 -0.293 0.621 -0.219 c 0.246 0.074 0.082 0.117 0.305 0.219 c 0.227 0.098 0.344 0.188 0.344 0.34 c 0 0.148 0.723 0.09 0.648 0.336 c -0.074 0.25 -0.145 0.195 -0.371 0.465 c -0.125 0.152 -0.238 0.238 -0.309 0.313 c 0.102 0.074 0.125 0.102 0.246 0.059 c 0.156 -0.051 -0.031 -0.113 0.094 -0.184 c 0.031 -0.02 0.043 -0.047 0.063 -0.063 c 0.016 -0.016 0.023 -0.02 0.059 -0.031 c 0.078 -0.023 0.215 -0.031 0.559 -0.031 c 0.688 0 1.051 0.031 1.051 0.031 c 0 0 0.215 0 0 0.125 c -0.156 0.09 -0.453 0.234 -0.492 0.277 c 0.012 -0.004 0.02 0.012 0.059 0 c 0.32 -0.086 0.773 -0.148 0.898 -0.184 c 0.051 -0.016 0.332 -0.176 0.559 -0.281 c 0.008 -0.02 0.02 -0.039 0.027 -0.059 l -0.027 0 c -0.176 -0.078 -0.332 -0.43 -0.281 -0.527 c 0.051 -0.102 0.184 -0.184 0.309 -0.434 c 0.129 -0.25 0.102 -0.043 -0.246 -0.496 c -0.348 -0.449 -0.535 0.027 -0.711 -0.121 c -0.176 -0.152 -0.531 -0.285 -0.68 -0.559 c -0.148 -0.273 -0.094 -0.07 -0.094 -0.371 c 0 -0.297 -0.012 -0.09 0.063 -0.34 c 0.074 -0.25 0.273 -0.289 0.527 -0.465 c 0.031 -0.023 0.055 -0.012 0.09 -0.027 c -0.055 -0.055 -0.121 -0.188 -0.277 -0.344 c 0 0 0.152 -0.32 0.277 -0.371 c 0.121 -0.047 0.207 -0.016 0.371 0.031 c 0.008 -0.027 -0.008 -0.031 0 -0.094 c 0.027 -0.199 -0.063 -0.09 -0.063 -0.215 c 0 -0.125 0.043 0.02 0.219 -0.031 c 0.176 -0.051 0.164 -0.422 0.34 -0.371 c 0.176 0.051 0.188 -0.051 0.34 -0.277 c 0.148 -0.227 -0.016 -0.117 -0.215 -0.215 c -0.203 -0.102 -0.016 0.164 -0.063 0.336 c -0.051 0.176 -0.199 0.066 -0.371 -0.305 c -0.176 -0.379 -0.039 -0.227 0.059 -0.527 c 0.02 -0.051 0.039 -0.094 0.063 -0.125 c -0.324 -0.141 -0.68 -0.215 -1.051 -0.246 c 0 0.016 0 0.012 0 0.031 c -0.035 0.332 -0.207 0.117 -0.277 0.152 c -0.07 0.035 -0.527 0.691 -0.527 0.621 c 0 -0.07 0.063 -0.188 0.063 -0.188 c 0 0 0.059 -0.297 0 -0.617 m 1.422 1.328 c 0.078 0.012 0.148 0.082 0.188 0.156 c 0.02 0.039 -0.008 0.051 -0.031 0.063 c 0 0 0.031 0.098 0.031 0.121 c 0 0.023 -0.066 0.031 -0.188 0 c -0.086 -0.023 0.004 -0.047 0.063 -0.094 l -0.121 0 c -0.047 0 -0.055 -0.02 -0.063 -0.027 c 0.004 0.004 -0.012 0.016 0 0.027 c 0.055 0.074 -0.012 0.016 -0.094 0.031 c -0.082 0.02 -0.008 -0.051 0.031 -0.121 c 0 0 0.051 0.047 0.063 0.063 c 0.016 -0.035 0.027 -0.102 0.027 -0.188 c 0.031 -0.012 0.07 -0.039 0.094 -0.031 m 1.887 0.219 c -0.125 0.094 -0.27 0.301 -0.402 0.434 c -0.223 0.223 0.121 0.254 0.25 0.277 c 0.125 0.023 0.242 -0.063 0.492 -0.063 c 0 -0.012 -0.023 -0.02 -0.027 -0.031 c -0.035 0.004 -0.055 0 -0.094 0 c -0.148 0 -0.066 -0.109 -0.031 -0.309 c -0.051 -0.105 -0.125 -0.215 -0.188 -0.309 m -1.543 0.465 c -0.055 -0.02 -0.125 0.035 -0.219 0.09 c 0.066 0.098 -0.141 0.359 -0.246 0.559 c -0.004 0.004 -0.027 0.023 -0.031 0.027 c 0.215 -0.031 0.551 0.031 1.297 0.219 c 0 0 0.293 -0.102 0.34 0 c 0.02 0.035 0.102 0.055 0.219 0.063 c 0.301 -0.117 0.152 -0.191 0.152 -0.434 c 0 -0.25 -0.387 0 -0.34 -0.125 c 0.051 -0.125 -0.039 -0.102 -0.215 -0.277 c -0.176 -0.176 -0.152 0.434 -0.281 0.309 c -0.125 -0.125 -0.133 -0.023 -0.184 -0.125 c -0.051 -0.098 -0.215 -0.277 -0.215 -0.277 c 0 0 0.117 0.156 0.094 0.402 c -0.027 0.25 -0.371 0.031 -0.371 0.031 c 0 0 0.051 -0.039 0.152 -0.063 c 0.102 -0.023 -0.016 -0.164 -0.094 -0.34 c -0.02 -0.039 -0.039 -0.055 -0.059 -0.059 m 2.102 1.234 c -0.027 0.023 -0.059 0.047 -0.094 0.063 c -0.277 0.102 -0.496 0.309 -0.496 0.309 c 0 0 0.332 0.016 0.559 0.219 c 0.016 -0.137 0.031 -0.293 0.031 -0.434 c 0 -0.051 0 -0.105 0 -0.156 Z" style="fill:#8e9da8"/>
</svg>
