<svg xmlns="http://www.w3.org/2000/svg" viewBox="0 0 24 24">
 <g transform="translate(0,-1028.3622)">
  <rect width="20" height="5" x="2" y="1032.36" style="fill:#5d4037;fill-opacity:1;stroke:none"/>
  <path d="m 5 1033.36 c 0 -1 0 -2 0.909 -2 l 3.182 0 c 0.909 0 0.909 1 0.909 2 z" style="fill:#5d4037;fill-opacity:1;stroke:none"/>
  <path d="m 3 1033.36 18 0 0 4 -18 0 z" style="fill:#95989f;fill-opacity:1;stroke:none"/>
  <rect y="1033.36" x="6" height="6" width="14" style="fill:#d8d8da;fill-opacity:1;stroke:none"/>
  <rect width="14" height="3" x="4" y="1034.36" style="fill:#f9f9f9;fill-opacity:1;stroke:none"/>
  <path d="m 1 1035.36 22 0 -1 14 -20 0 z" style="fill:#8d6e63;fill-opacity:1;stroke:none"/>
  <path d="m 15.874 1037.36 c -0.444 0.01 -0.881 0.272 -0.951 0.767 -0.112 0.792 0.727 0.495 1.399 0.495 0.671 0 0.895 1.287 0.727 1.98 -0.168 0.693 -1.952 2.33 -5.986 0.693 -3.321 -1.348 -4.979 0.447 -5.063 0.483 0.314 2.678 2.877 5.582 5.986 5.582 3.321 0 6.01 -3.199 6.01 -6.139 0 -0.338 -0.044 -0.67 -0.112 -0.99 -0.062 -0.162 -0.122 -0.323 -0.168 -0.47 -0.081 -0.264 -0.173 -0.486 -0.252 -0.693 -0.003 -0.01 0.003 -0.018 0 -0.024 -0.318 -0.625 -0.764 -1.19 -1.315 -1.659 -0.003 -0.01 -0.012 0.01 -0.014 0 -0.086 -0.019 -0.177 -0.026 -0.266 -0.024 z" style="fill:#634b43;opacity:1;fill-opacity:1;color:#000"/>
  <path d="m 15 1040.36 c 0 0.552 -0.448 1 -1 1 -0.552 0 -1 -0.448 -1 -1 0 -0.552 0.448 -1 1 -1 0.552 0 1 0.448 1 1 z" style="fill:#634b43;opacity:1;fill-opacity:1;color:#000"/>
  <path d="m 12 1037.86 c 0 0.276 -0.224 0.5 -0.5 0.5 -0.276 0 -0.5 -0.224 -0.5 -0.5 0 -0.276 0.224 -0.5 0.5 -0.5 0.276 0 0.5 0.224 0.5 0.5 z" style="fill:#634b43;opacity:1;fill-opacity:1;color:#000"/>
 </g>
</svg>
