<?xml version="1.0" encoding="UTF-8" standalone="no"?>
<svg
   xmlns:dc="http://purl.org/dc/elements/1.1/"
   xmlns:cc="http://creativecommons.org/ns#"
   xmlns:rdf="http://www.w3.org/1999/02/22-rdf-syntax-ns#"
   xmlns:svg="http://www.w3.org/2000/svg"
   xmlns="http://www.w3.org/2000/svg"
   xmlns:sodipodi="http://sodipodi.sourceforge.net/DTD/sodipodi-0.dtd"
   xmlns:inkscape="http://www.inkscape.org/namespaces/inkscape"
   width="24"
   viewBox="0 0 6.7733336 6.7733336"
   height="24"
   id="svg2"
   version="1.1"
   inkscape:version="0.91 r"
   sodipodi:docname="calendar-16.svg">
  <metadata
     id="metadata17">
    <rdf:RDF>
      <cc:Work
         rdf:about="">
        <dc:format>image/svg+xml</dc:format>
        <dc:type
           rdf:resource="http://purl.org/dc/dcmitype/StillImage" />
        <dc:title />
      </cc:Work>
    </rdf:RDF>
  </metadata>
  <defs
     id="defs15" />
  <sodipodi:namedview
     pagecolor="#ffffff"
     bordercolor="#666666"
     borderopacity="1"
     objecttolerance="10"
     gridtolerance="10"
     guidetolerance="10"
     inkscape:pageopacity="0"
     inkscape:pageshadow="2"
     inkscape:window-width="1366"
     inkscape:window-height="747"
     id="namedview13"
     showgrid="true"
     inkscape:zoom="5.6568543"
     inkscape:cx="-23.944729"
     inkscape:cy="24.980322"
     inkscape:window-x="0"
     inkscape:window-y="21"
     inkscape:window-maximized="1"
     inkscape:current-layer="svg2"
     showguides="false">
    <inkscape:grid
       type="xygrid"
       id="grid4145"
       originx="0"
       originy="0"
       spacingy="0.28222223"
       spacingx="0.28222223" />
  </sodipodi:namedview>
  <path
     d="m 1.4465828,0.47625021 0,0.46566684 -0.51176785,0 c -0.11641673,0 -0.19402784,0.0970149 -0.19395437,0.19402775 l -2.723e-5,5.1611483 c -4.624e-5,0.097006 0.0969676,0.1940202 0.1939816,0.194018 l 4.90361115,0 c 0.097015,2.2e-6 0.1940278,-0.097012 0.1939372,-0.1939813 l 1.349e-4,-5.161185 C 6.0324539,1.038931 5.9354402,0.94191705 5.8384261,0.94191705 l -0.5113145,0 0,-0.46566697 C 5.3269949,0.28222227 5.3269949,0.28222227 5.132967,0.28222227 l -0.5044724,0 c -0.1940278,0 -0.1940278,0 -0.1940278,0.19402794 l 0,0.37041734 -2.0955007,0 0,-0.37041734 c 0,-0.19402794 0,-0.19402794 -0.1940279,-0.19402794 l -0.5044724,0 c -0.1940278,0 -0.193883,0 -0.193883,0.19402794 z m 0.2583003,0.0644174 0.3756378,0 0,0.77760379 c 0,0.3221459 -0.3756378,0.3221459 -0.3756378,0 z m 2.9880288,0 0.3756378,0 0,0.77760339 c 0,0.3221463 -0.3756378,0.3221463 -0.3756378,0 z m -3.5641153,1.68183299 4.5155575,0 0,3.8806472 -4.5155575,-7.37e-5 z"
     id="path4"
     inkscape:connector-curvature="0"
     style="color:#000000;fill:#cacaca"
     sodipodi:nodetypes="scccccccccccccccccccsccsccccsscccccc" />
  <g
     transform="matrix(0.28222222,0,0,0.28222222,-9.4977623,-8.883944)"
     style="font-style:normal;font-variant:normal;font-weight:normal;font-stretch:normal;font-size:20px;line-height:125%;font-family:'Droid Sans';-inkscape-font-specification:'Droid Sans';letter-spacing:0px;word-spacing:0px;fill:#000000;fill-opacity:1;stroke:none;stroke-width:1px;stroke-linecap:butt;stroke-linejoin:miter;stroke-opacity:1"
     id="flowRoot4147" />
  <g
     transform="scale(1.1417405,0.87585576)"
     style="font-style:normal;font-variant:normal;font-weight:normal;font-stretch:normal;font-size:3.03820014px;line-height:125%;font-family:Ubuntu;-inkscape-font-specification:Ubuntu;letter-spacing:0px;word-spacing:0px;fill:#3798d6;fill-opacity:1;stroke:none;stroke-width:1px;stroke-linecap:butt;stroke-linejoin:miter;stroke-opacity:1"
     id="text4155">
    <path
       d="m 2.447379,6.1222672 -0.5122691,0 0,-1.402523 q 0,-0.043104 0,-0.1027854 0.00166,-0.06134 0.00332,-0.125995 0.00332,-0.066313 0.00497,-0.1326263 0.00332,-0.066313 0.00497,-0.1210215 -0.00829,0.00995 -0.028183,0.029841 -0.019894,0.019894 -0.044761,0.044761 -0.024867,0.02321 -0.051393,0.048077 -0.026525,0.024867 -0.051393,0.044761 L 1.4941275,4.6285636 1.2454532,4.3202075 2.0262905,3.6985217 l 0.4210885,0 0,2.4237455 z"
       style="font-style:normal;font-variant:normal;font-weight:bold;font-stretch:normal;font-size:3.39523315px;font-family:'droid sans';-inkscape-font-specification:'droid sans Bold';text-align:center;letter-spacing:0.02328032px;word-spacing:0.02328032px;text-anchor:middle;fill:#3798d6;fill-opacity:1"
       id="path4142" />
    <path
       d="m 3.112239,5.0927556 q 0,-0.174072 0.018236,-0.3464862 Q 3.150369,4.5738553 3.1984461,4.4163615 3.2481809,4.25721 3.3310724,4.121268 3.4156216,3.9853261 3.5432744,3.8858563 3.6725851,3.7847288 3.8516306,3.7283626 q 0.1807033,-0.058024 0.4210885,-0.058024 0.034814,0 0.07626,0.00166 0.041446,0.00166 0.082891,0.00497 0.043104,0.00166 0.082891,0.00663 0.039788,0.00497 0.071287,0.011605 l 0,0.4094837 q -0.062997,-0.01492 -0.1342841,-0.02321 -0.069629,-0.00995 -0.1409155,-0.00995 -0.2238069,0 -0.368038,0.056366 -0.144231,0.054708 -0.2287803,0.1541781 -0.084549,0.09947 -0.1210215,0.2387273 -0.034814,0.1392576 -0.043104,0.3083562 l 0.019894,0 q 0.033157,-0.059682 0.079576,-0.1110746 0.048077,-0.053051 0.1110745,-0.089523 0.062997,-0.03813 0.1409154,-0.059682 0.079576,-0.021552 0.1773877,-0.021552 0.1574937,0 0.2834887,0.051393 0.125995,0.051393 0.2122021,0.1492046 0.087865,0.097812 0.1342841,0.2403851 0.046419,0.1425733 0.046419,0.3265923 0,0.1972816 -0.056366,0.3531175 -0.054708,0.1558359 -0.1574937,0.2652526 -0.1027854,0.1077588 -0.2486743,0.1657828 -0.1458889,0.056366 -0.3282501,0.056366 -0.1790455,0 -0.3348814,-0.062998 Q 3.4736456,6.027771 3.3575976,5.8968025 3.2432074,5.7658341 3.1768943,5.5668946 3.112239,5.3662974 3.112239,5.0927556 Z m 0.8421769,0.6531845 q 0.067971,0 0.1226794,-0.024867 0.056366,-0.026525 0.096154,-0.077918 0.041446,-0.053051 0.062997,-0.1326263 0.02321,-0.079576 0.02321,-0.1889925 0,-0.1773877 -0.074602,-0.2785152 -0.072944,-0.1027854 -0.2238068,-0.1027854 -0.07626,0 -0.1392576,0.029841 -0.062998,0.029841 -0.1077589,0.077918 -0.044761,0.048077 -0.069629,0.1077588 -0.02321,0.059682 -0.02321,0.1210215 0,0.084549 0.019894,0.1690985 0.021552,0.082891 0.062997,0.1508625 0.043104,0.066313 0.1044432,0.1077588 0.062997,0.041446 0.1458889,0.041446 z"
       style="font-style:normal;font-variant:normal;font-weight:bold;font-stretch:normal;font-size:3.39523315px;font-family:'droid sans';-inkscape-font-specification:'droid sans Bold';text-align:center;letter-spacing:0.02328032px;word-spacing:0.02328032px;text-anchor:middle;fill:#3798d6;fill-opacity:1"
       id="path4144" />
  </g>
</svg>
