<svg viewBox="0 0 24 24" xmlns="http://www.w3.org/2000/svg">
 <rect height="4" style="fill:#ea9036;fill-opacity:1;stroke:none" x="2" y="5" width="11"/>
 <path d="m 3 5 c 0 -0.5 0 -1 0.727 -1 l 2.545 0 c 0.727 0 0.727 0.5 0.727 1 z" style="fill:#ea9036;fill-opacity:1;stroke:none"/>
 <rect height="4" style="fill:#d8d8da;fill-opacity:1;stroke:none" x="3" y="6" width="9"/>
 <rect height="2.28" style="fill:#f9f9f9;fill-opacity:1;stroke:none" x="4" y="7" width="8"/>
 <path d="m 1 8 13 0 -0.65 7 -11.7 0 z" style="fill:#f2bb64;fill-opacity:1;stroke:none"/>
 <path d="m 3.73 4 c -0.727 0 -0.727 0.5 -0.727 1 l -1 0 l 0 3 l -1 0 l 0.65 7 l 11.699 0 l 0.371 -4 l 2.273 0 c 0 -0.5 0 -1 -0.727 -1 l -1.453 0 l 0.186 -2 l -1 0 l 0 -3 l -6 0 c 0 -0.5 0 -1 -0.727 -1 l -2.545 0 z" style="fill:#fff;opacity:0.5;fill-opacity:1;stroke:none"/>
 <rect height="4" style="fill:#ea9036;fill-opacity:1;stroke:none" x="11" y="11" width="11"/>
 <path d="m 12 11 c 0 -0.5 0 -1 0.727 -1 l 2.545 0 c 0.727 0 0.727 0.5 0.727 1 z" style="fill:#ea9036;fill-opacity:1;stroke:none"/>
 <rect height="4" style="fill:#d8d8da;fill-opacity:1;stroke:none" x="12" y="12" width="9"/>
 <rect height="2.28" style="fill:#f9f9f9;fill-opacity:1;stroke:none" x="13" y="13" width="8"/>
 <path d="m 10 14 13 0 l -0.65 7 -11.7 0 z" style="fill:#f2bb64;fill-opacity:1;stroke:none"/>
</svg>
