<svg xmlns="http://www.w3.org/2000/svg" viewBox="0 0 24 24">
 <g transform="translate(0,-1028.3622)">
  <rect width="20" height="5" x="2" y="1032.36" style="fill:#757575;fill-opacity:1;stroke:none"/>
  <path d="m 5 1033.36 c 0 -1 0 -2 0.909 -2 l 3.182 0 c 0.909 0 0.909 1 0.909 2 z" style="fill:#757575;fill-opacity:1;stroke:none"/>
  <path d="m 3 1033.36 18 0 0 4 -18 0 z" style="fill:#95989f;fill-opacity:1;stroke:none"/>
  <rect y="1033.36" x="6" height="6" width="14" style="fill:#d8d8da;fill-opacity:1;stroke:none"/>
  <rect width="14" height="3" x="4" y="1034.36" style="fill:#f9f9f9;fill-opacity:1;stroke:none"/>
  <path d="m 1 1035.36 22 0 -1 14 -20 0 z" style="fill:#bdbdbd;fill-opacity:1;stroke:none"/>
  <path d="m 7 1037.36 0 4 4 0 -1.094 -1.094 c 0.542 -0.544 1.265 -0.906 2.094 -0.906 1.657 0 3 1.343 3 3 0 1.657 -1.343 3 -3 3 -0.884 0 -1.67 -0.391 -2.219 -1 l -2.344 0 c 0.774 1.759 2.517 3 4.563 3 2.761 0 5 -2.239 5 -5 0 -2.761 -2.239 -5 -5 -5 -1.382 0 -2.6 0.59 -3.5 1.5 l -1.5 -1.5 z" style="fill:#7f7f7f;opacity:1;fill-opacity:1;stroke:none"/>
 </g>
</svg>
