<svg xmlns="http://www.w3.org/2000/svg" viewBox="0 0 24 24">
 <rect transform="matrix(0.25882 0.96593 -0.96593 0.25882 0 0)" rx="0.5" style="fill:#6e6e6e;opacity:1;fill-opacity:1;stroke:none;fill-rule:nonzero" width="1" height="19" x="8.245" y="-18.861"/>
 <rect transform="matrix(-1 0 0 1 0 0)" rx="1" style="fill:#ffd384;fill-opacity:1" width="20" height="14" x="-22" y="7"/>
 <circle cx="8" cy="14" r="5" style="fill:#434e60;opacity:1;fill-opacity:1"/>
 <path style="fill:#383838;fill-opacity:1" d="m 4.46445 10.464345 a 5 5 0 0 0 -0.332145 0.37496 l 1.784 1.784 a 2.5 2.5 0 0 0 0.316265 3.1447 2.5 2.5 0 0 0 3.14605 0.317645 l 1.786 1.786 a 5 5 0 0 0 0.37151 -0.3356 5 5 0 0 0 0.332145 -0.37496 l -1.784 -1.784 A 2.5 2.5 0 0 0 9.76771 12.23209 2.5 2.5 0 0 0 6.62166 11.914445 l -1.786 -1.786 a 5 5 0 0 0 -0.37151 0.3356 z"/>
 <circle cx="8" cy="14" r="1" style="fill:#fff;opacity:0.4;fill-opacity:1"/>
 <circle cx="16" cy="19" r="1" style="fill:#4b3b21;fill-opacity:1"/>
 <circle cx="20" cy="19" r="1" style="fill:#4b3b21;fill-opacity:1"/>
 <rect rx="1" style="fill:#c1c1c1;opacity:1;fill-opacity:1;stroke:none;fill-rule:nonzero" width="5" height="7" x="15" y="9"/>
</svg>
