<svg xmlns="http://www.w3.org/2000/svg" viewBox="0 0 24 24">
 <path d="m 3 4 5.501 -1 l 7 1 5.5 -1 0 17 -5.5 1 -7 -1 -5.501 1 z" style="fill:#ecf0f1;fill-opacity:1;stroke:none;fill-rule:evenodd"/>
 <path d="m 8.5,4 -4.5005,0.8 0,15 L 8.5,19 l 7,1 4.5,-0.8 0,-15 -4.5,0.8 z" style="fill:#2ecc71;fill-opacity:1;stroke:none;fill-rule:evenodd"/>
 <path d="M 5.9165,4.417 4.2495,4.75 8.5,8.5 10.634,14.1955 8.5,14.5 3.9995,17 l 0,1.75 L 20,18.75 20,11 15.5,13.5 11.485,14.073 8.4975,6.5 5.914,4.417 Z" style="fill:#f1c40f;fill-opacity:1;stroke:none;fill-rule:evenodd"/>
 <path d="m 8.5,16 -4.5005,2.5 0,1.3 L 8.5,19 l 7,1 4.5,-0.8 0,-6.7 -4.5,2.5" style="fill:#3498db;fill-opacity:1;stroke:none;fill-rule:evenodd"/>
 <path d="m 15.5 4 5.5 -1 0 17 -5.5 1 z m -7 16 -5.501 1 0 -17 l 5.501 -1" style="fill:#000;opacity:0.15;fill-opacity:1;stroke:none;fill-rule:evenodd"/>
 <path d="m 13,2 c -1.657,0 -3,1.343 -3,3 5e-4,0.482 0.117,0.957 0.34,1.385 0.884,1.703 1.7735,3.411 2.66,5.115 L 15.66,6.385 C 15.8835,5.9575 15.999,5.4825 16,5 16,3.343 14.657,2 13,2 Z m 0,2 a 1,1 0 0 1 1,1 1,1 0 0 1 -1,1 1,1 0 0 1 -1,-1 1,1 0 0 1 1,-1 z" style="fill:#e74c3c;opacity:1;fill-opacity:1;stroke:none;fill-rule:nonzero"/>
</svg>
