<svg xmlns="http://www.w3.org/2000/svg" viewBox="0 0 24 24">
 <g transform="translate(0,-1028.3622)">
  <rect width="20" height="5" x="2" y="1032.36" style="fill:#e65100;fill-opacity:1;stroke:none"/>
  <path d="m 5 1033.36 c 0 -1 0 -2 0.909 -2 l 3.182 0 c 0.909 0 0.909 1 0.909 2 z" style="fill:#e65100;fill-opacity:1;stroke:none"/>
  <path d="m 3 1033.36 18 0 0 4 -18 0 z" style="fill:#95989f;fill-opacity:1;stroke:none"/>
  <rect y="1033.36" x="6" height="6" width="14" style="fill:#d8d8da;fill-opacity:1;stroke:none"/>
  <rect width="14" height="3" x="4" y="1034.36" style="fill:#f9f9f9;fill-opacity:1;stroke:none"/>
  <path d="m 1 1035.36 22 0 -1 14 -20 0 z" style="fill:#f57c00;fill-opacity:1;stroke:none"/>
  <path d="m 12 1037.36 c -2.219 0 -4.066 1.467 -4.719 3.469 0.439 0.367 0.719 0.914 0.719 1.531 0 0.617 -0.28 1.164 -0.719 1.531 0.653 2 2.499 3.469 4.719 3.469 0.345 0 0.675 -0.027 1 -0.094 0.049 -1.061 0.927 -1.906 2 -1.906 0.291 0 0.563 0.076 0.813 0.188 0.73 -0.869 1.188 -1.964 1.188 -3.188 0 -1.224 -0.458 -2.319 -1.188 -3.188 -0.249 0.112 -0.521 0.188 -0.813 0.188 -1.073 0 -1.951 -0.845 -2 -1.906 -0.325 -0.067 -0.655 -0.094 -1 -0.094 z m 0 2 c 1.657 0 3 1.343 3 3 0 1.657 -1.343 3 -3 3 -1.657 0 -3 -1.343 -3 -3 0 -1.657 1.343 -3 3 -3 z" style="fill:#ab5d0b;opacity:1;fill-opacity:1;stroke:none"/>
  <path d="m 6 13 c 0 1.105 -0.895 2 -2 2 -1.105 0 -2 -0.895 -2 -2 0 -1.105 0.895 -2 2 -2 1.105 0 2 0.895 2 2 z" transform="matrix(0.5,0,0,0.5,4,1035.8622)" style="fill:#ab5d0b;opacity:1;fill-opacity:1;stroke:none"/>
  <path d="m 6 13 c 0 1.105 -0.895 2 -2 2 -1.105 0 -2 -0.895 -2 -2 0 -1.105 0.895 -2 2 -2 1.105 0 2 0.895 2 2 z" transform="matrix(0.5,0,0,0.5,13,1040.8622)" style="fill:#ab5d0b;opacity:1;fill-opacity:1;stroke:none"/>
  <path transform="matrix(0.5,0,0,0.5,13,1030.8622)" d="m 6 13 c 0 1.105 -0.895 2 -2 2 -1.105 0 -2 -0.895 -2 -2 0 -1.105 0.895 -2 2 -2 1.105 0 2 0.895 2 2 z" style="fill:#ab5d0b;opacity:1;fill-opacity:1;stroke:none"/>
 </g>
</svg>
