<svg xmlns="http://www.w3.org/2000/svg" viewBox="0 0 32 32">
 <path d="m 5.5 10 0 2 21 0 0 -2 z" style="fill:#52c8ff"/>
 <path d="m 4.5 15 0 2 23 0 0 -2 z" style="fill:#52c8ff"/>
 <path d="m 15 4.5 0 23 2 0 0 -23 z" style="fill:#52c8ff"/>
 <g transform="matrix(0.99157968,0,0,0.99157968,0.30128272,0.30127777)" style="stroke-dasharray:none;fill:none;stroke-miterlimit:4;stroke:#52c8ff;stroke-width:2.02">
  <g style="stroke-width:2.02">
   <path d="m 89.78 7.747 c -22.894 -52.51 -21.16 -118.39 0 -175.8" transform="matrix(0.1237,0,0,0.1237,0,25.72917)" style="stroke-width:16.305"/>
   <path d="m 166.23 7.747 c 22.863 -52.51 21.13 -118.39 0 -175.8" transform="matrix(0.1237,0,0,0.1237,0,25.72917)" style="stroke-width:16.305"/>
  </g>
  <path d="m 33.06 27.316 c 0 5.03 -4.076 9.105 -9.105 9.105 -5.03 0 -9.105 -4.076 -9.105 -9.105 0 -5.03 4.076 -9.105 9.105 -9.105 5.03 0 9.105 4.076 9.105 9.105 z" transform="matrix(1.2738,0,0,1.2738,-14.67832,-18.96324)" style="stroke-linecap:round;stroke-width:1.583"/>
 </g>
 <path d="m 5.5 20 0 2 21 0 0 -2 z" style="fill:#52c8ff"/>
</svg>
