<svg xmlns="http://www.w3.org/2000/svg" viewBox="0 0 32 32">
 <path d="m 4.9 5 c -0.493 0 -0.9 0.401 -0.9 0.881 l 0 18.238 c 0 0.48 0.407 0.881 0.9 0.881 l 11.199 0 c 0.493 0 0.9 -0.401 0.9 -0.881 l 0 -18.238 c 0 -0.48 -0.407 -0.881 -0.9 -0.881 l -11.199 0 z m 3.6 6.5 c 0.512 0 1.024 0.195 1.414 0.586 c 0.39 0.39 0.585 0.903 0.586 1.414 c 0 -0.53 0.212 -1.039 0.586 -1.414 c 0.781 -0.781 2.047 -0.781 2.828 0 c 0.781 0.781 0.781 2.047 0 2.828 l -3.414 3.586 l -3.414 -3.586 c -0.781 -0.781 -0.781 -2.047 0 -2.828 c 0.391 -0.391 0.902 -0.586 1.414 -0.586 z" style="fill:#f9b081"/>
 <path d="m 18.68 5.892 c -0.476 -0.131 -0.973 0.15 -1.098 0.615 l -4.693 17.611 c -0.124 0.464 0.166 0.959 0.641 1.086 l 10.798 2.907 c 0.472 0.127 0.965 -0.15 1.089 -0.619 l 4.697 -17.611 c 0.12 -0.464 -0.17 -0.955 -0.645 -1.086 m -6.74 3.617 1.427 5.3 -3.886 3.876 -1.427 -5.3 z" style="fill:#f9b081"/>
</svg>
