<svg xmlns="http://www.w3.org/2000/svg" viewBox="0 0 32 32">
 <g transform="matrix(0.14392579,0,0,0.14392579,-55.80428,-40.947719)" style="stroke-dasharray:none;stroke-opacity:1;fill:#d07d86;stroke-miterlimit:4;fill-opacity:1;stroke:#812222;stroke-width:3.474">
  <g transform="matrix(0.65301062,0,0,0.65301062,307.8867,290.92215)" style="stroke-width:5.32">
   <path d="m 6.5 -12 c -0.828 0 -1.5 0.672 -1.5 1.5 0 2.5 0 5.5 0 8.5 0 2.191 1.809 4 4 4 l 9.994 0 0.006 0 c 1.079 0 2.112 -0.436 2.865 -1.209 1.232 -1.264 1.489 -3.187 0.633 -4.73 c -0.703 -1.267 -2.037 -2.055 -3.486 -2.059 -0.004 0 -0.008 -0.002 -0.012 -0.002 -0.357 0 -0.687 -0.191 -0.865 -0.5 -0.276 -0.478 -0.112 -1.089 0.365 -1.365 0.152 -0.088 0.324 -0.135 0.5 -0.135 c 0.826 -0.005 0 0 2.5 0 0.828 0 1.5 -0.672 1.5 -1.5 0 -0.828 -0.672 -1.5 -1.5 -1.5 l -2.414 0 -0.086 0 c -0.006 0 -0.012 0.004 -0.018 0.004 -1.183 0.005 -2.306 0.53 -3.063 1.443 -1.024 1.236 -1.21 2.965 -0.473 4.391 0.686 1.327 2.05 2.142 3.525 2.152 0.002 0.005 0.002 0.005 0.004 0.01 0.365 -0.008 0.706 0.183 0.889 0.5 0.276 0.478 0.112 1.089 -0.365 1.365 -0.152 0.087 -0.325 0.133 -0.5 0.133 l 0 0.002 -10 0 c -0.57 0 -1 -0.43 -1 -1 l 0 -8.5 c 0 -0.828 -0.672 -1.5 -1.5 -1.5" transform="matrix(10.639988,0,0,10.639988,90.348856,234.89389)" mix-blend-mode="normal" isolation="auto" white-space="normal" solid-opacity="1" solid-color="#000000" style="visibility:visible;shape-rendering:auto;color-interpolation-filters:linearRGB;opacity:1;image-rendering:auto;stroke:none;display:inline;color:#000;fill-rule:evenodd;color-rendering:auto;color-interpolation:sRGB"/>
  </g>
 </g>
 <path d="m 11 7 c -2.191 0 -4 1.809 -4 4 l 0 7.5 c 0 0.828 0.672 1.5 1.5 1.5 0.828 0 1.5 -0.672 1.5 -1.5 l 0 -7.5 c 0 -0.57 0.43 -1 1 -1 l 15 0 c 0.57 0 1 0.43 1 1 0 0.57 -0.43 1 -1 1 -2.191 0 -4 1.809 -4 4 l 0 2.5 c 0 0.828 0.672 1.5 1.5 1.5 0.828 0 1.5 -0.672 1.5 -1.5 l 0 -2.5 c 0 -0.57 0.43 -1 1 -1 2.191 0 4 -1.809 4 -4 0 -2.191 -1.809 -4 -4 -4 z" style="fill:#d07d86;opacity:1;fill-opacity:1;stroke:none;fill-rule:nonzero"/>
</svg>
