<svg xmlns="http://www.w3.org/2000/svg" viewBox="0 0 32 32">
 <path d="m 15.02 28.324 c -5.211 -0.355 -9.789 -4.461 -11.08 -9.437 -1.191 -5.152 1.176 -10.957 5.793 -13.652 2.969 -1.769 6.699 -1.992 9.984 -1.07 c 4.059 1.246 7.152 4.859 8.238 8.887 0.977 3.715 0.273 7.93 -2.32 10.855 -2.348 2.922 -6.098 4.605 -9.847 4.453 -0.254 -0.004 -0.512 -0.016 -0.766 -0.035 z m 3.105 -0.582 c 0.937 -0.082 0.77 -0.367 -0.078 -0.441 -1.52 -0.293 -3.16 -0.301 -4.629 0.215 1.293 0.621 3.01 0.457 4.453 0.273 z m -4.605 -0.824 c 0.668 -0.68 -0.027 -2.305 -0.609 -2.949 -1.305 -0.668 -2.316 -1.75 -3.512 -2.57 -0.898 -0.328 -1.773 0.293 -2.637 0.504 -0.004 0.855 -0.062 1.824 0.691 2.422 1.242 1.223 2.746 2.301 4.437 2.789 0.543 0.023 1.113 -0.008 1.629 -0.195 z m 7.148 0.035 c 2.164 -0.93 4.191 -2.426 5.41 -4.465 0.441 -0.586 0.762 -1.613 -0.383 -1.273 -1.441 0.906 -2.742 2.023 -4.219 2.883 -0.895 0.707 -1.539 1.68 -2.176 2.613 0.219 0.512 0.941 0.391 1.367 0.242 z m 1.465 -3.742 c 1.09 -0.891 2.66 -1.465 3.234 -2.816 0.258 -1.062 0.277 -2.164 0.383 -3.246 -1.082 -0.961 -2.41 -1.613 -3.715 -2.227 -1.285 0.098 -2.324 1.242 -3.34 1.98 -0.543 0.297 -0.402 0.969 -0.551 1.484 -0.195 1.203 -0.426 2.402 -0.559 3.617 1.012 0.746 2.144 1.43 3.375 1.723 0.445 0 0.812 -0.297 1.172 -0.516 z m -7.754 0.184 c 0.984 -0.371 2.285 -0.656 2.75 -1.695 0.344 -1.461 0.531 -2.953 0.715 -4.441 -0.98 -0.93 -2.023 -1.91 -3.309 -2.394 -1.105 -0.02 -2.043 0.762 -3.03 1.191 -1.324 0.359 -1.785 1.562 -1.84 2.805 -0.391 1.23 0.055 2.492 1.172 3.172 0.977 0.715 2.23 1.859 3.539 1.363 z m -8.242 -1.719 c -0.801 -1.477 -1.348 -3.09 -1.57 -4.754 -0.793 0.16 -0.07 2.098 0.145 2.883 0.371 1.07 0.941 2.051 1.535 3.01 c 0.105 -0.395 0.172 -0.781 -0.109 -1.137 m -0.344 -6.566 c 0.348 -0.5 0.902 -0.891 1.113 -1.457 0.367 -1.719 0.969 -3.379 1.832 -4.922 -0.035 -0.992 -1.148 -1.598 -1.703 -0.5 -1.574 2.023 -2.812 4.496 -2.867 7.101 c -0.207 0.898 0.574 1.543 1.023 0.488 0.199 -0.234 0.398 -0.473 0.602 -0.711 z m 20.308 1.234 c 0.668 -0.875 1.594 -1.914 1.355 -3.102 -0.422 -2.25 -1.574 -4.387 -3.351 -5.851 -0.531 -0.223 -1.496 -1.043 -1.863 -0.27 -0.543 1.043 -1.898 2.031 -1.41 3.328 0.418 1.285 0.723 2.621 1.332 3.828 1.121 0.875 2.418 1.555 3.723 2.129 z m -14.91 -0.582 c 1.035 -0.527 2.039 -1.102 3.051 -1.668 0.336 -1.187 0.766 -2.348 1.164 -3.512 c 0.055 -1.266 -1.074 -2.168 -1.828 -3.055 -0.742 -1.184 -1.992 -0.277 -2.91 0.156 -2.01 1.074 -2.473 3.434 -3.16 5.406 c 0.098 0.738 0.777 1.355 1.27 1.906 0.68 0.687 1.449 1.598 2.414 0.766 z m 7.422 -6.379 c 0.535 -0.074 1.137 -0.02 1.629 -0.172 0.746 -0.797 1.402 -1.73 1.711 -2.785 -0.375 -1.055 -1.613 -1.539 -2.609 -1.898 -1.266 -0.375 -2.621 -0.562 -3.937 -0.41 c -0.949 0.48 -2.648 1.883 -1.691 2.973 0.703 0.84 1.453 1.633 2.219 2.418 0.895 0.008 1.785 -0.062 2.68 -0.125 z" style="fill:#9c9c37;stroke:#9c9c37;stroke-width:0.124"/>
</svg>
