<svg xmlns="http://www.w3.org/2000/svg" width="32" height="32" viewBox="0 0 25.6 25.6">
 <path d="m 3.437 3.2 18.726 0 c 0.132 0 0.237 0.105 0.237 0.237 l 0 18.726 c 0 0.132 -0.105 0.237 -0.237 0.237 l -18.726 0 c -0.132 0 -0.237 -0.105 -0.237 -0.237 l 0 -18.726 c 0 -0.132 0.105 -0.237 0.237 -0.237 z" style="stroke-dasharray:none;fill:none;stroke-miterlimit:4;stroke:#ca9a69;stroke-linecap:round;stroke-width:1.6"/>
 <path d="m 4.8 3.467 0 18.933 0.8 0 l 0 -2.4 l 1.6 0 0 -0.8 -1.6 0 0 -2.4 1.6 0 0 -0.8 -1.6 0 0 -2.4 2.4 0 0 -0.8 -2.4 0 0 -2.4 2.4 0 0 -0.8 -2.4 0 l 0 -2.4 l 1.6 0 0 -0.8 -1.6 0 0 -2.933 z" mix-blend-mode="normal" isolation="auto" white-space="normal" solid-opacity="1" solid-color="#000000" style="visibility:visible;shape-rendering:auto;color-interpolation-filters:linearRGB;fill:#ca9a69;opacity:1;image-rendering:auto;fill-opacity:0.6;stroke:none;display:inline;color:#000;fill-rule:nonzero;color-rendering:auto;color-interpolation:sRGB"/>
 <rect width="1.6" height="1.6" x="8" y="5.6" rx="0.267" style="fill:#ca9a69;opacity:1;fill-opacity:1;stroke:none;fill-rule:nonzero"/>
 <rect width="1.6" height="1.6" x="8" y="18.4" rx="0.267" style="fill:#ca9a69;opacity:1;fill-opacity:1;stroke:none;fill-rule:nonzero"/>
 <rect width="9.6" height="1.6" x="10.4" y="5.6" rx="0.267" style="fill:#ca9a69;opacity:1;fill-opacity:1;stroke:none;fill-rule:nonzero"/>
 <rect width="1.6" height="1.6" x="8.8" y="8.8" rx="0.267" style="fill:#ca9a69;opacity:1;fill-opacity:1;stroke:none;fill-rule:nonzero"/>
 <rect width="1.6" height="1.6" x="8.8" y="12" rx="0.267" style="fill:#ca9a69;opacity:1;fill-opacity:1;stroke:none;fill-rule:nonzero"/>
 <rect width="1.6" height="1.6" x="8" y="15.2" rx="0.267" style="fill:#ca9a69;opacity:1;fill-opacity:1;stroke:none;fill-rule:nonzero"/>
 <rect width="9.6" height="1.6" x="11.2" y="8.8" rx="0.267" style="fill:#ca9a69;opacity:1;fill-opacity:1;stroke:none;fill-rule:nonzero"/>
 <rect width="9.6" height="1.6" x="11.2" y="12" rx="0.267" style="fill:#ca9a69;opacity:1;fill-opacity:1;stroke:none;fill-rule:nonzero"/>
 <rect width="9.6" height="1.6" x="10.4" y="15.2" rx="0.267" style="fill:#ca9a69;opacity:1;fill-opacity:1;stroke:none;fill-rule:nonzero"/>
 <rect width="9.6" height="1.6" x="10.4" y="18.4" rx="0.267" style="fill:#ca9a69;opacity:1;fill-opacity:1;stroke:none;fill-rule:nonzero"/>
</svg>
