<svg xmlns="http://www.w3.org/2000/svg" viewBox="0 0 32 32">
 <path d="m 4.781 3 c -0.433 0 -0.781 0.368 -0.781 0.83 l 0 24.34 c 0 0.462 0.348 0.83 0.781 0.83 l 4.434 0 c 0.437 0 0.785 -0.368 0.785 -0.83 l 0 -24.34 c 0 -0.462 -0.348 -0.83 -0.785 -0.83 m -4.215 2 4 0 0 10 -4 0 m 2 7.5 c 0.828 0 1.5 0.672 1.5 1.5 0 0.828 -0.672 1.5 -1.5 1.5 -0.828 0 -1.5 -0.672 -1.5 -1.5 0 -0.828 0.672 -1.5 1.5 -1.5 z" style="fill:#b2a445"/>
 <path d="m 12.693 3 c -0.383 0 -0.693 0.368 -0.693 0.83 l 0 24.34 c 0 0.462 0.311 0.83 0.693 0.83 l 2.609 0 c 0.389 0 0.697 -0.368 0.697 -0.83 l 0 -24.34 c 0 -0.462 -0.308 -0.83 -0.697 -0.83 m -2.303 2 l 2 0 0 10 -2 0 z m 1 18 c 0.552 0 1 0.448 1 1 0 0.552 -0.448 1 -1 1 -0.552 0 -1 -0.448 -1 -1 0 -0.552 0.448 -1 1 -1 z" style="fill:#b2a445"/>
 <path d="m 17.465 3.876 c -0.462 0.124 -0.742 0.579 -0.623 1.025 l 6.3 23.491 c 0.12 0.446 0.59 0.701 1.052 0.577 l 3.151 -0.843 c 0.47 -0.126 0.746 -0.58 0.627 -1.026 l -6.3 -23.491 c -0.12 -0.446 -0.586 -0.702 -1.056 -0.576 m -2.505 2.739 2.898 -0.776 2.588 9.651 -2.898 0.776 z m 5.978 16.502 c 0.8 -0.214 1.623 0.26 1.837 1.06 0.214 0.8 -0.26 1.621 -1.061 1.836 -0.8 0.214 -1.623 -0.26 -1.837 -1.06 -0.214 -0.8 0.26 -1.621 1.061 -1.836 z" style="fill:#b2a445"/>
</svg>
