<svg xmlns="http://www.w3.org/2000/svg" viewBox="0 0 40 40">
 <path d="m 20.17 8.167 c -3.13 0 -5.667 1.194 -5.667 2.667 l 0 2.667 6 0 0 1 -9.666 0 c -1.473 0 -2.667 2.537 -2.667 5.667 0 3.13 1.194 5.334 2.667 5.334 l 2.667 0 0 -2.667 c 0 -1.837 1.496 -3.333 3.333 -3.333 l 6 0 c 1.477 0 2.667 -1.19 2.667 -2.667 l 0 -6 c 0 -1.473 -2.204 -2.667 -5.334 -2.667 z m -2.666 1.667 c 0.552 0 1 0.448 1 1 0 0.552 -0.448 1 -1 1 -0.552 0 -1 -0.448 -1 -1 0 -0.552 0.448 -1 1 -1 z" style="fill:#658db6;opacity:1;fill-opacity:1;stroke:none;fill-rule:nonzero"/>
 <path d="m 19.834 31.833 c 3.13 0 5.667 -1.194 5.667 -2.667 l 0 -2.667 -6 0 0 -1 9.666 0 c 1.473 0 2.667 -2.537 2.667 -5.667 0 -3.13 -1.194 -5.334 -2.667 -5.334 l -2.667 0 0 2.667 c 0 1.837 -1.496 3.333 -3.333 3.333 l -6 0 c -1.477 0 -2.667 1.19 -2.667 2.667 l 0 6 c 0 1.473 2.204 2.667 5.334 2.667 z m 2.666 -1.667 c -0.552 0 -1 -0.448 -1 -1 0 -0.552 0.448 -1 1 -1 0.552 0 1 0.448 1 1 0 0.552 -0.448 1 -1 1 z" style="fill:#658db6;opacity:1;fill-opacity:1;stroke:none;fill-rule:nonzero"/>
</svg>
