<svg xmlns="http://www.w3.org/2000/svg" viewBox="0 0 32 32">
 <path d="m 15.991 8.5 c -0.258 0 -0.504 0.024 -0.753 0.032 -3.037 0.12 -5.39 0.911 -7.02 1.742 -1.764 0.899 -2.792 1.906 -2.792 1.906 -0.576 0.599 -0.572 1.678 0.008 2.27 0.584 0.595 1.639 0.599 2.224 0.012 0 0 0.439 -0.44 1.41 -1 -0.286 0.799 -0.427 1.65 -0.427 2.545 0 4.12 3.311 7.496 7.347 7.496 4.04 0 7.347 -3.376 7.347 -7.496 0 -0.895 -0.137 -1.746 -0.423 -2.545 0.971 0.563 1.41 1 1.41 1 0.58 0.603 1.652 0.607 2.236 0.012 0.588 -0.599 0.584 -1.69 -0.008 -2.282 0 0 -1.023 -1.01 -2.788 -1.91 c -1.627 -0.831 -3.98 -1.622 -7.02 -1.742 -0.246 -0.024 -0.504 -0.032 -0.757 -0.032 m 0 2.349 c 2.34 0 5.575 1.091 5.575 5.139 0 3.548 -2.203 5.65 -5.575 5.65 -3.319 0 -5.523 -2.154 -5.523 -5.65 0 -3.592 3.186 -5.139 5.523 -5.139 z" style="fill:#4cb29c"/>
 <path d="m 17.75 15.997 c 0 0.971 -0.786 1.753 -1.753 1.753 -0.961 0 -1.747 -0.782 -1.747 -1.753 0 -0.965 0.786 -1.747 1.747 -1.747 c 0.967 0 1.753 0.782 1.753 1.747 z" style="stroke-dasharray:none;fill:none;stroke-miterlimit:4;stroke:#4cb29c;stroke-linecap:round;stroke-linejoin:round;stroke-width:2"/>
</svg>
