<svg xmlns="http://www.w3.org/2000/svg" width="32" height="32" viewBox="0 0 25.6 25.6">
 <path d="m 4.86 7.2 15.881 0 c 0.474 0 0.86 0.368 0.86 0.823 l 0 9.557 c 0 0.453 -0.385 0.82 -0.86 0.82 l -15.881 0 c -0.474 0 -0.86 -0.368 -0.86 -0.82 l 0 -9.557 c 0 -0.455 0.385 -0.823 0.86 -0.823" style="stroke-dasharray:none;fill:none;stroke-miterlimit:4;stroke:#e08dc9;stroke-linecap:round;stroke-linejoin:round;stroke-width:1.6"/>
 <path d="m 6.134 5.6 2.131 0 c 0.296 0 0.534 0.357 0.534 0.802 0 0.441 -0.238 0.798 -0.534 0.798 l -2.131 0 c -0.296 0 -0.534 -0.357 -0.534 -0.798 0 -0.445 0.238 -0.802 0.534 -0.802" style="fill:#e08dc9"/>
 <path d="m 18.935 8.8 0.533 0 c 0.294 0 0.533 0.24 0.533 0.534 l 0 0.534 c 0 0.294 -0.238 0.532 -0.533 0.532 l -0.533 0 c -0.297 0 -0.535 -0.238 -0.535 -0.532 l 0 -0.534 c 0 -0.294 0.238 -0.534 0.535 -0.534 z" style="fill:#e08dc9"/>
 <path d="m 16 12.8 c 0 1.768 -1.432 3.2 -3.2 3.2 -1.768 0 -3.2 -1.432 -3.2 -3.2 0 -1.768 1.432 -3.2 3.2 -3.2 c 1.768 0 3.2 1.432 3.2 3.2 z" style="stroke-dasharray:none;fill:none;stroke-miterlimit:4;stroke:#e08dc9;stroke-width:1.6"/>
</svg>
