<svg xmlns="http://www.w3.org/2000/svg" width="32" height="32" viewBox="0 0 25.6 25.6">
 <path d="m 12.263 5.309 1.074 0 c 0.146 0 0.263 0.135 0.263 0.299 l 0 0.966 c 0 0.167 -0.117 0.299 -0.263 0.299 l -1.074 0 c -0.146 0 -0.263 -0.133 -0.263 -0.299 l 0 -0.966 c 0 -0.164 0.117 -0.299 0.263 -0.299" style="fill:#b477d0"/>
 <path d="m 12.11 4.265 1.25 0 c 0.419 0 0.758 0.339 0.758 0.758 0 0.417 -0.339 0.758 -0.758 0.758 l -1.25 0 c -0.419 0 -0.758 -0.341 -0.758 -0.758 0 -0.419 0.339 -0.758 0.758 -0.758 z" style="fill:#b477d0"/>
 <path d="m 12.401 2.969 0.8 0 c 0.79 0 1.43 0.438 1.43 0.981 l 0 0.103 c 0 0.541 -0.64 0.978 -1.43 0.978 l -0.8 0 c -0.79 0 -1.433 -0.438 -1.433 -0.978 l 0 -0.103 c 0 -0.543 0.642 -0.981 1.433 -0.981 z" style="fill:#b477d0;stroke:#b477d0;stroke-linejoin:round;stroke-width:0.604"/>
 <path d="m 12.676 8.533 0.249 0 c 0.224 0 0.409 0.136 0.409 0.308 l 0 0.985 c 0 0.169 -0.185 0.308 -0.409 0.308 l -0.249 0 c -0.224 0 -0.409 -0.139 -0.409 -0.308 l 0 -0.985 c 0 -0.171 0.185 -0.308 0.409 -0.308 z" style="fill:#b477d0"/>
 <path d="m 12.676 18.72 0.249 0 c 0.224 0 0.409 0.139 0.409 0.307 l 0 0.986 c 0 0.168 -0.185 0.307 -0.409 0.307 l -0.249 0 c -0.224 0 -0.409 -0.139 -0.409 -0.307 l 0 -0.986 c 0 -0.168 0.185 -0.307 0.409 -0.307 z" style="fill:#b477d0"/>
 <path d="m 6.933 14.523 0 -0.246 c 0 -0.225 0.139 -0.41 0.31 -0.41 l 0.983 0 c 0.168 0 0.307 0.186 0.307 0.41 l 0 0.246 c 0 0.228 -0.139 0.41 -0.307 0.41 l -0.983 0 c -0.171 0 -0.31 -0.182 -0.31 -0.41 z" style="fill:#b477d0"/>
 <path d="m 17.07 14.523 0 -0.246 c 0 -0.225 0.139 -0.41 0.308 -0.41 l 0.985 0 c 0.171 0 0.308 0.186 0.308 0.41 l 0 0.246 c 0 0.228 -0.136 0.41 -0.308 0.41 l -0.985 0 c -0.169 0 -0.308 -0.182 -0.308 -0.41 z" style="fill:#b477d0"/>
 <path d="m 12.69 9.929 c -0.164 0 -0.331 0.008 -0.497 0.026 -0.052 0.003 -0.099 0.034 -0.12 0.081 -0.023 0.047 -0.018 0.102 0.013 0.143 0.034 0.039 0.086 0.06 0.135 0.052 1.268 -0.138 2.396 0.245 3.318 1.128 0.034 0.042 0.089 0.057 0.138 0.044 0.052 -0.013 0.091 -0.055 0.102 -0.107 0.01 -0.049 -0.008 -0.104 -0.049 -0.135 -0.854 -0.818 -1.893 -1.237 -3.039 -1.232 z" style="fill:#b477d0"/>
 <path d="m 13.09 10.744 c -0.07 0.01 -0.12 0.068 -0.12 0.138 0.003 0.07 0.055 0.128 0.125 0.135 0.706 0.091 1.271 0.349 1.802 0.823 0.057 0.049 0.146 0.044 0.195 -0.013 0.052 -0.057 0.047 -0.146 -0.01 -0.195 -0.57 -0.505 -1.198 -0.792 -1.951 -0.888 -0.016 -0.003 -0.029 -0.003 -0.042 0 z" style="fill:#b477d0"/>
 <path d="m 12.578 9.179 c -0.458 0.013 -0.924 0.089 -1.391 0.227 -0.049 0.01 -0.089 0.049 -0.102 0.099 -0.013 0.052 0.005 0.104 0.042 0.138 0.039 0.034 0.094 0.044 0.141 0.026 1.768 -0.526 3.529 -0.086 4.839 1.211 0.055 0.055 0.143 0.055 0.198 0 0.055 -0.055 0.052 -0.143 0 -0.195 c -1.034 -1.023 -2.349 -1.544 -3.727 -1.505" style="fill:#b477d0"/>
 <path d="m 17.31 7.15 -0.271 1.068 1.049 0.807 1.01 -0.591 c 0 -0.523 -1.341 -1.435 -1.789 -1.284 z" style="fill:#b477d0;fill-rule:evenodd"/>
 <path d="m 17.299 10.574 c -0.094 -0.107 -5.745 4.479 -5.745 4.479 l 0.214 0.271 c 0 0 5.622 -4.643 5.531 -4.75 z" style="fill:#b477d0;fill-rule:evenodd"/>
 <circle cx="12.8" cy="14.4" r="7.2" style="stroke-dasharray:none;stroke-opacity:1;fill:none;opacity:1;stroke-miterlimit:4;fill-opacity:1;stroke:#b477d0;fill-rule:nonzero;stroke-linecap:butt;stroke-linejoin:miter;stroke-width:1.6;stroke-dashoffset:0"/>
</svg>
