<svg xmlns="http://www.w3.org/2000/svg" width="32" height="32" viewBox="0 0 25.6 25.6">
 <path d="m 15.886 9.6 1.829 0 c 2.743 0 2.684 2.8 2.684 2.8 l 0 2.4 c 0 0.914 -1.599 2.8 -1.599 2.8 l 0 1.2 3.601 1.999 0 1.6 -11.2 0 0 -1.6 3.601 -1.999 0 -1.2 c 0 0 -1.605 -1.887 -1.599 -2.8 l 0 -2.4 c 0 0 -0.059 -2.8 2.684 -2.8 z" style="fill:#555"/>
 <path d="m 9.857 4 c -3.429 0 -3.355 3.5 -3.355 3.5 l 0 3 c -0.007 1.142 1.998 3.5 1.998 3.5 l 0 1.5 l -4.5 2.5 l 0 2 l 11.932 0 c -0.005 -0.011 -0.012 -0.021 -0.018 -0.031 c -0.22 -0.449 -0.414 -0.894 -0.41 -1.475 l 0 -1.881 l -2 -1.113 l 0 -1.5 c 0 0 1.998 -2.358 1.998 -3.5 l 0 -3 c 0 0 0.073 -3.5 -3.355 -3.5 l -2.285 0 z m 7.645 13.723 l 0 0.779 a 1 1 0 0 1 0 0.004 c 0 -0.009 0.055 0.27 0.209 0.584 c 0.073 0.148 0.191 0.319 0.289 0.482 l 0 -1.572 l -0.498 -0.277 z" transform="scale(0.8,0.8)" style="fill:#555"/>
</svg>
