<svg xmlns="http://www.w3.org/2000/svg" viewBox="0 0 32 32">
 <path d="m 15.992 2 c -1.018 0 -1.872 0.582 -2.263 1.404 c -0.775 -0.526 -1.856 -0.63 -2.733 -0.144 -0.877 0.478 -1.339 1.396 -1.253 2.289 -0.94 -0.008 -1.919 0.359 -2.42 1.18 -0.509 0.829 -0.407 1.85 0.157 2.584 -0.869 0.367 -1.48 1.18 -1.48 2.137 c 0 0.957 0.611 1.77 1.48 2.137 -0.556 0.734 -0.666 1.747 -0.157 2.584 0.501 0.821 1.48 1.26 2.42 1.18 -0.086 0.893 0.376 1.81 1.253 2.289 0.392 0.215 0.573 0.295 1 0.295 l 0 10.06 4 -3.541 4 3.541 0 -10.06 c 0.423 0 0.612 -0.008 1 -0.295 0.877 -0.478 1.339 -1.396 1.253 -2.289 0.94 0.008 1.919 -0.359 2.42 -1.18 0.509 -0.829 0.407 -1.85 -0.157 -2.584 c 0.869 -0.367 1.48 -1.18 1.48 -2.137 0 -0.957 -0.611 -1.77 -1.48 -2.137 0.556 -0.734 0.666 -1.747 0.157 -2.584 -0.501 -0.821 -1.48 -1.26 -2.42 -1.18 0.086 -0.893 -0.376 -1.81 -1.253 -2.289 -0.877 -0.478 -1.958 -0.383 -2.733 0.144 -0.392 -0.821 -1.245 -1.404 -2.263 -1.404 m -0.016 3.501 c 3.446 0 6.249 2.64 6.249 5.901 0 3.262 -2.796 5.901 -6.249 5.901 -3.446 0 -6.249 -2.64 -6.249 -5.901 0 -3.262 2.796 -5.901 6.249 -5.901 z m 0 1.18 c -2.756 0 -4.996 2.113 -4.996 4.721 0 2.608 2.24 4.721 4.996 4.721 2.756 0 4.996 -2.113 4.996 -4.721 0 -2.608 -2.24 -4.721 -4.996 -4.721 z" style="fill:#d64c62;fill-opacity:1"/>
</svg>
