<svg xmlns="http://www.w3.org/2000/svg" viewBox="0 0 32 32">
 <path d="m 28 13.577 0 4.846 c 0 0.32 -0.342 0.577 -0.754 0.577 l -4.491 0 c -0.417 0 -0.754 -0.257 -0.754 -0.577 l 0 -4.846 c 0 -0.315 0.337 -0.577 0.754 -0.577 l 4.491 0 c 0.413 0 0.754 0.262 0.754 0.577" style="fill:#555"/>
 <path d="m 19 13.577 0 4.846 c 0 0.32 -0.337 0.577 -0.754 0.577 l -4.491 0 c -0.417 0 -0.754 -0.257 -0.754 -0.577 l 0 -4.846 c 0 -0.315 0.337 -0.577 0.754 -0.577 l 4.491 0 c 0.417 0 0.754 0.262 0.754 0.577" style="fill:#555"/>
 <path d="m 10 13.577 0 4.846 c 0 0.32 -0.342 0.577 -0.754 0.577 l -4.491 0 c -0.417 0 -0.754 -0.257 -0.754 -0.577 l 0 -4.846 c 0 -0.315 0.337 -0.577 0.754 -0.577 l 4.491 0 c 0.413 0 0.754 0.262 0.754 0.577" style="fill:#555"/>
</svg>
