<svg xmlns="http://www.w3.org/2000/svg" width="32" height="32" viewBox="0 0 25.6 25.6">
 <path d="m 12.676 5.6 0.249 0 c 0.224 0 0.409 0.136 0.409 0.308 l 0 0.985 c 0 0.169 -0.185 0.308 -0.409 0.308 l -0.249 0 c -0.224 0 -0.409 -0.139 -0.409 -0.308 l 0 -0.985 c 0 -0.171 0.185 -0.308 0.409 -0.308" style="fill:#fd4651;fill-opacity:1"/>
 <path d="m 12.676 18.4 0.249 0 c 0.224 0 0.409 0.139 0.409 0.307 l 0 0.986 c 0 0.168 -0.185 0.307 -0.409 0.307 l -0.249 0 c -0.224 0 -0.409 -0.139 -0.409 -0.307 l 0 -0.986 c 0 -0.168 0.185 -0.307 0.409 -0.307 z" style="fill:#fd4651;fill-opacity:1"/>
 <path d="m 5.6 12.923 0 -0.246 c 0 -0.225 0.139 -0.41 0.31 -0.41 l 0.983 0 c 0.168 0 0.307 0.186 0.307 0.41 l 0 0.246 c 0 0.228 -0.139 0.41 -0.307 0.41 l -0.983 0 c -0.171 0 -0.31 -0.182 -0.31 -0.41" style="fill:#fd4651;fill-opacity:1"/>
 <path d="m 18.4 12.923 0 -0.246 c 0 -0.225 0.139 -0.41 0.308 -0.41 l 0.985 0 c 0.171 0 0.308 0.186 0.308 0.41 l 0 0.246 c 0 0.228 -0.136 0.41 -0.308 0.41 l -0.985 0 c -0.169 0 -0.308 -0.182 -0.308 -0.41" style="fill:#fd4651;fill-opacity:1"/>
 <circle cx="12.8" cy="12.8" r="10" style="stroke-dasharray:none;stroke-opacity:1;fill:none;opacity:1;stroke-miterlimit:4;fill-opacity:1;stroke:#fd4651;fill-rule:nonzero;stroke-linecap:butt;stroke-linejoin:miter;stroke-width:2.4;stroke-dashoffset:0"/>
 <path d="m 9.06 8.501 c -0.121 0 -0.243 0.047 -0.334 0.139 l -0.02 0.023 c -0.186 0.183 -0.186 0.483 0 0.667 l 2.779 2.779 c 0.001 0.001 0.003 0.002 0.004 0.003 a 1.467 1.467 0 0 1 0.7 -0.672 c -0.006 -0.007 -0.008 -0.015 -0.015 -0.021 l -2.779 -2.779 c -0.093 -0.092 -0.214 -0.139 -0.335 -0.139 z" style="fill:#fd4651;fill-opacity:1;stroke:none;fill-rule:nonzero"/>
 <path d="m 18.769 8.754 c -0.061 0.008 -0.121 0.028 -0.178 0.06 l -4.876 2.815 a 1.467 1.467 0 0 1 0.534 0.925 l 4.875 -2.815 c 0.227 -0.131 0.304 -0.421 0.174 -0.647 l -0.06 -0.105 c -0.098 -0.17 -0.286 -0.256 -0.469 -0.233 z" style="fill:#fd4651;fill-opacity:1;stroke:none;fill-rule:nonzero"/>
 <path d="m 11.852 13.893 -2.723 5.02 c -0.062 0.115 -0.023 0.262 0.09 0.331 l 0.031 0.021 c 0.113 0.067 0.252 0.029 0.315 -0.085 l 2.73 -5.03 a 1.467 1.467 0 0 1 -0.443 -0.255 z" style="fill:#fd4651;fill-opacity:1;stroke:none;fill-rule:nonzero"/>
 <path d="m 16 13.967 c -1.105 0 -2 0.895 -2 2 c 0 1.105 0.895 2 2 2 c 1.105 0 2 -0.895 2 -2 c 0 -1.105 -0.895 -2 -2 -2 z m 0 1.033 a 1 1 0 0 1 1 1 a 1 1 0 0 1 -1 1 a 1 1 0 0 1 -1 -1 a 1 1 0 0 1 1 -1 z" transform="scale(0.8,0.8)" style="fill:#fd4651;fill-opacity:1;stroke:none;fill-rule:nonzero"/>
</svg>
