<svg xmlns="http://www.w3.org/2000/svg" viewBox="0 0 32 32">
 <path d="m 16.882 20.965 c -0.063 -2.266 0.446 -4.468 2.605 -6.03 2.281 -1.76 4.476 -3.971 4.247 -6.568 c -0.055 -2.51 -3 -4.476 -6.169 -4.76 -3.568 -0.489 -7.886 0.726 -9.09 3.489 -0.604 1.346 -0.043 3.762 1.993 3.762 c 1.192 0 1.737 -0.762 1.828 -1.46 0.067 -0.529 -0.154 -0.999 -0.28 -1.437 -0.15 -0.497 0.482 -1.46 1.164 -1.855 0.572 -0.328 1.172 -0.438 1.255 -0.458 2.053 -0.489 4.101 0.592 4.954 1.906 0.853 1.318 -0.087 3.312 -1.437 5.254 -1.35 1.942 -2.799 4.144 -2.795 6.485 0 0.892 -0.079 1.196 -0.024 1.555 0.047 0.288 1.01 0.253 1.745 0.118 z m -0.939 3.051 c -1.958 -0.107 -3.32 2.104 -2.139 3.509 1.05 1.555 4.01 1.168 4.508 -0.588 0.529 -1.37 -0.734 -2.945 -2.368 -2.921 z" style="fill:#9cc7cf"/>
</svg>
