<svg width="281.25" xmlns="http://www.w3.org/2000/svg" height="32" viewBox="0 0 225 32" xmlns:xlink="http://www.w3.org/1999/xlink">
<g style="fill:#888;fill-opacity:.078">
<path d="M 19.902344 7.769531 C 19.902344 9.871094 18.207031 11.570312 16.117188 11.570312 C 14.023438 11.570312 12.328125 9.871094 12.328125 7.769531 C 12.328125 5.671875 14.023438 3.96875 16.117188 3.96875 C 18.207031 3.96875 19.902344 5.671875 19.902344 7.769531 Z "/>
<path d="M 19.902344 24.230469 C 19.902344 26.328125 18.207031 28.027344 16.117188 28.027344 C 14.023438 28.027344 12.328125 26.328125 12.328125 24.230469 C 12.328125 22.128906 14.023438 20.429688 16.117188 20.429688 C 18.207031 20.429688 19.902344 22.128906 19.902344 24.230469 Z "/>
<path d="M 25.113281 15.175781 C 23.300781 16.226562 20.984375 15.601562 19.9375 13.785156 C 18.890625 11.96875 19.511719 9.644531 21.324219 8.59375 C 23.136719 7.542969 25.453125 8.167969 26.496094 9.984375 C 27.542969 11.804688 26.921875 14.128906 25.113281 15.175781 Z "/>
<path d="M 10.90625 23.40625 C 9.097656 24.457031 6.78125 23.832031 5.734375 22.015625 C 4.6875 20.195312 5.308594 17.871094 7.121094 16.824219 C 8.933594 15.773438 11.25 16.394531 12.292969 18.214844 C 13.339844 20.03125 12.71875 22.355469 10.90625 23.40625 Z "/>
<path d="M 21.324219 23.40625 C 19.511719 22.355469 18.890625 20.03125 19.9375 18.214844 C 20.984375 16.394531 23.300781 15.773438 25.113281 16.824219 C 26.921875 17.871094 27.542969 20.195312 26.5 22.015625 C 25.453125 23.832031 23.136719 24.457031 21.324219 23.40625 Z "/>
<path d="M 7.121094 15.175781 C 5.308594 14.128906 4.6875 11.804688 5.734375 9.984375 C 6.78125 8.167969 9.097656 7.542969 10.90625 8.59375 C 12.71875 9.644531 13.339844 11.96875 12.292969 13.785156 C 11.25 15.605469 8.933594 16.226562 7.121094 15.175781 Z "/>
</g>
<path style="fill:#959595;fill-opacity:.784" d="M 52.03125 7.769531 C 52.03125 9.871094 50.335938 11.570312 48.242188 11.570312 C 46.152344 11.570312 44.457031 9.871094 44.457031 7.769531 C 44.457031 5.671875 46.152344 3.96875 48.242188 3.96875 C 50.335938 3.96875 52.03125 5.671875 52.03125 7.769531 Z "/>
<g style="fill:#888;fill-opacity:.078">
<path d="M 52.03125 24.230469 C 52.03125 26.328125 50.335938 28.03125 48.242188 28.03125 C 46.152344 28.03125 44.457031 26.328125 44.457031 24.230469 C 44.457031 22.128906 46.152344 20.429688 48.242188 20.429688 C 50.335938 20.429688 52.03125 22.128906 52.03125 24.230469 Z "/>
<path d="M 57.238281 15.175781 C 55.429688 16.226562 53.113281 15.605469 52.066406 13.785156 C 51.019531 11.96875 51.640625 9.644531 53.453125 8.59375 C 55.265625 7.542969 57.582031 8.167969 58.625 9.984375 C 59.671875 11.804688 59.050781 14.128906 57.238281 15.175781 Z "/>
<path d="M 43.035156 23.40625 C 41.222656 24.457031 38.90625 23.832031 37.863281 22.015625 C 36.816406 20.195312 37.4375 17.871094 39.25 16.824219 C 41.058594 15.773438 43.375 16.394531 44.421875 18.214844 C 45.46875 20.03125 44.847656 22.355469 43.035156 23.40625 Z "/>
<path d="M 53.453125 23.40625 C 51.640625 22.355469 51.019531 20.03125 52.066406 18.214844 C 53.113281 16.394531 55.429688 15.773438 57.238281 16.824219 C 59.050781 17.871094 59.671875 20.195312 58.625 22.015625 C 57.578125 23.832031 55.261719 24.457031 53.453125 23.40625 Z "/>
</g>
<g style="fill:#959595;fill-opacity:.392">
<path d="M 39.25 15.175781 C 37.4375 14.128906 36.816406 11.804688 37.863281 9.984375 C 38.90625 8.167969 41.222656 7.542969 43.035156 8.59375 C 44.847656 9.644531 45.46875 11.96875 44.421875 13.785156 C 43.375 15.605469 41.058594 16.226562 39.25 15.175781 Z "/>
<path d="M 84.160156 7.769531 C 84.160156 9.871094 82.464844 11.570312 80.371094 11.570312 C 78.28125 11.570312 76.585938 9.871094 76.585938 7.769531 C 76.585938 5.671875 78.28125 3.96875 80.371094 3.96875 C 82.464844 3.96875 84.160156 5.671875 84.160156 7.769531 Z "/>
</g>
<path style="fill:#888;fill-opacity:.078" d="M 84.160156 24.230469 C 84.160156 26.328125 82.464844 28.03125 80.371094 28.03125 C 78.28125 28.03125 76.585938 26.328125 76.585938 24.230469 C 76.585938 22.128906 78.28125 20.429688 80.371094 20.429688 C 82.464844 20.429688 84.160156 22.128906 84.160156 24.230469 Z "/>
<path style="fill:#959595;fill-opacity:.784" d="M 89.367188 15.175781 C 87.554688 16.226562 85.238281 15.605469 84.195312 13.785156 C 83.148438 11.96875 83.769531 9.644531 85.582031 8.59375 C 87.390625 7.542969 89.707031 8.167969 90.753906 9.984375 C 91.800781 11.804688 91.179688 14.128906 89.367188 15.175781 Z "/>
<g style="fill:#888;fill-opacity:.078">
<path d="M 75.164062 23.40625 C 73.351562 24.457031 71.035156 23.832031 69.988281 22.015625 C 68.945312 20.195312 69.566406 17.871094 71.375 16.824219 C 73.1875 15.773438 75.503906 16.394531 76.550781 18.214844 C 77.597656 20.03125 76.976562 22.355469 75.164062 23.40625 Z "/>
<path d="M 85.578125 23.40625 C 83.769531 22.355469 83.148438 20.03125 84.195312 18.214844 C 85.238281 16.394531 87.554688 15.773438 89.367188 16.824219 C 91.179688 17.871094 91.800781 20.195312 90.753906 22.015625 C 89.707031 23.832031 87.390625 24.457031 85.578125 23.40625 Z "/>
<path d="M 71.375 15.175781 C 69.566406 14.128906 68.945312 11.804688 69.988281 9.984375 C 71.035156 8.167969 73.351562 7.542969 75.164062 8.59375 C 76.976562 9.644531 77.597656 11.96875 76.550781 13.785156 C 75.503906 15.605469 73.1875 16.226562 71.375 15.175781 Z "/>
<path d="M 116.289062 7.769531 C 116.289062 9.871094 114.589844 11.570312 112.5 11.570312 C 110.40625 11.570312 108.710938 9.871094 108.710938 7.769531 C 108.710938 5.671875 110.40625 3.96875 112.5 3.96875 C 114.589844 3.96875 116.289062 5.671875 116.289062 7.769531 Z "/>
<path d="M 116.289062 24.230469 C 116.289062 26.328125 114.589844 28.03125 112.5 28.03125 C 110.40625 28.03125 108.710938 26.328125 108.710938 24.230469 C 108.710938 22.128906 110.40625 20.429688 112.5 20.429688 C 114.589844 20.429688 116.289062 22.128906 116.289062 24.230469 Z "/>
</g>
<path style="fill:#959595;fill-opacity:.392" d="M 121.496094 15.175781 C 119.683594 16.226562 117.367188 15.605469 116.320312 13.785156 C 115.277344 11.96875 115.898438 9.644531 117.707031 8.59375 C 119.519531 7.542969 121.835938 8.167969 122.882812 9.984375 C 123.929688 11.804688 123.308594 14.128906 121.496094 15.175781 Z "/>
<path style="fill:#888;fill-opacity:.078" d="M 107.292969 23.40625 C 105.480469 24.457031 103.164062 23.832031 102.117188 22.015625 C 101.070312 20.195312 101.691406 17.871094 103.503906 16.824219 C 105.316406 15.773438 107.632812 16.394531 108.679688 18.214844 C 109.722656 20.03125 109.101562 22.355469 107.292969 23.40625 Z "/>
<path style="fill:#959595;fill-opacity:.784" d="M 117.707031 23.40625 C 115.898438 22.355469 115.277344 20.03125 116.320312 18.214844 C 117.367188 16.394531 119.683594 15.773438 121.496094 16.824219 C 123.308594 17.871094 123.929688 20.195312 122.882812 22.015625 C 121.835938 23.832031 119.519531 24.457031 117.707031 23.40625 Z "/>
<g style="fill:#888;fill-opacity:.078">
<path d="M 103.503906 15.175781 C 101.691406 14.128906 101.070312 11.804688 102.117188 9.984375 C 103.164062 8.167969 105.480469 7.542969 107.292969 8.59375 C 109.101562 9.644531 109.722656 11.96875 108.679688 13.785156 C 107.632812 15.605469 105.316406 16.226562 103.503906 15.175781 Z "/>
<path d="M 148.414062 7.769531 C 148.414062 9.871094 146.71875 11.570312 144.628906 11.570312 C 142.535156 11.570312 140.839844 9.871094 140.839844 7.769531 C 140.839844 5.671875 142.535156 3.96875 144.628906 3.96875 C 146.71875 3.96875 148.414062 5.671875 148.414062 7.769531 Z "/>
</g>
<path style="fill:#959595;fill-opacity:.784" d="M 148.414062 24.230469 C 148.414062 26.328125 146.71875 28.03125 144.628906 28.03125 C 142.535156 28.03125 140.839844 26.328125 140.839844 24.230469 C 140.839844 22.128906 142.535156 20.429688 144.628906 20.429688 C 146.71875 20.429688 148.414062 22.128906 148.414062 24.230469 Z "/>
<g style="fill:#888;fill-opacity:.078">
<path d="M 153.625 15.175781 C 151.8125 16.226562 149.496094 15.605469 148.449219 13.785156 C 147.402344 11.96875 148.023438 9.644531 149.835938 8.59375 C 151.648438 7.542969 153.964844 8.167969 155.011719 9.984375 C 156.054688 11.804688 155.433594 14.128906 153.625 15.175781 Z "/>
<path d="M 139.421875 23.40625 C 137.609375 24.457031 135.292969 23.832031 134.246094 22.015625 C 133.199219 20.195312 133.820312 17.871094 135.632812 16.824219 C 137.445312 15.773438 139.761719 16.394531 140.804688 18.214844 C 141.851562 20.03125 141.230469 22.355469 139.421875 23.40625 Z "/>
</g>
<path style="fill:#959595;fill-opacity:.392" d="M 149.835938 23.40625 C 148.023438 22.355469 147.402344 20.03125 148.449219 18.214844 C 149.496094 16.394531 151.8125 15.773438 153.625 16.824219 C 155.433594 17.871094 156.054688 20.195312 155.011719 22.015625 C 153.964844 23.832031 151.648438 24.457031 149.835938 23.40625 Z "/>
<g style="fill:#888;fill-opacity:.078">
<path d="M 135.632812 15.175781 C 133.820312 14.128906 133.199219 11.804688 134.246094 9.984375 C 135.292969 8.167969 137.609375 7.542969 139.417969 8.59375 C 141.230469 9.644531 141.851562 11.96875 140.804688 13.785156 C 139.761719 15.605469 137.445312 16.226562 135.632812 15.175781 Z "/>
<path d="M 180.542969 7.769531 C 180.542969 9.871094 178.847656 11.570312 176.757812 11.570312 C 174.664062 11.570312 172.96875 9.871094 172.96875 7.769531 C 172.96875 5.671875 174.664062 3.96875 176.757812 3.96875 C 178.847656 3.96875 180.542969 5.671875 180.542969 7.769531 Z "/>
<path d="M 180.542969 24.230469 C 180.542969 26.328125 178.847656 28.03125 176.757812 28.03125 C 174.664062 28.03125 172.96875 26.328125 172.96875 24.230469 C 172.96875 22.128906 174.664062 20.429688 176.757812 20.429688 C 178.847656 20.429688 180.542969 22.128906 180.542969 24.230469 Z "/>
<path d="M 185.75 15.175781 C 183.941406 16.226562 181.625 15.605469 180.578125 13.785156 C 179.53125 11.96875 180.152344 9.644531 181.964844 8.59375 C 183.777344 7.542969 186.09375 8.167969 187.136719 9.984375 C 188.183594 11.804688 187.5625 14.128906 185.75 15.175781 Z "/>
</g>
<path style="fill:#959595;fill-opacity:.392" d="M 171.546875 23.40625 C 169.738281 24.457031 167.421875 23.832031 166.375 22.015625 C 165.328125 20.195312 165.949219 17.871094 167.761719 16.824219 C 169.570312 15.773438 171.886719 16.394531 172.933594 18.214844 C 173.980469 20.03125 173.359375 22.355469 171.546875 23.40625 Z "/>
<path style="fill:#888;fill-opacity:.078" d="M 181.964844 23.40625 C 180.152344 22.355469 179.53125 20.03125 180.578125 18.214844 C 181.625 16.394531 183.941406 15.773438 185.75 16.824219 C 187.5625 17.871094 188.183594 20.195312 187.136719 22.015625 C 186.09375 23.832031 183.777344 24.457031 181.964844 23.40625 Z "/>
<g style="fill:#959595;fill-opacity:.784">
<path d="M 167.761719 15.175781 C 165.949219 14.128906 165.328125 11.804688 166.375 9.984375 C 167.421875 8.167969 169.738281 7.542969 171.546875 8.59375 C 173.359375 9.644531 173.980469 11.96875 172.933594 13.785156 C 171.886719 15.605469 169.570312 16.226562 167.761719 15.175781 Z "/>
<path d="M 212.671875 7.769531 C 212.671875 9.871094 210.976562 11.570312 208.882812 11.570312 C 206.792969 11.570312 205.097656 9.871094 205.097656 7.769531 C 205.097656 5.671875 206.792969 3.96875 208.882812 3.96875 C 210.976562 3.96875 212.671875 5.671875 212.671875 7.769531 Z "/>
</g>
<g style="fill:#888;fill-opacity:.078">
<path d="M 212.671875 24.230469 C 212.671875 26.328125 210.976562 28.03125 208.882812 28.03125 C 206.792969 28.03125 205.097656 26.328125 205.097656 24.230469 C 205.097656 22.128906 206.792969 20.429688 208.882812 20.429688 C 210.976562 20.429688 212.671875 22.128906 212.671875 24.230469 Z "/>
<path d="M 217.878906 15.175781 C 216.070312 16.226562 213.753906 15.605469 212.707031 13.785156 C 211.660156 11.96875 212.28125 9.644531 214.09375 8.59375 C 215.902344 7.542969 218.21875 8.167969 219.265625 9.984375 C 220.3125 11.804688 219.691406 14.128906 217.878906 15.175781 Z "/>
<path d="M 203.675781 23.40625 C 201.863281 24.457031 199.546875 23.832031 198.503906 22.015625 C 197.457031 20.195312 198.078125 17.871094 199.886719 16.824219 C 201.699219 15.773438 204.015625 16.394531 205.0625 18.214844 C 206.109375 20.03125 205.488281 22.355469 203.675781 23.40625 Z "/>
<path d="M 214.09375 23.40625 C 212.28125 22.355469 211.660156 20.03125 212.707031 18.214844 C 213.75 16.394531 216.066406 15.773438 217.878906 16.824219 C 219.691406 17.871094 220.3125 20.195312 219.265625 22.015625 C 218.21875 23.832031 215.902344 24.457031 214.09375 23.40625 Z "/>
</g>
<path style="fill:#959595;fill-opacity:.392" d="M 199.886719 15.175781 C 198.078125 14.128906 197.457031 11.804688 198.503906 9.984375 C 199.546875 8.167969 201.863281 7.542969 203.675781 8.59375 C 205.488281 9.644531 206.109375 11.96875 205.0625 13.785156 C 204.015625 15.605469 201.699219 16.226562 199.886719 15.175781 Z "/>
</svg>
