<svg xmlns="http://www.w3.org/2000/svg" viewBox="0 0 22 22">
 <path d="m 4 0 c -0.473 0 -1 0.527 -1 1 l 0 20 c 0 0.445 0.555 1 1 1 l 14 0 c 0.445 0 0.992 -0.555 1 -1 l 0 -15 -6 -6" style="fill:#55649b;fill-opacity:1"/>
 <path d="m 14 6 5 5 0 -5" style="fill:#000;fill-opacity:0.196"/>
 <path d="m 13 0 6 6 -5 0 c -0.445 0 -1 -0.555 -1 -1 z" style="fill:#fff;fill-opacity:0.392"/>
 <g transform="matrix(0.88426256,0,0,0.82508313,-16.142857,-11.791604)" style="fill:#f9f9f9;fill-opacity:1;stroke:none">
  <path d="m 29.565 33.683 -2.262 0 0 -1.212 3.393 0 c 1.131 0 1.131 -1.212 1.131 -1.212 0 0 0 -1.212 -1.131 -1.212 l -2.262 0 c -1.131 0 -1.131 -1.212 -1.131 -1.212 l 0 -2.424 c 0 0 0 -1.212 1.131 -1.212 l 1.131 0 0 -1.212 1.131 0 0 1.208 2.262 0.004 0 1.212 -3.393 0 c -1.131 0 -1.131 1.212 -1.131 1.212 0 0 -0.018 1.217 1.131 1.212 l 2.262 0 c 0 0 1.131 0 1.131 1.212 0 1.068 0 1.356 0 2.424 0 1.212 -1.131 1.212 -1.131 1.212 l -1.131 0 0 1.212 -1.131 0 z"/>
 </g>
</svg>
