<svg xmlns="http://www.w3.org/2000/svg" viewBox="0 0 22 22">
 <path d="m 4 0 c -0.473 0 -1 0.527 -1 1 l 0 20 c 0 0.445 0.555 1 1 1 l 14 0 c 0.445 0 0.992 -0.555 1 -1 l 0 -15 -6 -6 z" style="fill:#a6a6a6;fill-opacity:1"/>
 <path d="m 14 6 5 5 0 -5 z" style="fill:#000;fill-opacity:0.196"/>
 <path d="m 13 0 6 6 -5 0 c -0.445 0 -1 -0.555 -1 -1 z" style="fill:#fff;fill-opacity:0.392"/>
 <path d="m 10.999 8 c -2.754 0 -4.999 2.239 -4.999 5 0 2.761 2.246 5 4.999 5 2.755 0 5 -2.239 5 -5 0 -2.761 -2.246 -5 -5 -5 m 0 0.631 c 2.428 0 4.383 1.956 4.383 4.369 0 2.412 -1.954 4.369 -4.383 4.369 -2.426 0 -4.381 -1.956 -4.381 -4.369 0 -2.412 1.955 -4.369 4.381 -4.369 z m 0.142 0.623 c -0.353 0 -0.706 0.135 -0.976 0.405 l -2.51 2.508 c -0.541 0.54 -0.541 1.409 0 1.949 0.541 0.54 1.411 0.54 1.952 0 l 2.509 -2.508 c 0.541 -0.54 0.541 -1.409 0 -1.949 -0.27 -0.27 -0.622 -0.405 -0.975 -0.405 z m 0 0.197 c 0.303 0 0.606 0.115 0.837 0.346 0.463 0.462 0.463 1.211 0 1.673 -0.464 0.462 -1.213 0.462 -1.674 0 -0.462 -0.461 -0.462 -1.21 0 -1.673 0.231 -0.231 0.534 -0.346 0.837 -0.346 z m 2.231 2.029 c -0.353 0 -0.706 0.135 -0.976 0.405 l -2.511 2.508 c -0.541 0.54 -0.541 1.409 0 1.949 0.541 0.54 1.412 0.54 1.953 0 l 2.51 -2.507 c 0.541 -0.54 0.541 -1.41 0 -1.95 -0.27 -0.27 -0.623 -0.405 -0.976 -0.405 z m 0 0.199 c 0.303 0 0.606 0.115 0.838 0.346 0.462 0.465 0.462 1.21 0 1.672 -0.463 0.461 -1.212 0.461 -1.674 0 -0.462 -0.465 -0.462 -1.21 0 -1.672 0.231 -0.23 0.533 -0.346 0.836 -0.346 z m -4.741 0.279 c 0.303 0 0.605 0.115 0.837 0.346 0.462 0.461 0.462 1.209 0 1.672 -0.465 0.462 -1.213 0.462 -1.673 0 -0.463 -0.462 -0.463 -1.21 0 -1.672 0.231 -0.231 0.533 -0.346 0.836 -0.346 z m 2.231 2.227 c 0.302 0 0.604 0.115 0.835 0.346 0.463 0.462 0.463 1.21 0 1.672 -0.462 0.465 -1.21 0.465 -1.671 0 -0.463 -0.461 -0.463 -1.209 0 -1.672 0.231 -0.231 0.534 -0.346 0.836 -0.346 z" style="fill:#fff;fill-opacity:1;stroke:none;fill-rule:nonzero"/>
</svg>
