<svg xmlns="http://www.w3.org/2000/svg" viewBox="0 0 22 22">
 <path d="m 4 0 c -0.473 0 -1 0.527 -1 1 l 0 20 c 0 0.445 0.555 1 1 1 l 14 0 c 0.445 0 0.992 -0.555 1 -1 l 0 -15 -6 -6 z" style="fill:#4cb4e0;fill-opacity:1"/>
 <path d="m 14 6 5 5 0 -5 z" style="fill:#000;fill-opacity:0.196"/>
 <path d="m 13 0 6 6 -5 0 c -0.445 0 -1 -0.555 -1 -1 z" style="fill:#fff;fill-opacity:0.392"/>
 <path d="m 12.203 15.996 c -0.257 -0.034 0.045 -0.293 0.131 -0.344 0.164 -0.098 0.298 -0.211 0.401 -0.396 0.163 -0.298 0.236 -0.692 0.305 -1.034 0.046 -0.232 0.091 -0.367 -0.032 -0.564 -0.122 -0.196 0.086 -0.357 -0.043 -0.564 -0.217 -0.347 -0.308 -0.806 -0.523 -1.149 -0.061 -0.097 -0.039 -0.188 -0.126 -0.198 -0.042 -0.005 -0.151 0.096 -0.187 0.125 -0.106 0.086 -0.236 0.126 -0.34 0.209 -0.053 0.042 -0.153 0.011 -0.196 0.052 -0.125 0.117 -0.096 0.482 -0.083 0.669 0.019 0.266 0.197 0.349 0.197 0.605 0 0.309 -0.046 0.52 0.035 0.836 0.046 0.182 0.163 0.388 0.182 0.574 0.016 0.146 -0.007 0.143 -0.043 0.281 -0.042 0.165 -0.061 0.313 -0.192 0.387 -0.075 0.042 -0.417 0.059 -0.46 -0.042 -0.083 -0.198 0.234 -0.266 0.287 -0.387 0.116 -0.26 -0.123 -0.933 -0.228 -1.159 -0.058 -0.122 -0.16 -0.221 -0.201 -0.344 -0.056 -0.166 0.057 -0.28 0.039 -0.407 -0.035 -0.248 -0.122 -0.512 -0.187 -0.752 -0.153 -0.556 -0.364 0.289 -0.453 0.502 -0.036 0.083 -0.061 0.175 -0.096 0.261 -0.042 0.101 0.051 0.188 0.025 0.313 -0.023 0.117 -0.137 0.183 -0.2 0.271 -0.096 0.135 -0.162 0.305 -0.214 0.47 -0.107 0.344 -0.145 0.945 -0.344 1.221 -0.028 0.04 -0.108 0.018 -0.139 0.053 -0.069 0.081 0.018 0.17 -0.118 0.225 -0.104 0.042 -0.367 0.087 -0.466 0.015 -0.189 -0.137 0.047 -0.307 0.165 -0.449 0.166 -0.198 0.359 -0.38 0.488 -0.616 0.171 -0.31 0.206 -0.66 0.24 -1.018 0.016 -0.173 -0.14 -0.259 -0.005 -0.465 0.043 -0.066 0.175 -0.057 0.175 -0.125 0 -0.216 0.005 -0.433 0 -0.647 c -0.006 -0.261 -0.005 -0.691 -0.214 -0.856 -0.277 -0.222 -0.628 -0.28 -0.893 -0.517 -0.263 -0.237 -0.504 -0.452 -0.663 -0.83 -0.082 -0.198 -0.125 -0.392 -0.192 -0.595 -0.048 -0.15 -0.035 -0.1 -0.113 -0.188 -0.046 -0.052 -0.115 -0.088 -0.166 -0.146 -0.134 -0.154 -0.158 -0.305 -0.383 -0.241 c -0.089 0.026 -0.237 0.227 -0.287 0.105 -0.033 -0.078 -0.013 -0.15 0.004 -0.23 0.025 -0.119 -0.095 -0.158 -0.092 -0.271 0.005 -0.196 0.268 -0.401 0.405 -0.434 0.173 -0.042 0.362 0.048 0.545 0.005 0.147 -0.034 0.276 -0.13 0.418 -0.172 0.148 -0.045 0.282 -0.061 0.409 0.047 0.058 0.049 0.08 0.137 0.131 0.188 0.043 0.042 0.081 0.03 0.131 0.073 0.149 0.129 0.161 0.319 -0.096 0.261 0.108 0.536 0.634 1.978 1.22 1.232 0.274 -0.348 0.525 -0.734 0.784 -1.096 0.228 -0.319 0.361 -0.679 0.749 -0.617 0.383 0.061 0.645 0.376 0.942 0.637 0.242 0.214 0.527 0.261 0.784 0.439 0.273 0.188 0.516 0.505 0.609 0.867 0.136 0.523 0.058 1.028 0.297 1.525 0.144 0.301 0.349 0.512 0.532 0.762 0.098 0.135 0.163 0.32 0.131 0.501 -0.022 0.125 -0.096 0.148 -0.096 0.293 0 0.254 0.019 0.505 0.009 0.758 -0.008 0.226 -0.023 0.447 -0.049 0.67 -0.023 0.193 -0.09 0.247 -0.143 0.39 -0.078 0.211 -0.065 0.303 -0.253 0.386 -0.106 0.047 -0.287 0.141 -0.401 0.136 -0.163 -0.009 -0.186 -0.17 -0.061 -0.344 0.081 -0.114 0.223 -0.15 0.314 -0.272 0.264 -0.354 0.378 -1.42 0.157 -1.796 -0.092 -0.156 -0.2 -0.158 -0.208 -0.396 -0.008 -0.213 0.048 -0.288 -0.114 -0.481 -0.512 -0.313 -0.549 -0.536 -0.715 -0.429 -0.202 0.131 -0.043 0.869 0 1.076 0.078 0.371 0.384 0.545 0.183 0.92 -0.144 0.267 -0.212 0.544 -0.309 0.856 -0.088 0.281 -0.081 0.684 -0.222 0.918 -0.027 0.045 -0.071 0.071 -0.096 0.115 -0.019 0.033 -0.047 0.127 -0.061 0.146 -0.059 0.082 -0.072 0.103 -0.166 0.146 -0.168 0.077 -0.375 0.052 -0.557 0.052" style="fill:#fff;fill-rule:evenodd"/>
</svg>
