<svg xmlns="http://www.w3.org/2000/svg" viewBox="0 0 22 22">
 <path d="m 3.913 3 c -0.455 0 -0.913 0.458 -0.913 0.913 l 0 14.197 c 0 0.432 0.458 0.89 0.89 0.89 l 14.22 0 c 0.432 0 0.89 -0.458 0.89 -0.89 l 0 -14.22 c 0 -0.432 -0.458 -0.89 -0.89 -0.89 z" style="fill:#eee"/>
 <path d="m 10.691 5.551 c -0.918 0.293 -0.113 1.66 -1.43 2.328 c -1.5 0.766 -2.246 -1.164 -3.148 0.215 c -0.902 1.379 1.242 1.164 1.184 2.785 c -0.063 1.625 -2.188 1.281 -1.391 2.711 c 0.801 1.434 1.684 -0.445 3.125 0.41 c 1.445 0.859 0.066 2.445 1.766 2.5 c 1.699 0.051 0.438 -1.613 1.941 -2.379 c 1.5 -0.766 2.246 1.164 3.148 -0.215 c 0.902 -1.379 -1.242 -1.164 -1.184 -2.785 c 0.063 -1.625 2.188 -1.281 1.391 -2.711 c -0.801 -1.434 -1.684 0.445 -3.125 -0.41 c -1.445 -0.859 -0.066 -2.445 -1.766 -2.5 c -0.211 -0.004 -0.383 0.008 -0.512 0.051 m 0.016 4.129 c 0.758 -0.152 1.504 0.313 1.664 1.039 c 0.164 0.73 -0.32 1.445 -1.078 1.602 c -0.758 0.152 -1.504 -0.313 -1.664 -1.039 c -0.164 -0.73 0.32 -1.445 1.078 -1.602 Z" style="fill:#888"/>
 <path d="m 4.11 3 c -0.295 0 -0.561 0.144 -0.761 0.348 -0.205 0.201 -0.348 0.466 -0.348 0.761 l 0 13.807 c 0 0.288 0.136 0.553 0.333 0.75 c 0.197 0.197 0.462 0.333 0.75 0.333 l 13.833 0 c 0.288 0 0.553 -0.136 0.75 -0.333 c 0.197 -0.197 0.333 -0.462 0.333 -0.75 l 0 -13.833 c 0 -0.288 -0.136 -0.553 -0.333 -0.75 -0.197 -0.197 -0.462 -0.333 -0.75 -0.333 z m -0.11 1 14 0 0 14 -14 0 z" style="fill:#aaa"/>
</svg>
