<svg xmlns="http://www.w3.org/2000/svg" viewBox="0 0 22 22">
 <path d="m 4 0 c -0.473 0 -1 0.507 -1 1 l 0 20 c 0 0.465 0.554 1 1 1 l 14 0 c 0.446 0 1 -0.535 1 -1 l 0 -15 -6 -6" style="fill:#d35f5f;fill-opacity:1"/>
 <path d="m 14.802 4.581 0.021 0.027 0.055 -0.027 z m -0.802 1.419 l 5 5 0 -5 z" style="fill:#000;fill-opacity:0.196"/>
 <path d="m 13 0 5.995 6 -4.995 0 c -0.411 0 -0.999 -0.589 -1 -1" style="fill:#de8787;fill-opacity:1"/>
 <path d="m 13.06 8.477 c 0 0.633 -0.513 1.146 -1.146 1.146 -0.633 0 -1.146 -0.513 -1.146 -1.146 0 -0.633 0.513 -1.146 1.146 -1.146 0.633 0 1.146 0.513 1.146 1.146 z" style="fill:#f2f2f2;fill-opacity:1;stroke:none;fill-rule:nonzero"/>
 <path d="m 10.675 11.225 c 0 0.633 -0.513 1.146 -1.146 1.146 -0.633 0 -1.146 -0.513 -1.146 -1.146 0 -0.633 0.513 -1.146 1.146 -1.146 0.633 0 1.146 0.513 1.146 1.146 z" style="fill:#f2f2f2;fill-opacity:1;stroke:none;fill-rule:nonzero"/>
 <path d="m 8.333 13.973 c 0 0.633 -0.513 1.146 -1.146 1.146 -0.633 0 -1.146 -0.513 -1.146 -1.146 0 -0.633 0.513 -1.146 1.146 -1.146 0.633 0 1.146 0.513 1.146 1.146 z" style="fill:#f2f2f2;fill-opacity:1;stroke:none;fill-rule:nonzero"/>
 <path d="m 12.08 13.973 c 0 0.633 -0.513 1.146 -1.146 1.146 -0.633 0 -1.146 -0.513 -1.146 -1.146 0 -0.633 0.513 -1.146 1.146 -1.146 0.633 0 1.146 0.513 1.146 1.146 z" style="fill:#f2f2f2;fill-opacity:1;stroke:none;fill-rule:nonzero"/>
 <path d="m 14.57 11.225 c 0 0.633 -0.513 1.146 -1.146 1.146 -0.633 0 -1.146 -0.513 -1.146 -1.146 0 -0.633 0.513 -1.146 1.146 -1.146 0.633 0 1.146 0.513 1.146 1.146 z" style="fill:#f2f2f2;fill-opacity:1;stroke:none;fill-rule:nonzero"/>
 <path d="m 15.835 13.973 c 0 0.633 -0.513 1.146 -1.146 1.146 -0.633 0 -1.146 -0.513 -1.146 -1.146 0 -0.633 0.513 -1.146 1.146 -1.146 0.633 0 1.146 0.513 1.146 1.146 z" style="fill:#f2f2f2;fill-opacity:1;stroke:none;fill-rule:nonzero"/>
 <path d="m 16.918 16.72 c 0 0.633 -0.513 1.146 -1.146 1.146 -0.633 0 -1.146 -0.513 -1.146 -1.146 0 -0.633 0.513 -1.146 1.146 -1.146 0.633 0 1.146 0.513 1.146 1.146 z" style="fill:#f2f2f2;fill-opacity:1;stroke:none;fill-rule:nonzero"/>
 <path d="m 13.453 16.72 c 0 0.633 -0.513 1.146 -1.146 1.146 -0.633 0 -1.146 -0.513 -1.146 -1.146 0 -0.633 0.513 -1.146 1.146 -1.146 0.633 0 1.146 0.513 1.146 1.146 z" style="fill:#f2f2f2;fill-opacity:1;stroke:none;fill-rule:nonzero"/>
 <path d="m 9.989 16.72 c 0 0.633 -0.513 1.146 -1.146 1.146 -0.633 0 -1.146 -0.513 -1.146 -1.146 0 -0.633 0.513 -1.146 1.146 -1.146 0.633 0 1.146 0.513 1.146 1.146 z" style="fill:#f2f2f2;fill-opacity:1;stroke:none;fill-rule:nonzero"/>
</svg>
