<svg xmlns="http://www.w3.org/2000/svg" viewBox="0 0 22 22">
 <path d="m 4 0 c -0.473 0 -1 0.527 -1 1 l 0 20 c 0 0.445 0.555 1 1 1 l 14 0 c 0.445 0 0.992 -0.555 1 -1 l 0 -15 -6 -6 z" style="fill:#00853d;fill-opacity:1"/>
 <path d="m 14 6 5 5 0 -5 z" style="fill:#000;fill-opacity:0.196"/>
 <path d="m 13 0 6 6 -5 0 c -0.445 0 -1 -0.555 -1 -1 z" style="fill:#fff;fill-opacity:0.392"/>
 <path d="m 13.628 17.827 -2.027 0 c -0.623 0 -1.225 0.014 -1.812 -0.215 c -0.48 -0.186 -0.931 -0.473 -1.289 -0.845 -1.189 -1.24 -1.339 -3.21 -0.272 -4.578 c 0.659 -0.838 1.668 -1.369 2.735 -1.369 0.294 0 0.902 -0.05 1.031 0.294 0.057 0.179 -0.072 0.38 -0.258 0.408 -0.165 0.036 -0.365 -0.057 -0.537 -0.057 -0.516 -0.007 -0.974 0.064 -1.446 0.279 -1.74 0.788 -2.177 3.339 -0.752 4.636 0.365 0.33 0.788 0.588 1.267 0.716 0.43 0.107 0.866 0.086 1.303 0.086 l 2.635 0 c 0.107 0 0.272 0.029 0.372 -0.007 0.079 -0.029 0.15 -0.115 0.208 -0.172 0.143 -0.143 0.358 -0.301 0.437 -0.494 l -3.301 0 c -0.401 0 -0.823 0.036 -1.217 -0.021 c -0.465 -0.065 -0.881 -0.279 -1.225 -0.602 -0.179 -0.165 -0.322 -0.373 -0.43 -0.595 -0.659 -1.311 0.186 -2.88 1.618 -3.131 c 0.243 -0.043 0.516 -0.036 0.759 0.014 0.243 0.05 0.544 0.136 0.738 0.301 0.136 0.122 0.15 0.315 0.036 0.451 -0.179 0.193 -0.351 0.079 -0.537 -0.007 -0.15 -0.064 -0.308 -0.115 -0.465 -0.129 -0.687 -0.086 -1.353 0.301 -1.626 0.939 -0.337 0.802 0.093 1.77 0.917 2.049 0.394 0.143 0.845 0.086 1.26 0.086 l 3.452 0 c 0.136 0 0.365 0.043 0.487 -0.007 0.05 -0.022 0.072 -0.093 0.1 -0.136 l 0.208 -0.401 c 0.243 -0.559 0.408 -1.125 0.473 -1.734 0.265 -2.529 -1.275 -4.937 -3.659 -5.782 -1.869 -0.666 -4.04 -0.208 -5.5 1.118 -0.68 0.616 -1.174 1.39 -1.489 2.25 c -0.43 1.139 -0.43 2.544 0 3.683 0.1 0.258 0.201 0.523 0.344 0.767 0.036 0.057 0.079 0.208 0.15 0.236 0.165 0.057 0.029 -0.294 0.014 -0.344 -0.107 -0.43 -0.143 -0.86 -0.143 -1.304 0 -1.899 1.282 -3.633 2.993 -4.356 0.516 -0.215 1.11 -0.351 1.668 -0.351 0.079 0 0.172 -0.014 0.243 0.014 0.179 0.057 0.286 0.265 0.201 0.437 -0.122 0.229 -0.358 0.172 -0.573 0.193 -0.458 0.043 -0.902 0.136 -1.332 0.315 -1.225 0.516 -2.184 1.634 -2.463 2.945 -0.394 1.856 0.494 3.805 2.206 4.664 0.723 0.358 1.518 0.473 2.313 0.416 0.559 -0.036 1.117 -0.172 1.64 -0.38 0.165 -0.064 0.43 -0.143 0.544 -0.279 z" style="fill:#fff"/>
</svg>
