<svg xmlns="http://www.w3.org/2000/svg" viewBox="0 0 22 22">
 <path d="m 4 0 c -0.473 0 -1 0.527 -1 1 l 0 20 c 0 0.445 0.555 1 1 1 l 14 0 c 0.445 0 0.992 -0.555 1 -1 l 0 -15 -6 -6 z" style="fill:#2f238f;fill-opacity:1"/>
 <path d="m 14 6 5 5 0 -5 z" style="fill:#000;fill-opacity:0.196"/>
 <path d="m 11 8 c -2.755 0 -5 2.25 -5 5 0 2.753 2.245 4.997 5 4.997 2.755 0 5 -2.244 5 -4.997 0 -2.753 -2.245 -5 -5 -5 z m 0 1.254 c 2.081 0 3.751 1.67 3.751 3.749 0 2.074 -1.671 3.749 -3.751 3.749 -2.081 0 -3.751 -1.675 -3.751 -3.749 0 -2.08 1.671 -3.749 3.751 -3.749 z m -1 1.392 l 0 4.781 3.503 -2.424 z" style="fill:#fff"/>
 <path d="m 13 0 6 6 -5 0 c -0.445 0 -1 -0.555 -1 -1 z" style="fill:#fff;fill-opacity:0.392"/>
</svg>
