<svg xmlns="http://www.w3.org/2000/svg" viewBox="0 0 22 22">
 <path d="m 4 0 c -0.473 0 -1 0.527 -1 1 l 0 20 c 0 0.445 0.555 1 1 1 l 14 0 c 0.445 0 0.992 -0.555 1 -1 l 0 -15 -6 -6 z" style="fill:#1f244f;fill-opacity:1"/>
 <path d="m 14 6 5 5 0 -5 z" style="fill:#000;fill-opacity:0.196"/>
 <path d="m 13 0 6 6 -5 0 c -0.445 0 -1 -0.555 -1 -1 z" style="fill:#fff;fill-opacity:0.392"/>
 <g transform="matrix(1.5293428,0,0,1.4624341,-0.82346027,-0.54920917)" style="fill:#fff">
  <path d="m 6 8 c 0 3.333 0 6.667 0 10 l 4 0 0 -2 -2 0 0 -6 2 0 0 -2 c -1.333 0 -2.667 0 -4 0" transform="matrix(0.65387564,0,0,0.6837915,0.53844061,0.37554456)" style="fill:#e6e6e6;fill-opacity:1"/>
  <path d="m 8.385 5.846 2.616 0 0 1.368 -1.308 0 0 1.368 1.308 0 0 4.103 -2.616 0 0 -1.368 1.308 0 0 -1.368 -1.308 0 z" style="fill:#e6e6e6;fill-opacity:1"/>
 </g>
</svg>
