<svg xmlns="http://www.w3.org/2000/svg" viewBox="0 0 22 22">
 <path d="m 4 0 c -0.473 0 -1 0.527 -1 1 l 0 20 c 0 0.445 0.555 1 1 1 l 14 0 c 0.445 0 0.992 -0.555 1 -1 l 0 -15 -6 -6 z" style="fill:#dcdcdc"/>
 <path d="m 14 6 5 5 0 -5 z" style="fill:#000;fill-opacity:0.196"/>
 <path d="m 13 0 6 6 -5 0 c -0.445 0 -1 -0.555 -1 -1 z" style="fill:#fff;fill-opacity:0.392"/>
 <path d="m 14.12 9.929 c 0.55 0.177 0.063 0.992 0.859 1.387 0.905 0.461 1.351 -0.691 1.895 0.13 0.544 0.821 -0.75 0.691 -0.71 1.659 0.034 0.968 1.317 0.762 0.836 1.612 -0.481 0.856 -1.013 -0.266 -1.884 0.248 -0.87 0.508 -0.04 1.452 -1.065 1.488 -1.019 0.03 -0.263 -0.962 -1.168 -1.417 -0.905 -0.455 -1.351 0.691 -1.895 -0.13 -0.544 -0.821 0.75 -0.691 0.71 -1.659 -0.034 -0.968 -1.317 -0.762 -0.836 -1.612 0.481 -0.856 1.013 0.266 1.884 -0.248 0.87 -0.508 0.04 -1.452 1.065 -1.482 0.126 -0.006 0.229 0 0.309 0.024 z m -0.011 2.462 c -0.458 -0.094 -0.91 0.183 -1 0.62 -0.097 0.431 0.189 0.856 0.647 0.951 0.458 0.094 0.91 -0.183 1 -0.62 0.097 -0.431 -0.189 -0.856 -0.647 -0.951 z" style="fill:#888"/>
 <path d="m 9.723 5.903 c 0.55 0.171 0.063 0.986 0.859 1.387 0.905 0.455 1.351 -0.697 1.895 0.124 0.544 0.821 -0.75 0.697 -0.71 1.659 0.034 0.968 1.317 0.762 0.836 1.618 -0.481 0.85 -1.013 -0.266 -1.884 0.242 -0.87 0.508 -0.04 1.458 -1.065 1.488 c -1.019 0.03 -0.263 -0.962 -1.168 -1.417 -0.905 -0.455 -1.351 0.697 -1.895 -0.124 -0.544 -0.821 0.75 -0.697 0.71 -1.665 -0.034 -0.962 -1.317 -0.756 -0.836 -1.612 0.481 -0.85 1.013 0.266 1.884 -0.242 0.87 -0.514 0.04 -1.458 1.065 -1.488 c 0.126 -0.006 0.229 0 0.309 0.03 z m -0.011 2.456 c -0.458 -0.089 -0.91 0.189 -1 0.62 -0.097 0.437 0.189 0.862 0.647 0.951 0.458 0.094 0.91 -0.183 1 -0.614 0.097 -0.437 -0.189 -0.862 -0.647 -0.956 z" style="fill:#888"/>
 <path d="m 8.258 11.441 c 0.55 0.177 0.063 0.992 0.859 1.387 0.905 0.461 1.351 -0.691 1.895 0.13 0.544 0.821 -0.75 0.691 -0.71 1.659 0.034 0.968 1.317 0.762 0.836 1.612 -0.481 0.856 -1.013 -0.266 -1.884 0.248 -0.87 0.508 -0.04 1.452 -1.065 1.488 c -1.019 0.03 -0.263 -0.962 -1.168 -1.417 -0.905 -0.455 -1.351 0.691 -1.895 -0.13 -0.544 -0.821 0.75 -0.691 0.71 -1.659 -0.034 -0.968 -1.317 -0.762 -0.836 -1.612 c 0.481 -0.856 1.013 0.266 1.884 -0.248 0.87 -0.508 0.04 -1.452 1.065 -1.482 0.126 -0.006 0.229 0 0.309 0.024 z m -0.011 2.462 c -0.458 -0.094 -0.91 0.183 -1 0.62 -0.097 0.431 0.189 0.856 0.647 0.951 0.458 0.094 0.91 -0.183 1 -0.62 0.097 -0.431 -0.189 -0.856 -0.647 -0.951 z" style="fill:#888"/>
</svg>
