<svg xmlns="http://www.w3.org/2000/svg" viewBox="0 0 22 22">
 <path d="m 4 0 c -0.473 0 -1 0.527 -1 1 l 0 20 c 0 0.445 0.555 1 1 1 l 14 0 c 0.445 0 0.992 -0.555 1 -1 l 0 -15 -6 -6 z" style="fill:#9a773c;fill-opacity:1"/>
 <path d="m 15.849 7.616 c -0.045 0.023 -0.09 0.109 -0.128 0.241 c -0.113 0.35 -0.897 2.768 -5.339 2.885 -2.119 0.054 -3.02 -1.897 -3.02 -1.897 l -0.053 2.512 c 0 0 0.226 0.552 -0.226 1.143 -0.023 -0.047 -0.038 -0.086 -0.068 -0.132 c -0.166 -0.233 -0.354 -0.435 -0.558 -0.583 -0.234 -0.171 -0.483 -0.28 -0.716 -0.319 c -0.279 -0.047 -0.55 0.023 -0.762 0.179 -0.211 0.163 -0.339 0.412 -0.385 0.7 -0.045 0.249 -0.03 0.521 0.053 0.809 0.068 0.249 0.181 0.498 0.347 0.739 0.173 0.249 0.385 0.474 0.611 0.63 0.256 0.171 0.52 0.272 0.784 0.288 0.083 0.008 0.166 -0.016 0.241 -0.023 1.704 1.415 5.09 2.737 7.337 1.221 0.045 0.023 0.098 0.039 0.143 0.054 0 0.031 -0.008 0.054 0 0.07 l 0.106 -0.039 c 0.023 0.008 0.038 0.023 0.053 0.031 0.008 0 0.008 -0.008 0.015 0 l 0.038 0.039 1.01 0.373 c -0.038 0.373 0.136 0.785 0.573 0.964 0.792 0.319 1.531 0.723 1.531 0.723 -0.377 -1.337 -0.513 -2.418 -1.501 -2.325 -0.189 0.016 -0.324 0.093 -0.43 0.21 l -0.89 -0.599 -0.038 0 -0.015 -0.016 c 1.199 -1.236 1.9 -3.561 1.478 -7.613 -0.023 -0.202 -0.106 -0.303 -0.189 -0.264 z" style="fill:#fff"/>
 <path d="m 14 6 5 5 0 -5 z" style="fill:#000;fill-opacity:0.196"/>
 <path d="m 13 0 6 6 -5 0 c -0.445 0 -1 -0.555 -1 -1 z" style="fill:#fff;fill-opacity:0.392"/>
</svg>
