<svg xmlns="http://www.w3.org/2000/svg" viewBox="0 0 22 22">
 <path d="m 4 0 c -0.473 0 -1 0.527 -1 1 l 0 20 c 0 0.445 0.555 1 1 1 l 14 0 c 0.445 0 0.992 -0.555 1 -1 l 0 -15 -6 -6 z" style="fill:#2d2d2d;fill-opacity:1"/>
 <path d="m 14 6 5 5 0 -5 z" style="fill:#000;fill-opacity:0.196"/>
 <path d="m 13 0 6 6 -5 0 c -0.445 0 -1 -0.555 -1 -1 z" style="fill:#fff;fill-opacity:0.392"/>
 <path d="m 9.676 7.667 c -0.192 0.276 -0.348 1.224 0.208 1.692 0.657 0.561 0.797 1.235 0.797 2.256 0 1.436 -1.133 2.586 -0.335 3.949 c -2.226 -1.963 0.017 -4.909 -1.676 -6.102 0.67 1.795 -1.676 2.872 -1.671 4.613 -0.005 1.848 1.335 2.925 2.945 2.921 -1.147 -0.499 -1.668 -2.01 -1.609 -2.867 0.807 1.957 2.01 2.872 4.02 2.872 c -0.775 -1.084 -0.902 -1.221 -0.947 -1.911 0.004 -0.636 0.244 -0.778 0.663 -1.575 1.054 -1.771 0.572 -3.559 -0.863 -4.393 c -0.292 -0.156 -0.37 -0.199 -0.902 -0.422 -0.306 -0.153 -0.611 -0.485 -0.633 -1.032 m 3.596 2.999 c 1.063 1.457 -0.148 2.64 -0.703 3.532 -0.456 0.701 -0.017 1.861 0.46 2.802 0.042 -0.795 0.537 -1.342 0.938 -1.626 1.227 -0.989 1.266 -2.281 0.615 -3.431 -0.409 -0.631 -0.77 -0.836 -1.309 -1.276 m 0 0" style="fill:#ef9815;fill-opacity:1;stroke:none;fill-rule:nonzero"/>
</svg>
