<svg xmlns="http://www.w3.org/2000/svg" viewBox="0 0 22 22">
 <path d="m 4 0 c -0.473 0 -1 0.527 -1 1 l 0 20 c 0 0.445 0.555 1 1 1 l 14 0 c 0.445 0 0.992 -0.555 1 -1 l 0 -15 -6 -6 z" style="fill:#b2542c;fill-opacity:1"/>
 <path d="m 14 6 5 5 0 -5 z" style="fill:#000;fill-opacity:0.196"/>
 <path d="m 13 0 6 6 -5 0 c -0.445 0 -1 -0.555 -1 -1 z" style="fill:#fff;fill-opacity:0.392"/>
 <path d="m 10.989 10 c 1.285 0 2.208 0.731 2.211 2 0 1 -0.702 1.401 -1.026 1.525 0.32 0.197 0.406 0.258 0.751 1.125 0.239 0.6 0.431 0.6 1.074 0.625 l 0 0.725 -1.275 0 c -0.452 0 -0.534 -0.418 -0.783 -1.05 -0.373 -0.946 -0.748 -0.943 -1.232 -0.95 l -0.71 0 l 0 1.25 1 0 l 0 0.75 l -3 0 0 -0.75 1 0 0 -4.5 -1 0 l 0 -0.75 m 2 3 l 1 0 c 0.816 -0.011 1.1 -0.453 1.1 -1 0.001 -0.65 -0.487 -1 -1.1 -1 l -1 0 z" style="fill:#fff;fill-opacity:1;stroke:none"/>
 <path d="m 10.699 7 l -0.479 1.064 a 5 5 0 0 0 -1.018 0.27 l -0.943 -0.68 l -0.52 0.299 l 0.117 1.162 a 5 5 0 0 0 -0.742 0.742 l -1.162 -0.117 l -0.299 0.52 l 0.684 0.949 a 5 5 0 0 0 -0.27 1.012 l -1.068 0.479 l 0 0.602 l 1.064 0.479 a 5 5 0 0 0 0.27 1.018 l -0.68 0.943 l 0.299 0.52 l 1.162 -0.117 a 5 5 0 0 0 0.742 0.742 l -0.117 1.162 l 0.52 0.299 l 0.949 -0.684 a 5 5 0 0 0 1.012 0.27 l 0.479 1.068 l 0.602 0 l 0.479 -1.064 a 5 5 0 0 0 1.018 -0.27 l 0.943 0.68 l 0.52 -0.299 l -0.117 -1.162 a 5 5 0 0 0 0.742 -0.742 l 1.162 0.117 l 0.299 -0.52 l -0.684 -0.949 a 5 5 0 0 0 0.27 -1.012 l 1.068 -0.479 l 0 -0.602 l -1.064 -0.479 a 5 5 0 0 0 -0.27 -1.018 l 0.68 -0.943 l -0.299 -0.52 l -1.162 0.117 a 5 5 0 0 0 -0.742 -0.742 l 0.117 -1.162 l -0.52 -0.299 l -0.949 0.684 a 5 5 0 0 0 -1.012 -0.27 l -0.479 -1.068 l -0.602 0 z m 0.301 2 a 4 4 0 0 1 4 4 a 4 4 0 0 1 -4 4 a 4 4 0 0 1 -4 -4 a 4 4 0 0 1 4 -4 z" style="fill:#fff;opacity:1;fill-opacity:1;stroke:none"/>
</svg>
