<svg xmlns="http://www.w3.org/2000/svg" viewBox="0 0 22 22">
 <path d="m 4.1 0 c -0.473 0 -1 0.527 -1 1 l 0 20 c 0 0.445 0.555 1 1 1 l 14 0 c 0.445 0 0.992 -0.555 1 -1 l 0 -15 -6 -6 z" style="fill:#2d2d2d;fill-opacity:1"/>
 <path d="m 14.1 6 5 5 0 -5 z" style="fill:#000;fill-opacity:0.196"/>
 <g transform="matrix(1.4755036,0,0,1.3494956,-0.80403145,0.23831234)" style="fill:#dcdcdc">
  <path d="m 3.668 9.289 c 0 -0.32 0.051 -0.637 0.148 -0.949 0.102 -0.316 0.246 -0.598 0.434 -0.844 0.191 -0.246 0.426 -0.445 0.699 -0.602 0.277 -0.152 0.59 -0.227 0.941 -0.227 c 0.418 0 0.773 0.105 1.074 0.316 0.305 0.215 0.531 0.488 0.676 0.832 l -0.695 0.539 c -0.051 -0.148 -0.117 -0.273 -0.203 -0.371 -0.082 -0.102 -0.172 -0.184 -0.273 -0.242 -0.098 -0.063 -0.195 -0.102 -0.301 -0.129 -0.105 -0.027 -0.207 -0.043 -0.301 -0.043 c -0.215 0 -0.402 0.051 -0.563 0.156 -0.164 0.102 -0.297 0.238 -0.406 0.406 -0.105 0.164 -0.188 0.352 -0.242 0.563 -0.055 0.207 -0.078 0.414 -0.078 0.625 0 0.23 0.027 0.453 0.09 0.672 0.066 0.211 0.156 0.402 0.27 0.563 0.117 0.164 0.258 0.293 0.418 0.395 0.16 0.098 0.34 0.148 0.531 0.148 0.098 0 0.203 -0.016 0.309 -0.047 0.102 -0.027 0.203 -0.074 0.301 -0.141 c 0.098 -0.063 0.191 -0.145 0.273 -0.242 0.082 -0.105 0.152 -0.227 0.203 -0.371 l 0.738 0.48 c -0.07 0.199 -0.172 0.375 -0.305 0.527 -0.133 0.148 -0.285 0.273 -0.453 0.375 c -0.172 0.105 -0.348 0.184 -0.535 0.238 -0.191 0.055 -0.375 0.082 -0.559 0.082 -0.324 0 -0.621 -0.078 -0.891 -0.238 -0.266 -0.156 -0.496 -0.363 -0.691 -0.613 -0.195 -0.258 -0.344 -0.547 -0.453 -0.867 -0.105 -0.324 -0.156 -0.656 -0.156 -0.992"/>
  <path d="m 12.332 8.816 -0.949 0 -0.215 1.012 0.859 0 0 0.742 -1.016 0 -0.301 1.387 -0.707 0 0.305 -1.387 -0.785 0 -0.293 1.387 -0.707 0 0.301 -1.387 -0.734 0 0 -0.742 0.891 0 0.219 -1.012 -0.801 0 0 -0.699 0.949 0 0.309 -1.422 0.707 0 -0.316 1.422 0.789 0 0.301 -1.422 0.707 0 -0.309 1.422 0.797 0 0 0.699 m -1.863 1.012 0.207 -1.012 -0.777 0 -0.215 1.012 0.785 0"/>
 </g>
 <path d="m 13.1 0 6 6 -5 0 c -0.445 0 -1 -0.555 -1 -1 z" style="fill:#fff;fill-opacity:0.392"/>
</svg>
