<svg xmlns="http://www.w3.org/2000/svg" viewBox="0 0 22 22">
 <path d="m 4 0 c -0.473 0 -1 0.527 -1 1 l 0 20 c 0 0.445 0.555 1 1 1 l 14 0 c 0.445 0 0.992 -0.555 1 -1 l 0 -15 -6 -6 z" style="fill:#dcdcdc"/>
 <path d="m 14 6 5 5 0 -5 z" style="fill:#000;fill-opacity:0.196"/>
 <path d="m 13 0 6 6 -5 0 c -0.445 0 -1 -0.555 -1 -1 z" style="fill:#fff;fill-opacity:0.392"/>
 <g transform="matrix(1.0912094,0,0,1.0898747,-0.29393593,-1.6354746)" style="fill:#888">
  <path d="m 14.932 12.932 q 0 0.808 -0.258 1.482 -0.258 0.668 -0.73 1.049 -0.471 0.382 -1.094 0.382 -0.415 0 -0.735 -0.196 -0.32 -0.202 -0.46 -0.528 l -0.09 0 q -0.606 0.724 -1.543 0.724 -0.993 0 -1.566 -0.595 -0.572 -0.6 -0.572 -1.639 0 -1.184 0.752 -1.908 0.752 -0.724 1.964 -0.724 0.483 0 1.061 0.095 0.584 0.09 0.96 0.219 l -0.129 2.744 q 0 0.78 0.427 0.78 0.359 0 0.572 -0.522 0.213 -0.528 0.213 -1.375 0 -0.904 -0.376 -1.594 -0.376 -0.696 -1.061 -1.061 -0.679 -0.365 -1.554 -0.365 -1.134 0 -1.97 0.466 -0.836 0.466 -1.285 1.347 -0.443 0.875 -0.443 2.026 0 1.549 0.825 2.379 0.831 0.825 2.402 0.825 0.595 0 1.308 -0.129 0.713 -0.135 1.403 -0.387 l 0 1.077 q -1.201 0.511 -2.666 0.511 -2.133 0 -3.328 -1.122 -1.19 -1.122 -1.19 -3.12 0 -1.386 0.606 -2.514 0.612 -1.134 1.734 -1.773 1.128 -0.645 2.593 -0.645 1.235 0 2.205 0.505 0.971 0.505 1.498 1.437 0.528 0.932 0.528 2.149 z m -5.747 0.701 q 0 1.184 0.965 1.184 0.505 0 0.769 -0.354 0.264 -0.359 0.32 -1.162 l 0.073 -1.24 q -0.286 -0.062 -0.645 -0.062 -0.701 0 -1.094 0.438 -0.387 0.438 -0.387 1.195 z"/>
 </g>
</svg>
