<svg xmlns="http://www.w3.org/2000/svg" viewBox="0 0 22 22">
 <path d="m 4 0 c -0.473 0 -1 0.527 -1 1 l 0 20 c 0 0.445 0.555 1 1 1 l 14 0 c 0.445 0 0.992 -0.555 1 -1 l 0 -15 -6 -6 z" style="fill:#366994;fill-opacity:1"/>
 <path d="m 14 6 5 5 0 -5 z" style="fill:#000;fill-opacity:0.196"/>
 <path d="m 13 0 6 6 -5 0 c -0.445 0 -1 -0.555 -1 -1 z" style="fill:#fff;fill-opacity:0.392"/>
 <g transform="matrix(1.6368288,0,0,1.5416142,-2.0946321,-0.41614167)" style="fill:#fff">
  <path d="m 8.07 5 c -0.27 0 -0.531 0.023 -0.758 0.063 -0.672 0.117 -0.816 0.152 -0.816 0.605 l 0 1 1.668 0 0 0.332 -2.332 0 c -0.461 0 -0.762 0.281 -0.887 0.801 c -0.145 0.598 -0.152 0.973 0 1.594 0.113 0.465 0.426 0.938 0.887 0.938 l 0.332 0 0 -1 c 0 -0.516 0.465 -1 1 -1 l 1.668 0 c 0.441 0 0.668 -0.227 0.668 -0.664 l 0 -1.668 c 0 -0.426 -0.176 -0.867 -0.605 -0.938 -0.27 -0.043 -0.551 -0.063 -0.824 -0.063 z m -0.57 0.668 c 0.184 0 0.332 0.148 0.332 0.332 0 0.184 -0.148 0.332 -0.332 0.332 -0.188 0 -0.336 -0.148 -0.336 -0.332 0 -0.184 0.148 -0.332 0.336 -0.332 z"/>
  <path d="m 7.93 12 c 0.27 0 0.531 -0.023 0.758 -0.063 0.672 -0.117 0.816 -0.152 0.816 -0.605 l 0 -1 -1.668 0 0 -0.332 2.332 0 c 0.461 0 0.762 -0.281 0.887 -0.801 0.145 -0.598 0.152 -0.973 0 -1.594 -0.113 -0.465 -0.426 -0.938 -0.887 -0.938 l -0.332 0 0 1 c 0 0.516 -0.465 1 -1 1 l -1.668 0 c -0.441 0 -0.668 0.227 -0.668 0.664 l 0 1.668 c 0 0.426 0.176 0.867 0.605 0.938 c 0.27 0.043 0.551 0.063 0.824 0.063 z m 0.57 -0.668 c -0.184 0 -0.332 -0.148 -0.332 -0.332 0 -0.184 0.148 -0.332 0.332 -0.332 0.188 0 0.336 0.148 0.336 0.332 0 0.184 -0.148 0.332 -0.336 0.332 z"/>
 </g>
</svg>
