<svg xmlns="http://www.w3.org/2000/svg" viewBox="0 0 22 22">
 <path d="m 4 0 c -0.473 0 -1 0.527 -1 1 l 0 20 c 0 0.445 0.555 1 1 1 l 14 0 c 0.445 0 0.992 -0.555 1 -1 l 0 -15 -6 -6 z" style="fill:#c3b15f;fill-opacity:1"/>
 <path d="m 14 6 5 5 0 -5 z" style="fill:#000;fill-opacity:0.196"/>
 <path d="m 13 0 6 6 -5 0 c -0.445 0 -1 -0.555 -1 -1 z" style="fill:#fff;fill-opacity:0.392"/>
 <path d="m 9.561 6 c -4.124 0 -0.388 9.05 1.57 9.434 c -0.388 -6.652 -1.236 -8.746 -0.994 -8.935 c 0.242 -0.189 1.264 2.709 1.829 8.937 1.83 -0.875 3.218 -9.436 -1.281 -9.436 z m 2.406 9.436 c -0.333 0.095 -0.635 0.055 -0.836 -0.002 l 0.406 2.974 0.648 1.592 l 0 -1.3 z" style="fill:#fff;opacity:1;fill-opacity:1;stroke:none"/>
</svg>
