<svg xmlns="http://www.w3.org/2000/svg" viewBox="0 0 22 22">
 <path d="m 4 0 c -0.473 0 -1 0.527 -1 1 l 0 20 c 0 0.445 0.555 1 1 1 l 14 0 c 0.445 0 0.992 -0.555 1 -1 l 0 -15 -6 -6 z" style="fill:#0b71b9;fill-opacity:1"/>
 <path d="m 14 6 5 5 0 -5 z" style="fill:#000;fill-opacity:0.196"/>
 <path d="m 13 0 6 6 -5 0 c -0.445 0 -1 -0.555 -1 -1 z" style="fill:#fff;fill-opacity:0.392"/>
 <path d="m 7 8 0 2 l 5.903 0.019 -0.14 1.497 -3.193 0 0 1.994 3 0 -0.145 1.994 -1.429 0.503 -1.429 -0.503 0 -0.994 -1.903 0 0 2.491 3.332 1 l 3.332 -1 0.48 -8.981 z" style="fill:#fff"/>
</svg>
