<svg xmlns="http://www.w3.org/2000/svg" viewBox="0 0 22 22">
 <path d="m 4 0 c -0.473 0 -1 0.527 -1 1 l 0 20 c 0 0.445 0.555 1 1 1 l 14 0 c 0.445 0 0.992 -0.555 1 -1 l 0 -15 -6 -6 z" style="fill:#2d2d2d;fill-opacity:1"/>
 <path d="m 14 6 5 5 0 -5 z" style="fill:#000;fill-opacity:0.196"/>
 <path d="m 13 0 6 6 -5 0 c -0.445 0 -1 -0.555 -1 -1 z" style="fill:#fff;fill-opacity:0.392"/>
 <path d="m 6.188 12.751 c 0 -0.596 0.12 -1.184 0.359 -1.766 c 0.24 -0.589 0.585 -1.112 1.029 -1.569 0.458 -0.458 1.015 -0.828 1.663 -1.119 0.655 -0.283 1.402 -0.421 2.241 -0.421 c 0.986 0 1.839 0.196 2.558 0.589 0.726 0.4 1.261 0.908 1.599 1.548 l -1.649 1 c -0.127 -0.276 -0.282 -0.509 -0.479 -0.69 -0.197 -0.189 -0.416 -0.341 -0.655 -0.45 -0.233 -0.116 -0.465 -0.189 -0.719 -0.24 c -0.247 -0.051 -0.486 -0.08 -0.712 -0.08 -0.514 0 -0.958 0.094 -1.339 0.291 c -0.388 0.189 -0.712 0.443 -0.965 0.756 -0.254 0.305 -0.444 0.654 -0.578 1.046 c -0.127 0.385 -0.19 0.77 -0.19 1.163 0 0.429 0.078 0.843 0.218 1.25 0.155 0.392 0.373 0.748 0.641 1.046 0.282 0.305 0.613 0.545 0.993 0.734 0.388 0.182 0.803 0.276 1.261 0.276 0.24 0 0.486 -0.029 0.733 -0.087 0.247 -0.051 0.486 -0.138 0.719 -0.262 0.24 -0.116 0.458 -0.269 0.655 -0.45 0.197 -0.196 0.352 -0.421 0.479 -0.69 l 1.761 0.894 c -0.169 0.371 -0.416 0.698 -0.733 0.981 -0.31 0.276 -0.669 0.509 -1.078 0.698 -0.402 0.196 -0.824 0.341 -1.275 0.443 -0.444 0.102 -0.888 0.153 -1.325 0.153 -0.768 0 -1.473 -0.145 -2.114 -0.443 c -0.634 -0.291 -1.184 -0.676 -1.649 -1.141 -0.458 -0.48 -0.817 -1.017 -1.078 -1.613 -0.247 -0.603 -0.373 -1.221 -0.373 -1.846" style="fill:#dcdcdc"/>
</svg>
