<svg xmlns="http://www.w3.org/2000/svg" viewBox="0 0 22 22">
 <path d="m 4 0 c -0.473 0 -1 0.527 -1 1 l 0 20 c 0 0.445 0.555 1 1 1 l 14 0 c 0.445 0 0.992 -0.555 1 -1 l 0 -15 -6 -6 z" style="fill:#82b933;fill-opacity:1"/>
 <path d="m 14 6 5 5 0 -5 z" style="fill:#000;fill-opacity:0.196"/>
 <path d="m 13 0 6 6 -5 0 c -0.445 0 -1 -0.555 -1 -1 z" style="fill:#fff;fill-opacity:0.392"/>
 <path d="m 12.713 7 c -1.024 2.44 -2.086 4.874 -3.128 7.309 l -1.627 -2.311 -1.958 0 0 1 1.25 0 l 2.311 3.999 0.305 0 c 0.818 -2.361 1.905 -4.683 2.907 -7.01 l 0.043 0.023 c 1.227 1.991 0 0 1.227 1.991 l 1.956 0 0 -1 -1.057 0 c -1.979 -3.771 0 0 -2.08 -4 l 0.002 0.001 z" style="fill:#fff;fill-opacity:1;stroke:none;fill-rule:nonzero"/>
</svg>
