<svg xmlns="http://www.w3.org/2000/svg" viewBox="0 0 32 32">
 <path d="m 29.07 16.01 c 0 7.219 -5.852 13.07 -13.07 13.07 -7.219 0 -13.07 -5.852 -13.07 -13.07 0 -7.219 5.852 -13.07 13.07 -13.07 7.219 0 13.07 5.852 13.07 13.07 z" style="fill:#fff;stroke:#777;stroke-width:0.528"/>
 <path d="m 16.08 6.668 c -4.633 0 -8.414 3.922 -8.695 8.863 l -2.715 0 l 4.367 7.07 l 4.367 -7.07 l -3.109 0 c 0.27 -3.207 2.754 -5.711 5.785 -5.711 c 1.121 0 2.184 0.344 3.07 0.938 l 1.496 -2.684 c -1.328 -0.887 -2.895 -1.406 -4.566 -1.406 m 6.887 2.727 l -4.367 7.07 l 3.109 0 c -0.27 3.207 -2.754 5.711 -5.785 5.711 c -1.121 0 -2.184 -0.344 -3.07 -0.938 l -1.496 2.684 c 1.328 0.887 2.895 1.406 4.566 1.406 c 4.633 0 8.414 -3.922 8.695 -8.863 l 2.715 0 Z" style="fill:#dc322f;fill-opacity:1"/>
</svg>
