<svg width="32" xmlns="http://www.w3.org/2000/svg" height="32" viewBox="0 0 32 32" xmlns:xlink="http://www.w3.org/1999/xlink">
<path style="fill:#fff;stroke:#777;stroke-width:.5" d="M 25.932953 35.186401 C 25.932953 42.095309 20.446393 47.695712 13.677926 47.695712 C 6.90946 47.695712 1.4229 42.095309 1.4229 35.186401 C 1.4229 28.277492 6.90946 22.677089 13.677926 22.677089 C 20.446393 22.677089 25.932953 28.277492 25.932953 35.186401 Z " transform="matrix(1.06653 0 0 1.04485 1.41213 -20.76439)"/>
<g style="fill:#dc322f">
<path d="M 16 21.355469 L 16 23.132812 L 13.160156 25 "/>
<path d="M 16 21.355469 L 16 23.132812 L 18.839844 25 "/>
<path d="M 8.160156 22.085938 L 8.226562 10.871094 L 23.773438 10.902344 L 23.839844 22.054688 Z "/>
<path d="M 7.683594 9.914062 L 24.316406 9.914062 L 24.316406 11.945312 L 7.683594 11.945312 Z "/>
</g>
</svg>
