<svg width="32" xmlns="http://www.w3.org/2000/svg" height="32" viewBox="0 0 32 32" xmlns:xlink="http://www.w3.org/1999/xlink">
<path style="fill:#fff;stroke:#777;stroke-width:.792" d="M 43.605469 24 C 43.605469 29.132812 41.490234 34.230469 37.863281 37.863281 C 34.230469 41.490234 29.132812 43.599609 24 43.599609 C 18.867188 43.599609 13.769531 41.490234 10.136719 37.863281 C 6.509766 34.230469 4.394531 29.132812 4.394531 24 C 4.394531 18.867188 6.509766 13.763672 10.136719 10.136719 C 13.763672 6.503906 18.867188 4.394531 24 4.394531 C 29.132812 4.394531 34.236328 6.503906 37.863281 10.136719 C 41.490234 13.763672 43.605469 18.867188 43.605469 24 Z " transform="scale(.66667)"/>
<g style="fill-opacity:.941;fill:#53a93e">
<path d="M 16.089844 24.660156 C 16.53125 24.628906 16.960938 24.441406 17.273438 24.140625 L 22.757812 18.460938 C 23.109375 18.132812 23.316406 17.667969 23.332031 17.195312 C 23.363281 16.457031 22.886719 15.71875 22.1875 15.429688 C 21.484375 15.140625 20.609375 15.320312 20.085938 15.859375 L 16.003906 19.90625 L 11.722656 15.675781 C 11.003906 15.105469 9.839844 15.164062 9.1875 15.808594 C 8.535156 16.453125 8.488281 17.585938 9.085938 18.277344 L 14.601562 24.140625 C 14.988281 24.511719 15.550781 24.707031 16.089844 24.660156 Z "/>
<path d="M 16.164062 15.796875 C 17.074219 15.746094 17.839844 15.167969 17.804688 14.5625 L 17.804688 8.53125 C 17.804688 7.90625 16.945312 7.332031 16 7.332031 C 15.054688 7.332031 14.195312 7.90625 14.195312 8.53125 L 14.195312 14.5625 C 14.160156 15.203125 15.035156 15.800781 16 15.796875 C 16.054688 15.800781 16.109375 15.800781 16.164062 15.796875 Z "/>
</g>
</svg>
