<svg width="32" xmlns="http://www.w3.org/2000/svg" height="32" viewBox="0 0 32 32" xmlns:xlink="http://www.w3.org/1999/xlink">
<path style="fill:#fff;stroke:#777;stroke-width:.792" d="M 43.605469 24 C 43.605469 34.828125 34.828125 43.599609 24 43.599609 C 13.171875 43.599609 4.394531 34.828125 4.394531 24 C 4.394531 13.171875 13.171875 4.394531 24 4.394531 C 34.828125 4.394531 43.605469 13.171875 43.605469 24 Z " transform="scale(.66667)"/>
<path style="fill:#427fec;fill-rule:evenodd" d="M 16 8 C 13.742188 8 11.933594 9.785156 11.933594 12 C 11.941406 12.234375 11.957031 12.578125 11.976562 12.863281 C 11.59375 13.035156 11.5625 13.824219 11.890625 14.636719 C 12.023438 14.957031 12.1875 15.203125 12.367188 15.410156 C 12.410156 15.636719 12.398438 15.738281 12.453125 16 C 12.605469 16.476562 13.199219 17.410156 13.75 18.183594 C 13.804688 18.773438 13.859375 19.371094 13.75 20.046875 C 12.164062 21.429688 8.082031 22.023438 8.085938 23.453125 L 8 24 L 24 24 L 23.914062 23.453125 C 23.90625 22.230469 19.816406 21.476562 18.25 20.046875 C 18.183594 19.496094 18.171875 18.949219 18.207031 18.410156 C 18.707031 17.597656 19.378906 16.53125 19.546875 16 C 19.605469 15.730469 19.628906 15.550781 19.675781 15.316406 C 19.824219 15.125 19.953125 14.910156 20.066406 14.636719 C 20.375 13.867188 20.355469 13.128906 20.023438 12.910156 C 20.042969 12.597656 20.054688 12.269531 20.066406 12 C 20.066406 9.785156 18.257812 8 16 8 Z "/>
</svg>
