<svg width="32" xmlns="http://www.w3.org/2000/svg" height="32" viewBox="0 0 32 32" xmlns:xlink="http://www.w3.org/1999/xlink">
<path style="stroke-opacity:.941;fill:#53a93e;stroke:#859900;fill-opacity:.941;stroke-width:.792" d="M 43.605469 24 C 43.605469 34.828125 34.828125 43.599609 24 43.599609 C 13.171875 43.599609 4.394531 34.828125 4.394531 24 C 4.394531 13.171875 13.171875 4.394531 24 4.394531 C 34.828125 4.394531 43.605469 13.171875 43.605469 24 Z " transform="scale(.66667)"/>
<path style="fill:#fff" d="M 16.078125 6.667969 C 11.445312 6.667969 7.664062 10.589844 7.382812 15.53125 L 4.667969 15.53125 L 9.035156 22.605469 L 13.402344 15.53125 L 10.292969 15.53125 C 10.5625 12.324219 13.046875 9.820312 16.078125 9.820312 C 17.199219 9.820312 18.261719 10.164062 19.148438 10.757812 L 20.644531 8.074219 C 19.316406 7.1875 17.75 6.667969 16.078125 6.667969 Z M 22.964844 9.394531 L 18.597656 16.46875 L 21.707031 16.46875 C 21.4375 19.675781 18.953125 22.179688 15.921875 22.179688 C 14.800781 22.179688 13.738281 21.835938 12.851562 21.242188 L 11.355469 23.925781 C 12.683594 24.8125 14.25 25.332031 15.921875 25.332031 C 20.554688 25.332031 24.335938 21.410156 24.617188 16.46875 L 27.332031 16.46875 Z "/>
</svg>
