<svg xmlns="http://www.w3.org/2000/svg" viewBox="0 0 32 32">
 <path d="m 25.933 35.19 c 0 6.909 -5.487 12.509 -12.255 12.509 c -6.768 0 -12.255 -5.6 -12.255 -12.509 c 0 -6.909 5.487 -12.509 12.255 -12.509 c 6.768 0 12.255 5.6 12.255 12.509 Z" transform="matrix(1.06653 0 0 1.04485 1.41213 -20.76439)" style="fill:#fff;stroke:#777;stroke-width:0.5"/>
 <path d="m 14.785 8.105 c -0.671 0.025 -1.43 0.232 -1.878 0.77 -0.014 0.017 -0.026 0.035 -0.035 0.055 -0.149 0.317 -0.202 0.574 -0.112 0.8 0.09 0.226 0.293 0.327 0.453 0.39 0.16 0.063 0.308 0.106 0.404 0.163 0.096 0.056 0.14 0.097 0.165 0.224 0.03 0.152 0.007 0.232 -0.027 0.294 -0.035 0.062 -0.089 0.121 -0.169 0.152 -0.124 0.048 -0.339 0.048 -0.339 0.048 l -3.99 0 c -0.141 0 -0.255 0.114 -0.256 0.256 l 0 4.01 c 0 0.286 0.058 0.451 0.138 0.574 0.091 0.126 0.2 0.271 0.371 0.368 0.171 0.096 0.396 0.131 0.642 0.083 0.22 -0.043 0.394 -0.167 0.502 -0.308 0.108 -0.142 0.162 -0.292 0.207 -0.418 0.045 -0.126 0.084 -0.229 0.116 -0.278 0.031 -0.048 0.025 -0.045 0.074 -0.049 0.046 -0.003 0.167 0.026 0.324 0.093 0.345 0.303 0.551 0.92 0.572 1.481 0.007 0.209 -0.012 0.405 -0.046 0.574 l 0.003 -0.01 c -0.012 0.047 -0.01 0.053 -0.007 0.037 -0.001 0.006 -0.002 0.011 -0.003 0.017 -0.062 0.482 -0.261 0.951 -0.553 1.205 -0.202 0.083 -0.329 0.096 -0.351 0.088 -0.024 -0.009 -0.055 -0.043 -0.103 -0.164 -0.048 -0.121 -0.093 -0.297 -0.197 -0.474 -0.104 -0.177 -0.297 -0.356 -0.568 -0.408 l 0 0.001 c -0.36 -0.07 -0.667 0.052 -0.843 0.239 -0.176 0.188 -0.241 0.409 -0.274 0.564 -0.004 0.017 -0.006 0.035 -0.006 0.053 l 0 4.211 c 0 0.142 0.116 0.257 0.258 0.256 l 4.02 0 c 0.277 0 0.453 -0.061 0.579 -0.143 0.092 -0.061 0.264 -0.224 0.36 -0.395 0.096 -0.171 0.132 -0.395 0.084 -0.642 -0.053 -0.271 -0.231 -0.464 -0.408 -0.568 -0.177 -0.104 -0.354 -0.149 -0.475 -0.197 -0.121 -0.048 -0.155 -0.079 -0.165 -0.103 -0.009 -0.022 0.003 -0.148 0.089 -0.355 0.304 -0.342 0.919 -0.548 1.481 -0.568 l 0.002 0 c 0.207 -0.009 0.401 0.01 0.57 0.045 0.01 0.002 0.021 0.003 0.031 0.004 0.005 0.001 0.009 0.002 0.014 0.003 0.485 0.062 0.955 0.262 1.209 0.552 0.083 0.201 0.097 0.328 0.089 0.349 -0.009 0.024 -0.045 0.055 -0.166 0.103 -0.121 0.048 -0.297 0.094 -0.475 0.198 -0.177 0.104 -0.355 0.297 -0.408 0.568 -0.048 0.247 -0.012 0.471 0.084 0.642 0.096 0.171 0.227 0.312 0.364 0.383 0.173 0.106 0.314 0.124 0.577 0.122 l 4.03 0.002 c 0.141 0 0.255 -0.116 0.256 -0.258 l 0 -4.134 c 0 -0.16 0.021 -0.233 0.091 -0.307 0.073 -0.078 0.147 -0.128 0.368 -0.085 l 0.001 0.001 c 0.128 0.025 0.169 0.068 0.225 0.164 0.056 0.095 0.1 0.243 0.163 0.402 0.063 0.159 0.164 0.363 0.39 0.453 0.226 0.09 0.482 0.038 0.8 -0.111 0.02 -0.009 0.039 -0.021 0.056 -0.035 0.453 -0.377 0.668 -0.98 0.745 -1.559 0.001 -0.011 0.002 -0.022 0.002 -0.033 0 0.035 0.002 0.019 0.002 -0.025 l -0.006 0.055 c 0.046 -0.211 0.067 -0.447 0.059 -0.696 l 0 -0.001 c -0.025 -0.671 -0.235 -1.43 -0.77 -1.878 -0.017 -0.014 -0.036 -0.026 -0.056 -0.035 -0.318 -0.149 -0.574 -0.201 -0.8 -0.111 -0.226 0.09 -0.327 0.293 -0.39 0.453 -0.063 0.159 -0.106 0.307 -0.163 0.403 -0.056 0.096 -0.097 0.14 -0.225 0.165 -0.153 0.029 -0.233 0.006 -0.295 -0.028 -0.062 -0.035 -0.108 -0.095 -0.151 -0.169 -0.045 -0.077 -0.045 -0.337 -0.045 -0.337 l 0 -4.04 c 0 -0.141 -0.114 -0.256 -0.256 -0.256 l -4.189 0 c -0.107 0 -0.228 -0.029 -0.299 -0.099 -0.074 -0.072 -0.123 -0.147 -0.081 -0.364 0.025 -0.128 0.069 -0.169 0.165 -0.225 0.096 -0.056 0.244 -0.1 0.403 -0.163 0.159 -0.063 0.363 -0.163 0.453 -0.389 0.09 -0.226 0.038 -0.482 -0.111 -0.799 -0.009 -0.02 -0.021 -0.039 -0.035 -0.056 -0.376 -0.448 -0.972 -0.663 -1.548 -0.738 -0.01 -0.003 -0.027 -0.004 -0.044 -0.006 -0.205 -0.043 -0.429 -0.065 -0.671 -0.057 l -0.001 0 z" mix-blend-mode="normal" isolation="auto" white-space="normal" solid-opacity="1" solid-color="#000000" style="visibility:visible;shape-rendering:auto;color-interpolation-filters:linearRGB;fill:#53a93f;opacity:1;image-rendering:auto;fill-opacity:1;stroke:none;display:inline;color:#000;fill-rule:evenodd;color-rendering:auto;color-interpolation:sRGB"/>
</svg>
