<svg width="32" xmlns="http://www.w3.org/2000/svg" height="32" viewBox="0 0 32 32" xmlns:xlink="http://www.w3.org/1999/xlink">
<path style="fill:#fff;stroke:#777;stroke-width:.5" d="M 25.932953 35.186401 C 25.932953 42.095309 20.446393 47.695712 13.677926 47.695712 C 6.90946 47.695712 1.4229 42.095309 1.4229 35.186401 C 1.4229 28.277492 6.90946 22.677089 13.677926 22.677089 C 20.446393 22.677089 25.932953 28.277492 25.932953 35.186401 Z " transform="matrix(1.06653 0 0 1.04485 1.41213 -20.76439)"/>
<path style="fill:#dc322f" d="M 17.203125 8.179688 C 16.039062 8.472656 15.058594 9.542969 15.058594 9.542969 L 15.089844 9.578125 L 16.953125 16.507812 C 15.621094 15.785156 13.714844 15.964844 12.136719 17.105469 C 10.101562 18.578125 9.390625 21.089844 10.570312 22.707031 C 11.75 24.324219 14.355469 24.4375 16.390625 22.964844 C 18 21.804688 18.894531 19.976562 18.570312 18.472656 C 18.558594 18.425781 18.546875 18.378906 18.53125 18.335938 L 16.742188 11.402344 C 16.785156 11.34375 17.308594 11.101562 19 10.988281 C 20.789062 10.867188 22 8 22 8 C 22 8 19.988281 8.769531 18.402344 8.210938 C 18.007812 8.074219 17.589844 8.078125 17.203125 8.179688 Z "/>
</svg>
