<svg width="32" xmlns="http://www.w3.org/2000/svg" height="32" viewBox="0 0 32 32" xmlns:xlink="http://www.w3.org/1999/xlink">
<path style="fill:#fff;stroke:#777;stroke-width:.792" d="M 43.605469 24 C 43.605469 34.828125 34.828125 43.599609 24 43.599609 C 13.171875 43.599609 4.394531 34.828125 4.394531 24 C 4.394531 13.171875 13.171875 4.394531 24 4.394531 C 34.828125 4.394531 43.605469 13.171875 43.605469 24 Z " transform="scale(.66667)"/>
<path style="fill:#53a93e;fill-rule:evenodd;fill-opacity:.941" d="M 18.089844 24 C 17.378906 23.984375 16.667969 23.765625 16.085938 23.332031 C 14.21875 21.929688 15.667969 20.476562 14.042969 19.257812 C 12.414062 18.035156 10.96875 19.496094 9.101562 18.09375 C 8.6875 17.78125 8.386719 17.394531 8.207031 16.980469 C 8.207031 16.976562 8.207031 16.972656 8.203125 16.972656 C 8.167969 16.886719 8.136719 16.800781 8.109375 16.714844 C 8.097656 16.675781 8.085938 16.636719 8.074219 16.597656 C 8.074219 16.59375 8.074219 16.589844 8.074219 16.585938 C 8.050781 16.503906 8.039062 16.421875 8.027344 16.339844 C 8.027344 16.335938 8.027344 16.335938 8.027344 16.335938 C 8.023438 16.332031 8.023438 16.328125 8.023438 16.324219 C 8.019531 16.285156 8.015625 16.246094 8.011719 16.207031 C 8.007812 16.175781 8.003906 16.148438 8.003906 16.117188 C 8.003906 16.105469 8 16.089844 8 16.074219 C 8 16.066406 8 16.0625 8 16.058594 C 8 16.019531 8 15.980469 8 15.941406 C 8 15.921875 8.003906 15.902344 8.003906 15.882812 C 8.003906 15.851562 8.007812 15.824219 8.011719 15.792969 C 8.015625 15.75 8.019531 15.707031 8.027344 15.664062 C 8.027344 15.664062 8.027344 15.664062 8.027344 15.660156 C 8.039062 15.578125 8.050781 15.496094 8.074219 15.414062 C 8.074219 15.410156 8.074219 15.40625 8.074219 15.402344 C 8.085938 15.363281 8.097656 15.324219 8.109375 15.285156 C 8.136719 15.199219 8.167969 15.113281 8.203125 15.027344 C 8.207031 15.027344 8.207031 15.023438 8.207031 15.019531 C 8.386719 14.605469 8.6875 14.21875 9.101562 13.90625 C 10.96875 12.503906 12.414062 13.964844 14.042969 12.742188 C 15.667969 11.523438 14.21875 10.070312 16.085938 8.667969 C 17.414062 7.675781 19.417969 7.804688 20.5625 8.957031 C 21.707031 10.113281 21.558594 11.851562 20.234375 12.847656 C 18.363281 14.246094 16.921875 12.785156 15.292969 14.007812 C 14.46875 14.625 14.433594 15.300781 14.359375 16 C 14.433594 16.699219 14.46875 17.375 15.292969 17.992188 C 16.921875 19.214844 18.363281 17.753906 20.234375 19.152344 C 21.558594 20.148438 21.707031 21.890625 20.5625 23.042969 C 19.917969 23.691406 19.003906 24.015625 18.089844 24 Z "/>
</svg>
