<svg width="32" xmlns="http://www.w3.org/2000/svg" height="32" viewBox="0 0 32 32" xmlns:xlink="http://www.w3.org/1999/xlink">
<path style="fill:#427fec;fill-rule:evenodd" d="M 15.996094 3 L 16.003906 3 C 23.179688 3 29 8.820312 29 15.996094 L 29 16.003906 C 29 23.179688 23.179688 29 16.003906 29 L 15.996094 29 C 8.820312 29 3 23.179688 3 16.003906 L 3 15.996094 C 3 8.820312 8.820312 3 15.996094 3 Z "/>
<path style="fill:#fff" d="M 3.746094 16.355469 L 3.882812 15.683594 L 5.394531 16.296875 L 6.433594 17.238281 L 7.332031 17.363281 C 7.011719 18.066406 6.363281 19.203125 6.480469 19.988281 C 6.550781 20.445312 7.03125 21.097656 7.304688 21.46875 C 7.691406 21.988281 8.414062 22.292969 8.605469 22.949219 L 8.636719 24.023438 L 8.847656 24.832031 C 8.808594 25.175781 8.476562 25.765625 8.695312 26.085938 C 8.933594 26.433594 9.816406 26.871094 10.226562 26.984375 C 10.617188 27.085938 10.660156 26.691406 10.503906 26.445312 L 11.015625 25.761719 L 11.664062 25.296875 L 12.117188 23.757812 L 13.097656 23.140625 C 13.5 22.554688 13.210938 22.070312 13.359375 21.46875 L 14.019531 19.652344 C 13.273438 19.378906 12.203125 19.046875 11.675781 18.441406 L 11.539062 18.507812 L 11.398438 17.902344 L 10.570312 17.5 L 10.433594 17.632812 L 10.226562 16.691406 L 9.125 16.605469 L 8.296875 16.164062 C 7.9375 16.113281 7.464844 16.683594 7.332031 16.960938 L 6.847656 16.894531 L 6.984375 16.757812 L 6.570312 16.488281 L 6.640625 16.757812 C 6.34375 16.457031 6.292969 16.082031 6.367188 15.683594 L 5.882812 15.480469 L 5.8125 15.683594 C 5.726562 15.347656 5.761719 14.917969 6.019531 14.671875 C 5.640625 14.421875 5.386719 14.65625 5.125 14.941406 L 4.570312 13.867188 C 4.421875 14.195312 4.476562 14.527344 4.503906 14.875 L 4.363281 14.875 C 4.335938 14.5 4.238281 14.085938 4.433594 13.730469 C 4.800781 13.070312 5.898438 12.789062 6.570312 12.921875 L 6.503906 13.058594 L 7.125 13.597656 C 7.125 12.566406 7.542969 12.460938 8.125 11.710938 L 8.53125 10.988281 C 8.984375 10.503906 9.6875 10.171875 10.292969 9.953125 L 11.054688 9.492188 C 10.808594 9.078125 10.160156 9.195312 9.746094 9.222656 C 10.492188 8.808594 11.507812 9.03125 12.019531 8.28125 C 11.460938 7.886719 11.460938 6.851562 10.570312 7.273438 L 10.710938 6.867188 L 9.953125 6.53125 L 9.398438 7.65625 L 8.640625 8.550781 L 8.570312 8.078125 C 8.28125 7.949219 7.476562 7.714844 7.460938 7.339844 C 7.445312 6.929688 8.742188 6.308594 9.054688 6.0625 L 8.917969 6.398438 L 9.453125 6.347656 C 9.566406 6.28125 10.640625 4.800781 10.777344 5.726562 C 11.527344 6 11.609375 6.316406 12.367188 5.859375 L 11.882812 5.65625 C 11.804688 4.992188 11.207031 4.984375 10.640625 4.984375 L 12.433594 4.179688 C 12.632812 4.65625 13.261719 4.753906 13.460938 5.191406 C 13.605469 5.503906 13.179688 5.695312 13.191406 5.996094 C 13.203125 6.363281 13.570312 6.816406 13.746094 7.136719 L 14.78125 6.03125 C 15.355469 5.734375 16.273438 5.703125 16.730469 5.222656 C 17.257812 4.664062 16.96875 3.777344 17.953125 3.773438 C 17.753906 3.691406 17.429688 3.628906 17.261719 3.773438 L 17.054688 3.574219 L 17.332031 3.574219 C 17.1875 3.378906 17.089844 3.277344 16.847656 3.234375 C 16.570312 2.902344 15.933594 3.058594 15.539062 3.023438 C 14.160156 2.894531 12.671875 3.328125 11.398438 3.75 C 7.058594 5.199219 3.171875 9.855469 3 14.472656 C 2.980469 14.996094 3.4375 15.226562 3.664062 15.628906 L 3.746094 16.355469 M 22.019531 5.050781 C 21.777344 5.246094 21.367188 5.34375 21.054688 5.390625 L 20.492188 6.144531 L 19.835938 6.679688 C 19.730469 6.925781 19.898438 7.296875 19.953125 7.542969 L 20.640625 7.207031 C 20.742188 7.539062 21.007812 7.625 21.261719 7.8125 C 21.671875 7.054688 21.320312 6.332031 22.296875 5.925781 L 21.675781 6.667969 L 21.882812 6.53125 L 21.953125 6.9375 L 22.019531 6.398438 C 22.203125 7.003906 22.011719 7.839844 21.332031 8.070312 L 20.640625 8.011719 L 20.640625 7.609375 C 20.25 7.6875 20.261719 7.878906 20.367188 8.214844 C 20.097656 8.140625 19.941406 8.152344 19.746094 8.347656 C 19.535156 8.136719 19.363281 7.976562 19.332031 7.675781 C 19.195312 7.546875 19.136719 7.457031 19.125 7.273438 L 18.640625 7.207031 L 18.847656 8.28125 C 18.664062 7.945312 18.472656 7.863281 18.089844 7.945312 L 18.296875 8.753906 L 18.574219 8.683594 L 18.367188 8.617188 L 18.640625 8.148438 L 18.78125 8.886719 L 19.398438 8.753906 C 19.226562 8.914062 19.089844 8.953125 18.847656 8.953125 L 18.917969 9.15625 L 18.574219 9.15625 L 19.054688 9.964844 C 17.925781 9.972656 17.910156 10.535156 17.953125 11.445312 C 18.171875 11.460938 18.28125 11.492188 18.433594 11.644531 C 19.347656 11.175781 19.558594 10.304688 20.640625 10.03125 C 20.816406 10.5625 21.359375 10.53125 21.191406 11.175781 C 21.726562 11.070312 21.875 10.632812 21.539062 10.234375 C 21.992188 10.496094 22.121094 11.039062 22.433594 11.445312 C 22.65625 11.164062 22.570312 10.839844 22.917969 10.636719 L 22.917969 10.839844 C 23.5 11.34375 23.90625 11.457031 24.640625 11.710938 C 24.386719 12.0625 24.082031 12.40625 23.605469 12.378906 C 23.023438 12.34375 22.28125 11.785156 21.882812 12.453125 L 20.773438 11.59375 C 20.15625 11.34375 19.550781 11.582031 18.917969 11.511719 L 18.640625 11.644531 L 18.78125 11.710938 C 17.515625 12.265625 16.816406 13.726562 16.683594 14.941406 L 16.441406 15.75 C 16.578125 16.539062 17.261719 17.355469 17.835938 17.890625 C 18.242188 18.269531 18.53125 17.527344 18.917969 17.902344 C 19.425781 17.714844 20.195312 17.386719 20.664062 17.914062 C 20.972656 18.257812 20.652344 18.542969 20.757812 18.910156 C 20.941406 19.550781 21.382812 20.300781 21.378906 20.996094 L 21.207031 22.679688 C 21.359375 23.703125 21.941406 24.566406 21.953125 25.640625 C 22.796875 25.554688 23.746094 25.140625 24.21875 24.429688 L 24.417969 23.828125 L 24.765625 23.414062 L 24.636719 22.753906 C 24.832031 22.289062 25.632812 22.242188 25.75 21.734375 C 25.914062 21.050781 25.488281 20.234375 25.742188 19.515625 C 26.136719 18.414062 27.230469 17.605469 27.261719 16.355469 L 26.433594 16.421875 C 27.179688 15.53125 28.757812 15.082031 27.953125 13.730469 L 27.605469 14.136719 L 27.46875 14.136719 C 27.203125 13.589844 26.78125 13.535156 26.78125 12.855469 C 27.425781 13.398438 28.09375 13.417969 28.710938 14.066406 C 29.378906 13.714844 28.707031 12.179688 28.527344 11.644531 C 27.929688 9.878906 26.949219 8.199219 25.605469 6.867188 C 25.125 6.394531 24.742188 5.816406 24.019531 5.726562 L 24.089844 5.523438 C 23.527344 5.449219 22.589844 5.445312 22.160156 5.050781 Z "/>
<path style="fill:none;stroke:#427fec" d="M 7.998047 2 L 8.001953 2 C 11.314453 2 14 4.685547 14 7.998047 L 14 8.001953 C 14 11.314453 11.314453 14 8.001953 14 L 7.998047 14 C 4.685547 14 2 11.314453 2 8.001953 L 2 7.998047 C 2 4.685547 4.685547 2 7.998047 2 Z " transform="scale(2)"/>
</svg>
