<svg width="32" xmlns="http://www.w3.org/2000/svg" height="32" viewBox="0 0 32 32" xmlns:xlink="http://www.w3.org/1999/xlink">
<path style="fill:#fff;stroke:#777;stroke-width:.5" d="M 25.932953 35.186401 C 25.932953 42.095309 20.446393 47.695712 13.677926 47.695712 C 6.90946 47.695712 1.4229 42.095309 1.4229 35.186401 C 1.4229 28.277492 6.90946 22.677089 13.677926 22.677089 C 20.446393 22.677089 25.932953 28.277492 25.932953 35.186401 Z " transform="matrix(1.06653 0 0 1.04485 1.41213 -20.76439)"/>
<g style="fill:#427fec">
<path style="fill-opacity:.6" d="M 11.847656 13.050781 C 10.71875 13.050781 9.816406 13.945312 9.816406 15.050781 C 9.820312 15.167969 9.828125 15.339844 9.835938 15.484375 C 9.644531 15.570312 9.628906 15.964844 9.792969 16.367188 C 9.859375 16.53125 9.941406 16.652344 10.03125 16.753906 C 10.054688 16.871094 10.046875 16.921875 10.074219 17.050781 C 10.152344 17.289062 10.449219 17.757812 10.722656 18.140625 C 10.75 18.4375 10.777344 18.738281 10.722656 19.074219 C 9.929688 19.765625 7.886719 20.0625 7.890625 20.777344 L 7.847656 21.050781 L 15.847656 21.050781 L 15.804688 20.777344 C 15.800781 20.164062 13.753906 19.789062 12.972656 19.074219 C 12.941406 18.800781 12.933594 18.523438 12.949219 18.253906 C 13.203125 17.847656 13.539062 17.316406 13.621094 17.050781 C 13.652344 16.917969 13.664062 16.824219 13.6875 16.710938 C 13.761719 16.613281 13.824219 16.507812 13.878906 16.367188 C 14.035156 15.984375 14.027344 15.617188 13.859375 15.503906 C 13.867188 15.351562 13.875 15.183594 13.878906 15.050781 C 13.878906 13.945312 12.976562 13.050781 11.847656 13.050781 Z "/>
<path d="M 18.152344 10 C 16.460938 10 15.101562 11.339844 15.101562 13 C 15.105469 13.175781 15.121094 13.433594 15.136719 13.648438 C 14.847656 13.777344 14.824219 14.367188 15.070312 14.976562 C 15.167969 15.21875 15.292969 15.402344 15.425781 15.558594 C 15.460938 15.726562 15.453125 15.804688 15.492188 16 C 15.605469 16.359375 16.050781 17.058594 16.464844 17.636719 C 16.503906 18.082031 16.546875 18.527344 16.464844 19.035156 C 15.277344 20.070312 12.210938 20.515625 12.214844 21.589844 L 12.152344 22 L 24.152344 22 L 24.085938 21.589844 C 24.082031 20.671875 21.011719 20.109375 19.839844 19.035156 C 19.789062 18.625 19.78125 18.210938 19.804688 17.808594 C 20.183594 17.195312 20.683594 16.398438 20.8125 16 C 20.855469 15.796875 20.871094 15.664062 20.910156 15.488281 C 21.019531 15.34375 21.117188 15.183594 21.199219 14.976562 C 21.433594 14.398438 21.417969 13.847656 21.167969 13.683594 C 21.183594 13.449219 21.195312 13.199219 21.199219 13 C 21.199219 11.339844 19.84375 10 18.152344 10 Z "/>
</g>
</svg>
