<svg width="32" xmlns="http://www.w3.org/2000/svg" height="32" viewBox="0 0 32 32" xmlns:xlink="http://www.w3.org/1999/xlink">
<path style="fill:#fff;stroke:#777;stroke-width:.792" d="M 43.605469 24 C 43.605469 34.828125 34.828125 43.599609 24 43.599609 C 13.171875 43.599609 4.394531 34.828125 4.394531 24 C 4.394531 13.171875 13.171875 4.394531 24 4.394531 C 34.828125 4.394531 43.605469 13.171875 43.605469 24 Z " transform="scale(.66667)"/>
<path style="fill:#53a93e;fill-opacity:.941" d="M 22.238281 6.667969 C 22.027344 6.691406 21.808594 6.824219 21.640625 7.023438 L 17.832031 11.105469 C 17.667969 11.300781 17.574219 11.539062 17.574219 11.816406 C 17.574219 11.90625 17.597656 11.988281 17.613281 12.070312 C 17.261719 12.527344 17.355469 13.035156 17.355469 14.632812 C 17.355469 15.097656 16.414062 15.621094 16.179688 15.621094 C 16.167969 15.621094 16.171875 15.621094 16.160156 15.621094 C 15.410156 15.621094 12.960938 15.761719 12.214844 17.09375 C 11.464844 18.421875 8.667969 24.445312 8.667969 25.332031 C 9.789062 25.332031 17.953125 20.074219 18.371094 19.578125 C 18.878906 18.976562 18.617188 17.769531 18.292969 16.964844 C 18.292969 16.960938 18.289062 16.945312 18.292969 16.941406 C 18.300781 16.910156 18.300781 16.875 18.273438 16.8125 C 18.097656 16.433594 18.011719 16.050781 18.011719 15.519531 C 18.011719 14.175781 18.113281 13.5 18.371094 13.160156 C 18.394531 13.132812 18.410156 13.09375 18.429688 13.058594 C 18.839844 13.136719 19.40625 12.886719 19.667969 12.578125 L 23.035156 8.671875 C 23.375 8.269531 23.453125 7.679688 23.113281 7.277344 L 22.835938 6.949219 C 22.664062 6.746094 22.449219 6.648438 22.238281 6.667969 Z "/>
</svg>
