<svg xmlns="http://www.w3.org/2000/svg" viewBox="0 0 32 32">
 <path d="m 25.933 35.19 c 0 6.909 -5.487 12.509 -12.255 12.509 c -6.768 0 -12.255 -5.6 -12.255 -12.509 c 0 -6.909 5.487 -12.509 12.255 -12.509 c 6.768 0 12.255 5.6 12.255 12.509 Z" transform="matrix(1.06653 0 0 1.04485 1.41213 -20.76439)" style="fill:#fff;stroke:#777;stroke-width:0.5"/>
 <path d="M 9.5,9 C 9.223,9 9,9.223 9,9.5 9,9.777 9.223,10 9.5,10 L 8,10 c -0.554,0 -1,0.446 -1,1 l 0,11 c 0,0.554 0.446,1 1,1 l 16,0 c 0.554,0 1,-0.446 1,-1 l 0,-11 c 0,-0.554 -0.446,-1 -1,-1 L 12.5,10 C 12.777,10 13,9.777 13,9.5 13,9.223 12.777,9 12.5,9 l -3,0 z m 13,2 1,0 c 0.277,0 0.5,0.223 0.5,0.5 l 0,1 c 0,0.277 -0.223,0.5 -0.5,0.5 l -1,0 C 22.223,13 22,12.777 22,12.5 l 0,-1 C 22,11.223 22.223,11 22.5,11 Z M 16,13 a 4,4 0 0 1 4,4 4,4 0 0 1 -4,4 4,4 0 0 1 -4,-4 4,4 0 0 1 4,-4 z" style="fill:#427fec;opacity:1;fill-opacity:1;stroke:none"/>
</svg>
