<svg width="32" xmlns="http://www.w3.org/2000/svg" height="32" viewBox="0 0 32 32" xmlns:xlink="http://www.w3.org/1999/xlink">
<g style="stroke:#777">
<path style="fill:#fff;stroke-width:.5" d="M 25.932953 35.186401 C 25.932953 42.095309 20.446393 47.695712 13.677926 47.695712 C 6.90946 47.695712 1.4229 42.095309 1.4229 35.186401 C 1.4229 28.277492 6.90946 22.677089 13.677926 22.677089 C 20.446393 22.677089 25.932953 28.277492 25.932953 35.186401 Z " transform="matrix(1.06653 0 0 1.04485 1.41213 -20.76439)"/>
<path style="fill:#bebebe" d="M 22.412109 12.498047 C 21.960938 12.498047 21.591797 12.873047 21.591797 13.335938 L 21.591797 14.958984 C 20.783203 15.169922 20.009766 15.498047 19.300781 15.908203 L 18.152344 14.753906 C 17.988281 14.595703 17.794922 14.507812 17.583984 14.507812 C 17.373047 14.501953 17.15625 14.578125 16.998047 14.742188 L 14.742188 16.998047 C 14.419922 17.314453 14.431641 17.824219 14.753906 18.152344 L 15.908203 19.300781 C 15.498047 20.009766 15.169922 20.783203 14.958984 21.591797 L 13.335938 21.591797 C 12.873047 21.591797 12.498047 21.960938 12.498047 22.412109 L 12.498047 25.587891 C 12.498047 26.039062 12.873047 26.408203 13.335938 26.408203 L 14.958984 26.408203 C 15.169922 27.216797 15.498047 27.990234 15.908203 28.699219 L 14.753906 29.847656 C 14.431641 30.175781 14.419922 30.685547 14.742188 31.001953 L 16.998047 33.257812 C 17.314453 33.580078 17.824219 33.568359 18.152344 33.246094 L 19.300781 32.091797 C 20.009766 32.501953 20.783203 32.830078 21.591797 33.041016 L 21.591797 34.664062 C 21.591797 35.126953 21.960938 35.501953 22.412109 35.501953 L 25.587891 35.501953 C 26.039062 35.501953 26.408203 35.126953 26.408203 34.664062 L 26.408203 33.041016 C 27.216797 32.830078 27.990234 32.501953 28.699219 32.091797 L 29.847656 33.246094 C 30.175781 33.568359 30.685547 33.580078 31.001953 33.257812 L 33.257812 31.001953 C 33.580078 30.685547 33.568359 30.175781 33.246094 29.847656 L 32.091797 28.699219 C 32.501953 27.990234 32.830078 27.216797 33.041016 26.408203 L 34.664062 26.408203 C 35.126953 26.408203 35.501953 26.039062 35.501953 25.587891 L 35.501953 22.412109 C 35.501953 21.960938 35.126953 21.591797 34.664062 21.591797 L 33.041016 21.591797 C 32.830078 20.783203 32.501953 20.009766 32.091797 19.300781 L 33.246094 18.152344 C 33.568359 17.824219 33.580078 17.314453 33.257812 16.998047 L 31.001953 14.742188 C 30.685547 14.419922 30.175781 14.431641 29.847656 14.753906 L 28.699219 15.908203 C 27.990234 15.498047 27.216797 15.169922 26.408203 14.958984 L 26.408203 13.335938 C 26.408203 12.873047 26.039062 12.498047 25.587891 12.498047 Z M 24 20.525391 C 25.921875 20.525391 27.474609 22.078125 27.474609 24 C 27.474609 25.921875 25.921875 27.474609 24 27.474609 C 22.078125 27.474609 20.525391 25.921875 20.525391 24 C 20.525391 22.078125 22.078125 20.525391 24 20.525391 Z " transform="scale(.66667)"/>
</g>
</svg>
