<svg width="32" xmlns="http://www.w3.org/2000/svg" height="32" viewBox="0 0 32 32" xmlns:xlink="http://www.w3.org/1999/xlink">
<path style="fill:#fff;stroke:#777;stroke-width:.5" d="M 25.932953 35.186401 C 25.932953 42.095309 20.446393 47.695712 13.677926 47.695712 C 6.90946 47.695712 1.4229 42.095309 1.4229 35.186401 C 1.4229 28.277492 6.90946 22.677089 13.677926 22.677089 C 20.446393 22.677089 25.932953 28.277492 25.932953 35.186401 Z " transform="matrix(1.06653 0 0 1.04485 1.41213 -20.76439)"/>
<path style="fill:#dc322f" d="M 16 7.332031 C 11.214844 7.332031 7.332031 11.214844 7.332031 16 C 7.332031 20.785156 11.214844 24.667969 16 24.667969 C 20.785156 24.667969 24.667969 20.785156 24.667969 16 C 24.667969 11.214844 20.785156 7.332031 16 7.332031 Z M 16 9.5 C 19.589844 9.5 22.5 12.410156 22.5 16 C 22.5 19.589844 19.589844 22.5 16 22.5 C 12.410156 22.5 9.5 19.589844 9.5 16 C 9.5 12.410156 12.410156 9.5 16 9.5 Z M 15.933594 10.582031 C 15.375 10.582031 14.917969 11.039062 14.917969 11.597656 L 14.917969 16.066406 C 14.917969 16.625 15.375 17.082031 15.933594 17.082031 C 15.957031 17.085938 15.976562 17.082031 16 17.082031 L 19.792969 17.082031 C 20.390625 17.082031 20.875 16.601562 20.875 16 C 20.875 15.398438 20.390625 14.917969 19.792969 14.917969 L 17.082031 14.917969 L 17.082031 11.597656 C 17.082031 11.039062 16.625 10.582031 16.066406 10.582031 Z "/>
</svg>
