<svg xmlns="http://www.w3.org/2000/svg" xmlns:svg="http://www.w3.org/2000/svg" xmlns:xlink="http://www.w3.org/1999/xlink" id="svg29" width="240" height="240" version="1.1" viewBox="0 0 63.499 63.499"><metadata id="metadata33"/><defs id="defs11"><linearGradient id="a"><stop id="stop2" offset="0"/><stop id="stop4" offset="1" stop-opacity="0"/></linearGradient><clipPath id="b" clipPathUnits="userSpaceOnUse"><rect id="rect7" width="15.875" height="9.525" x=".529" y="285.358" ry=".529" transform="rotate(45)" style="fill:#5677fc;stroke-width:.25099999;stroke-opacity:.19599998;paint-order:markers stroke fill"/></clipPath><linearGradient id="c" x1="-197.102" x2="-196.914" y1="217.681" y2="219.365" gradientUnits="userSpaceOnUse" xlink:href="#a"/></defs><g id="g27" transform="matrix(3.3330578,0,0,3.3330578,3.5283746,-930.38776)"><path id="path13" d="m 3.44,282.448 c -0.294,0 -0.395,0.269 -0.53,0.53 H 2.117 a 0.528,0.528 0 0 0 -0.53,0.528 v 5.292 c 0,0.293 0.237,0.53 0.53,0.53 h 12.7 c 0.293,0 0.529,-0.237 0.529,-0.53 v -5.292 a 0.528,0.528 0 0 0 -0.53,-0.529 H 7.674 c -0.155,-0.249 -0.236,-0.53 -0.53,-0.53 z" style="fill:#5677fc;paint-order:markers stroke fill"/><path id="path15" d="m 3.44,282.448 c -0.294,0 -0.395,0.269 -0.53,0.53 H 2.117 a 0.528,0.528 0 0 0 -0.53,0.528 v 5.292 c 0,0.293 0.237,0.53 0.53,0.53 h 12.7 c 0.293,0 0.529,-0.237 0.529,-0.53 v -5.292 a 0.528,0.528 0 0 0 -0.53,-0.529 H 7.674 c -0.155,-0.249 -0.236,-0.53 -0.53,-0.53 z" style="opacity:.18000004;paint-order:markers stroke fill"/><rect id="rect17" width="12.171" height="5.027" x="2.381" y="283.771" ry=".265" style="fill:#fff;paint-order:markers stroke fill"/><rect id="rect19" width="15.875" height="9.525" x=".529" y="285.358" ry=".529" style="fill:#5677fc;paint-order:markers stroke fill"/><path id="path21" d="m 8.467,284.3 h 7.408 c 0.293,0 0.53,0.236 0.53,0.53 v 3.968 c 0,0.293 -0.237,0.529 -0.53,0.529 H 6.152 c -0.294,0 -0.677,-0.276 -0.53,-0.53 l 2.316,-3.968 C 8.085,284.576 8.174,284.3 8.467,284.3 Z" style="fill:#5677fc;paint-order:markers stroke fill"/><rect id="rect23" width="3.175" height=".529" x="3.704" y="282.712" ry=".265" style="opacity:.25;paint-order:stroke markers fill"/><rect id="rect25" width="5.292" height="4.762" x="-199.587" y="217.868" clip-path="url(#b)" ry=".132" transform="rotate(-45)" style="opacity:.1;fill:url(#c);paint-order:stroke markers fill"/></g></svg>