<svg xmlns="http://www.w3.org/2000/svg" xmlns:svg="http://www.w3.org/2000/svg" id="svg16" width="240" height="240" version="1.1" viewBox="0 0 63.499 63.499"><metadata id="metadata22"/><g id="g14" transform="matrix(3.8458913,0,0,3.8458913,-0.81186737,-1077.9194)"><rect id="rect2" width="11.642" height="7.408" x="1.587" y="285.888" ry=".265" style="fill:#5ca4ed;paint-order:stroke markers fill"/><path id="path4" d="m 6.085,281.919 a 0.264,0.264 0 0 0 -0.264,0.264 v 5.292 c 0,0.147 0.118,0.265 0.264,0.265 h 4.077 l 1.48,1.315 c 0.19,0.04 0.264,-0.07 0.264,-0.265 v -1.05 h 3.175 a 0.264,0.264 0 0 0 0.265,-0.265 v -5.292 a 0.264,0.264 0 0 0 -0.265,-0.264 z" style="fill:#a0ecff;paint-order:markers stroke fill"/><path id="path6" d="m 4.233,290.642 h 2.91 c 0.147,0 0.304,0.123 0.265,0.265 L 6.9,292.754 c -0.04,0.141 -0.176,0.172 -0.285,0.27 l -2.382,2.116 c -0.19,0.04 -0.264,-0.07 -0.264,-0.265 v -3.968 c 0,-0.147 0.118,-0.265 0.264,-0.265 z" style="fill:#5ca4ed;paint-order:markers stroke fill"/><circle id="circle8" cx="4.763" cy="289.592" r=".661" style="opacity:.35;fill:#fff;paint-order:markers stroke fill"/><circle id="circle10" cx="7.408" cy="289.592" r=".661" style="opacity:.35;fill:#fff;paint-order:markers stroke fill"/><circle id="circle12" cx="10.054" cy="289.592" r=".661" style="opacity:.35;fill:#fff;paint-order:markers stroke fill"/></g></svg>