<svg xmlns="http://www.w3.org/2000/svg" viewBox="0 0 16 16">
 <path d="m 7 13 0 1.656 c 0 0.192 -0.152 0.345 -0.342 0.345 l -1.316 0 c -0.191 0 -0.342 -0.153 -0.342 -0.345 l 0 -1.656 m 6 0 0 1.656 c 0 0.192 -0.152 0.345 -0.342 0.345 l -1.316 0 c -0.191 0 -0.342 -0.153 -0.342 -0.345 l 0 -1.656" style="fill:#909ea9;fill-opacity:1"/>
 <path d="m 1.046 0.136 c 0.111 0.004 0.214 0.037 0.3 0.081 0.114 0.06 0.194 0.144 0.228 0.254 0.151 0.485 0.452 0.932 0.846 1.24 0.573 0.478 1.425 0.649 2.311 0.881 0.446 0.108 0.912 0.233 1.379 0.421 0.469 0.187 0.929 0.454 1.327 0.833 c 0.443 0.429 0.763 0.98 0.913 1.58 0.049 0.197 0.078 0.372 0.09 0.574 l 1.957 0 c 0.888 0 1.603 0.719 1.603 1.613 l 0 4.387 -8 0 0 -4.387 c 0 -0.894 0.715 -1.613 1.603 -1.613 l 1.712 0 c -0.01 -0.109 -0.021 -0.196 -0.048 -0.301 -0.097 -0.391 -0.31 -0.759 -0.599 -1.039 -0.257 -0.255 -0.602 -0.447 -0.975 -0.603 -0.375 -0.154 -0.791 -0.26 -1.227 -0.369 -0.879 -0.201 -1.869 -0.446 -2.73 -1.091 -0.581 -0.457 -1.01 -1.087 -1.227 -1.79 c -0.049 -0.159 -0.023 -0.324 0.057 -0.445 0.08 -0.121 0.213 -0.195 0.366 -0.215 0.038 -0.005 0.077 -0.011 0.114 -0.01 z" style="fill:#20262b;fill-opacity:1"/>
</svg>
