<svg xmlns="http://www.w3.org/2000/svg" viewBox="0 0 16 16">
 <path d="m 7.909 1.707 c 0 0 -1.178 0.087 -1.964 0.382 -0.786 0.295 -1.292 0.638 -2.357 1.424 -1.065 0.786 -0.559 0.937 -0.559 0.937 0.284 0.033 0.653 0.021 0.906 -0.152 0.322 -0.22 1.026 -0.785 1.617 -1.027 0.744 -0.304 1.554 -0.504 2.357 -0.504 0.803 0 1.613 0.2 2.357 0.504 0.591 0.242 1.294 0.807 1.617 1.027 0.253 0.173 0.622 0.184 0.906 0.152 0 0 0.506 -0.151 -0.559 -0.937 c -1.065 -0.786 -1.571 -1.129 -2.357 -1.424 -0.786 -0.295 -1.964 -0.382 -1.964 -0.382" style="fill:#89c86b;fill-opacity:1;stroke:none;fill-rule:evenodd"/>
 <path transform="scale(-1,-1)" d="m -1.8 -7.896 a 6.2 6.2 0 0 1 -3.1 5.369 6.2 6.2 0 0 1 -6.2 0 6.2 6.2 0 0 1 -3.1 -5.369" style="stroke-dasharray:none;stroke-opacity:1;fill:none;opacity:1;stroke-miterlimit:4;fill-opacity:1;stroke:#515151;fill-rule:nonzero;stroke-linecap:butt;stroke-linejoin:miter;stroke-width:0.6;stroke-dashoffset:0"/>
 <path d="m 1.5 7.896 0.1 1.2 0.6 0 -0.1 -1.2 z" style="fill:#89c86b;fill-opacity:1;stroke:none;fill-rule:evenodd"/>
 <rect width="2.8" height="6.4" x="1.601" y="8.4" rx="0.8" transform="matrix(0.9961947,-0.08715574,0.08715574,0.9961947,0,0)" style="fill:#515151;opacity:1;fill-opacity:1;stroke:none;fill-rule:nonzero"/>
 <path d="m 1.6 9.1 0.453 5.18 0.398 -0.035 -0.035 -0.398 0.398 -0.035 -0.418 -4.782" style="fill:#515151;fill-opacity:1;stroke:none;fill-rule:evenodd"/>
 <rect width="0.8" height="6.4" x="1.601" y="8.4" transform="matrix(0.9961947,-0.08715574,0.08715574,0.9961947,0,0)" style="fill:#89c86b;opacity:1;fill-opacity:1;stroke:none;fill-rule:nonzero"/>
 <path d="m 14.5 7.896 -0.1 1.2 -0.6 0 0.1 -1.2 z" style="fill:#89c86b;fill-opacity:1;stroke:none;fill-rule:evenodd"/>
 <rect rx="0.8" y="7.01" x="-14.338" height="6.4" width="2.8" transform="matrix(-0.99619438,-0.08715941,-0.08715207,0.99619502,0,0)" style="fill:#515151;opacity:1;fill-opacity:1;stroke:none;fill-rule:nonzero"/>
 <path d="m 14.4 9.1 -0.453 5.18 -0.398 -0.035 0.035 -0.398 -0.398 -0.035 0.418 -4.782 z" style="fill:#515151;fill-opacity:1;stroke:none;fill-rule:evenodd"/>
 <rect y="7.01" x="-14.338" height="6.4" width="0.8" transform="matrix(-0.99619438,-0.08715941,-0.08715207,0.99619502,0,0)" style="fill:#89c86b;opacity:1;fill-opacity:1;stroke:none;fill-rule:nonzero"/>
</svg>
