<svg xmlns="http://www.w3.org/2000/svg" viewBox="0 0 16 16">
 <defs>
  <linearGradient y2="23" x2="0" y1="-7" gradientTransform="matrix(0.5,0,0,0.5,-3.9999999,-3.9999998)" gradientUnits="userSpaceOnUse" id="linearGradient3008">
   <stop style="stop-color:#839496;stop-opacity:1"/>
   <stop offset="1" style="stop-color:#667678;stop-opacity:1"/>
  </linearGradient>
 </defs>
 <path d="m 7 0 c -0.554 0 -1 0.446 -1 1 l 0 1.01 -1 0 c -0.554 0 -1 0.446 -1 1 l 0 11.992 c 0 0.554 0.446 1 1 1 l 6 0 c 0.554 0 1 -0.446 1 -1 l 0 -11.992 c 0 -0.554 -0.447 -1.028 -1 -1 l -1 0 0 -1.01 c 0 -0.554 -0.446 -1 -1 -1 z" style="fill:url(#linearGradient3008);fill-opacity:1;stroke:none"/>
 <rect width="1" height="2" x="8" style="fill:#fff;opacity:0.2;fill-opacity:1;stroke:none"/>
 <rect width="8" height="14" x="4" y="2" rx="1" style="fill:#6fa7ce;opacity:1;fill-opacity:1;stroke:none;fill-rule:nonzero"/>
 <rect rx="1" y="2" x="4" height="14" width="8" style="fill:#6fa7ce;opacity:0.2;fill-opacity:1;stroke:none;fill-rule:nonzero"/>
 <rect width="2" height="14" x="9" y="2" style="fill:#fff;opacity:0.2;fill-opacity:1;stroke:none"/>
</svg>
