<svg xmlns="http://www.w3.org/2000/svg" viewBox="0 0 16 16">
 <g transform="translate(0,-32)">
  <path d="m 8.553 34.917 c -0.966 0 -1.78 0.525 -2.232 1.271 -0.329 -0.158 -0.685 -0.271 -1.078 -0.271 -1.346 0 -2.439 1.045 -2.439 2.333 0 1.288 1.093 2.333 2.439 2.333 0.843 0 1.544 -0.44 1.982 -1.062 0.395 0.23 0.832 0.396 1.329 0.396 0.318 0 0.611 -0.077 0.893 -0.177 0.178 0.289 0.411 0.527 0.697 0.719 -0.002 0.043 -0.022 0.081 -0.022 0.125 0 1.288 1.093 2.333 2.439 2.333 1.346 0 2.439 -1.045 2.439 -2.333 0 -0.79 -0.439 -1.453 -1.067 -1.875 0.002 -0.043 0.022 -0.081 0.022 -0.125 0 -1.288 -1.093 -2.333 -2.439 -2.333 -0.217 0 -0.41 0.074 -0.61 0.125 -0.416 -0.853 -1.304 -1.458 -2.352 -1.458 z" style="fill:#7e7e7e;fill-opacity:1;stroke:none"/>
  <path d="m 10.121 39.08 c -0.791 0 -1.432 0.517 -1.644 1.208 -0.242 -0.121 -0.503 -0.208 -0.795 -0.208 -0.962 0 -1.742 0.747 -1.742 1.667 0 0.193 0.057 0.369 0.12 0.542 -0.479 0.257 -0.817 0.73 -0.817 1.292 0 0.828 0.702 1.5 1.568 1.5 0.062 0 6.559 0 6.621 0 0.866 0 1.568 -0.672 1.568 -1.5 0 -0.562 -0.338 -1.035 -0.817 -1.292 0.063 -0.172 0.12 -0.349 0.12 -0.542 0 -0.92 -0.781 -1.667 -1.742 -1.667 -0.292 0 -0.553 0.087 -0.795 0.208 -0.212 -0.692 -0.853 -1.208 -1.644 -1.208 z" style="fill:#c4c5c2;fill-opacity:1;stroke:none"/>
  <path d="m 5.895 38 c -0.794 0 -1.437 0.517 -1.65 1.208 -0.242 -0.121 -0.505 -0.208 -0.798 -0.208 -0.965 0 -1.748 0.747 -1.748 1.667 0 0.193 0.057 0.369 0.12 0.542 -0.48 0.257 -0.819 0.73 -0.819 1.292 0 0.828 0.705 1.5 1.573 1.5 0.062 0 6.581 0 6.643 0 0.869 0 1.573 -0.672 1.573 -1.5 0 -0.562 -0.339 -1.035 -0.819 -1.292 0.063 -0.172 0.12 -0.349 0.12 -0.542 0 -0.92 -0.783 -1.667 -1.748 -1.667 -0.293 0 -0.555 0.087 -0.798 0.208 -0.213 -0.692 -0.856 -1.208 -1.65 -1.208 z" style="fill:#dadada;fill-opacity:1;stroke:none"/>
 </g>
</svg>
