<svg xmlns="http://www.w3.org/2000/svg" viewBox="0 0 16 16">
 <path d="m 3.835 2.463 c -0.443 0.018 -0.807 0.208 -1.058 0.398 -1.483 1.125 -2.778 5.816 -2.778 8.299 c 0 2.483 0.571 2.377 1.066 2.377 0.495 0 1.118 -0.341 1.662 -0.82 c 1.503 -1.323 2.195 -2.718 3.689 -2.718 l 3.166 0 c 1.494 0 2.186 1.395 3.689 2.718 0.544 0.479 1.167 0.82 1.662 0.82 c 0.495 0 1.066 0.106 1.066 -2.377 0 -2.483 -1.295 -7.175 -2.778 -8.299 -0.401 -0.304 -1.092 -0.608 -1.933 -0.208 -0.564 0.268 -1.068 0.347 -1.804 0.347 l -2.971 0 c -0.736 0 -1.24 -0.079 -1.804 -0.347 -0.315 -0.15 -0.609 -0.201 -0.875 -0.19" style="fill:#deddc9;fill-opacity:1;stroke:none;fill-rule:evenodd"/>
 <ellipse cx="3.75" cy="6.25" rx="1.25" ry="1.25" style="fill:#3b3b3b;opacity:1;fill-opacity:1;stroke:none;fill-rule:nonzero"/>
 <ellipse cx="12.75" cy="5.25" rx="0.5" ry="0.5" style="fill:#df8003;opacity:1;fill-opacity:1;stroke:none;fill-rule:nonzero"/>
 <ellipse cy="6.5" cx="14" rx="0.5" ry="0.5" style="fill:#e45146;opacity:1;fill-opacity:1;stroke:none;fill-rule:nonzero"/>
 <ellipse cx="12.75" cy="7.75" rx="0.5" ry="0.5" style="fill:#68bf45;opacity:1;fill-opacity:1;stroke:none;fill-rule:nonzero"/>
 <ellipse cy="6.5" cx="11.5" rx="0.5" ry="0.5" style="fill:#5b6dc1;opacity:1;fill-opacity:1;stroke:none;fill-rule:nonzero"/>
 <circle cx="8" cy="6.5" r="0.5" style="stroke-dasharray:none;stroke-opacity:1;fill:none;opacity:1;stroke-miterlimit:4;fill-opacity:1;stroke:#3b3b3b;fill-rule:nonzero;stroke-linecap:round;stroke-linejoin:miter;stroke-width:0.5;stroke-dashoffset:0"/>
 <ellipse cx="6.5" cy="6.5" rx="0.5" ry="0.5" style="fill:#3b3b3b;opacity:1;fill-opacity:1;stroke:none;fill-rule:nonzero"/>
 <circle cy="6.5" cx="9.5" r="0.5" style="fill:#3b3b3b;opacity:1;fill-opacity:1;stroke:none;fill-rule:nonzero"/>
 <path d="m 12 2.479 l 0 8.979 c 0.377 0.4 0.776 0.825 1.271 1.262 c 0.234 0.206 0.482 0.379 0.729 0.518 l 0 -9.416 c -0.25 -0.404 -0.508 -0.755 -0.777 -0.959 c -0.28 -0.213 -0.708 -0.41 -1.223 -0.383 z" style="fill:#fff;opacity:0.4;fill-opacity:1;stroke:none;fill-rule:nonzero"/>
</svg>
