<svg xmlns="http://www.w3.org/2000/svg" xmlns:xlink="http://www.w3.org/1999/xlink" viewBox="0 0 16 16">
 <defs>
  <filter width="16" x="0" y="0" height="16" filterUnits="objectBoundingBox" id="alpha">
   <feColorMatrix values="0 0 0 0 1 0 0 0 0 1 0 0 0 0 1 0 0 0 1 0" in="SourceGraphic" type="matrix"/>
  </filter>
  <g id="surface10">
   <path d="m 221.99 188 c 0 8.813 -7.188 16 -16 16 c -8.813 0 -16 -7.188 -16 -16 c 0 -8.813 7.188 -16 16 -16 c 8.813 0 16 7.188 16 16 Z" transform="matrix(.0625 0 0 .0625 -1.70667 -2.25)" style="fill:url(#radial4);stroke:url(#radial5);fill-rule:evenodd;stroke-width:5.333"/>
  </g>
  <g id="surface13">
   <path d="m 308.53 76.47 l -1.969 1.969 l 0 3.059 l 16.01 0 l 0 -5.03 Z" transform="matrix(.33333 0 0 .33333 -98.66667 -16.66667)" style="stroke-opacity:0.137;fill:none;stroke:#fff"/>
   <path d="m 306.55 78.43 l 0 3.07 l 16.02 0 l 0 -5.04 l -14.05 0 l -1.969 1.969" transform="matrix(.33333 0 0 .33333 -98.66667 -17)" style="fill:none;stroke:url(#radial6)"/>
  </g>
  <g id="surface15">
   <path d="m 301.48 53.24 l 0 40.38 c 0.07 1.043 0.996 2.098 2.379 1.992 l 31.852 0 c 0.891 -0.035 1.781 -0.785 1.77 -2.25 l 0 -36.938 c 0 -0.715 -0.234 -1.195 -0.762 -1.711 c 0 0 -2.742 -2.836 -2.742 -2.836 c -0.281 -0.27 -0.457 -0.375 -1.242 -0.375 l -30 0 c -0.938 0.059 -1.301 0.996 -1.242 1.734 Z" transform="matrix(.33333 0 0 .33333 -98.66667 -17)" style="fill:url(#linear1);stroke:#2e3436;fill-rule:evenodd"/>
   <path d="m 307.38 55.617 l 24.18 0 c 1.055 0 1.898 0.844 1.898 1.898 l 0 13.207 c 0 1.043 -0.844 1.898 -1.898 1.898 l -24.18 0 c -1.055 0 -1.898 -0.855 -1.898 -1.898 l 0 -13.207 c 0 -1.055 0.844 -1.898 1.898 -1.898 Z" transform="matrix(.33333 0 0 .33333 -98.66667 -17)" style="fill:#ecd400;stroke:#2e3436;fill-rule:evenodd;stroke-width:3"/>
   <path d="m 307.38 55.617 l 24.18 0 c 1.055 0 1.898 0.844 1.898 1.898 l 0 13.207 c 0 1.043 -0.844 1.898 -1.898 1.898 l -24.18 0 c -1.055 0 -1.898 -0.855 -1.898 -1.898 l 0 -13.207 c 0 -1.055 0.844 -1.898 1.898 -1.898 Z" transform="matrix(.33333 0 0 .33333 -98.66667 -17)" style="fill:url(#linear2);stroke:#c39f00;fill-rule:evenodd"/>
   <path d="m 307.98 56.61 l 23.707 0 c 0.633 0 1.151 0.516 1.143 1.148 l 0 12.703 c 0.003 0.633 -0.509 1.148 -1.142 1.148 l -23.707 0 c -0.633 0 -1.151 -0.516 -1.143 -1.148 l 0 -12.703 c -0.003 -0.633 0.509 -1.148 1.142 -1.148 Z" transform="matrix(.33333 0 -.00184 .33333 -98.66667 -17)" style="stroke-opacity:0.447;fill:none;stroke:#fff"/>
   <path d="m 3.992 1.707 l 0 2 c 2.402 -0.957 5.02 1.324 7.668 0.664 l 0 -2.641 l 0.332 0 l 0 5.309 l -0.332 0 l 0 -2 c -2.887 0.645 -5.184 -1.684 -7.668 -0.668 l 0 2.668 l -0.332 0 l 0 -5.332 Z" style="fill:#fff;fill-opacity:0.447;fill-rule:evenodd"/>
   <path d="m 4.328 1.707 l 0 1.578 l 0.332 -0.082 l 0 -1.496 Z" style="fill:#fff;fill-opacity:0.447;fill-rule:evenodd"/>
   <path d="m 4.992 3.203 l 0 -1.496 l 0.336 0 l 0 1.469 Z" style="fill:#fff;fill-opacity:0.447;fill-rule:evenodd"/>
   <path d="m 5.66 3.176 l 0 -1.469 l 0.332 0 l 0 1.52 Z" style="fill:#fff;fill-opacity:0.447;fill-rule:evenodd"/>
   <path d="m 6.328 3.297 l 0 -1.59 l 0.332 0 l 0 1.664 Z" style="fill:#fff;fill-opacity:0.447;fill-rule:evenodd"/>
   <path d="m 6.992 3.426 l 0 -1.719 l 0.336 0 l 0 1.777 Z" style="fill:#fff;fill-opacity:0.447;fill-rule:evenodd"/>
   <path d="m 7.66 3.602 l 0 -1.895 l 0.332 0 l 0 1.938 Z" style="fill:#fff;fill-opacity:0.447;fill-rule:evenodd"/>
   <path d="m 8.328 3.777 l 0 -2.07 l 0.332 0 l 0 2.129 Z" style="fill:#fff;fill-opacity:0.447;fill-rule:evenodd"/>
   <path d="m 8.992 3.91 l 0 -2.203 l 0.336 0 l 0 2.262 Z" style="fill:#fff;fill-opacity:0.447;fill-rule:evenodd"/>
   <path d="m 9.66 4.074 l 0 -2.367 l 0.332 0 l 0 2.395 Z" style="fill:#fff;fill-opacity:0.447;fill-rule:evenodd"/>
   <path d="m 10.328 4.133 l 0 -2.426 l 0.332 0 l 0 2.426 Z" style="fill:#fff;fill-opacity:0.447;fill-rule:evenodd"/>
   <path d="m 10.992 4.133 l 0 -2.426 l 0.336 0 l 0 2.379 Z" style="fill:#fff;fill-opacity:0.447;fill-rule:evenodd"/>
   <path d="m 4.328 7.02 l 0 -2.477 l 0.332 -0.039 l 0 2.516 Z" style="fill:#fff;fill-opacity:0.447;fill-rule:evenodd"/>
   <path d="m 4.992 4.492 l 0 2.531 l 0.336 0 l 0 -2.574 Z" style="fill:#fff;fill-opacity:0.447;fill-rule:evenodd"/>
   <path d="m 5.66 4.449 l 0 2.574 l 0.332 0 l 0 -2.535 Z" style="fill:#fff;fill-opacity:0.447;fill-rule:evenodd"/>
   <path d="m 6.328 4.59 l 0 2.434 l 0.332 0 l 0 -2.359 Z" style="fill:#fff;fill-opacity:0.447;fill-rule:evenodd"/>
   <path d="m 6.992 4.742 l 0 2.281 l 0.336 0 l 0 -2.191 Z" style="fill:#fff;fill-opacity:0.447;fill-rule:evenodd"/>
   <path d="m 7.66 4.949 l 0 2.074 l 0.332 0 l 0 -1.957 Z" style="fill:#fff;fill-opacity:0.447;fill-rule:evenodd"/>
   <path d="m 8.328 5.129 l 0 1.895 l 0.332 0 l 0 -1.809 Z" style="fill:#fff;fill-opacity:0.447;fill-rule:evenodd"/>
   <path d="m 8.992 5.273 l 0 1.75 l 0.336 0 l 0 -1.691 Z" style="fill:#fff;fill-opacity:0.447;fill-rule:evenodd"/>
   <path d="m 9.66 5.391 l 0 1.633 l 0.332 0 l 0 -1.617 Z" style="fill:#fff;fill-opacity:0.447;fill-rule:evenodd"/>
   <path d="m 10.328 5.465 l 0 1.559 l 0.332 0 l 0 -1.602 Z" style="fill:#fff;fill-opacity:0.447;fill-rule:evenodd"/>
   <path d="m 10.992 5.453 l 0 1.57 l 0.336 0 l 0 -1.633 Z" style="fill:#fff;fill-opacity:0.447;fill-rule:evenodd"/>
   <path d="m 2.934 11.371 l 9.789 0 c 0.148 0 0.27 0.121 0.27 0.273 l 0 3.121 c 0 0.152 -0.121 0.273 -0.27 0.273 l -9.789 0 c -0.152 0 -0.273 -0.121 -0.273 -0.273 l 0 -3.121 c 0 -0.152 0.121 -0.273 0.273 -0.273 Z" style="fill:#2e3436;fill-rule:evenodd"/>
   <path d="m 3.035 11.707 l 9.582 0 c 0.023 0 0.043 0.02 0.043 0.043 l 0 2.91 c 0 0.027 -0.02 0.047 -0.043 0.047 l -9.582 0 c -0.023 0 -0.043 -0.02 -0.043 -0.047 l 0 -2.91 c 0 -0.023 0.02 -0.043 0.043 -0.043 Z" style="fill:url(#linear3);fill-rule:evenodd"/>
   <path d="m 3.035 11.707 l 9.582 0 c 0.023 0 0.043 0.02 0.043 0.043 l 0 0.91 c 0 0.027 -0.02 0.047 -0.043 0.047 l -9.582 0 c -0.023 0 -0.043 -0.02 -0.043 -0.047 l 0 -0.91 c 0 -0.023 0.02 -0.043 0.043 -0.043 Z" style="fill:url(#linear4);fill-rule:evenodd"/>
   <path d="m 3.703 12.04 l 3.258 0 c 0.023 0 0.043 0.02 0.043 0.043 l 0 0.578 c 0 0.027 -0.02 0.047 -0.043 0.047 l -3.258 0 c -0.023 0 -0.043 -0.02 -0.043 -0.047 l 0 -0.578 c 0 -0.023 0.02 -0.043 0.043 -0.043 Z" style="fill:#e8b96e;fill-rule:evenodd"/>
   <path d="m 7.691 12.04 l 1.262 0 c 0.023 0 0.043 0.02 0.043 0.043 l 0 0.578 c 0 0.027 -0.02 0.047 -0.043 0.047 l -1.262 0 c -0.023 0 -0.043 -0.02 -0.043 -0.047 l 0 -0.578 c 0 -0.023 0.02 -0.043 0.043 -0.043 Z" style="fill:#e8b96e;fill-rule:evenodd"/>
   <path d="m 302.78 52.5 c -0.141 0.012 -0.141 0 -0.211 0.129 c -0.082 0.117 -0.117 0.363 -0.094 0.527 c 0 0.035 0 0.059 0 0.094 l 0 40.31 c 0.023 0.492 0.492 1.125 1.336 1.066 c 0.023 0 0.047 0 0.07 0 l 31.781 0 c 0.352 -0.023 0.82 -0.211 0.809 -1.289 l 0 -36.902 c 0 -0.504 -0.035 -0.609 -0.434 -0.996 c -0.012 -0.012 -0.023 -0.023 -0.023 -0.035 l -2.719 -2.813 c -0.059 -0.059 -0.035 -0.023 -0.035 -0.035 c 0 0 -0.035 -0.023 -0.035 -0.023 c 0.012 0 -0.141 -0.035 -0.492 -0.035 Z" transform="matrix(.33333 0 0 .33333 -98.6563 -17.04317)" style="fill:none;stroke:url(#linear5)"/>
   <path d="m 3 14 l 9.73 0 l 0 0.375 l -9.73 0 Z" style="fill:url(#radial2);fill-rule:evenodd"/>
   <path d="m 3.035 11.707 l 9.582 0 c 0.023 0 0.043 0.02 0.043 0.043 l 0 2.91 c 0 0.027 -0.02 0.047 -0.043 0.047 l -9.582 0 c -0.023 0 -0.043 -0.02 -0.043 -0.047 l 0 -2.91 c 0 -0.023 0.02 -0.043 0.043 -0.043 Z" style="fill:url(#linear6);fill-rule:evenodd"/>
   <path d="m 302.79 52.594 c -0.117 0.012 -0.07 -0.012 -0.129 0.094 c -0.059 0.105 -0.105 0.316 -0.094 0.469 c 0 0.035 0 0.059 0 0.094 l 0 40.31 c 0.023 0.445 0.422 1.031 1.219 0.973 c 0.035 0 0.059 0 0.094 0 l 31.781 0 c 0.305 -0.023 0.727 -0.152 0.715 -1.195 l 0 -36.902 c 0 -0.492 -0.012 -0.551 -0.398 -0.938 c -0.012 -0.012 -0.023 -0.023 -0.035 -0.035 l -2.719 -2.813 c -0.117 -0.105 -0.047 -0.035 -0.035 -0.023 c 0.023 0 -0.117 -0.035 -0.469 -0.035 Z" transform="matrix(.33333 0 0 .33333 -98.66667 -17)" style="fill:none;stroke:url(#radial3)"/>
   <use xlink:href="#surface10" style="mask:url(#mask1)"/>
   <use xlink:href="#surface13" style="mask:url(#mask2)"/>
  </g>
  <g id="surface6">
   <path d="m 2.938 13.04 l 10.121 0 l 0 2.5 l -10.121 0 Z" style="fill:url(#linear0)"/>
   <path d="m 13.06 13.04 l 0 2.5 c 1.078 0.004 2.609 -0.563 2.609 -1.25 c 0 -0.691 -1.207 -1.25 -2.609 -1.25 Z" style="fill:url(#radial0)"/>
   <path d="m 2.938 13.04 l 0 2.5 c -1.078 0.004 -2.609 -0.563 -2.609 -1.25 c 0 -0.691 1.207 -1.25 2.609 -1.25 Z" style="fill:url(#radial1)"/>
  </g>
  <linearGradient gradientTransform="matrix(.33333 0 0 .33333 -98.66667 -17)" id="linear6" y1="82.991" x1="312.36" y2="95.99" gradientUnits="userSpaceOnUse" x2="329.48">
   <stop style="stop-color:#fff;stop-opacity:0"/>
   <stop offset="0.276" style="stop-color:#fff;stop-opacity:0.326"/>
   <stop offset="0.772" style="stop-color:#fff;stop-opacity:0.408"/>
   <stop offset="1" style="stop-color:#fff;stop-opacity:0"/>
  </linearGradient>
  <linearGradient gradientTransform="matrix(1 0 0 .98252 295.98 49.929)" id="linear1" y1="4.608" x1="21.617" y2="47.01" gradientUnits="userSpaceOnUse" x2="26.444">
   <stop style="stop-color:#545653"/>
   <stop offset="0.526" style="stop-color:#545552"/>
   <stop offset="0.626" style="stop-color:#5d605b"/>
   <stop offset="1" style="stop-color:#3d3e3c"/>
  </linearGradient>
  <linearGradient gradientTransform="matrix(.02096 0 0 .0103 .42425 9.26769)" id="linear0" y1="366.65" y2="609.51" gradientUnits="userSpaceOnUse" x2="0">
   <stop style="stop-color:#000;stop-opacity:0"/>
   <stop offset="0.5" style="stop-color:#000;stop-opacity:0.404"/>
   <stop offset="1" style="stop-color:#000;stop-opacity:0"/>
  </linearGradient>
  <linearGradient gradientTransform="translate(295.98 50)" id="linear2" y1="21.741" x1="29.375" y2="7.679" gradientUnits="userSpaceOnUse" x2="22.1">
   <stop style="stop-color:#ecd400"/>
   <stop offset="0.5" style="stop-color:#c2af06"/>
   <stop offset="1" style="stop-color:#ffeb3d"/>
  </linearGradient>
  <linearGradient gradientTransform="matrix(.33333 0 0 .31133 -.00667 .186)" id="linear3" y1="39.68" y2="46.636" gradientUnits="userSpaceOnUse" x2="0">
   <stop style="stop-color:#deded9"/>
   <stop offset="0.785" style="stop-color:#deded9"/>
   <stop offset="1" style="stop-color:#828275"/>
  </linearGradient>
  <linearGradient gradientTransform="matrix(.33333 0 0 .33333 -98.66667 -17)" id="linear4" y1="90" y2="84" gradientUnits="userSpaceOnUse" x2="0">
   <stop style="stop-color:#ba5d12"/>
   <stop offset="1" style="stop-color:#cd7f33"/>
  </linearGradient>
  <linearGradient id="linear5" y1="8.678" x1="16.846" y2="78.5" gradientUnits="userSpaceOnUse" x2="30.508">
   <stop style="stop-color:#fff;stop-opacity:0.18"/>
   <stop offset="1" style="stop-color:#fff;stop-opacity:0"/>
  </linearGradient>
  <mask id="mask2">
   <g style="filter:url(#alpha)">
    <use xlink:href="#surface13"/>
   </g>
  </mask>
  <mask id="mask0">
   <g style="filter:url(#alpha)">
    <rect width="16" height="16" style="fill:#000;fill-opacity:0.588"/>
   </g>
  </mask>
  <mask id="mask1">
   <g style="filter:url(#alpha)">
    <use xlink:href="#surface10"/>
   </g>
  </mask>
  <radialGradient cx="321.2" cy="73.49" gradientTransform="matrix(1.1575 0 0 3.4035 -50.589 -176.57)" id="radial3" r="17.407" gradientUnits="userSpaceOnUse">
   <stop style="stop-color:#fff"/>
   <stop offset="1" style="stop-color:#fff;stop-opacity:0"/>
  </radialGradient>
  <radialGradient cx="202.69" cy="178.31" gradientTransform="matrix(11.889 -9.7781 .37281 .45328 -2313.2 2117.1)" id="radial4" r="16" gradientUnits="userSpaceOnUse">
   <stop style="stop-color:#40423f"/>
   <stop offset="1" style="stop-color:#181818"/>
  </radialGradient>
  <radialGradient cx="605.71" cy="486.65" gradientTransform="matrix(-.02096 0 0 .0103 15.56838 9.26769)" id="radial1" r="117.14" gradientUnits="userSpaceOnUse">
   <stop style="stop-color:#000;stop-opacity:0.404"/>
   <stop offset="1" style="stop-color:#000;stop-opacity:0"/>
  </radialGradient>
  <radialGradient cx="206" cy="203" id="radial5" r="18.667" gradientUnits="userSpaceOnUse">
   <stop style="stop-color:#a2a2a2"/>
   <stop offset="1" style="stop-color:#fff;stop-opacity:0"/>
  </radialGradient>
  <radialGradient cx="314.56" cy="78.985" gradientTransform="matrix(.80386 .59482 -.95033 1.2843 136.76 -209.56)" id="radial6" r="8.51" gradientUnits="userSpaceOnUse">
   <stop style="stop-color:#424242;stop-opacity:0.51"/>
   <stop offset="1" style="stop-color:#000;stop-opacity:0.51"/>
  </radialGradient>
  <radialGradient cx="319.59" cy="93.56" gradientTransform="matrix(.33333 0 0 .09707 -98.66667 5.105)" id="radial2" r="14.594" gradientUnits="userSpaceOnUse" xlink:href="#radial3"/>
  <radialGradient cx="605.71" cy="486.65" gradientTransform="matrix(.02096 0 0 .0103 .42878 9.26769)" id="radial0" r="117.14" gradientUnits="userSpaceOnUse" xlink:href="#radial1"/>
 </defs>
 <use xlink:href="#surface6" style="mask:url(#mask0)"/>
 <use xlink:href="#surface15"/>
</svg>
