<svg xmlns="http://www.w3.org/2000/svg" viewBox="0 0 16 16" style="enable-background:new">
 <rect width="1" height="6" x="5" y="6" style="fill:#1a1a1a;opacity:1;fill-opacity:1;stroke:none"/>
 <path d="m 2 11 12 0 0 3 -12 0 z" style="fill:#999;stroke:none"/>
 <rect y="12" x="3" height="1" width="2" style="fill:#1a1a1a;fill-opacity:1;stroke:none"/>
 <path d="M 6.602 6 A 1.107 1.107 0 0 1 5.495 7.107 1.107 1.107 0 0 1 4.387 6 1.107 1.107 0 0 1 5.495 4.892 1.107 1.107 0 0 1 6.602 6" style="fill:#1a1a1a;opacity:1;fill-opacity:1;stroke:none"/>
 <circle cx="8.5" cy="12.5" r="0.5" style="fill:#ffeb42;opacity:1;fill-opacity:1;stroke:none"/>
 <rect width="1" height="3" x="11" y="11" style="fill:#fff;opacity:0.4;fill-opacity:1;stroke:none"/>
 <circle cx="10.5" cy="12.5" r="0.5" style="fill:#ffeb42;opacity:1;fill-opacity:1;stroke:none"/>
 <circle cx="12.5" cy="12.5" r="0.5" style="fill:#ffeb42;opacity:1;fill-opacity:1;stroke:none"/>
 <path d="m 10.687 2.382 -0.543 0.38 c 0.64 0.918 1.018 2.032 1.018 3.238 0 1.206 -0.383 2.316 -1.025 3.232 l 0.545 0.382 c 0.718 -1.026 1.146 -2.268 1.146 -3.614 0 -1.345 -0.424 -2.591 -1.141 -3.618 z m -1.092 0.764 -0.543 0.38 c 0.488 0.701 0.776 1.553 0.776 2.474 0 0.921 -0.289 1.772 -0.778 2.472 l 0.544 0.381 c 0.566 -0.809 0.9 -1.792 0.9 -2.853 0 -1.061 -0.334 -2.043 -0.9 -2.853 z m -7.109 0.764 c -0.414 0.594 -0.658 1.313 -0.658 2.089 0 0.777 0.245 1.496 0.659 2.089 l 0.541 -0.378 c -0.336 -0.485 -0.533 -1.074 -0.533 -1.71 c 0 -0.637 0.198 -1.225 0.534 -1.71 z m 6.02 0 -0.542 0.38 c 0.336 0.485 0.534 1.073 0.534 1.71 0 0.637 -0.197 1.226 -0.533 1.71 l 0.541 0.378 c 0.414 -0.593 0.659 -1.312 0.659 -2.089 0 -0.776 -0.245 -1.496 -0.658 -2.089 m -4.925 0.764 c -0.262 0.377 -0.417 0.833 -0.417 1.325 c 0 0.492 0.16 0.944 0.422 1.321 l 0.539 -0.377 c -0.185 -0.267 -0.294 -0.592 -0.294 -0.944 c 0 -0.352 0.109 -0.676 0.293 -0.945 z m 3.833 0 -0.543 0.38 c 0.184 0.268 0.293 0.593 0.293 0.945 0 0.352 -0.109 0.677 -0.294 0.944 l 0.539 0.377 c 0.262 -0.376 0.422 -0.829 0.422 -1.321 0 -0.492 -0.155 -0.948 -0.417 -1.325 z" mix-blend-mode="normal" isolation="auto" white-space="normal" solid-opacity="1" solid-color="#000000" style="visibility:visible;shape-rendering:auto;color-interpolation-filters:linearRGB;fill:#a6e3ff;opacity:1;image-rendering:auto;fill-opacity:0.557;stroke:none;display:inline;color:#000;fill-rule:nonzero;color-rendering:auto;color-interpolation:sRGB"/>
 <path d="m 11.781 1.616 -0.545 0.382 c 0.792 1.134 1.259 2.512 1.259 4 0 1.49 -0.467 2.868 -1.259 4 l 0.545 0.382 c 0.869 -1.243 1.381 -2.754 1.381 -4.383 0 -1.63 -0.512 -3.14 -1.381 -4.383 z" mix-blend-mode="normal" isolation="auto" white-space="normal" solid-opacity="1" solid-color="#000000" style="visibility:visible;shape-rendering:auto;color-interpolation-filters:linearRGB;fill:#a6e3ff;opacity:1;image-rendering:auto;fill-opacity:0.557;stroke:none;display:inline;color:#000;fill-rule:nonzero;color-rendering:auto;color-interpolation:sRGB"/>
</svg>
