<svg xmlns="http://www.w3.org/2000/svg" viewBox="0 0 16 16">
 <rect width="9.697" height="10.667" x="3.152" y="0.97" style="fill:#5aa9e1;opacity:1;fill-opacity:1;stroke:none;fill-rule:nonzero"/>
 <rect width="9.697" height="3.879" x="3.152" y="11.394" rx="1" style="fill:#a9aeb7;opacity:1;fill-opacity:1;stroke:none;fill-rule:nonzero"/>
 <path d="m 10.5 0.5 -5.894 11.136 8.242 0 0 -11.136 z" style="fill:#fdf6e3;fill-opacity:0.188;stroke:none;fill-rule:evenodd"/>
 <g transform="matrix(0.48484848,0,0,0.48484848,-3.6363636,-490.35743)" style="fill:#073642;fill-opacity:1">
  <path d="m 3.729 0 c -0.395 0 -0.729 0.332 -0.729 0.727 l 0 14.06 c 0 0.033 0.037 0.328 0.197 0.5 c 0.16 0.172 0.378 0.284 0.697 0.379 c 0.639 0.189 1.752 0.334 3.955 0.334 l 0.301 0 c 1.964 0 3.081 -0.154 3.758 -0.334 c 0.338 -0.09 0.567 -0.182 0.742 -0.303 c 0.175 -0.121 0.35 -0.251 0.35 -0.576 l 0 -14.06 c 0 -0.395 -0.334 -0.727 -0.729 -0.727 l -8.543 0 z m 0.271 1 l 8 0 l 0 10 l -8 0 l 0 -10 z m 0.5 10.5 a 0.5 0.5 0 0 1 0.5 0.5 a 0.5 0.5 0 0 1 -0.5 0.5 a 0.5 0.5 0 0 1 -0.5 -0.5 a 0.5 0.5 0 0 1 0.5 -0.5 z m 1.25 0 a 0.5 0.5 0 0 1 0.5 0.5 a 0.5 0.5 0 0 1 -0.5 0.5 a 0.5 0.5 0 0 1 -0.5 -0.5 a 0.5 0.5 0 0 1 0.5 -0.5 z m 1.25 0 a 0.5 0.5 0 0 1 0.5 0.5 a 0.5 0.5 0 0 1 -0.5 0.5 a 0.5 0.5 0 0 1 -0.5 -0.5 a 0.5 0.5 0 0 1 0.5 -0.5 z m 2 0 a 0.5 0.5 0 0 1 0.5 0.5 a 0.5 0.5 0 0 1 -0.5 0.5 a 0.5 0.5 0 0 1 -0.5 -0.5 a 0.5 0.5 0 0 1 0.5 -0.5 z m 1.25 0 a 0.5 0.5 0 0 1 0.5 0.5 a 0.5 0.5 0 0 1 -0.5 0.5 a 0.5 0.5 0 0 1 -0.5 -0.5 a 0.5 0.5 0 0 1 0.5 -0.5 z m 1.25 0 a 0.5 0.5 0 0 1 0.5 0.5 a 0.5 0.5 0 0 1 -0.5 0.5 a 0.5 0.5 0 0 1 -0.5 -0.5 a 0.5 0.5 0 0 1 0.5 -0.5 z m -7 1.5 a 0.5 0.5 0 0 1 0.5 0.5 a 0.5 0.5 0 0 1 -0.5 0.5 a 0.5 0.5 0 0 1 -0.5 -0.5 a 0.5 0.5 0 0 1 0.5 -0.5 z m 1.25 0 a 0.5 0.5 0 0 1 0.5 0.5 a 0.5 0.5 0 0 1 -0.5 0.5 a 0.5 0.5 0 0 1 -0.5 -0.5 a 0.5 0.5 0 0 1 0.5 -0.5 z m 2.25 0 c 0.552 0 1 0.448 1 1 c 0 0.552 -0.448 1 -1 1 c -0.552 0 -1 -0.448 -1 -1 c 0 -0.552 0.448 -1 1 -1 z m 2.25 0 a 0.5 0.5 0 0 1 0.5 0.5 a 0.5 0.5 0 0 1 -0.5 0.5 a 0.5 0.5 0 0 1 -0.5 -0.5 a 0.5 0.5 0 0 1 0.5 -0.5 z m 1.25 0 a 0.5 0.5 0 0 1 0.5 0.5 a 0.5 0.5 0 0 1 -0.5 0.5 a 0.5 0.5 0 0 1 -0.5 -0.5 a 0.5 0.5 0 0 1 0.5 -0.5 z" transform="matrix(2.0625,0,0,2.0625,7.5,1011.3622)" style="color:#000"/>
 </g>
 <path d="m 11 15.836 c 0.359 -0.051 0.673 -0.107 0.908 -0.17 0.036 -0.01 0.058 -0.02 0.092 -0.029 c 0 -5.212 0 -10.424 0 -15.637 l -1 0 c 0 5.279 0 10.557 0 15.836 z" style="fill:#eee8d5;fill-opacity:0.149;stroke:none"/>
</svg>
