<svg xmlns="http://www.w3.org/2000/svg" viewBox="0 0 16 16">
 <rect width="12" height="6.5" x="2" style="fill:#f8e9b8;fill-opacity:1;stroke:none"/>
 <path d="m 1 5.997 c -0.554 0 -1 0.446 -1 1 l 0 6 c 0 0.554 0.446 1 1 1 l 1 0 0 -3 12 0 0 3 1 0 c 0.554 0 1 -0.446 1 -1 l 0 -6 c 0 -0.554 -0.446 -1 -1 -1 l -14 0 z" style="fill:#749ebb;fill-opacity:1;stroke:none"/>
 <rect width="12" height="5" x="2" y="11" style="fill:#f8e9b8;fill-opacity:1;stroke:none"/>
 <rect width="12" height="1" x="2" y="6" style="fill:#55809d;fill-opacity:1;stroke:none"/>
 <rect width="12" height="2.992" x="2" y="8" style="fill:#55809d;fill-opacity:1;stroke:none"/>
 <path d="m 36 25 a 1 1 0 1 1 -2 0 1 1 0 1 1 2 0 z" transform="matrix(0.5,0,0,0.5,-4.508474,-3.4915255)" style="fill:#eee8d5;fill-opacity:1;stroke:none"/>
 <rect width="1" height="8" x="14" y="5.997" style="fill:#eee8d5;opacity:0.311;fill-opacity:1;stroke:none"/>
</svg>
