<svg xmlns="http://www.w3.org/2000/svg" width="16" height="16" viewBox="0 0 12 12">
 <path d="m 2.51 1.875 6.981 0 c 0.351 0 0.635 0.284 0.635 0.635 l 0 6.981 c 0 0.351 -0.284 0.635 -0.635 0.635 l -6.981 0 c -0.351 0 -0.635 -0.284 -0.635 -0.635 l 0 -6.981 c 0 -0.351 0.284 -0.635 0.635 -0.635 z m 0 0" style="stroke-dasharray:none;stroke-opacity:1;fill:#579ccf;stroke-miterlimit:4;fill-opacity:1;stroke:#858585;fill-rule:nonzero;stroke-linecap:butt;stroke-linejoin:miter;stroke-width:0.75"/>
 <path d="m 9 3.375 c 0 0.207 -0.168 0.375 -0.375 0.375 -0.207 0 -0.375 -0.168 -0.375 -0.375 0 -0.207 0.168 -0.375 0.375 -0.375 0.207 0 0.375 0.168 0.375 0.375 z m 0 0" style="fill:#dedede;fill-opacity:1;stroke:none;fill-rule:nonzero"/>
 <path d="m 5.25 8.166 c 0 0.023 -0.008 0.044 -0.022 0.06 -0.015 0.016 -0.033 0.024 -0.057 0.024 l -0.592 0 c -0.022 0 -0.042 -0.009 -0.057 -0.026 -0.016 -0.017 -0.022 -0.036 -0.022 -0.058 l 0 -2.087 c 0 -0.021 0.007 -0.04 0.022 -0.056 0.015 -0.016 0.034 -0.023 0.057 -0.023 l 0.592 0 c 0.024 0 0.044 0.008 0.058 0.021 0.015 0.015 0.021 0.034 0.021 0.058 z m 0 -2.996 c 0 0.023 -0.008 0.043 -0.023 0.059 -0.016 0.015 -0.033 0.021 -0.056 0.021 l -0.587 0 c -0.021 0 -0.04 -0.007 -0.058 -0.021 -0.018 -0.016 -0.026 -0.035 -0.026 -0.059 l 0 -0.591 c 0 -0.021 0.009 -0.039 0.026 -0.056 0.018 -0.015 0.036 -0.023 0.058 -0.023 l 0.587 0 c 0.022 0 0.04 0.008 0.056 0.023 0.016 0.016 0.023 0.034 0.023 0.056 z" style="fill:#fff;fill-opacity:1;stroke:none;fill-rule:nonzero"/>
 <path d="m 8.25 5.171 c 0 0.023 -0.023 0.084 -0.071 0.182 l -1.257 2.823 c -0.015 0.029 -0.028 0.049 -0.044 0.06 -0.015 0.011 -0.036 0.016 -0.063 0.016 l -0.663 0 c -0.037 0 -0.056 -0.021 -0.056 -0.061 0 -0.01 0.004 -0.021 0.01 -0.034 l 1.324 -2.878 l 0 -0.008 c 0 -0.005 -0.001 -0.01 -0.004 -0.014 -0.003 -0.004 -0.008 -0.006 -0.016 -0.006 l -1.331 0 c -0.021 0 -0.039 -0.007 -0.055 -0.021 -0.017 -0.015 -0.024 -0.031 -0.024 -0.051 l 0 -0.603 c 0 -0.021 0.008 -0.038 0.024 -0.054 0.016 -0.014 0.034 -0.021 0.055 -0.021 l 2.01 0 c 0.044 0 0.081 0.016 0.111 0.047 0.031 0.03 0.047 0.068 0.047 0.111 z" style="fill:#fff;fill-opacity:1;stroke:none;fill-rule:nonzero"/>
 <path d="m 7.5 1.5 0.75 0 0 9 -0.75 0 z m 0 0" style="fill:#fff;fill-opacity:0.259;stroke:none;fill-rule:nonzero"/>
 <path d="m 9 2.25 0 -1.5 0.75 0 0 1.5 z m 0 0" style="fill:#858585;fill-opacity:1;stroke:none;fill-rule:nonzero"/>
 <path d="m 4.5 2.25 0 -1.5 0.75 0 0 1.5 z m 0 0" style="fill:#858585;fill-opacity:1;stroke:none;fill-rule:nonzero"/>
 <path d="m 6.75 2.25 0 -1.5 0.75 0 0 1.5 z m 0 0" style="fill:#858585;fill-opacity:1;stroke:none;fill-rule:nonzero"/>
 <path d="m 2.25 2.25 0 -1.5 0.75 0 0 1.5 z m 0 0" style="fill:#858585;fill-opacity:1;stroke:none;fill-rule:nonzero"/>
 <path d="m 9 11.25 0 -1.5 0.75 0 0 1.5 z m 0 0" style="fill:#858585;fill-opacity:1;stroke:none;fill-rule:nonzero"/>
 <path d="m 4.5 11.25 0 -1.5 0.75 0 0 1.5 z m 0 0" style="fill:#858585;fill-opacity:1;stroke:none;fill-rule:nonzero"/>
 <path d="m 6.75 11.25 0 -1.5 0.75 0 0 1.5 z m 0 0" style="fill:#858585;fill-opacity:1;stroke:none;fill-rule:nonzero"/>
 <path d="m 2.25 11.25 0 -1.5 0.75 0 0 1.5 z m 0 0" style="fill:#858585;fill-opacity:1;stroke:none;fill-rule:nonzero"/>
 <path d="m 0.75 9 1.5 0 0 0.75 -1.5 0 z m 0 0" style="fill:#858585;fill-opacity:1;stroke:none;fill-rule:nonzero"/>
 <path d="m 0.75 4.5 1.5 0 0 0.75 -1.5 0 z m 0 0" style="fill:#858585;fill-opacity:1;stroke:none;fill-rule:nonzero"/>
 <path d="m 0.75 6.75 1.5 0 0 0.75 -1.5 0 z m 0 0" style="fill:#858585;fill-opacity:1;stroke:none;fill-rule:nonzero"/>
 <path d="m 0.75 2.25 1.5 0 0 0.75 -1.5 0 z m 0 0" style="fill:#858585;fill-opacity:1;stroke:none;fill-rule:nonzero"/>
 <path d="m 9.75 9 1.5 0 0 0.75 -1.5 0 z m 0 0" style="fill:#858585;fill-opacity:1;stroke:none;fill-rule:nonzero"/>
 <path d="m 9.75 4.5 1.5 0 0 0.75 -1.5 0 z m 0 0" style="fill:#858585;fill-opacity:1;stroke:none;fill-rule:nonzero"/>
 <path d="m 9.75 6.75 1.5 0 0 0.75 -1.5 0 z m 0 0" style="fill:#858585;fill-opacity:1;stroke:none;fill-rule:nonzero"/>
 <path d="m 9.75 2.25 1.5 0 0 0.75 -1.5 0 m 0 -0.75" style="fill:#858585;fill-opacity:1;stroke:none;fill-rule:nonzero"/>
</svg>
