<?xml version="1.0"?>
<svg xmlns="http://www.w3.org/2000/svg" xmlns:xlink="http://www.w3.org/1999/xlink" version="1.1" id="Capa_1" x="0px" y="0px" viewBox="0 0 512 512" style="enable-background:new 0 0 512 512;" xml:space="preserve" width="512px" height="512px"><g><g>
	<g>
		<path d="M384,64h-42.667V10.68c0-5.903-4.063-10.68-9.958-10.68H181.333c-5.896,0-10.667,4.777-10.667,10.68V64H128    c-23.531,0-42.667,18.62-42.667,42.18v363.103C85.333,492.842,104.469,512,128,512h256c23.531,0,42.667-19.158,42.667-42.718    V106.18C426.667,82.62,407.531,64,384,64z M339.75,272.26l-85.333,138.667c-1.979,3.208-5.448,5.073-9.083,5.073    c-0.969,0-1.938-0.135-2.906-0.406c-4.594-1.292-7.76-5.49-7.76-10.26V320h-53.333c-3.865,0-7.427-2.094-9.313-5.458    c-1.885-3.375-1.802-7.51,0.229-10.802l85.333-138.667c2.5-4.063,7.406-5.927,11.99-4.667c4.594,1.292,7.76,5.49,7.76,10.26V256    h53.333c3.865,0,7.427,2.094,9.313,5.458C341.865,264.833,341.781,268.969,339.75,272.26z" data-original="#000000" class="active-path" data-old_color="#000000" fill="#FFFFFF"/>
	</g>
</g></g> </svg>
