<?xml version="1.0" encoding="UTF-8" standalone="no"?>
<svg
   xmlns:dc="http://purl.org/dc/elements/1.1/"
   xmlns:cc="http://creativecommons.org/ns#"
   xmlns:rdf="http://www.w3.org/1999/02/22-rdf-syntax-ns#"
   xmlns:svg="http://www.w3.org/2000/svg"
   xmlns="http://www.w3.org/2000/svg"
   xmlns:sodipodi="http://sodipodi.sourceforge.net/DTD/sodipodi-0.dtd"
   xmlns:inkscape="http://www.inkscape.org/namespaces/inkscape"
   width="240"
   height="240"
   version="1.1"
   viewBox="0 0 63.49875 63.49875"
   id="svg38"
   sodipodi:docname="graphics.svg"
   inkscape:version="0.92.4 5da689c313, 2019-01-14">
  <metadata
     id="metadata44">
    <rdf:RDF>
      <cc:Work
         rdf:about="">
        <dc:format>image/svg+xml</dc:format>
        <dc:type
           rdf:resource="http://purl.org/dc/dcmitype/StillImage" />
        <dc:title></dc:title>
      </cc:Work>
    </rdf:RDF>
  </metadata>
  <defs
     id="defs42" />
  <sodipodi:namedview
     pagecolor="#ffffff"
     bordercolor="#666666"
     borderopacity="1"
     objecttolerance="10"
     gridtolerance="10"
     guidetolerance="10"
     inkscape:pageopacity="0"
     inkscape:pageshadow="2"
     inkscape:window-width="1321"
     inkscape:window-height="740"
     id="namedview40"
     showgrid="false"
     inkscape:pagecheckerboard="true"
     inkscape:zoom="0.4609375"
     inkscape:cx="-372.69869"
     inkscape:cy="-33.755786"
     inkscape:window-x="45"
     inkscape:window-y="28"
     inkscape:window-maximized="0"
     inkscape:current-layer="svg38" />
  <g
     id="g869"
     transform="matrix(3.7035768,0,0,3.7035768,0.39191984,-172.06708)">
    <g
       style="stroke-width:0.96313"
       id="g26"
       transform="matrix(1.0382,0,0,1.0384,-0.32156,46.24383)">
      <path
         inkscape:connector-curvature="0"
         id="path2"
         style="isolation:isolate;fill:#46a926"
         d="m 13.323,3.603 c -0.048,0.049 2.02,4.86 2.02,4.86 l -2.02,4.858 c 0,0 -4.86,-2.568 -4.86,-4.859 0,-2.29 4.86,-4.859 4.86,-4.859 z" />
      <path
         inkscape:connector-curvature="0"
         id="path4"
         style="isolation:isolate;fill:#f22c42"
         d="M 3.604,13.321 C 3.653,13.272 1.584,8.462 1.584,8.462 l 2.02,-4.859 c 0,0 4.86,2.569 4.86,4.86 0,2.29 -4.86,4.858 -4.86,4.858 z" />
      <path
         inkscape:connector-curvature="0"
         id="path6"
         style="isolation:isolate;fill:#ffda64"
         d="M 13.323,3.603 C 13.275,3.652 8.463,1.584 8.463,1.584 l -4.86,2.019 4.86,4.86 z" />
      <path
         inkscape:connector-curvature="0"
         id="path8"
         style="isolation:isolate;fill:#2f5fdd"
         d="m 3.604,13.321 4.86,2.013 c 0,0 4.81,-2.062 4.86,-2.013 L 8.464,8.462 Z" />
      <path
         inkscape:connector-curvature="0"
         id="path10"
         style="isolation:isolate;fill:#a6d74f"
         d="M 8.464,1.587 C 8.463,3.345 9.136,5.103 10.483,6.449 L 13.328,3.605 A 6.88,6.88 0 0 0 8.467,1.587 Z" />
      <path
         inkscape:connector-curvature="0"
         id="path12"
         style="isolation:isolate;fill:#76c22b"
         d="M 13.328,3.605 10.483,6.449 A 6.84,6.84 0 0 0 15.346,8.461 6.88,6.88 0 0 0 13.328,3.605 Z" />
      <path
         inkscape:connector-curvature="0"
         id="path14"
         style="isolation:isolate;fill:#1463a5"
         d="m 10.476,10.481 a 6.85,6.85 0 0 0 -2.019,4.862 h 0.069 a 6.88,6.88 0 0 0 4.8,-2.013 z" />
      <path
         inkscape:connector-curvature="0"
         id="path16"
         style="isolation:isolate;fill:#2b898f"
         d="m 15.346,8.469 a 6.84,6.84 0 0 0 -4.87,2.012 l 2.85,2.85 a 6.88,6.88 0 0 0 2.02,-4.862 z" />
      <path
         inkscape:connector-curvature="0"
         id="path18"
         style="isolation:isolate;fill:#9b33ae"
         d="m 1.587,8.463 a 6.88,6.88 0 0 0 0,0.003 6.88,6.88 0 0 0 2.014,4.857 l 2.85,-2.848 A 6.839,6.839 0 0 0 1.587,8.464 Z" />
      <path
         inkscape:connector-curvature="0"
         id="path20"
         style="isolation:isolate;fill:#7839b7"
         d="M 6.45,10.475 3.6,13.323 a 6.88,6.88 0 0 0 4.826,2.02 H 8.469 A 6.85,6.85 0 0 0 6.45,10.475 Z" />
      <path
         inkscape:connector-curvature="0"
         id="path22"
         style="isolation:isolate;fill:#fdc92b"
         d="M 8.467,1.587 A 6.88,6.88 0 0 0 3.609,3.602 l 2.848,2.847 a 6.85,6.85 0 0 0 2.019,-4.861 6.88,6.88 0 0 0 -0.01,0 z" />
      <path
         inkscape:connector-curvature="0"
         id="path24"
         style="isolation:isolate;fill:#f34f17"
         d="M 3.609,3.602 A 6.88,6.88 0 0 0 1.588,8.461 6.84,6.84 0 0 0 6.457,6.449 Z" />
    </g>
    <circle
       id="circle28"
       style="opacity:0.35;fill:#ffffff;paint-order:fill markers stroke"
       r="5.2916002"
       cy="55.032249"
       cx="8.4665003" />
    <g
       transform="translate(0,46.56575)"
       style="fill:#ffffff"
       id="g36">
      <path
         inkscape:connector-curvature="0"
         id="path30"
         style="color:#000000;overflow:visible;opacity:0.5;isolation:auto;mix-blend-mode:normal;paint-order:fill markers stroke"
         overflow="visible"
         d="m 9.59,9.589 a 1.588,1.588 0 0 1 -2.246,0 1.588,1.588 0 0 1 0,-2.245 1.588,1.588 0 0 1 2.245,0 1.588,1.588 0 0 1 0,2.245 z" />
      <path
         inkscape:connector-curvature="0"
         id="path32"
         style="color:#000000;overflow:visible;isolation:auto;mix-blend-mode:normal;paint-order:fill markers stroke"
         overflow="visible"
         d="M 8.467,4.031 A 0.126,0.126 0 0 0 8.379,4.069 L 6.277,6.171 a 3.175,3.175 0 0 0 -0.056,0.05 3.175,3.175 0 0 0 0,4.49 3.175,3.175 0 0 0 4.49,0 3.175,3.175 0 0 0 10e-4,-4.49 3.175,3.175 0 0 0 -0.076,-0.07 C 10.632,6.146 10.631,6.141 10.626,6.136 L 8.559,4.069 A 0.126,0.126 0 0 0 8.467,4.031 Z M 8.49,6.879 a 1.588,1.588 0 0 1 1.1,0.465 1.588,1.588 0 0 1 0,2.245 1.588,1.588 0 0 1 -2.246,0 1.588,1.588 0 0 1 0,-2.245 1.588,1.588 0 0 1 1.146,-0.465 z" />
      <path
         inkscape:connector-curvature="0"
         id="path34"
         style="color:#000000;overflow:visible;isolation:auto;mix-blend-mode:normal;paint-order:fill markers stroke"
         overflow="visible"
         d="M 9.022,7.718 8.461,8.279 7.9,7.718 7.712,7.905 8.274,8.466 7.724,9.039 7.9,9.215 8.46,8.653 9.022,9.215 9.221,9.039 8.648,8.466 9.209,7.906 Z" />
    </g>
  </g>
</svg>
