<?xml version="1.0" encoding="UTF-8" standalone="no"?>
<svg
   xmlns:dc="http://purl.org/dc/elements/1.1/"
   xmlns:cc="http://creativecommons.org/ns#"
   xmlns:rdf="http://www.w3.org/1999/02/22-rdf-syntax-ns#"
   xmlns:svg="http://www.w3.org/2000/svg"
   xmlns="http://www.w3.org/2000/svg"
   xmlns:sodipodi="http://sodipodi.sourceforge.net/DTD/sodipodi-0.dtd"
   xmlns:inkscape="http://www.inkscape.org/namespaces/inkscape"
   width="240"
   height="240"
   version="1.1"
   viewBox="0 0 63.49875 63.49875"
   id="svg14"
   sodipodi:docname="sandbox.svg"
   inkscape:version="0.92.4 5da689c313, 2019-01-14">
  <metadata
     id="metadata20">
    <rdf:RDF>
      <cc:Work
         rdf:about="">
        <dc:format>image/svg+xml</dc:format>
        <dc:type
           rdf:resource="http://purl.org/dc/dcmitype/StillImage" />
        <dc:title></dc:title>
      </cc:Work>
    </rdf:RDF>
  </metadata>
  <defs
     id="defs18" />
  <sodipodi:namedview
     pagecolor="#ffffff"
     bordercolor="#666666"
     borderopacity="1"
     objecttolerance="10"
     gridtolerance="10"
     guidetolerance="10"
     inkscape:pageopacity="0"
     inkscape:pageshadow="2"
     inkscape:window-width="1321"
     inkscape:window-height="740"
     id="namedview16"
     showgrid="false"
     inkscape:pagecheckerboard="true"
     inkscape:zoom="3.6875"
     inkscape:cx="36.909869"
     inkscape:cy="25.400542"
     inkscape:window-x="45"
     inkscape:window-y="28"
     inkscape:window-maximized="0"
     inkscape:current-layer="svg14" />
  <g
     transform="matrix(3.6647708,0,0,3.6647708,0.72159302,0.72159302)"
     id="g12">
    <g
       id="g8"
       style="fill-rule:evenodd;stroke-width:0.015243">
      <path
         d="M 8.4658,15.671 15.081,11.9324 15.03597,4.8992 8.46587,8.4994 Z"
         id="path2"
         inkscape:connector-curvature="0"
         style="fill:#3585f3" />
      <path
         d="M 8.4672,15.686 1.852,11.9474 1.897025,4.9142 l 6.5701,3.6002 z"
         id="path4"
         inkscape:connector-curvature="0"
         style="fill:#1c69d0" />
      <path
         d="M 1.878,4.9333 8.4985,1.247 15.0603,4.9348 8.463,8.5494 Z"
         id="path6"
         inkscape:connector-curvature="0"
         style="fill:#5997f3" />
    </g>
    <path
       d="M 9.4829,5.2897 C 9.431373,5.334381 9.33801,5.339732 9.27446,5.301327 L 8.57051,4.875727 C 8.513027,4.840976 8.498837,4.781903 8.537883,4.737177 l 0.60212,-0.70525 -2.1207,1.4692 C 6.969247,5.535652 6.890143,5.539698 6.831653,5.509197 6.828213,5.507417 6.825243,5.505997 6.821803,5.503857 6.77048,5.472819 6.75266,5.421671 6.779829,5.378127 l 0.70895,-1.1658 -0.93877,0.2713 C 6.493582,4.500012 6.426439,4.490157 6.385229,4.456647 6.342315,4.423878 6.331602,4.376278 6.357371,4.336607 l 0.40426,-0.6147 -0.86581,-0.52345 C 5.83256,3.16026 5.822831,3.092487 5.874299,3.047867 5.926004,3.003038 6.019599,2.998079 6.082829,3.036311 l 0.95538,0.57763 c 0.052678,0.031851 0.069763,0.085154 0.040742,0.12891 l -0.28859,0.43888 0.92318,-0.26653 c 0.05581,-0.016515 0.12159,-0.007 0.16307,0.025497 0.042617,0.031702 0.054837,0.07859 0.031405,0.11841 l -0.55304,0.9093 2.427,-1.6807 c 0.052868,-0.03685 0.13647,-0.038571 0.19555,-0.00394 0.060188,0.042972 0.073132,0.09461 0.034442,0.13999 l -1.1542,1.3504 0.60392,0.36512 c 0.06332,0.038334 0.072669,0.10582 0.021202,0.15045 z M 10.18461,5.57636 9.821,5.35653 C 9.75781,5.318327 9.66398,5.323488 9.61251,5.368157 c -0.051527,0.044681 -0.041739,0.1124 0.021451,0.1506 l 0.36361,0.21983 c 0.063059,0.038132 0.15695,0.033102 0.20849,-0.011627 0.0515,-0.044657 0.04162,-0.11247 -0.02145,-0.1506 z m 0.78297,0.47337 -0.38695,-0.23394 c -0.06306,-0.038132 -0.15702,-0.033042 -0.20848,0.011627 -0.05154,0.044681 -0.04162,0.11247 0.02145,0.1506 l 0.38695,0.23394 c 0.06302,0.038096 0.15695,0.033102 0.20848,-0.011627 0.0515,-0.044657 0.04157,-0.1125 -0.02145,-0.1506 z"
       id="path10"
       inkscape:connector-curvature="0"
       style="fill:#ffffff;stroke-width:0.044893" />
  </g>
</svg>
