<!-- Generator: Adobe Illustrator 15.1.0, SVG Export Plug-In . SVG Version: 6.00 Build 0)  -->
<svg xmlns="http://www.w3.org/2000/svg" viewBox="0 0 16 16" style="enable-background:new 0 0 24 24">
 <polygon points="16.033,8.347 22.172,0.866 22.76,1.286 18.162,10.28 " transform="matrix(0.64210641,0,0,0.64213625,0.29472305,0.53484503)" style="fill:#ececec;opacity:0.4;fill-opacity:1"/>
 <path d="m 3.682 7.136 -2.591 0.864 0 -0.864 2.591 -2.248 0.863 0.52 2.988 7.351 -2.124 1.286 z" style="fill:#ececec;fill-opacity:1"/>
 <polyline points="22.76,22.08 18.725,12.97 17.379,11.625 10.359,17.238 11.273,19.037 22.354,22.385     22.723,22.385   " transform="matrix(0.64210641,0,0,0.64213625,0.29472305,0.53484503)" style="fill:#ececec;opacity:0.4;fill-opacity:1"/>
 <path d="m 7.64 9.726 -1.349 -2.59 1.709 -0.864 c 0.863 0 2.59 0.864 2.59 0.864 l -2.95 2.59" style="fill:#ececec;opacity:0.4;fill-opacity:1"/>
</svg>
