<!-- Generator: Adobe Illustrator 15.1.0, SVG Export Plug-In . SVG Version: 6.00 Build 0)  -->
<svg xmlns="http://www.w3.org/2000/svg" viewBox="0 0 16 16" style="enable-background:new 0 0 24 24">
 <polygon points="18.162,10.28 16.033,8.347 22.172,0.866 22.76,1.286 " transform="matrix(0.64210641,0,0,0.64213625,0.294722,0.5348848)" style="fill:#ececec;opacity:0.4;fill-opacity:1"/>
 <path d="m 3.682 7.136 -2.591 0.864 0 -0.864 2.591 -2.248 0.863 0.52 1.494 3.676 -1.493 1.507 z" style="fill:#ececec;fill-opacity:1"/>
 <path d="m 3.682 4.888 -2.591 2.249 0 0.864 2.591 -0.864 0.864 3.455 0.864 3.455 2.124 -1.286 0 -0.002 7.115 2.151 0.237 0 0.024 -0.196 l -2.591 -5.849 -0.864 -0.864 -4.42 3.533 -0.996 -2.449 -1.493 -3.676" style="fill:#ececec;opacity:0.4;fill-opacity:1"/>
 <path d="m 7.64 9.726 -1.349 -2.59 1.709 -0.864 c 0.863 0 2.59 0.864 2.59 0.864 l -2.95 2.59 z" style="fill:#ececec;opacity:0.4;fill-opacity:1"/>
</svg>
