<!-- Generator: Adobe Illustrator 15.1.0, SVG Export Plug-In . SVG Version: 6.00 Build 0)  -->
<svg xmlns="http://www.w3.org/2000/svg" viewBox="0 0 16 16" style="enable-background:new 0 0 24 24">
 <g transform="matrix(0.64210641,0,0,0.64213625,0.29472291,0.53484533)" style="fill:#ececec;fill-opacity:1">
  <path d="m 19.98 1.5 -5.42 6.605 1.879 1.707 4.061 -7.941 -0.52 -0.371 m -14.918 5.221 -3.563 3.092 0 1.188 3.563 -1.188 1.938 7.75 0 -2.063 l 2 0 0 -1 -2 0 0 -5 0.088 0 l -0.838 -2.064 -1.188 -0.715 m 8.938 2.842 0 0.742 0.561 -0.492 c 0 0 -0.384 -0.167 -0.561 -0.25 z m 1.75 1.438 -1.75 1.398 0 3.102 l 2 0 0 3.748 4.141 1.252 0.326 0 l 0.033 -0.27 -3.563 -8.04 -1.188 -1.188" transform="matrix(1.1326316,0,0,1.1325789,-0.45894734,-0.83286838)"/>
 </g>
 <g transform="matrix(0.72727,0,0,0.72727,2.9913052e-5,8.7272704)">
  <path d="m 10.5 -4 0 2 l 2 0 0 -2 z" style="fill:#ececec;fill-opacity:1;stroke:none"/>
  <path d="m 8.5 7 0 -2 2 0 0 -4 -2 0 0 -2 4 0 0 6 2 0 0 2 z" style="fill:#ececec;fill-opacity:1;stroke:none"/>
 </g>
</svg>
