<svg xmlns="http://www.w3.org/2000/svg" width="16" viewBox="0 0 4.5155557 4.5155557" height="16">
 <path d="m 2.053 1.643 c -0.11 0 -0.205 0.105 -0.205 0.205 l 0 1.025 c 0 0.106 0.064 0.205 0.205 0.205 l 0.616 0 0 0.489 0.411 0 0 -0.489 0.616 0 c 0.132 0 0.205 -0.089 0.205 -0.205 l 0 -1.025 c 0 -0.101 -0.081 -0.205 -0.205 -0.205 z m 0.411 0.41 0.821 0 c 0.113 0 0.205 0.079 0.205 0.205 l 0 0.205 c 0 0.104 -0.079 0.205 -0.205 0.205 l -0.821 0 c -0.127 0 -0.205 -0.085 -0.205 -0.205 l 0 -0.205 c 0 -0.114 0.086 -0.205 0.205 -0.205 z m -0.411 1.438 0 0.41 1.642 0 0 -0.41 z" style="fill:#ececec;fill-opacity:1;color:#000"/>
 <path d="m 0.821 0.614 c -0.205 0 -0.205 0.205 -0.205 0.205 l 0 1.232 c 0 0 0 0.205 0.205 0.205 l 0.616 0 0 0.406 -0.616 0 0 0.411 0.821 0 0 -1.227 -0.411 0 c -0.113 0 -0.205 -0.095 -0.205 -0.205 l 0 -0.411 c 0 -0.116 0.092 -0.205 0.205 -0.205 l 0.821 0 c 0.123 0 0.205 0.087 0.205 0.205 l 0 0.205 0.411 0 0 -0.616 c 0 -0.205 -0.205 -0.205 -0.205 -0.205 z" style="fill:#ececec;fill-opacity:1;color:#000"/>
</svg>
