<svg xmlns="http://www.w3.org/2000/svg" viewBox="0 0 16 16" style="enable-background:new 0 0 512 512">
 <path d="m 9.41 8 c 0 0.746 -0.605 1.35 -1.35 1.35 -0.746 0 -1.35 -0.605 -1.35 -1.35 0 -0.746 0.605 -1.35 1.35 -1.35 0.746 0 1.35 0.605 1.35 1.35 z m 4.771 -0.22 c 0 0 -2.191 4.22 -6.174 4.22 -3.699 0 -6.189 -4.22 -6.189 -4.22 0 0 2.291 -3.78 6.189 -3.78 3.964 0 6.174 3.78 6.174 3.78 z m -3.721 0.22 c 0 -1.326 -1.075 -2.401 -2.401 -2.401 -1.326 0 -2.401 1.075 -2.401 2.401 0 1.326 1.075 2.401 2.401 2.401 1.326 0 2.401 -1.075 2.401 -2.401 z" style="fill:#ececec;fill-opacity:1"/>
</svg>
