<svg xmlns="http://www.w3.org/2000/svg" viewBox="0 0 16 16">
 <path d="m 1.455 2.909 c -0.201 0 -0.364 0.163 -0.364 0.364 l 0 9.455 c 0 0.201 0.163 0.364 0.364 0.364 l 8.727 0 c 0.201 0 0.364 -0.163 0.364 -0.364 l 0 -2.321 3.838 1.919 c 0.242 0.12 0.525 -0.055 0.526 -0.325 l 0 -8 c 0 -0.27 -0.284 -0.445 -0.526 -0.325 l -3.838 1.919 0 -2.321 c 0 -0.201 -0.163 -0.364 -0.364 -0.364 l -8.727 0 z m 4.364 1.455 c 0.299 0 0.545 0.247 0.545 0.545 0 0.299 -0.247 0.545 -0.545 0.545 -0.299 0 -0.545 -0.247 -0.545 -0.545 c 0 -0.299 0.247 -0.545 0.545 -0.545 m -2.186 0.906 c 0.14 0 0.281 0.054 0.386 0.159 0.211 0.211 0.211 0.56 0 0.771 -0.211 0.211 -0.56 0.211 -0.771 0 -0.211 -0.211 -0.211 -0.56 0 -0.771 c 0.106 -0.106 0.245 -0.159 0.385 -0.159 m 4.372 0 c 0.14 0 0.279 0.054 0.385 0.159 0.211 0.211 0.211 0.56 0 0.771 -0.211 0.211 -0.56 0.211 -0.771 0 -0.211 -0.211 -0.211 -0.56 0 -0.771 c 0.106 -0.106 0.246 -0.159 0.386 -0.159 m -5.277 2.185 c 0.299 0 0.545 0.247 0.545 0.545 0 0.299 -0.247 0.545 -0.545 0.545 c -0.299 0 -0.545 -0.247 -0.545 -0.545 0 -0.299 0.247 -0.545 0.545 -0.545 m 6.182 0 c 0.299 0 0.545 0.247 0.545 0.545 0 0.299 -0.247 0.545 -0.545 0.545 -0.299 0 -0.545 -0.247 -0.545 -0.545 c 0 -0.299 0.247 -0.545 0.545 -0.545 z m -5.277 2.187 c 0.14 0 0.281 0.052 0.386 0.158 0.211 0.211 0.211 0.56 0 0.771 -0.211 0.211 -0.56 0.211 -0.771 0 -0.211 -0.211 -0.211 -0.56 0 -0.771 0.106 -0.106 0.245 -0.158 0.385 -0.158 z m 4.372 0 c 0.14 0 0.279 0.052 0.385 0.158 0.211 0.211 0.211 0.56 0 0.771 -0.211 0.211 -0.56 0.211 -0.771 0 -0.211 -0.211 -0.211 -0.56 0 -0.771 0.106 -0.106 0.246 -0.158 0.386 -0.158 z m -2.186 0.903 c 0.299 0 0.545 0.247 0.545 0.545 0 0.299 -0.247 0.545 -0.545 0.545 -0.299 0 -0.545 -0.247 -0.545 -0.545 0 -0.299 0.247 -0.545 0.545 -0.545 z" mix-blend-mode="normal" isolation="auto" white-space="normal" solid-opacity="1" solid-color="#000000" style="visibility:visible;shape-rendering:auto;color-interpolation-filters:linearRGB;fill:#ececec;opacity:1;image-rendering:auto;fill-opacity:1;stroke:none;display:inline;color:#000;fill-rule:evenodd;color-rendering:auto;color-interpolation:sRGB"/>
</svg>
