<svg xmlns="http://www.w3.org/2000/svg" viewBox="-1 -1 16.355555 16.293578" height="16" width="16" style="enable-background:new 0 0 90 109">
 <path transform="matrix(1.0222222,0,0,1.0222221,-1,-1.0309881)" d="m 8 1 c -2.209 0 -4 1.791 -4 4 l 0 2 l -1 0 c -0.552 0 -1 0.448 -1 1 l 0 6 c 0 0.552 0.448 1 1 1 l 10 0 c 0.552 0 1 -0.448 1 -1 l 0 -6 c 0 -0.552 -0.448 -1 -1 -1 l -1 0 l 0 -2 c 0 -2.209 -1.791 -4 -4 -4 z m 0 2 c 1.105 0 2 0.895 2 2 c 0 0.471 -0.101 0.842 -0.234 1.107 c -0.133 0.265 -0.429 0.619 -0.766 0.893 c -0.329 0.267 -1 0.607 -1 0.607 c 0 0 0.306 -0.371 0.43 -0.656 c -0.141 0.032 -0.285 0.049 -0.43 0.049 c -1.105 0.001 -2 -0.895 -2 -2 c 0 -1.105 0.895 -2 2 -2 z m 0 5 a 3 3 0 0 1 3 3 a 3 3 0 0 1 -3 3 a 3 3 0 0 1 -3 -3 a 3 3 0 0 1 3 -3 z m 1 1.27 l 0 3.459 a 2 2 0 0 0 1 -1.729 a 2 2 0 0 0 -1 -1.73 z m -2 0.002 a 2 2 0 0 0 -1 1.729 a 2 2 0 0 0 1 1.73 l 0 -3.459 z" style="stroke-dasharray:none;fill:#ececec;opacity:1;stroke-miterlimit:4;fill-opacity:1;stroke-linecap:round;stroke-linejoin:round;stroke-width:0.709;stroke-dashoffset:0"/>
</svg>
