<svg xmlns="http://www.w3.org/2000/svg" viewBox="0 0 16 16">
 <g transform="translate(0,-32)">
  <path d="m 14.826 33.17 c -0.457 -0.457 -1.69 0 -2.907 1.217 l -1.789 1.789 -7.69 -1.623 c -0.553 -0.104 -0.713 -0.108 -0.992 0.167 -0.655 0.655 -0.655 0.655 0.422 1.279 l 5.589 2.848 -3.078 3.078 -2.431 -0.466 c -0.285 -0.06 -0.28 -0.081 -0.458 0.097 l -0.176 0.176 c -0.269 0.269 0.134 0.587 0.134 0.587 l 2.504 1.723 1.723 2.504 c 0 0 0.318 0.403 0.587 0.134 l 0.176 -0.176 c 0.178 -0.178 0.157 -0.173 0.097 -0.458 l -0.466 -2.431 3.078 -3.078 2.848 5.589 c 0.624 1.077 0.624 1.076 1.279 0.422 0.274 -0.279 0.271 -0.438 0.167 -0.992 l -1.623 -7.69 1.789 -1.789 c 1.217 -1.217 1.674 -2.45 1.217 -2.907 z" style="fill:#bebebe;fill-opacity:1;stroke:none"/>
 </g>
</svg>
