<svg xmlns="http://www.w3.org/2000/svg" viewBox="0 0 16 16">
 <path d="M 6,2 2,6 2,10 6,14 6,9 7,8 6,7 Z" style="fill:#bebebe"/>
 <path d="m 1.3 5 c -1.083 0 -1.3 1.163 -1.3 2.4 l 0 1.2 c 0 1.237 0.243 2.4 1.3 2.4 l 1.7 0 0 -6" style="fill:#bebebe"/>
 <path d="m 13.14 1 -1.414 1.414 c 1.082 1.082 2.264 3.033 2.274 5.586 c 0 2.551 -1.193 4.506 -2.274 5.586 l 1.414 1.414 c 1.455 -1.455 2.879 -4 2.859 -7 0.035 -3 -1.405 -5.546 -2.859 -7" style="fill:#bebebe;opacity:1;fill-opacity:1;stroke:none;fill-rule:evenodd"/>
 <path d="m 11 3.116 -1.41 1.41 c 0.783 0.783 1.41 2.043 1.41 3.474 0 1.431 -0.627 2.691 -1.41 3.474 l 1.41 1.41 c 1.276 -1.276 2 -3.03 2 -4.884 0 -1.846 -0.727 -3.611 -2 -4.884" style="fill:#bebebe;opacity:1;fill-opacity:1;stroke:none;fill-rule:evenodd"/>
 <path d="m 8.629 5 -1.42 1.41 c 0.791 0.647 0.791 1.396 0.791 1.59 0 0.193 -0.018 0.941 -0.791 1.59 l 1.42 1.41 c 1.218 -1.047 1.371 -2.402 1.371 -3 0 -0.6 -0.146 -1.937 -1.371 -3" style="fill:#bebebe;opacity:1;fill-opacity:1;stroke:none;fill-rule:evenodd"/>
</svg>
