<svg xmlns="http://www.w3.org/2000/svg" viewBox="0 0 16 16">
 <path d="m 5 0 l 0 2 l -3 0 l 0 14 l 12 0 l 0 -14 l -3 0 l 0 -2 l -6 0 z m -0.375 5 c 0.147 0.001 0.283 0.033 0.406 0.063 c 0.019 0.002 0.043 -0.002 0.063 0 c 0.14 0.021 0.28 0.06 0.406 0.125 c 0.009 0.004 0.022 -0.005 0.031 0 c 0.024 0.013 0.039 0.047 0.063 0.063 c 0.044 0.029 0.053 0.057 0.094 0.094 c 0.059 0.053 0.135 0.114 0.188 0.188 c 0.363 0.337 0.714 0.679 1.063 1.031 c 0.005 0.005 0.026 -0.005 0.031 0 c 0.345 0.345 0.694 0.709 1.031 1.063 c 0.347 -0.354 0.683 -0.71 1.031 -1.063 c 0.348 -0.352 0.699 -0.694 1.063 -1.031 c 0.192 -0.266 0.456 -0.381 0.719 -0.438 c 0.03 -0.01 0.063 -0.023 0.094 -0.031 c 0.074 -0.022 0.17 -0.02 0.25 -0.031 c 0.224 -0.028 0.456 -0.024 0.781 0.031 c 0.057 0.407 0.067 0.745 0 1.031 c -0.002 0.01 0.002 0.022 0 0.031 c -0.02 0.141 -0.057 0.247 -0.125 0.375 c -0.039 0.074 -0.064 0.148 -0.125 0.219 c -0.055 0.066 -0.11 0.124 -0.188 0.188 l -2.125 2.094 l 1.063 1.063 c 0.353 0.348 0.725 0.7 1.063 1.063 c 0.296 0.213 0.391 0.484 0.438 0.781 c 0.013 0.083 0.028 0.164 0.031 0.25 c 0.028 0.224 0.024 0.487 -0.031 0.813 c -0.178 0.025 -0.318 0.029 -0.469 0.031 c -0.18 0.007 -0.36 -0.009 -0.531 -0.031 c -0.152 -0.019 -0.3 -0.053 -0.438 -0.125 c -0.078 -0.04 -0.149 -0.093 -0.219 -0.156 c -0.059 -0.053 -0.135 -0.114 -0.188 -0.188 l -2.094 -2.094 l -2.125 2.094 c -0.063 0.077 -0.122 0.133 -0.188 0.188 c -0.248 0.223 -0.526 0.27 -0.844 0.281 c -0.01 0.001 -0.021 -0.001 -0.031 0 c -0.065 0.006 -0.118 0.03 -0.188 0.031 c -0.027 0 -0.066 0 -0.094 0 c -0.15 -0.002 -0.322 -0.006 -0.5 -0.031 c -0.003 -0.175 -0.025 -0.352 -0.031 -0.531 c -0.001 -0.052 -0.003 -0.108 0 -0.156 c 0 -0.105 0.019 -0.211 0.031 -0.313 c 0.019 -0.162 0.051 -0.294 0.125 -0.438 c 0.04 -0.078 0.093 -0.149 0.156 -0.219 c 0.054 -0.059 0.114 -0.135 0.188 -0.188 c 0.343 -0.358 0.712 -0.712 1.063 -1.063 c 0.353 -0.348 0.677 -0.716 1.031 -1.063 l -1.031 -1.031 c -0.353 -0.348 -0.725 -0.7 -1.063 -1.063 c -0.077 -0.063 -0.132 -0.122 -0.188 -0.188 c -0.165 -0.197 -0.252 -0.397 -0.281 -0.625 c -0.009 -0.071 0.002 -0.144 0 -0.219 c -0.027 -0.234 -0.043 -0.503 0 -0.813 c 0.222 -0.038 0.424 -0.064 0.594 -0.063 z" style="fill:#bebebe;opacity:0.4"/>
</svg>
