<svg xmlns="http://www.w3.org/2000/svg" viewBox="0 0 16 16">
 <g transform="translate(-80.0002 -746)">
  <path d="m 92.3 748 c -0.771 0.043 -1.333 0.685 -1.816 1.222 -0.467 0.602 -0.943 1.259 -1.074 2.026 -0.001 0.229 0.284 0.34 0.408 0.518 0.471 0.423 0.956 1.068 0.656 1.726 -0.422 0.837 -1.218 1.392 -1.832 2.079 -0.498 0.499 -1.135 1.179 -1.912 0.891 -0.576 -0.219 -0.915 -0.751 -1.365 -1.113 -0.622 0.048 -1.17 0.434 -1.69 0.753 -0.666 0.483 -1.357 1.077 -1.598 1.893 -0.142 0.65 0.54 0.999 0.962 1.34 1.054 0.764 2.47 0.865 3.675 0.427 1.94 -0.689 3.504 -2.123 4.881 -3.609 1.177 -1.339 2.301 -2.908 2.452 -4.74 0.103 -1.288 -0.553 -2.565 -1.546 -3.357 l -0.1 -0.039 -0.102 -0.018 z" style="fill:#bebebe"/>
 </g>
 <rect width="6" height="2" x="1" y="6" rx="0.25" style="fill:#bebebe;opacity:1;fill-opacity:1;stroke:none;fill-rule:nonzero"/>
 <rect width="2" height="5" x="5" y="2" rx="0.25" style="fill:#bebebe;opacity:1;fill-opacity:1;stroke:none;fill-rule:nonzero"/>
 <g transform="translate(-0.04661076,-0.1567139)">
  <rect transform="matrix(0.70710678,0.70710678,-0.70710678,0.70710678,0,0)" rx="0.25" y="-4.238" x="4.313" height="4.5" width="2" style="fill:#bebebe;opacity:1;fill-opacity:1;stroke:none;fill-rule:nonzero"/>
  <rect transform="matrix(0.70710678,0.70710678,-0.70710678,0.70710678,0,0)" rx="0.25" y="-4.238" x="4.313" height="2" width="4.5" style="fill:#bebebe;opacity:1;fill-opacity:1;stroke:none;fill-rule:nonzero"/>
 </g>
</svg>
