<svg xmlns="http://www.w3.org/2000/svg" viewBox="0 0 16 16">
 <path d="m 7.256 0.051 c -0.567 0.069 -1.126 0.212 -1.652 0.439 -1.512 0.653 -2.604 1.965 -2.604 3.51 l 0 2 c -1.108 0 -2 0.892 -2 2 l 0 6 c 0 1.108 0.892 2 2 2 l 10 0 c 1.108 0 2 -0.892 2 -2 l 0 -5 -6 0 c -1.091 0 -2 -0.909 -2 -2 l 0 -1 -2 0 0 -2 c 0 -0.594 0.433 -1.258 1.396 -1.674 0.188 -0.081 0.396 -0.134 0.604 -0.184 l 0 -1.143 c 0 -0.344 0.098 -0.664 0.256 -0.949" style="fill:#bebebe;opacity:1;fill-opacity:1;stroke:none;fill-rule:nonzero"/>
 <path d="m 9 0 c -0.554 0 -1 0.446 -1 1 l 0 6 c 0 0.554 0.446 1 1 1 l 6 0 c 0.554 0 1 -0.446 1 -1 l 0 -6 c 0 -0.554 -0.446 -1 -1 -1 l -6 0 m 2 1 2 0 0 4 -2 0 0 -4 z m 0 5 2 0 0 1 -2 0 0 -1 z" style="fill:#ff8000;opacity:1;fill-opacity:1;stroke:none;fill-rule:nonzero"/>
</svg>
