<svg xmlns="http://www.w3.org/2000/svg" viewBox="0 0 16 16">
 <path d="m 5 0 c -0.554 0 -1 0.446 -1 1 l 0 1 c -1.108 0 -2 0.892 -2 2 l -1 0 c -0.554 0 -1 0.446 -1 1 c 0 0.554 0.446 1 1 1 l 1 0 l 0 1 l -1 0 c -0.554 0 -1 0.446 -1 1 c 0 0.554 0.446 1 1 1 l 1 0 l 0 1 l -1 0 c -0.554 0 -1 0.446 -1 1 c 0 0.554 0.446 1 1 1 l 1 0 c 0 1.108 0.892 2 2 2 l 0 1 c 0 0.554 0.446 1 1 1 c 0.554 0 1 -0.446 1 -1 l 0 -1 l 1 0 l 0 1 c 0 0.554 0.446 1 1 1 c 0.554 0 1 -0.446 1 -1 l 0 -1 l 1 0 l 0 1 c 0 0.554 0.446 1 1 1 c 0.554 0 1 -0.446 1 -1 l 0 -1 c 1.108 0 2 -0.892 2 -2 l 1 0 c 0.554 0 1 -0.446 1 -1 c 0 -0.554 -0.446 -1 -1 -1 l -1 0 l 0 -1 l 1 0 c 0.554 0 1 -0.446 1 -1 c 0 -0.554 -0.446 -1 -1 -1 l -1 0 l 0 -1 l 1 0 c 0.554 0 1 -0.446 1 -1 c 0 -0.554 -0.446 -1 -1 -1 l -1 0 c 0 -1.108 -0.892 -2 -2 -2 l 0 -1 c 0 -0.554 -0.446 -1 -1 -1 c -0.554 0 -1 0.446 -1 1 l 0 1 l -1 0 l 0 -1 c 0 -0.554 -0.446 -1 -1 -1 c -0.554 0 -1 0.446 -1 1 l 0 1 l -1 0 l 0 -1 c 0 -0.554 -0.446 -1 -1 -1 z m -0.5 3 l 7 0 c 0.833 0 1.5 0.667 1.5 1.5 l 0 7 c 0 0.833 -0.667 1.5 -1.5 1.5 l -7 0 c -0.833 0 -1.5 -0.667 -1.5 -1.5 l 0 -7 c 0 -0.833 0.667 -1.5 1.5 -1.5 z" style="fill:#bebebe;fill-opacity:1;stroke:none;fill-rule:evenodd"/>
 <path d="m 5,6 6,0 c 0.554,0 1,0.446 1,1 l 0,4 c 0,0.554 -0.446,1 -1,1 L 5,12 C 4.446,12 4,11.554 4,11 L 4,7 C 4,6.446 4.446,6 5,6 z" style="fill:#bebebe;fill-opacity:1;stroke:none;fill-rule:evenodd"/>
</svg>
