<svg xmlns="http://www.w3.org/2000/svg" viewBox="0 0 16 16" style="enable-background:new">
 <g transform="translate(-321.00021,223)">
  <path d="m 8.5 1 c -0.432 0 -0.864 0.111 -1.25 0.334 -0.773 0.446 -1.25 1.274 -1.25 2.166 l 0 6.697 c 0 0.508 0.34 0.938 0.791 1.146 0.451 0.209 0.967 0.209 1.418 0 c 0.451 -0.208 0.791 -0.638 0.791 -1.146 l 0 -4.697 c 0 -0.277 -0.223 -0.5 -0.5 -0.5 -0.277 0 -0.5 0.223 -0.5 0.5 l 0 4.697 c 0 0.064 -0.042 0.161 -0.209 0.238 -0.167 0.077 -0.415 0.077 -0.582 0 c -0.167 -0.077 -0.209 -0.175 -0.209 -0.238 l 0 -6.697 c 0 -0.537 0.285 -1.03 0.75 -1.299 c 0.465 -0.268 1.035 -0.268 1.5 0 c 0.465 0.268 0.75 0.762 0.75 1.299 l 0 7.918 c 0 0.929 -0.483 1.781 -1.256 2.24 -0.773 0.459 -1.715 0.459 -2.488 0 c -0.773 -0.459 -1.256 -1.312 -1.256 -2.24 l 0 -6.918 c 0 -0.277 -0.223 -0.5 -0.5 -0.5 -0.277 0 -0.5 0.223 -0.5 0.5 l 0 6.918 c 0 1.275 0.661 2.457 1.744 3.1 1.083 0.643 2.429 0.643 3.512 0 c 1.083 -0.643 1.744 -1.825 1.744 -3.1 l 0 -7.918 c 0 -0.892 -0.477 -1.72 -1.25 -2.166 -0.386 -0.223 -0.818 -0.334 -1.25 -0.334" transform="translate(321.00021,-223)" style="fill:#bebebe;opacity:1;fill-opacity:1;stroke:none;fill-rule:nonzero"/>
 </g>
</svg>
