<svg xmlns="http://www.w3.org/2000/svg" viewBox="0 0 16 16">
 <path d="m 3.5 9 c -1.933 0 -3.5 1.567 -3.5 3.5 0 1.933 1.567 3.5 3.5 3.5 1.933 0 3.5 -1.567 3.5 -3.5 0 -1.933 -1.567 -3.5 -3.5 -3.5 m -0.5 1 1 0 0 5 -1 0 z" style="fill:#bebebe;opacity:1;fill-opacity:1;stroke:none;fill-rule:nonzero"/>
 <path d="m 9.91 1 c -0.271 0.018 -0.534 0.137 -0.709 0.369 -0.871 0.878 -1.353 1.738 -2.201 2.639 0.898 0.95 1.428 1.864 2.354 2.787 0.608 0.562 1.735 0.058 1.688 -0.779 0.02 -0.435 -0.321 -0.731 -0.604 -1.01 1.256 0.012 0.308 -0.054 1.563 -0.01 c 1 0 1 0 1 1 l 0 4 c 0 1 0 1 -1 1 l -4.275 0 c 0.168 0.471 0.275 0.971 0.275 1.5 0 0.171 -0.032 0.334 -0.051 0.5 l 4.051 0 c 3 0 3 0 3 -3 l 0 -4 c 0 -3 0 -3 -3 -3 -1.125 0 -0.438 0.01 -1.563 0.01 0.376 -0.321 0.726 -0.795 0.529 -1.314 c -0.13 -0.472 -0.605 -0.723 -1.057 -0.693 m -5.91 1.998 c -3 0 -3 0 -3 3 l 0 2.76 c 0.583 -0.391 1.268 -0.627 2 -0.709 l 0 -2.051 c 0 -1 1 -1 1 -1 l 1 0 c 0 0 1 0 1 -1 c 0 -1 0 -1 -1 -1" style="fill:#bebebe;fill-opacity:1;color:#bebebe"/>
</svg>
