<svg xmlns="http://www.w3.org/2000/svg" viewBox="0 0 16 16">
 <path d="m 4 13 8 0 c 3 0 3 0 3 -3 l 0 -4 c 0 -3 0 -3 -3 -3 -1.125 0 -0.438 0.01 -1.562 0.01 0.376 -0.321 0.725 -0.795 0.529 -1.315 -0.208 -0.755 -1.298 -0.943 -1.765 -0.325 -0.871 0.878 -1.354 1.738 -2.202 2.639 0.898 0.95 1.429 1.864 2.354 2.787 0.608 0.562 1.734 0.058 1.686 -0.78 0.02 -0.435 -0.32 -0.731 -0.603 -1.01 1.256 0.012 0.308 -0.054 1.562 -0.01 1 0 1 0 1 1 l 0 4 c 0 1 0 1 -1 1 l -8 0 c -1 0 -1 0 -1 -1 l 0 -4 c 0 -1 1 -1 1 -1 l 1 0 c 0 0 1 0 1 -1 0 -1 0 -1 -1 -1 l -1 0 c -3 0 -3 0 -3 3 l 0 4 c 0 3 0 3 3 3 z" style="fill:#bebebe;fill-opacity:1;color:#bebebe"/>
</svg>
