<svg xmlns="http://www.w3.org/2000/svg" viewBox="0 0 16 16" style="enable-background:new">
 <g>
  <path d="m 8 0.777 c -2.942 0 -5.688 1.016 -8 2.775 l 1.012 1.447 l 13.977 0 l 1.012 -1.447 c -2.312 -1.759 -5.058 -2.775 -8 -2.775 z m -4.193 8.223 l 4.193 6 l 4.193 -6 l -8.387 0 z" style="fill:#bebebe;opacity:0.4;fill-opacity:1;color:#000"/>
 </g>
 <path d="m 5 6 c -0.552 0 -1 0.448 -1 1 0 0.552 0.448 1 1 1 0.552 0 1 -0.448 1 -1 0 -0.552 -0.448 -1 -1 -1 m 3 0 c -0.552 0 -1 0.448 -1 1 0 0.552 0.448 1 1 1 0.552 0 1 -0.448 1 -1 0 -0.552 -0.448 -1 -1 -1 m 3 0 c -0.552 0 -1 0.448 -1 1 0 0.552 0.448 1 1 1 0.552 0 1 -0.448 1 -1 0 -0.552 -0.448 -1 -1 -1 z" style="fill:#bebebe"/>
</svg>
