<svg xmlns="http://www.w3.org/2000/svg" viewBox="0 0 16 16">
 <path d="m 2 1 c -1.203 0 -2 0.797 -2 2 l 0 10 c 0 1.202 0.795 2 2 2 l 12 0 c 1.2 0 2 -0.802 2 -2 l 0 -7 -2 0 0 3 -2 0 0 2 -1 0 0 2 l -6 0 0 -2 -1 0 0 -2 -2 0 0 -4 c 0 -1.797 0 -2 1 -2 l 7 0 0 -2 z" style="fill:#bebebe;opacity:1;fill-opacity:1;color:#bebebe"/>
 <path d="m 11 0 1.5 0 l 1 1 1 -1 1.5 0 0 1.5 l -1 1 1 1 0 1.5 -1.5 0 -1 -1 -1 1 -1.5 0 0 -1.5 1 -1 -1 -1 z" style="visibility:visible;fill:#bebebe;fill-opacity:1;stroke:none;display:inline;color:#bebebe"/>
</svg>
