<svg xmlns="http://www.w3.org/2000/svg" viewBox="0 0 16 16">
 <path d="m 8.994 2 c -3.306 0 -5.987 2.669 -6 5.969 l -1.99 0.031 3 4 3.01 -4 -2.01 -0.031 c 0.017 -2.195 1.801 -3.969 4 -3.969 c 1.688 0 3.126 1.047 3.715 2.523 0.538 0.024 1.076 0.126 1.586 0.346 0.226 0.098 0.442 0.226 0.65 0.367 c -0.376 -2.952 -2.894 -5.236 -5.951 -5.236" style="fill:#bebebe;fill-opacity:1;fill-rule:evenodd"/>
 <path d="m 12.5 8 c -0.411 0 -0.821 0.081 -1.199 0.244 c -0.756 0.327 -1.301 0.982 -1.301 1.754 l 0 1 c -0.554 0 -1 0.446 -1 1 l 0 3 c 0 0.554 0.446 1 1 1 l 5 0 c 0.554 0 1 -0.446 1 -1 l 0 -3 c 0 -0.554 -0.446 -1 -1 -1 l 0 -1 c 0 -0.772 -0.545 -1.427 -1.301 -1.754 c -0.378 -0.163 -0.789 -0.244 -1.199 -0.244 z m 0 1.01 c 0.28 0 0.56 0.052 0.801 0.156 c 0.482 0.208 0.699 0.539 0.699 0.836 l 0 1 l -3 0 l 0 -1 c 0 -0.297 0.218 -0.628 0.699 -0.836 c 0.241 -0.104 0.521 -0.156 0.801 -0.156 z" style="fill:#bebebe;opacity:1;fill-opacity:1;stroke:none;fill-rule:nonzero"/>
</svg>
