<svg xmlns="http://www.w3.org/2000/svg" viewBox="0 0 16 16">
 <path d="m 4 2 c -1.099 0 -2 0.901 -2 2 l 0 8 c 0 1.099 0.901 2 2 2 l 8 0 c 1.099 0 2 -0.901 2 -2 l 0 -5 l -1 0 l 0 3 l -10 0 l 0 -6 c 0 -0.563 0.437 -1 1 -1 l 5 0 l 0 -1 l -5 0 z m -1 9 l 4 0 l 0 2 l -3 0 c -0.563 0 -1 -0.437 -1 -1 l 0 -1 z m 6 0 l 4 0 l 0 1 c 0 0.563 -0.437 1 -1 1 l -3 0 l 0 -2 z" mix-blend-mode="normal" isolation="auto" white-space="normal" solid-opacity="1" solid-color="#000000" style="visibility:visible;shape-rendering:auto;color-interpolation-filters:linearRGB;fill:#bebebe;opacity:0.4;image-rendering:auto;fill-opacity:1;stroke:none;display:inline;color:#000;fill-rule:nonzero;color-rendering:auto;color-interpolation:sRGB"/>
 <path d="m 10 1 1.5 0 l 1 1 l 1 -1 1.5 0 l 0 1.5 l -1 1 1 1 0 1.5 -1.5 0 -1 -1 -1 1 -1.5 0 0 -1.5 1 -1 -1 -1 z" style="visibility:visible;fill:#bebebe;fill-opacity:1;stroke:none;display:inline;color:#bebebe"/>
</svg>
