<svg xmlns="http://www.w3.org/2000/svg" viewBox="0 0 16 16">
 <g transform="matrix(1 0 0 .99995 -3 -1033.3134)">
  <path d="m 3.906 1033.36 c -0.492 0.046 -0.908 0.506 -0.906 1 l 0 10 c 0 0.524 0.476 1 1 1 l 8 0 4 4 0 -4 2 0 c 0.524 0 1 -0.476 1 -1 l 0 -10 c 0 -0.524 -0.476 -1 -1 -1 l -14 0 c -0.031 -0.001 -0.063 -0.001 -0.094 0 z m 4 1.969 a 1 1 0 0 1 0.813 0.313 l 2.281 2.281 2.281 -2.313 a 1.016 1.016 0 1 1 1.438 1.438 l -2.281 2.313 2.281 2.281 a 1.016 1.016 0 1 1 -1.438 1.438 l -2.281 -2.281 -2.281 2.25 a 1 1 0 0 1 -1.719 -0.5 1 1 0 0 1 0.281 -0.938 l 2.281 -2.25 -2.281 -2.281 a 1 1 0 0 1 0.5 -1.719 1 1 0 0 1 0.125 -0.031 z" style="fill:#bebebe;color:#000"/>
 </g>
</svg>
