<svg xmlns="http://www.w3.org/2000/svg" viewBox="0 0 16 16">
 <path d="m 13 4 0 8 c 0 3 0 3 -3 3 l -4 0 c -3 0 -3 0 -3 -3 0 -1.125 0.01 -0.438 0.01 -1.562 c -0.321 0.376 -0.795 0.725 -1.315 0.529 -0.755 -0.208 -0.943 -1.298 -0.325 -1.765 0.878 -0.871 1.738 -1.354 2.639 -2.202 c 0.95 0.898 1.864 1.429 2.787 2.354 0.562 0.608 0.058 1.734 -0.78 1.686 -0.435 0.02 -0.731 -0.32 -1.01 -0.603 0.012 1.256 -0.054 0.308 -0.01 1.562 0 1 0 1 1 1 l 4 0 c 1 0 1 0 1 -1 l 0 -8 c 0 -1 0 -1 -1 -1 l -4 0 c -1 0 -1 0 -1 1 l 0 0 c 0 1 0 1 -1 1 -1 0 -1 0 -1 -1 l 0 0 c 0 -3 0 -3 3 -3 l 4 0 c 3 0 3 0 3 3" style="fill:#bebebe;fill-opacity:1;color:#bebebe"/>
</svg>
