<svg xmlns="http://www.w3.org/2000/svg" viewBox="0 0 16 16" style="enable-background:new">
 <path d="m 7 7 0.25 6 l 1.5 0 0.25 -6 -2 0 z m 0 7 0 2 2 0 0 -2 -2 0 z" style="fill:#ef555c;color:#bebebe"/>
 <path d="m 5.094 3.5 c -0.155 -0.002 -0.3 0.007 -0.469 0.031 -2.692 0.39 -2.625 3 -2.625 3 -1.103 0.211 -2 1.274 -2 2.406 c 0 1.132 1.16 2.146 2.125 2.438 0.574 0.173 1.313 0 1.313 0 0.341 0.676 1.466 1.125 2.25 1.125 0.354 0 0.694 -0.058 1.031 -0.125 l -0.219 -5.344 -0.031 -0.531 0.531 0 2 0 0.531 0 -0.031 0.531 -0.188 4.406 c 1.436 0.109 4.792 0.312 5.656 -0.063 c 1.599 -0.694 1.095 -2.861 0.031 -3.594 -1.064 -0.733 -2.438 -0.219 -2.438 -0.219 c 0 0 0.005 -1.506 -1.5 -2.219 -1.505 -0.713 -2.781 0.875 -2.781 0.875 0 0 -0.86 -2.703 -3.188 -2.719 z" style="fill:#bebebe"/>
</svg>
