<svg xmlns="http://www.w3.org/2000/svg" viewBox="0 0 16 16">
 <g transform="matrix(.03306 0 0 .03306 -.46283 -.47891)" style="fill:#bebebe">
  <rect width="150" x="14" y="434" height="45"/>
  <rect width="150" x="14" y="334" height="45"/>
  <rect width="270" x="14" y="234" height="45"/>
  <rect width="270" x="14" y="134" height="45"/>
  <rect width="270" x="14" y="34" height="45"/>
  <path d="m 253.8 471.33 c -20.471 -5.189 -39.48 -20.2 -44.87 -41.26 -5.641 -20.11 1.74 -41.701 14.399 -57.58 23.49 -29.4 63.79 -44.47 100.78 -37.52 0.3 -98.41 -0.02 -196.83 0.16 -295.24 8.92 13.15 18.55 26.01 30.59 36.51 25.59 23.2 57.43 37.94 83.74 60.2 22.68 19.311 42.37 43.26 52.42 71.62 7.37 20.28 8.87 42.55 4.58 63.68 -5.65 27.11 -22.28 42.38 -40.2 63.3 6.1 -25.25 13.06 -42.27 5.26 -67.61 -5.189 -17.57 -16.58 -32.82 -30.76 -44.21 -16.21 -13.09 -35.2 -22.13 -54.27 -30.23 -0.25 65.02 -0.03 130.05 -0.11 195.08 1 22.449 -10.45 43.93 -26.85 58.68 -25.12 22.72 -61.829 33.07 -94.87 24.579"/>
 </g>
</svg>
