<svg xmlns="http://www.w3.org/2000/svg" xmlns:svg="http://www.w3.org/2000/svg" id="Capa_1" width="240" height="240" x="0" y="0" version="1.1" viewBox="0 0 240 240" xml:space="preserve"><metadata id="metadata41"/><g id="g4" transform="matrix(0.45606706,0,0,0.45606706,20,19.999544)" style="fill:#fff;fill-opacity:1"><path id="path2" d="M 409.133,109.203 C 389.525,75.611 362.928,49.014 329.335,29.407 295.736,9.801 259.058,0 219.273,0 179.492,0 142.803,9.801 109.21,29.407 75.615,49.011 49.018,75.608 29.41,109.203 9.801,142.8 0,179.489 0,219.267 c 0,39.78 9.804,76.463 29.407,110.062 19.607,33.592 46.204,60.189 79.799,79.798 33.597,19.605 70.283,29.407 110.063,29.407 39.78,0 76.47,-9.802 110.065,-29.407 33.593,-19.602 60.189,-46.206 79.795,-79.798 19.603,-33.596 29.403,-70.284 29.403,-110.062 0.001,-39.782 -9.8,-76.472 -29.399,-110.064 z m -55.391,188.005 c -13.894,23.791 -32.736,42.633 -56.527,56.534 -23.791,13.894 -49.771,20.834 -77.945,20.834 -28.167,0 -54.149,-6.94 -77.943,-20.834 C 117.536,339.841 98.694,320.999 84.8,297.208 70.903,273.417 63.957,247.436 63.957,219.267 c 0,-28.171 6.949,-54.152 20.843,-77.943 13.891,-23.791 32.738,-42.637 56.527,-56.53 23.791,-13.895 49.772,-20.84 77.943,-20.84 28.173,0 54.154,6.945 77.945,20.84 23.791,13.894 42.634,32.739 56.527,56.53 13.895,23.791 20.838,49.772 20.838,77.943 0,28.169 -6.943,54.15 -20.838,77.941 z" style="fill:#fff;fill-opacity:1"/></g></svg>