<svg xmlns="http://www.w3.org/2000/svg" viewBox="0 0 16 16">
 <g transform="matrix(.8 0 0 .8 -1.6 -1.59999)">
  <path d="m 21.375 12 a 9.375 9.375 0 0 1 -18.75 0 9.375 9.375 0 1 1 18.75 0 z" style="fill:#ebebeb;opacity:1;fill-opacity:1;fill-rule:evenodd"/>
  <path d="m 11.984 5.484 c -0.551 0.008 -0.992 0.465 -0.984 1.016 l 0 5.5 c 0 0.234 0.082 0.461 0.234 0.641 l 2.5 3 c 0.223 0.301 0.59 0.449 0.957 0.395 0.367 -0.059 0.672 -0.313 0.793 -0.664 0.121 -0.352 0.035 -0.742 -0.219 -1.012 l -2.266 -2.719 0 -5.141 c 0.004 -0.27 -0.102 -0.531 -0.293 -0.723 -0.191 -0.191 -0.453 -0.297 -0.723 -0.293 z" style="fill:#aaa;opacity:1;fill-opacity:1"/>
  <path d="m 12 2 c -5.512 0 -10 4.488 -10 10 0 5.512 4.488 10 10 10 5.512 0 10 -4.488 10 -10 0 -5.512 -4.488 -10 -10 -10 z m 0 2 c 4.43 0 8 3.57 8 8 0 4.43 -3.57 8 -8 8 c -4.43 0 -8 -3.57 -8 -8 0 -4.43 3.57 -8 8 -8 z" style="fill:#aaa;opacity:1"/>
 </g>
 <path d="m 8 12 a 4 4 0 0 1 -8 0 4 4 0 1 1 8 0 z" style="fill:#dc322f;fill-rule:evenodd"/>
 <path d="m 2 10 0 0.667 c -0.015 0.187 0.048 0.378 0.188 0.507 l 0.855 0.841 -0.855 0.841 c -0.125 0.125 -0.188 0.302 -0.188 0.478 l 0 0.667 0.666 0 c 0.176 0 0.353 -0.063 0.478 -0.188 l 0.855 -0.855 0.855 0.855 c 0.125 0.125 0.302 0.188 0.478 0.188 l 0.666 0 0 -0.667 c 0 -0.177 -0.063 -0.353 -0.188 -0.478 l -0.84 -0.841 0.855 -0.841 c 0.143 -0.133 0.174 -0.317 0.174 -0.507 l 0 -0.667 -0.666 0 c -0.16 0.005 -0.287 0.064 -0.464 0.217 l -0.869 0.841 -0.855 -0.841 c -0.118 -0.122 -0.279 -0.21 -0.449 -0.217 -0.007 0 -0.022 0 -0.029 0 l -0.666 0 z" style="fill:#fff;fill-opacity:0.9;fill-rule:evenodd"/>
</svg>
