<svg xmlns="http://www.w3.org/2000/svg" viewBox="0 0 16 16">
 <path d="m 7.738 2 l -0.002 0.002 c -0.873 0 -1.702 0.147 -2.457 0.471 c -1.216 0.521 -2.056 1.281 -2.787 2.232 c 4.982 -2.825 8.341 0.199 8.295 1.156 c -0.033 0.703 -0.649 0.573 -2.02 0.188 c -2.914 -0.816 -6.176 0.383 -6.684 2.734 c -0.676 3.125 2.905 5.198 5.654 5.217 c 3.51 -0.003 6.257 -2.5 6.262 -6 c -0.005 -3.499 -2.964 -5.977 -6.262 -6 z m -0.238281 6 a 3.5 2 0 0 1 3.5 2 a 3.5 2 0 0 1 -3.5 2 a 3.5 2 0 0 1 -3.5 -2 a 3.5 2 0 0 1 3.5 -2 z" style="fill:#ececec;fill-opacity:1;stroke:none;fill-rule:nonzero"/>
</svg>
