<svg xmlns="http://www.w3.org/2000/svg" viewBox="0 0 16 16">
 <path d="m 5.574 1.453 c -1.336 0 -2.422 1.102 -2.422 2.457 l 0 4.098 c 0 1.355 1.086 2.453 2.422 2.453 c 1.34 0 2.426 -1.098 2.426 -2.453 l 0 -4.098 c 0 -1.355 -1.086 -2.457 -2.426 -2.457 z" style="fill:#ececec;fill-opacity:1"/>
 <path d="m 0.727 8 c 0 2.434 1.746 4.445 4.04 4.832 l 0 0.895 -0.809 0 0 0.82 3.23 0 0 -0.82 -0.809 0 0 -0.895 c 2.297 -0.387 4.04 -2.398 4.04 -4.832 l -1.617 0 c 0 1.809 -1.449 3.273 -3.234 3.273 c -1.785 0 -3.23 -1.465 -3.23 -3.273 z" style="fill:#ececec;fill-opacity:1"/>
 <path d="m 15.273 3.09 c 0 0.906 -0.723 1.637 -1.617 1.637 -0.891 0 -1.617 -0.73 -1.617 -1.637 0 -0.902 0.727 -1.637 1.617 -1.637 0.895 0 1.617 0.734 1.617 1.637 z" style="fill:#ececec;fill-opacity:1"/>
 <path d="m 15.273 8 c 0 0.902 -0.723 1.637 -1.617 1.637 -0.891 0 -1.617 -0.734 -1.617 -1.637 0 -0.902 0.727 -1.637 1.617 -1.637 0.895 0 1.617 0.734 1.617 1.637 z" style="fill:#ececec;fill-opacity:1"/>
 <path d="m 15.273 12.91 c 0 0.902 -0.723 1.637 -1.617 1.637 -0.891 0 -1.617 -0.734 -1.617 -1.637 0 -0.906 0.727 -1.637 1.617 -1.637 0.895 0 1.617 0.73 1.617 1.637 z" style="fill:#ececec;fill-opacity:1"/>
</svg>
