<svg xmlns="http://www.w3.org/2000/svg" viewBox="0 0 16 16">
 <g transform="matrix(-0.21902844,0.12645612,-0.12645612,-0.21902844,16.299404,10.222719)" style="fill:#ececec;fill-opacity:1">
  <path d="m -25.406 12 c -4.418 0 -8 3.582 -8 8 0 4.418 3.582 8 8 8 4.418 0 8 -3.582 8 -8 0 -4.418 -3.582 -8 -8 -8 z m 0 2.5 c 2.304 0 4.367 1.303 5.281 3.313 l 1.219 -0.469 -1 3.469 -3.313 -1.844 1.281 -0.5 c -0.621 -1.31 -1.954 -2.125 -3.469 -2.125 -1.573 0 -2.996 0.94 -3.563 2.344 l -1.781 -0.688 c 0.845 -2.104 2.985 -3.5 5.344 -3.5 z m -5.5 4.719 3.313 1.781 -1.281 0.5 c 0.613 1.305 1.964 2.156 3.469 2.156 1.576 0 2.979 -0.91 3.563 -2.313 l 1.781 0.688 c -0.877 2.103 -2.979 3.469 -5.344 3.469 -2.292 0 -4.387 -1.339 -5.281 -3.344 l -1.219 0.438 1 -3.375 z" transform="matrix(2.875,0,0,2.875,97.067647,-33.481261)"/>
 </g>
 <g transform="matrix(0.49988464,0,0,0.49988464,-37.411065,7.9950011)">
  <!-- color: #004794 -->
 </g>
</svg>
