<svg xmlns="http://www.w3.org/2000/svg" viewBox="0 0 16 16">
 <path d="m 4.208 2.842 c -0.024 0.002 -0.051 0.005 -0.075 0.008 -0.023 0.004 -0.044 0.011 -0.067 0.017 -0.003 0.001 -0.006 -0.001 -0.008 0 -0.025 0.007 -0.051 0.016 -0.075 0.025 c -0.48 0.16 -1.179 0.774 -1.412 1.302 -0.1 0.217 -0.185 0.458 -0.259 0.751 -0.137 0.543 -0.175 1.268 -0.067 2.121 c 0.088 0.72 0.29 1.561 0.685 2.463 0.245 0.653 0.734 1.456 1.646 2.254 0.107 0.079 0.211 0.155 0.317 0.225 0.856 0.568 1.624 0.82 2.222 0.918 0.982 0.219 1.863 0.263 2.615 0.217 0.894 -0.051 1.638 -0.223 2.172 -0.468 0.225 -0.122 0.523 -0.304 0.685 -0.451 0.478 -0.432 0.855 -0.807 1.061 -1.135 0.008 -0.011 0.017 -0.022 0.025 -0.033 0.023 -0.038 0.041 -0.071 0.058 -0.109 0.009 -0.017 0.018 -0.032 0.025 -0.05 0.013 -0.031 0.024 -0.061 0.033 -0.092 0.002 -0.018 0.006 -0.019 0.008 -0.033 0.003 -0.011 0.006 -0.023 0.008 -0.033 0.004 -0.024 0.006 -0.065 0.008 -0.075 0.004 -0.02 0 -0.017 0 -0.017 0 0 0.001 -0.005 0 -0.025 -0.001 -0.021 0 -0.057 0 -0.134 -0.006 -0.051 -0.018 -0.107 -0.033 -0.159 -0.031 -0.101 -0.077 -0.2 -0.142 -0.301 c -0.126 -0.195 -0.312 -0.387 -0.551 -0.576 -0.445 -0.351 -1.068 -0.69 -1.796 -1.019 -0.62 -0.28 -1.301 -0.536 -1.963 -0.818 -0.462 -0.225 -0.827 -0.344 -0.961 -0.451 -0.017 -0.013 -0.024 -0.028 -0.033 -0.042 -0.121 -0.024 -0.314 -0.351 -0.652 -0.76 -0.39 -0.527 -0.762 -1.084 -1.136 -1.595 -0.438 -0.598 -0.861 -1.102 -1.262 -1.444 -0.216 -0.185 -0.425 -0.32 -0.627 -0.401 -0.104 -0.041 -0.202 -0.073 -0.301 -0.083 c -0.05 -0.005 -0.102 -0.003 -0.15 0 z" style="fill:#ececec;opacity:0.4;fill-opacity:1"/>
 <path d="m 5.477 3.521 -3.224 1.729 c -0.084 0.5 -0.098 1.111 -0.009 1.817 0.088 0.72 0.29 1.561 0.685 2.463 0.245 0.653 0.735 1.456 1.646 2.254 0.107 0.079 0.212 0.155 0.318 0.226 0.856 0.568 1.623 0.819 2.222 0.918 0.982 0.219 1.863 0.263 2.615 0.217 0.894 -0.051 1.638 -0.223 2.173 -0.467 0.225 -0.122 0.523 -0.304 0.685 -0.45 0.478 -0.432 0.855 -0.808 1.061 -1.136 0.008 -0.011 0.018 -0.021 0.026 -0.033 0.023 -0.038 0.04 -0.072 0.058 -0.109 0.009 -0.017 0.018 -0.032 0.026 -0.05 0.013 -0.031 0.024 -0.062 0.033 -0.092 0.002 -0.018 0.006 -0.018 0.008 -0.033 0.003 -0.011 0.006 -0.024 0.008 -0.034 0.004 -0.024 0.006 -0.065 0.008 -0.075 0.004 -0.02 0 -0.016 0 -0.016 0 0 0.001 -0.005 0 -0.026 -0.001 -0.021 0 -0.057 0 -0.134 -0.006 -0.051 -0.019 -0.108 -0.034 -0.159 -0.031 -0.101 -0.077 -0.2 -0.142 -0.3 c -0.126 -0.195 -0.311 -0.387 -0.551 -0.577 -0.445 -0.351 -1.069 -0.69 -1.797 -1.018 -0.62 -0.28 -1.301 -0.536 -1.963 -0.818 -0.462 -0.225 -0.827 -0.343 -0.96 -0.45 -0.017 -0.013 -0.025 -0.029 -0.034 -0.043 -0.121 -0.024 -0.314 -0.351 -0.652 -0.76 -0.39 -0.527 -0.762 -1.084 -1.136 -1.594 -0.37 -0.505 -0.725 -0.92 -1.07 -1.25" style="fill:#ececec;fill-opacity:1"/>
</svg>
