<svg xmlns="http://www.w3.org/2000/svg" viewBox="0 0 16 16">
 <g transform="matrix(1.25,0,0,-1.25,0,16)">
  <g transform="matrix(0.72727,0,0,0.72727,-0.581792,-0.581792)">
   <path d="m 13,13.6 c -1.508,0 -2.875,-0.943 -3.48,-2.4 l -4.72,0 C 3.198,11.2 2.4,10.401 2.4,9.6 2.4,8.799 3.198,8 4.8,8 L 5.6,6.4 6.4,8.8 8,6.4 8.8,8 9.52,8 C 10.121,6.543 11.489,5.604 13,5.6 c 2.098,0 3.8,1.793 3.8,4 0,2.211 -1.702,4 -3.8,4 z m 1.4,-3.2 c 0.441,0 0.8,-0.358 0.8,-0.8 0,-0.441 -0.359,-0.8 -0.8,-0.8 -0.446,0 -0.8,0.359 -0.8,0.8 0,0.442 0.354,0.8 0.8,0.8 z" style="fill:#6d6d6d;fill-opacity:1;stroke:none;fill-rule:nonzero"/>
  </g>
 </g>
</svg>
