<svg xmlns="http://www.w3.org/2000/svg" viewBox="0 0 16 16">
 <path d="m 4.727 2.547 -3.273 2.543 3.273 2.184 -3.273 2.91 6.547 4.363 6.547 -4.363 -3.273 -2.91 3.273 -2.184 -3.273 -2.543 -3.273 2.543 z m 3.273 3.637 c 1.281 0 2.453 0.781 2.953 1.977 l 0.684 -0.25 -0.57 2 l -1.84 -1.07 0.727 -0.273 c -0.34 -0.773 -1.113 -1.293 -1.953 -1.293 c -0.883 0 -1.672 0.527 -2 1.363 l -1 -0.387 c 0.492 -1.25 1.676 -2.066 3 -2.066 z m -3.09 2.77 1.863 1.113 -0.727 0.297 c 0.348 0.781 1.105 1.273 1.953 1.273 c 0.879 0 1.684 -0.551 2 -1.387 l 1 0.387 c -0.477 1.254 -1.68 2.09 -3 2.09 -1.289 0 -2.441 -0.777 -2.953 -1.977 l -0.684 0.297 z" style="fill:#ececec;fill-opacity:1"/>
</svg>
