<svg xmlns="http://www.w3.org/2000/svg" viewBox="0 0 16 16">
 <path d="m 4.727 2.547 -3.273 2.543 3.273 2.184 -3.273 2.91 6.547 4.363 6.547 -4.363 -3.273 -2.91 3.273 -2.184 -3.273 -2.543 -3.273 2.543 z m 3.273 3.27 c 0.402 0 0.727 0.324 0.727 0.73 l 0 3.637 c 0 0.402 -0.324 0.727 -0.727 0.727 -0.402 0 -0.727 -0.324 -0.727 -0.727 l 0 -3.637 c 0 -0.406 0.324 -0.73 0.727 -0.73 z m -0.184 5.82 0.367 0 c 0.301 0 0.543 0.242 0.543 0.547 l 0 0.363 c 0 0.301 -0.242 0.543 -0.543 0.543 l -0.367 0 c -0.301 0 -0.543 -0.242 -0.543 -0.543 l 0 -0.363 c 0 -0.305 0.242 -0.547 0.543 -0.547 z" style="fill:#ef555c;fill-opacity:1"/>
</svg>
