<svg xmlns="http://www.w3.org/2000/svg" viewBox="0 0 16 16">
 <path d="m 4.334 0 c -0.739 0 -1.334 0.566 -1.334 1.271 l 0 13.457 c 0 0.705 0.595 1.271 1.334 1.271 l 7.332 0 c 0.739 0 1.334 -0.566 1.334 -1.271 l 0 -13.457 c 0 -0.705 -0.595 -1.271 -1.334 -1.271 l -7.332 0 z m 0.967 2 l 1.398 0 c 0.166 0 0.301 0.135 0.301 0.301 l 0 1.398 c 0 0.166 -0.135 0.301 -0.301 0.301 l -1.398 0 c -0.166 0 -0.301 -0.135 -0.301 -0.301 l 0 -1.398 c 0 -0.166 0.135 -0.301 0.301 -0.301 z m 4 0 l 1.398 0 c 0.166 0 0.301 0.135 0.301 0.301 l 0 1.398 c 0 0.166 -0.135 0.301 -0.301 0.301 l -1.398 0 c -0.166 0 -0.301 -0.135 -0.301 -0.301 l 0 -1.398 c 0 -0.166 0.135 -0.301 0.301 -0.301 z m -4 3 l 1.398 0 c 0.166 0 0.301 0.135 0.301 0.301 l 0 1.398 c 0 0.166 -0.135 0.301 -0.301 0.301 l -1.398 0 c -0.166 0 -0.301 -0.135 -0.301 -0.301 l 0 -1.398 c 0 -0.166 0.135 -0.301 0.301 -0.301 z m 4 0 l 1.398 0 c 0.166 0 0.301 0.135 0.301 0.301 l 0 5.398 c 0 0.166 -0.135 0.301 -0.301 0.301 l -1.398 0 c -0.166 0 -0.301 -0.135 -0.301 -0.301 l 0 -5.398 c 0 -0.166 0.135 -0.301 0.301 -0.301 z m -4 3 l 1.398 0 c 0.166 0 0.301 0.135 0.301 0.301 l 0 1.398 c 0 0.166 -0.135 0.301 -0.301 0.301 l -1.398 0 c -0.166 0 -0.301 -0.135 -0.301 -0.301 l 0 -1.398 c 0 -0.166 0.135 -0.301 0.301 -0.301 z m 0 3 l 1.398 0 c 0.166 0 0.301 0.135 0.301 0.301 l 0 0.699 l 2.301 0 l 1.398 0 c 0.166 0 0.301 0.135 0.301 0.301 l 0 1.398 c 0 0.166 -0.135 0.301 -0.301 0.301 l -1.398 0 l -2.602 0 l -1.398 0 c -0.166 0 -0.301 -0.135 -0.301 -0.301 l 0 -1.398 l 0 -1 c 0 -0.166 0.135 -0.301 0.301 -0.301 z" style="fill:#ececec;opacity:0.4;fill-opacity:1"/>
 <path d="m 3 8 0 6.729 c 0 0.705 0.595 1.271 1.334 1.271 l 7.332 0 c 0.739 0 1.334 -0.566 1.334 -1.271 l 0 -6.729 -2 0 0 2.699 c 0 0.166 -0.135 0.301 -0.301 0.301 l -1.398 0 c -0.166 0 -0.301 -0.135 -0.301 -0.301 l 0 -2.699 -2.301 0 c 0.166 0 0.301 0.135 0.301 0.301 l 0 1.398 c 0 0.166 -0.135 0.301 -0.301 0.301 l -1.398 0 c -0.166 0 -0.301 -0.135 -0.301 -0.301 l 0 -1.398 c 0 -0.166 0.135 -0.301 0.301 -0.301 l -2.301 0 m 2.301 3 1.398 0 c 0.166 0 0.301 0.135 0.301 0.301 l 0 0.699 2.301 0 1.398 0 c 0.166 0 0.301 0.135 0.301 0.301 l 0 1.398 c 0 0.166 -0.135 0.301 -0.301 0.301 l -1.398 0 -2.602 0 -1.398 0 c -0.166 0 -0.301 -0.135 -0.301 -0.301 l 0 -1.398 0 -1 c 0 -0.166 0.135 -0.301 0.301 -0.301" style="fill:#ececec;opacity:1;fill-opacity:1"/>
</svg>
