<svg xmlns="http://www.w3.org/2000/svg" viewBox="0 0 16 16">
 <path d="m 15 1 -14 14 9 0 0 -2.168 c 0 -0.612 0.36 -1.078 0.832 -1.412 l 0 -0.227 c 0 -1.465 1.194 -2.695 2.666 -2.695 0.557 0 1.074 0.177 1.502 0.475 z" style="fill:#ececec;opacity:0.4;fill-opacity:1;stroke:none;fill-rule:evenodd"/>
 <path d="m 13.498 9.498 c -0.922 0 -1.665 0.761 -1.665 1.697 l 0 0.806 c -0.461 0 -0.833 0.372 -0.833 0.833 l 0 2.335 c 0 0.461 0.372 0.833 0.833 0.833 l 3.335 0 c 0.461 0 0.833 -0.372 0.833 -0.833 l 0 -2.335 c 0 -0.461 -0.372 -0.833 -0.833 -0.833 l 0 -0.806 c 0 -0.936 -0.743 -1.697 -1.67 -1.697 z m 0 0.837 c 0.466 0 0.837 0.367 0.837 0.833 l 0 0.833 -1.67 0 0 -0.833 c 0 -0.466 0.372 -0.833 0.833 -0.833 z" style="fill:#ececec;fill-opacity:1"/>
 <path d="m 8 8 l -7 7 l 7 0 l 0 -7 z" style="fill:#ececec;opacity:1;fill-opacity:1;stroke:none;fill-rule:evenodd"/>
</svg>
