<svg viewBox="0 0 16 16" xmlns="http://www.w3.org/2000/svg">
 <path style="fill:#ececec;fill-opacity:1" d="m 1.6 0 c -0.886 0 -1.6 0.714 -1.6 1.6 l 0 12.8 c 0 0.886 0.714 1.6 1.6 1.6 l 12.8 0 c 0.886 0 1.6 -0.714 1.6 -1.6 l 0 -12.8 c 0 -0.886 -0.714 -1.6 -1.6 -1.6 l -12.8 0 z m 1.305 4.4 c 0.58 0 1.111 0.069 1.591 0.209 c 0.48 0.133 0.89 0.347 1.23 0.641 c 0.347 0.287 0.613 0.653 0.8 1.1 0.187 0.44 0.28 0.966 0.28 1.58 0 0.6 -0.093 1.124 -0.28 1.57 -0.187 0.44 -0.453 0.809 -0.8 1.109 -0.34 0.293 -0.754 0.514 -1.241 0.661 -0.48 0.14 -1.013 0.209 -1.6 0.209 -0.28 0 -0.597 -0.012 -0.95 -0.039 c -0.353 -0.02 -0.689 -0.067 -1.01 -0.141 l 0 -6.73 c 0.32 -0.073 0.66 -0.121 1.02 -0.141 0.36 -0.02 0.679 -0.03 0.959 -0.03 z m 0.08 1.091 c -0.373 0 -0.64 0.01 -0.8 0.03 l 0 4.839 c 0.073 0.007 0.171 0.014 0.291 0.02 l 0.489 0 c 0.847 0 1.477 -0.212 1.891 -0.639 0.42 -0.433 0.63 -1.038 0.63 -1.811 0 -0.787 -0.203 -1.389 -0.609 -1.809 -0.407 -0.42 -1.037 -0.63 -1.891 -0.63 z m 7.286 0.55 c 0.72 0 1.28 0.222 1.68 0.669 0.407 0.447 0.611 1.113 0.611 2 0 0.067 -0.004 0.145 -0.011 0.231 0 0.08 -0.003 0.152 -0.009 0.219 l -3.45 0 c 0.033 0.42 0.179 0.748 0.439 0.981 0.267 0.227 0.65 0.339 1.15 0.339 0.293 0 0.56 -0.026 0.8 -0.08 0.247 -0.053 0.441 -0.11 0.581 -0.17 l 0.159 0.991 c -0.067 0.033 -0.16 0.069 -0.28 0.109 -0.113 0.033 -0.247 0.064 -0.4 0.091 -0.147 0.033 -0.306 0.06 -0.48 0.08 -0.173 0.02 -0.351 0.03 -0.531 0.03 -0.46 0 -0.86 -0.067 -1.2 -0.2 -0.34 -0.14 -0.619 -0.33 -0.839 -0.57 c -0.22 -0.247 -0.384 -0.533 -0.491 -0.859 -0.107 -0.333 -0.159 -0.697 -0.159 -1.091 c 0 -0.46 0.067 -0.863 0.2 -1.209 0.14 -0.347 0.323 -0.633 0.55 -0.859 c 0.227 -0.233 0.486 -0.407 0.78 -0.52 0.293 -0.12 0.593 -0.18 0.9 -0.18 z m 0.009 1.01 c -0.187 0 -0.349 0.036 -0.489 0.109 -0.14 0.067 -0.261 0.157 -0.361 0.27 c -0.093 0.113 -0.165 0.244 -0.219 0.391 -0.053 0.147 -0.091 0.297 -0.111 0.45 l 2.25 0 c 0 -0.167 -0.024 -0.324 -0.07 -0.47 -0.047 -0.153 -0.116 -0.284 -0.209 -0.391 -0.087 -0.113 -0.196 -0.199 -0.33 -0.259 -0.127 -0.067 -0.281 -0.1 -0.461 -0.1 z m 4.134 2.805 c 0.407 0 0.712 0.132 0.919 0.395 0.21 0.26 0.316 0.628 0.316 1.105 0 0.673 -0.174 1.183 -0.52 1.53 -0.347 0.347 -0.879 0.522 -1.595 0.525 l -0.025 -0.505 c 0.2 0 0.381 -0.017 0.541 -0.05 0.163 -0.033 0.305 -0.086 0.425 -0.159 0.123 -0.073 0.226 -0.169 0.309 -0.286 0.083 -0.12 0.147 -0.266 0.191 -0.439 -0.08 0.037 -0.169 0.064 -0.266 0.084 -0.097 0.02 -0.19 0.03 -0.28 0.03 -0.207 0 -0.383 -0.026 -0.53 -0.08 -0.143 -0.057 -0.261 -0.133 -0.355 -0.23 -0.09 -0.1 -0.157 -0.215 -0.2 -0.345 -0.043 -0.13 -0.066 -0.27 -0.066 -0.42 0 -0.13 0.022 -0.26 0.066 -0.394 0.043 -0.137 0.111 -0.262 0.205 -0.375 0.093 -0.113 0.211 -0.205 0.355 -0.275 0.143 -0.073 0.314 -0.111 0.511 -0.111 z m 0.014 0.5 c -0.097 0 -0.18 0.021 -0.25 0.061 -0.067 0.04 -0.121 0.091 -0.164 0.155 -0.043 0.063 -0.075 0.131 -0.095 0.205 -0.02 0.073 -0.03 0.146 -0.03 0.216 0 0.203 0.047 0.356 0.144 0.459 0.1 0.103 0.256 0.155 0.466 0.155 0.097 0 0.191 -0.008 0.284 -0.025 0.093 -0.02 0.174 -0.048 0.241 -0.084 0.003 -0.037 0.005 -0.069 0.005 -0.095 l 0 -0.07 c 0 -0.133 -0.01 -0.258 -0.03 -0.375 -0.017 -0.12 -0.049 -0.223 -0.095 -0.309 -0.043 -0.09 -0.104 -0.161 -0.184 -0.211 -0.077 -0.053 -0.174 -0.08 -0.291 -0.08 z"/>
</svg>
