<svg viewBox="0 0 16 16" xmlns="http://www.w3.org/2000/svg">
 <path d="m 1.6 0 c -0.886 0 -1.6 0.714 -1.6 1.6 l 0 12.8 c 0 0.886 0.714 1.6 1.6 1.6 l 12.8 0 c 0.886 0 1.6 -0.714 1.6 -1.6 l 0 -12.8 c 0 -0.886 -0.714 -1.6 -1.6 -1.6 l -12.8 0 z m 0.548 4.67 1.17 0 c 0.147 0.253 0.309 0.563 0.489 0.93 c 0.18 0.367 0.363 0.753 0.55 1.159 0.187 0.4 0.37 0.811 0.55 1.231 0.187 0.413 0.358 0.797 0.511 1.15 0.153 -0.353 0.32 -0.737 0.5 -1.15 0.18 -0.42 0.363 -0.831 0.55 -1.231 0.187 -0.407 0.37 -0.793 0.55 -1.159 0.18 -0.367 0.342 -0.676 0.489 -0.93 l 1.141 0 c 0.06 0.507 0.117 1.047 0.17 1.62 0.053 0.567 0.099 1.15 0.139 1.75 0.047 0.593 0.087 1.193 0.12 1.8 0.04 0.6 0.073 1.186 0.1 1.759 l -1.239 0 c -0.027 -0.807 -0.06 -1.637 -0.1 -2.491 -0.033 -0.853 -0.088 -1.68 -0.161 -2.48 -0.073 0.153 -0.159 0.337 -0.259 0.55 -0.1 0.213 -0.207 0.447 -0.32 0.7 -0.113 0.247 -0.23 0.504 -0.35 0.77 -0.113 0.267 -0.227 0.526 -0.341 0.78 -0.107 0.247 -0.207 0.48 -0.3 0.7 -0.093 0.213 -0.172 0.397 -0.239 0.55 l -0.941 0 c -0.067 -0.153 -0.146 -0.339 -0.239 -0.559 -0.093 -0.22 -0.198 -0.453 -0.311 -0.7 -0.107 -0.253 -0.219 -0.513 -0.339 -0.78 -0.113 -0.267 -0.227 -0.524 -0.341 -0.77 -0.113 -0.247 -0.22 -0.477 -0.32 -0.691 c -0.1 -0.22 -0.186 -0.403 -0.259 -0.55 c -0.073 0.8 -0.13 1.626 -0.17 2.48 -0.033 0.853 -0.064 1.684 -0.091 2.491 l -1.239 0 c 0.027 -0.573 0.056 -1.166 0.089 -1.78 0.04 -0.613 0.08 -1.22 0.12 -1.82 0.047 -0.607 0.097 -1.193 0.15 -1.759 0.053 -0.567 0.11 -1.09 0.17 -1.57 z m 7.767 1.7 1.291 0 c 0.067 0.28 0.147 0.583 0.241 0.909 0.1 0.327 0.205 0.66 0.319 1 0.113 0.333 0.234 0.667 0.361 1 0.127 0.333 0.253 0.643 0.38 0.93 0.213 -0.593 0.413 -1.222 0.6 -1.889 0.187 -0.673 0.356 -1.323 0.509 -1.95 l 1.25 0 c -0.54 1.987 -1.166 3.787 -1.88 5.4 -0.133 0.3 -0.269 0.557 -0.409 0.77 -0.14 0.213 -0.297 0.39 -0.47 0.53 -0.173 0.14 -0.366 0.24 -0.58 0.3 -0.213 0.067 -0.461 0.1 -0.741 0.1 -0.187 0 -0.373 -0.021 -0.559 -0.061 -0.18 -0.04 -0.318 -0.083 -0.411 -0.13 l 0.22 -0.97 c 0.24 0.093 0.478 0.141 0.711 0.141 0.313 0 0.556 -0.076 0.73 -0.23 0.18 -0.147 0.337 -0.377 0.47 -0.691 -0.38 -0.733 -0.747 -1.533 -1.1 -2.4 c -0.347 -0.867 -0.658 -1.786 -0.931 -2.759 z" style="fill:#ececec;fill-opacity:1"/>
</svg>
