<svg viewBox="0 0 16 16" xmlns="http://www.w3.org/2000/svg">
 <path style="fill:#ececec;fill-opacity:1" d="m 1.6 0 c -0.886 0 -1.6 0.714 -1.6 1.6 l 0 12.8 c 0 0.886 0.714 1.6 1.6 1.6 l 12.8 0 c 0.886 0 1.6 -0.714 1.6 -1.6 l 0 -12.8 c 0 -0.886 -0.714 -1.6 -1.6 -1.6 l -12.8 0 z m 2.223 4.4 c 0.42 0 0.809 0.033 1.169 0.1 0.36 0.06 0.671 0.163 0.931 0.309 0.267 0.147 0.472 0.341 0.619 0.581 0.147 0.24 0.22 0.536 0.22 0.889 0 0.327 -0.079 0.607 -0.239 0.841 -0.153 0.233 -0.37 0.419 -0.65 0.559 0.42 0.14 0.73 0.347 0.93 0.62 0.2 0.273 0.3 0.621 0.3 1.041 0 0.713 -0.26 1.249 -0.78 1.609 -0.52 0.353 -1.317 0.53 -2.391 0.53 -0.367 0 -0.736 -0.012 -1.109 -0.039 -0.373 -0.02 -0.701 -0.067 -0.981 -0.141 l 0 -6.73 c 0.147 -0.027 0.304 -0.05 0.47 -0.07 0.167 -0.027 0.338 -0.046 0.511 -0.059 0.173 -0.013 0.343 -0.025 0.509 -0.031 0.173 -0.007 0.337 -0.009 0.491 -0.009 z m 0.159 1.03 c -0.193 0 -0.367 0.004 -0.52 0.011 -0.147 0.007 -0.273 0.016 -0.38 0.03 l 0 1.82 0.891 0 c 0.48 0 0.856 -0.067 1.13 -0.2 0.273 -0.14 0.409 -0.387 0.409 -0.741 0 -0.333 -0.143 -0.569 -0.43 -0.709 -0.28 -0.14 -0.647 -0.211 -1.1 -0.211 z m 6.04 0.611 c 0.307 0 0.6 0.029 0.88 0.089 0.28 0.053 0.491 0.108 0.631 0.161 l -0.22 0.98 c -0.133 -0.06 -0.304 -0.114 -0.511 -0.161 -0.207 -0.053 -0.445 -0.08 -0.719 -0.08 -0.247 0 -0.447 0.043 -0.6 0.13 -0.153 0.08 -0.231 0.208 -0.231 0.381 0 0.087 0.014 0.163 0.041 0.23 0.033 0.067 0.086 0.129 0.159 0.189 0.073 0.053 0.171 0.11 0.291 0.17 c 0.12 0.053 0.267 0.11 0.441 0.17 c 0.287 0.107 0.53 0.214 0.73 0.32 0.2 0.1 0.362 0.217 0.489 0.35 0.133 0.127 0.231 0.272 0.291 0.439 0.06 0.167 0.091 0.367 0.091 0.6 0 0.5 -0.188 0.881 -0.561 1.141 -0.367 0.253 -0.893 0.38 -1.58 0.38 -0.46 0 -0.829 -0.04 -1.109 -0.12 -0.28 -0.073 -0.477 -0.133 -0.591 -0.18 l 0.209 -1.01 c 0.18 0.073 0.394 0.143 0.641 0.209 0.253 0.067 0.539 0.1 0.859 0.1 0.32 0 0.553 -0.036 0.7 -0.109 0.147 -0.08 0.22 -0.213 0.22 -0.4 0 -0.173 -0.079 -0.316 -0.239 -0.43 c -0.153 -0.113 -0.41 -0.237 -0.77 -0.37 c -0.22 -0.08 -0.424 -0.163 -0.611 -0.25 c -0.18 -0.093 -0.335 -0.2 -0.469 -0.32 -0.133 -0.12 -0.24 -0.263 -0.32 -0.43 -0.073 -0.173 -0.111 -0.383 -0.111 -0.63 c 0 -0.48 0.178 -0.858 0.531 -1.131 0.353 -0.28 0.832 -0.419 1.439 -0.419 z m -6.942 2.239 0 2.111 c 0.14 0.013 0.29 0.023 0.45 0.03 0.16 0.007 0.307 0.009 0.441 0.009 0.26 0 0.499 -0.017 0.719 -0.05 0.227 -0.033 0.421 -0.09 0.581 -0.17 0.167 -0.087 0.296 -0.199 0.389 -0.339 0.1 -0.14 0.15 -0.321 0.15 -0.541 c 0 -0.393 -0.143 -0.667 -0.43 -0.82 -0.287 -0.153 -0.684 -0.23 -1.191 -0.23 l -1.109 0 z m 10.317 1.575 c 0.193 0 0.36 0.024 0.5 0.07 0.14 0.047 0.255 0.113 0.345 0.2 0.093 0.083 0.161 0.183 0.205 0.3 0.047 0.113 0.07 0.238 0.07 0.375 0 0.16 -0.044 0.303 -0.134 0.43 -0.087 0.127 -0.201 0.224 -0.341 0.291 0.18 0.063 0.329 0.167 0.445 0.314 0.12 0.147 0.18 0.336 0.18 0.566 0 0.153 -0.026 0.296 -0.08 0.43 -0.053 0.13 -0.135 0.244 -0.245 0.341 -0.11 0.093 -0.25 0.168 -0.42 0.225 -0.167 0.053 -0.367 0.08 -0.6 0.08 -0.09 0 -0.183 -0.007 -0.28 -0.02 -0.093 -0.01 -0.184 -0.025 -0.27 -0.045 -0.083 -0.017 -0.16 -0.035 -0.23 -0.055 -0.07 -0.023 -0.123 -0.044 -0.159 -0.064 l 0.12 -0.516 c 0.07 0.033 0.171 0.072 0.305 0.116 0.133 0.04 0.299 0.059 0.495 0.059 0.263 0 0.452 -0.05 0.569 -0.15 0.117 -0.103 0.175 -0.239 0.175 -0.409 0 -0.11 -0.022 -0.202 -0.069 -0.275 -0.043 -0.073 -0.106 -0.132 -0.186 -0.175 -0.077 -0.047 -0.167 -0.079 -0.27 -0.095 -0.1 -0.02 -0.205 -0.03 -0.319 -0.03 l -0.206 0 0 -0.491 0.25 0 c 0.077 0 0.155 -0.007 0.231 -0.02 0.08 -0.017 0.151 -0.043 0.214 -0.08 0.063 -0.04 0.115 -0.091 0.155 -0.155 0.04 -0.063 0.061 -0.145 0.061 -0.245 0 -0.08 -0.015 -0.148 -0.045 -0.205 -0.03 -0.057 -0.07 -0.104 -0.12 -0.141 -0.047 -0.037 -0.101 -0.063 -0.164 -0.08 -0.063 -0.017 -0.13 -0.025 -0.2 -0.025 -0.15 0 -0.283 0.024 -0.4 0.07 -0.117 0.043 -0.221 0.093 -0.311 0.15 l -0.22 -0.45 c 0.047 -0.03 0.104 -0.062 0.17 -0.095 0.067 -0.033 0.14 -0.065 0.22 -0.095 0.083 -0.03 0.172 -0.054 0.266 -0.07 0.093 -0.02 0.19 -0.03 0.294 -0.03 z"/>
</svg>
