<svg viewBox="0 0 16 16" xmlns="http://www.w3.org/2000/svg">
 <path style="fill:#ececec;fill-opacity:1" d="m 1.6 0 c -0.886 0 -1.6 0.714 -1.6 1.6 l 0 12.8 c 0 0.886 0.714 1.6 1.6 1.6 l 12.8 0 c 0.886 0 1.6 -0.714 1.6 -1.6 l 0 -12.8 c 0 -0.886 -0.714 -1.6 -1.6 -1.6 l -12.8 0 z m 8.577 3.891 c 0.2 0 0.372 0.067 0.519 0.2 0.147 0.133 0.22 0.317 0.22 0.55 0 0.227 -0.074 0.406 -0.22 0.539 -0.147 0.133 -0.319 0.2 -0.519 0.2 -0.207 0 -0.385 -0.067 -0.531 -0.2 c -0.147 -0.133 -0.219 -0.312 -0.219 -0.539 c 0 -0.233 0.072 -0.417 0.219 -0.55 0.147 -0.133 0.325 -0.2 0.531 -0.2 z m -7.737 0.58 1.259 0 0 2.77 3.01 0 0 -2.77 1.261 0 0 6.93 -1.261 0 0 -3.07 -3.01 0 0 3.07 -1.259 0 0 -6.93 z m 7.137 1.7 1.209 0 0 5.23 -1.209 0 0 -5.23 z m 3.523 3.764 l 0.425 0 0 3.466 -0.605 0 0 -2.655 c -0.09 0.07 -0.204 0.138 -0.341 0.205 -0.137 0.067 -0.269 0.122 -0.395 0.166 l -0.184 -0.461 c 0.193 -0.077 0.386 -0.175 0.58 -0.295 c 0.197 -0.12 0.37 -0.262 0.52 -0.425 z"/>
</svg>
