<svg viewBox="0 0 16 16" xmlns="http://www.w3.org/2000/svg">
 <path style="fill:#ececec;fill-opacity:1" d="m 1.6 0 c -0.886 0 -1.6 0.714 -1.6 1.6 l 0 12.8 c 0 0.886 0.714 1.6 1.6 1.6 l 12.8 0 c 0.886 0 1.6 -0.714 1.6 -1.6 l 0 -12.8 c 0 -0.886 -0.714 -1.6 -1.6 -1.6 l -12.8 0 z m 6.989 3.641 0 2.589 c 0.133 -0.047 0.286 -0.087 0.459 -0.12 c 0.18 -0.033 0.356 -0.05 0.53 -0.05 0.42 0 0.767 0.061 1.041 0.181 0.28 0.113 0.504 0.276 0.67 0.489 0.167 0.207 0.283 0.457 0.35 0.75 0.073 0.293 0.109 0.62 0.109 0.98 l 0 2.941 -1.209 0 0 -2.75 c 0 -0.28 -0.021 -0.516 -0.061 -0.709 -0.033 -0.2 -0.093 -0.361 -0.18 -0.481 c -0.08 -0.127 -0.19 -0.215 -0.33 -0.269 -0.14 -0.06 -0.314 -0.091 -0.52 -0.091 c -0.16 0 -0.324 0.017 -0.491 0.05 -0.167 0.033 -0.289 0.064 -0.369 0.091 l 0 4.159 -1.211 0 0 -7.559 1.211 -0.2 z m -7.389 0.83 l 4.959 0 0 0.93 c -0.22 0.24 -0.487 0.554 -0.8 0.941 -0.313 0.38 -0.637 0.797 -0.97 1.25 c -0.333 0.447 -0.662 0.909 -0.989 1.389 -0.32 0.473 -0.603 0.923 -0.85 1.35 l 3.719 0 0 1.07 -5.239 0 0 -0.791 c 0.133 -0.247 0.286 -0.513 0.459 -0.8 0.18 -0.293 0.37 -0.593 0.57 -0.9 0.2 -0.307 0.407 -0.616 0.62 -0.93 0.22 -0.313 0.437 -0.613 0.65 -0.9 c 0.213 -0.293 0.42 -0.57 0.62 -0.83 0.207 -0.267 0.4 -0.503 0.58 -0.709 l -3.33 0 0 -1.07 z m 12.484 5.384 c 0.193 0 0.36 0.024 0.5 0.07 0.14 0.047 0.254 0.113 0.344 0.2 0.093 0.083 0.163 0.183 0.206 0.3 0.047 0.113 0.069 0.238 0.069 0.375 0 0.16 -0.044 0.303 -0.134 0.43 -0.087 0.127 -0.201 0.224 -0.341 0.291 0.18 0.063 0.329 0.167 0.445 0.314 0.12 0.147 0.18 0.336 0.18 0.566 0 0.153 -0.026 0.296 -0.08 0.43 -0.053 0.13 -0.135 0.244 -0.245 0.341 -0.11 0.093 -0.249 0.168 -0.419 0.225 -0.167 0.053 -0.367 0.08 -0.6 0.08 -0.09 0 -0.185 -0.007 -0.281 -0.02 -0.093 -0.01 -0.182 -0.025 -0.269 -0.045 -0.083 -0.017 -0.161 -0.035 -0.231 -0.055 -0.07 -0.023 -0.123 -0.044 -0.159 -0.064 l 0.12 -0.516 c 0.07 0.033 0.171 0.072 0.305 0.116 0.133 0.04 0.299 0.059 0.495 0.059 0.263 0 0.454 -0.05 0.57 -0.15 0.117 -0.103 0.175 -0.239 0.175 -0.409 0 -0.11 -0.024 -0.202 -0.07 -0.275 -0.043 -0.073 -0.106 -0.132 -0.186 -0.175 -0.077 -0.047 -0.165 -0.079 -0.269 -0.095 -0.1 -0.02 -0.207 -0.03 -0.32 -0.03 l -0.205 0 0 -0.491 0.25 0 c 0.077 0 0.153 -0.007 0.23 -0.02 0.08 -0.017 0.151 -0.043 0.214 -0.08 0.063 -0.04 0.116 -0.091 0.156 -0.155 0.04 -0.063 0.059 -0.145 0.059 -0.245 0 -0.08 -0.015 -0.148 -0.045 -0.205 -0.03 -0.057 -0.07 -0.104 -0.12 -0.141 -0.047 -0.037 -0.101 -0.063 -0.164 -0.08 -0.063 -0.017 -0.13 -0.025 -0.2 -0.025 -0.15 0 -0.283 0.024 -0.4 0.07 -0.117 0.043 -0.221 0.093 -0.311 0.15 l -0.219 -0.45 c 0.047 -0.03 0.102 -0.062 0.169 -0.095 0.067 -0.033 0.14 -0.065 0.22 -0.095 0.083 -0.03 0.172 -0.054 0.266 -0.07 0.093 -0.02 0.192 -0.03 0.295 -0.03 z"/>
</svg>
