<svg xmlns="http://www.w3.org/2000/svg" viewBox="0 0 16 16">
 <path d="m 1.6 0 c -0.886 0 -1.6 0.714 -1.6 1.6 l 0 12.8 c 0 0.886 0.714 1.6 1.6 1.6 l 12.8 0 c 0.886 0 1.6 -0.714 1.6 -1.6 l 0 -12.8 c 0 -0.886 -0.714 -1.6 -1.6 -1.6 l -12.8 0 z m -0.1 4.47 1.27 0 0 4.209 c 0 0.313 0.033 0.584 0.1 0.811 0.073 0.22 0.173 0.399 0.3 0.539 0.133 0.14 0.286 0.244 0.459 0.311 0.18 0.067 0.38 0.1 0.6 0.1 0.22 0 0.42 -0.033 0.6 -0.1 0.18 -0.067 0.333 -0.171 0.459 -0.311 0.133 -0.14 0.233 -0.319 0.3 -0.539 c 0.073 -0.227 0.111 -0.498 0.111 -0.811 l 0 -4.209 1.27 0 0 4.33 c 0 0.4 -0.057 0.767 -0.17 1.1 -0.107 0.333 -0.273 0.624 -0.5 0.87 -0.22 0.247 -0.503 0.44 -0.85 0.58 -0.347 0.133 -0.756 0.2 -1.23 0.2 -0.473 0 -0.88 -0.067 -1.22 -0.2 -0.34 -0.14 -0.623 -0.333 -0.85 -0.58 -0.22 -0.247 -0.384 -0.537 -0.491 -0.87 -0.107 -0.333 -0.159 -0.7 -0.159 -1.1 l 0 -4.33 z m 6.555 1.7 3.97 0 0 0.85 c -0.133 0.14 -0.31 0.336 -0.53 0.589 -0.213 0.253 -0.444 0.537 -0.691 0.85 -0.247 0.307 -0.497 0.63 -0.75 0.97 c -0.247 0.333 -0.47 0.654 -0.67 0.961 l 2.7 0 0 1.01 -4.159 0 0 -0.75 c 0.147 -0.267 0.33 -0.557 0.55 -0.87 0.22 -0.313 0.446 -0.626 0.68 -0.939 0.233 -0.32 0.464 -0.624 0.691 -0.911 0.233 -0.287 0.439 -0.537 0.619 -0.75 l -2.409 0 0 -1.01 z m 5.709 3.684 c 0.37 0 0.641 0.089 0.814 0.266 0.177 0.173 0.266 0.411 0.266 0.714 0 0.12 -0.025 0.24 -0.075 0.356 -0.05 0.113 -0.115 0.224 -0.195 0.334 -0.077 0.107 -0.166 0.212 -0.266 0.316 -0.1 0.1 -0.2 0.197 -0.3 0.294 -0.053 0.05 -0.113 0.111 -0.18 0.181 -0.067 0.07 -0.129 0.139 -0.189 0.209 -0.06 0.07 -0.113 0.138 -0.156 0.205 -0.043 0.063 -0.065 0.118 -0.069 0.161 l 1.539 0 0 0.509 -2.205 0 c -0.003 -0.027 -0.005 -0.059 -0.005 -0.095 l 0 -0.089 c 0 -0.16 0.025 -0.307 0.075 -0.441 0.053 -0.137 0.121 -0.263 0.205 -0.38 0.083 -0.117 0.176 -0.226 0.28 -0.33 0.103 -0.103 0.208 -0.206 0.311 -0.306 0.08 -0.077 0.156 -0.152 0.23 -0.225 0.073 -0.073 0.136 -0.144 0.189 -0.214 0.057 -0.073 0.103 -0.147 0.136 -0.22 0.033 -0.077 0.05 -0.154 0.05 -0.234 0 -0.173 -0.05 -0.297 -0.15 -0.37 -0.1 -0.073 -0.222 -0.111 -0.366 -0.111 -0.093 0 -0.179 0.014 -0.259 0.041 -0.08 0.027 -0.152 0.059 -0.216 0.095 -0.06 0.037 -0.113 0.074 -0.159 0.114 -0.047 0.037 -0.081 0.067 -0.105 0.091 l -0.3 -0.425 c 0.14 -0.133 0.302 -0.24 0.489 -0.32 0.19 -0.083 0.394 -0.125 0.611 -0.125 z" style="fill:#ececec;fill-opacity:1"/>
</svg>
