<svg xmlns="http://www.w3.org/2000/svg" viewBox="0 0 16 16">
 <path style="fill:#ececec;fill-opacity:1" d="m 1.6 0 c -0.886 0 -1.6 0.714 -1.6 1.6 l 0 12.8 c 0 0.886 0.714 1.6 1.6 1.6 l 12.8 0 c 0.886 0 1.6 -0.714 1.6 -1.6 l 0 -12.8 c 0 -0.886 -0.714 -1.6 -1.6 -1.6 l -12.8 0 z m -0.383 4.47 1.261 0 0 2.77 3.01 0 0 -2.77 1.261 0 0 6.93 -1.261 0 0 -3.07 -3.01 0 0 3.07 -1.261 0 0 -6.93 z m 6.448 1.7 1.289 0 c 0.067 0.28 0.147 0.583 0.241 0.909 0.1 0.327 0.207 0.66 0.32 1 0.113 0.333 0.233 0.667 0.359 1 0.127 0.333 0.253 0.643 0.38 0.93 0.213 -0.593 0.413 -1.222 0.6 -1.889 0.187 -0.673 0.358 -1.323 0.511 -1.95 l 1.25 0 c -0.54 1.987 -1.166 3.787 -1.88 5.4 -0.133 0.3 -0.271 0.557 -0.411 0.77 -0.14 0.213 -0.297 0.39 -0.47 0.53 -0.173 0.14 -0.366 0.24 -0.58 0.3 -0.213 0.067 -0.459 0.1 -0.739 0.1 -0.187 0 -0.374 -0.021 -0.561 -0.061 -0.18 -0.04 -0.316 -0.083 -0.409 -0.13 l 0.22 -0.97 c 0.24 0.093 0.476 0.141 0.709 0.141 0.313 0 0.556 -0.076 0.73 -0.23 0.18 -0.147 0.337 -0.377 0.47 -0.691 -0.38 -0.733 -0.747 -1.533 -1.1 -2.4 c -0.347 -0.867 -0.656 -1.786 -0.93 -2.759 z m 6.359 3.684 c 0.193 0 0.36 0.024 0.5 0.07 0.14 0.047 0.255 0.113 0.345 0.2 0.093 0.083 0.161 0.183 0.205 0.3 0.047 0.113 0.07 0.238 0.07 0.375 0 0.16 -0.044 0.303 -0.134 0.43 -0.087 0.127 -0.201 0.224 -0.341 0.291 0.18 0.063 0.329 0.167 0.445 0.314 0.12 0.147 0.18 0.336 0.18 0.566 0 0.153 -0.026 0.296 -0.08 0.43 -0.053 0.13 -0.135 0.244 -0.245 0.341 -0.11 0.093 -0.25 0.168 -0.42 0.225 -0.167 0.053 -0.367 0.08 -0.6 0.08 -0.09 0 -0.183 -0.007 -0.28 -0.02 -0.093 -0.01 -0.184 -0.025 -0.27 -0.045 -0.083 -0.017 -0.16 -0.035 -0.23 -0.055 -0.07 -0.023 -0.123 -0.044 -0.159 -0.064 l 0.12 -0.516 c 0.07 0.033 0.171 0.072 0.305 0.116 0.133 0.04 0.299 0.059 0.495 0.059 0.263 0 0.452 -0.05 0.569 -0.15 0.117 -0.103 0.175 -0.239 0.175 -0.409 0 -0.11 -0.022 -0.202 -0.069 -0.275 -0.043 -0.073 -0.106 -0.132 -0.186 -0.175 -0.077 -0.047 -0.167 -0.079 -0.27 -0.095 -0.1 -0.02 -0.205 -0.03 -0.319 -0.03 l -0.206 0 0 -0.491 0.25 0 c 0.077 0 0.155 -0.007 0.231 -0.02 0.08 -0.017 0.151 -0.043 0.214 -0.08 0.063 -0.04 0.115 -0.091 0.155 -0.155 0.04 -0.063 0.061 -0.145 0.061 -0.245 0 -0.08 -0.015 -0.148 -0.045 -0.205 -0.03 -0.057 -0.07 -0.104 -0.12 -0.141 -0.047 -0.037 -0.101 -0.063 -0.164 -0.08 -0.063 -0.017 -0.13 -0.025 -0.2 -0.025 -0.15 0 -0.283 0.024 -0.4 0.07 -0.117 0.043 -0.221 0.093 -0.311 0.15 l -0.22 -0.45 c 0.047 -0.03 0.104 -0.062 0.17 -0.095 0.067 -0.033 0.14 -0.065 0.22 -0.095 0.083 -0.03 0.172 -0.054 0.266 -0.07 0.093 -0.02 0.19 -0.03 0.294 -0.03 z"/>
</svg>
