<svg xmlns="http://www.w3.org/2000/svg" viewBox="0 0 16 16">
 <g transform="translate(0,-1037.0442)">"&gt;
            <path d="m 7 1049.04 -1.909 1.273 c -1.09 0.727 -1.181 0.727 -0.09 0.727 l 6 0 c 1.091 0 1 0 -0.092 -0.727 l -1.909 -1.273 0 -1.5 -2 0 z" style="fill:#ececec;fill-opacity:1;stroke:none"/>  <path d="m 3 1039.04 c -0.806 0 -1 0.195 -1 1 l 0 7 c 0 0.806 0.194 1 1 1 l 10 0 c 0.806 0 1 -0.195 1 -1 l 0 -7 c 0 -0.806 -0.194 -1 -1 -1 z m 0 1 10 0 0 7 -10 0 z" style="fill:#ececec;fill-opacity:1;stroke:none"/>  <g transform="translate(0.03728675,0)" style="fill:#ececec;fill-opacity:1;stroke:none">   <path d="m 6.425 1045.99 0 -0.858 q 0.286 0.134 0.547 0.202 0.261 0.065 0.516 0.065 0.534 0 0.833 -0.295 0.298 -0.298 0.351 -0.882 -0.211 0.155 -0.451 0.233 -0.239 0.078 -0.519 0.078 -0.712 0 -1.15 -0.413 -0.435 -0.416 -0.435 -1.094 0 -0.749 0.485 -1.199 0.488 -0.45 1.305 -0.45 0.907 0 1.404 0.612 0.497 0.612 0.497 1.731 0 1.15 -0.581 1.808 -0.581 0.656 -1.594 0.656 -0.326 0 -0.625 -0.05 -0.298 -0.047 -0.584 -0.143 z m 1.476 -2.234 q 0.314 0 0.472 -0.202 0.158 -0.205 0.158 -0.612 0 -0.404 -0.158 -0.609 -0.158 -0.205 -0.472 -0.205 -0.314 0 -0.472 0.205 -0.158 0.205 -0.158 0.609 0 0.407 0.158 0.612 0.158 0.202 0.472 0.202 z"/></g></g>
</svg>
