<svg xmlns="http://www.w3.org/2000/svg" viewBox="0 0 16 16">
 <path d="m 1.6 0 c -0.886 0 -1.6 0.714 -1.6 1.6 l 0 12.8 c 0 0.886 0.714 1.6 1.6 1.6 l 12.8 0 c 0.886 0 1.6 -0.714 1.6 -1.6 l 0 -12.8 c 0 -0.886 -0.714 -1.6 -1.6 -1.6 l -12.8 0 z m 3.79 4.67 1.189 0 c 0.234 0.494 0.462 0.994 0.682 1.5 0.22 0.506 0.439 1.04 0.659 1.6 0.226 0.56 0.458 1.153 0.69 1.78 0.24 0.626 0.49 1.31 0.75 2.05 l -1.361 0 c -0.094 -0.274 -0.189 -0.542 -0.289 -0.81 c -0.1 -0.266 -0.198 -0.54 -0.29 -0.82 l -2.92 0 c -0.094 0.28 -0.189 0.556 -0.289 0.83 l -0.282 0.8 -1.31 0 c 0.26 -0.74 0.507 -1.423 0.741 -2.05 0.234 -0.626 0.46 -1.22 0.68 -1.78 0.226 -0.56 0.45 -1.094 0.67 -1.6 0.22 -0.506 0.446 -1.01 0.68 -1.5 z m 0.57 1.339 c -0.154 0.354 -0.331 0.784 -0.531 1.29 -0.194 0.506 -0.396 1.057 -0.61 1.65 l 2.28 0 c -0.214 -0.594 -0.42 -1.146 -0.62 -1.659 -0.2 -0.514 -0.372 -0.942 -0.518 -1.282 z m 6.254 0.25 c 0.08 0 0.174 0.007 0.282 0.02 0.106 0.006 0.212 0.021 0.318 0.041 0.106 0.014 0.211 0.033 0.311 0.059 0.1 0.02 0.179 0.041 0.239 0.061 l -0.21 1.018 c -0.1 -0.034 -0.24 -0.066 -0.42 -0.1 c -0.174 -0.04 -0.376 -0.059 -0.61 -0.059 c -0.134 0 -0.276 0.014 -0.43 0.041 -0.146 0.026 -0.251 0.049 -0.311 0.069 l 0 4.19 -1.21 0 0 -4.98 c 0.234 -0.086 0.524 -0.167 0.87 -0.241 0.354 -0.08 0.742 -0.12 1.169 -0.12 z" style="fill:#ececec;fill-opacity:1"/>
</svg>
