<svg viewBox="0 0 16 16" xmlns="http://www.w3.org/2000/svg">
 <path d="m 1.6 0 c -0.886 0 -1.6 0.714 -1.6 1.6 l 0 12.8 c 0 0.886 0.714 1.6 1.6 1.6 l 12.8 0 c 0.886 0 1.6 -0.714 1.6 -1.6 l 0 -12.8 c 0 -0.886 -0.714 -1.6 -1.6 -1.6 l -12.8 0 z m -0.05 4.47 4.45 0 0 1.07 -3.191 0 0 1.709 2.841 0 0 1.05 -2.841 0 0 2.03 3.43 0 0 1.07 -4.689 0 0 -6.93 z m 7.948 1.589 c 0.427 0 0.784 0.061 1.07 0.181 0.287 0.113 0.513 0.276 0.68 0.489 0.173 0.207 0.294 0.461 0.361 0.761 0.073 0.293 0.109 0.615 0.109 0.969 l 0 2.941 -1.209 0 0 -2.75 c 0 -0.28 -0.021 -0.516 -0.061 -0.709 -0.033 -0.2 -0.093 -0.361 -0.18 -0.481 c -0.08 -0.127 -0.192 -0.215 -0.339 -0.269 -0.14 -0.06 -0.314 -0.091 -0.52 -0.091 c -0.153 0 -0.313 0.01 -0.48 0.03 -0.167 0.02 -0.29 0.037 -0.37 0.05 l 0 4.22 -1.211 0 0 -5.059 c 0.233 -0.067 0.538 -0.131 0.911 -0.191 0.373 -0.06 0.786 -0.091 1.239 -0.091 z m 4.359 3.795 c 0.197 0 0.363 0.029 0.5 0.086 0.14 0.057 0.254 0.129 0.341 0.219 0.09 0.09 0.155 0.19 0.195 0.3 0.04 0.11 0.059 0.217 0.059 0.32 0 0.183 -0.05 0.347 -0.15 0.491 -0.1 0.14 -0.215 0.251 -0.345 0.334 0.197 0.107 0.343 0.23 0.436 0.37 0.097 0.14 0.145 0.305 0.145 0.495 0 0.143 -0.025 0.277 -0.075 0.4 -0.05 0.123 -0.125 0.23 -0.225 0.32 -0.1 0.09 -0.225 0.159 -0.375 0.209 -0.147 0.05 -0.318 0.075 -0.511 0.075 -0.227 0 -0.414 -0.032 -0.564 -0.095 -0.15 -0.063 -0.271 -0.142 -0.361 -0.239 -0.09 -0.097 -0.155 -0.201 -0.195 -0.311 -0.037 -0.113 -0.055 -0.22 -0.055 -0.32 0 -0.1 0.014 -0.192 0.041 -0.275 0.03 -0.087 0.07 -0.164 0.12 -0.234 0.05 -0.073 0.105 -0.14 0.169 -0.2 0.063 -0.06 0.13 -0.113 0.2 -0.159 -0.153 -0.107 -0.267 -0.222 -0.344 -0.345 -0.073 -0.127 -0.111 -0.281 -0.111 -0.461 0 -0.13 0.025 -0.252 0.075 -0.369 0.053 -0.12 0.128 -0.226 0.225 -0.316 0.097 -0.09 0.213 -0.162 0.35 -0.216 0.137 -0.053 0.288 -0.08 0.455 -0.08 z m 0 0.495 c -0.09 0 -0.168 0.015 -0.234 0.045 -0.063 0.027 -0.115 0.063 -0.155 0.109 -0.04 0.043 -0.071 0.092 -0.091 0.145 -0.02 0.05 -0.03 0.1 -0.03 0.15 0 0.127 0.047 0.246 0.141 0.359 0.097 0.113 0.256 0.204 0.48 0.27 0.123 -0.077 0.219 -0.163 0.289 -0.259 0.07 -0.1 0.106 -0.226 0.106 -0.38 0 -0.043 -0.011 -0.091 -0.031 -0.141 -0.017 -0.053 -0.046 -0.102 -0.089 -0.145 -0.04 -0.043 -0.091 -0.079 -0.155 -0.109 -0.063 -0.03 -0.141 -0.045 -0.231 -0.045 z m -0.184 1.484 c -0.12 0.077 -0.217 0.171 -0.291 0.281 c -0.073 0.107 -0.109 0.234 -0.109 0.384 c 0 0.05 0.01 0.103 0.03 0.159 0.02 0.057 0.053 0.11 0.1 0.156 0.047 0.047 0.106 0.085 0.18 0.119 0.073 0.03 0.165 0.045 0.275 0.045 0.1 0 0.188 -0.012 0.261 -0.039 0.073 -0.027 0.133 -0.063 0.18 -0.106 0.047 -0.047 0.081 -0.098 0.105 -0.155 0.023 -0.06 0.036 -0.12 0.036 -0.18 0 -0.093 -0.02 -0.175 -0.056 -0.245 -0.037 -0.07 -0.089 -0.13 -0.159 -0.18 -0.067 -0.053 -0.147 -0.098 -0.241 -0.134 -0.093 -0.04 -0.196 -0.076 -0.309 -0.106 z" style="fill:#ececec;fill-opacity:1"/>
</svg>
