<svg viewBox="0 0 16 16" xmlns="http://www.w3.org/2000/svg">
 <path style="fill:#ececec;fill-opacity:1" d="m 1.6 0 c -0.886 0 -1.6 0.714 -1.6 1.6 l 0 12.8 c 0 0.886 0.714 1.6 1.6 1.6 l 12.8 0 c 0.886 0 1.6 -0.714 1.6 -1.6 l 0 -12.8 c 0 -0.886 -0.714 -1.6 -1.6 -1.6 l -12.8 0 z m 3.586 4.509 c 0.433 0 0.817 0.05 1.15 0.15 0.34 0.093 0.607 0.198 0.8 0.311 l -0.389 1.02 c -0.227 -0.127 -0.477 -0.224 -0.75 -0.291 -0.267 -0.067 -0.545 -0.1 -0.831 -0.1 c -0.34 0 -0.607 0.069 -0.8 0.209 -0.187 0.14 -0.28 0.337 -0.28 0.591 0 0.153 0.031 0.287 0.091 0.4 0.067 0.107 0.157 0.204 0.27 0.291 0.12 0.087 0.256 0.166 0.409 0.239 0.16 0.073 0.334 0.144 0.52 0.211 0.327 0.12 0.617 0.242 0.87 0.369 0.26 0.12 0.477 0.267 0.65 0.441 0.18 0.167 0.316 0.367 0.409 0.6 0.093 0.227 0.141 0.503 0.141 0.83 0 0.627 -0.224 1.114 -0.67 1.461 -0.44 0.34 -1.087 0.509 -1.941 0.509 -0.287 0 -0.549 -0.019 -0.789 -0.059 c -0.233 -0.033 -0.445 -0.078 -0.631 -0.131 -0.18 -0.053 -0.335 -0.106 -0.469 -0.159 -0.133 -0.06 -0.24 -0.113 -0.32 -0.159 l 0.37 -1.031 c 0.18 0.1 0.423 0.2 0.73 0.3 0.307 0.1 0.676 0.15 1.109 0.15 0.453 0 0.784 -0.076 0.991 -0.23 0.207 -0.153 0.309 -0.37 0.309 -0.65 c 0 -0.167 -0.036 -0.31 -0.109 -0.43 c -0.067 -0.12 -0.167 -0.227 -0.3 -0.32 -0.127 -0.1 -0.284 -0.19 -0.47 -0.27 -0.187 -0.087 -0.401 -0.17 -0.641 -0.25 -0.24 -0.087 -0.473 -0.18 -0.7 -0.28 c -0.22 -0.107 -0.416 -0.236 -0.589 -0.389 -0.167 -0.153 -0.304 -0.337 -0.411 -0.55 c -0.1 -0.213 -0.15 -0.47 -0.15 -0.77 0 -0.627 0.217 -1.117 0.65 -1.47 c 0.433 -0.36 1.024 -0.541 1.77 -0.541 z m 5.67 1.75 c 0.413 0 0.801 0.031 1.161 0.091 0.36 0.06 0.656 0.124 0.889 0.191 l 0 6.909 -1.209 0 0 -2.03 c -0.14 0.073 -0.314 0.14 -0.52 0.2 -0.2 0.06 -0.424 0.089 -0.67 0.089 -0.373 0 -0.702 -0.062 -0.989 -0.189 -0.287 -0.133 -0.527 -0.321 -0.72 -0.561 -0.193 -0.24 -0.343 -0.526 -0.45 -0.859 -0.1 -0.333 -0.15 -0.703 -0.15 -1.109 0 -0.413 0.06 -0.787 0.18 -1.12 0.127 -0.34 0.303 -0.628 0.53 -0.861 0.233 -0.24 0.514 -0.423 0.841 -0.55 0.327 -0.133 0.696 -0.2 1.109 -0.2 z m 0.011 1.041 c -0.447 0 -0.797 0.153 -1.05 0.459 -0.253 0.3 -0.38 0.717 -0.38 1.25 0 0.507 0.1 0.911 0.3 1.211 0.207 0.3 0.529 0.45 0.969 0.45 0.2 0 0.388 -0.031 0.561 -0.091 0.18 -0.067 0.323 -0.136 0.43 -0.209 l 0 -2.991 c -0.087 -0.02 -0.196 -0.037 -0.33 -0.05 -0.127 -0.02 -0.293 -0.03 -0.5 -0.03 z"/>
</svg>
