<svg xmlns="http://www.w3.org/2000/svg" viewBox="0 0 16 16">
 <path style="fill:#ececec;fill-opacity:1" d="m 1.6 0 c -0.886 0 -1.6 0.714 -1.6 1.6 l 0 12.8 c 0 0.886 0.714 1.6 1.6 1.6 l 12.8 0 c 0.886 0 1.6 -0.714 1.6 -1.6 l 0 -12.8 c 0 -0.886 -0.714 -1.6 -1.6 -1.6 l -12.8 0 z m 1.305 4.4 c 0.58 0 1.111 0.069 1.591 0.209 c 0.48 0.133 0.89 0.347 1.23 0.641 c 0.347 0.287 0.613 0.653 0.8 1.1 0.187 0.44 0.28 0.966 0.28 1.58 0 0.6 -0.093 1.124 -0.28 1.57 -0.187 0.44 -0.453 0.809 -0.8 1.109 -0.34 0.293 -0.754 0.514 -1.241 0.661 -0.48 0.14 -1.013 0.209 -1.6 0.209 -0.28 0 -0.597 -0.012 -0.95 -0.039 c -0.353 -0.02 -0.689 -0.067 -1.01 -0.141 l 0 -6.73 c 0.32 -0.073 0.66 -0.121 1.02 -0.141 0.36 -0.02 0.679 -0.03 0.959 -0.03 z m 0.08 1.091 c -0.373 0 -0.64 0.01 -0.8 0.03 l 0 4.839 c 0.073 0.007 0.171 0.014 0.291 0.02 l 0.489 0 c 0.847 0 1.477 -0.212 1.891 -0.639 0.42 -0.433 0.63 -1.038 0.63 -1.811 0 -0.787 -0.203 -1.389 -0.609 -1.809 -0.407 -0.42 -1.037 -0.63 -1.891 -0.63 z m 7.286 0.55 c 0.72 0 1.28 0.222 1.68 0.669 0.407 0.447 0.611 1.113 0.611 2 0 0.067 -0.004 0.145 -0.011 0.231 0 0.08 -0.003 0.152 -0.009 0.219 l -3.45 0 c 0.033 0.42 0.179 0.748 0.439 0.981 0.267 0.227 0.65 0.339 1.15 0.339 0.293 0 0.56 -0.026 0.8 -0.08 0.247 -0.053 0.441 -0.11 0.581 -0.17 l 0.159 0.991 c -0.067 0.033 -0.16 0.069 -0.28 0.109 -0.113 0.033 -0.247 0.064 -0.4 0.091 -0.147 0.033 -0.306 0.06 -0.48 0.08 -0.173 0.02 -0.351 0.03 -0.531 0.03 -0.46 0 -0.86 -0.067 -1.2 -0.2 -0.34 -0.14 -0.619 -0.33 -0.839 -0.57 c -0.22 -0.247 -0.384 -0.533 -0.491 -0.859 -0.107 -0.333 -0.159 -0.697 -0.159 -1.091 c 0 -0.46 0.067 -0.863 0.2 -1.209 0.14 -0.347 0.323 -0.633 0.55 -0.859 c 0.227 -0.233 0.486 -0.407 0.78 -0.52 0.293 -0.12 0.593 -0.18 0.9 -0.18 z m 0.009 1.01 c -0.187 0 -0.349 0.036 -0.489 0.109 -0.14 0.067 -0.261 0.157 -0.361 0.27 c -0.093 0.113 -0.165 0.244 -0.219 0.391 -0.053 0.147 -0.091 0.297 -0.111 0.45 l 2.25 0 c 0 -0.167 -0.024 -0.324 -0.07 -0.47 -0.047 -0.153 -0.116 -0.284 -0.209 -0.391 -0.087 -0.113 -0.196 -0.199 -0.33 -0.259 -0.127 -0.067 -0.281 -0.1 -0.461 -0.1 z m 4.203 2.805 c 0.197 0 0.363 0.029 0.5 0.086 0.14 0.057 0.254 0.129 0.341 0.219 0.09 0.09 0.155 0.19 0.195 0.3 0.04 0.11 0.059 0.217 0.059 0.32 0 0.183 -0.05 0.347 -0.15 0.491 -0.1 0.14 -0.215 0.251 -0.345 0.334 0.197 0.107 0.343 0.23 0.436 0.37 0.097 0.14 0.145 0.305 0.145 0.495 0 0.143 -0.025 0.277 -0.075 0.4 -0.05 0.123 -0.125 0.23 -0.225 0.32 -0.1 0.09 -0.225 0.159 -0.375 0.209 -0.147 0.05 -0.318 0.075 -0.511 0.075 -0.227 0 -0.414 -0.032 -0.564 -0.095 -0.15 -0.063 -0.271 -0.142 -0.361 -0.239 -0.09 -0.097 -0.155 -0.201 -0.195 -0.311 -0.037 -0.113 -0.055 -0.22 -0.055 -0.32 0 -0.1 0.014 -0.192 0.041 -0.275 0.03 -0.087 0.07 -0.164 0.12 -0.234 0.05 -0.073 0.105 -0.14 0.169 -0.2 0.063 -0.06 0.13 -0.113 0.2 -0.159 -0.153 -0.107 -0.267 -0.222 -0.344 -0.345 -0.073 -0.127 -0.111 -0.281 -0.111 -0.461 0 -0.13 0.025 -0.252 0.075 -0.369 0.053 -0.12 0.128 -0.226 0.225 -0.316 0.097 -0.09 0.213 -0.162 0.35 -0.216 0.137 -0.053 0.288 -0.08 0.455 -0.08 z m 0 0.495 c -0.09 0 -0.168 0.015 -0.234 0.045 -0.063 0.027 -0.115 0.063 -0.155 0.109 -0.04 0.043 -0.071 0.092 -0.091 0.145 -0.02 0.05 -0.03 0.1 -0.03 0.15 0 0.127 0.047 0.246 0.141 0.359 0.097 0.113 0.256 0.204 0.48 0.27 0.123 -0.077 0.219 -0.163 0.289 -0.259 0.07 -0.1 0.106 -0.226 0.106 -0.38 0 -0.043 -0.011 -0.091 -0.031 -0.141 -0.017 -0.053 -0.046 -0.102 -0.089 -0.145 -0.04 -0.043 -0.091 -0.079 -0.155 -0.109 -0.063 -0.03 -0.141 -0.045 -0.231 -0.045 z m -0.184 1.484 c -0.12 0.077 -0.217 0.171 -0.291 0.281 c -0.073 0.107 -0.109 0.234 -0.109 0.384 c 0 0.05 0.01 0.103 0.03 0.159 0.02 0.057 0.053 0.11 0.1 0.156 0.047 0.047 0.106 0.085 0.18 0.119 0.073 0.03 0.165 0.045 0.275 0.045 0.1 0 0.188 -0.012 0.261 -0.039 0.073 -0.027 0.133 -0.063 0.18 -0.106 0.047 -0.047 0.081 -0.098 0.105 -0.155 0.023 -0.06 0.036 -0.12 0.036 -0.18 0 -0.093 -0.02 -0.175 -0.056 -0.245 -0.037 -0.07 -0.089 -0.13 -0.159 -0.18 -0.067 -0.053 -0.147 -0.098 -0.241 -0.134 -0.093 -0.04 -0.196 -0.076 -0.309 -0.106 z"/>
</svg>
