<svg viewBox="0 0 16 16" xmlns="http://www.w3.org/2000/svg">
 <path d="m 1.6 0 c -0.886 0 -1.6 0.714 -1.6 1.6 l 0 12.8 c 0 0.886 0.714 1.6 1.6 1.6 l 12.8 0 c 0.886 0 1.6 -0.714 1.6 -1.6 l 0 -12.8 c 0 -0.886 -0.714 -1.6 -1.6 -1.6 l -12.8 0 z m 2.948 4.6 c 1 0 1.764 0.183 2.291 0.55 0.533 0.367 0.8 0.926 0.8 1.68 0 0.94 -0.464 1.578 -1.391 1.911 c 0.127 0.153 0.27 0.339 0.43 0.559 c 0.16 0.22 0.324 0.46 0.491 0.72 0.167 0.253 0.326 0.516 0.48 0.789 c 0.153 0.267 0.291 0.531 0.411 0.791 l -1.411 0 c -0.127 -0.24 -0.263 -0.48 -0.409 -0.72 -0.147 -0.247 -0.297 -0.483 -0.45 -0.709 -0.147 -0.233 -0.294 -0.45 -0.441 -0.65 c -0.147 -0.207 -0.283 -0.39 -0.409 -0.55 -0.093 0.007 -0.174 0.009 -0.241 0.009 l -0.189 0 -0.611 0 0 2.62 -1.259 0 0 -6.83 c 0.307 -0.067 0.633 -0.11 0.98 -0.13 0.347 -0.027 0.656 -0.041 0.93 -0.041 z m 0.091 1.091 c -0.267 0 -0.514 0.01 -0.741 0.03 l 0 2.239 0.55 0 c 0.307 0 0.578 -0.017 0.811 -0.05 0.233 -0.033 0.426 -0.093 0.58 -0.18 0.16 -0.087 0.279 -0.203 0.359 -0.35 0.08 -0.147 0.12 -0.333 0.12 -0.559 0 -0.213 -0.04 -0.394 -0.12 -0.541 -0.08 -0.147 -0.197 -0.263 -0.35 -0.35 c -0.147 -0.087 -0.323 -0.146 -0.53 -0.18 -0.207 -0.04 -0.433 -0.059 -0.68 -0.059 z m 6.566 0.55 c 0.367 0 0.704 0.067 1.01 0.2 0.313 0.127 0.58 0.31 0.8 0.55 0.22 0.24 0.389 0.529 0.509 0.869 0.127 0.333 0.191 0.707 0.191 1.12 0 0.413 -0.061 0.79 -0.181 1.13 -0.12 0.34 -0.289 0.63 -0.509 0.87 -0.22 0.24 -0.487 0.428 -0.8 0.561 -0.307 0.133 -0.647 0.2 -1.02 0.2 -0.373 0 -0.714 -0.067 -1.02 -0.2 c -0.307 -0.133 -0.569 -0.321 -0.789 -0.561 -0.22 -0.24 -0.394 -0.53 -0.52 -0.87 -0.12 -0.34 -0.18 -0.716 -0.18 -1.13 c 0 -0.413 0.06 -0.787 0.18 -1.12 0.127 -0.34 0.3 -0.629 0.52 -0.869 0.227 -0.24 0.493 -0.423 0.8 -0.55 0.307 -0.133 0.643 -0.2 1.01 -0.2 z m 0 1.05 c -0.4 0 -0.712 0.153 -0.939 0.459 -0.22 0.3 -0.331 0.71 -0.331 1.23 0 0.527 0.111 0.943 0.331 1.25 0.227 0.307 0.539 0.461 0.939 0.461 0.4 0 0.71 -0.154 0.93 -0.461 c 0.227 -0.307 0.341 -0.723 0.341 -1.25 0 -0.52 -0.114 -0.93 -0.341 -1.23 -0.22 -0.307 -0.53 -0.459 -0.93 -0.459 z" style="fill:#ececec;fill-opacity:1"/>
</svg>
