<svg xmlns="http://www.w3.org/2000/svg" viewBox="0 0 16 16">
 <path d="m 1.6 0 c -0.886 0 -1.6 0.714 -1.6 1.6 l 0 12.8 c 0 0.886 0.714 1.6 1.6 1.6 l 12.8 0 c 0.886 0 1.6 -0.714 1.6 -1.6 l 0 -12.8 c 0 -0.886 -0.714 -1.6 -1.6 -1.6 l -12.8 0 z m 1.247 4.309 c 0.433 0 0.817 0.05 1.15 0.15 0.34 0.093 0.607 0.198 0.8 0.311 l -0.389 1.02 c -0.227 -0.127 -0.477 -0.224 -0.75 -0.291 -0.267 -0.067 -0.545 -0.1 -0.831 -0.1 c -0.34 0 -0.607 0.069 -0.8 0.209 c -0.187 0.14 -0.28 0.337 -0.28 0.591 c 0 0.153 0.031 0.287 0.091 0.4 0.067 0.107 0.157 0.204 0.27 0.291 0.12 0.087 0.256 0.166 0.409 0.239 0.16 0.073 0.334 0.144 0.52 0.211 0.327 0.12 0.617 0.242 0.87 0.369 0.26 0.12 0.477 0.267 0.65 0.441 0.18 0.167 0.316 0.367 0.409 0.6 0.093 0.227 0.141 0.503 0.141 0.83 0 0.627 -0.224 1.114 -0.67 1.461 -0.44 0.34 -1.087 0.509 -1.941 0.509 -0.287 0 -0.549 -0.019 -0.789 -0.059 -0.233 -0.033 -0.445 -0.078 -0.631 -0.131 c -0.18 -0.053 -0.335 -0.106 -0.469 -0.159 -0.133 -0.06 -0.24 -0.113 -0.32 -0.159 l 0.37 -1.031 c 0.18 0.1 0.423 0.2 0.73 0.3 0.307 0.1 0.676 0.15 1.109 0.15 0.453 0 0.784 -0.076 0.991 -0.23 c 0.207 -0.153 0.309 -0.37 0.309 -0.65 0 -0.167 -0.036 -0.31 -0.109 -0.43 -0.067 -0.12 -0.167 -0.227 -0.3 -0.32 c -0.127 -0.1 -0.284 -0.19 -0.47 -0.27 -0.187 -0.087 -0.401 -0.17 -0.641 -0.25 -0.24 -0.087 -0.473 -0.18 -0.7 -0.28 c -0.22 -0.107 -0.416 -0.236 -0.589 -0.389 -0.167 -0.153 -0.304 -0.337 -0.411 -0.55 c -0.1 -0.213 -0.15 -0.47 -0.15 -0.77 c 0 -0.627 0.217 -1.117 0.65 -1.47 0.433 -0.36 1.024 -0.541 1.77 -0.541 z m 2.681 1.861 1.28 0 c 0.06 0.28 0.129 0.583 0.209 0.909 0.08 0.32 0.163 0.651 0.25 0.991 c 0.087 0.333 0.177 0.66 0.27 0.98 c 0.093 0.32 0.186 0.613 0.28 0.88 0.1 -0.307 0.197 -0.623 0.291 -0.95 c 0.1 -0.327 0.193 -0.653 0.28 -0.98 0.087 -0.327 0.167 -0.643 0.241 -0.95 0.08 -0.313 0.149 -0.606 0.209 -0.88 l 0.93 0 c 0.06 0.273 0.127 0.566 0.2 0.88 0.073 0.307 0.151 0.623 0.231 0.95 0.087 0.327 0.175 0.653 0.269 0.98 0.1 0.327 0.2 0.643 0.3 0.95 c 0.087 -0.267 0.177 -0.56 0.27 -0.88 c 0.093 -0.32 0.184 -0.646 0.27 -0.98 0.093 -0.34 0.179 -0.671 0.259 -0.991 0.08 -0.327 0.151 -0.629 0.211 -0.909 l 1.25 0 c -0.14 0.513 -0.283 1.016 -0.43 1.509 c -0.147 0.493 -0.294 0.964 -0.441 1.411 -0.147 0.447 -0.294 0.866 -0.441 1.259 -0.147 0.393 -0.29 0.743 -0.43 1.05 l -0.98 0 c -0.173 -0.493 -0.354 -1.017 -0.541 -1.57 c -0.18 -0.56 -0.347 -1.134 -0.5 -1.72 -0.153 0.587 -0.32 1.16 -0.5 1.72 c -0.173 0.553 -0.345 1.077 -0.519 1.57 l -0.991 0 c -0.133 -0.307 -0.274 -0.657 -0.42 -1.05 -0.147 -0.393 -0.292 -0.813 -0.439 -1.259 -0.147 -0.447 -0.294 -0.918 -0.441 -1.411 -0.147 -0.493 -0.29 -0.996 -0.43 -1.509 z m 9.192 3.764 0.425 0 0 3.466 -0.605 0 0 -2.655 c -0.09 0.07 -0.202 0.138 -0.339 0.205 -0.137 0.067 -0.269 0.122 -0.395 0.166 l -0.186 -0.461 c 0.193 -0.077 0.388 -0.175 0.581 -0.295 0.197 -0.12 0.369 -0.262 0.519 -0.425 z" style="fill:#ececec;fill-opacity:1"/>
</svg>
