<svg viewBox="0 0 16 16" xmlns="http://www.w3.org/2000/svg">
 <path d="m 1.6 0 c -0.886 0 -1.6 0.714 -1.6 1.6 l 0 12.8 c 0 0.886 0.714 1.6 1.6 1.6 l 12.8 0 c 0.886 0 1.6 -0.714 1.6 -1.6 l 0 -12.8 c 0 -0.886 -0.714 -1.6 -1.6 -1.6 l -12.8 0 z m -0.383 4.47 1.261 0 0 2.77 3.01 0 0 -2.77 1.261 0 0 6.93 -1.261 0 0 -3.07 -3.01 0 0 3.07 -1.261 0 0 -6.93 z m 6.448 1.7 1.289 0 c 0.067 0.28 0.147 0.583 0.241 0.909 0.1 0.327 0.207 0.66 0.32 1 0.113 0.333 0.233 0.667 0.359 1 0.127 0.333 0.253 0.643 0.38 0.93 0.213 -0.593 0.413 -1.222 0.6 -1.889 0.187 -0.673 0.358 -1.323 0.511 -1.95 l 1.25 0 c -0.54 1.987 -1.166 3.787 -1.88 5.4 -0.133 0.3 -0.271 0.557 -0.411 0.77 -0.14 0.213 -0.297 0.39 -0.47 0.53 -0.173 0.14 -0.366 0.24 -0.58 0.3 -0.213 0.067 -0.459 0.1 -0.739 0.1 -0.187 0 -0.374 -0.021 -0.561 -0.061 -0.18 -0.04 -0.316 -0.083 -0.409 -0.13 l 0.22 -0.97 c 0.24 0.093 0.476 0.141 0.709 0.141 0.313 0 0.556 -0.076 0.73 -0.23 0.18 -0.147 0.337 -0.377 0.47 -0.691 -0.38 -0.733 -0.747 -1.533 -1.1 -2.4 c -0.347 -0.867 -0.656 -1.786 -0.93 -2.759 z m 6.805 3.764 0.575 0 0 2.141 0.391 0 0 0.495 -0.391 0 0 0.83 -0.589 0 0 -0.83 -1.52 0 0 -0.43 c 0.067 -0.147 0.154 -0.316 0.264 -0.506 0.113 -0.19 0.238 -0.384 0.375 -0.584 c 0.137 -0.2 0.283 -0.397 0.436 -0.591 0.153 -0.193 0.306 -0.368 0.459 -0.525 z m -0.014 0.745 c -0.08 0.097 -0.163 0.201 -0.25 0.311 -0.083 0.11 -0.165 0.224 -0.245 0.344 -0.08 0.12 -0.156 0.244 -0.23 0.37 -0.073 0.123 -0.14 0.247 -0.2 0.37 l 0.925 0 0 -1.395 z" style="fill:#ececec;fill-opacity:1"/>
</svg>
