<svg xmlns="http://www.w3.org/2000/svg" viewBox="0 0 16 16">
 <path d="m 1.6 0 c -0.886 0 -1.6 0.714 -1.6 1.6 l 0 12.8 c 0 0.886 0.714 1.6 1.6 1.6 l 12.8 0 c 0.886 0 1.6 -0.714 1.6 -1.6 l 0 -12.8 c 0 -0.886 -0.714 -1.6 -1.6 -1.6 l -12.8 0 z m -0.275 4.47 1.259 0 0 2.859 c 0.22 -0.22 0.451 -0.453 0.691 -0.7 0.24 -0.253 0.476 -0.506 0.709 -0.759 c 0.24 -0.26 0.468 -0.51 0.681 -0.75 0.213 -0.24 0.406 -0.457 0.58 -0.65 l 1.509 0 c -0.22 0.253 -0.453 0.516 -0.7 0.789 -0.247 0.273 -0.499 0.551 -0.759 0.831 -0.26 0.273 -0.524 0.545 -0.791 0.819 -0.26 0.273 -0.517 0.535 -0.77 0.781 0.28 0.213 0.563 0.463 0.85 0.75 0.293 0.28 0.581 0.583 0.861 0.909 0.28 0.32 0.547 0.656 0.8 1.01 0.26 0.347 0.496 0.694 0.709 1.041 l -1.489 0 c -0.173 -0.267 -0.373 -0.547 -0.6 -0.841 -0.227 -0.293 -0.467 -0.577 -0.72 -0.85 -0.247 -0.273 -0.504 -0.533 -0.77 -0.78 -0.267 -0.247 -0.531 -0.459 -0.791 -0.639 l 0 3.109 -1.259 0 0 -6.93 z m 6.208 1.7 1.211 0 0 2.739 c 0 0.56 0.079 0.96 0.239 1.2 0.167 0.24 0.454 0.361 0.861 0.361 0.147 0 0.299 -0.007 0.459 -0.02 0.167 -0.013 0.29 -0.03 0.37 -0.05 l 0 -4.23 1.209 0 0 5.07 c -0.233 0.06 -0.536 0.12 -0.909 0.18 -0.373 0.067 -0.783 0.1 -1.23 0.1 -0.42 0 -0.774 -0.06 -1.061 -0.18 -0.28 -0.12 -0.506 -0.287 -0.68 -0.5 c -0.167 -0.213 -0.286 -0.468 -0.359 -0.761 -0.073 -0.3 -0.111 -0.626 -0.111 -0.98 l 0 -2.93 z m 6.386 3.684 c 0.193 0 0.36 0.024 0.5 0.07 0.14 0.047 0.254 0.113 0.344 0.2 0.093 0.083 0.163 0.183 0.206 0.3 0.047 0.113 0.069 0.238 0.069 0.375 0 0.16 -0.044 0.303 -0.134 0.43 -0.087 0.127 -0.201 0.224 -0.341 0.291 0.18 0.063 0.329 0.167 0.445 0.314 0.12 0.147 0.18 0.336 0.18 0.566 0 0.153 -0.026 0.296 -0.08 0.43 -0.053 0.13 -0.135 0.244 -0.245 0.341 -0.11 0.093 -0.249 0.168 -0.419 0.225 -0.167 0.053 -0.367 0.08 -0.6 0.08 -0.09 0 -0.185 -0.007 -0.281 -0.02 -0.093 -0.01 -0.182 -0.025 -0.269 -0.045 -0.083 -0.017 -0.161 -0.035 -0.231 -0.055 -0.07 -0.023 -0.123 -0.044 -0.159 -0.064 l 0.12 -0.516 c 0.07 0.033 0.171 0.072 0.305 0.116 0.133 0.04 0.299 0.059 0.495 0.059 0.263 0 0.454 -0.05 0.57 -0.15 0.117 -0.103 0.175 -0.239 0.175 -0.409 0 -0.11 -0.024 -0.202 -0.07 -0.275 -0.043 -0.073 -0.106 -0.132 -0.186 -0.175 -0.077 -0.047 -0.165 -0.079 -0.269 -0.095 -0.1 -0.02 -0.207 -0.03 -0.32 -0.03 l -0.205 0 0 -0.491 0.25 0 c 0.077 0 0.153 -0.007 0.23 -0.02 0.08 -0.017 0.151 -0.043 0.214 -0.08 0.063 -0.04 0.116 -0.091 0.156 -0.155 0.04 -0.063 0.059 -0.145 0.059 -0.245 0 -0.08 -0.015 -0.148 -0.045 -0.205 -0.03 -0.057 -0.07 -0.104 -0.12 -0.141 -0.047 -0.037 -0.101 -0.063 -0.164 -0.08 -0.063 -0.017 -0.13 -0.025 -0.2 -0.025 -0.15 0 -0.283 0.024 -0.4 0.07 -0.117 0.043 -0.221 0.093 -0.311 0.15 l -0.219 -0.45 c 0.047 -0.03 0.102 -0.062 0.169 -0.095 0.067 -0.033 0.14 -0.065 0.22 -0.095 0.083 -0.03 0.172 -0.054 0.266 -0.07 0.093 -0.02 0.192 -0.03 0.295 -0.03 z" style="fill:#ececec;fill-opacity:1"/>
</svg>
