<svg viewBox="0 0 16 16" xmlns="http://www.w3.org/2000/svg">
 <path style="fill:#ececec;fill-opacity:1" d="m 1.6 0 c -0.886 0 -1.6 0.714 -1.6 1.6 l 0 12.8 c 0 0.886 0.714 1.6 1.6 1.6 l 12.8 0 c 0.886 0 1.6 -0.714 1.6 -1.6 l 0 -12.8 c 0 -0.886 -0.714 -1.6 -1.6 -1.6 l -12.8 0 z m 6.939 3.641 0 2.589 c 0.133 -0.047 0.288 -0.087 0.461 -0.12 c 0.18 -0.033 0.356 -0.05 0.53 -0.05 0.42 0 0.767 0.061 1.041 0.181 0.28 0.113 0.502 0.276 0.669 0.489 0.167 0.207 0.283 0.457 0.35 0.75 c 0.073 0.293 0.111 0.62 0.111 0.98 l 0 2.941 -1.211 0 0 -2.75 c 0 -0.28 -0.019 -0.516 -0.059 -0.709 -0.033 -0.2 -0.093 -0.361 -0.18 -0.481 c -0.08 -0.127 -0.19 -0.215 -0.33 -0.269 -0.14 -0.06 -0.314 -0.091 -0.52 -0.091 -0.16 0 -0.324 0.017 -0.491 0.05 -0.167 0.033 -0.29 0.064 -0.37 0.091 l 0 4.159 -1.209 0 0 -7.559 1.209 -0.2 z m -7.631 0.83 5.531 0 0 1.089 -2.131 0 0 5.841 -1.269 0 0 -5.841 -2.131 0 0 -1.089 z m 12.797 5.384 c 0.37 0 0.642 0.089 0.816 0.266 0.177 0.173 0.264 0.411 0.264 0.714 0 0.12 -0.025 0.24 -0.075 0.356 -0.05 0.113 -0.114 0.224 -0.194 0.334 -0.077 0.107 -0.166 0.212 -0.266 0.316 -0.1 0.1 -0.2 0.197 -0.3 0.294 -0.053 0.05 -0.113 0.111 -0.18 0.181 -0.067 0.07 -0.131 0.139 -0.191 0.209 -0.06 0.07 -0.111 0.138 -0.155 0.205 -0.043 0.063 -0.067 0.118 -0.07 0.161 l 1.541 0 0 0.509 -2.205 0 c -0.003 -0.027 -0.006 -0.059 -0.006 -0.095 l 0 -0.089 c 0 -0.16 0.025 -0.307 0.075 -0.441 0.053 -0.137 0.123 -0.263 0.206 -0.38 0.083 -0.117 0.176 -0.226 0.28 -0.33 0.103 -0.103 0.206 -0.206 0.309 -0.306 0.08 -0.077 0.156 -0.152 0.23 -0.225 0.073 -0.073 0.137 -0.144 0.191 -0.214 0.057 -0.073 0.101 -0.147 0.134 -0.22 0.033 -0.077 0.05 -0.154 0.05 -0.234 0 -0.173 -0.05 -0.297 -0.15 -0.37 -0.1 -0.073 -0.221 -0.111 -0.364 -0.111 -0.093 0 -0.181 0.014 -0.261 0.041 -0.08 0.027 -0.151 0.059 -0.214 0.095 -0.06 0.037 -0.114 0.074 -0.161 0.114 -0.047 0.037 -0.081 0.067 -0.105 0.091 l -0.3 -0.425 c 0.14 -0.133 0.304 -0.24 0.491 -0.32 0.19 -0.083 0.393 -0.125 0.609 -0.125 z"/>
</svg>
