<svg viewBox="0 0 16 16" xmlns="http://www.w3.org/2000/svg">
 <path style="fill:#ececec;fill-opacity:1" d="m 1.6 0 c -0.886 0 -1.6 0.714 -1.6 1.6 l 0 12.8 c 0 0.886 0.714 1.6 1.6 1.6 l 12.8 0 c 0.886 0 1.6 -0.714 1.6 -1.6 l 0 -12.8 c 0 -0.886 -0.714 -1.6 -1.6 -1.6 l -12.8 0 z m 2.564 4.4 c 1.01 0 1.776 0.183 2.309 0.55 0.54 0.367 0.811 0.94 0.811 1.72 0 0.407 -0.074 0.757 -0.22 1.05 -0.14 0.287 -0.347 0.523 -0.62 0.709 -0.273 0.18 -0.607 0.313 -1 0.4 -0.393 0.087 -0.843 0.13 -1.35 0.13 l -0.63 0 0 2.441 -1.259 0 0 -6.83 c 0.293 -0.067 0.615 -0.11 0.969 -0.13 0.36 -0.027 0.691 -0.041 0.991 -0.041 z m 5.361 0.191 l 0 1.58 1.859 0 0 1.01 -1.859 0 0 2.13 c 0 0.42 0.067 0.72 0.2 0.9 0.133 0.18 0.36 0.27 0.68 0.27 0.22 0 0.413 -0.024 0.58 -0.07 0.173 -0.047 0.309 -0.09 0.409 -0.13 l 0.2 0.961 c -0.14 0.06 -0.323 0.12 -0.55 0.18 -0.227 0.067 -0.493 0.1 -0.8 0.1 -0.373 0 -0.686 -0.05 -0.939 -0.15 -0.247 -0.1 -0.444 -0.243 -0.591 -0.43 c -0.147 -0.193 -0.249 -0.424 -0.309 -0.691 -0.06 -0.273 -0.091 -0.583 -0.091 -0.93 l 0 -4.53 1.211 -0.2 z m -5.27 0.9 c -0.32 0 -0.584 0.01 -0.791 0.03 l 0 2.359 0.609 0 c 0.607 0 1.073 -0.083 1.4 -0.25 c 0.327 -0.173 0.491 -0.497 0.491 -0.97 0 -0.227 -0.043 -0.415 -0.13 -0.569 -0.087 -0.153 -0.208 -0.274 -0.361 -0.361 -0.153 -0.087 -0.337 -0.146 -0.55 -0.18 -0.207 -0.04 -0.429 -0.059 -0.669 -0.059 z m 9.23 4.444 0.575 0 0 2.141 0.389 0 0 0.495 -0.389 0 0 0.83 -0.591 0 0 -0.83 -1.52 0 0 -0.43 c 0.067 -0.147 0.156 -0.316 0.266 -0.506 0.113 -0.19 0.238 -0.384 0.375 -0.584 0.137 -0.2 0.281 -0.397 0.434 -0.591 0.153 -0.193 0.308 -0.368 0.461 -0.525 z m -0.016 0.745 c -0.08 0.097 -0.163 0.201 -0.25 0.311 -0.083 0.11 -0.165 0.224 -0.245 0.344 -0.08 0.12 -0.156 0.244 -0.23 0.37 -0.073 0.123 -0.14 0.247 -0.2 0.37 l 0.925 0 0 -1.395 z"/>
</svg>
