<svg viewBox="0 0 16 16" xmlns="http://www.w3.org/2000/svg">
 <path d="m 1.6 0 c -0.886 0 -1.6 0.714 -1.6 1.6 l 0 12.8 c 0 0.886 0.714 1.6 1.6 1.6 l 12.8 0 c 0.886 0 1.6 -0.714 1.6 -1.6 l 0 -12.8 c 0 -0.886 -0.714 -1.6 -1.6 -1.6 l -12.8 0 z m 1.053 4.47 1.259 0 0 5.839 3.12 0 0 1.091 -4.38 0 0 -6.93 z m 6.422 0.12 l 0 1.58 1.861 0 0 1.01 -1.861 0 0 2.13 c 0 0.42 0.067 0.72 0.2 0.9 0.133 0.18 0.36 0.27 0.68 0.27 0.22 0 0.415 -0.024 0.581 -0.07 0.173 -0.047 0.309 -0.09 0.409 -0.13 l 0.2 0.961 c -0.14 0.06 -0.323 0.12 -0.55 0.18 -0.227 0.067 -0.493 0.1 -0.8 0.1 -0.373 0 -0.687 -0.05 -0.941 -0.15 -0.247 -0.1 -0.442 -0.243 -0.589 -0.43 c -0.147 -0.193 -0.251 -0.424 -0.311 -0.691 -0.06 -0.273 -0.089 -0.583 -0.089 -0.93 l 0 -4.53 1.209 -0.2 z m 4.62 5.325 0.034 0.5 c -0.18 0.003 -0.348 0.023 -0.505 0.059 -0.157 0.033 -0.297 0.086 -0.42 0.159 -0.123 0.073 -0.23 0.169 -0.32 0.286 -0.087 0.117 -0.153 0.26 -0.2 0.43 0.163 -0.077 0.343 -0.116 0.536 -0.116 0.207 0 0.382 0.031 0.525 0.091 0.147 0.057 0.265 0.134 0.355 0.234 0.09 0.1 0.155 0.217 0.195 0.35 0.043 0.13 0.064 0.268 0.064 0.411 0 0.13 -0.022 0.263 -0.069 0.4 -0.043 0.137 -0.114 0.262 -0.211 0.375 -0.093 0.11 -0.211 0.202 -0.355 0.275 -0.143 0.07 -0.313 0.105 -0.509 0.105 -0.397 0 -0.701 -0.131 -0.911 -0.391 c -0.207 -0.263 -0.309 -0.624 -0.309 -1.084 c 0 -0.333 0.049 -0.628 0.145 -0.884 0.1 -0.26 0.239 -0.48 0.419 -0.656 0.183 -0.177 0.404 -0.31 0.661 -0.4 0.26 -0.093 0.552 -0.14 0.875 -0.144 z m -0.95 1.8 c -0.097 0 -0.19 0.008 -0.28 0.025 -0.09 0.017 -0.172 0.042 -0.245 0.075 -0.003 0.027 -0.008 0.056 -0.011 0.089 l 0 0.091 c 0 0.133 0.008 0.26 0.025 0.38 0.02 0.117 0.052 0.219 0.095 0.309 0.047 0.087 0.109 0.158 0.186 0.211 0.08 0.05 0.177 0.075 0.294 0.075 0.097 0 0.179 -0.021 0.245 -0.061 0.07 -0.04 0.127 -0.091 0.17 -0.155 0.043 -0.063 0.075 -0.131 0.095 -0.205 0.02 -0.077 0.03 -0.15 0.03 -0.22 0 -0.2 -0.049 -0.351 -0.145 -0.455 -0.097 -0.107 -0.249 -0.159 -0.459 -0.159 z" style="fill:#ececec;fill-opacity:1"/>
</svg>
