<svg viewBox="0 0 16 16" xmlns="http://www.w3.org/2000/svg">
 <path d="m 1.6 0 c -0.886 0 -1.6 0.714 -1.6 1.6 l 0 12.8 c 0 0.886 0.714 1.6 1.6 1.6 l 12.8 0 c 0.886 0 1.6 -0.714 1.6 -1.6 l 0 -12.8 c 0 -0.886 -0.714 -1.6 -1.6 -1.6 l -12.8 0 z m 2.059 4.47 1.259 0 0 6.93 -1.259 0 0 -6.93 z m 4.55 1.57 c 0.307 0 0.6 0.029 0.88 0.089 0.28 0.053 0.49 0.108 0.63 0.161 l -0.22 0.98 c -0.133 -0.06 -0.303 -0.114 -0.509 -0.161 -0.207 -0.053 -0.447 -0.08 -0.72 -0.08 c -0.247 0 -0.447 0.043 -0.6 0.13 -0.153 0.08 -0.23 0.208 -0.23 0.381 0 0.087 0.012 0.163 0.039 0.23 0.033 0.067 0.088 0.129 0.161 0.189 0.073 0.053 0.169 0.11 0.289 0.17 c 0.12 0.053 0.267 0.11 0.441 0.17 c 0.287 0.107 0.53 0.214 0.73 0.32 0.2 0.1 0.364 0.217 0.491 0.35 0.133 0.127 0.229 0.272 0.289 0.439 0.06 0.167 0.091 0.367 0.091 0.6 0 0.5 -0.186 0.881 -0.559 1.141 -0.367 0.253 -0.895 0.38 -1.581 0.38 -0.46 0 -0.829 -0.04 -1.109 -0.12 -0.28 -0.073 -0.477 -0.133 -0.591 -0.18 l 0.211 -1.01 c 0.18 0.073 0.392 0.143 0.639 0.209 0.253 0.067 0.541 0.1 0.861 0.1 0.32 0 0.553 -0.036 0.7 -0.109 0.147 -0.08 0.22 -0.213 0.22 -0.4 0 -0.173 -0.081 -0.316 -0.241 -0.43 c -0.153 -0.113 -0.41 -0.237 -0.77 -0.37 c -0.22 -0.08 -0.423 -0.163 -0.609 -0.25 c -0.18 -0.093 -0.337 -0.2 -0.47 -0.32 -0.133 -0.12 -0.24 -0.263 -0.32 -0.43 -0.073 -0.173 -0.109 -0.383 -0.109 -0.63 c 0 -0.48 0.176 -0.858 0.53 -1.131 0.353 -0.28 0.834 -0.419 1.441 -0.419 z m 3.445 3.814 c 0.37 0 0.641 0.089 0.814 0.266 0.177 0.173 0.266 0.411 0.266 0.714 0 0.12 -0.025 0.24 -0.075 0.356 -0.05 0.113 -0.115 0.224 -0.195 0.334 -0.077 0.107 -0.166 0.212 -0.266 0.316 -0.1 0.1 -0.2 0.197 -0.3 0.294 -0.053 0.05 -0.113 0.111 -0.18 0.181 -0.067 0.07 -0.129 0.139 -0.189 0.209 -0.06 0.07 -0.113 0.138 -0.156 0.205 -0.043 0.063 -0.065 0.118 -0.069 0.161 l 1.539 0 0 0.509 -2.205 0 c -0.003 -0.027 -0.005 -0.059 -0.005 -0.095 l 0 -0.089 c 0 -0.16 0.025 -0.307 0.075 -0.441 0.053 -0.137 0.121 -0.263 0.205 -0.38 0.083 -0.117 0.176 -0.226 0.28 -0.33 0.103 -0.103 0.208 -0.206 0.311 -0.306 0.08 -0.077 0.156 -0.152 0.23 -0.225 0.073 -0.073 0.136 -0.144 0.189 -0.214 0.057 -0.073 0.103 -0.147 0.136 -0.22 0.033 -0.077 0.05 -0.154 0.05 -0.234 0 -0.173 -0.05 -0.297 -0.15 -0.37 -0.1 -0.073 -0.222 -0.111 -0.366 -0.111 -0.093 0 -0.179 0.014 -0.259 0.041 -0.08 0.027 -0.152 0.059 -0.216 0.095 -0.06 0.037 -0.113 0.074 -0.159 0.114 -0.047 0.037 -0.081 0.067 -0.105 0.091 l -0.3 -0.425 c 0.14 -0.133 0.302 -0.24 0.489 -0.32 0.19 -0.083 0.394 -0.125 0.611 -0.125 z" style="fill:#ececec;fill-opacity:1"/>
</svg>
