<svg viewBox="0 0 16 16" xmlns="http://www.w3.org/2000/svg">
 <path style="fill:#ececec;fill-opacity:1" d="m 1.6 0 c -0.886 0 -1.6 0.714 -1.6 1.6 l 0 12.8 c 0 0.886 0.714 1.6 1.6 1.6 l 12.8 0 c 0.886 0 1.6 -0.714 1.6 -1.6 l 0 -12.8 c 0 -0.886 -0.714 -1.6 -1.6 -1.6 l -12.8 0 z m -0.1 4.47 1.27 0 0 4.209 c 0 0.313 0.033 0.584 0.1 0.811 0.073 0.22 0.173 0.399 0.3 0.539 0.133 0.14 0.286 0.244 0.459 0.311 0.18 0.067 0.38 0.1 0.6 0.1 0.22 0 0.42 -0.033 0.6 -0.1 0.18 -0.067 0.333 -0.171 0.459 -0.311 0.133 -0.14 0.233 -0.319 0.3 -0.539 c 0.073 -0.227 0.111 -0.498 0.111 -0.811 l 0 -4.209 1.27 0 0 4.33 c 0 0.4 -0.057 0.767 -0.17 1.1 -0.107 0.333 -0.273 0.624 -0.5 0.87 -0.22 0.247 -0.503 0.44 -0.85 0.58 -0.347 0.133 -0.756 0.2 -1.23 0.2 -0.473 0 -0.88 -0.067 -1.22 -0.2 -0.34 -0.14 -0.623 -0.333 -0.85 -0.58 -0.22 -0.247 -0.384 -0.537 -0.491 -0.87 -0.107 -0.333 -0.159 -0.7 -0.159 -1.1 l 0 -4.33 z m 6.555 1.7 3.97 0 0 0.85 c -0.133 0.14 -0.31 0.336 -0.53 0.589 -0.213 0.253 -0.444 0.537 -0.691 0.85 -0.247 0.307 -0.497 0.63 -0.75 0.97 c -0.247 0.333 -0.47 0.654 -0.67 0.961 l 2.7 0 0 1.01 -4.159 0 0 -0.75 c 0.147 -0.267 0.33 -0.557 0.55 -0.87 0.22 -0.313 0.446 -0.626 0.68 -0.939 0.233 -0.32 0.464 -0.624 0.691 -0.911 0.233 -0.287 0.439 -0.537 0.619 -0.75 l -2.409 0 0 -1.01 z m 5.934 3.764 0.425 0 0 3.466 -0.606 0 0 -2.655 c -0.09 0.07 -0.202 0.138 -0.339 0.205 -0.137 0.067 -0.269 0.122 -0.395 0.166 l -0.184 -0.461 c 0.193 -0.077 0.386 -0.175 0.58 -0.295 0.197 -0.12 0.37 -0.262 0.52 -0.425 z"/>
</svg>
