<svg xmlns="http://www.w3.org/2000/svg" viewBox="0 0 16 16">
 <path d="m 1.6 0 c -0.886 0 -1.6 0.714 -1.6 1.6 l 0 12.8 c 0 0.886 0.714 1.6 1.6 1.6 l 12.8 0 c 0.886 0 1.6 -0.714 1.6 -1.6 l 0 -12.8 c 0 -0.886 -0.714 -1.6 -1.6 -1.6 l -12.8 0 z m 8.57 3.641 0 5.989 c 0 0.147 0.01 0.27 0.03 0.37 0.027 0.1 0.07 0.186 0.13 0.259 0.06 0.067 0.141 0.121 0.241 0.161 0.107 0.033 0.24 0.06 0.4 0.08 l -0.17 1 c -0.36 -0.007 -0.66 -0.047 -0.9 -0.12 -0.233 -0.073 -0.419 -0.176 -0.559 -0.309 -0.14 -0.14 -0.24 -0.311 -0.3 -0.511 -0.053 -0.207 -0.081 -0.44 -0.081 -0.7 l 0 -6.02 1.211 -0.2 z m -5.402 0.759 c 1.01 0 1.778 0.183 2.311 0.55 0.54 0.367 0.809 0.94 0.809 1.72 0 0.407 -0.074 0.757 -0.22 1.05 c -0.14 0.287 -0.345 0.523 -0.619 0.709 c -0.273 0.18 -0.607 0.313 -1 0.4 -0.393 0.087 -0.843 0.13 -1.35 0.13 l -0.631 0 0 2.441 -1.259 0 0 -6.83 c 0.293 -0.067 0.617 -0.11 0.97 -0.13 0.36 -0.027 0.689 -0.041 0.989 -0.041 z m 0.091 1.091 c -0.32 0 -0.584 0.01 -0.791 0.03 l 0 2.359 0.611 0 c 0.607 0 1.073 -0.083 1.4 -0.25 c 0.327 -0.173 0.489 -0.497 0.489 -0.97 0 -0.227 -0.043 -0.415 -0.13 -0.569 -0.087 -0.153 -0.206 -0.274 -0.359 -0.361 -0.153 -0.087 -0.337 -0.146 -0.55 -0.18 -0.207 -0.04 -0.43 -0.059 -0.67 -0.059 z m 6.584 4.444 2.316 0 0 0.461 c -0.11 0.123 -0.231 0.291 -0.361 0.505 -0.13 0.213 -0.254 0.455 -0.37 0.725 -0.117 0.267 -0.218 0.553 -0.305 0.859 c -0.083 0.307 -0.135 0.612 -0.155 0.916 l -0.62 0 c 0.02 -0.253 0.066 -0.52 0.136 -0.8 0.07 -0.28 0.155 -0.552 0.255 -0.816 0.103 -0.267 0.214 -0.514 0.334 -0.744 0.123 -0.233 0.246 -0.429 0.366 -0.586 l -1.595 0 0 -0.52 z" style="fill:#ececec;fill-opacity:1"/>
</svg>
