<svg xmlns="http://www.w3.org/2000/svg" viewBox="0 0 16 16">
 <path d="m 1.6 0 c -0.886 0 -1.6 0.714 -1.6 1.6 l 0 12.8 c 0 0.886 0.714 1.6 1.6 1.6 l 12.8 0 c 0.886 0 1.6 -0.714 1.6 -1.6 l 0 -12.8 c 0 -0.886 -0.714 -1.6 -1.6 -1.6 l -12.8 0 z m 10.05 3.841 c 0.28 0 0.527 0.026 0.741 0.08 c 0.213 0.047 0.373 0.09 0.48 0.13 l -0.23 1 c -0.113 -0.053 -0.247 -0.096 -0.4 -0.13 -0.147 -0.033 -0.306 -0.05 -0.48 -0.05 -0.193 0 -0.357 0.029 -0.491 0.089 -0.133 0.053 -0.24 0.131 -0.32 0.231 -0.08 0.1 -0.137 0.222 -0.17 0.369 -0.033 0.14 -0.05 0.294 -0.05 0.461 l 0 0.35 1.9 0 0 1.01 -1.9 0 0 4.22 -1.209 0 0 -5.6 c 0 -0.673 0.176 -1.2 0.53 -1.58 0.353 -0.387 0.887 -0.58 1.6 -0.58 z m -7.578 0.83 4.381 0 0 1.07 -3.12 0 0 1.769 2.77 0 0 1.07 -2.77 0 0 3.02 -1.261 0 0 -6.93 z" style="fill:#ececec;fill-opacity:1"/>
</svg>
