<svg viewBox="0 0 16 16" xmlns="http://www.w3.org/2000/svg">
 <path style="fill:#ececec;fill-opacity:1" d="m 1.6 0 c -0.886 0 -1.6 0.714 -1.6 1.6 l 0 12.8 c 0 0.886 0.714 1.6 1.6 1.6 l 12.8 0 c 0.886 0 1.6 -0.714 1.6 -1.6 l 0 -12.8 c 0 -0.886 -0.714 -1.6 -1.6 -1.6 l -12.8 0 z m 8.234 3.891 c 0.2 0 0.374 0.067 0.52 0.2 0.147 0.133 0.219 0.317 0.219 0.55 0 0.227 -0.072 0.406 -0.219 0.539 -0.147 0.133 -0.32 0.2 -0.52 0.2 -0.207 0 -0.383 -0.067 -0.53 -0.2 c -0.147 -0.133 -0.22 -0.312 -0.22 -0.539 c 0 -0.233 0.074 -0.417 0.22 -0.55 0.147 -0.133 0.323 -0.2 0.53 -0.2 z m -7.05 0.58 1.261 0 0 2.859 c 0.22 -0.22 0.449 -0.453 0.689 -0.7 0.24 -0.253 0.478 -0.506 0.711 -0.759 0.24 -0.26 0.466 -0.51 0.68 -0.75 0.213 -0.24 0.406 -0.457 0.58 -0.65 l 1.511 0 c -0.22 0.253 -0.453 0.516 -0.7 0.789 c -0.247 0.273 -0.501 0.551 -0.761 0.831 -0.26 0.273 -0.522 0.545 -0.789 0.819 c -0.26 0.273 -0.517 0.535 -0.77 0.781 0.28 0.213 0.563 0.463 0.85 0.75 c 0.293 0.28 0.579 0.583 0.859 0.909 0.28 0.32 0.547 0.656 0.8 1.01 0.26 0.347 0.498 0.694 0.711 1.041 l -1.491 0 c -0.173 -0.267 -0.373 -0.547 -0.6 -0.841 c -0.227 -0.293 -0.467 -0.577 -0.72 -0.85 -0.247 -0.273 -0.504 -0.533 -0.77 -0.78 -0.267 -0.247 -0.529 -0.459 -0.789 -0.639 l 0 3.109 -1.261 0 0 -6.93 z m 6.455 1.7 1.209 0 0 5.23 -1.209 0 0 -5.23 z m 3.298 3.684 c 0.37 0 0.642 0.089 0.816 0.266 0.177 0.173 0.264 0.411 0.264 0.714 0 0.12 -0.025 0.24 -0.075 0.356 -0.05 0.113 -0.114 0.224 -0.194 0.334 -0.077 0.107 -0.166 0.212 -0.266 0.316 -0.1 0.1 -0.2 0.197 -0.3 0.294 -0.053 0.05 -0.113 0.111 -0.18 0.181 -0.067 0.07 -0.131 0.139 -0.191 0.209 -0.06 0.07 -0.111 0.138 -0.155 0.205 -0.043 0.063 -0.067 0.118 -0.07 0.161 l 1.541 0 0 0.509 -2.205 0 c -0.003 -0.027 -0.006 -0.059 -0.006 -0.095 l 0 -0.089 c 0 -0.16 0.025 -0.307 0.075 -0.441 0.053 -0.137 0.123 -0.263 0.206 -0.38 0.083 -0.117 0.176 -0.226 0.28 -0.33 0.103 -0.103 0.206 -0.206 0.309 -0.306 0.08 -0.077 0.156 -0.152 0.23 -0.225 0.073 -0.073 0.137 -0.144 0.191 -0.214 0.057 -0.073 0.101 -0.147 0.134 -0.22 0.033 -0.077 0.05 -0.154 0.05 -0.234 0 -0.173 -0.05 -0.297 -0.15 -0.37 -0.1 -0.073 -0.221 -0.111 -0.364 -0.111 -0.093 0 -0.181 0.014 -0.261 0.041 -0.08 0.027 -0.151 0.059 -0.214 0.095 -0.06 0.037 -0.114 0.074 -0.161 0.114 -0.047 0.037 -0.081 0.067 -0.105 0.091 l -0.3 -0.425 c 0.14 -0.133 0.304 -0.24 0.491 -0.32 0.19 -0.083 0.393 -0.125 0.609 -0.125 z"/>
</svg>
