<svg xmlns="http://www.w3.org/2000/svg" viewBox="0 0 16 16">
 <g transform="translate(0,-1037.0442)">"&gt;
            <path d="m 7 1049.04 -1.909 1.273 c -1.09 0.727 -1.181 0.727 -0.09 0.727 l 6 0 c 1.091 0 1 0 -0.092 -0.727 l -1.909 -1.273 0 -1.5 -2 0 z" style="fill:#ececec;fill-opacity:1;stroke:none"/>  <path d="m 3 1039.04 c -0.806 0 -1 0.195 -1 1 l 0 7 c 0 0.806 0.194 1 1 1 l 10 0 c 0.806 0 1 -0.195 1 -1 l 0 -7 c 0 -0.806 -0.194 -1 -1 -1 z m 0 1 10 0 0 7 -10 0 z" style="fill:#ececec;fill-opacity:1;stroke:none"/>  <g transform="translate(-0.06835925,0)" style="fill:#ececec;fill-opacity:1;stroke:none">   <path d="m 6.812 1043.59 q 0.469 0.121 0.712 0.422 0.245 0.298 0.245 0.761 0 0.69 -0.528 1.05 -0.528 0.357 -1.541 0.357 -0.357 0 -0.718 -0.059 -0.357 -0.056 -0.708 -0.171 l 0 -0.923 q 0.336 0.168 0.665 0.255 0.332 0.084 0.653 0.084 0.475 0 0.727 -0.165 0.255 -0.165 0.255 -0.472 0 -0.317 -0.261 -0.478 -0.258 -0.165 -0.764 -0.165 l -0.479 0 0 -0.771 0.503 0 q 0.451 0 0.671 -0.14 0.221 -0.143 0.221 -0.432 0 -0.267 -0.214 -0.413 -0.214 -0.146 -0.606 -0.146 -0.289 0 -0.584 0.065 -0.295 0.065 -0.587 0.193 l 0 -0.876 q 0.354 -0.099 0.702 -0.149 0.348 -0.05 0.684 -0.05 0.904 0 1.352 0.298 0.451 0.295 0.451 0.892 0 0.407 -0.214 0.668 -0.214 0.258 -0.634 0.364 z"/>   <path d="m 10.07 1042.44 -1.311 1.942 1.311 0 0 -1.942 z m -0.199 -0.985 1.33 0 0 2.927 0.662 0 0 0.867 -0.662 0 0 0.845 -1.131 0 0 -0.845 -2.057 0 0 -1.025 1.858 -2.768 z"/></g></g>
</svg>
