<svg xmlns="http://www.w3.org/2000/svg" viewBox="0 0 16 16">
 <path style="fill:#ececec;fill-opacity:1" d="m 1.6 0 c -0.886 0 -1.6 0.714 -1.6 1.6 l 0 12.8 c 0 0.886 0.714 1.6 1.6 1.6 l 12.8 0 c 0.886 0 1.6 -0.714 1.6 -1.6 l 0 -12.8 c 0 -0.886 -0.714 -1.6 -1.6 -1.6 l -12.8 0 z m 3.937 4.509 c 0.433 0 0.817 0.05 1.15 0.15 0.34 0.093 0.607 0.198 0.8 0.311 l -0.389 1.02 c -0.227 -0.127 -0.477 -0.224 -0.75 -0.291 -0.267 -0.067 -0.545 -0.1 -0.831 -0.1 c -0.34 0 -0.607 0.069 -0.8 0.209 c -0.187 0.14 -0.28 0.337 -0.28 0.591 c 0 0.153 0.031 0.287 0.091 0.4 0.067 0.107 0.157 0.204 0.27 0.291 0.12 0.087 0.256 0.166 0.409 0.239 0.16 0.073 0.334 0.144 0.52 0.211 0.327 0.12 0.617 0.242 0.87 0.369 0.26 0.12 0.477 0.267 0.65 0.441 0.18 0.167 0.316 0.367 0.409 0.6 0.093 0.227 0.141 0.503 0.141 0.83 0 0.627 -0.224 1.114 -0.67 1.461 -0.44 0.34 -1.087 0.509 -1.941 0.509 -0.287 0 -0.549 -0.019 -0.789 -0.059 -0.233 -0.033 -0.445 -0.078 -0.631 -0.131 c -0.18 -0.053 -0.335 -0.106 -0.469 -0.159 -0.133 -0.06 -0.24 -0.113 -0.32 -0.159 l 0.37 -1.031 c 0.18 0.1 0.423 0.2 0.73 0.3 0.307 0.1 0.676 0.15 1.109 0.15 0.453 0 0.784 -0.076 0.991 -0.23 c 0.207 -0.153 0.309 -0.37 0.309 -0.65 0 -0.167 -0.036 -0.31 -0.109 -0.43 c -0.067 -0.12 -0.167 -0.227 -0.3 -0.32 -0.127 -0.1 -0.284 -0.19 -0.47 -0.27 -0.187 -0.087 -0.401 -0.17 -0.641 -0.25 -0.24 -0.087 -0.473 -0.18 -0.7 -0.28 -0.22 -0.107 -0.416 -0.236 -0.589 -0.389 -0.167 -0.153 -0.304 -0.337 -0.411 -0.55 -0.1 -0.213 -0.15 -0.47 -0.15 -0.77 0 -0.627 0.217 -1.117 0.65 -1.47 c 0.433 -0.36 1.024 -0.541 1.77 -0.541 z m 2.661 1.861 1.291 0 c 0.073 0.293 0.157 0.61 0.25 0.95 0.1 0.333 0.203 0.669 0.309 1.01 0.113 0.333 0.227 0.66 0.341 0.98 0.12 0.313 0.23 0.597 0.33 0.85 0.1 -0.253 0.207 -0.537 0.32 -0.85 0.113 -0.32 0.223 -0.646 0.33 -0.98 0.113 -0.34 0.22 -0.676 0.32 -1.01 0.1 -0.34 0.186 -0.657 0.259 -0.95 l 1.25 0 c -0.287 1.02 -0.606 1.977 -0.959 2.87 -0.347 0.887 -0.687 1.673 -1.02 2.359 l -1.041 0 c -0.333 -0.687 -0.676 -1.473 -1.03 -2.359 -0.347 -0.893 -0.663 -1.85 -0.95 -2.87 z"/>
</svg>
