<svg viewBox="0 0 16 16" xmlns="http://www.w3.org/2000/svg">
 <path d="m 1.6 0 c -0.886 0 -1.6 0.714 -1.6 1.6 l 0 12.8 c 0 0.886 0.714 1.6 1.6 1.6 l 12.8 0 c 0.886 0 1.6 -0.714 1.6 -1.6 l 0 -12.8 c 0 -0.886 -0.714 -1.6 -1.6 -1.6 l -12.8 0 z m 1.17 4.47 4.38 0 0 1.07 -3.12 0 0 1.769 2.77 0 0 1.07 -2.77 0 0 3.02 -1.259 0 0 -6.93 z m 7.234 1.589 c 0.08 0 0.173 0.007 0.28 0.02 0.107 0.007 0.214 0.021 0.32 0.041 0.107 0.013 0.209 0.033 0.309 0.059 0.1 0.02 0.181 0.041 0.241 0.061 l -0.211 1.019 c -0.1 -0.033 -0.239 -0.067 -0.419 -0.1 -0.173 -0.04 -0.378 -0.059 -0.611 -0.059 -0.133 0 -0.276 0.014 -0.43 0.041 -0.147 0.027 -0.249 0.049 -0.309 0.069 l 0 4.191 -1.211 0 0 -4.98 c 0.233 -0.087 0.524 -0.167 0.87 -0.241 0.353 -0.08 0.744 -0.12 1.17 -0.12 z m 2.762 3.875 0.425 0 0 3.466 -0.605 0 0 -2.655 c -0.09 0.07 -0.202 0.138 -0.339 0.205 -0.137 0.067 -0.269 0.122 -0.395 0.166 l -0.186 -0.461 c 0.193 -0.077 0.388 -0.175 0.581 -0.295 0.197 -0.12 0.369 -0.262 0.519 -0.425 z" style="fill:#ececec;fill-opacity:1"/>
</svg>
