<svg viewBox="0 0 16 16" xmlns="http://www.w3.org/2000/svg">
 <path style="fill:#ececec;fill-opacity:1" d="m 1.6 0 c -0.886 0 -1.6 0.714 -1.6 1.6 l 0 12.8 c 0 0.886 0.714 1.6 1.6 1.6 l 12.8 0 c 0.886 0 1.6 -0.714 1.6 -1.6 l 0 -12.8 c 0 -0.886 -0.714 -1.6 -1.6 -1.6 l -12.8 0 z m -0.705 4.47 1.259 0 0 2.77 3.01 0 0 -2.77 1.259 0 0 6.93 -1.259 0 0 -3.07 -3.01 0 0 3.07 -1.259 0 0 -6.93 z m 7.07 1.7 1.211 0 0 2.739 c 0 0.56 0.079 0.96 0.239 1.2 0.167 0.24 0.454 0.361 0.861 0.361 0.147 0 0.299 -0.007 0.459 -0.02 0.167 -0.013 0.29 -0.03 0.37 -0.05 l 0 -4.23 1.209 0 0 5.07 c -0.233 0.06 -0.536 0.12 -0.909 0.18 -0.373 0.067 -0.783 0.1 -1.23 0.1 -0.42 0 -0.774 -0.06 -1.061 -0.18 -0.28 -0.12 -0.506 -0.287 -0.68 -0.5 c -0.167 -0.213 -0.286 -0.468 -0.359 -0.761 -0.073 -0.3 -0.111 -0.626 -0.111 -0.98 l 0 -2.93 z m 5.395 3.764 2.316 0 0 0.461 c -0.11 0.123 -0.231 0.291 -0.361 0.505 -0.13 0.213 -0.254 0.455 -0.37 0.725 -0.117 0.267 -0.218 0.553 -0.305 0.859 -0.083 0.307 -0.135 0.612 -0.155 0.916 l -0.62 0 c 0.02 -0.253 0.066 -0.52 0.136 -0.8 0.07 -0.28 0.155 -0.552 0.255 -0.816 0.103 -0.267 0.214 -0.514 0.334 -0.744 0.123 -0.233 0.246 -0.429 0.366 -0.586 l -1.595 0 0 -0.52 z"/>
</svg>
