<svg viewBox="0 0 16 16" xmlns="http://www.w3.org/2000/svg">
 <path style="fill:#ececec;fill-opacity:1" d="m 1.6 0 c -0.886 0 -1.6 0.714 -1.6 1.6 l 0 12.8 c 0 0.886 0.714 1.6 1.6 1.6 l 12.8 0 c 0.886 0 1.6 -0.714 1.6 -1.6 l 0 -12.8 c 0 -0.886 -0.714 -1.6 -1.6 -1.6 l -12.8 0 z m 2.517 4.309 c 0.433 0 0.817 0.05 1.15 0.15 0.34 0.093 0.607 0.198 0.8 0.311 l -0.391 1.02 c -0.227 -0.127 -0.477 -0.224 -0.75 -0.291 -0.267 -0.067 -0.543 -0.1 -0.83 -0.1 c -0.34 0 -0.607 0.069 -0.8 0.209 -0.187 0.14 -0.28 0.337 -0.28 0.591 0 0.153 0.029 0.287 0.089 0.4 0.067 0.107 0.157 0.204 0.27 0.291 0.12 0.087 0.258 0.166 0.411 0.239 0.16 0.073 0.332 0.144 0.519 0.211 0.327 0.12 0.617 0.242 0.87 0.369 0.26 0.12 0.477 0.267 0.65 0.441 0.18 0.167 0.318 0.367 0.411 0.6 0.093 0.227 0.139 0.503 0.139 0.83 0 0.627 -0.224 1.114 -0.67 1.461 -0.44 0.34 -1.086 0.509 -1.939 0.509 -0.287 0 -0.551 -0.019 -0.791 -0.059 c -0.233 -0.033 -0.443 -0.078 -0.63 -0.131 -0.18 -0.053 -0.337 -0.106 -0.47 -0.159 -0.133 -0.06 -0.24 -0.113 -0.32 -0.159 l 0.37 -1.031 c 0.18 0.1 0.423 0.2 0.73 0.3 0.307 0.1 0.678 0.15 1.111 0.15 0.453 0 0.782 -0.076 0.989 -0.23 c 0.207 -0.153 0.311 -0.37 0.311 -0.65 0 -0.167 -0.038 -0.31 -0.111 -0.43 -0.067 -0.12 -0.167 -0.227 -0.3 -0.32 c -0.127 -0.1 -0.282 -0.19 -0.469 -0.27 -0.187 -0.087 -0.401 -0.17 -0.641 -0.25 -0.24 -0.087 -0.473 -0.18 -0.7 -0.28 c -0.22 -0.107 -0.417 -0.236 -0.591 -0.389 -0.167 -0.153 -0.303 -0.337 -0.409 -0.55 c -0.1 -0.213 -0.15 -0.47 -0.15 -0.77 0 -0.627 0.217 -1.117 0.65 -1.47 c 0.433 -0.36 1.024 -0.541 1.77 -0.541 z m 2.661 1.861 1.289 0 c 0.073 0.293 0.157 0.61 0.25 0.95 0.1 0.333 0.204 0.669 0.311 1.01 0.113 0.333 0.226 0.66 0.339 0.98 0.12 0.313 0.23 0.597 0.33 0.85 0.1 -0.253 0.207 -0.537 0.32 -0.85 0.113 -0.32 0.223 -0.646 0.33 -0.98 0.113 -0.34 0.22 -0.676 0.32 -1.01 0.1 -0.34 0.188 -0.657 0.261 -0.95 l 1.25 0 c -0.287 1.02 -0.608 1.977 -0.961 2.87 c -0.347 0.887 -0.687 1.673 -1.02 2.359 l -1.039 0 c -0.333 -0.687 -0.676 -1.473 -1.03 -2.359 -0.347 -0.893 -0.663 -1.85 -0.95 -2.87 z m 6.378 3.684 c 0.193 0 0.36 0.024 0.5 0.07 0.14 0.047 0.255 0.113 0.345 0.2 0.093 0.083 0.161 0.183 0.205 0.3 0.047 0.113 0.07 0.238 0.07 0.375 0 0.16 -0.046 0.303 -0.136 0.43 -0.087 0.127 -0.199 0.224 -0.339 0.291 0.18 0.063 0.329 0.167 0.445 0.314 0.12 0.147 0.18 0.336 0.18 0.566 0 0.153 -0.026 0.296 -0.08 0.43 -0.053 0.13 -0.135 0.244 -0.245 0.341 -0.11 0.093 -0.25 0.168 -0.42 0.225 -0.167 0.053 -0.367 0.08 -0.6 0.08 -0.09 0 -0.183 -0.007 -0.28 -0.02 -0.093 -0.01 -0.184 -0.025 -0.27 -0.045 -0.083 -0.017 -0.16 -0.035 -0.23 -0.055 -0.07 -0.023 -0.124 -0.044 -0.161 -0.064 l 0.12 -0.516 c 0.07 0.033 0.171 0.072 0.305 0.116 0.133 0.04 0.299 0.059 0.495 0.059 0.263 0 0.454 -0.05 0.57 -0.15 0.117 -0.103 0.175 -0.239 0.175 -0.409 0 -0.11 -0.024 -0.202 -0.07 -0.275 -0.043 -0.073 -0.104 -0.132 -0.184 -0.175 -0.077 -0.047 -0.167 -0.079 -0.27 -0.095 -0.1 -0.02 -0.207 -0.03 -0.32 -0.03 l -0.205 0 0 -0.491 0.25 0 c 0.077 0 0.153 -0.007 0.23 -0.02 0.08 -0.017 0.152 -0.043 0.216 -0.08 0.063 -0.04 0.115 -0.091 0.155 -0.155 0.04 -0.063 0.059 -0.145 0.059 -0.245 0 -0.08 -0.014 -0.148 -0.044 -0.205 -0.03 -0.057 -0.07 -0.104 -0.12 -0.141 -0.047 -0.037 -0.102 -0.063 -0.166 -0.08 -0.063 -0.017 -0.13 -0.025 -0.2 -0.025 -0.15 0 -0.283 0.024 -0.4 0.07 -0.117 0.043 -0.219 0.093 -0.309 0.15 l -0.22 -0.45 c 0.047 -0.03 0.104 -0.062 0.17 -0.095 0.067 -0.033 0.14 -0.065 0.22 -0.095 0.083 -0.03 0.171 -0.054 0.264 -0.07 0.093 -0.02 0.192 -0.03 0.295 -0.03 z"/>
</svg>
