<svg viewBox="0 0 16 16" xmlns="http://www.w3.org/2000/svg">
 <path d="m 1.6 0 c -0.886 0 -1.6 0.714 -1.6 1.6 l 0 12.8 c 0 0.886 0.714 1.6 1.6 1.6 l 12.8 0 c 0.886 0 1.6 -0.714 1.6 -1.6 l 0 -12.8 c 0 -0.886 -0.714 -1.6 -1.6 -1.6 l -12.8 0 z m 7.736 3.891 c 0.2 0 0.374 0.067 0.52 0.2 0.147 0.133 0.22 0.317 0.22 0.55 0 0.227 -0.074 0.406 -0.22 0.539 -0.147 0.133 -0.32 0.2 -0.52 0.2 -0.207 0 -0.383 -0.067 -0.53 -0.2 c -0.147 -0.133 -0.22 -0.312 -0.22 -0.539 c 0 -0.233 0.074 -0.417 0.22 -0.55 0.147 -0.133 0.323 -0.2 0.53 -0.2 z m -6.06 0.58 4.38 0 0 1.07 -3.12 0 0 1.769 2.77 0 0 1.07 -2.77 0 0 3.02 -1.259 0 0 -6.93 z m 5.458 1.7 1.209 0 0 5.23 -1.209 0 0 -5.23 z m 2.609 3.764 1.77 0 0 0.511 -1.256 0 c -0.003 0.057 -0.007 0.122 -0.014 0.195 -0.003 0.07 -0.009 0.141 -0.016 0.214 -0.003 0.073 -0.007 0.144 -0.014 0.211 -0.007 0.067 -0.014 0.122 -0.02 0.169 0.493 0.027 0.856 0.141 1.089 0.341 0.237 0.197 0.356 0.466 0.356 0.809 0 0.157 -0.028 0.303 -0.081 0.436 -0.053 0.133 -0.134 0.249 -0.244 0.345 -0.11 0.097 -0.249 0.173 -0.416 0.23 -0.167 0.053 -0.361 0.08 -0.584 0.08 -0.09 0 -0.182 -0.007 -0.275 -0.02 -0.093 -0.013 -0.184 -0.03 -0.27 -0.05 -0.083 -0.017 -0.158 -0.035 -0.225 -0.055 -0.067 -0.02 -0.117 -0.038 -0.15 -0.055 l 0.114 -0.511 c 0.07 0.033 0.17 0.071 0.3 0.111 0.133 0.037 0.296 0.055 0.486 0.055 0.13 0 0.241 -0.014 0.334 -0.041 0.093 -0.03 0.168 -0.069 0.225 -0.119 0.06 -0.05 0.103 -0.107 0.13 -0.17 0.027 -0.067 0.041 -0.138 0.041 -0.211 0 -0.11 -0.022 -0.207 -0.066 -0.294 -0.043 -0.087 -0.12 -0.16 -0.23 -0.22 -0.107 -0.06 -0.251 -0.106 -0.434 -0.136 -0.18 -0.03 -0.409 -0.044 -0.686 -0.044 0.037 -0.32 0.066 -0.624 0.086 -0.911 0.02 -0.29 0.037 -0.58 0.05 -0.87 z" style="fill:#ececec;fill-opacity:1"/>
</svg>
