<svg xmlns="http://www.w3.org/2000/svg" viewBox="0 0 16 16">
 <path d="m 1.6 0 c -0.886 0 -1.6 0.714 -1.6 1.6 l 0 12.8 c 0 0.886 0.714 1.6 1.6 1.6 l 12.8 0 c 0.886 0 1.6 -0.714 1.6 -1.6 l 0 -12.8 c 0 -0.886 -0.714 -1.6 -1.6 -1.6 l -12.8 0 z m 0.594 4.47 4.45 0 0 1.07 -3.189 0 0 1.709 2.839 0 0 1.05 -2.839 0 0 2.03 3.43 0 0 1.07 -4.691 0 0 -6.93 z m 7.48 1.57 c 0.307 0 0.6 0.029 0.88 0.089 0.28 0.053 0.491 0.108 0.631 0.161 l -0.22 0.98 c -0.133 -0.06 -0.304 -0.114 -0.511 -0.161 -0.207 -0.053 -0.445 -0.08 -0.719 -0.08 -0.247 0 -0.447 0.043 -0.6 0.13 -0.153 0.08 -0.231 0.208 -0.231 0.381 0 0.087 0.014 0.163 0.041 0.23 0.033 0.067 0.086 0.129 0.159 0.189 0.073 0.053 0.171 0.11 0.291 0.17 c 0.12 0.053 0.267 0.11 0.441 0.17 0.287 0.107 0.53 0.214 0.73 0.32 c 0.2 0.1 0.362 0.217 0.489 0.35 0.133 0.127 0.231 0.272 0.291 0.439 0.06 0.167 0.091 0.367 0.091 0.6 0 0.5 -0.188 0.881 -0.561 1.141 -0.367 0.253 -0.893 0.38 -1.58 0.38 -0.46 0 -0.829 -0.04 -1.109 -0.12 -0.28 -0.073 -0.477 -0.133 -0.591 -0.18 l 0.209 -1.01 c 0.18 0.073 0.394 0.143 0.641 0.209 0.253 0.067 0.539 0.1 0.859 0.1 0.32 0 0.553 -0.036 0.7 -0.109 0.147 -0.08 0.22 -0.213 0.22 -0.4 0 -0.173 -0.079 -0.316 -0.239 -0.43 c -0.153 -0.113 -0.41 -0.237 -0.77 -0.37 c -0.22 -0.08 -0.424 -0.163 -0.611 -0.25 c -0.18 -0.093 -0.335 -0.2 -0.469 -0.32 -0.133 -0.12 -0.24 -0.263 -0.32 -0.43 -0.073 -0.173 -0.111 -0.383 -0.111 -0.63 c 0 -0.48 0.178 -0.858 0.531 -1.131 0.353 -0.28 0.832 -0.419 1.439 -0.419 z m 4.481 3.875 0.034 0.5 c -0.18 0.003 -0.348 0.023 -0.505 0.059 -0.157 0.033 -0.297 0.086 -0.42 0.159 -0.123 0.073 -0.23 0.169 -0.32 0.286 -0.087 0.117 -0.153 0.26 -0.2 0.43 0.163 -0.077 0.343 -0.116 0.536 -0.116 0.207 0 0.382 0.031 0.525 0.091 0.147 0.057 0.265 0.134 0.355 0.234 0.09 0.1 0.155 0.217 0.195 0.35 0.043 0.13 0.064 0.268 0.064 0.411 0 0.13 -0.024 0.263 -0.07 0.4 -0.043 0.137 -0.113 0.262 -0.209 0.375 -0.093 0.11 -0.211 0.202 -0.355 0.275 -0.143 0.07 -0.314 0.105 -0.511 0.105 -0.397 0 -0.699 -0.131 -0.909 -0.391 c -0.207 -0.263 -0.309 -0.624 -0.309 -1.084 c 0 -0.333 0.047 -0.628 0.144 -0.884 0.1 -0.26 0.24 -0.48 0.42 -0.656 0.183 -0.177 0.404 -0.31 0.661 -0.4 0.26 -0.093 0.552 -0.14 0.875 -0.144 z m -0.95 1.8 c -0.097 0 -0.191 0.008 -0.281 0.025 -0.09 0.017 -0.17 0.042 -0.244 0.075 -0.003 0.027 -0.008 0.056 -0.011 0.089 l 0 0.091 c 0 0.133 0.008 0.26 0.025 0.38 0.02 0.117 0.052 0.219 0.095 0.309 0.047 0.087 0.108 0.158 0.184 0.211 0.08 0.05 0.179 0.075 0.295 0.075 0.097 0 0.179 -0.021 0.245 -0.061 0.07 -0.04 0.127 -0.091 0.17 -0.155 0.043 -0.063 0.075 -0.131 0.095 -0.205 0.02 -0.077 0.03 -0.15 0.03 -0.22 0 -0.2 -0.049 -0.351 -0.145 -0.455 -0.097 -0.107 -0.249 -0.159 -0.459 -0.159 z" style="fill:#ececec;fill-opacity:1"/>
</svg>
