<svg viewBox="0 0 16 16" xmlns="http://www.w3.org/2000/svg">
 <path style="fill:#ececec;fill-opacity:1" d="m 1.6 0 c -0.886 0 -1.6 0.714 -1.6 1.6 l 0 12.8 c 0 0.886 0.714 1.6 1.6 1.6 l 12.8 0 c 0.886 0 1.6 -0.714 1.6 -1.6 l 0 -12.8 c 0 -0.886 -0.714 -1.6 -1.6 -1.6 l -12.8 0 z m 1.048 4.67 1.259 0 0 2.859 c 0.22 -0.22 0.451 -0.453 0.691 -0.7 0.24 -0.253 0.476 -0.506 0.709 -0.759 0.24 -0.26 0.468 -0.51 0.681 -0.75 0.213 -0.24 0.406 -0.457 0.58 -0.65 l 1.509 0 c -0.22 0.253 -0.453 0.516 -0.7 0.789 c -0.247 0.273 -0.499 0.551 -0.759 0.831 c -0.26 0.273 -0.524 0.545 -0.791 0.819 -0.26 0.273 -0.517 0.535 -0.77 0.781 0.28 0.213 0.563 0.463 0.85 0.75 0.293 0.28 0.581 0.583 0.861 0.909 0.28 0.32 0.547 0.656 0.8 1.01 0.26 0.347 0.496 0.694 0.709 1.041 l -1.489 0 c -0.173 -0.267 -0.373 -0.547 -0.6 -0.841 c -0.227 -0.293 -0.467 -0.577 -0.72 -0.85 -0.247 -0.273 -0.504 -0.533 -0.77 -0.78 -0.267 -0.247 -0.531 -0.459 -0.791 -0.639 l 0 3.109 -1.259 0 0 -6.93 z m 8.594 1.589 c 0.427 0 0.784 0.061 1.07 0.181 0.287 0.113 0.513 0.276 0.68 0.489 0.173 0.207 0.293 0.461 0.359 0.761 0.073 0.293 0.111 0.615 0.111 0.969 l 0 2.941 -1.211 0 0 -2.75 c 0 -0.28 -0.019 -0.516 -0.059 -0.709 -0.033 -0.2 -0.093 -0.361 -0.18 -0.481 -0.08 -0.127 -0.194 -0.215 -0.341 -0.269 -0.14 -0.06 -0.314 -0.091 -0.52 -0.091 -0.153 0 -0.313 0.01 -0.48 0.03 -0.167 0.02 -0.29 0.037 -0.37 0.05 l 0 4.22 -1.209 0 0 -5.059 c 0.233 -0.067 0.536 -0.131 0.909 -0.191 0.373 -0.06 0.787 -0.091 1.241 -0.091 z"/>
</svg>
