<svg xmlns="http://www.w3.org/2000/svg" viewBox="0 0 16 16">
 <path style="fill:#ececec;fill-opacity:1" d="m 1.6 0 c -0.886 0 -1.6 0.714 -1.6 1.6 l 0 12.8 c 0 0.886 0.714 1.6 1.6 1.6 l 12.8 0 c 0.886 0 1.6 -0.714 1.6 -1.6 l 0 -12.8 c 0 -0.886 -0.714 -1.6 -1.6 -1.6 l -12.8 0 z m -0.636 4.47 1.259 0 0 2.77 3.01 0 0 -2.77 1.259 0 0 6.93 -1.259 0 0 -3.07 -3.01 0 0 3.07 -1.259 0 0 -6.93 z m 9.267 1.57 c 0.72 0 1.28 0.222 1.68 0.669 0.407 0.447 0.611 1.113 0.611 2 0 0.067 -0.004 0.145 -0.011 0.231 0 0.08 -0.003 0.152 -0.009 0.219 l -3.45 0 c 0.033 0.42 0.179 0.748 0.439 0.981 0.267 0.227 0.65 0.339 1.15 0.339 0.293 0 0.56 -0.026 0.8 -0.08 0.247 -0.053 0.441 -0.11 0.581 -0.17 l 0.159 0.991 c -0.067 0.033 -0.16 0.069 -0.28 0.109 -0.113 0.033 -0.247 0.064 -0.4 0.091 -0.147 0.033 -0.306 0.06 -0.48 0.08 -0.173 0.02 -0.351 0.03 -0.531 0.03 -0.46 0 -0.86 -0.067 -1.2 -0.2 -0.34 -0.14 -0.619 -0.33 -0.839 -0.57 -0.22 -0.247 -0.384 -0.533 -0.491 -0.859 c -0.107 -0.333 -0.159 -0.697 -0.159 -1.091 c 0 -0.46 0.067 -0.863 0.2 -1.209 0.14 -0.347 0.323 -0.633 0.55 -0.859 c 0.227 -0.233 0.486 -0.407 0.78 -0.52 0.293 -0.12 0.593 -0.18 0.9 -0.18 z m 0.009 1.01 c -0.187 0 -0.349 0.036 -0.489 0.109 -0.14 0.067 -0.261 0.157 -0.361 0.27 -0.093 0.113 -0.165 0.244 -0.219 0.391 -0.053 0.147 -0.091 0.297 -0.111 0.45 l 2.25 0 c 0 -0.167 -0.024 -0.324 -0.07 -0.47 -0.047 -0.153 -0.116 -0.284 -0.209 -0.391 -0.087 -0.113 -0.196 -0.199 -0.33 -0.259 -0.127 -0.067 -0.281 -0.1 -0.461 -0.1 z m 4.109 2.805 c 0.37 0 0.641 0.089 0.814 0.266 0.177 0.173 0.266 0.411 0.266 0.714 0 0.12 -0.025 0.24 -0.075 0.356 -0.05 0.113 -0.115 0.224 -0.195 0.334 -0.077 0.107 -0.166 0.212 -0.266 0.316 -0.1 0.1 -0.2 0.197 -0.3 0.294 -0.053 0.05 -0.113 0.111 -0.18 0.181 -0.067 0.07 -0.129 0.139 -0.189 0.209 -0.06 0.07 -0.113 0.138 -0.156 0.205 -0.043 0.063 -0.065 0.118 -0.069 0.161 l 1.539 0 0 0.509 -2.205 0 c -0.003 -0.027 -0.005 -0.059 -0.005 -0.095 l 0 -0.089 c 0 -0.16 0.025 -0.307 0.075 -0.441 0.053 -0.137 0.121 -0.263 0.205 -0.38 0.083 -0.117 0.176 -0.226 0.28 -0.33 0.103 -0.103 0.208 -0.206 0.311 -0.306 0.08 -0.077 0.156 -0.152 0.23 -0.225 0.073 -0.073 0.136 -0.144 0.189 -0.214 0.057 -0.073 0.103 -0.147 0.136 -0.22 0.033 -0.077 0.05 -0.154 0.05 -0.234 0 -0.173 -0.05 -0.297 -0.15 -0.37 -0.1 -0.073 -0.222 -0.111 -0.366 -0.111 -0.093 0 -0.179 0.014 -0.259 0.041 -0.08 0.027 -0.152 0.059 -0.216 0.095 -0.06 0.037 -0.113 0.074 -0.159 0.114 -0.047 0.037 -0.081 0.067 -0.105 0.091 l -0.3 -0.425 c 0.14 -0.133 0.302 -0.24 0.489 -0.32 0.19 -0.083 0.394 -0.125 0.611 -0.125 z"/>
</svg>
