<svg viewBox="0 0 16 16" xmlns="http://www.w3.org/2000/svg">
 <path style="fill:#ececec;fill-opacity:1" d="m 1.6 0 c -0.886 0 -1.6 0.714 -1.6 1.6 l 0 12.8 c 0 0.886 0.714 1.6 1.6 1.6 l 12.8 0 c 0.886 0 1.6 -0.714 1.6 -1.6 l 0 -12.8 c 0 -0.886 -0.714 -1.6 -1.6 -1.6 l -12.8 0 z m 8.409 3.841 0 2.589 c 0.133 -0.047 0.286 -0.087 0.459 -0.12 0.18 -0.033 0.358 -0.05 0.531 -0.05 0.42 0 0.766 0.061 1.039 0.181 0.28 0.113 0.504 0.276 0.67 0.489 0.167 0.207 0.283 0.457 0.35 0.75 0.073 0.293 0.109 0.62 0.109 0.98 l 0 2.941 -1.209 0 0 -2.75 c 0 -0.28 -0.019 -0.516 -0.059 -0.709 -0.033 -0.2 -0.095 -0.361 -0.181 -0.481 c -0.08 -0.127 -0.19 -0.215 -0.33 -0.269 -0.14 -0.06 -0.314 -0.091 -0.52 -0.091 c -0.16 0 -0.322 0.017 -0.489 0.05 -0.167 0.033 -0.29 0.064 -0.37 0.091 l 0 4.159 -1.209 0 0 -7.559 1.209 -0.2 z m -7.389 0.83 4.959 0 0 0.93 c -0.22 0.24 -0.487 0.554 -0.8 0.941 -0.313 0.38 -0.635 0.797 -0.969 1.25 -0.333 0.447 -0.664 0.909 -0.991 1.389 -0.32 0.473 -0.603 0.923 -0.85 1.35 l 3.72 0 0 1.07 -5.241 0 0 -0.791 c 0.133 -0.247 0.288 -0.513 0.461 -0.8 0.18 -0.293 0.369 -0.593 0.569 -0.9 c 0.2 -0.307 0.407 -0.616 0.62 -0.93 0.22 -0.313 0.437 -0.613 0.65 -0.9 0.213 -0.293 0.42 -0.57 0.62 -0.83 0.207 -0.267 0.4 -0.503 0.58 -0.709 l -3.33 0 0 -1.07 z"/>
</svg>
