<svg xmlns="http://www.w3.org/2000/svg" viewBox="0 0 16 16">
 <path style="fill:#ececec;fill-opacity:1" d="m 1.6 0 c -0.886 0 -1.6 0.714 -1.6 1.6 l 0 12.8 c 0 0.886 0.714 1.6 1.6 1.6 l 12.8 0 c 0.886 0 1.6 -0.714 1.6 -1.6 l 0 -12.8 c 0 -0.886 -0.714 -1.6 -1.6 -1.6 l -12.8 0 z m 7.736 3.891 c 0.2 0 0.374 0.067 0.52 0.2 0.147 0.133 0.22 0.317 0.22 0.55 0 0.227 -0.074 0.406 -0.22 0.539 -0.147 0.133 -0.32 0.2 -0.52 0.2 -0.207 0 -0.383 -0.067 -0.53 -0.2 c -0.147 -0.133 -0.22 -0.312 -0.22 -0.539 c 0 -0.233 0.074 -0.417 0.22 -0.55 0.147 -0.133 0.323 -0.2 0.53 -0.2 z m -6.06 0.58 4.38 0 0 1.07 -3.12 0 0 1.769 2.77 0 0 1.07 -2.77 0 0 3.02 -1.259 0 0 -6.93 z m 5.458 1.7 1.209 0 0 5.23 -1.209 0 0 -5.23 z m 3.523 3.764 0.425 0 0 3.466 -0.605 0 0 -2.655 c -0.09 0.07 -0.202 0.138 -0.339 0.205 -0.137 0.067 -0.269 0.122 -0.395 0.166 l -0.186 -0.461 c 0.193 -0.077 0.388 -0.175 0.581 -0.295 0.197 -0.12 0.369 -0.262 0.519 -0.425 z"/>
</svg>
