<svg xmlns="http://www.w3.org/2000/svg" viewBox="0 0 16 16">
 <path d="m 1.6 0 c -0.886 0 -1.6 0.714 -1.6 1.6 l 0 12.8 c 0 0.886 0.714 1.6 1.6 1.6 l 12.8 0 c 0.886 0 1.6 -0.714 1.6 -1.6 l 0 -12.8 c 0 -0.886 -0.714 -1.6 -1.6 -1.6 l -12.8 0 z m 2.825 4.47 1.27 0 0 4.65 c 0 0.34 -0.038 0.657 -0.111 0.95 -0.073 0.293 -0.202 0.55 -0.389 0.77 -0.18 0.22 -0.427 0.392 -0.741 0.519 c -0.307 0.127 -0.697 0.191 -1.17 0.191 c -0.44 0 -0.823 -0.06 -1.15 -0.18 -0.32 -0.127 -0.566 -0.26 -0.739 -0.4 l 0.45 -0.991 c 0.167 0.113 0.369 0.223 0.609 0.33 0.247 0.1 0.497 0.15 0.75 0.15 0.427 0 0.736 -0.105 0.93 -0.319 c 0.193 -0.213 0.291 -0.58 0.291 -1.1 l 0 -4.57 z m 4.567 1.57 c 0.4 0 0.736 0.05 1.01 0.15 0.273 0.1 0.49 0.239 0.65 0.419 0.167 0.18 0.283 0.401 0.35 0.661 0.073 0.253 0.109 0.532 0.109 0.839 l 0 3.17 c -0.187 0.04 -0.47 0.087 -0.85 0.141 -0.373 0.06 -0.795 0.089 -1.269 0.089 -0.313 0 -0.601 -0.029 -0.861 -0.089 -0.26 -0.06 -0.484 -0.157 -0.67 -0.291 -0.18 -0.133 -0.323 -0.307 -0.43 -0.52 -0.1 -0.213 -0.15 -0.476 -0.15 -0.789 0 -0.3 0.057 -0.554 0.17 -0.761 0.12 -0.207 0.28 -0.373 0.48 -0.5 0.2 -0.133 0.431 -0.226 0.691 -0.28 0.267 -0.06 0.543 -0.089 0.83 -0.089 0.133 0 0.274 0.01 0.42 0.03 0.147 0.013 0.304 0.04 0.47 0.08 l 0 -0.2 c 0 -0.14 -0.017 -0.273 -0.05 -0.4 c -0.033 -0.127 -0.095 -0.236 -0.181 -0.33 c -0.08 -0.1 -0.19 -0.176 -0.33 -0.23 -0.133 -0.053 -0.303 -0.081 -0.509 -0.081 -0.28 0 -0.537 0.021 -0.77 0.061 -0.233 0.04 -0.424 0.086 -0.57 0.139 l -0.15 -0.98 c 0.153 -0.053 0.377 -0.106 0.67 -0.159 0.293 -0.053 0.607 -0.08 0.941 -0.08 z m 0.239 3.02 c -0.133 0 -0.269 0.011 -0.409 0.031 -0.133 0.02 -0.257 0.056 -0.37 0.109 -0.107 0.053 -0.193 0.13 -0.259 0.23 -0.067 0.093 -0.1 0.214 -0.1 0.361 0 0.287 0.089 0.487 0.269 0.6 0.18 0.107 0.425 0.159 0.731 0.159 0.373 0 0.657 -0.019 0.85 -0.059 l 0 -1.341 c -0.067 -0.02 -0.164 -0.039 -0.291 -0.059 -0.127 -0.02 -0.267 -0.031 -0.42 -0.031 z m 2.847 0.875 2.316 0 0 0.461 c -0.11 0.123 -0.231 0.291 -0.361 0.505 -0.13 0.213 -0.252 0.455 -0.369 0.725 -0.117 0.267 -0.22 0.553 -0.306 0.859 -0.083 0.307 -0.135 0.612 -0.155 0.916 l -0.62 0 c 0.02 -0.253 0.066 -0.52 0.136 -0.8 0.07 -0.28 0.155 -0.552 0.255 -0.816 0.103 -0.267 0.214 -0.514 0.334 -0.744 0.123 -0.233 0.246 -0.429 0.366 -0.586 l -1.595 0 0 -0.52 z" style="fill:#ececec;fill-opacity:1"/>
</svg>
