<svg xmlns="http://www.w3.org/2000/svg" viewBox="0 0 16 16">
 <path style="fill:#ececec;fill-opacity:1" d="m 1.6 0 c -0.886 0 -1.6 0.714 -1.6 1.6 l 0 12.8 c 0 0.886 0.714 1.6 1.6 1.6 l 12.8 0 c 0.886 0 1.6 -0.714 1.6 -1.6 l 0 -12.8 c 0 -0.886 -0.714 -1.6 -1.6 -1.6 l -12.8 0 z m 2.547 4.309 c 0.433 0 0.817 0.05 1.15 0.15 0.34 0.093 0.607 0.198 0.8 0.311 l -0.391 1.02 c -0.227 -0.127 -0.477 -0.224 -0.75 -0.291 -0.267 -0.067 -0.543 -0.1 -0.83 -0.1 c -0.34 0 -0.607 0.069 -0.8 0.209 c -0.187 0.14 -0.28 0.337 -0.28 0.591 c 0 0.153 0.029 0.287 0.089 0.4 0.067 0.107 0.157 0.204 0.27 0.291 0.12 0.087 0.256 0.166 0.409 0.239 0.16 0.073 0.334 0.144 0.52 0.211 0.327 0.12 0.617 0.242 0.87 0.369 0.26 0.12 0.477 0.267 0.65 0.441 0.18 0.167 0.316 0.367 0.409 0.6 0.093 0.227 0.141 0.503 0.141 0.83 0 0.627 -0.224 1.114 -0.67 1.461 -0.44 0.34 -1.086 0.509 -1.939 0.509 -0.287 0 -0.551 -0.019 -0.791 -0.059 c -0.233 -0.033 -0.443 -0.078 -0.63 -0.131 -0.18 -0.053 -0.337 -0.106 -0.47 -0.159 -0.133 -0.06 -0.24 -0.113 -0.32 -0.159 l 0.37 -1.031 c 0.18 0.1 0.423 0.2 0.73 0.3 0.307 0.1 0.678 0.15 1.111 0.15 0.453 0 0.782 -0.076 0.989 -0.23 c 0.207 -0.153 0.311 -0.37 0.311 -0.65 0 -0.167 -0.038 -0.31 -0.111 -0.43 c -0.067 -0.12 -0.167 -0.227 -0.3 -0.32 -0.127 -0.1 -0.284 -0.19 -0.47 -0.27 -0.187 -0.087 -0.399 -0.17 -0.639 -0.25 -0.24 -0.087 -0.473 -0.18 -0.7 -0.28 c -0.22 -0.107 -0.417 -0.236 -0.591 -0.389 -0.167 -0.153 -0.303 -0.337 -0.409 -0.55 c -0.1 -0.213 -0.15 -0.47 -0.15 -0.77 0 -0.627 0.217 -1.117 0.65 -1.47 c 0.433 -0.36 1.024 -0.541 1.77 -0.541 z m 2.62 1.861 1.289 0 c 0.067 0.28 0.147 0.583 0.241 0.909 0.1 0.327 0.207 0.66 0.32 1 0.113 0.333 0.233 0.667 0.359 1 0.127 0.333 0.253 0.643 0.38 0.93 0.213 -0.593 0.413 -1.222 0.6 -1.889 c 0.187 -0.673 0.358 -1.323 0.511 -1.95 l 1.25 0 c -0.54 1.987 -1.166 3.787 -1.88 5.4 -0.133 0.3 -0.271 0.557 -0.411 0.77 -0.14 0.213 -0.297 0.39 -0.47 0.53 -0.173 0.14 -0.366 0.24 -0.58 0.3 -0.213 0.067 -0.459 0.1 -0.739 0.1 -0.187 0 -0.374 -0.021 -0.561 -0.061 -0.18 -0.04 -0.316 -0.083 -0.409 -0.13 l 0.22 -0.97 c 0.24 0.093 0.476 0.141 0.709 0.141 0.313 0 0.556 -0.076 0.73 -0.23 0.18 -0.147 0.337 -0.377 0.47 -0.691 -0.38 -0.733 -0.747 -1.533 -1.1 -2.4 c -0.347 -0.867 -0.656 -1.786 -0.93 -2.759 z m 6.655 3.764 0.425 0 0 3.466 -0.605 0 0 -2.655 c -0.09 0.07 -0.204 0.138 -0.341 0.205 -0.137 0.067 -0.267 0.122 -0.394 0.166 l -0.186 -0.461 c 0.193 -0.077 0.386 -0.175 0.58 -0.295 0.197 -0.12 0.37 -0.262 0.52 -0.425 z"/>
</svg>
