<svg xmlns="http://www.w3.org/2000/svg" viewBox="0 0 16 16">
 <path d="m 1.6 0 c -0.886 0 -1.6 0.714 -1.6 1.6 l 0 12.8 c 0 0.886 0.714 1.6 1.6 1.6 l 12.8 0 c 0.886 0 1.6 -0.714 1.6 -1.6 l 0 -12.8 c 0 -0.886 -0.714 -1.6 -1.6 -1.6 l -12.8 0 z m 3.077 4.6 c 0.42 0 0.81 0.033 1.17 0.1 0.36 0.06 0.67 0.163 0.93 0.309 0.267 0.147 0.474 0.341 0.62 0.581 0.147 0.24 0.22 0.536 0.22 0.889 0 0.327 -0.081 0.607 -0.241 0.841 -0.153 0.233 -0.37 0.419 -0.65 0.559 0.42 0.14 0.731 0.347 0.931 0.62 0.2 0.273 0.3 0.621 0.3 1.041 0 0.713 -0.261 1.249 -0.781 1.609 -0.52 0.353 -1.316 0.53 -2.389 0.53 -0.367 0 -0.738 -0.012 -1.111 -0.039 -0.373 -0.02 -0.7 -0.067 -0.98 -0.141 l 0 -6.73 c 0.147 -0.027 0.304 -0.05 0.47 -0.07 0.167 -0.027 0.336 -0.046 0.509 -0.059 0.173 -0.013 0.344 -0.025 0.511 -0.031 0.173 -0.007 0.336 -0.009 0.489 -0.009 z m 0.161 1.03 c -0.193 0 -0.367 0.004 -0.52 0.011 -0.147 0.007 -0.273 0.016 -0.38 0.03 l 0 1.82 0.889 0 c 0.48 0 0.858 -0.067 1.131 -0.2 c 0.273 -0.14 0.409 -0.387 0.409 -0.741 c 0 -0.333 -0.143 -0.569 -0.43 -0.709 -0.28 -0.14 -0.647 -0.211 -1.1 -0.211 z m 6.502 0.611 c 0.72 0 1.281 0.222 1.681 0.669 0.407 0.447 0.609 1.113 0.609 2 0 0.067 -0.003 0.145 -0.009 0.231 0 0.08 -0.004 0.152 -0.011 0.219 l -3.45 0 c 0.033 0.42 0.181 0.748 0.441 0.981 0.267 0.227 0.65 0.339 1.15 0.339 0.293 0 0.56 -0.026 0.8 -0.08 0.247 -0.053 0.44 -0.11 0.58 -0.17 l 0.159 0.991 c -0.067 0.033 -0.16 0.069 -0.28 0.109 -0.113 0.033 -0.247 0.064 -0.4 0.091 c -0.147 0.033 -0.306 0.06 -0.48 0.08 -0.173 0.02 -0.35 0.03 -0.53 0.03 c -0.46 0 -0.86 -0.067 -1.2 -0.2 -0.34 -0.14 -0.621 -0.33 -0.841 -0.57 c -0.22 -0.247 -0.382 -0.533 -0.489 -0.859 -0.107 -0.333 -0.161 -0.697 -0.161 -1.091 c 0 -0.46 0.067 -0.863 0.2 -1.209 0.14 -0.347 0.323 -0.633 0.55 -0.859 0.227 -0.233 0.486 -0.407 0.78 -0.52 0.293 -0.12 0.593 -0.18 0.9 -0.18 z m 0.011 1.01 c -0.187 0 -0.351 0.036 -0.491 0.109 -0.14 0.067 -0.259 0.157 -0.359 0.27 -0.093 0.113 -0.167 0.244 -0.22 0.391 -0.053 0.147 -0.089 0.297 -0.109 0.45 l 2.25 0 c 0 -0.167 -0.024 -0.324 -0.07 -0.47 -0.047 -0.153 -0.118 -0.284 -0.211 -0.391 -0.087 -0.113 -0.196 -0.199 -0.33 -0.259 -0.127 -0.067 -0.279 -0.1 -0.459 -0.1 z m -7.413 1.23 0 2.111 c 0.14 0.013 0.29 0.023 0.45 0.03 0.16 0.007 0.306 0.009 0.439 0.009 0.26 0 0.5 -0.017 0.72 -0.05 0.227 -0.033 0.42 -0.09 0.58 -0.17 0.167 -0.087 0.297 -0.199 0.391 -0.339 0.1 -0.14 0.15 -0.321 0.15 -0.541 c 0 -0.393 -0.143 -0.667 -0.43 -0.82 -0.287 -0.153 -0.684 -0.23 -1.191 -0.23 l -1.109 0 z" style="fill:#ececec;fill-opacity:1"/>
</svg>
