<svg xmlns="http://www.w3.org/2000/svg" viewBox="0 0 16 16">
 <path d="m 1.6 0 c -0.886 0 -1.6 0.714 -1.6 1.6 l 0 12.8 c 0 0.886 0.714 1.6 1.6 1.6 l 12.8 0 c 0.886 0 1.6 -0.714 1.6 -1.6 l 0 -12.8 c 0 -0.886 -0.714 -1.6 -1.6 -1.6 l -12.8 0 z m 0.217 4.67 1.169 0 c 0.147 0.253 0.311 0.563 0.491 0.93 c 0.18 0.367 0.363 0.753 0.55 1.159 0.187 0.4 0.37 0.811 0.55 1.231 0.187 0.413 0.356 0.797 0.509 1.15 0.153 -0.353 0.32 -0.737 0.5 -1.15 0.18 -0.42 0.363 -0.831 0.55 -1.231 0.187 -0.407 0.37 -0.793 0.55 -1.159 0.18 -0.367 0.344 -0.676 0.491 -0.93 l 1.141 0 c 0.06 0.507 0.115 1.047 0.169 1.62 0.053 0.567 0.101 1.15 0.141 1.75 0.047 0.593 0.087 1.193 0.12 1.8 0.04 0.6 0.073 1.186 0.1 1.759 l -1.241 0 c -0.027 -0.807 -0.06 -1.637 -0.1 -2.491 -0.033 -0.853 -0.086 -1.68 -0.159 -2.48 -0.073 0.153 -0.161 0.337 -0.261 0.55 -0.1 0.213 -0.205 0.447 -0.319 0.7 -0.113 0.247 -0.23 0.504 -0.35 0.77 -0.113 0.267 -0.227 0.526 -0.341 0.78 -0.107 0.247 -0.207 0.48 -0.3 0.7 -0.093 0.213 -0.174 0.397 -0.241 0.55 l -0.939 0 c -0.067 -0.153 -0.147 -0.339 -0.241 -0.559 -0.093 -0.22 -0.196 -0.453 -0.309 -0.7 -0.107 -0.253 -0.221 -0.513 -0.341 -0.78 -0.113 -0.267 -0.226 -0.524 -0.339 -0.77 -0.113 -0.247 -0.22 -0.477 -0.32 -0.691 c -0.1 -0.22 -0.188 -0.403 -0.261 -0.55 -0.073 0.8 -0.129 1.626 -0.169 2.48 c -0.033 0.853 -0.064 1.684 -0.091 2.491 l -1.241 0 c 0.027 -0.573 0.057 -1.166 0.091 -1.78 0.04 -0.613 0.08 -1.22 0.12 -1.82 0.047 -0.607 0.097 -1.193 0.15 -1.759 0.053 -0.567 0.11 -1.09 0.17 -1.57 z m 10.597 1.589 c 0.427 0 0.784 0.061 1.07 0.181 0.287 0.113 0.513 0.276 0.68 0.489 0.173 0.207 0.293 0.461 0.359 0.761 0.073 0.293 0.111 0.615 0.111 0.969 l 0 2.941 -1.211 0 0 -2.75 c 0 -0.28 -0.019 -0.516 -0.059 -0.709 -0.033 -0.2 -0.093 -0.361 -0.18 -0.481 c -0.08 -0.127 -0.194 -0.215 -0.341 -0.269 -0.14 -0.06 -0.314 -0.091 -0.52 -0.091 c -0.153 0 -0.313 0.01 -0.48 0.03 -0.167 0.02 -0.29 0.037 -0.37 0.05 l 0 4.22 -1.209 0 0 -5.059 c 0.233 -0.067 0.536 -0.131 0.909 -0.191 0.373 -0.06 0.787 -0.091 1.241 -0.091 z" style="fill:#ececec;fill-opacity:1"/>
</svg>
