<svg viewBox="0 0 16 16" xmlns="http://www.w3.org/2000/svg">
 <path d="m 1.6 0 c -0.886 0 -1.6 0.714 -1.6 1.6 l 0 12.8 c 0 0.886 0.714 1.6 1.6 1.6 l 12.8 0 c 0.886 0 1.6 -0.714 1.6 -1.6 l 0 -12.8 c 0 -0.886 -0.714 -1.6 -1.6 -1.6 l -12.8 0 z m 0.614 4.47 4.38 0 0 1.07 -3.12 0 0 1.769 2.77 0 0 1.07 -2.77 0 0 3.02 -1.259 0 0 -6.93 z m 6.739 1.57 c 0.4 0 0.736 0.05 1.01 0.15 0.273 0.1 0.49 0.239 0.65 0.419 0.167 0.18 0.283 0.401 0.35 0.661 0.073 0.253 0.109 0.532 0.109 0.839 l 0 3.17 c -0.187 0.04 -0.47 0.087 -0.85 0.141 -0.373 0.06 -0.795 0.089 -1.269 0.089 -0.313 0 -0.601 -0.029 -0.861 -0.089 -0.26 -0.06 -0.484 -0.157 -0.67 -0.291 -0.18 -0.133 -0.323 -0.307 -0.43 -0.52 -0.1 -0.213 -0.15 -0.476 -0.15 -0.789 0 -0.3 0.057 -0.554 0.17 -0.761 0.12 -0.207 0.28 -0.373 0.48 -0.5 0.2 -0.133 0.431 -0.226 0.691 -0.28 0.267 -0.06 0.543 -0.089 0.83 -0.089 0.133 0 0.274 0.01 0.42 0.03 0.147 0.013 0.304 0.04 0.47 0.08 l 0 -0.2 c 0 -0.14 -0.017 -0.273 -0.05 -0.4 -0.033 -0.127 -0.095 -0.236 -0.181 -0.33 -0.08 -0.1 -0.19 -0.176 -0.33 -0.23 -0.133 -0.053 -0.303 -0.081 -0.509 -0.081 -0.28 0 -0.537 0.021 -0.77 0.061 -0.233 0.04 -0.424 0.086 -0.57 0.139 l -0.15 -0.98 c 0.153 -0.053 0.377 -0.106 0.67 -0.159 0.293 -0.053 0.607 -0.08 0.941 -0.08 z m 0.239 3.02 c -0.133 0 -0.269 0.011 -0.409 0.031 -0.133 0.02 -0.257 0.056 -0.37 0.109 -0.107 0.053 -0.193 0.13 -0.259 0.23 -0.067 0.093 -0.1 0.214 -0.1 0.361 0 0.287 0.089 0.487 0.269 0.6 0.18 0.107 0.425 0.159 0.731 0.159 0.373 0 0.657 -0.019 0.85 -0.059 l 0 -1.341 c -0.067 -0.02 -0.164 -0.039 -0.291 -0.059 -0.127 -0.02 -0.267 -0.031 -0.42 -0.031 z m 4.133 0.875 0.425 0 0 3.466 -0.606 0 0 -2.655 c -0.09 0.07 -0.202 0.138 -0.339 0.205 -0.137 0.067 -0.269 0.122 -0.395 0.166 l -0.184 -0.461 c 0.193 -0.077 0.386 -0.175 0.58 -0.295 0.197 -0.12 0.37 -0.262 0.52 -0.425 z" style="fill:#ececec;fill-opacity:1"/>
</svg>
