<svg viewBox="0 0 16 16" xmlns="http://www.w3.org/2000/svg">
 <path style="fill:#ececec;fill-opacity:1" d="m 1.6 0 c -0.886 0 -1.6 0.714 -1.6 1.6 l 0 12.8 c 0 0.886 0.714 1.6 1.6 1.6 l 12.8 0 c 0.886 0 1.6 -0.714 1.6 -1.6 l 0 -12.8 c 0 -0.886 -0.714 -1.6 -1.6 -1.6 l -12.8 0 z m 7.72 3.641 0 4.569 c 0.153 -0.16 0.317 -0.329 0.491 -0.509 0.173 -0.187 0.343 -0.37 0.509 -0.55 c 0.167 -0.187 0.324 -0.363 0.47 -0.53 0.153 -0.173 0.284 -0.323 0.391 -0.45 l 1.43 0 c -0.333 0.373 -0.686 0.759 -1.059 1.159 -0.367 0.4 -0.738 0.79 -1.111 1.17 c 0.2 0.167 0.41 0.369 0.63 0.609 0.22 0.233 0.434 0.483 0.641 0.75 0.207 0.267 0.4 0.533 0.58 0.8 0.18 0.267 0.33 0.514 0.45 0.741 l -1.4 0 c -0.12 -0.207 -0.26 -0.423 -0.42 -0.65 -0.153 -0.227 -0.32 -0.446 -0.5 -0.659 c -0.18 -0.213 -0.363 -0.413 -0.55 -0.6 -0.187 -0.193 -0.37 -0.357 -0.55 -0.491 l 0 2.4 -1.209 0 0 -7.559 1.209 -0.2 z m -8.231 0.83 1.27 0 0 4.209 c 0 0.313 0.033 0.584 0.1 0.811 0.073 0.22 0.173 0.399 0.3 0.539 0.133 0.14 0.288 0.244 0.461 0.311 0.18 0.067 0.38 0.1 0.6 0.1 0.22 0 0.42 -0.033 0.6 -0.1 0.18 -0.067 0.333 -0.171 0.459 -0.311 0.133 -0.14 0.233 -0.319 0.3 -0.539 0.073 -0.227 0.109 -0.498 0.109 -0.811 l 0 -4.209 1.27 0 0 4.33 c 0 0.4 -0.057 0.767 -0.17 1.1 -0.107 0.333 -0.273 0.624 -0.5 0.87 -0.22 0.247 -0.503 0.44 -0.85 0.58 -0.347 0.133 -0.756 0.2 -1.23 0.2 -0.473 0 -0.88 -0.067 -1.22 -0.2 -0.34 -0.14 -0.623 -0.333 -0.85 -0.58 c -0.22 -0.247 -0.382 -0.537 -0.489 -0.87 -0.107 -0.333 -0.161 -0.7 -0.161 -1.1 l 0 -4.33 z m 12.395 5.464 1.769 0 0 0.511 -1.255 0 c -0.003 0.057 -0.007 0.122 -0.014 0.195 -0.003 0.07 -0.009 0.141 -0.016 0.214 -0.003 0.073 -0.009 0.144 -0.016 0.211 -0.007 0.067 -0.012 0.122 -0.019 0.169 0.493 0.027 0.856 0.141 1.089 0.341 0.237 0.197 0.355 0.466 0.355 0.809 0 0.157 -0.026 0.303 -0.08 0.436 -0.053 0.133 -0.135 0.249 -0.245 0.345 -0.11 0.097 -0.247 0.173 -0.414 0.23 -0.167 0.053 -0.363 0.08 -0.586 0.08 -0.09 0 -0.182 -0.007 -0.275 -0.02 -0.093 -0.013 -0.182 -0.03 -0.269 -0.05 -0.083 -0.017 -0.158 -0.035 -0.225 -0.055 -0.067 -0.02 -0.117 -0.038 -0.15 -0.055 l 0.114 -0.511 c 0.07 0.033 0.17 0.071 0.3 0.111 0.133 0.037 0.296 0.055 0.486 0.055 0.13 0 0.241 -0.014 0.334 -0.041 0.093 -0.03 0.168 -0.069 0.225 -0.119 0.06 -0.05 0.103 -0.107 0.13 -0.17 0.027 -0.067 0.041 -0.138 0.041 -0.211 0 -0.11 -0.022 -0.207 -0.066 -0.294 -0.043 -0.087 -0.12 -0.16 -0.23 -0.22 -0.107 -0.06 -0.251 -0.106 -0.434 -0.136 -0.18 -0.03 -0.409 -0.044 -0.686 -0.044 0.037 -0.32 0.066 -0.624 0.086 -0.911 0.02 -0.29 0.037 -0.58 0.05 -0.87 z"/>
</svg>
