<svg viewBox="0 0 16 16" xmlns="http://www.w3.org/2000/svg">
 <path d="m 1.6 0 c -0.886 0 -1.6 0.714 -1.6 1.6 l 0 12.8 c 0 0.886 0.714 1.6 1.6 1.6 l 12.8 0 c 0.886 0 1.6 -0.714 1.6 -1.6 l 0 -12.8 c 0 -0.886 -0.714 -1.6 -1.6 -1.6 l -12.8 0 z m 0.731 4.47 1.259 0 0 5.839 3.12 0 0 1.091 -4.38 0 0 -6.93 z m 4.202 1.7 1.291 0 c 0.073 0.293 0.157 0.61 0.25 0.95 0.1 0.333 0.203 0.669 0.309 1.01 0.113 0.333 0.227 0.66 0.341 0.98 0.12 0.313 0.23 0.597 0.33 0.85 0.1 -0.253 0.207 -0.537 0.32 -0.85 0.113 -0.32 0.223 -0.646 0.33 -0.98 0.113 -0.34 0.22 -0.676 0.32 -1.01 0.1 -0.34 0.186 -0.657 0.259 -0.95 l 1.25 0 c -0.287 1.02 -0.606 1.977 -0.959 2.87 c -0.347 0.887 -0.687 1.673 -1.02 2.359 l -1.039 0 c -0.333 -0.687 -0.678 -1.473 -1.031 -2.359 -0.347 -0.893 -0.663 -1.85 -0.95 -2.87 z m 6.825 3.764 0.575 0 0 2.141 0.389 0 0 0.495 -0.389 0 0 0.83 -0.591 0 0 -0.83 -1.52 0 0 -0.43 c 0.067 -0.147 0.156 -0.316 0.266 -0.506 0.113 -0.19 0.238 -0.384 0.375 -0.584 0.137 -0.2 0.281 -0.397 0.434 -0.591 0.153 -0.193 0.308 -0.368 0.461 -0.525 z m -0.016 0.745 c -0.08 0.097 -0.163 0.201 -0.25 0.311 -0.083 0.11 -0.165 0.224 -0.245 0.344 -0.08 0.12 -0.156 0.244 -0.23 0.37 -0.073 0.123 -0.14 0.247 -0.2 0.37 l 0.925 0 0 -1.395 z" style="fill:#ececec;fill-opacity:1"/>
</svg>
