<svg viewBox="0 0 16 16" xmlns="http://www.w3.org/2000/svg">
 <path style="fill:#ececec;fill-opacity:1" d="m 1.6 0 c -0.886 0 -1.6 0.714 -1.6 1.6 l 0 12.8 c 0 0.886 0.714 1.6 1.6 1.6 l 12.8 0 c 0.886 0 1.6 -0.714 1.6 -1.6 l 0 -12.8 c 0 -0.886 -0.714 -1.6 -1.6 -1.6 l -12.8 0 z m 3.133 4.309 c 0.433 0 0.817 0.05 1.15 0.15 0.34 0.093 0.607 0.198 0.8 0.311 l -0.391 1.02 c -0.227 -0.127 -0.477 -0.224 -0.75 -0.291 -0.267 -0.067 -0.543 -0.1 -0.83 -0.1 c -0.34 0 -0.607 0.069 -0.8 0.209 -0.187 0.14 -0.28 0.337 -0.28 0.591 0 0.153 0.029 0.287 0.089 0.4 0.067 0.107 0.157 0.204 0.27 0.291 0.12 0.087 0.256 0.166 0.409 0.239 0.16 0.073 0.334 0.144 0.52 0.211 0.327 0.12 0.617 0.242 0.87 0.369 0.26 0.12 0.477 0.267 0.65 0.441 0.18 0.167 0.316 0.367 0.409 0.6 0.093 0.227 0.141 0.503 0.141 0.83 0 0.627 -0.224 1.114 -0.67 1.461 -0.44 0.34 -1.086 0.509 -1.939 0.509 -0.287 0 -0.551 -0.019 -0.791 -0.059 c -0.233 -0.033 -0.443 -0.078 -0.63 -0.131 -0.18 -0.053 -0.337 -0.106 -0.47 -0.159 -0.133 -0.06 -0.24 -0.113 -0.32 -0.159 l 0.37 -1.031 c 0.18 0.1 0.423 0.2 0.73 0.3 0.307 0.1 0.678 0.15 1.111 0.15 0.453 0 0.782 -0.076 0.989 -0.23 c 0.207 -0.153 0.311 -0.37 0.311 -0.65 0 -0.167 -0.038 -0.31 -0.111 -0.43 -0.067 -0.12 -0.167 -0.227 -0.3 -0.32 -0.127 -0.1 -0.284 -0.19 -0.47 -0.27 -0.187 -0.087 -0.399 -0.17 -0.639 -0.25 -0.24 -0.087 -0.473 -0.18 -0.7 -0.28 -0.22 -0.107 -0.417 -0.236 -0.591 -0.389 -0.167 -0.153 -0.303 -0.337 -0.409 -0.55 -0.1 -0.213 -0.15 -0.47 -0.15 -0.77 0 -0.627 0.217 -1.117 0.65 -1.47 0.433 -0.36 1.024 -0.541 1.77 -0.541 z m 5.341 1.75 c 0.08 0 0.173 0.007 0.28 0.02 0.107 0.007 0.214 0.021 0.32 0.041 0.107 0.013 0.209 0.033 0.309 0.059 0.1 0.02 0.181 0.041 0.241 0.061 l -0.211 1.019 c -0.1 -0.033 -0.24 -0.067 -0.42 -0.1 -0.173 -0.04 -0.376 -0.059 -0.609 -0.059 -0.133 0 -0.276 0.014 -0.43 0.041 -0.147 0.027 -0.251 0.049 -0.311 0.069 l 0 4.191 -1.209 0 0 -4.98 c 0.233 -0.087 0.524 -0.167 0.87 -0.241 0.353 -0.08 0.744 -0.12 1.17 -0.12 z m 2.633 3.795 c 0.197 0 0.363 0.029 0.5 0.086 0.14 0.057 0.254 0.129 0.341 0.219 0.09 0.09 0.154 0.19 0.194 0.3 0.04 0.11 0.061 0.217 0.061 0.32 0 0.183 -0.05 0.347 -0.15 0.491 -0.1 0.14 -0.215 0.251 -0.345 0.334 0.197 0.107 0.341 0.23 0.434 0.37 0.097 0.14 0.145 0.305 0.145 0.495 0 0.143 -0.025 0.277 -0.075 0.4 -0.05 0.123 -0.125 0.23 -0.225 0.32 -0.1 0.09 -0.225 0.159 -0.375 0.209 -0.147 0.05 -0.316 0.075 -0.509 0.075 -0.227 0 -0.416 -0.032 -0.566 -0.095 -0.15 -0.063 -0.269 -0.142 -0.359 -0.239 -0.09 -0.097 -0.155 -0.201 -0.195 -0.311 -0.037 -0.113 -0.055 -0.22 -0.055 -0.32 0 -0.1 0.012 -0.192 0.039 -0.275 0.03 -0.087 0.07 -0.164 0.12 -0.234 0.05 -0.073 0.107 -0.14 0.17 -0.2 0.063 -0.06 0.13 -0.113 0.2 -0.159 -0.153 -0.107 -0.269 -0.222 -0.345 -0.345 -0.073 -0.127 -0.109 -0.281 -0.109 -0.461 0 -0.13 0.025 -0.252 0.075 -0.369 0.053 -0.12 0.128 -0.226 0.225 -0.316 0.097 -0.09 0.213 -0.162 0.35 -0.216 0.137 -0.053 0.288 -0.08 0.455 -0.08 z m 0 0.495 c -0.09 0 -0.168 0.015 -0.234 0.045 -0.063 0.027 -0.116 0.063 -0.156 0.109 -0.04 0.043 -0.069 0.092 -0.089 0.145 -0.02 0.05 -0.03 0.1 -0.03 0.15 0 0.127 0.046 0.246 0.139 0.359 0.097 0.113 0.256 0.204 0.48 0.27 0.123 -0.077 0.221 -0.163 0.291 -0.259 0.07 -0.1 0.105 -0.226 0.105 -0.38 0 -0.043 -0.01 -0.091 -0.03 -0.141 -0.017 -0.053 -0.047 -0.102 -0.091 -0.145 -0.04 -0.043 -0.091 -0.079 -0.155 -0.109 -0.063 -0.03 -0.14 -0.045 -0.23 -0.045 z m -0.184 1.484 c -0.12 0.077 -0.217 0.171 -0.291 0.281 c -0.073 0.107 -0.109 0.234 -0.109 0.384 c 0 0.05 0.01 0.103 0.03 0.159 0.02 0.057 0.053 0.11 0.1 0.156 0.047 0.047 0.106 0.085 0.18 0.119 0.073 0.03 0.165 0.045 0.275 0.045 0.1 0 0.186 -0.012 0.259 -0.039 0.073 -0.027 0.135 -0.063 0.181 -0.106 0.047 -0.047 0.081 -0.098 0.105 -0.155 0.023 -0.06 0.034 -0.12 0.034 -0.18 0 -0.093 -0.018 -0.175 -0.055 -0.245 -0.037 -0.07 -0.089 -0.13 -0.159 -0.18 -0.067 -0.053 -0.147 -0.098 -0.241 -0.134 -0.093 -0.04 -0.196 -0.076 -0.309 -0.106 z"/>
</svg>
