<svg xmlns="http://www.w3.org/2000/svg" viewBox="0 0 16 16">
 <path style="fill:#ececec;fill-opacity:1" d="m 1.6 0 c -0.886 0 -1.6 0.714 -1.6 1.6 l 0 12.8 c 0 0.886 0.714 1.6 1.6 1.6 l 12.8 0 c 0.886 0 1.6 -0.714 1.6 -1.6 l 0 -12.8 c 0 -0.886 -0.714 -1.6 -1.6 -1.6 l -12.8 0 z m 9.997 4.091 c 0.2 0 0.374 0.067 0.52 0.2 0.147 0.133 0.22 0.317 0.22 0.55 0 0.227 -0.074 0.406 -0.22 0.539 -0.147 0.133 -0.32 0.2 -0.52 0.2 -0.207 0 -0.383 -0.067 -0.53 -0.2 -0.147 -0.133 -0.22 -0.312 -0.22 -0.539 0 -0.233 0.074 -0.417 0.22 -0.55 0.147 -0.133 0.323 -0.2 0.53 -0.2 z m -7.738 0.58 1.259 0 0 2.77 3.01 0 0 -2.77 1.259 0 0 6.93 -1.259 0 0 -3.07 -3.01 0 0 3.07 -1.259 0 0 -6.93 z m 7.138 1.7 1.209 0 0 5.23 -1.209 0 0 -5.23 z"/>
</svg>
