<svg viewBox="0 0 16 16" xmlns="http://www.w3.org/2000/svg">
 <path d="m 1.6 0 c -0.886 0 -1.6 0.714 -1.6 1.6 l 0 12.8 c 0 0.886 0.714 1.6 1.6 1.6 l 12.8 0 c 0.886 0 1.6 -0.714 1.6 -1.6 l 0 -12.8 c 0 -0.886 -0.714 -1.6 -1.6 -1.6 l -12.8 0 z m 9.57 3.841 0 5.989 c 0 0.147 0.011 0.27 0.031 0.37 0.027 0.1 0.07 0.186 0.13 0.259 0.06 0.067 0.139 0.121 0.239 0.161 0.107 0.033 0.24 0.06 0.4 0.08 l -0.169 1 c -0.36 -0.007 -0.66 -0.047 -0.9 -0.12 -0.233 -0.073 -0.421 -0.176 -0.561 -0.309 -0.14 -0.14 -0.24 -0.311 -0.3 -0.511 -0.053 -0.207 -0.08 -0.44 -0.08 -0.7 l 0 -6.02 1.209 -0.2 z m -4.491 0.669 c 0.433 0 0.817 0.05 1.15 0.15 0.34 0.093 0.607 0.198 0.8 0.311 l -0.389 1.02 c -0.227 -0.127 -0.477 -0.224 -0.75 -0.291 -0.267 -0.067 -0.543 -0.1 -0.83 -0.1 c -0.34 0 -0.607 0.069 -0.8 0.209 -0.187 0.14 -0.281 0.337 -0.281 0.591 0 0.153 0.031 0.287 0.091 0.4 0.067 0.107 0.157 0.204 0.27 0.291 0.12 0.087 0.256 0.166 0.409 0.239 0.16 0.073 0.334 0.144 0.52 0.211 0.327 0.12 0.617 0.242 0.87 0.369 0.26 0.12 0.477 0.267 0.65 0.441 0.18 0.167 0.316 0.367 0.409 0.6 0.093 0.227 0.141 0.503 0.141 0.83 0 0.627 -0.224 1.114 -0.67 1.461 -0.44 0.34 -1.087 0.509 -1.941 0.509 -0.287 0 -0.549 -0.019 -0.789 -0.059 c -0.233 -0.033 -0.443 -0.078 -0.63 -0.131 -0.18 -0.053 -0.337 -0.106 -0.47 -0.159 -0.133 -0.06 -0.24 -0.113 -0.32 -0.159 l 0.37 -1.031 c 0.18 0.1 0.423 0.2 0.73 0.3 0.307 0.1 0.676 0.15 1.109 0.15 0.453 0 0.784 -0.076 0.991 -0.23 0.207 -0.153 0.309 -0.37 0.309 -0.65 c 0 -0.167 -0.036 -0.31 -0.109 -0.43 -0.067 -0.12 -0.167 -0.227 -0.3 -0.32 -0.127 -0.1 -0.284 -0.19 -0.47 -0.27 c -0.187 -0.087 -0.399 -0.17 -0.639 -0.25 -0.24 -0.087 -0.473 -0.18 -0.7 -0.28 -0.22 -0.107 -0.417 -0.236 -0.591 -0.389 -0.167 -0.153 -0.303 -0.337 -0.409 -0.55 -0.1 -0.213 -0.15 -0.47 -0.15 -0.77 0 -0.627 0.217 -1.117 0.65 -1.47 0.433 -0.36 1.022 -0.541 1.769 -0.541 z" style="fill:#ececec;fill-opacity:1"/>
</svg>
