<svg xmlns="http://www.w3.org/2000/svg" viewBox="0 0 16 16">
 <g transform="translate(0,-1037.0442)">"&gt;
            <path d="m 7 1049.04 -1.909 1.273 c -1.09 0.727 -1.181 0.727 -0.09 0.727 l 6 0 c 1.091 0 1 0 -0.092 -0.727 l -1.909 -1.273 0 -1.5 -2 0 z" style="fill:#ececec;fill-opacity:1;stroke:none"/>  <path d="m 3 1039.04 c -0.806 0 -1 0.195 -1 1 l 0 7 c 0 0.806 0.194 1 1 1 l 10 0 c 0.806 0 1 -0.195 1 -1 l 0 -7 c 0 -0.806 -0.194 -1 -1 -1 z m 0 1 10 0 0 7 -10 0 z" style="fill:#ececec;fill-opacity:1;stroke:none"/>  <g transform="translate(0.0015536,0)" style="fill:#ececec;fill-opacity:1;stroke:none">   <path d="m 8 1044.01 q -0.336 0 -0.516 0.183 -0.18 0.183 -0.18 0.525 0 0.342 0.18 0.525 0.18 0.18 0.516 0.18 0.332 0 0.51 -0.18 0.177 -0.183 0.177 -0.525 0 -0.345 -0.177 -0.525 -0.177 -0.183 -0.51 -0.183 z m -0.873 -0.395 q -0.423 -0.127 -0.637 -0.391 -0.214 -0.264 -0.214 -0.659 0 -0.587 0.438 -0.895 0.438 -0.308 1.286 -0.308 0.842 0 1.28 0.308 0.438 0.304 0.438 0.895 0 0.395 -0.218 0.659 -0.214 0.264 -0.637 0.391 0.472 0.13 0.712 0.426 0.242 0.292 0.242 0.739 0 0.69 -0.46 1.044 -0.457 0.351 -1.358 0.351 -0.904 0 -1.367 -0.351 -0.46 -0.354 -0.46 -1.044 0 -0.447 0.239 -0.739 0.242 -0.295 0.715 -0.426 z m 0.28 -0.929 q 0 0.276 0.152 0.426 0.155 0.149 0.441 0.149 0.28 0 0.432 -0.149 0.152 -0.149 0.152 -0.426 0 -0.277 -0.152 -0.423 -0.152 -0.149 -0.432 -0.149 -0.286 0 -0.441 0.149 -0.152 0.149 -0.152 0.423 z"/></g></g>
</svg>
