<svg viewBox="0 0 16 16" xmlns="http://www.w3.org/2000/svg">
 <path style="fill:#ececec;fill-opacity:1" d="m 1.6 0 c -0.886 0 -1.6 0.714 -1.6 1.6 l 0 12.8 c 0 0.886 0.714 1.6 1.6 1.6 l 12.8 0 c 0.886 0 1.6 -0.714 1.6 -1.6 l 0 -12.8 c 0 -0.886 -0.714 -1.6 -1.6 -1.6 l -12.8 0 z m 8.322 3.841 0 4.569 c 0.153 -0.16 0.316 -0.329 0.489 -0.509 c 0.173 -0.187 0.344 -0.37 0.511 -0.55 0.167 -0.187 0.322 -0.363 0.469 -0.53 0.153 -0.173 0.284 -0.323 0.391 -0.45 l 1.43 0 c -0.333 0.373 -0.686 0.759 -1.059 1.159 -0.367 0.4 -0.738 0.79 -1.111 1.17 c 0.2 0.167 0.411 0.369 0.631 0.609 0.22 0.233 0.432 0.483 0.639 0.75 0.207 0.267 0.4 0.533 0.58 0.8 0.18 0.267 0.33 0.514 0.45 0.741 l -1.4 0 c -0.12 -0.207 -0.259 -0.423 -0.419 -0.65 -0.153 -0.227 -0.32 -0.446 -0.5 -0.659 -0.18 -0.213 -0.363 -0.413 -0.55 -0.6 c -0.187 -0.193 -0.37 -0.357 -0.55 -0.491 l 0 2.4 -1.211 0 0 -7.559 1.211 -0.2 z m -4.511 0.669 c 0.433 0 0.817 0.05 1.15 0.15 0.34 0.093 0.607 0.198 0.8 0.311 l -0.391 1.02 c -0.227 -0.127 -0.477 -0.224 -0.75 -0.291 -0.267 -0.067 -0.543 -0.1 -0.83 -0.1 c -0.34 0 -0.607 0.069 -0.8 0.209 c -0.187 0.14 -0.28 0.337 -0.28 0.591 0 0.153 0.029 0.287 0.089 0.4 c 0.067 0.107 0.157 0.204 0.27 0.291 0.12 0.087 0.258 0.166 0.411 0.239 0.16 0.073 0.332 0.144 0.519 0.211 0.327 0.12 0.617 0.242 0.87 0.369 0.26 0.12 0.477 0.267 0.65 0.441 0.18 0.167 0.318 0.367 0.411 0.6 0.093 0.227 0.139 0.503 0.139 0.83 c 0 0.627 -0.224 1.114 -0.67 1.461 -0.44 0.34 -1.086 0.509 -1.939 0.509 c -0.287 0 -0.551 -0.019 -0.791 -0.059 c -0.233 -0.033 -0.443 -0.078 -0.63 -0.131 -0.18 -0.053 -0.337 -0.106 -0.47 -0.159 -0.133 -0.06 -0.24 -0.113 -0.32 -0.159 l 0.37 -1.031 c 0.18 0.1 0.423 0.2 0.73 0.3 0.307 0.1 0.678 0.15 1.111 0.15 0.453 0 0.782 -0.076 0.989 -0.23 0.207 -0.153 0.311 -0.37 0.311 -0.65 c 0 -0.167 -0.038 -0.31 -0.111 -0.43 -0.067 -0.12 -0.167 -0.227 -0.3 -0.32 c -0.127 -0.1 -0.282 -0.19 -0.469 -0.27 -0.187 -0.087 -0.401 -0.17 -0.641 -0.25 -0.24 -0.087 -0.473 -0.18 -0.7 -0.28 c -0.22 -0.107 -0.417 -0.236 -0.591 -0.389 -0.167 -0.153 -0.303 -0.337 -0.409 -0.55 c -0.1 -0.213 -0.15 -0.47 -0.15 -0.77 0 -0.627 0.217 -1.117 0.65 -1.47 c 0.433 -0.36 1.024 -0.541 1.77 -0.541 z"/>
</svg>
