<svg xmlns="http://www.w3.org/2000/svg" viewBox="0 0 16 16">
 <path style="fill:#ececec;fill-opacity:1" d="m 1.6 0 c -0.886 0 -1.6 0.714 -1.6 1.6 l 0 12.8 c 0 0.886 0.714 1.6 1.6 1.6 l 12.8 0 c 0.886 0 1.6 -0.714 1.6 -1.6 l 0 -12.8 c 0 -0.886 -0.714 -1.6 -1.6 -1.6 l -12.8 0 z m 1.891 4.47 1.191 0 c 0.233 0.493 0.46 0.993 0.68 1.5 0.22 0.507 0.439 1.04 0.659 1.6 0.227 0.56 0.457 1.153 0.691 1.78 0.24 0.627 0.49 1.31 0.75 2.05 l -1.359 0 c -0.093 -0.273 -0.191 -0.543 -0.291 -0.809 -0.1 -0.267 -0.197 -0.54 -0.291 -0.82 l -2.919 0 c -0.093 0.28 -0.191 0.556 -0.291 0.83 l -0.28 0.8 -1.311 0 c 0.26 -0.74 0.507 -1.423 0.741 -2.05 0.233 -0.627 0.46 -1.22 0.68 -1.78 0.227 -0.56 0.45 -1.093 0.67 -1.6 c 0.22 -0.507 0.446 -1.01 0.68 -1.5 z m 0.57 1.339 c -0.153 0.353 -0.33 0.784 -0.53 1.291 -0.193 0.507 -0.398 1.057 -0.611 1.65 l 2.281 0 c -0.213 -0.593 -0.42 -1.146 -0.62 -1.659 -0.2 -0.513 -0.374 -0.941 -0.52 -1.281 z m 4.04 0.361 3.97 0 0 0.85 c -0.133 0.14 -0.31 0.336 -0.53 0.589 -0.213 0.253 -0.444 0.537 -0.691 0.85 -0.247 0.307 -0.497 0.63 -0.75 0.97 c -0.247 0.333 -0.47 0.654 -0.67 0.961 l 2.7 0 0 1.01 -4.159 0 0 -0.75 c 0.147 -0.267 0.33 -0.557 0.55 -0.87 0.22 -0.313 0.446 -0.626 0.68 -0.939 0.233 -0.32 0.464 -0.624 0.691 -0.911 c 0.233 -0.287 0.44 -0.537 0.62 -0.75 l -2.411 0 0 -1.01 z m 5.934 3.764 0.425 0 0 3.466 -0.605 0 0 -2.655 c -0.09 0.07 -0.204 0.138 -0.341 0.205 -0.137 0.067 -0.269 0.122 -0.395 0.166 l -0.184 -0.461 c 0.193 -0.077 0.386 -0.175 0.58 -0.295 0.197 -0.12 0.37 -0.262 0.52 -0.425 z"/>
</svg>
