<svg xmlns="http://www.w3.org/2000/svg" viewBox="0 0 16 16">
 <path style="fill:#ececec;fill-opacity:1" d="m 1.6 0 c -0.886 0 -1.6 0.714 -1.6 1.6 l 0 12.8 c 0 0.886 0.714 1.6 1.6 1.6 l 12.8 0 c 0.886 0 1.6 -0.714 1.6 -1.6 l 0 -12.8 c 0 -0.886 -0.714 -1.6 -1.6 -1.6 l -12.8 0 z m 8.663 3.841 0 2.589 c 0.133 -0.047 0.288 -0.087 0.461 -0.12 0.18 -0.033 0.356 -0.05 0.53 -0.05 0.42 0 0.767 0.061 1.041 0.181 0.28 0.113 0.502 0.276 0.669 0.489 0.167 0.207 0.283 0.457 0.35 0.75 0.073 0.293 0.111 0.62 0.111 0.98 l 0 2.941 -1.211 0 0 -2.75 c 0 -0.28 -0.019 -0.516 -0.059 -0.709 -0.033 -0.2 -0.093 -0.361 -0.18 -0.481 c -0.08 -0.127 -0.19 -0.215 -0.33 -0.269 -0.14 -0.06 -0.314 -0.091 -0.52 -0.091 c -0.16 0 -0.324 0.017 -0.491 0.05 -0.167 0.033 -0.29 0.064 -0.37 0.091 l 0 4.159 -1.209 0 0 -7.559 1.209 -0.2 z m -4.395 0.669 c 0.287 0 0.546 0.024 0.78 0.07 0.233 0.04 0.436 0.087 0.609 0.141 0.173 0.053 0.316 0.11 0.43 0.17 0.113 0.06 0.194 0.103 0.241 0.13 l -0.37 1.03 c -0.16 -0.1 -0.389 -0.193 -0.689 -0.28 -0.293 -0.093 -0.614 -0.141 -0.961 -0.141 c -0.3 0 -0.579 0.054 -0.839 0.161 -0.26 0.1 -0.488 0.253 -0.681 0.459 c -0.187 0.207 -0.332 0.466 -0.439 0.78 -0.107 0.313 -0.161 0.677 -0.161 1.091 c 0 0.367 0.04 0.703 0.12 1.01 0.087 0.307 0.217 0.573 0.391 0.8 c 0.173 0.22 0.393 0.394 0.659 0.52 c 0.267 0.12 0.588 0.18 0.961 0.18 0.447 0 0.809 -0.043 1.089 -0.13 0.28 -0.093 0.497 -0.179 0.65 -0.259 l 0.341 1.03 c -0.08 0.053 -0.19 0.106 -0.33 0.159 c -0.133 0.053 -0.295 0.108 -0.481 0.161 -0.187 0.047 -0.396 0.083 -0.63 0.109 c -0.233 0.033 -0.483 0.05 -0.75 0.05 -0.52 0 -0.987 -0.081 -1.4 -0.241 -0.413 -0.16 -0.763 -0.393 -1.05 -0.7 c -0.287 -0.313 -0.506 -0.692 -0.659 -1.139 -0.153 -0.447 -0.23 -0.961 -0.23 -1.541 c 0 -0.58 0.086 -1.092 0.259 -1.539 0.18 -0.447 0.423 -0.825 0.73 -1.131 c 0.307 -0.313 0.666 -0.549 1.08 -0.709 0.413 -0.16 0.858 -0.241 1.331 -0.241 z"/>
</svg>
