<svg viewBox="0 0 16 16" xmlns="http://www.w3.org/2000/svg">
 <path style="fill:#ececec;fill-opacity:1" d="m 1.6 0 c -0.886 0 -1.6 0.714 -1.6 1.6 l 0 12.8 c 0 0.886 0.714 1.6 1.6 1.6 l 12.8 0 c 0.886 0 1.6 -0.714 1.6 -1.6 l 0 -12.8 c 0 -0.886 -0.714 -1.6 -1.6 -1.6 l -12.8 0 z m -0.05 4.47 4.45 0 0 1.07 -3.191 0 0 1.709 2.841 0 0 1.05 -2.841 0 0 2.03 3.43 0 0 1.07 -4.689 0 0 -6.93 z m 7.948 1.589 c 0.427 0 0.784 0.061 1.07 0.181 0.287 0.113 0.513 0.276 0.68 0.489 0.173 0.207 0.294 0.461 0.361 0.761 0.073 0.293 0.109 0.615 0.109 0.969 l 0 2.941 -1.209 0 0 -2.75 c 0 -0.28 -0.021 -0.516 -0.061 -0.709 -0.033 -0.2 -0.093 -0.361 -0.18 -0.481 c -0.08 -0.127 -0.192 -0.215 -0.339 -0.269 -0.14 -0.06 -0.314 -0.091 -0.52 -0.091 c -0.153 0 -0.313 0.01 -0.48 0.03 -0.167 0.02 -0.29 0.037 -0.37 0.05 l 0 4.22 -1.211 0 0 -5.059 c 0.233 -0.067 0.538 -0.131 0.911 -0.191 0.373 -0.06 0.786 -0.091 1.239 -0.091 z m 5.3 3.856 0.034 0.5 c -0.18 0.003 -0.348 0.023 -0.505 0.059 -0.157 0.033 -0.297 0.086 -0.42 0.159 -0.123 0.073 -0.229 0.169 -0.319 0.286 -0.087 0.117 -0.153 0.26 -0.2 0.43 0.163 -0.077 0.341 -0.116 0.534 -0.116 0.207 0 0.382 0.031 0.525 0.091 0.147 0.057 0.265 0.134 0.355 0.234 0.09 0.1 0.155 0.217 0.195 0.35 0.043 0.13 0.066 0.268 0.066 0.411 0 0.13 -0.024 0.263 -0.07 0.4 -0.043 0.137 -0.114 0.262 -0.211 0.375 -0.093 0.11 -0.211 0.202 -0.355 0.275 -0.143 0.07 -0.313 0.105 -0.509 0.105 -0.397 0 -0.701 -0.131 -0.911 -0.391 c -0.207 -0.263 -0.309 -0.624 -0.309 -1.084 c 0 -0.333 0.049 -0.628 0.145 -0.884 0.1 -0.26 0.24 -0.48 0.42 -0.656 0.183 -0.177 0.403 -0.31 0.659 -0.4 0.26 -0.093 0.552 -0.14 0.875 -0.144 z m -0.95 1.8 c -0.097 0 -0.19 0.008 -0.28 0.025 -0.09 0.017 -0.172 0.042 -0.245 0.075 -0.003 0.027 -0.006 0.056 -0.009 0.089 l 0 0.091 c 0 0.133 0.008 0.26 0.025 0.38 0.02 0.117 0.05 0.219 0.094 0.309 0.047 0.087 0.109 0.158 0.186 0.211 0.08 0.05 0.179 0.075 0.295 0.075 0.097 0 0.177 -0.021 0.244 -0.061 0.07 -0.04 0.127 -0.091 0.17 -0.155 0.043 -0.063 0.075 -0.131 0.095 -0.205 0.02 -0.077 0.03 -0.15 0.03 -0.22 0 -0.2 -0.049 -0.351 -0.145 -0.455 -0.097 -0.107 -0.249 -0.159 -0.459 -0.159 z"/>
</svg>
