<svg viewBox="0 0 16 16" xmlns="http://www.w3.org/2000/svg">
 <path d="m 1.6 0 c -0.886 0 -1.6 0.714 -1.6 1.6 l 0 12.8 c 0 0.886 0.714 1.6 1.6 1.6 l 12.8 0 c 0.886 0 1.6 -0.714 1.6 -1.6 l 0 -12.8 c 0 -0.886 -0.714 -1.6 -1.6 -1.6 l -12.8 0 z m 0.848 4.47 4.45 0 0 1.07 -3.191 0 0 1.709 2.841 0 0 1.05 -2.841 0 0 2.03 3.43 0 0 1.07 -4.689 0 0 -6.93 z m 6.831 0.12 0 1.58 1.861 0 0 1.01 -1.861 0 0 2.13 c 0 0.42 0.067 0.72 0.2 0.9 0.133 0.18 0.361 0.27 0.681 0.27 0.22 0 0.413 -0.024 0.58 -0.07 c 0.173 -0.047 0.309 -0.09 0.409 -0.13 l 0.2 0.961 c -0.14 0.06 -0.323 0.12 -0.55 0.18 -0.227 0.067 -0.493 0.1 -0.8 0.1 -0.373 0 -0.686 -0.05 -0.939 -0.15 -0.247 -0.1 -0.444 -0.243 -0.591 -0.43 c -0.147 -0.193 -0.249 -0.424 -0.309 -0.691 -0.06 -0.273 -0.091 -0.583 -0.091 -0.93 l 0 -4.53 1.209 -0.2 z m 3.961 5.344 0.575 0 0 2.141 0.389 0 0 0.495 -0.389 0 0 0.83 -0.591 0 0 -0.83 -1.52 0 0 -0.43 c 0.067 -0.147 0.156 -0.316 0.266 -0.506 0.113 -0.19 0.238 -0.384 0.375 -0.584 0.137 -0.2 0.281 -0.397 0.434 -0.591 0.153 -0.193 0.308 -0.368 0.461 -0.525 z m -0.016 0.745 c -0.08 0.097 -0.163 0.201 -0.25 0.311 -0.083 0.11 -0.165 0.224 -0.245 0.344 -0.08 0.12 -0.156 0.244 -0.23 0.37 -0.073 0.123 -0.14 0.247 -0.2 0.37 l 0.925 0 0 -1.395 z" style="fill:#ececec;fill-opacity:1"/>
</svg>
