<svg xmlns="http://www.w3.org/2000/svg" viewBox="0 0 16 16">
 <path d="m 1.6 0 c -0.886 0 -1.6 0.714 -1.6 1.6 l 0 12.8 c 0 0.886 0.714 1.6 1.6 1.6 l 12.8 0 c 0.886 0 1.6 -0.714 1.6 -1.6 l 0 -12.8 c 0 -0.886 -0.714 -1.6 -1.6 -1.6 l -12.8 0 z m 1.803 4.67 5.53 0 0 1.089 -2.13 0 0 5.841 -1.27 0 0 -5.841 -2.13 0 0 -1.089 z m 8.109 1.589 c 0.08 0 0.175 0.007 0.281 0.02 0.107 0.007 0.212 0.021 0.319 0.041 0.107 0.013 0.211 0.033 0.311 0.059 0.1 0.02 0.179 0.041 0.239 0.061 l -0.209 1.019 c -0.1 -0.033 -0.24 -0.067 -0.42 -0.1 c -0.173 -0.04 -0.376 -0.059 -0.609 -0.059 -0.133 0 -0.276 0.014 -0.43 0.041 -0.147 0.027 -0.251 0.049 -0.311 0.069 l 0 4.191 -1.209 0 0 -4.98 c 0.233 -0.087 0.524 -0.167 0.87 -0.241 c 0.353 -0.08 0.742 -0.12 1.169 -0.12 z" style="fill:#ececec;fill-opacity:1"/>
</svg>
