<svg xmlns="http://www.w3.org/2000/svg" viewBox="0 0 16 16">
 <path style="fill:#ececec;fill-opacity:1" d="m 1.6 0 c -0.886 0 -1.6 0.714 -1.6 1.6 l 0 12.8 c 0 0.886 0.714 1.6 1.6 1.6 l 12.8 0 c 0.886 0 1.6 -0.714 1.6 -1.6 l 0 -12.8 c 0 -0.886 -0.714 -1.6 -1.6 -1.6 l -12.8 0 z m 1.492 4.47 1.261 0 0 6.93 -1.261 0 0 -6.93 z m 5.01 1.57 c 0.72 0 1.28 0.222 1.68 0.669 0.407 0.447 0.609 1.113 0.609 2 0 0.067 -0.003 0.145 -0.009 0.231 0 0.08 -0.004 0.152 -0.011 0.219 l -3.45 0 c 0.033 0.42 0.181 0.748 0.441 0.981 0.267 0.227 0.65 0.339 1.15 0.339 0.293 0 0.56 -0.026 0.8 -0.08 0.247 -0.053 0.44 -0.11 0.58 -0.17 l 0.161 0.991 c -0.067 0.033 -0.161 0.069 -0.281 0.109 -0.113 0.033 -0.247 0.064 -0.4 0.091 c -0.147 0.033 -0.306 0.06 -0.48 0.08 -0.173 0.02 -0.35 0.03 -0.53 0.03 c -0.46 0 -0.86 -0.067 -1.2 -0.2 -0.34 -0.14 -0.621 -0.33 -0.841 -0.57 c -0.22 -0.247 -0.382 -0.533 -0.489 -0.859 -0.107 -0.333 -0.161 -0.697 -0.161 -1.091 c 0 -0.46 0.067 -0.863 0.2 -1.209 0.14 -0.347 0.323 -0.633 0.55 -0.859 0.227 -0.233 0.488 -0.407 0.781 -0.52 0.293 -0.12 0.593 -0.18 0.9 -0.18 z m 0.009 1.01 c -0.187 0 -0.351 0.036 -0.491 0.109 -0.14 0.067 -0.259 0.157 -0.359 0.27 -0.093 0.113 -0.167 0.244 -0.22 0.391 c -0.053 0.147 -0.089 0.297 -0.109 0.45 l 2.25 0 c 0 -0.167 -0.024 -0.324 -0.07 -0.47 -0.047 -0.153 -0.116 -0.284 -0.209 -0.391 -0.087 -0.113 -0.198 -0.199 -0.331 -0.259 -0.127 -0.067 -0.279 -0.1 -0.459 -0.1 z m 4.04 2.805 c 0.193 0 0.36 0.024 0.5 0.07 0.14 0.047 0.255 0.113 0.345 0.2 0.093 0.083 0.161 0.183 0.205 0.3 0.047 0.113 0.07 0.238 0.07 0.375 0 0.16 -0.044 0.303 -0.134 0.43 -0.087 0.127 -0.201 0.224 -0.341 0.291 0.18 0.063 0.329 0.167 0.445 0.314 0.12 0.147 0.18 0.336 0.18 0.566 0 0.153 -0.026 0.296 -0.08 0.43 -0.053 0.13 -0.135 0.244 -0.245 0.341 -0.11 0.093 -0.25 0.168 -0.42 0.225 -0.167 0.053 -0.367 0.08 -0.6 0.08 -0.09 0 -0.183 -0.007 -0.28 -0.02 -0.093 -0.01 -0.184 -0.025 -0.27 -0.045 -0.083 -0.017 -0.16 -0.035 -0.23 -0.055 -0.07 -0.023 -0.123 -0.044 -0.159 -0.064 l 0.12 -0.516 c 0.07 0.033 0.171 0.072 0.305 0.116 0.133 0.04 0.299 0.059 0.495 0.059 0.263 0 0.452 -0.05 0.569 -0.15 c 0.117 -0.103 0.175 -0.239 0.175 -0.409 c 0 -0.11 -0.022 -0.202 -0.069 -0.275 -0.043 -0.073 -0.106 -0.132 -0.186 -0.175 -0.077 -0.047 -0.167 -0.079 -0.27 -0.095 -0.1 -0.02 -0.205 -0.03 -0.319 -0.03 l -0.206 0 0 -0.491 0.25 0 c 0.077 0 0.155 -0.007 0.231 -0.02 0.08 -0.017 0.151 -0.043 0.214 -0.08 0.063 -0.04 0.115 -0.091 0.155 -0.155 0.04 -0.063 0.061 -0.145 0.061 -0.245 0 -0.08 -0.015 -0.148 -0.045 -0.205 -0.03 -0.057 -0.07 -0.104 -0.12 -0.141 -0.047 -0.037 -0.101 -0.063 -0.164 -0.08 -0.063 -0.017 -0.13 -0.025 -0.2 -0.025 -0.15 0 -0.283 0.024 -0.4 0.07 -0.117 0.043 -0.221 0.093 -0.311 0.15 l -0.22 -0.45 c 0.047 -0.03 0.104 -0.062 0.17 -0.095 0.067 -0.033 0.14 -0.065 0.22 -0.095 0.083 -0.03 0.172 -0.054 0.266 -0.07 0.093 -0.02 0.19 -0.03 0.294 -0.03 z"/>
</svg>
