<svg viewBox="0 0 16 16" xmlns="http://www.w3.org/2000/svg">
 <path d="m 1.6 0 c -0.886 0 -1.6 0.714 -1.6 1.6 l 0 12.8 c 0 0.886 0.714 1.6 1.6 1.6 l 12.8 0 c 0.886 0 1.6 -0.714 1.6 -1.6 l 0 -12.8 c 0 -0.886 -0.714 -1.6 -1.6 -1.6 l -12.8 0 z m 9.142 3.841 0 4.569 c 0.153 -0.16 0.316 -0.329 0.489 -0.509 0.173 -0.187 0.344 -0.37 0.511 -0.55 0.167 -0.187 0.324 -0.363 0.47 -0.53 c 0.153 -0.173 0.282 -0.323 0.389 -0.45 l 1.43 0 c -0.333 0.373 -0.686 0.759 -1.059 1.159 -0.367 0.4 -0.736 0.79 -1.109 1.17 c 0.2 0.167 0.41 0.369 0.63 0.609 0.22 0.233 0.432 0.483 0.639 0.75 0.207 0.267 0.401 0.533 0.581 0.8 0.18 0.267 0.33 0.514 0.45 0.741 l -1.4 0 c -0.12 -0.207 -0.26 -0.423 -0.42 -0.65 -0.153 -0.227 -0.32 -0.446 -0.5 -0.659 -0.18 -0.213 -0.363 -0.413 -0.55 -0.6 -0.187 -0.193 -0.37 -0.357 -0.55 -0.491 l 0 2.4 -1.211 0 0 -7.559 1.211 -0.2 z m -8.231 0.83 1.27 0 0 4.209 c 0 0.313 0.033 0.584 0.1 0.811 0.073 0.22 0.173 0.399 0.3 0.539 0.133 0.14 0.286 0.244 0.459 0.311 0.18 0.067 0.38 0.1 0.6 0.1 0.22 0 0.42 -0.033 0.6 -0.1 0.18 -0.067 0.333 -0.171 0.459 -0.311 0.133 -0.14 0.233 -0.319 0.3 -0.539 0.073 -0.227 0.111 -0.498 0.111 -0.811 l 0 -4.209 1.27 0 0 4.33 c 0 0.4 -0.057 0.767 -0.17 1.1 -0.107 0.333 -0.273 0.624 -0.5 0.87 c -0.22 0.247 -0.503 0.44 -0.85 0.58 c -0.347 0.133 -0.756 0.2 -1.23 0.2 -0.473 0 -0.88 -0.067 -1.22 -0.2 -0.34 -0.14 -0.623 -0.333 -0.85 -0.58 c -0.22 -0.247 -0.384 -0.537 -0.491 -0.87 -0.107 -0.333 -0.159 -0.7 -0.159 -1.1 l 0 -4.33 z" style="fill:#ececec;fill-opacity:1"/>
</svg>
