<svg xmlns="http://www.w3.org/2000/svg" viewBox="0 0 16 16">
 <path style="fill:#ececec;fill-opacity:1" d="m 1.6 0 c -0.886 0 -1.6 0.714 -1.6 1.6 l 0 12.8 c 0 0.886 0.714 1.6 1.6 1.6 l 12.8 0 c 0.886 0 1.6 -0.714 1.6 -1.6 l 0 -12.8 c 0 -0.886 -0.714 -1.6 -1.6 -1.6 l -12.8 0 z m 1.528 4.4 c 1 0 1.762 0.183 2.289 0.55 0.533 0.367 0.8 0.926 0.8 1.68 0 0.94 -0.462 1.578 -1.389 1.911 c 0.127 0.153 0.27 0.339 0.43 0.559 c 0.16 0.22 0.324 0.46 0.491 0.72 c 0.167 0.253 0.326 0.516 0.48 0.789 0.153 0.267 0.289 0.531 0.409 0.791 l -1.409 0 c -0.127 -0.24 -0.264 -0.48 -0.411 -0.72 c -0.147 -0.247 -0.297 -0.483 -0.45 -0.709 -0.147 -0.233 -0.292 -0.45 -0.439 -0.65 -0.147 -0.207 -0.284 -0.39 -0.411 -0.55 -0.093 0.007 -0.172 0.009 -0.239 0.009 l -0.191 0 -0.609 0 0 2.62 -1.261 0 0 -6.83 c 0.307 -0.067 0.635 -0.11 0.981 -0.13 0.347 -0.027 0.656 -0.041 0.93 -0.041 z m 0.089 1.091 c -0.267 0 -0.512 0.01 -0.739 0.03 l 0 2.239 0.55 0 c 0.307 0 0.576 -0.017 0.809 -0.05 0.233 -0.033 0.426 -0.093 0.58 -0.18 0.16 -0.087 0.281 -0.203 0.361 -0.35 0.08 -0.147 0.12 -0.333 0.12 -0.559 0 -0.213 -0.04 -0.394 -0.12 -0.541 -0.08 -0.147 -0.197 -0.263 -0.35 -0.35 c -0.147 -0.087 -0.323 -0.146 -0.53 -0.18 -0.207 -0.04 -0.435 -0.059 -0.681 -0.059 z m 6.567 0.55 c 0.367 0 0.703 0.067 1.01 0.2 0.313 0.127 0.58 0.31 0.8 0.55 0.22 0.24 0.391 0.529 0.511 0.869 0.127 0.333 0.189 0.707 0.189 1.12 0 0.413 -0.06 0.79 -0.18 1.13 -0.12 0.34 -0.289 0.63 -0.509 0.87 -0.22 0.24 -0.487 0.428 -0.8 0.561 -0.307 0.133 -0.647 0.2 -1.02 0.2 -0.373 0 -0.714 -0.067 -1.02 -0.2 -0.307 -0.133 -0.571 -0.321 -0.791 -0.561 -0.22 -0.24 -0.392 -0.53 -0.519 -0.87 -0.12 -0.34 -0.181 -0.716 -0.181 -1.13 0 -0.413 0.061 -0.787 0.181 -1.12 0.127 -0.34 0.299 -0.629 0.519 -0.869 0.227 -0.24 0.493 -0.423 0.8 -0.55 0.307 -0.133 0.644 -0.2 1.01 -0.2 z m 0 1.05 c -0.4 0 -0.714 0.153 -0.941 0.459 -0.22 0.3 -0.33 0.71 -0.33 1.23 0 0.527 0.11 0.943 0.33 1.25 0.227 0.307 0.541 0.461 0.941 0.461 0.4 0 0.71 -0.154 0.93 -0.461 0.227 -0.307 0.341 -0.723 0.341 -1.25 0 -0.52 -0.114 -0.93 -0.341 -1.23 -0.22 -0.307 -0.53 -0.459 -0.93 -0.459 z m 4.686 2.844 0.575 0 0 2.141 0.391 0 0 0.495 -0.391 0 0 0.83 -0.589 0 0 -0.83 -1.52 0 0 -0.43 c 0.067 -0.147 0.154 -0.316 0.264 -0.506 0.113 -0.19 0.238 -0.384 0.375 -0.584 c 0.137 -0.2 0.283 -0.397 0.436 -0.591 0.153 -0.193 0.306 -0.368 0.459 -0.525 z m -0.014 0.745 c -0.08 0.097 -0.163 0.201 -0.25 0.311 -0.083 0.11 -0.165 0.224 -0.245 0.344 -0.08 0.12 -0.156 0.244 -0.23 0.37 -0.073 0.123 -0.14 0.247 -0.2 0.37 l 0.925 0 0 -1.395 z"/>
</svg>
