<svg xmlns="http://www.w3.org/2000/svg" viewBox="0 0 16 16">
 <path style="fill:#ececec;fill-opacity:1" d="m 1.6 0 c -0.886 0 -1.6 0.714 -1.6 1.6 l 0 12.8 c 0 0.886 0.714 1.6 1.6 1.6 l 12.8 0 c 0.886 0 1.6 -0.714 1.6 -1.6 l 0 -12.8 c 0 -0.886 -0.714 -1.6 -1.6 -1.6 l -12.8 0 z m 1.548 4.4 c 0.58 0 1.111 0.069 1.591 0.209 0.48 0.133 0.89 0.347 1.23 0.641 0.347 0.287 0.613 0.653 0.8 1.1 0.187 0.44 0.28 0.966 0.28 1.58 0 0.6 -0.093 1.124 -0.28 1.57 -0.187 0.44 -0.453 0.809 -0.8 1.109 -0.34 0.293 -0.754 0.514 -1.241 0.661 -0.48 0.14 -1.013 0.209 -1.6 0.209 -0.28 0 -0.597 -0.012 -0.95 -0.039 -0.353 -0.02 -0.689 -0.067 -1.01 -0.141 l 0 -6.73 c 0.32 -0.073 0.66 -0.121 1.02 -0.141 c 0.36 -0.02 0.679 -0.03 0.959 -0.03 z m 0.08 1.091 c -0.373 0 -0.64 0.01 -0.8 0.03 l 0 4.839 c 0.073 0.007 0.171 0.014 0.291 0.02 l 0.491 0 c 0.847 0 1.476 -0.212 1.889 -0.639 0.42 -0.433 0.63 -1.038 0.63 -1.811 0 -0.787 -0.203 -1.389 -0.609 -1.809 -0.407 -0.42 -1.037 -0.63 -1.891 -0.63 z m 6.769 0.55 c 0.4 0 0.738 0.05 1.01 0.15 0.273 0.1 0.49 0.239 0.65 0.419 0.167 0.18 0.283 0.401 0.35 0.661 0.073 0.253 0.109 0.532 0.109 0.839 l 0 3.17 c -0.187 0.04 -0.47 0.087 -0.85 0.141 -0.373 0.06 -0.797 0.089 -1.27 0.089 -0.313 0 -0.599 -0.029 -0.859 -0.089 -0.26 -0.06 -0.484 -0.157 -0.67 -0.291 -0.18 -0.133 -0.323 -0.307 -0.43 -0.52 -0.1 -0.213 -0.15 -0.476 -0.15 -0.789 0 -0.3 0.057 -0.554 0.17 -0.761 0.12 -0.207 0.28 -0.373 0.48 -0.5 0.2 -0.133 0.429 -0.226 0.689 -0.28 0.267 -0.06 0.545 -0.089 0.831 -0.089 0.133 0 0.272 0.01 0.419 0.03 0.147 0.013 0.304 0.04 0.47 0.08 l 0 -0.2 c 0 -0.14 -0.017 -0.273 -0.05 -0.4 -0.033 -0.127 -0.093 -0.236 -0.18 -0.33 -0.08 -0.1 -0.19 -0.176 -0.33 -0.23 -0.133 -0.053 -0.304 -0.081 -0.511 -0.081 -0.28 0 -0.535 0.021 -0.769 0.061 -0.233 0.04 -0.424 0.086 -0.57 0.139 l -0.15 -0.98 c 0.153 -0.053 0.377 -0.106 0.67 -0.159 0.293 -0.053 0.606 -0.08 0.939 -0.08 z m 0.241 3.02 c -0.133 0 -0.271 0.011 -0.411 0.031 -0.133 0.02 -0.255 0.056 -0.369 0.109 -0.107 0.053 -0.194 0.13 -0.261 0.23 -0.067 0.093 -0.1 0.214 -0.1 0.361 0 0.287 0.09 0.487 0.27 0.6 0.18 0.107 0.423 0.159 0.73 0.159 0.373 0 0.657 -0.019 0.85 -0.059 l 0 -1.341 c -0.067 -0.02 -0.162 -0.039 -0.289 -0.059 -0.127 -0.02 -0.267 -0.031 -0.42 -0.031 z m 4.281 0.875 0.575 0 0 2.141 0.391 0 0 0.495 -0.391 0 0 0.83 -0.589 0 0 -0.83 -1.52 0 0 -0.43 c 0.067 -0.147 0.156 -0.316 0.266 -0.506 0.113 -0.19 0.238 -0.384 0.375 -0.584 c 0.137 -0.2 0.281 -0.397 0.434 -0.591 0.153 -0.193 0.306 -0.368 0.459 -0.525 z m -0.014 0.745 c -0.08 0.097 -0.163 0.201 -0.25 0.311 -0.083 0.11 -0.165 0.224 -0.245 0.344 -0.08 0.12 -0.156 0.244 -0.23 0.37 -0.073 0.123 -0.14 0.247 -0.2 0.37 l 0.925 0 0 -1.395 z"/>
</svg>
