<svg xmlns="http://www.w3.org/2000/svg" viewBox="0 0 16 16">
 <path d="m 1.6 0 c -0.886 0 -1.6 0.714 -1.6 1.6 l 0 12.8 c 0 0.886 0.714 1.6 1.6 1.6 l 12.8 0 c 0.886 0 1.6 -0.714 1.6 -1.6 l 0 -12.8 c 0 -0.886 -0.714 -1.6 -1.6 -1.6 l -12.8 0 z m 3.263 4.67 1.191 0 c 0.233 0.493 0.46 0.993 0.68 1.5 0.22 0.507 0.441 1.04 0.661 1.6 0.227 0.56 0.456 1.153 0.689 1.78 0.24 0.627 0.49 1.31 0.75 2.05 l -1.359 0 c -0.093 -0.273 -0.191 -0.543 -0.291 -0.809 -0.1 -0.267 -0.196 -0.54 -0.289 -0.82 l -2.92 0 c -0.093 0.28 -0.191 0.556 -0.291 0.83 l -0.28 0.8 -1.309 0 c 0.26 -0.74 0.506 -1.423 0.739 -2.05 0.233 -0.627 0.46 -1.22 0.68 -1.78 c 0.227 -0.56 0.45 -1.093 0.67 -1.6 0.22 -0.507 0.446 -1.01 0.68 -1.5 z m 0.57 1.339 c -0.153 0.353 -0.33 0.784 -0.53 1.291 -0.193 0.507 -0.396 1.057 -0.609 1.65 l 2.28 0 c -0.213 -0.593 -0.42 -1.146 -0.62 -1.659 -0.2 -0.513 -0.374 -0.941 -0.52 -1.281 z m 3.4 0.361 1.291 0 c 0.073 0.293 0.157 0.61 0.25 0.95 0.1 0.333 0.203 0.669 0.309 1.01 0.113 0.333 0.227 0.66 0.341 0.98 0.12 0.313 0.23 0.597 0.33 0.85 0.1 -0.253 0.207 -0.537 0.32 -0.85 0.113 -0.32 0.223 -0.646 0.33 -0.98 0.113 -0.34 0.22 -0.676 0.32 -1.01 0.1 -0.34 0.186 -0.657 0.259 -0.95 l 1.25 0 c -0.287 1.02 -0.606 1.977 -0.959 2.87 -0.347 0.887 -0.687 1.673 -1.02 2.359 l -1.041 0 c -0.333 -0.687 -0.676 -1.473 -1.03 -2.359 -0.347 -0.893 -0.663 -1.85 -0.95 -2.87 z" style="fill:#ececec;fill-opacity:1"/>
</svg>
