<svg viewBox="0 0 16 16" xmlns="http://www.w3.org/2000/svg">
 <path style="fill:#ececec;fill-opacity:1" d="m 1.6 0 c -0.886 0 -1.6 0.714 -1.6 1.6 l 0 12.8 c 0 0.886 0.714 1.6 1.6 1.6 l 12.8 0 c 0.886 0 1.6 -0.714 1.6 -1.6 l 0 -12.8 c 0 -0.886 -0.714 -1.6 -1.6 -1.6 l -12.8 0 z m -0.58 4.47 1.03 0 c 0.267 0.28 0.554 0.613 0.861 1 0.307 0.38 0.614 0.776 0.92 1.189 0.313 0.413 0.613 0.83 0.9 1.25 0.293 0.413 0.553 0.801 0.78 1.161 l 0 -4.6 1.25 0 0 6.93 -1.07 0 c -0.227 -0.38 -0.479 -0.787 -0.759 -1.22 -0.28 -0.44 -0.57 -0.88 -0.87 -1.32 -0.3 -0.447 -0.607 -0.876 -0.92 -1.289 -0.307 -0.42 -0.6 -0.796 -0.88 -1.13 l 0 4.959 -1.241 0 0 -6.93 z m 9 1.57 c 0.367 0 0.703 0.067 1.01 0.2 0.313 0.127 0.58 0.31 0.8 0.55 0.22 0.24 0.389 0.529 0.509 0.869 0.127 0.333 0.191 0.707 0.191 1.12 0 0.413 -0.06 0.79 -0.18 1.13 -0.12 0.34 -0.291 0.63 -0.511 0.87 -0.22 0.24 -0.487 0.428 -0.8 0.561 -0.307 0.133 -0.645 0.2 -1.019 0.2 -0.373 0 -0.714 -0.067 -1.02 -0.2 c -0.307 -0.133 -0.571 -0.321 -0.791 -0.561 -0.22 -0.24 -0.394 -0.53 -0.52 -0.87 -0.12 -0.34 -0.18 -0.716 -0.18 -1.13 0 -0.413 0.06 -0.787 0.18 -1.12 0.127 -0.34 0.3 -0.629 0.52 -0.869 c 0.227 -0.24 0.493 -0.423 0.8 -0.55 0.307 -0.133 0.644 -0.2 1.01 -0.2 z m 0 1.05 c -0.4 0 -0.714 0.153 -0.941 0.459 -0.22 0.3 -0.33 0.71 -0.33 1.23 0 0.527 0.11 0.943 0.33 1.25 0.227 0.307 0.541 0.461 0.941 0.461 0.4 0 0.71 -0.154 0.93 -0.461 0.227 -0.307 0.339 -0.723 0.339 -1.25 0 -0.52 -0.112 -0.93 -0.339 -1.23 -0.22 -0.307 -0.53 -0.459 -0.93 -0.459 z m 3.061 2.844 1.77 0 0 0.511 -1.255 0 c -0.003 0.057 -0.009 0.122 -0.016 0.195 -0.003 0.07 -0.009 0.141 -0.016 0.214 -0.003 0.073 -0.007 0.144 -0.014 0.211 -0.007 0.067 -0.014 0.122 -0.02 0.169 0.493 0.027 0.857 0.141 1.091 0.341 0.237 0.197 0.355 0.466 0.355 0.809 0 0.157 -0.026 0.303 -0.08 0.436 -0.053 0.133 -0.135 0.249 -0.245 0.345 -0.11 0.097 -0.249 0.173 -0.416 0.23 -0.167 0.053 -0.361 0.08 -0.584 0.08 -0.09 0 -0.182 -0.007 -0.275 -0.02 -0.093 -0.013 -0.184 -0.03 -0.27 -0.05 -0.083 -0.017 -0.158 -0.035 -0.225 -0.055 -0.067 -0.02 -0.117 -0.038 -0.15 -0.055 l 0.116 -0.511 c 0.07 0.033 0.17 0.071 0.3 0.111 0.133 0.037 0.294 0.055 0.484 0.055 0.13 0 0.241 -0.014 0.334 -0.041 0.093 -0.03 0.168 -0.069 0.225 -0.119 0.06 -0.05 0.105 -0.107 0.131 -0.17 0.027 -0.067 0.039 -0.138 0.039 -0.211 0 -0.11 -0.021 -0.207 -0.064 -0.294 -0.043 -0.087 -0.121 -0.16 -0.231 -0.22 -0.107 -0.06 -0.251 -0.106 -0.434 -0.136 -0.18 -0.03 -0.408 -0.044 -0.684 -0.044 0.037 -0.32 0.064 -0.624 0.084 -0.911 0.02 -0.29 0.037 -0.58 0.05 -0.87 z"/>
</svg>
