<svg viewBox="0 0 16 16" xmlns="http://www.w3.org/2000/svg">
 <path d="m 1.6 0 c -0.886 0 -1.6 0.714 -1.6 1.6 l 0 12.8 c 0 0.886 0.714 1.6 1.6 1.6 l 12.8 0 c 0.886 0 1.6 -0.714 1.6 -1.6 l 0 -12.8 c 0 -0.886 -0.714 -1.6 -1.6 -1.6 l -12.8 0 z m 9.878 3.641 0 5.989 c 0 0.147 0.01 0.27 0.03 0.37 0.027 0.1 0.071 0.186 0.131 0.259 0.06 0.067 0.139 0.121 0.239 0.161 0.107 0.033 0.24 0.06 0.4 0.08 l -0.17 1 c -0.36 -0.007 -0.66 -0.047 -0.9 -0.12 -0.233 -0.073 -0.419 -0.176 -0.559 -0.309 -0.14 -0.14 -0.24 -0.311 -0.3 -0.511 -0.053 -0.207 -0.08 -0.44 -0.08 -0.7 l 0 -6.02 1.209 -0.2 z m -9.638 0.83 1.17 0 c 0.147 0.253 0.311 0.563 0.491 0.93 c 0.18 0.367 0.363 0.753 0.55 1.159 0.187 0.4 0.37 0.811 0.55 1.231 0.187 0.413 0.356 0.797 0.509 1.15 0.153 -0.353 0.32 -0.737 0.5 -1.15 0.18 -0.42 0.363 -0.831 0.55 -1.231 0.187 -0.407 0.37 -0.793 0.55 -1.159 0.18 -0.367 0.344 -0.676 0.491 -0.93 l 1.139 0 c 0.06 0.507 0.117 1.047 0.17 1.62 0.053 0.567 0.101 1.15 0.141 1.75 0.047 0.593 0.085 1.193 0.119 1.8 0.04 0.6 0.073 1.186 0.1 1.759 l -1.239 0 c -0.027 -0.807 -0.06 -1.637 -0.1 -2.491 -0.033 -0.853 -0.088 -1.68 -0.161 -2.48 -0.073 0.153 -0.159 0.337 -0.259 0.55 -0.1 0.213 -0.207 0.447 -0.32 0.7 -0.113 0.247 -0.23 0.504 -0.35 0.77 -0.113 0.267 -0.226 0.526 -0.339 0.78 -0.107 0.247 -0.207 0.48 -0.3 0.7 -0.093 0.213 -0.174 0.397 -0.241 0.55 l -0.941 0 c -0.067 -0.153 -0.146 -0.339 -0.239 -0.559 c -0.093 -0.22 -0.198 -0.453 -0.311 -0.7 c -0.107 -0.253 -0.219 -0.513 -0.339 -0.78 -0.113 -0.267 -0.227 -0.524 -0.341 -0.77 -0.113 -0.247 -0.22 -0.477 -0.32 -0.691 c -0.1 -0.22 -0.186 -0.403 -0.259 -0.55 c -0.073 0.8 -0.13 1.626 -0.17 2.48 -0.033 0.853 -0.062 1.684 -0.089 2.491 l -1.241 0 c 0.027 -0.573 0.057 -1.166 0.091 -1.78 0.04 -0.613 0.079 -1.22 0.119 -1.82 0.047 -0.607 0.097 -1.193 0.15 -1.759 0.053 -0.567 0.11 -1.09 0.17 -1.57 z m 11.972 5.384 c 0.37 0 0.641 0.089 0.814 0.266 0.177 0.173 0.266 0.411 0.266 0.714 0 0.12 -0.025 0.24 -0.075 0.356 -0.05 0.113 -0.115 0.224 -0.195 0.334 -0.077 0.107 -0.164 0.212 -0.264 0.316 -0.1 0.1 -0.2 0.197 -0.3 0.294 -0.053 0.05 -0.115 0.111 -0.181 0.181 -0.067 0.07 -0.129 0.139 -0.189 0.209 -0.06 0.07 -0.111 0.138 -0.155 0.205 -0.043 0.063 -0.067 0.118 -0.07 0.161 l 1.539 0 0 0.509 -2.205 0 c -0.003 -0.027 -0.005 -0.059 -0.005 -0.095 l 0 -0.089 c 0 -0.16 0.025 -0.307 0.075 -0.441 0.053 -0.137 0.121 -0.263 0.205 -0.38 0.083 -0.117 0.176 -0.226 0.28 -0.33 0.103 -0.103 0.208 -0.206 0.311 -0.306 0.08 -0.077 0.156 -0.152 0.23 -0.225 0.073 -0.073 0.137 -0.144 0.191 -0.214 0.057 -0.073 0.101 -0.147 0.134 -0.22 0.033 -0.077 0.05 -0.154 0.05 -0.234 0 -0.173 -0.05 -0.297 -0.15 -0.37 -0.1 -0.073 -0.222 -0.111 -0.366 -0.111 -0.093 0 -0.179 0.014 -0.259 0.041 -0.08 0.027 -0.152 0.059 -0.216 0.095 -0.06 0.037 -0.113 0.074 -0.159 0.114 -0.047 0.037 -0.081 0.067 -0.105 0.091 l -0.3 -0.425 c 0.14 -0.133 0.302 -0.24 0.489 -0.32 0.19 -0.083 0.394 -0.125 0.611 -0.125 z" style="fill:#ececec;fill-opacity:1"/>
</svg>
