<svg xmlns="http://www.w3.org/2000/svg" viewBox="0 0 16 16">
 <path d="m 1.6 0 c -0.886 0 -1.6 0.714 -1.6 1.6 l 0 12.8 c 0 0.886 0.714 1.6 1.6 1.6 l 12.8 0 c 0.886 0 1.6 -0.714 1.6 -1.6 l 0 -12.8 c 0 -0.886 -0.714 -1.6 -1.6 -1.6 l -12.8 0 z m 1.414 4.47 1.261 0 0 6.93 -1.261 0 0 -6.93 z m 5.02 1.589 c 0.427 0 0.784 0.061 1.07 0.181 0.287 0.113 0.513 0.276 0.68 0.489 0.173 0.207 0.293 0.461 0.359 0.761 0.073 0.293 0.111 0.615 0.111 0.969 l 0 2.941 -1.211 0 0 -2.75 c 0 -0.28 -0.019 -0.516 -0.059 -0.709 -0.033 -0.2 -0.093 -0.361 -0.18 -0.481 c -0.08 -0.127 -0.194 -0.215 -0.341 -0.269 -0.14 -0.06 -0.314 -0.091 -0.52 -0.091 c -0.153 0 -0.313 0.01 -0.48 0.03 -0.167 0.02 -0.29 0.037 -0.37 0.05 l 0 4.22 -1.209 0 0 -5.059 c 0.233 -0.067 0.536 -0.131 0.909 -0.191 0.373 -0.06 0.787 -0.091 1.241 -0.091 z m 4.489 3.875 0.425 0 0 3.466 -0.605 0 0 -2.655 c -0.09 0.07 -0.204 0.138 -0.341 0.205 -0.137 0.067 -0.267 0.122 -0.394 0.166 l -0.186 -0.461 c 0.193 -0.077 0.386 -0.175 0.58 -0.295 0.197 -0.12 0.37 -0.262 0.52 -0.425 z" style="fill:#ececec;fill-opacity:1"/>
</svg>
