<svg xmlns="http://www.w3.org/2000/svg" viewBox="0 0 16 16">
 <path style="fill:#ececec;fill-opacity:1" d="m 1.6 0 c -0.886 0 -1.6 0.714 -1.6 1.6 l 0 12.8 c 0 0.886 0.714 1.6 1.6 1.6 l 12.8 0 c 0.886 0 1.6 -0.714 1.6 -1.6 l 0 -12.8 c 0 -0.886 -0.714 -1.6 -1.6 -1.6 l -12.8 0 z m 13.04 3.841 0 7.6 c -0.24 0.073 -0.544 0.14 -0.911 0.2 -0.36 0.06 -0.739 0.089 -1.139 0.089 -0.413 0 -0.784 -0.062 -1.111 -0.189 c -0.327 -0.127 -0.606 -0.307 -0.839 -0.541 -0.227 -0.24 -0.405 -0.526 -0.531 -0.859 -0.12 -0.34 -0.18 -0.721 -0.18 -1.141 c 0 -0.413 0.05 -0.787 0.15 -1.12 0.107 -0.34 0.261 -0.63 0.461 -0.87 0.2 -0.24 0.443 -0.423 0.73 -0.55 0.287 -0.133 0.616 -0.2 0.989 -0.2 0.253 0 0.477 0.031 0.67 0.091 0.193 0.06 0.36 0.127 0.5 0.2 l 0 -2.509 1.211 -0.2 z m -12.869 0.83 1.17 0 c 0.147 0.253 0.311 0.563 0.491 0.93 c 0.18 0.367 0.363 0.753 0.55 1.159 0.187 0.4 0.37 0.811 0.55 1.231 0.187 0.413 0.356 0.797 0.509 1.15 0.153 -0.353 0.32 -0.737 0.5 -1.15 0.18 -0.42 0.363 -0.831 0.55 -1.231 c 0.187 -0.407 0.37 -0.793 0.55 -1.159 0.18 -0.367 0.344 -0.676 0.491 -0.93 l 1.139 0 c 0.06 0.507 0.117 1.047 0.17 1.62 0.053 0.567 0.101 1.15 0.141 1.75 0.047 0.593 0.085 1.193 0.119 1.8 0.04 0.6 0.073 1.186 0.1 1.759 l -1.239 0 c -0.027 -0.807 -0.06 -1.637 -0.1 -2.491 c -0.033 -0.853 -0.088 -1.68 -0.161 -2.48 -0.073 0.153 -0.159 0.337 -0.259 0.55 -0.1 0.213 -0.207 0.447 -0.32 0.7 -0.113 0.247 -0.23 0.504 -0.35 0.77 -0.113 0.267 -0.226 0.526 -0.339 0.78 c -0.107 0.247 -0.207 0.48 -0.3 0.7 -0.093 0.213 -0.174 0.397 -0.241 0.55 l -0.941 0 c -0.067 -0.153 -0.146 -0.339 -0.239 -0.559 -0.093 -0.22 -0.198 -0.453 -0.311 -0.7 -0.107 -0.253 -0.219 -0.513 -0.339 -0.78 -0.113 -0.267 -0.227 -0.524 -0.341 -0.77 -0.113 -0.247 -0.22 -0.477 -0.32 -0.691 c -0.1 -0.22 -0.186 -0.403 -0.259 -0.55 c -0.073 0.8 -0.13 1.626 -0.17 2.48 -0.033 0.853 -0.062 1.684 -0.089 2.491 l -1.241 0 c 0.027 -0.573 0.057 -1.166 0.091 -1.78 0.04 -0.613 0.079 -1.22 0.119 -1.82 0.047 -0.607 0.097 -1.193 0.15 -1.759 0.053 -0.567 0.11 -1.09 0.17 -1.57 z m 10.669 2.63 c -0.44 0 -0.764 0.15 -0.97 0.45 -0.2 0.3 -0.3 0.707 -0.3 1.22 0 0.533 0.126 0.953 0.38 1.259 0.253 0.3 0.603 0.45 1.05 0.45 0.193 0 0.357 -0.007 0.491 -0.02 0.14 -0.02 0.252 -0.039 0.339 -0.059 l 0 -3 c -0.107 -0.073 -0.25 -0.14 -0.43 -0.2 -0.173 -0.067 -0.359 -0.1 -0.559 -0.1 z"/>
</svg>
