<svg viewBox="0 0 16 16" xmlns="http://www.w3.org/2000/svg">
 <path d="m 1.6 0 c -0.886 0 -1.6 0.714 -1.6 1.6 l 0 12.8 c 0 0.886 0.714 1.6 1.6 1.6 l 12.8 0 c 0.886 0 1.6 -0.714 1.6 -1.6 l 0 -12.8 c 0 -0.886 -0.714 -1.6 -1.6 -1.6 l -12.8 0 z m 0.731 4.47 1.259 0 0 5.839 3.12 0 0 1.091 -4.38 0 0 -6.93 z m 4.202 1.7 1.291 0 c 0.073 0.293 0.157 0.61 0.25 0.95 0.1 0.333 0.203 0.669 0.309 1.01 0.113 0.333 0.227 0.66 0.341 0.98 0.12 0.313 0.23 0.597 0.33 0.85 0.1 -0.253 0.207 -0.537 0.32 -0.85 0.113 -0.32 0.223 -0.646 0.33 -0.98 0.113 -0.34 0.22 -0.676 0.32 -1.01 0.1 -0.34 0.186 -0.657 0.259 -0.95 l 1.25 0 c -0.287 1.02 -0.606 1.977 -0.959 2.87 c -0.347 0.887 -0.687 1.673 -1.02 2.359 l -1.039 0 c -0.333 -0.687 -0.678 -1.473 -1.031 -2.359 -0.347 -0.893 -0.663 -1.85 -0.95 -2.87 z m 7.484 3.745 0.034 0.5 c -0.18 0.003 -0.348 0.023 -0.505 0.059 -0.157 0.033 -0.297 0.086 -0.42 0.159 -0.123 0.073 -0.229 0.169 -0.319 0.286 -0.087 0.117 -0.153 0.26 -0.2 0.43 0.163 -0.077 0.341 -0.116 0.534 -0.116 0.207 0 0.382 0.031 0.525 0.091 0.147 0.057 0.265 0.134 0.355 0.234 0.09 0.1 0.155 0.217 0.195 0.35 0.043 0.13 0.066 0.268 0.066 0.411 0 0.13 -0.024 0.263 -0.07 0.4 -0.043 0.137 -0.114 0.262 -0.211 0.375 -0.093 0.11 -0.211 0.202 -0.355 0.275 -0.143 0.07 -0.313 0.105 -0.509 0.105 -0.397 0 -0.701 -0.131 -0.911 -0.391 c -0.207 -0.263 -0.309 -0.624 -0.309 -1.084 c 0 -0.333 0.049 -0.628 0.145 -0.884 0.1 -0.26 0.24 -0.48 0.42 -0.656 0.183 -0.177 0.403 -0.31 0.659 -0.4 0.26 -0.093 0.552 -0.14 0.875 -0.144 z m -0.95 1.8 c -0.097 0 -0.19 0.008 -0.28 0.025 -0.09 0.017 -0.172 0.042 -0.245 0.075 -0.003 0.027 -0.006 0.056 -0.009 0.089 l 0 0.091 c 0 0.133 0.008 0.26 0.025 0.38 0.02 0.117 0.05 0.219 0.094 0.309 0.047 0.087 0.109 0.158 0.186 0.211 0.08 0.05 0.179 0.075 0.295 0.075 0.097 0 0.177 -0.021 0.244 -0.061 0.07 -0.04 0.127 -0.091 0.17 -0.155 0.043 -0.063 0.075 -0.131 0.095 -0.205 0.02 -0.077 0.03 -0.15 0.03 -0.22 0 -0.2 -0.049 -0.351 -0.145 -0.455 -0.097 -0.107 -0.249 -0.159 -0.459 -0.159 z" style="fill:#ececec;fill-opacity:1"/>
</svg>
