<svg viewBox="0 0 16 16" xmlns="http://www.w3.org/2000/svg">
 <path style="fill:#ececec;fill-opacity:1" d="m 1.6 0 c -0.886 0 -1.6 0.714 -1.6 1.6 l 0 12.8 c 0 0.886 0.714 1.6 1.6 1.6 l 12.8 0 c 0.886 0 1.6 -0.714 1.6 -1.6 l 0 -12.8 c 0 -0.886 -0.714 -1.6 -1.6 -1.6 l -12.8 0 z m 2.255 4.47 1.259 0 0 6.93 -1.259 0 0 -6.93 z m 4.02 0.12 0 1.58 1.861 0 0 1.01 -1.861 0 0 2.13 c 0 0.42 0.067 0.72 0.2 0.9 0.133 0.18 0.361 0.27 0.681 0.27 0.22 0 0.413 -0.024 0.58 -0.07 0.173 -0.047 0.309 -0.09 0.409 -0.13 l 0.2 0.961 c -0.14 0.06 -0.323 0.12 -0.55 0.18 -0.227 0.067 -0.493 0.1 -0.8 0.1 -0.373 0 -0.686 -0.05 -0.939 -0.15 -0.247 -0.1 -0.444 -0.243 -0.591 -0.43 c -0.147 -0.193 -0.249 -0.424 -0.309 -0.691 -0.06 -0.273 -0.091 -0.583 -0.091 -0.93 l 0 -4.53 1.209 -0.2 z m 2.895 5.344 1.77 0 0 0.511 -1.255 0 c -0.003 0.057 -0.009 0.122 -0.016 0.195 -0.003 0.07 -0.009 0.141 -0.016 0.214 -0.003 0.073 -0.007 0.144 -0.014 0.211 -0.007 0.067 -0.014 0.122 -0.02 0.169 0.493 0.027 0.857 0.141 1.091 0.341 0.237 0.197 0.355 0.466 0.355 0.809 0 0.157 -0.026 0.303 -0.08 0.436 -0.053 0.133 -0.135 0.249 -0.245 0.345 -0.11 0.097 -0.249 0.173 -0.416 0.23 -0.167 0.053 -0.361 0.08 -0.584 0.08 -0.09 0 -0.182 -0.007 -0.275 -0.02 -0.093 -0.013 -0.184 -0.03 -0.27 -0.05 -0.083 -0.017 -0.158 -0.035 -0.225 -0.055 -0.067 -0.02 -0.117 -0.038 -0.15 -0.055 l 0.116 -0.511 c 0.07 0.033 0.17 0.071 0.3 0.111 0.133 0.037 0.294 0.055 0.484 0.055 0.13 0 0.241 -0.014 0.334 -0.041 0.093 -0.03 0.168 -0.069 0.225 -0.119 0.06 -0.05 0.105 -0.107 0.131 -0.17 0.027 -0.067 0.039 -0.138 0.039 -0.211 0 -0.11 -0.021 -0.207 -0.064 -0.294 -0.043 -0.087 -0.121 -0.16 -0.231 -0.22 -0.107 -0.06 -0.251 -0.106 -0.434 -0.136 -0.18 -0.03 -0.408 -0.044 -0.684 -0.044 0.037 -0.32 0.064 -0.624 0.084 -0.911 0.02 -0.29 0.037 -0.58 0.05 -0.87 z"/>
</svg>
