<svg viewBox="0 0 16 16" xmlns="http://www.w3.org/2000/svg">
 <path d="m 1.6 0 c -0.886 0 -1.6 0.714 -1.6 1.6 l 0 12.8 c 0 0.886 0.714 1.6 1.6 1.6 l 12.8 0 c 0.886 0 1.6 -0.714 1.6 -1.6 l 0 -12.8 c 0 -0.886 -0.714 -1.6 -1.6 -1.6 l -12.8 0 z m 0.716 4.67 1.261 0 0 2.77 3.01 0 0 -2.77 1.261 0 0 6.93 -1.261 0 0 -3.07 -3.01 0 0 3.07 -1.261 0 0 -6.93 z m 7.07 1.7 1.209 0 0 2.739 c 0 0.56 0.081 0.96 0.241 1.2 0.167 0.24 0.453 0.361 0.859 0.361 0.147 0 0.299 -0.007 0.459 -0.02 0.167 -0.013 0.29 -0.03 0.37 -0.05 l 0 -4.23 1.211 0 0 5.07 c -0.233 0.06 -0.538 0.12 -0.911 0.18 -0.373 0.067 -0.783 0.1 -1.23 0.1 -0.42 0 -0.773 -0.06 -1.059 -0.18 -0.28 -0.12 -0.508 -0.287 -0.681 -0.5 c -0.167 -0.213 -0.286 -0.468 -0.359 -0.761 -0.073 -0.3 -0.109 -0.626 -0.109 -0.98 l 0 -2.93 z" style="fill:#ececec;fill-opacity:1"/>
</svg>
