<svg viewBox="0 0 16 16" xmlns="http://www.w3.org/2000/svg">
 <path d="m 1.6 0 c -0.886 0 -1.6 0.714 -1.6 1.6 l 0 12.8 c 0 0.886 0.714 1.6 1.6 1.6 l 12.8 0 c 0.886 0 1.6 -0.714 1.6 -1.6 l 0 -12.8 c 0 -0.886 -0.714 -1.6 -1.6 -1.6 l -12.8 0 z m 2.075 4.4 c 1.01 0 1.778 0.183 2.311 0.55 0.54 0.367 0.809 0.94 0.809 1.72 0 0.407 -0.074 0.757 -0.22 1.05 -0.14 0.287 -0.345 0.523 -0.619 0.709 -0.273 0.18 -0.607 0.313 -1 0.4 -0.393 0.087 -0.843 0.13 -1.35 0.13 l -0.631 0 0 2.441 -1.259 0 0 -6.83 c 0.293 -0.067 0.617 -0.11 0.97 -0.13 0.36 -0.027 0.689 -0.041 0.989 -0.041 z m 0.091 1.091 c -0.32 0 -0.584 0.01 -0.791 0.03 l 0 2.359 0.611 0 c 0.607 0 1.073 -0.083 1.4 -0.25 c 0.327 -0.173 0.489 -0.497 0.489 -0.97 0 -0.227 -0.043 -0.415 -0.13 -0.569 -0.087 -0.153 -0.206 -0.274 -0.359 -0.361 -0.153 -0.087 -0.337 -0.146 -0.55 -0.18 -0.207 -0.04 -0.43 -0.059 -0.67 -0.059 z m 5.684 0.55 c 0.4 0 0.738 0.05 1.01 0.15 0.273 0.1 0.49 0.239 0.65 0.419 0.167 0.18 0.283 0.401 0.35 0.661 0.073 0.253 0.109 0.532 0.109 0.839 l 0 3.17 c -0.187 0.04 -0.47 0.087 -0.85 0.141 -0.373 0.06 -0.797 0.089 -1.27 0.089 -0.313 0 -0.599 -0.029 -0.859 -0.089 -0.26 -0.06 -0.484 -0.157 -0.67 -0.291 -0.18 -0.133 -0.323 -0.307 -0.43 -0.52 -0.1 -0.213 -0.15 -0.476 -0.15 -0.789 0 -0.3 0.057 -0.554 0.17 -0.761 0.12 -0.207 0.28 -0.373 0.48 -0.5 0.2 -0.133 0.429 -0.226 0.689 -0.28 0.267 -0.06 0.545 -0.089 0.831 -0.089 0.133 0 0.272 0.01 0.419 0.03 c 0.147 0.013 0.304 0.04 0.47 0.08 l 0 -0.2 c 0 -0.14 -0.017 -0.273 -0.05 -0.4 -0.033 -0.127 -0.093 -0.236 -0.18 -0.33 -0.08 -0.1 -0.19 -0.176 -0.33 -0.23 -0.133 -0.053 -0.304 -0.081 -0.511 -0.081 -0.28 0 -0.535 0.021 -0.769 0.061 -0.233 0.04 -0.424 0.086 -0.57 0.139 l -0.15 -0.98 c 0.153 -0.053 0.377 -0.106 0.67 -0.159 0.293 -0.053 0.606 -0.08 0.939 -0.08 z m 0.241 3.02 c -0.133 0 -0.271 0.011 -0.411 0.031 -0.133 0.02 -0.255 0.056 -0.369 0.109 c -0.107 0.053 -0.194 0.13 -0.261 0.23 c -0.067 0.093 -0.1 0.214 -0.1 0.361 0 0.287 0.09 0.487 0.27 0.6 0.18 0.107 0.423 0.159 0.73 0.159 0.373 0 0.657 -0.019 0.85 -0.059 l 0 -1.341 c -0.067 -0.02 -0.162 -0.039 -0.289 -0.059 -0.127 -0.02 -0.267 -0.031 -0.42 -0.031 z m 3.906 0.795 c 0.37 0 0.642 0.089 0.816 0.266 0.177 0.173 0.266 0.411 0.266 0.714 0 0.12 -0.025 0.24 -0.075 0.356 -0.05 0.113 -0.115 0.224 -0.195 0.334 -0.077 0.107 -0.166 0.212 -0.266 0.316 -0.1 0.1 -0.2 0.197 -0.3 0.294 -0.053 0.05 -0.113 0.111 -0.18 0.181 -0.067 0.07 -0.131 0.139 -0.191 0.209 -0.06 0.07 -0.111 0.138 -0.155 0.205 -0.043 0.063 -0.067 0.118 -0.07 0.161 l 1.541 0 0 0.509 -2.205 0 c -0.003 -0.027 -0.005 -0.059 -0.005 -0.095 l 0 -0.089 c 0 -0.16 0.025 -0.307 0.075 -0.441 0.053 -0.137 0.121 -0.263 0.205 -0.38 0.083 -0.117 0.176 -0.226 0.28 -0.33 0.103 -0.103 0.206 -0.206 0.309 -0.306 0.08 -0.077 0.158 -0.152 0.231 -0.225 0.073 -0.073 0.136 -0.144 0.189 -0.214 0.057 -0.073 0.103 -0.147 0.136 -0.22 0.033 -0.077 0.05 -0.154 0.05 -0.234 0 -0.173 -0.05 -0.297 -0.15 -0.37 -0.1 -0.073 -0.222 -0.111 -0.366 -0.111 -0.093 0 -0.179 0.014 -0.259 0.041 -0.08 0.027 -0.152 0.059 -0.216 0.095 -0.06 0.037 -0.113 0.074 -0.159 0.114 -0.047 0.037 -0.083 0.067 -0.106 0.091 l -0.3 -0.425 c 0.14 -0.133 0.304 -0.24 0.491 -0.32 0.19 -0.083 0.393 -0.125 0.609 -0.125 z" style="fill:#ececec;fill-opacity:1"/>
</svg>
