<svg viewBox="0 0 16 16" xmlns="http://www.w3.org/2000/svg">
 <path d="m 1.6 0 c -0.886 0 -1.6 0.714 -1.6 1.6 l 0 12.8 c 0 0.886 0.714 1.6 1.6 1.6 l 12.8 0 c 0.886 0 1.6 -0.714 1.6 -1.6 l 0 -12.8 c 0 -0.886 -0.714 -1.6 -1.6 -1.6 l -12.8 0 z m 0.983 4.67 5.53 0 0 1.089 -2.13 0 0 5.841 -1.27 0 0 -5.841 -2.13 0 0 -1.089 z m 8.175 1.589 c 0.393 0 0.767 0.031 1.12 0.091 0.353 0.06 0.653 0.124 0.9 0.191 l 0 4.53 c 0 0.833 -0.214 1.443 -0.641 1.83 -0.42 0.387 -1.067 0.58 -1.941 0.58 -0.32 0 -0.632 -0.026 -0.939 -0.08 -0.3 -0.053 -0.574 -0.123 -0.82 -0.209 l 0.22 -1.031 c 0.207 0.087 0.44 0.158 0.7 0.211 0.267 0.053 0.553 0.08 0.859 0.08 0.487 0 0.834 -0.1 1.041 -0.3 0.207 -0.2 0.309 -0.497 0.309 -0.891 l 0 -0.2 c -0.12 0.06 -0.28 0.121 -0.48 0.181 -0.193 0.06 -0.417 0.089 -0.67 0.089 -0.333 0 -0.64 -0.053 -0.92 -0.159 c -0.273 -0.107 -0.509 -0.264 -0.709 -0.47 -0.193 -0.207 -0.346 -0.464 -0.459 -0.77 -0.107 -0.313 -0.161 -0.673 -0.161 -1.08 0 -0.38 0.057 -0.73 0.17 -1.05 0.12 -0.32 0.289 -0.594 0.509 -0.82 0.227 -0.227 0.5 -0.403 0.82 -0.53 c 0.32 -0.127 0.684 -0.191 1.091 -0.191 z m 0.009 1.01 c -0.44 0 -0.776 0.146 -1.01 0.439 -0.233 0.287 -0.35 0.667 -0.35 1.141 0 0.513 0.11 0.89 0.33 1.13 0.227 0.233 0.517 0.35 0.87 0.35 0.193 0 0.372 -0.026 0.539 -0.08 0.173 -0.053 0.314 -0.117 0.42 -0.191 l 0 -2.709 c -0.087 -0.02 -0.194 -0.037 -0.32 -0.05 -0.127 -0.02 -0.286 -0.03 -0.48 -0.03 z" style="fill:#ececec;fill-opacity:1"/>
</svg>
