<svg viewBox="0 0 16 16" xmlns="http://www.w3.org/2000/svg">
 <path d="m 1.6 0 c -0.886 0 -1.6 0.714 -1.6 1.6 l 0 12.8 c 0 0.886 0.714 1.6 1.6 1.6 l 12.8 0 c 0.886 0 1.6 -0.714 1.6 -1.6 l 0 -12.8 c 0 -0.886 -0.714 -1.6 -1.6 -1.6 l -12.8 0 z m -0.647 4.47 1.03 0 c 0.267 0.28 0.554 0.613 0.861 1 0.307 0.38 0.612 0.776 0.919 1.189 0.313 0.413 0.613 0.83 0.9 1.25 0.293 0.413 0.555 0.801 0.781 1.161 l 0 -4.6 1.25 0 0 6.93 -1.07 0 c -0.227 -0.38 -0.481 -0.787 -0.761 -1.22 -0.28 -0.44 -0.569 -0.88 -0.869 -1.32 -0.3 -0.447 -0.607 -0.876 -0.92 -1.289 -0.307 -0.42 -0.6 -0.796 -0.88 -1.13 l 0 4.959 -1.241 0 0 -6.93 z m 9 1.57 c 0.367 0 0.704 0.067 1.01 0.2 0.313 0.127 0.58 0.31 0.8 0.55 0.22 0.24 0.389 0.529 0.509 0.869 0.127 0.333 0.191 0.707 0.191 1.12 0 0.413 -0.06 0.79 -0.18 1.13 -0.12 0.34 -0.291 0.63 -0.511 0.87 -0.22 0.24 -0.487 0.428 -0.8 0.561 -0.307 0.133 -0.647 0.2 -1.02 0.2 -0.373 0 -0.712 -0.067 -1.019 -0.2 -0.307 -0.133 -0.571 -0.321 -0.791 -0.561 -0.22 -0.24 -0.394 -0.53 -0.52 -0.87 -0.12 -0.34 -0.18 -0.716 -0.18 -1.13 0 -0.413 0.06 -0.787 0.18 -1.12 0.127 -0.34 0.3 -0.629 0.52 -0.869 0.227 -0.24 0.493 -0.423 0.8 -0.55 0.307 -0.133 0.643 -0.2 1.01 -0.2 z m 0 1.05 c -0.4 0 -0.712 0.153 -0.939 0.459 -0.22 0.3 -0.33 0.71 -0.33 1.23 0 0.527 0.11 0.943 0.33 1.25 0.227 0.307 0.539 0.461 0.939 0.461 0.4 0 0.711 -0.154 0.931 -0.461 c 0.227 -0.307 0.339 -0.723 0.339 -1.25 0 -0.52 -0.112 -0.93 -0.339 -1.23 -0.22 -0.307 -0.531 -0.459 -0.931 -0.459 z m 4.127 2.844 0.575 0 0 2.141 0.391 0 0 0.495 -0.391 0 0 0.83 -0.589 0 0 -0.83 -1.52 0 0 -0.43 c 0.067 -0.147 0.156 -0.316 0.266 -0.506 0.113 -0.19 0.238 -0.384 0.375 -0.584 0.137 -0.2 0.281 -0.397 0.434 -0.591 0.153 -0.193 0.306 -0.368 0.459 -0.525 z m -0.014 0.745 c -0.08 0.097 -0.163 0.201 -0.25 0.311 -0.083 0.11 -0.165 0.224 -0.245 0.344 -0.08 0.12 -0.156 0.244 -0.23 0.37 -0.073 0.123 -0.14 0.247 -0.2 0.37 l 0.925 0 0 -1.395 z" style="fill:#ececec;fill-opacity:1"/>
</svg>
