<svg viewBox="0 0 16 16" xmlns="http://www.w3.org/2000/svg">
 <path d="m 1.6 0 c -0.886 0 -1.6 0.714 -1.6 1.6 l 0 12.8 c 0 0.886 0.714 1.6 1.6 1.6 l 12.8 0 c 0.886 0 1.6 -0.714 1.6 -1.6 l 0 -12.8 c 0 -0.886 -0.714 -1.6 -1.6 -1.6 l -12.8 0 z m 6.939 3.641 0 2.589 c 0.133 -0.047 0.288 -0.087 0.461 -0.12 c 0.18 -0.033 0.356 -0.05 0.53 -0.05 0.42 0 0.767 0.061 1.041 0.181 0.28 0.113 0.502 0.276 0.669 0.489 0.167 0.207 0.283 0.457 0.35 0.75 c 0.073 0.293 0.111 0.62 0.111 0.98 l 0 2.941 -1.211 0 0 -2.75 c 0 -0.28 -0.019 -0.516 -0.059 -0.709 -0.033 -0.2 -0.093 -0.361 -0.18 -0.481 c -0.08 -0.127 -0.19 -0.215 -0.33 -0.269 -0.14 -0.06 -0.314 -0.091 -0.52 -0.091 -0.16 0 -0.324 0.017 -0.491 0.05 -0.167 0.033 -0.29 0.064 -0.37 0.091 l 0 4.159 -1.209 0 0 -7.559 1.209 -0.2 z m -7.631 0.83 5.531 0 0 1.089 -2.131 0 0 5.841 -1.269 0 0 -5.841 -2.131 0 0 -1.089 z m 13.02 5.464 0.425 0 0 3.466 -0.605 0 0 -2.655 c -0.09 0.07 -0.204 0.138 -0.341 0.205 -0.137 0.067 -0.267 0.122 -0.394 0.166 l -0.186 -0.461 c 0.193 -0.077 0.386 -0.175 0.58 -0.295 0.197 -0.12 0.37 -0.262 0.52 -0.425 z" style="fill:#ececec;fill-opacity:1"/>
</svg>
