<svg xmlns="http://www.w3.org/2000/svg" viewBox="0 0 16 16">
 <g transform="translate(0,-1037.0442)">"&gt;
            <path d="m 7 1049.04 -1.909 1.273 c -1.09 0.727 -1.181 0.727 -0.09 0.727 l 6 0 c 1.091 0 1 0 -0.092 -0.727 l -1.909 -1.273 0 -1.5 -2 0 z" style="fill:#ececec;fill-opacity:1;stroke:none"/>  <path d="m 3 1039.04 c -0.806 0 -1 0.195 -1 1 l 0 7 c 0 0.806 0.194 1 1 1 l 10 0 c 0.806 0 1 -0.195 1 -1 l 0 -7 c 0 -0.806 -0.194 -1 -1 -1 z m 0 1 10 0 0 7 -10 0 z" style="fill:#ececec;fill-opacity:1;stroke:none"/>  <g transform="translate(-0.04350125,0)" style="fill:#ececec;fill-opacity:1;stroke:none">   <path d="m 6.812 1043.59 q 0.469 0.121 0.712 0.422 0.245 0.298 0.245 0.761 0 0.69 -0.528 1.05 -0.528 0.357 -1.541 0.357 -0.357 0 -0.718 -0.059 -0.357 -0.056 -0.708 -0.171 l 0 -0.923 q 0.336 0.168 0.665 0.255 0.332 0.084 0.653 0.084 0.475 0 0.727 -0.165 0.255 -0.165 0.255 -0.472 0 -0.317 -0.261 -0.478 -0.258 -0.165 -0.764 -0.165 l -0.479 0 0 -0.771 0.503 0 q 0.451 0 0.671 -0.14 0.221 -0.143 0.221 -0.432 0 -0.267 -0.214 -0.413 -0.214 -0.146 -0.606 -0.146 -0.289 0 -0.584 0.065 -0.295 0.065 -0.587 0.193 l 0 -0.876 q 0.354 -0.099 0.702 -0.149 0.348 -0.05 0.684 -0.05 0.904 0 1.352 0.298 0.451 0.295 0.451 0.892 0 0.407 -0.214 0.668 -0.214 0.258 -0.634 0.364 z"/>   <path d="m 10.03 1043.8 q -0.314 0 -0.472 0.205 -0.155 0.202 -0.155 0.609 0 0.407 0.155 0.612 0.158 0.202 0.472 0.202 0.317 0 0.472 -0.202 0.158 -0.205 0.158 -0.612 0 -0.407 -0.158 -0.609 -0.155 -0.205 -0.472 -0.205 z m 1.479 -2.228 0 0.858 q -0.295 -0.14 -0.556 -0.205 -0.261 -0.068 -0.51 -0.068 -0.534 0 -0.833 0.298 -0.298 0.295 -0.348 0.879 0.205 -0.152 0.444 -0.227 0.239 -0.078 0.522 -0.078 0.712 0 1.147 0.416 0.438 0.416 0.438 1.091 0 0.746 -0.488 1.196 -0.488 0.447 -1.308 0.447 -0.904 0 -1.401 -0.609 -0.494 -0.612 -0.494 -1.734 0 -1.15 0.578 -1.805 0.581 -0.659 1.591 -0.659 0.32 0 0.621 0.05 0.301 0.05 0.597 0.149 z"/></g></g>
</svg>
