<svg viewBox="0 0 16 16" xmlns="http://www.w3.org/2000/svg">
 <path style="fill:#ececec;fill-opacity:1" d="m 1.6 0 c -0.886 0 -1.6 0.714 -1.6 1.6 l 0 12.8 c 0 0.886 0.714 1.6 1.6 1.6 l 12.8 0 c 0.886 0 1.6 -0.714 1.6 -1.6 l 0 -12.8 c 0 -0.886 -0.714 -1.6 -1.6 -1.6 l -12.8 0 z m 2.059 4.47 1.259 0 0 6.93 -1.259 0 0 -6.93 z m 4.55 1.57 c 0.307 0 0.6 0.029 0.88 0.089 0.28 0.053 0.49 0.108 0.63 0.161 l -0.22 0.98 c -0.133 -0.06 -0.303 -0.114 -0.509 -0.161 -0.207 -0.053 -0.447 -0.08 -0.72 -0.08 c -0.247 0 -0.447 0.043 -0.6 0.13 -0.153 0.08 -0.23 0.208 -0.23 0.381 0 0.087 0.012 0.163 0.039 0.23 0.033 0.067 0.088 0.129 0.161 0.189 0.073 0.053 0.169 0.11 0.289 0.17 c 0.12 0.053 0.267 0.11 0.441 0.17 c 0.287 0.107 0.53 0.214 0.73 0.32 0.2 0.1 0.364 0.217 0.491 0.35 0.133 0.127 0.229 0.272 0.289 0.439 0.06 0.167 0.091 0.367 0.091 0.6 0 0.5 -0.186 0.881 -0.559 1.141 -0.367 0.253 -0.895 0.38 -1.581 0.38 -0.46 0 -0.829 -0.04 -1.109 -0.12 -0.28 -0.073 -0.477 -0.133 -0.591 -0.18 l 0.211 -1.01 c 0.18 0.073 0.392 0.143 0.639 0.209 0.253 0.067 0.541 0.1 0.861 0.1 0.32 0 0.553 -0.036 0.7 -0.109 0.147 -0.08 0.22 -0.213 0.22 -0.4 0 -0.173 -0.081 -0.316 -0.241 -0.43 c -0.153 -0.113 -0.41 -0.237 -0.77 -0.37 c -0.22 -0.08 -0.423 -0.163 -0.609 -0.25 c -0.18 -0.093 -0.337 -0.2 -0.47 -0.32 -0.133 -0.12 -0.24 -0.263 -0.32 -0.43 -0.073 -0.173 -0.109 -0.383 -0.109 -0.63 c 0 -0.48 0.176 -0.858 0.53 -1.131 0.353 -0.28 0.834 -0.419 1.441 -0.419 z m 3.82 3.894 0.575 0 0 2.141 0.389 0 0 0.495 -0.389 0 0 0.83 -0.591 0 0 -0.83 -1.52 0 0 -0.43 c 0.067 -0.147 0.156 -0.316 0.266 -0.506 0.113 -0.19 0.238 -0.384 0.375 -0.584 0.137 -0.2 0.281 -0.397 0.434 -0.591 0.153 -0.193 0.308 -0.368 0.461 -0.525 z m -0.016 0.745 c -0.08 0.097 -0.163 0.201 -0.25 0.311 -0.083 0.11 -0.165 0.224 -0.245 0.344 -0.08 0.12 -0.156 0.244 -0.23 0.37 -0.073 0.123 -0.14 0.247 -0.2 0.37 l 0.925 0 0 -1.395 z"/>
</svg>
