<svg xmlns="http://www.w3.org/2000/svg" viewBox="0 0 16 16">
 <path style="fill:#ececec;fill-opacity:1" d="m 1.6 0 c -0.886 0 -1.6 0.714 -1.6 1.6 l 0 12.8 c 0 0.886 0.714 1.6 1.6 1.6 l 12.8 0 c 0.886 0 1.6 -0.714 1.6 -1.6 l 0 -12.8 c 0 -0.886 -0.714 -1.6 -1.6 -1.6 l -12.8 0 z m 1.595 4.4 c 1 0 1.764 0.183 2.291 0.55 0.533 0.367 0.8 0.926 0.8 1.68 0 0.94 -0.464 1.578 -1.391 1.911 c 0.127 0.153 0.271 0.339 0.431 0.559 0.16 0.22 0.322 0.46 0.489 0.72 0.167 0.253 0.326 0.516 0.48 0.789 0.153 0.267 0.291 0.531 0.411 0.791 l -1.411 0 c -0.127 -0.24 -0.263 -0.48 -0.409 -0.72 -0.147 -0.247 -0.297 -0.483 -0.45 -0.709 -0.147 -0.233 -0.294 -0.45 -0.441 -0.65 -0.147 -0.207 -0.283 -0.39 -0.409 -0.55 -0.093 0.007 -0.174 0.009 -0.241 0.009 l -0.189 0 -0.611 0 0 2.62 -1.259 0 0 -6.83 c 0.307 -0.067 0.633 -0.11 0.98 -0.13 0.347 -0.027 0.656 -0.041 0.93 -0.041 z m 0.091 1.091 c -0.267 0 -0.514 0.01 -0.741 0.03 l 0 2.239 0.55 0 c 0.307 0 0.578 -0.017 0.811 -0.05 0.233 -0.033 0.426 -0.093 0.58 -0.18 0.16 -0.087 0.279 -0.203 0.359 -0.35 0.08 -0.147 0.12 -0.333 0.12 -0.559 0 -0.213 -0.04 -0.394 -0.12 -0.541 -0.08 -0.147 -0.197 -0.263 -0.35 -0.35 c -0.147 -0.087 -0.323 -0.146 -0.53 -0.18 -0.207 -0.04 -0.433 -0.059 -0.68 -0.059 z m 4.286 0.68 1.211 0 0 2.739 c 0 0.56 0.079 0.96 0.239 1.2 0.167 0.24 0.454 0.361 0.861 0.361 0.147 0 0.299 -0.007 0.459 -0.02 0.167 -0.013 0.29 -0.03 0.37 -0.05 l 0 -4.23 1.209 0 0 5.07 c -0.233 0.06 -0.536 0.12 -0.909 0.18 -0.373 0.067 -0.783 0.1 -1.23 0.1 -0.42 0 -0.774 -0.06 -1.061 -0.18 -0.28 -0.12 -0.506 -0.287 -0.68 -0.5 c -0.167 -0.213 -0.286 -0.468 -0.359 -0.761 -0.073 -0.3 -0.111 -0.626 -0.111 -0.98 l 0 -2.93 z m 6.68 3.764 0.425 0 0 3.466 -0.605 0 0 -2.655 c -0.09 0.07 -0.202 0.138 -0.339 0.205 -0.137 0.067 -0.269 0.122 -0.395 0.166 l -0.186 -0.461 c 0.193 -0.077 0.388 -0.175 0.581 -0.295 0.197 -0.12 0.369 -0.262 0.519 -0.425 z"/>
</svg>
