<svg viewBox="0 0 16 16" xmlns="http://www.w3.org/2000/svg">
 <path d="m 1.6 0 c -0.886 0 -1.6 0.714 -1.6 1.6 l 0 12.8 c 0 0.886 0.714 1.6 1.6 1.6 l 12.8 0 c 0.886 0 1.6 -0.714 1.6 -1.6 l 0 -12.8 c 0 -0.886 -0.714 -1.6 -1.6 -1.6 l -12.8 0 z m 0.594 4.47 4.45 0 0 1.07 -3.189 0 0 1.709 2.839 0 0 1.05 -2.839 0 0 2.03 3.43 0 0 1.07 -4.691 0 0 -6.93 z m 7.48 1.57 c 0.307 0 0.6 0.029 0.88 0.089 0.28 0.053 0.491 0.108 0.631 0.161 l -0.22 0.98 c -0.133 -0.06 -0.304 -0.114 -0.511 -0.161 -0.207 -0.053 -0.445 -0.08 -0.719 -0.08 -0.247 0 -0.447 0.043 -0.6 0.13 -0.153 0.08 -0.231 0.208 -0.231 0.381 0 0.087 0.014 0.163 0.041 0.23 0.033 0.067 0.086 0.129 0.159 0.189 0.073 0.053 0.171 0.11 0.291 0.17 c 0.12 0.053 0.267 0.11 0.441 0.17 0.287 0.107 0.53 0.214 0.73 0.32 c 0.2 0.1 0.362 0.217 0.489 0.35 0.133 0.127 0.231 0.272 0.291 0.439 0.06 0.167 0.091 0.367 0.091 0.6 0 0.5 -0.188 0.881 -0.561 1.141 -0.367 0.253 -0.893 0.38 -1.58 0.38 -0.46 0 -0.829 -0.04 -1.109 -0.12 -0.28 -0.073 -0.477 -0.133 -0.591 -0.18 l 0.209 -1.01 c 0.18 0.073 0.394 0.143 0.641 0.209 0.253 0.067 0.539 0.1 0.859 0.1 0.32 0 0.553 -0.036 0.7 -0.109 0.147 -0.08 0.22 -0.213 0.22 -0.4 0 -0.173 -0.079 -0.316 -0.239 -0.43 c -0.153 -0.113 -0.41 -0.237 -0.77 -0.37 c -0.22 -0.08 -0.424 -0.163 -0.611 -0.25 c -0.18 -0.093 -0.335 -0.2 -0.469 -0.32 -0.133 -0.12 -0.24 -0.263 -0.32 -0.43 -0.073 -0.173 -0.111 -0.383 -0.111 -0.63 c 0 -0.48 0.178 -0.858 0.531 -1.131 0.353 -0.28 0.832 -0.419 1.439 -0.419 z m 3.541 3.814 c 0.197 0 0.363 0.029 0.5 0.086 0.14 0.057 0.254 0.129 0.341 0.219 0.09 0.09 0.154 0.19 0.194 0.3 0.04 0.11 0.061 0.217 0.061 0.32 0 0.183 -0.05 0.347 -0.15 0.491 -0.1 0.14 -0.215 0.251 -0.345 0.334 0.197 0.107 0.341 0.23 0.434 0.37 0.097 0.14 0.145 0.305 0.145 0.495 0 0.143 -0.025 0.277 -0.075 0.4 -0.05 0.123 -0.125 0.23 -0.225 0.32 -0.1 0.09 -0.225 0.159 -0.375 0.209 -0.147 0.05 -0.316 0.075 -0.509 0.075 -0.227 0 -0.416 -0.032 -0.566 -0.095 -0.15 -0.063 -0.269 -0.142 -0.359 -0.239 -0.09 -0.097 -0.155 -0.201 -0.195 -0.311 -0.037 -0.113 -0.055 -0.22 -0.055 -0.32 0 -0.1 0.012 -0.192 0.039 -0.275 0.03 -0.087 0.07 -0.164 0.12 -0.234 0.05 -0.073 0.107 -0.14 0.17 -0.2 0.063 -0.06 0.13 -0.113 0.2 -0.159 -0.153 -0.107 -0.269 -0.222 -0.345 -0.345 -0.073 -0.127 -0.109 -0.281 -0.109 -0.461 0 -0.13 0.025 -0.252 0.075 -0.369 0.053 -0.12 0.128 -0.226 0.225 -0.316 0.097 -0.09 0.213 -0.162 0.35 -0.216 0.137 -0.053 0.288 -0.08 0.455 -0.08 z m 0 0.495 c -0.09 0 -0.168 0.015 -0.234 0.045 -0.063 0.027 -0.116 0.063 -0.156 0.109 -0.04 0.043 -0.069 0.092 -0.089 0.145 -0.02 0.05 -0.03 0.1 -0.03 0.15 0 0.127 0.046 0.246 0.139 0.359 0.097 0.113 0.256 0.204 0.48 0.27 0.123 -0.077 0.221 -0.163 0.291 -0.259 0.07 -0.1 0.105 -0.226 0.105 -0.38 0 -0.043 -0.01 -0.091 -0.03 -0.141 -0.017 -0.053 -0.047 -0.102 -0.091 -0.145 -0.04 -0.043 -0.091 -0.079 -0.155 -0.109 -0.063 -0.03 -0.14 -0.045 -0.23 -0.045 z m -0.184 1.484 c -0.12 0.077 -0.217 0.171 -0.291 0.281 c -0.073 0.107 -0.109 0.234 -0.109 0.384 c 0 0.05 0.01 0.103 0.03 0.159 0.02 0.057 0.053 0.11 0.1 0.156 0.047 0.047 0.106 0.085 0.18 0.119 0.073 0.03 0.165 0.045 0.275 0.045 0.1 0 0.186 -0.012 0.259 -0.039 0.073 -0.027 0.135 -0.063 0.181 -0.106 0.047 -0.047 0.081 -0.098 0.105 -0.155 0.023 -0.06 0.034 -0.12 0.034 -0.18 0 -0.093 -0.018 -0.175 -0.055 -0.245 -0.037 -0.07 -0.089 -0.13 -0.159 -0.18 -0.067 -0.053 -0.147 -0.098 -0.241 -0.134 -0.093 -0.04 -0.196 -0.076 -0.309 -0.106 z" style="fill:#ececec;fill-opacity:1"/>
</svg>
