<svg viewBox="0 0 16 16" xmlns="http://www.w3.org/2000/svg">
 <path style="fill:#ececec;fill-opacity:1" d="m 1.6 0 c -0.886 0 -1.6 0.714 -1.6 1.6 l 0 12.8 c 0 0.886 0.714 1.6 1.6 1.6 l 12.8 0 c 0.886 0 1.6 -0.714 1.6 -1.6 l 0 -12.8 c 0 -0.886 -0.714 -1.6 -1.6 -1.6 l -12.8 0 z m 1.656 4.4 c 0.42 0 0.81 0.033 1.17 0.1 0.36 0.06 0.67 0.163 0.93 0.309 0.267 0.147 0.474 0.341 0.62 0.581 0.147 0.24 0.22 0.536 0.22 0.889 0 0.327 -0.081 0.607 -0.241 0.841 -0.153 0.233 -0.37 0.419 -0.65 0.559 0.42 0.14 0.73 0.347 0.93 0.62 0.2 0.273 0.3 0.621 0.3 1.041 c 0 0.713 -0.26 1.249 -0.78 1.609 c -0.52 0.353 -1.317 0.53 -2.391 0.53 -0.367 0 -0.736 -0.012 -1.109 -0.039 -0.373 -0.02 -0.7 -0.067 -0.98 -0.141 l 0 -6.73 c 0.147 -0.027 0.304 -0.05 0.47 -0.07 0.167 -0.027 0.336 -0.046 0.509 -0.059 0.173 -0.013 0.343 -0.025 0.509 -0.031 0.173 -0.007 0.337 -0.009 0.491 -0.009 z m 0.159 1.03 c -0.193 0 -0.365 0.004 -0.519 0.011 -0.147 0.007 -0.275 0.016 -0.381 0.03 l 0 1.82 0.891 0 c 0.48 0 0.856 -0.067 1.13 -0.2 0.273 -0.14 0.411 -0.387 0.411 -0.741 0 -0.333 -0.145 -0.569 -0.431 -0.709 -0.28 -0.14 -0.647 -0.211 -1.1 -0.211 z m 6.503 0.611 c 0.72 0 1.28 0.222 1.68 0.669 0.407 0.447 0.611 1.113 0.611 2 0 0.067 -0.004 0.145 -0.011 0.231 0 0.08 -0.003 0.152 -0.009 0.219 l -3.45 0 c 0.033 0.42 0.179 0.748 0.439 0.981 0.267 0.227 0.65 0.339 1.15 0.339 0.293 0 0.56 -0.026 0.8 -0.08 0.247 -0.053 0.441 -0.11 0.581 -0.17 l 0.159 0.991 c -0.067 0.033 -0.16 0.069 -0.28 0.109 -0.113 0.033 -0.247 0.064 -0.4 0.091 -0.147 0.033 -0.306 0.06 -0.48 0.08 -0.173 0.02 -0.351 0.03 -0.531 0.03 -0.46 0 -0.86 -0.067 -1.2 -0.2 -0.34 -0.14 -0.619 -0.33 -0.839 -0.57 -0.22 -0.247 -0.384 -0.533 -0.491 -0.859 c -0.107 -0.333 -0.159 -0.697 -0.159 -1.091 c 0 -0.46 0.067 -0.863 0.2 -1.209 0.14 -0.347 0.323 -0.633 0.55 -0.859 0.227 -0.233 0.486 -0.407 0.78 -0.52 0.293 -0.12 0.593 -0.18 0.9 -0.18 z m 0.009 1.01 c -0.187 0 -0.349 0.036 -0.489 0.109 -0.14 0.067 -0.261 0.157 -0.361 0.27 -0.093 0.113 -0.165 0.244 -0.219 0.391 -0.053 0.147 -0.091 0.297 -0.111 0.45 l 2.25 0 c 0 -0.167 -0.024 -0.324 -0.07 -0.47 -0.047 -0.153 -0.116 -0.284 -0.209 -0.391 -0.087 -0.113 -0.196 -0.199 -0.33 -0.259 -0.127 -0.067 -0.281 -0.1 -0.461 -0.1 z m -7.412 1.23 0 2.111 c 0.14 0.013 0.29 0.023 0.45 0.03 0.16 0.007 0.307 0.009 0.441 0.009 0.26 0 0.5 -0.017 0.72 -0.05 0.227 -0.033 0.42 -0.09 0.58 -0.17 0.167 -0.087 0.297 -0.199 0.391 -0.339 0.1 -0.14 0.15 -0.321 0.15 -0.541 0 -0.393 -0.145 -0.667 -0.431 -0.82 c -0.287 -0.153 -0.682 -0.23 -1.189 -0.23 l -1.111 0 z m 12.556 1.636 0.034 0.5 c -0.18 0.003 -0.348 0.023 -0.505 0.059 -0.157 0.033 -0.297 0.086 -0.42 0.159 -0.123 0.073 -0.229 0.169 -0.319 0.286 -0.087 0.117 -0.153 0.26 -0.2 0.43 0.163 -0.077 0.341 -0.116 0.534 -0.116 0.207 0 0.382 0.031 0.525 0.091 0.147 0.057 0.265 0.134 0.355 0.234 0.09 0.1 0.155 0.217 0.195 0.35 0.043 0.13 0.066 0.268 0.066 0.411 0 0.13 -0.024 0.263 -0.07 0.4 -0.043 0.137 -0.114 0.262 -0.211 0.375 -0.093 0.11 -0.211 0.202 -0.355 0.275 -0.143 0.07 -0.313 0.105 -0.509 0.105 -0.397 0 -0.701 -0.131 -0.911 -0.391 c -0.207 -0.263 -0.309 -0.624 -0.309 -1.084 c 0 -0.333 0.049 -0.628 0.145 -0.884 0.1 -0.26 0.24 -0.48 0.42 -0.656 0.183 -0.177 0.403 -0.31 0.659 -0.4 0.26 -0.093 0.552 -0.14 0.875 -0.144 z m -0.95 1.8 c -0.097 0 -0.19 0.008 -0.28 0.025 -0.09 0.017 -0.172 0.042 -0.245 0.075 -0.003 0.027 -0.006 0.056 -0.009 0.089 l 0 0.091 c 0 0.133 0.008 0.26 0.025 0.38 0.02 0.117 0.05 0.219 0.094 0.309 0.047 0.087 0.109 0.158 0.186 0.211 0.08 0.05 0.179 0.075 0.295 0.075 0.097 0 0.177 -0.021 0.244 -0.061 0.07 -0.04 0.127 -0.091 0.17 -0.155 0.043 -0.063 0.075 -0.131 0.095 -0.205 0.02 -0.077 0.03 -0.15 0.03 -0.22 0 -0.2 -0.049 -0.351 -0.145 -0.455 -0.097 -0.107 -0.249 -0.159 -0.459 -0.159 z"/>
</svg>
