<svg xmlns="http://www.w3.org/2000/svg" viewBox="0 0 16 16">
 <path style="fill:#ececec;fill-opacity:1" d="m 1.6 0 c -0.886 0 -1.6 0.714 -1.6 1.6 l 0 12.8 c 0 0.886 0.714 1.6 1.6 1.6 l 12.8 0 c 0.886 0 1.6 -0.714 1.6 -1.6 l 0 -12.8 c 0 -0.886 -0.714 -1.6 -1.6 -1.6 l -12.8 0 z m 8.57 3.641 0 5.989 c 0 0.147 0.01 0.27 0.03 0.37 0.027 0.1 0.07 0.186 0.13 0.259 0.06 0.067 0.141 0.121 0.241 0.161 0.107 0.033 0.24 0.06 0.4 0.08 l -0.17 1 c -0.36 -0.007 -0.66 -0.047 -0.9 -0.12 -0.233 -0.073 -0.419 -0.176 -0.559 -0.309 -0.14 -0.14 -0.24 -0.311 -0.3 -0.511 -0.053 -0.207 -0.081 -0.44 -0.081 -0.7 l 0 -6.02 1.211 -0.2 z m -5.402 0.759 c 1.01 0 1.778 0.183 2.311 0.55 0.54 0.367 0.809 0.94 0.809 1.72 0 0.407 -0.074 0.757 -0.22 1.05 c -0.14 0.287 -0.345 0.523 -0.619 0.709 c -0.273 0.18 -0.607 0.313 -1 0.4 -0.393 0.087 -0.843 0.13 -1.35 0.13 l -0.631 0 0 2.441 -1.259 0 0 -6.83 c 0.293 -0.067 0.617 -0.11 0.97 -0.13 0.36 -0.027 0.689 -0.041 0.989 -0.041 z m 0.091 1.091 c -0.32 0 -0.584 0.01 -0.791 0.03 l 0 2.359 0.611 0 c 0.607 0 1.073 -0.083 1.4 -0.25 c 0.327 -0.173 0.489 -0.497 0.489 -0.97 0 -0.227 -0.043 -0.415 -0.13 -0.569 -0.087 -0.153 -0.206 -0.274 -0.359 -0.361 -0.153 -0.087 -0.337 -0.146 -0.55 -0.18 -0.207 -0.04 -0.43 -0.059 -0.67 -0.059 z m 7.739 4.364 c 0.197 0 0.363 0.029 0.5 0.086 0.14 0.057 0.254 0.129 0.341 0.219 0.09 0.09 0.155 0.19 0.195 0.3 0.04 0.11 0.059 0.217 0.059 0.32 0 0.183 -0.05 0.347 -0.15 0.491 -0.1 0.14 -0.215 0.251 -0.345 0.334 0.197 0.107 0.343 0.23 0.436 0.37 0.097 0.14 0.144 0.305 0.144 0.495 0 0.143 -0.025 0.277 -0.075 0.4 -0.05 0.123 -0.125 0.23 -0.225 0.32 -0.1 0.09 -0.225 0.159 -0.375 0.209 -0.147 0.05 -0.316 0.075 -0.509 0.075 -0.227 0 -0.416 -0.032 -0.566 -0.095 -0.15 -0.063 -0.269 -0.142 -0.359 -0.239 -0.09 -0.097 -0.155 -0.201 -0.195 -0.311 -0.037 -0.113 -0.055 -0.22 -0.055 -0.32 0 -0.1 0.014 -0.192 0.041 -0.275 0.03 -0.087 0.069 -0.164 0.119 -0.234 0.05 -0.073 0.107 -0.14 0.17 -0.2 0.063 -0.06 0.13 -0.113 0.2 -0.159 -0.153 -0.107 -0.269 -0.222 -0.345 -0.345 -0.073 -0.127 -0.109 -0.281 -0.109 -0.461 0 -0.13 0.025 -0.252 0.075 -0.369 0.053 -0.12 0.128 -0.226 0.225 -0.316 0.097 -0.09 0.213 -0.162 0.35 -0.216 0.137 -0.053 0.288 -0.08 0.455 -0.08 z m 0 0.495 c -0.09 0 -0.168 0.015 -0.234 0.045 -0.063 0.027 -0.115 0.063 -0.155 0.109 -0.04 0.043 -0.071 0.092 -0.091 0.145 -0.02 0.05 -0.03 0.1 -0.03 0.15 0 0.127 0.046 0.246 0.139 0.359 0.097 0.113 0.258 0.204 0.481 0.27 0.123 -0.077 0.219 -0.163 0.289 -0.259 0.07 -0.1 0.105 -0.226 0.105 -0.38 0 -0.043 -0.01 -0.091 -0.03 -0.141 -0.017 -0.053 -0.046 -0.102 -0.089 -0.145 -0.04 -0.043 -0.093 -0.079 -0.156 -0.109 -0.063 -0.03 -0.14 -0.045 -0.23 -0.045 z m -0.184 1.484 c -0.12 0.077 -0.217 0.171 -0.291 0.281 c -0.073 0.107 -0.109 0.234 -0.109 0.384 c 0 0.05 0.01 0.103 0.03 0.159 0.02 0.057 0.053 0.11 0.1 0.156 0.047 0.047 0.106 0.085 0.18 0.119 0.073 0.03 0.165 0.045 0.275 0.045 0.1 0 0.188 -0.012 0.261 -0.039 0.073 -0.027 0.133 -0.063 0.18 -0.106 0.047 -0.047 0.081 -0.098 0.105 -0.155 0.023 -0.06 0.034 -0.12 0.034 -0.18 0 -0.093 -0.018 -0.175 -0.055 -0.245 -0.037 -0.07 -0.089 -0.13 -0.159 -0.18 -0.067 -0.053 -0.147 -0.098 -0.241 -0.134 -0.093 -0.04 -0.196 -0.076 -0.309 -0.106 z"/>
</svg>
