<svg viewBox="0 0 16 16" xmlns="http://www.w3.org/2000/svg">
 <path d="m 1.6 0 c -0.886 0 -1.6 0.714 -1.6 1.6 l 0 12.8 c 0 0.886 0.714 1.6 1.6 1.6 l 12.8 0 c 0.886 0 1.6 -0.714 1.6 -1.6 l 0 -12.8 c 0 -0.886 -0.714 -1.6 -1.6 -1.6 l -12.8 0 z m 1.944 4.309 c 0.287 0 0.546 0.024 0.78 0.07 0.233 0.04 0.436 0.087 0.609 0.141 0.173 0.053 0.316 0.11 0.43 0.17 0.113 0.06 0.194 0.103 0.241 0.13 l -0.37 1.03 c -0.16 -0.1 -0.389 -0.193 -0.689 -0.28 -0.293 -0.093 -0.614 -0.141 -0.961 -0.141 c -0.3 0 -0.579 0.054 -0.839 0.161 c -0.26 0.1 -0.488 0.253 -0.681 0.459 -0.187 0.207 -0.332 0.466 -0.439 0.78 -0.107 0.313 -0.161 0.677 -0.161 1.091 c 0 0.367 0.04 0.703 0.12 1.01 0.087 0.307 0.217 0.573 0.391 0.8 0.173 0.22 0.393 0.394 0.659 0.52 0.267 0.12 0.588 0.18 0.961 0.18 0.447 0 0.809 -0.043 1.089 -0.13 0.28 -0.093 0.497 -0.179 0.65 -0.259 l 0.341 1.03 c -0.08 0.053 -0.19 0.106 -0.33 0.159 -0.133 0.053 -0.295 0.108 -0.481 0.161 -0.187 0.047 -0.396 0.083 -0.63 0.109 -0.233 0.033 -0.483 0.05 -0.75 0.05 -0.52 0 -0.987 -0.081 -1.4 -0.241 -0.413 -0.16 -0.763 -0.393 -1.05 -0.7 c -0.287 -0.313 -0.506 -0.692 -0.659 -1.139 -0.153 -0.447 -0.23 -0.961 -0.23 -1.541 c 0 -0.58 0.086 -1.092 0.259 -1.539 0.18 -0.447 0.423 -0.825 0.73 -1.131 c 0.307 -0.313 0.666 -0.549 1.08 -0.709 0.413 -0.16 0.858 -0.241 1.331 -0.241 z m 4.656 1.75 c 0.36 0 0.653 0.047 0.88 0.141 0.233 0.093 0.426 0.217 0.58 0.37 0.073 -0.053 0.166 -0.11 0.28 -0.17 c 0.113 -0.06 0.241 -0.113 0.381 -0.159 0.14 -0.053 0.286 -0.098 0.439 -0.131 0.16 -0.033 0.32 -0.05 0.48 -0.05 0.407 0 0.74 0.061 1 0.181 0.267 0.113 0.474 0.276 0.62 0.489 0.153 0.207 0.258 0.461 0.311 0.761 0.06 0.293 0.089 0.615 0.089 0.969 l 0 2.941 -1.209 0 0 -2.75 c 0 -0.547 -0.067 -0.94 -0.2 -1.18 c -0.133 -0.247 -0.39 -0.37 -0.77 -0.37 c -0.193 0 -0.377 0.033 -0.55 0.1 -0.173 0.06 -0.304 0.12 -0.391 0.18 0.053 0.167 0.091 0.343 0.111 0.53 0.02 0.187 0.03 0.387 0.03 0.6 l 0 2.891 -1.209 0 0 -2.75 c 0 -0.547 -0.071 -0.94 -0.211 -1.18 -0.133 -0.247 -0.386 -0.37 -0.759 -0.37 -0.133 0 -0.281 0.01 -0.441 0.03 -0.16 0.02 -0.279 0.037 -0.359 0.05 l 0 4.22 -1.211 0 0 -5.059 c 0.233 -0.067 0.538 -0.131 0.911 -0.191 0.38 -0.06 0.78 -0.091 1.2 -0.091 z m 6.387 3.795 c 0.193 0 0.36 0.024 0.5 0.07 0.14 0.047 0.254 0.113 0.344 0.2 0.093 0.083 0.163 0.183 0.206 0.3 0.047 0.113 0.069 0.238 0.069 0.375 0 0.16 -0.044 0.303 -0.134 0.43 -0.087 0.127 -0.201 0.224 -0.341 0.291 0.18 0.063 0.329 0.167 0.445 0.314 0.12 0.147 0.18 0.336 0.18 0.566 0 0.153 -0.026 0.296 -0.08 0.43 -0.053 0.13 -0.135 0.244 -0.245 0.341 -0.11 0.093 -0.249 0.168 -0.419 0.225 -0.167 0.053 -0.367 0.08 -0.6 0.08 -0.09 0 -0.185 -0.007 -0.281 -0.02 -0.093 -0.01 -0.182 -0.025 -0.269 -0.045 -0.083 -0.017 -0.161 -0.035 -0.231 -0.055 -0.07 -0.023 -0.123 -0.044 -0.159 -0.064 l 0.12 -0.516 c 0.07 0.033 0.171 0.072 0.305 0.116 0.133 0.04 0.299 0.059 0.495 0.059 0.263 0 0.454 -0.05 0.57 -0.15 0.117 -0.103 0.175 -0.239 0.175 -0.409 0 -0.11 -0.024 -0.202 -0.07 -0.275 -0.043 -0.073 -0.106 -0.132 -0.186 -0.175 -0.077 -0.047 -0.165 -0.079 -0.269 -0.095 -0.1 -0.02 -0.207 -0.03 -0.32 -0.03 l -0.205 0 0 -0.491 0.25 0 c 0.077 0 0.153 -0.007 0.23 -0.02 0.08 -0.017 0.151 -0.043 0.214 -0.08 0.063 -0.04 0.116 -0.091 0.156 -0.155 0.04 -0.063 0.059 -0.145 0.059 -0.245 0 -0.08 -0.015 -0.148 -0.045 -0.205 -0.03 -0.057 -0.07 -0.104 -0.12 -0.141 -0.047 -0.037 -0.101 -0.063 -0.164 -0.08 -0.063 -0.017 -0.13 -0.025 -0.2 -0.025 -0.15 0 -0.283 0.024 -0.4 0.07 -0.117 0.043 -0.221 0.093 -0.311 0.15 l -0.219 -0.45 c 0.047 -0.03 0.102 -0.062 0.169 -0.095 0.067 -0.033 0.14 -0.065 0.22 -0.095 0.083 -0.03 0.172 -0.054 0.266 -0.07 0.093 -0.02 0.192 -0.03 0.295 -0.03 z" style="fill:#ececec;fill-opacity:1"/>
</svg>
