<svg viewBox="0 0 16 16" xmlns="http://www.w3.org/2000/svg">
 <path d="m 1.6 0 c -0.886 0 -1.6 0.714 -1.6 1.6 l 0 12.8 c 0 0.886 0.714 1.6 1.6 1.6 l 12.8 0 c 0.886 0 1.6 -0.714 1.6 -1.6 l 0 -12.8 c 0 -0.886 -0.714 -1.6 -1.6 -1.6 l -12.8 0 z m 0.125 4.47 4.381 0 0 1.07 -3.12 0 0 1.769 2.77 0 0 1.07 -2.77 0 0 3.02 -1.261 0 0 -6.93 z m 7.552 1.57 c 0.367 0 0.703 0.067 1.01 0.2 0.313 0.127 0.58 0.31 0.8 0.55 0.22 0.24 0.391 0.529 0.511 0.869 0.127 0.333 0.189 0.707 0.189 1.12 0 0.413 -0.06 0.79 -0.18 1.13 -0.12 0.34 -0.289 0.63 -0.509 0.87 -0.22 0.24 -0.487 0.428 -0.8 0.561 -0.307 0.133 -0.647 0.2 -1.02 0.2 -0.373 0 -0.714 -0.067 -1.02 -0.2 -0.307 -0.133 -0.571 -0.321 -0.791 -0.561 -0.22 -0.24 -0.392 -0.53 -0.519 -0.87 -0.12 -0.34 -0.181 -0.716 -0.181 -1.13 0 -0.413 0.061 -0.787 0.181 -1.12 0.127 -0.34 0.299 -0.629 0.519 -0.869 0.227 -0.24 0.493 -0.423 0.8 -0.55 0.307 -0.133 0.644 -0.2 1.01 -0.2 z m 0 1.05 c -0.4 0 -0.714 0.153 -0.941 0.459 -0.22 0.3 -0.33 0.71 -0.33 1.23 0 0.527 0.11 0.943 0.33 1.25 0.227 0.307 0.541 0.461 0.941 0.461 0.4 0 0.71 -0.154 0.93 -0.461 c 0.227 -0.307 0.341 -0.723 0.341 -1.25 0 -0.52 -0.114 -0.93 -0.341 -1.23 -0.22 -0.307 -0.53 -0.459 -0.93 -0.459 z m 4.311 2.764 c 0.37 0 0.642 0.089 0.816 0.266 0.177 0.173 0.264 0.411 0.264 0.714 0 0.12 -0.025 0.24 -0.075 0.356 -0.05 0.113 -0.114 0.224 -0.194 0.334 -0.077 0.107 -0.166 0.212 -0.266 0.316 -0.1 0.1 -0.2 0.197 -0.3 0.294 -0.053 0.05 -0.113 0.111 -0.18 0.181 -0.067 0.07 -0.131 0.139 -0.191 0.209 -0.06 0.07 -0.111 0.138 -0.155 0.205 -0.043 0.063 -0.067 0.118 -0.07 0.161 l 1.541 0 0 0.509 -2.205 0 c -0.003 -0.027 -0.006 -0.059 -0.006 -0.095 l 0 -0.089 c 0 -0.16 0.025 -0.307 0.075 -0.441 0.053 -0.137 0.123 -0.263 0.206 -0.38 0.083 -0.117 0.176 -0.226 0.28 -0.33 0.103 -0.103 0.206 -0.206 0.309 -0.306 0.08 -0.077 0.156 -0.152 0.23 -0.225 0.073 -0.073 0.137 -0.144 0.191 -0.214 0.057 -0.073 0.101 -0.147 0.134 -0.22 0.033 -0.077 0.05 -0.154 0.05 -0.234 0 -0.173 -0.05 -0.297 -0.15 -0.37 -0.1 -0.073 -0.221 -0.111 -0.364 -0.111 -0.093 0 -0.181 0.014 -0.261 0.041 -0.08 0.027 -0.151 0.059 -0.214 0.095 -0.06 0.037 -0.114 0.074 -0.161 0.114 -0.047 0.037 -0.081 0.067 -0.105 0.091 l -0.3 -0.425 c 0.14 -0.133 0.304 -0.24 0.491 -0.32 0.19 -0.083 0.393 -0.125 0.609 -0.125 z" style="fill:#ececec;fill-opacity:1"/>
</svg>
