<svg viewBox="0 0 16 16" xmlns="http://www.w3.org/2000/svg">
 <path d="m 1.6 0 c -0.886 0 -1.6 0.714 -1.6 1.6 l 0 12.8 c 0 0.886 0.714 1.6 1.6 1.6 l 12.8 0 c 0.886 0 1.6 -0.714 1.6 -1.6 l 0 -12.8 c 0 -0.886 -0.714 -1.6 -1.6 -1.6 l -12.8 0 z m 6.989 3.641 0 2.589 c 0.133 -0.047 0.286 -0.087 0.459 -0.12 c 0.18 -0.033 0.356 -0.05 0.53 -0.05 0.42 0 0.767 0.061 1.041 0.181 0.28 0.113 0.504 0.276 0.67 0.489 0.167 0.207 0.283 0.457 0.35 0.75 0.073 0.293 0.109 0.62 0.109 0.98 l 0 2.941 -1.209 0 0 -2.75 c 0 -0.28 -0.021 -0.516 -0.061 -0.709 -0.033 -0.2 -0.093 -0.361 -0.18 -0.481 c -0.08 -0.127 -0.19 -0.215 -0.33 -0.269 -0.14 -0.06 -0.314 -0.091 -0.52 -0.091 c -0.16 0 -0.324 0.017 -0.491 0.05 -0.167 0.033 -0.289 0.064 -0.369 0.091 l 0 4.159 -1.211 0 0 -7.559 1.211 -0.2 z m -7.389 0.83 l 4.959 0 0 0.93 c -0.22 0.24 -0.487 0.554 -0.8 0.941 -0.313 0.38 -0.637 0.797 -0.97 1.25 c -0.333 0.447 -0.662 0.909 -0.989 1.389 -0.32 0.473 -0.603 0.923 -0.85 1.35 l 3.719 0 0 1.07 -5.239 0 0 -0.791 c 0.133 -0.247 0.286 -0.513 0.459 -0.8 0.18 -0.293 0.37 -0.593 0.57 -0.9 0.2 -0.307 0.407 -0.616 0.62 -0.93 0.22 -0.313 0.437 -0.613 0.65 -0.9 c 0.213 -0.293 0.42 -0.57 0.62 -0.83 0.207 -0.267 0.4 -0.503 0.58 -0.709 l -3.33 0 0 -1.07 z m 11.864 5.464 1.77 0 0 0.511 -1.256 0 c -0.003 0.057 -0.007 0.122 -0.014 0.195 -0.003 0.07 -0.009 0.141 -0.016 0.214 -0.003 0.073 -0.007 0.144 -0.014 0.211 -0.007 0.067 -0.014 0.122 -0.02 0.169 0.493 0.027 0.856 0.141 1.089 0.341 0.237 0.197 0.356 0.466 0.356 0.809 0 0.157 -0.028 0.303 -0.081 0.436 -0.053 0.133 -0.134 0.249 -0.244 0.345 -0.11 0.097 -0.249 0.173 -0.416 0.23 -0.167 0.053 -0.361 0.08 -0.584 0.08 -0.09 0 -0.182 -0.007 -0.275 -0.02 -0.093 -0.013 -0.184 -0.03 -0.27 -0.05 -0.083 -0.017 -0.158 -0.035 -0.225 -0.055 -0.067 -0.02 -0.117 -0.038 -0.15 -0.055 l 0.114 -0.511 c 0.07 0.033 0.17 0.071 0.3 0.111 0.133 0.037 0.296 0.055 0.486 0.055 0.13 0 0.241 -0.014 0.334 -0.041 0.093 -0.03 0.168 -0.069 0.225 -0.119 0.06 -0.05 0.103 -0.107 0.13 -0.17 0.027 -0.067 0.041 -0.138 0.041 -0.211 0 -0.11 -0.022 -0.207 -0.066 -0.294 -0.043 -0.087 -0.12 -0.16 -0.23 -0.22 -0.107 -0.06 -0.251 -0.106 -0.434 -0.136 -0.18 -0.03 -0.409 -0.044 -0.686 -0.044 0.037 -0.32 0.066 -0.624 0.086 -0.911 0.02 -0.29 0.037 -0.58 0.05 -0.87 z" style="fill:#ececec;fill-opacity:1"/>
</svg>
