<svg xmlns="http://www.w3.org/2000/svg" viewBox="0 0 16 16">
 <path d="m 1.6 0 c -0.886 0 -1.6 0.714 -1.6 1.6 l 0 12.8 c 0 0.886 0.714 1.6 1.6 1.6 l 12.8 0 c 0.886 0 1.6 -0.714 1.6 -1.6 l 0 -12.8 c 0 -0.886 -0.714 -1.6 -1.6 -1.6 l -12.8 0 z m -0.577 4.47 1.03 0 c 0.267 0.28 0.553 0.613 0.859 1 0.307 0.38 0.614 0.776 0.92 1.189 0.313 0.413 0.613 0.83 0.9 1.25 c 0.293 0.413 0.553 0.801 0.78 1.161 l 0 -4.6 1.25 0 0 6.93 -1.069 0 c -0.227 -0.38 -0.481 -0.787 -0.761 -1.22 -0.28 -0.44 -0.57 -0.88 -0.87 -1.32 -0.3 -0.447 -0.605 -0.876 -0.919 -1.289 -0.307 -0.42 -0.601 -0.796 -0.881 -1.13 l 0 4.959 -1.239 0 0 -6.93 z m 9 1.57 c 0.367 0 0.704 0.067 1.01 0.2 0.313 0.127 0.58 0.31 0.8 0.55 0.22 0.24 0.389 0.529 0.509 0.869 0.127 0.333 0.191 0.707 0.191 1.12 0 0.413 -0.061 0.79 -0.181 1.13 -0.12 0.34 -0.289 0.63 -0.509 0.87 -0.22 0.24 -0.487 0.428 -0.8 0.561 -0.307 0.133 -0.647 0.2 -1.02 0.2 -0.373 0 -0.714 -0.067 -1.02 -0.2 -0.307 -0.133 -0.569 -0.321 -0.789 -0.561 -0.22 -0.24 -0.394 -0.53 -0.52 -0.87 -0.12 -0.34 -0.18 -0.716 -0.18 -1.13 0 -0.413 0.06 -0.787 0.18 -1.12 0.127 -0.34 0.3 -0.629 0.52 -0.869 0.227 -0.24 0.493 -0.423 0.8 -0.55 0.307 -0.133 0.643 -0.2 1.01 -0.2 z m 0 1.05 c -0.4 0 -0.712 0.153 -0.939 0.459 -0.22 0.3 -0.331 0.71 -0.331 1.23 0 0.527 0.111 0.943 0.331 1.25 0.227 0.307 0.539 0.461 0.939 0.461 0.4 0 0.71 -0.154 0.93 -0.461 c 0.227 -0.307 0.341 -0.723 0.341 -1.25 0 -0.52 -0.114 -0.93 -0.341 -1.23 -0.22 -0.307 -0.53 -0.459 -0.93 -0.459 z m 3.681 2.764 c 0.193 0 0.36 0.024 0.5 0.07 0.14 0.047 0.255 0.113 0.345 0.2 0.093 0.083 0.161 0.183 0.205 0.3 0.047 0.113 0.07 0.238 0.07 0.375 0 0.16 -0.044 0.303 -0.134 0.43 -0.087 0.127 -0.201 0.224 -0.341 0.291 0.18 0.063 0.329 0.167 0.445 0.314 0.12 0.147 0.18 0.336 0.18 0.566 0 0.153 -0.026 0.296 -0.08 0.43 -0.053 0.13 -0.135 0.244 -0.245 0.341 -0.11 0.093 -0.25 0.168 -0.42 0.225 -0.167 0.053 -0.367 0.08 -0.6 0.08 -0.09 0 -0.183 -0.007 -0.28 -0.02 -0.093 -0.01 -0.184 -0.025 -0.27 -0.045 -0.083 -0.017 -0.16 -0.035 -0.23 -0.055 -0.07 -0.023 -0.123 -0.044 -0.159 -0.064 l 0.12 -0.516 c 0.07 0.033 0.171 0.072 0.305 0.116 0.133 0.04 0.299 0.059 0.495 0.059 0.263 0 0.452 -0.05 0.569 -0.15 0.117 -0.103 0.175 -0.239 0.175 -0.409 0 -0.11 -0.022 -0.202 -0.069 -0.275 -0.043 -0.073 -0.106 -0.132 -0.186 -0.175 -0.077 -0.047 -0.167 -0.079 -0.27 -0.095 -0.1 -0.02 -0.205 -0.03 -0.319 -0.03 l -0.206 0 0 -0.491 0.25 0 c 0.077 0 0.155 -0.007 0.231 -0.02 0.08 -0.017 0.151 -0.043 0.214 -0.08 0.063 -0.04 0.115 -0.091 0.155 -0.155 0.04 -0.063 0.061 -0.145 0.061 -0.245 0 -0.08 -0.015 -0.148 -0.045 -0.205 -0.03 -0.057 -0.07 -0.104 -0.12 -0.141 -0.047 -0.037 -0.101 -0.063 -0.164 -0.08 -0.063 -0.017 -0.13 -0.025 -0.2 -0.025 -0.15 0 -0.283 0.024 -0.4 0.07 -0.117 0.043 -0.221 0.093 -0.311 0.15 l -0.22 -0.45 c 0.047 -0.03 0.104 -0.062 0.17 -0.095 0.067 -0.033 0.14 -0.065 0.22 -0.095 0.083 -0.03 0.172 -0.054 0.266 -0.07 0.093 -0.02 0.19 -0.03 0.294 -0.03 z" style="fill:#ececec;fill-opacity:1"/>
</svg>
