<svg viewBox="0 0 16 16" xmlns="http://www.w3.org/2000/svg">
 <path style="fill:#ececec;fill-opacity:1" d="m 1.6 0 c -0.886 0 -1.6 0.714 -1.6 1.6 l 0 12.8 c 0 0.886 0.714 1.6 1.6 1.6 l 12.8 0 c 0.886 0 1.6 -0.714 1.6 -1.6 l 0 -12.8 c 0 -0.886 -0.714 -1.6 -1.6 -1.6 l -12.8 0 z m 2.95 4.6 c 0.58 0 1.111 0.069 1.591 0.209 0.48 0.133 0.89 0.347 1.23 0.641 0.347 0.287 0.613 0.653 0.8 1.1 c 0.187 0.44 0.28 0.966 0.28 1.58 c 0 0.6 -0.093 1.124 -0.28 1.57 -0.187 0.44 -0.453 0.809 -0.8 1.109 -0.34 0.293 -0.754 0.514 -1.241 0.661 -0.48 0.14 -1.013 0.209 -1.6 0.209 -0.28 0 -0.597 -0.012 -0.95 -0.039 -0.353 -0.02 -0.689 -0.067 -1.01 -0.141 l 0 -6.73 c 0.32 -0.073 0.66 -0.121 1.02 -0.141 c 0.36 -0.02 0.679 -0.03 0.959 -0.03 z m 0.08 1.091 c -0.373 0 -0.64 0.01 -0.8 0.03 l 0 4.839 c 0.073 0.007 0.171 0.014 0.291 0.02 l 0.491 0 c 0.847 0 1.476 -0.212 1.889 -0.639 0.42 -0.433 0.63 -1.038 0.63 -1.811 0 -0.787 -0.203 -1.389 -0.609 -1.809 c -0.407 -0.42 -1.037 -0.63 -1.891 -0.63 z m 4.506 0.68 1.291 0 c 0.073 0.293 0.157 0.61 0.25 0.95 0.1 0.333 0.203 0.669 0.309 1.01 0.113 0.333 0.227 0.66 0.341 0.98 0.12 0.313 0.23 0.597 0.33 0.85 0.1 -0.253 0.207 -0.537 0.32 -0.85 0.113 -0.32 0.223 -0.646 0.33 -0.98 0.113 -0.34 0.22 -0.676 0.32 -1.01 0.1 -0.34 0.186 -0.657 0.259 -0.95 l 1.25 0 c -0.287 1.02 -0.606 1.977 -0.959 2.87 -0.347 0.887 -0.687 1.673 -1.02 2.359 l -1.041 0 c -0.333 -0.687 -0.676 -1.473 -1.03 -2.359 -0.347 -0.893 -0.663 -1.85 -0.95 -2.87 z"/>
</svg>
