<svg xmlns="http://www.w3.org/2000/svg" viewBox="0 0 16 16">
 <path style="fill:#ececec;fill-opacity:1" d="m 1.6 0 c -0.886 0 -1.6 0.714 -1.6 1.6 l 0 12.8 c 0 0.886 0.714 1.6 1.6 1.6 l 12.8 0 c 0.886 0 1.6 -0.714 1.6 -1.6 l 0 -12.8 c 0 -0.886 -0.714 -1.6 -1.6 -1.6 l -12.8 0 z m 0.848 4.47 4.45 0 0 1.07 -3.191 0 0 1.709 2.841 0 0 1.05 -2.841 0 0 2.03 3.43 0 0 1.07 -4.689 0 0 -6.93 z m 6.831 0.12 0 1.58 1.861 0 0 1.01 -1.861 0 0 2.13 c 0 0.42 0.067 0.72 0.2 0.9 0.133 0.18 0.361 0.27 0.681 0.27 0.22 0 0.413 -0.024 0.58 -0.07 c 0.173 -0.047 0.309 -0.09 0.409 -0.13 l 0.2 0.961 c -0.14 0.06 -0.323 0.12 -0.55 0.18 -0.227 0.067 -0.493 0.1 -0.8 0.1 -0.373 0 -0.686 -0.05 -0.939 -0.15 -0.247 -0.1 -0.444 -0.243 -0.591 -0.43 c -0.147 -0.193 -0.249 -0.424 -0.309 -0.691 -0.06 -0.273 -0.091 -0.583 -0.091 -0.93 l 0 -4.53 1.209 -0.2 z m 3.811 5.344 0.425 0 0 3.466 -0.606 0 0 -2.655 c -0.09 0.07 -0.202 0.138 -0.339 0.205 -0.137 0.067 -0.269 0.122 -0.395 0.166 l -0.184 -0.461 c 0.193 -0.077 0.386 -0.175 0.58 -0.295 0.197 -0.12 0.37 -0.262 0.52 -0.425 z"/>
</svg>
