<svg xmlns="http://www.w3.org/2000/svg" viewBox="0 0 16 16">
 <path d="M 6.5,2 C 6.223,2 6,2.1825193 6,2.40625 L 6,3 4.65625,3 C 3.7329167,3 3,3.7329167 3,4.65625 L 3,6 2.40625,6 C 2.1825193,6 2,6.223 2,6.5 2,6.777 2.1825193,7 2.40625,7 L 3,7 3,9 2.40625,9 C 2.1825193,9 2,9.223 2,9.5 2,9.777 2.1825193,10 2.40625,10 L 3,10 3,11.34375 C 3,12.267083 3.7329167,13 4.65625,13 L 6,13 6,13.59375 C 6,13.817481 6.223,14 6.5,14 6.777,14 7,13.817481 7,13.59375 L 7,13 9,13 9,13.59375 C 9,13.817481 9.223,14 9.5,14 9.777,14 10,13.817481 10,13.59375 L 10,13 11.34375,13 C 12.267083,13 13,12.267083 13,11.34375 L 13,10 13.59375,10 C 13.817481,10 14,9.777 14,9.5 14,9.223 13.817481,9 13.59375,9 L 13,9 13,7 13.59375,7 C 13.817481,7 14,6.777 14,6.5 14,6.223 13.817481,6 13.59375,6 L 13,6 13,4.65625 C 13,3.7329167 12.267083,3 11.34375,3 L 10,3 10,2.40625 C 10,2.1825193 9.777,2 9.5,2 9.223,2 9,2.1825193 9,2.40625 L 9,3 7,3 7,2.40625 C 7,2.1825193 6.777,2 6.5,2 z M 5,4 11,4 c 0.554,0 1,0.446 1,1 l 0,6 c 0,0.554 -0.446,1 -1,1 L 5,12 C 4.446,12 4,11.554 4,11 L 4,5 C 4,4.446 4.446,4 5,4 z M 5.75,7 C 5.3345,7 5,7.3345 5,7.75 l 0,2.5 C 5,10.6655 5.3345,11 5.75,11 l 4.5,0 C 10.6655,11 11,10.6655 11,10.25 l 0,-2.5 C 11,7.3345 10.6655,7 10.25,7 z" style="fill:#ececec;fill-opacity:1;stroke:none;fill-rule:evenodd"/>
</svg>
