<svg xmlns="http://www.w3.org/2000/svg" viewBox="0 0 16 16">
 <g transform="translate(0,-1037.0442)">"&gt;
            <path d="m 7 1049.04 -1.909 1.273 c -1.09 0.727 -1.181 0.727 -0.09 0.727 l 6 0 c 1.091 0 1 0 -0.092 -0.727 l -1.909 -1.273 0 -1.5 -2 0 z" style="fill:#ececec;fill-opacity:1;stroke:none"/>  <path d="m 3 1039.04 c -0.806 0 -1 0.195 -1 1 l 0 7 c 0 0.806 0.194 1 1 1 l 10 0 c 0.806 0 1 -0.195 1 -1 l 0 -7 c 0 -0.806 -0.194 -1 -1 -1 z m 0 1 10 0 0 7 -10 0 z" style="fill:#ececec;fill-opacity:1;stroke:none"/>  <g transform="translate(0.0015536,0)" style="fill:#ececec;fill-opacity:1;stroke:none">   <path d="m 8.131 1042.44 -1.311 1.942 1.311 0 0 -1.942 z m -0.199 -0.985 1.33 0 0 2.927 0.662 0 0 0.867 -0.662 0 0 0.845 -1.131 0 0 -0.845 -2.057 0 0 -1.025 1.858 -2.768 z"/></g></g>
</svg>
