<svg xmlns="http://www.w3.org/2000/svg" viewBox="0 0 16 16">
 <path d="m 1.6 0 c -0.886 0 -1.6 0.714 -1.6 1.6 l 0 12.8 c 0 0.886 0.714 1.6 1.6 1.6 l 12.8 0 c 0.886 0 1.6 -0.714 1.6 -1.6 l 0 -12.8 c 0 -0.886 -0.714 -1.6 -1.6 -1.6 l -12.8 0 z m 1.17 4.47 4.38 0 0 1.07 -3.12 0 0 1.769 2.77 0 0 1.07 -2.77 0 0 3.02 -1.259 0 0 -6.93 z m 7.234 1.589 c 0.08 0 0.173 0.007 0.28 0.02 0.107 0.007 0.214 0.021 0.32 0.041 0.107 0.013 0.209 0.033 0.309 0.059 0.1 0.02 0.181 0.041 0.241 0.061 l -0.211 1.019 c -0.1 -0.033 -0.239 -0.067 -0.419 -0.1 -0.173 -0.04 -0.378 -0.059 -0.611 -0.059 -0.133 0 -0.276 0.014 -0.43 0.041 -0.147 0.027 -0.249 0.049 -0.309 0.069 l 0 4.191 -1.211 0 0 -4.98 c 0.233 -0.087 0.524 -0.167 0.87 -0.241 0.353 -0.08 0.744 -0.12 1.17 -0.12 z m 1.478 3.875 2.316 0 0 0.461 c -0.11 0.123 -0.231 0.291 -0.361 0.505 -0.13 0.213 -0.254 0.455 -0.37 0.725 -0.117 0.267 -0.218 0.553 -0.305 0.859 -0.083 0.307 -0.135 0.612 -0.155 0.916 l -0.62 0 c 0.02 -0.253 0.066 -0.52 0.136 -0.8 0.07 -0.28 0.155 -0.552 0.255 -0.816 0.103 -0.267 0.214 -0.514 0.334 -0.744 0.123 -0.233 0.246 -0.429 0.366 -0.586 l -1.595 0 0 -0.52 z" style="fill:#ececec;fill-opacity:1"/>
</svg>
