<svg viewBox="0 0 16 16" xmlns="http://www.w3.org/2000/svg">
 <path d="m 1.6 0 c -0.886 0 -1.6 0.714 -1.6 1.6 l 0 12.8 c 0 0.886 0.714 1.6 1.6 1.6 l 12.8 0 c 0.886 0 1.6 -0.714 1.6 -1.6 l 0 -12.8 c 0 -0.886 -0.714 -1.6 -1.6 -1.6 l -12.8 0 z m 8.878 3.841 0 4.569 c 0.153 -0.16 0.317 -0.329 0.491 -0.509 c 0.173 -0.187 0.343 -0.37 0.509 -0.55 0.167 -0.187 0.324 -0.363 0.47 -0.53 0.153 -0.173 0.282 -0.323 0.389 -0.45 l 1.431 0 c -0.333 0.373 -0.688 0.759 -1.061 1.159 -0.367 0.4 -0.736 0.79 -1.109 1.17 c 0.2 0.167 0.41 0.369 0.63 0.609 0.22 0.233 0.434 0.483 0.641 0.75 0.207 0.267 0.4 0.533 0.58 0.8 0.18 0.267 0.33 0.514 0.45 0.741 l -1.4 0 c -0.12 -0.207 -0.26 -0.423 -0.42 -0.65 -0.153 -0.227 -0.32 -0.446 -0.5 -0.659 -0.18 -0.213 -0.363 -0.413 -0.55 -0.6 -0.187 -0.193 -0.37 -0.357 -0.55 -0.491 l 0 2.4 -1.209 0 0 -7.559 1.209 -0.2 z m -7.655 0.83 1.261 0 0 2.859 c 0.22 -0.22 0.449 -0.453 0.689 -0.7 0.24 -0.253 0.478 -0.506 0.711 -0.759 0.24 -0.26 0.466 -0.51 0.68 -0.75 0.213 -0.24 0.406 -0.457 0.58 -0.65 l 1.511 0 c -0.22 0.253 -0.453 0.516 -0.7 0.789 c -0.247 0.273 -0.501 0.551 -0.761 0.831 c -0.26 0.273 -0.522 0.545 -0.789 0.819 -0.26 0.273 -0.517 0.535 -0.77 0.781 0.28 0.213 0.563 0.463 0.85 0.75 0.293 0.28 0.579 0.583 0.859 0.909 0.28 0.32 0.547 0.656 0.8 1.01 0.26 0.347 0.498 0.694 0.711 1.041 l -1.491 0 c -0.173 -0.267 -0.373 -0.547 -0.6 -0.841 c -0.227 -0.293 -0.467 -0.577 -0.72 -0.85 -0.247 -0.273 -0.504 -0.533 -0.77 -0.78 -0.267 -0.247 -0.529 -0.459 -0.789 -0.639 l 0 3.109 -1.261 0 0 -6.93 z" style="fill:#ececec;fill-opacity:1"/>
</svg>
