<svg xmlns="http://www.w3.org/2000/svg" viewBox="0 0 16 16">
 <path style="fill:#ececec;fill-opacity:1" d="m 1.6 0 c -0.886 0 -1.6 0.714 -1.6 1.6 l 0 12.8 c 0 0.886 0.714 1.6 1.6 1.6 l 12.8 0 c 0.886 0 1.6 -0.714 1.6 -1.6 l 0 -12.8 c 0 -0.886 -0.714 -1.6 -1.6 -1.6 l -12.8 0 z m 2.517 4.309 c 0.433 0 0.817 0.05 1.15 0.15 0.34 0.093 0.607 0.198 0.8 0.311 l -0.391 1.02 c -0.227 -0.127 -0.477 -0.224 -0.75 -0.291 -0.267 -0.067 -0.543 -0.1 -0.83 -0.1 c -0.34 0 -0.607 0.069 -0.8 0.209 -0.187 0.14 -0.28 0.337 -0.28 0.591 0 0.153 0.029 0.287 0.089 0.4 0.067 0.107 0.157 0.204 0.27 0.291 0.12 0.087 0.258 0.166 0.411 0.239 0.16 0.073 0.332 0.144 0.519 0.211 0.327 0.12 0.617 0.242 0.87 0.369 0.26 0.12 0.477 0.267 0.65 0.441 0.18 0.167 0.318 0.367 0.411 0.6 0.093 0.227 0.139 0.503 0.139 0.83 0 0.627 -0.224 1.114 -0.67 1.461 -0.44 0.34 -1.086 0.509 -1.939 0.509 -0.287 0 -0.551 -0.019 -0.791 -0.059 c -0.233 -0.033 -0.443 -0.078 -0.63 -0.131 -0.18 -0.053 -0.337 -0.106 -0.47 -0.159 -0.133 -0.06 -0.24 -0.113 -0.32 -0.159 l 0.37 -1.031 c 0.18 0.1 0.423 0.2 0.73 0.3 0.307 0.1 0.678 0.15 1.111 0.15 0.453 0 0.782 -0.076 0.989 -0.23 c 0.207 -0.153 0.311 -0.37 0.311 -0.65 0 -0.167 -0.038 -0.31 -0.111 -0.43 -0.067 -0.12 -0.167 -0.227 -0.3 -0.32 c -0.127 -0.1 -0.282 -0.19 -0.469 -0.27 -0.187 -0.087 -0.401 -0.17 -0.641 -0.25 -0.24 -0.087 -0.473 -0.18 -0.7 -0.28 c -0.22 -0.107 -0.417 -0.236 -0.591 -0.389 -0.167 -0.153 -0.303 -0.337 -0.409 -0.55 c -0.1 -0.213 -0.15 -0.47 -0.15 -0.77 0 -0.627 0.217 -1.117 0.65 -1.47 c 0.433 -0.36 1.024 -0.541 1.77 -0.541 z m 2.661 1.861 1.289 0 c 0.073 0.293 0.157 0.61 0.25 0.95 0.1 0.333 0.204 0.669 0.311 1.01 0.113 0.333 0.226 0.66 0.339 0.98 0.12 0.313 0.23 0.597 0.33 0.85 0.1 -0.253 0.207 -0.537 0.32 -0.85 0.113 -0.32 0.223 -0.646 0.33 -0.98 0.113 -0.34 0.22 -0.676 0.32 -1.01 0.1 -0.34 0.188 -0.657 0.261 -0.95 l 1.25 0 c -0.287 1.02 -0.608 1.977 -0.961 2.87 c -0.347 0.887 -0.687 1.673 -1.02 2.359 l -1.039 0 c -0.333 -0.687 -0.676 -1.473 -1.03 -2.359 -0.347 -0.893 -0.663 -1.85 -0.95 -2.87 z m 5.758 3.764 1.77 0 0 0.511 -1.255 0 c -0.003 0.057 -0.009 0.122 -0.016 0.195 -0.003 0.07 -0.007 0.141 -0.014 0.214 -0.003 0.073 -0.009 0.144 -0.016 0.211 -0.007 0.067 -0.014 0.122 -0.02 0.169 0.493 0.027 0.857 0.141 1.091 0.341 0.237 0.197 0.355 0.466 0.355 0.809 0 0.157 -0.026 0.303 -0.08 0.436 -0.053 0.133 -0.135 0.249 -0.245 0.345 -0.11 0.097 -0.249 0.173 -0.416 0.23 -0.167 0.053 -0.361 0.08 -0.584 0.08 -0.09 0 -0.182 -0.007 -0.275 -0.02 -0.093 -0.013 -0.184 -0.03 -0.27 -0.05 -0.083 -0.017 -0.158 -0.035 -0.225 -0.055 -0.067 -0.02 -0.117 -0.038 -0.15 -0.055 l 0.116 -0.511 c 0.07 0.033 0.17 0.071 0.3 0.111 0.133 0.037 0.294 0.055 0.484 0.055 0.13 0 0.243 -0.014 0.336 -0.041 0.093 -0.03 0.168 -0.069 0.225 -0.119 0.06 -0.05 0.103 -0.107 0.13 -0.17 0.027 -0.067 0.039 -0.138 0.039 -0.211 0 -0.11 -0.021 -0.207 -0.064 -0.294 -0.043 -0.087 -0.12 -0.16 -0.23 -0.22 -0.107 -0.06 -0.253 -0.106 -0.436 -0.136 -0.18 -0.03 -0.408 -0.044 -0.684 -0.044 0.037 -0.32 0.064 -0.624 0.084 -0.911 0.02 -0.29 0.037 -0.58 0.05 -0.87 z"/>
</svg>
