
<!-- Created with Inkscape (http://www.inkscape.org/) -->
<svg width="16" height="16" xmlns="http://www.w3.org/2000/svg" viewBox="0 0 33.333333 33.333333">
 <path d="M 11 0 A 5 5 0 0 0 6 5 A 5 5 0 0 0 6.302734 6.697266 L 6 7 L 3 4 L 0 4 L 0 7 L 3 10 L 0 13 L 0 16 L 3 16 L 6 13 L 9 16 L 12 16 L 12 13 L 9 10 L 9.301 9.699 A 5 5 0 0 0 11 10 A 5 5 0 0 0 16 5 A 5 5 0 0 0 11 0 z M 12.5 2 A 1.5 1.5 0 0 1 14 3.5 A 1.5 1.5 0 0 1 12.5 5 A 1.5 1.5 0 0 1 11 3.5 A 1.5 1.5 0 0 1 12.5 2 z" style="fill:#ececec;opacity:1;fill-opacity:1;stroke:none;fill-rule:nonzero" transform="matrix(2.08333 0 0 2.08333 0 0)"/>
 <path d="m 28.783 21.21 c -1.677 0 -3.03 1.383 -3.03 3.083 l 0 1.465 c -0.837 0 -1.515 0.675 -1.515 1.515 l 0 4.55 c 0 0.838 0.675 1.515 1.515 1.515 l 6.06 0 c 0.837 0 1.515 -0.675 1.515 -1.515 l 0 -4.55 c 0 -0.837 -0.675 -1.515 -1.515 -1.515 l 0 -1.465 c 0 -1.7 -1.35 -3.083 -3.035 -3.083 m 0 1.521 c 0.846 0 1.521 0.667 1.521 1.515 l 0 1.515 -3.035 0 0 -1.515 c 0 -0.846 0.675 -1.515 1.515 -1.515 z" style="fill:#ececec;fill-opacity:1"/>
</svg>
