
<!-- Created with Inkscape (http://www.inkscape.org/) -->
<svg height="16" width="16" xmlns="http://www.w3.org/2000/svg" viewBox="0 0 33.333333 33.333333">
 <path transform="matrix(2.08333 0 0 2.08333 0 0)" style="fill:#ececec;opacity:1;fill-opacity:1;stroke:none;fill-rule:nonzero" d="M 11 0 A 5 5 0 0 0 6 5 A 5 5 0 0 0 6.302734 6.697266 L 6 7 L 3 4 L 0 4 L 0 7 L 3 10 L 0 13 L 0 16 L 3 16 L 6 13 L 9 16 L 12 16 L 12 13 L 9 10 L 9.301 9.699 A 5 5 0 0 0 11 10 A 5 5 0 0 0 16 5 A 5 5 0 0 0 11 0 z M 12.5 2 A 1.5 1.5 0 0 1 14 3.5 A 1.5 1.5 0 0 1 12.5 5 A 1.5 1.5 0 0 1 11 3.5 A 1.5 1.5 0 0 1 12.5 2 z"/>
</svg>
