<svg xmlns="http://www.w3.org/2000/svg" width="16" viewBox="0 0 4.5155556 4.5155556" height="16">
 <path d="m 2.258 0 c -0.616 0.556 -1.622 0.92 -1.976 1 c 0 1.505 0.721 3.261 1.976 3.512 c 1.254 -0.251 1.976 -2.01 1.976 -3.512 -0.354 -0.083 -1.36 -0.448 -1.976 -1 m 0.798 1.371 0.355 0.355 -1.064 1.064 -0.355 0.355 -0.355 -0.355 -0.532 -0.532 0.355 -0.355 0.532 0.532" style="fill:#ececec;fill-opacity:1;stroke:none;fill-rule:evenodd"/>
 <g transform="matrix(0.25086418,0,0,0.25086418,-9.9279507,-0.28209671)">
  <g transform="matrix(0.42297932,0,0,0.42297932,-11.083711,3.1945516)">
   <!-- color: #004794 -->
  </g>
 </g>
 <g transform="matrix(0.25086418,0,0,0.25086418,-9.7396463,0.59129335)" style="stroke-dasharray:none;stroke-opacity:1;stroke-miterlimit:4;stroke:#000;stroke-width:1.125">
  <g transform="matrix(0.42297932,0,0,0.42297932,-11.083711,3.1945516)" style="stroke-width:2.66">
   <!-- color: #004794 -->
  </g>
 </g>
</svg>
