<svg xmlns="http://www.w3.org/2000/svg" viewBox="0 0 16 16">
 <path d="m 8 1.882 c -3.111 0 -4.977 0.876 -7 2.39 l 7 9.846 l 7 -9.846 c -2.023 -1.514 -3.889 -2.39 -7 -2.39" style="fill:#ececec;fill-opacity:1;color:#000"/>
 <path d="m 13.816 9.453 c -0.805 0 -1.453 0.664 -1.453 1.48 l 0 0.703 c -0.402 0 -0.727 0.324 -0.727 0.727 l 0 2.184 c 0 0.402 0.324 0.727 0.727 0.727 l 2.91 0 c 0.402 0 0.727 -0.324 0.727 -0.727 l 0 -2.184 c 0 -0.402 -0.324 -0.727 -0.727 -0.727 l 0 -0.703 c 0 -0.816 -0.648 -1.48 -1.457 -1.48 z m 0 0.73 c 0.406 0 0.73 0.32 0.73 0.727 l 0 0.727 -1.457 0 0 -0.727 c 0 -0.406 0.324 -0.727 0.727 -0.727 z" style="fill:#ececec;fill-opacity:1"/>
</svg>
