<svg xmlns="http://www.w3.org/2000/svg" viewBox="0 0 16 16">
 <path d="m 13.816 9.453 c -0.805 0 -1.453 0.664 -1.453 1.477 l 0 0.707 c -0.402 0 -0.727 0.324 -0.727 0.727 l 0 2.184 c 0 0.402 0.324 0.727 0.727 0.727 l 2.91 0 c 0.402 0 0.727 -0.324 0.727 -0.727 l 0 -2.184 c 0 -0.402 -0.324 -0.727 -0.727 -0.727 l 0 -0.707 c 0 -0.813 -0.648 -1.477 -1.457 -1.477 m 0 0.73 c 0.406 0 0.73 0.32 0.73 0.727 l 0 0.727 l -1.457 0 l 0 -0.727 c 0 -0.406 0.324 -0.727 0.727 -0.727 Z" style="fill:#ececec;fill-opacity:1"/>
</svg>
