<svg xmlns="http://www.w3.org/2000/svg" viewBox="0 0 13.091 16">
 <path d="m 5.773 1.049 c -1.711 0 -3.089 1.378 -3.089 3.089 l 0 2.317 -0.772 0 c -0.428 0 -0.772 0.344 -0.772 0.772 l 0 6.951 c 0 0.428 0.344 0.772 0.772 0.772 l 9.267 0 c 0.428 0 0.772 -0.344 0.772 -0.772 l 0 -6.951 c 0 -0.428 -0.344 -0.772 -0.772 -0.772 l -0.772 0 0 -2.317 c 0 -1.711 -1.378 -3.089 -3.089 -3.089 l -1.545 0 z m 0 1.545 1.545 0 c 0.856 0 1.545 0.689 1.545 1.545 l 0 2.317 -4.634 0 0 -2.317 c 0 -0.856 0.689 -1.545 1.545 -1.545" style="fill:#ececec;fill-opacity:1;fill-rule:evenodd"/>
</svg>
