
<!-- Created with Inkscape (http://www.inkscape.org/) -->
<svg xmlns="http://www.w3.org/2000/svg" viewBox="0 0 16 16">
 <text x="877.23" y="-20.687" style="font-size:12.666;font-family:Bitstream Vera Sans;fill:#ececec;opacity:0.4;fill-opacity:1"><tspan x="877.23" y="-20.687"/>
 </text>
 <text x="901.19" y="-61.43" style="font-size:12.666;font-family:Bitstream Vera Sans;fill:#ececec;opacity:0.4;fill-opacity:1"><tspan x="901.19" y="-61.43"/>
 </text>
 <text x="-569.37" y="-91.51" style="font-size:12.666;font-family:Bitstream Vera Sans;fill:#ececec;opacity:0.4;fill-opacity:1"><tspan x="-569.37" y="-91.51"/>
 </text>
 <text x="-2393.06" y="654.05" style="font-size:12.666;font-family:Bitstream Vera Sans;fill:#ececec;opacity:0.4;fill-opacity:1"><tspan x="-2393.06" y="654.05"/>
 </text>
 <text x="-454.88" y="-476.83" style="font-size:12.666;font-family:Bitstream Vera Sans;fill:#ececec;opacity:0.4;fill-opacity:1"><tspan x="-454.88" y="-476.83"/>
 </text>
 <text x="352.72" y="-890.3" style="font-size:12.666;font-family:Bitstream Vera Sans;fill:#ececec;opacity:0.4;fill-opacity:1"><tspan x="352.72" y="-890.3"/>
 </text>
 <text x="376.68" y="-931.04" style="font-size:12.666;font-family:Bitstream Vera Sans;fill:#ececec;opacity:0.4;fill-opacity:1"><tspan x="376.68" y="-931.04"/>
 </text>
 <text x="-1114.78" y="-938.25" style="font-size:12.666;font-family:Bitstream Vera Sans;fill:#ececec;opacity:0.4;fill-opacity:1"><tspan x="-1114.78" y="-938.25"/>
 </text>
 <text x="345.76" y="-1211.48" style="font-size:12.666;font-family:Bitstream Vera Sans;fill:#ececec;opacity:0.4;fill-opacity:1"><tspan x="345.76" y="-1211.48"/>
 </text>
 <text x="1831.89" y="-584.79" style="font-size:12.666;font-family:Bitstream Vera Sans;fill:#ececec;opacity:0.4;fill-opacity:1"><tspan x="1831.89" y="-584.79"/>
 </text>
 <text x="1855.85" y="-625.53" style="font-size:12.666;font-family:Bitstream Vera Sans;fill:#ececec;opacity:0.4;fill-opacity:1"><tspan x="1855.85" y="-625.53"/>
 </text>
 <text x="364.38" y="-632.74" style="font-size:12.666;font-family:Bitstream Vera Sans;fill:#ececec;opacity:0.4;fill-opacity:1"><tspan x="364.38" y="-632.74"/>
 </text>
 <text x="1824.93" y="-905.98" style="font-size:12.666;font-family:Bitstream Vera Sans;fill:#ececec;opacity:0.4;fill-opacity:1"><tspan x="1824.93" y="-905.98"/>
 </text>
 <text x="-573.43" y="-680.84" style="font-size:12.666;font-family:Bitstream Vera Sans;fill:#ececec;opacity:0.4;fill-opacity:1"><tspan x="-573.43" y="-680.84"/>
 </text>
 <text x="-2397.12" y="64.718" style="font-size:12.666;font-family:Bitstream Vera Sans;fill:#ececec;opacity:0.4;fill-opacity:1"><tspan x="-2397.12" y="64.718"/>
 </text>
 <text x="-682.36" y="157.59" style="font-size:12.666;font-family:Bitstream Vera Sans;fill:#ececec;opacity:0.4;fill-opacity:1"><tspan x="-682.36" y="157.59"/>
 </text>
 <text x="426.66" y="-21.592" style="font-size:12.666;font-family:Bitstream Vera Sans;fill:#ececec;opacity:0.4;fill-opacity:1"><tspan x="426.66" y="-21.592"/>
 </text>
 <text x="450.62" y="-62.33" style="font-size:12.666;font-family:Bitstream Vera Sans;fill:#ececec;opacity:0.4;fill-opacity:1"><tspan x="450.62" y="-62.33"/>
 </text>
 <text x="-1040.84" y="-69.54" style="font-size:12.666;font-family:Bitstream Vera Sans;fill:#ececec;opacity:0.4;fill-opacity:1"><tspan x="-1040.84" y="-69.54"/>
 </text>
 <text x="419.7" y="-342.78" style="font-size:12.666;font-family:Bitstream Vera Sans;fill:#ececec;opacity:0.4;fill-opacity:1"><tspan x="419.7" y="-342.78"/>
 </text>
 <text x="-608.03" y="-72.26" style="font-size:12.666;font-family:Bitstream Vera Sans;fill:#ececec;opacity:0.4;fill-opacity:1"><tspan x="-608.03" y="-72.26"/>
 </text>
 <text x="-2431.72" y="673.3" style="font-size:12.666;font-family:Bitstream Vera Sans;fill:#ececec;opacity:0.4;fill-opacity:1"><tspan x="-2431.72" y="673.3"/>
 </text>
 <text x="-456.94" y="-933.79" style="font-size:12.666;font-family:Bitstream Vera Sans;fill:#ececec;opacity:0.4;fill-opacity:1"><tspan x="-456.94" y="-933.79"/>
 </text>
 <text x="350.66" y="-1347.26" style="font-size:12.666;font-family:Bitstream Vera Sans;fill:#ececec;opacity:0.4;fill-opacity:1"><tspan x="350.66" y="-1347.26"/>
 </text>
 <text x="374.62" y="-1388" style="font-size:12.666;font-family:Bitstream Vera Sans;fill:#ececec;opacity:0.4;fill-opacity:1"><tspan x="374.62" y="-1388"/>
 </text>
 <text x="-1116.84" y="-1395.21" style="font-size:12.666;font-family:Bitstream Vera Sans;fill:#ececec;opacity:0.4;fill-opacity:1"><tspan x="-1116.84" y="-1395.21"/>
 </text>
 <text x="343.7" y="-1668.44" style="font-size:12.666;font-family:Bitstream Vera Sans;fill:#ececec;opacity:0.4;fill-opacity:1"><tspan x="343.7" y="-1668.44"/>
 </text>
 <text x="1829.83" y="-1041.75" style="font-size:12.666;font-family:Bitstream Vera Sans;fill:#ececec;opacity:0.4;fill-opacity:1"><tspan x="1829.83" y="-1041.75"/>
 </text>
 <text x="1853.79" y="-1082.49" style="font-size:12.666;font-family:Bitstream Vera Sans;fill:#ececec;opacity:0.4;fill-opacity:1"><tspan x="1853.79" y="-1082.49"/>
 </text>
 <text x="362.32" y="-1089.7" style="font-size:12.666;font-family:Bitstream Vera Sans;fill:#ececec;opacity:0.4;fill-opacity:1"><tspan x="362.32" y="-1089.7"/>
 </text>
 <text x="1822.87" y="-1362.94" style="font-size:12.666;font-family:Bitstream Vera Sans;fill:#ececec;opacity:0.4;fill-opacity:1"><tspan x="1822.87" y="-1362.94"/>
 </text>
 <text x="-575.49" y="-1137.8" style="font-size:12.666;font-family:Bitstream Vera Sans;fill:#ececec;opacity:0.4;fill-opacity:1"><tspan x="-575.49" y="-1137.8"/>
 </text>
 <text x="-2399.18" y="-392.24" style="font-size:12.666;font-family:Bitstream Vera Sans;fill:#ececec;opacity:0.4;fill-opacity:1"><tspan x="-2399.18" y="-392.24"/>
 </text>
 <text x="-684.42" y="-299.37" style="font-size:12.666;font-family:Bitstream Vera Sans;fill:#ececec;opacity:0.4;fill-opacity:1"><tspan x="-684.42" y="-299.37"/>
 </text>
 <text x="155.59" y="-58.46" style="font-size:12.666;font-family:Bitstream Vera Sans;fill:#ececec;opacity:0.4;fill-opacity:1"><tspan x="155.59" y="-58.46"/>
 </text>
 <text x="179.55" y="-99.2" style="font-size:12.666;font-family:Bitstream Vera Sans;fill:#ececec;opacity:0.4;fill-opacity:1"><tspan x="179.55" y="-99.2"/>
 </text>
 <text x="-1090.26" y="-293.23" style="font-size:12.666;font-family:Bitstream Vera Sans;fill:#ececec;opacity:0.4;fill-opacity:1"><tspan x="-1090.26" y="-293.23"/>
 </text>
 <text x="-282.66" y="-706.7" style="font-size:12.666;font-family:Bitstream Vera Sans;fill:#ececec;opacity:0.4;fill-opacity:1"><tspan x="-282.66" y="-706.7"/>
 </text>
 <text x="-258.7" y="-747.44" style="font-size:12.666;font-family:Bitstream Vera Sans;fill:#ececec;opacity:0.4;fill-opacity:1"><tspan x="-258.7" y="-747.44"/>
 </text>
 <text x="-1750.16" y="-754.65" style="font-size:12.666;font-family:Bitstream Vera Sans;fill:#ececec;opacity:0.4;fill-opacity:1"><tspan x="-1750.16" y="-754.65"/>
 </text>
 <text x="-289.62" y="-1027.88" style="font-size:12.666;font-family:Bitstream Vera Sans;fill:#ececec;opacity:0.4;fill-opacity:1"><tspan x="-289.62" y="-1027.88"/>
 </text>
 <text x="1196.5" y="-401.19" style="font-size:12.666;font-family:Bitstream Vera Sans;fill:#ececec;opacity:0.4;fill-opacity:1"><tspan x="1196.5" y="-401.19"/>
 </text>
 <text x="1220.46" y="-441.93" style="font-size:12.666;font-family:Bitstream Vera Sans;fill:#ececec;opacity:0.4;fill-opacity:1"><tspan x="1220.46" y="-441.93"/>
 </text>
 <text x="-271" y="-449.14" style="font-size:12.666;font-family:Bitstream Vera Sans;fill:#ececec;opacity:0.4;fill-opacity:1"><tspan x="-271" y="-449.14"/>
 </text>
 <text x="1189.54" y="-722.38" style="font-size:12.666;font-family:Bitstream Vera Sans;fill:#ececec;opacity:0.4;fill-opacity:1"><tspan x="1189.54" y="-722.38"/>
 </text>
 <text x="-1208.82" y="-497.23" style="font-size:12.666;font-family:Bitstream Vera Sans;fill:#ececec;opacity:0.4;fill-opacity:1"><tspan x="-1208.82" y="-497.23"/>
 </text>
 <text x="-3032.5" y="248.32" style="font-size:12.666;font-family:Bitstream Vera Sans;fill:#ececec;opacity:0.4;fill-opacity:1"><tspan x="-3032.5" y="248.32"/>
 </text>
 <g style="fill:#ececec;opacity:0.4;fill-opacity:1" transform="matrix(0.90475 0 0 0.90475 -716.75 -707.79)">
  <text x="-664.27" y="1159.42" style="font-size:14;font-family:Bitstream Vera Sans;opacity:0.8"><tspan x="-664.27" y="1159.42"/>
  </text>
 </g>
 <text x="877.23" y="-13.449" style="font-size:12.666;font-family:Bitstream Vera Sans;fill:#ececec;opacity:0.4;fill-opacity:1"><tspan x="877.23" y="-13.449"/>
 </text>
 <text x="901.19" y="-54.19" style="font-size:12.666;font-family:Bitstream Vera Sans;fill:#ececec;opacity:0.4;fill-opacity:1"><tspan x="901.19" y="-54.19"/>
 </text>
 <text x="-569.37" y="-84.27" style="font-size:12.666;font-family:Bitstream Vera Sans;fill:#ececec;opacity:0.4;fill-opacity:1"><tspan x="-569.37" y="-84.27"/>
 </text>
 <text x="-2393.06" y="661.28" style="font-size:12.666;font-family:Bitstream Vera Sans;fill:#ececec;opacity:0.4;fill-opacity:1"><tspan x="-2393.06" y="661.28"/>
 </text>
 <text x="-454.88" y="-469.59" style="font-size:12.666;font-family:Bitstream Vera Sans;fill:#ececec;opacity:0.4;fill-opacity:1"><tspan x="-454.88" y="-469.59"/>
 </text>
 <text x="352.72" y="-883.06" style="font-size:12.666;font-family:Bitstream Vera Sans;fill:#ececec;opacity:0.4;fill-opacity:1"><tspan x="352.72" y="-883.06"/>
 </text>
 <text x="376.68" y="-923.8" style="font-size:12.666;font-family:Bitstream Vera Sans;fill:#ececec;opacity:0.4;fill-opacity:1"><tspan x="376.68" y="-923.8"/>
 </text>
 <text x="-1114.78" y="-931.01" style="font-size:12.666;font-family:Bitstream Vera Sans;fill:#ececec;opacity:0.4;fill-opacity:1"><tspan x="-1114.78" y="-931.01"/>
 </text>
 <text x="345.76" y="-1204.25" style="font-size:12.666;font-family:Bitstream Vera Sans;fill:#ececec;opacity:0.4;fill-opacity:1"><tspan x="345.76" y="-1204.25"/>
 </text>
 <text x="1831.89" y="-577.55" style="font-size:12.666;font-family:Bitstream Vera Sans;fill:#ececec;opacity:0.4;fill-opacity:1"><tspan x="1831.89" y="-577.55"/>
 </text>
 <text x="1855.85" y="-618.3" style="font-size:12.666;font-family:Bitstream Vera Sans;fill:#ececec;opacity:0.4;fill-opacity:1"><tspan x="1855.85" y="-618.3"/>
 </text>
 <text x="364.38" y="-625.51" style="font-size:12.666;font-family:Bitstream Vera Sans;fill:#ececec;opacity:0.4;fill-opacity:1"><tspan x="364.38" y="-625.51"/>
 </text>
 <text x="1824.93" y="-898.74" style="font-size:12.666;font-family:Bitstream Vera Sans;fill:#ececec;opacity:0.4;fill-opacity:1"><tspan x="1824.93" y="-898.74"/>
 </text>
 <text x="-573.43" y="-673.6" style="font-size:12.666;font-family:Bitstream Vera Sans;fill:#ececec;opacity:0.4;fill-opacity:1"><tspan x="-573.43" y="-673.6"/>
 </text>
 <text x="-2397.12" y="71.956" style="font-size:12.666;font-family:Bitstream Vera Sans;fill:#ececec;opacity:0.4;fill-opacity:1"><tspan x="-2397.12" y="71.956"/>
 </text>
 <text x="-682.36" y="164.83" style="font-size:12.666;font-family:Bitstream Vera Sans;fill:#ececec;opacity:0.4;fill-opacity:1"><tspan x="-682.36" y="164.83"/>
 </text>
 <text x="426.66" y="-14.354" style="font-size:12.666;font-family:Bitstream Vera Sans;fill:#ececec;opacity:0.4;fill-opacity:1"><tspan x="426.66" y="-14.354"/>
 </text>
 <text x="450.62" y="-55.1" style="font-size:12.666;font-family:Bitstream Vera Sans;fill:#ececec;opacity:0.4;fill-opacity:1"><tspan x="450.62" y="-55.1"/>
 </text>
 <text x="-1040.84" y="-62.31" style="font-size:12.666;font-family:Bitstream Vera Sans;fill:#ececec;opacity:0.4;fill-opacity:1"><tspan x="-1040.84" y="-62.31"/>
 </text>
 <text x="419.7" y="-335.54" style="font-size:12.666;font-family:Bitstream Vera Sans;fill:#ececec;opacity:0.4;fill-opacity:1"><tspan x="419.7" y="-335.54"/>
 </text>
 <text x="-608.03" y="-65.02" style="font-size:12.666;font-family:Bitstream Vera Sans;fill:#ececec;opacity:0.4;fill-opacity:1"><tspan x="-608.03" y="-65.02"/>
 </text>
 <text x="-2431.72" y="680.53" style="font-size:12.666;font-family:Bitstream Vera Sans;fill:#ececec;opacity:0.4;fill-opacity:1"><tspan x="-2431.72" y="680.53"/>
 </text>
 <text x="-456.94" y="-926.55" style="font-size:12.666;font-family:Bitstream Vera Sans;fill:#ececec;opacity:0.4;fill-opacity:1"><tspan x="-456.94" y="-926.55"/>
 </text>
 <text x="350.66" y="-1340.02" style="font-size:12.666;font-family:Bitstream Vera Sans;fill:#ececec;opacity:0.4;fill-opacity:1"><tspan x="350.66" y="-1340.02"/>
 </text>
 <text x="374.62" y="-1380.76" style="font-size:12.666;font-family:Bitstream Vera Sans;fill:#ececec;opacity:0.4;fill-opacity:1"><tspan x="374.62" y="-1380.76"/>
 </text>
 <text x="-1116.84" y="-1387.97" style="font-size:12.666;font-family:Bitstream Vera Sans;fill:#ececec;opacity:0.4;fill-opacity:1"><tspan x="-1116.84" y="-1387.97"/>
 </text>
 <text x="343.7" y="-1661.21" style="font-size:12.666;font-family:Bitstream Vera Sans;fill:#ececec;opacity:0.4;fill-opacity:1"><tspan x="343.7" y="-1661.21"/>
 </text>
 <text x="1829.83" y="-1034.52" style="font-size:12.666;font-family:Bitstream Vera Sans;fill:#ececec;opacity:0.4;fill-opacity:1"><tspan x="1829.83" y="-1034.52"/>
 </text>
 <text x="1853.79" y="-1075.26" style="font-size:12.666;font-family:Bitstream Vera Sans;fill:#ececec;opacity:0.4;fill-opacity:1"><tspan x="1853.79" y="-1075.26"/>
 </text>
 <text x="362.32" y="-1082.47" style="font-size:12.666;font-family:Bitstream Vera Sans;fill:#ececec;opacity:0.4;fill-opacity:1"><tspan x="362.32" y="-1082.47"/>
 </text>
 <text x="1822.87" y="-1355.7" style="font-size:12.666;font-family:Bitstream Vera Sans;fill:#ececec;opacity:0.4;fill-opacity:1"><tspan x="1822.87" y="-1355.7"/>
 </text>
 <text x="-575.49" y="-1130.56" style="font-size:12.666;font-family:Bitstream Vera Sans;fill:#ececec;opacity:0.4;fill-opacity:1"><tspan x="-575.49" y="-1130.56"/>
 </text>
 <text x="-2399.18" y="-385" style="font-size:12.666;font-family:Bitstream Vera Sans;fill:#ececec;opacity:0.4;fill-opacity:1"><tspan x="-2399.18" y="-385"/>
 </text>
 <text x="-684.42" y="-292.13" style="font-size:12.666;font-family:Bitstream Vera Sans;fill:#ececec;opacity:0.4;fill-opacity:1"><tspan x="-684.42" y="-292.13"/>
 </text>
 <text x="155.59" y="-51.22" style="font-size:12.666;font-family:Bitstream Vera Sans;fill:#ececec;opacity:0.4;fill-opacity:1"><tspan x="155.59" y="-51.22"/>
 </text>
 <text x="179.55" y="-91.96" style="font-size:12.666;font-family:Bitstream Vera Sans;fill:#ececec;opacity:0.4;fill-opacity:1"><tspan x="179.55" y="-91.96"/>
 </text>
 <text x="-1090.26" y="-285.99" style="font-size:12.666;font-family:Bitstream Vera Sans;fill:#ececec;opacity:0.4;fill-opacity:1"><tspan x="-1090.26" y="-285.99"/>
 </text>
 <text x="-282.66" y="-699.46" style="font-size:12.666;font-family:Bitstream Vera Sans;fill:#ececec;opacity:0.4;fill-opacity:1"><tspan x="-282.66" y="-699.46"/>
 </text>
 <text x="-258.7" y="-740.2" style="font-size:12.666;font-family:Bitstream Vera Sans;fill:#ececec;opacity:0.4;fill-opacity:1"><tspan x="-258.7" y="-740.2"/>
 </text>
 <text x="-1750.16" y="-747.41" style="font-size:12.666;font-family:Bitstream Vera Sans;fill:#ececec;opacity:0.4;fill-opacity:1"><tspan x="-1750.16" y="-747.41"/>
 </text>
 <text x="-289.62" y="-1020.64" style="font-size:12.666;font-family:Bitstream Vera Sans;fill:#ececec;opacity:0.4;fill-opacity:1"><tspan x="-289.62" y="-1020.64"/>
 </text>
 <text x="1196.5" y="-393.95" style="font-size:12.666;font-family:Bitstream Vera Sans;fill:#ececec;opacity:0.4;fill-opacity:1"><tspan x="1196.5" y="-393.95"/>
 </text>
 <text x="1220.46" y="-434.69" style="font-size:12.666;font-family:Bitstream Vera Sans;fill:#ececec;opacity:0.4;fill-opacity:1"><tspan x="1220.46" y="-434.69"/>
 </text>
 <text x="-271" y="-441.9" style="font-size:12.666;font-family:Bitstream Vera Sans;fill:#ececec;opacity:0.4;fill-opacity:1"><tspan x="-271" y="-441.9"/>
 </text>
 <text x="1189.54" y="-715.14" style="font-size:12.666;font-family:Bitstream Vera Sans;fill:#ececec;opacity:0.4;fill-opacity:1"><tspan x="1189.54" y="-715.14"/>
 </text>
 <text x="-1208.82" y="-490" style="font-size:12.666;font-family:Bitstream Vera Sans;fill:#ececec;opacity:0.4;fill-opacity:1"><tspan x="-1208.82" y="-490"/>
 </text>
 <text x="-3032.5" y="255.56" style="font-size:12.666;font-family:Bitstream Vera Sans;fill:#ececec;opacity:0.4;fill-opacity:1"><tspan x="-3032.5" y="255.56"/>
 </text>
 <g style="fill:#ececec;opacity:0.4;fill-opacity:1" transform="matrix(0.90475 0 0 0.90475 -716.75 -700.55)">
  <text x="-664.27" y="1159.42" style="font-size:14;font-family:Bitstream Vera Sans;opacity:0.8"><tspan x="-664.27" y="1159.42"/>
  </text>
 </g>
 <text x="435.9" y="-392.73" style="font-size:12.666;font-family:Droid Sans;fill:#ececec;opacity:0.4;fill-opacity:1"><tspan x="435.9" y="-392.73"/><tspan x="435.9" y="-376.89"/>
 </text>
 <text x="901.09" y="-874.77" style="font-size:12.666;font-family:Bitstream Vera Sans;fill:#ececec;opacity:0.4;fill-opacity:1"><tspan x="901.09" y="-874.77"/>
 </text>
 <text x="-922.6" y="-129.22" style="font-size:12.666;font-family:Bitstream Vera Sans;fill:#ececec;opacity:0.4;fill-opacity:1"><tspan x="-922.6" y="-129.22"/>
 </text>
 <text x="1628.17" y="-1159.77" style="font-size:12.666;font-family:Bitstream Vera Sans;fill:#ececec;opacity:0.4;fill-opacity:1"><tspan x="1628.17" y="-1159.77"/>
 </text>
 <text x="1652.13" y="-1200.51" style="font-size:12.666;font-family:Bitstream Vera Sans;fill:#ececec;opacity:0.4;fill-opacity:1"><tspan x="1652.13" y="-1200.51"/>
 </text>
 <text x="160.67" y="-1207.72" style="font-size:12.666;font-family:Bitstream Vera Sans;fill:#ececec;opacity:0.4;fill-opacity:1"><tspan x="160.67" y="-1207.72"/>
 </text>
 <text x="1621.21" y="-1480.95" style="font-size:12.666;font-family:Bitstream Vera Sans;fill:#ececec;opacity:0.4;fill-opacity:1"><tspan x="1621.21" y="-1480.95"/>
 </text>
 <path d="m 2 3 2 0 0 7 -2 0 z m 4 0 8 0 0 10 -2 0 0 -6 -1 0 0 6 -2 0 0 -6 -1 0 0 6 -2 0 z m -4 8 2 0 0 2 -2 0 z" style="fill:#ececec;opacity:1;fill-opacity:1"/>
</svg>
