<svg xmlns="http://www.w3.org/2000/svg" viewBox="0 0 16 16">
 <path d="m 1,8.5 c -0.554,0 -1,0.446 -1,1 L 0,14 c 0,0.554 0.446,1 1,1 l 4.5,0 c 0.554,0 1,-0.446 1,-1 l 0,-4.5 c 0,-0.554 -0.446,-1 -1,-1 z m 1,1 2.5,0 c 0.554,0 1,0.446 1,1 l 0,2.5 c 0,0.554 -0.446,1 -1,1 L 2,14 C 1.446,14 1,13.554 1,13 l 0,-2.5 c 0,-0.554 0.446,-1 1,-1 z" style="fill:#ececec;fill-opacity:1;stroke:none"/>
 <path d="m 8.5 8.5 c -0.554 0 -1 0.446 -1 1 l 0 4.5 c 0 0.554 0.446 1 1 1 l 4.5 0 c 0.554 0 1 -0.446 1 -1 l 0 -4.5 c 0 -0.554 -0.446 -1 -1 -1 z m 1 1 2.5 0 c 0.554 0 1 0.446 1 1 l 0 2.5 c 0 0.554 -0.446 1 -1 1 l -2.5 0 c -0.554 0 -1 -0.446 -1 -1 l 0 -2.5 c 0 -0.554 0.446 -1 1 -1 z" style="fill:#ececec;fill-opacity:1;stroke:none"/>
 <path d="M 1,1 C 0.446,1 0,1.446 0,2 l 0,4.5 c 0,0.554 0.446,1 1,1 l 4.5,0 c 0.554,0 1,-0.446 1,-1 L 6.5,2 C 6.5,1.446 6.054,1 5.5,1 Z m 1,1 2.5,0 c 0.554,0 1,0.446 1,1 l 0,2.5 c 0,0.554 -0.446,1 -1,1 L 2,6.5 C 1.446,6.5 1,6.054 1,5.5 L 1,3 C 1,2.446 1.446,2 2,2 Z" style="fill:#ececec;fill-opacity:1;stroke:none"/>
 <path d="m 8.5,1 c -0.554,0 -1,0.446 -1,1 l 0,4.5 c 0,0.554 0.446,1 1,1 l 4.5,0 c 0.554,0 1,-0.446 1,-1 L 14,2 C 14,1.446 13.554,1 13,1 Z m 1,1 2.5,0 c 0.554,0 1,0.446 1,1 l 0,2.5 c 0,0.554 -0.446,1 -1,1 l -2.5,0 c -0.554,0 -1,-0.446 -1,-1 L 8.5,3 c 0,-0.554 0.446,-1 1,-1 z" style="fill:#ececec;fill-opacity:1;stroke:none"/>
</svg>
