<svg xmlns="http://www.w3.org/2000/svg" viewBox="0 0 16 16">
 <path d="m 5 2 l -2 3 l 4.5 0 l 0 -3 l -2.5 0 z m 3.5 0 l 0 3 l 4.5 0 l -2 -3 l -2.5 0 z m -5.5 4 l 0 7 l 6.879 0 l 0.5 -0.5 l -1.414 -1.414 l 2.121 -2.121 l 1.414 1.414 l 0.5 -0.5 l 0 -3.879 l -10 0 z" style="fill:#c28e5c"/>
 <path d="m 13.914 10.379 -1.414 1.414 -1.414 -1.414 -0.707 0.707 1.414 1.414 -1.414 1.414 0.707 0.707 1.414 -1.414 1.414 1.414 0.707 -0.707 -1.414 -1.414 1.414 -1.414" style="fill:#ee545b;fill-opacity:1"/>
</svg>
