<svg xmlns="http://www.w3.org/2000/svg" viewBox="0 0 16 16">
 <path d="m 5 2 -2 3 4.5 0 0 -3 m 1 0 0 3 4.5 0 -2 -3 m -8 4 0 7 5.529 0 c -0.009 -0.056 -0.029 -0.103 -0.029 -0.166 l 0 -0.666 c 0 -0.535 0.374 -0.832 0.584 -0.939 0.046 -0.024 0.079 -0.013 0.121 -0.029 c -0.045 -0.07 -0.104 -0.109 -0.139 -0.211 -0.079 -0.232 -0.12 -0.756 0.279 -1.121 l 0.467 -0.443 l 0.002 0 c 0.395 -0.372 0.825 -0.3 1.039 -0.234 0.082 0.025 0.119 0.072 0.182 0.105 0.05 -0.023 0.103 -0.038 0.154 -0.059 0.021 -0.06 0.009 -0.112 0.045 -0.178 c 0.115 -0.211 0.416 -0.559 0.928 -0.559 l 0.676 0 c 0.06 0 0.108 0.018 0.162 0.027 l 0 -2.527" style="fill:#c28e5c"/>
 <g transform="matrix(1.3636364,0,0,1.3636364,-84.338625,-21.227761)" style="stroke-dasharray:none;stroke-opacity:1;fill:#4db147;stroke-miterlimit:4;fill-opacity:1;stroke:#000;stroke-width:4.4">
  <g transform="matrix(0.49988464,0,0,0.49988464,-37.411065,7.9950011)" style="stroke-width:8.802">
   <!-- color: #004794 -->
  </g>
 </g>
 <g transform="matrix(0.375,0,0,0.375,21.614258,-3.2705074)" style="fill:#d481e2;fill-opacity:1">
  <path d="m 37.1 30 c -0.103 0 -0.186 0.152 -0.186 0.34 l 0 0.998 c -1.133 0.185 -2.169 0.657 -3.039 1.334 -0.021 -0.029 -0.029 -0.058 -0.059 -0.086 l -0.77 -0.73 c -0.141 -0.133 -0.311 -0.185 -0.383 -0.117 l -1.277 1.209 c -0.074 0.067 -0.018 0.229 0.123 0.361 l 0.77 0.73 c 0.06 0.057 0.126 0.091 0.188 0.115 -0.568 0.814 -0.959 1.758 -1.123 2.775 l -0.986 0 c -0.198 0 -0.357 0.08 -0.357 0.184 l 0 1.777 c 0 0.101 0.16 0.184 0.357 0.184 l 0.988 0 c 0.164 1.016 0.552 1.959 1.119 2.771 -0.061 0.024 -0.126 0.058 -0.186 0.115 l -0.77 0.73 c -0.141 0.133 -0.197 0.294 -0.123 0.361 l 1.277 1.209 c 0.072 0.067 0.242 0.015 0.383 -0.117 l 0.77 -0.73 c 0.029 -0.028 0.037 -0.057 0.059 -0.086 0.87 0.677 1.908 1.141 3.039 1.326 l 0 1.01 c 0 0.187 0.082 0.34 0.186 0.34 l 1.801 0 c 0.103 0 0.186 -0.152 0.186 -0.34 l 0 -1.01 c 1.131 -0.185 2.169 -0.65 3.039 -1.326 0.021 0.029 0.029 0.058 0.059 0.086 l 0.77 0.73 c 0.141 0.133 0.311 0.185 0.383 0.117 l 1.277 -1.209 c 0.074 -0.067 0.018 -0.229 -0.123 -0.361 l -0.77 -0.73 c -0.059 -0.057 -0.124 -0.091 -0.186 -0.115 0.567 -0.813 0.955 -1.755 1.119 -2.771 l 0.988 0 c 0.198 0 0.357 -0.083 0.357 -0.184 l 0 -1.777 c 0 -0.103 -0.16 -0.184 -0.357 -0.184 l -0.988 0 c -0.165 -1.017 -0.565 -1.953 -1.133 -2.766 0.065 -0.023 0.135 -0.064 0.199 -0.125 l 0.77 -0.73 c 0.141 -0.133 0.197 -0.294 0.123 -0.361 l -1.277 -1.209 c -0.072 -0.067 -0.242 -0.015 -0.383 0.117 l -0.77 0.73 c -0.035 0.033 -0.045 0.067 -0.068 0.102 -0.869 -0.675 -1.899 -1.151 -3.03 -1.336 l 0 -1.012 c 0 -0.187 -0.082 -0.34 -0.186 -0.34 l -1.801 0 z m 0.689 3.918 0.006 0 0.004 0 c -0.012 0.001 0.057 0.002 0.201 0.002 2.271 0 4.084 1.811 4.084 4.082 0 2.271 -1.813 4.082 -4.084 4.082 -2.271 0 -4.084 -1.811 -4.084 -4.082 0 -2.199 1.709 -3.974 3.873 -4.084 z m 0.211 2.678 c -0.819 0 -1.484 0.629 -1.484 1.406 0 0.775 0.665 1.404 1.484 1.404 0.819 0 1.484 -0.63 1.484 -1.404 0 -0.777 -0.665 -1.406 -1.484 -1.406 z" transform="translate(-62.304688,4.054688)" mix-blend-mode="normal" isolation="auto" white-space="normal" solid-opacity="1" solid-color="#000000" style="visibility:visible;shape-rendering:auto;color-interpolation-filters:linearRGB;opacity:1;image-rendering:auto;stroke:none;display:inline;color:#000;fill-rule:nonzero;color-rendering:auto;color-interpolation:sRGB"/>
 </g>
</svg>
