<svg xmlns="http://www.w3.org/2000/svg" viewBox="0 0 16 16">
 <path d="m 5 2 l -2 3 l 4.5 0 l 0 -3 l -2.5 0 z m 3.5 0 l 0 3 l 4.5 0 l -2 -3 l -2.5 0 z m -5.5 4 l 0 7 l 5.553 0 c -0.148 -1.185 0.215 -2.425 1.119 -3.328 c 0.777 -0.777 1.806 -1.172 2.828 -1.172 c 0.167 0 0.333 0.028 0.5 0.049 l 0 -2.549 l -10 0 z" style="fill:#c28e5c"/>
 <g transform="matrix(0.15,0,0,0.15,8.9000002,8.9000001)" style="fill:#ee545b;fill-opacity:1">
  <path d="m 24.5 21 c -1.152 0 -2.303 0.439 -3.182 1.318 -1.758 1.757 -1.758 4.606 0 6.363 1.757 1.758 4.606 1.758 6.363 0 1.758 -1.757 1.758 -4.606 0 -6.363 c -0.878 -0.879 -2.03 -1.318 -3.182 -1.318 m 0 1.35 c 0.592 0 1.181 0.169 1.697 0.5 l -4.348 4.348 c -0.783 -1.219 -0.643 -2.858 0.424 -3.924 0.615 -0.615 1.42 -0.924 2.227 -0.924 m 2.65 1.453 c 0.783 1.219 0.643 2.858 -0.424 3.924 -1.066 1.067 -2.705 1.206 -3.924 0.424 l 4.348 -4.348 z" transform="matrix(4.4444444,0,0,4.4444444,-84.888889,-89.333333)"/>
 </g>
</svg>
