<svg xmlns="http://www.w3.org/2000/svg" viewBox="0 0 16 16">
 <g transform="translate(-181.0002,-257)" style="display:inline">
  <path d="m 8 0 l -2.268 3.434 l -3.465 -1.166 l 1.166 3.465 l -3.434 2.268 l 3.434 2.268 l -1.166 3.465 l 3.465 -1.166 l 2.268 3.434 l 2.268 -3.434 l 3.465 1.166 l -1.166 -3.465 l 3.434 -2.268 l -3.434 -2.268 l 1.166 -3.465 l -3.465 1.166 l -2.268 -3.434 z m 0 4.5 l 3 3 l 0.023 1.508 l -1.523 -0.008 l -0.5 -0.5 l 0 2.5 l -2 0 l 0 -2.5 l -0.699 0.5 l -1.324 0.008 l 0.023 -1.508 l 3 -3 z" transform="translate(181.0002,257)" style="fill:#ececec;fill-opacity:1;stroke:none;fill-rule:evenodd"/>
 </g>
</svg>
