<svg xmlns="http://www.w3.org/2000/svg" viewBox="0 0 16 16">
 <path d="m 10.449 2.398 c -1.133 -0.023 -2.469 0.277 -3.812 0.934 c -1.863 0.91 -3.258 2.332 -3.895 3.875 c -0.176 -0.078 -0.367 -0.184 -0.563 -0.313 c -0.918 -0.602 -1.418 -1.5 -1.418 -1.5 c 0 0 -0.238 1.789 0.523 2.875 c 0.391 0.563 0.797 0.918 1.102 1.125 c 0.043 0.496 0.164 0.984 0.395 1.457 c 1.313 2.688 5.063 3.555 8.375 1.938 c 2.277 -1.109 2.816 -2.848 2.75 -5.04 c 0.148 -0.102 0.27 -0.199 0.375 -0.313 c 0.059 0.02 0.125 0.039 0.164 0.063 c 0.398 0.254 0.5 0.75 0.5 0.75 c 0 0 0.586 -1.227 0.188 -2.27 c -0.277 -0.738 -0.988 -1.063 -1.539 -1.148 c -0.02 -0.109 -0.023 -0.219 -0.043 -0.332 c -0.215 -1.344 -1.445 -2.074 -3.102 -2.102 m -6.04 0.645 c 0 0 -0.68 0.5 -0.957 1.25 c 0 0 0.332 0.625 0.332 0.625 c 0 0 0.082 -0.121 0.543 -0.398 c -0.086 -0.766 0.082 -1.477 0.082 -1.477 m 6.07 0.141 c 0.559 0 0.855 0.387 0.855 0.887 c 0 0.5 -0.328 0.824 -0.855 0.824 c -0.523 0 -0.895 -0.227 -0.895 -0.855 c 0 -0.629 0.34 -0.855 0.895 -0.855 m -7.984 0.422 c 0 0 -0.707 1.016 -0.73 2.164 c 0 0.008 0.77 0.688 0.77 0.688 c 0 0 0.063 -0.238 0.586 -0.852 c -0.5 -0.98 -0.625 -2 -0.625 -2 m 9.871 1.039 c 0.027 0 0.023 0 0.043 0 c -0.156 0.047 -0.492 0.23 -0.707 0.855 c -0.191 0.551 -0.125 0.957 -0.125 0.957 c 0 0 -0.762 0.469 -0.793 1.398 c -0.02 0.445 0.145 0.937 1.188 0.875 c 0.355 0.031 1.582 -0.586 1.582 -0.586 c 0 0 -1.551 1.375 -2.738 1.074 c -0.906 -0.23 -0.91 -0.918 -0.938 -1.227 c -0.063 -0.73 0.813 -1.523 0.813 -1.523 c 0 0 -0.07 -0.852 0.262 -1.246 c 0.648 -0.809 1.184 -0.543 1.414 -0.578 Z" style="fill:#54cdee;fill-opacity:1"/>
</svg>
