<svg xmlns="http://www.w3.org/2000/svg" viewBox="0 0 16 16">
 <path style="fill:#ececec;opacity:1;fill-opacity:1;stroke:none;fill-rule:nonzero" d="m 8 1 c -1.036 0 -2.072 0.267 -3 0.803 c -1.855 1.071 -3 3.055 -3 5.197 l 0 1 l 0 0.156 c 0.094 0.004 0.207 0.051 0.355 0.199 c 0.806 0.806 4.838 4.03 5.645 4.03 c 0.806 0 4.838 -3.225 5.645 -4.03 c 0.149 -0.149 0.262 -0.195 0.355 -0.199 l 0 -0.156 l 0 -1 c 0 -2.142 -1.145 -4.126 -3 -5.197 c -0.928 -0.536 -1.964 -0.803 -3 -0.803 z m 0 1.998 c 0.69 0 1.381 0.179 2 0.537 c 1.239 0.715 2 2.034 2 3.465 l -8 0 c 0 -1.431 0.761 -2.749 2 -3.465 c 0.619 -0.358 1.31 -0.537 2 -0.537 z m -6 6.459 l 0 4.543 c 0 0.554 0.446 1 1 1 l 10 0 c 0.554 0 1 -0.446 1 -1 l 0 -4.543 c -0.094 0.183 -0.207 0.361 -0.355 0.51 c -0.806 0.806 -4.838 4.03 -5.645 4.03 c -0.806 0 -4.838 -3.227 -5.645 -4.03 c -0.149 -0.149 -0.262 -0.326 -0.355 -0.51 z"/>
</svg>
