<svg xmlns="http://www.w3.org/2000/svg" viewBox="0 0 16 16">
 <rect width="3" height="10" x="1" y="3" rx="0.375" ry="0.357" style="fill:#353535;opacity:1;fill-opacity:1;stroke:none;fill-rule:nonzero"/>
 <path d="m 6.365 3 c -0.203 0 -0.365 0.272 -0.365 0.611 l 0 8.777 c 0 0.339 0.162 0.611 0.365 0.611 l 3.727 0 a 4.909 5 0 0 0 4.908 -5 a 4.909 5 0 0 0 -4.908 -5 l -3.727 0 z m 3.68 2 c 1.257 0 2.382 0.711 2.881 1.807 l 0.666 -0.256 l -0.547 1.893 l -1.807 -1.01 l 0.699 -0.273 c -0.339 -0.715 -1.066 -1.158 -1.893 -1.158 c -0.858 0 -1.634 0.511 -1.943 1.277 l -0.971 -0.375 c 0.461 -1.147 1.627 -1.908 2.914 -1.908 z m -3 2.574 l 1.807 0.971 l -0.697 0.273 c 0.335 0.712 1.07 1.176 1.891 1.176 c 0.859 0 1.625 -0.497 1.943 -1.262 l 0.973 0.375 c -0.478 1.147 -1.626 1.893 -2.916 1.893 c -1.25 0 -2.393 -0.731 -2.881 -1.824 l -0.664 0.238 l 0.545 -1.84 z" style="fill:#353535;opacity:1;fill-opacity:1;stroke:none;fill-rule:nonzero"/>
 <g transform="translate(9.1777345,3.4375002)">
  <g transform="matrix(0.49988464,0,0,0.49988464,-37.411065,7.9950011)">
   <!-- color: #004794 -->
  </g>
 </g>
</svg>
