<svg xmlns="http://www.w3.org/2000/svg" viewBox="0 0 16 16">
 <rect width="3" height="10" x="1" y="3" rx="0.375" ry="0.357" style="fill:#353535;opacity:1;fill-opacity:1;stroke:none;fill-rule:nonzero"/>
 <path d="m 6.365 3 c -0.203 0 -0.365 0.272 -0.365 0.611 l 0 8.777 c 0 0.339 0.162 0.611 0.365 0.611 l 3.727 0 a 4.909 5 0 0 0 4.908 -5 a 4.909 5 0 0 0 -4.908 -5 l -3.727 0 z m 2.266 1.455 l 1.84 0.545 l -0.971 1.807 l -0.273 -0.699 c -0.712 0.335 -1.176 1.072 -1.176 1.893 c 0 0.859 0.497 1.625 1.262 1.943 l -0.375 0.971 c -1.147 -0.478 -1.893 -1.624 -1.893 -2.914 c 0 -1.25 0.731 -2.393 1.824 -2.881 l -0.238 -0.664 z m 2.506 0.631 c 1.147 0.461 1.908 1.627 1.908 2.914 c 0 1.257 -0.711 2.382 -1.807 2.881 l 0.256 0.664 l -1.893 -0.545 l 1.01 -1.807 l 0.273 0.699 c 0.715 -0.339 1.158 -1.066 1.158 -1.893 c 0 -0.858 -0.511 -1.634 -1.277 -1.943 l 0.375 -0.971 z" style="fill:#353535;opacity:1;fill-opacity:1;stroke:none;fill-rule:nonzero"/>
 <g transform="translate(9.1777345,3.4375002)">
  <g transform="matrix(0.49988464,0,0,0.49988464,-37.411065,7.9950011)">
   <!-- color: #004794 -->
  </g>
 </g>
</svg>
