<svg xmlns="http://www.w3.org/2000/svg" width="16" viewBox="0 0 4.5155556 4.5155556" height="16">
 <path d="m 2.112 0.634 c -0.31 0.026 -0.613 0.078 -0.795 0.145 -0.363 0.134 -0.422 0.142 -0.394 0.274 0.126 0.197 0.191 0.42 0.306 0.624 0.034 0.026 0.074 0.04 0.133 0.014 0.483 -0.198 0.982 -0.295 1.678 -0.126 0.193 -0.131 0.271 -0.467 0.325 -0.68 0.031 -0.121 -0.01 -0.158 -0.423 -0.238 -0.206 -0.04 -0.522 -0.04 -0.831 -0.014 m -0.727 0.424 c 0.038 -0.003 0.071 0.026 0.074 0.065 0.003 0.039 -0.025 0.073 -0.063 0.076 -0.038 0.003 -0.071 -0.026 -0.074 -0.065 -0.003 -0.039 0.025 -0.073 0.063 -0.076 z m 1.515 -0.12 c 0.038 -0.003 0.071 0.026 0.074 0.065 0.003 0.039 -0.025 0.073 -0.063 0.076 -0.038 0.003 -0.071 -0.026 -0.074 -0.065 -0.003 -0.039 0.025 -0.073 0.063 -0.076 z" style="fill:#ececec;fill-opacity:1"/>
 <path d="m 2.258 1.026 c -0.794 0 -1.437 0.643 -1.437 1.437 0 0.794 0.643 1.437 1.437 1.437 0.794 0 1.437 -0.643 1.437 -1.437 0 -0.794 -0.643 -1.437 -1.437 -1.437 z m 0 0.988 c 0.247 0 0.449 0.202 0.449 0.449 0 0.247 -0.202 0.449 -0.449 0.449 -0.247 0 -0.449 -0.202 -0.449 -0.449 0 -0.247 0.202 -0.449 0.449 -0.449 z m 0 0.09 c -0.199 0 -0.359 0.16 -0.359 0.359 0 0.199 0.16 0.359 0.359 0.359 0.199 0 0.359 -0.16 0.359 -0.359 0 -0.199 -0.16 -0.359 -0.359 -0.359 z m 0 0.135 c 0.124 0 0.224 0.101 0.224 0.224 0 0.124 -0.101 0.224 -0.224 0.224 -0.124 0 -0.224 -0.101 -0.224 -0.224 0 -0.124 0.101 -0.224 0.224 -0.224 z" style="fill:#ececec;fill-opacity:1"/>
</svg>
