<svg xmlns="http://www.w3.org/2000/svg" viewBox="0 0 16 16">
 <path d="m 10.732 2.686 c 1.048 0.55 1.7 1.367 1.626 1.968 l -4.278 -2.243 c -0.013 -0.006 -0.026 -0.012 -0.04 -0.019 0.536 -0.36 1.642 -0.257 2.691 0.294 z" style="fill:#ececec;fill-opacity:1;fill-rule:evenodd"/>
 <rect transform="matrix(-0.88564913,-0.46435505,-0.53650623,0.84389636,0,0)" height="7.377" rx="0.756" y="-1.383" x="-13.01" width="1.512" ry="0.83" style="fill:#ececec;fill-opacity:1;fill-rule:evenodd"/>
 <rect transform="matrix(-0.88564913,-0.46435505,-0.53650623,0.84389636,0,0)" height="7.377" rx="0.756" y="-1.383" x="-11.292" width="1.512" ry="0.83" style="fill:#ececec;fill-opacity:1;fill-rule:evenodd"/>
 <rect transform="matrix(-0.88564913,-0.46435505,-0.53650623,0.84389636,0,0)" height="7.377" rx="0.756" y="-1.383" x="-9.569" width="1.512" ry="0.83" style="fill:#ececec;fill-opacity:1;fill-rule:evenodd"/>
 <path d="m 8.153 11.334 c 0.003 -0.095 -4.266 -2.332 -4.356 -2.282 -0.09 0.05 -0.218 4.72 -0.131 4.765 0.087 0.046 4.485 -2.388 4.487 -2.484 z" style="fill:#ececec;fill-opacity:1;fill-rule:evenodd"/>
</svg>
