<svg xmlns="http://www.w3.org/2000/svg" viewBox="0 0 16 16">
 <path d="m 5.887 5.523 c -2.152 0 -3.887 1.734 -3.887 3.887 0 0.086 -0.004 0.184 0 0.273 c -0.758 0.363 -1.273 1.105 -1.273 1.953 0 1.215 1.055 2.18 2.363 2.18 l 9.82 0 c 1.309 0 2.363 -0.965 2.363 -2.18 0 -0.902 -0.574 -1.688 -1.41 -2.023 0.02 -0.137 0.023 -0.266 0.023 -0.41 0 -1.539 -1.254 -2.793 -2.797 -2.793 -0.773 0 -1.469 0.309 -1.977 0.816 c -0.699 -1.031 -1.887 -1.703 -3.227 -1.703 z m -1.613 1.18 c 0.422 0 0.773 0.328 0.773 0.73 0 0.398 -0.352 0.727 -0.773 0.727 -0.422 0 -0.75 -0.328 -0.75 -0.727 0 -0.402 0.328 -0.73 0.75 -0.73 z m 3.703 0.57 2.207 3.203 -1.344 0 0 2.613 -1.773 0 0 -2.613 -1.25 0 z" style="fill:#ececec;fill-opacity:1"/>
 <path d="m 12.645 6.352 -0.293 -0.277 -0.391 0.086 0.172 -0.363 -0.203 -0.348 0.398 0.051 0.27 -0.301 0.074 0.398 0.367 0.16 -0.352 0.195 z" style="fill:#ececec;fill-opacity:1"/>
 <path d="m 12.969 5.617 0.016 -0.188 -0.148 -0.121 0.184 -0.043 0.07 -0.176 0.098 0.164 0.188 0.008 -0.121 0.145 0.047 0.18 l -0.176 -0.07 z" style="fill:#ececec;fill-opacity:1"/>
 <path d="m 13.145 6.711 -0.035 -0.285 -0.258 -0.133 0.262 -0.125 0.047 -0.281 0.195 0.211 0.285 -0.043 -0.137 0.25 0.125 0.258 -0.281 -0.055 z" style="fill:#ececec;fill-opacity:1"/>
</svg>
