<svg xmlns="http://www.w3.org/2000/svg" viewBox="0 0 16 16">
 <path d="m 5.887 5.52 c -2.152 0 -3.898 1.746 -3.898 3.898 0 0.086 0.004 0.176 0.012 0.262 -0.758 0.363 -1.273 1.098 -1.273 1.945 0 1.215 1.055 2.191 2.367 2.191 l 9.813 0 c 1.309 0 2.367 -0.977 2.367 -2.191 0 -0.902 -0.586 -1.676 -1.422 -2.01 0.02 -0.137 0.031 -0.277 0.031 -0.418 0 -1.543 -1.25 -2.793 -2.793 -2.793 -0.773 0 -1.473 0.316 -1.98 0.824 c -0.699 -1.031 -1.883 -1.707 -3.223 -1.707 z m -1.613 1.188 c 0.422 0 0.762 0.324 0.762 0.727 0 0.402 -0.34 0.73 -0.762 0.73 -0.422 0 -0.762 -0.328 -0.762 -0.73 0 -0.402 0.34 -0.727 0.762 -0.727 z m 3.727 1.082 c 1.379 0 2.508 1.129 2.508 2.512 0 1.379 -1.129 2.512 -2.508 2.512 -1.379 0 -2.508 -1.133 -2.508 -2.512 c 0 -1.383 1.129 -2.512 2.508 -2.512 z m 0 1.078 c -0.797 0 -1.43 0.633 -1.43 1.434 0 0.797 0.633 1.434 1.43 1.434 0.797 0 1.43 -0.637 1.43 -1.434 c 0 -0.801 -0.633 -1.434 -1.43 -1.434 z" style="fill:#ececec;fill-opacity:1"/>
 <path d="m 12.645 6.352 -0.293 -0.277 -0.391 0.086 0.172 -0.363 -0.203 -0.348 0.398 0.051 0.27 -0.301 0.074 0.398 0.367 0.16 -0.352 0.195 z" style="fill:#ececec;fill-opacity:1"/>
 <path d="m 12.969 5.617 0.016 -0.188 -0.148 -0.121 0.184 -0.043 0.07 -0.176 0.098 0.164 0.188 0.008 l -0.125 0.145 0.051 0.184 -0.176 -0.074 z" style="fill:#ececec;fill-opacity:1"/>
 <path d="m 13.145 6.711 -0.039 -0.285 -0.254 -0.133 0.262 -0.121 0.047 -0.285 0.195 0.211 0.285 -0.043 -0.141 0.25 0.129 0.258 -0.281 -0.055 z" style="fill:#ececec;fill-opacity:1"/>
</svg>
