<svg xmlns="http://www.w3.org/2000/svg" viewBox="0 0 16 16">
 <path d="m 4.873 0.891 c -2.139 0 -3.873 1.736 -3.873 3.878 0 0.716 0.194 1.386 0.531 1.962 -0.089 0.434 -0.135 0.884 -0.135 1.345 c 0 3.693 2.991 6.686 6.679 6.686 0.418 0 0.826 -0.038 1.222 -0.111 0.545 0.293 1.168 0.46 1.83 0.46 2.139 0 3.873 -1.736 3.873 -3.878 0 -0.619 -0.146 -1.204 -0.403 -1.723 0.101 -0.462 0.156 -0.941 0.156 -1.434 0 -3.693 -2.989 -6.687 -6.677 -6.687 -0.389 0 -0.772 0.033 -1.143 0.097 c -0.597 -0.376 -1.302 -0.595 -2.059 -0.595 m 3.254 3.608 c 1.145 0.042 2.187 0.645 2.803 1.591 l 1.215 -0.405 -1.376 2.753 -2.751 -1.377 1.118 -0.373 c -0.296 -0.257 -0.666 -0.424 -1.073 -0.439 -0.65 -0.024 -1.256 0.31 -1.581 0.873 l -1.516 -0.875 c 0.648 -1.122 1.867 -1.796 3.162 -1.748 m -2.898 3.061 2.751 1.377 -1.118 0.373 c 0.296 0.257 0.666 0.424 1.073 0.439 0.65 0.024 1.256 -0.31 1.581 -0.873 l 1.516 0.875 c -0.648 1.122 -1.867 1.796 -3.162 1.748 -1.145 -0.042 -2.187 -0.645 -2.803 -1.591 l -1.215 0.405 1.376 -2.753" style="fill:#ececec;opacity:1;fill-opacity:1;stroke:none;fill-rule:nonzero"/>
 <g transform="matrix(0.42297932,0,0,0.42297932,-11.083711,-2.8054484)">
  <!-- color: #004794 -->
 </g>
</svg>
