<svg viewBox="0 0 16 16" xmlns="http://www.w3.org/2000/svg">
 <g style="fill:#ef555c;fill-opacity:1;stroke:none" transform="matrix(0.0602 0 0 0.0628 -12.88 0.203)">
  <path d="M 10.188,4 C 9.221,4 8.4,4.589 8,5.438 7.77,5.243 7.476,5.125 7.156,5.125 6.417,5.125 5.812,5.76 5.812,6.531 5.812,6.83 5.909,7.116 6.062,7.344 5.544,7.688 5.158,8.222 4.968,8.844 4.876,8.833 4.782,8.813 4.687,8.813 c -1.354,0 -2.438,1.149 -2.438,2.563 0,1.413 1.083,2.563 2.438,2.563 0.577,0 1.112,-0.214 1.531,-0.563 0.256,0.347 0.641,0.594 1.094,0.594 0.623,0 1.13,-0.445 1.313,-1.031 0.609,0.62 1.457,1 2.375,1 0.902,0 1.706,-0.368 2.313,-0.969 0.486,0.624 1.231,1.031 2.063,1.031 0.717,0 1.367,-0.299 1.844,-0.781 0.255,0.368 0.657,0.594 1.125,0.594 0.775,0 1.406,-0.629 1.406,-1.438 0,-0.808 -0.632,-1.469 -1.406,-1.469 -0.12,0 -0.233,0.002 -0.344,0.031 -0.143,-1.387 -1.258,-2.469 -2.625,-2.469 -0.011,0 -0.021,0 -0.031,0 C 15.299,7.099 14.201,6 12.876,6 12.78,6 12.687,6.02 12.595,6.031 12.366,4.865 11.374,4 10.189,4 Z" transform="matrix(15.18617 0 0 14.5561 179.8 -15.961)"/>
 </g>
</svg>
