<svg xmlns="http://www.w3.org/2000/svg" viewBox="0 0 16 16">
 <g transform="translate(0,-112)">
  <path d="m 8.609 115.27 c -0.412 0.001 -0.869 0.034 -1.371 0.099 -0.566 0.073 -1.196 0.184 -1.888 0.334 -0.619 0.142 -1.206 0.298 -1.762 0.468 -0.546 0.166 -1.065 0.353 -1.558 0.559 -0.986 0.405 -1.495 0.738 -1.526 0.997 -0.031 0.268 0.205 0.42 0.708 0.456 0.262 0.02 0.577 0.009 0.944 -0.036 0.126 -0.012 0.783 -0.098 0.783 -0.118 0 -0.024 0 0 -0.475 -0.18 -0.169 -0.064 -0.202 -0.061 -0.298 -0.105 -0.051 -0.023 -0.117 -0.034 -0.146 -0.083 -0.014 -0.023 -0.034 -0.049 -0.002 -0.082 0.24 -0.248 1.741 -0.744 2.072 -0.84 0.556 -0.162 0.577 -0.161 1.238 -0.311 1.311 -0.284 2.02 -0.46 2.741 -0.444 0.766 0.024 0.98 0.02 0.98 0.357 -0.023 0.166 -0.101 0.243 -0.18 0.349 -0.451 0.551 -1.609 1.204 -4.159 2.825 -0.021 0.02 -0.042 0.039 -0.063 0.055 -0.011 0.012 -0.016 0.024 -0.016 0.036 0 0.045 1.323 0.309 1.459 0.309 0.147 0 0.278 -0.032 0.393 -0.097 0.157 -0.101 0.378 -0.227 0.661 -0.377 0.294 -0.15 0.452 -0.245 0.882 -0.455 0.514 -0.251 1.028 -0.486 1.542 -0.705 0.514 -0.219 1.039 -0.428 1.574 -0.626 1.322 -0.474 1.465 -0.507 2.053 -0.631 0.293 -0.062 0.319 -0.067 0.477 -0.067 0.241 0 0.325 0.004 0.362 0.128 0.028 0.093 -0.058 0.146 -0.173 0.231 0 0 -1.268 0.813 -1.87 1.266 -0.239 0.18 -0.467 0.376 -0.69 0.576 -0.265 0.238 -0.52 0.488 -0.771 0.742 -0.269 0.271 -0.525 0.549 -0.787 0.833 -0.262 0.288 -0.498 0.555 -0.708 0.803 -0.21 0.251 -0.383 0.468 -0.519 0.651 -0.119 0.176 -0.186 0.298 -0.202 0.366 -0.56 0.276 -1.675 0.745 -2.86 2.176 1.999 -0.919 2.061 -1.066 3.147 -1.564 0.172 0.156 0.171 0.156 0.172 0.156 0.17 0.128 0.381 0.13 0.579 0.129 0.431 -0.003 0.703 -0.128 1.259 -0.298 0.495 -0.156 1.01 -0.355 1.646 -0.694 4.437 -2.353 0.445 -1.834 -3.01 -0.129 0.006 -0.062 0.035 -0.139 0.086 -0.231 0.115 -0.182 0.283 -0.399 0.504 -0.651 0.231 -0.251 0.498 -0.523 0.803 -0.815 0.315 -0.288 0.626 -0.568 0.944 -0.845 0.296 -0.257 0.591 -0.515 0.897 -0.76 0.236 -0.189 0.48 -0.368 0.724 -0.547 0.369 -0.271 0.74 -0.536 1.117 -0.797 0.379 -0.262 0.853 -0.432 1.133 -0.803 0.028 -0.038 0.044 -0.087 0.047 -0.134 0.004 -0.056 -0.004 -0.116 -0.031 -0.164 -0.056 -0.096 -0.156 -0.161 -0.252 -0.214 -0.101 -0.057 -0.216 -0.088 -0.33 -0.108 -0.124 -0.022 -0.231 -0.024 -0.378 -0.012 -0.923 0.057 -2.234 0.407 -3.934 1.052 -0.629 0.235 -1.206 0.462 -1.731 0.681 -0.514 0.219 -0.986 0.434 -1.416 0.645 -0.094 0.065 -0.178 0.097 -0.252 0.097 -0.042 0 -0.063 -0.009 -0.063 -0.024 0 -0.028 0.037 -0.065 0.11 -0.109 0.839 -0.543 1.495 -1 1.967 -1.374 0.483 -0.377 0.797 -0.675 0.944 -0.894 0.052 -0.093 0.079 -0.186 0.079 -0.28 0 -0.215 -0.121 -0.387 -0.362 -0.517 -0.262 -0.158 -0.624 -0.241 -1.086 -0.249 -0.051 -0.001 -0.103 -0.001 -0.156 -0.001 z m 4.194 6.15 c 0.243 0.002 0.044 0.313 -0.961 0.725 -0.728 0.298 -1.545 0.622 -2.323 0.636 -0.136 0 -0.216 -0.04 -0.243 -0.119 1.713 -0.761 3.161 -1.246 3.526 -1.242 z" style="fill:#3370d0;fill-opacity:1;stroke:none;fill-rule:evenodd"/>
 </g>
</svg>
