<svg xmlns="http://www.w3.org/2000/svg" viewBox="0 0 16 16">
 <g transform="translate(0,-112)">
  <path d="m 8.609 3.271 c -0.412 0.001 -0.869 0.035 -1.371 0.1 c -0.566 0.073 -1.196 0.184 -1.889 0.334 c -0.619 0.142 -1.206 0.298 -1.762 0.469 c -0.546 0.166 -1.066 0.352 -1.559 0.559 c -0.986 0.405 -1.496 0.739 -1.527 0.998 c -0.031 0.268 0.205 0.419 0.709 0.455 c 0.262 0.02 0.576 0.01 0.943 -0.035 c 0.126 -0.012 0.783 -0.099 0.783 -0.119 c 0 -0.024 0.001 0.001 -0.475 -0.18 c -0.169 -0.064 -0.203 -0.062 -0.299 -0.105 c -0.051 -0.023 -0.116 -0.034 -0.145 -0.082 c -0.014 -0.023 -0.033 -0.05 -0.002 -0.082 c 0.24 -0.248 1.741 -0.744 2.072 -0.84 c 0.556 -0.162 0.575 -0.161 1.236 -0.311 c 1.311 -0.284 2.02 -0.462 2.742 -0.445 c 0.766 0.024 0.979 0.021 0.979 0.357 c -0.023 0.166 -0.101 0.244 -0.18 0.35 c -0.451 0.551 -1.609 1.203 -4.158 2.824 c -0.021 0.02 -0.042 0.039 -0.063 0.055 c -0.011 0.012 -0.016 0.025 -0.016 0.037 c 0 0.045 1.323 0.309 1.459 0.309 c 0.147 0 0.277 -0.033 0.393 -0.098 c 0.157 -0.101 0.377 -0.227 0.66 -0.377 c 0.294 -0.15 0.453 -0.244 0.883 -0.455 c 0.514 -0.251 1.029 -0.486 1.543 -0.705 c 0.514 -0.219 1.037 -0.428 1.572 -0.627 c 1.322 -0.474 1.465 -0.506 2.053 -0.631 c 0.293 -0.062 0.319 -0.066 0.477 -0.066 c 0.241 0 0.326 0.003 0.363 0.127 c 0.028 0.093 -0.058 0.145 -0.174 0.23 c 0 0 -1.267 0.813 -1.869 1.266 c -0.054 0.041 -0.103 0.089 -0.156 0.131 l 0.465 0.465 c 0.06 -0.05 0.118 -0.103 0.18 -0.152 c 0.236 -0.189 0.479 -0.368 0.723 -0.547 c 0.369 -0.271 0.74 -0.536 1.117 -0.797 c 0.379 -0.262 0.853 -0.432 1.133 -0.803 c 0.028 -0.038 0.043 -0.088 0.047 -0.135 c 0.004 -0.056 -0.003 -0.116 -0.031 -0.164 c -0.056 -0.096 -0.156 -0.161 -0.252 -0.215 c -0.101 -0.057 -0.216 -0.087 -0.33 -0.107 c -0.124 -0.022 -0.23 -0.024 -0.377 -0.012 c -0.923 0.057 -2.234 0.408 -3.934 1.053 c -0.629 0.235 -1.208 0.461 -1.732 0.68 c -0.514 0.219 -0.986 0.434 -1.416 0.645 c -0.094 0.065 -0.179 0.098 -0.252 0.098 c -0.042 0 -0.063 -0.008 -0.063 -0.023 c 0 -0.028 0.038 -0.065 0.111 -0.109 c 0.839 -0.543 1.495 -1 1.967 -1.375 c 0.483 -0.377 0.796 -0.676 0.943 -0.895 c 0.052 -0.093 0.078 -0.186 0.078 -0.279 c 0 -0.215 -0.12 -0.388 -0.361 -0.518 c -0.262 -0.158 -0.624 -0.24 -1.086 -0.248 c -0.051 -0.001 -0.102 -0.002 -0.154 -0.002 z m 1.072 5.531 c -0.236 0.26 -0.457 0.508 -0.648 0.734 c -0.21 0.251 -0.383 0.468 -0.52 0.65 c -0.119 0.176 -0.185 0.298 -0.201 0.365 c -0.56 0.276 -1.675 0.745 -2.859 2.176 c 1.999 -0.919 2.061 -1.066 3.146 -1.564 c 0.172 0.156 0.171 0.156 0.172 0.156 c 0.17 0.128 0.381 0.13 0.578 0.129 c 0.048 0 0.086 -0.016 0.131 -0.02 l -0.137 -0.137 l 0.549 -0.549 c -0.125 0.016 -0.25 0.037 -0.373 0.039 c -0.136 0 -0.216 -0.04 -0.242 -0.119 c 0.421 -0.187 0.826 -0.357 1.203 -0.508 l 0.277 -0.277 l -0.154 -0.154 c -0.45 0.179 -0.908 0.381 -1.359 0.604 c 0.006 -0.062 0.034 -0.141 0.086 -0.232 c 0.115 -0.182 0.284 -0.399 0.504 -0.65 c 0.07 -0.076 0.167 -0.166 0.244 -0.246 l -0.396 -0.396 z" transform="translate(0,112)" style="fill:#3370d0;fill-opacity:1;stroke:none;fill-rule:evenodd"/>
  <path d="m 14.293 119.76 -1.414 1.414 -1.414 -1.414 -0.707 0.707 1.414 1.414 l -1.414 1.414 0.707 0.707 1.414 -1.414 1.414 1.414 l 0.707 -0.707 -1.414 -1.414 1.414 -1.414 z" style="fill:#ee545b;fill-opacity:1"/>
 </g>
</svg>
