<svg viewBox="0 0 16 16" xmlns="http://www.w3.org/2000/svg">
 <path d="m 8 0 -8 8 8 8 8 -8 -8 -8 z m -0.387 5.111 c 0.526 0 0.981 0.037 1.363 0.111 0.382 0.069 0.698 0.171 0.946 0.304 0.249 0.128 0.435 0.283 0.559 0.464 0.124 0.176 0.186 0.367 0.186 0.575 0 0.287 -0.148 0.534 -0.444 0.741 -0.296 0.202 -0.654 0.357 -1.075 0.464 0.258 0.043 0.506 0.102 0.745 0.182 0.239 0.08 0.444 0.181 0.616 0.304 0.182 0.122 0.325 0.264 0.431 0.424 0.115 0.16 0.172 0.338 0.172 0.535 0 0.239 -0.076 0.463 -0.229 0.67 -0.143 0.202 -0.374 0.377 -0.689 0.526 -0.306 0.149 -0.691 0.266 -1.16 0.351 -0.468 0.085 -1.023 0.128 -1.663 0.128 -0.249 0 -0.507 -0.01 -0.774 -0.031 -0.258 -0.021 -0.502 -0.048 -0.731 -0.08 -0.229 -0.032 -0.43 -0.065 -0.602 -0.097 -0.172 -0.032 -0.297 -0.057 -0.373 -0.078 l 0.259 -0.648 c 0.162 0.043 0.429 0.099 0.802 0.168 0.382 0.069 0.846 0.102 1.391 0.102 0.851 0 1.458 -0.092 1.821 -0.278 0.373 -0.186 0.559 -0.436 0.559 -0.75 0 -0.202 -0.076 -0.374 -0.229 -0.512 c -0.153 -0.138 -0.354 -0.247 -0.602 -0.326 -0.249 -0.085 -0.54 -0.143 -0.875 -0.175 -0.325 -0.037 -0.659 -0.056 -1 -0.056 l -0.344 0 0 -0.608 0.474 0 c 0.239 0 0.482 -0.013 0.731 -0.04 c 0.258 -0.027 0.491 -0.075 0.701 -0.144 0.21 -0.069 0.384 -0.161 0.517 -0.278 0.134 -0.122 0.2 -0.274 0.2 -0.455 0 -0.149 -0.047 -0.277 -0.142 -0.384 -0.096 -0.106 -0.225 -0.195 -0.387 -0.264 -0.153 -0.069 -0.335 -0.116 -0.545 -0.142 -0.201 -0.032 -0.416 -0.049 -0.646 -0.049 c -0.459 0 -0.85 0.037 -1.175 0.111 c -0.315 0.074 -0.582 0.153 -0.802 0.233 l -0.517 -0.568 c 0.115 -0.043 0.259 -0.088 0.431 -0.135 0.182 -0.053 0.383 -0.102 0.602 -0.144 0.22 -0.043 0.455 -0.076 0.703 -0.102 0.258 -0.032 0.525 -0.049 0.802 -0.049 z" style="fill:#ececec;fill-opacity:1;stroke:none;fill-rule:evenodd"/>
</svg>
