<svg xmlns="http://www.w3.org/2000/svg" viewBox="0 0 16 16">
 <path d="m 4 2.182 c -1 0 -1.818 0.817 -1.818 1.818 l 0 8 c 0 1 0.817 1.818 1.818 1.818 l 8 0 c 1 0 1.818 -0.817 1.818 -1.818 l 0 -8 c 0 -1 -0.817 -1.818 -1.818 -1.818 l -8 0 z m 0 0.727 8 0 c 0.611 0 1.091 0.48 1.091 1.091 l 0 8 c 0 0.611 -0.48 1.091 -1.091 1.091 l -8 0 c -0.611 0 -1.091 -0.48 -1.091 -1.091 l 0 -8 c 0 -0.611 0.48 -1.091 1.091 -1.091 z" style="visibility:visible;fill:#ececec;fill-opacity:1;stroke:none;display:inline;color:#000"/>
 <rect width="11.636" height="0.727" x="2.182" y="10.182" style="fill:#ececec;fill-opacity:1;stroke:none"/>
 <rect y="-8.727" x="10.182" height="1.455" width="3.636" transform="matrix(0,1,-1,0,0,0)" style="fill:#ececec;fill-opacity:1;stroke:none"/>
 <path d="m 5.093 3.637 0.727 0 c 0.008 0 0.015 0 0.023 0 0.185 0.008 0.371 0.093 0.5 0.227 l 1.658 1.657 1.681 -1.657 c 0.193 -0.167 0.325 -0.218 0.5 -0.225 l 0.727 0 0 0.727 c 0 0.208 -0.025 0.4 -0.182 0.545 l -1.658 1.658 1.636 1.636 c 0.137 0.138 0.204 0.327 0.204 0.523 l 0 0.727 -0.727 0 c -0.193 0 -0.386 -0.068 -0.523 -0.204 l -1.658 -1.657 -1.658 1.657 c -0.137 0.138 -0.33 0.204 -0.523 0.204 l -0.727 0 0 -0.727 c 0 -0.193 0.068 -0.386 0.204 -0.522 l 1.658 -1.636 -1.658 -1.657 c -0.153 -0.138 -0.22 -0.342 -0.204 -0.545 l 0 -0.727 z" style="fill:#ef555c;fill-opacity:1;color:#bebebe"/>
</svg>
