<svg xmlns="http://www.w3.org/2000/svg" viewBox="0 0 16 16">
 <path d="m 8 3.91 c -2.258 0 -4.09 1.832 -4.09 4.09 c 0 0.02 0 0.035 0 0.051 c -0.133 -0.027 -0.27 -0.051 -0.41 -0.051 c -1.129 0 -2.047 0.914 -2.047 2.047 c 0 1.129 0.918 2.043 2.047 2.043 l 8.184 0 c 1.578 0 2.863 -1.281 2.863 -2.863 c 0 -1.562 -1.258 -2.836 -2.813 -2.863 c -0.637 -1.438 -2.063 -2.453 -3.734 -2.453 m -0.18 1.637 c 0.027 -0.004 0.051 -0.004 0.078 0 c 0.254 -0.035 0.508 0.047 0.691 0.23 l 1.633 1.633 c 0.242 0.234 0.316 0.594 0.188 0.906 c -0.129 0.309 -0.438 0.508 -0.773 0.5 l -0.82 0 l 0 0.82 c 0.008 0.293 -0.148 0.57 -0.402 0.719 c -0.258 0.148 -0.57 0.148 -0.828 0 c -0.254 -0.148 -0.41 -0.426 -0.402 -0.719 l 0 -0.82 l -0.82 0 c -0.336 0.008 -0.645 -0.191 -0.773 -0.5 c -0.129 -0.313 -0.055 -0.672 0.188 -0.906 l 1.633 -1.633 c 0.113 -0.117 0.254 -0.195 0.41 -0.23 Z" style="fill:#ececec;fill-opacity:1"/>
</svg>
