<svg xmlns="http://www.w3.org/2000/svg" viewBox="0 0 16 16" style="enable-background:new">
 <path d="m 5.905 2.386 c -0.112 -0.001 -0.226 0.005 -0.348 0.022 -1.942 0.26 -1.882 1.996 -1.882 1.996 -0.795 0.141 -1.446 0.864 -1.446 1.62 c 0 0.756 0.831 1.425 1.528 1.62 0.414 0.116 0.955 0 0.955 0 0.246 0.452 1.058 0.752 1.623 0.752 0.922 0 1.865 -0.318 2.083 -0.752 0 0 3.821 0.318 4.613 0 1.154 -0.463 0.795 -1.912 0.027 -2.401 -0.768 -0.489 -1.773 -0.145 -1.773 -0.145 0 0 -0.006 -0.996 -1.091 -1.472 -1.085 -0.476 -2 0.575 -2 0.575 0 0 -0.609 -1.804 -2.288 -1.815 z" style="fill:#ececec;fill-opacity:1"/>
 <circle cx="7.823" cy="12.932" r="0.364" style="fill:#ececec;opacity:1;fill-opacity:1;stroke:none;fill-rule:nonzero"/>
 <circle cx="4.094" cy="10.393" r="0.364" style="fill:#ececec;opacity:1;fill-opacity:1;stroke:none;fill-rule:nonzero"/>
 <circle cx="7.077" cy="10.02" r="0.364" style="fill:#ececec;opacity:1;fill-opacity:1;stroke:none;fill-rule:nonzero"/>
 <circle cx="9.641" cy="10.516" r="0.364" style="fill:#ececec;opacity:1;fill-opacity:1;stroke:none;fill-rule:nonzero"/>
 <circle cx="5.697" cy="11.527" r="0.364" style="fill:#ececec;opacity:1;fill-opacity:1;stroke:none;fill-rule:nonzero"/>
 <circle cx="5.647" cy="9.06" r="0.364" style="fill:#ececec;opacity:1;fill-opacity:1;stroke:none;fill-rule:nonzero"/>
 <circle cx="8.556" cy="8.889" r="0.364" style="fill:#ececec;opacity:1;fill-opacity:1;stroke:none;fill-rule:nonzero"/>
 <circle cx="10.775" cy="8.963" r="0.364" style="fill:#ececec;opacity:1;fill-opacity:1;stroke:none;fill-rule:nonzero"/>
 <circle cx="4.045" cy="8.544" r="0.364" style="fill:#ececec;opacity:1;fill-opacity:1;stroke:none;fill-rule:nonzero"/>
 <circle cx="3.379" cy="12.07" r="0.364" style="fill:#ececec;opacity:1;fill-opacity:1;stroke:none;fill-rule:nonzero"/>
 <circle cx="12.03" cy="10.22" r="0.364" style="fill:#ececec;opacity:1;fill-opacity:1;stroke:none;fill-rule:nonzero"/>
 <circle cx="11.02" cy="12.143" r="0.364" style="fill:#ececec;opacity:1;fill-opacity:1;stroke:none;fill-rule:nonzero"/>
 <circle cx="8.162" cy="11.305" r="0.364" style="fill:#ececec;opacity:1;fill-opacity:1;stroke:none;fill-rule:nonzero"/>
 <circle cx="12.55" cy="8.593" r="0.364" style="fill:#ececec;opacity:1;fill-opacity:1;stroke:none;fill-rule:nonzero"/>
</svg>
