<svg xmlns="http://www.w3.org/2000/svg" viewBox="0 0 16 16" style="enable-background:new">
 <path d="m 5.889 3.454 c -0.113 -0.001 -0.228 0.006 -0.351 0.024 -1.957 0.284 -1.896 2.173 -1.896 2.173 -0.802 0.153 -1.457 0.941 -1.457 1.764 0 0.823 0.838 1.552 1.54 1.764 0.417 0.126 0.962 0 0.962 0 0.248 0.492 1.067 0.82 1.636 0.82 0.272 0 0.54 -0.037 0.797 -0.091 c 0.014 -0.183 0.045 -0.361 0.114 -0.524 0.078 -0.185 0.179 -0.358 0.301 -0.516 0.112 -0.145 0.23 -0.28 0.357 -0.406 l 0.004 -0.004 0.003 -0.003 c 0.114 -0.109 0.22 -0.217 0.315 -0.324 c 0.086 -0.097 0.154 -0.191 0.206 -0.286 0.037 -0.067 0.054 -0.135 0.054 -0.224 0 -0.115 -0.021 -0.157 -0.089 -0.22 l -0.006 -0.006 -0.006 -0.006 c -0.045 -0.045 -0.138 -0.094 -0.351 -0.094 -0.18 0 -0.348 0.023 -0.509 0.068 l -0.006 0.001 -0.006 0.001 c -0.158 0.039 -0.332 0.109 -0.521 0.212 l -0.371 0.202 -0.558 -1.528 0.267 -0.152 c 0.255 -0.145 0.541 -0.256 0.852 -0.335 0.319 -0.086 0.646 -0.129 0.977 -0.129 c 0.395 0 0.741 0.056 1.038 0.185 0.272 0.112 0.508 0.262 0.689 0.459 0.172 0.187 0.3 0.404 0.371 0.641 0.063 0.211 0.098 0.421 0.098 0.629 0 0.25 -0.05 0.491 -0.153 0.707 -0.086 0.191 -0.196 0.369 -0.33 0.531 -0.124 0.15 -0.257 0.294 -0.401 0.43 l -0.003 0.003 -0.004 0.003 c -0.01 0.009 -0.017 0.019 -0.027 0.028 1.195 0.079 3.1 0.163 3.644 -0.072 1.162 -0.505 0.802 -2.082 0.028 -2.615 -0.773 -0.533 -1.787 -0.158 -1.787 -0.158 0 0 -0.006 -1.084 -1.099 -1.602 -1.094 -0.518 -2.02 0.626 -2.02 0.626 0 0 -0.613 -1.966 -2.305 -1.977 z" style="fill:#ececec;opacity:0.4;fill-opacity:1"/>
 <g style="fill:#ececec;fill-opacity:1;stroke:none">
  <path d="m 8.02 6.932 q -0.317 0 -0.608 0.082 -0.29 0.073 -0.608 0.245 l -0.308 -0.844 q 0.336 -0.19 0.762 -0.299 0.435 -0.118 0.889 -0.118 0.544 0 0.898 0.154 0.354 0.145 0.562 0.372 0.209 0.227 0.29 0.499 0.082 0.272 0.082 0.526 0 0.308 -0.118 0.553 -0.109 0.245 -0.281 0.454 -0.172 0.209 -0.372 0.399 -0.2 0.181 -0.372 0.381 -0.172 0.19 -0.29 0.408 -0.109 0.218 -0.109 0.49 0 0.045 0 0.109 0 0.054 0.009 0.109 l -0.943 0 q -0.018 -0.091 -0.027 -0.19 -0.009 -0.109 -0.009 -0.2 0 -0.299 0.1 -0.535 0.1 -0.236 0.254 -0.435 0.154 -0.2 0.327 -0.372 0.181 -0.172 0.336 -0.345 0.154 -0.172 0.254 -0.354 0.1 -0.181 0.1 -0.399 0 -0.299 -0.209 -0.49 -0.2 -0.2 -0.608 -0.2 z m 0.707 4.898 q 0 0.317 -0.209 0.517 -0.209 0.2 -0.517 0.2 -0.299 0 -0.517 -0.2 -0.209 -0.2 -0.209 -0.517 0 -0.317 0.209 -0.517 0.218 -0.209 0.517 -0.209 0.308 0 0.517 0.209 0.209 0.2 0.209 0.517 z"/>
 </g>
</svg>
