<svg xmlns="http://www.w3.org/2000/svg" viewBox="0 0 16 16" style="enable-background:new">
 <path d="m 5.891 2.547 c -0.113 -0.001 -0.231 0.005 -0.354 0.021 -1.958 0.26 -1.898 1.991 -1.898 1.991 -0.802 0.14 -1.457 0.862 -1.457 1.616 c 0 0.754 0.838 1.421 1.54 1.615 0.418 0.115 0.966 0 0.966 0 0.248 0.45 1.063 0.75 1.633 0.75 0.929 0 1.884 -0.317 2.104 -0.75 0 0 3.849 0.317 4.648 0 1.163 -0.462 0.802 -1.907 0.028 -2.395 -0.774 -0.488 -1.788 -0.145 -1.788 -0.145 0 0 -0.002 -0.992 -1.097 -1.467 c -1.094 -0.475 -2.02 0.574 -2.02 0.574 c 0 0 -0.611 -1.8 -2.304 -1.811 z m 3.298 6.419 c -0.032 0.008 -0.053 0.038 -0.051 0.072 l 0 0.216 -0.186 -0.122 c -0.076 -0.051 -0.149 0.068 -0.072 0.118 l 0.259 0.17 0 0.393 -0.324 -0.196 -0.013 -0.32 c -0.002 -0.046 -0.045 -0.078 -0.087 -0.065 -0.03 0.009 -0.05 0.04 -0.048 0.072 l 0.01 0.23 -0.178 -0.108 c -0.08 -0.069 -0.165 0.077 -0.07 0.119 l 0.179 0.108 -0.193 0.108 c -0.1 0.035 -0.021 0.189 0.063 0.122 l 0.268 -0.148 0.327 0.199 -0.327 0.195 -0.268 -0.143 c -0.084 -0.067 -0.162 0.087 -0.063 0.122 l 0.193 0.104 -0.179 0.109 c -0.078 0.048 -0.008 0.17 0.07 0.122 l 0.178 -0.108 -0.01 0.23 c -0.002 0.093 0.132 0.098 0.135 0.004 l 0.013 -0.318 0.324 -0.195 0 0.393 -0.259 0.169 c -0.076 0.05 -0.003 0.17 0.072 0.119 l 0.186 -0.122 0 0.216 c 0 0.094 0.134 0.094 0.134 0 l 0 -0.216 0.182 0.122 c 0.076 0.05 0.148 -0.069 0.072 -0.119 l -0.254 -0.169 0 -0.396 0.324 0.197 0.013 0.318 c 0.002 0.093 0.137 0.089 0.135 -0.004 l -0.011 -0.23 0.179 0.108 c 0.079 0.051 0.149 -0.078 0.065 -0.122 l -0.175 -0.109 0.192 -0.104 c 0.1 -0.035 0.023 -0.189 -0.061 -0.122 l -0.271 0.143 -0.324 -0.195 0.324 -0.195 0.271 0.143 c 0.084 0.067 0.161 -0.087 0.061 -0.122 l -0.196 -0.108 0.179 -0.108 c 0.106 -0.035 0.017 -0.198 -0.065 -0.119 l -0.179 0.108 0.011 -0.23 c 0.003 -0.049 -0.042 -0.086 -0.087 -0.072 -0.028 0.008 -0.047 0.035 -0.048 0.065 l -0.013 0.32 -0.324 0.196 0 -0.393 0.254 -0.17 c 0.077 -0.05 0.003 -0.169 -0.072 -0.118 l -0.182 0.122 0 -0.216 c 0.001 -0.04 -0.03 -0.073 -0.068 -0.072 -0.005 0 -0.01 0 -0.014 0 z m -4.393 0.697 c -0.032 0.008 -0.053 0.038 -0.051 0.072 l 0 0.216 -0.186 -0.122 c -0.076 -0.051 -0.148 0.068 -0.071 0.118 l 0.257 0.17 0 0.393 l -0.322 -0.196 -0.014 -0.321 c -0.002 -0.046 -0.045 -0.077 -0.087 -0.064 -0.03 0.009 -0.05 0.038 -0.048 0.071 l 0.011 0.232 -0.179 -0.108 c -0.08 -0.069 -0.165 0.077 -0.07 0.119 l 0.179 0.108 -0.192 0.108 c -0.1 0.035 -0.023 0.189 0.061 0.122 l 0.268 -0.148 0.327 0.199 -0.327 0.195 -0.268 -0.145 c -0.084 -0.067 -0.161 0.088 -0.061 0.124 l 0.192 0.104 -0.179 0.109 c -0.078 0.048 -0.008 0.17 0.07 0.122 l 0.179 -0.108 -0.011 0.23 c -0.002 0.093 0.132 0.098 0.135 0.004 l 0.014 -0.318 0.322 -0.195 0 0.393 -0.257 0.169 c -0.076 0.05 -0.005 0.17 0.071 0.119 l 0.186 -0.122 0 0.216 c 0 0.094 0.134 0.094 0.134 0 l 0 -0.216 0.183 0.122 c 0.076 0.05 0.148 -0.069 0.072 -0.119 l -0.256 -0.169 0 -0.396 0.324 0.197 0.014 0.318 c 0.003 0.093 0.135 0.089 0.134 -0.004 l -0.01 -0.23 0.179 0.108 c 0.079 0.051 0.149 -0.078 0.065 -0.122 l -0.176 -0.109 0.193 -0.104 c 0.1 -0.035 0.021 -0.19 -0.062 -0.124 l -0.271 0.145 -0.324 -0.195 0.324 -0.195 0.271 0.143 c 0.084 0.067 0.162 -0.087 0.062 -0.122 l -0.196 -0.108 0.179 -0.108 c 0.106 -0.035 0.017 -0.198 -0.065 -0.119 l -0.179 0.108 0.01 -0.232 c 0.003 -0.049 -0.042 -0.085 -0.087 -0.071 -0.028 0.008 -0.046 0.034 -0.047 0.064 l -0.014 0.321 -0.324 0.196 0 -0.393 l 0.254 -0.17 c 0.077 -0.05 0.005 -0.169 -0.071 -0.118 l -0.183 0.122 0 -0.216 c 0.001 -0.04 -0.03 -0.073 -0.068 -0.072 -0.005 0 -0.01 0 -0.014 0 z m 7.497 0.767 c -0.032 0.008 -0.054 0.038 -0.053 0.072 l 0 0.216 -0.185 -0.122 c -0.076 -0.051 -0.149 0.068 -0.072 0.118 l 0.257 0.17 0 0.393 -0.322 -0.196 -0.014 -0.321 c -0.002 -0.046 -0.043 -0.077 -0.085 -0.064 -0.03 0.009 -0.05 0.038 -0.048 0.071 l 0.01 0.232 -0.179 -0.108 c -0.08 -0.069 -0.163 0.077 -0.068 0.119 l 0.178 0.108 -0.192 0.108 c -0.1 0.035 -0.021 0.189 0.063 0.122 l 0.267 -0.148 0.327 0.199 -0.327 0.195 -0.267 -0.145 c -0.084 -0.067 -0.162 0.088 -0.063 0.124 l 0.192 0.104 -0.178 0.109 c -0.078 0.048 -0.01 0.17 0.068 0.122 l 0.179 -0.108 -0.01 0.23 c -0.002 0.093 0.131 0.098 0.134 0.004 l 0.014 -0.318 0.322 -0.195 0 0.393 -0.257 0.169 c -0.076 0.05 -0.003 0.17 0.072 0.119 l 0.185 -0.122 0 0.216 c 0 0.094 0.135 0.094 0.135 0 l 0 -0.216 0.182 0.122 c 0.076 0.05 0.148 -0.069 0.072 -0.119 l -0.254 -0.169 0 -0.396 0.322 0.197 0.014 0.318 c 0.002 0.093 0.135 0.089 0.134 -0.004 l -0.01 -0.23 0.179 0.108 c 0.079 0.051 0.149 -0.078 0.065 -0.122 l -0.176 -0.109 0.193 -0.104 c 0.1 -0.035 0.021 -0.19 -0.063 -0.124 l -0.271 0.145 -0.322 -0.195 0.322 -0.195 0.271 0.143 c 0.084 0.067 0.162 -0.087 0.063 -0.122 l -0.196 -0.108 0.179 -0.108 c 0.106 -0.035 0.017 -0.198 -0.065 -0.119 l -0.179 0.108 0.01 -0.232 c 0.003 -0.049 -0.04 -0.085 -0.085 -0.071 -0.028 0.008 -0.047 0.034 -0.048 0.064 l -0.014 0.321 -0.322 0.196 0 -0.393 0.254 -0.17 c 0.077 -0.05 0.003 -0.169 -0.072 -0.118 l -0.182 0.122 0 -0.216 c 0.001 -0.04 -0.031 -0.073 -0.07 -0.072 -0.004 0 -0.009 0 -0.013 0 z m -4.308 1.087 c -0.032 0.008 -0.053 0.038 -0.051 0.072 l 0 0.216 -0.186 -0.122 c -0.076 -0.051 -0.149 0.069 -0.072 0.119 l 0.259 0.169 0 0.393 -0.324 -0.195 -0.013 -0.321 c -0.002 -0.046 -0.045 -0.078 -0.087 -0.065 -0.03 0.009 -0.05 0.04 -0.048 0.072 l 0.01 0.23 -0.178 -0.108 c -0.08 -0.069 -0.165 0.077 -0.07 0.119 l 0.179 0.108 -0.192 0.108 c -0.1 0.035 -0.023 0.19 0.061 0.124 l 0.268 -0.148 0.327 0.197 -0.327 0.195 -0.268 -0.143 c -0.084 -0.067 -0.161 0.087 -0.061 0.122 l 0.192 0.105 -0.179 0.108 c -0.078 0.048 -0.008 0.17 0.07 0.122 l 0.178 -0.108 -0.01 0.232 c -0.002 0.093 0.132 0.096 0.135 0.003 l 0.013 -0.317 0.324 -0.195 0 0.392 -0.259 0.17 c -0.076 0.05 -0.003 0.168 0.072 0.118 l 0.186 -0.122 0 0.216 c 0 0.094 0.134 0.094 0.134 0 l 0 -0.216 0.182 0.122 c 0.076 0.05 0.148 -0.067 0.072 -0.118 l -0.254 -0.17 0 -0.396 0.324 0.199 0.013 0.317 c 0.002 0.093 0.137 0.091 0.135 -0.003 l -0.01 -0.232 0.178 0.108 c 0.079 0.051 0.149 -0.078 0.065 -0.122 l -0.175 -0.108 0.192 -0.105 c 0.1 -0.035 0.023 -0.189 -0.061 -0.122 l -0.271 0.143 -0.324 -0.195 0.324 -0.195 0.271 0.145 c 0.084 0.067 0.161 -0.088 0.061 -0.124 l -0.196 -0.108 0.179 -0.108 c 0.106 -0.035 0.017 -0.198 -0.065 -0.119 l -0.178 0.108 0.01 -0.23 c 0.003 -0.049 -0.042 -0.086 -0.087 -0.072 -0.028 0.008 -0.047 0.035 -0.048 0.065 l -0.013 0.321 -0.324 0.195 0 -0.393 0.254 -0.169 c 0.077 -0.05 0.003 -0.171 -0.072 -0.119 l -0.182 0.122 0 -0.216 c 0.001 -0.04 -0.03 -0.073 -0.068 -0.072 -0.005 0 -0.01 0 -0.014 0 z" style="fill:#ececec;fill-opacity:1"/>
</svg>
