<svg xmlns="http://www.w3.org/2000/svg" viewBox="0 0 16 16">
 <path d="M 8 0 A 8 8 0 0 0 0 8 8 8 0 0 0 1.397 12.507 L 0 16 3.488 14.606 A 8 8 0 0 0 8 16 8 8 0 0 0 16 8 8 8 0 0 0 8 0 M 4.745 3.748 c 0.153 0 0.307 -0.001 0.441 0.007 0.165 0.008 0.346 0.014 0.517 0.397 C 5.908 4.608 6.356 5.747 6.413 5.861 6.471 5.976 6.508 6.11 6.432 6.267 6.356 6.418 6.317 6.513 6.202 6.648 6.087 6.782 5.961 6.948 5.858 7.05 5.742 7.164 5.621 7.289 5.756 7.519 5.89 7.749 6.35 8.503 7.03 9.113 7.914 9.893 8.656 10.139 8.885 10.253 9.116 10.368 9.25 10.35 9.384 10.196 9.518 10.04 9.96 9.524 10.113 9.293 c 0.154 -0.23 0.305 -0.191 0.516 -0.115 0.211 0.076 1.343 0.635 1.573 0.748 0.23 0.115 0.385 0.173 0.441 0.269 0.058 0.096 0.058 0.559 -0.136 1.092 -0.19 0.537 -1.13 1.056 -1.552 1.094 -0.422 0.038 -0.816 0.196 -2.76 -0.575 C 5.856 10.885 4.38 8.489 4.266 8.335 4.151 8.181 3.324 7.087 3.324 5.955 c 0 -1.132 0.595 -1.688 0.805 -1.918 0.211 -0.23 0.462 -0.288 0.615 -0.288 z" style="fill:#ececec;opacity:1;fill-opacity:1;stroke:none;fill-rule:nonzero"/>
</svg>
