<svg xmlns="http://www.w3.org/2000/svg" viewBox="0 0 16 16">
 <ellipse cx="5.404" cy="10.856" rx="8.262" ry="2.444" transform="matrix(0.96527118,-0.26124998,0.2564075,0.96656877,0,0)" style="fill:#ececec;opacity:1;fill-opacity:1;stroke:none;fill-rule:nonzero"/>
 <path d="m 6.584 3.798 c -0.15 0.04 -0.392 0.128 -0.566 0.235 -0.361 0.223 -0.808 0.654 -0.963 0.833 -0.204 0.237 -0.416 0.605 -0.575 0.873 -0.194 0.327 -0.281 0.518 -0.442 0.765 -0.146 0.224 -0.301 0.443 -0.473 0.648 -0.086 0.102 -0.2 0.226 -0.321 0.354 1.14 -0.522 2.472 -1 3.923 -1.394 1.471 -0.398 2.88 -0.657 4.14 -0.779 -0.16 -0.048 -0.313 -0.096 -0.432 -0.139 -0.251 -0.091 -0.495 -0.203 -0.734 -0.324 -0.263 -0.133 -0.433 -0.255 -0.765 -0.442 -0.271 -0.152 -0.639 -0.366 -0.934 -0.468 -0.223 -0.078 -0.826 -0.227 -1.25 -0.24 -0.204 -0.006 -0.484 0.046 -0.608 0.079" style="fill:#ececec;opacity:1;fill-opacity:1;stroke:none;fill-rule:evenodd"/>
</svg>
