<svg xmlns="http://www.w3.org/2000/svg" viewBox="0 0 48 48">
 <path d="m 22 37 0 6.966 c 0 0.575 -0.455 1.034 -1.027 1.034 l -1.945 0 c -0.572 0 -1.027 -0.458 -1.027 -1.034 l 0 -6.966 z m 8 0 0 6.966 c 0 0.575 -0.455 1.034 -1.027 1.034 l -1.946 0 c -0.572 0 -1.027 -0.458 -1.027 -1.034 l 0 -6.966 z" style="fill:#909ea9;fill-opacity:1"/>
 <path d="m 3.507 3.409 c 0.332 0.012 0.643 0.11 0.899 0.244 0.341 0.179 0.583 0.432 0.685 0.761 0.452 1.454 1.356 2.797 2.539 3.719 1.718 1.434 4.276 1.946 6.933 2.642 1.339 0.325 2.735 0.7 4.137 1.264 1.408 0.56 2.786 1.362 3.98 2.499 1.328 1.287 2.289 2.94 2.739 4.739 0.147 0.592 0.234 1.118 0.271 1.724 l 3.501 0 c 2.664 0 4.808 2.158 4.808 4.839 l 0 10.16 -20 0 0 -10.16 c 0 -2.681 2.144 -4.839 4.808 -4.839 l 3.502 0 c -0.03 -0.328 -0.063 -0.588 -0.143 -0.905 -0.291 -1.174 -0.93 -2.278 -1.798 -3.116 -0.771 -0.765 -1.805 -1.342 -2.925 -1.809 c -1.125 -0.463 -2.372 -0.78 -3.681 -1.106 -2.638 -0.603 -5.607 -1.337 -8.189 -3.274 -1.743 -1.372 -3.03 -3.261 -3.681 -5.371 c -0.147 -0.477 -0.07 -0.973 0.171 -1.335 0.241 -0.363 0.638 -0.585 1.098 -0.646 0.115 -0.015 0.232 -0.033 0.342 -0.029 z" style="fill:#20262b;fill-opacity:1"/>
</svg>
