<svg xmlns="http://www.w3.org/2000/svg" viewBox="0 0 48 48">
 <rect width="14" height="25" x="17" y="7" rx="7" ry="8" style="fill:#d6d6d6;opacity:1;fill-opacity:1;stroke:none;fill-rule:nonzero"/>
 <path d="m 17 25 -3 1.496 0.023 -1.5" style="fill:#373737;opacity:1;fill-opacity:1;stroke:none;fill-rule:nonzero"/>
 <path d="m 31 25 3 1.496 -0.023 -1.5" style="fill:#373737;opacity:1;fill-opacity:1;stroke:none;fill-rule:nonzero"/>
 <path d="M 13.984 23.986 A 1 1 0 0 0 13 25 c 0 3.929 2.098 7.563 5.5 9.527 3.402 1.964 7.598 1.964 11 0 C 32.902 32.563 35 28.929 35 25 a 1 1 0 1 0 -2 0 c 0 3.217 -1.714 6.186 -4.5 7.795 -2.786 1.609 -6.214 1.609 -9 0 C 16.714 31.19 15 28.22 15 25 a 1 1 0 0 0 -1.016 -1.014 z" mix-blend-mode="normal" isolation="auto" white-space="normal" solid-opacity="1" solid-color="#000000" style="visibility:visible;shape-rendering:auto;color-interpolation-filters:linearRGB;fill:#547181;opacity:1;image-rendering:auto;fill-opacity:1;stroke:none;display:inline;color:#000;fill-rule:nonzero;color-rendering:auto;color-interpolation:sRGB"/>
 <path d="m 23 35.8 c -0.386 2.896 -2.615 4.703 -5 6.2 l 12 0 c -2.385 -1.497 -4.614 -3.304 -5 -6.2 z" style="fill:#547181;fill-opacity:1;stroke:none;fill-rule:evenodd"/>
 <rect width="14" height="1" x="17" y="23" style="fill:#373737;opacity:1;fill-opacity:1;stroke:none;fill-rule:nonzero"/>
 <path d="m 31 24 c 0 4.432 -3.122 8 -7 8 -3.878 0 -7 -3.568 -7 -8 z" style="fill:#547181;opacity:1;fill-opacity:1;stroke:none;fill-rule:nonzero"/>
 <path d="m 17 18 0 2 4 0 c 0.554 0 1 -0.446 1 -1 0 -0.554 -0.446 -1 -1 -1 l -4 0 z" style="fill:#828282;opacity:1;fill-opacity:1;stroke:none;fill-rule:nonzero"/>
 <path d="m 17 15 0 2 4 0 c 0.554 0 1 -0.446 1 -1 0 -0.554 -0.446 -1 -1 -1 l -4 0 z" style="fill:#828282;opacity:1;fill-opacity:1;stroke:none;fill-rule:nonzero"/>
 <path d="m 17.512 12 c -0.222 0.631 -0.377 1.3 -0.453 2 l 3.941 0 c 0.554 0 1 -0.446 1 -1 c 0 -0.554 -0.446 -1 -1 -1 l -3.488 0 z" style="fill:#828282;opacity:1;fill-opacity:1;stroke:none;fill-rule:nonzero"/>
 <path d="m 31 18 0 2 -4 0 c -0.554 0 -1 -0.446 -1 -1 0 -0.554 0.446 -1 1 -1 l 4 0 z" style="fill:#828282;opacity:1;fill-opacity:1;stroke:none;fill-rule:nonzero"/>
 <path d="m 31 15 0 2 -4 0 c -0.554 0 -1 -0.446 -1 -1 0 -0.554 0.446 -1 1 -1 l 4 0 z" style="fill:#828282;opacity:1;fill-opacity:1;stroke:none;fill-rule:nonzero"/>
 <path d="m 27 12 c -0.554 0 -1 0.446 -1 1 c 0 0.554 0.446 1 1 1 l 3.941 0 c -0.076 -0.7 -0.231 -1.369 -0.453 -2 l -3.488 0 z" style="fill:#828282;opacity:1;fill-opacity:1;stroke:none;fill-rule:nonzero"/>
 <path d="m 25 7.09 l 0 24.82 c 1.559 -0.254 2.952 -1.083 4 -2.305 l 0 -20.21 c -1.048 -1.221 -2.441 -2.051 -4 -2.305 z" style="fill:#fff;opacity:0.2;fill-opacity:1;stroke:none;fill-rule:nonzero"/>
 <path d="m 29 32.461 c -0.167 0.112 -0.325 0.233 -0.5 0.334 c -1.093 0.631 -2.287 1 -3.5 1.141 l 0 2 c 1.38 -0.126 2.734 -0.515 4 -1.162 l 0 -2.313 z" style="fill:#fff;opacity:0.2;fill-opacity:1;stroke:none;fill-rule:nonzero"/>
 <path d="m 25 35.801 l 0 6.199 l 4 0 l 0 -0.662 c -1.979 -1.373 -3.669 -3.052 -4 -5.537 z" style="fill:#fff;opacity:0.2;fill-opacity:1;stroke:none;fill-rule:nonzero"/>
</svg>
