<svg xmlns="http://www.w3.org/2000/svg" viewBox="0 0 48 48">
 <g transform="translate(34.983051,-0.0084746)" style="fill:none;stroke:#fff">
  <g transform="translate(-38.38147,-1006.1003)" style="stroke-width:0.5">
   <path d="m 15 16.875 -2.185 14.218 19.935 0 l -2.75 -14.226 z" transform="translate(0,1004.3622)"/>
   <path d="m 12.741 31.581 0 3.03 20.08 0 0 -3.03 z" transform="translate(0,1004.3622)"/>
  </g>
  <g transform="translate(-39.59798,-1004.3622)" style="stroke-width:0.4">
   <path d="m 24.86 1036.35 -9.148 0 0 -0.928 c 2.966 0 6.427 0 9.148 0 z"/>
   <path d="m 26.584 1036.35 4.508 0 0 -0.647 -4.508 0 z"/>
  </g>
 </g>
 <rect width="6" height="2" x="11.983" y="11.992" rx="1" style="fill:#657b83;fill-opacity:1;stroke:none"/>
 <rect width="32" height="22" x="8" y="12.992" rx="2" style="fill:#586e75;fill-opacity:1;stroke:none"/>
 <rect width="3" height="22" x="34.983" y="12.992" style="fill:#eee8d5;fill-opacity:0.289;stroke:none"/>
 <path d="m -3 24 a 8 8 0 1 1 -16 0 8 8 0 1 1 16 0 z" transform="matrix(1.5,0,0,1.5,40.5,-12)" style="fill:#073642;fill-opacity:1;stroke:none"/>
 <path d="m 30 25 a 6 6 0 1 1 -12 0 6 6 0 1 1 12 0 z" transform="matrix(1.2499999,0,0,1.2499999,-5.949151,-7.1228814)" style="fill:#eee8d5;fill-opacity:1;stroke:none"/>
 <path d="m 28.05 17.799 c 1.222 1.334 1.953 3.087 1.953 5.04 0 4.142 -3.358 7.5 -7.5 7.5 -1.459 0 -2.793 -0.412 -3.945 -1.133 1.37 1.481 3.331 2.422 5.508 2.422 4.142 0 7.5 -3.358 7.5 -7.5 0 -2.669 -1.416 -4.999 -3.516 -6.328 z" style="fill:#839496;fill-opacity:0.59;stroke:none"/>
 <path d="m 3 17 a 2 2 0 1 1 -4 0 2 2 0 1 1 4 0 z" transform="matrix(0.74576271,0,0,0.74576271,35.745763,3.8050847)" style="fill:#eee8d5;fill-opacity:1;stroke:none"/>
</svg>
