<svg xmlns="http://www.w3.org/2000/svg" viewBox="0 0 48 48">
 <rect width="26" height="25" x="11" y="8" rx="2" style="fill:#839496;fill-opacity:1;stroke:none"/>
 <g transform="translate(0 -1004.3622)" style="fill:#eee8d5">
  <path d="m 14.656 34 c 1.465 3.519 5.099 6 9.344 6 4.245 0 7.879 -2.481 9.344 -6 z" transform="translate(0,1004.3622)"/>
 </g>
 <path d="m 34 29 a 1 1 0 1 1 -2 0 1 1 0 1 1 2 0 z" style="fill:#fdf6e3;fill-opacity:1;stroke:none"/>
 <path d="m 33 8 0 25 2 0 c 0.366 0 0.705 -0.111 1 -0.281 l 0 -24.438 c -0.295 -0.17 -0.634 -0.281 -1 -0.281 z" style="fill:#fdf6e3;fill-opacity:0.458;stroke:none"/>
 <path d="m 16 34 13.156 4.656 c 1.89 -1.067 3.372 -2.698 4.188 -4.656 z" style="fill:#657b83;fill-opacity:0.273;stroke:none"/>
</svg>
