<svg xmlns="http://www.w3.org/2000/svg" viewBox="0 0 48 48">
 <rect width="32" height="16" x="8" y="20" rx="2.136" style="fill:#b6bdbd;fill-opacity:1;stroke:none"/>
 <g transform="translate(0,-1005.3486)" style="fill:#6f8a93;fill-opacity:1">
  <path d="m 10 1027.35 0 3 3 0 0 -3 z m 4 0.01 0 2.99 3 0 0 -2.99 z m 4 0 0 2.99 3 0 0 -2.99 z m 4 0 0 2.99 3 0 0 -2.99 z m 4 -0.01 0 3 3 0 0 -3 z m 4 0 0 3 3 0 0 -3 z m 4 0 0 3 4 0 0 -3 z m 2 3 0 4 2 0 0 -5 z m -26 1 0 3 5 0 0 -3 z m 6 0 0 3 3 0 0 -3 z m 4 0 0 3 3 0 0 -3 z m 4 0 0 3 3 0 0 -3 z m 4 0 0 3 3 0 0 -3 z m 4 0 0 3 3 0 0 -3 z m -22 4 0 3 3 0 0 -3 z m 4 0 0 3 15 0 0 -3 z m 16 0 0 3 3 0 0 -3 z m 4 0 0 3 4 0 0 -3 z" style="color:#000"/>
 </g>
 <rect width="4" height="16" x="34" y="20" style="fill:#fdf6e3;opacity:0.329;fill-opacity:1;stroke:none"/>
 <path d="m 32.05 20 0 -4 c 0 0 0 -1 -1 -1 -1 0 -2 0 -2 0 0 0 -1 0 -1 1 0 1 0 2 0 2 0 0 0 1 -1 1 -1 0 -6 0 -6 0 0 0 -1 0 -1 -1 0 -1 0 -3 0 -3 l 2 0 0 1 c 0 0 0 1 1 1 1 0 2 0 2 0 0 0 1 0 1 -1 0 -1 0 -2 0 -2 0 0 0 -1 1 -1 1 0 6 0 6 0 0 0 1 0 1 1 0 1 0 6 0 6 z" style="fill:#93a1a1;fill-opacity:1;stroke:none"/>
</svg>
