<!-- Generator: flash2svg, http://dissentgraphics.com/tools/flash2svg -->
<svg xmlns="http://www.w3.org/2000/svg" viewBox="0 0 48 48" style="image-rendering:optimizeSpeed;enable-background:new 0 0 1024 1024">
 <rect width="2" height="4" x="37" y="14.5" rx="0.61" style="fill:#8e8e8e;opacity:1;fill-opacity:1;stroke:none;fill-rule:nonzero"/>
 <path d="M 14,4 37.75,4 C 38.4425,4 39,4.5575 39,5.25 l 0,8.75 -1,0 0,8 1,0 0,20.75 C 39,43.4425 38.4425,44 37.75,44 L 26.5,44 25.999786,43 22,43 21.5,44 10.25,44 C 9.5575,44 9,43.4425 9,42.75 L 9,18 l 1,0 0,-2 -1,0 0,-7 z" style="fill:#464646;opacity:1;fill-opacity:1;stroke:none;fill-rule:nonzero"/>
 <rect width="2" height="6" x="13" y="10" rx="0.5" style="fill:#ffd642;opacity:1;fill-opacity:1;stroke:none;fill-rule:nonzero"/>
 <rect width="2" height="8" x="17" y="8" rx="0.5" style="fill:#ffd642;opacity:1;fill-opacity:1;stroke:none;fill-rule:nonzero"/>
 <rect rx="0.5" y="8" x="21" height="8" width="2" style="fill:#ffd642;opacity:1;fill-opacity:1;stroke:none;fill-rule:nonzero"/>
 <rect width="2" height="8" x="25" y="8" rx="0.5" style="fill:#ffd642;opacity:1;fill-opacity:1;stroke:none;fill-rule:nonzero"/>
 <rect rx="0.5" y="8" x="29" height="8" width="2" style="fill:#ffd642;opacity:1;fill-opacity:1;stroke:none;fill-rule:nonzero"/>
 <rect width="2" height="8" x="33" y="8" rx="0.5" style="fill:#ffd642;opacity:1;fill-opacity:1;stroke:none;fill-rule:nonzero"/>
 <rect width="3" height="40" x="33" y="4" style="fill:#faf2f2;opacity:0.2;fill-opacity:1;stroke:none;fill-rule:nonzero"/>
</svg>
