<svg xmlns="http://www.w3.org/2000/svg" viewBox="0 0 48 48">
 <path d="m 8 8 0 32 32 0 0 -28 -4 -4 z" style="fill:#002b36;fill-opacity:1;stroke:none"/>
 <path d="m 19 8 0 8 15 0 0 -8 z" style="fill:#93a1a1;stroke:none"/>
 <path d="m 12 19 0 19 24 0 0 -19 z" style="fill:#eee8d5;stroke:none"/>
 <path d="m 13 25 0 1 22 0 0 -1 z" style="fill:#002b36;stroke:none"/>
 <path d="m 13 32.12 0 1 22 0 0 -1 z" style="fill:#002b36;stroke:none"/>
 <path d="m 32 10 -3 0 0 4 3 0 z" style="fill:#002b36;stroke:none"/>
 <path d="m 38 40 -2 0 0 -32 0 0 2 2 z" style="fill:#fdf6e3;fill-opacity:0.277;stroke:none"/>
</svg>
