<svg xmlns="http://www.w3.org/2000/svg" viewBox="0 0 48 48">
 <g transform="translate(0 -1004.3622)" style="fill:#eee8d5">
  <path d="m 24 8 c -8.837 0 -16 7.163 -16 16 c 0 8.837 7.163 16 16 16 c 8.837 0 16 -7.163 16 -16 c 0 -8.837 -7.163 -16 -16 -16 z m 0 11 c 2.756 0 5 2.244 5 5 c 0 2.756 -2.244 5 -5 5 c -2.756 0 -5 -2.244 -5 -5 c 0 -2.756 2.244 -5 5 -5 z m 0 1 c -2.215 0 -4 1.785 -4 4 c 0 2.215 1.785 4 4 4 c 2.215 0 4 -1.785 4 -4 c 0 -2.215 -1.785 -4 -4 -4 z m 0 1.5 c 1.381 0 2.5 1.119 2.5 2.5 c 0 1.381 -1.119 2.5 -2.5 2.5 c -1.381 0 -2.5 -1.119 -2.5 -2.5 c 0 -1.381 1.119 -2.5 2.5 -2.5 z" transform="translate(0 1004.3622)"/>
 </g>
 <path d="m 22.268 22.21 c 0.389 -0.377 0.89 -0.631 1.43 -0.698 l -0.194 -1.469 c -0.863 0.107 -1.652 0.486 -2.273 1.088 l 1.037 1.078 z m -1.732 -1.788 c 0.776 -0.746 1.779 -1.23 2.852 -1.366 l -1.392 -10.916 c -3.438 0.439 -6.654 1.974 -9.133 4.374 l 7.673 7.908 z" style="fill:#657b83;opacity:0.256"/>
 <path d="m 26.333 24.867 c -0.189 0.508 -0.531 0.953 -0.99 1.246 l 0.808 1.242 c 0.733 -0.469 1.282 -1.15 1.583 -1.962 l -1.401 -0.526 z m 2.333 0.867 c -0.379 1.01 -1.075 1.876 -1.985 2.461 l 5.96 9.251 c 2.914 -1.878 5.154 -4.648 6.357 -7.883 l -10.332 -3.83 z" style="fill:#fffefb;opacity:0.464;fill-opacity:1"/>
 <path d="m 25.793 25.727 c -0.376 0.39 -0.868 0.661 -1.406 0.747 l 0.245 1.462 c 0.859 -0.137 1.634 -0.542 2.235 -1.166 l -1.074 -1.042 z m 1.793 1.727 c -0.75 0.773 -1.735 1.291 -2.803 1.463 l 1.768 10.862 c 3.421 -0.557 6.582 -2.202 8.977 -4.687 l -7.942 -7.638 z" style="fill:#657b83;opacity:0.256"/>
 <path d="m 21.684 23.09 c 0.198 -0.504 0.549 -0.942 1.014 -1.227 l -0.785 -1.257 c -0.742 0.455 -1.303 1.126 -1.619 1.932 l 1.391 0.553 z m -2.316 -0.911 c 0.398 -1 1.11 -1.856 2.031 -2.423 l -5.784 -9.362 c -2.949 1.822 -5.241 4.55 -6.505 7.761 l 10.257 4.02 z" style="fill:#fffefb;opacity:0.426;fill-opacity:1"/>
 <path d="m 24 19 c -2.761 0 -5 2.239 -5 5 c 0 2.761 2.239 5 5 5 c 2.761 0 5 -2.239 5 -5 c 0 -2.761 -2.239 -5 -5 -5 z m 0 1 c 2.209 0 4 1.791 4 4 c 0 2.209 -1.791 4 -4 4 c -2.209 0 -4 -1.791 -4 -4 c 0 -2.209 1.791 -4 4 -4 z" style="fill:#839496;opacity:1;fill-opacity:1;stroke:none"/>
 <path d="m 9.942 30.09 l 7.877 0 3.921 0 c 0.072 0 0.145 -0.012 0.219 0 0.087 0.012 0.114 0.135 0.144 0.218 0.099 0.26 0.16 0.539 0.232 0.811 0.177 0.669 0.403 1.323 0.607 1.983 0.208 0.676 0.386 1.358 0.563 2.043 0.081 0.313 0.148 0.62 0.168 0.943 0.003 0.041 0.034 0.085 0.06 0.085 0.017 -0.059 0.039 -0.115 0.063 -0.17 0.059 -0.133 0.131 -0.259 0.206 -0.381 0.151 -0.243 0.319 -0.47 0.479 -0.707 0.179 -0.267 0.35 -0.542 0.532 -0.806 0.395 -0.567 0.81 -1.113 1.217 -1.669 0.418 -0.568 0.835 -1.137 1.253 -1.705 0.09 -0.123 0.184 -0.242 0.268 -0.369 0.067 -0.099 0.133 -0.217 0.243 -0.257 0.199 -0.071 0.432 -0.036 0.635 -0.026 0.605 0.03 1.213 0.012 1.819 0.012 l 1.94 0 c 0.647 0 1.294 0 1.94 0 0.318 0 0.637 -0.012 0.955 0.018 0.293 0.028 0.583 0.068 0.872 0.126 1.067 0.211 2.158 0.66 2.947 1.537 0.371 0.414 0.676 0.923 0.812 1.5 0.129 0.54 0.104 1.109 -0.033 1.641 -0.275 1.075 -0.952 2.01 -1.755 2.625 -0.5 0.384 -1 0.739 -1.555 1.013 -0.546 0.268 -1.113 0.474 -1.692 0.617 -1.223 0.303 -2.476 0.248 -3.719 0.248 l -2.911 0 c 0.026 -0.337 0.126 -0.666 0.195 -0.994 0.073 -0.359 0.149 -0.72 0.223 -1.079 0.151 -0.729 0.302 -1.457 0.454 -2.186 0.085 -0.414 0.166 -0.83 0.248 -1.247 0.038 -0.199 0.08 -0.394 0.126 -0.592 0.025 -0.104 0.046 -0.257 0.109 -0.342 0.031 -0.044 0.105 -0.049 0.15 -0.054 0.098 -0.013 0.199 -0.013 0.297 -0.012 0.233 0.012 0.465 0.013 0.697 0.013 l 1.997 0 c -0.04 0.357 -0.131 0.701 -0.206 1.049 -0.08 0.371 -0.154 0.746 -0.231 1.12 -0.157 0.756 -0.32 1.512 -0.458 2.275 0.597 0 1.193 0.025 1.783 -0.07 0.301 -0.049 0.615 -0.146 0.903 -0.257 0.266 -0.099 0.524 -0.224 0.765 -0.381 0.737 -0.478 1.328 -1.31 1.363 -2.312 0.014 -0.424 -0.086 -0.851 -0.319 -1.187 -0.285 -0.416 -0.727 -0.641 -1.162 -0.781 -1.085 -0.353 -2.256 -0.224 -3.373 -0.218 -0.324 0 -0.646 0 -0.971 0.012 -0.155 0 -0.31 0 -0.467 0 -0.159 0 -0.337 -0.023 -0.493 0.012 -0.133 0.025 -0.225 0.208 -0.308 0.314 -0.114 0.146 -0.226 0.291 -0.34 0.437 -0.219 0.28 -0.436 0.559 -0.656 0.839 -0.872 1.117 -1.736 2.242 -2.604 3.364 -0.684 0.885 -1.362 1.777 -2.053 2.655 -0.418 0.531 -0.852 1.05 -1.248 1.603 -0.038 0.054 -0.095 0.115 -0.117 0.183 -0.001 0 -0.001 0.012 -0.001 0.012 -0.044 0 -0.048 0.015 -0.058 -0.04 -0.015 -0.079 -0.033 -0.157 -0.055 -0.234 -0.044 -0.167 -0.099 -0.329 -0.155 -0.492 -0.232 -0.68 -0.431 -1.377 -0.644 -2.063 -0.437 -1.417 -0.876 -2.836 -1.313 -4.253 -0.136 -0.437 -0.274 -0.874 -0.409 -1.309 -0.068 -0.212 -0.133 -0.422 -0.2 -0.634 -0.035 -0.113 -0.085 -0.449 -0.232 -0.449 0 0.199 0.048 0.378 0.102 0.568 0.069 0.255 0.107 0.511 0.128 0.778 0.054 0.657 -0.004 1.331 -0.23 1.944 -0.42 1.139 -1.34 2.01 -2.248 2.632 -0.956 0.651 -2.031 1.053 -3.125 1.253 -0.593 0.109 -1.184 0.145 -1.782 0.142 -0.64 0 -1.278 -0.012 -1.917 -0.012 l -1.95 0 -0.468 0 c 0 -0.168 0.067 -0.349 0.104 -0.512 0.081 -0.349 0.149 -0.704 0.221 -1.055 0.304 -1.453 0.605 -2.908 0.911 -4.36 0.033 -0.16 0.067 -0.319 0.101 -0.478 0.012 -0.059 -0.001 -0.086 0.057 -0.086 l 0.117 0 0.234 0 0.939 0 1.837 0 c -0.307 1.48 -0.613 2.963 -0.919 4.443 0.618 0 1.242 0.036 1.851 -0.081 0.306 -0.056 0.606 -0.156 0.897 -0.27 0.238 -0.093 0.471 -0.19 0.69 -0.33 0.816 -0.522 1.481 -1.535 1.377 -2.649 -0.115 -1.239 -1.259 -1.706 -2.195 -1.822 -0.566 -0.071 -1.138 -0.054 -1.706 -0.053 -0.65 0 -1.3 0 -1.95 0 l -0.744 0 -0.156 0 c -0.044 0 -0.157 0.026 -0.157 -0.028 0 -0.134 0.055 -0.287 0.083 -0.416 0.118 -0.544 0.235 -1.088 0.352 -1.632" style="fill:#268bd2"/>
</svg>
