<svg xmlns="http://www.w3.org/2000/svg" viewBox="0 0 48 48">
 <g style="fill:none;stroke:#fff">
  <g transform="translate(-38.38147 -1006.10034)" style="stroke-width:0.5"/>
  <g transform="translate(-39.59798 -1004.3622)" style="stroke-width:0.4"/>
 </g>
 <g transform="translate(0 -1004.3622)" style="fill:#eee8d5">
  <path d="m 24 8 c -8.837 0 -16 7.163 -16 16 c 0 8.837 7.163 16 16 16 c 8.837 0 16 -7.163 16 -16 c 0 -8.837 -7.163 -16 -16 -16 z m 0 11 c 2.756 0 5 2.244 5 5 c 0 2.756 -2.244 5 -5 5 c -2.756 0 -5 -2.244 -5 -5 c 0 -2.756 2.244 -5 5 -5 z m 0 1 c -2.215 0 -4 1.785 -4 4 c 0 2.215 1.785 4 4 4 c 2.215 0 4 -1.785 4 -4 c 0 -2.215 -1.785 -4 -4 -4 z m 0 1.5 c 1.381 0 2.5 1.119 2.5 2.5 c 0 1.381 -1.119 2.5 -2.5 2.5 c -1.381 0 -2.5 -1.119 -2.5 -2.5 c 0 -1.381 1.119 -2.5 2.5 -2.5 z" transform="translate(0 1004.3622)"/>
 </g>
 <path d="m 22.268 22.21 c 0.389 -0.377 0.89 -0.631 1.43 -0.698 l -0.194 -1.469 c -0.863 0.107 -1.652 0.486 -2.273 1.088 l 1.037 1.078 z m -1.732 -1.788 c 0.776 -0.746 1.779 -1.23 2.852 -1.366 l -1.392 -10.916 c -3.438 0.439 -6.654 1.974 -9.133 4.374 l 7.673 7.908 z" style="fill:#657b83;opacity:0.256"/>
 <path d="m 26.333 24.867 c -0.189 0.508 -0.531 0.953 -0.99 1.246 l 0.808 1.242 c 0.733 -0.469 1.282 -1.15 1.583 -1.962 l -1.401 -0.526 z m 2.333 0.867 c -0.379 1.01 -1.075 1.876 -1.985 2.461 l 5.96 9.251 c 2.914 -1.878 5.154 -4.648 6.357 -7.883 l -10.332 -3.83 z" style="fill:#fffefb;opacity:0.464;fill-opacity:1"/>
 <path d="m 25.793 25.727 c -0.376 0.39 -0.868 0.661 -1.406 0.747 l 0.245 1.462 c 0.859 -0.137 1.634 -0.542 2.235 -1.166 l -1.074 -1.042 z m 1.793 1.727 c -0.75 0.773 -1.735 1.291 -2.803 1.463 l 1.768 10.862 c 3.421 -0.557 6.582 -2.202 8.977 -4.687 l -7.942 -7.638 z" style="fill:#657b83;opacity:0.256"/>
 <path d="m 21.684 23.09 c 0.198 -0.504 0.549 -0.942 1.014 -1.227 l -0.785 -1.257 c -0.742 0.455 -1.303 1.126 -1.619 1.932 l 1.391 0.553 z m -2.316 -0.911 c 0.398 -1 1.11 -1.856 2.031 -2.423 l -5.784 -9.362 c -2.949 1.822 -5.241 4.55 -6.505 7.761 l 10.257 4.02 z" style="fill:#fffefb;opacity:0.426;fill-opacity:1"/>
 <path d="m 24 19 c -2.761 0 -5 2.239 -5 5 c 0 2.761 2.239 5 5 5 c 2.761 0 5 -2.239 5 -5 c 0 -2.761 -2.239 -5 -5 -5 z m 0 1 c 2.209 0 4 1.791 4 4 c 0 2.209 -1.791 4 -4 4 c -2.209 0 -4 -1.791 -4 -4 c 0 -2.209 1.791 -4 4 -4 z" style="fill:#839496;opacity:1;fill-opacity:1;stroke:none"/>
</svg>
