<svg xmlns="http://www.w3.org/2000/svg" viewBox="0 0 48 48">
 <rect width="44" height="37" x="2" y="5.5" rx="1" style="fill:#002b36;fill-opacity:1;stroke:none"/>
 <rect width="36" height="21" x="6" y="18.5" rx="1" style="fill:#eee8d5;fill-opacity:1;stroke:none"/>
 <rect width="34" height="18" x="7" y="19.5" rx="1" style="fill:#fdf6e3;fill-opacity:1;stroke:none"/>
 <path d="m 6 8.5 c -0.554 0 -1 0.446 -1 1 l 0 11 38 0 0 -11 c 0 -0.554 -0.446 -1 -1 -1 l -36 0 z" style="fill:#eee8d5;fill-opacity:1;stroke:none"/>
 <path d="m 8 9.5 c -0.554 0 -1 0.446 -1 1 l 0 10 34 0 0 -10 c 0 -0.554 -0.446 -1 -1 -1 l -32 0 z" style="fill:#e7af00;fill-opacity:1;stroke:none"/>
 <path d="m 20.15 16.585 8 0 -4 -4 z" style="fill:#eee8d5;stroke:none"/>
 <g transform="translate(47,-2.5)" style="fill:#002b36;fill-opacity:1;stroke:none">
  <path d="m -22.342 33.656 c -0.69 0 -1.224 0.26 -1.602 0.78 -0.378 0.516 -0.568 1.238 -0.568 2.164 0 1.927 0.723 2.891 2.17 2.891 0.607 0 1.342 -0.152 2.205 -0.455 l 0 1.537 c -0.709 0.296 -1.502 0.443 -2.377 0.443 -1.257 0 -2.219 -0.38 -2.885 -1.141 -0.666 -0.765 -0.999 -1.86 -0.999 -3.287 0 -0.899 0.164 -1.685 0.491 -2.359 0.327 -0.678 0.796 -1.196 1.407 -1.555 0.615 -0.363 1.334 -0.544 2.158 -0.544 0.84 0 1.683 0.203 2.53 0.609 l -0.591 1.49 c -0.323 -0.154 -0.648 -0.288 -0.976 -0.402 -0.327 -0.114 -0.648 -0.171 -0.964 -0.171"/>
  <path d="m -16.501 40.898 -1.803 0 0 -8.644 4.954 0 0 1.502 -3.151 0 0 2.229 2.932 0 0 1.496 -2.932 0 0 3.417"/>
  <path d="m -6.22 40.898 -6.04 0 0 -1.271 2.17 -2.193 c 0.642 -0.658 1.062 -1.113 1.259 -1.366 0.197 -0.256 0.339 -0.493 0.426 -0.709 0.087 -0.217 0.13 -0.441 0.13 -0.674 0 -0.347 -0.097 -0.605 -0.29 -0.774 -0.189 -0.169 -0.443 -0.254 -0.763 -0.254 -0.335 0 -0.66 0.077 -0.976 0.231 -0.315 0.154 -0.644 0.372 -0.987 0.656 l -0.993 -1.177 c 0.426 -0.363 0.778 -0.619 1.058 -0.769 0.28 -0.15 0.585 -0.264 0.916 -0.343 0.331 -0.083 0.702 -0.124 1.111 -0.124 0.54 0 1.017 0.099 1.431 0.296 0.414 0.197 0.735 0.473 0.964 0.828 0.229 0.355 0.343 0.761 0.343 1.218 0 0.398 -0.071 0.773 -0.213 1.123 -0.138 0.347 -0.355 0.704 -0.65 1.07 -0.292 0.367 -0.808 0.889 -1.549 1.567 l -1.111 1.046 0 0.083 3.766 0 0 1.537"/>
 </g>
</svg>
