<svg xmlns="http://www.w3.org/2000/svg" width="47.5" height="47.5" viewBox="0 0 38 38">
 <path d="m 4.156 6.332 c -0.551 0.102 -0.988 0.629 -0.988 1.188 l 0 22.961 c 0.008 0.617 0.566 1.176 1.187 1.188 l 29.29 0 c 0.621 -0.012 1.18 -0.57 1.188 -1.188 l 0 -19.695 c -0.008 -0.617 -0.566 -1.176 -1.188 -1.188 l -11.477 0 0 -2.078 c -0.012 -0.617 -0.57 -1.176 -1.188 -1.188 l -16.625 0 c -0.066 -0.004 -0.133 -0.004 -0.199 0 z m 14.05 8 0.793 0 c 3.492 0 6.332 2.844 6.332 6.336 0 3.492 -2.84 6.332 -7.125 6.332 -2.699 0 -5.539 -2.84 -5.539 -6.332 0 -3.492 2.84 -6.336 5.539 -6.336 z m 0.102 0.891 c -0.246 0.035 -0.508 0.086 -0.742 0.148 l -0.742 1.238 c 0.063 0.008 0.113 0.004 0.195 0.051 0.398 0.227 0.582 0.418 0.695 0.445 0.113 0.027 0.613 -0.664 0.246 0.098 -0.367 0.762 -0.516 1.02 -0.941 1.188 -0.023 0.008 -0.07 -0.012 -0.098 0 -0.109 0.129 -0.262 0.281 -0.445 0.445 -0.398 0.355 -0.594 0.387 -0.594 0.742 0 0.355 0.031 0.664 -0.246 1.137 -0.281 0.477 -0.516 0.484 -0.398 0.844 0.121 0.355 0.203 0.969 0 0.691 -0.199 -0.277 -0.086 -0.813 -0.246 -0.496 -0.141 0.277 -0.469 0.359 -0.496 0.645 -0.004 0.039 -0.008 0.098 0 0.148 0.105 0.344 0.695 -0.121 0.695 0.148 0 0.277 -0.516 0.258 -0.398 0.496 0.121 0.234 0.59 -0.465 0.992 -0.348 0.398 0.117 0.133 0.188 0.492 0.348 0.359 0.156 0.547 0.305 0.547 0.543 0 0.238 1.156 0.148 1.039 0.543 -0.121 0.398 -0.234 0.309 -0.594 0.742 -0.199 0.242 -0.379 0.379 -0.496 0.496 0.164 0.121 0.203 0.164 0.395 0.098 0.254 -0.082 -0.047 -0.184 0.148 -0.297 0.051 -0.027 0.07 -0.074 0.102 -0.098 0.027 -0.023 0.039 -0.031 0.098 -0.051 0.121 -0.035 0.34 -0.047 0.891 -0.047 1.102 0 1.684 0.047 1.684 0.047 0 0 0.34 0 0 0.199 -0.25 0.145 -0.73 0.375 -0.793 0.445 0.023 -0.004 0.035 0.02 0.098 0 0.512 -0.141 1.238 -0.238 1.438 -0.297 0.082 -0.023 0.527 -0.281 0.891 -0.445 0.012 -0.035 0.035 -0.066 0.047 -0.098 l -0.047 0 c -0.281 -0.121 -0.527 -0.684 -0.445 -0.844 0.078 -0.16 0.293 -0.293 0.492 -0.691 0.203 -0.398 0.164 -0.07 -0.395 -0.793 -0.559 -0.719 -0.859 0.043 -1.137 -0.195 -0.281 -0.242 -0.852 -0.453 -1.09 -0.891 c -0.238 -0.441 -0.148 -0.117 -0.148 -0.594 c 0 -0.48 -0.02 -0.145 0.098 -0.547 0.121 -0.398 0.441 -0.461 0.844 -0.742 0.055 -0.039 0.09 -0.02 0.148 -0.047 -0.09 -0.086 -0.195 -0.297 -0.445 -0.547 0 0 0.242 -0.512 0.445 -0.594 0.191 -0.074 0.328 -0.023 0.594 0.051 0.012 -0.043 -0.012 -0.051 0 -0.148 0.039 -0.32 -0.102 -0.148 -0.102 -0.348 0 -0.199 0.066 0.031 0.348 -0.047 0.281 -0.082 0.266 -0.676 0.543 -0.594 0.281 0.078 0.305 -0.086 0.547 -0.445 0.238 -0.363 -0.027 -0.188 -0.348 -0.348 -0.32 -0.16 -0.02 0.266 -0.098 0.543 -0.082 0.281 -0.316 0.105 -0.594 -0.492 -0.281 -0.602 -0.063 -0.363 0.098 -0.844 0.027 -0.082 0.059 -0.148 0.098 -0.195 -0.52 -0.227 -1.09 -0.344 -1.68 -0.398 -0.004 0.027 0 0.02 0 0.051 -0.059 0.535 -0.332 0.191 -0.445 0.246 -0.113 0.059 -0.844 1.105 -0.844 0.992 0 -0.113 0.102 -0.297 0.102 -0.297 0 0 0.09 -0.48 0 -0.992 z m 2.273 2.129 c 0.125 0.02 0.238 0.129 0.297 0.246 0.035 0.066 -0.012 0.086 -0.047 0.102 0 0 0.047 0.156 0.047 0.195 0 0.039 -0.105 0.051 -0.297 0 -0.141 -0.035 0.004 -0.074 0.102 -0.148 l -0.199 0 c -0.07 0 -0.082 -0.035 -0.098 -0.047 0.008 0.008 -0.02 0.027 0 0.047 0.09 0.113 -0.02 0.023 -0.148 0.051 -0.133 0.031 -0.012 -0.086 0.047 -0.199 0 0 0.086 0.074 0.102 0.102 0.023 -0.055 0.047 -0.16 0.047 -0.297 0.051 -0.023 0.109 -0.063 0.148 -0.051 z m 3.02 0.348 c -0.199 0.148 -0.434 0.48 -0.645 0.691 -0.359 0.359 0.195 0.406 0.398 0.445 0.199 0.039 0.391 -0.098 0.789 -0.098 -0.004 -0.02 -0.039 -0.031 -0.047 -0.051 -0.055 0.008 -0.086 0 -0.148 0 -0.234 0 -0.105 -0.176 -0.051 -0.496 -0.082 -0.164 -0.199 -0.34 -0.297 -0.492 z m -2.473 0.742 c -0.086 -0.027 -0.195 0.059 -0.348 0.148 0.109 0.156 -0.223 0.574 -0.395 0.891 -0.008 0.008 -0.043 0.035 -0.051 0.047 0.344 -0.055 0.883 0.047 2.078 0.348 0 0 0.465 -0.16 0.543 0 0.031 0.055 0.164 0.086 0.348 0.098 0.484 -0.188 0.246 -0.305 0.246 -0.691 0 -0.398 -0.621 0 -0.543 -0.199 0.078 -0.199 -0.066 -0.164 -0.348 -0.445 c -0.277 -0.277 -0.242 0.695 -0.445 0.496 -0.199 -0.199 -0.215 -0.039 -0.297 -0.199 c -0.078 -0.16 -0.344 -0.445 -0.344 -0.445 0 0 0.188 0.246 0.148 0.645 -0.043 0.398 -0.594 0.051 -0.594 0.051 0 0 0.086 -0.063 0.246 -0.102 0.16 -0.039 -0.027 -0.262 -0.148 -0.543 -0.031 -0.066 -0.063 -0.086 -0.098 -0.098 z m 3.363 1.977 c -0.043 0.035 -0.094 0.078 -0.148 0.102 -0.441 0.16 -0.793 0.492 -0.793 0.492 0 0 0.531 0.027 0.891 0.348 0.027 -0.219 0.051 -0.469 0.051 -0.691 0 -0.082 0.004 -0.168 0 -0.25 z" style="fill:#8f9ea8"/>
</svg>
