<svg xmlns="http://www.w3.org/2000/svg" viewBox="0 0 48 48" style="enable-background:new">
 <rect width="1" height="17" x="13" y="19" style="fill:#1a1a1a;opacity:1;fill-opacity:1;stroke:none"/>
 <path d="m 5 33 38 0 0 10 -38 0 z" style="fill:#999;stroke:none"/>
 <rect y="37" x="7" height="2" width="4" style="fill:#1a1a1a;fill-opacity:1;stroke:none"/>
 <path d="M 15.25 19 A 1.75 1.75 0 0 1 13.5 20.75 1.75 1.75 0 0 1 11.75 19 1.75 1.75 0 0 1 13.5 17.25 1.75 1.75 0 0 1 15.25 19" style="fill:#1a1a1a;opacity:1;fill-opacity:1;stroke:none"/>
 <circle cx="29.513" cy="38" r="1.313" style="fill:#ffeb42;opacity:1;fill-opacity:1;stroke:none"/>
 <rect width="3" height="10" x="34" y="33" style="fill:#fff;opacity:0.4;fill-opacity:1;stroke:none"/>
 <circle cx="34.763" cy="38" r="1.313" style="fill:#ffeb42;opacity:1;fill-opacity:1;stroke:none"/>
 <circle cx="40.01" cy="38" r="1.313" style="fill:#ffeb42;opacity:1;fill-opacity:1;stroke:none"/>
 <path d="m 29.08 8.146 -1.629 1.141 c 1.919 2.753 3.053 6.096 3.053 9.713 c 0 3.618 -1.15 6.947 -3.074 9.697 l 1.635 1.145 c 2.155 -3.077 3.439 -6.805 3.439 -10.842 0 -4.04 -1.272 -7.774 -3.424 -10.854 m -3.275 2.293 -1.629 1.139 c 1.464 2.104 2.328 4.658 2.328 7.422 c 0 2.764 -0.868 5.315 -2.334 7.416 l 1.633 1.143 c 1.699 -2.427 2.701 -5.375 2.701 -8.559 c 0 -3.183 -1 -6.13 -2.699 -8.561 z m -21.326 2.293 c -1.241 1.781 -1.975 3.938 -1.975 6.268 c 0 2.33 0.734 4.487 1.977 6.266 l 1.623 -1.135 c -1.01 -1.454 -1.6 -3.221 -1.6 -5.131 c 0 -1.91 0.593 -3.675 1.602 -5.129 z m 18.05 0 -1.627 1.139 c 1.01 1.454 1.602 3.219 1.602 5.129 c 0 1.91 -0.591 3.677 -1.6 5.131 l 1.623 1.135 c 1.242 -1.778 1.977 -3.936 1.977 -6.266 c 0 -2.329 -0.734 -4.487 -1.975 -6.268 z m -14.775 2.293 c -0.785 1.131 -1.25 2.499 -1.25 3.975 c 0 1.476 0.48 2.833 1.266 3.963 l 1.617 -1.131 c -0.556 -0.802 -0.883 -1.775 -0.883 -2.832 c 0 -1.056 0.326 -2.029 0.879 -2.834 z m 11.5 0 -1.629 1.141 c 0.553 0.805 0.879 1.778 0.879 2.834 c 0 1.057 -0.327 2.03 -0.883 2.832 l 1.617 1.131 c 0.786 -1.13 1.266 -2.487 1.266 -3.963 c 0 -1.475 -0.465 -2.844 -1.25 -3.975 z" mix-blend-mode="normal" isolation="auto" white-space="normal" solid-opacity="1" solid-color="#000000" style="visibility:visible;shape-rendering:auto;color-interpolation-filters:linearRGB;fill:#a6e3ff;opacity:1;image-rendering:auto;fill-opacity:0.557;stroke:none;display:inline;color:#000;fill-rule:nonzero;color-rendering:auto;color-interpolation:sRGB"/>
 <path d="m 32.357 5.85 l -1.635 1.145 c 2.375 3.403 3.777 7.536 3.777 12.01 c 0 4.47 -1.402 8.603 -3.777 12.01 l 1.635 1.145 c 2.607 -3.729 4.143 -8.261 4.143 -13.15 c 0 -4.89 -1.535 -9.421 -4.143 -13.15 z" mix-blend-mode="normal" isolation="auto" white-space="normal" solid-opacity="1" solid-color="#000000" style="visibility:visible;shape-rendering:auto;color-interpolation-filters:linearRGB;fill:#a6e3ff;opacity:1;image-rendering:auto;fill-opacity:0.557;stroke:none;display:inline;color:#000;fill-rule:nonzero;color-rendering:auto;color-interpolation:sRGB"/>
</svg>
