<svg xmlns="http://www.w3.org/2000/svg" viewBox="0 0 48 48">
 <rect width="20" height="22" x="14" y="9" style="fill:#5aa9e1;opacity:1;fill-opacity:1;stroke:none;fill-rule:nonzero"/>
 <rect width="20" height="8" x="14" y="30.5" rx="1" style="fill:#a9aeb7;opacity:1;fill-opacity:1;stroke:none;fill-rule:nonzero"/>
 <path d="m 30 9 -13 22 17 0 0 -22" style="fill:#fdf6e3;fill-opacity:0.188;stroke:none;fill-rule:evenodd"/>
 <g transform="translate(0 -1004.3622)" style="fill:#073642;fill-opacity:1">
  <path d="m 14.5 8 c -0.814 0 -1.5 0.686 -1.5 1.5 l 0 28 c 0 0.069 0.076 0.676 0.406 1.031 c 0.331 0.355 0.779 0.586 1.438 0.781 c 1.317 0.39 3.612 0.688 8.156 0.688 l 2 0 c 4.05 0 6.355 -0.315 7.75 -0.688 c 0.697 -0.186 1.171 -0.376 1.531 -0.625 c 0.361 -0.249 0.719 -0.517 0.719 -1.188 l 0 -28 c 0 -0.814 -0.686 -1.5 -1.5 -1.5 l -19 0 z m 0.5 2 l 18 0 l 0 20 l -18 0 l 0 -20 z m 1 21 c 0.552 0 1 0.448 1 1 c 0 0.552 -0.448 1 -1 1 c -0.552 0 -1 -0.448 -1 -1 c 0 -0.552 0.448 -1 1 -1 z m 3 0 c 0.552 0 1 0.448 1 1 c 0 0.552 -0.448 1 -1 1 c -0.552 0 -1 -0.448 -1 -1 c 0 -0.552 0.448 -1 1 -1 z m 3 0 c 0.552 0 1 0.448 1 1 c 0 0.552 -0.448 1 -1 1 c -0.552 0 -1 -0.448 -1 -1 c 0 -0.552 0.448 -1 1 -1 z m 4 0 c 0.552 0 1 0.448 1 1 c 0 0.552 -0.448 1 -1 1 c -0.552 0 -1 -0.448 -1 -1 c 0 -0.552 0.448 -1 1 -1 z m 3 0 c 0.552 0 1 0.448 1 1 c 0 0.552 -0.448 1 -1 1 c -0.552 0 -1 -0.448 -1 -1 c 0 -0.552 0.448 -1 1 -1 z m 3 0 c 0.552 0 1 0.448 1 1 c 0 0.552 -0.448 1 -1 1 c -0.552 0 -1 -0.448 -1 -1 c 0 -0.552 0.448 -1 1 -1 z m -16 3 c 0.552 0 1 0.448 1 1 c 0 0.552 -0.448 1 -1 1 c -0.552 0 -1 -0.448 -1 -1 c 0 -0.552 0.448 -1 1 -1 z m 3 0 c 0.552 0 1 0.448 1 1 c 0 0.552 -0.448 1 -1 1 c -0.552 0 -1 -0.448 -1 -1 c 0 -0.552 0.448 -1 1 -1 z m 5 0 c 1.105 0 2 0.895 2 2 c 0 1.105 -0.895 2 -2 2 c -1.105 0 -2 -0.895 -2 -2 c 0 -1.105 0.895 -2 2 -2 z m 5 0 c 0.552 0 1 0.448 1 1 c 0 0.552 -0.448 1 -1 1 c -0.552 0 -1 -0.448 -1 -1 c 0 -0.552 0.448 -1 1 -1 z m 3 0 c 0.552 0 1 0.448 1 1 c 0 0.552 -0.448 1 -1 1 c -0.552 0 -1 -0.448 -1 -1 c 0 -0.552 0.448 -1 1 -1 z" transform="translate(0 1004.3622)" style="color:#000"/>
 </g>
 <path d="m 32 8 -2 0 0 31.777 c 0.808 -0.085 1.445 -0.19 2 -0.305 z" style="fill:#eee8d5;fill-opacity:0.149;stroke:none"/>
</svg>
