<?xml version="1.0" encoding="UTF-8" standalone="no"?>
<svg
   xmlns:dc="http://purl.org/dc/elements/1.1/"
   xmlns:cc="http://creativecommons.org/ns#"
   xmlns:rdf="http://www.w3.org/1999/02/22-rdf-syntax-ns#"
   xmlns:svg="http://www.w3.org/2000/svg"
   xmlns="http://www.w3.org/2000/svg"
   xmlns:sodipodi="http://sodipodi.sourceforge.net/DTD/sodipodi-0.dtd"
   xmlns:inkscape="http://www.inkscape.org/namespaces/inkscape"
   width="48"
   height="48"
   viewBox="0 0 48 48"
   version="1.1"
   id="svg6"
   sodipodi:docname="ic_signal_wifi_2_bar_lock_48px.svg"
   inkscape:version="0.92.4 5da689c313, 2019-01-14">
  <metadata
     id="metadata12">
    <rdf:RDF>
      <cc:Work
         rdf:about="">
        <dc:format>image/svg+xml</dc:format>
        <dc:type
           rdf:resource="http://purl.org/dc/dcmitype/StillImage" />
        <dc:title></dc:title>
      </cc:Work>
    </rdf:RDF>
  </metadata>
  <defs
     id="defs10" />
  <sodipodi:namedview
     pagecolor="#ffffff"
     bordercolor="#666666"
     borderopacity="1"
     objecttolerance="10"
     gridtolerance="10"
     guidetolerance="10"
     inkscape:pageopacity="0"
     inkscape:pageshadow="2"
     inkscape:window-width="1321"
     inkscape:window-height="740"
     id="namedview8"
     showgrid="false"
     inkscape:pagecheckerboard="true"
     inkscape:zoom="4.9166667"
     inkscape:cx="-14.542373"
     inkscape:cy="24"
     inkscape:window-x="45"
     inkscape:window-y="28"
     inkscape:window-maximized="0"
     inkscape:current-layer="svg6" />
  <path
     opacity=".3"
     d="M41 19c.7 0 1.4.1 2.1.2l4.2-5.2c-.9-.7-9.9-8-23.3-8S1.6 13.3.7 14L24 43l7-8.7V29c0-5.5 4.5-10 10-10z"
     id="path2"
     style="fill:#ffffff;fill-opacity:0.40000001;opacity:1" />
  <path
     d="M46 32v-3c0-2.8-2.2-5-5-5s-5 2.2-5 5v3c-1.1 0-2 .9-2 2v8c0 1.1.9 2 2 2h10c1.1 0 2-.9 2-2v-8c0-1.1-.9-2-2-2zm-2 0h-6v-3c0-1.7 1.3-3 3-3s3 1.3 3 3v3zM9.6 25L24 43l7-8.7V29c0-2.6 1-5 2.7-6.8C31.2 21 27.9 20 24 20c-8.2 0-13.7 4.5-14.4 5z"
     id="path4"
     style="fill:#ffffff;fill-opacity:1" />
</svg>
