<svg width="563.75" xmlns="http://www.w3.org/2000/svg" height="64" viewBox="0 0 451 64" xmlns:xlink="http://www.w3.org/1999/xlink">
<g style="fill:#888;fill-opacity:.078">
<path d="M 39.894531 15.542969 C 39.894531 19.738281 36.496094 23.144531 32.304688 23.144531 C 28.109375 23.144531 24.710938 19.738281 24.710938 15.542969 C 24.710938 11.34375 28.109375 7.941406 32.304688 7.941406 C 36.496094 7.941406 39.894531 11.34375 39.894531 15.542969 Z "/>
<path d="M 39.894531 48.457031 C 39.894531 52.65625 36.496094 56.058594 32.304688 56.058594 C 28.109375 56.058594 24.710938 52.65625 24.710938 48.457031 C 24.710938 44.257812 28.109375 40.855469 32.304688 40.855469 C 36.496094 40.855469 39.894531 44.257812 39.894531 48.457031 Z "/>
<path d="M 50.335938 30.351562 C 46.703125 32.453125 42.058594 31.207031 39.964844 27.570312 C 37.867188 23.9375 39.113281 19.285156 42.742188 17.1875 C 46.375 15.089844 51.015625 16.335938 53.113281 19.96875 C 55.210938 23.605469 53.964844 28.253906 50.335938 30.351562 Z "/>
<path d="M 21.863281 46.8125 C 18.234375 48.910156 13.589844 47.664062 11.492188 44.027344 C 9.398438 40.394531 10.640625 35.746094 14.273438 33.644531 C 17.902344 31.546875 22.546875 32.792969 24.644531 36.429688 C 26.738281 40.0625 25.496094 44.710938 21.863281 46.8125 Z "/>
<path d="M 42.742188 46.8125 C 39.113281 44.710938 37.867188 40.0625 39.964844 36.429688 C 42.0625 32.792969 46.703125 31.546875 50.335938 33.644531 C 53.964844 35.746094 55.210938 40.394531 53.113281 44.03125 C 51.015625 47.664062 46.375 48.910156 42.742188 46.8125 Z "/>
<path d="M 14.273438 30.355469 C 10.640625 28.253906 9.398438 23.605469 11.492188 19.96875 C 13.589844 16.335938 18.234375 15.089844 21.863281 17.1875 C 25.496094 19.289062 26.738281 23.9375 24.644531 27.570312 C 22.546875 31.207031 17.902344 32.453125 14.273438 30.355469 Z "/>
</g>
<path style="fill:#959595;fill-opacity:.784" d="M 104.292969 15.542969 C 104.292969 19.738281 100.894531 23.144531 96.703125 23.144531 C 92.507812 23.144531 89.109375 19.738281 89.109375 15.542969 C 89.109375 11.34375 92.507812 7.941406 96.703125 7.941406 C 100.894531 7.941406 104.292969 11.34375 104.292969 15.542969 Z "/>
<g style="fill:#888;fill-opacity:.078">
<path d="M 104.292969 48.457031 C 104.292969 52.65625 100.894531 56.058594 96.703125 56.058594 C 92.507812 56.058594 89.109375 52.65625 89.109375 48.457031 C 89.109375 44.257812 92.507812 40.855469 96.703125 40.855469 C 100.894531 40.855469 104.292969 44.257812 104.292969 48.457031 Z "/>
<path d="M 114.734375 30.355469 C 111.101562 32.453125 106.460938 31.207031 104.363281 27.570312 C 102.265625 23.9375 103.511719 19.289062 107.140625 17.1875 C 110.773438 15.089844 115.417969 16.335938 117.511719 19.96875 C 119.609375 23.605469 118.363281 28.253906 114.734375 30.355469 Z "/>
<path d="M 86.261719 46.8125 C 82.632812 48.910156 77.988281 47.664062 75.890625 44.03125 C 73.796875 40.394531 75.039062 35.746094 78.671875 33.644531 C 82.300781 31.546875 86.945312 32.792969 89.042969 36.429688 C 91.136719 40.0625 89.894531 44.710938 86.261719 46.8125 Z "/>
<path d="M 107.140625 46.8125 C 103.511719 44.710938 102.265625 40.0625 104.363281 36.429688 C 106.460938 32.792969 111.101562 31.546875 114.734375 33.644531 C 118.363281 35.746094 119.609375 40.394531 117.511719 44.03125 C 115.414062 47.664062 110.773438 48.910156 107.140625 46.8125 Z "/>
</g>
<g style="fill:#959595;fill-opacity:.392">
<path d="M 78.671875 30.355469 C 75.039062 28.253906 73.796875 23.605469 75.890625 19.96875 C 77.988281 16.335938 82.632812 15.089844 86.261719 17.1875 C 89.894531 19.285156 91.136719 23.9375 89.042969 27.570312 C 86.945312 31.207031 82.300781 32.453125 78.671875 30.355469 Z "/>
<path d="M 168.691406 15.542969 C 168.691406 19.738281 165.292969 23.144531 161.101562 23.144531 C 156.90625 23.144531 153.507812 19.738281 153.507812 15.542969 C 153.507812 11.34375 156.90625 7.941406 161.101562 7.941406 C 165.292969 7.941406 168.691406 11.34375 168.691406 15.542969 Z "/>
</g>
<path style="fill:#888;fill-opacity:.078" d="M 168.691406 48.457031 C 168.691406 52.65625 165.292969 56.058594 161.101562 56.058594 C 156.90625 56.058594 153.507812 52.65625 153.507812 48.457031 C 153.507812 44.257812 156.90625 40.855469 161.101562 40.855469 C 165.292969 40.855469 168.691406 44.257812 168.691406 48.457031 Z "/>
<path style="fill:#959595;fill-opacity:.784" d="M 179.132812 30.355469 C 175.5 32.453125 170.859375 31.207031 168.761719 27.570312 C 166.664062 23.9375 167.910156 19.289062 171.539062 17.1875 C 175.171875 15.089844 179.816406 16.335938 181.910156 19.96875 C 184.007812 23.605469 182.765625 28.253906 179.132812 30.355469 Z "/>
<g style="fill:#888;fill-opacity:.078">
<path d="M 150.660156 46.8125 C 147.03125 48.910156 142.386719 47.664062 140.292969 44.03125 C 138.195312 40.394531 139.4375 35.746094 143.070312 33.644531 C 146.699219 31.546875 151.34375 32.792969 153.441406 36.429688 C 155.539062 40.0625 154.292969 44.710938 150.660156 46.8125 Z "/>
<path d="M 171.539062 46.8125 C 167.910156 44.710938 166.664062 40.0625 168.761719 36.429688 C 170.859375 32.792969 175.5 31.546875 179.132812 33.644531 C 182.761719 35.746094 184.007812 40.394531 181.910156 44.03125 C 179.816406 47.664062 175.171875 48.910156 171.539062 46.8125 Z "/>
<path d="M 143.070312 30.355469 C 139.4375 28.253906 138.195312 23.605469 140.289062 19.96875 C 142.386719 16.335938 147.03125 15.089844 150.660156 17.1875 C 154.292969 19.285156 155.535156 23.9375 153.441406 27.570312 C 151.34375 31.207031 146.699219 32.453125 143.070312 30.355469 Z "/>
<path d="M 233.09375 15.542969 C 233.09375 19.738281 229.691406 23.144531 225.5 23.144531 C 221.308594 23.144531 217.90625 19.738281 217.90625 15.542969 C 217.90625 11.34375 221.308594 7.941406 225.5 7.941406 C 229.691406 7.941406 233.09375 11.34375 233.09375 15.542969 Z "/>
<path d="M 233.09375 48.457031 C 233.09375 52.65625 229.691406 56.058594 225.5 56.058594 C 221.308594 56.058594 217.90625 52.65625 217.90625 48.457031 C 217.90625 44.257812 221.308594 40.855469 225.5 40.855469 C 229.691406 40.855469 233.09375 44.257812 233.09375 48.457031 Z "/>
</g>
<path style="fill:#959595;fill-opacity:.392" d="M 243.53125 30.355469 C 239.902344 32.453125 235.257812 31.207031 233.160156 27.570312 C 231.0625 23.9375 232.308594 19.289062 235.941406 17.1875 C 239.570312 15.089844 244.214844 16.335938 246.308594 19.96875 C 248.40625 23.605469 247.164062 28.253906 243.53125 30.355469 Z "/>
<path style="fill:#888;fill-opacity:.078" d="M 215.0625 46.8125 C 211.429688 48.910156 206.785156 47.664062 204.691406 44.03125 C 202.59375 40.394531 203.835938 35.746094 207.46875 33.644531 C 211.101562 31.546875 215.742188 32.792969 217.839844 36.429688 C 219.9375 40.0625 218.691406 44.710938 215.0625 46.8125 Z "/>
<path style="fill:#959595;fill-opacity:.784" d="M 235.9375 46.8125 C 232.308594 44.710938 231.0625 40.0625 233.160156 36.429688 C 235.257812 32.792969 239.898438 31.546875 243.53125 33.644531 C 247.164062 35.746094 248.40625 40.394531 246.308594 44.03125 C 244.214844 47.664062 239.570312 48.910156 235.9375 46.8125 Z "/>
<g style="fill:#888;fill-opacity:.078">
<path d="M 207.46875 30.355469 C 203.835938 28.253906 202.59375 23.605469 204.691406 19.96875 C 206.785156 16.335938 211.429688 15.089844 215.058594 17.1875 C 218.691406 19.285156 219.9375 23.9375 217.839844 27.570312 C 215.742188 31.207031 211.101562 32.453125 207.46875 30.355469 Z "/>
<path d="M 297.492188 15.542969 C 297.492188 19.738281 294.089844 23.144531 289.898438 23.144531 C 285.707031 23.144531 282.308594 19.738281 282.308594 15.542969 C 282.308594 11.34375 285.707031 7.941406 289.898438 7.941406 C 294.089844 7.941406 297.492188 11.34375 297.492188 15.542969 Z "/>
</g>
<path style="fill:#959595;fill-opacity:.784" d="M 297.492188 48.457031 C 297.492188 52.65625 294.089844 56.058594 289.898438 56.058594 C 285.707031 56.058594 282.308594 52.65625 282.308594 48.457031 C 282.308594 44.257812 285.707031 40.855469 289.898438 40.855469 C 294.089844 40.855469 297.492188 44.257812 297.492188 48.457031 Z "/>
<g style="fill:#888;fill-opacity:.078">
<path d="M 307.929688 30.355469 C 304.300781 32.453125 299.65625 31.207031 297.558594 27.570312 C 295.464844 23.9375 296.707031 19.289062 300.339844 17.1875 C 303.96875 15.089844 308.613281 16.335938 310.710938 19.96875 C 312.804688 23.605469 311.5625 28.253906 307.929688 30.355469 Z "/>
<path d="M 279.460938 46.8125 C 275.828125 48.910156 271.183594 47.664062 269.089844 44.03125 C 266.992188 40.394531 268.238281 35.746094 271.867188 33.644531 C 275.5 31.546875 280.140625 32.792969 282.238281 36.429688 C 284.335938 40.0625 283.089844 44.710938 279.460938 46.8125 Z "/>
</g>
<path style="fill:#959595;fill-opacity:.392" d="M 300.339844 46.8125 C 296.707031 44.710938 295.464844 40.0625 297.558594 36.429688 C 299.65625 32.792969 304.300781 31.546875 307.929688 33.644531 C 311.5625 35.746094 312.804688 40.394531 310.710938 44.03125 C 308.613281 47.664062 303.96875 48.910156 300.339844 46.8125 Z "/>
<g style="fill:#888;fill-opacity:.078">
<path d="M 271.867188 30.355469 C 268.234375 28.253906 266.992188 23.605469 269.089844 19.96875 C 271.183594 16.335938 275.828125 15.089844 279.460938 17.1875 C 283.089844 19.285156 284.335938 23.9375 282.238281 27.570312 C 280.140625 31.207031 275.5 32.453125 271.867188 30.355469 Z "/>
<path d="M 361.890625 15.542969 C 361.890625 19.738281 358.492188 23.144531 354.296875 23.144531 C 350.105469 23.144531 346.707031 19.738281 346.707031 15.542969 C 346.707031 11.34375 350.105469 7.941406 354.296875 7.941406 C 358.492188 7.941406 361.890625 11.34375 361.890625 15.542969 Z "/>
<path d="M 361.890625 48.457031 C 361.890625 52.65625 358.492188 56.058594 354.296875 56.058594 C 350.105469 56.058594 346.707031 52.65625 346.707031 48.457031 C 346.707031 44.257812 350.105469 40.855469 354.296875 40.855469 C 358.492188 40.855469 361.890625 44.257812 361.890625 48.457031 Z "/>
<path d="M 372.328125 30.355469 C 368.699219 32.453125 364.054688 31.207031 361.957031 27.570312 C 359.863281 23.9375 361.105469 19.289062 364.738281 17.1875 C 368.367188 15.089844 373.011719 16.335938 375.109375 19.96875 C 377.203125 23.605469 375.960938 28.253906 372.328125 30.355469 Z "/>
</g>
<path style="fill:#959595;fill-opacity:.392" d="M 343.859375 46.8125 C 340.226562 48.910156 335.585938 47.664062 333.488281 44.03125 C 331.390625 40.394531 332.636719 35.746094 336.265625 33.644531 C 339.898438 31.546875 344.539062 32.792969 346.636719 36.429688 C 348.734375 40.0625 347.488281 44.710938 343.859375 46.8125 Z "/>
<path style="fill:#888;fill-opacity:.078" d="M 364.738281 46.8125 C 361.105469 44.710938 359.863281 40.0625 361.957031 36.429688 C 364.054688 32.792969 368.699219 31.546875 372.328125 33.644531 C 375.960938 35.746094 377.203125 40.394531 375.109375 44.03125 C 373.011719 47.664062 368.367188 48.910156 364.738281 46.8125 Z "/>
<g style="fill:#959595;fill-opacity:.784">
<path d="M 336.265625 30.355469 C 332.636719 28.253906 331.390625 23.605469 333.488281 19.96875 C 335.582031 16.335938 340.226562 15.089844 343.859375 17.1875 C 347.488281 19.285156 348.734375 23.9375 346.636719 27.570312 C 344.539062 31.207031 339.898438 32.453125 336.265625 30.355469 Z "/>
<path d="M 426.289062 15.542969 C 426.289062 19.738281 422.890625 23.144531 418.695312 23.144531 C 414.503906 23.144531 411.105469 19.738281 411.105469 15.542969 C 411.105469 11.34375 414.503906 7.941406 418.695312 7.941406 C 422.890625 7.941406 426.289062 11.34375 426.289062 15.542969 Z "/>
</g>
<g style="fill:#888;fill-opacity:.078">
<path d="M 426.289062 48.457031 C 426.289062 52.65625 422.890625 56.058594 418.695312 56.058594 C 414.503906 56.058594 411.105469 52.65625 411.105469 48.457031 C 411.105469 44.257812 414.503906 40.855469 418.695312 40.855469 C 422.890625 40.855469 426.289062 44.257812 426.289062 48.457031 Z "/>
<path d="M 436.726562 30.355469 C 433.097656 32.453125 428.453125 31.207031 426.359375 27.570312 C 424.261719 23.9375 425.503906 19.289062 429.136719 17.1875 C 432.765625 15.089844 437.410156 16.335938 439.507812 19.96875 C 441.605469 23.605469 440.359375 28.253906 436.726562 30.355469 Z "/>
<path d="M 408.257812 46.8125 C 404.625 48.910156 399.984375 47.664062 397.886719 44.03125 C 395.789062 40.394531 397.035156 35.746094 400.664062 33.644531 C 404.296875 31.546875 408.941406 32.792969 411.035156 36.429688 C 413.132812 40.0625 411.886719 44.710938 408.257812 46.8125 Z "/>
<path d="M 429.136719 46.8125 C 425.503906 44.710938 424.261719 40.0625 426.355469 36.429688 C 428.453125 32.792969 433.097656 31.546875 436.726562 33.644531 C 440.359375 35.746094 441.601562 40.394531 439.507812 44.03125 C 437.410156 47.664062 432.765625 48.910156 429.136719 46.8125 Z "/>
</g>
<path style="fill:#959595;fill-opacity:.392" d="M 400.664062 30.355469 C 397.035156 28.253906 395.789062 23.605469 397.886719 19.96875 C 399.984375 16.335938 404.625 15.089844 408.257812 17.1875 C 411.886719 19.285156 413.132812 23.9375 411.035156 27.570312 C 408.941406 31.207031 404.296875 32.453125 400.664062 30.355469 Z "/>
</svg>
