<svg xmlns="http://www.w3.org/2000/svg" viewBox="0 0 48 48">
 <path d="m 18 12 c -3.29 0 -6 2.71 -6 6 l 0 10 c 0 1.105 0.895 2 2 2 1.105 0 2 -0.895 2 -2 l 0 -10 c 0 -1.128 0.872 -2 2 -2 l 19 0 c 0.36 0 0.687 0.188 0.867 0.5 0.18 0.312 0.18 0.688 0 1 -0.18 0.312 -0.507 0.5 -0.867 0.5 -2.738 0 -5 2.262 -5 5 l 0 5 c 0 1.105 0.895 2 2 2 1.105 0 2 -0.895 2 -2 l 0 -5 c 0 -0.576 0.424 -1 1 -1 1.783 0 3.44 -0.956 4.332 -2.5 0.892 -1.544 0.892 -3.456 0 -5 -0.892 -1.544 -2.549 -2.5 -4.332 -2.5 z m -10 6 c -1.105 0 -2 0.895 -2 2 l 0 10 c 0 3.29 2.71 6 6 6 4.167 0 8.333 0 12.5 0 1.962 0 3.781 -1.051 4.762 -2.75 0.981 -1.699 0.981 -3.801 0 -5.5 c -0.981 -1.699 -2.8 -2.75 -4.762 -2.75 l -1 0 c -0.539 0 -1.031 -0.283 -1.301 -0.75 -0.27 -0.467 -0.27 -1.033 0 -1.5 0.27 -0.467 0.762 -0.75 1.301 -0.75 l 4.5 0 c 1.105 0 2 -0.895 2 -2 0 -1.105 -0.895 -2 -2 -2 l -4.5 0 c -1.962 0 -3.785 1.051 -4.766 2.75 -0.981 1.699 -0.981 3.801 0 5.5 0.981 1.699 2.804 2.75 4.766 2.75 l 1 0 c 0.539 0 1.031 0.283 1.301 0.75 0.27 0.467 0.27 1.033 0 1.5 -0.27 0.467 -0.762 0.75 -1.301 0.75 -4.167 0 -8.333 0 -12.5 0 -1.128 0 -2 -0.872 -2 -2 l 0 -10 c 0 -1.105 -0.895 -2 -2 -2 z" style="fill:#d07d86;opacity:1;fill-opacity:1;stroke:none;fill-rule:nonzero"/>
</svg>
