<svg xmlns="http://www.w3.org/2000/svg" viewBox="0 0 48 48">
 <g transform="matrix(1.21875,0,0,1.2580646,-5.75,-1269.8751)">
  <path d="m 10.462 1012.57 0 9.538 -2.462 0 0 3.179 2.462 0 0 3.179 -2.462 0 0 3.179 2.462 0 0 10.718 -2.462 0 0 2 4.923 0 0 -5.564 27.897 0 0 -20.667 -27.897 0 0 -5.564 z m 2.462 7.949 25.436 0 0 15.897 -25.436 0 z m 1.641 1.59 0 3.179 9.846 0 0 -3.179 z m 12.308 0 0 3.179 9.846 0 0 -3.179 z m -12.308 4.769 0 2.385 22.15 0 0 -2.385 z m 0 3.974 0 1.59 22.15 0 0 -1.59 z m 0 3.179 0 0.795 3.282 0 0 -0.795 z m 4.103 0 0 0.795 2.462 0 0 -0.795 z m 3.282 0 0 0.795 1.641 0 0 -0.795 z m 2.462 0 0 0.795 1.641 0 0 -0.795 z m 4.923 0 0 0.795 3.282 0 0 -0.795 z m 4.103 0 0 0.795 3.282 0 0 -0.795 z" style="fill:#92a991;color:#000"/>
 </g>
</svg>
