<svg xmlns="http://www.w3.org/2000/svg" viewBox="0 0 48 48">
 <path d="m 18.938 12 c -2.439 0 -3.437 0.219 -4.216 0.447 -1.213 0.356 -2.452 0.992 -3.229 1.989 -4.549 5.839 -7.505 19.665 -6.686 21.17 0.819 1.516 8.19 -1.504 12.05 -7.317 0.293 -0.434 0.832 -1.295 0.832 -1.295 l 12.615 0 c 0 0 0.539 0.861 0.832 1.295 3.863 5.813 11.234 8.833 12.05 7.317 c 0.819 -1.51 -2.137 -15.336 -6.686 -21.17 -0.777 -0.997 -2.02 -1.634 -3.229 -1.989 -0.779 -0.228 -1.777 -0.447 -4.216 -0.447 m 2.467 3.852 c 0.657 0.025 1.221 0.475 1.392 1.11 0.216 0.801 -0.259 1.625 -1.061 1.84 -0.801 0.214 -1.624 -0.262 -1.837 -1.064 -0.214 -0.8 0.26 -1.623 1.061 -1.837 0.145 -0.039 0.295 -0.056 0.445 -0.05 z m -16.529 0.148 2 0 l 0 3 3 0 0 1.999 -3 0 0 3 -2 0 0 -3 -3 0 0 -1.999 3 0 z m 20.21 1.973 c 0.658 0.025 1.222 0.477 1.392 1.113 0.214 0.8 -0.26 1.623 -1.061 1.837 -0.801 0.216 -1.625 -0.259 -1.84 -1.061 -0.216 -0.802 0.261 -1.627 1.063 -1.84 0.145 -0.039 0.295 -0.056 0.445 -0.05 z m -5.798 1.553 c 0.658 0.025 1.222 0.477 1.392 1.113 0.214 0.8 -0.26 1.623 -1.061 1.837 -0.8 0.214 -1.622 -0.261 -1.837 -1.061 -0.214 -0.8 0.26 -1.623 1.061 -1.837 0.145 -0.04 0.295 -0.058 0.445 -0.053 z m 3.524 2.124 c 0.713 -0.045 1.36 0.42 1.544 1.11 0.214 0.801 -0.262 1.624 -1.063 1.837 -0.8 0.214 -1.622 -0.261 -1.837 -1.061 -0.214 -0.8 0.26 -1.623 1.061 -1.837 0.097 -0.026 0.196 -0.043 0.296 -0.05 z" style="fill:#d64c62"/>
</svg>
