<svg xmlns="http://www.w3.org/2000/svg" width="48" height="48" viewBox="0 0 38.4 38.4">
 <path d="m 5.04 4 c -0.58 0 -1.044 0.449 -1.044 1.01 l 0 28.381 c 0 0.56 0.464 1.01 1.044 1.01 l 5.908 0 c 0.584 0 1.048 -0.449 1.048 -1.01 l 0 -28.381 c 0 -0.56 -0.465 -1.01 -1.048 -1.01 l -5.908 0 m 0.556 1.6 l 4.8 0 0 12.8 -4.8 0 0 -12.8 z m 2.4 19.2 a 2 2 0 0 1 2 2 2 2 0 0 1 -2 2 2 2 0 0 1 -2 -2 2 2 0 0 1 2 -2 z" style="fill:#b2a546"/>
 <path d="m 14.57 4 c -0.538 0 -0.97 0.449 -0.97 1.01 l 0 28.381 c 0 0.56 0.432 1.01 0.97 1.01 l 3.656 0 c 0.542 0 0.973 -0.449 0.973 -1.01 l 0 -28.381 c 0 -0.56 -0.431 -1.01 -0.973 -1.01 m -3.03 1.6 l 2.4 0 0 12.8 -2.4 0 z m 1.2 19.6 c 0.884 0 1.6 0.716 1.6 1.6 0 0.884 -0.716 1.6 -1.6 1.6 -0.884 0 -1.6 -0.716 -1.6 -1.6 0 -0.884 0.716 -1.6 1.6 -1.6 z" style="fill:#b2a546"/>
 <path d="m 21.649 5.12 c -0.594 0.159 -0.954 0.717 -0.809 1.256 l 7.346 27.3 c 0.145 0.539 0.737 0.844 1.331 0.685 l 4.04 -1.077 c 0.598 -0.16 0.958 -0.719 0.813 -1.258 l -7.346 -27.3 c -0.145 -0.539 -0.737 -0.844 -1.336 -0.684 m -3.148 2.489 3.091 -0.824 3.313 12.311 -3.091 0.824 z m 6.515 18.05 c 1.067 -0.285 2.164 0.346 2.45 1.408 0.286 1.062 -0.347 2.154 -1.414 2.439 -1.067 0.285 -2.164 -0.346 -2.45 -1.408 -0.286 -1.062 0.347 -2.154 1.414 -2.439 z" style="fill:#b2a546"/>
</svg>
