<svg xmlns="http://www.w3.org/2000/svg" width="47.5" height="47.5" viewBox="0 0 38 38">
 <g transform="matrix(1.0105269,0,0,1.0105119,-0.0249914,-0.37449527)" style="fill:#ec7878">
  <path d="m 20.93 8.609 c -0.125 0 -0.262 0.035 -0.379 0.113 -0.117 0.078 -0.219 0.211 -0.215 0.383 0.016 0.063 0.008 0.121 0.004 0.188 0 0.191 0.156 0.348 0.352 0.348 0.191 0 0.348 -0.156 0.348 -0.348 0 -0.191 -0.152 -0.348 -0.344 -0.352 0.066 -0.043 0.164 -0.066 0.234 -0.07 0.277 0 0.48 0.156 0.629 0.391 0.148 0.234 0.223 0.547 0.219 0.801 -0.012 0.633 -0.324 1.168 -0.789 1.574 -0.461 0.41 -1.074 0.688 -1.656 0.797 l 0.047 0.258 c 0.629 -0.117 1.281 -0.41 1.785 -0.855 0.504 -0.445 0.863 -1.051 0.879 -1.77 c 0.004 -0.309 -0.078 -0.66 -0.262 -0.945 -0.18 -0.289 -0.473 -0.512 -0.852 -0.512"/>
  <path d="m 17.07 8.609 c 0.125 0 0.262 0.035 0.379 0.113 0.117 0.078 0.219 0.211 0.215 0.383 -0.016 0.063 -0.008 0.121 -0.004 0.188 0 0.191 -0.156 0.348 -0.352 0.348 -0.191 0 -0.348 -0.156 -0.348 -0.348 0 -0.191 0.152 -0.348 0.344 -0.352 c -0.066 -0.043 -0.164 -0.066 -0.234 -0.07 c -0.277 0 -0.48 0.156 -0.629 0.391 -0.148 0.234 -0.223 0.547 -0.219 0.801 0.012 0.633 0.324 1.168 0.789 1.574 0.461 0.41 1.074 0.688 1.656 0.797 l -0.047 0.258 c -0.629 -0.117 -1.281 -0.41 -1.785 -0.855 -0.504 -0.445 -0.863 -1.051 -0.879 -1.77 -0.004 -0.309 0.078 -0.66 0.262 -0.945 0.18 -0.289 0.473 -0.512 0.852 -0.512 z"/>
  <path d="m 18.738 11.141 c -1.496 0.066 -2.945 0.801 -3.91 1.934 -0.5 0.543 -0.969 1.152 -1.184 1.871 0.004 0.113 0.047 0.223 0.078 0.332 -0.32 0.023 -0.719 -0.02 -0.941 0.262 -0.402 0.445 -0.496 1.063 -0.695 1.609 -0.902 3.121 -0.438 6.68 1.484 9.332 1.043 1.426 2.594 2.555 4.371 2.844 0.297 0.027 0.637 0.109 0.91 -0.047 0.102 -0.086 0.25 -0.063 0.336 0.027 0.371 0.191 0.789 0.008 1.172 -0.043 1.816 -0.398 3.375 -1.645 4.352 -3.199 1.809 -2.793 2.109 -6.453 0.988 -9.57 -0.148 -0.371 -0.297 -0.77 -0.59 -1.055 -0.195 -0.137 -0.445 -0.184 -0.68 -0.199 0.152 -0.313 0.051 -0.688 -0.176 -0.938 c -0.816 -1.336 -2.027 -2.488 -3.551 -2.941 -0.641 -0.18 -1.305 -0.223 -1.965 -0.219"/>
  <path d="m 18.934 11.508 c -0.008 0 -0.02 0 -0.031 0.004 -0.523 0.039 -1.059 0.09 -1.559 0.266 -1.43 0.5 -2.52 1.664 -3.266 2.953 -0.113 0.199 -0.035 0.477 0.195 0.496 1.602 0.004 3.203 0 4.805 0.004 0 0 0 0 0.004 0 1.602 -0.004 3.203 0 4.805 -0.004 0.23 -0.02 0.309 -0.297 0.195 -0.496 -0.75 -1.289 -1.84 -2.453 -3.27 -2.953 -0.5 -0.176 -1.035 -0.227 -1.559 -0.266 -0.133 -0.012 -0.109 0.031 -0.172 0.031 -0.063 -0.004 -0.039 -0.039 -0.148 -0.035 z"/>
  <path d="m 20.09 15.629 c -0.469 0 -0.848 0.383 -0.848 0.859 l 0 12.199 c 0 0.172 0 0.301 0.227 0.324 3.582 -0.195 6.52 -4.02 6.52 -8.699 0 -1.543 -0.309 -2.992 -0.855 -4.25 0 0 -0.004 0 -0.004 0 -0.008 -0.027 -0.02 -0.055 -0.031 -0.082 0 -0.004 -0.004 -0.004 -0.004 -0.008 0 -0.004 0 -0.004 0 -0.004 -0.102 -0.203 -0.305 -0.34 -0.543 -0.34 z"/>
  <path d="m 17.914 15.629 c 0.469 0 0.848 0.383 0.848 0.859 l 0 12.199 c 0 0.172 0 0.301 -0.227 0.324 -3.582 -0.195 -6.52 -4.02 -6.52 -8.699 0 -1.543 0.309 -2.992 0.855 -4.25 0 0 0.004 0 0.004 0 0.008 -0.027 0.02 -0.055 0.031 -0.082 0 -0.004 0.004 -0.004 0.004 -0.008 0 -0.004 0 -0.004 0 -0.004 0.102 -0.203 0.305 -0.34 0.543 -0.34 z"/>
 </g>
 <g transform="matrix(1.0105269,0,0,1.0105119,-0.0249914,-0.37449527)" style="fill:#ec7878;fill-rule:evenodd">
  <path d="m 14.01 15.984 -0.543 0.672 -0.859 -0.063 0.473 0.719 -0.328 0.801 0.832 -0.227 0.66 0.559 0.043 -0.863 0.734 -0.453 -0.809 -0.309 z m 2.695 0.816 -0.457 2.301 -2.152 0.926 2.043 1.148 0.215 2.332 1.723 -1.59 2.289 0.516 -0.98 -2.129 1.195 -2.02 -2.328 0.277 z m 7.03 1.063 -0.539 0.672 -0.863 -0.063 0.473 0.723 -0.324 0.797 0.832 -0.227 0.656 0.559 0.043 -0.863 l 0.734 -0.453 -0.809 -0.305 m -10.594 3.281 -0.656 1.324 -0.613 0.09 c 0.215 0.738 0.508 1.449 0.883 2.121 l 0.387 -0.203 1.305 0.688 -0.25 -1.453 1.055 -1.031 -1.461 -0.211 z m 10.727 0.125 -1.297 1.473 -1.945 -0.23 1 1.684 -0.82 1.781 1.91 -0.43 0.898 0.828 c 0.242 -0.258 0.461 -0.527 0.664 -0.816 l 0.059 -0.637 0.52 -0.289 c 0.172 -0.316 0.328 -0.645 0.469 -0.977 l -1.078 -0.465 m -6.828 2.055 -0.539 0.672 -0.863 -0.063 0.473 0.723 -0.324 0.801 0.832 -0.227 0.656 0.555 0.043 -0.859 0.734 -0.457 -0.809 -0.305 z"/>
  <path d="m 25.09 22.516 c 0 1.348 -2.66 2.445 -5.945 2.445 -3.281 0 -5.945 -1.098 -5.945 -2.445 0 -1.352 2.664 -2.445 5.945 -2.445 3.285 0 5.945 1.094 5.945 2.445 z" style="fill-opacity:0.902"/>
 </g>
 <g transform="matrix(1.0105269,0,0,1.0105119,-0.0249914,-0.37449527)" style="fill:#ec7878">
  <path d="m 14.754 26.902 c 0.945 0.973 2.184 1.68 3.543 1.828 0.082 0.027 0.25 0.02 0.211 -0.109 -0.008 -0.297 -0.012 -0.594 -0.012 -0.891 0.004 -0.184 0.004 -0.148 -0.137 -0.063 -1.398 0.852 -2.586 -0.18 -3.605 -0.766 z m 8.445 0.066 c -1.02 0.586 -2.207 1.617 -3.609 0.766 -0.137 -0.086 -0.137 -0.121 -0.133 0.063 0 0.297 -0.004 0.594 -0.012 0.891 -0.043 0.129 0.125 0.137 0.211 0.109 1.359 -0.148 2.594 -0.855 3.543 -1.828 z" style="fill-opacity:0.459"/>
 </g>
 <g transform="matrix(1.0105269,0,0,1.0105119,-0.0249914,-0.37449527)" style="fill:#ec7878;fill-rule:evenodd">
  <path d="m 22.785 14.406 c 0 1.656 -1.672 3 -3.734 3 -2.063 0 -3.734 -1.344 -3.734 -3 0 -1.656 1.672 -2.996 3.734 -2.996 2.063 0 3.734 1.34 3.734 2.996 z"/>
  <path d="m 17.523 9.195 c 0 0.117 -0.094 0.215 -0.207 0.215 -0.113 0 -0.203 -0.098 -0.203 -0.215 0 -0.117 0.09 -0.215 0.203 -0.215 0.113 0 0.207 0.098 0.207 0.215 z"/>
  <path d="m 20.887 9.195 c 0 0.117 -0.09 0.215 -0.203 0.215 -0.113 0 -0.207 -0.098 -0.207 -0.215 0 -0.117 0.094 -0.215 0.207 -0.215 0.113 0 0.203 0.098 0.203 0.215 z"/>
 </g>
 <path d="m 31.29 19.01 c 0 6.797 -5.506 12.3 -12.298 12.3 -6.796 0 -12.302 -5.503 -12.302 -12.3 0 -6.793 5.506 -12.3 12.302 -12.3 6.792 0 12.298 5.507 12.298 12.3 z" style="stroke-dasharray:none;fill:none;stroke-miterlimit:4;stroke:#ec7878;stroke-linecap:round;stroke-linejoin:round;stroke-width:1"/>
 <path d="m 19.2 2.8 0 32" style="stroke-dasharray:none;stroke-opacity:1;fill:none;stroke-miterlimit:4;stroke:#ec7878;fill-rule:evenodd;stroke-linecap:round;stroke-linejoin:miter;stroke-width:1.6"/>
 <path d="m 35.2 18.8 -32 0" style="stroke-dasharray:none;stroke-opacity:1;fill:none;stroke-miterlimit:4;stroke:#ec7878;fill-rule:evenodd;stroke-linecap:round;stroke-linejoin:miter;stroke-width:1.6"/>
</svg>
