<svg xmlns="http://www.w3.org/2000/svg" width="48" height="48" viewBox="0 0 38.4 38.4">
 <g transform="matrix(1.0229538,0,0,1.0239998,-0.2366673,-0.2559991)" style="fill:#e760c1;fill-rule:evenodd">
  <path d="m 15.11 27.11 c 0 0 -1.137 0.66 0.805 0.887 2.355 0.266 3.555 0.227 6.148 -0.262 0 0 0.684 0.426 1.633 0.797 -5.813 2.492 -13.152 -0.145 -8.586 -1.422"/>
  <path d="m 14.395 23.863 c 0 0 -1.273 0.945 0.672 1.145 2.512 0.258 4.496 0.281 7.93 -0.379 0 0 0.477 0.48 1.223 0.742 -7.03 2.055 -14.855 0.164 -9.824 -1.508"/>
  <path d="m 20.379 18.352 c 1.434 1.648 -0.375 3.133 -0.375 3.133 0 0 3.637 -1.879 1.965 -4.227 -1.559 -2.195 -2.754 -3.281 3.723 -7.04 0 0 -10.164 2.539 -5.313 8.133"/>
  <path d="m 28.07 29.52 c 0 0 0.84 0.691 -0.926 1.227 -3.352 1.016 -13.961 1.324 -16.906 0.039 -1.059 -0.461 0.926 -1.098 1.551 -1.234 0.652 -0.141 1.023 -0.113 1.023 -0.113 -1.176 -0.832 -7.613 1.629 -3.27 2.332 11.852 1.922 21.602 -0.863 18.527 -2.25"/>
  <path d="m 15.648 20.496 c 0 0 -5.395 1.281 -1.91 1.75 1.473 0.195 4.406 0.152 7.137 -0.078 2.234 -0.188 4.477 -0.59 4.477 -0.59 0 0 -0.789 0.34 -1.359 0.727 -5.477 1.441 -16.06 0.77 -13.02 -0.703 2.578 -1.246 4.672 -1.105 4.672 -1.105"/>
  <path d="m 25.328 25.906 c 5.57 -2.895 2.996 -5.676 1.199 -5.301 -0.441 0.094 -0.637 0.172 -0.637 0.172 0 0 0.16 -0.258 0.473 -0.367 3.559 -1.25 6.293 3.688 -1.145 5.645 0 0 0.086 -0.078 0.109 -0.148"/>
  <path d="m 21.969 4.156 c 0 0 3.086 3.086 -2.926 7.832 -4.816 3.805 -1.098 5.977 0 8.453 -2.813 -2.535 -4.879 -4.77 -3.492 -6.852 2.031 -3.051 7.664 -4.531 6.418 -9.434"/>
  <path d="m 16.195 33.75 c 5.348 0.344 13.559 -0.191 13.754 -2.719 0 0 -0.375 0.957 -4.422 1.719 -4.563 0.859 -10.191 0.762 -13.527 0.211 0 0 0.684 0.563 4.195 0.789"/>
 </g>
</svg>
