<svg xmlns="http://www.w3.org/2000/svg" viewBox="0 0 48 48">
 <g transform="translate(0 -1004.3622)" style="fill:#4fa44e">
  <path d="m 23.616 1020.68 c -7.613 0.337 -15.02 4.05 -11.874 11.565 4.587 -1.725 10.975 0.848 8.322 2.123 5.227 4.302 18.13 -2.648 16.847 -8.56 -1.332 -3.601 -7.374 -5.391 -13.295 -5.129 z m -0.203 2.124 c 1.588 0 2.875 0.424 2.875 0.947 0 0.523 -1.287 0.947 -2.875 0.947 -1.588 0 -2.875 -0.424 -2.875 -0.947 0 -0.523 1.287 -0.947 2.875 -0.947 z m 7.104 1.568 c 1.588 0 2.875 0.424 2.875 0.947 0 0.523 -1.287 0.947 -2.875 0.947 -1.588 0 -2.875 -0.424 -2.875 -0.947 0 -0.523 1.287 -0.947 2.875 -0.947 z m -13.06 1.438 c 1.588 0 2.875 0.424 2.875 0.947 0 0.523 -1.287 0.947 -2.875 0.947 -1.588 0 -2.875 -0.424 -2.875 -0.947 0 -0.523 1.287 -0.947 2.875 -0.947 z m 12.99 2.483 c 1.588 0 2.875 0.424 2.875 0.947 0 0.523 -1.287 0.947 -2.875 0.947 -1.588 0 -2.875 -0.424 -2.875 -0.947 0 -0.523 1.287 -0.947 2.875 -0.947 z m -5.01 3.594 c 1.588 0 2.875 0.424 2.875 0.947 0 0.523 -1.287 0.947 -2.875 0.947 -1.588 0 -2.875 -0.424 -2.875 -0.947 0 -0.523 1.287 -0.947 2.875 -0.947 z"/>
  <path d="m 34.462 1013.47 -14.11 23.605 c -1.101 -0.021 -2.124 -0.544 -2.865 -1.598 l 15.12 -23.04 c 1.016 -0.24 1.635 0.106 1.857 1.035 z"/>
  <path d="m 17.404 1041.18 c 1.582 -0.212 4.03 -2.231 2.888 -5.154 -2.744 -0.785 -2.121 -1.182 -2.121 -1.182 -3.769 0.903 -6.633 5.212 -5.844 7.951 0.5 1.737 0.416 1.558 0.416 1.558 1.045 -3.356 1.064 -2.742 4.66 -3.173 z"/>
 </g>
</svg>
