<svg xmlns="http://www.w3.org/2000/svg" viewBox="0 0 48 48">
 <rect height="15" rx="0" y="24" x="13" width="22" style="fill:#cf9545"/>
 <path d="m 7.597 28.05 5.403 -4.054 0.885 1.179 l -5.403 4.054" style="fill:#cf9545"/>
 <rect transform="matrix(0.79988839,0.60014879,0.60014879,-0.79988839,0,0)" height="1.474" rx="0" y="0.334" x="42.4" width="6.754" style="fill:#cf9545"/>
 <rect transform="matrix(0.95334222,0.30189172,-0.30189172,0.95334222,0,0)" height="3.516" y="11.341" x="19.908" width="3.516" style="fill:#cf9545"/>
 <rect transform="matrix(0.9598803,-0.28041009,0.28041009,0.9598803,0,0)" height="5.78" y="15.229" x="14.252" width="5.78" style="fill:#cf9545"/>
 <path d="m 28.782 19.55 -1.655 2.108 -2.653 -0.379 -0.998 -2.487 l 1.655 -2.108 2.653 0.379 z" style="fill:#cf9545"/>
 <path d="m 33.615 14.338 -1.691 0.554 -0.502 1.707 -1.05 -1.437 -1.779 0.05 1.043 -1.442 -0.597 -1.677 1.694 0.546 1.41 -1.086 0.004 1.78 z" style="fill:#cf9545"/>
</svg>
