<svg xmlns="http://www.w3.org/2000/svg" width="47.5" height="47.5" viewBox="0 0 38 38">
 <path d="m 31.512 4.16 c -0.453 0.039 -0.906 0.266 -1.273 0.621 l -8.176 7.109 c -0.352 0.34 -0.547 0.82 -0.547 1.305 c 0 0.234 0.051 0.445 0.137 0.652 c 0.004 0.012 -0.004 0.027 0 0.035 c -0.305 0.648 -0.207 1.551 -0.207 3.504 c 0 0.719 -1.871 1.477 -2.336 1.477 c -0.023 0 -0.047 0 -0.07 0 c -1.484 0 -6.309 0.223 -7.797 2.27 c -1.488 2.047 -7.078 11.348 -7.078 12.711 c 2.23 0 18.441 -8.102 19.273 -8.863 c 1 -0.922 0.512 -2.781 -0.137 -4.02 c 0.004 -0.004 -0.004 -0.027 0 -0.035 c 0.016 -0.043 0.023 -0.109 -0.035 -0.207 c -0.348 -0.582 -0.551 -1.172 -0.551 -1.992 c 0 -1.82 0.191 -2.824 0.586 -3.398 c 0.875 0.148 2.148 -0.277 2.715 -0.824 l 7.18 -6.84 c 0.73 -0.703 0.902 -1.766 0.172 -2.473 l -0.586 -0.582 c -0.363 -0.355 -0.82 -0.484 -1.27 -0.445 Z" style="fill:#cc7d6f"/>
</svg>
