<svg xmlns="http://www.w3.org/2000/svg" width="48" height="48" viewBox="0 0 38.4 38.4">
 <path d="m 29.546 7.07 c -1.863 0.766 -7.836 3.258 -7.985 3.32 -1.672 -1.367 -3.844 -2.426 -6.098 -2.547 -5.461 -0.344 -10.481 4.508 -10.496 9.887 c -0.242 4.844 1.969 9.324 3.965 13.606 1.672 -0.699 7.746 -3.231 7.902 -3.297 1.637 1.371 3.738 2.383 5.93 2.539 5.371 0.453 10.367 -4.191 10.641 -9.442 0.391 -4.914 -1.875 -9.461 -3.777 -13.856 -0.031 -0.07 -0.055 -0.141 -0.082 -0.211 z" style="fill:none;stroke:#6997af;stroke-width:1.188"/>
 <g transform="translate(0.19820268,0.2053547)" style="fill:#6997af">
  <path d="m 9.977 27.996 c -1.18 -2.855 -2.742 -5.367 -2.777 -10.03 -0.035 -4.816 4.098 -7.934 7.359 -7.934 c 3.953 0 7.434 3.34 7.617 6.102 0.164 2.496 -0.723 6.125 -5.309 6.098 -2.188 -0.012 -4.461 -1.914 -4.473 -4.746 -0.012 -3.059 3.816 -3.355 4.781 -2.578 0.375 0.301 0.363 0.902 0.031 0.793 -2.063 -0.672 -3.336 0.652 -3.238 1.969 0.125 1.785 1.188 2.848 3.086 2.938 2.738 0.129 3.508 -2.535 3.438 -3.617 -0.086 -1.313 -1.234 -4.02 -4.797 -4.512 -1.688 -0.234 -3.082 0.27 -4.102 1.258 -1.02 0.988 -1.59 2.01 -1.676 3.687 -0.086 1.734 0.293 2.754 1.328 5.03 0.371 0.813 1.406 2.453 2.207 4.094 z"/>
  <path d="m 28.02 10.03 c 1.18 2.855 2.742 5.371 2.777 10.03 0.035 4.816 -4.098 7.934 -7.359 7.934 -3.953 0 -7.434 -3.336 -7.617 -6.102 -0.164 -2.496 0.723 -6.125 5.309 -6.098 2.188 0.012 4.461 1.914 4.473 4.75 0.012 3.055 -3.816 3.352 -4.781 2.574 -0.375 -0.301 -0.363 -0.898 -0.031 -0.793 2.063 0.672 3.336 -0.652 3.238 -1.965 -0.125 -1.789 -1.188 -2.852 -3.086 -2.941 -2.738 -0.129 -3.508 2.535 -3.438 3.617 0.086 1.313 1.234 4.02 4.797 4.512 1.688 0.234 3.082 -0.27 4.102 -1.258 1.02 -0.988 1.59 -2.01 1.676 -3.688 0.086 -1.734 -0.293 -2.75 -1.328 -5.03 -0.371 -0.813 -1.406 -2.449 -2.207 -4.094 z"/>
 </g>
</svg>
