<svg xmlns="http://www.w3.org/2000/svg" width="48" height="48" viewBox="0 0 38.4 38.4">
 <g transform="translate(0.2004218,0.2)" style="fill:#6f8bc0">
  <path d="m 28.605 4.156 c -6.227 0 -7.395 8.797 -3.891 8.797 3.5 0 10.113 -8.797 3.891 -8.797 z"/>
  <path d="m 18.27 11.863 c 1.863 0.113 3.91 -7.06 0.406 -6.609 -3.504 0.453 -2.273 6.496 -0.406 6.609 z"/>
  <path d="m 9.723 16.32 c 1.328 -0.578 0.172 -6.246 -2.082 -4.699 -2.254 1.543 0.758 5.277 2.082 4.699 z"/>
  <path d="m 13.461 13.355 c 1.578 -0.32 1.664 -6.746 -1.148 -5.594 c -2.816 1.156 -0.43 5.914 1.148 5.594 z"/>
  <path d="m 21.703 27.73 c 0.281 2.125 -1.57 3.172 -3.379 1.805 -5.766 -4.355 9.547 -6.527 8.535 -12.48 -0.836 -4.938 -16.11 -3.418 -17.848 4.313 -1.18 5.227 4.844 12.477 11.129 12.477 3.094 0 6.66 -2.77 7.324 -6.277 0.512 -2.676 -5.996 -1.605 -5.762 0.164 z"/>
 </g>
</svg>
