<!-- color: #8d65ba -->
<svg xmlns="http://www.w3.org/2000/svg" viewBox="0 0 48 48">
 <path d="m 24 11 c -8.01 0.005 -14.441 5.675 -18.19 9.994 -0.466 0.537 -0.966 1.17 -1.383 1.756 -0.284 0.391 -0.426 0.82 -0.426 1.25 c 0 0.43 0.141 0.859 0.426 1.25 0.417 0.586 0.917 1.219 1.383 1.756 c 3.75 4.32 10.186 9.99 18.19 9.994 8.01 -0.004 14.441 -5.675 18.19 -9.994 0.466 -0.537 0.966 -1.17 1.383 -1.756 0.284 -0.391 0.426 -0.82 0.426 -1.25 0 -0.43 -0.141 -0.859 -0.426 -1.25 -0.417 -0.586 -0.917 -1.219 -1.383 -1.756 -3.75 -4.32 -10.186 -9.99 -18.19 -9.994 m 0 3 a 10 10 0 0 1 5.922 1.955 l -3.613 3.613 a 5 5 0 0 0 -2.309 -0.568 a 5 5 0 0 0 -5 5 5 5 0 0 0 0.568 2.309 l -3.613 3.613 a 10 10 0 0 1 -1.955 -5.922 10 10 0 0 1 10 -10 m 8.04 4.078 a 10 10 0 0 1 1.955 5.922 10 10 0 0 1 -10 10 10 10 0 0 1 -5.922 -1.955 l 3.613 -3.613 a 5 5 0 0 0 2.309 0.568 5 5 0 0 0 5 -5 5 5 0 0 0 -0.568 -2.309 l 3.613 -3.613 z m -6.545 1.922 a 2.5 2.5 0 0 1 0.35 0.027 l -2.822 2.822 a 2.5 2.5 0 0 1 -0.027 -0.35 2.5 2.5 0 0 1 2.5 -2.5 m 2.473 2.15 a 2.5 2.5 0 0 1 0.027 0.35 2.5 2.5 0 0 1 -2.5 2.5 2.5 2.5 0 0 1 -0.35 -0.027 l 2.822 -2.822 z" style="fill:#eb93b5;fill-opacity:1;stroke:none;fill-rule:nonzero"/>
</svg>
