<svg xmlns="http://www.w3.org/2000/svg" viewBox="0 0 48 48">
 <path d="m 24 4 c -11.04 0 -20 8.965 -20 20 c 0 11.04 8.965 20 20 20 c 11.04 0 20 -8.965 20 -20 c 0 -11.04 -8.965 -20 -20 -20 z m 0.139 7 c 1.607 0 2.91 1.333 2.91 2.977 c 0 1.643 -1.303 2.979 -2.91 2.979 c -1.607 0 -2.912 -1.335 -2.912 -2.979 c 0 -1.643 1.305 -2.977 2.912 -2.977 z m -10.488 6.09 c 0.15 0.006 0.304 0.035 0.461 0.063 l 9.889 1.734 l 9.93 -1.662 c 0.134 -0.023 0.248 -0.06 0.383 -0.082 c 0.385 -0.044 0.763 0.168 0.9 0.529 c 0.138 0.361 0.001 0.78 -0.316 1 l -7.756 2.682 l 0.004 5.689 l 2.684 8.682 c 0.234 0.408 0.091 0.927 -0.318 1.16 c -0.41 0.233 -0.932 0.092 -1.166 -0.316 l -4.328 -9.314 l -4.414 9.332 c -0.263 0.394 -0.824 0.473 -1.219 0.211 c -0.395 -0.262 -0.474 -0.768 -0.211 -1.162 l 2.734 -8.645 l 0.053 -5.773 l -7.748 -2.514 c -0.282 -0.148 -0.482 -0.421 -0.479 -0.738 c 0.004 -0.318 0.193 -0.652 0.479 -0.793 c 0.143 -0.07 0.289 -0.09 0.439 -0.084 z" style="fill:#698ecc;fill-opacity:1;stroke:none"/>
</svg>
