<svg xmlns="http://www.w3.org/2000/svg" viewBox="0 0 48 48">
 <path d="m 13 31.968 c 0 0 0 0 0 0 l 0 0.001 c 0 0 0 0 0 0 l 0 0 0 0 0 0 0 0 0 0 c 0 0 0 0 0 0 l 0 -0.001 c 0 0 0 0 0 0 l -0.001 0 0 0 z m 0 0 0.001 0 0 0 -0.001 0 0 0 z m 0 0.001 0 0 0.001 0 0 0 -0.001 0 z" style="fill:#c0956e;opacity:0.8;color:#000"/>
 <path d="m 17.08 8 c -0.586 0.062 -1.08 0.616 -1.076 1.208 l 0 9.583 c 0 0.633 0.572 1.208 1.202 1.208 l 4.807 0 3.851 0 4.939 0 c 0.629 0 1.202 -0.576 1.202 -1.208 l 0 -9.583 c 0 -0.633 -0.572 -1.208 -1.202 -1.208 l -13.597 0" style="fill:#c0956e;color:#000"/>
 <path d="m 7.08 28 c -0.586 0.062 -1.08 0.616 -1.076 1.208 l 0 9.583 c 0 0.633 0.572 1.208 1.202 1.208 l 4.807 0 3.851 0 4.939 0 c 0.629 0 1.202 -0.576 1.202 -1.208 l 0 -9.583 c 0 -0.633 -0.572 -1.208 -1.202 -1.208 l -13.597 0" style="fill:#c0956e;color:#000"/>
 <path d="m 27.08 28 c -0.586 0.062 -1.08 0.616 -1.076 1.208 l 0 9.583 c 0 0.633 0.572 1.208 1.202 1.208 l 4.807 0 3.851 0 4.939 0 c 0.629 0 1.202 -0.576 1.202 -1.208 l 0 -9.583 c 0 -0.633 -0.572 -1.208 -1.202 -1.208 l -13.597 0 z" style="fill:#c0956e;color:#000"/>
 <g transform="translate(1.7527203e-8,-1004.3622)" style="fill:#c0956e">
  <path transform="translate(0,1004.3622)" d="m 23 21 0 2 -10 0 0 4 2 0 0 -2 18 0 0 2 2 0 0 -4 -10 0 0 -2 z"/>
 </g>
</svg>
