<svg xmlns="http://www.w3.org/2000/svg" width="48" height="48" viewBox="0 0 38.4 38.4">
 <path d="m 19.01 8 0.373 0 c 0.336 0 0.613 0.205 0.613 0.462 l 0 1.477 c 0 0.253 -0.277 0.462 -0.613 0.462 l -0.373 0 c -0.336 0 -0.613 -0.209 -0.613 -0.462 l 0 -1.477 c 0 -0.257 0.277 -0.462 0.613 -0.462" style="fill:#fd4651;fill-opacity:1"/>
 <path d="m 19.01 28.08 0.373 0 c 0.336 0 0.613 0.208 0.613 0.461 l 0 1.478 c 0 0.252 -0.277 0.461 -0.613 0.461 l -0.373 0 c -0.336 0 -0.613 -0.208 -0.613 -0.461 l 0 -1.478 c 0 -0.252 0.277 -0.461 0.613 -0.461" style="fill:#fd4651;fill-opacity:1"/>
 <path d="m 8 19.385 0 -0.369 c 0 -0.337 0.208 -0.615 0.465 -0.615 l 1.474 0 c 0.252 0 0.461 0.278 0.461 0.615 l 0 0.369 c 0 0.342 -0.208 0.615 -0.461 0.615 l -1.474 0 c -0.256 0 -0.465 -0.273 -0.465 -0.615" style="fill:#fd4651;fill-opacity:1"/>
 <path d="m 28 19.385 0 -0.369 c 0 -0.337 0.209 -0.615 0.462 -0.615 l 1.477 0 c 0.257 0 0.462 0.278 0.462 0.615 l 0 0.369 c 0 0.342 -0.205 0.615 -0.462 0.615 l -1.477 0 c -0.253 0 -0.462 -0.273 -0.462 -0.615" style="fill:#fd4651;fill-opacity:1"/>
 <circle cx="19.2" cy="19.2" r="14.4" style="stroke-dasharray:none;stroke-opacity:1;fill:none;opacity:1;stroke-miterlimit:4;fill-opacity:1;stroke:#fd4651;fill-rule:nonzero;stroke-linecap:butt;stroke-linejoin:miter;stroke-width:3.2;stroke-dashoffset:0"/>
 <path d="m 16.994 15.99 c -0.227 0 -0.455 0.088 -0.627 0.26 l -0.037 0.043 c -0.348 0.344 -0.348 0.906 0 1.25 l 5.211 5.211 c 0.002 0.002 0.005 0.003 0.008 0.006 a 2.75 2.75 0 0 1 1.313 -1.26 c -0.011 -0.012 -0.016 -0.027 -0.027 -0.039 l -5.211 -5.211 c -0.174 -0.172 -0.402 -0.26 -0.629 -0.26 z" transform="scale(0.8,0.8)" style="fill:#fd4651;fill-opacity:1;stroke:none;fill-rule:nonzero"/>
 <path d="m 35.19 16.463 c -0.114 0.014 -0.227 0.052 -0.334 0.113 l -9.143 5.277 a 2.75 2.75 0 0 1 1 1.734 l 9.141 -5.277 c 0.426 -0.246 0.57 -0.79 0.326 -1.213 l -0.113 -0.197 c -0.184 -0.32 -0.536 -0.481 -0.879 -0.438 z" transform="scale(0.8,0.8)" style="fill:#fd4651;fill-opacity:1;stroke:none;fill-rule:nonzero"/>
 <path d="m 22.22 26.1 l -5.105 9.408 c -0.117 0.215 -0.043 0.492 0.168 0.621 l 0.059 0.039 c 0.211 0.125 0.473 0.055 0.59 -0.16 l 5.119 -9.43 a 2.75 2.75 0 0 1 -0.83 -0.479 z" transform="scale(0.8,0.8)" style="fill:#fd4651;fill-opacity:1;stroke:none;fill-rule:nonzero"/>
 <path d="m 24 21 c -1.658 0 -3 1.342 -3 3 c 0 1.658 1.342 3 3 3 c 1.658 0 3 -1.342 3 -3 c 0 -1.658 -1.342 -3 -3 -3 z m 0 1 c 1.105 0 2 0.895 2 2 c 0 1.105 -0.895 2 -2 2 c -1.105 0 -2 -0.895 -2 -2 c 0 -1.105 0.895 -2 2 -2 z" transform="scale(0.8,0.8)" style="fill:#fd4651;fill-opacity:1;stroke:none;fill-rule:nonzero"/>
</svg>
