<svg xmlns="http://www.w3.org/2000/svg" width="48" height="48" viewBox="0 0 38.4 38.4">
 <path d="m 20.272 25.24 c -0.076 -2.756 0.544 -5.432 3.172 -7.332 2.772 -2.144 5.44 -4.828 5.16 -7.988 -0.064 -3.052 -3.644 -5.444 -7.5 -5.788 -4.34 -0.596 -9.592 0.88 -11.05 4.244 -0.736 1.636 -0.052 4.572 2.424 4.572 1.448 0 2.112 -0.928 2.22 -1.776 0.084 -0.644 -0.184 -1.216 -0.34 -1.748 -0.18 -0.604 0.584 -1.776 1.416 -2.256 0.696 -0.396 1.424 -0.532 1.528 -0.556 2.496 -0.596 4.984 0.72 6.02 2.32 1.04 1.6 -0.104 4.02 -1.744 6.388 -1.644 2.36 -3.404 5.04 -3.4 7.888 0 1.084 -0.096 1.452 -0.028 1.888 0.056 0.352 1.224 0.308 2.12 0.144 z m -1.14 3.712 c -2.384 -0.128 -4.04 2.556 -2.604 4.268 1.28 1.888 4.872 1.42 5.484 -0.716 0.64 -1.664 -0.896 -3.58 -2.88 -3.552 z" style="fill:#9dc7cf"/>
</svg>
