<?xml version="1.0" encoding="UTF-8" standalone="no"?>
<svg
   xmlns:dc="http://purl.org/dc/elements/1.1/"
   xmlns:cc="http://creativecommons.org/ns#"
   xmlns:rdf="http://www.w3.org/1999/02/22-rdf-syntax-ns#"
   xmlns:svg="http://www.w3.org/2000/svg"
   xmlns="http://www.w3.org/2000/svg"
   xmlns:sodipodi="http://sodipodi.sourceforge.net/DTD/sodipodi-0.dtd"
   xmlns:inkscape="http://www.inkscape.org/namespaces/inkscape"
   version="1.1"
   width="240"
   height="240"
   viewBox="0 0 240 240"
   id="svg4"
   sodipodi:docname="ship-wheel.svg"
   inkscape:version="0.92.4 5da689c313, 2019-01-14">
  <metadata
     id="metadata10">
    <rdf:RDF>
      <cc:Work
         rdf:about="">
        <dc:format>image/svg+xml</dc:format>
        <dc:type
           rdf:resource="http://purl.org/dc/dcmitype/StillImage" />
        <dc:title></dc:title>
      </cc:Work>
    </rdf:RDF>
  </metadata>
  <defs
     id="defs8" />
  <sodipodi:namedview
     pagecolor="#ffffff"
     bordercolor="#666666"
     borderopacity="1"
     objecttolerance="10"
     gridtolerance="10"
     guidetolerance="10"
     inkscape:pageopacity="0"
     inkscape:pageshadow="2"
     inkscape:window-width="1321"
     inkscape:window-height="740"
     id="namedview6"
     showgrid="false"
     inkscape:pagecheckerboard="true"
     inkscape:zoom="0.98333333"
     inkscape:cx="433.55792"
     inkscape:cy="120"
     inkscape:window-x="45"
     inkscape:window-y="28"
     inkscape:window-maximized="0"
     inkscape:current-layer="svg4" />
  <path
     d="m 29.090909,110.9091 18.636364,0.9091 C 50,91.181816 60.909091,73.181815 76.818182,61.454545 L 66.636364,45.818185 C 64.181818,41.454545 65.454545,35.909085 70,33.363635 c 4.545455,-2.45455 9.909091,-1 12.454545,3.36364 l 8.454546,16.54545 c 8.909091,-3.81818 18.727269,-6 29.090909,-6 10.36364,0 20.18182,2.18182 29.09091,6 l 8.45454,-16.54545 c 2.54546,-4.36364 7.9091,-5.81819 12.45455,-3.36364 4.54545,2.54545 5.81818,8.09091 3.36364,12.45455 l -10.18182,15.63636 C 179.09091,73.181815 190,91.181816 192.27273,111.81819 l 18.63636,-0.9091 a 9.0909091,9.0909091 0 0 1 9.09091,9.09092 9.0909091,9.0909091 0 0 1 -9.09091,9.0909 l -18.63636,-0.9091 C 190,148.81819 179.09091,166.81819 163.18182,178.54546 l 10.18182,15.63636 c 2.45454,4.36364 1.18181,9.90909 -3.36364,12.45455 -4.54545,2.45454 -9.90909,1 -12.45455,-3.36364 l -8.45454,-16.54545 c -8.90909,3.81818 -18.72727,6 -29.09091,6 -10.36364,0 -20.181818,-2.18182 -29.090909,-6 l -8.454546,16.54545 c -2.545454,4.36364 -7.90909,5.81818 -12.454545,3.36364 -4.545455,-2.54546 -5.818182,-8.09091 -3.363636,-12.45455 L 76.818182,178.54546 C 60.909091,166.81819 50,148.81819 47.727273,128.18182 l -18.636364,0.9091 A 9.0909091,9.0909091 0 0 1 20,120.00001 9.0909091,9.0909091 0 0 1 29.090909,110.9091 m 64.272727,3.18181 c 1.181819,-5.54545 4.181819,-10.45454 8.454544,-14.181818 L 86.727273,76.818185 C 75.545455,85.363635 67.909091,98.181812 65.909091,112.72728 l 27.454545,1.36363 M 120,92.727272 c 2.90909,0 5.63636,0.4545 8.18182,1.27273 l 12.54545,-24.454547 c -6.36363,-2.63637 -13.36363,-4.09091 -20.72727,-4.09091 -7.36364,0 -14.36364,1.45454 -20.727273,4.09091 l 12.545453,24.454547 c 2.54546,-0.81819 5.27273,-1.27273 8.18182,-1.27273 m 26.63636,21.363638 27.45455,-1.36363 c -2,-14.545468 -9.63636,-27.363645 -20.81818,-35.909095 l -15.09091,23.090907 c 4.27273,3.727278 7.27273,8.636368 8.45454,14.181818 m 0,11.81819 c -1.18181,5.54545 -4.18181,10.45454 -8.45454,14.18181 l 15.09091,23.09091 c 11.18182,-8.54545 18.81818,-21.36363 20.81818,-35.90909 L 146.63636,125.9091 M 120,147.27273 c -2.90909,0 -5.63636,-0.4545 -8.27273,-1.27272 l -12.454543,24.45454 c 6.363633,2.63636 13.363633,4.09091 20.727273,4.09091 7.36364,0 14.36364,-1.45455 20.72727,-4.09091 l -12.45454,-24.45454 c -2.63637,0.81818 -5.36364,1.27272 -8.27273,1.27272 M 93.363636,125.9091 65.909091,127.27273 c 2,14.54546 9.636364,27.36364 20.818182,35.90909 l 15.090907,-23.09091 c -4.272725,-3.72727 -7.272725,-8.63636 -8.454544,-14.18181 z"
     id="path2"
     inkscape:connector-curvature="0"
     style="fill:#ffffff;stroke-width:9.090909" />
</svg>
