<?xml version="1.0"?>
<svg xmlns="http://www.w3.org/2000/svg" xmlns:xlink="http://www.w3.org/1999/xlink" version="1.1" id="Capa_1" x="0px" y="0px" viewBox="0 0 335.223 335.223" style="enable-background:new 0 0 335.223 335.223;" xml:space="preserve" width="512px" height="512px"><g><g>
	<g>
		<path d="M172.812,242.8c-5.6,0-10.4,4.8-10.4,10.4v30c0,5.6,4.8,10.4,10.4,10.4c5.6,0,10.4-4.8,10.4-10.4v-30    C183.212,247.6,178.412,242.8,172.812,242.8z" data-original="#000000" class="active-path" data-old_color="#000000" style="--darkreader-inline-" data-darkreader-inline-fill="" fill="#FFFFFF"/>
	</g>
</g><g>
	<g>
		<path d="M87.612,209.2c-5.6,0-10.4,4.4-10.4,10.4v64c0,5.6,4.4,10.4,10.4,10.4c5.6,0,10.4-4.4,10.4-10.4v-64    C98.012,213.6,93.212,209.2,87.612,209.2z" data-original="#000000" class="active-path" data-old_color="#000000" style="--darkreader-inline-" data-darkreader-inline-fill="" fill="#FFFFFF"/>
	</g>
</g><g>
	<g>
		<path d="M50.812,208.8c-5.6,0.4-10.4,4.8-10.4,10.4v102.4c0,5.6,4.4,10.4,10.4,10.4c5.6,0,10.4-4.4,10.4-10.4V219.2    C61.212,213.6,56.812,208.8,50.812,208.8z" data-original="#000000" class="active-path" data-old_color="#000000" style="--darkreader-inline-" data-darkreader-inline-fill="" fill="#FFFFFF"/>
	</g>
</g><g>
	<g>
		<path d="M183.212,324.8V310c-0.4-5.2-4.8-10-10.4-10c-5.6,0-10.4,4.8-10,10.4v14.8c0,5.6,4.8,10.4,10.4,10    C178.812,335.2,183.612,330.4,183.212,324.8z" data-original="#000000" class="active-path" data-old_color="#000000" style="--darkreader-inline-" data-darkreader-inline-fill="" fill="#FFFFFF"/>
	</g>
</g><g>
	<g>
		<path d="M246.612,242.8c-5.6,0-10.4,4.8-10.4,10.4v30c0,5.6,4.8,10.4,10.4,10.4c5.6,0,10.4-4.8,10.4-10.4v-30    C257.012,247.6,252.212,242.8,246.612,242.8z" data-original="#000000" class="active-path" data-old_color="#000000" style="--darkreader-inline-" data-darkreader-inline-fill="" fill="#FFFFFF"/>
	</g>
</g><g>
	<g>
		<path d="M257.012,324.8V310c-0.4-5.2-4.8-10-10.4-10c-5.6,0-10.4,4.8-10,10.4v14.8c0,5.6,4.8,10.4,10.4,10    C252.612,335.2,257.412,330.4,257.012,324.8z" data-original="#000000" class="active-path" data-old_color="#000000" style="--darkreader-inline-" data-darkreader-inline-fill="" fill="#FFFFFF"/>
	</g>
</g><g>
	<g>
		<path d="M87.612,300c-5.6,0-10.4,4.4-10.4,10v14.8c0,5.6,4.4,10.4,10,10.4c5.6,0,10.4-4.4,10.4-10v-14.8    C98.012,304.8,93.612,300,87.612,300z" data-original="#000000" class="active-path" data-old_color="#000000" style="--darkreader-inline-" data-darkreader-inline-fill="" fill="#FFFFFF"/>
	</g>
</g><g>
	<g>
		<path d="M209.612,208.8c-5.6,0-10.4,4.4-10.4,10.4v102.4c0.4,5.6,4.8,10.4,10.4,10.4c5.6,0,10.4-4.4,10.4-10.4V219.2    C220.012,213.6,215.612,208.8,209.612,208.8z" data-original="#000000" class="active-path" data-old_color="#000000" style="--darkreader-inline-" data-darkreader-inline-fill="" fill="#FFFFFF"/>
	</g>
</g><g>
	<g>
		<path d="M132.012,284c-6,0.4-10.4,4.8-10.4,10.4v27.2c0,5.6,4.4,10.4,10.4,10.4c5.6,0,10.4-4.4,10.4-10.4v-27.2    C142.412,288.8,138.012,284,132.012,284z" data-original="#000000" class="active-path" data-old_color="#000000" style="--darkreader-inline-" data-darkreader-inline-fill="" fill="#FFFFFF"/>
	</g>
</g><g>
	<g>
		<path d="M283.612,209.2c-5.6,0-10.4,4.4-10.4,10.4V322c0,5.6,4.4,10.4,10.4,10.4c5.6,0,10.4-4.4,10.4-10.4V219.6    C294.012,213.6,289.212,209.2,283.612,209.2z" data-original="#000000" class="active-path" data-old_color="#000000" style="--darkreader-inline-" data-darkreader-inline-fill="" fill="#FFFFFF"/>
	</g>
</g><g>
	<g>
		<path d="M314.412,84c-12-12-29.2-19.6-47.6-19.6c-9.6,0-19.2,2-27.6,6c-8.8,4-16.4,9.6-22.8,16.8c-3.6,4.4-10.4,4.8-14.4,0.8    c-4.4-3.6-4.8-10.4-0.8-14.4c8.4-9.6,18.4-16.8,29.6-22c2.4-1.2,4.8-2,7.2-2.8c-6.8-13.2-16.8-24.4-28.8-32.4    c-14.8-10.4-32.8-16.4-52-16.4c-22.4,0-43.2,8-59.2,22c-16,13.6-27.2,33.2-30.4,55.2c-0.4,3.2-2.4,5.6-4.8,7.2    c-1.6,0.8-3.2,1.6-5.2,1.6c-15.6,0-30,6.4-40,16.4c-10.4,10.4-16.4,24.4-16.4,40c0,15.6,6.4,30,16.4,40    c9.6,10.8,24,17.2,39.6,17.2h56.4c-0.4-3.2,0.4-6.8,1.6-10l31.2-64.8c3.2-6.8,9.6-11.2,17.2-11.2h36.4c3.2,0,6.4,0.8,9.6,2.8    c8.8,5.2,12,16.8,6.8,25.6l-9.2,15.2c2.8,0.8,5.6,2,8,4c7.6,6.8,8.4,18.8,1.6,26.4l-10,11.2h60c18.8,0,35.6-7.6,47.6-19.6    s19.6-29.2,19.6-47.6C334.012,112.8,326.412,96,314.412,84z" data-original="#000000" class="active-path" data-old_color="#000000" style="--darkreader-inline-" data-darkreader-inline-fill="" fill="#FFFFFF"/>
	</g>
</g><g>
	<g>
		<path d="M204.412,174c-0.4-0.4-1.2-0.8-2-0.8h-23.2l22.8-38.8c0.8-1.2,0.4-3.2-1.2-4c-0.4-0.4-0.8-0.4-1.6-0.4h-36.4    c-1.2,0-2.4,0.8-2.8,2l-31.2,64.8c-0.8,1.6,0,3.2,1.2,4c0.4,0,0.8,0.4,1.2,0.4h18.8l-20.8,53.6c-0.4,1.6,0,3.2,1.6,3.6    c1.2,0.4,2.4,0,3.2-0.8l69.6-79.2C205.612,176.8,205.612,174.8,204.412,174z" data-original="#000000" class="active-path" data-old_color="#000000" style="--darkreader-inline-" data-darkreader-inline-fill="" fill="#FFFFFF"/>
	</g>
</g></g> </svg>
