<svg height="512pt" viewBox="-17 0 511 512" width="512pt" xmlns="http://www.w3.org/2000/svg"><path d="m227.148438 446.128906c0 35.339844-27.96875 64.269532-62.9375 65.800782-.972657.050781-1.949219.070312-2.929688.070312-36.332031 0-65.882812-29.550781-65.882812-65.871094zm0 0" fill="#ff9a00"/><path d="m227.148438 446.128906c0 35.339844-27.96875 64.269532-62.9375 65.800782v-65.800782zm0 0" fill="#e67500"/><path d="m372.617188 150.859375h-84.328126l42.714844-76.324219h-35.386718v-30h86.554687l-42.714844 76.324219h33.160157zm0 0" fill="#6d76e7"/><path d="m468.285156 90.816406h-76.429687l34.035156-60.816406h-22.273437v-30h73.441406l-34.035156 60.816406h25.261718zm0 0" fill="#6d76e7"/><path d="m327.910156 450.921875-163.699218.238281-163.589844.238282-.109375-72.949219-.011719-7.167969 2.339844-3.679688c.109375-.179687 4.5-7.230468 10.171875-19.152343 9.238281-19.378907 21.878906-51.640625 25.007812-88.078125 7.058594-82.152344 52.902344-129.320313 125.769531-129.429688h.421876c38.738281.039063 69.640624 13.1875 91.867187 39.078125 18.871094 22 30.582031 53.109375 33.863281 89.96875 3.269532 36.710938 16.167969 69.140625 25.480469 88.460938 5.609375 11.628906 9.917969 18.511719 10.027344 18.679687l2.332031 3.671875.007812 4.359375.011719 3.289063zm0 0" fill="#ffdb2d"/><path d="m327.910156 450.921875-163.699218.238281v-320.21875c38.738281.039063 69.640624 13.1875 91.867187 39.078125 18.871094 22 30.582031 53.109375 33.863281 89.96875 3.269532 36.710938 16.167969 69.140625 25.480469 88.460938 5.609375 11.628906 9.917969 18.511719 10.027344 18.679687l2.332031 3.671875.007812 4.359375.011719 3.289063zm0 0" fill="#ffaa20"/><path d="m327.800781 378.449219h-327.289062l-.011719-7.167969 2.339844-3.679688c.109375-.179687 4.5-7.230468 10.171875-19.152343h302.410156c5.609375 11.628906 9.917969 18.511719 10.027344 18.679687l2.332031 3.671875.007812 4.359375zm0 0" fill="#fff5cb"/><path d="m327.800781 378.449219h-163.589843v-30h151.210937c5.609375 11.628906 9.917969 18.511719 10.027344 18.679687l2.332031 3.671875.007812 4.359375zm0 0" fill="#ffdba9"/></svg>