<svg style="clip-rule:evenodd;fill-rule:evenodd;stroke-linejoin:round;stroke-miterlimit:2" version="1.1" viewBox="0 0 48 48" xmlns="http://www.w3.org/2000/svg">
 <path d="m47.312 10.595c0-0.976-0.388-1.911-1.077-2.601-0.69-0.691-1.627-1.079-2.603-1.079h-39.264c-0.976 0-1.913 0.388-2.603 1.079-0.689 0.69-1.077 1.625-1.077 2.601v27.823c0 0.976 0.388 1.911 1.077 2.602 0.69 0.69 1.627 1.078 2.603 1.078h39.264c0.976 0 1.913-0.388 2.603-1.078 0.689-0.691 1.077-1.626 1.077-2.602v-27.823z" style="fill-opacity:.92"/>
 <path d="m47.312 9.381c0-1.921-1.557-3.479-3.479-3.479h-39.666c-1.922 0-3.479 1.558-3.479 3.479v28.225c0 1.921 1.557 3.479 3.479 3.479h39.666c1.922 0 3.479-1.558 3.479-3.479v-28.225z" style="fill:url(#_Linear1)"/>
 <path d="m19.434 20.758c-0.052-0.049-0.119-0.074-0.199-0.074h-8.312c-0.081 0-0.147 0.025-0.199 0.074-0.052 0.05-0.078 0.113-0.078 0.19v0.527c0 0.077 0.026 0.14 0.078 0.189 0.052 0.05 0.118 0.074 0.199 0.074h8.312c0.08 0 0.147-0.025 0.199-0.074s0.077-0.112 0.077-0.189v-0.527c1e-3 -0.077-0.025-0.14-0.077-0.19z" style="fill-rule:nonzero;fill:#fff"/>
 <path d="m6.136 12.965c-0.058-0.055-0.125-0.082-0.2-0.082s-0.141 0.027-0.199 0.082l-0.433 0.412c-0.057 0.055-0.086 0.118-0.086 0.19 0 0.071 0.029 0.134 0.086 0.189l3.403 3.238-3.403 3.237c-0.057 0.055-0.086 0.118-0.086 0.189 0 0.072 0.029 0.135 0.086 0.19l0.433 0.412c0.058 0.055 0.124 0.082 0.199 0.082s0.142-0.027 0.2-0.082l4.034-3.839c0.058-0.055 0.087-0.118 0.087-0.19 0-0.071-0.029-0.134-0.087-0.189l-4.034-3.839z" style="fill-rule:nonzero;fill:#fff"/>
 <defs>
  <linearGradient id="_Linear1" x2="1" gradientTransform="matrix(2.21762e-15,-36.2165,36.2165,2.21762e-15,275.714,42.119)" gradientUnits="userSpaceOnUse">
   <stop style="stop-color:#313738" offset="0"/>
   <stop style="stop-color:#535552" offset="1"/>
  </linearGradient>
 </defs>
</svg>
