<svg xmlns="http://www.w3.org/2000/svg" width="16" height="16" viewBox="0 0 12 12">
 <g>
  <path d="m 11.25 6 c 0 2.484 -2.352 4.5 -5.25 4.5 c -2.898 0 -5.25 -2.02 -5.25 -4.5 c 0 -2.484 2.348 -4.5 5.25 -4.5 c 2.902 0 5.25 2.02 5.25 4.5 m 0 0" style="fill:#ffd85b;fill-opacity:1;stroke:none;fill-rule:nonzero"/>
  <path d="m 3.25 5.25 l 1.75 0 c 0.137 0 0.25 0.082 0.25 0.188 c 0 0.105 -0.113 0.188 -0.25 0.188 l -1.75 0 c -0.137 0 -0.25 -0.082 -0.25 -0.188 c 0 -0.105 0.113 -0.188 0.25 -0.188 m 0 0" style="fill:#626262;fill-opacity:1;stroke:none;fill-rule:nonzero"/>
  <path d="m 7 5.25 l 1.75 0 c 0.137 0 0.25 0.082 0.25 0.188 c 0 0.105 -0.113 0.188 -0.25 0.188 l -1.75 0 c -0.137 0 -0.25 -0.082 -0.25 -0.188 c 0 -0.105 0.113 -0.188 0.25 -0.188 m 0 0" style="fill:#626262;fill-opacity:1;stroke:none;fill-rule:nonzero"/>
  <path d="m 6.563 8.25 c 0 -0.621 -0.25 -1.125 -0.563 -1.125 c -0.313 0 -0.563 0.504 -0.563 1.125 c 0 0.621 0.25 1.125 0.563 1.125 c 0.313 0 0.563 -0.504 0.563 -1.125 m 0 0" style="fill:#626262;fill-opacity:1;stroke:none;fill-rule:nonzero"/>
 </g>
</svg>
