<svg xmlns="http://www.w3.org/2000/svg" width="16" height="16" viewBox="0 0 12 12">
 <g>
  <path d="m 11.25 6 c 0 2.484 -2.352 4.5 -5.25 4.5 c -2.898 0 -5.25 -2.02 -5.25 -4.5 c 0 -2.484 2.348 -4.5 5.25 -4.5 c 2.902 0 5.25 2.02 5.25 4.5 m 0 0" style="fill:#ffd85b;fill-opacity:1;stroke:none;fill-rule:nonzero"/>
  <path d="m 3.75 7.125 c 0.188 0.941 1.137 1.594 2.25 1.594 c 1.117 0 2.066 -0.652 2.25 -1.594 l -0.375 0 c -0.137 0.563 -0.902 0.941 -1.875 0.941 c -0.969 0 -1.738 -0.379 -1.875 -0.941 m -0.375 0" style="fill:#626262;fill-opacity:1;stroke:none;fill-rule:nonzero"/>
  <path d="m 3.988 6.195 c -0.047 -0.055 -0.168 -0.16 -0.27 -0.234 c -0.293 -0.223 -0.332 -0.254 -0.453 -0.363 c -0.219 -0.203 -0.313 -0.41 -0.313 -0.684 c 0 -0.137 0.008 -0.188 0.047 -0.266 c 0.066 -0.137 0.16 -0.238 0.281 -0.297 c 0.082 -0.047 0.125 -0.066 0.27 -0.066 c 0.148 0 0.18 0.016 0.27 0.066 c 0.105 0.059 0.215 0.184 0.238 0.273 l 0.016 0.055 l 0.031 -0.078 c 0.195 -0.426 0.824 -0.422 1.039 0.012 c 0.07 0.141 0.078 0.43 0.016 0.598 c -0.078 0.215 -0.23 0.379 -0.574 0.633 c -0.23 0.164 -0.484 0.414 -0.504 0.449 c -0.023 0.039 0 0.004 -0.094 -0.098 m 0 0" style="fill:#f66;fill-opacity:1;stroke:none;fill-rule:nonzero"/>
  <path d="m 7.832 6.195 c -0.047 -0.055 -0.168 -0.16 -0.27 -0.234 c -0.293 -0.223 -0.332 -0.254 -0.453 -0.363 c -0.219 -0.203 -0.313 -0.41 -0.313 -0.684 c 0 -0.137 0.008 -0.188 0.047 -0.266 c 0.066 -0.137 0.16 -0.238 0.281 -0.297 c 0.082 -0.047 0.125 -0.066 0.27 -0.066 c 0.148 0 0.18 0.016 0.27 0.066 c 0.105 0.059 0.215 0.184 0.238 0.273 l 0.016 0.055 l 0.031 -0.078 c 0.195 -0.426 0.824 -0.422 1.039 0.012 c 0.07 0.141 0.078 0.43 0.016 0.598 c -0.078 0.215 -0.23 0.379 -0.574 0.633 c -0.23 0.164 -0.484 0.414 -0.504 0.449 c -0.023 0.039 0 0.004 -0.094 -0.098 m 0 0" style="fill:#f66;fill-opacity:1;stroke:none;fill-rule:nonzero"/>
 </g>
</svg>
