<svg xmlns="http://www.w3.org/2000/svg" width="16" height="16" viewBox="0 0 12 12">
 <g>
  <path d="m 11.25 6 c 0 2.484 -2.352 4.5 -5.25 4.5 c -2.898 0 -5.25 -2.02 -5.25 -4.5 c 0 -2.484 2.348 -4.5 5.25 -4.5 c 2.902 0 5.25 2.02 5.25 4.5 m 0 0" style="fill:#ffd85b;fill-opacity:1;stroke:none;fill-rule:nonzero"/>
  <path d="m 3.75 8.625 c 0.188 -0.941 1.137 -1.594 2.25 -1.594 c 1.117 0 2.066 0.652 2.25 1.594 l -0.375 0 c -0.137 -0.563 -0.902 -0.941 -1.875 -0.941 c -0.969 0 -1.738 0.379 -1.875 0.941 m -0.375 0" style="fill:#626262;fill-opacity:1;stroke:none;fill-rule:nonzero"/>
  <path d="m 9.09 7.102 c 0 0.258 -0.211 0.469 -0.469 0.469 c -0.258 0 -0.469 -0.211 -0.469 -0.469 c 0 -0.262 0.469 -1.094 0.469 -1.094 c 0 0 0.469 0.832 0.469 1.094 m 0 0" style="fill:#85b4ef;fill-opacity:1;stroke:none;fill-rule:nonzero"/>
  <path d="m 7.395 4.324 c -0.172 0.152 -0.27 0.367 -0.27 0.598 c 0 0.441 0.355 0.797 0.797 0.797 c 0.379 0 0.707 -0.266 0.781 -0.641 m -1.309 -0.754" style="fill:#646464;fill-opacity:1;stroke:none;fill-rule:nonzero"/>
  <path d="m 4.66 4.293 l -1.277 0.738 c 0.055 0.395 0.391 0.688 0.789 0.688 c 0.441 0 0.797 -0.355 0.797 -0.797 c 0 -0.246 -0.113 -0.477 -0.309 -0.629 m 0 0" style="fill:#646464;fill-opacity:1;stroke:none;fill-rule:nonzero"/>
 </g>
</svg>
