<svg xmlns="http://www.w3.org/2000/svg" width="16" height="16" viewBox="0 0 12 12">
 <g>
  <path d="m 11.25 6 c 0 2.484 -2.352 4.5 -5.25 4.5 c -2.898 0 -5.25 -2.02 -5.25 -4.5 c 0 -2.484 2.348 -4.5 5.25 -4.5 c 2.902 0 5.25 2.02 5.25 4.5 m 0 0" style="fill:#ffd85b;fill-opacity:1;stroke:none;fill-rule:nonzero"/>
  <path d="m 3.477 3.75 l 1.203 0 c 0.082 0 0.148 0.086 0.148 0.188 c 0 0.102 -0.066 0.188 -0.148 0.188 l -1.203 0 c -0.082 0 -0.148 -0.086 -0.148 -0.188 c 0 -0.102 0.066 -0.188 0.148 -0.188 m 0 0" style="fill:#626262;fill-opacity:1;stroke:none;fill-rule:nonzero"/>
  <path d="m 4.875 5.297 c 0 0.441 -0.355 0.797 -0.797 0.797 c -0.441 0 -0.797 -0.355 -0.797 -0.797 c 0 -0.441 0.355 -0.797 0.797 -0.797 c 0.441 0 0.797 0.355 0.797 0.797 m 0 0" style="fill:#626262;fill-opacity:1;stroke:none;fill-rule:nonzero"/>
  <path d="m 8.719 5.297 c 0 0.441 -0.355 0.797 -0.797 0.797 c -0.441 0 -0.797 -0.355 -0.797 -0.797 c 0 -0.441 0.355 -0.797 0.797 -0.797 c 0.441 0 0.797 0.355 0.797 0.797 m 0 0" style="fill:#626262;fill-opacity:1;stroke:none;fill-rule:nonzero"/>
  <path d="m 7.32 3 l 1.203 0 c 0.082 0 0.148 0.086 0.148 0.188 c 0 0.102 -0.066 0.188 -0.148 0.188 l -1.203 0 c -0.082 0 -0.148 -0.086 -0.148 -0.188 c 0 -0.102 0.066 -0.188 0.148 -0.188 m 0 0" style="fill:#626262;fill-opacity:1;stroke:none;fill-rule:nonzero"/>
  <path d="m 7.875 7.125 c -0.137 0.563 -0.902 0.941 -1.875 0.941 l 0 0.652 c 1.117 0 2.066 -0.652 2.25 -1.594 m -0.375 0" style="fill:#626262;fill-opacity:1;stroke:none;fill-rule:nonzero"/>
 </g>
</svg>
