<svg viewBox="0 0 48 48" xmlns="http://www.w3.org/2000/svg">
 <path d="m 17.333 6 c -3.682 0 -6.667 3.02 -6.667 6.75 l 0 11.273 c 0 3.728 2.984 6.75 6.667 6.75 c 3.682 0 6.667 -3.02 6.667 -6.75 l 0 -11.273 c 0 -3.728 -2.984 -6.75 -6.667 -6.75" style="fill:#ececec;fill-opacity:1"/>
 <path d="m 4 24 c 0 6.696 4.798 12.224 11.11 13.289 l 0 2.462 -2.222 0 0 2.25 8.889 0 0 -2.25 -2.222 0 0 -2.462 c 6.313 -1.064 11.11 -6.595 11.11 -13.289 l -4.444 0 c 0 4.97 -3.98 9 -8.889 9 -4.909 0 -8.889 -4.03 -8.889 -9 l -4.444 0 z" style="fill:#ececec;fill-opacity:1"/>
 <path d="m 44 10.499986 a 4.444444 4.500005 0 0 1 -8.888889 0 4.444444 4.500005 0 1 1 8.888889 0 z" style="fill:#ececec;opacity:0.3;fill-opacity:1"/>
 <path d="M 44 24 A 4.444444 4.500005 0 0 1 35.11111 24 4.444444 4.500005 0 1 1 44 24 z" style="fill:#ececec;fill-opacity:1"/>
 <path d="m 44 37.500014 a 4.444444 4.500005 0 0 1 -8.888889 0 4.444444 4.500005 0 1 1 8.888889 0 z" style="fill:#ececec;fill-opacity:1"/>
</svg>
