<svg xmlns="http://www.w3.org/2000/svg" viewBox="0 0 48 48">
 <path d="m 26.17 16.344 -2.186 2.188 c 2.696 2.792 2.696 7.05 0 9.844 l 2.186 2.188 c 4.27 -4.42 4.27 -9.799 0 -14.219 z" style="fill:#ececec;color:#000"/>
 <path d="m 29.448 15.25 c 4.431 4.435 4.431 13.07 0 17.5 l 3.278 3.281 c 6.349 -6.354 6.349 -17.708 0 -24.06 z" style="fill:#ececec;color:#000"/>
 <path d="m 34.912 10.875 c 7.789 7.377 7.675 18.873 0 26.25 l 3.278 3.281 c 10.189 -9.844 10.304 -22.969 0 -32.813 z" style="fill:#ececec;color:#000"/>
 <g transform="matrix(2.1875973,0,0,2.1875,-0.06454444,-0.0625)">
  <path d="m 8 5 -3 3 0 6 l 3 3 0 -4 2 -2 -2 -2" style="fill:#ececec"/>
  <path d="m 2 8 c -0.523 0 -0.999 0.498 -0.999 1 l 0 4 c 0 0.58 0.433 1 0.999 1 l 3.996 0 0 -6 z" style="fill:#ececec"/>
 </g>
</svg>
