<svg viewBox="0 0 48 48" xmlns="http://www.w3.org/2000/svg">
 <path d="m 17.333 6 c -3.682 0 -6.667 3.02 -6.667 6.75 l 0 11.273 c 0 3.728 2.984 6.75 6.667 6.75 c 3.682 0 6.667 -3.02 6.667 -6.75 l 0 -11.273 c 0 -3.728 -2.984 -6.75 -6.667 -6.75" style="fill:#ececec;fill-opacity:1"/>
 <path d="m 4 24 c 0 6.696 4.798 12.224 11.11 13.289 l 0 2.462 -2.222 0 0 2.25 8.889 0 0 -2.25 -2.222 0 0 -2.462 c 6.313 -1.064 11.11 -6.595 11.11 -13.289 l -4.444 0 c 0 4.97 -3.98 9 -8.889 9 -4.909 0 -8.889 -4.03 -8.889 -9 l -4.444 0 z" style="fill:#ececec;fill-opacity:1"/>
 <path d="m 44 10.499986 a 4.444444 4.500005 0 0 1 -8.888889 0 4.444444 4.500005 0 1 1 8.888889 0 z" style="fill:#ececec;opacity:0.3;fill-opacity:1"/>
 <path d="M 44 24 A 4.444444 4.500005 0 0 1 35.11111 24 4.444444 4.500005 0 1 1 44 24 z" style="fill:#ececec;opacity:0.3;fill-opacity:1"/>
 <path d="m 44 37.500014 a 4.444444 4.500005 0 0 1 -8.888889 0 4.444444 4.500005 0 1 1 8.888889 0 z" style="fill:#ececec;opacity:0.3;fill-opacity:1"/>
 <path d="m 24.01 45.991 c 3.084 -0.098 3.158 0.006 4.709 -1.571 1.11 -1.111 5.129 -5.179 6.239 -6.289 2.22 2.221 4.099 4.068 6.318 6.289 1.588 1.577 1.542 1.611 4.709 1.571 -0.028 -3.102 0.018 -3.135 -1.57 -4.712 -2.22 -2.221 -4.099 -4.068 -6.318 -6.289 1.754 -1.804 4.099 -4.056 6.318 -6.277 1.588 -1.565 1.622 -1.497 1.57 -4.712 -3.087 0.074 -3.121 0.006 -4.709 1.571 -2.22 2.221 -4.881 4.838 -6.318 6.277 -2.22 -2.221 -4.02 -4.056 -6.239 -6.277 -1.551 -1.565 -1.591 -1.473 -4.709 -1.571 -0.021 3.24 0.018 3.148 1.57 4.712 1.11 1.111 5.129 5.166 6.239 6.277 -2.22 2.221 -4.02 4.068 -6.239 6.289 -1.551 1.577 -1.625 1.473 -1.57 4.712 z" style="fill:#ef555c;fill-opacity:1;fill-rule:evenodd"/>
</svg>
