<svg xmlns="http://www.w3.org/2000/svg" viewBox="0 0 64 64">
 <g transform="translate(0,-988.3622)">
  <rect width="52" height="20" x="6" y="1000.36" style="fill:#1976d2;fill-opacity:1;stroke:none"/>
  <path d="m 12 1000.36 c 0 -2 0 -4 2.909 -4 l 10.182 0 c 2.909 0 2.909 2 2.909 4 l 0 2 -16 0 z" style="fill:#1976d2;fill-opacity:1;stroke:none"/>
  <path d="m 10 1004.36 44 0 0 9.935 -44 0 z" style="fill:#95989f;fill-opacity:1;stroke:none"/>
  <rect y="1002.36" x="14" height="26" width="38" style="fill:#d8d8da;fill-opacity:1;stroke:none"/>
  <rect width="38" height="26" x="12" y="1006.36" style="fill:#f9f9f9;fill-opacity:1;stroke:none"/>
  <path d="m 2 1008.36 60 0 -4.286 36 -51.43 0 z" style="fill:#42a5f5;fill-opacity:1;stroke:none"/>
  <path d="m 34 1038.36 0 -16 -4 0 0 16 z m -6 -17 -8 -5.999 0 16 8 5.999 z m 16 10 0 -16 -8 5.999 0 16 z m -1.5 -17 c -4.5 0 -7.5 1.5 -10.5 4 -3 -2.5 -6 -4 -10.5 -4 l 8.5 6 4 0 z" style="fill:#2a74b9;fill-opacity:1;stroke:none;fill-rule:nonzero"/>
 </g>
</svg>
