<svg xmlns="http://www.w3.org/2000/svg" viewBox="0 0 64 64">
 <g transform="translate(0,-988.3622)">
  <rect width="52" height="20" x="6" y="1000.36" style="fill:#1976d2;fill-opacity:1;stroke:none"/>
  <path d="m 12 1000.36 c 0 -2 0 -4 2.909 -4 l 10.182 0 c 2.909 0 2.909 2 2.909 4 l 0 2 -16 0 z" style="fill:#1976d2;fill-opacity:1;stroke:none"/>
  <path d="m 10 1004.36 44 0 0 9.935 -44 0 z" style="fill:#95989f;fill-opacity:1;stroke:none"/>
  <rect y="1002.36" x="14" height="26" width="38" style="fill:#d8d8da;fill-opacity:1;stroke:none"/>
  <rect width="38" height="26" x="12" y="1006.36" style="fill:#f9f9f9;fill-opacity:1;stroke:none"/>
  <path d="m 2 1008.36 60 0 -4.286 36 -51.43 0 z" style="fill:#42a5f5;fill-opacity:1;stroke:none"/>
  <path d="M 29 29 A 7 7 0 0 0 22 36 A 7 7 0 0 0 22.656 39 L 22 39 L 22 39.09 A 5 5 0 0 0 18 44 A 5 5 0 0 0 22 48.906 L 22 49 L 23 49 L 23.344 49 L 42 49 L 42 48.906 A 5 5 0 0 0 46 44 A 5 5 0 0 0 42 39.09 L 42 39 L 41 39 A 5 5 0 0 0 42 36 A 5 5 0 0 0 37 31 A 5 5 0 0 0 34.469 31.688 A 7 7 0 0 0 29 29 z" transform="translate(0,988.3622)" style="fill:#2a74b9;opacity:1;fill-opacity:1;stroke:none"/>
 </g>
</svg>
