<svg xmlns="http://www.w3.org/2000/svg" viewBox="0 0 64 64">
 <g transform="translate(0,-988.3622)">
  <rect width="52" height="20" x="6" y="1000.36" style="fill:#5d4037;fill-opacity:1;stroke:none"/>
  <path d="m 12 1000.36 c 0 -2 0 -4 2.909 -4 l 10.182 0 c 2.909 0 2.909 2 2.909 4 l 0 2 -16 0 z" style="fill:#5d4037;fill-opacity:1;stroke:none"/>
  <path d="m 10 1004.36 44 0 0 9.935 -44 0 z" style="fill:#95989f;fill-opacity:1;stroke:none"/>
  <rect y="1002.36" x="14" height="26" width="38" style="fill:#d8d8da;fill-opacity:1;stroke:none"/>
  <rect width="38" height="26" x="12" y="1006.36" style="fill:#f9f9f9;fill-opacity:1;stroke:none"/>
  <path d="m 2 1008.36 60 0 -4.286 36 -51.43 0 z" style="fill:#8d6e63;fill-opacity:1;stroke:none"/>
  <path d="m 36 24 c -5.523 0 -10 4.477 -10 10 c 0 2.096 0.648 4.049 1.75 5.656 c -0.241 0.098 -0.492 0.242 -0.688 0.438 l -8.469 8.5 c -0.783 0.783 -0.783 2.029 0 2.813 c 0.783 0.783 2.029 0.783 2.813 0 l 8.5 -8.469 c 0.196 -0.196 0.34 -0.447 0.438 -0.688 c 1.607 1.102 3.56 1.75 5.656 1.75 c 5.523 0 10 -4.477 10 -10 c 0 -5.523 -4.477 -10 -10 -10 z m 0 3 c 3.866 0 7 3.134 7 7 c 0 3.866 -3.134 7 -7 7 c -3.866 0 -7 -3.134 -7 -7 c 0 -3.866 3.134 -7 7 -7 z" transform="translate(0,988.3622)" style="fill:#634b43;opacity:1;fill-opacity:1;stroke:none"/>
 </g>
</svg>
