<svg xmlns="http://www.w3.org/2000/svg" viewBox="0 0 64 64">
 <g transform="translate(0,-988.3622)">
  <rect width="52" height="20" x="6" y="1000.36" style="fill:#5d4037;fill-opacity:1;stroke:none"/>
  <path d="m 12 1000.36 c 0 -2 0 -4 2.909 -4 l 10.182 0 c 2.909 0 2.909 2 2.909 4 l 0 2 -16 0 z" style="fill:#5d4037;fill-opacity:1;stroke:none"/>
  <path d="m 10 1004.36 44 0 0 9.935 -44 0 z" style="fill:#95989f;fill-opacity:1;stroke:none"/>
  <rect y="1002.36" x="14" height="26" width="38" style="fill:#d8d8da;fill-opacity:1;stroke:none"/>
  <rect width="38" height="26" x="12" y="1006.36" style="fill:#f9f9f9;fill-opacity:1;stroke:none"/>
  <path d="m 2 1008.36 60 0 -4.286 36 -51.43 0 z" style="fill:#8d6e63;fill-opacity:1;stroke:none"/>
  <path transform="translate(2,987.3622)" d="m 17 38 c 0 1.657 -1.343 3 -3 3 -1.657 0 -3 -1.343 -3 -3 0 -1.657 1.343 -3 3 -3 1.657 0 3 1.343 3 3 z" style="fill:#634b43;opacity:1;fill-opacity:1;stroke:none"/>
  <path d="m 32 1013.36 c -2.292 0 -4.43 0.633 -6.25 1.75 l 2.969 2.969 c 1 -0.451 2.111 -0.719 3.281 -0.719 4.078 0 7.444 3.056 7.938 7 l 4 0 c -0.162 -1.92 -0.761 -3.725 -1.719 -5.281 -0.376 0.169 -0.78 0.281 -1.219 0.281 -1.657 0 -3 -1.343 -3 -3 0 -0.439 0.112 -0.843 0.281 -1.219 -1.827 -1.124 -3.979 -1.781 -6.281 -1.781 z m -7.844 2.969 c -1.879 1.638 -3.266 3.831 -3.844 6.344 0.995 0.488 1.688 1.504 1.688 2.688 0 1.183 -0.692 2.199 -1.688 2.688 0.623 2.707 2.142 5.083 4.25 6.75 l 2.875 -2.875 c -2.075 -1.445 -3.438 -3.842 -3.438 -6.563 c 0 -2.51 1.16 -4.752 2.969 -6.219 l -2.813 -2.813 z m 15.781 10.03 c -0.494 3.944 -3.859 7 -7.938 7 -0.946 0 -1.845 -0.199 -2.688 -0.5 l -3.03 3.03 c 1.702 0.93 3.643 1.469 5.719 1.469 1.513 0 2.948 -0.27 4.281 -0.781 c -0.169 -0.376 -0.281 -0.78 -0.281 -1.219 c 0 -1.657 1.343 -3 3 -3 0.804 0 1.524 0.329 2.063 0.844 1.62 -1.871 2.659 -4.231 2.875 -6.844 l -4 0 z" style="fill:#634b43;opacity:1;fill-opacity:1;stroke:none"/>
  <path d="m 17 38 c 0 1.657 -1.343 3 -3 3 -1.657 0 -3 -1.343 -3 -3 0 -1.657 1.343 -3 3 -3 1.657 0 3 1.343 3 3 z" transform="translate(29,976.3622)" style="fill:#634b43;opacity:1;fill-opacity:1;stroke:none"/>
  <path d="m 17 38 c 0 1.657 -1.343 3 -3 3 -1.657 0 -3 -1.343 -3 -3 0 -1.657 1.343 -3 3 -3 1.657 0 3 1.343 3 3 z" transform="translate(27,999.3622)" style="fill:#634b43;opacity:1;fill-opacity:1;stroke:none"/>
 </g>
</svg>
