<svg xmlns="http://www.w3.org/2000/svg" viewBox="0 0 64 64">
 <g transform="translate(0,-988.3622)">
  <rect width="52" height="20" x="6" y="1000.36" style="fill:#5d4037;fill-opacity:1;stroke:none"/>
  <path d="m 12 1000.36 c 0 -2 0 -4 2.909 -4 l 10.182 0 c 2.909 0 2.909 2 2.909 4 l 0 2 -16 0 z" style="fill:#5d4037;fill-opacity:1;stroke:none"/>
  <path d="m 10 1004.36 44 0 0 9.935 -44 0 z" style="fill:#95989f;fill-opacity:1;stroke:none"/>
  <rect y="1002.36" x="14" height="26" width="38" style="fill:#d8d8da;fill-opacity:1;stroke:none"/>
  <rect width="38" height="26" x="12" y="1006.36" style="fill:#f9f9f9;fill-opacity:1;stroke:none"/>
  <path d="m 2 1008.36 60 0 -4.286 36 -51.43 0 z" style="fill:#8d6e63;fill-opacity:1;stroke:none"/>
  <path d="m 32 24.5 c -0.5 0 -1 0.5 -2 1.5 l -8 8 c -4.407 4 -6 4 0 4 l 0 10 c 0 2.216 1.784 4 4 4 l 3 0 l 0 -10 l 6 0 l 0 10 l 3 0 c 2.216 0 4 -1.784 4 -4 l 0 -10 c 6 0 4.576 0 0 -4 l 0 -6 c 0 -1.108 0 -2 -2 -2 c -2 0 -2 0.892 -2 2 l 0 2 l -4 -4 c -1 -1 -1.5 -1.5 -2 -1.5 z" transform="translate(0,988.3622)" style="fill:#634b43;opacity:1;fill-opacity:1"/>
 </g>
</svg>
