<?xml version="1.0" encoding="UTF-8" standalone="no"?>
<svg
   xmlns:dc="http://purl.org/dc/elements/1.1/"
   xmlns:cc="http://creativecommons.org/ns#"
   xmlns:rdf="http://www.w3.org/1999/02/22-rdf-syntax-ns#"
   xmlns:svg="http://www.w3.org/2000/svg"
   xmlns="http://www.w3.org/2000/svg"
   xmlns:sodipodi="http://sodipodi.sourceforge.net/DTD/sodipodi-0.dtd"
   xmlns:inkscape="http://www.inkscape.org/namespaces/inkscape"
   width="64"
   viewBox="0 0 18.062223 18.062223"
   height="64"
   id="svg2"
   version="1.1"
   inkscape:version="0.91 r"
   sodipodi:docname="calendar-06.svg">
  <metadata
     id="metadata17">
    <rdf:RDF>
      <cc:Work
         rdf:about="">
        <dc:format>image/svg+xml</dc:format>
        <dc:type
           rdf:resource="http://purl.org/dc/dcmitype/StillImage" />
        <dc:title />
      </cc:Work>
    </rdf:RDF>
  </metadata>
  <defs
     id="defs15" />
  <sodipodi:namedview
     pagecolor="#ffffff"
     bordercolor="#666666"
     borderopacity="1"
     objecttolerance="10"
     gridtolerance="10"
     guidetolerance="10"
     inkscape:pageopacity="0"
     inkscape:pageshadow="2"
     inkscape:window-width="1366"
     inkscape:window-height="747"
     id="namedview13"
     showgrid="true"
     inkscape:zoom="5.6568543"
     inkscape:cx="52.325873"
     inkscape:cy="18.156652"
     inkscape:window-x="0"
     inkscape:window-y="21"
     inkscape:window-maximized="1"
     inkscape:current-layer="svg2"
     showguides="false">
    <inkscape:grid
       type="xygrid"
       id="grid4145"
       originx="0"
       originy="0"
       spacingy="0.28222223"
       spacingx="0.28222223" />
  </sodipodi:namedview>
  <path
     d="m 3.386955,0.56444811 0,1.35466419 -1.6937552,0 c -0.3386669,0 -0.5644446,0.2822401 -0.5642309,0.5644441 l -7.92e-5,15.0142516 c -1.345e-4,0.2822 0.2820876,0.564424 0.5643101,0.564416 l 14.6755612,0 c 0.282224,8e-6 0.564444,-0.2822 0.56418,-0.564308 l 3.93e-4,-15.0143596 c -1.29e-4,-0.28224 -0.282352,-0.5644441 -0.564573,-0.5644441 l -1.692995,0 0,-1.35466419 C 14.675427,0 14.675427,0 14.110982,0 l -1.467556,0 c -0.564445,0 -0.564445,0 -0.564445,0.56444811 l 0,1.12888819 -6.0960018,0 0,-1.12888819 C 5.9829792,0 5.9829792,0 5.4185343,0 L 3.9509783,0 C 3.3865337,0 3.386955,0 3.386955,0.56444811 Z m 0.751419,0.18740003 1.0927647,0 0,2.26212036 c 0,0.9371522 -1.0927647,0.9371522 -1.0927647,0 z m 8.692447,0 1.092765,0 0,2.26212036 c 0,0.9371522 -1.092765,0.9371522 -1.092765,0 z M 2.2575099,5.6444571 l 13.5466771,0 0,11.2891549 -13.5466771,-2.16e-4 z"
     id="path4"
     inkscape:connector-curvature="0"
     style="color:#000000;fill:#cacaca"
     sodipodi:nodetypes="scccccccccccccccccccsccsccccsscccccc" />
  <g
     transform="matrix(0.28222222,0,0,0.28222222,-9.4977623,2.4049466)"
     style="font-style:normal;font-variant:normal;font-weight:normal;font-stretch:normal;font-size:20px;line-height:125%;font-family:'Droid Sans';-inkscape-font-specification:'Droid Sans';letter-spacing:0px;word-spacing:0px;fill:#000000;fill-opacity:1;stroke:none;stroke-width:1px;stroke-linecap:butt;stroke-linejoin:miter;stroke-opacity:1"
     id="flowRoot4147" />
  <g
     transform="scale(1.1417405,0.87585576)"
     style="font-style:normal;font-variant:normal;font-weight:normal;font-stretch:normal;font-size:6.42840672px;line-height:125%;font-family:Ubuntu;-inkscape-font-specification:Ubuntu;letter-spacing:0px;word-spacing:0px;fill:#3798d6;fill-opacity:1;stroke:none;stroke-width:1px;stroke-linecap:butt;stroke-linejoin:miter;stroke-opacity:1"
     id="text4155">
    <path
       d="m 5.5855729,14.190964 q 0,-0.50643 0.053055,-1.008036 0.057878,-0.501606 0.1977485,-0.959804 0.1446941,-0.463021 0.3858508,-0.858518 0.2459799,-0.395497 0.6173613,-0.684885 0.3762046,-0.294211 0.8971032,-0.458198 0.5257217,-0.168809 1.2250763,-0.168809 0.1012859,0 0.2218643,0.0048 0.1205783,0.0048 0.2411567,0.01447 0.1254015,0.0048 0.2411568,0.01929 0.1157552,0.01447 0.2073948,0.03376 l 0,1.191314 q -0.1832792,-0.04341 -0.390674,-0.06752 -0.2025716,-0.02894 -0.4099665,-0.02894 -0.6511232,0 -1.070736,0.163987 -0.4196127,0.159163 -0.6655926,0.448551 -0.2459799,0.289389 -0.3520889,0.694532 -0.1012858,0.405143 -0.1254015,0.897103 l 0.057878,0 q 0.096463,-0.173633 0.2315105,-0.32315 0.1398709,-0.15434 0.3231501,-0.260449 0.1832791,-0.110932 0.4099664,-0.173633 0.2315105,-0.0627 0.5160755,-0.0627 0.4581979,0 0.8247561,0.149517 0.3665583,0.149517 0.6173613,0.434082 0.2556259,0.284565 0.3906739,0.699355 0.135048,0.41479 0.135048,0.950158 0,0.573953 -0.163987,1.027327 -0.159163,0.453375 -0.4581976,0.771702 -0.2990343,0.313504 -0.7234702,0.482314 -0.4244359,0.163986 -0.9549808,0.163986 -0.5208986,0 -0.9742733,-0.183279 Q 6.6370164,16.911212 6.2993969,16.530184 5.9666006,16.149156 5.7736752,15.57038 5.5855729,14.986781 5.5855729,14.190964 Z m 2.4501527,1.900315 q 0.1977485,0 0.356912,-0.07235 0.1639866,-0.07717 0.2797418,-0.226688 0.1205784,-0.15434 0.1832792,-0.38585 0.067524,-0.231511 0.067524,-0.549838 0,-0.516075 -0.2170411,-0.810286 -0.212218,-0.299035 -0.6511233,-0.299035 -0.2218642,0 -0.4051433,0.08682 -0.1832792,0.08682 -0.3135038,0.226687 -0.1302247,0.139871 -0.2025717,0.313504 -0.067524,0.173633 -0.067524,0.352089 0,0.245979 0.057878,0.491959 0.062701,0.241157 0.1832792,0.438906 0.1254015,0.192925 0.3038575,0.313503 0.1832791,0.120579 0.4244359,0.120579 z"
       style="font-style:normal;font-variant:normal;font-weight:bold;font-stretch:normal;font-size:9.87778091px;font-family:'droid sans';-inkscape-font-specification:'droid sans Bold';text-align:center;letter-spacing:-0.11288894px;word-spacing:0.22577785px;text-anchor:middle;fill:#3798d6;fill-opacity:1"
       id="path4142" />
  </g>
</svg>
