<?xml version="1.0" encoding="UTF-8" standalone="no"?>
<svg
   xmlns:dc="http://purl.org/dc/elements/1.1/"
   xmlns:cc="http://creativecommons.org/ns#"
   xmlns:rdf="http://www.w3.org/1999/02/22-rdf-syntax-ns#"
   xmlns:svg="http://www.w3.org/2000/svg"
   xmlns="http://www.w3.org/2000/svg"
   xmlns:sodipodi="http://sodipodi.sourceforge.net/DTD/sodipodi-0.dtd"
   xmlns:inkscape="http://www.inkscape.org/namespaces/inkscape"
   width="64"
   viewBox="0 0 18.062223 18.062223"
   height="64"
   id="svg2"
   version="1.1"
   inkscape:version="0.91 r"
   sodipodi:docname="calendar-04.svg">
  <metadata
     id="metadata17">
    <rdf:RDF>
      <cc:Work
         rdf:about="">
        <dc:format>image/svg+xml</dc:format>
        <dc:type
           rdf:resource="http://purl.org/dc/dcmitype/StillImage" />
        <dc:title />
      </cc:Work>
    </rdf:RDF>
  </metadata>
  <defs
     id="defs15" />
  <sodipodi:namedview
     pagecolor="#ffffff"
     bordercolor="#666666"
     borderopacity="1"
     objecttolerance="10"
     gridtolerance="10"
     guidetolerance="10"
     inkscape:pageopacity="0"
     inkscape:pageshadow="2"
     inkscape:window-width="1366"
     inkscape:window-height="747"
     id="namedview13"
     showgrid="true"
     inkscape:zoom="5.6568543"
     inkscape:cx="52.325873"
     inkscape:cy="18.156652"
     inkscape:window-x="0"
     inkscape:window-y="21"
     inkscape:window-maximized="1"
     inkscape:current-layer="svg2"
     showguides="false">
    <inkscape:grid
       type="xygrid"
       id="grid4145"
       originx="0"
       originy="0"
       spacingy="0.28222223"
       spacingx="0.28222223" />
  </sodipodi:namedview>
  <path
     d="m 3.386955,0.56444811 0,1.35466419 -1.6937552,0 c -0.3386669,0 -0.5644446,0.2822401 -0.5642309,0.5644441 l -7.92e-5,15.0142516 c -1.345e-4,0.2822 0.2820876,0.564424 0.5643101,0.564416 l 14.6755612,0 c 0.282224,8e-6 0.564444,-0.2822 0.56418,-0.564308 l 3.93e-4,-15.0143596 c -1.29e-4,-0.28224 -0.282352,-0.5644441 -0.564573,-0.5644441 l -1.692995,0 0,-1.35466419 C 14.675427,0 14.675427,0 14.110982,0 l -1.467556,0 c -0.564445,0 -0.564445,0 -0.564445,0.56444811 l 0,1.12888819 -6.0960018,0 0,-1.12888819 C 5.9829792,0 5.9829792,0 5.4185343,0 L 3.9509783,0 C 3.3865337,0 3.386955,0 3.386955,0.56444811 Z m 0.751419,0.18740003 1.0927647,0 0,2.26212036 c 0,0.9371522 -1.0927647,0.9371522 -1.0927647,0 z m 8.692447,0 1.092765,0 0,2.26212036 c 0,0.9371522 -1.092765,0.9371522 -1.092765,0 z M 2.2575099,5.6444571 l 13.5466771,0 0,11.2891549 -13.5466771,-2.16e-4 z"
     id="path4"
     inkscape:connector-curvature="0"
     style="color:#000000;fill:#cacaca"
     sodipodi:nodetypes="scccccccccccccccccccsccsccccsscccccc" />
  <g
     transform="matrix(0.28222222,0,0,0.28222222,-9.4977623,2.4049466)"
     style="font-style:normal;font-variant:normal;font-weight:normal;font-stretch:normal;font-size:20px;line-height:125%;font-family:'Droid Sans';-inkscape-font-specification:'Droid Sans';letter-spacing:0px;word-spacing:0px;fill:#000000;fill-opacity:1;stroke:none;stroke-width:1px;stroke-linecap:butt;stroke-linejoin:miter;stroke-opacity:1"
     id="flowRoot4147" />
  <g
     transform="scale(1.1417405,0.87585576)"
     style="font-style:normal;font-variant:normal;font-weight:normal;font-stretch:normal;font-size:6.42840672px;line-height:125%;font-family:Ubuntu;-inkscape-font-specification:Ubuntu;letter-spacing:0px;word-spacing:0px;fill:#3798d6;fill-opacity:1;stroke:none;stroke-width:1px;stroke-linecap:butt;stroke-linejoin:miter;stroke-opacity:1"
     id="text4155">
    <path
       d="m 10.452116,15.724721 -0.8488715,0 0,1.46141 -1.4517637,0 0,-1.46141 -2.9131737,0 0,-1.036975 2.995167,-4.553039 1.3697704,0 0,4.432461 0.8488715,0 0,1.157553 z m -2.3006352,-1.157553 0,-1.196137 q 0,-0.0627 0,-0.178456 0.00482,-0.120579 0.00965,-0.270096 0.00482,-0.149517 0.00965,-0.308681 0.00965,-0.159163 0.014469,-0.303857 0.00965,-0.144694 0.014469,-0.250803 0.00965,-0.110932 0.014469,-0.159164 l -0.043408,0 q -0.086816,0.202572 -0.1977486,0.429259 -0.106109,0.226688 -0.2459799,0.453375 l -1.176845,1.78456 1.6012809,0 z"
       style="font-style:normal;font-variant:normal;font-weight:bold;font-stretch:normal;font-size:9.87778091px;font-family:'droid sans';-inkscape-font-specification:'droid sans Bold';text-align:center;letter-spacing:-0.11288894px;word-spacing:0.22577785px;text-anchor:middle;fill:#3798d6;fill-opacity:1"
       id="path4142" />
  </g>
</svg>
