<?xml version="1.0" encoding="UTF-8" standalone="no"?>
<svg
   xmlns:dc="http://purl.org/dc/elements/1.1/"
   xmlns:cc="http://creativecommons.org/ns#"
   xmlns:rdf="http://www.w3.org/1999/02/22-rdf-syntax-ns#"
   xmlns:svg="http://www.w3.org/2000/svg"
   xmlns="http://www.w3.org/2000/svg"
   xmlns:sodipodi="http://sodipodi.sourceforge.net/DTD/sodipodi-0.dtd"
   xmlns:inkscape="http://www.inkscape.org/namespaces/inkscape"
   width="64"
   viewBox="0 0 18.062223 18.062223"
   height="64"
   id="svg2"
   version="1.1"
   inkscape:version="0.91 r"
   sodipodi:docname="calendar-30.svg">
  <metadata
     id="metadata17">
    <rdf:RDF>
      <cc:Work
         rdf:about="">
        <dc:format>image/svg+xml</dc:format>
        <dc:type
           rdf:resource="http://purl.org/dc/dcmitype/StillImage" />
        <dc:title />
      </cc:Work>
    </rdf:RDF>
  </metadata>
  <defs
     id="defs15" />
  <sodipodi:namedview
     pagecolor="#ffffff"
     bordercolor="#666666"
     borderopacity="1"
     objecttolerance="10"
     gridtolerance="10"
     guidetolerance="10"
     inkscape:pageopacity="0"
     inkscape:pageshadow="2"
     inkscape:window-width="1366"
     inkscape:window-height="747"
     id="namedview13"
     showgrid="true"
     inkscape:zoom="5.6568543"
     inkscape:cx="52.325873"
     inkscape:cy="18.156652"
     inkscape:window-x="0"
     inkscape:window-y="21"
     inkscape:window-maximized="1"
     inkscape:current-layer="svg2"
     showguides="false">
    <inkscape:grid
       type="xygrid"
       id="grid4145"
       originx="0"
       originy="0"
       spacingy="0.28222223"
       spacingx="0.28222223" />
  </sodipodi:namedview>
  <path
     d="m 3.386955,0.56444811 0,1.35466419 -1.6937552,0 c -0.3386669,0 -0.5644446,0.2822401 -0.5642309,0.5644441 l -7.92e-5,15.0142516 c -1.345e-4,0.2822 0.2820876,0.564424 0.5643101,0.564416 l 14.6755612,0 c 0.282224,8e-6 0.564444,-0.2822 0.56418,-0.564308 l 3.93e-4,-15.0143596 c -1.29e-4,-0.28224 -0.282352,-0.5644441 -0.564573,-0.5644441 l -1.692995,0 0,-1.35466419 C 14.675427,0 14.675427,0 14.110982,0 l -1.467556,0 c -0.564445,0 -0.564445,0 -0.564445,0.56444811 l 0,1.12888819 -6.0960018,0 0,-1.12888819 C 5.9829792,0 5.9829792,0 5.4185343,0 L 3.9509783,0 C 3.3865337,0 3.386955,0 3.386955,0.56444811 Z m 0.751419,0.18740003 1.0927647,0 0,2.26212036 c 0,0.9371522 -1.0927647,0.9371522 -1.0927647,0 z m 8.692447,0 1.092765,0 0,2.26212036 c 0,0.9371522 -1.092765,0.9371522 -1.092765,0 z M 2.2575099,5.6444571 l 13.5466771,0 0,11.2891549 -13.5466771,-2.16e-4 z"
     id="path4"
     inkscape:connector-curvature="0"
     style="color:#000000;fill:#cacaca"
     sodipodi:nodetypes="scccccccccccccccccccsccsccccsscccccc" />
  <g
     transform="matrix(0.28222222,0,0,0.28222222,-9.4977623,2.4049466)"
     style="font-style:normal;font-variant:normal;font-weight:normal;font-stretch:normal;font-size:20px;line-height:125%;font-family:'Droid Sans';-inkscape-font-specification:'Droid Sans';letter-spacing:0px;word-spacing:0px;fill:#000000;fill-opacity:1;stroke:none;stroke-width:1px;stroke-linecap:butt;stroke-linejoin:miter;stroke-opacity:1"
     id="flowRoot4147" />
  <g
     transform="scale(1.1417405,0.87585576)"
     style="font-style:normal;font-variant:normal;font-weight:normal;font-stretch:normal;font-size:6.42840672px;line-height:125%;font-family:Ubuntu;-inkscape-font-specification:Ubuntu;letter-spacing:0px;word-spacing:0px;fill:#3798d6;fill-opacity:1;stroke:none;stroke-width:1px;stroke-linecap:butt;stroke-linejoin:miter;stroke-opacity:1"
     id="text4155">
    <path
       d="m 7.4072848,11.711872 q 0,0.366558 -0.1205783,0.66077 -0.1157553,0.289388 -0.3231501,0.511252 -0.2025717,0.217041 -0.4823135,0.366558 -0.2749187,0.144694 -0.5980688,0.221864 l 0,0.02894 q 0.8536949,0.106109 1.2926003,0.520899 0.4389053,0.409966 0.4389053,1.109321 0,0.463021 -0.1688098,0.858518 -0.1639866,0.390674 -0.5112523,0.680062 -0.3424426,0.289388 -0.8681643,0.453375 -0.5208987,0.159163 -1.2298995,0.159163 -0.56913,0 -1.070736,-0.09646 -0.5016061,-0.09164 -0.9356883,-0.284565 l 0,-1.268485 q 0.2170411,0.115755 0.4581979,0.202572 0.2411567,0.08682 0.4823135,0.149517 0.2411568,0.05788 0.4726672,0.08682 0.2363337,0.02894 0.4437285,0.02894 0.4147896,0 0.6897083,-0.07717 0.2749187,-0.07717 0.4389053,-0.217041 0.1639866,-0.139871 0.2315105,-0.332796 0.072347,-0.197749 0.072347,-0.42926 0,-0.217041 -0.091639,-0.390673 Q 5.9410517,14.475529 5.7384801,14.35495 5.5407315,14.229549 5.2175815,14.162025 4.8944314,14.094501 4.4217641,14.094501 l -0.501606,0 0,-1.04662 0.4919598,0 q 0.4437284,0 0.7379397,-0.07717 0.2942112,-0.08199 0.4678441,-0.217041 0.178456,-0.139871 0.250803,-0.32315 0.072347,-0.183279 0.072347,-0.390674 0,-0.376204 -0.2363336,-0.588422 -0.2315105,-0.212218 -0.7379397,-0.212218 -0.2315105,0 -0.4340821,0.04823 -0.1977486,0.04341 -0.3713815,0.115755 -0.1688097,0.06752 -0.3135037,0.154341 -0.139871,0.08199 -0.2556262,0.163986 L 2.8397758,10.727952 q 0.2025717,-0.149517 0.4389053,-0.274918 0.2411568,-0.125402 0.5208986,-0.217041 0.2797418,-0.09646 0.6028919,-0.149518 0.3231501,-0.05305 0.6897083,-0.05305 0.5208986,0 0.9453345,0.115755 0.4292591,0.110932 0.7331166,0.327973 0.3038575,0.212218 0.4678441,0.525722 0.1688097,0.308681 0.1688097,0.709001 z"
       style="font-style:normal;font-variant:normal;font-weight:bold;font-stretch:normal;font-size:9.87778091px;font-family:'droid sans';-inkscape-font-specification:'droid sans Bold';text-align:center;letter-spacing:-0.11288894px;word-spacing:0.22577785px;text-anchor:middle;fill:#3798d6;fill-opacity:1"
       id="path4142" />
    <path
       d="m 13.019457,13.660419 q 0,0.853695 -0.135047,1.52411 -0.130225,0.670416 -0.424436,1.13826 -0.289388,0.467844 -0.752409,0.713824 -0.458198,0.24598 -1.109321,0.24598 -0.6125386,0 -1.0659133,-0.24598 Q 9.078956,16.790633 8.7799216,16.322789 8.4808872,15.854945 8.33137,15.184529 8.186676,14.514114 8.186676,13.660419 q 0,-0.853695 0.1302246,-1.528934 0.1350478,-0.675239 0.4244359,-1.143083 0.2893881,-0.467844 0.747586,-0.713824 0.4581978,-0.250803 1.1093215,-0.250803 0.607715,0 1.061089,0.24598 0.453375,0.24598 0.757233,0.713824 0.303857,0.467844 0.453374,1.143083 0.149517,0.675239 0.149517,1.533757 z m -3.3472554,0 q 0,1.205783 0.2073948,1.813499 0.2073946,0.607715 0.7186476,0.607715 0.501606,0 0.718647,-0.602892 0.221864,-0.602892 0.221864,-1.818322 0,-1.210607 -0.221864,-1.818322 -0.217041,-0.612538 -0.718647,-0.612538 -0.255627,0 -0.434083,0.15434 -0.1736325,0.15434 -0.2845646,0.458198 -0.1109321,0.303857 -0.1591634,0.762055 -0.048231,0.453375 -0.048231,1.056267 z"
       style="font-style:normal;font-variant:normal;font-weight:bold;font-stretch:normal;font-size:9.87778091px;font-family:'droid sans';-inkscape-font-specification:'droid sans Bold';text-align:center;letter-spacing:-0.11288894px;word-spacing:0.22577785px;text-anchor:middle;fill:#3798d6;fill-opacity:1"
       id="path4144" />
  </g>
</svg>
