<?xml version="1.0" encoding="UTF-8" standalone="no"?>
<svg
   xmlns:dc="http://purl.org/dc/elements/1.1/"
   xmlns:cc="http://creativecommons.org/ns#"
   xmlns:rdf="http://www.w3.org/1999/02/22-rdf-syntax-ns#"
   xmlns:svg="http://www.w3.org/2000/svg"
   xmlns="http://www.w3.org/2000/svg"
   xmlns:sodipodi="http://sodipodi.sourceforge.net/DTD/sodipodi-0.dtd"
   xmlns:inkscape="http://www.inkscape.org/namespaces/inkscape"
   width="64"
   viewBox="0 0 18.062223 18.062223"
   height="64"
   id="svg2"
   version="1.1"
   inkscape:version="0.91 r"
   sodipodi:docname="calendar-23.svg">
  <metadata
     id="metadata17">
    <rdf:RDF>
      <cc:Work
         rdf:about="">
        <dc:format>image/svg+xml</dc:format>
        <dc:type
           rdf:resource="http://purl.org/dc/dcmitype/StillImage" />
        <dc:title />
      </cc:Work>
    </rdf:RDF>
  </metadata>
  <defs
     id="defs15" />
  <sodipodi:namedview
     pagecolor="#ffffff"
     bordercolor="#666666"
     borderopacity="1"
     objecttolerance="10"
     gridtolerance="10"
     guidetolerance="10"
     inkscape:pageopacity="0"
     inkscape:pageshadow="2"
     inkscape:window-width="1366"
     inkscape:window-height="747"
     id="namedview13"
     showgrid="true"
     inkscape:zoom="5.6568543"
     inkscape:cx="52.325873"
     inkscape:cy="18.156652"
     inkscape:window-x="0"
     inkscape:window-y="21"
     inkscape:window-maximized="1"
     inkscape:current-layer="svg2"
     showguides="false">
    <inkscape:grid
       type="xygrid"
       id="grid4145"
       originx="0"
       originy="0"
       spacingy="0.28222223"
       spacingx="0.28222223" />
  </sodipodi:namedview>
  <path
     d="m 3.386955,0.56444811 0,1.35466419 -1.6937552,0 c -0.3386669,0 -0.5644446,0.2822401 -0.5642309,0.5644441 l -7.92e-5,15.0142516 c -1.345e-4,0.2822 0.2820876,0.564424 0.5643101,0.564416 l 14.6755612,0 c 0.282224,8e-6 0.564444,-0.2822 0.56418,-0.564308 l 3.93e-4,-15.0143596 c -1.29e-4,-0.28224 -0.282352,-0.5644441 -0.564573,-0.5644441 l -1.692995,0 0,-1.35466419 C 14.675427,0 14.675427,0 14.110982,0 l -1.467556,0 c -0.564445,0 -0.564445,0 -0.564445,0.56444811 l 0,1.12888819 -6.0960018,0 0,-1.12888819 C 5.9829792,0 5.9829792,0 5.4185343,0 L 3.9509783,0 C 3.3865337,0 3.386955,0 3.386955,0.56444811 Z m 0.751419,0.18740003 1.0927647,0 0,2.26212036 c 0,0.9371522 -1.0927647,0.9371522 -1.0927647,0 z m 8.692447,0 1.092765,0 0,2.26212036 c 0,0.9371522 -1.092765,0.9371522 -1.092765,0 z M 2.2575099,5.6444571 l 13.5466771,0 0,11.2891549 -13.5466771,-2.16e-4 z"
     id="path4"
     inkscape:connector-curvature="0"
     style="color:#000000;fill:#cacaca"
     sodipodi:nodetypes="scccccccccccccccccccsccsccccsscccccc" />
  <g
     transform="matrix(0.28222222,0,0,0.28222222,-9.4977623,2.4049466)"
     style="font-style:normal;font-variant:normal;font-weight:normal;font-stretch:normal;font-size:20px;line-height:125%;font-family:'Droid Sans';-inkscape-font-specification:'Droid Sans';letter-spacing:0px;word-spacing:0px;fill:#000000;fill-opacity:1;stroke:none;stroke-width:1px;stroke-linecap:butt;stroke-linejoin:miter;stroke-opacity:1"
     id="flowRoot4147" />
  <g
     transform="scale(1.1417405,0.87585576)"
     style="font-style:normal;font-variant:normal;font-weight:normal;font-stretch:normal;font-size:6.42840672px;line-height:125%;font-family:Ubuntu;-inkscape-font-specification:Ubuntu;letter-spacing:0px;word-spacing:0px;fill:#3798d6;fill-opacity:1;stroke:none;stroke-width:1px;stroke-linecap:butt;stroke-linejoin:miter;stroke-opacity:1"
     id="text4155">
    <path
       d="m 7.6822035,17.186131 -4.7314956,0 0,-1.036975 1.6591585,-1.789383 q 0.3135038,-0.337619 0.56913,-0.622184 0.2556261,-0.284565 0.4389053,-0.554661 0.1832791,-0.270095 0.284565,-0.549837 0.1012858,-0.279742 0.1012858,-0.602892 0,-0.356912 -0.2170411,-0.554661 -0.2122179,-0.197748 -0.5739531,-0.197748 -0.3810277,0 -0.7331165,0.188102 -0.3520889,0.188102 -0.7379397,0.535368 L 2.9314154,11.041456 q 0.217041,-0.197748 0.4533747,-0.376204 0.2363336,-0.183279 0.5208986,-0.32315 0.284565,-0.139871 0.6270076,-0.221865 0.3424426,-0.08682 0.7668785,-0.08682 0.5064292,0 0.9067494,0.139871 0.4051433,0.139871 0.6897083,0.40032 0.284565,0.255626 0.4340822,0.622185 0.1543403,0.366558 0.1543403,0.824756 0,0.414789 -0.1446941,0.795817 -0.144694,0.376205 -0.395497,0.742763 -0.2508031,0.361735 -0.5835994,0.72347 -0.3279732,0.356912 -0.7041777,0.728294 l -0.8488718,0.853694 0,0.06752 2.8745885,0 0,1.254016 z"
       style="font-style:normal;font-variant:normal;font-weight:bold;font-stretch:normal;font-size:9.87778091px;font-family:'droid sans';-inkscape-font-specification:'droid sans Bold';text-align:center;letter-spacing:-0.11288894px;word-spacing:0.22577785px;text-anchor:middle;fill:#3798d6;fill-opacity:1"
       id="path4142" />
    <path
       d="m 12.734892,11.711872 q 0,0.366558 -0.120578,0.66077 -0.115755,0.289388 -0.32315,0.511252 -0.202572,0.217041 -0.482313,0.366558 -0.274919,0.144694 -0.598069,0.221864 l 0,0.02894 q 0.853695,0.106109 1.2926,0.520899 0.438905,0.409966 0.438905,1.109321 0,0.463021 -0.168809,0.858518 -0.163987,0.390674 -0.511253,0.680062 -0.342442,0.289388 -0.868164,0.453375 -0.520899,0.159163 -1.2299,0.159163 -0.5691296,0 -1.0707356,-0.09646 -0.5016061,-0.09164 -0.9356882,-0.284565 l 0,-1.268485 q 0.217041,0.115755 0.4581978,0.202572 0.2411568,0.08682 0.4823135,0.149517 0.2411568,0.05788 0.4726673,0.08682 0.2363336,0.02894 0.4437282,0.02894 0.41479,0 0.689709,-0.07717 0.274918,-0.07717 0.438905,-0.217041 0.163986,-0.139871 0.23151,-0.332796 0.07235,-0.197749 0.07235,-0.42926 0,-0.217041 -0.09164,-0.390673 -0.08682,-0.178456 -0.289388,-0.299035 -0.197749,-0.125401 -0.520899,-0.192925 -0.32315,-0.06752 -0.7958172,-0.06752 l -0.5016061,0 0,-1.04662 0.4919598,0 q 0.4437285,0 0.7379395,-0.07717 0.294211,-0.08199 0.467844,-0.217041 0.178456,-0.139871 0.250803,-0.32315 0.07235,-0.183279 0.07235,-0.390674 0,-0.376204 -0.236333,-0.588422 -0.231511,-0.212218 -0.73794,-0.212218 -0.23151,0 -0.4340821,0.04823 -0.1977486,0.04341 -0.3713814,0.115755 -0.1688098,0.06752 -0.3135038,0.154341 -0.1398709,0.08199 -0.2556262,0.163986 L 8.1673834,10.727952 q 0.2025717,-0.149517 0.4389053,-0.274918 0.2411568,-0.125402 0.5208986,-0.217041 0.2797419,-0.09646 0.6028919,-0.149518 0.3231498,-0.05305 0.6897088,-0.05305 0.520898,0 0.945334,0.115755 0.429259,0.110932 0.733117,0.327973 0.303857,0.212218 0.467844,0.525722 0.168809,0.308681 0.168809,0.709001 z"
       style="font-style:normal;font-variant:normal;font-weight:bold;font-stretch:normal;font-size:9.87778091px;font-family:'droid sans';-inkscape-font-specification:'droid sans Bold';text-align:center;letter-spacing:-0.11288894px;word-spacing:0.22577785px;text-anchor:middle;fill:#3798d6;fill-opacity:1"
       id="path4144" />
  </g>
</svg>
