<?xml version="1.0" encoding="UTF-8" standalone="no"?>
<svg
   xmlns:dc="http://purl.org/dc/elements/1.1/"
   xmlns:cc="http://creativecommons.org/ns#"
   xmlns:rdf="http://www.w3.org/1999/02/22-rdf-syntax-ns#"
   xmlns:svg="http://www.w3.org/2000/svg"
   xmlns="http://www.w3.org/2000/svg"
   xmlns:sodipodi="http://sodipodi.sourceforge.net/DTD/sodipodi-0.dtd"
   xmlns:inkscape="http://www.inkscape.org/namespaces/inkscape"
   width="64"
   viewBox="0 0 18.062223 18.062223"
   height="64"
   id="svg2"
   version="1.1"
   inkscape:version="0.91 r"
   sodipodi:docname="calendar-09.svg">
  <metadata
     id="metadata17">
    <rdf:RDF>
      <cc:Work
         rdf:about="">
        <dc:format>image/svg+xml</dc:format>
        <dc:type
           rdf:resource="http://purl.org/dc/dcmitype/StillImage" />
        <dc:title />
      </cc:Work>
    </rdf:RDF>
  </metadata>
  <defs
     id="defs15" />
  <sodipodi:namedview
     pagecolor="#ffffff"
     bordercolor="#666666"
     borderopacity="1"
     objecttolerance="10"
     gridtolerance="10"
     guidetolerance="10"
     inkscape:pageopacity="0"
     inkscape:pageshadow="2"
     inkscape:window-width="1366"
     inkscape:window-height="747"
     id="namedview13"
     showgrid="true"
     inkscape:zoom="5.6568543"
     inkscape:cx="52.325873"
     inkscape:cy="18.156652"
     inkscape:window-x="0"
     inkscape:window-y="21"
     inkscape:window-maximized="1"
     inkscape:current-layer="svg2"
     showguides="false">
    <inkscape:grid
       type="xygrid"
       id="grid4145"
       originx="0"
       originy="0"
       spacingy="0.28222223"
       spacingx="0.28222223" />
  </sodipodi:namedview>
  <path
     d="m 3.386955,0.56444811 0,1.35466419 -1.6937552,0 c -0.3386669,0 -0.5644446,0.2822401 -0.5642309,0.5644441 l -7.92e-5,15.0142516 c -1.345e-4,0.2822 0.2820876,0.564424 0.5643101,0.564416 l 14.6755612,0 c 0.282224,8e-6 0.564444,-0.2822 0.56418,-0.564308 l 3.93e-4,-15.0143596 c -1.29e-4,-0.28224 -0.282352,-0.5644441 -0.564573,-0.5644441 l -1.692995,0 0,-1.35466419 C 14.675427,0 14.675427,0 14.110982,0 l -1.467556,0 c -0.564445,0 -0.564445,0 -0.564445,0.56444811 l 0,1.12888819 -6.0960018,0 0,-1.12888819 C 5.9829792,0 5.9829792,0 5.4185343,0 L 3.9509783,0 C 3.3865337,0 3.386955,0 3.386955,0.56444811 Z m 0.751419,0.18740003 1.0927647,0 0,2.26212036 c 0,0.9371522 -1.0927647,0.9371522 -1.0927647,0 z m 8.692447,0 1.092765,0 0,2.26212036 c 0,0.9371522 -1.092765,0.9371522 -1.092765,0 z M 2.2575099,5.6444571 l 13.5466771,0 0,11.2891549 -13.5466771,-2.16e-4 z"
     id="path4"
     inkscape:connector-curvature="0"
     style="color:#000000;fill:#cacaca"
     sodipodi:nodetypes="scccccccccccccccccccsccsccccsscccccc" />
  <g
     transform="matrix(0.28222222,0,0,0.28222222,-9.4977623,2.4049466)"
     style="font-style:normal;font-variant:normal;font-weight:normal;font-stretch:normal;font-size:20px;line-height:125%;font-family:'Droid Sans';-inkscape-font-specification:'Droid Sans';letter-spacing:0px;word-spacing:0px;fill:#000000;fill-opacity:1;stroke:none;stroke-width:1px;stroke-linecap:butt;stroke-linejoin:miter;stroke-opacity:1"
     id="flowRoot4147" />
  <g
     transform="scale(1.1417405,0.87585576)"
     style="font-style:normal;font-variant:normal;font-weight:normal;font-stretch:normal;font-size:6.42840672px;line-height:125%;font-family:Ubuntu;-inkscape-font-specification:Ubuntu;letter-spacing:0px;word-spacing:0px;fill:#3798d6;fill-opacity:1;stroke:none;stroke-width:1px;stroke-linecap:butt;stroke-linejoin:miter;stroke-opacity:1"
     id="text4155">
    <path
       d="m 10.307422,13.144343 q 0,0.506429 -0.05788,1.012859 -0.05305,0.501606 -0.197749,0.959804 -0.1398708,0.458197 -0.3858507,0.858518 -0.2411568,0.395497 -0.6173613,0.684885 -0.3713814,0.289388 -0.8971032,0.458198 -0.5208986,0.163986 -1.2250763,0.163986 -0.1012859,0 -0.2218642,-0.0048 -0.1205784,-0.0048 -0.2459799,-0.01447 -0.1205784,-0.0048 -0.2363337,-0.01929 -0.1157552,-0.0096 -0.2025716,-0.02894 l 0,-1.196137 q 0.178456,0.04823 0.3810276,0.07717 0.2073948,0.02412 0.4196128,0.02412 0.6511233,0 1.070736,-0.159164 0.4196128,-0.163986 0.6655927,-0.453375 0.2459799,-0.294211 0.3472657,-0.699354 0.106109,-0.405143 0.1302247,-0.89228 l -0.062701,0 q -0.096463,0.173633 -0.2315105,0.32315 -0.1350478,0.149517 -0.3183269,0.260449 -0.1832791,0.110932 -0.4147896,0.173633 -0.2315105,0.0627 -0.5160755,0.0627 -0.4581979,0 -0.8247561,-0.149517 -0.3665583,-0.149518 -0.6221845,-0.434083 -0.250803,-0.284565 -0.3858508,-0.699354 -0.1350478,-0.41479 -0.1350478,-0.950158 0,-0.573953 0.1591635,-1.027328 0.1639866,-0.453374 0.463021,-0.766878 0.2990344,-0.318327 0.7234702,-0.487137 0.4292591,-0.168809 0.959804,-0.168809 0.5208986,0 0.9742733,0.188102 0.4533747,0.183279 0.786171,0.564307 0.3327963,0.381027 0.5257219,0.964627 0.192925,0.583599 0.192925,1.374593 z M 7.8572696,11.248851 q -0.1977486,0 -0.3617352,0.07235 -0.1639866,0.07235 -0.284565,0.226687 -0.1157552,0.149518 -0.1832791,0.385851 -0.062701,0.231511 -0.062701,0.549838 0,0.511252 0.217041,0.810286 0.2170411,0.299035 0.6559464,0.299035 0.2218642,0 0.4051434,-0.08682 0.1832791,-0.08682 0.3135038,-0.226687 0.1302246,-0.139871 0.1977485,-0.313504 0.072347,-0.173633 0.072347,-0.352089 0,-0.24598 -0.062701,-0.487136 Q 8.7061414,11.880682 8.5807399,11.687756 8.4601615,11.490008 8.2768823,11.369429 8.0984263,11.248851 7.8572696,11.248851 Z"
       style="font-style:normal;font-variant:normal;font-weight:bold;font-stretch:normal;font-size:9.87778091px;font-family:'droid sans';-inkscape-font-specification:'droid sans Bold';text-align:center;letter-spacing:-0.11288894px;word-spacing:0.22577785px;text-anchor:middle;fill:#3798d6;fill-opacity:1"
       id="path4142" />
  </g>
</svg>
