<?xml version="1.0" encoding="UTF-8" standalone="no"?>
<svg
   xmlns:dc="http://purl.org/dc/elements/1.1/"
   xmlns:cc="http://creativecommons.org/ns#"
   xmlns:rdf="http://www.w3.org/1999/02/22-rdf-syntax-ns#"
   xmlns:svg="http://www.w3.org/2000/svg"
   xmlns="http://www.w3.org/2000/svg"
   xmlns:sodipodi="http://sodipodi.sourceforge.net/DTD/sodipodi-0.dtd"
   xmlns:inkscape="http://www.inkscape.org/namespaces/inkscape"
   width="64"
   viewBox="0 0 18.062223 18.062223"
   height="64"
   id="svg2"
   version="1.1"
   inkscape:version="0.91 r"
   sodipodi:docname="calendar-08.svg">
  <metadata
     id="metadata17">
    <rdf:RDF>
      <cc:Work
         rdf:about="">
        <dc:format>image/svg+xml</dc:format>
        <dc:type
           rdf:resource="http://purl.org/dc/dcmitype/StillImage" />
        <dc:title />
      </cc:Work>
    </rdf:RDF>
  </metadata>
  <defs
     id="defs15" />
  <sodipodi:namedview
     pagecolor="#ffffff"
     bordercolor="#666666"
     borderopacity="1"
     objecttolerance="10"
     gridtolerance="10"
     guidetolerance="10"
     inkscape:pageopacity="0"
     inkscape:pageshadow="2"
     inkscape:window-width="1366"
     inkscape:window-height="747"
     id="namedview13"
     showgrid="true"
     inkscape:zoom="5.6568543"
     inkscape:cx="52.325873"
     inkscape:cy="18.156652"
     inkscape:window-x="0"
     inkscape:window-y="21"
     inkscape:window-maximized="1"
     inkscape:current-layer="svg2"
     showguides="false">
    <inkscape:grid
       type="xygrid"
       id="grid4145"
       originx="0"
       originy="0"
       spacingy="0.28222223"
       spacingx="0.28222223" />
  </sodipodi:namedview>
  <path
     d="m 3.386955,0.56444811 0,1.35466419 -1.6937552,0 c -0.3386669,0 -0.5644446,0.2822401 -0.5642309,0.5644441 l -7.92e-5,15.0142516 c -1.345e-4,0.2822 0.2820876,0.564424 0.5643101,0.564416 l 14.6755612,0 c 0.282224,8e-6 0.564444,-0.2822 0.56418,-0.564308 l 3.93e-4,-15.0143596 c -1.29e-4,-0.28224 -0.282352,-0.5644441 -0.564573,-0.5644441 l -1.692995,0 0,-1.35466419 C 14.675427,0 14.675427,0 14.110982,0 l -1.467556,0 c -0.564445,0 -0.564445,0 -0.564445,0.56444811 l 0,1.12888819 -6.0960018,0 0,-1.12888819 C 5.9829792,0 5.9829792,0 5.4185343,0 L 3.9509783,0 C 3.3865337,0 3.386955,0 3.386955,0.56444811 Z m 0.751419,0.18740003 1.0927647,0 0,2.26212036 c 0,0.9371522 -1.0927647,0.9371522 -1.0927647,0 z m 8.692447,0 1.092765,0 0,2.26212036 c 0,0.9371522 -1.092765,0.9371522 -1.092765,0 z M 2.2575099,5.6444571 l 13.5466771,0 0,11.2891549 -13.5466771,-2.16e-4 z"
     id="path4"
     inkscape:connector-curvature="0"
     style="color:#000000;fill:#cacaca"
     sodipodi:nodetypes="scccccccccccccccccccsccsccccsscccccc" />
  <g
     transform="matrix(0.28222222,0,0,0.28222222,-9.4977623,2.4049466)"
     style="font-style:normal;font-variant:normal;font-weight:normal;font-stretch:normal;font-size:20px;line-height:125%;font-family:'Droid Sans';-inkscape-font-specification:'Droid Sans';letter-spacing:0px;word-spacing:0px;fill:#000000;fill-opacity:1;stroke:none;stroke-width:1px;stroke-linecap:butt;stroke-linejoin:miter;stroke-opacity:1"
     id="flowRoot4147" />
  <g
     transform="scale(1.1417405,0.87585576)"
     style="font-style:normal;font-variant:normal;font-weight:normal;font-stretch:normal;font-size:6.42840672px;line-height:125%;font-family:Ubuntu;-inkscape-font-specification:Ubuntu;letter-spacing:0px;word-spacing:0px;fill:#3798d6;fill-opacity:1;stroke:none;stroke-width:1px;stroke-linecap:butt;stroke-linejoin:miter;stroke-opacity:1"
     id="text4155">
    <path
       d="m 7.944086,10.043067 q 0.4389053,0 0.8295793,0.106109 0.3906739,0.106109 0.6848852,0.318327 0.2942112,0.212218 0.4678441,0.530545 0.1736324,0.318327 0.1736324,0.747586 0,0.318327 -0.09646,0.578776 -0.096463,0.255626 -0.2652727,0.467844 -0.1688097,0.207395 -0.4003202,0.371382 -0.2315105,0.163986 -0.5016061,0.299034 0.2797419,0.149517 0.5450143,0.332796 0.2700956,0.18328 0.4774904,0.41479 0.2073943,0.226687 0.3327963,0.511252 0.125402,0.284565 0.125402,0.636654 0,0.438906 -0.173633,0.795818 -0.1736332,0.356912 -0.487137,0.607715 -0.3135038,0.250803 -0.7524091,0.38585 -0.4340822,0.135048 -0.9598039,0.135048 -0.56913,0 -1.0128584,-0.130224 Q 6.4874992,17.022144 6.1836416,16.780987 5.8797841,16.53983 5.7206207,16.187742 5.5662803,15.835653 5.5662803,15.396747 q 0,-0.361735 0.106109,-0.651123 0.106109,-0.289388 0.2893881,-0.520898 Q 6.1450566,13.993215 6.3910365,13.814759 6.6370164,13.636303 6.9167582,13.501255 6.6804246,13.351738 6.4730298,13.178105 6.2656349,12.999649 6.1112946,12.787431 5.9617774,12.57039 5.8701379,12.309941 q -0.086816,-0.260449 -0.086816,-0.573953 0,-0.419613 0.1736329,-0.733117 0.178456,-0.318327 0.4774904,-0.530545 0.2990344,-0.217041 0.6897083,-0.32315 0.390674,-0.106109 0.819933,-0.106109 z m -0.998389,5.266864 q 0,0.192925 0.062701,0.356912 0.062701,0.159163 0.1832791,0.274919 0.1254015,0.115755 0.3086807,0.183279 0.1832791,0.0627 0.4244359,0.0627 0.5064292,0 0.7572322,-0.236334 0.250803,-0.241157 0.250803,-0.631831 0,-0.202571 -0.086816,-0.361735 Q 8.764019,14.793855 8.6289712,14.658808 8.4987466,14.518937 8.3299368,14.403182 8.1611271,14.287426 7.9923174,14.181317 l -0.106109,-0.06752 q -0.212218,0.106109 -0.3858508,0.231511 -0.1736329,0.120578 -0.2990344,0.270095 -0.1205784,0.144695 -0.1881023,0.318327 -0.067524,0.173633 -0.067524,0.376205 z m 0.9887427,-4.176835 q -0.1591634,0 -0.2990344,0.04823 -0.1350477,0.04823 -0.2363336,0.139871 -0.096463,0.09164 -0.1543403,0.226687 -0.057878,0.135048 -0.057878,0.303858 0,0.202572 0.057878,0.352089 0.062701,0.144694 0.1639866,0.260449 0.106109,0.110932 0.2411568,0.202572 0.1398709,0.08682 0.2942112,0.173633 0.1495172,-0.07717 0.284565,-0.16881 0.1350478,-0.09164 0.2363336,-0.207395 0.106109,-0.120578 0.1688097,-0.270095 0.062701,-0.149518 0.062701,-0.342443 0,-0.16881 -0.057878,-0.303858 -0.057878,-0.135047 -0.1591635,-0.226687 -0.1012858,-0.09164 -0.2411567,-0.139871 -0.139871,-0.04823 -0.3038576,-0.04823 z"
       style="font-style:normal;font-variant:normal;font-weight:bold;font-stretch:normal;font-size:9.87778091px;font-family:'droid sans';-inkscape-font-specification:'droid sans Bold';text-align:center;letter-spacing:-0.11288894px;word-spacing:0.22577785px;text-anchor:middle;fill:#3798d6;fill-opacity:1"
       id="path4142" />
  </g>
</svg>
