<svg xmlns="http://www.w3.org/2000/svg" viewBox="0 0 64 64">
 <g transform="translate(0,-988.3622)">
  <rect width="52" height="20" x="6" y="1000.36" style="fill:#388e3c;fill-opacity:1;stroke:none"/>
  <path d="m 12 1000.36 c 0 -2 0 -4 2.909 -4 l 10.182 0 c 2.909 0 2.909 2 2.909 4 l 0 2 -16 0 z" style="fill:#388e3c;fill-opacity:1;stroke:none"/>
  <path d="m 10 1004.36 44 0 0 9.935 -44 0 z" style="fill:#95989f;fill-opacity:1;stroke:none"/>
  <rect y="1002.36" x="14" height="26" width="38" style="fill:#d8d8da;fill-opacity:1;stroke:none"/>
  <rect width="38" height="26" x="12" y="1006.36" style="fill:#f9f9f9;fill-opacity:1;stroke:none"/>
  <path d="m 2 1008.36 60 0 -4.286 36 -51.43 0 z" style="fill:#66bb6a;fill-opacity:1;stroke:none"/>
  <path d="m 28 26 c -2.216 0 -4 1.747 -4 3.906 l 0 0.188 c 0 0.152 0.045 0.291 0.063 0.438 c -0.035 0.151 -0.063 0.306 -0.063 0.469 l 0 11 c -2.209 0 -4 1.791 -4 4 c 0 2.209 1.791 4 4 4 c 2.049 0 3.704 -1.544 3.938 -3.531 c 0.018 -0.155 0.063 -0.309 0.063 -0.469 l 0 -12 l 12 0 l 0 8 c -2.209 0 -4 1.791 -4 4 c 0 2.209 1.791 4 4 4 c 2.209 0 4 -1.791 4 -4 l 0 -15.906 l 0 -0.094 c 0 -0.032 0.001 -0.062 0 -0.094 c 0 -2.159 -1.784 -3.906 -4 -3.906 l -12 0 z" transform="translate(0,988.3622)" style="fill:#103612;opacity:0.4;fill-opacity:1;stroke:none"/>
 </g>
</svg>
