<svg xmlns="http://www.w3.org/2000/svg" viewBox="0 0 64 64">
 <path d="M 6,9 21.5,6 42.5,9 58,6 58,54 42.5,57 21.5,54 6,57 Z" style="fill:#ecf0f1;fill-opacity:1;stroke:none;fill-rule:evenodd"/>
 <path d="M 21.5,9 9,11.4 9,53.4 21.5,51 42.5,54 55,51.6 55,9.6 42.5,12 Z" style="fill:#2ecc71;fill-opacity:1;stroke:none;fill-rule:evenodd"/>
 <path d="M 15.251,10.251 10.25,11.25 21.5,22.5 27.902,36.5865 21.5,37.5 9,45 l 0,5.25 46,0 L 55,27 42.5,34.5 30.455,36.219 21.4925,16.5 15.2435,10.251 Z" style="fill:#f1c40f;fill-opacity:1;stroke:none;fill-rule:evenodd"/>
 <path d="M 21.5,42 9,49.5 9,53.4 21.5,51 42.5,54 55,51.6 55,31.5 42.5,39" style="fill:#3498db;fill-opacity:1;stroke:none;fill-rule:evenodd"/>
 <path d="M 42.5,9 58,6 58,54 42.5,57 Z M 21.5,54 6,57 6,9 21.5,6 Z" style="fill:#000;opacity:0.15;fill-opacity:1;stroke:none;fill-rule:evenodd"/>
 <path d="m 35 2 c -4.971 0 -9 4.03 -9 9 0.002 1.446 0.351 2.871 1.02 4.155 2.652 5.109 5.32 10.233 7.98 15.345 l 7.98 -15.345 c 0.671 -1.282 1.017 -2.707 1.02 -4.155 0 -4.971 -4.03 -9 -9 -9 m 0 6 a 3 3 0 0 1 3 3 3 3 0 0 1 -3 3 3 3 0 0 1 -3 -3 3 3 0 0 1 3 -3 z" style="fill:#e74c3c;opacity:1;fill-opacity:1;stroke:none;fill-rule:nonzero"/>
</svg>
