<?xml version="1.0" encoding="UTF-8" standalone="no"?>
<svg
   xmlns:dc="http://purl.org/dc/elements/1.1/"
   xmlns:cc="http://creativecommons.org/ns#"
   xmlns:rdf="http://www.w3.org/1999/02/22-rdf-syntax-ns#"
   xmlns:svg="http://www.w3.org/2000/svg"
   xmlns="http://www.w3.org/2000/svg"
   xmlns:sodipodi="http://sodipodi.sourceforge.net/DTD/sodipodi-0.dtd"
   xmlns:inkscape="http://www.inkscape.org/namespaces/inkscape"
   width="64"
   height="64"
   viewBox="0 0 64 64"
   id="svg2"
   version="1.1"
   inkscape:version="0.48.5 r10040"
   sodipodi:docname="network-server.svg">
  <metadata
     id="metadata22">
    <rdf:RDF>
      <cc:Work
         rdf:about="">
        <dc:format>image/svg+xml</dc:format>
        <dc:type
           rdf:resource="http://purl.org/dc/dcmitype/StillImage" />
      </cc:Work>
    </rdf:RDF>
  </metadata>
  <defs
     id="defs20" />
  <sodipodi:namedview
     pagecolor="#ffffff"
     bordercolor="#666666"
     borderopacity="1"
     objecttolerance="10"
     gridtolerance="10"
     guidetolerance="10"
     inkscape:pageopacity="0"
     inkscape:pageshadow="2"
     inkscape:window-width="1920"
     inkscape:window-height="1052"
     id="namedview18"
     showgrid="true"
     inkscape:zoom="26.403783"
     inkscape:cx="12.190983"
     inkscape:cy="17.043567"
     inkscape:window-x="0"
     inkscape:window-y="28"
     inkscape:window-maximized="1"
     inkscape:current-layer="svg2"
     showguides="true"
     inkscape:guide-bbox="true">
    <inkscape:grid
       type="xygrid"
       id="grid3051" />
  </sodipodi:namedview>
  <rect
     y="37.5"
     x="28"
     height="7.000001"
     width="8"
     id="rect3804"
     style="fill:#42a5f5;fill-opacity:1;stroke:none" />
  <rect
     style="fill:#42a5f5;fill-opacity:1;stroke:none"
     id="rect3802"
     width="8"
     height="7.000001"
     x="28"
     y="21.5" />
  <rect
     style="fill:#09b69e;fill-opacity:1;stroke:none"
     id="rect3000"
     width="52"
     height="12"
     x="6"
     y="43"
     rx="2.5"
     ry="2.5000005" />
  <rect
     ry="2.5000005"
     rx="2.5"
     y="27"
     x="6"
     height="12"
     width="52"
     id="rect2998"
     style="fill:#42a5f5;fill-opacity:1;stroke:none" />
  <rect
     style="fill:#486cd7;fill-opacity:1;stroke:none"
     id="rect2992"
     width="52"
     height="12"
     x="6"
     y="11"
     rx="2.5"
     ry="2.5000005" />
  <rect
     style="fill:#f9f9f9;fill-opacity:1;stroke:none"
     id="rect3806"
     width="26"
     height="5.999979"
     x="9"
     y="14.000021" />
  <path
     sodipodi:type="arc"
     style="fill:#f9f9f9;fill-opacity:1;stroke:none"
     id="path3808"
     sodipodi:cx="-7"
     sodipodi:cy="17"
     sodipodi:rx="2"
     sodipodi:ry="2"
     d="m -5,17 a 2,2 0 1 1 -4,0 2,2 0 1 1 4,0 z"
     transform="matrix(1.5000001,0,0,1.5,53.5,-8.5)" />
  <path
     transform="matrix(1.5,0,0,1.5,62.5,-8.5)"
     d="m -5,17 a 2,2 0 1 1 -4,0 2,2 0 1 1 4,0 z"
     sodipodi:ry="2"
     sodipodi:rx="2"
     sodipodi:cy="17"
     sodipodi:cx="-7"
     id="path3810"
     style="fill:#f9f9f9;fill-opacity:1;stroke:none"
     sodipodi:type="arc" />
  <rect
     y="46"
     x="10"
     height="5.999979"
     width="25.999998"
     id="rect3812"
     style="fill:#f9f9f9;fill-opacity:1;stroke:none" />
  <rect
     style="fill:#f9f9f9;fill-opacity:1;stroke:none"
     id="rect3818"
     width="26"
     height="5.9999809"
     x="9"
     y="30" />
  <path
     transform="matrix(1.5000001,0,0,1.5,53.5,7.5)"
     d="m -5,17 a 2,2 0 1 1 -4,0 2,2 0 1 1 4,0 z"
     sodipodi:ry="2"
     sodipodi:rx="2"
     sodipodi:cy="17"
     sodipodi:cx="-7"
     id="path3053"
     style="fill:#f9f9f9;fill-opacity:1;stroke:none"
     sodipodi:type="arc" />
  <path
     sodipodi:type="arc"
     style="fill:#f9f9f9;fill-opacity:1;stroke:none"
     id="path3055"
     sodipodi:cx="-7"
     sodipodi:cy="17"
     sodipodi:rx="2"
     sodipodi:ry="2"
     d="m -5,17 a 2,2 0 1 1 -4,0 2,2 0 1 1 4,0 z"
     transform="matrix(1.5,0,0,1.5,62.5,7.5)" />
  <path
     sodipodi:type="arc"
     style="fill:#f9f9f9;fill-opacity:1;stroke:none"
     id="path3057"
     sodipodi:cx="-7"
     sodipodi:cy="17"
     sodipodi:rx="2"
     sodipodi:ry="2"
     d="m -5,17 a 2,2 0 1 1 -4,0 2,2 0 1 1 4,0 z"
     transform="matrix(1.5000001,0,0,1.5,53.5,23.5)" />
  <path
     transform="matrix(1.5,0,0,1.5,62.5,23.5)"
     d="m -5,17 a 2,2 0 1 1 -4,0 2,2 0 1 1 4,0 z"
     sodipodi:ry="2"
     sodipodi:rx="2"
     sodipodi:cy="17"
     sodipodi:cx="-7"
     id="path3059"
     style="fill:#f9f9f9;fill-opacity:1;stroke:none"
     sodipodi:type="arc" />
</svg>
