<svg xmlns="http://www.w3.org/2000/svg" viewBox="0 0 64 64">
 <g transform="translate(0,-988.3622)">
  <rect width="52" height="20" x="6" y="1000.36" style="fill:#e65100;fill-opacity:1;stroke:none"/>
  <path d="m 12 1000.36 c 0 -2 0 -4 2.909 -4 l 10.182 0 c 2.909 0 2.909 2 2.909 4 l 0 2 -16 0 z" style="fill:#e65100;fill-opacity:1;stroke:none"/>
  <path d="m 10 1004.36 44 0 0 9.935 -44 0 z" style="fill:#95989f;fill-opacity:1;stroke:none"/>
  <rect y="1002.36" x="14" height="26" width="38" style="fill:#d8d8da;fill-opacity:1;stroke:none"/>
  <rect width="38" height="26" x="12" y="1006.36" style="fill:#f9f9f9;fill-opacity:1;stroke:none"/>
  <path d="m 2 1008.36 60 0 -4.286 36 -51.43 0 z" style="fill:#f57c00;fill-opacity:1;stroke:none"/>
  <path d="m 41.04 1014.36 c -1.036 0.016 -2.056 0.653 -2.219 1.841 -0.261 1.901 1.697 1.188 3.263 1.188 1.566 0 2.089 3.089 1.697 4.752 -0.392 1.663 -4.555 5.592 -13.967 1.663 -7.749 -3.235 -11.618 1.072 -11.814 1.158 0.733 6.426 6.713 13.395 13.967 13.395 7.75 0 14.03 -7.678 14.03 -14.732 0 -0.81 -0.103 -1.608 -0.261 -2.376 -0.144 -0.388 -0.286 -0.776 -0.392 -1.129 -0.19 -0.633 -0.404 -1.167 -0.587 -1.663 -0.008 -0.016 0.008 -0.043 0 -0.06 -0.742 -1.5 -1.782 -2.855 -3.068 -3.98 -0.006 -0.013 -0.027 0.014 -0.033 0 -0.201 -0.047 -0.413 -0.062 -0.62 -0.06 z" style="fill:#ab5d0b;opacity:1;fill-opacity:1;color:#000"/>
  <path d="m 38 1020.36 c 0 1.105 -0.895 2 -2 2 -1.105 0 -2 -0.895 -2 -2 0 -1.105 0.895 -2 2 -2 1.105 0 2 0.896 2 2 z" style="fill:#ab5d0b;opacity:1;fill-opacity:1;color:#000"/>
  <path d="m 32 1017.36 c 0 0.552 -0.448 1 -1 1 -0.552 0 -1 -0.448 -1 -1 0 -0.552 0.448 -1 1 -1 0.552 0 1 0.448 1 1 z" style="fill:#ab5d0b;opacity:1;fill-opacity:1;color:#000"/>
 </g>
</svg>
