<svg xmlns="http://www.w3.org/2000/svg" viewBox="0 0 64 64">
 <g transform="translate(0,-988.3622)">
  <rect width="52" height="20" x="6" y="1000.36" style="fill:#ec407a;fill-opacity:1;stroke:none"/>
  <path d="m 12 1000.36 c 0 -2 0 -4 2.909 -4 l 10.182 0 c 2.909 0 2.909 2 2.909 4 l 0 2 -16 0 z" style="fill:#ec407a;fill-opacity:1;stroke:none"/>
  <path d="m 10 1004.36 44 0 0 9.935 -44 0 z" style="fill:#95989f;fill-opacity:1;stroke:none"/>
  <rect y="1002.36" x="14" height="26" width="38" style="fill:#d8d8da;fill-opacity:1;stroke:none"/>
  <rect width="38" height="26" x="12" y="1006.36" style="fill:#f9f9f9;fill-opacity:1;stroke:none"/>
  <path d="m 2 1008.36 60 0 -4.286 36 -51.43 0 z" style="fill:#f06292;fill-opacity:1;stroke:none"/>
  <polygon transform="matrix(1.791016e-4,0,0,1.560571e-4,20.54378,1019.3624)" points="44385,76894 133156,76894 110963,115341 22194,115341 " style="fill:#c64077;opacity:1;fill-opacity:1;fill-rule:evenodd"/>
  <polygon transform="matrix(1.770215e-4,0,0,1.8206965e-4,20.820758,1015.3621)" points="88772,76894 133156,76894 88772,0 44385,0 " style="fill:#c64077;opacity:1;fill-opacity:1;fill-rule:evenodd"/>
  <path d="m 27.421 1016.62 -7.821 12.612 3.662 7.331 7.616 -13.343 z" style="fill:#c64077;opacity:1;fill-opacity:1;fill-rule:evenodd"/>
 </g>
</svg>
