<svg xmlns="http://www.w3.org/2000/svg" viewBox="0 0 64 64">
 <g transform="translate(0,-988.3622)">
  <rect width="52" height="20" x="6" y="1000.36" style="fill:#512da8;fill-opacity:1;stroke:none"/>
  <path d="m 12 1000.36 c 0 -2 0 -4 2.909 -4 l 10.182 0 c 2.909 0 2.909 2 2.909 4 l 0 2 -16 0 z" style="fill:#512da8;fill-opacity:1;stroke:none"/>
  <path d="m 10 1004.36 44 0 0 9.935 -44 0 z" style="fill:#95989f;fill-opacity:1;stroke:none"/>
  <rect y="1002.36" x="14" height="26" width="38" style="fill:#d8d8da;fill-opacity:1;stroke:none"/>
  <rect width="38" height="26" x="12" y="1006.36" style="fill:#f9f9f9;fill-opacity:1;stroke:none"/>
  <path d="m 2 1008.36 60 0 -4.286 36 -51.43 0 z" style="fill:#7e57c2;fill-opacity:1;stroke:none"/>
  <path d="m 22.303 1016.28 c -0.771 0.024 -1.499 0.096 -2.233 0.351 -0.231 1.565 0.15 3.188 0.569 4.688 1.067 3.44 3.048 6.705 5.954 8.895 0.107 0.102 0.258 0.124 0.219 0.307 -0.015 0.762 -0.002 1.558 0 2.323 0.031 1.336 0.835 2.612 2.01 3.242 1.399 0.737 2.794 1.42 4.203 2.147 0.648 0.344 1.548 -0.05 1.751 -0.745 0.124 -0.457 0.037 -0.936 0.044 -1.402 -0.005 -0.982 -0.126 -1.967 -0.088 -2.936 1.282 -0.158 2.571 -0.78 3.327 -1.84 0.674 -0.904 0.914 -2.074 0.832 -3.199 1.371 -0.245 2.785 -0.452 4.159 -0.701 0.814 -0.164 1.166 -1.222 0.657 -1.884 -1 -1.268 -2 -2.509 -3.02 -3.768 -0.821 -0.981 -2.106 -1.525 -3.371 -1.358 -0.858 0.138 -1.737 0.323 -2.583 0.483 -2.733 -2.605 -6.406 -4.049 -10.114 -4.469 -0.761 -0.07 -1.55 -0.144 -2.32 -0.132 z m 4.641 2.848 c 0.896 -0.08 1.794 0.168 2.539 0.789 1.491 1.242 1.723 3.459 0.482 4.951 -1.241 1.492 -3.457 1.724 -4.947 0.482 -1.491 -1.242 -1.723 -3.459 -0.482 -4.951 0.621 -0.746 1.512 -1.188 2.408 -1.27 z m 14.317 10.735 c -0.307 -0.028 -0.612 0.205 -0.657 0.526 -0.391 1.778 -1.654 3.322 -3.327 4.03 -0.436 0.138 -0.533 0.722 -0.175 1.01 0.734 0.612 1.583 1.32 2.32 1.928 0.359 0.305 0.826 -0.026 0.832 -0.482 -0.012 -0.373 -0.054 -0.771 -0.088 -1.139 0.914 0.196 1.81 0.457 2.714 0.657 0.426 0.088 0.83 -0.426 0.657 -0.832 -0.358 -0.858 -0.727 -1.688 -1.095 -2.541 0.37 -0.044 0.726 -0.074 1.095 -0.132 0.456 -0.09 0.634 -0.754 0.263 -1.052 -0.739 -0.622 -1.485 -1.223 -2.233 -1.84 -0.088 -0.07 -0.204 -0.122 -0.306 -0.132 z" style="fill:#54398d;opacity:1;fill-opacity:1;stroke:none;fill-rule:nonzero"/>
  <path d="m 29 33 c 0 1.105 -0.895 2 -2 2 -1.105 0 -2 -0.895 -2 -2 0 -1.105 0.895 -2 2 -2 1.105 0 2 0.895 2 2 z" transform="translate(0.33171839,989.69412)" style="fill:#54398d;opacity:1;fill-opacity:1;stroke:none;fill-rule:evenodd"/>
 </g>
</svg>
