<svg xmlns="http://www.w3.org/2000/svg" viewBox="0 0 64 64">
 <g transform="translate(0,-988.3622)">
  <rect width="52" height="20" x="6" y="1000.36" style="fill:#d32f2f;fill-opacity:1;stroke:none"/>
  <path d="m 12 1000.36 c 0 -2 0 -4 2.909 -4 l 10.182 0 c 2.909 0 2.909 2 2.909 4 l 0 2 -16 0 z" style="fill:#d32f2f;fill-opacity:1;stroke:none"/>
  <path d="m 10 1004.36 44 0 0 9.935 -44 0 z" style="fill:#95989f;fill-opacity:1;stroke:none"/>
  <rect y="1002.36" x="14" height="26" width="38" style="fill:#d8d8da;fill-opacity:1;stroke:none"/>
  <rect width="38" height="26" x="12" y="1006.36" style="fill:#f9f9f9;fill-opacity:1;stroke:none"/>
  <path d="m 2 1008.36 60 0 -4.286 36 -51.43 0 z" style="fill:#ef5350;fill-opacity:1;stroke:none"/>
  <path d="m 20 1014.36 0 5 c 10.147 1.12 19.04 8.915 19 19 l 5 0 c 0 -14.406 -12.938 -23.544 -24 -24 z m 0 8 0 5 c 5.499 0.452 10.939 4.584 11 11 l 5 0 c -0.239 -9.783 -9.17 -15.305 -16 -16 z" style="fill:#ab3634;opacity:1;fill-opacity:1;stroke:none;fill-rule:nonzero"/>
  <path transform="matrix(2.3333333,0,0,2.3333333,-3.3333333,980.02887)" d="m 13 23.5 c 0 0.828 -0.672 1.5 -1.5 1.5 -0.828 0 -1.5 -0.672 -1.5 -1.5 0 -0.828 0.672 -1.5 1.5 -1.5 c 0.828 0 1.5 0.672 1.5 1.5 z" style="fill:#ab3634;opacity:1;fill-opacity:1;stroke:none;fill-rule:evenodd"/>
 </g>
</svg>
