<svg xmlns="http://www.w3.org/2000/svg" viewBox="0 0 64 64">
 <rect width="34" style="fill:#ffb300;fill-opacity:1;stroke:none" height="14" y="10" x="2"/>
 <path style="fill:#ffb300;fill-opacity:1;stroke:none" d="m 6.02 10 c 0 -1 0 -2 1.814 -2 l 6.348 0 c 1.814 0 1.814 1 1.814 2 z"/>
 <path style="fill:#95989f;fill-opacity:1;stroke:none" d="m 4 14 30 0 0 6 -30 0 z"/>
 <rect width="24" style="fill:#d8d8da;fill-opacity:1;stroke:none" height="18" y="12" x="8"/>
 <rect width="24" style="fill:#f9f9f9;fill-opacity:1;stroke:none" height="18" y="16" x="6"/>
 <path style="fill:#ffca28;fill-opacity:1;stroke:none" d="m 0 18 38 0 -2.714 20 -32.572 0 z"/>
 <path style="fill:#fff;opacity:0.5;fill-opacity:1;stroke:none" d="m 7.834 8 c -1.814 0 -1.814 1 -1.814 2 l -4.02 0 l 0 8 l -2 0 l 2.715 20 l 32.57 0 l 2.715 -20 l -2 0 l 0 -8 l -20 0 c 0 -1 0 -2 -1.814 -2 l -6.348 0 z"/>
 <rect width="34" style="fill:#ffb300;fill-opacity:1;stroke:none" height="14" y="30" x="28"/>
 <path style="fill:#ffb300;fill-opacity:1;stroke:none" d="m 32.03 30 c 0 -1 0 -2 1.813 -2 l 6.347 0 c 1.813 0 1.813 1 1.813 2 z"/>
 <path style="fill:#95989f;fill-opacity:1;stroke:none" d="m 30 34 30 0 0 6 -30 0 z"/>
 <rect width="24" style="fill:#d8d8da;fill-opacity:1;stroke:none" height="18" y="32" x="34"/>
 <rect width="24" style="fill:#f9f9f9;fill-opacity:1;stroke:none" height="18" y="36" x="32"/>
 <path style="fill:#ffca28;fill-opacity:1;stroke:none" d="m 26 38 38 0 l -2.714 20 -32.571 0 z"/>
</svg>
