<svg xmlns="http://www.w3.org/2000/svg" width="64" height="64" viewBox="0 0 48 48">
 <g>
  <path d="m 19.98 17.906 c 0.723 0.34 4.363 -0.371 4.738 -0.051 c 0.375 0.324 -0.918 1.551 -0.191 2.09 c 1.727 1.285 6.289 1.664 10.387 0.152 l 1.551 4.266 c -2.25 1.242 -5.621 1.961 -9.934 1.551 l 11.328 11.406 l -4.195 3.777 l -8.715 -9.152 c -3.527 6.176 -8.137 8.594 -11.762 10.805 l -3.047 -4.805 c 14.383 -9.08 6.41 -13.148 9.898 -18.336 c 0.277 -0.414 -0.531 -1.305 -0.059 -1.703 m 0 0" style="fill:#fc0;fill-opacity:1;stroke:none;fill-rule:nonzero"/>
  <path d="m 29.652 12.11 c 0 3.789 -3.07 6.859 -6.859 6.859 c -3.793 0 -6.863 -3.07 -6.863 -6.859 c 0 -3.789 3.07 -6.863 6.863 -6.863 c 3.789 0 6.859 3.074 6.859 6.863 m 0 0" style="fill:#fc0;fill-opacity:1;stroke:none;fill-rule:nonzero"/>
 </g>
</svg>
