<svg xmlns="http://www.w3.org/2000/svg" width="64" height="64" viewBox="0 0 48 48">
 <g>
  <path d="m 14.184 37.5 c 1.652 -8.59 -2.801 -11.453 -6.98 -8.199 l -1.895 -1.176 l 3.352 -3.797 l 0.074 -1.809 l 3.207 -2.047 l -0.805 -2.051 c 1.375 0.602 2.648 0.512 3.145 1.93 c 2.965 0.359 5.809 3.438 5.676 5.484 c 1.852 -5.363 4.441 -8.227 -3.285 -12.09 l -0.242 -2.047 l 4.836 1.234 l 1.531 -0.813 l 2.289 1.414 l 1.648 -1.234 c -0.469 1.176 0.582 1.504 -0.289 2.5 c 2.457 2.047 1.688 8.473 1.953 11.125 c 0.688 -2.082 2.293 -4.402 5.082 -5.04 c 0.219 -1.266 2 -1.262 3.02 -2.168 l -0.332 2.02 l 2.82 1.926 l 0.035 1.84 l 3.668 4.07 l -2.57 1.234 c -6.094 -4.703 -7.859 1.484 -6.02 7.688 m -19.914 0" style="fill:#781918;fill-opacity:1;stroke:none;fill-rule:nonzero"/>
 </g>
</svg>
