<svg xmlns="http://www.w3.org/2000/svg" width="64" height="64" viewBox="0 0 48 48">
 <g>
  <path d="m 16.617 18.01 c -0.836 0 -1.641 0.121 -2.117 0.672 c -0.734 0.844 -0.445 2.523 -0.445 3.543 c 0 1.559 -0.105 3.223 0.211 4.758 c 0.34 1.645 1.539 3.434 2.887 4.551 c 0.98 0.809 2.031 1.379 3.242 1.848 c 1.188 0.414 2.324 0.602 3.52 0.617 c 1.094 0 2.191 -0.113 3.23 -0.449 c 1.059 -0.34 2.133 -0.828 3.02 -1.457 c 0.93 -0.715 1.672 -1.418 2.262 -2.305 c 0.426 -0.656 0.789 -1.371 1.055 -2.102 c 0.664 -1.809 0.473 -3.93 0.473 -5.813 c 0 -0.848 0.227 -2.383 -0.348 -3.102 c -0.867 -1.086 -2.777 -0.703 -4.203 -0.703 l -10.934 0 c -0.543 0 -1.207 -0.074 -1.855 -0.07 m 12.12 4.648 c 0.23 0 0.473 0.059 0.723 0.211 c 0.574 0.344 0.758 1.172 0.352 1.684 c -0.371 0.48 -0.926 0.863 -1.395 1.258 l -2.418 2.098 c -0.535 0.477 -1.078 1.148 -1.867 1.223 c -0.785 0.07 -1.309 -0.512 -1.813 -0.969 l -2.527 -2.199 c -0.52 -0.43 -1.25 -0.906 -1.617 -1.457 c -0.508 -0.781 0.082 -1.711 1.012 -1.832 c 0.594 -0.078 1.012 0.258 1.426 0.59 l 2.363 2.043 c 0.246 0.211 0.648 0.762 0.992 0.809 c 0.379 0.051 0.961 -0.695 1.207 -0.91 l 1.758 -1.504 c 0.504 -0.457 1.109 -1.039 1.801 -1.047 m 0.004 0.004" style="fill:#ed3f54;fill-opacity:1;stroke:none;fill-rule:nonzero"/>
  <path d="m 16.17 13.27 l 2.168 -1.246 c 1.77 -0.809 3.66 -1.219 5.602 -1.219 l 0 -1.805 c -2.051 0.16 -3.988 0.422 -5.902 1.246 c -0.484 0.207 -1.523 0.52 -1.805 0.992 c -0.266 0.449 -0.063 1.512 -0.063 2.031 m 0 0" style="fill:#51bab7;fill-opacity:1;stroke:none;fill-rule:nonzero"/>
  <path d="m 23.941 9 l 0 1.805 c 1.867 0 3.719 0.379 5.418 1.16 l 2.352 1.305 c 0 -0.52 0.219 -1.695 -0.063 -2.133 c -0.281 -0.43 -1.285 -0.727 -1.746 -0.926 c -1.859 -0.797 -3.938 -1.211 -5.961 -1.211 m 0 0" style="fill:#ee4054;fill-opacity:1;stroke:none;fill-rule:nonzero"/>
  <path d="m 31.711 11.164 c 0 0.578 -0.191 1.555 0.035 2.086 c 0.148 0.348 0.695 0.625 0.969 0.871 c 0.684 0.617 1.336 1.289 1.875 2.035 c 1.477 2.043 2.594 4.652 2.598 7.211 c 0.008 2.852 -0.582 5.523 -2.172 7.938 c -0.574 0.871 -1.273 1.676 -2.035 2.387 c -0.332 0.313 -1.055 0.699 -1.234 1.117 c -0.223 0.52 -0.035 1.465 -0.035 2.027 c 1.695 -0.641 3.27 -2.438 4.328 -3.848 c 3.949 -5.258 3.949 -12.719 0 -17.977 c -1.059 -1.41 -2.633 -3.207 -4.328 -3.848 m 0 0" style="fill:#fbb74b;fill-opacity:1;stroke:none;fill-rule:nonzero"/>
  <path d="m 16.11 11.223 c -1.898 1.281 -3.527 2.758 -4.773 4.691 c -3.375 5.23 -3.055 12.176 0.672 17.13 c 1.063 1.418 2.531 2.961 4.164 3.73 c 0 -0.547 0.176 -1.465 -0.039 -1.969 c -0.176 -0.406 -0.848 -0.738 -1.168 -1.043 c -0.781 -0.746 -1.504 -1.555 -2.102 -2.461 c -1.594 -2.422 -2.367 -5.34 -2.168 -8.238 c 0.184 -2.684 1.266 -5.316 2.973 -7.395 l 1.477 -1.543 l 0.965 -0.828 c 0.215 -0.355 0.156 -1.703 0 -2.078 m 0 0" style="fill:#82ecb9;fill-opacity:1;stroke:none;fill-rule:nonzero"/>
  <path d="m 16.17 34.793 c 0 0.504 -0.195 1.531 0.063 1.969 c 0.281 0.473 1.32 0.781 1.805 0.992 c 1.914 0.824 3.852 1.086 5.902 1.246 l 0 -1.742 c -1.996 0 -3.98 -0.426 -5.781 -1.309 c -0.59 -0.293 -1.395 -0.629 -1.805 -1.156 m -0.184 0" style="fill:#51bab7;fill-opacity:1;stroke:none;fill-rule:nonzero"/>
  <path d="m 23.941 37.26 l 0 1.742 c 2.023 0 4.102 -0.414 5.961 -1.211 c 0.461 -0.199 1.465 -0.496 1.746 -0.926 c 0.277 -0.426 0.063 -1.566 0.063 -2.07 l -2.352 1.301 c -1.699 0.781 -3.551 1.164 -5.418 1.164 m 10.418 -2.465 l 0.059 0.059 m -0.059 -0.059" style="fill:#ee4054;fill-opacity:1;stroke:none;fill-rule:nonzero"/>
 </g>
</svg>
