<svg xmlns="http://www.w3.org/2000/svg" viewBox="0 0 64 64">
 <path d="M 42.49 19.88 C 42.4 20.47 41.8 21 41.1 21 L 31.04 21 C 29.92 21 29 21.92 29 23.04 l 0 1.92 c 0 1.12 0.92 2.04 2.04 2.04 l 8.51 0 c 0.79 0 1.45 0.76 1.28 1.58 -0.16 0.86 -1.05 4.84 -1.15 5.3 C 39.63 34.4 39.1 35 38.3 35 l -7.19 0 c -1.45 0.03 -1.74 0.06 -2.59 1.12 -0.86 1.05 -8.39 10.77 -8.39 10.77 C 20.06 46.99 20 46.95 20 46.86 L 20 14.38 C 20 13.62 20.62 13 21.38 13 l 21 0 c 0.72 0 1.45 0.72 1.255 1.64 z M 19.57 8 C 16.1 8 15 10.66 15 12.34 l 0 40.67 c 0 2 1.02 2.59 1.58 2.83 0.56 0.23 1.86 0.4 2.91 -0.66 0 0 12 -14.72 12.24 -14.95 C 31.93 40 32 40 32.2 40 l 7.98 0 c 3.28 0 3.91 -2.27 4.27 -3.65 0.3 -1.15 3.68 -16.99 4.73 -22.2 0.79 -4 -0.23 -6.16 -3.98 -6.15 z" fill="#fa4778"/>
</svg>
