<svg xmlns="http://www.w3.org/2000/svg" width="64" height="64" viewBox="0 0 48 48">
 <g>
  <path d="m 15.75 18.11 l 3.535 0 l 0 -2.355 c 0 -1.836 0.262 -3.105 0.695 -4.01 c 0.445 -0.902 1.25 -1.637 2.41 -2.199 c 1.18 -0.574 2.668 -0.859 4.461 -0.859 c 1.836 0 3.766 0.473 5.398 1.176 l -1.18 3.539 c -1.023 -0.223 -1.707 -0.285 -2.656 -0.285 c -0.938 0 -1.637 0.094 -2.23 0.582 c -0.594 0.484 -1.01 0.949 -1 2.059 l 0 2.355 l 5.891 0 l 0 3.539 l -5.891 0 l 0 17.676 l -5.895 0 l 0 -17.676 l -3.535 0" style="fill:#3b569c;fill-opacity:1;stroke:none;fill-rule:nonzero"/>
 </g>
</svg>
