<svg xmlns="http://www.w3.org/2000/svg" width="64" height="64" viewBox="0 0 48 48">
 <g>
  <path d="m 19 6.66 c -1.137 -0.258 -2.066 -0.156 -3.051 0.363 c -1.086 0.672 -1.707 1.707 -1.965 3.152 c -0.258 1.5 0 2.949 0.777 4.398 l 0.359 0.516 l -1.238 -0.414 c -1.551 -0.363 -3 -0.156 -4.449 0.621 c -1.5 0.773 -2.43 1.859 -3.051 3.363 c -0.57 1.445 -0.516 2.844 0.207 4.137 c 0.309 0.566 0.773 1.031 1.188 1.344 c 0.621 0.621 1.398 0.98 2.328 1.137 l 0.363 0.105 l -0.777 0.672 c -0.723 0.621 -1.137 1.395 -1.395 2.172 c -0.262 0.93 -0.156 1.859 0.359 2.738 c 0.262 0.414 0.52 0.777 0.934 1.035 c 0.414 0.363 0.93 0.621 1.551 0.672 c 1.137 0.258 2.328 0.258 3.621 -0.156 l -0.934 1.555 l -0.258 0.672 c -0.516 1.652 -0.363 3.102 0.414 4.602 c 0.363 0.57 0.777 1.086 1.188 1.551 c 0.621 0.57 1.398 0.934 2.328 1.191 c 1.551 0.414 3.105 0.359 4.605 -0.414 c 1.445 -0.777 2.379 -2.02 2.844 -3.57 l 0.051 -0.309 c 0.984 1.086 1.914 1.809 2.949 2.066 c 1.031 0.313 2.066 0.262 3 -0.359 c 0.879 -0.52 1.5 -1.398 1.809 -2.484 c 0.258 -1.137 0.258 -2.273 0 -3.566 c 0.516 0.359 1.035 0.617 1.656 0.773 c 1.652 0.52 3.102 0.465 4.551 -0.309 c 1.395 -0.777 2.328 -2.02 2.793 -3.621 c 0.414 -1.551 0.309 -3.051 -0.465 -4.5 l -0.262 -0.414 c -0.414 -0.621 -0.824 -1.242 -1.445 -1.652 c -0.52 -0.363 -1.137 -0.621 -1.707 -0.883 c 1.602 -0.773 2.742 -1.859 3.258 -3.258 c 0.363 -1.137 0.258 -2.066 -0.258 -3 l 0 -0.102 c -0.621 -1.035 -1.449 -1.707 -2.742 -2.07 c -0.773 -0.152 -1.656 -0.152 -2.43 -0.102 l -1.707 0.363 l 0.57 -1.293 c 0.516 -1.656 0.359 -3.262 -0.52 -4.758 l -0.152 -0.262 c -0.777 -1.293 -1.914 -2.066 -3.465 -2.48 c -1.605 -0.414 -3.105 -0.258 -4.555 0.516 c -1.445 0.777 -2.48 1.965 -2.945 3.52 l 0 0.102 l -0.051 0.363 l -0.207 -0.363 l -0.52 -0.93 c -0.828 -1.293 -1.863 -2.066 -3.156 -2.43 m 13.191 3.102 c 0.258 0.52 0.414 1.137 0.414 1.813 l -0.156 1.137 c -0.207 0.57 -0.465 1.086 -0.777 1.551 l -4.652 5.691 c -0.469 -0.363 -0.984 -0.621 -1.5 -0.883 l -0.52 -5.844 l -0.051 -2.066 l 0.051 -0.516 c 0.262 -1.035 0.984 -1.813 1.914 -2.328 c 0.93 -0.52 1.965 -0.621 2.949 -0.258 c 1.086 0.258 1.859 0.824 2.328 1.703 m -16.04 1.035 c 0.051 -0.93 0.414 -1.551 1.035 -1.914 c 0.309 -0.258 0.777 -0.258 1.188 -0.051 c 0.934 0.258 1.707 0.93 2.328 2.223 c 0.258 0.52 0.52 1.035 0.621 1.656 l 1.035 6.102 l -0.777 0.262 l -4.602 -5.02 l -0.258 -0.516 c -0.414 -0.934 -0.672 -1.809 -0.57 -2.742 m -2.793 6.05 l 1.398 0.57 l 4.551 3.309 c -0.414 0.52 -0.672 1.035 -0.828 1.551 l -7.445 0.934 l -0.52 -0.105 c -0.93 -0.152 -1.551 -0.566 -1.965 -1.344 c -0.414 -0.777 -0.414 -1.551 -0.102 -2.328 c 0.359 -0.98 1.031 -1.758 2.02 -2.172 c 0.93 -0.516 1.859 -0.672 2.895 -0.414 m 4.914 8.43 l 0.363 1.035 l 0.152 0.363 c -0.773 0.672 -1.344 1.293 -1.965 1.859 l -1.551 1.293 l -0.414 0.262 c -0.98 0.465 -1.809 0.621 -2.688 0.516 c -0.777 -0.051 -1.398 -0.313 -1.656 -0.777 l -0.156 -0.566 l 0.105 -0.465 c 0.258 -0.777 0.93 -1.551 2.121 -2.121 c 0.617 -0.258 1.137 -0.52 1.551 -0.621 m 20.273 -9.156 c 0.93 -0.414 1.809 -0.516 2.742 -0.414 c 0.879 0.105 1.5 0.52 1.809 1.141 l 0.207 0.672 l -0.105 0.516 c -0.359 0.93 -1.137 1.656 -2.43 2.223 c -0.516 0.262 -1.086 0.363 -1.707 0.465 l -6.359 0.777 l -0.105 -0.363 l -0.102 -0.152 l 0.207 -0.258 l 5.223 -4.348 m -12.566 4.656 c 0.621 -0.566 1.445 -0.93 2.43 -0.93 c 0.93 0 1.809 0.363 2.379 0.93 c 0.723 0.727 1.035 1.5 1.035 2.43 c 0 0.934 -0.313 1.813 -1.035 2.434 c -0.672 0.672 -1.449 1.031 -2.379 1.031 c -0.984 0 -1.809 -0.359 -2.43 -1.031 c -0.672 -0.621 -1.035 -1.5 -1.035 -2.434 c 0 -0.93 0.363 -1.703 1.035 -2.43 m 1.188 7.5 c 0.105 1.758 0.258 3.621 0.52 5.637 l 0 2.07 l -0.055 0.516 c -0.359 0.93 -0.98 1.707 -1.91 2.121 c -0.934 0.516 -1.914 0.621 -2.848 0.363 c -1.031 -0.258 -1.809 -0.879 -2.223 -1.707 c -0.258 -0.516 -0.465 -1.137 -0.465 -1.758 l 0.258 -1.191 c 0.105 -0.516 0.363 -1.035 0.777 -1.445 l 4.344 -5.176 c 0.516 0.262 1.035 0.52 1.602 0.57 m 3.984 -0.672 l 2.172 2.223 l 1.344 1.656 l 0.258 0.516 c 0.465 0.879 0.727 1.707 0.621 2.691 c -0.102 0.93 -0.414 1.602 -1.035 1.859 c -0.359 0.262 -0.773 0.262 -1.188 0.207 c -0.984 -0.258 -1.758 -1.031 -2.328 -2.273 l -0.621 -1.707 l -0.773 -4.5 l 0.879 -0.309 m 3 -3.57 l 5.844 -0.516 l 2.066 -0.055 l 0.52 0.055 c 0.773 0.258 1.5 0.723 1.914 1.5 c 0.516 0.566 0.773 1.344 0.773 2.223 l -0.156 1.035 c -0.258 1.035 -0.879 1.809 -1.758 2.223 c -0.93 0.516 -1.859 0.621 -2.895 0.258 c -0.621 -0.156 -1.035 -0.414 -1.398 -0.828 l -5.43 -4.5 l 0.363 -0.773 m 0.156 -0.621" style="fill:#282828;fill-opacity:1;stroke:none;fill-rule:nonzero"/>
  <path d="m 32.2 9.762 c 0.258 0.52 0.414 1.137 0.414 1.813 l -0.156 1.137 c -0.207 0.57 -0.465 1.086 -0.777 1.551 l -4.652 5.691 c -0.469 -0.363 -0.984 -0.621 -1.5 -0.883 l -0.52 -5.844 l -0.051 -2.066 l 0.051 -0.516 c 0.262 -1.035 0.984 -1.813 1.914 -2.328 c 0.93 -0.52 1.965 -0.621 2.949 -0.258 c 1.086 0.258 1.859 0.824 2.328 1.703 m -16.04 1.035 c 0.051 -0.93 0.414 -1.551 1.035 -1.914 c 0.309 -0.258 0.777 -0.258 1.188 -0.051 c 0.934 0.258 1.707 0.93 2.328 2.223 c 0.258 0.52 0.52 1.035 0.621 1.656 l 1.035 6.102 l -0.777 0.262 l -4.602 -5.02 l -0.258 -0.516 c -0.414 -0.934 -0.672 -1.809 -0.57 -2.742 m -2.793 6.05 l 1.398 0.57 l 4.551 3.309 c -0.414 0.52 -0.672 1.035 -0.828 1.551 l -7.445 0.934 l -0.52 -0.105 c -0.93 -0.152 -1.551 -0.566 -1.965 -1.344 c -0.414 -0.777 -0.414 -1.551 -0.102 -2.328 c 0.359 -0.98 1.031 -1.758 2.02 -2.172 c 0.93 -0.516 1.859 -0.672 2.895 -0.414 m 21.05 0.051 c 0.93 -0.414 1.809 -0.516 2.742 -0.414 c 0.879 0.105 1.5 0.52 1.809 1.141 l 0.207 0.672 l -0.105 0.516 c -0.359 0.93 -1.137 1.656 -2.43 2.223 c -0.516 0.262 -1.086 0.363 -1.707 0.465 l -6.359 0.777 l -0.105 -0.363 l -0.102 -0.152 l 0.207 -0.258 l 5.223 -4.348 m -11.379 12.156 c 0.105 1.758 0.258 3.621 0.52 5.637 l 0 2.07 l -0.055 0.516 c -0.359 0.93 -0.98 1.707 -1.91 2.121 c -0.934 0.516 -1.914 0.621 -2.848 0.363 c -1.031 -0.258 -1.809 -0.879 -2.223 -1.707 c -0.258 -0.516 -0.465 -1.137 -0.465 -1.758 l 0.258 -1.191 c 0.105 -0.516 0.363 -1.035 0.777 -1.445 l 4.344 -5.176 c 0.516 0.262 1.035 0.52 1.602 0.57 m 3.984 -0.672 l 2.172 2.223 l 1.344 1.656 l 0.258 0.516 c 0.465 0.879 0.727 1.707 0.621 2.691 c -0.102 0.93 -0.414 1.602 -1.035 1.859 c -0.359 0.262 -0.773 0.262 -1.188 0.207 c -0.984 -0.258 -1.758 -1.031 -2.328 -2.273 l -0.621 -1.707 l -0.773 -4.5 l 0.879 -0.309 m 3 -3.57 l 5.844 -0.516 l 2.066 -0.055 l 0.52 0.055 c 0.773 0.258 1.5 0.723 1.914 1.5 c 0.516 0.566 0.773 1.344 0.773 2.223 l -0.156 1.035 c -0.258 1.035 -0.879 1.809 -1.758 2.223 c -0.93 0.516 -1.859 0.621 -2.895 0.258 c -0.621 -0.156 -1.035 -0.414 -1.398 -0.828 l -5.43 -4.5 l 0.363 -0.773 m 0.156 -0.621" style="fill:#72db46;fill-opacity:1;stroke:none;fill-rule:nonzero"/>
  <path d="m 18.281 25.277 l 0.363 1.035 l 0.152 0.363 c -0.773 0.672 -1.344 1.293 -1.965 1.859 l -1.551 1.293 l -0.414 0.262 c -0.98 0.465 -1.809 0.621 -2.688 0.516 c -0.777 -0.051 -1.398 -0.313 -1.656 -0.777 l -0.156 -0.566 l 0.105 -0.465 c 0.258 -0.777 0.93 -1.551 2.121 -2.121 c 0.617 -0.258 1.137 -0.52 1.551 -0.621 m 4.137 -0.777" style="fill:#ef3c4d;fill-opacity:1;stroke:none;fill-rule:nonzero"/>
  <path d="m 21.23 21.813 c 0.621 -0.566 1.445 -0.93 2.43 -0.93 c 0.93 0 1.809 0.363 2.379 0.93 c 0.723 0.727 1.035 1.5 1.035 2.43 c 0 0.934 -0.313 1.813 -1.035 2.434 c -0.672 0.672 -1.449 1.031 -2.379 1.031 c -0.984 0 -1.809 -0.359 -2.43 -1.031 c -0.672 -0.621 -1.035 -1.5 -1.035 -2.434 c 0 -0.93 0.363 -1.703 1.035 -2.43 m 0 0" style="fill:#fffc59;fill-opacity:1;stroke:none;fill-rule:nonzero"/>
 </g>
</svg>
