<svg xmlns="http://www.w3.org/2000/svg" width="64" height="64" viewBox="0 0 48 48">
 <g>
  <path d="m 20.246 23.59 c 0 -0.547 -0.102 -1.145 -0.422 -1.602 c -0.637 -0.922 -1.996 -1.211 -2.949 -0.633 c -0.48 0.293 -0.75 0.805 -0.902 1.328 c -0.297 1.043 -0.16 2.234 0.051 3.281 c 0.066 0.336 0.133 0.672 0.227 1 c 0.035 0.117 0.051 0.289 0.129 0.387 c 0.133 0.176 0.465 0.223 0.664 0.191 c 0.605 -0.102 0.457 -1.098 0.434 -1.523 c -0.047 -0.988 -0.34 -1.953 -0.055 -2.938 c 0.117 -0.418 0.352 -0.887 0.773 -1.07 c 0.379 -0.164 0.762 0.039 0.914 0.41 c 0.242 0.602 0.184 1.297 0.336 1.922 c 0.051 0.211 0.105 0.422 0.203 0.621 c 0.023 0.059 0.063 0.176 0.145 0.172 c 0.195 -0.02 0.473 -0.348 0.621 -0.469 c 0.473 -0.391 0.961 -0.813 1.508 -1.102 c 0.258 -0.141 0.68 -0.355 0.941 -0.125 c 0.07 0.059 0.121 0.129 0.172 0.199 c 0.309 0.484 0 0.863 -0.199 1.32 c -0.262 0.594 -0.527 1.188 -0.902 1.715 c -0.324 0.457 -0.766 0.859 -1.023 1.359 c -0.168 0.32 -0.262 0.672 -0.191 1.035 c 0.059 0.293 0.281 0.473 0.582 0.402 c 0.223 -0.051 0.375 -0.242 0.504 -0.422 c 0.227 -0.313 0.438 -0.641 0.664 -0.961 c 0.438 -0.613 0.953 -1.188 1.324 -1.848 c 0.441 -0.793 0.656 -1.695 0.656 -2.602 c 0 -0.738 -0.273 -1.871 -1.133 -2.023 c -0.16 -0.031 -0.348 -0.016 -0.508 0.012 c -0.199 0.035 -0.402 0.102 -0.586 0.191 c -0.488 0.234 -0.914 0.59 -1.277 0.992 c -0.227 0.25 -0.43 0.566 -0.703 0.773" style="fill:#c00;fill-opacity:1;stroke:none;fill-rule:nonzero"/>
  <path d="m 19.438 5.273 c -0.68 0.09 -1.371 0.082 -2.055 0.188 c -1.309 0.203 -2.563 0.609 -3.785 1.098 c -0.445 0.18 -0.887 0.379 -1.32 0.59 c -0.16 0.078 -0.406 0.141 -0.535 0.266 c -0.066 0.063 -0.059 0.215 -0.07 0.305 c -0.02 0.246 -0.051 0.488 -0.074 0.734 c -0.094 0.945 -0.152 1.922 -0.02 2.863 c 0.047 0.309 0.141 0.859 0.516 0.918 c 0.574 0.094 1.023 -0.617 1.305 -1.012 c 0.66 -0.914 1.414 -1.766 2.5 -2.176 c 1.273 -0.484 2.734 -0.598 4.086 -0.691 c 3.789 -0.258 7.926 0.434 10.719 3.227 c 0.398 0.398 0.77 0.82 1.094 1.281 c 1.246 1.813 1.906 3.871 2.227 6.03 c 0.148 1.016 0.254 2.043 0.02 3.055 c -0.402 1.754 -1.453 3.281 -2.66 4.582 c -0.832 0.887 -1.762 1.691 -2.734 2.422 c -0.539 0.41 -1.145 0.754 -1.652 1.203 c -0.59 0.512 -1.078 1.156 -1.449 1.84 c -0.996 1.848 -1.266 4.066 -0.973 6.125 c 0.063 0.426 0.117 0.848 0.211 1.266 c 0.031 0.125 0.035 0.336 0.113 0.441 c 0.152 0.188 0.563 0.293 0.793 0.305 c 0.242 0.012 0.402 -0.172 0.461 -0.391 c 0.102 -0.367 0.039 -0.777 -0.02 -1.148 c -0.117 -0.762 -0.227 -1.527 -0.195 -2.301 c 0.063 -1.426 0.617 -2.754 1.602 -3.789 c 1 -1.051 2.363 -1.656 3.504 -2.535 c 2.301 -1.777 4.363 -4.172 5.156 -7.02 c 0.277 -1.02 0.371 -2.098 0.242 -3.148 c -0.16 -1.328 -0.645 -2.652 -1.102 -3.902 c -1.395 -3.809 -3.781 -7.43 -7.578 -9.172 c -1.5 -0.691 -3.078 -1.012 -4.707 -1.234 c -0.762 -0.105 -1.527 -0.172 -2.297 -0.207 c -0.43 -0.016 -0.895 -0.066 -1.32 -0.008" style="fill:#c00;fill-opacity:1;stroke:none;fill-rule:nonzero"/>
  <path d="m 13.504 29.93 c -0.742 0.109 -0.957 0.699 -0.82 1.371 c 0.176 0.855 0.852 1.508 1.516 2.023 c 1.707 1.316 3.914 2.027 6.06 1.934 c 0.84 -0.035 1.758 -0.176 2.527 -0.531 c 0.414 -0.191 0.848 -0.879 0.281 -1.176 c -0.074 -0.039 -0.176 -0.063 -0.262 -0.078 c -0.246 -0.039 -0.52 0.066 -0.754 0.133 c -0.41 0.117 -0.82 0.238 -1.246 0.305 c -1.262 0.203 -2.625 -0.086 -3.672 -0.832 c -0.844 -0.605 -1.531 -1.406 -2.176 -2.211 c -0.395 -0.496 -0.754 -1.039 -1.461 -0.938" style="fill:#c00;fill-opacity:1;stroke:none;fill-rule:nonzero"/>
  <path d="m 12.543 34.12 c -0.188 0.023 -0.406 0.016 -0.566 0.133 c -0.336 0.25 0.035 0.746 0.211 0.969 c 0.512 0.652 1.188 1.195 1.863 1.672 c 1.875 1.328 4 2.094 6.289 2.25 c 0.656 0.047 1.328 0 1.977 -0.109 c 0.238 -0.039 0.535 -0.055 0.758 -0.16 c 0.621 -0.289 0.441 -1.465 -0.113 -1.727 c -0.242 -0.113 -0.633 0.035 -0.887 0.07 c -0.602 0.086 -1.207 0.094 -1.813 0.078 c -1.582 -0.039 -3.27 -0.527 -4.652 -1.297 c -0.539 -0.305 -1.035 -0.672 -1.504 -1.082 c -0.281 -0.25 -0.574 -0.66 -0.941 -0.785 c -0.172 -0.059 -0.445 -0.035 -0.621 -0.012" style="fill:#c00;fill-opacity:1;stroke:none;fill-rule:nonzero"/>
  <path d="m 12.918 37.641 c -0.266 0.031 -0.469 0.172 -0.645 0.371 c -0.121 0.137 -0.238 0.258 -0.309 0.434 c -0.383 0.949 0.641 1.848 1.352 2.297 c 0.781 0.5 1.645 0.871 2.52 1.184 c 1.977 0.703 4.297 1.152 6.348 0.523 c 0.609 -0.188 1.215 -0.527 1.656 -0.988 c 0.25 -0.262 0.422 -0.656 -0.035 -0.824 c -0.273 -0.098 -0.602 0.152 -0.848 0.254 c -0.582 0.234 -1.188 0.41 -1.813 0.488 c -0.816 0.098 -1.559 -0.082 -2.352 -0.281 c -0.676 -0.168 -1.363 -0.336 -2.02 -0.582 c -0.559 -0.207 -1.109 -0.457 -1.602 -0.801 c -0.145 -0.105 -0.32 -0.195 -0.438 -0.332 c -0.395 -0.438 -0.688 -0.953 -1.105 -1.375 c -0.184 -0.18 -0.441 -0.398 -0.719 -0.367" style="fill:#c00;fill-opacity:1;stroke:none;fill-rule:nonzero"/>
 </g>
</svg>
