<svg xmlns="http://www.w3.org/2000/svg" width="64" height="64" viewBox="0 0 48 48">
 <g>
  <path d="m 27 17 l 0 4.781 l 1.68 1.219 l 0.18 0 l 7.141 -5 c 0 -0.563 -0.398 -1 -1 -1 m -8 0" style="fill:#0070c6;fill-opacity:1;stroke:none;fill-rule:nonzero"/>
  <path d="m 27.02 23.535 l 1.516 1.027 c 0.211 0.156 0.469 0 0.469 0 c -0.254 0.156 6.996 -4.563 6.996 -4.563 l 0 9 c 0 0.609 -0.305 1 -1 1 l -8 0 m 0.02 -6.465" style="fill:#0070c6;fill-opacity:1;stroke:none;fill-rule:nonzero"/>
  <path d="m 19.18 21.371 c -0.52 0 -0.93 0.238 -1.23 0.719 c -0.305 0.477 -0.457 1.109 -0.457 1.898 c 0 0.801 0.152 1.434 0.457 1.898 c 0.301 0.469 0.699 0.699 1.191 0.699 c 0.508 0 0.91 -0.227 1.207 -0.68 c 0.297 -0.453 0.449 -1.082 0.449 -1.883 c 0 -0.836 -0.145 -1.488 -0.434 -1.957 c -0.289 -0.465 -0.684 -0.695 -1.184 -0.695 m 0 0" style="fill:#0070c6;fill-opacity:1;stroke:none;fill-rule:nonzero"/>
  <path d="m 12 15 l 0 18 l 14 3 l 0 -24 m -4.547 14.992 c -0.598 0.777 -1.375 1.168 -2.336 1.168 c -0.938 0 -1.699 -0.379 -2.289 -1.133 c -0.586 -0.75 -0.883 -1.734 -0.883 -2.941 c 0 -1.277 0.301 -2.313 0.898 -3.102 c 0.598 -0.785 1.391 -1.184 2.379 -1.184 c 0.93 0 1.688 0.379 2.262 1.133 c 0.574 0.758 0.863 1.75 0.863 2.988 c 0 1.27 -0.297 2.293 -0.895 3.07 m 0 0" style="fill:#0070c6;fill-opacity:1;stroke:none;fill-rule:nonzero"/>
 </g>
</svg>
