<svg xmlns="http://www.w3.org/2000/svg" viewBox="0 0 64 64">
 <path d="m 56 20.5 -10 5.214 0 12.571 10 5.214" style="fill:#cf8c3b;fill-opacity:1;stroke:none;fill-rule:nonzero"/>
 <path d="m 32 44.702 -11 -6.351 0 -12.702 11 -6.351 11 6.351 0 12.702 z" style="fill:#f8c100;opacity:1;fill-opacity:1;stroke:none;fill-rule:nonzero"/>
 <path d="m 8 20.5 10 5.214 0 12.571 -10 5.214" style="fill:#363dbe;fill-opacity:1;stroke:none;fill-rule:nonzero"/>
 <path d="m 53.959 47.03 -9.516 -6.05 -10.887 6.286 0.484 11.267" style="fill:#9d2c34;fill-opacity:1;stroke:none;fill-rule:nonzero"/>
 <path d="m 29.959 5.465 0.484 11.267 -10.887 6.286 -9.516 -6.05" style="fill:#3695ba;fill-opacity:1;stroke:none;fill-rule:nonzero"/>
 <path d="m 29.959 58.53 0.484 -11.267 -10.887 -6.286 -9.516 6.05" style="fill:#b93780;fill-opacity:1;stroke:none;fill-rule:nonzero"/>
 <path d="m 53.959 16.965 -9.516 6.05 -10.887 -6.286 0.484 -11.267" style="fill:#8eb335;fill-opacity:1;stroke:none;fill-rule:nonzero"/>
</svg>
