<svg xmlns="http://www.w3.org/2000/svg" viewBox="0 0 32 32">
 <g transform="translate(0,-1020.3622)">
  <rect width="26" height="10" x="3" y="1026.36" style="fill:#5d4037;fill-opacity:1;stroke:none"/>
  <path d="m 6 1026.36 c 0 -1 0 -2 1.455 -2 l 5.091 0 c 1.455 0 1.455 1 1.455 2 l 0 1 -8 0 z" style="fill:#5d4037;fill-opacity:1;stroke:none"/>
  <path d="m 5 1028.36 22 0 0 4.968 -22 0 z" style="fill:#95989f;fill-opacity:1;stroke:none"/>
  <rect y="1027.36" x="7" height="13" width="19" style="fill:#d8d8da;fill-opacity:1;stroke:none"/>
  <rect width="19" height="13" x="6" y="1029.36" style="fill:#f9f9f9;fill-opacity:1;stroke:none"/>
  <path d="m 1 1030.36 30 0 -2.143 18 -25.714 0 z" style="fill:#8d6e63;fill-opacity:1;stroke:none"/>
  <path d="m 11 12 c -1.108 0 -2 0.892 -2 2 l 0 7 c 0 1.108 0.892 2 2 2 l 3 0 l -2 2 c -1 1 -1 1 0 1 l 8 0 c 1 0 1 0 0 -1 l -2 -2 l 3 0 c 1.108 0 2 -0.892 2 -2 l 0 -7 c 0 -1.108 -0.892 -2 -2 -2 l -10 0 z m 0 2 l 10 0 l 0 7 l -10 0 l 0 -7 z m 2.344 1 c -0.281 0.047 -0.844 0.25 -0.844 1 l 0 3 c 0 1 1 1 1 1 l 3 0 c 1 0 1 -1 1 -1 l 0 -2 l -2 -2 l -2 0 c 0 0 -0.062 -0.016 -0.156 0 z m 0.156 1 l 1.5 0 l 0 1.5 l 1.5 0 l 0 1.5 l -3 0 l 0 -3 z" transform="translate(0,1020.3622)" style="fill:#634b43;opacity:1;fill-opacity:1"/>
 </g>
</svg>
