<?xml version="1.0" encoding="UTF-8" standalone="no"?>
<svg
   xmlns:dc="http://purl.org/dc/elements/1.1/"
   xmlns:cc="http://creativecommons.org/ns#"
   xmlns:rdf="http://www.w3.org/1999/02/22-rdf-syntax-ns#"
   xmlns:svg="http://www.w3.org/2000/svg"
   xmlns="http://www.w3.org/2000/svg"
   xmlns:sodipodi="http://sodipodi.sourceforge.net/DTD/sodipodi-0.dtd"
   xmlns:inkscape="http://www.inkscape.org/namespaces/inkscape"
   width="32"
   viewBox="0 0 9.0311114 9.0311114"
   height="32"
   id="svg2"
   version="1.1"
   inkscape:version="0.91 r"
   sodipodi:docname="calendar-30.svg">
  <metadata
     id="metadata17">
    <rdf:RDF>
      <cc:Work
         rdf:about="">
        <dc:format>image/svg+xml</dc:format>
        <dc:type
           rdf:resource="http://purl.org/dc/dcmitype/StillImage" />
        <dc:title />
      </cc:Work>
    </rdf:RDF>
  </metadata>
  <defs
     id="defs15" />
  <sodipodi:namedview
     pagecolor="#ffffff"
     bordercolor="#666666"
     borderopacity="1"
     objecttolerance="10"
     gridtolerance="10"
     guidetolerance="10"
     inkscape:pageopacity="0"
     inkscape:pageshadow="2"
     inkscape:window-width="1366"
     inkscape:window-height="747"
     id="namedview13"
     showgrid="true"
     inkscape:zoom="11.313709"
     inkscape:cx="4.6257294"
     inkscape:cy="17.644549"
     inkscape:window-x="0"
     inkscape:window-y="21"
     inkscape:window-maximized="1"
     inkscape:current-layer="svg2"
     showguides="false">
    <inkscape:grid
       type="xygrid"
       id="grid4145"
       originx="0"
       originy="0"
       spacingy="0.28222223"
       spacingx="0.28222223" />
  </sodipodi:namedview>
  <path
     d="m 1.6934771,0.28222062 0,0.67733364 -0.84687768,0 c -0.16933346,0 -0.28222236,0.14111204 -0.2821155,0.28222234 l -3.96e-5,7.507126 c -6.726e-5,0.1411001 0.14104385,0.2822113 0.2821551,0.2822081 l 7.33778138,0 c 0.1411121,3.2e-6 0.2822223,-0.141108 0.2820905,-0.2821547 L 8.4666675,1.2417766 C 8.4666031,1.1006655 8.3254919,0.95955426 8.1843808,0.95955426 l -0.8464973,0 0,-0.67733364 C 7.3377137,-1.6790706e-6 7.3377137,-1.6790706e-6 7.0554912,-1.6790706e-6 l -0.733778,0 c -0.2822223,0 -0.2822223,0 -0.2822223,0.2822222990706 l 0,0.5644446 -3.0480015,0 0,-0.5644446 c 0,-0.2822222990706 0,-0.2822222990706 -0.2822225,-0.2822222990706 l -0.7337781,0 c -0.2822224,0 -0.2820117,0 -0.2820117,0.2822222990706 z m 0.3757096,0.093698 0.5463824,0 0,1.13106048 c 0,0.4685759 -0.5463824,0.4685759 -0.5463824,0 z m 4.3462243,0 0.5463824,0 0,1.13105988 c 0,0.4685765 -0.5463824,0.4685765 -0.5463824,0 z m -5.2866565,2.44630308 6.7733396,0 0,5.6445786 -6.7733396,-1.072e-4 z"
     id="path4"
     inkscape:connector-curvature="0"
     style="color:#000000;fill:#cacaca"
     sodipodi:nodetypes="scccccccccccccccccccsccsccccsscccccc" />
  <g
     transform="matrix(0.28222222,0,0,0.28222222,-9.4977623,-6.6261658)"
     style="font-style:normal;font-variant:normal;font-weight:normal;font-stretch:normal;font-size:20px;line-height:125%;font-family:'Droid Sans';-inkscape-font-specification:'Droid Sans';letter-spacing:0px;word-spacing:0px;fill:#000000;fill-opacity:1;stroke:none;stroke-width:1px;stroke-linecap:butt;stroke-linejoin:miter;stroke-opacity:1"
     id="flowRoot4147" />
  <g
     transform="scale(1.1417405,0.87585576)"
     style="font-style:normal;font-variant:normal;font-weight:normal;font-stretch:normal;font-size:3.21420383px;line-height:125%;font-family:Ubuntu;-inkscape-font-specification:Ubuntu;letter-spacing:0px;word-spacing:0px;fill:#3798d6;fill-opacity:1;stroke:none;stroke-width:1px;stroke-linecap:butt;stroke-linejoin:miter;stroke-opacity:1"
     id="text4155">
    <path
       d="m 3.7036424,5.8559336 q 0,0.1832792 -0.060289,0.3303848 Q 3.5854755,6.3310125 3.4817781,6.4419446 3.3804922,6.5504652 3.2406213,6.6252238 3.1031619,6.6975709 2.9415869,6.7361559 l 0,0.014469 q 0.4268475,0.053055 0.6463002,0.2604494 0.2194527,0.2049833 0.2194527,0.5546607 0,0.2315105 -0.084405,0.4292591 -0.081993,0.195337 -0.2556262,0.3400311 -0.1712213,0.1446941 -0.4340823,0.2266874 -0.2604493,0.079582 -0.6149498,0.079582 -0.284565,0 -0.5353681,-0.048231 -0.2508031,-0.04582 -0.4678442,-0.1422826 l 0,-0.6342424 q 0.1085205,0.057878 0.2290989,0.1012859 0.1205784,0.043408 0.2411568,0.074759 0.1205784,0.028939 0.2363337,0.043408 0.1181668,0.014469 0.2218643,0.014469 0.2073948,0 0.3448542,-0.038585 0.1374594,-0.038585 0.2194527,-0.1085205 0.081993,-0.069935 0.1157553,-0.1663982 0.036173,-0.098874 0.036173,-0.2146296 0,-0.1085205 -0.04582,-0.195337 Q 2.9705257,7.2377621 2.8692398,7.1774729 2.7703655,7.1147721 2.6087905,7.0810102 2.4472154,7.0472482 2.2108817,7.0472482 l -0.250803,0 0,-0.5233103 0.2459799,0 q 0.2218643,0 0.3689699,-0.038585 0.1471057,-0.040997 0.2339221,-0.1085206 0.089228,-0.069936 0.1254016,-0.1615751 0.036173,-0.09164 0.036173,-0.195337 0,-0.1881023 -0.1181669,-0.2942113 -0.1157552,-0.106109 -0.3689699,-0.106109 -0.1157552,0 -0.2170411,0.024116 -0.098874,0.021704 -0.1856907,0.057878 -0.084405,0.033762 -0.156752,0.07717 -0.069935,0.040997 -0.1278131,0.081993 L 1.4198874,5.3639737 q 0.1012859,-0.074759 0.2194527,-0.1374594 0.1205784,-0.062701 0.2604494,-0.1085205 0.1398709,-0.048231 0.301446,-0.074759 0.161575,-0.026527 0.3448542,-0.026527 0.2604493,0 0.4726673,0.057878 0.2146296,0.055466 0.3665584,0.1639867 0.1519288,0.106109 0.2339221,0.2628609 0.084405,0.1543403 0.084405,0.3545005 z"
       style="font-style:normal;font-variant:normal;font-weight:bold;font-stretch:normal;font-size:4.93889141px;font-family:'droid sans';-inkscape-font-specification:'droid sans Bold';text-align:center;letter-spacing:-0.05644448px;word-spacing:0.11288894px;text-anchor:middle;fill:#3798d6;fill-opacity:1"
       id="path4142" />
    <path
       d="m 6.5097292,6.8302071 q 0,0.4268475 -0.067524,0.7620555 -0.065112,0.335208 -0.212218,0.5691301 -0.1446941,0.2339221 -0.3762046,0.356912 -0.229099,0.12299 -0.5546607,0.12299 -0.3062691,0 -0.5329565,-0.12299 Q 4.5394781,8.3953148 4.3899608,8.1613927 4.2404436,7.9274706 4.165685,7.5922626 4.093338,7.2570546 4.093338,6.8302071 q 0,-0.4268476 0.065112,-0.7644671 0.067524,-0.3376195 0.212218,-0.5715416 0.1446941,-0.2339221 0.373793,-0.3569121 0.229099,-0.1254015 0.5546607,-0.1254015 0.3038576,0 0.530545,0.1229899 0.2266874,0.12299 0.3786162,0.3569121 0.1519288,0.2339221 0.2266874,0.5715416 0.074759,0.3376196 0.074759,0.7668787 z m -1.6736283,0 q 0,0.602892 0.1036975,0.9067496 0.1036974,0.3038576 0.3593236,0.3038576 0.2508031,0 0.3593236,-0.301446 0.1109322,-0.3014461 0.1109322,-0.9091612 0,-0.6053036 -0.1109322,-0.9091612 Q 5.5499251,5.6147768 5.299122,5.6147768 q -0.1278131,0 -0.2170411,0.07717 -0.086817,0.07717 -0.1422825,0.2290989 -0.055466,0.1519288 -0.079582,0.3810278 -0.024116,0.2266874 -0.024116,0.5281334 z"
       style="font-style:normal;font-variant:normal;font-weight:bold;font-stretch:normal;font-size:4.93889141px;font-family:'droid sans';-inkscape-font-specification:'droid sans Bold';text-align:center;letter-spacing:-0.05644448px;word-spacing:0.11288894px;text-anchor:middle;fill:#3798d6;fill-opacity:1"
       id="path4144" />
  </g>
</svg>
