<svg xmlns="http://www.w3.org/2000/svg" viewBox="0 0 32 32">
 <g transform="translate(0,-1020.3622)">
  <rect width="26" height="10" x="3" y="1026.36" style="fill:#ea9036;fill-opacity:1;stroke:none"/>
  <path d="m 6 1026.36 c 0 -1 0 -2 1.455 -2 l 5.091 0 c 1.455 0 1.455 1 1.455 2 l 0 1 -8 0 z" style="fill:#ea9036;fill-opacity:1;stroke:none"/>
  <path d="m 5 1028.36 22 0 0 4.968 -22 0 z" style="fill:#95989f;fill-opacity:1;stroke:none"/>
  <rect y="1027.36" x="7" height="13" width="19" style="fill:#d8d8da;fill-opacity:1;stroke:none"/>
  <rect width="19" height="13" x="6" y="1029.36" style="fill:#f9f9f9;fill-opacity:1;stroke:none"/>
  <path d="m 1 1030.36 30 0 -2.143 18 -25.714 0 z" style="fill:#f2bb64;fill-opacity:1;stroke:none"/>
  <path d="m 19.748 1033.36 c -1.607 0 -2.922 1.342 -2.922 2.989 0 0.553 0.159 1.075 0.417 1.523 l 0 3.239 c -0.318 0.068 -0.612 0.216 -0.861 0.415 l -2.896 -1.329 c 0 -1.175 -0.939 -2.131 -2.087 -2.131 -1.146 0 -2.087 0.956 -2.087 2.131 0 1.178 0.941 2.159 2.087 2.159 0.465 0 0.904 -0.176 1.252 -0.443 l 2.922 1.356 c 0.03 1.151 0.96 2.076 2.087 2.076 1.148 0 2.087 -0.954 2.087 -2.131 0 -0.491 -0.17 -0.939 -0.443 -1.301 l 0.026 0 1.539 -2.796 c 0.011 -0.012 0.015 -0.023 0.026 -0.027 1.03 -0.465 1.774 -1.517 1.774 -2.74 0 -1.646 -1.316 -2.989 -2.922 -2.989 z m 0 0.996 c 1.08 0 1.93 0.886 1.93 1.993 0 1.109 -0.851 1.993 -1.93 1.993 -1.081 0 -1.93 -0.884 -1.93 -1.993 0 -1.107 0.849 -1.993 1.93 -1.993 z m 0 0.72 c -0.69 0 -1.252 0.562 -1.252 1.273 0 0.708 0.562 1.273 1.252 1.273 0.692 0 1.252 -0.564 1.252 -1.273 0 -0.711 -0.56 -1.273 -1.252 -1.273 z m -8.348 3.848 c 0.685 0 1.076 0.284 1.2 0.858 l -0.73 -0.332 c -0.474 -0.207 -1.025 0.012 -1.226 0.498 -0.201 0.486 0.022 1.041 0.496 1.246 l 0.548 0.277 c -0.091 0.015 -0.182 0.027 -0.287 0.027 -0.835 0 -1.252 -0.443 -1.252 -1.301 0 -0.856 0.417 -1.273 1.252 -1.273 z m 6.261 2.851 c 0.773 0 1.383 0.647 1.383 1.439 0 0.792 -0.61 1.412 -1.383 1.412 -0.627 0 -1.157 -0.414 -1.33 -0.997 l 0.991 0.443 c 0.474 0.207 1.025 -0.038 1.226 -0.526 0.201 -0.486 -0.022 -1.041 -0.496 -1.246 l -0.913 -0.415 c 0.16 -0.066 0.338 -0.11 0.522 -0.11 z" style="fill:#b58c4b;opacity:1;fill-opacity:1;stroke:none;fill-rule:nonzero"/>
 </g>
</svg>
