<svg xmlns="http://www.w3.org/2000/svg" viewBox="0 0 32 32">
 <g transform="translate(0,-1020.3622)">
  <rect width="26" height="10" x="3" y="1026.36" style="fill:#ea9036;fill-opacity:1;stroke:none"/>
  <path d="m 6 1026.36 c 0 -1 0 -2 1.455 -2 l 5.091 0 c 1.455 0 1.455 1 1.455 2 l 0 1 -8 0 z" style="fill:#ea9036;fill-opacity:1;stroke:none"/>
  <path d="m 5 1028.36 22 0 0 4.968 -22 0 z" style="fill:#95989f;fill-opacity:1;stroke:none"/>
  <rect y="1027.36" x="7" height="13" width="19" style="fill:#d8d8da;fill-opacity:1;stroke:none"/>
  <rect width="19" height="13" x="6" y="1029.36" style="fill:#f9f9f9;fill-opacity:1;stroke:none"/>
  <path d="m 1 1030.36 30 0 -2.143 18 -25.714 0 z" style="fill:#f2bb64;fill-opacity:1;stroke:none"/>
  <path transform="matrix(0.5,0,0,0.5,1,1019.8622)" d="m 17 38 c 0 1.657 -1.343 3 -3 3 -1.657 0 -3 -1.343 -3 -3 0 -1.657 1.343 -3 3 -3 1.657 0 3 1.343 3 3 z" style="fill:#b58c4b;opacity:1;fill-opacity:1;stroke:none"/>
  <path d="m 16 1032.86 c -1.146 0 -2.215 0.316 -3.125 0.875 l 1.484 1.484 c 0.501 -0.226 1.056 -0.359 1.641 -0.359 2.039 0 3.722 1.528 3.969 3.5 l 2 0 c -0.081 -0.96 -0.381 -1.863 -0.859 -2.641 -0.188 0.085 -0.39 0.141 -0.609 0.141 -0.828 0 -1.5 -0.671 -1.5 -1.5 0 -0.219 0.056 -0.421 0.141 -0.609 -0.913 -0.562 -1.989 -0.891 -3.141 -0.891 z m -3.922 1.484 c -0.939 0.819 -1.633 1.916 -1.922 3.172 0.498 0.244 0.844 0.752 0.844 1.344 0 0.592 -0.346 1.1 -0.844 1.344 0.311 1.353 1.071 2.541 2.125 3.375 l 1.438 -1.438 c -1.038 -0.723 -1.719 -1.921 -1.719 -3.281 c 0 -1.255 0.58 -2.376 1.484 -3.109 l -1.406 -1.406 z m 7.891 5.02 c -0.247 1.972 -1.93 3.5 -3.969 3.5 -0.473 0 -0.923 -0.099 -1.344 -0.25 l -1.516 1.516 c 0.851 0.465 1.821 0.734 2.859 0.734 0.756 0 1.474 -0.135 2.141 -0.391 c -0.085 -0.188 -0.141 -0.39 -0.141 -0.609 c 0 -0.828 0.672 -1.5 1.5 -1.5 0.402 0 0.762 0.164 1.031 0.422 0.81 -0.935 1.33 -2.116 1.438 -3.422 l -2 0 z" style="fill:#b58c4b;opacity:1;fill-opacity:1;stroke:none"/>
  <path d="m 17 38 c 0 1.657 -1.343 3 -3 3 -1.657 0 -3 -1.343 -3 -3 0 -1.657 1.343 -3 3 -3 1.657 0 3 1.343 3 3 z" transform="matrix(0.5,0,0,0.5,14.5,1014.3622)" style="fill:#b58c4b;opacity:1;fill-opacity:1;stroke:none"/>
  <path d="m 17 38 c 0 1.657 -1.343 3 -3 3 -1.657 0 -3 -1.343 -3 -3 0 -1.657 1.343 -3 3 -3 1.657 0 3 1.343 3 3 z" transform="matrix(0.5,0,0,0.5,13.5,1025.8622)" style="fill:#b58c4b;opacity:1;fill-opacity:1;stroke:none"/>
 </g>
</svg>
