<svg xmlns="http://www.w3.org/2000/svg" viewBox="0 0 32 32">
 <g transform="translate(0,-1020.3622)">
  <rect width="26" height="10" x="3" y="1026.36" style="fill:#e65100;fill-opacity:1;stroke:none"/>
  <path d="m 6 1026.36 c 0 -1 0 -2 1.455 -2 l 5.091 0 c 1.455 0 1.455 1 1.455 2 l 0 1 -8 0 z" style="fill:#e65100;fill-opacity:1;stroke:none"/>
  <path d="m 5 1028.36 22 0 0 4.968 -22 0 z" style="fill:#95989f;fill-opacity:1;stroke:none"/>
  <rect y="1027.36" x="7" height="13" width="19" style="fill:#d8d8da;fill-opacity:1;stroke:none"/>
  <rect width="19" height="13" x="6" y="1029.36" style="fill:#f9f9f9;fill-opacity:1;stroke:none"/>
  <path d="m 1 1030.36 30 0 -2.143 18 -25.714 0 z" style="fill:#f57c00;fill-opacity:1;stroke:none"/>
  <path d="m 11 12 c -1.108 0 -2 0.892 -2 2 l 0 7 l 0 3 c 0 1.108 0.892 2 2 2 l 9 0 l 1 0 c 1.108 0 2 -0.892 2 -2 l 0 -10 c 0 -1.108 -0.892 -2 -2 -2 l -10 0 z m 0 2 l 10 0 l 0 7.125 l -2.5 -3.625 l -2.219 2.188 l -3.281 -3.688 l -2 2.5 l 0 -4.5 z" transform="translate(0,1020.3622)" style="fill:#ab5d0b;opacity:1;fill-opacity:1;fill-rule:evenodd"/>
 </g>
</svg>
