<svg xmlns="http://www.w3.org/2000/svg" viewBox="0 0 32 32">
 <g transform="translate(0,-1020.3622)">
  <rect width="26" height="10" x="3" y="1026.36" style="fill:#512da8;fill-opacity:1;stroke:none"/>
  <path d="m 6 1026.36 c 0 -1 0 -2 1.455 -2 l 5.091 0 c 1.455 0 1.455 1 1.455 2 l 0 1 -8 0 z" style="fill:#512da8;fill-opacity:1;stroke:none"/>
  <path d="m 5 1028.36 22 0 0 4.968 -22 0 z" style="fill:#95989f;fill-opacity:1;stroke:none"/>
  <rect y="1027.36" x="7" height="13" width="19" style="fill:#d8d8da;fill-opacity:1;stroke:none"/>
  <rect width="19" height="13" x="6" y="1029.36" style="fill:#f9f9f9;fill-opacity:1;stroke:none"/>
  <path d="m 1 1030.36 30 0 -2.143 18 -25.714 0 z" style="fill:#7e57c2;fill-opacity:1;stroke:none"/>
  <path d="m 11.151 1033.82 c -0.385 0.012 -0.75 0.048 -1.116 0.175 -0.115 0.782 0.075 1.594 0.285 2.344 0.534 1.72 1.524 3.352 2.977 4.447 0.053 0.051 0.129 0.062 0.109 0.153 -0.008 0.381 -0.001 0.779 0 1.161 0.016 0.668 0.418 1.306 1.01 1.621 0.699 0.368 1.397 0.71 2.102 1.073 0.324 0.172 0.774 -0.025 0.876 -0.372 0.062 -0.228 0.019 -0.468 0.022 -0.701 -0.002 -0.491 -0.063 -0.983 -0.044 -1.468 0.641 -0.079 1.285 -0.39 1.664 -0.92 0.337 -0.452 0.457 -1.037 0.416 -1.599 0.686 -0.122 1.392 -0.226 2.08 -0.351 0.407 -0.082 0.583 -0.611 0.328 -0.942 -0.5 -0.634 -1 -1.255 -1.51 -1.884 -0.41 -0.49 -1.053 -0.763 -1.686 -0.679 -0.429 0.069 -0.868 0.161 -1.292 0.241 -1.366 -1.303 -3.203 -2.024 -5.057 -2.235 -0.381 -0.035 -0.775 -0.072 -1.16 -0.066 z m 2.32 1.424 c 0.448 -0.04 0.897 0.084 1.27 0.394 0.745 0.621 0.861 1.73 0.241 2.476 -0.621 0.746 -1.728 0.862 -2.474 0.241 -0.745 -0.621 -0.861 -1.729 -0.241 -2.476 0.31 -0.373 0.756 -0.594 1.204 -0.635 z m 7.158 5.368 c -0.153 -0.014 -0.306 0.102 -0.328 0.263 -0.195 0.889 -0.827 1.661 -1.664 2.02 -0.218 0.069 -0.267 0.361 -0.088 0.504 0.367 0.306 0.791 0.66 1.16 0.964 0.179 0.153 0.413 -0.013 0.416 -0.241 -0.006 -0.187 -0.027 -0.386 -0.044 -0.57 0.457 0.098 0.905 0.228 1.357 0.329 0.213 0.044 0.415 -0.213 0.328 -0.416 -0.179 -0.429 -0.364 -0.844 -0.547 -1.271 0.185 -0.022 0.363 -0.037 0.547 -0.066 0.228 -0.045 0.317 -0.377 0.131 -0.526 -0.369 -0.311 -0.742 -0.611 -1.116 -0.92 -0.044 -0.035 -0.102 -0.061 -0.153 -0.066 z" style="fill:#54398d;opacity:1;fill-opacity:1;stroke:none;fill-rule:nonzero"/>
 </g>
</svg>
