<svg xmlns="http://www.w3.org/2000/svg" viewBox="0 0 32 32">
 <g transform="translate(0,-1020.3622)">
  <rect width="26" height="10" x="3" y="1026.36" style="fill:#512da8;fill-opacity:1;stroke:none"/>
  <path d="m 6 1026.36 c 0 -1 0 -2 1.455 -2 l 5.091 0 c 1.455 0 1.455 1 1.455 2 l 0 1 -8 0 z" style="fill:#512da8;fill-opacity:1;stroke:none"/>
  <path d="m 5 1028.36 22 0 0 4.968 -22 0 z" style="fill:#95989f;fill-opacity:1;stroke:none"/>
  <rect y="1027.36" x="7" height="13" width="19" style="fill:#d8d8da;fill-opacity:1;stroke:none"/>
  <rect width="19" height="13" x="6" y="1029.36" style="fill:#f9f9f9;fill-opacity:1;stroke:none"/>
  <path d="m 1 1030.36 30 0 -2.143 18 -25.714 0 z" style="fill:#7e57c2;fill-opacity:1;stroke:none"/>
  <path d="m 15.06 1033.36 c -0.333 0 -0.611 0.264 -0.611 0.597 l 0 0.778 c -0.21 0.071 -0.415 0.153 -0.611 0.25 l -0.542 -0.542 c -0.235 -0.235 -0.612 -0.235 -0.847 0 l -1.361 1.347 c -0.235 0.235 -0.235 0.612 0 0.847 l 0.542 0.542 c -0.1 0.2 -0.178 0.411 -0.25 0.625 l -0.764 0 c -0.333 0 -0.611 0.264 -0.611 0.597 l 0 1.917 c 0 0.333 0.278 0.597 0.611 0.597 l 0.764 0 c 0.072 0.214 0.15 0.425 0.25 0.625 l -0.542 0.542 c -0.235 0.235 -0.235 0.612 0 0.847 l 1.361 1.347 c 0.235 0.235 0.612 0.235 0.847 0 l 0.542 -0.542 c 0.197 0.098 0.401 0.179 0.611 0.25 l 0 0.778 c 0 0.333 0.278 0.597 0.611 0.597 l 1.903 0 c 0.333 0 0.597 -0.264 0.597 -0.597 l 0 -0.778 c 0.214 -0.072 0.425 -0.15 0.625 -0.25 l 0.542 0.542 c 0.235 0.235 0.612 0.235 0.847 0 l 1.361 -1.347 c 0.235 -0.235 0.235 -0.612 0 -0.847 l -0.556 -0.555 c 0.097 -0.197 0.179 -0.401 0.25 -0.611 l 0.778 0 c 0.333 0 0.597 -0.264 0.597 -0.597 l 0 -1.917 c 0 -0.333 -0.264 -0.597 -0.597 -0.597 l -0.778 0 c -0.071 -0.21 -0.153 -0.415 -0.25 -0.611 l 0.556 -0.555 c 0.235 -0.235 0.235 -0.612 0 -0.847 l -1.361 -1.347 c -0.235 -0.235 -0.612 -0.235 -0.847 0 l -0.542 0.542 c -0.2 -0.1 -0.411 -0.178 -0.625 -0.25 l 0 -0.778 c 0 -0.333 -0.264 -0.597 -0.597 -0.597 l -1.903 0 z m 0.944 4.444 c 0.859 0 1.556 0.697 1.556 1.556 0 0.859 -0.697 1.556 -1.556 1.556 -0.859 0 -1.556 -0.697 -1.556 -1.556 0 -0.859 0.697 -1.556 1.556 -1.556 z" style="fill:#54398d;opacity:1;fill-opacity:1;display:block;color:#000"/>
 </g>
</svg>
