<svg xmlns="http://www.w3.org/2000/svg" viewBox="0 0 32 32">
 <g transform="translate(0,-1020.3622)">
  <rect width="26" height="10" x="3" y="1026.36" style="fill:#d32f2f;fill-opacity:1;stroke:none"/>
  <path d="m 6 1026.36 c 0 -1 0 -2 1.455 -2 l 5.091 0 c 1.455 0 1.455 1 1.455 2 l 0 1 -8 0 z" style="fill:#d32f2f;fill-opacity:1;stroke:none"/>
  <path d="m 5 1028.36 22 0 0 4.968 -22 0 z" style="fill:#95989f;fill-opacity:1;stroke:none"/>
  <rect y="1027.36" x="7" height="13" width="19" style="fill:#d8d8da;fill-opacity:1;stroke:none"/>
  <rect width="19" height="13" x="6" y="1029.36" style="fill:#f9f9f9;fill-opacity:1;stroke:none"/>
  <path d="m 1 1030.36 30 0 -2.143 18 -25.714 0 z" style="fill:#ef5350;fill-opacity:1;stroke:none"/>
  <polygon transform="matrix(8.955039e-5,0,0,7.8028193e-5,10.271888,1036.3624)" points="44385,76894 133156,76894 110963,115341 22194,115341 " style="fill:#ab3634;opacity:1;fill-opacity:1;fill-rule:evenodd"/>
  <polygon transform="matrix(8.8510347e-5,0,0,9.1034411e-5,10.410376,1034.3623)" points="88772,76894 133156,76894 88772,0 44385,0 " style="fill:#ab3634;opacity:1;fill-opacity:1;fill-rule:evenodd"/>
  <path d="m 13.71 1034.99 -3.91 6.306 1.831 3.666 3.808 -6.672 z" style="fill:#ab3634;opacity:1;fill-opacity:1;fill-rule:evenodd"/>
 </g>
</svg>
