<svg xmlns="http://www.w3.org/2000/svg" viewBox="0 0 16 16">
 <path d="m 2.668 0 c -0.344 0 -0.668 0.338 -0.668 0.697 l 0 14.607 c 0 0.338 0.344 0.697 0.668 0.697 l 10.664 0 c 0.324 0 0.668 -0.359 0.668 -0.697 l 0 -11.304 -4 -4 z" style="fill:#4cb4e0;fill-opacity:1"/>
 <path d="m 10.583 3.332 0.015 0.02 0.04 -0.02 z m 0.03 0.668 3.387 3.664 0 -3.664 z" style="fill:#000;fill-opacity:0.196"/>
 <path d="m 10 0 3.996 4 -3.384 0 c -0.299 0 -0.613 -0.317 -0.613 -0.616 z" style="fill:#fff;fill-opacity:0.392"/>
 <path d="m 8.902 11.997 c -0.193 -0.026 0.034 -0.219 0.098 -0.258 0.123 -0.074 0.223 -0.158 0.301 -0.297 0.122 -0.223 0.177 -0.519 0.229 -0.776 0.035 -0.174 0.069 -0.275 -0.024 -0.423 c -0.092 -0.147 0.065 -0.268 -0.032 -0.423 -0.163 -0.26 -0.231 -0.604 -0.392 -0.862 c -0.046 -0.073 -0.029 -0.141 -0.095 -0.149 -0.032 -0.004 -0.113 0.072 -0.141 0.094 -0.08 0.064 -0.177 0.095 -0.255 0.157 -0.039 0.031 -0.114 0.009 -0.147 0.039 -0.094 0.088 -0.072 0.361 -0.062 0.501 0.014 0.2 0.148 0.262 0.148 0.454 0 0.232 -0.035 0.39 0.026 0.627 0.035 0.136 0.122 0.291 0.137 0.43 0.012 0.11 -0.006 0.107 -0.032 0.211 -0.032 0.124 -0.046 0.235 -0.144 0.29 -0.056 0.031 -0.313 0.044 -0.345 -0.031 -0.062 -0.149 0.175 -0.2 0.216 -0.29 c 0.087 -0.195 -0.093 -0.7 -0.171 -0.869 -0.043 -0.092 -0.12 -0.166 -0.151 -0.258 -0.042 -0.125 0.043 -0.21 0.029 -0.306 -0.026 -0.186 -0.092 -0.384 -0.141 -0.564 -0.114 -0.417 -0.273 0.217 -0.339 0.377 c -0.027 0.062 -0.046 0.131 -0.072 0.196 -0.032 0.076 0.038 0.141 0.019 0.235 -0.017 0.088 -0.103 0.137 -0.15 0.203 -0.072 0.101 -0.122 0.229 -0.16 0.353 -0.081 0.258 -0.109 0.709 -0.258 0.916 -0.021 0.03 -0.081 0.013 -0.104 0.04 -0.052 0.061 0.013 0.128 -0.088 0.168 -0.078 0.031 -0.276 0.065 -0.35 0.011 -0.142 -0.103 0.036 -0.23 0.124 -0.337 0.125 -0.149 0.269 -0.285 0.366 -0.462 0.128 -0.233 0.155 -0.495 0.18 -0.763 0.012 -0.13 -0.105 -0.194 -0.004 -0.349 0.032 -0.049 0.131 -0.043 0.131 -0.094 0 -0.162 0.004 -0.324 0 -0.485 c -0.005 -0.196 -0.004 -0.518 -0.16 -0.642 -0.208 -0.166 -0.471 -0.21 -0.669 -0.388 -0.197 -0.178 -0.378 -0.339 -0.497 -0.622 -0.062 -0.149 -0.094 -0.294 -0.144 -0.447 -0.036 -0.113 -0.026 -0.075 -0.084 -0.141 -0.035 -0.039 -0.086 -0.066 -0.125 -0.11 -0.1 -0.115 -0.118 -0.229 -0.287 -0.181 c -0.067 0.02 -0.178 0.17 -0.216 0.079 -0.024 -0.059 -0.009 -0.113 0.003 -0.172 0.019 -0.089 -0.071 -0.118 -0.069 -0.203 0.004 -0.147 0.201 -0.301 0.304 -0.325 0.129 -0.031 0.272 0.036 0.409 0.004 0.111 -0.026 0.207 -0.097 0.313 -0.129 0.111 -0.034 0.212 -0.045 0.307 0.035 0.043 0.037 0.06 0.103 0.098 0.141 0.032 0.031 0.061 0.023 0.098 0.055 0.112 0.096 0.121 0.239 -0.072 0.196 0.081 0.402 0.475 1.483 0.915 0.924 c 0.205 -0.261 0.394 -0.551 0.588 -0.822 0.171 -0.239 0.271 -0.509 0.562 -0.463 c 0.287 0.045 0.484 0.282 0.707 0.478 0.182 0.161 0.396 0.196 0.588 0.329 0.204 0.141 0.387 0.378 0.457 0.65 0.102 0.393 0.043 0.771 0.223 1.144 0.108 0.226 0.262 0.384 0.399 0.571 0.073 0.101 0.122 0.24 0.098 0.376 -0.017 0.094 -0.072 0.111 -0.072 0.219 0 0.19 0.014 0.378 0.007 0.569 -0.006 0.169 -0.017 0.335 -0.037 0.502 -0.017 0.145 -0.068 0.185 -0.107 0.292 -0.058 0.158 -0.049 0.227 -0.189 0.289 -0.08 0.035 -0.216 0.106 -0.301 0.102 -0.122 -0.007 -0.14 -0.128 -0.046 -0.258 0.061 -0.085 0.167 -0.113 0.235 -0.204 0.198 -0.266 0.283 -1.065 0.118 -1.347 -0.069 -0.117 -0.15 -0.118 -0.156 -0.297 -0.006 -0.16 0.036 -0.216 -0.085 -0.36 c -0.384 -0.235 -0.411 -0.402 -0.536 -0.322 c -0.152 0.098 -0.032 0.652 0 0.807 0.058 0.278 0.288 0.409 0.137 0.69 -0.108 0.201 -0.159 0.408 -0.232 0.642 -0.066 0.211 -0.061 0.513 -0.167 0.689 -0.021 0.034 -0.053 0.053 -0.072 0.086 -0.014 0.025 -0.036 0.096 -0.046 0.11 -0.044 0.061 -0.054 0.078 -0.125 0.11 -0.126 0.058 -0.281 0.039 -0.418 0.039" style="fill:#fff;fill-rule:evenodd"/>
</svg>
