<svg xmlns="http://www.w3.org/2000/svg" viewBox="0 0 16 16">
 <path d="m 2.668 0 c -0.344 0 -0.668 0.338 -0.668 0.697 l 0 14.607 c 0 0.338 0.344 0.697 0.668 0.697 l 10.664 0 c 0.324 0 0.668 -0.359 0.668 -0.697 l 0 -11.304 -4 -4 z" style="fill:#dcdcdc;fill-opacity:1"/>
 <path d="m 10.583 3.332 0.015 0.02 0.04 -0.02 z m 0.03 0.668 3.387 3.664 0 -3.664 z" style="fill:#000;fill-opacity:0.196"/>
 <path d="m 10 0 3.996 4 -3.384 0 c -0.299 0 -0.613 -0.317 -0.613 -0.616 z" style="fill:#fff;fill-opacity:0.392"/>
 <path d="m 9.783 7.322 c 0.207 0.194 0.207 0.51 0 0.704 l -2.818 2.652 c -0.207 0.194 -0.542 0.194 -0.748 0 l 0 0 c -0.207 -0.194 -0.207 -0.51 0 -0.704 l 2.818 -2.652 c 0.207 -0.194 0.542 -0.194 0.748 0 l 0 0 z m -3.237 4.462 c -0.415 0.39 -1.09 0.39 -1.504 0 -0.415 -0.39 -0.415 -1.025 0 -1.416 l 1.997 -1.877 c -0.67 -0.153 -1.406 0.017 -1.93 0.509 l -0.761 0.716 c -0.798 0.751 -0.798 1.969 0 2.721 0.798 0.751 2.093 0.751 2.891 0 l 0.761 -0.716 c 0.523 -0.492 0.703 -1.185 0.541 -1.816 l -1.995 1.879 m 2.214 -6.221 -0.76 0.716 c -0.523 0.492 -0.705 1.184 -0.542 1.815 l 1.996 -1.878 c 0.415 -0.39 1.09 -0.39 1.504 0 0.415 0.39 0.415 1.025 0 1.416 l -1.996 1.878 c 0.67 0.153 1.405 -0.018 1.928 -0.51 l 0.761 -0.716 c 0.798 -0.751 0.798 -1.969 0 -2.721 -0.798 -0.751 -2.093 -0.751 -2.891 0 z" style="fill:#888;fill-opacity:1"/>
</svg>
