<svg xmlns="http://www.w3.org/2000/svg" viewBox="0 0 16 16">
 <path d="m 2.668 0 c -0.344 0 -0.668 -0.01 -0.668 0.334 l 0 14.998 c 0 0.324 0.344 0.668 0.668 0.668 l 10.664 0 c 0.324 0 0.668 -0.344 0.668 -0.668 l 0 -14.664 c 0 -0.344 -0.324 -0.668 -0.668 -0.668 z" style="fill:#dcdcdc"/>
 <path d="m 8 7 0 1 4 0 0 -1 z" style="fill:#888"/>
 <path d="m 4 9 0 1 l 8 0 0 -1 z" style="fill:#888"/>
 <path d="m 4 11 0 1 8 0 0 -1 z" style="fill:#888"/>
 <path d="m 8 5 0 1 4 0 0 -1 z" style="fill:#888"/>
 <rect width="3" height="3" x="4" y="5" style="fill:#888;fill-opacity:1;stroke:none;fill-rule:evenodd"/>
</svg>
