<svg xmlns="http://www.w3.org/2000/svg" viewBox="0 0 16 16">
 <path d="m 2.668 0 c -0.344 0 -0.668 0.338 -0.668 0.697 l 0 14.607 c 0 0.338 0.344 0.697 0.668 0.697 l 10.664 0 c 0.324 0 0.668 -0.359 0.668 -0.697 l 0 -11.304 -4 -4 z" style="fill:#cc2929;fill-opacity:1"/>
 <path d="m 10.583 3.332 0.015 0.02 0.04 -0.02 z m 0.03 0.668 3.387 3.664 0 -3.664 z" style="fill:#000;fill-opacity:0.196"/>
 <path d="m 10 0 3.996 4 -3.384 0 c -0.299 0 -0.613 -0.317 -0.613 -0.616 z" style="fill:#fff;fill-opacity:0.392"/>
 <path d="m 4.247 11.231 0.214 1.604 c 0 0 2.753 0.863 4.132 -3.077 l 2.407 0 0 -1.758 -1.5 0 c 0 0 0.698 -1.841 2.253 -1.995 0 -0.038 -0.17 -1.522 -0.17 -1.522 0 0 -2.555 -0.352 -4.104 3.434 -1.341 3.703 -3.231 3.313 -3.231 3.313 z" style="fill:#fff;fill-rule:evenodd"/>
</svg>
