<svg xmlns="http://www.w3.org/2000/svg" viewBox="0 0 16 16">
 <path d="m 2.668 0 c -0.344 0 -0.668 0.338 -0.668 0.697 l 0 14.607 c 0 0.338 0.344 0.697 0.668 0.697 l 10.664 0 c 0.324 0 0.668 -0.359 0.668 -0.697 l 0 -11.304 -4 -4 z" style="fill:#a6a6a6;fill-opacity:1"/>
 <path d="m 10.583 3.332 0.015 0.02 0.04 -0.02 z m 0.03 0.668 3.387 3.664 0 -3.664 z" style="fill:#000;fill-opacity:0.196"/>
 <path d="m 10 0 3.996 4 -3.384 0 c -0.299 0 -0.613 -0.317 -0.613 -0.616 z" style="fill:#fff;fill-opacity:0.392"/>
 <path d="m 7.999 5 c -2.203 0 -3.999 1.791 -3.999 4 0 2.209 1.796 4 3.999 4 2.204 0 4 -1.791 4 -4 0 -2.209 -1.797 -4 -4 -4 m 0 0.505 c 1.942 0 3.506 1.565 3.506 3.495 0 1.93 -1.563 3.495 -3.506 3.495 -1.941 0 -3.505 -1.565 -3.505 -3.495 0 -1.93 1.564 -3.495 3.505 -3.495 z m 0.114 0.498 c -0.282 0 -0.565 0.108 -0.781 0.324 l -2.01 2.01 c -0.433 0.432 -0.433 1.127 0 1.56 0.433 0.432 1.129 0.432 1.562 0 l 2.01 -2.01 c 0.433 -0.432 0.433 -1.127 0 -1.56 c -0.216 -0.216 -0.498 -0.324 -0.78 -0.324 m 0 0.158 c 0.242 0 0.485 0.092 0.67 0.277 0.37 0.37 0.37 0.969 0 1.338 -0.371 0.37 -0.971 0.37 -1.339 0 -0.369 -0.369 -0.369 -0.968 0 -1.338 c 0.185 -0.185 0.427 -0.277 0.67 -0.277 m 1.785 1.623 c -0.282 0 -0.565 0.108 -0.781 0.324 l -2.01 2.01 c -0.433 0.432 -0.433 1.127 0 1.56 0.433 0.432 1.13 0.432 1.562 0 l 2.01 -2.01 c 0.433 -0.432 0.433 -1.128 0 -1.56 -0.216 -0.216 -0.499 -0.324 -0.781 -0.324 z m 0 0.159 c 0.242 0 0.485 0.092 0.67 0.276 0.369 0.372 0.369 0.968 0 1.338 -0.37 0.369 -0.97 0.369 -1.339 0 -0.369 -0.372 -0.369 -0.968 0 -1.338 c 0.185 -0.184 0.427 -0.276 0.669 -0.276 m -3.792 0.223 c 0.242 0 0.484 0.092 0.67 0.277 0.369 0.369 0.369 0.967 0 1.338 -0.372 0.37 -0.971 0.37 -1.339 0 -0.37 -0.37 -0.37 -0.968 0 -1.338 c 0.185 -0.185 0.427 -0.277 0.669 -0.277 m 1.785 1.781 c 0.242 0 0.483 0.092 0.668 0.277 0.37 0.37 0.37 0.968 0 1.338 -0.369 0.372 -0.968 0.372 -1.337 0 -0.37 -0.369 -0.37 -0.967 0 -1.338 0.185 -0.185 0.427 -0.277 0.669 -0.277 z" style="fill:#fff;fill-opacity:1;stroke:none;fill-rule:nonzero"/>
</svg>
