<svg width="16" xmlns="http://www.w3.org/2000/svg" height="16" viewBox="0 0 16 16" xmlns:xlink="http://www.w3.org/1999/xlink">
<path style="fill:#eee" d="M 2.6875 2 C 2.34375 2 2 2.34375 2 2.6875 L 2 13.332031 C 2 13.65625 2.34375 14 2.667969 14 L 13.332031 14 C 13.65625 14 14 13.65625 14 13.332031 L 14 2.667969 C 14 2.34375 13.65625 2 13.332031 2 Z "/>
<path style="fill:#aaa" d="M 2.832031 2 C 2.609375 2 2.410156 2.109375 2.261719 2.261719 C 2.109375 2.410156 2 2.609375 2 2.832031 L 2 13.1875 C 2 13.402344 2.101562 13.601562 2.25 13.75 C 2.398438 13.898438 2.597656 14 2.8125 14 L 13.1875 14 C 13.402344 14 13.601562 13.898438 13.75 13.75 C 13.898438 13.601562 14 13.402344 14 13.1875 L 14 2.8125 C 14 2.597656 13.898438 2.398438 13.75 2.25 C 13.601562 2.101562 13.402344 2 13.1875 2 Z M 2.832031 2.332031 L 13.1875 2.332031 C 13.285156 2.332031 13.414062 2.390625 13.511719 2.488281 C 13.609375 2.585938 13.667969 2.714844 13.667969 2.8125 L 13.667969 13.1875 C 13.667969 13.285156 13.609375 13.414062 13.511719 13.511719 C 13.414062 13.609375 13.285156 13.667969 13.1875 13.667969 L 2.8125 13.667969 C 2.714844 13.667969 2.585938 13.609375 2.488281 13.511719 C 2.390625 13.414062 2.332031 13.285156 2.332031 13.1875 L 2.332031 2.832031 C 2.332031 2.722656 2.390625 2.589844 2.488281 2.488281 C 2.589844 2.390625 2.722656 2.332031 2.832031 2.332031 Z "/>
<g style="fill:#888">
<path d="M 4 8 L 5.777344 6.222656 L 7.554688 8 L 5.777344 9.777344 Z "/>
<path d="M 6.222656 5.777344 L 8 4 L 9.777344 5.777344 L 8 7.554688 Z "/>
<path d="M 8.445312 8 L 10.222656 6.222656 L 12 8 L 10.222656 9.777344 Z "/>
<path d="M 6.222656 10.222656 L 8 8.445312 L 9.777344 10.222656 L 8 12 Z "/>
</g>
</svg>
