<svg xmlns="http://www.w3.org/2000/svg" viewBox="0 0 16 16">
 <path d="m 2.668 0 c -0.344 0 -0.668 0.338 -0.668 0.697 l 0 14.607 c 0 0.338 0.344 0.697 0.668 0.697 l 10.664 0 c 0.324 0 0.668 -0.359 0.668 -0.697 l 0 -11.304 -4 -4 z" style="fill:#df1818;fill-opacity:1"/>
 <path d="m 10.583 3.332 0.015 0.02 0.04 -0.02 z m 0.03 0.668 3.387 3.664 0 -3.664 z" style="fill:#000;fill-opacity:0.196"/>
 <path d="m 10 0 3.996 4 -3.384 0 c -0.299 0 -0.613 -0.317 -0.613 -0.616 z" style="fill:#fff;fill-opacity:0.392"/>
 <path d="m 7.844 5.34 c 0 0 0.23 2.121 -1.398 4.926 -1.625 2.801 -2.102 2.426 -2.273 2.328 c -0.172 -0.098 -0.391 -0.41 0.328 -1.043 c 0.723 -0.629 1 -0.617 1 -0.617 0 0 -0.66 0.398 -0.918 0.789 -0.258 0.387 -0.465 0.629 -0.402 0.738 0.063 0.109 0.797 -0.445 1.105 -0.922 0.484 -0.75 1.402 -2.148 1.832 -3.484 c 0.426 -1.332 0.723 -2.715 0.723 -2.715 z" style="fill:#fff"/>
 <path d="m 11.855 10.254 c 0 0 -0.039 0.098 -0.465 0.059 c -0.43 -0.035 -2.094 -0.559 -2.988 -1.625 -0.891 -1.066 -0.965 -2.535 -1.027 -3.301 -0.059 -0.766 0.277 -0.551 0.328 -0.453 c 0.074 0.063 0.113 0.27 0.113 0.27 0 0 -0.027 -0.313 -0.16 -0.445 c -0.137 -0.133 -0.254 -0.137 -0.391 0.094 -0.133 0.23 -0.195 0.875 -0.086 1.492 c 0.109 0.621 0.563 2.039 1.125 2.695 0.563 0.656 1.691 1.227 2.523 1.395 0.832 0.172 1.027 -0.18 1.027 -0.18 z" style="fill:#fff"/>
 <path d="m 6.434 10.531 c 0 0 1.617 -0.52 3.145 -0.668 1.531 -0.145 2.055 0.012 2.191 0.121 0.133 0.109 0.133 0.23 0.133 0.23 0 0 0.172 -0.168 0.059 -0.34 c -0.094 -0.18 -0.242 -0.324 -1.453 -0.289 -1.211 0.035 -1.297 0.086 -2.41 0.289 -1.113 0.207 -1.664 0.656 -1.664 0.656 z" style="fill:#fff"/>
</svg>
