<svg xmlns="http://www.w3.org/2000/svg" viewBox="0 0 16 16">
 <path d="m 2.668 0 c -0.344 0 -0.668 0.338 -0.668 0.697 l 0 14.607 c 0 0.338 0.344 0.697 0.668 0.697 l 10.664 0 c 0.324 0 0.668 -0.359 0.668 -0.697 l 0 -11.304 -4 -4 z" style="fill:#3398c3;fill-opacity:1"/>
 <path d="m 10.583 3.332 0.015 0.02 0.04 -0.02 z m 0.03 0.668 3.387 3.664 0 -3.664 z" style="fill:#000;fill-opacity:0.196"/>
 <path d="m 10 0 3.996 4 -3.384 0 c -0.299 0 -0.613 -0.317 -0.613 -0.616 z" style="fill:#fff;fill-opacity:0.392"/>
 <path d="m 6.949 6 c -1.187 0.001 -2.149 0.963 -2.148 2.15 0 0.12 0.011 0.239 0.031 0.357 c -0.503 0.328 -0.832 0.847 -0.832 1.691 0 1.411 1.333 2.801 2.889 2.801 2.889 0 5.111 -3 5.111 -7 -0.671 0.839 -1.345 1.549 -2.924 1.848 -0.15 -1.059 -1.057 -1.847 -2.127 -1.848 m -0.049 1 c 0.607 0 1.099 0.492 1.1 1.1 0 0.607 -0.492 1.099 -1.1 1.1 -0.607 0 -1.099 -0.492 -1.1 -1.1 0 -0.607 0.492 -1.099 1.1 -1.1 m 3.1 3 c 0 0.222 -1.555 2 -2.889 2 -1.222 0 -1.879 -0.908 -1.879 -1.768 1.333 1.246 3.656 0.434 4.768 -0.232" style="fill:#fff;opacity:1;fill-opacity:1;stroke:none"/>
 <circle r="0.6" cy="7.7" cx="7.3" style="fill:#fff;opacity:1;fill-opacity:1;stroke:none"/>
</svg>
