<svg xmlns="http://www.w3.org/2000/svg" viewBox="0 0 16 16">
 <path d="m 2.668 0 c -0.344 0 -0.668 0.338 -0.668 0.697 l 0 14.607 c 0 0.338 0.344 0.697 0.668 0.697 l 10.664 0 c 0.324 0 0.668 -0.359 0.668 -0.697 l 0 -11.304 -4 -4 z" style="fill:#ce6a20;fill-opacity:1"/>
 <path d="m 10.583 3.332 0.015 0.02 0.04 -0.02 z m 0.03 0.668 3.387 3.664 0 -3.664 z" style="fill:#000;fill-opacity:0.196"/>
 <path d="m 10 0 3.996 4 -3.384 0 c -0.299 0 -0.613 -0.317 -0.613 -0.616 z" style="fill:#fff;fill-opacity:0.392"/>
 <path d="m 8 3.301 c -0.405 0 -0.751 0.223 -0.91 0.552 c -0.311 -0.211 -0.74 -0.247 -1.092 -0.059 -0.352 0.188 -0.54 0.546 -0.505 0.898 -0.376 -0.029 -0.769 0.141 -0.969 0.464 -0.205 0.329 -0.164 0.728 0.065 1.016 -0.352 0.147 -0.599 0.464 -0.599 0.845 c 0 0.376 0.247 0.699 0.599 0.84 c -0.229 0.288 -0.27 0.693 -0.065 1.016 0.2 0.329 0.593 0.499 0.969 0.47 -0.035 0.346 0.153 0.71 0.505 0.898 c 0.291 0.154 0.686 0.261 1 0.007 l 0 3.752 1 -1.07 0.998 1.07 0 -3.763 c 0.259 0.182 0.757 0.202 1 0.004 0.352 -0.188 0.54 -0.552 0.505 -0.898 0.376 0.029 0.769 -0.141 0.969 -0.47 0.205 -0.323 0.164 -0.728 -0.065 -1.016 0.352 -0.141 0.599 -0.464 0.599 -0.84 0 -0.382 -0.247 -0.699 -0.599 -0.845 0.229 -0.288 0.27 -0.687 0.065 -1.016 c -0.2 -0.323 -0.593 -0.493 -0.969 -0.464 0.035 -0.352 -0.153 -0.71 -0.505 -0.898 -0.352 -0.188 -0.781 -0.153 -1.092 0.059 -0.159 -0.329 -0.505 -0.552 -0.91 -0.552 z m 0 1.38 c 1.386 0 2.507 1.039 2.507 2.319 0 1.286 -1.121 2.325 -2.507 2.325 -1.386 0 -2.507 -1.039 -2.507 -2.325 0 -1.28 1.121 -2.319 2.507 -2.319 z m 0 0.464 c -1.11 0 -2 0.834 -2 1.855 0 1.027 0.892 1.861 2 1.861 1.11 0 2 -0.834 2 -1.861 c 0 -1.022 -0.892 -1.855 -2 -1.855 z" style="fill:#fff"/>
</svg>
