<svg xmlns="http://www.w3.org/2000/svg" viewBox="0 0 16 16">
 <path d="m 2.668 0 c -0.344 0 -0.668 -0.01 -0.668 0.334 l 0 14.998 c 0 0.324 0.344 0.668 0.668 0.668 l 10.664 0 c 0.324 0 0.668 -0.344 0.668 -0.668 l 0 -14.664 c 0 -0.344 -0.324 -0.668 -0.668 -0.668 z" style="fill:#207145;fill-opacity:1"/>
 <path d="m 12 5 c 0 2.581 0 4.762 0 7 c -2.809 0 -5.571 0 -8 0 c 0 -2.581 0 -4.762 0 -7 2.776 0 5.623 0 8 0 z m -1 1 -3 0 0 1 3 0 z m -4 0 -2 0 0.002 1.054 2 0 z m 4 2 -3 0 0 1 3 0 z m -4 0 -2 0 0 1 2 0 z m 4 2 -3 0 0 1 3 0 z m -4 0 -2 0 0 1 2 0 z" style="fill:#f9f9f9;fill-opacity:1"/>
</svg>
