<svg xmlns="http://www.w3.org/2000/svg" viewBox="0 0 16 16">
 <path d="m 2.667 0 c -0.343 0 -0.667 0.338 -0.667 0.696 l 0 14.609 c 0 0.338 0.343 0.696 0.667 0.696 l 10.667 0 c 0.324 0 0.667 -0.358 0.667 -0.696 l 0 -10.783 -4.333 -4.522" style="fill:#ecccd0;fill-opacity:1"/>
 <path d="m 9.667 3.826 0.021 0.022 0.052 -0.022 -0.073 0 z m 0.667 0.696 3.667 3.826 l 0 -3.826 -3.667 0 z" style="fill-opacity:0.196"/>
 <path d="m 9.667 0 4.333 4.522 l -3.667 0 c -0.324 0 -0.667 -0.358 -0.667 -0.696 l 0 -3.826" style="fill:#fff;fill-opacity:0.392"/>
 <g transform="matrix(0.34615385,0,0,0.34612722,-0.3076924,1.6946774)">
  <!-- color: #f2dbde -->
  <g>
   <path d="m 24.844 10.996 c -2.43 7.797 -3.57 5.668 -8.77 1.945 3.09 7.727 2.609 6.449 -3.5 5.996 5.285 3.996 4.344 5.355 -1.574 8.324 6.094 0.043 8.219 -0.418 5.508 5.305 5.551 -2.824 4.898 -2.852 6.566 4.43 2.699 -7.316 2.602 -6.566 8.262 -3.055 -2.156 -5.926 -2.262 -6.086 4.875 -4.582 -6.05 -5.105 -4.762 -5.469 0.789 -9.01 -7.855 0.285 -6.914 -0.273 -4.684 -6.605 -6.426 4.941 -5.93 3.363 -7.473 -2.75 m 0 0" style="fill:#ec4c45;fill-opacity:1;stroke:none;fill-rule:nonzero"/>
   <path d="m 17.445 17.996 c 2.727 5.324 0.902 6.469 -3.449 9.34 6.285 -0.059 7.109 0.363 7.887 6.66 2.664 -5.305 3.465 -6.68 9.113 -5.168 -3.582 -3.816 -4.379 -5.379 -2.613 -10.371 -4.438 2.875 -6.438 2.102 -10.938 -0.461 m 0 0" style="fill:#ff6f7f;fill-opacity:1;stroke:none;fill-rule:nonzero"/>
   <path d="m 23.605 19.996 c 1.594 2.543 1.672 2.574 4.398 3.586 -2.727 1.18 -2.289 1.16 -2.098 4.219 -2.215 -1.844 -2.922 -1.563 -5.344 0.195 1.168 -3.137 0.969 -3.297 -1.559 -5.242 3.03 -0.098 3.445 -0.055 4.602 -2.758 m 0 0" style="fill:#ffb2cd;fill-opacity:1;stroke:none;fill-rule:nonzero"/>
  </g>
 </g>
</svg>
