<svg width="16" xmlns="http://www.w3.org/2000/svg" height="16" viewBox="0 0 16 16" xmlns:xlink="http://www.w3.org/1999/xlink">
<path style="fill:#eee" d="M 2.6875 2 C 2.34375 2 2 2.34375 2 2.6875 L 2 13.332031 C 2 13.65625 2.34375 14 2.667969 14 L 13.332031 14 C 13.65625 14 14 13.65625 14 13.332031 L 14 2.667969 C 14 2.34375 13.65625 2 13.332031 2 Z "/>
<path style="fill:#888" d="M 7.773438 4.035156 C 7.105469 4.25 7.691406 5.242188 6.738281 5.730469 C 5.644531 6.289062 5.101562 4.882812 4.445312 5.886719 C 3.789062 6.886719 5.351562 6.734375 5.304688 7.914062 C 5.261719 9.09375 3.714844 8.84375 4.296875 9.882812 C 4.875 10.925781 5.519531 9.558594 6.570312 10.183594 C 7.617188 10.804688 6.617188 11.960938 7.851562 12 C 9.089844 12.039062 8.171875 10.828125 9.261719 10.269531 C 10.355469 9.714844 10.898438 11.117188 11.554688 10.113281 C 12.210938 9.113281 10.648438 9.265625 10.695312 8.085938 C 10.738281 6.90625 12.285156 7.15625 11.703125 6.117188 C 11.125 5.074219 10.480469 6.441406 9.429688 5.816406 C 8.382812 5.195312 9.382812 4.039062 8.148438 4 C 7.992188 3.996094 7.871094 4.003906 7.773438 4.035156 Z M 7.789062 7.039062 C 8.339844 6.929688 8.882812 7.265625 9 7.796875 C 9.117188 8.324219 8.765625 8.847656 8.210938 8.960938 C 7.660156 9.070312 7.117188 8.734375 7 8.203125 C 6.882812 7.675781 7.234375 7.152344 7.789062 7.039062 Z "/>
<path style="fill:#aaa" d="M 2.832031 2 C 2.609375 2 2.410156 2.109375 2.261719 2.261719 C 2.109375 2.410156 2 2.609375 2 2.832031 L 2 13.1875 C 2 13.402344 2.101562 13.601562 2.25 13.75 C 2.398438 13.898438 2.597656 14 2.8125 14 L 13.1875 14 C 13.402344 14 13.601562 13.898438 13.75 13.75 C 13.898438 13.601562 14 13.402344 14 13.1875 L 14 2.8125 C 14 2.597656 13.898438 2.398438 13.75 2.25 C 13.601562 2.101562 13.402344 2 13.1875 2 Z M 2.832031 2.332031 L 13.1875 2.332031 C 13.285156 2.332031 13.414062 2.390625 13.511719 2.488281 C 13.609375 2.585938 13.667969 2.714844 13.667969 2.8125 L 13.667969 13.1875 C 13.667969 13.285156 13.609375 13.414062 13.511719 13.511719 C 13.414062 13.609375 13.285156 13.667969 13.1875 13.667969 L 2.8125 13.667969 C 2.714844 13.667969 2.585938 13.609375 2.488281 13.511719 C 2.390625 13.414062 2.332031 13.285156 2.332031 13.1875 L 2.332031 2.832031 C 2.332031 2.722656 2.390625 2.589844 2.488281 2.488281 C 2.589844 2.390625 2.722656 2.332031 2.832031 2.332031 Z "/>
</svg>
