<svg xmlns="http://www.w3.org/2000/svg" viewBox="0 0 16 16">
 <path d="m 2.668 0 c -0.344 0 -0.668 0.338 -0.668 0.697 l 0 14.607 c 0 0.338 0.344 0.697 0.668 0.697 l 10.664 0 c 0.324 0 0.668 -0.359 0.668 -0.697 l 0 -11.304 -4 -4 z" style="fill:#9b4a85;fill-opacity:1"/>
 <path d="m 10.583 3.332 0.015 0.02 0.04 -0.02 z m 0.03 0.668 3.387 3.664 0 -3.664 z" style="fill:#000;fill-opacity:0.196"/>
 <path d="m 10 0 3.996 4 -3.384 0 c -0.299 0 -0.613 -0.317 -0.613 -0.616 z" style="fill:#fff;fill-opacity:0.392"/>
 <path d="m 7 6.243 c -0.483 0.125 -0.894 0.581 -0.894 0.581 l 0.015 0.015 0.776 2.963 c -0.557 -0.31 -1.353 -0.23 -2.01 0.255 c -0.85 0.626 -1.148 1.702 -0.654 2.393 0.493 0.691 1.577 0.736 2.427 0.11 0.669 -0.496 1.04 -1.276 0.908 -1.922 -0.005 -0.02 -0.01 -0.035 -0.02 -0.055 l -0.742 -2.963 c 0.015 -0.025 0.234 -0.125 0.938 -0.175 0.747 -0.055 1.25 -1.276 1.25 -1.276 c 0 0 -0.835 0.325 -1.499 0.09 c -0.161 -0.06 -0.337 -0.06 -0.498 -0.015 z" style="fill:#fff"/>
 <path d="m 10 7 0 -1 2 0 0 1 z" style="fill:#fff"/>
 <path d="m 8 8 0 1 4 0 0 -1 z" style="fill:#fff"/>
 <path d="m 8 10 0 1 4 0 0 -1 z" style="fill:#fff"/>
 <path d="m 8 12 0 1 4 0 0 -1 z" style="fill:#fff"/>
</svg>
