<svg xmlns="http://www.w3.org/2000/svg" viewBox="0 0 16 16">
 <path d="m 2.668 0 c -0.344 0 -0.668 0.338 -0.668 0.697 l 0 14.607 c 0 0.338 0.344 0.697 0.668 0.697 l 10.664 0 c 0.324 0 0.668 -0.359 0.668 -0.697 l 0 -11.304 -4 -4 z" style="fill:#1f244f;fill-opacity:1"/>
 <path d="m 10.583 3.332 0.015 0.02 0.04 -0.02 z m 0.03 0.668 3.387 3.664 0 -3.664 z" style="fill:#000;fill-opacity:0.196"/>
 <path d="m 10 0 3.996 4 -3.384 0 c -0.299 0 -0.613 -0.317 -0.613 -0.616 z" style="fill:#fff;fill-opacity:0.392"/>
 <g transform="matrix(1.2999414,0,0,1.2999414,-1.2999414,-2.5992969)" style="fill:#fff">
  <path d="m 3 5 0 8 4 0 0 -2 -2 0 0 -4 2 0 0 -2 c -1.333 0 -2.667 0 -4 0" transform="matrix(0.76926545,0,0,0.76926545,1.7692654,1.9995493)" style="fill:#e6e6e6;fill-opacity:1"/>
  <path d="m 7.923 5.846 2.308 0 0 1.539 -1.539 0 0 0.769 1.539 0 0 3.846 -2.308 0 0 -1.539 1.539 0 0 -0.769 -1.539 0 z" style="fill:#e6e6e6;fill-opacity:1"/>
 </g>
</svg>
