<svg xmlns="http://www.w3.org/2000/svg" viewBox="0 0 16 16">
 <path d="m 2.667 0 c -0.343 0 -0.667 0.338 -0.667 0.696 l 0 14.609 c 0 0.338 0.343 0.696 0.667 0.696 l 10.667 0 c 0.324 0 0.667 -0.358 0.667 -0.696 l 0 -10.783 -4.5 -4.522" style="fill:#376a94;fill-opacity:1"/>
 <path d="m 9.5 0 4.496 4.5 -3.804 0 c -0.336 0 -0.692 -0.356 -0.692 -0.692 l 0 -3.808" style="fill:#fff;fill-opacity:0.392"/>
 <g transform="matrix(0.24992093,0,0,0.2427961,2.0035962,3.0862207)" style="fill:#fff">
  <!-- color: #474747 -->
  <g style="fill:#fff">
   <path d="m 19.19,12 c -3.926,0 -7.202,3.878 -7.202,7.804 l 0,3.902 c 0,3.926 4.077,8.888 8,8.888 l 8,0 c 3.926,0 8,-4.962 8,-8.888 l 0,-3.902 C 35.988,15.878 32.712,12 28.786,12" style="fill:#fff;fill-opacity:1;stroke:none;fill-rule:nonzero"/>
   <path d="m 31.996 28.476 -12 0 -4 12.356" style="fill:#fff;fill-opacity:1;stroke:none;fill-rule:nonzero"/>
  </g>
 </g>
 <path d="M 10.5,4.5 14,8 14,4.5 Z" style="fill:#000;fill-opacity:0.196"/>
</svg>
