<svg xmlns="http://www.w3.org/2000/svg" viewBox="0 0 16 16">
 <path d="m 2.668 0 c -0.344 0 -0.668 0.338 -0.668 0.697 l 0 14.607 c 0 0.338 0.344 0.697 0.668 0.697 l 10.664 0 c 0.324 0 0.668 -0.359 0.668 -0.697 l 0 -11.304 -4 -4 z" style="fill:#f3b300;fill-opacity:1"/>
 <path d="m 10.583 3.332 0.015 0.02 0.04 -0.02 z m 0.03 0.668 3.387 3.664 0 -3.664 z" style="fill:#000;fill-opacity:0.196"/>
 <path d="m 10 0 3.996 4 -3.384 0 c -0.299 0 -0.613 -0.317 -0.613 -0.616 z" style="fill:#fff;fill-opacity:0.392"/>
 <g transform="matrix(0.33328137,0,0,0.33327779,0.00304392,1.0009997)">
  <!-- color: #f4b400 -->
  <g>
   <path d="m 24.01 12 c -2.898 0.004 -5.734 1.297 -7.48 3.691 -2.715 3.738 -1.73 8.801 2.145 11.441 l 0 7.871 1.328 0 0 1 8 0 0 -1 1.313 0 0 -7.871 c 0.832 -0.57 1.566 -1.258 2.145 -2.059 2.77 -3.828 1.691 -9.04 -2.43 -11.633 -1.543 -0.969 -3.289 -1.441 -5.03 -1.441 m -0.012 1.523 c 1.418 0 2.852 0.383 4.121 1.18 3.379 2.125 4.266 6.367 1.984 9.512 -0.527 0.723 -1.195 1.355 -1.977 1.848 l -0.133 1.941 -8 0 -0.117 -1.941 c -3.387 -2.125 -4.27 -6.367 -1.98 -9.512 1.426 -1.965 3.742 -3.03 6.102 -3.02 m -4 15.477 8 0 0 1.996 -8 0 m 0 1 8 0 0 1.715 -8 0 m 0 -1.715" style="fill:#f9f9f9;fill-opacity:1;stroke:none;fill-rule:nonzero"/>
  </g>
 </g>
</svg>
