<svg xmlns="http://www.w3.org/2000/svg" viewBox="0 0 16 16">
 <path d="m 2.668 0 c -0.344 0 -0.668 0.338 -0.668 0.697 l 0 14.607 c 0 0.338 0.344 0.697 0.668 0.697 l 10.664 0 c 0.324 0 0.668 -0.359 0.668 -0.697 l 0 -11.304 -4 -4 z" style="fill:#9a773c;fill-opacity:1"/>
 <path d="m 10.583 3.332 0.015 0.02 0.04 -0.02 z m 0.03 0.668 3.387 3.664 0 -3.664 z" style="fill:#000;fill-opacity:0.196"/>
 <path d="m 10 0 3.996 4 -3.384 0 c -0.299 0 -0.613 -0.317 -0.613 -0.616 z" style="fill:#fff;fill-opacity:0.392"/>
 <path d="m 11.454 6.674 c -0.032 0.016 -0.064 0.07 -0.091 0.161 -0.081 0.242 -0.639 1.912 -3.803 1.993 -1.509 0.038 -2.154 -1.305 -2.154 -1.305 l -0.038 1.729 c 0 0 0.161 0.387 -0.161 0.79 -0.016 -0.027 -0.027 -0.059 -0.048 -0.086 c -0.118 -0.161 -0.252 -0.301 -0.397 -0.403 -0.167 -0.118 -0.344 -0.199 -0.51 -0.22 -0.199 -0.032 -0.392 0.011 -0.542 0.124 -0.15 0.113 -0.242 0.279 -0.274 0.483 c -0.032 0.172 -0.021 0.36 0.038 0.553 0.048 0.177 0.129 0.349 0.247 0.516 0.124 0.172 0.274 0.322 0.435 0.43 0.183 0.124 0.371 0.193 0.559 0.204 0.059 0 0.118 -0.011 0.172 -0.021 1.214 0.978 3.625 1.891 5.226 0.849 0.032 0.011 0.07 0.027 0.102 0.038 0 0.016 -0.005 0.032 0 0.048 l 0.075 -0.027 c 0.016 0.005 0.027 0.016 0.038 0.016 0.005 0 0.005 0 0.011 0 l 0.027 0.032 0.72 0.258 c -0.027 0.252 0.097 0.542 0.408 0.666 c 0.564 0.22 1.09 0.5 1.09 0.5 c -0.269 -0.929 -0.365 -1.676 -1.069 -1.606 -0.134 0.011 -0.231 0.064 -0.306 0.145 l -0.634 -0.419 -0.027 0 -0.011 -0.005 c 0.854 -0.859 1.354 -2.465 1.053 -5.258 -0.016 -0.14 -0.075 -0.215 -0.134 -0.183 z" style="fill:#f9f9f9;fill-opacity:1"/>
 <rect width="1" height="1" x="6" style="fill:#f9f9f9;fill-opacity:1;stroke:none;fill-rule:evenodd"/>
 <rect width="1" height="1" x="5" y="1" style="fill:#f9f9f9;fill-opacity:1;stroke:none;fill-rule:evenodd"/>
 <rect width="1" height="1" x="6" y="2" style="fill:#f9f9f9;fill-opacity:1;stroke:none;fill-rule:evenodd"/>
 <rect width="1" height="1" x="5" y="3" style="fill:#f9f9f9;fill-opacity:1;stroke:none;fill-rule:evenodd"/>
 <rect width="2" height="2" x="5" y="5" style="fill:#f9f9f9;fill-opacity:1;stroke:none;fill-rule:evenodd"/>
</svg>
