<svg xmlns="http://www.w3.org/2000/svg" viewBox="0 0 16 16">
 <path d="m 2.668 0 c -0.344 0 -0.668 0.338 -0.668 0.697 l 0 14.607 c 0 0.338 0.344 0.697 0.668 0.697 l 10.664 0 c 0.324 0 0.668 -0.359 0.668 -0.697 l 0 -11.304 -4 -4 z" style="fill:#7099c3;fill-opacity:1"/>
 <g transform="matrix(1.3331238,0,0,1.3395672,-2.665153,-3.0709949)" style="fill:#fff">
  <path d="m 5.547 7.637 0 0.547 4.906 0 0 -0.547 z"/>
  <path d="m 5.273 8.727 0 0.547 5.453 0 0 -0.547 z"/>
  <path d="m 5.547 9.816 0 0.547 4.906 0 0 -0.547 z"/>
  <path d="m 7.727 6.273 0 5.453 0.547 0 0 -5.453 z"/>
 </g>
 <path d="m 10.583 3.332 0.015 0.02 0.04 -0.02 z m 0.03 0.668 3.387 3.664 0 -3.664 z" style="fill:#000;fill-opacity:0.196"/>
 <g transform="matrix(1.3331238,0,0,1.3395672,-2.665153,-3.0709949)" style="fill:none;stroke:#fff">
  <g style="stroke-width:2">
   <path d="m 20.448 32.995 c -2.01 -6 -2.01 -11.988 0 -17.99" transform="matrix(0.27272,0,0,0.27272,1.45461,2.45464)"/>
   <path d="m 27.466 32.995 c 2.01 -4.999 2.01 -11.988 0 -17.99" transform="matrix(0.27272,0,0,0.27272,1.45461,2.45464)"/>
  </g>
  <path d="m 33.06 27.317 c 0 5.03 -4.068 9.102 -9.102 9.102 -5.03 0 -9.102 -4.068 -9.102 -9.102 0 -5.03 4.068 -9.102 9.102 -9.102 5.03 0 9.102 4.068 9.102 9.102 z" transform="matrix(0.29957,0,0,0.29957,0.82443,0.81676)" style="stroke-linecap:round;stroke-width:1.821"/>
 </g>
 <path d="m 10 0 3.996 4 -3.384 0 c -0.299 0 -0.613 -0.317 -0.613 -0.616 z" style="fill:#fff;fill-opacity:0.392"/>
</svg>
