<svg xmlns="http://www.w3.org/2000/svg" viewBox="0 0 16 16">
 <path d="m 2.668 0 c -0.344 0 -0.668 0.338 -0.668 0.697 l 0 14.607 c 0 0.338 0.344 0.697 0.668 0.697 l 10.664 0 c 0.324 0 0.668 -0.359 0.668 -0.697 l 0 -11.304 -4 -4 z" style="fill:#dcdcdc;fill-opacity:1"/>
 <path d="m 10.583 3.332 0.015 0.02 0.04 -0.02 z m 0.03 0.668 3.387 3.664 0 -3.664 z" style="fill:#000;fill-opacity:0.196"/>
 <path d="m 10 0 3.996 4 -3.384 0 c -0.299 0 -0.613 -0.317 -0.613 -0.616 z" style="fill:#fff;fill-opacity:0.392"/>
 <path d="m 8.603 5.749 c -0.586 0.134 -1.072 0.623 -1.072 0.623 l 0.012 0.016 0.932 3.18 c -0.662 -0.333 -1.617 -0.247 -2.409 0.274 -1.014 0.671 -1.371 1.826 -0.779 2.568 c 0.586 0.741 1.893 0.79 2.907 0.118 0.809 -0.532 1.254 -1.37 1.09 -2.063 -0.006 -0.021 -0.012 -0.038 -0.018 -0.059 l -0.897 -3.18 c 0.023 -0.027 0.287 -0.134 1.131 -0.188 0.897 -0.059 1.5 -1.37 1.5 -1.37 c 0 0 -1.01 0.349 -1.799 0.097 -0.199 -0.064 -0.404 -0.064 -0.598 -0.016 z" style="fill:#555;fill-opacity:1"/>
</svg>
