<svg xmlns="http://www.w3.org/2000/svg" viewBox="0 0 16 16">
 <path d="m 2.668 0 c -0.344 0 -0.668 0.338 -0.668 0.697 l 0 14.607 c 0 0.338 0.344 0.697 0.668 0.697 l 10.664 0 c 0.324 0 0.668 -0.359 0.668 -0.697 l 0 -11.304 -4 -4 z" style="fill:#ef6f29;fill-opacity:1"/>
 <path d="m 10.583 3.332 0.015 0.02 0.04 -0.02 z m 0.03 0.668 3.387 3.664 0 -3.664 z" style="fill:#000;fill-opacity:0.196"/>
 <path d="m 10 0 3.996 4 -3.384 0 c -0.299 0 -0.613 -0.317 -0.613 -0.616 z" style="fill:#fff;fill-opacity:0.392"/>
 <g transform="matrix(0.33331945,0,0,0.33331945,1.666e-4,1.501426)">
  <!-- color: #eeeeee -->
  <g>
   <path d="m 15.988 14.492 c -3.766 4.04 -2.852 11.574 2.031 16.828 4.887 5.25 11.898 6.227 15.66 2.184 3.762 -4.04 2.852 -11.578 -2.035 -16.824 -4.887 -5.254 -11.898 -6.23 -15.66 -2.187 m 3.414 1.68 c 2.957 -3.18 7.792 -2.488 11.542 1.543 3.75 4.03 4.395 9.875 1.434 13.05 -2.953 3.18 -7.796 2.488 -11.542 -1.539 -3.75 -4.03 -4.391 -9.871 -1.438 -13.05" style="fill:#fff;stroke:none;fill-rule:nonzero"/>
   <path d="m 29.05 13.496 3.103 0 c 0.468 0 0.849 0.38 0.849 0.849 l 0 3.103 c 0 0.468 -0.38 0.849 -0.849 0.849 l -3.103 0 c -0.468 0 -0.849 -0.38 -0.849 -0.849 l 0 -3.103 c 0 -0.468 0.38 -0.849 0.849 -0.849 m 0 0" style="fill:#fff;fill-opacity:1;stroke:none;fill-rule:nonzero"/>
   <path d="m 13.436,19.503 5.228,0 c 0.796,0 1.436,0.642 1.436,1.432 l 0,5.231 c 0,0.791 -0.642,1.432 -1.436,1.432 l -5.228,0 C 12.64,27.598 12,26.956 12,26.166 l 0,-5.231 c 0,-0.791 0.642,-1.432 1.436,-1.432 m 0,0" style="fill:#fff;fill-opacity:1;stroke:none;fill-rule:nonzero"/>
   <path d="m 31.06 28.503 3.872 0 c 0.586 0 1.064 0.474 1.064 1.059 l 0 3.875 c 0 0.586 -0.478 1.059 -1.064 1.059 l -3.872 0 c -0.586 0 -1.064 -0.474 -1.064 -1.059 l 0 -3.875 c 0 -0.586 0.478 -1.059 1.064 -1.059 m 0 0" style="fill:#fff;fill-opacity:1;stroke:none;fill-rule:nonzero"/>
  </g>
 </g>
</svg>
