<svg xmlns="http://www.w3.org/2000/svg" viewBox="0 0 16 16">
 <path d="m 2.668 0 c -0.344 0 -0.668 0.338 -0.668 0.697 l 0 14.607 c 0 0.338 0.344 0.697 0.668 0.697 l 10.664 0 c 0.324 0 0.668 -0.359 0.668 -0.697 l 0 -11.304 -4 -4 z" style="fill:#2d2d2d;fill-opacity:1"/>
 <path d="m 10.583 3.332 0.015 0.02 0.04 -0.02 z m 0.03 0.668 3.387 3.664 0 -3.664 z" style="fill:#000;fill-opacity:0.196"/>
 <path d="m 4.391 9.273 c 0 -0.433 0.09 -0.861 0.27 -1.284 c 0.18 -0.428 0.439 -0.809 0.772 -1.141 0.343 -0.333 0.761 -0.602 1.247 -0.814 0.491 -0.206 1.052 -0.306 1.68 -0.306 c 0.74 0 1.379 0.143 1.918 0.428 0.544 0.291 0.946 0.661 1.2 1.126 l -1.237 0.729 c -0.095 -0.201 -0.211 -0.37 -0.359 -0.502 -0.148 -0.137 -0.312 -0.248 -0.491 -0.328 -0.174 -0.085 -0.349 -0.137 -0.539 -0.174 -0.185 -0.037 -0.365 -0.058 -0.534 -0.058 c -0.386 0 -0.719 0.069 -1 0.211 c -0.291 0.137 -0.534 0.322 -0.724 0.55 -0.19 0.222 -0.333 0.476 -0.433 0.761 c -0.095 0.28 -0.143 0.56 -0.143 0.846 0 0.312 0.058 0.613 0.164 0.909 0.116 0.285 0.28 0.544 0.481 0.761 0.211 0.222 0.46 0.396 0.745 0.534 0.291 0.132 0.602 0.201 0.946 0.201 0.18 0 0.365 -0.021 0.55 -0.063 0.185 -0.037 0.365 -0.1 0.539 -0.19 0.18 -0.085 0.343 -0.196 0.491 -0.328 0.148 -0.143 0.264 -0.306 0.359 -0.502 l 1.321 0.65 c -0.127 0.27 -0.312 0.507 -0.55 0.713 c -0.233 0.201 -0.502 0.37 -0.809 0.507 -0.301 0.143 -0.618 0.248 -0.956 0.322 -0.333 0.074 -0.666 0.111 -0.993 0.111 -0.576 0 -1.104 -0.106 -1.585 -0.322 c -0.476 -0.211 -0.888 -0.491 -1.237 -0.83 -0.343 -0.349 -0.613 -0.74 -0.809 -1.173 -0.185 -0.439 -0.28 -0.888 -0.28 -1.342" style="fill:#dcdcdc"/>
 <path d="m 10 0 3.996 4 -3.384 0 c -0.299 0 -0.613 -0.317 -0.613 -0.616 z" style="fill:#fff;fill-opacity:0.392"/>
</svg>
