<svg xmlns="http://www.w3.org/2000/svg" viewBox="0 0 16 16">
 <path d="m 2.668 0 c -0.344 0 -0.668 0.338 -0.668 0.697 l 0 14.607 c 0 0.338 0.344 0.697 0.668 0.697 l 10.664 0 c 0.324 0 0.668 -0.359 0.668 -0.697 l 0 -11.304 -4 -4 z" style="fill:#dcdcdc;fill-opacity:1"/>
 <path d="m 10.583 3.332 0.015 0.02 0.04 -0.02 z m 0.03 0.668 3.387 3.664 0 -3.664 z" style="fill:#000;fill-opacity:0.196"/>
 <path d="m 10 0 3.996 4 -3.384 0 c -0.299 0 -0.613 -0.317 -0.613 -0.616 z" style="fill:#fff;fill-opacity:0.392"/>
 <g style="fill:#888">
  <path d="m 5,6 0,2 -1,0 0,1 1,0 0,1 -1,0 0,1 1,0 0,2 1,0 0,-2 1,0 0,2 1,0 0,-2 1,0 L 9,10 8,10 8,9 9,9 9,8 8,8 8,6 7,6 7,8 6,8 6,6 z m 1,3 1,0 0,1 -1,0 z"/>
  <path d="m 11 12 0 1 1 0 0 -1 z"/>
  <path d="m 11 11 1 0 0 -5 -1 0 z"/>
 </g>
</svg>
