<svg xmlns="http://www.w3.org/2000/svg" viewBox="0 0 16 16">
 <path d="m 2.668 0 c -0.344 0 -0.668 0.338 -0.668 0.697 l 0 14.607 c 0 0.338 0.344 0.697 0.668 0.697 l 10.664 0 c 0.324 0 0.668 -0.359 0.668 -0.697 l 0 -11.304 -4 -4 z" style="fill:#f7ce6b;fill-opacity:1"/>
 <path d="m 10.583 3.332 0.015 0.02 0.04 -0.02 z m 0.03 0.668 3.387 3.664 0 -3.664 z" style="fill:#000;fill-opacity:0.196"/>
 <path d="m 10 0 3.996 4 -3.384 0 c -0.299 0 -0.613 -0.317 -0.613 -0.616 z" style="fill:#fff;fill-opacity:0.392"/>
 <path d="m 6.361 12.746 c -0.474 -0.244 -0.845 -0.894 -0.597 -1.401 0.21 -0.427 0.923 -0.544 0.96 -1.087 0.035 -0.514 0.441 -0.934 0.955 -0.938 c 0.539 -0.004 1.183 -0.069 1.582 0.355 0.306 0.325 0.219 1.065 0.695 1.235 0.409 0.146 0.771 0.556 0.672 1.054 -0.105 0.526 -0.543 0.819 -1.037 0.893 -1.075 0.16 -2.191 0.256 -3.228 -0.11 m -1.787 -2.602 c -0.535 -0.373 -0.595 -1.102 -0.571 -1.717 c 0.009 -0.228 0.012 -1.01 0.179 -0.79 0.17 0.22 0.126 0.397 0.469 0.333 0.521 -0.098 0.718 0.671 1.122 0.973 0.363 0.271 0.351 0.97 -0.095 1.201 -0.344 0.178 -0.77 0.203 -1.102 -0.002 m 5.811 -0.031 c -0.482 -0.197 -0.479 -0.911 -0.064 -1.219 c 0.386 -0.286 0.532 -0.962 1.152 -0.899 0.185 0.019 0.151 -0.894 0.302 -0.437 0.157 0.472 0.181 0.986 0.218 1.48 0.041 0.539 -0.297 1.156 -0.867 1.232 -0.256 0.034 -0.529 -0.005 -0.742 -0.16 m -3.968 -2.117 c -0.571 -0.281 -0.686 -1.134 -0.323 -1.625 0.3 -0.406 0.202 -1.161 0.622 -1.356 0.243 -0.113 -0.177 0.672 0.29 0.714 c 0.662 0.059 0.302 0.819 0.525 1.231 0.251 0.466 0.158 1.102 -0.425 1.165 -0.234 0.025 -0.488 0.006 -0.688 -0.129 m 1.971 -0.051 c -0.356 -0.257 -0.204 -0.745 -0.111 -1.099 0.096 -0.366 -0.21 -1.168 0.308 -1.139 0.611 0.035 0.078 -0.778 0.31 -0.695 0.445 0.159 0.445 0.931 0.78 1.338 0.335 0.405 0.382 1.14 -0.054 1.527 -0.344 0.306 -0.856 0.285 -1.234 0.069" style="fill:#555;fill-opacity:1;stroke:none;fill-rule:nonzero"/>
</svg>
