<svg xmlns="http://www.w3.org/2000/svg" viewBox="0 0 16 16">
 <path d="m 2.668 0 c -0.344 0 -0.668 0.338 -0.668 0.697 l 0 14.607 c 0 0.338 0.344 0.697 0.668 0.697 l 10.664 0 c 0.324 0 0.668 -0.359 0.668 -0.697 l 0 -11.304 -4 -4 z" style="fill:#98b3d0;fill-opacity:1"/>
 <path d="m 10.583 3.332 0.015 0.02 0.04 -0.02 z m 0.03 0.668 3.387 3.664 0 -3.664 z" style="fill:#000;fill-opacity:0.196"/>
 <path d="m 10 0 3.996 4 -3.384 0 c -0.299 0 -0.613 -0.317 -0.613 -0.616 z" style="fill:#fff;fill-opacity:0.392"/>
 <g transform="matrix(0.33333333,0,0,0.33333333,0.33333337,0.33333346)">
  <path d="m 23 19 c -6.629 0 -12 3.582 -12 8 0 3.482 3.342 6.436 8 7.535 l 0 -2.65 c -2.417 -1.088 -4 -2.868 -4 -4.885 0 -3.313 4.254 -6 9.5 -6 5.246 0 9.5 2.688 9.5 6 0 2.592 -2.61 4.794 -6.256 5.633 0.293 0.483 0.586 0.965 0.877 1.434 c 3.794 -1.344 6.379 -4 6.379 -7.07 c 0 -4.418 -5.371 -8 -12 -8 z" style="fill:#fff;fill-opacity:1;stroke:none;fill-rule:nonzero"/>
  <path d="M 20,23.004 20,38 l 3,0 0,-5 1,0 3,5 3,0 -3,-5 -0.219,-0.344 c 1.875,-0.719 3.215,-2.523 3.215,-4.656 0,-2.758 -2.238,-4.996 -5,-4.996 m -1.996,3 1.996,0 c 1.105,0 2,0.895 2,1.996 0,1.109 -0.898,2 -2,2 L 23,30 23,26 m 0,0.004" style="fill:#fff;fill-opacity:1;stroke:none;fill-rule:nonzero"/>
 </g>
</svg>
