<svg xmlns="http://www.w3.org/2000/svg" viewBox="0 0 16 16">
 <path d="m 2.668 0 c -0.344 0 -0.668 0.338 -0.668 0.697 l 0 14.607 c 0 0.338 0.344 0.697 0.668 0.697 l 10.664 0 c 0.324 0 0.668 -0.359 0.668 -0.697 l 0 -11.304 -4 -4 z" style="fill:#dc322f;fill-opacity:1"/>
 <path d="m 10.583 3.332 0.015 0.02 0.04 -0.02 z m 0.03 0.668 3.387 3.664 0 -3.664 z" style="fill:#000;fill-opacity:0.196"/>
 <path d="m 10 0 3.996 4 -3.384 0 c -0.299 0 -0.613 -0.317 -0.613 -0.616 z" style="fill:#fff;fill-opacity:0.392"/>
 <path d="M 10 9 A 2 2 0 0 0 8 11 A 2 2 0 0 0 10 13 A 2 2 0 0 0 12 11 A 2 2 0 0 0 10 9 z M 10 9.75 A 1.25 1.25 0 0 1 11.25 11 A 1.25 1.25 0 0 1 10 12.25 A 1.25 1.25 0 0 1 8.75 11 A 1.25 1.25 0 0 1 10 9.75 z M 10 10.25 A 0.75 0.75 0 0 0 9.25 11 A 0.75 0.75 0 0 0 10 11.75 A 0.75 0.75 0 0 0 10.75 11 A 0.75 0.75 0 0 0 10 10.25 z" style="fill:#fff;opacity:1;fill-opacity:1;stroke:none"/>
 <path d="m 5 9 c -0.554 0 -1 0.446 -1 1 l 0 2 c 0 0.554 0.446 1 1 1 l 2 0 c 0.554 0 1 -0.446 1 -1 l 0 -2 c 0 -0.554 -0.446 -1 -1 -1 l -2 0 z m 1.834 1 l 0.416 0.4 l -1.666 1.6 l -0.834 -0.801 l 0.416 -0.398 l 0.418 0.398 l 1.25 -1.199 z" style="fill:#fff;opacity:1;fill-opacity:1;stroke:none"/>
 <path d="m 5 5 c -0.554 0 -1 0.446 -1 1 l 0 1 c 0 0.554 0.446 1 1 1 l 6 0 c 0.554 0 1 -0.446 1 -1 l 0 -1 c 0 -0.554 -0.446 -1 -1 -1 l -6 0 z m -0.5 0.5 l 4.5 0 l 0 2 l -4.5 0 l 0 -2 z m 5.5 0.5 l 1 0 l 0 1 l -1 0 l 0 -1 z" style="fill:#fff;opacity:1;fill-opacity:1;stroke:none"/>
</svg>
