<svg xmlns="http://www.w3.org/2000/svg" viewBox="0 0 16 16">
 <path d="m 2.668 0 c -0.344 0 -0.668 0.338 -0.668 0.697 l 0 14.607 c 0 0.338 0.344 0.697 0.668 0.697 l 10.664 0 c 0.324 0 0.668 -0.359 0.668 -0.697 l 0 -11.304 -4 -4 z" style="fill:#dcdcdc;fill-opacity:1"/>
 <path d="m 10.583 3.332 0.015 0.02 0.04 -0.02 z m 0.03 0.668 3.387 3.664 0 -3.664 z" style="fill:#000;fill-opacity:0.196"/>
 <path d="m 6.964 10.819 0 -0.359 c 0 -0.518 0.094 -0.942 0.271 -1.272 c 0.183 -0.336 0.524 -0.695 1.013 -1.066 0.689 -0.506 1.119 -0.895 1.296 -1.148 0.183 -0.259 0.271 -0.565 0.271 -0.93 0 -0.453 -0.165 -0.801 -0.501 -1.042 -0.324 -0.253 -0.801 -0.377 -1.419 -0.377 c -0.4 0 -0.783 0.047 -1.166 0.13 -0.377 0.077 -0.807 0.23 -1.296 0.442 l -0.448 -0.895 c 0.954 -0.436 1.949 -0.66 2.986 -0.66 c 0.96 0 1.708 0.212 2.244 0.624 0.536 0.418 0.801 1.01 0.801 1.767 0 0.318 -0.053 0.607 -0.153 0.854 -0.094 0.247 -0.236 0.477 -0.43 0.701 c -0.188 0.218 -0.601 0.565 -1.237 1.054 -0.512 0.383 -0.848 0.701 -1.013 0.954 -0.165 0.247 -0.241 0.589 -0.241 1.01 l 0 0.218 -0.978 0 m -0.371 1.979 c 0 -0.607 0.306 -0.907 0.907 -0.907 0.294 0 0.518 0.077 0.677 0.236 0.159 0.153 0.241 0.377 0.241 0.671 0 0.283 -0.082 0.501 -0.241 0.665 -0.165 0.153 -0.389 0.23 -0.677 0.23 -0.259 0 -0.477 -0.071 -0.648 -0.206 -0.171 -0.141 -0.259 -0.371 -0.259 -0.689" style="fill:#888"/>
 <path d="m 10 0 3.996 4 -3.384 0 c -0.299 0 -0.613 -0.317 -0.613 -0.616 z" style="fill:#fff;fill-opacity:0.392"/>
</svg>
