<svg xmlns="http://www.w3.org/2000/svg" viewBox="0 0 16 16">
 <path d="m 2.668 0 c -0.344 0 -0.668 0.338 -0.668 0.697 l 0 14.607 c 0 0.338 0.344 0.697 0.668 0.697 l 10.664 0 c 0.324 0 0.668 -0.359 0.668 -0.697 l 0 -11.304 -4 -4 z" style="fill:#dc322f;fill-opacity:1"/>
 <path d="m 4 5 0 2 8 0 0 -2 m -8 3 0 5 l 8 0 0 -5 z m 5.443 0.453 c 0.292 0 0.547 0.073 0.766 0.208 0.219 0.135 0.385 0.323 0.5 0.583 0.115 0.255 0.182 0.557 0.182 0.917 0 0.766 -0.161 1.339 -0.49 1.719 -0.323 0.38 -0.823 0.568 -1.484 0.568 -0.234 0 -0.406 -0.016 -0.526 -0.042 l 0 -0.651 c 0.151 0.036 0.307 0.057 0.469 0.057 0.281 0 0.505 -0.047 0.682 -0.125 0.177 -0.083 0.323 -0.203 0.417 -0.375 0.094 -0.177 0.151 -0.417 0.167 -0.724 l -0.042 0 c -0.104 0.167 -0.224 0.281 -0.359 0.349 -0.141 0.068 -0.297 0.109 -0.5 0.109 -0.344 0 -0.625 -0.115 -0.823 -0.333 -0.198 -0.219 -0.292 -0.516 -0.292 -0.901 0 -0.417 0.125 -0.76 0.365 -1 0.24 -0.245 0.557 -0.359 0.969 -0.359 z m -3.156 0.042 0.693 0 0 3.901 -0.833 0 l 0.016 -3.03 -0.734 0.625 -0.406 -0.5 m 4.328 -0.375 c -0.115 0.021 -0.219 0.078 -0.292 0.167 -0.099 0.115 -0.141 0.292 -0.141 0.51 0 0.188 0.036 0.333 0.125 0.448 0.089 0.109 0.224 0.167 0.401 0.167 0.172 0 0.313 -0.063 0.432 -0.167 0.12 -0.115 0.182 -0.234 0.182 -0.375 0 -0.214 -0.057 -0.396 -0.167 -0.542 -0.115 -0.146 -0.26 -0.208 -0.432 -0.208 -0.042 0 -0.073 -0.01 -0.109 0 z" style="fill:#fff"/>
 <path d="m 10.583 3.332 0.015 0.02 0.04 -0.02 z m 0.03 0.668 3.387 3.664 0 -3.664 z" style="fill:#000;fill-opacity:0.196"/>
 <path d="m 10 0 3.996 4 -3.384 0 c -0.299 0 -0.613 -0.317 -0.613 -0.616 z" style="fill:#fff;fill-opacity:0.392"/>
</svg>
