<?xml version="1.0" encoding="UTF-8" standalone="no"?>
<!-- Generator: Adobe Illustrator 16.0.0, SVG Export Plug-In . SVG Version: 6.00 Build 0)  -->

<svg
   xmlns:dc="http://purl.org/dc/elements/1.1/"
   xmlns:cc="http://creativecommons.org/ns#"
   xmlns:rdf="http://www.w3.org/1999/02/22-rdf-syntax-ns#"
   xmlns:svg="http://www.w3.org/2000/svg"
   xmlns="http://www.w3.org/2000/svg"
   xmlns:sodipodi="http://sodipodi.sourceforge.net/DTD/sodipodi-0.dtd"
   xmlns:inkscape="http://www.inkscape.org/namespaces/inkscape"
   version="1.1"
   id="Capa_1"
   x="0px"
   y="0px"
   width="438.533px"
   height="438.533px"
   viewBox="0 0 438.533 438.533"
   style="enable-background:new 0 0 438.533 438.533;"
   xml:space="preserve"
   sodipodi:docname="circle-shape-outline.svg"
   inkscape:version="0.92.4 5da689c313, 2019-01-14"><metadata
   id="metadata41"><rdf:RDF><cc:Work
       rdf:about=""><dc:format>image/svg+xml</dc:format><dc:type
         rdf:resource="http://purl.org/dc/dcmitype/StillImage" /></cc:Work></rdf:RDF></metadata><defs
   id="defs39" /><sodipodi:namedview
   pagecolor="#ffffff"
   bordercolor="#666666"
   borderopacity="1"
   objecttolerance="10"
   gridtolerance="10"
   guidetolerance="10"
   inkscape:pageopacity="0"
   inkscape:pageshadow="2"
   inkscape:window-width="1366"
   inkscape:window-height="726"
   id="namedview37"
   showgrid="false"
   inkscape:zoom="0.53815792"
   inkscape:cx="-104.05868"
   inkscape:cy="219.26649"
   inkscape:window-x="0"
   inkscape:window-y="0"
   inkscape:window-maximized="0"
   inkscape:current-layer="Capa_1" />
<g
   id="g4"
   style="fill:#ffffff;fill-opacity:1">
	<path
   d="M409.133,109.203c-19.608-33.592-46.205-60.189-79.798-79.796C295.736,9.801,259.058,0,219.273,0   c-39.781,0-76.47,9.801-110.063,29.407c-33.595,19.604-60.192,46.201-79.8,79.796C9.801,142.8,0,179.489,0,219.267   c0,39.78,9.804,76.463,29.407,110.062c19.607,33.592,46.204,60.189,79.799,79.798c33.597,19.605,70.283,29.407,110.063,29.407   s76.47-9.802,110.065-29.407c33.593-19.602,60.189-46.206,79.795-79.798c19.603-33.596,29.403-70.284,29.403-110.062   C438.533,179.485,428.732,142.795,409.133,109.203z M353.742,297.208c-13.894,23.791-32.736,42.633-56.527,56.534   c-23.791,13.894-49.771,20.834-77.945,20.834c-28.167,0-54.149-6.94-77.943-20.834c-23.791-13.901-42.633-32.743-56.527-56.534   c-13.897-23.791-20.843-49.772-20.843-77.941c0-28.171,6.949-54.152,20.843-77.943c13.891-23.791,32.738-42.637,56.527-56.53   c23.791-13.895,49.772-20.84,77.943-20.84c28.173,0,54.154,6.945,77.945,20.84c23.791,13.894,42.634,32.739,56.527,56.53   c13.895,23.791,20.838,49.772,20.838,77.943C374.58,247.436,367.637,273.417,353.742,297.208z"
   id="path2"
   style="fill:#ffffff;fill-opacity:1" />
</g>
<g
   id="g6"
   style="fill:#ffffff;fill-opacity:1">
</g>
<g
   id="g8"
   style="fill:#ffffff;fill-opacity:1">
</g>
<g
   id="g10"
   style="fill:#ffffff;fill-opacity:1">
</g>
<g
   id="g12"
   style="fill:#ffffff;fill-opacity:1">
</g>
<g
   id="g14"
   style="fill:#ffffff;fill-opacity:1">
</g>
<g
   id="g16"
   style="fill:#ffffff;fill-opacity:1">
</g>
<g
   id="g18"
   style="fill:#ffffff;fill-opacity:1">
</g>
<g
   id="g20"
   style="fill:#ffffff;fill-opacity:1">
</g>
<g
   id="g22"
   style="fill:#ffffff;fill-opacity:1">
</g>
<g
   id="g24"
   style="fill:#ffffff;fill-opacity:1">
</g>
<g
   id="g26"
   style="fill:#ffffff;fill-opacity:1">
</g>
<g
   id="g28"
   style="fill:#ffffff;fill-opacity:1">
</g>
<g
   id="g30"
   style="fill:#ffffff;fill-opacity:1">
</g>
<g
   id="g32"
   style="fill:#ffffff;fill-opacity:1">
</g>
<g
   id="g34"
   style="fill:#ffffff;fill-opacity:1">
</g>
</svg>