<?xml version="1.0" encoding="UTF-8" standalone="no"?>
<!-- Generator: Adobe Illustrator 16.0.0, SVG Export Plug-In . SVG Version: 6.00 Build 0)  -->

<svg
   xmlns:dc="http://purl.org/dc/elements/1.1/"
   xmlns:cc="http://creativecommons.org/ns#"
   xmlns:rdf="http://www.w3.org/1999/02/22-rdf-syntax-ns#"
   xmlns:svg="http://www.w3.org/2000/svg"
   xmlns="http://www.w3.org/2000/svg"
   xmlns:sodipodi="http://sodipodi.sourceforge.net/DTD/sodipodi-0.dtd"
   xmlns:inkscape="http://www.inkscape.org/namespaces/inkscape"
   version="1.1"
   id="Capa_1"
   x="0px"
   y="0px"
   width="240"
   height="240"
   viewBox="0 0 240.00001 240.00001"
   xml:space="preserve"
   sodipodi:docname="search.svg"
   inkscape:version="0.92.4 5da689c313, 2019-01-14"><metadata
   id="metadata41"><rdf:RDF><cc:Work
       rdf:about=""><dc:format>image/svg+xml</dc:format><dc:type
         rdf:resource="http://purl.org/dc/dcmitype/StillImage" /><dc:title></dc:title></cc:Work></rdf:RDF></metadata><defs
   id="defs39" /><sodipodi:namedview
   pagecolor="#ffffff"
   bordercolor="#666666"
   borderopacity="1"
   objecttolerance="10"
   gridtolerance="10"
   guidetolerance="10"
   inkscape:pageopacity="0"
   inkscape:pageshadow="2"
   inkscape:window-width="1366"
   inkscape:window-height="720"
   id="namedview37"
   showgrid="false"
   inkscape:zoom="0.53815792"
   inkscape:cx="146.79705"
   inkscape:cy="159.80439"
   inkscape:window-x="0"
   inkscape:window-y="0"
   inkscape:window-maximized="0"
   inkscape:current-layer="Capa_1"
   inkscape:pagecheckerboard="true" />
<g
   id="g4"
   style="fill:#ffffff;fill-opacity:1"
   transform="matrix(0.45606706,0,0,0.45606706,20,19.999544)">
	<path
   d="M 409.133,109.203 C 389.525,75.611 362.928,49.014 329.335,29.407 295.736,9.801 259.058,0 219.273,0 179.492,0 142.803,9.801 109.21,29.407 75.615,49.011 49.018,75.608 29.41,109.203 9.801,142.8 0,179.489 0,219.267 c 0,39.78 9.804,76.463 29.407,110.062 19.607,33.592 46.204,60.189 79.799,79.798 33.597,19.605 70.283,29.407 110.063,29.407 39.78,0 76.47,-9.802 110.065,-29.407 33.593,-19.602 60.189,-46.206 79.795,-79.798 19.603,-33.596 29.403,-70.284 29.403,-110.062 0.001,-39.782 -9.8,-76.472 -29.399,-110.064 z m -55.391,188.005 c -13.894,23.791 -32.736,42.633 -56.527,56.534 -23.791,13.894 -49.771,20.834 -77.945,20.834 -28.167,0 -54.149,-6.94 -77.943,-20.834 C 117.536,339.841 98.694,320.999 84.8,297.208 70.903,273.417 63.957,247.436 63.957,219.267 c 0,-28.171 6.949,-54.152 20.843,-77.943 13.891,-23.791 32.738,-42.637 56.527,-56.53 23.791,-13.895 49.772,-20.84 77.943,-20.84 28.173,0 54.154,6.945 77.945,20.84 23.791,13.894 42.634,32.739 56.527,56.53 13.895,23.791 20.838,49.772 20.838,77.943 0,28.169 -6.943,54.15 -20.838,77.941 z"
   id="path2"
   style="fill:#ffffff;fill-opacity:1"
   inkscape:connector-curvature="0" />
</g>
<g
   id="g6"
   style="fill:#ffffff;fill-opacity:1"
   transform="translate(0,-198.53299)">
</g>
<g
   id="g8"
   style="fill:#ffffff;fill-opacity:1"
   transform="translate(0,-198.53299)">
</g>
<g
   id="g10"
   style="fill:#ffffff;fill-opacity:1"
   transform="translate(0,-198.53299)">
</g>
<g
   id="g12"
   style="fill:#ffffff;fill-opacity:1"
   transform="translate(0,-198.53299)">
</g>
<g
   id="g14"
   style="fill:#ffffff;fill-opacity:1"
   transform="translate(0,-198.53299)">
</g>
<g
   id="g16"
   style="fill:#ffffff;fill-opacity:1"
   transform="translate(0,-198.53299)">
</g>
<g
   id="g18"
   style="fill:#ffffff;fill-opacity:1"
   transform="translate(0,-198.53299)">
</g>
<g
   id="g20"
   style="fill:#ffffff;fill-opacity:1"
   transform="translate(0,-198.53299)">
</g>
<g
   id="g22"
   style="fill:#ffffff;fill-opacity:1"
   transform="translate(0,-198.53299)">
</g>
<g
   id="g24"
   style="fill:#ffffff;fill-opacity:1"
   transform="translate(0,-198.53299)">
</g>
<g
   id="g26"
   style="fill:#ffffff;fill-opacity:1"
   transform="translate(0,-198.53299)">
</g>
<g
   id="g28"
   style="fill:#ffffff;fill-opacity:1"
   transform="translate(0,-198.53299)">
</g>
<g
   id="g30"
   style="fill:#ffffff;fill-opacity:1"
   transform="translate(0,-198.53299)">
</g>
<g
   id="g32"
   style="fill:#ffffff;fill-opacity:1"
   transform="translate(0,-198.53299)">
</g>
<g
   id="g34"
   style="fill:#ffffff;fill-opacity:1"
   transform="translate(0,-198.53299)">
</g>
</svg>